<?xml version="1.0" standalone="no"?>
<?xml-stylesheet xmlns="http://www.w3.org/2000/svg" type="text/css" href="style.css"?>
<svg id="syntheticVisC" class="default" xTitle="Percent Cat Owners" yTitle="Percent Dog Owners" rTitle="Population" chartTitle="Towns in Vizzyland" width="500" height="400" xmlns="http://www.w3.org/2000/svg"><rect class="background" width="500" height="400"></rect><text id="chartTitle" text-anchor="middle" transform="translate(250,20)" x="0" y="0" style="fill: black; font-size: 1.2rem;">Towns in Vizzyland</text><g id="yAxis" transform="translate(50,30)" fill="none" font-size="10" font-family="sans-serif" text-anchor="end"><path class="domain" stroke="currentColor" d="M-6,300H0V20H-6"></path><g class="tick" opacity="1" transform="translate(0,300)"><line stroke="currentColor" x2="-6"></line><text fill="currentColor" x="-9" dy="0.32em">0</text></g><g class="tick" opacity="1" transform="translate(0,272)"><line stroke="currentColor" x2="-6"></line><text fill="currentColor" x="-9" dy="0.32em">10</text></g><g class="tick" opacity="1" transform="translate(0,244)"><line stroke="currentColor" x2="-6"></line><text fill="currentColor" x="-9" dy="0.32em">20</text></g><g class="tick" opacity="1" transform="translate(0,216)"><line stroke="currentColor" x2="-6"></line><text fill="currentColor" x="-9" dy="0.32em">30</text></g><g class="tick" opacity="1" transform="translate(0,188)"><line stroke="currentColor" x2="-6"></line><text fill="currentColor" x="-9" dy="0.32em">40</text></g><g class="tick" opacity="1" transform="translate(0,160)"><line stroke="currentColor" x2="-6"></line><text fill="currentColor" x="-9" dy="0.32em">50</text></g><g class="tick" opacity="1" transform="translate(0,132)"><line stroke="currentColor" x2="-6"></line><text fill="currentColor" x="-9" dy="0.32em">60</text></g><g class="tick" opacity="1" transform="translate(0,104.00000000000001)"><line stroke="currentColor" x2="-6"></line><text fill="currentColor" x="-9" dy="0.32em">70</text></g><g class="tick" opacity="1" transform="translate(0,75.99999999999999)"><line stroke="currentColor" x2="-6"></line><text fill="currentColor" x="-9" dy="0.32em">80</text></g><g class="tick" opacity="1" transform="translate(0,47.99999999999999)"><line stroke="currentColor" x2="-6"></line><text fill="currentColor" x="-9" dy="0.32em">90</text></g><g class="tick" opacity="1" transform="translate(0,20)"><line stroke="currentColor" x2="-6"></line><text fill="currentColor" x="-9" dy="0.32em">100</text></g></g><g id="xAxis" transform="translate(60,360)" fill="none" font-size="10" font-family="sans-serif" text-anchor="middle"><path class="domain" stroke="currentColor" d="M20,6V0H320V6"></path><g class="tick" opacity="1" transform="translate(20,0)"><line stroke="currentColor" y2="6"></line><text fill="currentColor" y="9" dy="0.71em">0</text></g><g class="tick" opacity="1" transform="translate(50,0)"><line stroke="currentColor" y2="6"></line><text fill="currentColor" y="9" dy="0.71em">10</text></g><g class="tick" opacity="1" transform="translate(80,0)"><line stroke="currentColor" y2="6"></line><text fill="currentColor" y="9" dy="0.71em">20</text></g><g class="tick" opacity="1" transform="translate(110,0)"><line stroke="currentColor" y2="6"></line><text fill="currentColor" y="9" dy="0.71em">30</text></g><g class="tick" opacity="1" transform="translate(140,0)"><line stroke="currentColor" y2="6"></line><text fill="currentColor" y="9" dy="0.71em">40</text></g><g class="tick" opacity="1" transform="translate(170,0)"><line stroke="currentColor" y2="6"></line><text fill="currentColor" y="9" dy="0.71em">50</text></g><g class="tick" opacity="1" transform="translate(200,0)"><line stroke="currentColor" y2="6"></line><text fill="currentColor" y="9" dy="0.71em">60</text></g><g class="tick" opacity="1" transform="translate(230,0)"><line stroke="currentColor" y2="6"></line><text fill="currentColor" y="9" dy="0.71em">70</text></g><g class="tick" opacity="1" transform="translate(260,0)"><line stroke="currentColor" y2="6"></line><text fill="currentColor" y="9" dy="0.71em">80</text></g><g class="tick" opacity="1" transform="translate(290,0)"><line stroke="currentColor" y2="6"></line><text fill="currentColor" y="9" dy="0.71em">90</text></g><g class="tick" opacity="1" transform="translate(320,0)"><line stroke="currentColor" y2="6"></line><text fill="currentColor" y="9" dy="0.71em">100</text></g></g><g id="labels"><text id="xTitle" text-anchor="middle" transform="translate(250,350)" x="0" y="40" style="fill: black; font-size: 0.8rem;">Percent Cat Owners</text><g id="group-yTitle" transform="translate(60,190)"><text id="yTitle" text-anchor="middle" transform="rotate(-90)" y="-45" style="fill: black; font-size: 0.8rem;">Percent Dog Owners</text></g></g><g id="quadrant_lines" transform="translate(60,30)"><line id="verticalQuadrantLine" x1="170" y1="10" x2="170" y2="310" class="quadrantLine"></line><line id="horizontalQuadrantLine" x1="10" y1="160" x2="330" y2="160" class="quadrantLine"></line></g><g id="chart" transform="translate(60,30)"><g class="bobaCup bright" cupRadius="20" width="40" height="40" pearlRadius="2.7380424214283137" pearlCount="20" transform="translate(0,159.95225181032725)"><circle class="pool" r="20" cx="20" cy="20" style="stroke-width: 1; fill: rgb(127, 205, 187);"></circle><circle class="pearl" r="2.190433937142651" cx="22.480421380823074" cy="19.96094551607325"></circle><circle class="pearl" r="2.190433937142651" cx="14.554532211889109" cy="20.25858246523202"></circle><circle class="pearl" r="2.190433937142651" cx="21.718613402750453" cy="11.231225788085391"></circle><circle class="pearl" r="2.190433937142651" cx="25.13767186853209" cy="27.447308990534317"></circle><circle class="pearl" r="2.190433937142651" cx="6.622341466842937" cy="15.212813608895589"></circle><circle class="pearl" r="2.190433937142651" cx="28.49521909515808" cy="14.82158787688231"></circle><circle class="pearl" r="2.190433937142651" cx="17.504603283401977" cy="28.993209871734443"></circle><circle class="pearl" r="2.190433937142651" cx="14.13811847195522" cy="12.373399584276378"></circle><circle class="pearl" r="2.190433937142651" cx="31.11803529924844" cy="22.444175683247455"></circle><circle class="pearl" r="2.190433937142651" cx="10.013176726772668" cy="26.767604068489224"></circle><circle class="pearl" r="2.190433937142651" cx="25.1625299271706" cy="4.328500666167248"></circle><circle class="pearl" r="2.190433937142651" cx="27.782608687955303" cy="34.772930101052836"></circle><circle class="pearl" r="2.190433937142651" cx="8.036930275650786" cy="7.623092000895575"></circle><circle class="pearl" r="2.190433937142651" cx="36.040664285033515" cy="16.500106031740792"></circle><circle class="pearl" r="2.190433937142651" cx="11.3070075503718" cy="34.36126950601293"></circle><circle class="pearl" r="2.190433937142651" cx="16.81383473400994" cy="3.9061454691506903"></circle><circle class="pearl" r="2.190433937142651" cx="33.74247113697989" cy="29.87303346303284"></circle><circle class="pearl" r="2.190433937142651" cx="3.788525504185259" cy="22.343736665541265"></circle><circle class="pearl" r="2.190433937142651" cx="32.18050534208177" cy="7.787706818962306"></circle><circle class="pearl" r="2.190433937142651" cx="20.00567962395882" cy="36.34927596497569"></circle></g><g class="bobaCup bright" cupRadius="17.195934834465852" width="34.391869668931704" height="34.391869668931704" pearlRadius="2.7380424214283132" pearlCount="15" transform="translate(267.2828883066127,213.44861565052372)"><circle class="pool" r="17.195934834465852" cx="17.195934834465852" cy="17.195934834465852" style="stroke-width: 1; fill: rgb(29, 145, 192);"></circle><circle class="pearl" r="2.1904339371426507" cx="18.422358083081836" cy="17.426594655473316"></circle><circle class="pearl" r="2.1904339371426507" cx="12.765567128006326" cy="22.74001326026911"></circle><circle class="pearl" r="2.1904339371426507" cx="16.10849655523179" cy="9.855642360853638"></circle><circle class="pearl" r="2.1904339371426507" cx="19.87951815545288" cy="25.312375687843073"></circle><circle class="pearl" r="2.1904339371426507" cx="10.67879595905718" cy="15.55480053398586"></circle><circle class="pearl" r="2.1904339371426507" cx="23.51282363878038" cy="11.468300949853388"></circle><circle class="pearl" r="2.1904339371426507" cx="14.220720982573821" cy="30.481807408083174"></circle><circle class="pearl" r="2.1904339371426507" cx="10.227833343327672" cy="5.125788607424947"></circle><circle class="pearl" r="2.1904339371426507" cx="25.839735154095813" cy="20.055607222195228"></circle><circle class="pearl" r="2.1904339371426507" cx="4.187493927240007" cy="20.301767433400997"></circle><circle class="pearl" r="2.1904339371426507" cx="21.510215464316914" cy="4.200722899217271"></circle><circle class="pearl" r="2.1904339371426507" cx="27.21453887964569" cy="27.521181977110583"></circle><circle class="pearl" r="2.1904339371426507" cx="5.086018256484192" cy="10.318260247855836"></circle><circle class="pearl" r="2.1904339371426507" cx="30.457484761967134" cy="14.085437844338658"></circle><circle class="pearl" r="2.1904339371426507" cx="7.2202416095039235" cy="27.55184287514166"></circle></g><g class="bobaCup bright" cupRadius="17.03717615620037" width="34.07435231240074" height="34.07435231240074" pearlRadius="2.7380424214283132" pearlCount="15" transform="translate(223.30635640187714,22.698179717943976)"><circle class="pool" r="17.03717615620037" cx="17.03717615620037" cy="17.03717615620037" style="stroke-width: 1; fill: rgb(127, 205, 187);"></circle><circle class="pearl" r="2.1904339371426507" cx="18.26610481904526" cy="17.28204731194153"></circle><circle class="pearl" r="2.1904339371426507" cx="12.617522115582993" cy="22.48552401499454"></circle><circle class="pearl" r="2.1904339371426507" cx="16.041275217368828" cy="9.759394044673087"></circle><circle class="pearl" r="2.1904339371426507" cx="19.66121240243532" cy="25.080101649058324"></circle><circle class="pearl" r="2.1904339371426507" cx="10.565908836361631" cy="15.381635400127061"></circle><circle class="pearl" r="2.1904339371426507" cx="23.34837765013423" cy="11.429731197073803"></circle><circle class="pearl" r="2.1904339371426507" cx="14.081309638790463" cy="30.16525576062835"></circle><circle class="pearl" r="2.1904339371426507" cx="10.255300331797963" cy="5.0587109323984825"></circle><circle class="pearl" r="2.1904339371426507" cx="25.633434310592232" cy="19.909174226336486"></circle><circle class="pearl" r="2.1904339371426507" cx="4.041129341683066" cy="20.09074429999254"></circle><circle class="pearl" r="2.1904339371426507" cx="21.535946420086624" cy="4.255418212100806"></circle><circle class="pearl" r="2.1904339371426507" cx="26.888903002827053" cy="27.28641154328198"></circle><circle class="pearl" r="2.1904339371426507" cx="5.1452386286760285" cy="10.059277618794313"></circle><circle class="pearl" r="2.1904339371426507" cx="30.151685439349105" cy="14.00528727212575"></circle><circle class="pearl" r="2.1904339371426507" cx="7.202148679945506" cy="27.298232322038697"></circle></g><g class="bobaCup bright" cupRadius="16.291085333950562" width="32.582170667901124" height="32.582170667901124" pearlRadius="2.7380424214283132" pearlCount="13" transform="translate(88.81247038379824,6.388104107148422)"><circle class="pool" r="16.291085333950562" cx="16.291085333950562" cy="16.291085333950562" style="stroke-width: 1; fill: rgb(65, 182, 196);"></circle><circle class="pearl" r="2.1904339371426507" cx="21.29656975884455" cy="16.14562967261649"></circle><circle class="pearl" r="2.1904339371426507" cx="15.506913994466405" cy="21.52716886766553"></circle><circle class="pearl" r="2.1904339371426507" cx="16.096489777421674" cy="10.274720159952047"></circle><circle class="pearl" r="2.1904339371426507" cx="23.858974858296623" cy="23.71353925800518"></circle><circle class="pearl" r="2.1904339371426507" cx="10.262551975739424" cy="15.732513450762138"></circle><circle class="pearl" r="2.1904339371426507" cx="27.61180133403794" cy="9.86804331473213"></circle><circle class="pearl" r="2.1904339371426507" cx="10.016535282304726" cy="27.674639042014984"></circle><circle class="pearl" r="2.1904339371426507" cx="10.553720362717826" cy="4.694444706925798"></circle><circle class="pearl" r="2.1904339371426507" cx="28.868535360738374" cy="17.721418914662856"></circle><circle class="pearl" r="2.1904339371426507" cx="4.739971391904828" cy="21.544283143927945"></circle><circle class="pearl" r="2.1904339371426507" cx="21.669018971255444" cy="4.563990409389395"></circle><circle class="pearl" r="2.1904339371426507" cx="17.980077122024014" cy="28.843657081953832"></circle><circle class="pearl" r="2.1904339371426507" cx="4.934424981322565" cy="9.95248143365711"></circle></g><g class="bobaCup bright" cupRadius="15.445117186521966" width="30.89023437304393" height="30.89023437304393" pearlRadius="2.7380424214283137" pearlCount="12" transform="translate(173.83676444973807,272.03338675637815)"><circle class="pool" r="15.445117186521966" cx="15.445117186521966" cy="15.445117186521966" style="stroke-width: 1; fill: rgb(29, 145, 192);"></circle><circle class="pearl" r="2.190433937142651" cx="17.01291305549265" cy="10.947994994432557"></circle><circle class="pearl" r="2.190433937142651" cx="10.970730415036316" cy="16.954828927155507"></circle><circle class="pearl" r="2.190433937142651" cx="13.948217916274356" cy="3.723432097587027"></circle><circle class="pearl" r="2.190433937142651" cx="18.638489984519563" cy="18.659836066757457"></circle><circle class="pearl" r="2.190433937142651" cx="3.7245123770106137" cy="13.9371651809671"></circle><circle class="pearl" r="2.190433937142651" cx="26.9410435303721" cy="12.423420372533451"></circle><circle class="pearl" r="2.190433937142651" cx="12.273168791256744" cy="26.910292485103362"></circle><circle class="pearl" r="2.190433937142651" cx="6.516558579649043" cy="6.492964310448061"></circle><circle class="pearl" r="2.190433937142651" cx="26.269827693797712" cy="20.831531862770316"></circle><circle class="pearl" r="2.190433937142651" cx="5.478487295960857" cy="22.73341869882625"></circle><circle class="pearl" r="2.190433937142651" cx="22.884320318681603" cy="5.560335191280293"></circle><circle class="pearl" r="2.190433937142651" cx="20.705675952738645" cy="26.316038712336557"></circle></g><g class="bobaCup bright" cupRadius="15.36073251153561" width="30.72146502307122" height="30.72146502307122" pearlRadius="2.7380424214283137" pearlCount="12" transform="translate(283.79703539246395,170.65330820170195)"><circle class="pool" r="15.36073251153561" cx="15.36073251153561" cy="15.36073251153561" style="stroke-width: 1; fill: rgb(65, 182, 196);"></circle><circle class="pearl" r="2.190433937142651" cx="17.009915000652043" cy="10.85253735258981"></circle><circle class="pearl" r="2.190433937142651" cx="10.898359809593778" cy="16.874672377738314"></circle><circle class="pearl" r="2.190433937142651" cx="13.907525909725074" cy="3.7196182487062135"></circle><circle class="pearl" r="2.190433937142651" cx="18.504965545323266" cy="18.53634176844339"></circle><circle class="pearl" r="2.190433937142651" cx="3.7214534645791204" cy="13.888342038424385"></circle><circle class="pearl" r="2.190433937142651" cx="26.851004664579595" cy="12.77184044254967"></circle><circle class="pearl" r="2.190433937142651" cx="12.449811395162174" cy="26.79240436946184"></circle><circle class="pearl" r="2.190433937142651" cx="6.499659670577014" cy="6.464205388010701"></circle><circle class="pearl" r="2.190433937142651" cx="26.07549746009175" cy="20.799928474521778"></circle><circle class="pearl" r="2.190433937142651" cx="5.564420099037264" cy="22.785645693435825"></circle><circle class="pearl" r="2.190433937142651" cx="23.109800367044002" cy="5.748573298432348"></circle><circle class="pearl" r="2.190433937142651" cx="20.52856730849198" cy="26.175332881222328"></circle></g><g class="bobaCup bright" cupRadius="14.375122198198302" width="28.750244396396603" height="28.750244396396603" pearlRadius="2.7380424214283137" pearlCount="10" transform="translate(266.13024487333143,110.56348184689745)"><circle class="pool" r="14.375122198198302" cx="14.375122198198302" cy="14.375122198198302" style="stroke-width: 1; fill: rgb(29, 145, 192);"></circle><circle class="pearl" r="2.190433937142651" cx="17.939758025792983" cy="12.528158727888226"></circle><circle class="pearl" r="2.190433937142651" cx="11.067911271421098" cy="16.315840133491466"></circle><circle class="pearl" r="2.190433937142651" cx="14.59640764760529" cy="5.270144632995809"></circle><circle class="pearl" r="2.190433937142651" cx="21.526914739312765" cy="23.194202563188465"></circle><circle class="pearl" r="2.190433937142651" cx="3.6901677153081387" cy="13.31094046266308"></circle><circle class="pearl" r="2.190433937142651" cx="22.497125808854012" cy="6.1651036471997305"></circle><circle class="pearl" r="2.190433937142651" cx="13.776909949979675" cy="25.087068649015333"></circle><circle class="pearl" r="2.190433937142651" cx="6.6308373765088815" cy="5.915098512822071"></circle><circle class="pearl" r="2.190433937142651" cx="25.000036402020985" cy="16.063409529185353"></circle><circle class="pearl" r="2.190433937142651" cx="6.248604664088788" cy="22.582048440789038"></circle></g><g class="bobaCup bright" cupRadius="14.332610954279962" width="28.665221908559925" height="28.665221908559925" pearlRadius="2.7380424214283132" pearlCount="10" transform="translate(63.7805442989357,5.6673890457200375)"><circle class="pool" r="14.332610954279962" cx="14.332610954279962" cy="14.332610954279962" style="stroke-width: 1; fill: rgb(127, 205, 187);"></circle><circle class="pearl" r="2.1904339371426507" cx="17.859906660003688" cy="12.443145983682289"></circle><circle class="pearl" r="2.1904339371426507" cx="11.065262024430535" cy="16.281553221098022"></circle><circle class="pearl" r="2.1904339371426507" cx="14.56442958627475" cy="5.159442526437294"></circle><circle class="pearl" r="2.1904339371426507" cx="21.517353512702076" cy="23.08362998782447"></circle><circle class="pearl" r="2.1904339371426507" cx="3.688310665060288" cy="13.295287768115163"></circle><circle class="pearl" r="2.1904339371426507" cx="22.40797684028726" cy="6.142210816638889"></circle><circle class="pearl" r="2.1904339371426507" cx="13.774485615148796" cy="25.003627594613274"></circle><circle class="pearl" r="2.1904339371426507" cx="6.613436940817143" cy="5.906989979549027"></circle><circle class="pearl" r="2.1904339371426507" cx="24.925285118826547" cy="15.929284830960697"></circle><circle class="pearl" r="2.1904339371426507" cx="6.251902888351377" cy="22.51936608556165"></circle></g><g class="bobaCup bright" cupRadius="14.145131600913059" width="28.290263201826118" height="28.290263201826118" pearlRadius="2.7380424214283132" pearlCount="10" transform="translate(16.22404875342003,188.53820526570354)"><circle class="pool" r="14.145131600913059" cx="14.145131600913059" cy="14.145131600913059" style="stroke-width: 1; fill: rgb(29, 145, 192);"></circle><circle class="pearl" r="2.1904339371426507" cx="17.510576310525053" cy="12.076335391999024"></circle><circle class="pearl" r="2.1904339371426507" cx="11.099695148763187" cy="16.180344053229554"></circle><circle class="pearl" r="2.1904339371426507" cx="14.315583556787434" cy="4.6834921452197555"></circle><circle class="pearl" r="2.1904339371426507" cx="21.4553922147566" cy="22.60410852407311"></circle><circle class="pearl" r="2.1904339371426507" cx="3.6728683210372646" cy="13.353929926637333"></circle><circle class="pearl" r="2.1904339371426507" cx="22.014412795506985" cy="6.041742294394154"></circle><circle class="pearl" r="2.1904339371426507" cx="13.746428564306749" cy="24.63391981707549"></circle><circle class="pearl" r="2.1904339371426507" cx="6.4342695573168776" cy="5.93721432764849"></circle><circle class="pearl" r="2.1904339371426507" cx="24.58705697292165" cy="15.362507232231883"></circle><circle class="pearl" r="2.1904339371426507" cx="6.268683161688686" cy="22.243719330495612"></circle></g><g class="bobaCup bright" cupRadius="13.941388701890283" width="27.882777403780565" height="27.882777403780565" pearlRadius="2.7380424214283137" pearlCount="10" transform="translate(98.46744392959167,170.7199514885762)"><circle class="pool" r="13.941388701890283" cx="13.941388701890283" cy="13.941388701890283" style="stroke-width: 1; fill: rgb(29, 145, 192);"></circle><circle class="pearl" r="2.190433937142651" cx="17.058315475238754" cy="11.609874515523607"></circle><circle class="pearl" r="2.190433937142651" cx="11.167901357190605" cy="16.11831145289237"></circle><circle class="pearl" r="2.190433937142651" cx="14.070175284990079" cy="4.092865939854266"></circle><circle class="pearl" r="2.190433937142651" cx="21.385978813341005" cy="22.07796359501291"></circle><circle class="pearl" r="2.190433937142651" cx="3.661532629998428" cy="13.392499559432974"></circle><circle class="pearl" r="2.190433937142651" cx="21.588480259950895" cy="5.935169379353374"></circle><circle class="pearl" r="2.190433937142651" cx="13.706507610403552" cy="24.2300754253242"></circle><circle class="pearl" r="2.190433937142651" cx="6.301596270350697" cy="5.930384333737779"></circle><circle class="pearl" r="2.190433937142651" cx="24.21108076413513" cy="14.705821215858638"></circle><circle class="pearl" r="2.190433937142651" cx="6.289789164079535" cy="21.944649489533067"></circle></g><g class="bobaCup bright" cupRadius="13.796137321778929" width="27.592274643557857" height="27.592274643557857" pearlRadius="2.7380424214283137" pearlCount="10" transform="translate(128.17851563624137,100.50645532705406)"><circle class="pool" r="13.796137321778929" cx="13.796137321778929" cy="13.796137321778929" style="stroke-width: 1; fill: rgb(29, 145, 192);"></circle><circle class="pearl" r="2.190433937142651" cx="16.651317835560338" cy="11.20001368208059"></circle><circle class="pearl" r="2.190433937142651" cx="11.255934850492897" cy="16.124273330768396"></circle><circle class="pearl" r="2.190433937142651" cx="13.922129560054994" cy="3.6664128817943444"></circle><circle class="pearl" r="2.190433937142651" cx="21.32836486512769" cy="21.70391543363255"></circle><circle class="pearl" r="2.190433937142651" cx="3.656064306555214" cy="13.412283230336998"></circle><circle class="pearl" r="2.190433937142651" cx="21.2916002170345" cy="5.864484240316374"></circle><circle class="pearl" r="2.190433937142651" cx="13.662547559874108" cy="23.940904616451142"></circle><circle class="pearl" r="2.190433937142651" cx="6.250392059782424" cy="5.897179453348297"></circle><circle class="pearl" r="2.190433937142651" cx="23.935554689581583" cy="14.202864913203946"></circle><circle class="pearl" r="2.190433937142651" cx="6.299865019426328" cy="21.727266560337732"></circle></g><g class="bobaCup bright" cupRadius="13.780442175309481" width="27.560884350618963" height="27.560884350618963" pearlRadius="2.7380424214283137" pearlCount="9" transform="translate(215.59019907035912,48.57120144958067)"><circle class="pool" r="13.780442175309481" cx="13.780442175309481" cy="13.780442175309481" style="stroke-width: 1; fill: rgb(29, 145, 192);"></circle><circle class="pearl" r="2.190433937142651" cx="17.137549103100746" cy="12.155516919207546"></circle><circle class="pearl" r="2.190433937142651" cx="10.605960504651922" cy="16.10427901844035"></circle><circle class="pearl" r="2.190433937142651" cx="13.990745164330415" cy="3.652328036386269"></circle><circle class="pearl" r="2.190433937142651" cx="19.116814003628306" cy="22.83498251177212"></circle><circle class="pearl" r="2.190433937142651" cx="3.66960960559587" cy="13.059215055918386"></circle><circle class="pearl" r="2.190433937142651" cx="21.402257147876067" cy="5.950376098653852"></circle><circle class="pearl" r="2.190433937142651" cx="11.230400097219341" cy="23.67216599101433"></circle><circle class="pearl" r="2.190433937142651" cx="6.367246034326854" cy="5.814577715477032"></circle><circle class="pearl" r="2.190433937142651" cx="23.65214630369929" cy="16.43459833551632"></circle></g><g class="bobaCup bright" cupRadius="13.739738973374713" width="27.479477946749427" height="27.479477946749427" pearlRadius="2.7380424214283137" pearlCount="9" transform="translate(133.07943408414678,106.20962862126183)"><circle class="pool" r="13.739738973374713" cx="13.739738973374713" cy="13.739738973374713" style="stroke-width: 1; fill: rgb(65, 182, 196);"></circle><circle class="pearl" r="2.190433937142651" cx="17.08888792948018" cy="12.091681404977553"></circle><circle class="pearl" r="2.190433937142651" cx="10.611988588584545" cy="16.048328967295657"></circle><circle class="pearl" r="2.190433937142651" cx="13.897763101126754" cy="3.651631995864925"></circle><circle class="pearl" r="2.190433937142651" cx="19.048360262187806" cy="22.76178052082754"></circle><circle class="pearl" r="2.190433937142651" cx="3.664970067386207" cy="13.114205024963605"></circle><circle class="pearl" r="2.190433937142651" cx="21.313262744505735" cy="5.926511541524"></circle><circle class="pearl" r="2.190433937142651" cx="11.167908114727625" cy="23.585908464647797"></circle><circle class="pearl" r="2.190433937142651" cx="6.2809581029877" cy="5.8515274597774045"></circle><circle class="pearl" r="2.190433937142651" cx="23.573740468807586" cy="16.3746253417611"></circle></g><g class="bobaCup bright" cupRadius="13.602034930851001" width="27.204069861702003" height="27.204069861702003" pearlRadius="2.7380424214283137" pearlCount="9" transform="translate(130.16596036960377,64.12793587803796)"><circle class="pool" r="13.602034930851001" cx="13.602034930851001" cy="13.602034930851001" style="stroke-width: 1; fill: rgb(65, 182, 196);"></circle><circle class="pearl" r="2.190433937142651" cx="16.84907430952003" cy="11.850593709880933"></circle><circle class="pearl" r="2.190433937142651" cx="10.573632797839869" cy="15.89234456542879"></circle><circle class="pearl" r="2.190433937142651" cx="13.657378977105067" cy="3.6508358211408147"></circle><circle class="pearl" r="2.190433937142651" cx="18.926029918780586" cy="22.468117669801803"></circle><circle class="pearl" r="2.190433937142651" cx="3.656635501027937" cy="13.201032539346874"></circle><circle class="pearl" r="2.190433937142651" cx="21.028444826168425" cy="5.856978663186549"></circle><circle class="pearl" r="2.190433937142651" cx="11.071751064940925" cy="23.315929834422935"></circle><circle class="pearl" r="2.190433937142651" cx="6.0762343970648764" cy="5.922370673296323"></circle><circle class="pearl" r="2.190433937142651" cx="23.33249466559501" cy="16.043202021071718"></circle></g><g class="bobaCup bright" cupRadius="13.447219678424766" width="26.89443935684953" height="26.89443935684953" pearlRadius="2.7380424214283137" pearlCount="9" transform="translate(7.249892484110802,248.90863805736225)"><circle class="pool" r="13.447219678424766" cx="13.447219678424766" cy="13.447219678424766" style="stroke-width: 1; fill: rgb(127, 205, 187);"></circle><circle class="pearl" r="2.190433937142651" cx="15.918915906651668" cy="11.332855650085994"></circle><circle class="pearl" r="2.190433937142651" cx="10.220984785809508" cy="16.263994879293797"></circle><circle class="pearl" r="2.190433937142651" cx="13.563468935915576" cy="3.6512257169175566"></circle><circle class="pearl" r="2.190433937142651" cx="20.16234077099774" cy="21.447027158447852"></circle><circle class="pearl" r="2.190433937142651" cx="3.654722245180455" cy="13.119293897867859"></circle><circle class="pearl" r="2.190433937142651" cx="20.806867191927743" cy="5.843463551787824"></circle><circle class="pearl" r="2.190433937142651" cx="12.504579825038245" cy="23.21063627269069"></circle><circle class="pearl" r="2.190433937142651" cx="6.053018784879578" cy="5.866134939188095"></circle><circle class="pearl" r="2.190433937142651" cx="23.220035589698018" cy="14.24491262742294"></circle></g><g class="bobaCup bright" cupRadius="13.190156238507036" width="26.380312477014073" height="26.380312477014073" pearlRadius="2.7380424214283137" pearlCount="9" transform="translate(126.88433554238725,185.10714470527805)"><circle class="pool" r="13.190156238507036" cx="13.190156238507036" cy="13.190156238507036" style="stroke-width: 1; fill: rgb(29, 145, 192);"></circle><circle class="pearl" r="2.190433937142651" cx="15.171946695077393" cy="11.210927140056118"></circle><circle class="pearl" r="2.190433937142651" cx="9.766214762033375" cy="16.604733517459184"></circle><circle class="pearl" r="2.190433937142651" cx="13.254815178485488" cy="3.650881710531422"></circle><circle class="pearl" r="2.190433937142651" cx="20.462701119299528" cy="20.543537360272012"></circle><circle class="pearl" r="2.190433937142651" cx="3.651450447768898" cy="13.051650856554378"></circle><circle class="pearl" r="2.190433937142651" cx="20.350365411605797" cy="5.763351485001142"></circle><circle class="pearl" r="2.190433937142651" cx="13.297831457733835" cy="22.729149748493704"></circle><circle class="pearl" r="2.190433937142651" cx="5.998854895947671" cy="5.78351058489236"></circle><circle class="pearl" r="2.190433937142651" cx="22.729585696426142" cy="13.18047619193083"></circle></g><g class="bobaCup bright" cupRadius="12.579980559166444" width="25.159961118332888" height="25.159961118332888" pearlRadius="2.7380424214283137" pearlCount="8" transform="translate(102.15507603268128,77.40245555073196)"><circle class="pool" r="12.579980559166444" cx="12.579980559166444" cy="12.579980559166444" style="stroke-width: 1; fill: rgb(29, 145, 192);"></circle><circle class="pearl" r="2.190433937142651" cx="13.926424169464882" cy="12.819304121430104"></circle><circle class="pearl" r="2.190433937142651" cx="6.100593695167723" cy="19.71227438222087"></circle><circle class="pearl" r="2.190433937142651" cx="15.035662778666984" cy="3.8927324915383608"></circle><circle class="pearl" r="2.190433937142651" cx="20.648980989706796" cy="17.15206850922485"></circle><circle class="pearl" r="2.190433937142651" cx="3.6595151885242494" cy="12.109737991956978"></circle><circle class="pearl" r="2.190433937142651" cx="21.037453051512795" cy="9.167136107252126"></circle><circle class="pearl" r="2.190433937142651" cx="13.904751213581838" cy="21.43928904846904"></circle><circle class="pearl" r="2.190433937142651" cx="7.107492786429379" cy="4.903400999948682"></circle></g><g class="bobaCup bright" cupRadius="12.547232055116593" width="25.094464110233186" height="25.094464110233186" pearlRadius="2.7380424214283132" pearlCount="8" transform="translate(268.1233878102093,83.49380550178437)"><circle class="pool" r="12.547232055116593" cx="12.547232055116593" cy="12.547232055116593" style="stroke-width: 1; fill: rgb(65, 182, 196);"></circle><circle class="pearl" r="2.1904339371426507" cx="13.850674637293535" cy="12.805685529164505"></circle><circle class="pearl" r="2.1904339371426507" cx="5.968257980177332" cy="19.5806153575673"></circle><circle class="pearl" r="2.1904339371426507" cx="15.091474912264522" cy="3.911382916717419"></circle><circle class="pearl" r="2.1904339371426507" cx="20.540193686146882" cy="17.222447037899208"></circle><circle class="pearl" r="2.1904339371426507" cx="3.6627967045444434" cy="11.996930646180388"></circle><circle class="pearl" r="2.1904339371426507" cx="21.001475751788593" cy="9.245292021785223"></circle><circle class="pearl" r="2.1904339371426507" cx="13.742636920438718" cy="21.386666529829707"></circle><circle class="pearl" r="2.1904339371426507" cx="7.171854346633272" cy="4.860479959080087"></circle></g><g class="bobaCup bright" cupRadius="12.452325006931337" width="24.904650013862675" height="24.904650013862675" pearlRadius="2.7380424214283132" pearlCount="8" transform="translate(73.68613002109554,57.24570597660719)"><circle class="pool" r="12.452325006931337" cx="12.452325006931337" cy="12.452325006931337" style="stroke-width: 1; fill: rgb(29, 145, 192);"></circle><circle class="pearl" r="2.1904339371426507" cx="13.631636152114458" cy="12.75774946173598"></circle><circle class="pearl" r="2.1904339371426507" cx="5.70760147802697" cy="19.2691278756237"></circle><circle class="pearl" r="2.1904339371426507" cx="15.248618331180753" cy="3.9687521404252246"></circle><circle class="pearl" r="2.1904339371426507" cx="20.22620241800038" cy="17.406000238815437"></circle><circle class="pearl" r="2.1904339371426507" cx="3.672959880890562" cy="11.70848256743882"></circle><circle class="pearl" r="2.1904339371426507" cx="20.889682096605107" cy="9.462557073143005"></circle><circle class="pearl" r="2.1904339371426507" cx="13.333997430979295" cy="21.222674671428745"></circle><circle class="pearl" r="2.1904339371426507" cx="7.351887243076938" cy="4.7432096497083664"></circle></g><g class="bobaCup bright" cupRadius="12.173445816108266" width="24.346891632216533" height="24.346891632216533" pearlRadius="2.7380424214283137" pearlCount="7" transform="translate(99.35332903985524,68.37887539811264)"><circle class="pool" r="12.173445816108266" cx="12.173445816108266" cy="12.173445816108266" style="stroke-width: 1; fill: rgb(65, 182, 196);"></circle><circle class="pearl" r="2.190433937142651" cx="13.755237539229787" cy="12.472717713538076"></circle><circle class="pearl" r="2.190433937142651" cx="5.625136874449963" cy="14.810274302792939"></circle><circle class="pearl" r="2.190433937142651" cx="12.202634663130482" cy="3.6507582223611728"></circle><circle class="pearl" r="2.190433937142651" cx="18.829767985806505" cy="18.65091431821146"></circle><circle class="pearl" r="2.190433937142651" cx="4.876176846139028" cy="6.8504532500394335"></circle><circle class="pearl" r="2.190433937142651" cx="19.501200747744296" cy="6.9136168907933655"></circle><circle class="pearl" r="2.190433937142651" cx="11.088119431131778" cy="20.647690615362976"></circle></g><g class="bobaCup bright" cupRadius="11.742164124339334" width="23.48432824867867" height="23.48432824867867" pearlRadius="2.7380424214283132" pearlCount="7" transform="translate(82.0535410150185,129.21306078046035)"><circle class="pool" r="11.742164124339334" cx="11.742164124339334" cy="11.742164124339334" style="stroke-width: 1; fill: rgb(127, 205, 187);"></circle><circle class="pearl" r="2.1904339371426507" cx="12.473496119074683" cy="12.032458171032596"></circle><circle class="pearl" r="2.1904339371426507" cx="4.081731999895088" cy="14.894335265453721"></circle><circle class="pearl" r="2.1904339371426507" cx="11.979085857544549" cy="3.653113657678607"></circle><circle class="pearl" r="2.1904339371426507" cx="18.167199034802547" cy="17.771883541244723"></circle><circle class="pearl" r="2.1904339371426507" cx="4.685345117479948" cy="6.922728721784966"></circle><circle class="pearl" r="2.1904339371426507" cx="19.017433823424064" cy="7.440873984423535"></circle><circle class="pearl" r="2.1904339371426507" cx="10.42388739076216" cy="19.759369794104526"></circle></g><g class="bobaCup bright" cupRadius="11.671498630590108" width="23.342997261180216" height="23.342997261180216" pearlRadius="2.7380424214283146" pearlCount="7" transform="translate(63.88495997066882,230.51197434195768)"><circle class="pool" r="11.671498630590108" cx="11.671498630590108" cy="11.671498630590108" style="stroke-width: 1; fill: rgb(65, 182, 196);"></circle><circle class="pearl" r="2.1904339371426516" cx="12.157266952874716" cy="11.821594282495761"></circle><circle class="pearl" r="2.1904339371426516" cx="4.071037991851127" cy="14.77548668917675"></circle><circle class="pearl" r="2.1904339371426516" cx="12.058369140702872" cy="3.657136711924939"></circle><circle class="pearl" r="2.1904339371426516" cx="18.13111583840968" cy="17.502870385516278"></circle><circle class="pearl" r="2.1904339371426516" cx="4.71274686790323" cy="6.807043810804174"></circle><circle class="pearl" r="2.1904339371426516" cx="18.979232644092473" cy="7.654522758430216"></circle><circle class="pearl" r="2.1904339371426516" cx="10.424032789349551" cy="19.62541711379991"></circle></g><g class="bobaCup bright" cupRadius="11.631214160573967" width="23.262428321147933" height="23.262428321147933" pearlRadius="2.7380424214283137" pearlCount="7" transform="translate(99.14683158621406,45.73609905366661)"><circle class="pool" r="11.631214160573967" cx="11.631214160573967" cy="11.631214160573967" style="stroke-width: 1; fill: rgb(29, 145, 192);"></circle><circle class="pearl" r="2.190433937142651" cx="11.994601902188974" cy="11.710589070569267"></circle><circle class="pearl" r="2.190433937142651" cx="4.064450804075744" cy="14.705809672657871"></circle><circle class="pearl" r="2.190433937142651" cx="12.105658083773871" cy="3.6604036774151307"></circle><circle class="pearl" r="2.190433937142651" cx="18.108859112926577" cy="17.349719283487545"></circle><circle class="pearl" r="2.190433937142651" cx="4.729543657565223" cy="6.739166595100887"></circle><circle class="pearl" r="2.190433937142651" cx="18.955382140237774" cy="7.779343729660587"></circle><circle class="pearl" r="2.190433937142651" cx="10.423140901277922" cy="19.548796851596734"></circle></g><g class="bobaCup bright" cupRadius="11.56345845877082" width="23.12691691754164" height="23.12691691754164" pearlRadius="2.7380424214283146" pearlCount="7" transform="translate(135.82581578326165,145.3324381984491)"><circle class="pool" r="11.56345845877082" cx="11.56345845877082" cy="11.56345845877082" style="stroke-width: 1; fill: rgb(127, 205, 187);"></circle><circle class="pearl" r="2.1904339371426516" cx="11.797088649447465" cy="11.602665181461273"></circle><circle class="pearl" r="2.1904339371426516" cx="4.047316304548175" cy="14.565905635705237"></circle><circle class="pearl" r="2.1904339371426516" cx="12.17911293928184" cy="3.667124006341731"></circle><circle class="pearl" r="2.1904339371426516" cx="18.040281908196484" cy="17.144351739663712"></circle><circle class="pearl" r="2.1904339371426516" cx="4.767052406827873" cy="6.606537910290665"></circle><circle class="pearl" r="2.1904339371426516" cx="18.895685262797677" cy="7.945671827531317"></circle><circle class="pearl" r="2.1904339371426516" cx="10.367658621590035" cy="19.414197497108095"></circle></g><g class="bobaCup bright" cupRadius="11.262934324645684" width="22.52586864929137" height="22.52586864929137" pearlRadius="2.738042421428314" pearlCount="6" transform="translate(48.87729927861522,267.032152179699)"><circle class="pool" r="11.262934324645684" cx="11.262934324645684" cy="11.262934324645684" style="stroke-width: 1; fill: rgb(127, 205, 187);"></circle><circle class="pearl" r="2.1904339371426516" cx="11.62419272835642" cy="11.45578480264175"></circle><circle class="pearl" r="2.1904339371426516" cx="6.178040086541141" cy="17.3080392375625"></circle><circle class="pearl" r="2.1904339371426516" cx="9.208622681646931" cy="3.83965677324923"></circle><circle class="pearl" r="2.1904339371426516" cx="17.18870308720906" cy="17.190256521625162"></circle><circle class="pearl" r="2.1904339371426516" cx="3.76146568147056" cy="9.68740074612706"></circle><circle class="pearl" r="2.1904339371426516" cx="17.18833368525616" cy="5.3353835950049415"></circle></g><g class="bobaCup bright" cupRadius="11.173689049363357" width="22.347378098726715" height="22.347378098726715" pearlRadius="2.7380424214283132" pearlCount="6" transform="translate(110.45597381115824,128.22348158336064)"><circle class="pool" r="11.173689049363357" cx="11.173689049363357" cy="11.173689049363357" style="stroke-width: 1; fill: rgb(127, 205, 187);"></circle><circle class="pearl" r="2.1904339371426507" cx="11.519098172222783" cy="11.378327947203305"></circle><circle class="pearl" r="2.1904339371426507" cx="6.154404112442232" cy="17.41275221978504"></circle><circle class="pearl" r="2.1904339371426507" cx="8.975865065632973" cy="3.8690073694702134"></circle><circle class="pearl" r="2.1904339371426507" cx="17.015369832284566" cy="17.04799036681375"></circle><circle class="pearl" r="2.1904339371426507" cx="3.733900657922251" cy="9.812851447649921"></circle><circle class="pearl" r="2.1904339371426507" cx="17.035600765858884" cy="5.311854577650585"></circle></g><g class="bobaCup bright" cupRadius="10.864651918349335" width="21.72930383669867" height="21.72930383669867" pearlRadius="2.7380424214283137" pearlCount="6" transform="translate(86.65167391981564,42.58545949263393)"><circle class="pool" r="10.864651918349335" cx="10.864651918349335" cy="10.864651918349335" style="stroke-width: 1; fill: rgb(65, 182, 196);"></circle><circle class="pearl" r="2.190433937142651" cx="11.226935462449042" cy="11.107929679778659"></circle><circle class="pearl" r="2.190433937142651" cx="5.733892003642415" cy="16.79077389081019"></circle><circle class="pearl" r="2.190433937142651" cx="8.857910220244504" cy="3.8376577380366648"></circle><circle class="pearl" r="2.190433937142651" cx="16.40472596007827" cy="16.55995677228758"></circle><circle class="pearl" r="2.190433937142651" cx="3.758990336719256" cy="9.334669198915694"></circle><circle class="pearl" r="2.190433937142651" cx="16.491940189523355" cy="5.221598303247058"></circle></g><g class="bobaCup bright" cupRadius="10.82225229737652" width="21.64450459475304" height="21.64450459475304" pearlRadius="2.7380424214283137" pearlCount="6" transform="translate(291.47149194599103,119.34528353540709)"><circle class="pool" r="10.82225229737652" cx="10.82225229737652" cy="10.82225229737652" style="stroke-width: 1; fill: rgb(127, 205, 187);"></circle><circle class="pearl" r="2.190433937142651" cx="11.167799572729916" cy="11.078701006456225"></circle><circle class="pearl" r="2.190433937142651" cx="5.57965328055279" cy="16.639173989104794"></circle><circle class="pearl" r="2.190433937142651" cx="8.858854058777162" cy="3.8303155133033826"></circle><circle class="pearl" r="2.190433937142651" cx="16.32290426347564" cy="16.49161344266822"></circle><circle class="pearl" r="2.190433937142651" cx="3.77203918442563" cy="9.206360530343323"></circle><circle class="pearl" r="2.190433937142651" cx="16.419375161355987" cy="5.210504989768305"></circle></g><g class="bobaCup bright" cupRadius="10.747941333663691" width="21.495882667327383" height="21.495882667327383" pearlRadius="2.738042421428314" pearlCount="6" transform="translate(81.270510446188,159.8045108551067)"><circle class="pool" r="10.747941333663691" cx="10.747941333663691" cy="10.747941333663691" style="stroke-width: 1; fill: rgb(127, 205, 187);"></circle><circle class="pearl" r="2.1904339371426516" cx="11.060017087941562" cy="11.0300675541238"></circle><circle class="pearl" r="2.1904339371426516" cx="5.295784430937337" cy="16.359627511933237"></circle><circle class="pearl" r="2.1904339371426516" cx="8.872959258716767" cy="3.815532458244759"></circle><circle class="pearl" r="2.1904339371426516" cx="16.179968125519924" cy="16.371447336917345"></circle><circle class="pearl" r="2.1904339371426516" cx="3.7999536375188545" cy="8.963124915601652"></circle><circle class="pearl" r="2.1904339371426516" cx="16.29467223938699" cy="5.192578576791753"></circle></g><g class="bobaCup bright" cupRadius="10.685995240636185" width="21.37199048127237" height="21.37199048127237" pearlRadius="2.7380424214283132" pearlCount="6" transform="translate(210.9471995147704,150.40470821497627)"><circle class="pool" r="10.685995240636185" cx="10.685995240636185" cy="10.685995240636185" style="stroke-width: 1; fill: rgb(127, 205, 187);"></circle><circle class="pearl" r="2.1904339371426507" cx="11.009286613614792" cy="10.973295379100104"></circle><circle class="pearl" r="2.1904339371426507" cx="5.2963182032774645" cy="16.262507552348406"></circle><circle class="pearl" r="2.1904339371426507" cx="8.803633726071414" cy="3.817820741242394"></circle><circle class="pearl" r="2.1904339371426507" cx="16.056780317682854" cy="16.27351653897994"></circle><circle class="pearl" r="2.1904339371426507" cx="3.7966762426768836" cy="8.925880430217388"></circle><circle class="pearl" r="2.1904339371426507" cx="16.17477920744442" cy="5.168090172204056"></circle></g><g class="bobaCup bright" cupRadius="10.63996553270631" width="21.27993106541262" height="21.27993106541262" pearlRadius="2.7380424214283137" pearlCount="6" transform="translate(290.8919050606934,283.27705049385355)"><circle class="pool" r="10.63996553270631" cx="10.63996553270631" cy="10.63996553270631" style="stroke-width: 1; fill: rgb(65, 182, 196);"></circle><circle class="pearl" r="2.190433937142651" cx="10.971839133949157" cy="10.930931091761241"></circle><circle class="pearl" r="2.190433937142651" cx="5.29674524059517" cy="16.190267434366636"></circle><circle class="pearl" r="2.190433937142651" cx="8.751869888669178" cy="3.8195875118315534"></circle><circle class="pearl" r="2.190433937142651" cx="15.965207018371586" cy="16.200684626406353"></circle><circle class="pearl" r="2.190433937142651" cx="3.7942075003651166" cy="8.898486943548336"></circle><circle class="pearl" r="2.190433937142651" cx="16.085590986303398" cy="5.14989941044375"></circle></g><g class="bobaCup bright" cupRadius="10.515141537034182" width="21.030283074068365" height="21.030283074068365" pearlRadius="2.7380424214283137" pearlCount="6" transform="translate(36.529596199258876,38.98795795232772)"><circle class="pool" r="10.515141537034182" cx="10.515141537034182" cy="10.515141537034182" style="stroke-width: 1; fill: rgb(127, 205, 187);"></circle><circle class="pearl" r="2.190433937142651" cx="10.871450475572244" cy="10.81521209272074"></circle><circle class="pearl" r="2.190433937142651" cx="5.298055749475083" cy="15.99405233339041"></circle><circle class="pearl" r="2.190433937142651" cx="8.610319473050371" cy="3.8246919864461244"></circle><circle class="pearl" r="2.190433937142651" cx="15.716693413565334" cy="16.002911598914036"></circle><circle class="pearl" r="2.190433937142651" cx="3.787356343460816" cy="8.82553670887516"></circle><circle class="pearl" r="2.190433937142651" cx="15.843253772705811" cy="5.100578143112415"></circle></g><g class="bobaCup bright" cupRadius="10.293988335599797" width="20.587976671199595" height="20.587976671199595" pearlRadius="2.7380424214283137" pearlCount="5" transform="translate(102.36237762485322,85.40471608996623)"><circle class="pool" r="10.293988335599797" cx="10.293988335599797" cy="10.293988335599797" style="stroke-width: 1; fill: rgb(65, 182, 196);"></circle><circle class="pearl" r="2.190433937142651" cx="16.639952631573614" cy="7.8378868739185"></circle><circle class="pearl" r="2.190433937142651" cx="7.201574425826571" cy="16.072982448186373"></circle><circle class="pearl" r="2.190433937142651" cx="9.823388676587962" cy="3.661485814708673"></circle><circle class="pearl" r="2.190433937142651" cx="15.187918216469157" cy="15.699514119428862"></circle><circle class="pearl" r="2.190433937142651" cx="3.7509308916107393" cy="8.86114799096821"></circle></g><g class="bobaCup bright" cupRadius="10.254027980232738" width="20.508055960465477" height="20.508055960465477" pearlRadius="2.7380424214283137" pearlCount="5" transform="translate(244.3388228097563,259.0948606383954)"><circle class="pool" r="10.254027980232738" cx="10.254027980232738" cy="10.254027980232738" style="stroke-width: 1; fill: rgb(29, 145, 192);"></circle><circle class="pearl" r="2.190433937142651" cx="16.54785301510977" cy="7.753818057976824"></circle><circle class="pearl" r="2.190433937142651" cx="7.161092584862405" cy="16.224219612253417"></circle><circle class="pearl" r="2.190433937142651" cx="9.677957659263598" cy="3.666917804968106"></circle><circle class="pearl" r="2.190433937142651" cx="15.133456513479546" cy="15.62196690346293"></circle><circle class="pearl" r="2.190433937142651" cx="3.7271235253404456" cy="9.004634304806231"></circle></g><g class="bobaCup bright" cupRadius="10.125933079070908" width="20.251866158141816" height="20.251866158141816" pearlRadius="2.738042421428314" pearlCount="5" transform="translate(19.026455946924504,241.29012800046237)"><circle class="pool" r="10.125933079070908" cx="10.125933079070908" cy="10.125933079070908" style="stroke-width: 1; fill: rgb(29, 145, 192);"></circle><circle class="pearl" r="2.1904339371426516" cx="16.214577812186068" cy="7.354790277138467"></circle><circle class="pearl" r="2.1904339371426516" cx="7.32504576730795" cy="16.20606546491666"></circle><circle class="pearl" r="2.1904339371426516" cx="9.258477672180456" cy="3.687947676757713"></circle><circle class="pearl" r="2.1904339371426516" cx="15.211977719302329" cy="15.231160435067764"></circle><circle class="pearl" r="2.1904339371426516" cx="3.6902520336623987" cy="9.232082116287623"></circle></g><g class="bobaCup bright" cupRadius="9.848540893613764" width="19.69708178722753" height="19.69708178722753" pearlRadius="2.7380424214283137" pearlCount="5" transform="translate(310.15145910638626,72.33654745523377)"><circle class="pool" r="9.848540893613764" cx="9.848540893613764" cy="9.848540893613764" style="stroke-width: 1; fill: rgb(127, 205, 187);"></circle><circle class="pearl" r="2.190433937142651" cx="15.646037530572404" cy="7.069170622168802"></circle><circle class="pearl" r="2.190433937142651" cx="6.92806134923293" cy="15.60337756140375"></circle><circle class="pearl" r="2.190433937142651" cx="9.015521990375504" cy="3.686016074773109"></circle><circle class="pearl" r="2.190433937142651" cx="14.692712942349285" cy="14.772650310373553"></circle><circle class="pearl" r="2.190433937142651" cx="3.698996693747736" cy="8.874622999591272"></circle></g><g class="bobaCup bright" cupRadius="9.650755500879905" width="19.30151100175981" height="19.30151100175981" pearlRadius="2.7380424214283146" pearlCount="5" transform="translate(52.474394812799794,190.921024193818)"><circle class="pool" r="9.650755500879905" cx="9.650755500879905" cy="9.650755500879905" style="stroke-width: 1; fill: rgb(65, 182, 196);"></circle><circle class="pearl" r="2.1904339371426516" cx="15.243267180330829" cy="6.875923943309773"></circle><circle class="pearl" r="2.1904339371426516" cx="6.627016063886726" cy="15.164860778884158"></circle><circle class="pearl" r="2.1904339371426516" cx="8.866008868449946" cy="3.6826817952885085"></circle><circle class="pearl" r="2.1904339371426516" cx="14.320300709952729" cy="14.445885058036783"></circle><circle class="pearl" r="2.1904339371426516" cx="3.7085360220678725" cy="8.595989199451582"></circle></g><g class="bobaCup bright" cupRadius="9.323391607215099" width="18.646783214430197" height="18.646783214430197" pearlRadius="2.7380424214283132" pearlCount="4" transform="translate(120.05344481467499,35.04225586055271)"><circle class="pool" r="9.323391607215099" cx="9.323391607215099" cy="9.323391607215099" style="stroke-width: 1; fill: rgb(29, 145, 192);"></circle><circle class="pearl" r="2.1904339371426507" cx="14.484961521496963" cy="6.27886855328435"></circle><circle class="pearl" r="2.1904339371426507" cx="5.425355538707187" cy="12.18286604667421"></circle><circle class="pearl" r="2.1904339371426507" cx="6.823915003820998" cy="3.992007746100911"></circle><circle class="pearl" r="2.1904339371426507" cx="13.170786233476766" cy="14.165205434865893"></circle></g><g class="bobaCup bright" cupRadius="9.207806158363184" width="18.415612316726367" height="18.415612316726367" pearlRadius="2.738042421428314" pearlCount="4" transform="translate(273.02009699441146,213.80054329282802)"><circle class="pool" r="9.207806158363184" cx="9.207806158363184" cy="9.207806158363184" style="stroke-width: 1; fill: rgb(65, 182, 196);"></circle><circle class="pearl" r="2.1904339371426516" cx="14.19597984294289" cy="6.021404681156537"></circle><circle class="pearl" r="2.1904339371426516" cx="5.255609462020381" cy="12.087737380697183"></circle><circle class="pearl" r="2.1904339371426516" cx="6.441138848633893" cy="4.076203598894619"></circle><circle class="pearl" r="2.1904339371426516" cx="13.035129377800759" cy="13.931764489346765"></circle></g><g class="bobaCup bright" cupRadius="9.130758421956378" width="18.261516843912755" height="18.261516843912755" pearlRadius="2.7380424214283137" pearlCount="4" transform="translate(90.35385147451326,290.8692415780436)"><circle class="pool" r="9.130758421956378" cx="9.130758421956378" cy="9.130758421956378" style="stroke-width: 1; fill: rgb(29, 145, 192);"></circle><circle class="pearl" r="2.190433937142651" cx="14.007221844871502" cy="5.866124113057027"></circle><circle class="pearl" r="2.190433937142651" cx="5.115786135713644" cy="12.054027413870433"></circle><circle class="pearl" r="2.190433937142651" cx="6.2022228830920385" cy="4.1331044063425235"></circle><circle class="pearl" r="2.190433937142651" cx="12.920785097503781" cy="13.787047120592717"></circle></g><g class="bobaCup bright" cupRadius="9.063461900946226" width="18.126923801892453" height="18.126923801892453" pearlRadius="2.7380424214283137" pearlCount="4" transform="translate(106.03177507032193,139.0122802843083)"><circle class="pool" r="9.063461900946226" cx="9.063461900946226" cy="9.063461900946226" style="stroke-width: 1; fill: rgb(29, 145, 192);"></circle><circle class="pearl" r="2.190433937142651" cx="13.840247634110344" cy="5.728280597062345"></circle><circle class="pearl" r="2.190433937142651" cx="4.980351856960448" cy="12.116204552609874"></circle><circle class="pearl" r="2.190433937142651" cx="5.995366526808156" cy="4.185812928147559"></circle><circle class="pearl" r="2.190433937142651" cx="12.825232964267817" cy="13.658672221528938"></circle></g><g class="bobaCup bright" cupRadius="8.992683462747795" width="17.98536692549559" height="17.98536692549559" pearlRadius="2.7380424214283146" pearlCount="4" transform="translate(262.9414452887941,50.377265595556196)"><circle class="pool" r="8.992683462747795" cx="8.992683462747795" cy="8.992683462747795" style="stroke-width: 1; fill: rgb(127, 205, 187);"></circle><circle class="pearl" r="2.1904339371426516" cx="13.663051983726483" cy="5.5827292171966345"></circle><circle class="pearl" r="2.1904339371426516" cx="4.844462131084147" cy="12.18390251772255"></circle><circle class="pearl" r="2.1904339371426516" cx="5.780872269659774" cy="4.243845707485728"></circle><circle class="pearl" r="2.1904339371426516" cx="12.726641845152807" cy="13.522786027435298"></circle></g><g class="bobaCup bright" cupRadius="8.704561458182095" width="17.40912291636419" height="17.40912291636419" pearlRadius="2.738042421428314" pearlCount="4" transform="translate(59.94853835715753,65.98975016599539)"><circle class="pool" r="8.704561458182095" cx="8.704561458182095" cy="8.704561458182095" style="stroke-width: 1; fill: rgb(127, 205, 187);"></circle><circle class="pearl" r="2.1904339371426516" cx="12.879203736406087" cy="4.892338371277154"></circle><circle class="pearl" r="2.1904339371426516" cx="4.529919179958105" cy="12.516784545087036"></circle><circle class="pearl" r="2.1904339371426516" cx="4.892338371277154" cy="4.529919179958103"></circle><circle class="pearl" r="2.1904339371426516" cx="12.516784545087036" cy="12.879203736406087"></circle></g><g class="bobaCup bright" cupRadius="8.502305985478799" width="17.004611970957598" height="17.004611970957598" pearlRadius="2.7380424214283132" pearlCount="4" transform="translate(228.7320680928343,100.51953039183749)"><circle class="pool" r="8.502305985478799" cx="8.502305985478799" cy="8.502305985478799" style="stroke-width: 1; fill: rgb(29, 145, 192);"></circle><circle class="pearl" r="2.1904339371426507" cx="12.379499960344294" cy="4.586221832334969"></circle><circle class="pearl" r="2.1904339371426507" cx="4.624926855104293" cy="12.418295263012649"></circle><circle class="pearl" r="2.1904339371426507" cx="4.625196703454548" cy="4.586178436748271"></circle><circle class="pearl" r="2.1904339371426507" cx="12.379230075955551" cy="12.418528419947037"></circle></g><g class="bobaCup bright" cupRadius="8.161885076398308" width="16.323770152796616" height="16.323770152796616" pearlRadius="2.7380424214283137" pearlCount="3" transform="translate(217.96092731191376,119.15181872256173)"><circle class="pool" r="8.161885076398308" cx="8.161885076398308" cy="8.161885076398308" style="stroke-width: 1; fill: rgb(127, 205, 187);"></circle><circle class="pearl" r="2.190433937142651" cx="12.497993462966942" cy="9.842318096295525"></circle><circle class="pearl" r="2.190433937142651" cx="4.427244081071997" cy="11.110194911094824"></circle><circle class="pearl" r="2.190433937142651" cx="7.396016867977799" cy="3.686735189564244"></circle></g><g class="bobaCup bright" cupRadius="8.160420568459916" width="16.32084113691983" height="16.32084113691983" pearlRadius="2.7380424214283146" pearlCount="3" transform="translate(100.57009239715566,137.95867599464918)"><circle class="pool" r="8.160420568459916" cx="8.160420568459916" cy="8.160420568459916" style="stroke-width: 1; fill: rgb(65, 182, 196);"></circle><circle class="pearl" r="2.1904339371426516" cx="12.494785843476777" cy="9.842926272465485"></circle><circle class="pearl" r="2.1904339371426516" cx="4.425124473498606" cy="11.110506682154838"></circle><circle class="pearl" r="2.1904339371426516" cx="7.39340460715519" cy="3.6868499588412815"></circle></g><g class="bobaCup bright" cupRadius="7.921326056020712" width="15.842652112041424" height="15.842652112041424" pearlRadius="2.738042421428314" pearlCount="3" transform="translate(145.17696442047617,197.32881797727737)"><circle class="pool" r="7.921326056020712" cx="7.921326056020712" cy="7.921326056020712" style="stroke-width: 1; fill: rgb(127, 205, 187);"></circle><circle class="pearl" r="2.1904339371426516" cx="12.062160757464428" cy="9.349272661820846"></circle><circle class="pearl" r="2.1904339371426516" cx="4.470620507940472" cy="11.40082285955529"></circle><circle class="pearl" r="2.1904339371426516" cx="6.399544422653015" cy="3.7982736802835926"></circle></g><g class="bobaCup bright" cupRadius="7.8787930557388925" width="15.757586111477785" height="15.757586111477785" pearlRadius="2.7380424214283137" pearlCount="3" transform="translate(262.6586416838418,136.61168061245837)"><circle class="pool" r="7.8787930557388925" cx="7.8787930557388925" cy="7.8787930557388925" style="stroke-width: 1; fill: rgb(65, 182, 196);"></circle><circle class="pearl" r="2.190433937142651" cx="11.98306151162953" cy="9.270009785471883"></circle><circle class="pearl" r="2.190433937142651" cx="4.473932334977435" cy="11.333159797560523"></circle><circle class="pearl" r="2.190433937142651" cx="6.2888827382972705" cy="3.8128093961580065"></circle></g><g class="bobaCup bright" cupRadius="7.724533273343427" width="15.449066546686854" height="15.449066546686854" pearlRadius="2.738042421428314" pearlCount="3" transform="translate(283.7837348075848,218.35901188411896)"><circle class="pool" r="7.724533273343427" cx="7.724533273343427" cy="7.724533273343427" style="stroke-width: 1; fill: rgb(127, 205, 187);"></circle><circle class="pearl" r="2.1904339371426516" cx="11.717885147702123" cy="8.836527028613117"></circle><circle class="pearl" r="2.1904339371426516" cx="4.496826685541453" cy="11.091667586362188"></circle><circle class="pearl" r="2.1904339371426516" cx="5.749607771964602" cy="3.9074533741537576"></circle></g><g class="bobaCup bright" cupRadius="7.56633139871375" width="15.1326627974275" height="15.1326627974275" pearlRadius="2.7380424214283137" pearlCount="3" transform="translate(261.46729344067086,78.13324449079812)"><circle class="pool" r="7.56633139871375" cx="7.56633139871375" cy="7.56633139871375" style="stroke-width: 1; fill: rgb(65, 182, 196);"></circle><circle class="pearl" r="2.190433937142651" cx="11.475447134364893" cy="7.879709238053037"></circle><circle class="pearl" r="2.190433937142651" cx="4.558563782710614" cy="10.858424947451741"></circle><circle class="pearl" r="2.190433937142651" cx="4.71092551080913" cy="4.210198838096563"></circle></g><g class="bobaCup bright" cupRadius="7.3495997644212805" width="14.699199528842561" height="14.699199528842561" pearlRadius="2.7380424214283132" pearlCount="3" transform="translate(238.56261782897508,213.4778595719931)"><circle class="pool" r="7.3495997644212805" cx="7.3495997644212805" cy="7.3495997644212805" style="stroke-width: 1; fill: rgb(29, 145, 192);"></circle><circle class="pearl" r="2.1904339371426507" cx="11.013737393115711" cy="8.063341549681288"></circle><circle class="pearl" r="2.1904339371426507" cx="4.543231161078031" cy="10.491586743076073"></circle><circle class="pearl" r="2.1904339371426507" cx="4.70975313634484" cy="4.141181175139727"></circle></g><g class="bobaCup bright" cupRadius="7.251144120537807" width="14.502288241075615" height="14.502288241075615" pearlRadius="2.7380424214283137" pearlCount="3" transform="translate(107.82439062135651,95.80740391376013)"><circle class="pool" r="7.251144120537807" cx="7.251144120537807" cy="7.251144120537807" style="stroke-width: 1; fill: rgb(127, 205, 187);"></circle><circle class="pearl" r="2.190433937142651" cx="10.1785002926169" cy="10.234399856253575"></circle><circle class="pearl" r="2.190433937142651" cx="4.327653071806934" cy="10.23610406288443"></circle><circle class="pearl" r="2.190433937142651" cx="6.823223439955722" cy="3.663360945993662"></circle></g><g class="bobaCup bright" cupRadius="7.209198141773552" width="14.418396283547104" height="14.418396283547104" pearlRadius="2.7380424214283137" pearlCount="3" transform="translate(56.501289214073026,38.1493245539929)"><circle class="pool" r="7.209198141773552" cx="7.209198141773552" cy="7.209198141773552" style="stroke-width: 1; fill: rgb(29, 145, 192);"></circle><circle class="pearl" r="2.190433937142651" cx="10.099324053450637" cy="10.162996853661438"></circle><circle class="pearl" r="2.190433937142651" cx="4.3244380435620675" cy="10.165342326971121"></circle><circle class="pearl" r="2.190433937142651" cx="6.754116941949131" cy="3.6651010842695495"></circle></g><g class="bobaCup bright" cupRadius="6.636744121694122" width="13.273488243388243" height="13.273488243388243" pearlRadius="2.7380424214283137" pearlCount="2" transform="translate(289.4277965904766,234.10575772163094)"><circle class="pool" r="6.636744121694122" cx="6.636744121694122" cy="6.636744121694122" style="stroke-width: 1; fill: rgb(65, 182, 196);"></circle><circle class="pearl" r="2.190433937142651" cx="9.052722667846638" cy="4.10609046470223"></circle><circle class="pearl" r="2.190433937142651" cx="4.220765575541607" cy="9.167397778686016"></circle></g><g class="bobaCup bright" cupRadius="6.520503008124531" width="13.041006016249062" height="13.041006016249062" pearlRadius="2.738042421428314" pearlCount="2" transform="translate(286.2510688615612,90.5003620752128)"><circle class="pool" r="6.520503008124531" cx="6.520503008124531" cy="6.520503008124531" style="stroke-width: 1; fill: rgb(29, 145, 192);"></circle><circle class="pearl" r="2.1904339371426516" cx="8.825709086415984" cy="4.071801311707262"></circle><circle class="pearl" r="2.1904339371426516" cx="4.21529692983308" cy="8.969204704541802"></circle></g><g class="bobaCup bright" cupRadius="6.488748247812161" width="12.977496495624322" height="12.977496495624322" pearlRadius="2.7380424214283132" pearlCount="2" transform="translate(202.92357182525961,87.73531979026905)"><circle class="pool" r="6.488748247812161" cx="6.488748247812161" cy="6.488748247812161" style="stroke-width: 1; fill: rgb(65, 182, 196);"></circle><circle class="pearl" r="2.1904339371426507" cx="8.763698451205638" cy="4.06259272199252"></circle><circle class="pearl" r="2.1904339371426507" cx="4.2137980444186836" cy="8.914903773631803"></circle></g><g class="bobaCup bright" cupRadius="5.799040454130758" width="11.598080908261515" height="11.598080908261515" pearlRadius="2.738042421428314" pearlCount="2" transform="translate(128.61916201060438,39.140067926596316)"><circle class="pool" r="5.799040454130758" cx="5.799040454130758" cy="5.799040454130758" style="stroke-width: 1; fill: rgb(127, 205, 187);"></circle><circle class="pearl" r="2.1904339371426516" cx="7.534744918104023" cy="3.9165729031978196"></circle><circle class="pearl" r="2.1904339371426516" cx="4.063335990157492" cy="7.681508005063696"></circle></g><g class="bobaCup bright" cupRadius="4.775131339147622" width="9.550262678295244" height="9.550262678295244" pearlRadius="2.7380424214283132" pearlCount="1" transform="translate(265.5902265786567,87.97575109499996)"><circle class="pool" r="4.775131339147622" cx="4.775131339147622" cy="4.775131339147622" style="stroke-width: 1; fill: rgb(127, 205, 187);"></circle><circle class="pearl" r="2.1904339371426507" cx="5.89953944972416" cy="4.775131339147622"></circle></g><g class="bobaCup bright" cupRadius="3.911585293604732" width="7.823170587209464" height="7.823170587209464" pearlRadius="2.738042421428314" pearlCount="1" transform="translate(104.92331247819982,210.08361530044215)"><circle class="pool" r="3.911585293604732" cx="3.911585293604732" cy="3.911585293604732" style="stroke-width: 1; fill: rgb(65, 182, 196);"></circle><circle class="pearl" r="2.1904339371426516" cx="4.1724473586383795" cy="3.911585293604732"></circle></g><g class="bobaCup bright" cupRadius="0" width="0" height="0" pearlRadius="NaN" pearlCount="0" transform="translate(20,300)"><circle class="pool" r="0" cx="0" cy="0" style="stroke-width: 1; fill: rgb(65, 182, 196);"></circle></g><g class="bobaCup bright" cupRadius="0" width="0" height="0" pearlRadius="NaN" pearlCount="0" transform="translate(255.18830482916442,46.1752700156604)"><circle class="pool" r="0" cx="0" cy="0" style="stroke-width: 1; fill: rgb(65, 182, 196);"></circle></g></g><g id="legendDividerGroup" transform="translate(410,0)" height="400"><rect class="legendDivider" height="400" width="90"></rect></g><g id="legend" transform="translate(410,30)" width="90" height="320"><rect class="legendBorder" transform="translate(0,0)" width="90" height="324.9477195110013"></rect><text id="rTitle" text-anchor="middle" alignment-baseline="hanging" transform="translate(45,10)" x="0" y="0" style="fill: black; font-size: 0.8rem;">Population</text><text id="bobaValue" text-anchor="middle" alignment-baseline="hanging" transform="translate(45,25)" x="0" y="0" style="fill: black; font-size: 0.7rem;">(1 Pearl =   75)</text><g class="bright" cupRadius="8.94427190999916" width="17.88854381999832" height="17.88854381999832" pearlRadius="2.7380424214283137" pearlCount="4" transform="translate(36.05572809000084,50)"><circle class="pool" r="8.94427190999916" cx="8.94427190999916" cy="8.94427190999916" style="stroke-width: 1; fill: rgb(29, 145, 192);"></circle><circle class="pearl" r="2.190433937142651" cx="13.542613460651712" cy="5.486970900805415"></circle><circle class="pearl" r="2.190433937142651" cx="4.749399498236599" cy="12.229516637519533"></circle><circle class="pearl" r="2.190433937142651" cx="5.6385452023940825" cy="4.284028231246733"></circle><circle class="pearl" r="2.190433937142651" cx="12.653467756495177" cy="13.432459307079196"></circle></g><text id="0" class="legendSampleValue" text-anchor="middle" transform="translate(45,8)" x="0" y="72.88854381999832" style="fill: black; font-size: 0.7rem;"> 300</text><g class="bright" cupRadius="12.649110640673518" width="25.298221281347036" height="25.298221281347036" pearlRadius="2.7380424214283137" pearlCount="8" transform="translate(32.35088935932648,92.88854381999832)"><circle class="pool" r="12.649110640673518" cx="12.649110640673518" cy="12.649110640673518" style="stroke-width: 1; fill: rgb(29, 145, 192);"></circle><circle class="pearl" r="2.190433937142651" cx="14.071403428550026" cy="12.846878791771143"></circle><circle class="pearl" r="2.190433937142651" cx="6.440581911774749" cy="19.57795138257092"></circle><circle class="pearl" r="2.190433937142651" cx="15.10273708455154" cy="3.8909774644866477"></circle><circle class="pearl" r="2.190433937142651" cx="20.833946229646862" cy="17.112242666106596"></circle><circle class="pearl" r="2.190433937142651" cx="3.6634707295578792" cy="12.081372495075817"></circle><circle class="pearl" r="2.190433937142651" cx="21.1462151053254" cy="9.123450087562194"></circle><circle class="pearl" r="2.190433937142651" cx="14.187116834584868" cy="21.553646746241665"></circle><circle class="pearl" r="2.190433937142651" cx="7.171845845081948" cy="4.898098459274186"></circle></g><text id="1" class="legendSampleValue" text-anchor="middle" transform="translate(45,8)" x="0" y="123.18676510134536" style="fill: black; font-size: 0.7rem;"> 600</text><g class="bright" cupRadius="15.491933384829668" width="30.983866769659336" height="30.983866769659336" pearlRadius="2.738042421428314" pearlCount="12" transform="translate(29.508066615170332,143.18676510134537)"><circle class="pool" r="15.491933384829668" cx="15.491933384829668" cy="15.491933384829668" style="stroke-width: 1; fill: rgb(29, 145, 192);"></circle><circle class="pearl" r="2.1904339371426516" cx="17.033011743384765" cy="11.01737610913958"></circle><circle class="pearl" r="2.1904339371426516" cx="11.029309432951333" cy="17.00347040031935"></circle><circle class="pearl" r="2.1904339371426516" cx="13.977981653444434" cy="3.724876288236054"></circle><circle class="pearl" r="2.1904339371426516" cx="18.741808845067855" cy="18.756462357333643"></circle><circle class="pearl" r="2.1904339371426516" cx="3.725529689195627" cy="13.971342248807428"></circle><circle class="pearl" r="2.1904339371426516" cx="26.98661348100194" cy="12.233596672509572"></circle><circle class="pearl" r="2.1904339371426516" cx="12.152198575888569" cy="26.968872613027877"></circle><circle class="pearl" r="2.1904339371426516" cx="6.524197378590721" cy="6.5101702816287865"></circle><circle class="pearl" r="2.1904339371426516" cx="26.508263068801252" cy="20.479674242239334"></circle><circle class="pearl" r="2.1904339371426516" cx="5.419021306595209" cy="22.679550094546478"></circle><circle class="pearl" r="2.1904339371426516" cx="22.76079804957651" cy="5.461881544509561"></circle><circle class="pearl" r="2.1904339371426516" cx="20.400071923945557" cy="26.535092423407907"></circle></g><text id="2" class="legendSampleValue" text-anchor="middle" transform="translate(45,8)" x="0" y="179.1706318710047" style="fill: black; font-size: 0.7rem;"> 900</text><g class="bright" cupRadius="17.88854381999832" width="35.77708763999664" height="35.77708763999664" pearlRadius="2.7380424214283137" pearlCount="16" transform="translate(27.11145618000168,199.1706318710047)"><circle class="pool" r="17.88854381999832" cx="17.88854381999832" cy="17.88854381999832" style="stroke-width: 1; fill: rgb(29, 145, 192);"></circle><circle class="pearl" r="2.190433937142651" cx="19.8046930625516" cy="19.706925044831756"></circle><circle class="pearl" r="2.190433937142651" cx="13.339172784724305" cy="23.858410298028698"></circle><circle class="pearl" r="2.190433937142651" cx="16.092791630714295" cy="11.113543243945612"></circle><circle class="pearl" r="2.190433937142651" cx="20.836129534048155" cy="27.499380517199565"></circle><circle class="pearl" r="2.190433937142651" cx="10.312657514553905" cy="16.56124087753138"></circle><circle class="pearl" r="2.190433937142651" cx="23.678755837700653" cy="13.13675787817294"></circle><circle class="pearl" r="2.190433937142651" cx="14.311679794483911" cy="31.765114841909277"></circle><circle class="pearl" r="2.190433937142651" cx="11.081450997216843" cy="4.99648955196875"></circle><circle class="pearl" r="2.190433937142651" cx="27.674351504393126" cy="20.796258814455655"></circle><circle class="pearl" r="2.190433937142651" cx="4.000488629236898" cy="21.40866477780026"></circle><circle class="pearl" r="2.190433937142651" cx="28.333596734388347" cy="7.01684061165493"></circle><circle class="pearl" r="2.190433937142651" cx="28.522531366621063" cy="28.62247591779055"></circle><circle class="pearl" r="2.190433937142651" cx="5.30391541992303" cy="10.377661215789304"></circle><circle class="pearl" r="2.190433937142651" cx="31.694235049536697" cy="13.980399213320233"></circle><circle class="pearl" r="2.190433937142651" cx="7.311073872078207" cy="28.66408585659018"></circle><circle class="pearl" r="2.190433937142651" cx="18.987039995684725" cy="3.684483203560177"></circle></g><text id="3" class="legendSampleValue" text-anchor="middle" transform="translate(45,8)" x="0" y="239.94771951100134" style="fill: black; font-size: 0.7rem;">1.2k</text><g class="bright" cupRadius="20" width="40" height="40" pearlRadius="2.7380424214283137" pearlCount="20" transform="translate(25,259.9477195110013)"><circle class="pool" r="20" cx="20" cy="20" style="stroke-width: 1; fill: rgb(29, 145, 192);"></circle><circle class="pearl" r="2.190433937142651" cx="22.480421380823074" cy="19.96094551607325"></circle><circle class="pearl" r="2.190433937142651" cx="14.554532211889109" cy="20.25858246523202"></circle><circle class="pearl" r="2.190433937142651" cx="21.718613402750453" cy="11.231225788085391"></circle><circle class="pearl" r="2.190433937142651" cx="25.13767186853209" cy="27.447308990534317"></circle><circle class="pearl" r="2.190433937142651" cx="6.622341466842937" cy="15.212813608895589"></circle><circle class="pearl" r="2.190433937142651" cx="28.49521909515808" cy="14.82158787688231"></circle><circle class="pearl" r="2.190433937142651" cx="17.504603283401977" cy="28.993209871734443"></circle><circle class="pearl" r="2.190433937142651" cx="14.13811847195522" cy="12.373399584276378"></circle><circle class="pearl" r="2.190433937142651" cx="31.11803529924844" cy="22.444175683247455"></circle><circle class="pearl" r="2.190433937142651" cx="10.013176726772668" cy="26.767604068489224"></circle><circle class="pearl" r="2.190433937142651" cx="25.1625299271706" cy="4.328500666167248"></circle><circle class="pearl" r="2.190433937142651" cx="27.782608687955303" cy="34.772930101052836"></circle><circle class="pearl" r="2.190433937142651" cx="8.036930275650786" cy="7.623092000895575"></circle><circle class="pearl" r="2.190433937142651" cx="36.040664285033515" cy="16.500106031740792"></circle><circle class="pearl" r="2.190433937142651" cx="11.3070075503718" cy="34.36126950601293"></circle><circle class="pearl" r="2.190433937142651" cx="16.81383473400994" cy="3.9061454691506903"></circle><circle class="pearl" r="2.190433937142651" cx="33.74247113697989" cy="29.87303346303284"></circle><circle class="pearl" r="2.190433937142651" cx="3.788525504185259" cy="22.343736665541265"></circle><circle class="pearl" r="2.190433937142651" cx="32.18050534208177" cy="7.787706818962306"></circle><circle class="pearl" r="2.190433937142651" cx="20.00567962395882" cy="36.34927596497569"></circle></g><text id="4" class="legendSampleValue" text-anchor="middle" transform="translate(45,8)" x="0" y="304.9477195110013" style="fill: black; font-size: 0.7rem;">1.5k</text></g></svg>