<?xml version="1.0" standalone="no"?>
<?xml-stylesheet xmlns="http://www.w3.org/2000/svg" type="text/css" href="style.css"?>
<svg id="syntheticVisC" class="default" xTitle="Percent Cat Owners" yTitle="Percent Dog Owners" rTitle="Population" chartTitle="Towns in Vizzyland" width="500" height="400" xmlns="http://www.w3.org/2000/svg"><rect class="background" width="500" height="400"></rect><text id="chartTitle" text-anchor="middle" transform="translate(250,20)" x="0" y="0" style="fill: black; font-size: 1.2rem;">Towns in Vizzyland</text><g id="yAxis" transform="translate(50,30)" fill="none" font-size="10" font-family="sans-serif" text-anchor="end"><path class="domain" stroke="currentColor" d="M-6,300H0V20H-6"></path><g class="tick" opacity="1" transform="translate(0,300)"><line stroke="currentColor" x2="-6"></line><text fill="currentColor" x="-9" dy="0.32em">0</text></g><g class="tick" opacity="1" transform="translate(0,272)"><line stroke="currentColor" x2="-6"></line><text fill="currentColor" x="-9" dy="0.32em">10</text></g><g class="tick" opacity="1" transform="translate(0,244)"><line stroke="currentColor" x2="-6"></line><text fill="currentColor" x="-9" dy="0.32em">20</text></g><g class="tick" opacity="1" transform="translate(0,216)"><line stroke="currentColor" x2="-6"></line><text fill="currentColor" x="-9" dy="0.32em">30</text></g><g class="tick" opacity="1" transform="translate(0,188)"><line stroke="currentColor" x2="-6"></line><text fill="currentColor" x="-9" dy="0.32em">40</text></g><g class="tick" opacity="1" transform="translate(0,160)"><line stroke="currentColor" x2="-6"></line><text fill="currentColor" x="-9" dy="0.32em">50</text></g><g class="tick" opacity="1" transform="translate(0,132)"><line stroke="currentColor" x2="-6"></line><text fill="currentColor" x="-9" dy="0.32em">60</text></g><g class="tick" opacity="1" transform="translate(0,104.00000000000001)"><line stroke="currentColor" x2="-6"></line><text fill="currentColor" x="-9" dy="0.32em">70</text></g><g class="tick" opacity="1" transform="translate(0,75.99999999999999)"><line stroke="currentColor" x2="-6"></line><text fill="currentColor" x="-9" dy="0.32em">80</text></g><g class="tick" opacity="1" transform="translate(0,47.99999999999999)"><line stroke="currentColor" x2="-6"></line><text fill="currentColor" x="-9" dy="0.32em">90</text></g><g class="tick" opacity="1" transform="translate(0,20)"><line stroke="currentColor" x2="-6"></line><text fill="currentColor" x="-9" dy="0.32em">100</text></g></g><g id="xAxis" transform="translate(60,360)" fill="none" font-size="10" font-family="sans-serif" text-anchor="middle"><path class="domain" stroke="currentColor" d="M20,6V0H320V6"></path><g class="tick" opacity="1" transform="translate(20,0)"><line stroke="currentColor" y2="6"></line><text fill="currentColor" y="9" dy="0.71em">0</text></g><g class="tick" opacity="1" transform="translate(50,0)"><line stroke="currentColor" y2="6"></line><text fill="currentColor" y="9" dy="0.71em">10</text></g><g class="tick" opacity="1" transform="translate(80,0)"><line stroke="currentColor" y2="6"></line><text fill="currentColor" y="9" dy="0.71em">20</text></g><g class="tick" opacity="1" transform="translate(110,0)"><line stroke="currentColor" y2="6"></line><text fill="currentColor" y="9" dy="0.71em">30</text></g><g class="tick" opacity="1" transform="translate(140,0)"><line stroke="currentColor" y2="6"></line><text fill="currentColor" y="9" dy="0.71em">40</text></g><g class="tick" opacity="1" transform="translate(170,0)"><line stroke="currentColor" y2="6"></line><text fill="currentColor" y="9" dy="0.71em">50</text></g><g class="tick" opacity="1" transform="translate(200,0)"><line stroke="currentColor" y2="6"></line><text fill="currentColor" y="9" dy="0.71em">60</text></g><g class="tick" opacity="1" transform="translate(230,0)"><line stroke="currentColor" y2="6"></line><text fill="currentColor" y="9" dy="0.71em">70</text></g><g class="tick" opacity="1" transform="translate(260,0)"><line stroke="currentColor" y2="6"></line><text fill="currentColor" y="9" dy="0.71em">80</text></g><g class="tick" opacity="1" transform="translate(290,0)"><line stroke="currentColor" y2="6"></line><text fill="currentColor" y="9" dy="0.71em">90</text></g><g class="tick" opacity="1" transform="translate(320,0)"><line stroke="currentColor" y2="6"></line><text fill="currentColor" y="9" dy="0.71em">100</text></g></g><g id="labels"><text id="xTitle" text-anchor="middle" transform="translate(250,350)" x="0" y="40" style="fill: black; font-size: 0.8rem;">Percent Cat Owners</text><g id="group-yTitle" transform="translate(60,190)"><text id="yTitle" text-anchor="middle" transform="rotate(-90)" y="-45" style="fill: black; font-size: 0.8rem;">Percent Dog Owners</text></g></g><g id="quadrant_lines" transform="translate(60,30)"><line id="verticalQuadrantLine" x1="170" y1="10" x2="170" y2="310" class="quadrantLine"></line><line id="horizontalQuadrantLine" x1="10" y1="160" x2="330" y2="160" class="quadrantLine"></line></g><g id="chart" transform="translate(60,30)"><g class="bobaCup bright" cupRadius="20" width="40" height="40" pearlRadius="2.7380424214283137" pearlCount="20" transform="translate(33.344013305903445,116.80696558083957)"><circle class="pool" r="20" cx="20" cy="20" style="stroke-width: 1; fill: rgb(127, 205, 187);"></circle><circle class="pearl" r="2.190433937142651" cx="22.480421380823074" cy="19.96094551607325"></circle><circle class="pearl" r="2.190433937142651" cx="14.554532211889109" cy="20.25858246523202"></circle><circle class="pearl" r="2.190433937142651" cx="21.718613402750453" cy="11.231225788085391"></circle><circle class="pearl" r="2.190433937142651" cx="25.13767186853209" cy="27.447308990534317"></circle><circle class="pearl" r="2.190433937142651" cx="6.622341466842937" cy="15.212813608895589"></circle><circle class="pearl" r="2.190433937142651" cx="28.49521909515808" cy="14.82158787688231"></circle><circle class="pearl" r="2.190433937142651" cx="17.504603283401977" cy="28.993209871734443"></circle><circle class="pearl" r="2.190433937142651" cx="14.13811847195522" cy="12.373399584276378"></circle><circle class="pearl" r="2.190433937142651" cx="31.11803529924844" cy="22.444175683247455"></circle><circle class="pearl" r="2.190433937142651" cx="10.013176726772668" cy="26.767604068489224"></circle><circle class="pearl" r="2.190433937142651" cx="25.1625299271706" cy="4.328500666167248"></circle><circle class="pearl" r="2.190433937142651" cx="27.782608687955303" cy="34.772930101052836"></circle><circle class="pearl" r="2.190433937142651" cx="8.036930275650786" cy="7.623092000895575"></circle><circle class="pearl" r="2.190433937142651" cx="36.040664285033515" cy="16.500106031740792"></circle><circle class="pearl" r="2.190433937142651" cx="11.3070075503718" cy="34.36126950601293"></circle><circle class="pearl" r="2.190433937142651" cx="16.81383473400994" cy="3.9061454691506903"></circle><circle class="pearl" r="2.190433937142651" cx="33.74247113697989" cy="29.87303346303284"></circle><circle class="pearl" r="2.190433937142651" cx="3.788525504185259" cy="22.343736665541265"></circle><circle class="pearl" r="2.190433937142651" cx="32.18050534208177" cy="7.787706818962306"></circle><circle class="pearl" r="2.190433937142651" cx="20.00567962395882" cy="36.34927596497569"></circle></g><g class="bobaCup bright" cupRadius="17.710448995580574" width="35.42089799116115" height="35.42089799116115" pearlRadius="2.7380424214283137" pearlCount="16" transform="translate(219.31356746602614,251.4392538251969)"><circle class="pool" r="17.710448995580574" cx="17.710448995580574" cy="17.710448995580574" style="stroke-width: 1; fill: rgb(29, 145, 192);"></circle><circle class="pearl" r="2.190433937142651" cx="19.430439599350823" cy="19.328498498596446"></circle><circle class="pearl" r="2.190433937142651" cx="13.209223726846512" cy="23.595409839373747"></circle><circle class="pearl" r="2.190433937142651" cx="15.95510201396609" cy="10.964853437178533"></circle><circle class="pearl" r="2.190433937142651" cx="20.611731072596104" cy="27.050507565019114"></circle><circle class="pearl" r="2.190433937142651" cx="10.233549124007213" cy="16.376035364500634"></circle><circle class="pearl" r="2.190433937142651" cx="23.36660123702993" cy="12.990974456532584"></circle><circle class="pearl" r="2.190433937142651" cx="14.26044180639472" cy="31.430893085863648"></circle><circle class="pearl" r="2.190433937142651" cx="11.066422129904144" cy="4.944202021546346"></circle><circle class="pearl" r="2.190433937142651" cx="27.285629975579045" cy="20.510588320792127"></circle><circle class="pearl" r="2.190433937142651" cx="4.010470024035396" cy="21.261946818745"></circle><circle class="pearl" r="2.190433937142651" cx="27.962222321319192" cy="6.919525943248118"></circle><circle class="pearl" r="2.190433937142651" cx="28.21526016561065" cy="28.318370369743377"></circle><circle class="pearl" r="2.190433937142651" cx="5.339264389104255" cy="10.163365257453142"></circle><circle class="pearl" r="2.190433937142651" cx="31.325933872895238" cy="13.768614236321094"></circle><circle class="pearl" r="2.190433937142651" cx="7.341718929289341" cy="28.41763092192151"></circle><circle class="pearl" r="2.190433937142651" cx="19.287926734798454" cy="3.721116453056915"></circle></g><g class="bobaCup bright" cupRadius="15.884732634012774" width="31.76946526802555" height="31.76946526802555" pearlRadius="2.738042421428314" pearlCount="13" transform="translate(121.11819019316567,228.84953446620113)"><circle class="pool" r="15.884732634012774" cx="15.884732634012774" cy="15.884732634012774" style="stroke-width: 1; fill: rgb(127, 205, 187);"></circle><circle class="pearl" r="2.1904339371426516" cx="20.538039923237278" cy="17.90984201369761"></circle><circle class="pearl" r="2.1904339371426516" cx="13.428686254990073" cy="20.776433444477206"></circle><circle class="pearl" r="2.1904339371426516" cx="16.99772985135445" cy="11.004886978930228"></circle><circle class="pearl" r="2.1904339371426516" cx="24.41539261712273" cy="25.517085462924676"></circle><circle class="pearl" r="2.1904339371426516" cx="9.673921300464942" cy="13.80544627770462"></circle><circle class="pearl" r="2.1904339371426516" cx="27.237469880455958" cy="10.667366954979434"></circle><circle class="pearl" r="2.1904339371426516" cx="7.429943234889794" cy="25.681732895703828"></circle><circle class="pearl" r="2.1904339371426516" cx="13.96141862375915" cy="3.7675899932903065"></circle><circle class="pearl" r="2.1904339371426516" cx="27.891105255528547" cy="18.564299836988546"></circle><circle class="pearl" r="2.1904339371426516" cx="3.9716371060090165" cy="19.061566996481098"></circle><circle class="pearl" r="2.1904339371426516" cx="21.929926375307254" cy="4.845991492352912"></circle><circle class="pearl" r="2.1904339371426516" cx="16.85968027338911" cy="28.08879442304899"></circle><circle class="pearl" r="2.1904339371426516" cx="6.692670891196181" cy="6.580505775056775"></circle></g><g class="bobaCup bright" cupRadius="15.684422351213797" width="31.368844702427594" height="31.368844702427594" pearlRadius="2.7380424214283137" pearlCount="12" transform="translate(93.83483619236075,92.24532994539244)"><circle class="pool" r="15.684422351213797" cx="15.684422351213797" cy="15.684422351213797" style="stroke-width: 1; fill: rgb(29, 145, 192);"></circle><circle class="pearl" r="2.190433937142651" cx="17.46414185839262" cy="11.356750517450195"></circle><circle class="pearl" r="2.190433937142651" cx="11.36477487485759" cy="17.52862081664"></circle><circle class="pearl" r="2.190433937142651" cx="14.165845674305334" cy="4.07407763833678"></circle><circle class="pearl" r="2.190433937142651" cx="19.18990692890104" cy="19.162541546074046"></circle><circle class="pearl" r="2.190433937142651" cx="4.106833539885474" cy="14.176448657248363"></circle><circle class="pearl" r="2.190433937142651" cx="27.244187028455034" cy="11.85791452312929"></circle><circle class="pearl" r="2.190433937142651" cx="11.990736808394578" cy="27.27698589426855"></circle><circle class="pearl" r="2.190433937142651" cx="6.5704964072056615" cy="6.570449798905873"></circle><circle class="pearl" r="2.190433937142651" cx="27.154191604245003" cy="19.85237287935873"></circle><circle class="pearl" r="2.190433937142651" cx="5.361947212616807" cy="22.808384162104307"></circle><circle class="pearl" r="2.190433937142651" cx="22.67758007047607" cy="5.2960270317856"></circle><circle class="pearl" r="2.190433937142651" cx="19.984068980926587" cy="27.117271091869842"></circle></g><g class="bobaCup bright" cupRadius="15.671362206913468" width="31.342724413826936" height="31.342724413826936" pearlRadius="2.738042421428314" pearlCount="12" transform="translate(256.8514951746912,274.0034022436473)"><circle class="pool" r="15.671362206913468" cx="15.671362206913468" cy="15.671362206913468" style="stroke-width: 1; fill: rgb(29, 145, 192);"></circle><circle class="pearl" r="2.1904339371426516" cx="17.424217779290018" cy="11.331353512987"></circle><circle class="pearl" r="2.1904339371426516" cx="11.337895072818942" cy="17.479927142139346"></circle><circle class="pearl" r="2.1904339371426516" cx="14.151175192546328" cy="4.037250210300146"></circle><circle class="pearl" r="2.1904339371426516" cx="19.158662551906843" cy="19.135328575938104"></circle><circle class="pearl" r="2.1904339371426516" cx="4.064960350592649" cy="14.160291347585854"></circle><circle class="pearl" r="2.1904339371426516" cx="27.22542606103461" cy="11.875832838001761"></circle><circle class="pearl" r="2.1904339371426516" cx="11.990338148103788" cy="27.253552530868706"></circle><circle class="pearl" r="2.1904339371426516" cx="6.566793816275505" cy="6.566756045756046"></circle><circle class="pearl" r="2.1904339371426516" cx="27.119053383191915" cy="19.87010914852687"></circle><circle class="pearl" r="2.1904339371426516" cx="5.359622552443254" cy="22.787626933578"></circle><circle class="pearl" r="2.1904339371426516" cx="22.67485104135411" cy="5.302715350985713"></circle><circle class="pearl" r="2.1904339371426516" cx="19.98355254524649" cy="27.08704558065679"></circle></g><g class="bobaCup bright" cupRadius="15.516934246508248" width="31.033868493016495" height="31.033868493016495" pearlRadius="2.738042421428314" pearlCount="12" transform="translate(221.9158852940057,204.34540070414727)"><circle class="pool" r="15.516934246508248" cx="15.516934246508248" cy="15.516934246508248" style="stroke-width: 1; fill: rgb(29, 145, 192);"></circle><circle class="pearl" r="2.1904339371426516" cx="17.051935125628034" cy="11.055841718970933"></circle><circle class="pearl" r="2.1904339371426516" cx="11.062683894941026" cy="17.034262897314864"></circle><circle class="pearl" r="2.1904339371426516" cx="13.994952763598812" cy="3.7255455477508286"></circle><circle class="pearl" r="2.1904339371426516" cx="18.804211571228283" cy="18.81392496920149"></circle><circle class="pearl" r="2.1904339371426516" cx="3.72597443573409" cy="13.990607504667578"></circle><circle class="pearl" r="2.1904339371426516" cx="27.012298765631815" cy="12.144802228096983"></circle><circle class="pearl" r="2.1904339371426516" cx="12.094735206947604" cy="27.001064903723133"></circle><circle class="pearl" r="2.1904339371426516" cx="6.5280428937255035" cy="6.51953189623058"></circle><circle class="pearl" r="2.1904339371426516" cx="26.641498392592613" cy="20.25677932908296"></circle><circle class="pearl" r="2.1904339371426516" cx="5.391107895256001" cy="22.6570974158714"></circle><circle class="pearl" r="2.1904339371426516" cx="22.70680589052997" cy="5.416984976872097"></circle><circle class="pearl" r="2.1904339371426516" cx="20.204574617642844" cy="26.658143824753505"></circle></g><g class="bobaCup bright" cupRadius="15.511917263611464" width="31.023834527222927" height="31.023834527222927" pearlRadius="2.7380424214283137" pearlCount="12" transform="translate(178.5464461499534,247.19391161918935)"><circle class="pool" r="15.511917263611464" cx="15.511917263611464" cy="15.511917263611464" style="stroke-width: 1; fill: rgb(65, 182, 196);"></circle><circle class="pearl" r="2.190433937142651" cx="17.047856107191258" cy="11.048451824091856"></circle><circle class="pearl" r="2.190433937142651" cx="11.05625458523436" cy="17.027922694765888"></circle><circle class="pearl" r="2.190433937142651" cx="13.991620409296166" cy="3.725403865509808"></circle><circle class="pearl" r="2.190433937142651" cx="18.79198780640842" cy="18.802746670046115"></circle><circle class="pearl" r="2.190433937142651" cx="3.725879252085731" cy="13.986801002675302"></circle><circle class="pearl" r="2.190433937142651" cx="27.007022956838664" cy="12.161776450937177"></circle><circle class="pearl" r="2.190433937142651" cx="12.105581431983465" cy="26.994483611179948"></circle><circle class="pearl" r="2.190433937142651" cx="6.527260164688627" cy="6.517660697501071"></circle><circle class="pearl" r="2.190433937142651" cx="26.616666203881046" cy="20.296853863786627"></circle><circle class="pearl" r="2.190433937142651" cx="5.396321665742281" cy="22.660906224431283"></circle><circle class="pearl" r="2.190433937142651" cx="22.716759604171084" cy="5.425471058823771"></circle><circle class="pearl" r="2.190433937142651" cx="20.23895110747753" cy="26.635317637883023"></circle></g><g class="bobaCup bright" cupRadius="14.874606785993116" width="29.749213571986232" height="29.749213571986232" pearlRadius="2.738042421428314" pearlCount="11" transform="translate(135.62564219492137,5.125393214006884)"><circle class="pool" r="14.874606785993116" cx="14.874606785993116" cy="14.874606785993116" style="stroke-width: 1; fill: rgb(65, 182, 196);"></circle><circle class="pearl" r="2.1904339371426516" cx="18.819245577063516" cy="15.035610343759942"></circle><circle class="pearl" r="2.1904339371426516" cx="11.114639444248061" cy="16.621226530962364"></circle><circle class="pearl" r="2.1904339371426516" cx="13.810635919173338" cy="8.93071999559827"></circle><circle class="pearl" r="2.1904339371426516" cx="20.638178679755274" cy="24.93647507264436"></circle><circle class="pearl" r="2.1904339371426516" cx="3.6904518271904956" cy="13.78818320207371"></circle><circle class="pearl" r="2.1904339371426516" cx="25.553412631916093" cy="10.884804342119248"></circle><circle class="pearl" r="2.1904339371426516" cx="12.790562631910827" cy="25.95177162739825"></circle><circle class="pearl" r="2.1904339371426516" cx="6.379675483282698" cy="6.315085578020634"></circle><circle class="pearl" r="2.1904339371426516" cx="25.543993259524232" cy="18.89808602139013"></circle><circle class="pearl" r="2.1904339371426516" cx="5.73866306670395" cy="22.474282792403564"></circle><circle class="pearl" r="2.1904339371426516" cx="20.54902280399913" cy="4.77560529395582"></circle></g><g class="bobaCup bright" cupRadius="14.703801354076372" width="29.407602708152744" height="29.407602708152744" pearlRadius="2.7380424214283146" pearlCount="11" transform="translate(178.43714550817438,121.12433252934846)"><circle class="pool" r="14.703801354076372" cx="14.703801354076372" cy="14.703801354076372" style="stroke-width: 1; fill: rgb(127, 205, 187);"></circle><circle class="pearl" r="2.1904339371426516" cx="18.637765873702023" cy="14.961285233934543"></circle><circle class="pearl" r="2.1904339371426516" cx="11.033005062278123" cy="16.582970059059058"></circle><circle class="pearl" r="2.1904339371426516" cx="13.616723680206547" cy="8.998026012310277"></circle><circle class="pearl" r="2.1904339371426516" cx="20.78553199969916" cy="24.440173651205804"></circle><circle class="pearl" r="2.1904339371426516" cx="3.6875603286559366" cy="13.66364087017348"></circle><circle class="pearl" r="2.1904339371426516" cx="25.161098425237494" cy="10.56066999211328"></circle><circle class="pearl" r="2.1904339371426516" cx="13.091177702065217" cy="25.668180561585313"></circle><circle class="pearl" r="2.1904339371426516" cx="6.370911203853164" cy="6.239875763781465"></circle><circle class="pearl" r="2.1904339371426516" cx="25.263159465767025" cy="18.482076431844447"></circle><circle class="pearl" r="2.1904339371426516" cx="5.985610700598444" cy="22.654382693739112"></circle><circle class="pearl" r="2.1904339371426516" cx="20.135224704657123" cy="4.690651974674844"></circle></g><g class="bobaCup bright" cupRadius="14.490378709839547" width="28.980757419679094" height="28.980757419679094" pearlRadius="2.738042421428314" pearlCount="10" transform="translate(141.57044292553246,195.50139756953936)"><circle class="pool" r="14.490378709839547" cx="14.490378709839547" cy="14.490378709839547" style="stroke-width: 1; fill: rgb(29, 145, 192);"></circle><circle class="pearl" r="2.1904339371426516" cx="18.364012645072368" cy="12.795601900768334"></circle><circle class="pearl" r="2.1904339371426516" cx="11.475790255997579" cy="16.68049915439133"></circle><circle class="pearl" r="2.1904339371426516" cx="14.75604194632659" cy="5.670454715977276"></circle><circle class="pearl" r="2.1904339371426516" cx="21.139716753232076" cy="23.71433523415024"></circle><circle class="pearl" r="2.1904339371426516" cx="4.149496302906253" cy="13.43554224448899"></circle><circle class="pearl" r="2.1904339371426516" cx="22.71409094802838" cy="6.210400694224084"></circle><circle class="pearl" r="2.1904339371426516" cx="13.356849132806024" cy="25.285630209633503"></circle><circle class="pearl" r="2.1904339371426516" cx="6.763774269834276" cy="5.882608597780958"></circle><circle class="pearl" r="2.1904339371426516" cx="25.128625952557517" cy="16.89794969014328"></circle><circle class="pearl" r="2.1904339371426516" cx="6.028895547029233" cy="22.444341966427473"></circle></g><g class="bobaCup bright" cupRadius="14.063376803156212" width="28.126753606312423" height="28.126753606312423" pearlRadius="2.738042421428314" pearlCount="10" transform="translate(29.623280544636586,92.5651267433708)"><circle class="pool" r="14.063376803156212" cx="14.063376803156212" cy="14.063376803156212" style="stroke-width: 1; fill: rgb(29, 145, 192);"></circle><circle class="pearl" r="2.1904339371426516" cx="17.341486955910014" cy="11.901000798731024"></circle><circle class="pearl" r="2.1904339371426516" cx="11.121910914862834" cy="16.14792853834757"></circle><circle class="pearl" r="2.1904339371426516" cx="14.212916105309441" cy="4.450796486585209"></circle><circle class="pearl" r="2.1904339371426516" cx="21.42786771030557" cy="22.39359013171899"></circle><circle class="pearl" r="2.1904339371426516" cx="3.667700380632971" cy="13.372562827262996"></circle><circle class="pearl" r="2.1904339371426516" cx="21.843045019106444" cy="5.998498060113294"></circle><circle class="pearl" r="2.1904339371426516" cx="13.731969303077513" cy="24.472124979173703"></circle><circle class="pearl" r="2.1904339371426516" cx="6.372548833623861" cy="5.939987230729885"></circle><circle class="pearl" r="2.1904339371426516" cx="24.43734979150057" cy="15.105712224596878"></circle><circle class="pearl" r="2.1904339371426516" cx="6.277068135749227" cy="22.12384328543069"></circle></g><g class="bobaCup bright" cupRadius="13.905451638929447" width="27.810903277858895" height="27.810903277858895" pearlRadius="2.738042421428314" pearlCount="10" transform="translate(167.444035804489,101.51749860725711)"><circle class="pool" r="13.905451638929447" cx="13.905451638929447" cy="13.905451638929447" style="stroke-width: 1; fill: rgb(127, 205, 187);"></circle><circle class="pearl" r="2.1904339371426516" cx="16.965820667861085" cy="11.515734625272259"></circle><circle class="pearl" r="2.1904339371426516" cx="11.185015919064362" cy="16.11445472796052"></circle><circle class="pearl" r="2.1904339371426516" cx="14.031869606850911" cy="3.9827933930196093"></circle><circle class="pearl" r="2.1904339371426516" cx="21.372983826178313" cy="21.984926546579583"></circle><circle class="pearl" r="2.1904339371426516" cx="3.6600735115811625" cy="13.395596376505411"></circle><circle class="pearl" r="2.1904339371426516" cx="21.514124781358" cy="5.917030642331223"></circle><circle class="pearl" r="2.1904339371426516" cx="13.69754759101333" cy="24.158625748495815"></circle><circle class="pearl" r="2.1904339371426516" cx="6.287152332774884" cy="5.923329086503925"></circle><circle class="pearl" r="2.1904339371426516" cx="24.143616796432543" cy="14.583953430953132"></circle><circle class="pearl" r="2.1904339371426516" cx="6.293160173096711" cy="21.891506483425484"></circle></g><g class="bobaCup bright" cupRadius="13.59504316676321" width="27.19008633352642" height="27.19008633352642" pearlRadius="2.738042421428314" pearlCount="9" transform="translate(146.3746309965475,219.9819822431703)"><circle class="pool" r="13.59504316676321" cx="13.59504316676321" cy="13.59504316676321" style="stroke-width: 1; fill: rgb(127, 205, 187);"></circle><circle class="pearl" r="2.1904339371426516" cx="16.82900732961756" cy="11.835329309848252"></circle><circle class="pearl" r="2.1904339371426516" cx="10.566511019890305" cy="15.889135818898295"></circle><circle class="pearl" r="2.1904339371426516" cx="13.651594558628338" cy="3.650840847681114"></circle><circle class="pearl" r="2.1904339371426516" cx="18.93363953734666" cy="22.44730308215214"></circle><circle class="pearl" r="2.1904339371426516" cx="3.6565370161073223" cy="13.197496207386642"></circle><circle class="pearl" r="2.1904339371426516" cx="21.01544000058198" cy="5.854413993849761"></circle><circle class="pearl" r="2.1904339371426516" cx="11.081745386829196" cy="23.305028488846684"></circle><circle class="pearl" r="2.1904339371426516" cx="6.074819518306446" cy="5.920068404334062"></circle><circle class="pearl" r="2.1904339371426516" cx="23.32292066704444" cy="16.011288444897744"></circle></g><g class="bobaCup bright" cupRadius="13.33741064105869" width="26.67482128211738" height="26.67482128211738" pearlRadius="2.7380424214283132" pearlCount="9" transform="translate(56.756173115037136,272.8464129731658)"><circle class="pool" r="13.33741064105869" cx="13.33741064105869" cy="13.33741064105869" style="stroke-width: 1; fill: rgb(29, 145, 192);"></circle><circle class="pearl" r="2.1904339371426507" cx="15.395348518407586" cy="11.274994865810262"></circle><circle class="pearl" r="2.1904339371426507" cx="9.956985394924116" cy="16.708340757604766"></circle><circle class="pearl" r="2.1904339371426507" cx="13.409459406804258" cy="3.650917833905523"></circle><circle class="pearl" r="2.1904339371426507" cx="20.744568230678464" cy="20.77814985216452"></circle><circle class="pearl" r="2.1904339371426507" cx="3.65212069251998" cy="13.144342911545094"></circle><circle class="pearl" r="2.1904339371426507" cx="20.633322349635794" cy="5.8231799983021775"></circle><circle class="pearl" r="2.1904339371426507" cx="13.50388238478609" cy="23.023059099223318"></circle><circle class="pearl" r="2.1904339371426507" cx="6.021202584330195" cy="5.8364693176946405"></circle><circle class="pearl" r="2.1904339371426507" cx="23.024003854067608" cy="13.287283349237356"></circle></g><g class="bobaCup bright" cupRadius="13.245437341804767" width="26.490874683609533" height="26.490874683609533" pearlRadius="2.7380424214283137" pearlCount="9" transform="translate(187.74173398312507,273.17089261352913)"><circle class="pool" r="13.245437341804767" cx="13.245437341804767" cy="13.245437341804767" style="stroke-width: 1; fill: rgb(127, 205, 187);"></circle><circle class="pearl" r="2.190433937142651" cx="15.25585522344186" cy="11.234692791735377"></circle><circle class="pearl" r="2.190433937142651" cx="9.838918135414467" cy="16.64357664639976"></circle><circle class="pearl" r="2.190433937142651" cx="13.31237020196831" cy="3.6508923447827417"></circle><circle class="pearl" r="2.190433937142651" cx="20.568484881225654" cy="20.631678601310004"></circle><circle class="pearl" r="2.190433937142651" cx="3.6516620782211593" cy="13.087734878322967"></circle><circle class="pearl" r="2.190433937142651" cx="20.456480240740838" cy="5.785693852664133"></circle><circle class="pearl" r="2.190433937142651" cx="13.375739187179809" cy="22.839510518039912"></circle><circle class="pearl" r="2.190433937142651" cx="6.006904134922797" cy="5.803584341719898"></circle><circle class="pearl" r="2.190433937142651" cx="22.8401275211637" cy="13.22025741520089"></circle></g><g class="bobaCup bright" cupRadius="12.98424199304275" width="25.9684839860855" height="25.9684839860855" pearlRadius="2.738042421428314" pearlCount="8" transform="translate(178.84706633304307,183.18456244398348)"><circle class="pool" r="12.98424199304275" cx="12.98424199304275" cy="12.98424199304275" style="stroke-width: 1; fill: rgb(29, 145, 192);"></circle><circle class="pearl" r="2.1904339371426516" cx="19.56229428900791" cy="12.980166163960838"></circle><circle class="pearl" r="2.1904339371426516" cx="11.729700493305458" cy="14.303045206262874"></circle><circle class="pearl" r="2.1904339371426516" cx="12.17883364214064" cy="3.675726913665644"></circle><circle class="pearl" r="2.1904339371426516" cx="19.92488379119664" cy="20.30703376941032"></circle><circle class="pearl" r="2.1904339371426516" cx="3.812491084924876" cy="15.027449556614664"></circle><circle class="pearl" r="2.1904339371426516" cx="19.92593202139572" cy="5.662113282206301"></circle><circle class="pearl" r="2.1904339371426516" cx="12.09833310666325" cy="22.287502922981684"></circle><circle class="pearl" r="2.1904339371426516" cx="5.045959598341289" cy="7.1288608100921405"></circle></g><g class="bobaCup bright" cupRadius="12.794911824932457" width="25.589823649864915" height="25.589823649864915" pearlRadius="2.738042421428314" pearlCount="8" transform="translate(208.72790992289364,133.14222810301362)"><circle class="pool" r="12.794911824932457" cx="12.794911824932457" cy="12.794911824932457" style="stroke-width: 1; fill: rgb(127, 205, 187);"></circle><circle class="pearl" r="2.1904339371426516" cx="14.373654970579093" cy="12.835654748543554"></circle><circle class="pearl" r="2.1904339371426516" cx="7.360273960308892" cy="19.208739903254262"></circle><circle class="pearl" r="2.1904339371426516" cx="15.111639595641083" cy="3.862211789374506"></circle><circle class="pearl" r="2.1904339371426516" cx="21.268992842849656" cy="16.88133943253009"></circle><circle class="pearl" r="2.1904339371426516" cx="3.668604300260004" cy="12.118706428277513"></circle><circle class="pearl" r="2.1904339371426516" cx="21.327666396838698" cy="8.88688965341492"></circle><circle class="pearl" r="2.1904339371426516" cx="14.936420260856261" cy="21.758613285052633"></circle><circle class="pearl" r="2.1904339371426516" cx="7.190951521105515" cy="4.94322671781452"></circle></g><g class="bobaCup bright" cupRadius="12.726198357319552" width="25.452396714639104" height="25.452396714639104" pearlRadius="2.7380424214283137" pearlCount="8" transform="translate(100.28242280802185,105.88732508687123)"><circle class="pool" r="12.726198357319552" cx="12.726198357319552" cy="12.726198357319552" style="stroke-width: 1; fill: rgb(127, 205, 187);"></circle><circle class="pearl" r="2.190433937142651" cx="14.232065675252228" cy="12.8587311446694"></circle><circle class="pearl" r="2.190433937142651" cx="6.8828334304504235" cy="19.38396125639701"></circle><circle class="pearl" r="2.190433937142651" cx="15.148223322013488" cy="3.883326438766563"></circle><circle class="pearl" r="2.190433937142651" cx="21.051311395668627" cy="17.031482359306256"></circle><circle class="pearl" r="2.190433937142651" cx="3.667904949519748" cy="12.065122895446372"></circle><circle class="pearl" r="2.190433937142651" cx="21.25593060581554" cy="9.039380081213498"></circle><circle class="pearl" r="2.190433937142651" cx="14.542527568016691" cy="21.671390054954152"></circle><circle class="pearl" r="2.190433937142651" cx="7.219432304236329" cy="4.903837769128334"></circle></g><g class="bobaCup bright" cupRadius="12.483304004626843" width="24.966608009253687" height="24.966608009253687" pearlRadius="2.7380424214283137" pearlCount="8" transform="translate(182.18591553844186,24.903855427081155)"><circle class="pool" r="12.483304004626843" cx="12.483304004626843" cy="12.483304004626843" style="stroke-width: 1; fill: rgb(127, 205, 187);"></circle><circle class="pearl" r="2.190433937142651" cx="13.68952842545023" cy="12.7807753050916"></circle><circle class="pearl" r="2.190433937142651" cx="5.710926961808086" cy="19.31913350141952"></circle><circle class="pearl" r="2.190433937142651" cx="15.271880791216908" cy="3.966171284953651"></circle><circle class="pearl" r="2.190433937142651" cx="20.29727922626827" cy="17.422288547792313"></circle><circle class="pearl" r="2.190433937142651" cx="3.6732518678457584" cy="11.733666648190347"></circle><circle class="pearl" r="2.190433937142651" cx="20.946565340003616" cy="9.469293909029016"></circle><circle class="pearl" r="2.190433937142651" cx="13.384986404748728" cy="21.283277452195733"></circle><circle class="pearl" r="2.190433937142651" cx="7.362660045373526" cy="4.749305703248453"></circle></g><g class="bobaCup bright" cupRadius="12.304785651790315" width="24.60957130358063" height="24.60957130358063" pearlRadius="2.738042421428314" pearlCount="8" transform="translate(100.94533117092625,127.55022554964638)"><circle class="pool" r="12.304785651790315" cx="12.304785651790315" cy="12.304785651790315" style="stroke-width: 1; fill: rgb(127, 205, 187);"></circle><circle class="pearl" r="2.1904339371426516" cx="13.385134736896065" cy="12.624905713719183"></circle><circle class="pearl" r="2.1904339371426516" cx="5.719198781609801" cy="19.04818554697579"></circle><circle class="pearl" r="2.1904339371426516" cx="14.954894808880422" cy="3.939491595419938"></circle><circle class="pearl" r="2.1904339371426516" cx="19.959662752502826" cy="17.16185793157033"></circle><circle class="pearl" r="2.1904339371426516" cx="3.6655917994379927" cy="11.700064161737338"></circle><circle class="pearl" r="2.1904339371426516" cx="20.572608971294468" cy="9.24602804160466"></circle><circle class="pearl" r="2.1904339371426516" cx="13.205000352537645" cy="20.925874165136687"></circle><circle class="pearl" r="2.1904339371426516" cx="7.13775705257922" cy="4.788165176891024"></circle></g><g class="bobaCup bright" cupRadius="11.680499650064109" width="23.360999300128217" height="23.360999300128217" pearlRadius="2.738042421428314" pearlCount="7" transform="translate(15.578132036809562,33.381778738316314)"><circle class="pool" r="11.680499650064109" cx="11.680499650064109" cy="11.680499650064109" style="stroke-width: 1; fill: rgb(127, 205, 187);"></circle><circle class="pearl" r="2.1904339371426516" cx="12.195347335796892" cy="11.847221028673689"></circle><circle class="pearl" r="2.1904339371426516" cx="4.07256870747025" cy="14.791251702102004"></circle><circle class="pearl" r="2.1904339371426516" cx="12.047618961703217" cy="3.6564939530382756"></circle><circle class="pearl" r="2.1904339371426516" cx="18.13612639663272" cy="17.53675803363477"></circle><circle class="pearl" r="2.1904339371426516" cx="4.708938405585942" cy="6.822398719786462"></circle><circle class="pearl" r="2.1904339371426516" cx="18.984169585101256" cy="7.626447048994289"></circle><circle class="pearl" r="2.1904339371426516" cx="10.424462529092017" cy="19.642547099754427"></circle></g><g class="bobaCup bright" cupRadius="11.66351512014729" width="23.32703024029458" height="23.32703024029458" pearlRadius="2.7380424214283137" pearlCount="7" transform="translate(124.61724770717812,119.15951503371362)"><circle class="pool" r="11.66351512014729" cx="11.66351512014729" cy="11.66351512014729" style="stroke-width: 1; fill: rgb(29, 145, 192);"></circle><circle class="pearl" r="2.190433937142651" cx="12.124076750679952" cy="11.79911718702081"></circle><circle class="pearl" r="2.190433937142651" cx="4.069747242173431" cy="14.761741179158495"></circle><circle class="pearl" r="2.190433937142651" cx="12.067700173048122" cy="3.6577286051924"></circle><circle class="pearl" r="2.190433937142651" cx="18.12679738971674" cy="17.472514839676247"></circle><circle class="pearl" r="2.190433937142651" cx="4.7160315276889815" cy="6.79364888619481"></circle><circle class="pearl" r="2.190433937142651" cx="18.9746763332148" cy="7.679211611870574"></circle><circle class="pearl" r="2.190433937142651" cx="10.423894461001515" cy="19.610245300808916"></circle></g><g class="bobaCup bright" cupRadius="11.43267331801223" width="22.86534663602446" height="22.86534663602446" pearlRadius="2.7380424214283132" pearlCount="7" transform="translate(51.925447328809454,163.15398275152302)"><circle class="pool" r="11.43267331801223" cx="11.43267331801223" cy="11.43267331801223" style="stroke-width: 1; fill: rgb(29, 145, 192);"></circle><circle class="pearl" r="2.1904339371426507" cx="11.467926428230314" cy="11.44909905766614"></circle><circle class="pearl" r="2.1904339371426507" cx="3.9912925223554394" cy="14.202375018935374"></circle><circle class="pearl" r="2.1904339371426507" cx="12.390310523143159" cy="3.690901201851424"></circle><circle class="pearl" r="2.1904339371426507" cx="17.881854709656746" cy="16.78971969254888"></circle><circle class="pearl" r="2.1904339371426507" cx="4.883681229809887" cy="6.268195933690915"></circle><circle class="pearl" r="2.1904339371426507" cx="18.77989994893024" cy="8.309995287130322"></circle><circle class="pearl" r="2.1904339371426507" cx="10.133959672100069" cy="19.140619116325865"></circle></g><g class="bobaCup bright" cupRadius="11.39085515558111" width="22.78171031116222" height="22.78171031116222" pearlRadius="2.7380424214283146" pearlCount="6" transform="translate(77.91991215519205,121.80129592743958)"><circle class="pool" r="11.39085515558111" cx="11.39085515558111" cy="11.39085515558111" style="stroke-width: 1; fill: rgb(127, 205, 187);"></circle><circle class="pearl" r="2.1904339371426516" cx="12.043637004754967" cy="11.390707700793108"></circle><circle class="pearl" r="2.1904339371426516" cx="6.502524108914241" cy="17.154011159416086"></circle><circle class="pearl" r="2.1904339371426516" cx="9.519376513633533" cy="3.8055137319635657"></circle><circle class="pearl" r="2.1904339371426516" cx="17.03946984727581" cy="17.631781599344745"></circle><circle class="pearl" r="2.1904339371426516" cx="3.8233743259202653" cy="9.415132785586431"></circle><circle class="pearl" r="2.1904339371426516" cx="17.409993009592064" cy="5.370923769812937"></circle></g><g class="bobaCup bright" cupRadius="11.194530948680054" width="22.389061897360108" height="22.389061897360108" pearlRadius="2.7380424214283137" pearlCount="6" transform="translate(166.67341444111213,75.4548518665507)"><circle class="pool" r="11.194530948680054" cx="11.194530948680054" cy="11.194530948680054" style="stroke-width: 1; fill: rgb(127, 205, 187);"></circle><circle class="pearl" r="2.190433937142651" cx="11.52544649167409" cy="11.409054033082718"></circle><circle class="pearl" r="2.190433937142651" cx="6.141822276481072" cy="17.380668775712454"></circle><circle class="pearl" r="2.190433937142651" cx="9.049067926074542" cy="3.8582385870379365"></circle><circle class="pearl" r="2.190433937142651" cx="17.05667508020159" cy="17.0807249024181"></circle><circle class="pearl" r="2.190433937142651" cx="3.7418653264474315" cy="9.76895064971284"></circle><circle class="pearl" r="2.190433937142651" cx="17.071178454196634" cy="5.317267125577459"></circle></g><g class="bobaCup bright" cupRadius="11.062726972540597" width="22.125453945081194" height="22.125453945081194" pearlRadius="2.7380424214283137" pearlCount="6" transform="translate(36.6669314235214,271.62657249509397)"><circle class="pool" r="11.062726972540597" cx="11.062726972540597" cy="11.062726972540597" style="stroke-width: 1; fill: rgb(29, 145, 192);"></circle><circle class="pearl" r="2.190433937142651" cx="11.485857093439332" cy="11.203648249829122"></circle><circle class="pearl" r="2.190433937142651" cx="6.47155344215305" cy="17.477044910444988"></circle><circle class="pearl" r="2.190433937142651" cx="8.567944039796929" cy="3.9356959736546386"></circle><circle class="pearl" r="2.190433937142651" cx="16.79695090405073" cy="16.872585331391807"></circle><circle class="pearl" r="2.190433937142651" cx="3.696868764770535" cy="10.053340264959768"></circle><circle class="pearl" r="2.190433937142651" cx="16.842075202809642" cy="5.280366818555198"></circle></g><g class="bobaCup bright" cupRadius="10.976520861484067" width="21.953041722968134" height="21.953041722968134" pearlRadius="2.7380424214283137" pearlCount="6" transform="translate(57.910343659597565,156.1194427641766)"><circle class="pool" r="10.976520861484067" cx="10.976520861484067" cy="10.976520861484067" style="stroke-width: 1; fill: rgb(127, 205, 187);"></circle><circle class="pearl" r="2.190433937142651" cx="11.373899215026162" cy="11.184629429649492"></circle><circle class="pearl" r="2.190433937142651" cx="6.1172205008165" cy="17.168114952904805"></circle><circle class="pearl" r="2.190433937142651" cx="8.832388606303212" cy="3.862175251683148"></circle><circle class="pearl" r="2.190433937142651" cx="16.622433998709646" cy="16.73896261975447"></circle><circle class="pearl" r="2.190433937142651" cx="3.7295805627671825" cy="9.6631511996552"></circle><circle class="pearl" r="2.190433937142651" cx="16.688491641876126" cy="5.254016256136772"></circle></g><g class="bobaCup bright" cupRadius="10.664910505830406" width="21.329821011660812" height="21.329821011660812" pearlRadius="2.738042421428314" pearlCount="6" transform="translate(304.16505653645504,56.987012220252495)"><circle class="pool" r="10.664910505830406" cx="10.664910505830406" cy="10.664910505830406" style="stroke-width: 1; fill: rgb(127, 205, 187);"></circle><circle class="pearl" r="2.1904339371426516" cx="10.992106044179964" cy="10.953909161525498"></circle><circle class="pearl" r="2.1904339371426516" cx="5.2965104159997" cy="16.229424472951976"></circle><circle class="pearl" r="2.1904339371426516" cx="8.7799497406079" cy="3.81862277837484"></circle><circle class="pearl" r="2.1904339371426516" cx="16.014837665679455" cy="16.24016123569218"></circle><circle class="pearl" r="2.1904339371426516" cx="3.795549037822527" cy="8.913301510027733"></circle><circle class="pearl" r="2.1904339371426516" cx="16.13393593506243" cy="5.159757099595556"></circle></g><g class="bobaCup bright" cupRadius="10.51352686692739" width="21.02705373385478" height="21.02705373385478" pearlRadius="2.7380424214283146" pearlCount="6" transform="translate(199.38687108391147,160.36944483276935)"><circle class="pool" r="10.51352686692739" cx="10.51352686692739" cy="10.51352686692739" style="stroke-width: 1; fill: rgb(65, 182, 196);"></circle><circle class="pearl" r="2.1904339371426516" cx="10.870163762667358" cy="10.813706693530747"></circle><circle class="pearl" r="2.1904339371426516" cx="5.298074333190729" cy="15.991511216647105"></circle><circle class="pearl" r="2.1904339371426516" cx="8.608476394372929" cy="3.8247612358582623"></circle><circle class="pearl" r="2.1904339371426516" cx="15.713476801389788" cy="16.000350785194374"></circle><circle class="pearl" r="2.1904339371426516" cx="3.787266124405771" cy="8.824606843572484"></circle><circle class="pearl" r="2.1904339371426516" cx="15.840114104657328" cy="5.099940106290439"></circle></g><g class="bobaCup bright" cupRadius="10.486793716442575" width="20.97358743288515" height="20.97358743288515" pearlRadius="2.738042421428314" pearlCount="5" transform="translate(283.43561541393046,280.4673099183042)"><circle class="pool" r="10.486793716442575" cx="10.486793716442575" cy="10.486793716442575" style="stroke-width: 1; fill: rgb(65, 182, 196);"></circle><circle class="pearl" r="2.1904339371426516" cx="16.51323221951608" cy="8.163432338951754"></circle><circle class="pearl" r="2.1904339371426516" cx="7.4363619413062" cy="15.927179966964836"></circle><circle class="pearl" r="2.1904339371426516" cx="9.902358268968374" cy="3.667021366534334"></circle><circle class="pearl" r="2.1904339371426516" cx="15.42989235509054" cy="16.08477949506899"></circle><circle class="pearl" r="2.1904339371426516" cx="3.7848960734594717" cy="8.814644338821042"></circle></g><g class="bobaCup bright" cupRadius="10.436707561326624" width="20.87341512265325" height="20.87341512265325" pearlRadius="2.738042421428314" pearlCount="5" transform="translate(181.59339909754254,270.0490124329248)"><circle class="pool" r="10.436707561326624" cx="10.436707561326624" cy="10.436707561326624" style="stroke-width: 1; fill: rgb(65, 182, 196);"></circle><circle class="pearl" r="2.1904339371426516" cx="16.570342438086396" cy="8.078485899157918"></circle><circle class="pearl" r="2.1904339371426516" cx="7.375274347308959" cy="15.943864158780151"></circle><circle class="pearl" r="2.1904339371426516" cx="9.904275749445484" cy="3.664313161934889"></circle><circle class="pearl" r="2.1904339371426516" cx="15.370262484540637" cy="15.982989309392398"></circle><circle class="pearl" r="2.1904339371426516" cx="3.7793700312745586" cy="8.803077212322963"></circle></g><g class="bobaCup bright" cupRadius="9.9661778673124" width="19.9323557346248" height="19.9323557346248" pearlRadius="2.738042421428314" pearlCount="5" transform="translate(265.9850852075493,274.7072047085823)"><circle class="pool" r="9.9661778673124" cx="9.9661778673124" cy="9.9661778673124" style="stroke-width: 1; fill: rgb(127, 205, 187);"></circle><circle class="pearl" r="2.1904339371426516" cx="15.88684196760352" cy="7.188904765184416"></circle><circle class="pearl" r="2.1904339371426516" cx="7.099210599850493" cy="15.86035903691155"></circle><circle class="pearl" r="2.1904339371426516" cx="9.1149984937834" cy="3.687138009234021"></circle><circle class="pearl" r="2.1904339371426516" cx="14.913222956670804" cy="14.96712766577848"></circle><circle class="pearl" r="2.1904339371426516" cx="3.6948094078004226" cy="9.029803040557356"></circle></g><g class="bobaCup bright" cupRadius="9.752202983718051" width="19.504405967436103" height="19.504405967436103" pearlRadius="2.7380424214283146" pearlCount="5" transform="translate(303.9443152468855,153.63700388237262)"><circle class="pool" r="9.752202983718051" cx="9.752202983718051" cy="9.752202983718051" style="stroke-width: 1; fill: rgb(65, 182, 196);"></circle><circle class="pearl" r="2.1904339371426516" cx="15.449416748980997" cy="6.973437611300222"></circle><circle class="pearl" r="2.1904339371426516" cx="6.783892159848361" cy="15.390968109654832"></circle><circle class="pearl" r="2.1904339371426516" cx="8.939341776482964" cy="3.684658892781427"></circle><circle class="pearl" r="2.1904339371426516" cx="14.511644314478236" cy="14.613423202720558"></circle><circle class="pearl" r="2.1904339371426516" cx="3.703160922596525" cy="8.742244390253125"></circle></g><g class="bobaCup bright" cupRadius="9.63938428630506" width="19.27876857261012" height="19.27876857261012" pearlRadius="2.7380424214283132" pearlCount="5" transform="translate(232.49238470472392,157.47173126424178)"><circle class="pool" r="9.63938428630506" cx="9.63938428630506" cy="9.63938428630506" style="stroke-width: 1; fill: rgb(65, 182, 196);"></circle><circle class="pearl" r="2.1904339371426507" cx="15.220237091079806" cy="6.865265802963052"></circle><circle class="pearl" r="2.1904339371426507" cx="6.60904218237869" cy="15.139330768319969"></circle><circle class="pearl" r="2.1904339371426507" cx="8.858330447736689" cy="3.682418702246827"></circle><circle class="pearl" r="2.1904339371426507" cx="14.298798334737977" cy="14.427120048825348"></circle><circle class="pearl" r="2.1904339371426507" cx="3.7092182108931455" cy="8.57905907020903"></circle></g><g class="bobaCup bright" cupRadius="9.624965142811874" width="19.249930285623748" height="19.249930285623748" pearlRadius="2.738042421428314" pearlCount="5" transform="translate(180.37265700127736,82.29142451224521)"><circle class="pool" r="9.624965142811874" cx="9.624965142811874" cy="9.624965142811874" style="stroke-width: 1; fill: rgb(29, 145, 192);"></circle><circle class="pearl" r="2.1904339371426516" cx="15.191060798045225" cy="6.851843496816236"></circle><circle class="pearl" r="2.1904339371426516" cx="6.58612318582594" cy="15.106897254327016"></circle><circle class="pearl" r="2.1904339371426516" cx="8.848773200782398" cy="3.6820717400247873"></circle><circle class="pearl" r="2.1904339371426516" cx="14.271513986889271" cy="14.403330704848383"></circle><circle class="pearl" r="2.1904339371426516" cx="3.7101100633295556" cy="8.557413910860092"></circle></g><g class="bobaCup bright" cupRadius="9.344460204692249" width="18.688920409384497" height="18.688920409384497" pearlRadius="2.7380424214283146" pearlCount="4" transform="translate(202.7936926570077,74.1242846382187)"><circle class="pool" r="9.344460204692249" cx="9.344460204692249" cy="9.344460204692249" style="stroke-width: 1; fill: rgb(29, 145, 192);"></circle><circle class="pearl" r="2.1904339371426516" cx="14.535827971360607" cy="6.3218184215855215"></circle><circle class="pearl" r="2.1904339371426516" cx="5.45872462567359" cy="12.213803079388684"></circle><circle class="pearl" r="2.1904339371426516" cx="6.8919191867911245" cy="3.978311521530883"></circle><circle class="pearl" r="2.1904339371426516" cx="13.201923514889376" cy="14.204842270238967"></circle></g><g class="bobaCup bright" cupRadius="8.884857021997636" width="17.769714043995272" height="17.769714043995272" pearlRadius="2.7380424214283132" pearlCount="4" transform="translate(229.75316643665195,104.87855603054243)"><circle class="pool" r="8.884857021997636" cx="8.884857021997636" cy="8.884857021997636" style="stroke-width: 1; fill: rgb(65, 182, 196);"></circle><circle class="pearl" r="2.1904339371426507" cx="13.395072482267533" cy="5.372056996616302"></circle><circle class="pearl" r="2.1904339371426507" cx="4.632307252248761" cy="12.28548309754645"></circle><circle class="pearl" r="2.1904339371426507" cx="5.467643476787398" cy="4.334157454018578"></circle><circle class="pearl" r="2.1904339371426507" cx="12.559736257729261" cy="13.323382640144597"></circle></g><g class="bobaCup bright" cupRadius="8.875504491426591" width="17.751008982853183" height="17.751008982853183" pearlRadius="2.738042421428314" pearlCount="4" transform="translate(173.37071446556408,262.9903678650099)"><circle class="pool" r="8.875504491426591" cx="8.875504491426591" cy="8.875504491426591" style="stroke-width: 1; fill: rgb(29, 145, 192);"></circle><circle class="pearl" r="2.1904339371426516" cx="13.371648332839499" cy="5.353695734360978"></circle><circle class="pearl" r="2.1904339371426516" cx="4.614642654390012" cy="12.294541131360342"></circle><circle class="pearl" r="2.1904339371426516" cx="5.440799901332136" cy="4.342256535046102"></circle><circle class="pearl" r="2.1904339371426516" cx="12.54549108589768" cy="13.305980330675585"></circle></g><g class="bobaCup bright" cupRadius="8.874026768504834" width="17.748053537009667" height="17.748053537009667" pearlRadius="2.738042421428314" pearlCount="4" transform="translate(309.9572462267752,117.20536856130052)"><circle class="pool" r="8.874026768504834" cx="8.874026768504834" cy="8.874026768504834" style="stroke-width: 1; fill: rgb(29, 145, 192);"></circle><circle class="pearl" r="2.1904339371426516" cx="13.367945658285915" cy="5.350795885905131"></circle><circle class="pearl" r="2.1904339371426516" cx="4.6118587192421545" cy="12.295974593267825"></circle><circle class="pearl" r="2.1904339371426516" cx="5.436564918858329" cy="4.343539382480719"></circle><circle class="pearl" r="2.1904339371426516" cx="12.54323945867004" cy="13.303231096692592"></circle></g><g class="bobaCup bright" cupRadius="8.798868483672313" width="17.597736967344627" height="17.597736967344627" pearlRadius="2.7380424214283137" pearlCount="4" transform="translate(215.5865849567784,247.60711762396585)"><circle class="pool" r="8.798868483672313" cx="8.798868483672313" cy="8.798868483672313" style="stroke-width: 1; fill: rgb(65, 182, 196);"></circle><circle class="pearl" r="2.190433937142651" cx="13.179911470850438" cy="5.2057058031759835"></circle><circle class="pearl" r="2.190433937142651" cx="4.469690302925723" cy="12.368773594415325"></circle><circle class="pearl" r="2.190433937142651" cx="5.224581469521141" cy="4.409407701075978"></circle><circle class="pearl" r="2.190433937142651" cx="12.42502030425509" cy="13.16507169651543"></circle></g><g class="bobaCup bright" cupRadius="8.571114628432142" width="17.142229256864283" height="17.142229256864283" pearlRadius="2.738042421428314" pearlCount="4" transform="translate(112.59772149428963,216.20301594679813)"><circle class="pool" r="8.571114628432142" cx="8.571114628432142" cy="8.571114628432142" style="stroke-width: 1; fill: rgb(127, 205, 187);"></circle><circle class="pearl" r="2.1904339371426516" cx="12.513136256221859" cy="4.611025058112325"></circle><circle class="pearl" r="2.1904339371426516" cx="4.629054341039824" cy="12.53118417488048"></circle><circle class="pearl" r="2.1904339371426516" cx="4.629110585592434" cy="4.611015950010602"></circle><circle class="pearl" r="2.1904339371426516" cx="12.51308001010404" cy="12.531233331173503"></circle></g><g class="bobaCup bright" cupRadius="7.933879232015512" width="15.867758464031024" height="15.867758464031024" pearlRadius="2.738042421428314" pearlCount="3" transform="translate(246.247076523951,64.72676185115021)"><circle class="pool" r="7.933879232015512" cx="7.933879232015512" cy="7.933879232015512" style="stroke-width: 1; fill: rgb(127, 205, 187);"></circle><circle class="pearl" r="2.1904339371426516" cx="12.086406008368883" cy="9.36766060616344"></circle><circle class="pearl" r="2.1904339371426516" cx="4.46996961013712" cy="11.420926649778291"></circle><circle class="pearl" r="2.1904339371426516" cx="6.427440145579431" cy="3.7950529904911234"></circle></g><g class="bobaCup bright" cupRadius="7.839331494446827" width="15.678662988893654" height="15.678662988893654" pearlRadius="2.738042421428314" pearlCount="3" transform="translate(111.5108971965406,218.66966153689222)"><circle class="pool" r="7.839331494446827" cx="7.839331494446827" cy="7.839331494446827" style="stroke-width: 1; fill: rgb(29, 145, 192);"></circle><circle class="pearl" r="2.1904339371426516" cx="11.911303273950459" cy="9.186588000121882"></circle><circle class="pearl" r="2.1904339371426516" cx="4.4777527334811715" cy="11.270621151606079"></circle><circle class="pearl" r="2.1904339371426516" cx="6.17683702969402" cy="3.829034527607108"></circle></g><g class="bobaCup bright" cupRadius="7.736906490411758" width="15.473812980823515" height="15.473812980823515" pearlRadius="2.7380424214283132" pearlCount="3" transform="translate(82.9564206415248,278.0629646461953)"><circle class="pool" r="7.736906490411758" cx="7.736906490411758" cy="7.736906490411758" style="stroke-width: 1; fill: rgb(65, 182, 196);"></circle><circle class="pearl" r="2.1904339371426507" cx="11.7373762087358" cy="8.885370042623082"></circle><circle class="pearl" r="2.1904339371426507" cx="4.493945326781626" cy="11.110635192956885"></circle><circle class="pearl" r="2.1904339371426507" cx="5.806122257314618" cy="3.895514244258825"></circle></g><g class="bobaCup bright" cupRadius="7.715568946637825" width="15.43113789327565" height="15.43113789327565" pearlRadius="2.7380424214283146" pearlCount="3" transform="translate(224.9259985720646,275.54415575147453)"><circle class="pool" r="7.715568946637825" cx="7.715568946637825" cy="7.715568946637825" style="stroke-width: 1; fill: rgb(127, 205, 187);"></circle><circle class="pearl" r="2.1904339371426516" cx="11.703972476159738" cy="8.798964785705653"></circle><circle class="pearl" r="2.1904339371426516" cx="4.499076668176369" cy="11.077989206754228"></circle><circle class="pearl" r="2.1904339371426516" cx="5.706612871280144" cy="3.916855977911469"></circle></g><g class="bobaCup bright" cupRadius="7.57391240838013" width="15.14782481676026" height="15.14782481676026" pearlRadius="2.7380424214283132" pearlCount="3" transform="translate(12.42608759161987,151.47459091001244)"><circle class="pool" r="7.57391240838013" cx="7.57391240838013" cy="7.57391240838013" style="stroke-width: 1; fill: rgb(65, 182, 196);"></circle><circle class="pearl" r="2.1904339371426507" cx="11.488583080773942" cy="7.933028396686982"></circle><circle class="pearl" r="2.1904339371426507" cx="4.555018052887413" cy="10.869441841510081"></circle><circle class="pearl" r="2.1904339371426507" cx="4.76798856027619" cy="4.189655855284739"></circle></g><g class="bobaCup bright" cupRadius="7.557305869603121" width="15.114611739206241" height="15.114611739206241" pearlRadius="2.738042421428314" pearlCount="3" transform="translate(268.7287400790094,93.51209998725973)"><circle class="pool" r="7.557305869603121" cx="7.557305869603121" cy="7.557305869603121" style="stroke-width: 1; fill: rgb(29, 145, 192);"></circle><circle class="pearl" r="2.1904339371426516" cx="11.459388006060102" cy="7.818079957159804"></circle><circle class="pearl" r="2.1904339371426516" cx="4.562663909545277" cy="10.845241844206573"></circle><circle class="pearl" r="2.1904339371426516" cx="4.644734511617461" cy="4.234522082950134"></circle></g><g class="bobaCup bright" cupRadius="7.431112361592643" width="14.862224723185285" height="14.862224723185285" pearlRadius="2.738042421428314" pearlCount="3" transform="translate(157.59630299891296,269.03957231560327)"><circle class="pool" r="7.431112361592643" cx="7.431112361592643" cy="7.431112361592643" style="stroke-width: 1; fill: rgb(65, 182, 196);"></circle><circle class="pearl" r="2.1904339371426516" cx="11.211501011904481" cy="7.43379082012347"></circle><circle class="pearl" r="2.1904339371426516" cx="4.553683594939187" cy="10.631800274053028"></circle><circle class="pearl" r="2.1904339371426516" cx="4.553486593059699" cy="4.230507188540422"></circle></g><g class="bobaCup bright" cupRadius="7.380947087238533" width="14.761894174477066" height="14.761894174477066" pearlRadius="2.7380424214283137" pearlCount="3" transform="translate(312.61905291276145,253.55759093066112)"><circle class="pool" r="7.380947087238533" cx="7.380947087238533" cy="7.380947087238533" style="stroke-width: 1; fill: rgb(29, 145, 192);"></circle><circle class="pearl" r="2.190433937142651" cx="11.111161570766285" cy="7.392711216282805"></circle><circle class="pearl" r="2.190433937142651" cx="4.549766944841695" cy="10.546586444820917"></circle><circle class="pearl" r="2.190433937142651" cx="4.548946186542863" cy="4.215648690031579"></circle></g><g class="bobaCup bright" cupRadius="7.164280199759744" width="14.328560399519487" height="14.328560399519487" pearlRadius="2.7380424214283137" pearlCount="3" transform="translate(112.21911471102838,292.83571980024027)"><circle class="pool" r="7.164280199759744" cx="7.164280199759744" cy="7.164280199759744" style="stroke-width: 1; fill: rgb(127, 205, 187);"></circle><circle class="pearl" r="2.190433937142651" cx="10.014739999061801" cy="10.086363807939026"></circle><circle class="pearl" r="2.190433937142651" cx="4.321144934590573" cy="10.08953542649255"></circle><circle class="pearl" r="2.190433937142651" cx="6.678802658744595" cy="3.6671910120849045"></circle></g><g class="bobaCup bright" cupRadius="6.5703144076392315" width="13.140628815278463" height="13.140628815278463" pearlRadius="2.738042421428314" pearlCount="2" transform="translate(99.58629943657742,256.52511024334933)"><circle class="pool" r="6.5703144076392315" cx="6.5703144076392315" cy="6.5703144076392315" style="stroke-width: 1; fill: rgb(127, 205, 187);"></circle><circle class="pearl" r="2.1904339371426516" cx="8.922984621497555" cy="4.086384077935367"></circle><circle class="pearl" r="2.1904339371426516" cx="4.2176441937809095" cy="9.054244737343097"></circle></g><g class="bobaCup bright" cupRadius="6.48169859141794" width="12.96339718283588" height="12.96339718283588" pearlRadius="2.7380424214283146" pearlCount="2" transform="translate(94.10480838648293,205.85611849478713)"><circle class="pool" r="6.48169859141794" cx="6.48169859141794" cy="6.48169859141794" style="stroke-width: 1; fill: rgb(29, 145, 192);"></circle><circle class="pearl" r="2.1904339371426516" cx="8.749932125205493" cy="4.060557751501413"></circle><circle class="pearl" r="2.1904339371426516" cx="4.213465057630387" cy="8.902839431334467"></circle></g><g class="bobaCup bright" cupRadius="6.44587204125374" width="12.89174408250748" height="12.89174408250748" pearlRadius="2.7380424214283137" pearlCount="2" transform="translate(66.65967083353276,59.813113079251806)"><circle class="pool" r="6.44587204125374" cx="6.44587204125374" cy="6.44587204125374" style="stroke-width: 1; fill: rgb(65, 182, 196);"></circle><circle class="pearl" r="2.190433937142651" cx="8.679972384580797" cy="4.050268944843467"></circle><circle class="pearl" r="2.190433937142651" cx="4.211771697926683" cy="8.841475137664013"></circle></g><g class="bobaCup bright" cupRadius="5.468004832464018" width="10.936009664928036" height="10.936009664928036" pearlRadius="2.7380424214283137" pearlCount="1" transform="translate(85.79675236508724,69.85134150015196)"><circle class="pool" r="5.468004832464018" cx="5.468004832464018" cy="5.468004832464018" style="stroke-width: 1; fill: rgb(29, 145, 192);"></circle><circle class="pearl" r="2.190433937142651" cx="7.222891135398313" cy="5.468004832464018"></circle></g><g class="bobaCup bright" cupRadius="4.9240706446490465" width="9.848141289298093" height="9.848141289298093" pearlRadius="2.738042421428314" pearlCount="1" transform="translate(220.66674823936503,179.5146791765732)"><circle class="pool" r="4.9240706446490465" cx="4.9240706446490465" cy="4.9240706446490465" style="stroke-width: 1; fill: rgb(127, 205, 187);"></circle><circle class="pearl" r="2.1904339371426516" cx="6.197418060727008" cy="4.9240706446490465"></circle></g><g class="bobaCup bright" cupRadius="4.407306557148622" width="8.814613114297243" height="8.814613114297243" pearlRadius="2.738042421428314" pearlCount="1" transform="translate(126.89400361241428,237.27734944864255)"><circle class="pool" r="4.407306557148622" cx="4.407306557148622" cy="4.407306557148622" style="stroke-width: 1; fill: rgb(29, 145, 192);"></circle><circle class="pearl" r="2.1904339371426516" cx="5.163889885726158" cy="4.407306557148622"></circle></g><g class="bobaCup bright" cupRadius="3.7782215900399145" width="7.556443180079829" height="7.556443180079829" pearlRadius="2.7380424214283146" pearlCount="1" transform="translate(181.80840541014697,157.635903095394)"><circle class="pool" r="3.7782215900399145" cx="3.7782215900399145" cy="3.7782215900399145" style="stroke-width: 1; fill: rgb(65, 182, 196);"></circle><circle class="pearl" r="2.1904339371426516" cx="3.9057199515087433" cy="3.7782215900399145"></circle></g><g class="bobaCup bright" cupRadius="3.691752778155571" width="7.383505556311142" height="7.383505556311142" pearlRadius="2.7380424214283137" pearlCount="1" transform="translate(210.24026401402463,160.32833872557703)"><circle class="pool" r="3.691752778155571" cx="3.691752778155571" cy="3.691752778155571" style="stroke-width: 1; fill: rgb(29, 145, 192);"></circle><circle class="pearl" r="2.190433937142651" cx="3.7327823277400567" cy="3.691752778155571"></circle></g><g class="bobaCup bright" cupRadius="3.437663156435329" width="6.875326312870658" height="6.875326312870658" pearlRadius="2.738042421428314" pearlCount="1" transform="translate(170.25102536213743,103.47065537014127)"><circle class="pool" r="3.437663156435329" cx="3.437663156435329" cy="3.437663156435329" style="stroke-width: 1; fill: rgb(29, 145, 192);"></circle><circle class="pearl" r="2.1904339371426516" cx="3.6573321180537017" cy="3.6573321180537017"></circle></g><g class="bobaCup bright" cupRadius="0" width="0" height="0" pearlRadius="NaN" pearlCount="0" transform="translate(20,300)"><circle class="pool" r="0" cx="0" cy="0" style="stroke-width: 1; fill: rgb(65, 182, 196);"></circle></g><g class="bobaCup bright" cupRadius="0" width="0" height="0" pearlRadius="NaN" pearlCount="0" transform="translate(122.61226555099535,25.648984119901968)"><circle class="pool" r="0" cx="0" cy="0" style="stroke-width: 1; fill: rgb(29, 145, 192);"></circle></g></g><g id="legendDividerGroup" transform="translate(410,0)" height="400"><rect class="legendDivider" height="400" width="90"></rect></g><g id="legend" transform="translate(410,30)" width="90" height="320"><rect class="legendBorder" transform="translate(0,0)" width="90" height="324.94771951100137"></rect><text id="rTitle" text-anchor="middle" alignment-baseline="hanging" transform="translate(45,10)" x="0" y="0" style="fill: black; font-size: 0.8rem;">Population</text><text id="bobaValue" text-anchor="middle" alignment-baseline="hanging" transform="translate(45,25)" x="0" y="0" style="fill: black; font-size: 0.7rem;">(1 Pearl =   75)</text><g class="bright" cupRadius="8.94427190999916" width="17.88854381999832" height="17.88854381999832" pearlRadius="2.7380424214283137" pearlCount="4" transform="translate(36.05572809000084,50)"><circle class="pool" r="8.94427190999916" cx="8.94427190999916" cy="8.94427190999916" style="stroke-width: 1; fill: rgb(65, 182, 196);"></circle><circle class="pearl" r="2.190433937142651" cx="13.542613460651712" cy="5.486970900805415"></circle><circle class="pearl" r="2.190433937142651" cx="4.749399498236599" cy="12.229516637519533"></circle><circle class="pearl" r="2.190433937142651" cx="5.6385452023940825" cy="4.284028231246733"></circle><circle class="pearl" r="2.190433937142651" cx="12.653467756495177" cy="13.432459307079196"></circle></g><text id="0" class="legendSampleValue" text-anchor="middle" transform="translate(45,8)" x="0" y="72.88854381999832" style="fill: black; font-size: 0.7rem;"> 300</text><g class="bright" cupRadius="12.64911064067352" width="25.29822128134704" height="25.29822128134704" pearlRadius="2.738042421428314" pearlCount="8" transform="translate(32.35088935932648,92.88854381999832)"><circle class="pool" r="12.64911064067352" cx="12.64911064067352" cy="12.64911064067352" style="stroke-width: 1; fill: rgb(65, 182, 196);"></circle><circle class="pearl" r="2.1904339371426516" cx="14.071403428550028" cy="12.846878791771143"></circle><circle class="pearl" r="2.1904339371426516" cx="6.4405819117747525" cy="19.577951382570923"></circle><circle class="pearl" r="2.1904339371426516" cx="15.102737084551542" cy="3.89097746448665"></circle><circle class="pearl" r="2.1904339371426516" cx="20.833946229646866" cy="17.1122426661066"></circle><circle class="pearl" r="2.1904339371426516" cx="3.6634707295578814" cy="12.08137249507582"></circle><circle class="pearl" r="2.1904339371426516" cx="21.1462151053254" cy="9.123450087562196"></circle><circle class="pearl" r="2.1904339371426516" cx="14.187116834584872" cy="21.55364674624167"></circle><circle class="pearl" r="2.1904339371426516" cx="7.171845845081949" cy="4.898098459274188"></circle></g><text id="1" class="legendSampleValue" text-anchor="middle" transform="translate(45,8)" x="0" y="123.18676510134536" style="fill: black; font-size: 0.7rem;"> 600</text><g class="bright" cupRadius="15.49193338482967" width="30.98386676965934" height="30.98386676965934" pearlRadius="2.738042421428314" pearlCount="12" transform="translate(29.50806661517033,143.18676510134537)"><circle class="pool" r="15.49193338482967" cx="15.49193338482967" cy="15.49193338482967" style="stroke-width: 1; fill: rgb(65, 182, 196);"></circle><circle class="pearl" r="2.1904339371426516" cx="17.033011743384762" cy="11.017376109139583"></circle><circle class="pearl" r="2.1904339371426516" cx="11.029309432951335" cy="17.00347040031936"></circle><circle class="pearl" r="2.1904339371426516" cx="13.977981653444436" cy="3.724876288236054"></circle><circle class="pearl" r="2.1904339371426516" cx="18.741808845067865" cy="18.756462357333646"></circle><circle class="pearl" r="2.1904339371426516" cx="3.725529689195627" cy="13.971342248807431"></circle><circle class="pearl" r="2.1904339371426516" cx="26.98661348100194" cy="12.233596672509556"></circle><circle class="pearl" r="2.1904339371426516" cx="12.152198575888582" cy="26.968872613027884"></circle><circle class="pearl" r="2.1904339371426516" cx="6.524197378590721" cy="6.5101702816287865"></circle><circle class="pearl" r="2.1904339371426516" cx="26.508263068801273" cy="20.47967424223927"></circle><circle class="pearl" r="2.1904339371426516" cx="5.419021306595214" cy="22.679550094546492"></circle><circle class="pearl" r="2.1904339371426516" cx="22.760798049576497" cy="5.461881544509552"></circle><circle class="pearl" r="2.1904339371426516" cx="20.400071923945582" cy="26.535092423407907"></circle></g><text id="2" class="legendSampleValue" text-anchor="middle" transform="translate(45,8)" x="0" y="179.1706318710047" style="fill: black; font-size: 0.7rem;"> 900</text><g class="bright" cupRadius="17.88854381999832" width="35.77708763999664" height="35.77708763999664" pearlRadius="2.7380424214283137" pearlCount="16" transform="translate(27.11145618000168,199.17063187100473)"><circle class="pool" r="17.88854381999832" cx="17.88854381999832" cy="17.88854381999832" style="stroke-width: 1; fill: rgb(65, 182, 196);"></circle><circle class="pearl" r="2.190433937142651" cx="19.8046930625516" cy="19.706925044831756"></circle><circle class="pearl" r="2.190433937142651" cx="13.339172784724305" cy="23.858410298028698"></circle><circle class="pearl" r="2.190433937142651" cx="16.092791630714295" cy="11.113543243945612"></circle><circle class="pearl" r="2.190433937142651" cx="20.836129534048155" cy="27.499380517199565"></circle><circle class="pearl" r="2.190433937142651" cx="10.312657514553905" cy="16.56124087753138"></circle><circle class="pearl" r="2.190433937142651" cx="23.678755837700653" cy="13.13675787817294"></circle><circle class="pearl" r="2.190433937142651" cx="14.311679794483911" cy="31.765114841909277"></circle><circle class="pearl" r="2.190433937142651" cx="11.081450997216843" cy="4.99648955196875"></circle><circle class="pearl" r="2.190433937142651" cx="27.674351504393126" cy="20.796258814455655"></circle><circle class="pearl" r="2.190433937142651" cx="4.000488629236898" cy="21.40866477780026"></circle><circle class="pearl" r="2.190433937142651" cx="28.333596734388347" cy="7.01684061165493"></circle><circle class="pearl" r="2.190433937142651" cx="28.522531366621063" cy="28.62247591779055"></circle><circle class="pearl" r="2.190433937142651" cx="5.30391541992303" cy="10.377661215789304"></circle><circle class="pearl" r="2.190433937142651" cx="31.694235049536697" cy="13.980399213320233"></circle><circle class="pearl" r="2.190433937142651" cx="7.311073872078207" cy="28.66408585659018"></circle><circle class="pearl" r="2.190433937142651" cx="18.987039995684725" cy="3.684483203560177"></circle></g><text id="3" class="legendSampleValue" text-anchor="middle" transform="translate(45,8)" x="0" y="239.94771951100137" style="fill: black; font-size: 0.7rem;">1.2k</text><g class="bright" cupRadius="20" width="40" height="40" pearlRadius="2.7380424214283137" pearlCount="20" transform="translate(25,259.94771951100137)"><circle class="pool" r="20" cx="20" cy="20" style="stroke-width: 1; fill: rgb(65, 182, 196);"></circle><circle class="pearl" r="2.190433937142651" cx="22.480421380823074" cy="19.96094551607325"></circle><circle class="pearl" r="2.190433937142651" cx="14.554532211889109" cy="20.25858246523202"></circle><circle class="pearl" r="2.190433937142651" cx="21.718613402750453" cy="11.231225788085391"></circle><circle class="pearl" r="2.190433937142651" cx="25.13767186853209" cy="27.447308990534317"></circle><circle class="pearl" r="2.190433937142651" cx="6.622341466842937" cy="15.212813608895589"></circle><circle class="pearl" r="2.190433937142651" cx="28.49521909515808" cy="14.82158787688231"></circle><circle class="pearl" r="2.190433937142651" cx="17.504603283401977" cy="28.993209871734443"></circle><circle class="pearl" r="2.190433937142651" cx="14.13811847195522" cy="12.373399584276378"></circle><circle class="pearl" r="2.190433937142651" cx="31.11803529924844" cy="22.444175683247455"></circle><circle class="pearl" r="2.190433937142651" cx="10.013176726772668" cy="26.767604068489224"></circle><circle class="pearl" r="2.190433937142651" cx="25.1625299271706" cy="4.328500666167248"></circle><circle class="pearl" r="2.190433937142651" cx="27.782608687955303" cy="34.772930101052836"></circle><circle class="pearl" r="2.190433937142651" cx="8.036930275650786" cy="7.623092000895575"></circle><circle class="pearl" r="2.190433937142651" cx="36.040664285033515" cy="16.500106031740792"></circle><circle class="pearl" r="2.190433937142651" cx="11.3070075503718" cy="34.36126950601293"></circle><circle class="pearl" r="2.190433937142651" cx="16.81383473400994" cy="3.9061454691506903"></circle><circle class="pearl" r="2.190433937142651" cx="33.74247113697989" cy="29.87303346303284"></circle><circle class="pearl" r="2.190433937142651" cx="3.788525504185259" cy="22.343736665541265"></circle><circle class="pearl" r="2.190433937142651" cx="32.18050534208177" cy="7.787706818962306"></circle><circle class="pearl" r="2.190433937142651" cx="20.00567962395882" cy="36.34927596497569"></circle></g><text id="4" class="legendSampleValue" text-anchor="middle" transform="translate(45,8)" x="0" y="304.94771951100137" style="fill: black; font-size: 0.7rem;">1.5k</text></g></svg>