<?xml version="1.0" standalone="no"?>
<?xml-stylesheet xmlns="http://www.w3.org/2000/svg" type="text/css" href="style.css"?>
<svg id="syntheticVisC" class="default" xTitle="Percent Cat Owners" yTitle="Percent Dog Owners" rTitle="Population" chartTitle="Towns in Vizzyland" width="500" height="400" xmlns="http://www.w3.org/2000/svg"><rect class="background" width="500" height="400"></rect><text id="chartTitle" text-anchor="middle" transform="translate(250,20)" x="0" y="0" style="fill: black; font-size: 1.2rem;">Towns in Vizzyland</text><g id="yAxis" transform="translate(50,30)" fill="none" font-size="10" font-family="sans-serif" text-anchor="end"><path class="domain" stroke="currentColor" d="M-6,300H0V20H-6"></path><g class="tick" opacity="1" transform="translate(0,300)"><line stroke="currentColor" x2="-6"></line><text fill="currentColor" x="-9" dy="0.32em">0</text></g><g class="tick" opacity="1" transform="translate(0,272)"><line stroke="currentColor" x2="-6"></line><text fill="currentColor" x="-9" dy="0.32em">10</text></g><g class="tick" opacity="1" transform="translate(0,244)"><line stroke="currentColor" x2="-6"></line><text fill="currentColor" x="-9" dy="0.32em">20</text></g><g class="tick" opacity="1" transform="translate(0,216)"><line stroke="currentColor" x2="-6"></line><text fill="currentColor" x="-9" dy="0.32em">30</text></g><g class="tick" opacity="1" transform="translate(0,188)"><line stroke="currentColor" x2="-6"></line><text fill="currentColor" x="-9" dy="0.32em">40</text></g><g class="tick" opacity="1" transform="translate(0,160)"><line stroke="currentColor" x2="-6"></line><text fill="currentColor" x="-9" dy="0.32em">50</text></g><g class="tick" opacity="1" transform="translate(0,132)"><line stroke="currentColor" x2="-6"></line><text fill="currentColor" x="-9" dy="0.32em">60</text></g><g class="tick" opacity="1" transform="translate(0,104.00000000000001)"><line stroke="currentColor" x2="-6"></line><text fill="currentColor" x="-9" dy="0.32em">70</text></g><g class="tick" opacity="1" transform="translate(0,75.99999999999999)"><line stroke="currentColor" x2="-6"></line><text fill="currentColor" x="-9" dy="0.32em">80</text></g><g class="tick" opacity="1" transform="translate(0,47.99999999999999)"><line stroke="currentColor" x2="-6"></line><text fill="currentColor" x="-9" dy="0.32em">90</text></g><g class="tick" opacity="1" transform="translate(0,20)"><line stroke="currentColor" x2="-6"></line><text fill="currentColor" x="-9" dy="0.32em">100</text></g></g><g id="xAxis" transform="translate(60,360)" fill="none" font-size="10" font-family="sans-serif" text-anchor="middle"><path class="domain" stroke="currentColor" d="M20,6V0H320V6"></path><g class="tick" opacity="1" transform="translate(20,0)"><line stroke="currentColor" y2="6"></line><text fill="currentColor" y="9" dy="0.71em">0</text></g><g class="tick" opacity="1" transform="translate(50,0)"><line stroke="currentColor" y2="6"></line><text fill="currentColor" y="9" dy="0.71em">10</text></g><g class="tick" opacity="1" transform="translate(80,0)"><line stroke="currentColor" y2="6"></line><text fill="currentColor" y="9" dy="0.71em">20</text></g><g class="tick" opacity="1" transform="translate(110,0)"><line stroke="currentColor" y2="6"></line><text fill="currentColor" y="9" dy="0.71em">30</text></g><g class="tick" opacity="1" transform="translate(140,0)"><line stroke="currentColor" y2="6"></line><text fill="currentColor" y="9" dy="0.71em">40</text></g><g class="tick" opacity="1" transform="translate(170,0)"><line stroke="currentColor" y2="6"></line><text fill="currentColor" y="9" dy="0.71em">50</text></g><g class="tick" opacity="1" transform="translate(200,0)"><line stroke="currentColor" y2="6"></line><text fill="currentColor" y="9" dy="0.71em">60</text></g><g class="tick" opacity="1" transform="translate(230,0)"><line stroke="currentColor" y2="6"></line><text fill="currentColor" y="9" dy="0.71em">70</text></g><g class="tick" opacity="1" transform="translate(260,0)"><line stroke="currentColor" y2="6"></line><text fill="currentColor" y="9" dy="0.71em">80</text></g><g class="tick" opacity="1" transform="translate(290,0)"><line stroke="currentColor" y2="6"></line><text fill="currentColor" y="9" dy="0.71em">90</text></g><g class="tick" opacity="1" transform="translate(320,0)"><line stroke="currentColor" y2="6"></line><text fill="currentColor" y="9" dy="0.71em">100</text></g></g><g id="labels"><text id="xTitle" text-anchor="middle" transform="translate(250,350)" x="0" y="40" style="fill: black; font-size: 0.8rem;">Percent Cat Owners</text><g id="group-yTitle" transform="translate(60,190)"><text id="yTitle" text-anchor="middle" transform="rotate(-90)" y="-45" style="fill: black; font-size: 0.8rem;">Percent Dog Owners</text></g></g><g id="quadrant_lines" transform="translate(60,30)"><line id="verticalQuadrantLine" x1="170" y1="10" x2="170" y2="310" class="quadrantLine"></line><line id="horizontalQuadrantLine" x1="10" y1="160" x2="330" y2="160" class="quadrantLine"></line></g><g id="chart" transform="translate(60,30)"><g class="bobaCup bright" cupRadius="20" width="40" height="40" pearlRadius="2.7380424214283137" pearlCount="20" transform="translate(0.8004466097238563,267.5607276396575)"><circle class="pool" r="20" cx="20" cy="20" style="stroke-width: 1; fill: rgb(127, 205, 187);"></circle><circle class="pearl" r="2.190433937142651" cx="22.480421380823074" cy="19.96094551607325"></circle><circle class="pearl" r="2.190433937142651" cx="14.554532211889109" cy="20.25858246523202"></circle><circle class="pearl" r="2.190433937142651" cx="21.718613402750453" cy="11.231225788085391"></circle><circle class="pearl" r="2.190433937142651" cx="25.13767186853209" cy="27.447308990534317"></circle><circle class="pearl" r="2.190433937142651" cx="6.622341466842937" cy="15.212813608895589"></circle><circle class="pearl" r="2.190433937142651" cx="28.49521909515808" cy="14.82158787688231"></circle><circle class="pearl" r="2.190433937142651" cx="17.504603283401977" cy="28.993209871734443"></circle><circle class="pearl" r="2.190433937142651" cx="14.13811847195522" cy="12.373399584276378"></circle><circle class="pearl" r="2.190433937142651" cx="31.11803529924844" cy="22.444175683247455"></circle><circle class="pearl" r="2.190433937142651" cx="10.013176726772668" cy="26.767604068489224"></circle><circle class="pearl" r="2.190433937142651" cx="25.1625299271706" cy="4.328500666167248"></circle><circle class="pearl" r="2.190433937142651" cx="27.782608687955303" cy="34.772930101052836"></circle><circle class="pearl" r="2.190433937142651" cx="8.036930275650786" cy="7.623092000895575"></circle><circle class="pearl" r="2.190433937142651" cx="36.040664285033515" cy="16.500106031740792"></circle><circle class="pearl" r="2.190433937142651" cx="11.3070075503718" cy="34.36126950601293"></circle><circle class="pearl" r="2.190433937142651" cx="16.81383473400994" cy="3.9061454691506903"></circle><circle class="pearl" r="2.190433937142651" cx="33.74247113697989" cy="29.87303346303284"></circle><circle class="pearl" r="2.190433937142651" cx="3.788525504185259" cy="22.343736665541265"></circle><circle class="pearl" r="2.190433937142651" cx="32.18050534208177" cy="7.787706818962306"></circle><circle class="pearl" r="2.190433937142651" cx="20.00567962395882" cy="36.34927596497569"></circle></g><g class="bobaCup bright" cupRadius="19.670518427132784" width="39.34103685426557" height="39.34103685426557" pearlRadius="2.738042421428314" pearlCount="19" transform="translate(237.75253201175366,115.93093325783519)"><circle class="pool" r="19.670518427132784" cx="19.670518427132784" cy="19.670518427132784" style="stroke-width: 1; fill: rgb(65, 182, 196);"></circle><circle class="pearl" r="2.1904339371426516" cx="20.728712337474096" cy="19.50816405279965"></circle><circle class="pearl" r="2.1904339371426516" cx="15.594453685992505" cy="25.622007541057155"></circle><circle class="pearl" r="2.1904339371426516" cx="21.61153047329848" cy="11.140946449714166"></circle><circle class="pearl" r="2.1904339371426516" cx="23.441310379146653" cy="27.136052208240677"></circle><circle class="pearl" r="2.1904339371426516" cx="11.687729913289248" cy="18.662553754407515"></circle><circle class="pearl" r="2.1904339371426516" cx="27.815887492614795" cy="15.848190261181978"></circle><circle class="pearl" r="2.1904339371426516" cx="17.17454127439251" cy="33.44766886012683"></circle><circle class="pearl" r="2.1904339371426516" cx="13.871087248809724" cy="10.959194986420695"></circle><circle class="pearl" r="2.1904339371426516" cx="30.507977624799903" cy="23.40798099911165"></circle><circle class="pearl" r="2.1904339371426516" cx="6.989115336022008" cy="25.100396381186087"></circle><circle class="pearl" r="2.1904339371426516" cx="26.034570605589536" cy="4.70866163406124"></circle><circle class="pearl" r="2.1904339371426516" cx="24.961352908625074" cy="34.965411200202354"></circle><circle class="pearl" r="2.1904339371426516" cx="6.154447123162498" cy="10.066849301757935"></circle><circle class="pearl" r="2.1904339371426516" cx="35.55591222223488" cy="17.374995212369498"></circle><circle class="pearl" r="2.1904339371426516" cx="9.250406212174148" cy="32.703636381569886"></circle><circle class="pearl" r="2.1904339371426516" cx="17.285053354448298" cy="3.7959029498280406"></circle><circle class="pearl" r="2.1904339371426516" cx="31.92469296275601" cy="31.244779626133663"></circle><circle class="pearl" r="2.1904339371426516" cx="3.736772839964385" cy="17.832618430533934"></circle><circle class="pearl" r="2.1904339371426516" cx="32.60421750421231" cy="9.09288958225413"></circle></g><g class="bobaCup bright" cupRadius="19.4040051746282" width="38.8080103492564" height="38.8080103492564" pearlRadius="2.738042421428314" pearlCount="19" transform="translate(28.724165159167608,59.8201282723535)"><circle class="pool" r="19.4040051746282" cx="19.4040051746282" cy="19.4040051746282" style="stroke-width: 1; fill: rgb(127, 205, 187);"></circle><circle class="pearl" r="2.1904339371426516" cx="19.605383093032923" cy="19.55099885120686"></circle><circle class="pearl" r="2.1904339371426516" cx="15.777388034475576" cy="26.906296417727074"></circle><circle class="pearl" r="2.1904339371426516" cx="21.118347905514856" cy="11.133101022791898"></circle><circle class="pearl" r="2.1904339371426516" cx="23.74462973577852" cy="26.65893219043155"></circle><circle class="pearl" r="2.1904339371426516" cx="10.999039557005405" cy="20.563998365295493"></circle><circle class="pearl" r="2.1904339371426516" cx="26.97685029072979" cy="16.46296577117497"></circle><circle class="pearl" r="2.1904339371426516" cx="15.886324577529612" cy="34.83576973024799"></circle><circle class="pearl" r="2.1904339371426516" cx="13.457272586000494" cy="13.002034882903073"></circle><circle class="pearl" r="2.1904339371426516" cx="31.017682607504597" cy="23.34854569727805"></circle><circle class="pearl" r="2.1904339371426516" cx="4.474779438036791" cy="24.9987270863013"></circle><circle class="pearl" r="2.1904339371426516" cx="25.57661648479399" cy="4.658688437200862"></circle><circle class="pearl" r="2.1904339371426516" cx="23.856850767637678" cy="34.639456332147425"></circle><circle class="pearl" r="2.1904339371426516" cx="7.6817469758542" cy="7.59173776301995"></circle><circle class="pearl" r="2.1904339371426516" cx="34.938650843502735" cy="16.49934734866591"></circle><circle class="pearl" r="2.1904339371426516" cx="8.52371307265514" cy="31.81985160459781"></circle><circle class="pearl" r="2.1904339371426516" cx="16.833482503927375" cy="3.8217403353921644"></circle><circle class="pearl" r="2.1904339371426516" cx="31.10933406671906" cy="31.229091855234113"></circle><circle class="pearl" r="2.1904339371426516" cx="3.8113710991785514" cy="16.91229562357898"></circle><circle class="pearl" r="2.1904339371426516" cx="32.14055771133987" cy="9.01301822393029"></circle></g><g class="bobaCup bright" cupRadius="19.241564688368143" width="38.48312937673629" height="38.48312937673629" pearlRadius="2.7380424214283137" pearlCount="19" transform="translate(0.7584353116318567,233.78207827620867)"><circle class="pool" r="19.241564688368143" cx="19.241564688368143" cy="19.241564688368143" style="stroke-width: 1; fill: rgb(65, 182, 196);"></circle><circle class="pearl" r="2.190433937142651" cx="19.01974591436481" cy="19.15741541129361"></circle><circle class="pearl" r="2.190433937142651" cx="16.253264642359095" cy="26.6346661543494"></circle><circle class="pearl" r="2.190433937142651" cx="21.012451223926444" cy="11.297696144428247"></circle><circle class="pearl" r="2.190433937142651" cx="24.21160746051942" cy="26.375325246364863"></circle><circle class="pearl" r="2.190433937142651" cx="11.15613443897411" cy="20.591732958262018"></circle><circle class="pearl" r="2.190433937142651" cx="26.64227335623675" cy="16.81540960822705"></circle><circle class="pearl" r="2.190433937142651" cx="15.605650055091436" cy="34.48575972996113"></circle><circle class="pearl" r="2.190433937142651" cx="13.346847831557014" cy="12.97231083316033"></circle><circle class="pearl" r="2.190433937142651" cx="31.5355082176901" cy="23.13524134677966"></circle><circle class="pearl" r="2.190433937142651" cx="4.4014856668714195" cy="24.563974274781337"></circle><circle class="pearl" r="2.190433937142651" cx="24.782626910453533" cy="4.465827564835955"></circle><circle class="pearl" r="2.190433937142651" cx="23.553199678546285" cy="34.34311106558418"></circle><circle class="pearl" r="2.190433937142651" cx="7.661005145131165" cy="7.525816222949135"></circle><circle class="pearl" r="2.190433937142651" cx="34.53370237946726" cy="15.864312575379316"></circle><circle class="pearl" r="2.190433937142651" cx="8.302040000057815" cy="31.420074266553822"></circle><circle class="pearl" r="2.190433937142651" cx="16.583023284011794" cy="3.8352690194836576"></circle><circle class="pearl" r="2.190433937142651" cx="30.819632547175328" cy="30.959190633130927"></circle><circle class="pearl" r="2.190433937142651" cx="3.829546322727122" cy="16.624372572960585"></circle><circle class="pearl" r="2.190433937142651" cx="31.528482726181505" cy="8.460590589489344"></circle></g><g class="bobaCup bright" cupRadius="18.409755525811605" width="36.81951105162321" height="36.81951105162321" pearlRadius="2.7380424214283137" pearlCount="17" transform="translate(136.79174840293354,167.21975677458488)"><circle class="pool" r="18.409755525811605" cx="18.409755525811605" cy="18.409755525811605" style="stroke-width: 1; fill: rgb(65, 182, 196);"></circle><circle class="pearl" r="2.190433937142651" cx="18.31842379249531" cy="18.305809268767526"></circle><circle class="pearl" r="2.190433937142651" cx="13.269118644154473" cy="24.41531931771368"></circle><circle class="pearl" r="2.190433937142651" cx="15.999371856967784" cy="10.732862577963852"></circle><circle class="pearl" r="2.190433937142651" cx="20.957016350630504" cy="25.712885919876648"></circle><circle class="pearl" r="2.190433937142651" cx="10.493232222511699" cy="17.08347939446253"></circle><circle class="pearl" r="2.190433937142651" cx="23.61105757915212" cy="12.493907745790823"></circle><circle class="pearl" r="2.190433937142651" cx="15.9552453886838" cy="31.963891848489524"></circle><circle class="pearl" r="2.190433937142651" cx="10.083789069972736" cy="5.641057902951999"></circle><circle class="pearl" r="2.190433937142651" cx="26.388158199691162" cy="19.884409965802234"></circle><circle class="pearl" r="2.190433937142651" cx="4.364680615027833" cy="22.229490723554136"></circle><circle class="pearl" r="2.190433937142651" cx="29.356294896148807" cy="7.25870945697069"></circle><circle class="pearl" r="2.190433937142651" cx="26.357540285776256" cy="31.364808880388463"></circle><circle class="pearl" r="2.190433937142651" cx="5.021550241348066" cy="11.438814868493784"></circle><circle class="pearl" r="2.190433937142651" cx="32.78368444015122" cy="14.663956058779776"></circle><circle class="pearl" r="2.190433937142651" cx="7.436160052254859" cy="29.54075414900345"></circle><circle class="pearl" r="2.190433937142651" cx="19.989616550040044" cy="3.7186375800546685"></circle><circle class="pearl" r="2.190433937142651" cx="31.628252866996515" cy="25.781898761606215"></circle></g><g class="bobaCup bright" cupRadius="18.00168967561995" width="36.0033793512399" height="36.0033793512399" pearlRadius="2.7380424214283132" pearlCount="16" transform="translate(105.1201714542457,222.6151787708738)"><circle class="pool" r="18.00168967561995" cx="18.00168967561995" cy="18.00168967561995" style="stroke-width: 1; fill: rgb(65, 182, 196);"></circle><circle class="pearl" r="2.1904339371426507" cx="19.940094350384474" cy="19.858264041819396"></circle><circle class="pearl" r="2.1904339371426507" cx="13.449184444100045" cy="24.067645394874884"></circle><circle class="pearl" r="2.1904339371426507" cx="16.229721057290313" cy="11.23592651076244"></circle><circle class="pearl" r="2.1904339371426507" cx="20.969670322760997" cy="27.690649163763105"></circle><circle class="pearl" r="2.1904339371426507" cx="10.452802956199486" cy="16.7418061336869"></circle><circle class="pearl" r="2.1904339371426507" cx="23.888210273175112" cy="13.246041369418606"></circle><circle class="pearl" r="2.1904339371426507" cx="14.389319728001814" cy="31.98648783256132"></circle><circle class="pearl" r="2.1904339371426507" cx="10.910980413172524" cy="5.273753699351598"></circle><circle class="pearl" r="2.1904339371426507" cx="27.81879006840696" cy="20.941922486488743"></circle><circle class="pearl" r="2.1904339371426507" cx="4.057548750444531" cy="21.54297107578816"></circle><circle class="pearl" r="2.1904339371426507" cx="28.581491064339215" cy="7.087776494291341"></circle><circle class="pearl" r="2.1904339371426507" cx="28.73573555982183" cy="28.802301684083904"></circle><circle class="pearl" r="2.1904339371426507" cx="5.1624674279783305" cy="10.78071125376782"></circle><circle class="pearl" r="2.1904339371426507" cx="31.9329760323083" cy="14.13726602892084"></circle><circle class="pearl" r="2.1904339371426507" cx="7.316472642078991" cy="28.838442698054354"></circle><circle class="pearl" r="2.1904339371426507" cx="18.729023252359774" cy="3.6654226877743694"></circle></g><g class="bobaCup bright" cupRadius="17.712718485044004" width="35.42543697008801" height="35.42543697008801" pearlRadius="2.7380424214283137" pearlCount="16" transform="translate(192.20683738394945,101.01401747361504)"><circle class="pool" r="17.712718485044004" cx="17.712718485044004" cy="17.712718485044004" style="stroke-width: 1; fill: rgb(65, 182, 196);"></circle><circle class="pearl" r="2.190433937142651" cx="19.44079975997018" cy="19.338177168326773"></circle><circle class="pearl" r="2.190433937142651" cx="13.211940307549238" cy="23.599142958007214"></circle><circle class="pearl" r="2.190433937142651" cx="15.956351565957386" cy="10.965844519387872"></circle><circle class="pearl" r="2.190433937142651" cx="20.614878543124625" cy="27.061398884092654"></circle><circle class="pearl" r="2.190433937142651" cx="10.235595191988816" cy="16.37867177729542"></circle><circle class="pearl" r="2.190433937142651" cx="23.37021447641106" cy="12.9928292627756"></circle><circle class="pearl" r="2.190433937142651" cx="14.259163985780033" cy="31.434771587590323"></circle><circle class="pearl" r="2.190433937142651" cx="11.064122747195896" cy="4.945872744821703"></circle><circle class="pearl" r="2.190433937142651" cx="27.29627371566497" cy="20.515225525821602"></circle><circle class="pearl" r="2.190433937142651" cx="4.009942722665169" cy="21.261868932900466"></circle><circle class="pearl" r="2.190433937142651" cx="27.96645438328839" cy="6.92040545874562"></circle><circle class="pearl" r="2.190433937142651" cx="28.21853416684395" cy="28.322718695010877"></circle><circle class="pearl" r="2.190433937142651" cx="5.337844285094466" cy="10.168142738892815"></circle><circle class="pearl" r="2.190433937142651" cx="31.330252902526095" cy="13.769664592444316"></circle><circle class="pearl" r="2.190433937142651" cx="7.340467703212173" cy="28.42015704164613"></circle><circle class="pearl" r="2.190433937142651" cx="19.284947153998626" cy="3.720638842672596"></circle></g><g class="bobaCup bright" cupRadius="16.890641523811134" width="33.78128304762227" height="33.78128304762227" pearlRadius="2.7380424214283146" pearlCount="14" transform="translate(124.92563130411398,186.99054355525243)"><circle class="pool" r="16.890641523811134" cx="16.890641523811134" cy="16.890641523811134" style="stroke-width: 1; fill: rgb(29, 145, 192);"></circle><circle class="pearl" r="2.1904339371426516" cx="21.973425339359746" cy="13.184300603610435"></circle><circle class="pearl" r="2.1904339371426516" cx="13.274843743213744" cy="22.66084962025377"></circle><circle class="pearl" r="2.1904339371426516" cx="14.060283238506818" cy="12.087132439906917"></circle><circle class="pearl" r="2.1904339371426516" cx="21.107984970239986" cy="21.112242844649742"></circle><circle class="pearl" r="2.1904339371426516" cx="7.6837327123391335" cy="16.985646778030713"></circle><circle class="pearl" r="2.1904339371426516" cx="26.867956343292498" cy="6.912463106290175"></circle><circle class="pearl" r="2.1904339371426516" cx="16.091220617597145" cy="30.111631228448726"></circle><circle class="pearl" r="2.1904339371426516" cx="11.644298242079778" cy="4.486158330285829"></circle><circle class="pearl" r="2.1904339371426516" cx="29.257404292727994" cy="22.251043878688108"></circle><circle class="pearl" r="2.1904339371426516" cx="5.5467612657407175" cy="24.665963855669244"></circle><circle class="pearl" r="2.1904339371426516" cx="19.59075251634144" cy="3.867937638740888"></circle><circle class="pearl" r="2.1904339371426516" cx="24.249873357829685" cy="28.44305869119314"></circle><circle class="pearl" r="2.1904339371426516" cx="5.426752282184981" cy="9.351260848871645"></circle><circle class="pearl" r="2.1904339371426516" cx="29.92898624511106" cy="14.288953216099932"></circle></g><g class="bobaCup bright" cupRadius="16.841531929146633" width="33.683063858293266" height="33.683063858293266" pearlRadius="2.738042421428314" pearlCount="14" transform="translate(234.38380147670821,89.61283516231745)"><circle class="pool" r="16.841531929146633" cx="16.841531929146633" cy="16.841531929146633" style="stroke-width: 1; fill: rgb(65, 182, 196);"></circle><circle class="pearl" r="2.1904339371426516" cx="21.767628847294198" cy="13.049566985814701"></circle><circle class="pearl" r="2.1904339371426516" cx="13.320073339973248" cy="22.562451504728813"></circle><circle class="pearl" r="2.1904339371426516" cx="13.834660612327685" cy="12.14409065458911"></circle><circle class="pearl" r="2.1904339371426516" cx="21.14483157048893" cy="20.98908176612599"></circle><circle class="pearl" r="2.1904339371426516" cx="7.516851096753486" cy="17.1008682018699"></circle><circle class="pearl" r="2.1904339371426516" cx="26.771701748426885" cy="6.889721383426947"></circle><circle class="pearl" r="2.1904339371426516" cx="16.135222366710988" cy="30.017523309270782"></circle><circle class="pearl" r="2.1904339371426516" cx="11.540304264493992" cy="4.506818567871727"></circle><circle class="pearl" r="2.1904339371426516" cx="29.155497868499626" cy="22.20491682042874"></circle><circle class="pearl" r="2.1904339371426516" cx="5.681134418311613" cy="24.858258203830076"></circle><circle class="pearl" r="2.1904339371426516" cx="19.485690931600004" cy="3.8595878764242504"></circle><circle class="pearl" r="2.1904339371426516" cx="24.142098496375834" cy="28.367729518644037"></circle><circle class="pearl" r="2.1904339371426516" cx="5.367225308765967" cy="9.434058014998566"></circle><circle class="pearl" r="2.1904339371426516" cx="29.831126005296777" cy="14.245951508766522"></circle></g><g class="bobaCup bright" cupRadius="16.644536595201366" width="33.28907319040273" height="33.28907319040273" pearlRadius="2.738042421428314" pearlCount="14" transform="translate(282.6256105067393,91.3786867526442)"><circle class="pool" r="16.644536595201366" cx="16.644536595201366" cy="16.644536595201366" style="stroke-width: 1; fill: rgb(29, 145, 192);"></circle><circle class="pearl" r="2.1904339371426516" cx="20.840235408778057" cy="12.469208617086123"></circle><circle class="pearl" r="2.1904339371426516" cx="13.225877361879464" cy="21.862730209888536"></circle><circle class="pearl" r="2.1904339371426516" cx="12.85873714061956" cy="12.381341029409748"></circle><circle class="pearl" r="2.1904339371426516" cx="20.984707011095544" cy="20.42830545703828"></circle><circle class="pearl" r="2.1904339371426516" cx="6.467163637830748" cy="17.644476360467756"></circle><circle class="pearl" r="2.1904339371426516" cx="26.43822032930723" cy="6.837014864443331"></circle><circle class="pearl" r="2.1904339371426516" cx="15.630724157251164" cy="29.60744580537332"></circle><circle class="pearl" r="2.1904339371426516" cx="11.149984168323089" cy="4.5837833782793815"></circle><circle class="pearl" r="2.1904339371426516" cx="28.68102246319931" cy="22.207994982708144"></circle><circle class="pearl" r="2.1904339371426516" cx="6.6817642420572785" cy="26.22124461599948"></circle><circle class="pearl" r="2.1904339371426516" cx="19.097566004284495" cy="3.832476183477269"></circle><circle class="pearl" r="2.1904339371426516" cx="23.486840627625654" cy="28.166930185427525"></circle><circle class="pearl" r="2.1904339371426516" cx="5.1346407861698005" cy="9.774585440667765"></circle><circle class="pearl" r="2.1904339371426516" cx="29.462590819763708" cy="14.232075679836818"></circle></g><g class="bobaCup bright" cupRadius="16.450711904859574" width="32.90142380971915" height="32.90142380971915" pearlRadius="2.738042421428314" pearlCount="14" transform="translate(123.86827928290852,243.4452294759555)"><circle class="pool" r="16.450711904859574" cx="16.450711904859574" cy="16.450711904859574" style="stroke-width: 1; fill: rgb(65, 182, 196);"></circle><circle class="pearl" r="2.1904339371426516" cx="20.403719380541197" cy="12.29424218540217"></circle><circle class="pearl" r="2.1904339371426516" cx="12.557519929085046" cy="20.672460890533333"></circle><circle class="pearl" r="2.1904339371426516" cx="12.452419158714665" cy="12.698817638964332"></circle><circle class="pearl" r="2.1904339371426516" cx="20.492023845629944" cy="20.266649201306947"></circle><circle class="pearl" r="2.1904339371426516" cx="5.0441954459472935" cy="17.969399887786608"></circle><circle class="pearl" r="2.1904339371426516" cx="26.104746350322426" cy="6.781317224699322"></circle><circle class="pearl" r="2.1904339371426516" cx="14.739413372291564" cy="29.16144886507112"></circle><circle class="pearl" r="2.1904339371426516" cx="10.820050532324709" cy="4.644346963774245"></circle><circle class="pearl" r="2.1904339371426516" cx="28.167648643226283" cy="22.321056811018494"></circle><circle class="pearl" r="2.1904339371426516" cx="6.808832839422786" cy="26.128907997230467"></circle><circle class="pearl" r="2.1904339371426516" cx="18.75964670918665" cy="3.8135641170560644"></circle><circle class="pearl" r="2.1904339371426516" cx="22.649926646477862" cy="28.0379563479956"></circle><circle class="pearl" r="2.1904339371426516" cx="4.972636024006924" cy="9.989647001657616"></circle><circle class="pearl" r="2.1904339371426516" cx="29.095227555004296" cy="14.194362627314728"></circle></g><g class="bobaCup bright" cupRadius="16.413735066995024" width="32.82747013399005" height="32.82747013399005" pearlRadius="2.7380424214283132" pearlCount="13" transform="translate(92.45702678035636,27.859223359855207)"><circle class="pool" r="16.413735066995024" cx="16.413735066995024" cy="16.413735066995024" style="stroke-width: 1; fill: rgb(65, 182, 196);"></circle><circle class="pearl" r="2.1904339371426507" cx="21.525629764854077" cy="15.951898161592977"></circle><circle class="pearl" r="2.1904339371426507" cx="15.919136253514491" cy="21.568451639137717"></circle><circle class="pearl" r="2.1904339371426507" cx="16.199185318921966" cy="10.120451706684486"></circle><circle class="pearl" r="2.1904339371426507" cx="23.72700027342808" cy="23.637199810236677"></circle><circle class="pearl" r="2.1904339371426507" cx="10.557664379246525" cy="15.789376497990814"></circle><circle class="pearl" r="2.1904339371426507" cx="27.878687459374426" cy="10.016309852761939"></circle><circle class="pearl" r="2.1904339371426507" cx="10.170837604755123" cy="27.94316105130919"></circle><circle class="pearl" r="2.1904339371426507" cx="10.310890761273212" cy="4.82746416189194"></circle><circle class="pearl" r="2.1904339371426507" cx="29.110208594898264" cy="17.890168964810055"></circle><circle class="pearl" r="2.1904339371426507" cx="4.8449281640878645" cy="21.697487690815187"></circle><circle class="pearl" r="2.1904339371426507" cx="21.992251118026008" cy="4.627785807044114"></circle><circle class="pearl" r="2.1904339371426507" cx="18.061394064053346" cy="29.093839088717015"></circle><circle class="pearl" r="2.1904339371426507" cx="4.806027328857836" cy="10.364686936611182"></circle></g><g class="bobaCup bright" cupRadius="16.28367040615907" width="32.56734081231814" height="32.56734081231814" pearlRadius="2.7380424214283132" pearlCount="13" transform="translate(255.6596216814908,3.7163295938409284)"><circle class="pool" r="16.28367040615907" cx="16.28367040615907" cy="16.28367040615907" style="stroke-width: 1; fill: rgb(65, 182, 196);"></circle><circle class="pearl" r="2.1904339371426507" cx="21.275118713044424" cy="16.178677707447527"></circle><circle class="pearl" r="2.1904339371426507" cx="15.4613789887154" cy="21.532918641402137"></circle><circle class="pearl" r="2.1904339371426507" cx="16.09228595073829" cy="10.295253923708158"></circle><circle class="pearl" r="2.1904339371426507" cx="23.889813002073446" cy="23.727902435616958"></circle><circle class="pearl" r="2.1904339371426507" cx="10.233648210364212" cy="15.727261105981302"></circle><circle class="pearl" r="2.1904339371426507" cx="27.591316014641748" cy="9.848989090734065"></circle><circle class="pearl" r="2.1904339371426507" cx="10.006678224613626" cy="27.65816900787183"></circle><circle class="pearl" r="2.1904339371426507" cx="10.590851144555105" cy="4.678256156615599"></circle><circle class="pearl" r="2.1904339371426507" cx="28.854836261824314" cy="17.700792996182578"></circle><circle class="pearl" r="2.1904339371426507" cx="4.733212313870258" cy="21.5354176110983"></circle><circle class="pearl" r="2.1904339371426507" cx="21.638374142018588" cy="4.556322565912946"></circle><circle class="pearl" r="2.1904339371426507" cx="17.98594370527667" cy="28.827396458484575"></circle><circle class="pearl" r="2.1904339371426507" cx="4.951146191992312" cy="9.907133888102372"></circle></g><g class="bobaCup bright" cupRadius="16.273447325193985" width="32.54689465038797" height="32.54689465038797" pearlRadius="2.7380424214283137" pearlCount="13" transform="translate(270.8449515545004,216.0395498383564)"><circle class="pool" r="16.273447325193985" cx="16.273447325193985" cy="16.273447325193985" style="stroke-width: 1; fill: rgb(127, 205, 187);"></circle><circle class="pearl" r="2.190433937142651" cx="21.242941392679796" cy="16.23145671847579"></circle><circle class="pearl" r="2.190433937142651" cx="15.391769198482475" cy="21.543843003902165"></circle><circle class="pearl" r="2.190433937142651" cx="16.08872160376299" cy="10.325569989615303"></circle><circle class="pearl" r="2.190433937142651" cx="23.939765113749658" cy="23.750559313938673"></circle><circle class="pearl" r="2.190433937142651" cx="10.193008914826287" cy="15.716889018641952"></circle><circle class="pearl" r="2.190433937142651" cx="27.561735552964162" cy="9.819686828152923"></circle><circle class="pearl" r="2.190433937142651" cx="9.992594188535415" cy="27.63525125635152"></circle><circle class="pearl" r="2.190433937142651" cx="10.6491671407218" cy="4.653526813162095"></circle><circle class="pearl" r="2.190433937142651" cx="28.83621228217434" cy="17.66911515918857"></circle><circle class="pearl" r="2.190433937142651" cx="4.717373081700653" cy="21.530300739223005"></circle><circle class="pearl" r="2.190433937142651" cx="21.593863816228414" cy="4.54502050547592"></circle><circle class="pearl" r="2.190433937142651" cx="17.997816177616205" cy="28.8045546453173"></circle><circle class="pearl" r="2.190433937142651" cx="4.976975053491806" cy="9.838664149167464"></circle></g><g class="bobaCup bright" cupRadius="15.937984791282814" width="31.875969582565627" height="31.875969582565627" pearlRadius="2.7380424214283137" pearlCount="13" transform="translate(161.54554698444872,225.82285739242403)"><circle class="pool" r="15.937984791282814" cx="15.937984791282814" cy="15.937984791282814" style="stroke-width: 1; fill: rgb(65, 182, 196);"></circle><circle class="pearl" r="2.190433937142651" cx="20.688478982215155" cy="17.584592333398703"></circle><circle class="pearl" r="2.190433937142651" cx="13.771956001641371" cy="20.93488730646113"></circle><circle class="pearl" r="2.190433937142651" cx="16.787263221986578" cy="10.899356072028576"></circle><circle class="pearl" r="2.190433937142651" cx="24.519144060741013" cy="25.228666111541344"></circle><circle class="pearl" r="2.190433937142651" cx="9.640616661081031" cy="14.167877142043293"></circle><circle class="pearl" r="2.190433937142651" cx="27.24246843044539" cy="10.427889805671922"></circle><circle class="pearl" r="2.190433937142651" cx="7.958111981658773" cy="26.083673746659596"></circle><circle class="pearl" r="2.190433937142651" cx="13.42566761433439" cy="3.8499780326671242"></circle><circle class="pearl" r="2.190433937142651" cx="28.048509396917737" cy="18.304929217309475"></circle><circle class="pearl" r="2.190433937142651" cx="4.0848398619792565" cy="19.632498473813037"></circle><circle class="pearl" r="2.190433937142651" cx="21.76062473737675" cy="4.75239367749402"></circle><circle class="pearl" r="2.190433937142651" cx="17.11323407873735" cy="28.18185650311521"></circle><circle class="pearl" r="2.190433937142651" cx="6.4021330083383425" cy="6.986247603851775"></circle></g><g class="bobaCup bright" cupRadius="15.918440845244234" width="31.836881690488468" height="31.836881690488468" pearlRadius="2.7380424214283132" pearlCount="13" transform="translate(109.40921776281104,179.38711778795795)"><circle class="pool" r="15.918440845244234" cx="15.918440845244234" cy="15.918440845244234" style="stroke-width: 1; fill: rgb(29, 145, 192);"></circle><circle class="pearl" r="2.1904339371426507" cx="20.637086549649432" cy="17.700571996876292"></circle><circle class="pearl" r="2.1904339371426507" cx="13.650512751117331" cy="20.88302959744037"></circle><circle class="pearl" r="2.1904339371426507" cx="16.86619182650869" cy="10.936315831728717"></circle><circle class="pearl" r="2.1904339371426507" cx="24.48152872699685" cy="25.335619029506162"></circle><circle class="pearl" r="2.1904339371426507" cx="9.64803980882699" cy="14.027002919340383"></circle><circle class="pearl" r="2.1904339371426507" cx="27.2419612302625" cy="10.517627282046691"></circle><circle class="pearl" r="2.1904339371426507" cx="7.765014494155281" cy="25.93952794599341"></circle><circle class="pearl" r="2.1904339371426507" cx="13.6378350266297" cy="3.8149393691958773"></circle><circle class="pearl" r="2.1904339371426507" cx="27.99130759466021" cy="18.40147873212492"></circle><circle class="pearl" r="2.1904339371426507" cx="4.041924815790082" cy="19.425804522934342"></circle><circle class="pearl" r="2.1904339371426507" cx="21.826553663840695" cy="4.787724297316003"></circle><circle class="pearl" r="2.1904339371426507" cx="17.01470063710224" cy="28.14836538092683"></circle><circle class="pearl" r="2.1904339371426507" cx="6.528763624935961" cy="6.789108171033756"></circle></g><g class="bobaCup bright" cupRadius="15.818932283838123" width="31.637864567676246" height="31.637864567676246" pearlRadius="2.7380424214283137" pearlCount="13" transform="translate(45.27037375548042,226.3171015449604)"><circle class="pool" r="15.818932283838123" cx="15.818932283838123" cy="15.818932283838123" style="stroke-width: 1; fill: rgb(29, 145, 192);"></circle><circle class="pearl" r="2.190433937142651" cx="20.361458743535167" cy="18.164292265745043"></circle><circle class="pearl" r="2.190433937142651" cx="13.18394835018861" cy="20.783862467920024"></circle><circle class="pearl" r="2.190433937142651" cx="17.263823710938592" cy="11.02195719498454"></circle><circle class="pearl" r="2.190433937142651" cx="24.16049798757883" cy="25.60907585063529"></circle><circle class="pearl" r="2.190433937142651" cx="9.930804307798965" cy="13.60768778787216"></circle><circle class="pearl" r="2.190433937142651" cx="27.198601728167315" cy="10.886801436113007"></circle><circle class="pearl" r="2.190433937142651" cx="6.898755097559475" cy="25.2322458573451"></circle><circle class="pearl" r="2.190433937142651" cx="14.081924007498712" cy="3.7463791092995677"></circle><circle class="pearl" r="2.190433937142651" cx="27.707053881845514" cy="18.78253145649481"></circle><circle class="pearl" r="2.190433937142651" cx="3.857084994093899" cy="18.36574606016487"></circle><circle class="pearl" r="2.190433937142651" cx="22.15965350092328" cy="4.97711008215914"></circle><circle class="pearl" r="2.190433937142651" cx="16.546895705760484" cy="27.970382572128546"></circle><circle class="pearl" r="2.190433937142651" cx="6.7159758373081875" cy="6.5323141111306935"></circle></g><g class="bobaCup bright" cupRadius="15.64998981872427" width="31.29997963744854" height="31.29997963744854" pearlRadius="2.7380424214283137" pearlCount="12" transform="translate(27.50240494279653,231.88606320697411)"><circle class="pool" r="15.64998981872427" cx="15.64998981872427" cy="15.64998981872427" style="stroke-width: 1; fill: rgb(127, 205, 187);"></circle><circle class="pearl" r="2.190433937142651" cx="17.359433538340866" cy="11.288994395729832"></circle><circle class="pearl" r="2.190433937142651" cx="11.293606607959" cy="17.402939287863475"></circle><circle class="pearl" r="2.190433937142651" cx="14.126772470415919" cy="3.9768390232348674"></circle><circle class="pearl" r="2.190433937142651" cx="19.107820942692538" cy="19.090011676149643"></circle><circle class="pearl" r="2.190433937142651" cx="3.997742984860783" cy="14.13382988225514"></circle><circle class="pearl" r="2.190433937142651" cx="27.194888182036976" cy="11.906293014434628"></circle><circle class="pearl" r="2.190433937142651" cx="11.995372864501695" cy="27.216557947161572"></circle><circle class="pearl" r="2.190433937142651" cx="6.560736876708887" cy="6.560710602937739"></circle><circle class="pearl" r="2.190433937142651" cx="27.061073763578104" cy="19.90018346098799"></circle><circle class="pearl" r="2.190433937142651" cx="5.358677408657764" cy="22.759267108092903"></circle><circle class="pearl" r="2.190433937142651" cx="22.67152052257337" cy="5.314280768079984"></circle><circle class="pearl" r="2.190433937142651" cx="19.98831004219689" cy="27.03592708923947"></circle></g><g class="bobaCup bright" cupRadius="15.606298614277954" width="31.212597228555907" height="31.212597228555907" pearlRadius="2.7380424214283146" pearlCount="12" transform="translate(135.33805488651623,52.12230770204642)"><circle class="pool" r="15.606298614277954" cx="15.606298614277954" cy="15.606298614277954" style="stroke-width: 1; fill: rgb(127, 205, 187);"></circle><circle class="pearl" r="2.1904339371426516" cx="17.230988038248327" cy="11.202958331090407"></circle><circle class="pearl" r="2.1904339371426516" cx="11.204571902468702" cy="17.249718246923408"></circle><circle class="pearl" r="2.1904339371426516" cx="14.076683301828611" cy="3.856564305498446"></circle><circle class="pearl" r="2.1904339371426516" cx="19.00558019769559" cy="18.998280919992947"></circle><circle class="pearl" r="2.1904339371426516" cx="3.86500538121344" cy="14.079673785685989"></circle><circle class="pearl" r="2.1904339371426516" cx="27.13180106790021" cy="11.967791986394854"></circle><circle class="pearl" r="2.1904339371426516" cx="12.005609321417698" cy="27.140817993393302"></circle><circle class="pearl" r="2.1904339371426516" cx="6.548361681181675" cy="6.54835019888623"></circle><circle class="pearl" r="2.1904339371426516" cx="26.942126590886428" cy="19.960588385589123"></circle><circle class="pearl" r="2.1904339371426516" cx="5.3567569674261355" cy="22.70131044168869"></circle><circle class="pearl" r="2.1904339371426516" cx="22.664015402980986" cy="5.337783711095084"></circle><circle class="pearl" r="2.1904339371426516" cx="19.997882402066374" cy="26.931240588723657"></circle></g><g class="bobaCup bright" cupRadius="15.509108040344262" width="31.018216080688525" height="31.018216080688525" pearlRadius="2.738042421428314" pearlCount="12" transform="translate(199.1052149198178,182.16868363364202)"><circle class="pool" r="15.509108040344262" cx="15.509108040344262" cy="15.509108040344262" style="stroke-width: 1; fill: rgb(65, 182, 196);"></circle><circle class="pearl" r="2.1904339371426516" cx="17.045646180499283" cy="11.044242703065061"></circle><circle class="pearl" r="2.1904339371426516" cx="11.052597705589822" cy="17.02437573509902"></circle><circle class="pearl" r="2.1904339371426516" cx="13.98974321043126" cy="3.725325681735223"></circle><circle class="pearl" r="2.1904339371426516" cx="18.785063468711133" cy="18.79642047796921"></circle><circle class="pearl" r="2.1904339371426516" cx="3.725827908860927" cy="13.984649943543998"></circle><circle class="pearl" r="2.1904339371426516" cx="27.004103361426164" cy="12.171497844145724"></circle><circle class="pearl" r="2.1904339371426516" cx="12.111732482522724" cy="26.99080932095834"></circle><circle class="pearl" r="2.1904339371426516" cx="6.526825765874701" cy="6.516610265198732"></circle><circle class="pearl" r="2.1904339371426516" cx="26.602333816710523" cy="20.320386451211593"></circle><circle class="pearl" r="2.1904339371426516" cx="5.399288732638221" cy="22.663120992134253"></circle><circle class="pearl" r="2.1904339371426516" cx="22.722556541093276" cy="5.430352293582274"></circle><circle class="pearl" r="2.1904339371426516" cx="20.25909544847238" cy="26.622193664155933"></circle></g><g class="bobaCup bright" cupRadius="15.037029983806512" width="30.074059967613024" height="30.074059967613024" pearlRadius="2.738042421428314" pearlCount="11" transform="translate(271.9291946712986,202.63782945923882)"><circle class="pool" r="15.037029983806512" cx="15.037029983806512" cy="15.037029983806512" style="stroke-width: 1; fill: rgb(29, 145, 192);"></circle><circle class="pearl" r="2.1904339371426516" cx="19.27162826197408" cy="14.997279031058248"></circle><circle class="pearl" r="2.1904339371426516" cx="11.703269626802255" cy="17.404273642304442"></circle><circle class="pearl" r="2.1904339371426516" cx="13.759971973378965" cy="9.307429132037061"></circle><circle class="pearl" r="2.1904339371426516" cx="20.62820693516454" cy="25.3452111188486"></circle><circle class="pearl" r="2.1904339371426516" cx="4.407024637920317" cy="14.102843275465583"></circle><circle class="pearl" r="2.1904339371426516" cx="25.635280737091858" cy="10.232968036009142"></circle><circle class="pearl" r="2.1904339371426516" cx="12.737511541292859" cy="26.2464711441793"></circle><circle class="pearl" r="2.1904339371426516" cx="6.405840201632666" cy="6.374555671608835"></circle><circle class="pearl" r="2.1904339371426516" cx="25.775414812162804" cy="19.403474768750403"></circle><circle class="pearl" r="2.1904339371426516" cx="5.705432682113019" cy="22.624626730034326"></circle><circle class="pearl" r="2.1904339371426516" cx="20.11172748650025" cy="4.532905421247873"></circle></g><g class="bobaCup bright" cupRadius="14.868246012708505" width="29.73649202541701" height="29.73649202541701" pearlRadius="2.7380424214283137" pearlCount="11" transform="translate(183.00038072856577,31.516271983205144)"><circle class="pool" r="14.868246012708505" cx="14.868246012708505" cy="14.868246012708505" style="stroke-width: 1; fill: rgb(65, 182, 196);"></circle><circle class="pearl" r="2.190433937142651" cx="18.80663570805738" cy="15.031631828698846"></circle><circle class="pearl" r="2.190433937142651" cx="11.109345813048463" cy="16.62119100211711"></circle><circle class="pearl" r="2.190433937142651" cx="13.810988673374286" cy="8.918113508642652"></circle><circle class="pearl" r="2.190433937142651" cx="20.650750561931773" cy="24.915237215115848"></circle><circle class="pearl" r="2.190433937142651" cx="3.690410405106906" cy="13.782620692173193"></circle><circle class="pearl" r="2.190433937142651" cx="25.545745410651673" cy="10.897506048990476"></circle><circle class="pearl" r="2.190433937142651" cx="12.807971496792964" cy="25.94233206689186"></circle><circle class="pearl" r="2.190433937142651" cx="6.3791573188626" cy="6.312409011532637"></circle><circle class="pearl" r="2.190433937142651" cx="25.536491069650847" cy="18.872229870428605"></circle><circle class="pearl" r="2.190433937142651" cx="5.751735766028011" cy="22.48812061028804"></circle><circle class="pearl" r="2.190433937142651" cx="20.55895370366392" cy="4.7828640629357935"></circle></g><g class="bobaCup bright" cupRadius="14.765720240704423" width="29.531440481408847" height="29.531440481408847" pearlRadius="2.738042421428314" pearlCount="11" transform="translate(104.88659494189349,168.4803675199566)"><circle class="pool" r="14.765720240704423" cx="14.765720240704423" cy="14.765720240704423" style="stroke-width: 1; fill: rgb(127, 205, 187);"></circle><circle class="pearl" r="2.1904339371426516" cx="18.69774825386665" cy="14.976639618208154"></circle><circle class="pearl" r="2.1904339371426516" cx="11.061823297288049" cy="16.602299738488238"></circle><circle class="pearl" r="2.1904339371426516" cx="13.70264402391359" cy="8.93442082609553"></circle><circle class="pearl" r="2.1904339371426516" cx="20.733027411046248" cy="24.62120815225459"></circle><circle class="pearl" r="2.1904339371426516" cx="3.68838098365886" cy="13.711837113161405"></circle><circle class="pearl" r="2.1904339371426516" cx="25.311428122800784" cy="10.705198359613055"></circle><circle class="pearl" r="2.1904339371426516" cx="12.987487548603195" cy="25.773250070376353"></circle><circle class="pearl" r="2.1904339371426516" cx="6.372464531333296" cy="6.268202739694237"></circle><circle class="pearl" r="2.1904339371426516" cx="25.362713581063314" cy="18.642454278291538"></circle><circle class="pearl" r="2.1904339371426516" cx="5.899319678339944" cy="22.598223431201266"></circle><circle class="pearl" r="2.1904339371426516" cx="20.333634071369826" cy="4.740741300793145"></circle></g><g class="bobaCup bright" cupRadius="14.726190136228176" width="29.452380272456352" height="29.452380272456352" pearlRadius="2.7380424214283137" pearlCount="11" transform="translate(106.76670047983839,244.71825225206203)"><circle class="pool" r="14.726190136228176" cx="14.726190136228176" cy="14.726190136228176" style="stroke-width: 1; fill: rgb(29, 145, 192);"></circle><circle class="pearl" r="2.190433937142651" cx="18.659318299863315" cy="14.966036034546622"></circle><circle class="pearl" r="2.190433937142651" cx="11.043767768428502" cy="16.58953024614902"></circle><circle class="pearl" r="2.190433937142651" cx="13.648555170356849" cy="8.972872158621149"></circle><circle class="pearl" r="2.190433937142651" cx="20.764717558830128" cy="24.50665682124361"></circle><circle class="pearl" r="2.190433937142651" cx="3.687831806316334" cy="13.6814131760205"></circle><circle class="pearl" r="2.190433937142651" cx="25.216033041598717" cy="10.614613146803404"></circle><circle class="pearl" r="2.190433937142651" cx="13.051701306666663" cy="25.70614573975568"></circle><circle class="pearl" r="2.190433937142651" cx="6.371336492442918" cy="6.250203319643889"></circle><circle class="pearl" r="2.190433937142651" cx="25.298723709035063" cy="18.54190001649938"></circle><circle class="pearl" r="2.190433937142651" cx="5.953002050801876" cy="22.632333544380586"></circle><circle class="pearl" r="2.190433937142651" cx="20.20972007213814" cy="4.7097419174834965"></circle></g><g class="bobaCup bright" cupRadius="14.637175375746246" width="29.27435075149249" height="29.27435075149249" pearlRadius="2.738042421428314" pearlCount="11" transform="translate(229.72711628208273,80.676789400932)"><circle class="pool" r="14.637175375746246" cx="14.637175375746246" cy="14.637175375746246" style="stroke-width: 1; fill: rgb(127, 205, 187);"></circle><circle class="pearl" r="2.1904339371426516" cx="18.574516391985103" cy="14.951977187219391"></circle><circle class="pearl" r="2.1904339371426516" cx="10.998015595219064" cy="16.56931007273781"></circle><circle class="pearl" r="2.1904339371426516" cx="13.515201274198263" cy="9.089380646468774"></circle><circle class="pearl" r="2.1904339371426516" cx="20.86664891740546" cy="24.231849928069476"></circle><circle class="pearl" r="2.1904339371426516" cx="3.686910874149531" cy="13.608554802433796"></circle><circle class="pearl" r="2.1904339371426516" cx="24.991980871947746" cy="10.383698195847165"></circle><circle class="pearl" r="2.1904339371426516" cx="13.229771695015792" cy="25.555807584524427"></circle><circle class="pearl" r="2.1904339371426516" cx="6.3706782911421325" cy="6.20849758727249"></circle><circle class="pearl" r="2.1904339371426516" cx="25.161603437887283" cy="18.28573521022542"></circle><circle class="pearl" r="2.1904339371426516" cx="6.09737499981331" cy="22.738905884000797"></circle><circle class="pearl" r="2.1904339371426516" cx="19.889593911217652" cy="4.625578065382934"></circle></g><g class="bobaCup bright" cupRadius="14.625045247693436" width="29.25009049538687" height="29.25009049538687" pearlRadius="2.7380424214283137" pearlCount="11" transform="translate(271.69325507362845,55.49285857073815)"><circle class="pool" r="14.625045247693436" cx="14.625045247693436" cy="14.625045247693436" style="stroke-width: 1; fill: rgb(65, 182, 196);"></circle><circle class="pearl" r="2.190433937142651" cx="18.56316388161514" cy="14.951027423245499"></circle><circle class="pearl" r="2.190433937142651" cx="10.991113094886932" cy="16.56797329060543"></circle><circle class="pearl" r="2.190433937142651" cx="13.495455366818094" cy="9.108924108671989"></circle><circle class="pearl" r="2.190433937142651" cx="20.885015109241" cy="24.19191354820194"></circle><circle class="pearl" r="2.190433937142651" cx="3.6868193749161815" cy="13.598150601029122"></circle><circle class="pearl" r="2.190433937142651" cx="24.960109941643424" cy="10.348401156429347"></circle><circle class="pearl" r="2.190433937142651" cx="13.258960661744526" cy="25.535426420956476"></circle><circle class="pearl" r="2.190433937142651" cx="6.370818586391087" cy="6.20267066663315"></circle><circle class="pearl" r="2.190433937142651" cx="25.14390261879132" cy="18.24649994526528"></circle><circle class="pearl" r="2.190433937142651" cx="6.120521566056935" cy="22.757813598566912"></circle><circle class="pearl" r="2.190433937142651" cx="19.840447389575257" cy="4.612257617208755"></circle></g><g class="bobaCup bright" cupRadius="14.298727303888965" width="28.59745460777793" height="28.59745460777793" pearlRadius="2.7380424214283137" pearlCount="10" transform="translate(247.39800653153432,43.740547050799336)"><circle class="pool" r="14.298727303888965" cx="14.298727303888965" cy="14.298727303888965" style="stroke-width: 1; fill: rgb(29, 145, 192);"></circle><circle class="pearl" r="2.190433937142651" cx="17.798316086633502" cy="12.377347514835824"></circle><circle class="pearl" r="2.190433937142651" cx="11.069285132959351" cy="16.26010891544919"></circle><circle class="pearl" r="2.190433937142651" cx="14.519910268016952" cy="5.080189519436369"></circle><circle class="pearl" r="2.190433937142651" cx="21.507260603442177" cy="22.996714541605943"></circle><circle class="pearl" r="2.190433937142651" cx="3.6853284516317792" cy="13.304532265575483"></circle><circle class="pearl" r="2.190433937142651" cx="22.336668109402094" cy="6.1238380697566175"></circle><circle class="pearl" r="2.190433937142651" cx="13.770543124996449" cy="24.936972686947882"></circle><circle class="pearl" r="2.190433937142651" cx="6.579709755681994" cy="5.913239725006873"></circle><circle class="pearl" r="2.190433937142651" cx="24.864902289794575" cy="15.826276867794883"></circle><circle class="pearl" r="2.190433937142651" cx="6.254693073181782" cy="22.469472503825013"></circle></g><g class="bobaCup bright" cupRadius="14.231644481727928" width="28.463288963455856" height="28.463288963455856" pearlRadius="2.7380424214283137" pearlCount="10" transform="translate(280.493887127904,285.7683555182721)"><circle class="pool" r="14.231644481727928" cx="14.231644481727928" cy="14.231644481727928" style="stroke-width: 1; fill: rgb(65, 182, 196);"></circle><circle class="pearl" r="2.190433937142651" cx="17.676383695420856" cy="12.249334500099474"></circle><circle class="pearl" r="2.190433937142651" cx="11.080945782569898" cy="16.222569274335747"></circle><circle class="pearl" r="2.190433937142651" cx="14.429314242642839" cy="4.914792501730216"></circle><circle class="pearl" r="2.190433937142651" cx="21.484829646430303" cy="22.825553122708428"></circle><circle class="pearl" r="2.190433937142651" cx="3.6794459123758134" cy="13.327920488257035"></circle><circle class="pearl" r="2.190433937142651" cx="22.19591290407941" cy="6.087871826581386"></circle><circle class="pearl" r="2.190433937142651" cx="13.7606063225101" cy="24.804768401761105"></circle><circle class="pearl" r="2.190433937142651" cx="6.512043747940413" cy="5.926303593491834"></circle><circle class="pearl" r="2.190433937142651" cx="24.744113227571017" cy="15.625810092473985"></circle><circle class="pearl" r="2.190433937142651" cx="6.26051091690103" cy="22.370778518874143"></circle></g><g class="bobaCup bright" cupRadius="14.09598434980656" width="28.19196869961312" height="28.19196869961312" pearlRadius="2.7380424214283137" pearlCount="10" transform="translate(220.24740275561464,31.823915132750596)"><circle class="pool" r="14.09598434980656" cx="14.09598434980656" cy="14.09598434980656" style="stroke-width: 1; fill: rgb(29, 145, 192);"></circle><circle class="pearl" r="2.190433937142651" cx="17.41059754593136" cy="11.972532190481001"></circle><circle class="pearl" r="2.190433937142651" cx="11.11242616760282" cy="16.15986085130675"></circle><circle class="pearl" r="2.190433937142651" cx="14.25323389176026" cy="4.544910500359129"></circle><circle class="pearl" r="2.190433937142651" cx="21.438828626651283" cy="22.477692825425624"></circle><circle class="pearl" r="2.190433937142651" cx="3.6696472420019113" cy="13.36581513926111"></circle><circle class="pearl" r="2.190433937142651" cx="21.9113591181544" cy="6.015693469603271"></circle><circle class="pearl" r="2.190433937142651" cx="13.737895803885932" cy="24.536696370466547"></circle><circle class="pearl" r="2.190433937142651" cx="6.39574059948488" cy="5.939801930595776"></circle><circle class="pearl" r="2.190433937142651" cx="24.49722298894753" cy="15.209152108213967"></circle><circle class="pearl" r="2.190433937142651" cx="6.273663603619552" cy="22.17164474679386"></circle></g><g class="bobaCup bright" cupRadius="14.046592847299127" width="28.093185694598255" height="28.093185694598255" pearlRadius="2.7380424214283137" pearlCount="10" transform="translate(88.06951320009766,95.3886481667263)"><circle class="pool" r="14.046592847299127" cx="14.046592847299127" cy="14.046592847299127" style="stroke-width: 1; fill: rgb(65, 182, 196);"></circle><circle class="pearl" r="2.190433937142651" cx="17.304954346263543" cy="11.863262419503695"></circle><circle class="pearl" r="2.190433937142651" cx="11.12716984421037" cy="16.14236205883266"></circle><circle class="pearl" r="2.190433937142651" cx="14.192510461370004" cy="4.401841326134688"></circle><circle class="pearl" r="2.190433937142651" cx="21.422217089053063" cy="22.350238596731298"></circle><circle class="pearl" r="2.190433937142651" cx="3.6667532301645807" cy="13.375715175514094"></circle><circle class="pearl" r="2.190433937142651" cx="21.807909958930917" cy="5.989680648061292"></circle><circle class="pearl" r="2.190433937142651" cx="13.728812100766788" cy="24.438867376148938"></circle><circle class="pearl" r="2.190433937142651" cx="6.361347978256548" cy="5.939604482169264"></circle><circle class="pearl" r="2.190433937142651" cx="24.406440241558293" cy="15.051919381556015"></circle><circle class="pearl" r="2.190433937142651" cx="6.278840338328299" cy="22.099236295764715"></circle></g><g class="bobaCup bright" cupRadius="13.995072247088354" width="27.990144494176707" height="27.990144494176707" pearlRadius="2.7380424214283137" pearlCount="10" transform="translate(239.2343722506775,180.28604351214713)"><circle class="pool" r="13.995072247088354" cx="13.995072247088354" cy="13.995072247088354" style="stroke-width: 1; fill: rgb(65, 182, 196);"></circle><circle class="pearl" r="2.190433937142651" cx="17.188265782466928" cy="11.743051916354755"></circle><circle class="pearl" r="2.190433937142651" cx="11.145294295509359" cy="16.12810325991055"></circle><circle class="pearl" r="2.190433937142651" cx="14.131288924756136" cy="4.250957909756139"></circle><circle class="pearl" r="2.190433937142651" cx="21.40471865594984" cy="22.216972456362367"></circle><circle class="pearl" r="2.190433937142651" cx="3.66404647986038" cy="13.384546064443693"></circle><circle class="pearl" r="2.190433937142651" cx="21.70022961195253" cy="5.962790845689373"></circle><circle class="pearl" r="2.190433937142651" cx="13.718519785131146" cy="24.336688563318493"></circle><circle class="pearl" r="2.190433937142651" cx="6.329759142271786" cy="5.936610098087263"></circle><circle class="pearl" r="2.190433937142651" cx="24.31113708029464" cy="14.884385711855273"></circle><circle class="pearl" r="2.190433937142651" cx="6.284293890070513" cy="22.023644559352253"></circle></g><g class="bobaCup bright" cupRadius="13.828620395363618" width="27.657240790727236" height="27.657240790727236" pearlRadius="2.738042421428314" pearlCount="10" transform="translate(258.2866665659955,38.025138089952435)"><circle class="pool" r="13.828620395363618" cx="13.828620395363618" cy="13.828620395363618" style="stroke-width: 1; fill: rgb(65, 182, 196);"></circle><circle class="pearl" r="2.1904339371426516" cx="16.750231076249907" cy="11.298166376323868"></circle><circle class="pearl" r="2.1904339371426516" cx="11.232861945459366" cy="16.119059128037865"></circle><circle class="pearl" r="2.1904339371426516" cx="13.95181312985783" cy="3.766361631558921"></circle><circle class="pearl" r="2.1904339371426516" cx="21.342511284693693" cy="21.787039501276556"></circle><circle class="pearl" r="2.1904339371426516" cx="3.6570708088738457" cy="13.40967378170474"></circle><circle class="pearl" r="2.1904339371426516" cx="21.356896651444625" cy="5.87952471796925"></circle><circle class="pearl" r="2.1904339371426516" cx="13.674209900837388" cy="24.00565546082728"></circle><circle class="pearl" r="2.1904339371426516" cx="6.256665847374897" cy="5.907989063544656"></circle><circle class="pearl" r="2.1904339371426516" cx="23.997871677324643" cy="14.317544282394604"></circle><circle class="pearl" r="2.1904339371426516" cx="6.298677243514733" cy="21.776634088069382"></circle></g><g class="bobaCup bright" cupRadius="13.808820178275848" width="27.617640356551696" height="27.617640356551696" pearlRadius="2.7380424214283132" pearlCount="10" transform="translate(40.516676545612086,194.9012614791918)"><circle class="pool" r="13.808820178275848" cx="13.808820178275848" cy="13.808820178275848" style="stroke-width: 1; fill: rgb(65, 182, 196);"></circle><circle class="pearl" r="2.1904339371426507" cx="16.689969267785592" cy="11.23818115689014"></circle><circle class="pearl" r="2.1904339371426507" cx="11.249304928557663" cy="16.124985065244285"></circle><circle class="pearl" r="2.1904339371426507" cx="13.930517052647984" cy="3.715635904324369"></circle><circle class="pearl" r="2.1904339371426507" cx="21.333570472303116" cy="21.736596322615522"></circle><circle class="pearl" r="2.1904339371426507" cx="3.656266246466381" cy="13.417598566302674"></circle><circle class="pearl" r="2.1904339371426507" cx="21.316862517635652" cy="5.870202832580474"></circle><circle class="pearl" r="2.1904339371426507" cx="13.666715797208262" cy="23.9661859217834"></circle><circle class="pearl" r="2.1904339371426507" cx="6.24733370071286" cy="5.905001574061422"></circle><circle class="pearl" r="2.1904339371426507" cx="23.959936302949647" cy="14.247847720896083"></circle><circle class="pearl" r="2.1904339371426507" cx="6.299532331051473" cy="21.746630538709308"></circle></g><g class="bobaCup bright" cupRadius="13.752389402526969" width="27.504778805053938" height="27.504778805053938" pearlRadius="2.7380424214283132" pearlCount="9" transform="translate(306.24761059747306,70.98488679937039)"><circle class="pool" r="13.752389402526969" cx="13.752389402526969" cy="13.752389402526969" style="stroke-width: 1; fill: rgb(127, 205, 187);"></circle><circle class="pearl" r="2.1904339371426507" cx="17.104485811332047" cy="12.111283647289374"></circle><circle class="pearl" r="2.1904339371426507" cx="10.61134068778856" cy="16.06602555024546"></circle><circle class="pearl" r="2.1904339371426507" cx="13.924499975603783" cy="3.6518002490244337"></circle><circle class="pearl" r="2.1904339371426507" cx="19.070336729400523" cy="22.78423888249316"></circle><circle class="pearl" r="2.1904339371426507" cx="3.666194026656089" cy="13.10025327128417"></circle><circle class="pearl" r="2.1904339371426507" cx="21.34051304274625" cy="5.933649090919663"></circle><circle class="pearl" r="2.1904339371426507" cx="11.188181481174015" cy="23.612885660545793"></circle><circle class="pearl" r="2.1904339371426507" cx="6.305313263350954" cy="5.841569859648762"></circle><circle class="pearl" r="2.1904339371426507" cx="23.59817264365075" cy="16.392943774665657"></circle></g><g class="bobaCup bright" cupRadius="13.657805194275802" width="27.315610388551605" height="27.315610388551605" pearlRadius="2.7380424214283132" pearlCount="9" transform="translate(257.2344992962248,195.28591234345288)"><circle class="pool" r="13.657805194275802" cx="13.657805194275802" cy="13.657805194275802" style="stroke-width: 1; fill: rgb(29, 145, 192);"></circle><circle class="pearl" r="2.1904339371426507" cx="16.973693454271796" cy="11.960550865365258"></circle><circle class="pearl" r="2.1904339371426507" cx="10.603140711994756" cy="15.937951940128295"></circle><circle class="pearl" r="2.1904339371426507" cx="13.74303495216024" cy="3.650989163772503"></circle><circle class="pearl" r="2.1904339371426507" cx="18.92228722392302" cy="22.609497277235622"></circle><circle class="pearl" r="2.1904339371426507" cx="3.6591072414124843" cy="13.17932412192603"></circle><circle class="pearl" r="2.1904339371426507" cx="21.14048055324209" cy="5.882890051311322"></circle><circle class="pearl" r="2.1904339371426507" cx="11.053291356220944" cy="23.414249839352298"></circle><circle class="pearl" r="2.1904339371426507" cx="6.143772548672248" cy="5.903487601982143"></circle><circle class="pearl" r="2.1904339371426507" cx="23.419575385456064" cy="16.234753581402316"></circle></g><g class="bobaCup bright" cupRadius="13.57311292445781" width="27.14622584891562" height="27.14622584891562" pearlRadius="2.7380424214283137" pearlCount="9" transform="translate(75.4599210456166,76.18761633303527)"><circle class="pool" r="13.57311292445781" cx="13.57311292445781" cy="13.57311292445781" style="stroke-width: 1; fill: rgb(127, 205, 187);"></circle><circle class="pearl" r="2.190433937142651" cx="16.757546763815224" cy="11.783812835225895"></circle><circle class="pearl" r="2.190433937142651" cx="10.540333422408871" cy="15.885330495740076"></circle><circle class="pearl" r="2.190433937142651" cx="13.634337059635406" cy="3.65086131088926"></circle><circle class="pearl" r="2.190433937142651" cx="18.974462944133005" cy="22.37449041926021"></circle><circle class="pearl" r="2.190433937142651" cx="3.65626092377091" cy="13.185431536577518"></circle><circle class="pearl" r="2.190433937142651" cx="20.975554498040612" cy="5.846962539870637"></circle><circle class="pearl" r="2.190433937142651" cx="11.131688614795491" cy="23.27412523102498"></circle><circle class="pearl" r="2.190433937142651" cx="6.0707045188392215" cy="5.912635395576697"></circle><circle class="pearl" r="2.190433937142651" cx="23.295727727260992" cy="15.893290581164804"></circle></g><g class="bobaCup bright" cupRadius="13.389352381547276" width="26.778704763094552" height="26.778704763094552" pearlRadius="2.7380424214283137" pearlCount="9" transform="translate(224.78093954538124,284.4907903685177)"><circle class="pool" r="13.389352381547276" cx="13.389352381547276" cy="13.389352381547276" style="stroke-width: 1; fill: rgb(65, 182, 196);"></circle><circle class="pearl" r="2.190433937142651" cx="15.502363533553364" cy="11.284785805474451"></circle><circle class="pearl" r="2.190433937142651" cx="10.035398926896185" cy="16.678431839702323"></circle><circle class="pearl" r="2.190433937142651" cx="13.487121023925896" cy="3.651080185150393"></circle><circle class="pearl" r="2.190433937142651" cx="20.83878368948721" cy="20.864308025994685"></circle><circle class="pearl" r="2.190433937142651" cx="3.652969027910242" cy="13.144128904192867"></circle><circle class="pearl" r="2.190433937142651" cx="20.735650140954842" cy="5.846029584334426"></circle><circle class="pearl" r="2.190433937142651" cx="13.50393619565227" cy="23.127491231091376"></circle><circle class="pearl" r="2.190433937142651" cx="6.036085275377246" cy="5.85060645101329"></circle><circle class="pearl" r="2.190433937142651" cx="23.127874523609396" cy="13.33582106152805"></circle></g><g class="bobaCup bright" cupRadius="13.322329603128152" width="26.644659206256303" height="26.644659206256303" pearlRadius="2.738042421428314" pearlCount="9" transform="translate(249.70796028609232,22.889424546646467)"><circle class="pool" r="13.322329603128152" cx="13.322329603128152" cy="13.322329603128152" style="stroke-width: 1; fill: rgb(127, 205, 187);"></circle><circle class="pearl" r="2.1904339371426516" cx="15.37208055514183" cy="11.268587354399125"></circle><circle class="pearl" r="2.1904339371426516" cx="9.937683546975926" cy="16.698744166337946"></circle><circle class="pearl" r="2.1904339371426516" cx="13.393053109583724" cy="3.6509109528563557"></circle><circle class="pearl" r="2.1904339371426516" cx="20.71572123170976" cy="20.75412532472377"></circle><circle class="pearl" r="2.1904339371426516" cx="3.652026040292226" cy="13.136019976427548"></circle><circle class="pearl" r="2.1904339371426516" cx="20.60430782992859" cy="5.817011456785417"></circle><circle class="pearl" r="2.1904339371426516" cx="13.483862035616717" cy="22.99295665625295"></circle><circle class="pearl" r="2.1904339371426516" cx="6.018628043312598" cy="5.831221313518192"></circle><circle class="pearl" r="2.1904339371426516" cx="22.993856218495626" cy="13.276230253200742"></circle></g><g class="bobaCup bright" cupRadius="12.776596607661538" width="25.553193215323077" height="25.553193215323077" pearlRadius="2.7380424214283132" pearlCount="8" transform="translate(88.26453431998999,234.37122494751287)"><circle class="pool" r="12.776596607661538" cx="12.776596607661538" cy="12.776596607661538" style="stroke-width: 1; fill: rgb(127, 205, 187);"></circle><circle class="pearl" r="2.1904339371426507" cx="14.335580317225782" cy="12.847902897281264"></circle><circle class="pearl" r="2.1904339371426507" cx="7.2218113487945805" cy="19.254204044113408"></circle><circle class="pearl" r="2.1904339371426507" cx="15.133343497257819" cy="3.8699648212110835"></circle><circle class="pearl" r="2.1904339371426507" cx="21.207380756565183" cy="16.933350192243136"></circle><circle class="pearl" r="2.1904339371426507" cx="3.6689868349585817" cy="12.093691121148195"></circle><circle class="pearl" r="2.1904339371426507" cx="21.31264546404542" cy="8.939409223095774"></circle><circle class="pearl" r="2.1904339371426507" cx="14.819767466573563" cy="21.738045028580522"></circle><circle class="pearl" r="2.1904339371426507" cx="7.209556599891046" cy="4.927342165524256"></circle></g><g class="bobaCup bright" cupRadius="12.51176644589956" width="25.02353289179912" height="25.02353289179912" pearlRadius="2.7380424214283137" pearlCount="8" transform="translate(50.538417180096005,51.57954303117237)"><circle class="pool" r="12.51176644589956" cx="12.51176644589956" cy="12.51176644589956" style="stroke-width: 1; fill: rgb(65, 182, 196);"></circle><circle class="pearl" r="2.190433937142651" cx="13.760567334430329" cy="12.793200731754101"></circle><circle class="pearl" r="2.190433937142651" cx="5.788929346898724" cy="19.413188067406875"></circle><circle class="pearl" r="2.190433937142651" cx="15.195523170483153" cy="3.9419434739119144"></circle><circle class="pearl" r="2.190433937142651" cx="20.40328449372343" cy="17.340945042123014"></circle><circle class="pearl" r="2.190433937142651" cx="3.6688803168738335" cy="11.837952809567149"></circle><circle class="pearl" r="2.190433937142651" cx="20.973094317771814" cy="9.374487730677172"></circle><circle class="pearl" r="2.190433937142651" cx="13.525478088059483" cy="21.331676252715553"></circle><circle class="pearl" r="2.190433937142651" cx="7.2825970898985775" cy="4.795868037282295"></circle></g><g class="bobaCup bright" cupRadius="12.35535605537635" width="24.7107121107527" height="24.7107121107527" pearlRadius="2.7380424214283137" pearlCount="8" transform="translate(94.96467973649547,227.59508915557555)"><circle class="pool" r="12.35535605537635" cx="12.35535605537635" cy="12.35535605537635" style="stroke-width: 1; fill: rgb(127, 205, 187);"></circle><circle class="pearl" r="2.190433937142651" cx="13.467577045683708" cy="12.672017315026562"></circle><circle class="pearl" r="2.190433937142651" cx="5.713238443720972" cy="19.12274671023265"></circle><circle class="pearl" r="2.190433937142651" cx="15.068542607235887" cy="3.9523063480599507"></circle><circle class="pearl" r="2.190433937142651" cx="20.04594575562106" cy="17.257339766671276"></circle><circle class="pearl" r="2.190433937142651" cx="3.6683870533695107" cy="11.694921593327194"></circle><circle class="pearl" r="2.190433937142651" cx="20.684648278871578" cy="9.333096466363951"></circle><circle class="pearl" r="2.190433937142651" cx="13.241126052189067" cy="21.028197033960247"></circle><circle class="pearl" r="2.190433937142651" cx="7.222841711427132" cy="4.76721280354646"></circle></g><g class="bobaCup bright" cupRadius="12.316371656377921" width="24.632743312755842" height="24.632743312755842" pearlRadius="2.738042421428314" pearlCount="8" transform="translate(205.80731918958895,255.58306981575757)"><circle class="pool" r="12.316371656377921" cx="12.316371656377921" cy="12.316371656377921" style="stroke-width: 1; fill: rgb(127, 205, 187);"></circle><circle class="pearl" r="2.1904339371426516" cx="13.40393403980317" cy="12.636034432084532"></circle><circle class="pearl" r="2.1904339371426516" cx="5.71765518673333" cy="19.065165326743568"></circle><circle class="pearl" r="2.1904339371426516" cx="14.982082712193549" cy="3.9426616199284994"></circle><circle class="pearl" r="2.1904339371426516" cx="19.97898751681581" cy="17.184776881411164"></circle><circle class="pearl" r="2.1904339371426516" cx="3.6662479925865505" cy="11.698167395080453"></circle><circle class="pearl" r="2.1904339371426516" cx="20.59858486433061" cy="9.26710309163773"></circle><circle class="pearl" r="2.1904339371426516" cx="13.212560443616463" cy="20.949371659614744"></circle><circle class="pearl" r="2.1904339371426516" cx="7.1582925302935205" cy="4.782854610925838"></circle></g><g class="bobaCup bright" cupRadius="11.987983820370605" width="23.97596764074121" height="23.97596764074121" pearlRadius="2.738042421428314" pearlCount="7" transform="translate(226.08110394365184,160.43704065563813)"><circle class="pool" r="11.987983820370605" cx="11.987983820370605" cy="11.987983820370605" style="stroke-width: 1; fill: rgb(29, 145, 192);"></circle><circle class="pearl" r="2.1904339371426516" cx="13.20879363454733" cy="12.321090548326952"></circle><circle class="pearl" r="2.1904339371426516" cx="4.905225260405413" cy="14.865839918706756"></circle><circle class="pearl" r="2.1904339371426516" cx="12.115203727339685" cy="3.651398294565745"></circle><circle class="pearl" r="2.1904339371426516" cx="18.543935933142254" cy="18.27571270717016"></circle><circle class="pearl" r="2.1904339371426516" cx="4.7974207232740405" cy="6.87151366191575"></circle><circle class="pearl" r="2.1904339371426516" cx="19.30487088410324" cy="7.1482234385313435"></circle><circle class="pearl" r="2.1904339371426516" cx="10.800640610807363" cy="20.266299621837586"></circle></g><g class="bobaCup bright" cupRadius="11.569774922881011" width="23.139549845762023" height="23.139549845762023" pearlRadius="2.7380424214283137" pearlCount="7" transform="translate(244.22159395089147,114.61358442912878)"><circle class="pool" r="11.569774922881011" cx="11.569774922881011" cy="11.569774922881011" style="stroke-width: 1; fill: rgb(127, 205, 187);"></circle><circle class="pearl" r="2.190433937142651" cx="11.813307089450547" cy="11.609715639071098"></circle><circle class="pearl" r="2.190433937142651" cx="4.049663996350921" cy="14.581776922440657"></circle><circle class="pearl" r="2.190433937142651" cx="12.17091426940183" cy="3.6663507033626956"></circle><circle class="pearl" r="2.190433937142651" cx="18.047998699176024" cy="17.161208043176774"></circle><circle class="pearl" r="2.190433937142651" cx="4.76232786817315" cy="6.621404878910221"></circle><circle class="pearl" r="2.190433937142651" cx="18.901451237370917" cy="7.93018812728182"></circle><circle class="pearl" r="2.190433937142651" cx="10.377023712002707" cy="19.42718083483814"></circle></g><g class="bobaCup bright" cupRadius="11.443720459096651" width="22.887440918193303" height="22.887440918193303" pearlRadius="2.7380424214283132" pearlCount="7" transform="translate(116.0387137486971,180.4390066653197)"><circle class="pool" r="11.443720459096651" cx="11.443720459096651" cy="11.443720459096651" style="stroke-width: 1; fill: rgb(65, 182, 196);"></circle><circle class="pearl" r="2.1904339371426507" cx="11.479470641733823" cy="11.460572023800843"></circle><circle class="pearl" r="2.1904339371426507" cx="3.9883792688986928" cy="14.203081086506472"></circle><circle class="pearl" r="2.1904339371426507" cx="12.40080505920185" cy="3.6908158870865213"></circle><circle class="pearl" r="2.1904339371426507" cx="17.895152568786155" cy="16.820075680582708"></circle><circle class="pearl" r="2.1904339371426507" cx="4.888196313683701" cy="6.267693750607671"></circle><circle class="pearl" r="2.1904339371426507" cx="18.80151181335037" cy="8.317805452945509"></circle><circle class="pearl" r="2.1904339371426507" cx="10.130051116770396" cy="19.16106702293005"></circle></g><g class="bobaCup bright" cupRadius="11.390674321187733" width="22.781348642375466" height="22.781348642375466" pearlRadius="2.738042421428314" pearlCount="6" transform="translate(286.93156158787167,201.53237978223575)"><circle class="pool" r="11.390674321187733" cx="11.390674321187733" cy="11.390674321187733" style="stroke-width: 1; fill: rgb(65, 182, 196);"></circle><circle class="pearl" r="2.1904339371426516" cx="12.043172126833422" cy="11.390767256982752"></circle><circle class="pearl" r="2.1904339371426516" cx="6.502115103661484" cy="17.154124450906597"></circle><circle class="pearl" r="2.1904339371426516" cx="9.518966486719245" cy="3.805554400544118"></circle><circle class="pearl" r="2.1904339371426516" cx="17.040256227729255" cy="17.630840121042976"></circle><circle class="pearl" r="2.1904339371426516" cx="3.823281337715502" cy="9.41549581167106"></circle><circle class="pearl" r="2.1904339371426516" cx="17.409677511756723" cy="5.370872120223671"></circle></g><g class="bobaCup bright" cupRadius="10.669512987285426" width="21.339025974570852" height="21.339025974570852" pearlRadius="2.738042421428314" pearlCount="6" transform="translate(130.89539106700283,153.7939207327074)"><circle class="pool" r="10.669512987285426" cx="10.669512987285426" cy="10.669512987285426" style="stroke-width: 1; fill: rgb(65, 182, 196);"></circle><circle class="pearl" r="2.1904339371426516" cx="10.9958524415158" cy="10.958143666318945"></circle><circle class="pearl" r="2.1904339371426516" cx="5.2964679781499715" cy="16.23664714075584"></circle><circle class="pearl" r="2.1904339371426516" cx="8.785123503067098" cy="3.818446670373334"></circle><circle class="pearl" r="2.1904339371426516" cx="16.023993704803203" cy="16.247443161653617"></circle><circle class="pearl" r="2.1904339371426516" cx="3.7957956100455843" cy="8.916042907526291"></circle><circle class="pearl" r="2.1904339371426516" cx="16.14285297532913" cy="5.161576010284184"></circle></g><g class="bobaCup bright" cupRadius="10.471168649864103" width="20.942337299728205" height="20.942337299728205" pearlRadius="2.7380424214283132" pearlCount="5" transform="translate(140.96057920354835,188.3564509753656)"><circle class="pool" r="10.471168649864103" cx="10.471168649864103" cy="10.471168649864103" style="stroke-width: 1; fill: rgb(127, 205, 187);"></circle><circle class="pearl" r="2.1904339371426507" cx="16.531307554089107" cy="8.136638184009609"></circle><circle class="pearl" r="2.1904339371426507" cx="7.417327467234197" cy="15.932481229659524"></circle><circle class="pearl" r="2.1904339371426507" cx="9.90287218897808" cy="3.666156035059971"></circle><circle class="pearl" r="2.1904339371426507" cx="15.411504240586709" cy="16.052912975795245"></circle><circle class="pearl" r="2.1904339371426507" cx="3.7831526451278608" cy="8.811095169692626"></circle></g><g class="bobaCup bright" cupRadius="10.441830093323022" width="20.883660186646043" height="20.883660186646043" pearlRadius="2.7380424214283137" pearlCount="5" transform="translate(129.3853428788495,220.07284559735106)"><circle class="pool" r="10.441830093323022" cx="10.441830093323022" cy="10.441830093323022" style="stroke-width: 1; fill: rgb(29, 145, 192);"></circle><circle class="pearl" r="2.190433937142651" cx="16.564611856317306" cy="8.087036945356735"></circle><circle class="pearl" r="2.190433937142651" cx="7.381548438938449" cy="15.942196780066194"></circle><circle class="pearl" r="2.190433937142651" cx="9.904037207694106" cy="3.664581586700672"></circle><circle class="pearl" r="2.190433937142651" cx="15.376468708320404" cy="15.993343410136053"></circle><circle class="pearl" r="2.190433937142651" cx="3.779925839351286" cy="8.80429227570512"></circle></g><g class="bobaCup bright" cupRadius="10.250206001657814" width="20.500412003315628" height="20.500412003315628" pearlRadius="2.738042421428314" pearlCount="5" transform="translate(80.43770035118864,244.92266172175005)"><circle class="pool" r="10.250206001657814" cx="10.250206001657814" cy="10.250206001657814" style="stroke-width: 1; fill: rgb(65, 182, 196);"></circle><circle class="pearl" r="2.1904339371426516" cx="16.539036163881395" cy="7.745809573780612"></circle><circle class="pearl" r="2.1904339371426516" cx="7.157499662408541" cy="16.23855263448614"></circle><circle class="pearl" r="2.1904339371426516" cx="9.664080490920217" cy="3.667494813471031"></circle><circle class="pearl" r="2.1904339371426516" cx="15.128194466146454" cy="15.61457853612428"></circle><circle class="pearl" r="2.1904339371426516" cx="3.7250235550808743" cy="9.01826981544033"></circle></g><g class="bobaCup bright" cupRadius="10.190946864251629" width="20.381893728503258" height="20.381893728503258" pearlRadius="2.7380424214283137" pearlCount="5" transform="translate(111.17037524925443,247.79121801237622)"><circle class="pool" r="10.190946864251629" cx="10.190946864251629" cy="10.190946864251629" style="stroke-width: 1; fill: rgb(127, 205, 187);"></circle><circle class="pearl" r="2.190433937142651" cx="16.37288084440875" cy="7.512467779837242"></circle><circle class="pearl" r="2.190433937142651" cx="7.291397472895316" cy="16.30997344399628"></circle><circle class="pearl" r="2.190433937142651" cx="9.412028306818621" cy="3.6805341390581656"></circle><circle class="pearl" r="2.190433937142651" cx="15.230673371091015" cy="15.397794111056992"></circle><circle class="pearl" r="2.190433937142651" cx="3.6982104982237693" cy="9.208284438624846"></circle></g><g class="bobaCup bright" cupRadius="9.807740142712959" width="19.615480285425917" height="19.615480285425917" pearlRadius="2.738042421428314" pearlCount="5" transform="translate(92.20597303379631,245.79805751863913)"><circle class="pool" r="9.807740142712959" cx="9.807740142712959" cy="9.807740142712959" style="stroke-width: 1; fill: rgb(29, 145, 192);"></circle><circle class="pearl" r="2.1904339371426516" cx="15.562685296452454" cy="7.028321320551341"></circle><circle class="pearl" r="2.1904339371426516" cx="6.86750032632615" cy="15.513659288899863"></circle><circle class="pearl" r="2.1904339371426516" cx="8.982593142223356" cy="3.6854955961112332"></circle><circle class="pearl" r="2.1904339371426516" cx="14.616090059097761" cy="14.705206066739368"></circle><circle class="pearl" r="2.1904339371426516" cx="3.70066646874766" cy="8.8192229117885"></circle></g><g class="bobaCup bright" cupRadius="9.628689398557595" width="19.25737879711519" height="19.25737879711519" pearlRadius="2.738042421428314" pearlCount="5" transform="translate(109.3793096806189,238.43569737808437)"><circle class="pool" r="9.628689398557595" cx="9.628689398557595" cy="9.628689398557595" style="stroke-width: 1; fill: rgb(29, 145, 192);"></circle><circle class="pearl" r="2.1904339371426516" cx="15.198593651291027" cy="6.855300066908078"></circle><circle class="pearl" r="2.1904339371426516" cx="6.592056783878841" cy="15.115280977815157"></circle><circle class="pearl" r="2.1904339371426516" cx="8.851222018881284" cy="3.682162812341391"></circle><circle class="pearl" r="2.1904339371426516" cx="14.278563176092366" cy="14.40947453960164"></circle><circle class="pearl" r="2.1904339371426516" cx="3.7098767591547355" cy="8.563023970078474"></circle></g><g class="bobaCup bright" cupRadius="9.610718341993845" width="19.22143668398769" height="19.22143668398769" pearlRadius="2.7380424214283137" pearlCount="5" transform="translate(228.0244050322475,263.8442735651238)"><circle class="pool" r="9.610718341993845" cx="9.610718341993845" cy="9.610718341993845" style="stroke-width: 1; fill: rgb(29, 145, 192);"></circle><circle class="pearl" r="2.190433937142651" cx="15.162264405925757" cy="6.838688955895394"></circle><circle class="pearl" r="2.190433937142651" cx="6.5633323948440445" cy="15.0747823264218"></circle><circle class="pearl" r="2.190433937142651" cx="8.839536124230541" cy="3.6817137541735576"></circle><circle class="pearl" r="2.190433937142651" cx="14.244534366573696" cy="14.379832172385594"></circle><circle class="pearl" r="2.190433937142651" cx="3.7110222207673527" cy="8.535824257839998"></circle></g><g class="bobaCup bright" cupRadius="9.434657410272527" width="18.869314820545053" height="18.869314820545053" pearlRadius="2.7380424214283132" pearlCount="4" transform="translate(77.69660450820095,184.73490885259588)"><circle class="pool" r="9.434657410272527" cx="9.434657410272527" cy="9.434657410272527" style="stroke-width: 1; fill: rgb(29, 145, 192);"></circle><circle class="pearl" r="2.1904339371426507" cx="14.752682807518031" cy="6.506465385127438"></circle><circle class="pearl" r="2.1904339371426507" cx="5.601453414595728" cy="12.34524867903276"></circle><circle class="pearl" r="2.1904339371426507" cx="7.186693333052831" cy="3.922443448360414"></circle><circle class="pearl" r="2.1904339371426507" cx="13.334649651788139" cy="14.374791005402344"></circle></g><g class="bobaCup bright" cupRadius="9.006931875976926" width="18.013863751953853" height="18.013863751953853" pearlRadius="2.7380424214283132" pearlCount="4" transform="translate(22.48917050116001,105.99595538138587)"><circle class="pool" r="9.006931875976926" cx="9.006931875976926" cy="9.006931875976926" style="stroke-width: 1; fill: rgb(29, 145, 192);"></circle><circle class="pearl" r="2.1904339371426507" cx="13.69879129850295" cy="5.6119154506701525"></circle><circle class="pearl" r="2.1904339371426507" cx="4.871493860059693" cy="12.170170090810824"></circle><circle class="pearl" r="2.1904339371426507" cx="5.823692865769478" cy="4.231991259937145"></circle><circle class="pearl" r="2.1904339371426507" cx="12.746592292795563" cy="13.550094281546038"></circle></g><g class="bobaCup bright" cupRadius="8.51215075943198" width="17.02430151886396" height="17.02430151886396" pearlRadius="2.7380424214283137" pearlCount="4" transform="translate(254.00455848815088,49.39490755704475)"><circle class="pool" r="8.51215075943198" cx="8.51215075943198" cy="8.51215075943198" style="stroke-width: 1; fill: rgb(127, 205, 187);"></circle><circle class="pearl" r="2.190433937142651" cx="12.398614046863898" cy="4.589756158024296"></circle><circle class="pearl" r="2.190433937142651" cx="4.62553017226807" cy="12.434464633815832"></circle><circle class="pearl" r="2.190433937142651" cx="4.625759364889864" cy="4.589719263601389"></circle><circle class="pearl" r="2.190433937142651" cx="12.398384828245938" cy="12.434662989612203"></circle></g><g class="bobaCup bright" cupRadius="8.149736045599308" width="16.299472091198616" height="16.299472091198616" pearlRadius="2.7380424214283146" pearlCount="3" transform="translate(123.07714079017641,102.38753757802952)"><circle class="pool" r="8.149736045599308" cx="8.149736045599308" cy="8.149736045599308" style="stroke-width: 1; fill: rgb(29, 145, 192);"></circle><circle class="pearl" r="2.1904339371426516" cx="12.469789310424122" cy="9.8482411840278"></circle><circle class="pearl" r="2.1904339371426516" cx="4.409568700015569" cy="11.11305053977997"></circle><circle class="pearl" r="2.1904339371426516" cx="7.373738432102191" cy="3.6877516301844837"></circle></g><g class="bobaCup bright" cupRadius="4.935885108207427" width="9.871770216414854" height="9.871770216414854" pearlRadius="2.738042421428314" pearlCount="1" transform="translate(288.09881434662634,166.7759772995955)"><circle class="pool" r="4.935885108207427" cx="4.935885108207427" cy="4.935885108207427" style="stroke-width: 1; fill: rgb(127, 205, 187);"></circle><circle class="pearl" r="2.1904339371426516" cx="6.221046987843769" cy="4.935885108207427"></circle></g><g class="bobaCup bright" cupRadius="0" width="0" height="0" pearlRadius="NaN" pearlCount="0" transform="translate(20,300)"><circle class="pool" r="0" cx="0" cy="0" style="stroke-width: 1; fill: rgb(65, 182, 196);"></circle></g><g class="bobaCup bright" cupRadius="0" width="0" height="0" pearlRadius="NaN" pearlCount="0" transform="translate(111.9564051237428,261.95119422222984)"><circle class="pool" r="0" cx="0" cy="0" style="stroke-width: 1; fill: rgb(65, 182, 196);"></circle></g></g><g id="legendDividerGroup" transform="translate(410,0)" height="400"><rect class="legendDivider" height="400" width="90"></rect></g><g id="legend" transform="translate(410,30)" width="90" height="320"><rect class="legendBorder" transform="translate(0,0)" width="90" height="324.9477195110013"></rect><text id="rTitle" text-anchor="middle" alignment-baseline="hanging" transform="translate(45,10)" x="0" y="0" style="fill: black; font-size: 0.8rem;">Population</text><text id="bobaValue" text-anchor="middle" alignment-baseline="hanging" transform="translate(45,25)" x="0" y="0" style="fill: black; font-size: 0.7rem;">(1 Pearl =   75)</text><g class="bright" cupRadius="8.94427190999916" width="17.88854381999832" height="17.88854381999832" pearlRadius="2.7380424214283137" pearlCount="4" transform="translate(36.05572809000084,50)"><circle class="pool" r="8.94427190999916" cx="8.94427190999916" cy="8.94427190999916" style="stroke-width: 1; fill: rgb(127, 205, 187);"></circle><circle class="pearl" r="2.190433937142651" cx="13.542613460651712" cy="5.486970900805415"></circle><circle class="pearl" r="2.190433937142651" cx="4.749399498236599" cy="12.229516637519533"></circle><circle class="pearl" r="2.190433937142651" cx="5.6385452023940825" cy="4.284028231246733"></circle><circle class="pearl" r="2.190433937142651" cx="12.653467756495177" cy="13.432459307079196"></circle></g><text id="0" class="legendSampleValue" text-anchor="middle" transform="translate(45,8)" x="0" y="72.88854381999832" style="fill: black; font-size: 0.7rem;"> 300</text><g class="bright" cupRadius="12.649110640673518" width="25.298221281347036" height="25.298221281347036" pearlRadius="2.7380424214283137" pearlCount="8" transform="translate(32.35088935932648,92.88854381999832)"><circle class="pool" r="12.649110640673518" cx="12.649110640673518" cy="12.649110640673518" style="stroke-width: 1; fill: rgb(127, 205, 187);"></circle><circle class="pearl" r="2.190433937142651" cx="14.071403428550026" cy="12.846878791771143"></circle><circle class="pearl" r="2.190433937142651" cx="6.440581911774749" cy="19.57795138257092"></circle><circle class="pearl" r="2.190433937142651" cx="15.10273708455154" cy="3.8909774644866477"></circle><circle class="pearl" r="2.190433937142651" cx="20.833946229646862" cy="17.112242666106596"></circle><circle class="pearl" r="2.190433937142651" cx="3.6634707295578792" cy="12.081372495075817"></circle><circle class="pearl" r="2.190433937142651" cx="21.1462151053254" cy="9.123450087562194"></circle><circle class="pearl" r="2.190433937142651" cx="14.187116834584868" cy="21.553646746241665"></circle><circle class="pearl" r="2.190433937142651" cx="7.171845845081948" cy="4.898098459274186"></circle></g><text id="1" class="legendSampleValue" text-anchor="middle" transform="translate(45,8)" x="0" y="123.18676510134536" style="fill: black; font-size: 0.7rem;"> 600</text><g class="bright" cupRadius="15.491933384829668" width="30.983866769659336" height="30.983866769659336" pearlRadius="2.738042421428314" pearlCount="12" transform="translate(29.508066615170332,143.18676510134537)"><circle class="pool" r="15.491933384829668" cx="15.491933384829668" cy="15.491933384829668" style="stroke-width: 1; fill: rgb(127, 205, 187);"></circle><circle class="pearl" r="2.1904339371426516" cx="17.033011743384765" cy="11.01737610913958"></circle><circle class="pearl" r="2.1904339371426516" cx="11.029309432951333" cy="17.00347040031935"></circle><circle class="pearl" r="2.1904339371426516" cx="13.977981653444434" cy="3.724876288236054"></circle><circle class="pearl" r="2.1904339371426516" cx="18.741808845067855" cy="18.756462357333643"></circle><circle class="pearl" r="2.1904339371426516" cx="3.725529689195627" cy="13.971342248807428"></circle><circle class="pearl" r="2.1904339371426516" cx="26.98661348100194" cy="12.233596672509572"></circle><circle class="pearl" r="2.1904339371426516" cx="12.152198575888569" cy="26.968872613027877"></circle><circle class="pearl" r="2.1904339371426516" cx="6.524197378590721" cy="6.5101702816287865"></circle><circle class="pearl" r="2.1904339371426516" cx="26.508263068801252" cy="20.479674242239334"></circle><circle class="pearl" r="2.1904339371426516" cx="5.419021306595209" cy="22.679550094546478"></circle><circle class="pearl" r="2.1904339371426516" cx="22.76079804957651" cy="5.461881544509561"></circle><circle class="pearl" r="2.1904339371426516" cx="20.400071923945557" cy="26.535092423407907"></circle></g><text id="2" class="legendSampleValue" text-anchor="middle" transform="translate(45,8)" x="0" y="179.1706318710047" style="fill: black; font-size: 0.7rem;"> 900</text><g class="bright" cupRadius="17.88854381999832" width="35.77708763999664" height="35.77708763999664" pearlRadius="2.7380424214283137" pearlCount="16" transform="translate(27.11145618000168,199.1706318710047)"><circle class="pool" r="17.88854381999832" cx="17.88854381999832" cy="17.88854381999832" style="stroke-width: 1; fill: rgb(127, 205, 187);"></circle><circle class="pearl" r="2.190433937142651" cx="19.8046930625516" cy="19.706925044831756"></circle><circle class="pearl" r="2.190433937142651" cx="13.339172784724305" cy="23.858410298028698"></circle><circle class="pearl" r="2.190433937142651" cx="16.092791630714295" cy="11.113543243945612"></circle><circle class="pearl" r="2.190433937142651" cx="20.836129534048155" cy="27.499380517199565"></circle><circle class="pearl" r="2.190433937142651" cx="10.312657514553905" cy="16.56124087753138"></circle><circle class="pearl" r="2.190433937142651" cx="23.678755837700653" cy="13.13675787817294"></circle><circle class="pearl" r="2.190433937142651" cx="14.311679794483911" cy="31.765114841909277"></circle><circle class="pearl" r="2.190433937142651" cx="11.081450997216843" cy="4.99648955196875"></circle><circle class="pearl" r="2.190433937142651" cx="27.674351504393126" cy="20.796258814455655"></circle><circle class="pearl" r="2.190433937142651" cx="4.000488629236898" cy="21.40866477780026"></circle><circle class="pearl" r="2.190433937142651" cx="28.333596734388347" cy="7.01684061165493"></circle><circle class="pearl" r="2.190433937142651" cx="28.522531366621063" cy="28.62247591779055"></circle><circle class="pearl" r="2.190433937142651" cx="5.30391541992303" cy="10.377661215789304"></circle><circle class="pearl" r="2.190433937142651" cx="31.694235049536697" cy="13.980399213320233"></circle><circle class="pearl" r="2.190433937142651" cx="7.311073872078207" cy="28.66408585659018"></circle><circle class="pearl" r="2.190433937142651" cx="18.987039995684725" cy="3.684483203560177"></circle></g><text id="3" class="legendSampleValue" text-anchor="middle" transform="translate(45,8)" x="0" y="239.94771951100134" style="fill: black; font-size: 0.7rem;">1.2k</text><g class="bright" cupRadius="20" width="40" height="40" pearlRadius="2.7380424214283137" pearlCount="20" transform="translate(25,259.9477195110013)"><circle class="pool" r="20" cx="20" cy="20" style="stroke-width: 1; fill: rgb(127, 205, 187);"></circle><circle class="pearl" r="2.190433937142651" cx="22.480421380823074" cy="19.96094551607325"></circle><circle class="pearl" r="2.190433937142651" cx="14.554532211889109" cy="20.25858246523202"></circle><circle class="pearl" r="2.190433937142651" cx="21.718613402750453" cy="11.231225788085391"></circle><circle class="pearl" r="2.190433937142651" cx="25.13767186853209" cy="27.447308990534317"></circle><circle class="pearl" r="2.190433937142651" cx="6.622341466842937" cy="15.212813608895589"></circle><circle class="pearl" r="2.190433937142651" cx="28.49521909515808" cy="14.82158787688231"></circle><circle class="pearl" r="2.190433937142651" cx="17.504603283401977" cy="28.993209871734443"></circle><circle class="pearl" r="2.190433937142651" cx="14.13811847195522" cy="12.373399584276378"></circle><circle class="pearl" r="2.190433937142651" cx="31.11803529924844" cy="22.444175683247455"></circle><circle class="pearl" r="2.190433937142651" cx="10.013176726772668" cy="26.767604068489224"></circle><circle class="pearl" r="2.190433937142651" cx="25.1625299271706" cy="4.328500666167248"></circle><circle class="pearl" r="2.190433937142651" cx="27.782608687955303" cy="34.772930101052836"></circle><circle class="pearl" r="2.190433937142651" cx="8.036930275650786" cy="7.623092000895575"></circle><circle class="pearl" r="2.190433937142651" cx="36.040664285033515" cy="16.500106031740792"></circle><circle class="pearl" r="2.190433937142651" cx="11.3070075503718" cy="34.36126950601293"></circle><circle class="pearl" r="2.190433937142651" cx="16.81383473400994" cy="3.9061454691506903"></circle><circle class="pearl" r="2.190433937142651" cx="33.74247113697989" cy="29.87303346303284"></circle><circle class="pearl" r="2.190433937142651" cx="3.788525504185259" cy="22.343736665541265"></circle><circle class="pearl" r="2.190433937142651" cx="32.18050534208177" cy="7.787706818962306"></circle><circle class="pearl" r="2.190433937142651" cx="20.00567962395882" cy="36.34927596497569"></circle></g><text id="4" class="legendSampleValue" text-anchor="middle" transform="translate(45,8)" x="0" y="304.9477195110013" style="fill: black; font-size: 0.7rem;">1.5k</text></g></svg>