<?xml version="1.0" standalone="no"?>
<?xml-stylesheet xmlns="http://www.w3.org/2000/svg" type="text/css" href="style.css"?>
<svg id="syntheticVisC" class="default" xTitle="Percent Cat Owners" yTitle="Percent Dog Owners" rTitle="Population" chartTitle="Towns in Vizzyland" width="500" height="400" xmlns="http://www.w3.org/2000/svg"><rect class="background" width="500" height="400"></rect><text id="chartTitle" text-anchor="middle" transform="translate(250,20)" x="0" y="0" style="fill: black; font-size: 1.2rem;">Towns in Vizzyland</text><g id="yAxis" transform="translate(50,30)" fill="none" font-size="10" font-family="sans-serif" text-anchor="end"><path class="domain" stroke="currentColor" d="M-6,300H0V20H-6"></path><g class="tick" opacity="1" transform="translate(0,300)"><line stroke="currentColor" x2="-6"></line><text fill="currentColor" x="-9" dy="0.32em">0</text></g><g class="tick" opacity="1" transform="translate(0,272)"><line stroke="currentColor" x2="-6"></line><text fill="currentColor" x="-9" dy="0.32em">10</text></g><g class="tick" opacity="1" transform="translate(0,244)"><line stroke="currentColor" x2="-6"></line><text fill="currentColor" x="-9" dy="0.32em">20</text></g><g class="tick" opacity="1" transform="translate(0,216)"><line stroke="currentColor" x2="-6"></line><text fill="currentColor" x="-9" dy="0.32em">30</text></g><g class="tick" opacity="1" transform="translate(0,188)"><line stroke="currentColor" x2="-6"></line><text fill="currentColor" x="-9" dy="0.32em">40</text></g><g class="tick" opacity="1" transform="translate(0,160)"><line stroke="currentColor" x2="-6"></line><text fill="currentColor" x="-9" dy="0.32em">50</text></g><g class="tick" opacity="1" transform="translate(0,132)"><line stroke="currentColor" x2="-6"></line><text fill="currentColor" x="-9" dy="0.32em">60</text></g><g class="tick" opacity="1" transform="translate(0,104.00000000000001)"><line stroke="currentColor" x2="-6"></line><text fill="currentColor" x="-9" dy="0.32em">70</text></g><g class="tick" opacity="1" transform="translate(0,75.99999999999999)"><line stroke="currentColor" x2="-6"></line><text fill="currentColor" x="-9" dy="0.32em">80</text></g><g class="tick" opacity="1" transform="translate(0,47.99999999999999)"><line stroke="currentColor" x2="-6"></line><text fill="currentColor" x="-9" dy="0.32em">90</text></g><g class="tick" opacity="1" transform="translate(0,20)"><line stroke="currentColor" x2="-6"></line><text fill="currentColor" x="-9" dy="0.32em">100</text></g></g><g id="xAxis" transform="translate(60,360)" fill="none" font-size="10" font-family="sans-serif" text-anchor="middle"><path class="domain" stroke="currentColor" d="M20,6V0H320V6"></path><g class="tick" opacity="1" transform="translate(20,0)"><line stroke="currentColor" y2="6"></line><text fill="currentColor" y="9" dy="0.71em">0</text></g><g class="tick" opacity="1" transform="translate(50,0)"><line stroke="currentColor" y2="6"></line><text fill="currentColor" y="9" dy="0.71em">10</text></g><g class="tick" opacity="1" transform="translate(80,0)"><line stroke="currentColor" y2="6"></line><text fill="currentColor" y="9" dy="0.71em">20</text></g><g class="tick" opacity="1" transform="translate(110,0)"><line stroke="currentColor" y2="6"></line><text fill="currentColor" y="9" dy="0.71em">30</text></g><g class="tick" opacity="1" transform="translate(140,0)"><line stroke="currentColor" y2="6"></line><text fill="currentColor" y="9" dy="0.71em">40</text></g><g class="tick" opacity="1" transform="translate(170,0)"><line stroke="currentColor" y2="6"></line><text fill="currentColor" y="9" dy="0.71em">50</text></g><g class="tick" opacity="1" transform="translate(200,0)"><line stroke="currentColor" y2="6"></line><text fill="currentColor" y="9" dy="0.71em">60</text></g><g class="tick" opacity="1" transform="translate(230,0)"><line stroke="currentColor" y2="6"></line><text fill="currentColor" y="9" dy="0.71em">70</text></g><g class="tick" opacity="1" transform="translate(260,0)"><line stroke="currentColor" y2="6"></line><text fill="currentColor" y="9" dy="0.71em">80</text></g><g class="tick" opacity="1" transform="translate(290,0)"><line stroke="currentColor" y2="6"></line><text fill="currentColor" y="9" dy="0.71em">90</text></g><g class="tick" opacity="1" transform="translate(320,0)"><line stroke="currentColor" y2="6"></line><text fill="currentColor" y="9" dy="0.71em">100</text></g></g><g id="labels"><text id="xTitle" text-anchor="middle" transform="translate(250,350)" x="0" y="40" style="fill: black; font-size: 0.8rem;">Percent Cat Owners</text><g id="group-yTitle" transform="translate(60,190)"><text id="yTitle" text-anchor="middle" transform="rotate(-90)" y="-45" style="fill: black; font-size: 0.8rem;">Percent Dog Owners</text></g></g><g id="quadrant_lines" transform="translate(60,30)"><line id="verticalQuadrantLine" x1="170" y1="10" x2="170" y2="310" class="quadrantLine"></line><line id="horizontalQuadrantLine" x1="10" y1="160" x2="330" y2="160" class="quadrantLine"></line></g><g id="chart" transform="translate(60,30)"><g class="bobaCup bright" cupRadius="20" width="40" height="40" pearlRadius="2.7380424214283137" pearlCount="20" transform="translate(256.34658412620945,68.44266266337532)"><circle class="pool" r="20" cx="20" cy="20" style="stroke-width: 1; fill: rgb(127, 205, 187);"></circle><circle class="pearl" r="2.190433937142651" cx="22.480421380823074" cy="19.96094551607325"></circle><circle class="pearl" r="2.190433937142651" cx="14.554532211889109" cy="20.25858246523202"></circle><circle class="pearl" r="2.190433937142651" cx="21.718613402750453" cy="11.231225788085391"></circle><circle class="pearl" r="2.190433937142651" cx="25.13767186853209" cy="27.447308990534317"></circle><circle class="pearl" r="2.190433937142651" cx="6.622341466842937" cy="15.212813608895589"></circle><circle class="pearl" r="2.190433937142651" cx="28.49521909515808" cy="14.82158787688231"></circle><circle class="pearl" r="2.190433937142651" cx="17.504603283401977" cy="28.993209871734443"></circle><circle class="pearl" r="2.190433937142651" cx="14.13811847195522" cy="12.373399584276378"></circle><circle class="pearl" r="2.190433937142651" cx="31.11803529924844" cy="22.444175683247455"></circle><circle class="pearl" r="2.190433937142651" cx="10.013176726772668" cy="26.767604068489224"></circle><circle class="pearl" r="2.190433937142651" cx="25.1625299271706" cy="4.328500666167248"></circle><circle class="pearl" r="2.190433937142651" cx="27.782608687955303" cy="34.772930101052836"></circle><circle class="pearl" r="2.190433937142651" cx="8.036930275650786" cy="7.623092000895575"></circle><circle class="pearl" r="2.190433937142651" cx="36.040664285033515" cy="16.500106031740792"></circle><circle class="pearl" r="2.190433937142651" cx="11.3070075503718" cy="34.36126950601293"></circle><circle class="pearl" r="2.190433937142651" cx="16.81383473400994" cy="3.9061454691506903"></circle><circle class="pearl" r="2.190433937142651" cx="33.74247113697989" cy="29.87303346303284"></circle><circle class="pearl" r="2.190433937142651" cx="3.788525504185259" cy="22.343736665541265"></circle><circle class="pearl" r="2.190433937142651" cx="32.18050534208177" cy="7.787706818962306"></circle><circle class="pearl" r="2.190433937142651" cx="20.00567962395882" cy="36.34927596497569"></circle></g><g class="bobaCup bright" cupRadius="19.112255206618705" width="38.22451041323741" height="38.22451041323741" pearlRadius="2.7380424214283137" pearlCount="18" transform="translate(74.43540722477371,59.0093593704155)"><circle class="pool" r="19.112255206618705" cx="19.112255206618705" cy="19.112255206618705" style="stroke-width: 1; fill: rgb(127, 205, 187);"></circle><circle class="pearl" r="2.190433937142651" cx="20.316913923715735" cy="18.64305970089696"></circle><circle class="pearl" r="2.190433937142651" cx="13.985111501875537" cy="23.52327538029967"></circle><circle class="pearl" r="2.190433937142651" cx="18.56419008746342" cy="10.885606393485107"></circle><circle class="pearl" r="2.190433937142651" cx="21.360893617137627" cy="26.513836168349307"></circle><circle class="pearl" r="2.190433937142651" cx="11.885104226166955" cy="15.81432165168084"></circle><circle class="pearl" r="2.190433937142651" cx="27.118445185149493" cy="14.470253130868912"></circle><circle class="pearl" r="2.190433937142651" cx="16.37583327874402" cy="32.79021290087451"></circle><circle class="pearl" r="2.190433937142651" cx="13.677685880598535" cy="4.546886026746137"></circle><circle class="pearl" r="2.190433937142651" cx="28.213902565200534" cy="22.412795698698606"></circle><circle class="pearl" r="2.190433937142651" cx="6.002623248772538" cy="23.77253847095568"></circle><circle class="pearl" r="2.190433937142651" cx="29.923089848208466" cy="7.002136026386681"></circle><circle class="pearl" r="2.190433937142651" cx="24.497132658793586" cy="33.79950879960518"></circle><circle class="pearl" r="2.190433937142651" cx="6.794604588776949" cy="8.610382241089074"></circle><circle class="pearl" r="2.190433937142651" cx="34.505641880198226" cy="17.49974873601668"></circle><circle class="pearl" r="2.190433937142651" cx="8.509187623902644" cy="31.362892200345573"></circle><circle class="pearl" r="2.190433937142651" cx="22.530299619117898" cy="3.958849328073267"></circle><circle class="pearl" r="2.190433937142651" cx="31.33067766900874" cy="29.763476456877942"></circle><circle class="pearl" r="2.190433937142651" cx="3.895792391478061" cy="16.061420915003847"></circle></g><g class="bobaCup bright" cupRadius="17.922383146968656" width="35.84476629393731" height="35.84476629393731" pearlRadius="2.738042421428314" pearlCount="16" transform="translate(236.45393381076687,267.1714048248008)"><circle class="pool" r="17.922383146968656" cx="17.922383146968656" cy="17.922383146968656" style="stroke-width: 1; fill: rgb(29, 145, 192);"></circle><circle class="pearl" r="2.1904339371426516" cx="19.848522516753334" cy="19.751404432706806"></circle><circle class="pearl" r="2.1904339371426516" cx="13.36465593469252" cy="23.91149436860241"></circle><circle class="pearl" r="2.1904339371426516" cx="16.1167158933026" cy="11.138996369279399"></circle><circle class="pearl" r="2.1904339371426516" cx="20.876077484848334" cy="27.556315280399627"></circle><circle class="pearl" r="2.1904339371426516" cx="10.330298734212437" cy="16.603456274093208"></circle><circle class="pearl" r="2.1904339371426516" cx="23.73660916923233" cy="13.15903423569509"></circle><circle class="pearl" r="2.1904339371426516" cx="14.331896878537007" cy="31.830709608598628"></circle><circle class="pearl" r="2.1904339371426516" cx="11.066920483631081" cy="5.0136846060959"></circle><circle class="pearl" r="2.1904339371426516" cx="27.71974722208126" cy="20.844644730125037"></circle><circle class="pearl" r="2.1904339371426516" cx="4.00066725156363" cy="21.446755559313846"></circle><circle class="pearl" r="2.1904339371426516" cx="28.40485017016601" cy="7.035922921571565"></circle><circle class="pearl" r="2.1904339371426516" cx="28.58434062039583" cy="28.677716995251618"></circle><circle class="pearl" r="2.1904339371426516" cx="5.289439754693184" cy="10.435459943951692"></circle><circle class="pearl" r="2.1904339371426516" cx="31.765335024342985" cy="14.025827109341074"></circle><circle class="pearl" r="2.1904339371426516" cx="7.30950174946233" cy="28.713909262222455"></circle><circle class="pearl" r="2.1904339371426516" cx="18.936813915211577" cy="3.679455325986208"></circle></g><g class="bobaCup bright" cupRadius="17.259457973214733" width="34.518915946429466" height="34.518915946429466" pearlRadius="2.7380424214283132" pearlCount="15" transform="translate(279.8191704276336,156.16200988383852)"><circle class="pool" r="17.259457973214733" cx="17.259457973214733" cy="17.259457973214733" style="stroke-width: 1; fill: rgb(127, 205, 187);"></circle><circle class="pearl" r="2.1904339371426507" cx="18.48000512749168" cy="17.451167089900597"></circle><circle class="pearl" r="2.1904339371426507" cx="12.840865992994654" cy="22.828543414267756"></circle><circle class="pearl" r="2.1904339371426507" cx="16.169440970359446" cy="9.871314285832522"></circle><circle class="pearl" r="2.1904339371426507" cx="19.96775559212013" cy="25.471935558946296"></circle><circle class="pearl" r="2.1904339371426507" cx="10.745654404564496" cy="15.593088178142073"></circle><circle class="pearl" r="2.1904339371426507" cx="23.616249169526803" cy="11.506535221037613"></circle><circle class="pearl" r="2.1904339371426507" cx="14.235256534450976" cy="30.601177040762973"></circle><circle class="pearl" r="2.1904339371426507" cx="10.220565569259556" cy="5.151282659860125"></circle><circle class="pearl" r="2.1904339371426507" cx="25.8753714292509" cy="20.1467077036495"></circle><circle class="pearl" r="2.1904339371426507" cx="4.253299634681779" cy="20.33763171825307"></circle><circle class="pearl" r="2.1904339371426507" cx="21.579987014045365" cy="4.200246482089731"></circle><circle class="pearl" r="2.1904339371426507" cx="27.334259034650128" cy="27.622559101387452"></circle><circle class="pearl" r="2.1904339371426507" cx="5.065359205405129" cy="10.416176199666582"></circle><circle class="pearl" r="2.1904339371426507" cx="30.59564204681457" cy="14.204319705211475"></circle><circle class="pearl" r="2.1904339371426507" cx="7.21027792611713" cy="27.64094304947511"></circle></g><g class="bobaCup bright" cupRadius="16.831008300398285" width="33.66201660079657" height="33.66201660079657" pearlRadius="2.738042421428314" pearlCount="14" transform="translate(36.34516923047816,150.72339296270715)"><circle class="pool" r="16.831008300398285" cx="16.831008300398285" cy="16.831008300398285" style="stroke-width: 1; fill: rgb(29, 145, 192);"></circle><circle class="pearl" r="2.1904339371426516" cx="21.719086883327435" cy="13.019079215559435"></circle><circle class="pearl" r="2.1904339371426516" cx="13.330035540661196" cy="22.540988058801307"></circle><circle class="pearl" r="2.1904339371426516" cx="13.78179537839347" cy="12.157726947869063"></circle><circle class="pearl" r="2.1904339371426516" cx="21.15345090031053" cy="20.961779311091085"></circle><circle class="pearl" r="2.1904339371426516" cx="7.481499483820637" cy="17.126860241772604"></circle><circle class="pearl" r="2.1904339371426516" cx="26.751731193495413" cy="6.8853313551566515"></circle><circle class="pearl" r="2.1904339371426516" cx="16.14471313624669" cy="29.997295488537357"></circle><circle class="pearl" r="2.1904339371426516" cx="11.517388266943458" cy="4.511500392628747"></circle><circle class="pearl" r="2.1904339371426516" cx="29.133073757579933" cy="22.196767664719"></circle><circle class="pearl" r="2.1904339371426516" cx="5.710841375109185" cy="24.899691245629942"></circle><circle class="pearl" r="2.1904339371426516" cx="19.462702829904483" cy="3.8577421067084434"></circle><circle class="pearl" r="2.1904339371426516" cx="24.11567290052974" cy="28.353172142904594"></circle><circle class="pearl" r="2.1904339371426516" cx="5.353842112133378" cy="9.453352697155642"></circle><circle class="pearl" r="2.1904339371426516" cx="29.810401572349218" cy="14.238313642876648"></circle></g><g class="bobaCup bright" cupRadius="16.759278227588375" width="33.51855645517675" height="33.51855645517675" pearlRadius="2.7380424214283137" pearlCount="14" transform="translate(254.84864650203303,254.40781849794598)"><circle class="pool" r="16.759278227588375" cx="16.759278227588375" cy="16.759278227588375" style="stroke-width: 1; fill: rgb(127, 205, 187);"></circle><circle class="pearl" r="2.190433937142651" cx="21.380285308912168" cy="12.816657741215899"></circle><circle class="pearl" r="2.190433937142651" cx="13.349077999676414" cy="22.372767521688594"></circle><circle class="pearl" r="2.190433937142651" cx="13.417285479791357" cy="12.251123531221808"></circle><circle class="pearl" r="2.190433937142651" cx="21.135720527194145" cy="20.777216211026047"></circle><circle class="pearl" r="2.190433937142651" cx="7.178403202264744" cy="17.329366818882608"></circle><circle class="pearl" r="2.190433937142651" cx="26.623165738667712" cy="6.860937655346843"></circle><circle class="pearl" r="2.190433937142651" cx="16.09717333211672" cy="29.854749307489595"></circle><circle class="pearl" r="2.190433937142651" cx="11.362580368093017" cy="4.543399459416868"></circle><circle class="pearl" r="2.190433937142651" cx="28.972845442109428" cy="22.16276741948404"></circle><circle class="pearl" r="2.190433937142651" cx="5.93292968839582" cy="25.20248850216633"></circle><circle class="pearl" r="2.190433937142651" cx="19.308776951245402" cy="3.84577907876459"></circle><circle class="pearl" r="2.190433937142651" cx="23.921129039489845" cy="28.2604954575125"></circle><circle class="pearl" r="2.190433937142651" cx="5.261311072554475" cy="9.590555442364243"></circle><circle class="pearl" r="2.190433937142651" cx="29.672389327809963" cy="14.207259607353178"></circle></g><g class="bobaCup bright" cupRadius="16.423976134077005" width="32.84795226815401" height="32.84795226815401" pearlRadius="2.7380424214283137" pearlCount="13" transform="translate(69.31515692919339,38.55844528488298)"><circle class="pool" r="16.423976134077005" cx="16.423976134077005" cy="16.423976134077005" style="stroke-width: 1; fill: rgb(65, 182, 196);"></circle><circle class="pearl" r="2.190433937142651" cx="21.540466320155897" cy="15.950321779341122"></circle><circle class="pearl" r="2.190433937142651" cx="15.940229518682335" cy="21.577017252198637"></circle><circle class="pearl" r="2.190433937142651" cx="16.212290758645775" cy="10.113781719025413"></circle><circle class="pearl" r="2.190433937142651" cx="23.73034722335699" cy="23.639071039155358"></circle><circle class="pearl" r="2.190433937142651" cx="10.555026201375217" cy="15.811962764911083"></circle><circle class="pearl" r="2.190433937142651" cx="27.899342074664702" cy="10.024881002780043"></circle><circle class="pearl" r="2.190433937142651" cx="10.183282257857464" cy="27.96538020868657"></circle><circle class="pearl" r="2.190433937142651" cx="10.30883929978101" cy="4.831599495804488"></circle><circle class="pearl" r="2.190433937142651" cx="29.130763753056637" cy="17.900062488255404"></circle><circle class="pearl" r="2.190433937142651" cx="4.853043867683121" cy="21.710895786997067"></circle><circle class="pearl" r="2.190433937142651" cx="22.016055898161895" cy="4.632042986077272"></circle><circle class="pearl" r="2.190433937142651" cx="18.073778168783054" cy="29.11415695941343"></circle><circle class="pearl" r="2.190433937142651" cx="4.802748929314831" cy="10.381251416324002"></circle></g><g class="bobaCup bright" cupRadius="16.3107975081819" width="32.6215950163638" height="32.6215950163638" pearlRadius="2.7380424214283146" pearlCount="13" transform="translate(79.63133315501679,91.6911251578914)"><circle class="pool" r="16.3107975081819" cx="16.3107975081819" cy="16.3107975081819" style="stroke-width: 1; fill: rgb(65, 182, 196);"></circle><circle class="pearl" r="2.1904339371426516" cx="21.346240638108373" cy="16.077645646328524"></circle><circle class="pearl" r="2.1904339371426516" cx="15.609039208145695" cy="21.52015723971535"></circle><circle class="pearl" r="2.1904339371426516" cx="16.10994268311332" cy="10.2293400004539"></circle><circle class="pearl" r="2.1904339371426516" cx="23.798785084259382" cy="23.68356321037545"></circle><circle class="pearl" r="2.1904339371426516" cx="10.330997120181287" cy="15.743758708413926"></circle><circle class="pearl" r="2.1904339371426516" cx="27.661899523579496" cy="9.908660778750326"></circle><circle class="pearl" r="2.1904339371426516" cx="10.042740285766786" cy="27.718413298554523"></circle><circle class="pearl" r="2.1904339371426516" cx="10.47467623767249" cy="4.730571854007022"></circle><circle class="pearl" r="2.1904339371426516" cx="28.905846401886574" cy="17.765790121221805"></circle><circle class="pearl" r="2.1904339371426516" cx="4.757883926150766" cy="21.56786660810615"></circle><circle class="pearl" r="2.1904339371426516" cx="21.74030141458737" cy="4.580928983402253"></circle><circle class="pearl" r="2.1904339371426516" cx="17.975826620747082" cy="28.88566497478192"></circle><circle class="pearl" r="2.1904339371426516" cx="4.897704859738213" cy="10.05591408989899"></circle></g><g class="bobaCup bright" cupRadius="16.190583851808814" width="32.38116770361763" height="32.38116770361763" pearlRadius="2.7380424214283137" pearlCount="13" transform="translate(288.44037082030627,140.49753632691022)"><circle class="pool" r="16.190583851808814" cx="16.190583851808814" cy="16.190583851808814" style="stroke-width: 1; fill: rgb(65, 182, 196);"></circle><circle class="pearl" r="2.190433937142651" cx="21.09533983890198" cy="16.556288764459566"></circle><circle class="pearl" r="2.190433937142651" cx="14.99611543187692" cy="21.483034144395898"></circle><circle class="pearl" r="2.190433937142651" cx="16.108523775651" cy="10.545918435117239"></circle><circle class="pearl" r="2.190433937142651" cx="24.294865925947683" cy="23.884000768338147"></circle><circle class="pearl" r="2.190433937142651" cx="9.909520658984484" cy="15.54296175840236"></circle><circle class="pearl" r="2.190433937142651" cx="27.33945936363416" cy="9.625000664786603"></circle><circle class="pearl" r="2.190433937142651" cx="9.600268943303632" cy="27.328462817805903"></circle><circle class="pearl" r="2.190433937142651" cx="11.206213682408643" cy="4.437052490272462"></circle><circle class="pearl" r="2.190433937142651" cx="28.681541515124298" cy="17.44801911732207"></circle><circle class="pearl" r="2.190433937142651" cx="4.492180986036086" cy="21.342217922895983"></circle><circle class="pearl" r="2.190433937142651" cx="21.280452091138727" cy="4.471588580397118"></circle><circle class="pearl" r="2.190433937142651" cx="18.051647629255694" cy="28.623126680812216"></circle><circle class="pearl" r="2.190433937142651" cx="5.224306604530073" cy="9.22794767350262"></circle></g><g class="bobaCup bright" cupRadius="15.74576810795979" width="31.49153621591958" height="31.49153621591958" pearlRadius="2.7380424214283132" pearlCount="12" transform="translate(240.840291435555,159.890740895786)"><circle class="pool" r="15.74576810795979" cx="15.74576810795979" cy="15.74576810795979" style="stroke-width: 1; fill: rgb(29, 145, 192);"></circle><circle class="pearl" r="2.1904339371426507" cx="17.658380119598235" cy="11.477181236249127"></circle><circle class="pearl" r="2.1904339371426507" cx="11.494169696084953" cy="17.76480003253362"></circle><circle class="pearl" r="2.1904339371426507" cx="14.234459125039058" cy="4.253026772912058"></circle><circle class="pearl" r="2.1904339371426507" cx="19.339837685495453" cy="19.291902185464465"></circle><circle class="pearl" r="2.1904339371426507" cx="4.312829086238593" cy="14.252263231945566"></circle><circle class="pearl" r="2.1904339371426507" cx="27.33084195539043" cy="11.770884365189321"></circle><circle class="pearl" r="2.1904339371426507" cx="11.991828635672302" cy="27.386779632125087"></circle><circle class="pearl" r="2.1904339371426507" cx="6.58790718997849" cy="6.587791296458332"></circle><circle class="pearl" r="2.1904339371426507" cx="27.31901732891708" cy="19.76570295390502"></circle><circle class="pearl" r="2.1904339371426507" cx="5.372580748340185" cy="22.905317334278212"></circle><circle class="pearl" r="2.1904339371426507" cx="22.687749674209567" cy="5.2636181239285635"></circle><circle class="pearl" r="2.1904339371426507" cx="19.98559521746887" cy="27.259248761924564"></circle></g><g class="bobaCup bright" cupRadius="15.722948730169179" width="31.445897460338358" height="31.445897460338358" pearlRadius="2.7380424214283132" pearlCount="12" transform="translate(304.27705126983085,163.60807776114137)"><circle class="pool" r="15.722948730169179" cx="15.722948730169179" cy="15.722948730169179" style="stroke-width: 1; fill: rgb(29, 145, 192);"></circle><circle class="pearl" r="2.1904339371426507" cx="17.58442630818406" cy="11.431870475697092"></circle><circle class="pearl" r="2.1904339371426507" cx="11.445236776487885" cy="17.675924460327447"></circle><circle class="pearl" r="2.1904339371426507" cx="14.208869768657818" cy="4.184856194698607"></circle><circle class="pearl" r="2.1904339371426507" cx="19.283440819498594" cy="19.243120018259685"></circle><circle class="pearl" r="2.1904339371426507" cx="4.234359275134083" cy="14.224099581860035"></circle><circle class="pearl" r="2.1904339371426507" cx="27.298910953947452" cy="11.803871427188156"></circle><circle class="pearl" r="2.1904339371426507" cx="11.993369129171427" cy="27.346430972631605"></circle><circle class="pearl" r="2.1904339371426507" cx="6.581426357064761" cy="6.581342793433424"></circle><circle class="pearl" r="2.1904339371426507" cx="27.257736139849403" cy="19.798655224396278"></circle><circle class="pearl" r="2.1904339371426507" cx="5.369575777157711" cy="22.871123805565247"></circle><circle class="pearl" r="2.1904339371426507" cx="22.68452959759167" cy="5.275888140073383"></circle><circle class="pearl" r="2.1904339371426507" cx="19.98698273923855" cy="27.205933928187672"></circle></g><g class="bobaCup bright" cupRadius="15.637099515186932" width="31.274199030373865" height="31.274199030373865" pearlRadius="2.7380424214283132" pearlCount="12" transform="translate(81.45699708708882,120.05367718089052)"><circle class="pool" r="15.637099515186932" cx="15.637099515186932" cy="15.637099515186932" style="stroke-width: 1; fill: rgb(127, 205, 187);"></circle><circle class="pearl" r="2.1904339371426507" cx="17.32097769603846" cy="11.26355540102917"></circle><circle class="pearl" r="2.1904339371426507" cx="11.267154365187746" cy="17.357159970300476"></circle><circle class="pearl" r="2.1904339371426507" cx="14.112027019459688" cy="3.940930108301904"></circle><circle class="pearl" r="2.1904339371426507" cx="19.0774400749967" cy="19.06283636374707"></circle><circle class="pearl" r="2.1904339371426507" cx="3.9579645619973958" cy="14.117864680909506"></circle><circle class="pearl" r="2.1904339371426507" cx="27.17634301382207" cy="11.924446545378517"></circle><circle class="pearl" r="2.1904339371426507" cx="11.998322541225594" cy="27.194209248008743"></circle><circle class="pearl" r="2.1904339371426507" cx="6.557084925341415" cy="6.557064074454293"></circle><circle class="pearl" r="2.1904339371426507" cx="27.02606647855023" cy="19.9180573727805"></circle><circle class="pearl" r="2.1904339371426507" cx="5.358070486437108" cy="22.742089543154773"></circle><circle class="pearl" r="2.1904339371426507" cx="22.669307828983587" cy="5.321186517406713"></circle><circle class="pearl" r="2.1904339371426507" cx="19.99107818726925" cy="27.00508964598561"></circle></g><g class="bobaCup bright" cupRadius="15.435778064860841" width="30.871556129721682" height="30.871556129721682" pearlRadius="2.7380424214283137" pearlCount="12" transform="translate(39.82149351340979,132.00365870223914)"><circle class="pool" r="15.435778064860841" cx="15.435778064860841" cy="15.435778064860841" style="stroke-width: 1; fill: rgb(65, 182, 196);"></circle><circle class="pearl" r="2.190433937142651" cx="17.011700276661976" cy="10.937675226870654"></circle><circle class="pearl" r="2.190433937142651" cx="10.96251337818055" cy="16.947000013564068"></circle><circle class="pearl" r="2.190433937142651" cx="13.943703960111883" cy="3.7230069209404686"></circle><circle class="pearl" r="2.190433937142651" cx="18.62374396280209" cy="18.64617892230227"></circle><circle class="pearl" r="2.190433937142651" cx="3.724164724275729" cy="13.931830059241861"></circle><circle class="pearl" r="2.190433937142651" cx="26.931512679974464" cy="12.461209313407762"></circle><circle class="pearl" r="2.190433937142651" cx="12.295572963169741" cy="26.89804118535235"></circle><circle class="pearl" r="2.190433937142651" cx="6.514684123747022" cy="6.4897823808951625"></circle><circle class="pearl" r="2.190433937142651" cx="26.2493322622826" cy="20.82539057519523"></circle><circle class="pearl" r="2.190433937142651" cx="5.4893678911961175" cy="22.74202249749806"></circle><circle class="pearl" r="2.190433937142651" cx="22.908406064411647" cy="5.580092620214296"></circle><circle class="pearl" r="2.190433937142651" cx="20.68885826914074" cy="26.299475005040616"></circle></g><g class="bobaCup bright" cupRadius="15.423696609959505" width="30.84739321991901" height="30.84739321991901" pearlRadius="2.7380424214283137" pearlCount="12" transform="translate(171.94116049265,225.39582170633523)"><circle class="pool" r="15.423696609959505" cx="15.423696609959505" cy="15.423696609959505" style="stroke-width: 1; fill: rgb(127, 205, 187);"></circle><circle class="pearl" r="2.190433937142651" cx="17.010553146067597" cy="10.92421056180917"></circle><circle class="pearl" r="2.190433937142651" cx="10.951961795148762" cy="16.936291674090263"></circle><circle class="pearl" r="2.190433937142651" cx="13.937871308942338" cy="3.7224577394719294"></circle><circle class="pearl" r="2.190433937142651" cx="18.604578920449054" cy="18.628551970167806"></circle><circle class="pearl" r="2.190433937142651" cx="3.7237223382943316" cy="13.924862605702664"></circle><circle class="pearl" r="2.190433937142651" cx="26.91907653952651" cy="12.510626710503656"></circle><circle class="pearl" r="2.190433937142651" cx="12.323032501424185" cy="26.881788662611406"></circle><circle class="pearl" r="2.190433937142651" cx="6.512270352771663" cy="6.485659010761264"></circle><circle class="pearl" r="2.190433937142651" cx="26.222026344117527" cy="20.81955479900836"></circle><circle class="pearl" r="2.190433937142651" cx="5.502710500484298" cy="22.75166513879909"></circle><circle class="pearl" r="2.190433937142651" cx="22.940136082397686" cy="5.606177385513583"></circle><circle class="pearl" r="2.190433937142651" cx="20.664880046004065" cy="26.27884851203147"></circle></g><g class="bobaCup bright" cupRadius="14.805908280906843" width="29.611816561813686" height="29.611816561813686" pearlRadius="2.738042421428314" pearlCount="11" transform="translate(241.9233783041079,159.7091230461098)"><circle class="pool" r="14.805908280906843" cx="14.805908280906843" cy="14.805908280906843" style="stroke-width: 1; fill: rgb(127, 205, 187);"></circle><circle class="pearl" r="2.1904339371426516" cx="18.7375132735273" cy="14.99122002710749"></circle><circle class="pearl" r="2.1904339371426516" cx="11.079132668971415" cy="16.61538799192034"></circle><circle class="pearl" r="2.1904339371426516" cx="13.75467571060827" cy="8.904488469621656"></circle><circle class="pearl" r="2.1904339371426516" cx="20.705347371128813" cy="24.73500605422628"></circle><circle class="pearl" r="2.1904339371426516" cx="3.689054917172696" cy="13.741200991073448"></circle><circle class="pearl" r="2.1904339371426516" cx="25.406586316208003" cy="10.791872650929639"></circle><circle class="pearl" r="2.1904339371426516" cx="12.926648785953047" cy="25.841345332451585"></circle><circle class="pearl" r="2.1904339371426516" cx="6.374172704384613" cy="6.286144453068266"></circle><circle class="pearl" r="2.1904339371426516" cx="25.429084718033895" cy="18.73919041624985"></circle><circle class="pearl" r="2.1904339371426516" cx="5.847865065309403" cy="22.566960321644338"></circle><circle class="pearl" r="2.1904339371426516" cx="20.449196608744924" cy="4.76838045715162"></circle></g><g class="bobaCup bright" cupRadius="14.647606624082059" width="29.295213248164117" height="29.295213248164117" pearlRadius="2.738042421428314" pearlCount="11" transform="translate(152.4692160984173,9.442506353040734)"><circle class="pool" r="14.647606624082059" cx="14.647606624082059" cy="14.647606624082059" style="stroke-width: 1; fill: rgb(65, 182, 196);"></circle><circle class="pearl" r="2.1904339371426516" cx="18.584321389346734" cy="14.952974044344794"></circle><circle class="pearl" r="2.1904339371426516" cx="11.003787926155319" cy="16.570879540305633"></circle><circle class="pearl" r="2.1904339371426516" cx="13.53176488553531" cy="9.073455198843716"></circle><circle class="pearl" r="2.1904339371426516" cx="20.85209850734217" cy="24.265517849908004"></circle><circle class="pearl" r="2.1904339371426516" cx="3.686995969621457" cy="13.61741151031828"></circle><circle class="pearl" r="2.1904339371426516" cx="25.019026665379574" cy="10.413001809801107"></circle><circle class="pearl" r="2.1904339371426516" cx="13.206039028627734" cy="25.573380323154073"></circle><circle class="pearl" r="2.1904339371426516" cx="6.370610924510045" cy="6.2134747851267225"></circle><circle class="pearl" r="2.1904339371426516" cx="25.177095747115697" cy="18.318295589010766"></circle><circle class="pearl" r="2.1904339371426516" cx="6.07841295413211" cy="22.723868804515078"></circle><circle class="pearl" r="2.1904339371426516" cx="19.930432511002614" cy="4.636553596897281"></circle></g><g class="bobaCup bright" cupRadius="14.439364993656497" width="28.878729987312994" height="28.878729987312994" pearlRadius="2.7380424214283137" pearlCount="10" transform="translate(171.50078439822306,116.41396314631454)"><circle class="pool" r="14.439364993656497" cx="14.439364993656497" cy="14.439364993656497" style="stroke-width: 1; fill: rgb(65, 182, 196);"></circle><circle class="pearl" r="2.190433937142651" cx="18.094995955115525" cy="12.677222946281104"></circle><circle class="pearl" r="2.190433937142651" cx="11.125168389029504" cy="16.425454851660554"></circle><circle class="pearl" r="2.190433937142651" cx="14.647424135733559" cy="5.473930954731118"></circle><circle class="pearl" r="2.190433937142651" cx="21.477268714168417" cy="23.39670159365686"></circle><circle class="pearl" r="2.190433937142651" cx="3.7269238677408887" cy="13.355997662807598"></circle><circle class="pearl" r="2.190433937142651" cx="22.632372610262532" cy="6.200181258156409"></circle><circle class="pearl" r="2.190433937142651" cx="13.730271479555368" cy="25.210585039425816"></circle><circle class="pearl" r="2.190433937142651" cx="6.664829423117004" cy="5.922431994241485"></circle><circle class="pearl" r="2.190433937142651" cx="25.099333496890306" cy="16.36273796250151"></circle><circle class="pearl" r="2.190433937142651" cx="6.238980504746436" cy="22.673462153045676"></circle></g><g class="bobaCup bright" cupRadius="14.208226916648705" width="28.41645383329741" height="28.41645383329741" pearlRadius="2.7380424214283137" pearlCount="10" transform="translate(69.64997931391687,235.3911184569276)"><circle class="pool" r="14.208226916648705" cx="14.208226916648705" cy="14.208226916648705" style="stroke-width: 1; fill: rgb(29, 145, 192);"></circle><circle class="pearl" r="2.190433937142651" cx="17.63262243217822" cy="12.203569440904623"></circle><circle class="pearl" r="2.190433937142651" cx="11.085613917524668" cy="16.210438322359302"></circle><circle class="pearl" r="2.190433937142651" cx="14.398088053717762" cy="4.8540297288452265"></circle><circle class="pearl" r="2.190433937142651" cx="21.47683642486035" cy="22.765739757719953"></circle><circle class="pearl" r="2.190433937142651" cx="3.6775474695273065" cy="13.335569902213555"></circle><circle class="pearl" r="2.190433937142651" cx="22.146780906514447" cy="6.075356777109725"></circle><circle class="pearl" r="2.190433937142651" cx="13.75686809040855" cy="24.758559540547036"></circle><circle class="pearl" r="2.190433937142651" cx="6.48980219290709" cy="5.930009207361351"></circle><circle class="pearl" r="2.190433937142651" cx="24.70173098645536" cy="15.555277861047884"></circle><circle class="pearl" r="2.190433937142651" cx="6.2626424085936385" cy="22.336357577159365"></circle></g><g class="bobaCup bright" cupRadius="14.179637417559992" width="28.359274835119983" height="28.359274835119983" pearlRadius="2.738042421428314" pearlCount="10" transform="translate(289.0976486064755,266.4733056081509)"><circle class="pool" r="14.179637417559992" cx="14.179637417559992" cy="14.179637417559992" style="stroke-width: 1; fill: rgb(127, 205, 187);"></circle><circle class="pearl" r="2.1904339371426516" cx="17.578118630176064" cy="12.146677738168044"></circle><circle class="pearl" r="2.1904339371426516" cx="11.091708940757778" cy="16.196313348279578"></circle><circle class="pearl" r="2.1904339371426516" cx="14.360391650848596" cy="4.777891626379844"></circle><circle class="pearl" r="2.1904339371426516" cx="21.467094546640247" cy="22.69259315077036"></circle><circle class="pearl" r="2.1904339371426516" cx="3.6753494004742735" cy="13.34430878235296"></circle><circle class="pearl" r="2.1904339371426516" cx="22.086798761623267" cy="6.060105051097516"></circle><circle class="pearl" r="2.1904339371426516" cx="13.752201763146482" cy="24.702107761885717"></circle><circle class="pearl" r="2.1904339371426516" cx="6.463825502568488" cy="5.93379123365159"></circle><circle class="pearl" r="2.1904339371426516" cx="24.649857846382762" cy="15.468461501046797"></circle><circle class="pearl" r="2.1904339371426516" cx="6.265326236808679" cy="22.294363429358018"></circle></g><g class="bobaCup bright" cupRadius="14.028759933992285" width="28.05751986798457" height="28.05751986798457" pearlRadius="2.7380424214283137" pearlCount="10" transform="translate(72.28803883207685,209.95287763612353)"><circle class="pool" r="14.028759933992285" cx="14.028759933992285" cy="14.028759933992285" style="stroke-width: 1; fill: rgb(127, 205, 187);"></circle><circle class="pearl" r="2.190433937142651" cx="17.26537074266532" cy="11.822427222628113"></circle><circle class="pearl" r="2.190433937142651" cx="11.13308380494679" cy="16.136922545814425"></circle><circle class="pearl" r="2.190433937142651" cx="14.171076467920894" cy="4.349660245353837"></circle><circle class="pearl" r="2.190433937142651" cx="21.416193876626018" cy="22.304139381015194"></circle><circle class="pearl" r="2.190433937142651" cx="3.6657834751741962" cy="13.3788935190609"></circle><circle class="pearl" r="2.190433937142651" cx="21.77060523083999" cy="5.980340600594809"></circle><circle class="pearl" r="2.190433937142651" cx="13.72536153524433" cy="24.403515474334025"></circle><circle class="pearl" r="2.190433937142651" cx="6.349948486708641" cy="5.938871592348942"></circle><circle class="pearl" r="2.190433937142651" cx="24.37352699213054" cy="14.994346243035519"></circle><circle class="pearl" r="2.190433937142651" cx="6.280730634174713" cy="22.07308468543204"></circle></g><g class="bobaCup bright" cupRadius="13.770039587515697" width="27.540079175031394" height="27.540079175031394" pearlRadius="2.7380424214283137" pearlCount="9" transform="translate(217.98508059952323,235.86655635756537)"><circle class="pool" r="13.770039587515697" cx="13.770039587515697" cy="13.770039587515697" style="stroke-width: 1; fill: rgb(29, 145, 192);"></circle><circle class="pearl" r="2.190433937142651" cx="17.12642155370501" cy="12.139273225556336"></circle><circle class="pearl" r="2.190433937142651" cx="10.609215529059437" cy="16.089701279477"></circle><circle class="pearl" r="2.190433937142651" cx="13.96451717763878" cy="3.652096624015403"></circle><circle class="pearl" r="2.190433937142651" cx="19.098268270107397" cy="22.816716460845655"></circle><circle class="pearl" r="2.190433937142651" cx="3.6681832579729967" cy="13.076825522813955"></circle><circle class="pearl" r="2.190433937142651" cx="21.378993152489944" cy="5.943924580413372"></circle><circle class="pearl" r="2.190433937142651" cx="11.213404097715518" cy="23.64993368462653"></circle><circle class="pearl" r="2.190433937142651" cx="6.342400514055512" cy="5.825756648078203"></circle><circle class="pearl" r="2.190433937142651" cx="23.63181225606192" cy="16.420783798513312"></circle></g><g class="bobaCup bright" cupRadius="13.755028647269029" width="27.510057294538058" height="27.510057294538058" pearlRadius="2.7380424214283132" pearlCount="9" transform="translate(294.7767308628396,169.71870376757565)"><circle class="pool" r="13.755028647269029" cx="13.755028647269029" cy="13.755028647269029" style="stroke-width: 1; fill: rgb(127, 205, 187);"></circle><circle class="pearl" r="2.1904339371426507" cx="17.107734805335475" cy="12.115408202297125"></circle><circle class="pearl" r="2.1904339371426507" cx="10.611115720193165" cy="16.06966088487009"></circle><circle class="pearl" r="2.1904339371426507" cx="13.930264606617264" cy="3.651839507145053"></circle><circle class="pearl" r="2.1904339371426507" cx="19.07477369474215" cy="22.788986168211384"></circle><circle class="pearl" r="2.1904339371426507" cx="3.6664685881578167" cy="13.097071332539887"></circle><circle class="pearl" r="2.1904339371426507" cx="21.346230590352587" cy="5.935160515909446"></circle><circle class="pearl" r="2.1904339371426507" cx="11.192243165911911" cy="23.61848107479095"></circle><circle class="pearl" r="2.1904339371426507" cx="6.310607435448166" cy="5.839360653501866"></circle><circle class="pearl" r="2.1904339371426507" cx="23.60324728607402" cy="16.396880563708148"></circle></g><g class="bobaCup bright" cupRadius="13.155623203177447" width="26.311246406354893" height="26.311246406354893" pearlRadius="2.7380424214283137" pearlCount="9" transform="translate(53.30036138798882,187.51094348693616)"><circle class="pool" r="13.155623203177447" cx="13.155623203177447" cy="13.155623203177447" style="stroke-width: 1; fill: rgb(65, 182, 196);"></circle><circle class="pearl" r="2.190433937142651" cx="15.119178498286004" cy="11.19648216344261"></circle><circle class="pearl" r="2.190433937142651" cx="9.71992940272281" cy="16.581338085726166"></circle><circle class="pearl" r="2.190433937142651" cx="13.21889052013239" cy="3.650875360343063"></circle><circle class="pearl" r="2.190433937142651" cx="20.39666272813832" cy="20.488422563554554"></circle><circle class="pearl" r="2.190433937142651" cx="3.6513344048350547" cy="13.02881454518221"></circle><circle class="pearl" r="2.190433937142651" cx="20.284156636775567" cy="5.749473774886891"></circle><circle class="pearl" r="2.190433937142651" cx="13.249475379252944" cy="22.660188402954358"></circle><circle class="pearl" r="2.190433937142651" cx="5.993927196952146" cy="5.770924728052863"></circle><circle class="pearl" r="2.190433937142651" cx="22.66052317591285" cy="13.155845075334327"></circle></g><g class="bobaCup bright" cupRadius="13.021576440353222" width="26.043152880706444" height="26.043152880706444" pearlRadius="2.7380424214283137" pearlCount="8" transform="translate(285.49038861702115,115.44811959057651)"><circle class="pool" r="13.021576440353222" cx="13.021576440353222" cy="13.021576440353222" style="stroke-width: 1; fill: rgb(29, 145, 192);"></circle><circle class="pearl" r="2.190433937142651" cx="19.52703182392531" cy="13.015241354261608"></circle><circle class="pearl" r="2.190433937142651" cx="11.715163045669328" cy="14.390019046044523"></circle><circle class="pearl" r="2.190433937142651" cx="12.262099539037692" cy="3.6728901504757765"></circle><circle class="pearl" r="2.190433937142651" cx="19.999336165993075" cy="20.365048143799694"></circle><circle class="pearl" r="2.190433937142651" cx="3.7937549193944573" cy="14.946294114797777"></circle><circle class="pearl" r="2.190433937142651" cx="19.999043841029376" cy="5.6779192105053955"></circle><circle class="pearl" r="2.190433937142651" cx="12.187302354258428" cy="22.36567678662273"></circle><circle class="pearl" r="2.190433937142651" cx="5.095037345581311" cy="7.061001796204823"></circle></g><g class="bobaCup bright" cupRadius="12.829151055834057" width="25.658302111668114" height="25.658302111668114" pearlRadius="2.7380424214283137" pearlCount="8" transform="translate(247.9036305789687,217.56667033557136)"><circle class="pool" r="12.829151055834057" cx="12.829151055834057" cy="12.829151055834057" style="stroke-width: 1; fill: rgb(29, 145, 192);"></circle><circle class="pearl" r="2.190433937142651" cx="14.446706905939893" cy="12.791818531153252"></circle><circle class="pearl" r="2.190433937142651" cx="7.642619362316455" cy="19.14805082711377"></circle><circle class="pearl" r="2.190433937142651" cx="15.019197525089695" cy="3.8390351795075155"></circle><circle class="pearl" r="2.190433937142651" cx="21.39447597257075" cy="16.747733009159838"></circle><circle class="pearl" r="2.190433937142651" cx="3.6655531301814523" cy="12.212474341644723"></circle><circle class="pearl" r="2.190433937142651" cx="21.337675230913863" cy="8.737718618384172"></circle><circle class="pearl" r="2.190433937142651" cx="15.188939662531638" cy="21.788682168278793"></circle><circle class="pearl" r="2.190433937142651" cx="7.108436479603402" cy="4.996819745184743"></circle></g><g class="bobaCup bright" cupRadius="12.736147931949326" width="25.47229586389865" height="25.47229586389865" pearlRadius="2.738042421428313" pearlCount="8" transform="translate(123.80294369031935,287.1991890911194)"><circle class="pool" r="12.736147931949326" cx="12.736147931949326" cy="12.736147931949326" style="stroke-width: 1; fill: rgb(65, 182, 196);"></circle><circle class="pearl" r="2.1904339371426502" cx="14.25237371693184" cy="12.858608043292074"></circle><circle class="pearl" r="2.1904339371426502" cx="6.945718879343079" cy="19.358233789659472"></circle><circle class="pearl" r="2.1904339371426502" cx="15.149230682036745" cy="3.8814125209611388"></circle><circle class="pearl" r="2.1904339371426502" cx="21.08090264012382" cy="17.016098073428434"></circle><circle class="pearl" r="2.1904339371426502" cx="3.668299680269025" cy="12.067265546000069"></circle><circle class="pearl" r="2.1904339371426502" cx="21.26846463312411" cy="9.023601337667337"></circle><circle class="pearl" r="2.1904339371426502" cx="14.593338428715947" cy="21.685436909849187"></circle><circle class="pearl" r="2.1904339371426502" cx="7.221111259950478" cy="4.9067215686812435"></circle></g><g class="bobaCup bright" cupRadius="12.669056987793361" width="25.338113975586722" height="25.338113975586722" pearlRadius="2.738042421428314" pearlCount="8" transform="translate(266.84904230625574,99.70387228212618)"><circle class="pool" r="12.669056987793361" cx="12.669056987793361" cy="12.669056987793361" style="stroke-width: 1; fill: rgb(65, 182, 196);"></circle><circle class="pearl" r="2.1904339371426516" cx="14.113129073316077" cy="12.852491164004828"></circle><circle class="pearl" r="2.1904339371426516" cx="6.548121958673496" cy="19.52851286767048"></circle><circle class="pearl" r="2.1904339371426516" cx="15.120134555181854" cy="3.8900890006261943"></circle><circle class="pearl" r="2.1904339371426516" cx="20.888374122047246" cy="17.097052781023276"></circle><circle class="pearl" r="2.1904339371426516" cx="3.66478619155334" cy="12.072289703208359"></circle><circle class="pearl" r="2.1904339371426516" cx="21.176438897515073" cy="9.107388220744124"></circle><circle class="pearl" r="2.1904339371426516" cx="14.273370763581159" cy="21.585401128691306"></circle><circle class="pearl" r="2.1904339371426516" cx="7.189322742568355" cy="4.8971046295474885"></circle></g><g class="bobaCup bright" cupRadius="12.619406510666655" width="25.23881302133331" height="25.23881302133331" pearlRadius="2.7380424214283137" pearlCount="8" transform="translate(82.3488835627614,19.23108437139421)"><circle class="pool" r="12.619406510666655" cx="12.619406510666655" cy="12.619406510666655" style="stroke-width: 1; fill: rgb(29, 145, 192);"></circle><circle class="pearl" r="2.190433937142651" cx="14.009152348723129" cy="12.836641581651307"></circle><circle class="pearl" r="2.190433937142651" cx="6.286176760615851" cy="19.649383295208025"></circle><circle class="pearl" r="2.190433937142651" cx="15.073268176479495" cy="3.8916006017953517"></circle><circle class="pearl" r="2.190433937142651" cx="20.753981550020864" cy="17.131187247525784"></circle><circle class="pearl" r="2.190433937142651" cx="3.6615031736179766" cy="12.097911726221477"></circle><circle class="pearl" r="2.190433937142651" cx="21.10001310383969" cy="9.143740036806179"></circle><circle class="pearl" r="2.190433937142651" cx="14.062423095260602" cy="21.50531456079412"></circle><circle class="pearl" r="2.190433937142651" cx="7.142569962823847" cy="4.901150800490898"></circle></g><g class="bobaCup bright" cupRadius="12.006878888955141" width="24.013757777910282" height="24.013757777910282" pearlRadius="2.7380424214283137" pearlCount="7" transform="translate(24.972985712657454,287.99312111104484)"><circle class="pool" r="12.006878888955141" cx="12.006878888955141" cy="12.006878888955141" style="stroke-width: 1; fill: rgb(127, 205, 187);"></circle><circle class="pearl" r="2.190433937142651" cx="13.262647001569029" cy="12.336778020373606"></circle><circle class="pearl" r="2.190433937142651" cx="4.976137837788349" cy="14.860955156996704"></circle><circle class="pearl" r="2.190433937142651" cx="12.125543081489138" cy="3.651309623027897"></circle><circle class="pearl" r="2.190433937142651" cx="18.573818728999445" cy="18.312788979520167"></circle><circle class="pearl" r="2.190433937142651" cx="4.806145066963742" cy="6.867713535141898"></circle><circle class="pearl" r="2.190433937142651" cx="19.326071198614446" cy="7.1256809070937175"></circle><circle class="pearl" r="2.190433937142651" cx="10.831026200566404" cy="20.30531927585295"></circle></g><g class="bobaCup bright" cupRadius="11.700177743114914" width="23.400355486229827" height="23.400355486229827" pearlRadius="2.738042421428314" pearlCount="7" transform="translate(271.8532222828578,123.41646383766545)"><circle class="pool" r="11.700177743114914" cx="11.700177743114914" cy="11.700177743114914" style="stroke-width: 1; fill: rgb(29, 145, 192);"></circle><circle class="pearl" r="2.1904339371426516" cx="12.280818413602177" cy="11.904453899220979"></circle><circle class="pearl" r="2.1904339371426516" cx="4.0757621217797215" cy="14.825142244643807"></circle><circle class="pearl" r="2.1904339371426516" cx="12.024644866713897" cy="3.6552231244560667"></circle><circle class="pearl" r="2.1904339371426516" cx="18.14665118151648" cy="17.61125029291144"></circle><circle class="pearl" r="2.1904339371426516" cx="4.7009039208282495" cy="6.85541541280367"></circle><circle class="pearl" r="2.1904339371426516" cx="18.99479106159607" cy="7.565716823932818"></circle><circle class="pearl" r="2.1904339371426516" cx="10.4249486117421" cy="19.67992956429909"></circle></g><g class="bobaCup bright" cupRadius="11.670044322528748" width="23.340088645057495" height="23.340088645057495" pearlRadius="2.738042421428314" pearlCount="7" transform="translate(37.100327523805404,276.8894662044884)"><circle class="pool" r="11.670044322528748" cx="11.670044322528748" cy="11.670044322528748" style="stroke-width: 1; fill: rgb(29, 145, 192);"></circle><circle class="pearl" r="2.1904339371426516" cx="12.151185786454645" cy="11.81748067587221"></circle><circle class="pearl" r="2.1904339371426516" cx="4.070805633600298" cy="14.772993136898018"></circle><circle class="pearl" r="2.1904339371426516" cx="12.060060026233035" cy="3.6572422589486853"></circle><circle class="pearl" r="2.1904339371426516" cx="18.1303372814759" cy="17.49733238349927"></circle><circle class="pearl" r="2.1904339371426516" cx="4.713340057176332" cy="6.80461356555139"></circle><circle class="pearl" r="2.1904339371426516" cx="18.978405780279953" cy="7.659009876428621"></circle><circle class="pearl" r="2.1904339371426516" cx="10.424016341137818" cy="19.622654613226008"></circle></g><g class="bobaCup bright" cupRadius="11.60088401122847" width="23.20176802245694" height="23.20176802245694" pearlRadius="2.7380424214283137" pearlCount="7" transform="translate(275.6091640022101,164.23113340281498)"><circle class="pool" r="11.60088401122847" cx="11.60088401122847" cy="11.60088401122847" style="stroke-width: 1; fill: rgb(29, 145, 192);"></circle><circle class="pearl" r="2.190433937142651" cx="11.890607053791056" cy="11.643917857423896"></circle><circle class="pearl" r="2.190433937142651" cx="4.059172955163827" cy="14.652100920280839"></circle><circle class="pearl" r="2.190433937142651" cx="12.138184264190343" cy="3.6631725620640214"></circle><circle class="pearl" r="2.190433937142651" cx="18.08643634310997" cy="17.24326184371612"></circle><circle class="pearl" r="2.190433937142651" cx="4.742763787086336" cy="6.687156390740854"></circle><circle class="pearl" r="2.190433937142651" cx="18.932466041245984" cy="7.863307115811653"></circle><circle class="pearl" r="2.190433937142651" cx="10.416113025853003" cy="19.490387277583245"></circle></g><g class="bobaCup bright" cupRadius="11.359636820316164" width="22.719273640632327" height="22.719273640632327" pearlRadius="2.7380424214283146" pearlCount="6" transform="translate(286.9465479934149,255.76256212214696)"><circle class="pool" r="11.359636820316164" cx="11.359636820316164" cy="11.359636820316164" style="stroke-width: 1; fill: rgb(65, 182, 196);"></circle><circle class="pearl" r="2.1904339371426516" cx="11.964931220763757" cy="11.4010494875375"></circle><circle class="pearl" r="2.1904339371426516" cx="6.432583540563146" cy="17.172783754769632"></circle><circle class="pearl" r="2.1904339371426516" cx="9.451243136559794" cy="3.812173488676639"></circle><circle class="pearl" r="2.1904339371426516" cx="17.16543679995448" cy="17.472828548662434"></circle><circle class="pearl" r="2.1904339371426516" cx="3.8081292847969133" cy="9.475127707164738"></circle><circle class="pearl" r="2.1904339371426516" cx="17.355889662314528" cy="5.362235850665646"></circle></g><g class="bobaCup bright" cupRadius="11.253341685078643" width="22.506683370157287" height="22.506683370157287" pearlRadius="2.7380424214283132" pearlCount="6" transform="translate(283.80667958449425,218.74765743459741)"><circle class="pool" r="11.253341685078643" cx="11.253341685078643" cy="11.253341685078643" style="stroke-width: 1; fill: rgb(127, 205, 187);"></circle><circle class="pearl" r="2.1904339371426507" cx="11.58199313478741" cy="11.464437484912462"></circle><circle class="pearl" r="2.1904339371426507" cx="6.15392556347216" cy="17.33341248955563"></circle><circle class="pearl" r="2.1904339371426507" cx="9.186689346435827" cy="3.842119009229889"></circle><circle class="pearl" r="2.1904339371426507" cx="17.1721116849064" cy="17.173713522918067"></circle><circle class="pearl" r="2.1904339371426507" cx="3.757553696131951" cy="9.706413516455738"></circle><circle class="pearl" r="2.1904339371426507" cx="17.17186497074902" cy="5.332817283476001"></circle></g><g class="bobaCup bright" cupRadius="11.205579663710017" width="22.411159327420034" height="22.411159327420034" pearlRadius="2.7380424214283137" pearlCount="6" transform="translate(98.21644185989267,129.26545877822952)"><circle class="pool" r="11.205579663710017" cx="11.205579663710017" cy="11.205579663710017" style="stroke-width: 1; fill: rgb(65, 182, 196);"></circle><circle class="pearl" r="2.190433937142651" cx="11.52994976795414" cy="11.423867474825874"></circle><circle class="pearl" r="2.190433937142651" cx="6.138184379824865" cy="17.368801468648083"></circle><circle class="pearl" r="2.190433937142651" cx="9.081472353892263" cy="3.853885715309021"></circle><circle class="pearl" r="2.190433937142651" cx="17.078620257770435" cy="17.098042998350923"></circle><circle class="pearl" r="2.190433937142651" cx="3.745403357963289" cy="9.751988545806604"></circle><circle class="pearl" r="2.190433937142651" cx="17.089700396463154" cy="5.319944111166784"></circle></g><g class="bobaCup bright" cupRadius="11.152498225984655" width="22.30499645196931" height="22.30499645196931" pearlRadius="2.738042421428313" pearlCount="6" transform="translate(162.78812994368835,152.27388365687278)"><circle class="pool" r="11.152498225984655" cx="11.152498225984655" cy="11.152498225984655" style="stroke-width: 1; fill: rgb(127, 205, 187);"></circle><circle class="pearl" r="2.1904339371426502" cx="11.51556540455312" cy="11.343066054513796"></circle><circle class="pearl" r="2.1904339371426502" cx="6.173526771676235" cy="17.458579609489057"></circle><circle class="pearl" r="2.1904339371426502" cx="8.885444720279576" cy="3.883574707391196"></circle><circle class="pearl" r="2.1904339371426502" cx="16.97353443158409" cy="17.01459551362701"></circle><circle class="pearl" r="2.1904339371426502" cx="3.7243410502853522" cy="9.873191511992854"></circle><circle class="pearl" r="2.1904339371426502" cx="16.999381963219506" cy="5.306672484169781"></circle></g><g class="bobaCup bright" cupRadius="10.7398034521391" width="21.4796069042782" height="21.4796069042782" pearlRadius="2.7380424214283137" pearlCount="6" transform="translate(236.50776477432032,188.30107100504955)"><circle class="pool" r="10.7398034521391" cx="10.7398034521391" cy="10.7398034521391" style="stroke-width: 1; fill: rgb(65, 182, 196);"></circle><circle class="pearl" r="2.190433937142651" cx="11.053331502582791" cy="11.022624616634749"></circle><circle class="pearl" r="2.190433937142651" cx="5.295852048567186" cy="16.346875387975484"></circle><circle class="pearl" r="2.190433937142651" cx="8.86387322004447" cy="3.8158274436211084"></circle><circle class="pearl" r="2.190433937142651" cx="16.16378798862521" cy="16.358587758412487"></circle><circle class="pearl" r="2.190433937142651" cx="3.799525925496475" cy="8.95820832595539"></circle><circle class="pearl" r="2.190433937142651" cx="16.27893033638446" cy="5.18936090941744"></circle></g><g class="bobaCup bright" cupRadius="10.672623455363485" width="21.34524691072697" height="21.34524691072697" pearlRadius="2.7380424214283132" pearlCount="6" transform="translate(281.0769383667038,271.4014745243006)"><circle class="pool" r="10.672623455363485" cx="10.672623455363485" cy="10.672623455363485" style="stroke-width: 1; fill: rgb(29, 145, 192);"></circle><circle class="pearl" r="2.1904339371426507" cx="10.99838557504806" cy="10.96100456225965"></circle><circle class="pearl" r="2.1904339371426507" cx="5.296439451004235" cy="16.24152803767753"></circle><circle class="pearl" r="2.1904339371426507" cx="8.788618815886352" cy="3.8183279815045994"></circle><circle class="pearl" r="2.1904339371426507" cx="16.030181389930387" cy="16.252364158672208"></circle><circle class="pearl" r="2.1904339371426507" cx="3.795962084150779" cy="8.91789700710726"></circle><circle class="pearl" r="2.1904339371426507" cx="16.148878828301793" cy="5.162805296530704"></circle></g><g class="bobaCup bright" cupRadius="10.055063443673466" width="20.110126887346933" height="20.110126887346933" pearlRadius="2.7380424214283132" pearlCount="5" transform="translate(100.10887173190385,159.00848869683557)"><circle class="pool" r="10.055063443673466" cx="10.055063443673466" cy="10.055063443673466" style="stroke-width: 1; fill: rgb(127, 205, 187);"></circle><circle class="pearl" r="2.1904339371426507" cx="16.06911880556895" cy="7.280832801935559"></circle><circle class="pearl" r="2.1904339371426507" cx="7.225677925960304" cy="16.05311622288977"></circle><circle class="pearl" r="2.1904339371426507" cx="9.193811510579547" cy="3.6876757742737913"></circle><circle class="pearl" r="2.1904339371426507" cx="15.079527020398476" cy="15.114051267856212"></circle><circle class="pearl" r="2.1904339371426507" cx="3.6921394195736914" cy="9.143378434815773"></circle></g><g class="bobaCup bright" cupRadius="9.873007903339467" width="19.746015806678933" height="19.746015806678933" pearlRadius="2.7380424214283137" pearlCount="5" transform="translate(260.8708441043642,197.78331135296364)"><circle class="pool" r="9.873007903339467" cx="9.873007903339467" cy="9.873007903339467" style="stroke-width: 1; fill: rgb(127, 205, 187);"></circle><circle class="pearl" r="2.190433937142651" cx="15.696068536896316" cy="7.093852565275777"></circle><circle class="pearl" r="2.190433937142651" cx="6.96406045434147" cy="15.657024194138888"></circle><circle class="pearl" r="2.190433937142651" cx="9.035688252605313" cy="3.686293413586842"></circle><circle class="pearl" r="2.190433937142651" cx="14.738622808327154" cy="14.8130981784923"></circle><circle class="pearl" r="2.190433937142651" cx="3.6980538741630298" cy="8.90742440825128"></circle></g><g class="bobaCup bright" cupRadius="9.618622550928226" width="19.237245101856452" height="19.237245101856452" pearlRadius="2.738042421428314" pearlCount="5" transform="translate(307.92062074482084,279.51076885818316)"><circle class="pool" r="9.618622550928226" cx="9.618622550928226" cy="9.618622550928226" style="stroke-width: 1; fill: rgb(65, 182, 196);"></circle><circle class="pearl" r="2.1904339371426516" cx="15.178236868757455" cy="6.8459736264169235"></circle><circle class="pearl" r="2.1904339371426516" cx="6.575995130242774" cy="15.092608531757623"></circle><circle class="pearl" r="2.1904339371426516" cx="8.844635033419415" cy="3.681914262144647"></circle><circle class="pearl" r="2.1904339371426516" cx="14.259505514302173" cy="14.3928684675523"></circle><circle class="pearl" r="2.1904339371426516" cx="3.7105122487443087" cy="8.547827842060629"></circle></g><g class="bobaCup bright" cupRadius="9.505300473109294" width="19.010600946218588" height="19.010600946218588" pearlRadius="2.7380424214283132" pearlCount="5" transform="translate(52.18970867864942,234.55335921526637)"><circle class="pool" r="9.505300473109294" cx="9.505300473109294" cy="9.505300473109294" style="stroke-width: 1; fill: rgb(65, 182, 196);"></circle><circle class="pearl" r="2.1904339371426507" cx="14.950372954870847" cy="6.745366147806215"></circle><circle class="pearl" r="2.1904339371426507" cx="6.389485039948153" cy="14.834690343523466"></circle><circle class="pearl" r="2.1904339371426507" cx="8.77866176335372" cy="3.678538103190843"></circle><circle class="pearl" r="2.1904339371426507" cx="14.044108166918846" cy="14.206221501970813"></circle><circle class="pearl" r="2.1904339371426507" cx="3.7189192758555008" cy="8.368727932455473"></circle></g><g class="bobaCup bright" cupRadius="9.28712416055911" width="18.57424832111822" height="18.57424832111822" pearlRadius="2.7380424214283137" pearlCount="4" transform="translate(284.2469466343876,263.26540046262335)"><circle class="pool" r="9.28712416055911" cx="9.28712416055911" cy="9.28712416055911" style="stroke-width: 1; fill: rgb(29, 145, 192);"></circle><circle class="pearl" r="2.190433937142651" cx="14.398315448872058" cy="6.208239756678769"></circle><circle class="pearl" r="2.190433937142651" cx="5.363995285871039" cy="12.127921422284459"></circle><circle class="pearl" r="2.190433937142651" cx="6.709797188883146" cy="4.015512445029948"></circle><circle class="pearl" r="2.190433937142651" cx="13.112246203597316" cy="14.099208771559002"></circle></g><g class="bobaCup bright" cupRadius="9.155280943576653" width="18.310561887153305" height="18.310561887153305" pearlRadius="2.7380424214283137" pearlCount="4" transform="translate(155.1926461125441,144.66401232009054)"><circle class="pool" r="9.155280943576653" cx="9.155280943576653" cy="9.155280943576653" style="stroke-width: 1; fill: rgb(29, 145, 192);"></circle><circle class="pearl" r="2.190433937142651" cx="14.067855220255797" cy="5.916592166865783"></circle><circle class="pearl" r="2.190433937142651" cx="5.166103072956029" cy="12.031743658828923"></circle><circle class="pearl" r="2.190433937142651" cx="6.278530845653659" cy="4.1144290542581246"></circle><circle class="pearl" r="2.190433937142651" cx="12.955427447569976" cy="13.833906771444799"></circle></g><g class="bobaCup bright" cupRadius="9.108146271803802" width="18.216292543607604" height="18.216292543607604" pearlRadius="2.738042421428314" pearlCount="4" transform="translate(269.94813938039624,186.4239162404537)"><circle class="pool" r="9.108146271803802" cx="9.108146271803802" cy="9.108146271803802" style="stroke-width: 1; fill: rgb(65, 182, 196);"></circle><circle class="pearl" r="2.1904339371426516" cx="13.95120567424252" cy="5.819683846029457"></circle><circle class="pearl" r="2.1904339371426516" cx="5.069867512406009" cy="12.074762865262429"></circle><circle class="pearl" r="2.1904339371426516" cx="6.132288348837444" cy="4.1505829036768045"></circle><circle class="pearl" r="2.1904339371426516" cx="12.888784837819724" cy="13.743863807621647"></circle></g><g class="bobaCup bright" cupRadius="8.833606019138355" width="17.66721203827671" height="17.66721203827671" pearlRadius="2.7380424214283137" pearlCount="4" transform="translate(19.630411102523436,157.9063591382924)"><circle class="pool" r="8.833606019138355" cx="8.833606019138355" cy="8.833606019138355" style="stroke-width: 1; fill: rgb(127, 205, 187);"></circle><circle class="pearl" r="2.190433937142651" cx="13.266972035344825" cy="5.27269372257316"></circle><circle class="pearl" r="2.190433937142651" cx="4.534739709953857" cy="12.334914460686067"></circle><circle class="pearl" r="2.190433937142651" cx="5.322029013324893" cy="4.3786878644751965"></circle><circle class="pearl" r="2.190433937142651" cx="12.47968273197393" cy="13.228920318784215"></circle></g><g class="bobaCup bright" cupRadius="8.718029384448748" width="17.436058768897496" height="17.436058768897496" pearlRadius="2.738042421428314" pearlCount="4" transform="translate(45.647826788591,246.54518154174247)"><circle class="pool" r="8.718029384448748" cx="8.718029384448748" cy="8.718029384448748" style="stroke-width: 1; fill: rgb(127, 205, 187);"></circle><circle class="pearl" r="2.1904339371426516" cx="12.924808607366867" cy="4.941299109071255"></circle><circle class="pearl" r="2.1904339371426516" cx="4.511250161530629" cy="12.49475965982624"></circle><circle class="pearl" r="2.1904339371426516" cx="4.941299109071256" cy="4.511250161530629"></circle><circle class="pearl" r="2.1904339371426516" cx="12.494759659826242" cy="12.924808607366867"></circle></g><g class="bobaCup bright" cupRadius="7.296689847055763" width="14.593379694111526" height="14.593379694111526" pearlRadius="2.7380424214283137" pearlCount="3" transform="translate(12.703310152944237,44.09644870285345)"><circle class="pool" r="7.296689847055763" cx="7.296689847055763" cy="7.296689847055763" style="stroke-width: 1; fill: rgb(127, 205, 187);"></circle><circle class="pearl" r="2.190433937142651" cx="10.264660476128709" cy="10.311762375113215"></circle><circle class="pearl" r="2.190433937142651" cx="4.33127713715435" cy="10.312900710260433"></circle><circle class="pearl" r="2.190433937142651" cx="6.897058365204755" cy="3.6616751306524185"></circle></g><g class="bobaCup bright" cupRadius="7.2029498677142145" width="14.405899735428429" height="14.405899735428429" pearlRadius="2.738042421428314" pearlCount="3" transform="translate(290.5874828216719,133.2437328524021)"><circle class="pool" r="7.2029498677142145" cx="7.2029498677142145" cy="7.2029498677142145" style="stroke-width: 1; fill: rgb(65, 182, 196);"></circle><circle class="pearl" r="2.1904339371426516" cx="10.087545142305547" cy="10.152347615201794"></circle><circle class="pearl" r="2.1904339371426516" cx="4.32397021564991" cy="10.154799089317677"></circle><circle class="pearl" r="2.1904339371426516" cx="6.743724885451374" cy="3.6653771081897966"></circle></g><g class="bobaCup bright" cupRadius="7.102930676839028" width="14.205861353678056" height="14.205861353678056" pearlRadius="2.738042421428314" pearlCount="3" transform="translate(302.5160043372236,12.897069323160972)"><circle class="pool" r="7.102930676839028" cx="7.102930676839028" cy="7.102930676839028" style="stroke-width: 1; fill: rgb(65, 182, 196);"></circle><circle class="pearl" r="2.1904339371426516" cx="9.899588014791819" cy="9.981398204713626"></circle><circle class="pearl" r="2.1904339371426516" cx="4.3169401499915026" cy="9.985956830077502"></circle><circle class="pearl" r="2.1904339371426516" cx="6.57345062846662" cy="3.6704854704259158"></circle></g><g class="bobaCup bright" cupRadius="6.430911069333676" width="12.861822138667351" height="12.861822138667351" pearlRadius="2.738042421428314" pearlCount="2" transform="translate(272.65799155120595,200.2587908073906)"><circle class="pool" r="6.430911069333676" cx="6.430911069333676" cy="6.430911069333676" style="stroke-width: 1; fill: rgb(29, 145, 192);"></circle><circle class="pearl" r="2.1904339371426516" cx="8.650758057003461" cy="4.0459987445424"></circle><circle class="pearl" r="2.1904339371426516" cx="4.21106408166389" cy="8.815823394124951"></circle></g><g class="bobaCup bright" cupRadius="6.1867503044142955" width="12.373500608828591" height="12.373500608828591" pearlRadius="2.7380424214283132" pearlCount="2" transform="translate(179.5869058274428,177.94053075004337)"><circle class="pool" r="6.1867503044142955" cx="6.1867503044142955" cy="6.1867503044142955" style="stroke-width: 1; fill: rgb(65, 182, 196);"></circle><circle class="pearl" r="2.1904339371426507" cx="8.179115414666246" cy="3.9803103462010885"></circle><circle class="pearl" r="2.1904339371426507" cx="4.194385194162346" cy="8.393190262627503"></circle></g><g class="bobaCup bright" cupRadius="6.1088475235112405" width="12.217695047022481" height="12.217695047022481" pearlRadius="2.7380424214283137" pearlCount="2" transform="translate(117.49260676106836,257.466544211102)"><circle class="pool" r="6.1088475235112405" cx="6.1088475235112405" cy="6.1088475235112405" style="stroke-width: 1; fill: rgb(29, 145, 192);"></circle><circle class="pearl" r="2.190433937142651" cx="8.050587349456865" cy="3.967536177440521"></circle><circle class="pearl" r="2.190433937142651" cx="4.167107697565615" cy="8.25015886958196"></circle></g><g class="bobaCup bright" cupRadius="5.575304136154883" width="11.150608272309766" height="11.150608272309766" pearlRadius="2.7380424214283132" pearlCount="2" transform="translate(55.91087313329453,176.56362149594545)"><circle class="pool" r="5.575304136154883" cx="5.575304136154883" cy="5.575304136154883" style="stroke-width: 1; fill: rgb(127, 205, 187);"></circle><circle class="pearl" r="2.1904339371426507" cx="7.157171522259255" cy="3.879840706611132"></circle><circle class="pearl" r="2.1904339371426507" cx="3.9934367500505115" cy="7.270767565698635"></circle></g><g class="bobaCup bright" cupRadius="4.969376460615801" width="9.938752921231602" height="9.938752921231602" pearlRadius="2.738042421428314" pearlCount="1" transform="translate(267.20337380981744,236.83649914272732)"><circle class="pool" r="4.969376460615801" cx="4.969376460615801" cy="4.969376460615801" style="stroke-width: 1; fill: rgb(127, 205, 187);"></circle><circle class="pearl" r="2.1904339371426516" cx="6.288029692660517" cy="4.969376460615801"></circle></g><g class="bobaCup bright" cupRadius="4.958292607787255" width="9.91658521557451" height="9.91658521557451" pearlRadius="2.7380424214283137" pearlCount="1" transform="translate(95.83090370763944,293.6324637426818)"><circle class="pool" r="4.958292607787255" cx="4.958292607787255" cy="4.958292607787255" style="stroke-width: 1; fill: rgb(127, 205, 187);"></circle><circle class="pearl" r="2.190433937142651" cx="6.265861987003426" cy="4.958292607787255"></circle></g><g class="bobaCup bright" cupRadius="2.3388232149480355" width="4.677646429896071" height="4.677646429896071" pearlRadius="2.738042421428314" pearlCount="0" transform="translate(95.25617181787601,111.81154242017986)"><circle class="pool" r="2.3388232149480355" cx="2.3388232149480355" cy="2.3388232149480355" style="stroke-width: 1; fill: rgb(29, 145, 192);"></circle></g><g class="bobaCup bright" cupRadius="1.457749672861156" width="2.915499345722312" height="2.915499345722312" pearlRadius="2.738042421428314" pearlCount="0" transform="translate(287.29814020772477,125.60116270467779)"><circle class="pool" r="1.457749672861156" cx="1.457749672861156" cy="1.457749672861156" style="stroke-width: 1; fill: rgb(127, 205, 187);"></circle></g><g class="bobaCup bright" cupRadius="1.4038865239659468" width="2.8077730479318936" height="2.8077730479318936" pearlRadius="2.738042421428314" pearlCount="0" transform="translate(232.95407618473664,154.0239974062617)"><circle class="pool" r="1.4038865239659468" cx="1.4038865239659468" cy="1.4038865239659468" style="stroke-width: 1; fill: rgb(65, 182, 196);"></circle></g><g class="bobaCup bright" cupRadius="0" width="0" height="0" pearlRadius="NaN" pearlCount="0" transform="translate(20,300)"><circle class="pool" r="0" cx="0" cy="0" style="stroke-width: 1; fill: rgb(65, 182, 196);"></circle></g><g class="bobaCup bright" cupRadius="0" width="0" height="0" pearlRadius="NaN" pearlCount="0" transform="translate(288.88253137875955,241.9766929121672)"><circle class="pool" r="0" cx="0" cy="0" style="stroke-width: 1; fill: rgb(29, 145, 192);"></circle></g></g><g id="legendDividerGroup" transform="translate(410,0)" height="400"><rect class="legendDivider" height="400" width="90"></rect></g><g id="legend" transform="translate(410,30)" width="90" height="320"><rect class="legendBorder" transform="translate(0,0)" width="90" height="324.9477195110013"></rect><text id="rTitle" text-anchor="middle" alignment-baseline="hanging" transform="translate(45,10)" x="0" y="0" style="fill: black; font-size: 0.8rem;">Population</text><text id="bobaValue" text-anchor="middle" alignment-baseline="hanging" transform="translate(45,25)" x="0" y="0" style="fill: black; font-size: 0.7rem;">(1 Pearl =   75)</text><g class="bright" cupRadius="8.94427190999916" width="17.88854381999832" height="17.88854381999832" pearlRadius="2.7380424214283137" pearlCount="4" transform="translate(36.05572809000084,50)"><circle class="pool" r="8.94427190999916" cx="8.94427190999916" cy="8.94427190999916" style="stroke-width: 1; fill: rgb(29, 145, 192);"></circle><circle class="pearl" r="2.190433937142651" cx="13.542613460651712" cy="5.486970900805415"></circle><circle class="pearl" r="2.190433937142651" cx="4.749399498236599" cy="12.229516637519533"></circle><circle class="pearl" r="2.190433937142651" cx="5.6385452023940825" cy="4.284028231246733"></circle><circle class="pearl" r="2.190433937142651" cx="12.653467756495177" cy="13.432459307079196"></circle></g><text id="0" class="legendSampleValue" text-anchor="middle" transform="translate(45,8)" x="0" y="72.88854381999832" style="fill: black; font-size: 0.7rem;"> 300</text><g class="bright" cupRadius="12.649110640673518" width="25.298221281347036" height="25.298221281347036" pearlRadius="2.7380424214283137" pearlCount="8" transform="translate(32.35088935932648,92.88854381999832)"><circle class="pool" r="12.649110640673518" cx="12.649110640673518" cy="12.649110640673518" style="stroke-width: 1; fill: rgb(29, 145, 192);"></circle><circle class="pearl" r="2.190433937142651" cx="14.071403428550026" cy="12.846878791771143"></circle><circle class="pearl" r="2.190433937142651" cx="6.440581911774749" cy="19.57795138257092"></circle><circle class="pearl" r="2.190433937142651" cx="15.10273708455154" cy="3.8909774644866477"></circle><circle class="pearl" r="2.190433937142651" cx="20.833946229646862" cy="17.112242666106596"></circle><circle class="pearl" r="2.190433937142651" cx="3.6634707295578792" cy="12.081372495075817"></circle><circle class="pearl" r="2.190433937142651" cx="21.1462151053254" cy="9.123450087562194"></circle><circle class="pearl" r="2.190433937142651" cx="14.187116834584868" cy="21.553646746241665"></circle><circle class="pearl" r="2.190433937142651" cx="7.171845845081948" cy="4.898098459274186"></circle></g><text id="1" class="legendSampleValue" text-anchor="middle" transform="translate(45,8)" x="0" y="123.18676510134536" style="fill: black; font-size: 0.7rem;"> 600</text><g class="bright" cupRadius="15.491933384829668" width="30.983866769659336" height="30.983866769659336" pearlRadius="2.738042421428314" pearlCount="12" transform="translate(29.508066615170332,143.18676510134537)"><circle class="pool" r="15.491933384829668" cx="15.491933384829668" cy="15.491933384829668" style="stroke-width: 1; fill: rgb(29, 145, 192);"></circle><circle class="pearl" r="2.1904339371426516" cx="17.033011743384765" cy="11.01737610913958"></circle><circle class="pearl" r="2.1904339371426516" cx="11.029309432951333" cy="17.00347040031935"></circle><circle class="pearl" r="2.1904339371426516" cx="13.977981653444434" cy="3.724876288236054"></circle><circle class="pearl" r="2.1904339371426516" cx="18.741808845067855" cy="18.756462357333643"></circle><circle class="pearl" r="2.1904339371426516" cx="3.725529689195627" cy="13.971342248807428"></circle><circle class="pearl" r="2.1904339371426516" cx="26.98661348100194" cy="12.233596672509572"></circle><circle class="pearl" r="2.1904339371426516" cx="12.152198575888569" cy="26.968872613027877"></circle><circle class="pearl" r="2.1904339371426516" cx="6.524197378590721" cy="6.5101702816287865"></circle><circle class="pearl" r="2.1904339371426516" cx="26.508263068801252" cy="20.479674242239334"></circle><circle class="pearl" r="2.1904339371426516" cx="5.419021306595209" cy="22.679550094546478"></circle><circle class="pearl" r="2.1904339371426516" cx="22.76079804957651" cy="5.461881544509561"></circle><circle class="pearl" r="2.1904339371426516" cx="20.400071923945557" cy="26.535092423407907"></circle></g><text id="2" class="legendSampleValue" text-anchor="middle" transform="translate(45,8)" x="0" y="179.1706318710047" style="fill: black; font-size: 0.7rem;"> 900</text><g class="bright" cupRadius="17.88854381999832" width="35.77708763999664" height="35.77708763999664" pearlRadius="2.7380424214283137" pearlCount="16" transform="translate(27.11145618000168,199.1706318710047)"><circle class="pool" r="17.88854381999832" cx="17.88854381999832" cy="17.88854381999832" style="stroke-width: 1; fill: rgb(29, 145, 192);"></circle><circle class="pearl" r="2.190433937142651" cx="19.8046930625516" cy="19.706925044831756"></circle><circle class="pearl" r="2.190433937142651" cx="13.339172784724305" cy="23.858410298028698"></circle><circle class="pearl" r="2.190433937142651" cx="16.092791630714295" cy="11.113543243945612"></circle><circle class="pearl" r="2.190433937142651" cx="20.836129534048155" cy="27.499380517199565"></circle><circle class="pearl" r="2.190433937142651" cx="10.312657514553905" cy="16.56124087753138"></circle><circle class="pearl" r="2.190433937142651" cx="23.678755837700653" cy="13.13675787817294"></circle><circle class="pearl" r="2.190433937142651" cx="14.311679794483911" cy="31.765114841909277"></circle><circle class="pearl" r="2.190433937142651" cx="11.081450997216843" cy="4.99648955196875"></circle><circle class="pearl" r="2.190433937142651" cx="27.674351504393126" cy="20.796258814455655"></circle><circle class="pearl" r="2.190433937142651" cx="4.000488629236898" cy="21.40866477780026"></circle><circle class="pearl" r="2.190433937142651" cx="28.333596734388347" cy="7.01684061165493"></circle><circle class="pearl" r="2.190433937142651" cx="28.522531366621063" cy="28.62247591779055"></circle><circle class="pearl" r="2.190433937142651" cx="5.30391541992303" cy="10.377661215789304"></circle><circle class="pearl" r="2.190433937142651" cx="31.694235049536697" cy="13.980399213320233"></circle><circle class="pearl" r="2.190433937142651" cx="7.311073872078207" cy="28.66408585659018"></circle><circle class="pearl" r="2.190433937142651" cx="18.987039995684725" cy="3.684483203560177"></circle></g><text id="3" class="legendSampleValue" text-anchor="middle" transform="translate(45,8)" x="0" y="239.94771951100134" style="fill: black; font-size: 0.7rem;">1.2k</text><g class="bright" cupRadius="20" width="40" height="40" pearlRadius="2.7380424214283137" pearlCount="20" transform="translate(25,259.9477195110013)"><circle class="pool" r="20" cx="20" cy="20" style="stroke-width: 1; fill: rgb(29, 145, 192);"></circle><circle class="pearl" r="2.190433937142651" cx="22.480421380823074" cy="19.96094551607325"></circle><circle class="pearl" r="2.190433937142651" cx="14.554532211889109" cy="20.25858246523202"></circle><circle class="pearl" r="2.190433937142651" cx="21.718613402750453" cy="11.231225788085391"></circle><circle class="pearl" r="2.190433937142651" cx="25.13767186853209" cy="27.447308990534317"></circle><circle class="pearl" r="2.190433937142651" cx="6.622341466842937" cy="15.212813608895589"></circle><circle class="pearl" r="2.190433937142651" cx="28.49521909515808" cy="14.82158787688231"></circle><circle class="pearl" r="2.190433937142651" cx="17.504603283401977" cy="28.993209871734443"></circle><circle class="pearl" r="2.190433937142651" cx="14.13811847195522" cy="12.373399584276378"></circle><circle class="pearl" r="2.190433937142651" cx="31.11803529924844" cy="22.444175683247455"></circle><circle class="pearl" r="2.190433937142651" cx="10.013176726772668" cy="26.767604068489224"></circle><circle class="pearl" r="2.190433937142651" cx="25.1625299271706" cy="4.328500666167248"></circle><circle class="pearl" r="2.190433937142651" cx="27.782608687955303" cy="34.772930101052836"></circle><circle class="pearl" r="2.190433937142651" cx="8.036930275650786" cy="7.623092000895575"></circle><circle class="pearl" r="2.190433937142651" cx="36.040664285033515" cy="16.500106031740792"></circle><circle class="pearl" r="2.190433937142651" cx="11.3070075503718" cy="34.36126950601293"></circle><circle class="pearl" r="2.190433937142651" cx="16.81383473400994" cy="3.9061454691506903"></circle><circle class="pearl" r="2.190433937142651" cx="33.74247113697989" cy="29.87303346303284"></circle><circle class="pearl" r="2.190433937142651" cx="3.788525504185259" cy="22.343736665541265"></circle><circle class="pearl" r="2.190433937142651" cx="32.18050534208177" cy="7.787706818962306"></circle><circle class="pearl" r="2.190433937142651" cx="20.00567962395882" cy="36.34927596497569"></circle></g><text id="4" class="legendSampleValue" text-anchor="middle" transform="translate(45,8)" x="0" y="304.9477195110013" style="fill: black; font-size: 0.7rem;">1.5k</text></g></svg>