<?xml version="1.0" standalone="no"?>
<?xml-stylesheet xmlns="http://www.w3.org/2000/svg" type="text/css" href="style.css"?>
<svg id="syntheticVisC" class="default" xTitle="Percent Cat Owners" yTitle="Percent Dog Owners" rTitle="Population" chartTitle="Towns in Vizzyland" width="500" height="400" xmlns="http://www.w3.org/2000/svg"><rect class="background" width="500" height="400"></rect><text id="chartTitle" text-anchor="middle" transform="translate(250,20)" x="0" y="0" style="fill: black; font-size: 1.2rem;">Towns in Vizzyland</text><g id="yAxis" transform="translate(50,30)" fill="none" font-size="10" font-family="sans-serif" text-anchor="end"><path class="domain" stroke="currentColor" d="M-6,300H0V20H-6"></path><g class="tick" opacity="1" transform="translate(0,300)"><line stroke="currentColor" x2="-6"></line><text fill="currentColor" x="-9" dy="0.32em">0</text></g><g class="tick" opacity="1" transform="translate(0,272)"><line stroke="currentColor" x2="-6"></line><text fill="currentColor" x="-9" dy="0.32em">10</text></g><g class="tick" opacity="1" transform="translate(0,244)"><line stroke="currentColor" x2="-6"></line><text fill="currentColor" x="-9" dy="0.32em">20</text></g><g class="tick" opacity="1" transform="translate(0,216)"><line stroke="currentColor" x2="-6"></line><text fill="currentColor" x="-9" dy="0.32em">30</text></g><g class="tick" opacity="1" transform="translate(0,188)"><line stroke="currentColor" x2="-6"></line><text fill="currentColor" x="-9" dy="0.32em">40</text></g><g class="tick" opacity="1" transform="translate(0,160)"><line stroke="currentColor" x2="-6"></line><text fill="currentColor" x="-9" dy="0.32em">50</text></g><g class="tick" opacity="1" transform="translate(0,132)"><line stroke="currentColor" x2="-6"></line><text fill="currentColor" x="-9" dy="0.32em">60</text></g><g class="tick" opacity="1" transform="translate(0,104.00000000000001)"><line stroke="currentColor" x2="-6"></line><text fill="currentColor" x="-9" dy="0.32em">70</text></g><g class="tick" opacity="1" transform="translate(0,75.99999999999999)"><line stroke="currentColor" x2="-6"></line><text fill="currentColor" x="-9" dy="0.32em">80</text></g><g class="tick" opacity="1" transform="translate(0,47.99999999999999)"><line stroke="currentColor" x2="-6"></line><text fill="currentColor" x="-9" dy="0.32em">90</text></g><g class="tick" opacity="1" transform="translate(0,20)"><line stroke="currentColor" x2="-6"></line><text fill="currentColor" x="-9" dy="0.32em">100</text></g></g><g id="xAxis" transform="translate(60,360)" fill="none" font-size="10" font-family="sans-serif" text-anchor="middle"><path class="domain" stroke="currentColor" d="M20,6V0H320V6"></path><g class="tick" opacity="1" transform="translate(20,0)"><line stroke="currentColor" y2="6"></line><text fill="currentColor" y="9" dy="0.71em">0</text></g><g class="tick" opacity="1" transform="translate(50,0)"><line stroke="currentColor" y2="6"></line><text fill="currentColor" y="9" dy="0.71em">10</text></g><g class="tick" opacity="1" transform="translate(80,0)"><line stroke="currentColor" y2="6"></line><text fill="currentColor" y="9" dy="0.71em">20</text></g><g class="tick" opacity="1" transform="translate(110,0)"><line stroke="currentColor" y2="6"></line><text fill="currentColor" y="9" dy="0.71em">30</text></g><g class="tick" opacity="1" transform="translate(140,0)"><line stroke="currentColor" y2="6"></line><text fill="currentColor" y="9" dy="0.71em">40</text></g><g class="tick" opacity="1" transform="translate(170,0)"><line stroke="currentColor" y2="6"></line><text fill="currentColor" y="9" dy="0.71em">50</text></g><g class="tick" opacity="1" transform="translate(200,0)"><line stroke="currentColor" y2="6"></line><text fill="currentColor" y="9" dy="0.71em">60</text></g><g class="tick" opacity="1" transform="translate(230,0)"><line stroke="currentColor" y2="6"></line><text fill="currentColor" y="9" dy="0.71em">70</text></g><g class="tick" opacity="1" transform="translate(260,0)"><line stroke="currentColor" y2="6"></line><text fill="currentColor" y="9" dy="0.71em">80</text></g><g class="tick" opacity="1" transform="translate(290,0)"><line stroke="currentColor" y2="6"></line><text fill="currentColor" y="9" dy="0.71em">90</text></g><g class="tick" opacity="1" transform="translate(320,0)"><line stroke="currentColor" y2="6"></line><text fill="currentColor" y="9" dy="0.71em">100</text></g></g><g id="labels"><text id="xTitle" text-anchor="middle" transform="translate(250,350)" x="0" y="40" style="fill: black; font-size: 0.8rem;">Percent Cat Owners</text><g id="group-yTitle" transform="translate(60,190)"><text id="yTitle" text-anchor="middle" transform="rotate(-90)" y="-45" style="fill: black; font-size: 0.8rem;">Percent Dog Owners</text></g></g><g id="quadrant_lines" transform="translate(60,30)"><line id="verticalQuadrantLine" x1="170" y1="10" x2="170" y2="310" class="quadrantLine"></line><line id="horizontalQuadrantLine" x1="10" y1="160" x2="330" y2="160" class="quadrantLine"></line></g><g id="chart" transform="translate(60,30)"><g class="bobaCup bright" cupRadius="20" width="40" height="40" pearlRadius="2.7380424214283137" pearlCount="20" transform="translate(245.22563280970252,36.70832022912106)"><circle class="pool" r="20" cx="20" cy="20" style="stroke-width: 1; fill: rgb(127, 205, 187);"></circle><circle class="pearl" r="2.190433937142651" cx="22.480421380823074" cy="19.96094551607325"></circle><circle class="pearl" r="2.190433937142651" cx="14.554532211889109" cy="20.25858246523202"></circle><circle class="pearl" r="2.190433937142651" cx="21.718613402750453" cy="11.231225788085391"></circle><circle class="pearl" r="2.190433937142651" cx="25.13767186853209" cy="27.447308990534317"></circle><circle class="pearl" r="2.190433937142651" cx="6.622341466842937" cy="15.212813608895589"></circle><circle class="pearl" r="2.190433937142651" cx="28.49521909515808" cy="14.82158787688231"></circle><circle class="pearl" r="2.190433937142651" cx="17.504603283401977" cy="28.993209871734443"></circle><circle class="pearl" r="2.190433937142651" cx="14.13811847195522" cy="12.373399584276378"></circle><circle class="pearl" r="2.190433937142651" cx="31.11803529924844" cy="22.444175683247455"></circle><circle class="pearl" r="2.190433937142651" cx="10.013176726772668" cy="26.767604068489224"></circle><circle class="pearl" r="2.190433937142651" cx="25.1625299271706" cy="4.328500666167248"></circle><circle class="pearl" r="2.190433937142651" cx="27.782608687955303" cy="34.772930101052836"></circle><circle class="pearl" r="2.190433937142651" cx="8.036930275650786" cy="7.623092000895575"></circle><circle class="pearl" r="2.190433937142651" cx="36.040664285033515" cy="16.500106031740792"></circle><circle class="pearl" r="2.190433937142651" cx="11.3070075503718" cy="34.36126950601293"></circle><circle class="pearl" r="2.190433937142651" cx="16.81383473400994" cy="3.9061454691506903"></circle><circle class="pearl" r="2.190433937142651" cx="33.74247113697989" cy="29.87303346303284"></circle><circle class="pearl" r="2.190433937142651" cx="3.788525504185259" cy="22.343736665541265"></circle><circle class="pearl" r="2.190433937142651" cx="32.18050534208177" cy="7.787706818962306"></circle><circle class="pearl" r="2.190433937142651" cx="20.00567962395882" cy="36.34927596497569"></circle></g><g class="bobaCup bright" cupRadius="19.447239630703038" width="38.894479261406076" height="38.894479261406076" pearlRadius="2.7380424214283137" pearlCount="19" transform="translate(106.50491118236725,274.33175101078365)"><circle class="pool" r="19.447239630703038" cx="19.447239630703038" cy="19.447239630703038" style="stroke-width: 1; fill: rgb(29, 145, 192);"></circle><circle class="pearl" r="2.190433937142651" cx="19.712197319279657" cy="19.55265436246407"></circle><circle class="pearl" r="2.190433937142651" cx="15.726157081875836" cy="26.895111771476813"></circle><circle class="pearl" r="2.190433937142651" cx="21.23017704155312" cy="11.129682251864214"></circle><circle class="pearl" r="2.190433937142651" cx="23.703498414354975" cy="26.74471494308254"></circle><circle class="pearl" r="2.190433937142651" cx="10.979124596305025" cy="20.499370021127554"></circle><circle class="pearl" r="2.190433937142651" cx="27.08712586993486" cy="16.47169813838237"></circle><circle class="pearl" r="2.190433937142651" cx="15.911359735255724" cy="34.87670631905649"></circle><circle class="pearl" r="2.190433937142651" cx="13.541413078509045" cy="12.957289901019374"></circle><circle class="pearl" r="2.190433937142651" cx="30.976293410031705" cy="23.44036273583257"></circle><circle class="pearl" r="2.190433937142651" cx="4.46522932789787" cy="25.01647390506373"></circle><circle class="pearl" r="2.190433937142651" cx="25.806298956996848" cy="4.719783032679146"></circle><circle class="pearl" r="2.190433937142651" cx="23.901946456327355" cy="34.72667002939349"></circle><circle class="pearl" r="2.190433937142651" cx="7.683382434591099" cy="7.612266455060583"></circle><circle class="pearl" r="2.190433937142651" cx="35.04612298407177" cy="16.68177842241864"></circle><circle class="pearl" r="2.190433937142651" cx="8.508063912976015" cy="31.875370959303563"></circle><circle class="pearl" r="2.190433937142651" cx="16.903892512719914" cy="3.8177524171800385"></circle><circle class="pearl" r="2.190433937142651" cx="31.173642516239543" cy="31.310594029244303"></circle><circle class="pearl" r="2.190433937142651" cx="3.8208122724349565" cy="16.88080348181617"></circle><circle class="pearl" r="2.190433937142651" cx="32.30837558770176" cy="9.173309735580109"></circle></g><g class="bobaCup bright" cupRadius="19.172946994005656" width="38.34589398801131" height="38.34589398801131" pearlRadius="2.738042421428314" pearlCount="18" transform="translate(0.827053005994344,29.022291950900062)"><circle class="pool" r="19.172946994005656" cx="19.172946994005656" cy="19.172946994005656" style="stroke-width: 1; fill: rgb(127, 205, 187);"></circle><circle class="pearl" r="2.1904339371426516" cx="20.754972734522696" cy="18.793252359984045"></circle><circle class="pearl" r="2.1904339371426516" cx="14.213618225439198" cy="23.379014359322323"></circle><circle class="pearl" r="2.1904339371426516" cx="18.842844591754552" cy="11.100372832011752"></circle><circle class="pearl" r="2.1904339371426516" cx="21.43948653424075" cy="26.668230539440646"></circle><circle class="pearl" r="2.1904339371426516" cx="11.858415125908465" cy="15.747129521537595"></circle><circle class="pearl" r="2.1904339371426516" cx="27.404470983786457" cy="14.419881874972662"></circle><circle class="pearl" r="2.1904339371426516" cx="16.411154574014503" cy="32.924879472073535"></circle><circle class="pearl" r="2.1904339371426516" cx="13.752519601104371" cy="4.916091765973524"></circle><circle class="pearl" r="2.1904339371426516" cx="28.28473491731795" cy="22.567185080928866"></circle><circle class="pearl" r="2.1904339371426516" cx="6.242813767729116" cy="23.837023667044864"></circle><circle class="pearl" r="2.1904339371426516" cx="29.713718323153962" cy="6.808239031954503"></circle><circle class="pearl" r="2.1904339371426516" cx="24.588844800615615" cy="33.914340211980566"></circle><circle class="pearl" r="2.1904339371426516" cx="6.7383671642967755" cy="8.73911155547972"></circle><circle class="pearl" r="2.1904339371426516" cx="34.6430064772842" cy="17.759594624218614"></circle><circle class="pearl" r="2.1904339371426516" cx="8.54775193007051" cy="31.48177032190912"></circle><circle class="pearl" r="2.1904339371426516" cx="22.26318346693494" cy="3.9013993499692963"></circle><circle class="pearl" r="2.1904339371426516" cx="31.406682376096793" cy="29.910072823626415"></circle><circle class="pearl" r="2.1904339371426516" cx="3.8815476175775605" cy="16.206823656696578"></circle></g><g class="bobaCup bright" cupRadius="18.331170864009362" width="36.662341728018724" height="36.662341728018724" pearlRadius="2.7380424214283132" pearlCount="17" transform="translate(50.22008930226157,169.25379895749816)"><circle class="pool" r="18.331170864009362" cx="18.331170864009362" cy="18.331170864009362" style="stroke-width: 1; fill: rgb(65, 182, 196);"></circle><circle class="pearl" r="2.1904339371426507" cx="18.30380615492019" cy="18.320870990048267"></circle><circle class="pearl" r="2.1904339371426507" cx="13.213066213710686" cy="24.3066871203516"></circle><circle class="pearl" r="2.1904339371426507" cx="15.757296556426772" cy="10.860260029896155"></circle><circle class="pearl" r="2.1904339371426507" cx="20.858526043235354" cy="25.7661749873863"></circle><circle class="pearl" r="2.1904339371426507" cx="10.540944221130452" cy="16.97012288075938"></circle><circle class="pearl" r="2.1904339371426507" cx="23.397854282285884" cy="12.356308872707329"></circle><circle class="pearl" r="2.1904339371426507" cx="15.693781086612285" cy="31.944946444261195"></circle><circle class="pearl" r="2.1904339371426507" cx="9.984599318947227" cy="5.661153647102341"></circle><circle class="pearl" r="2.1904339371426507" cx="26.067772773561977" cy="19.741027296276503"></circle><circle class="pearl" r="2.1904339371426507" cx="4.417919948354479" cy="22.129078576808926"></circle><circle class="pearl" r="2.1904339371426507" cx="29.210876226343043" cy="7.228459357769929"></circle><circle class="pearl" r="2.1904339371426507" cx="26.67934756498101" cy="31.00036709035164"></circle><circle class="pearl" r="2.1904339371426507" cx="4.9971207203580255" cy="11.435570908983694"></circle><circle class="pearl" r="2.1904339371426507" cx="32.62852416423232" cy="14.603118535774374"></circle><circle class="pearl" r="2.1904339371426507" cx="7.446077747472361" cy="29.429907730296822"></circle><circle class="pearl" r="2.1904339371426507" cx="19.90712315996583" cy="3.7185921018019092"></circle><circle class="pearl" r="2.1904339371426507" cx="31.664190579793267" cy="25.229308355070113"></circle></g><g class="bobaCup bright" cupRadius="17.58468881103739" width="35.16937762207478" height="35.16937762207478" pearlRadius="2.738042421428314" pearlCount="15" transform="translate(227.76117807351733,142.73267847629234)"><circle class="pool" r="17.58468881103739" cx="17.58468881103739" cy="17.58468881103739" style="stroke-width: 1; fill: rgb(29, 145, 192);"></circle><circle class="pearl" r="2.1904339371426516" cx="18.83830943106833" cy="17.749037374077506"></circle><circle class="pearl" r="2.1904339371426516" cx="13.170839021463292" cy="23.276124056325948"></circle><circle class="pearl" r="2.1904339371426516" cx="16.430929597494657" cy="9.805366648346983"></circle><circle class="pearl" r="2.1904339371426516" cx="20.426607529160503" cy="26.0815064805038"></circle><circle class="pearl" r="2.1904339371426516" cx="11.17703417201105" cy="15.766125107405548"></circle><circle class="pearl" r="2.1904339371426516" cx="24.024215247898486" cy="11.772328671479416"></circle><circle class="pearl" r="2.1904339371426516" cx="14.428872137285863" cy="31.23315925450476"></circle><circle class="pearl" r="2.1904339371426516" cx="9.963543932979265" cy="5.388032719081311"></circle><circle class="pearl" r="2.1904339371426516" cx="26.23074641839758" cy="20.552515396395258"></circle><circle class="pearl" r="2.1904339371426516" cx="4.730860039755386" cy="20.62200414468275"></circle><circle class="pearl" r="2.1904339371426516" cx="22.04174916437711" cy="4.22494780174269"></circle><circle class="pearl" r="2.1904339371426516" cx="27.954011402693144" cy="28.136022812712948"></circle><circle class="pearl" r="2.1904339371426516" cx="4.86810705028131" cy="11.155644716666147"></circle><circle class="pearl" r="2.1904339371426516" cx="31.261677602066765" cy="14.589413073009744"></circle><circle class="pearl" r="2.1904339371426516" cx="7.2128672523737425" cy="28.13419790930742"></circle></g><g class="bobaCup bright" cupRadius="17.256704256163246" width="34.51340851232649" height="34.51340851232649" pearlRadius="2.7380424214283137" pearlCount="15" transform="translate(180.6349025516236,185.83796970925277)"><circle class="pool" r="17.256704256163246" cx="17.256704256163246" cy="17.256704256163246" style="stroke-width: 1; fill: rgb(65, 182, 196);"></circle><circle class="pearl" r="2.190433937142651" cx="18.477523543567795" cy="17.45001806677825"></circle><circle class="pearl" r="2.190433937142651" cx="12.837644915857178" cy="22.82468036796039"></circle><circle class="pearl" r="2.190433937142651" cx="16.16681977889766" cy="9.870547620469718"></circle><circle class="pearl" r="2.190433937142651" cx="19.963927579673157" cy="25.465167752616996"></circle><circle class="pearl" r="2.190433937142651" cx="10.74283881524208" cy="15.59140345327398"></circle><circle class="pearl" r="2.190433937142651" cx="23.61183364474211" cy="11.50484512712453"></circle><circle class="pearl" r="2.190433937142651" cx="14.234526680758124" cy="30.595986456885026"></circle><circle class="pearl" r="2.190433937142651" cx="10.220681879703319" cy="5.1502630538274214"></circle><circle class="pearl" r="2.190433937142651" cx="25.873751365744305" cy="20.14281941741765"></circle><circle class="pearl" r="2.190433937142651" cx="4.250427773029287" cy="20.335958695260235"></circle><circle class="pearl" r="2.190433937142651" cx="21.57703036473677" cy="4.200284578173058"></circle><circle class="pearl" r="2.190433937142651" cx="27.32904437414496" cy="27.618183079103506"></circle><circle class="pearl" r="2.190433937142651" cx="5.066167406466612" cy="10.412120929373799"></circle><circle class="pearl" r="2.190433937142651" cx="30.589682239205356" cy="14.199297685337077"></circle><circle class="pearl" r="2.190433937142651" cx="7.210662588940272" cy="27.637049718362032"></circle></g><g class="bobaCup bright" cupRadius="16.500435514488757" width="33.000871028977514" height="33.000871028977514" pearlRadius="2.738042421428314" pearlCount="14" transform="translate(231.2665314674769,177.79819328991476)"><circle class="pool" r="16.500435514488757" cx="16.500435514488757" cy="16.500435514488757" style="stroke-width: 1; fill: rgb(127, 205, 187);"></circle><circle class="pearl" r="2.1904339371426516" cx="20.440298337628903" cy="12.259794031681682"></circle><circle class="pearl" r="2.1904339371426516" cx="12.725367160448915" cy="20.906316935678856"></circle><circle class="pearl" r="2.1904339371426516" cx="12.484064258899462" cy="12.692717607824514"></circle><circle class="pearl" r="2.1904339371426516" cx="20.635271015072927" cy="20.22840339172811"></circle><circle class="pearl" r="2.1904339371426516" cx="5.341613352114202" cy="17.89358277218006"></circle><circle class="pearl" r="2.1904339371426516" cx="26.191497478500025" cy="6.796470795470205"></circle><circle class="pearl" r="2.1904339371426516" cx="14.959489325976982" cy="29.278037124802278"></circle><circle class="pearl" r="2.1904339371426516" cx="10.91423515340082" cy="4.625092348329241"></circle><circle class="pearl" r="2.1904339371426516" cx="28.29817718355434" cy="22.297788744566216"></circle><circle class="pearl" r="2.1904339371426516" cx="6.818900809478416" cy="26.211308669714114"></circle><circle class="pearl" r="2.1904339371426516" cx="18.854841541769055" cy="3.819559175763683"></circle><circle class="pearl" r="2.1904339371426516" cx="22.85730540365543" cy="28.076484017969346"></circle><circle class="pearl" r="2.1904339371426516" cx="5.018963051858618" cy="9.921603875740658"></circle><circle class="pearl" r="2.1904339371426516" cx="29.189753387074216" cy="14.20534750303542"></circle></g><g class="bobaCup bright" cupRadius="16.41555998959372" width="32.83111997918744" height="32.83111997918744" pearlRadius="2.738042421428314" pearlCount="13" transform="translate(178.33859703362975,146.02776894381228)"><circle class="pool" r="16.41555998959372" cx="16.41555998959372" cy="16.41555998959372" style="stroke-width: 1; fill: rgb(65, 182, 196);"></circle><circle class="pearl" r="2.1904339371426516" cx="21.528297064643475" cy="15.951556365746274"></circle><circle class="pearl" r="2.1904339371426516" cx="15.92296531628076" cy="21.569958124221056"></circle><circle class="pearl" r="2.1904339371426516" cx="16.201506676144074" cy="10.119241800196738"></circle><circle class="pearl" r="2.1904339371426516" cx="23.727554712898666" cy="23.63749440559436"></circle><circle class="pearl" r="2.1904339371426516" cx="10.557121237226687" cy="15.793506031677772"></circle><circle class="pearl" r="2.1904339371426516" cx="27.882370133928124" cy="10.017842076850227"></circle><circle class="pearl" r="2.1904339371426516" cx="10.173090279343947" cy="27.947135061627993"></circle><circle class="pearl" r="2.1904339371426516" cx="10.31047016111085" cy="4.828222713031446"></circle><circle class="pearl" r="2.1904339371426516" cx="29.11387107617413" cy="17.891936206534698"></circle><circle class="pearl" r="2.1904339371426516" cx="4.846370693933039" cy="21.699883091659295"></circle><circle class="pearl" r="2.1904339371426516" cx="21.99649873867996" cy="4.628545934129365"></circle><circle class="pearl" r="2.1904339371426516" cx="18.063600239977305" cy="29.097459731784735"></circle><circle class="pearl" r="2.1904339371426516" cx="4.805422382835205" cy="10.367689592780199"></circle></g><g class="bobaCup bright" cupRadius="16.348541178964634" width="32.69708235792927" height="32.69708235792927" pearlRadius="2.7380424214283132" pearlCount="13" transform="translate(78.54536976791502,269.0977019759323)"><circle class="pool" r="16.348541178964634" cx="16.348541178964634" cy="16.348541178964634" style="stroke-width: 1; fill: rgb(29, 145, 192);"></circle><circle class="pearl" r="2.1904339371426507" cx="21.423884775616422" cy="15.994567177323093"></circle><circle class="pearl" r="2.1904339371426507" cx="15.758825950198606" cy="21.52539322592951"></circle><circle class="pearl" r="2.1904339371426507" cx="16.140401424672003" cy="10.165661354907805"></circle><circle class="pearl" r="2.1904339371426507" cx="23.734948120797316" cy="23.646765624933085"></circle><circle class="pearl" r="2.1904339371426507" cx="10.439743939748775" cy="15.759339466014623"></circle><circle class="pearl" r="2.1904339371426507" cx="27.747699263068984" cy="9.962942447859996"></circle><circle class="pearl" r="2.1904339371426507" cx="10.091355281536504" cy="27.801540118300668"></circle><circle class="pearl" r="2.1904339371426507" cx="10.371810535243606" cy="4.782382680561944"></circle><circle class="pearl" r="2.1904339371426507" cx="28.979434038050083" cy="17.826301732798147"></circle><circle class="pearl" r="2.1904339371426507" cx="4.791757254972775" cy="21.613396798911353"></circle><circle class="pearl" r="2.1904339371426507" cx="21.852125212879653" cy="4.604935534150621"></circle><circle class="pearl" r="2.1904339371426507" cx="17.99318424901231" cy="28.96342423643301"></circle><circle class="pearl" r="2.1904339371426507" cx="4.846735964601076" cy="10.210489332787457"></circle></g><g class="bobaCup bright" cupRadius="16.177956153260695" width="32.35591230652139" height="32.35591230652139" pearlRadius="2.7380424214283137" pearlCount="13" transform="translate(303.8220438467393,50.44637650794327)"><circle class="pool" r="16.177956153260695" cx="16.177956153260695" cy="16.177956153260695" style="stroke-width: 1; fill: rgb(65, 182, 196);"></circle><circle class="pearl" r="2.190433937142651" cx="21.08069806611661" cy="16.600376446992456"></circle><circle class="pearl" r="2.190433937142651" cx="14.94192656407381" cy="21.461670687322236"></circle><circle class="pearl" r="2.190433937142651" cx="16.13253347648317" cy="10.566117126973964"></circle><circle class="pearl" r="2.190433937142651" cx="24.32692333578417" cy="23.914856626120713"></circle><circle class="pearl" r="2.190433937142651" cx="9.886525481260264" cy="15.48938470984405"></circle><circle class="pearl" r="2.190433937142651" cx="27.3185417870469" cy="9.624831140324018"></circle><circle class="pearl" r="2.190433937142651" cx="9.536278081240644" cy="27.278991385445185"></circle><circle class="pearl" r="2.190433937142651" cx="11.304600575322763" cy="4.402186886523365"></circle><circle class="pearl" r="2.190433937142651" cx="28.6554897382626" cy="17.445077872852856"></circle><circle class="pearl" r="2.190433937142651" cx="4.476980593289936" cy="21.282033895880655"></circle><circle class="pearl" r="2.190433937142651" cx="21.26866029933516" cy="4.472540655121675"></circle><circle class="pearl" r="2.190433937142651" cx="18.03294532532076" cy="28.598489268496888"></circle><circle class="pearl" r="2.190433937142651" cx="5.269769520825523" cy="9.123566813571511"></circle></g><g class="bobaCup bright" cupRadius="15.20074647315828" width="30.40149294631656" height="30.40149294631656" pearlRadius="2.7380424214283137" pearlCount="12" transform="translate(169.1852130151308,173.60300359290002)"><circle class="pool" r="15.20074647315828" cx="15.20074647315828" cy="15.20074647315828" style="stroke-width: 1; fill: rgb(29, 145, 192);"></circle><circle class="pearl" r="2.190433937142651" cx="16.944726656339267" cy="10.70440104259307"></circle><circle class="pearl" r="2.190433937142651" cx="10.838847661952533" cy="16.5130965180319"></circle><circle class="pearl" r="2.190433937142651" cx="13.828612476588733" cy="3.712779479761945"></circle><circle class="pearl" r="2.190433937142651" cx="18.271536376907164" cy="18.321286659437764"></circle><circle class="pearl" r="2.190433937142651" cx="3.7153017105558686" cy="13.801063693308235"></circle><circle class="pearl" r="2.190433937142651" cx="26.60855634024082" cy="13.12631297257595"></circle><circle class="pearl" r="2.190433937142651" cx="12.126761380142407" cy="26.43670551395635"></circle><circle class="pearl" r="2.190433937142651" cx="6.4643065718167065" cy="6.412124413834157"></circle><circle class="pearl" r="2.190433937142651" cx="25.605985175219335" cy="20.988028006473716"></circle><circle class="pearl" r="2.190433937142651" cx="5.41426172461636" cy="22.30737261507995"></circle><circle class="pearl" r="2.190433937142651" cx="23.29558165309742" cy="5.985377181043313"></circle><circle class="pearl" r="2.190433937142651" cx="20.013411662264545" cy="25.968793896719735"></circle></g><g class="bobaCup bright" cupRadius="14.413233865169017" width="28.826467730338035" height="28.826467730338035" pearlRadius="2.7380424214283137" pearlCount="10" transform="translate(159.59504672486275,5.9418358820343276)"><circle class="pool" r="14.413233865169017" cx="14.413233865169017" cy="14.413233865169017" style="stroke-width: 1; fill: rgb(29, 145, 192);"></circle><circle class="pearl" r="2.190433937142651" cx="18.01662457255219" cy="12.610191167171466"></circle><circle class="pearl" r="2.190433937142651" cx="11.071758182624965" cy="16.348132438550188"></circle><circle class="pearl" r="2.190433937142651" cx="14.613081517140632" cy="5.3833674222834835"></circle><circle class="pearl" r="2.190433937142651" cx="21.522211971359503" cy="23.300602227336906"></circle><circle class="pearl" r="2.190433937142651" cx="3.6914957141809204" cy="13.329875962564902"></circle><circle class="pearl" r="2.190433937142651" cx="22.57872923934789" cy="6.186836409570962"></circle><circle class="pearl" r="2.190433937142651" cx="13.768555781748741" cy="25.161319636678897"></circle><circle class="pearl" r="2.190433937142651" cx="6.638983761433201" cy="5.927139315730141"></circle><circle class="pearl" r="2.190433937142651" cx="25.06410694354282" cy="16.203667758178014"></circle><circle class="pearl" r="2.190433937142651" cx="6.243761460393802" cy="22.636896139842776"></circle></g><g class="bobaCup bright" cupRadius="14.19615917921008" width="28.39231835842016" height="28.39231835842016" pearlRadius="2.738042421428314" pearlCount="10" transform="translate(305.3784048927174,48.42187304370051)"><circle class="pool" r="14.19615917921008" cx="14.19615917921008" cy="14.19615917921008" style="stroke-width: 1; fill: rgb(29, 145, 192);"></circle><circle class="pearl" r="2.1904339371426516" cx="17.609767639679028" cy="12.179698999573501"></circle><circle class="pearl" r="2.1904339371426516" cx="11.088132377162777" cy="16.20438205398425"></circle><circle class="pearl" r="2.1904339371426516" cx="14.382115886972246" cy="4.822143956767706"></circle><circle class="pearl" r="2.1904339371426516" cx="21.47272030105021" cy="22.734881946318836"></circle><circle class="pearl" r="2.1904339371426516" cx="3.6766036161808135" cy="13.339342740413601"></circle><circle class="pearl" r="2.1904339371426516" cx="22.121461833721554" cy="6.068915126630143"></circle><circle class="pearl" r="2.1904339371426516" cx="13.754911304731612" cy="24.734735995205636"></circle><circle class="pearl" r="2.1904339371426516" cx="6.478675229129554" cy="5.931708178181326"></circle><circle class="pearl" r="2.1904339371426516" cx="24.679852575496103" cy="15.51873322871866"></circle><circle class="pearl" r="2.1904339371426516" cx="6.26376428787662" cy="22.31862781730869"></circle></g><g class="bobaCup bright" cupRadius="14.018217602986924" width="28.03643520597385" height="28.03643520597385" pearlRadius="2.738042421428314" pearlCount="10" transform="translate(256.66809593751503,71.00559081877273)"><circle class="pool" r="14.018217602986924" cx="14.018217602986924" cy="14.018217602986924" style="stroke-width: 1; fill: rgb(29, 145, 192);"></circle><circle class="pearl" r="2.1904339371426516" cx="17.241578899061142" cy="11.797911981326257"></circle><circle class="pearl" r="2.1904339371426516" cx="11.136747493914555" cy="16.133946753057796"></circle><circle class="pearl" r="2.1904339371426516" cx="14.158532456058103" cy="4.318731700504246"></circle><circle class="pearl" r="2.1904339371426516" cx="21.41261941791713" cy="22.276870788151754"></circle><circle class="pearl" r="2.1904339371426516" cx="3.665227610886785" cy="13.380690507178116"></circle><circle class="pearl" r="2.1904339371426516" cx="21.748567081108387" cy="5.974834550580413"></circle><circle class="pearl" r="2.1904339371426516" cx="13.723269663265283" cy="24.382608732762915"></circle><circle class="pearl" r="2.1904339371426516" cx="6.343458143570405" cy="5.938276229550622"></circle><circle class="pearl" r="2.1904339371426516" cx="24.35403337894691" cy="14.960104772144405"></circle><circle class="pearl" r="2.1904339371426516" cx="6.281848532991786" cy="22.05761919742415"></circle></g><g class="bobaCup bright" cupRadius="13.955021997034278" width="27.910043994068555" height="27.910043994068555" pearlRadius="2.738042421428314" pearlCount="10" transform="translate(247.77114674027123,285.76305801252283)"><circle class="pool" r="13.955021997034278" cx="13.955021997034278" cy="13.955021997034278" style="stroke-width: 1; fill: rgb(127, 205, 187);"></circle><circle class="pearl" r="2.1904339371426516" cx="17.092205137535334" cy="11.64448977609535"></circle><circle class="pearl" r="2.1904339371426516" cx="11.161913980286277" cy="16.12042064497794"></circle><circle class="pearl" r="2.1904339371426516" cx="14.085168112279499" cy="4.134352310713824"></circle><circle class="pearl" r="2.1904339371426516" cx="21.39079358804127" cy="22.113275853041007"></circle><circle class="pearl" r="2.1904339371426516" cx="3.6621227881904734" cy="13.391078506487014"></circle><circle class="pearl" r="2.1904339371426516" cx="21.616789176576628" cy="5.942128178385483"></circle><circle class="pearl" r="2.1904339371426516" cx="13.709690191485903" cy="24.25716411013753"></circle><circle class="pearl" r="2.1904339371426516" cx="6.307805898900271" cy="5.932582634167229"></circle><circle class="pearl" r="2.1904339371426516" cx="24.236568947740434" cy="14.751568661914995"></circle><circle class="pearl" r="2.1904339371426516" cx="6.288434062634504" cy="21.96474766127287"></circle></g><g class="bobaCup bright" cupRadius="13.866540419404224" width="27.733080838808448" height="27.733080838808448" pearlRadius="2.7380424214283137" pearlCount="10" transform="translate(302.840262373624,44.37205597748057)"><circle class="pool" r="13.866540419404224" cx="13.866540419404224" cy="13.866540419404224" style="stroke-width: 1; fill: rgb(127, 205, 187);"></circle><circle class="pearl" r="2.190433937142651" cx="16.859966224999667" cy="11.408546029665883"></circle><circle class="pearl" r="2.190433937142651" cx="11.206730382340988" cy="16.113986092864106"></circle><circle class="pearl" r="2.190433937142651" cx="13.991498095505033" cy="3.867822221980176"></circle><circle class="pearl" r="2.190433937142651" cx="21.358172110458554" cy="21.884424554548893"></circle><circle class="pearl" r="2.190433937142651" cx="3.6585668907004525" cy="13.400206426572437"></circle><circle class="pearl" r="2.190433937142651" cx="21.4341449929648" cy="5.897784132041899"></circle><circle class="pearl" r="2.190433937142651" cx="13.686626826032331" cy="24.081190402611142"></circle><circle class="pearl" r="2.190433937142651" cx="6.27265360025108" cy="5.91494378594499"></circle><circle class="pearl" r="2.190433937142651" cx="24.070078573932793" cy="14.449965420346706"></circle><circle class="pearl" r="2.190433937142651" cx="6.296327841322796" cy="21.83359773298614"></circle></g><g class="bobaCup bright" cupRadius="13.836613761094775" width="27.67322752218955" height="27.67322752218955" pearlRadius="2.7380424214283137" pearlCount="10" transform="translate(97.8162075412576,130.2905727559865)"><circle class="pool" r="13.836613761094775" cx="13.836613761094775" cy="13.836613761094775" style="stroke-width: 1; fill: rgb(29, 145, 192);"></circle><circle class="pearl" r="2.190433937142651" cx="16.773968214975213" cy="11.3219599242499"></circle><circle class="pearl" r="2.190433937142651" cx="11.226761472013575" cy="16.117324973110655"></circle><circle class="pearl" r="2.190433937142651" cx="13.960362794587827" cy="3.7864375034458617"></circle><circle class="pearl" r="2.190433937142651" cx="21.34596082515354" cy="21.80749055339987"></circle><circle class="pearl" r="2.190433937142651" cx="3.6573973808663407" cy="13.40690363708618"></circle><circle class="pearl" r="2.190433937142651" cx="21.373117209012523" cy="5.883329227119285"></circle><circle class="pearl" r="2.190433937142651" cx="13.677027221811697" cy="24.02158395606401"></circle><circle class="pearl" r="2.190433937142651" cx="6.260461026422035" cy="5.909176940909061"></circle><circle class="pearl" r="2.190433937142651" cx="24.013139975337165" cy="14.345586471494567"></circle><circle class="pearl" r="2.190433937142651" cx="6.298256306910114" cy="21.788693955259756"></circle></g><g class="bobaCup bright" cupRadius="13.689193649533504" width="27.378387299067008" height="27.378387299067008" pearlRadius="2.7380424214283137" pearlCount="9" transform="translate(278.4757983578019,124.56260797229541)"><circle class="pool" r="13.689193649533504" cx="13.689193649533504" cy="13.689193649533504" style="stroke-width: 1; fill: rgb(29, 145, 192);"></circle><circle class="pearl" r="2.190433937142651" cx="17.025462267184025" cy="12.014159346032855"></circle><circle class="pearl" r="2.190433937142651" cx="10.610498488657823" cy="15.975480009143116"></circle><circle class="pearl" r="2.190433937142651" cx="13.799483909955017" cy="3.651167525702647"></circle><circle class="pearl" r="2.190433937142651" cx="18.95572454877512" cy="22.67404223476498"></circle><circle class="pearl" r="2.190433937142651" cx="3.6610379553936294" cy="13.157880001824111"></circle><circle class="pearl" r="2.190433937142651" cx="21.205800689761315" cy="5.898997274452698"></circle><circle class="pearl" r="2.190433937142651" cx="11.081291309898765" cy="23.476955014150597"></circle><circle class="pearl" r="2.190433937142651" cx="6.193342384366679" cy="5.88538779197777"></circle><circle class="pearl" r="2.190433937142651" cx="23.47552904193981" cy="16.30443329263422"></circle></g><g class="bobaCup bright" cupRadius="13.554024323832783" width="27.108048647665566" height="27.108048647665566" pearlRadius="2.738042421428314" pearlCount="9" transform="translate(148.05319980107146,196.15319812279364)"><circle class="pool" r="13.554024323832783" cx="13.554024323832783" cy="13.554024323832783" style="stroke-width: 1; fill: rgb(127, 205, 187);"></circle><circle class="pearl" r="2.1904339371426516" cx="16.670790130818176" cy="11.728501920318793"></circle><circle class="pearl" r="2.1904339371426516" cx="10.506890196836775" cy="15.900950197824246"></circle><circle class="pearl" r="2.1904339371426516" cx="13.621362353087397" cy="3.6508905013328783"></circle><circle class="pearl" r="2.1904339371426516" cx="19.061351728669514" cy="22.28800618771283"></circle><circle class="pearl" r="2.1904339371426516" cx="3.6560746690386954" cy="13.17318515749613"></circle><circle class="pearl" r="2.1904339371426516" cx="20.943376860339885" cy="5.842131460047902"></circle><circle class="pearl" r="2.1904339371426516" cx="11.231637316582948" cy="23.256880913408136"></circle><circle class="pearl" r="2.1904339371426516" cx="6.067804754774853" cy="5.9057169773985585"></circle><circle class="pearl" r="2.1904339371426516" cx="23.280365896557445" cy="15.737075553874156"></circle></g><g class="bobaCup bright" cupRadius="13.535098771462534" width="27.07019754292507" height="27.07019754292507" pearlRadius="2.7380424214283137" pearlCount="9" transform="translate(102.79438891811463,36.18074320376025)"><circle class="pool" r="13.535098771462534" cx="13.535098771462534" cy="13.535098771462534" style="stroke-width: 1; fill: rgb(127, 205, 187);"></circle><circle class="pearl" r="2.190433937142651" cx="16.5742298518974" cy="11.669564215515964"></circle><circle class="pearl" r="2.190433937142651" cx="10.469307685003677" cy="15.92562303072953"></circle><circle class="pearl" r="2.190433937142651" cx="13.60936491444255" cy="3.65092697667812"></circle><circle class="pearl" r="2.190433937142651" cx="19.169554497479176" cy="22.190951322725777"></circle><circle class="pearl" r="2.190433937142651" cx="3.6559003134807266" cy="13.160775503427622"></circle><circle class="pearl" r="2.190433937142651" cx="20.912929757636984" cy="5.83828884552419"></circle><circle class="pearl" r="2.190433937142651" cx="11.35576555703133" cy="23.242871172778955"></circle><circle class="pearl" r="2.190433937142651" cx="6.065155195862388" cy="5.8987124616887066"></circle><circle class="pearl" r="2.190433937142651" cx="23.267233373313783" cy="15.559454235295473"></circle></g><g class="bobaCup bright" cupRadius="13.241021822909634" width="26.482043645819267" height="26.482043645819267" pearlRadius="2.7380424214283137" pearlCount="9" transform="translate(48.74826761471964,157.46915422534008)"><circle class="pool" r="13.241021822909634" cx="13.241021822909634" cy="13.241021822909634" style="stroke-width: 1; fill: rgb(127, 205, 187);"></circle><circle class="pearl" r="2.190433937142651" cx="15.24917607998696" cy="11.232767659578903"></circle><circle class="pearl" r="2.190433937142651" cx="9.83317005592129" cy="16.640417380743298"></circle><circle class="pearl" r="2.190433937142651" cx="13.307770077777446" cy="3.6508914692813725"></circle><circle class="pearl" r="2.190433937142651" cx="20.56003243375977" cy="20.62464237152042"></circle><circle class="pearl" r="2.190433937142651" cx="3.651643952994503" cy="13.08487504377774"></circle><circle class="pearl" r="2.190433937142651" cx="20.44799898757879" cy="5.783903719218788"></circle><circle class="pearl" r="2.190433937142651" cx="13.369496920726306" cy="22.830697117948407"></circle><circle class="pearl" r="2.190433937142651" cx="6.006253958150509" cy="5.801984330084705"></circle><circle class="pearl" r="2.190433937142651" cx="22.831298744799103" cy="13.217064981031177"></circle></g><g class="bobaCup bright" cupRadius="13.107741021251764" width="26.215482042503528" height="26.215482042503528" pearlRadius="2.738042421428314" pearlCount="9" transform="translate(45.87815221784391,6.892258978748236)"><circle class="pool" r="13.107741021251764" cx="13.107741021251764" cy="13.107741021251764" style="stroke-width: 1; fill: rgb(127, 205, 187);"></circle><circle class="pearl" r="2.1904339371426516" cx="15.045508503772881" cy="11.177015808179686"></circle><circle class="pearl" r="2.1904339371426516" cx="9.65453158770924" cy="16.550136185764732"></circle><circle class="pearl" r="2.1904339371426516" cx="13.16911262792397" cy="3.6508669030128442"></circle><circle class="pearl" r="2.1904339371426516" cx="20.305148316080906" cy="20.41193462999836"></circle><circle class="pearl" r="2.1904339371426516" cx="3.6511930883291375" cy="12.99675733199287"></circle><circle class="pearl" r="2.1904339371426516" cx="20.192463457211478" cy="5.730337360563038"></circle><circle class="pearl" r="2.1904339371426516" cx="13.182864828598053" cy="22.564543535313266"></circle><circle class="pearl" r="2.1904339371426516" cx="5.987234463504942" cy="5.753408091797542"></circle><circle class="pearl" r="2.1904339371426516" cx="22.56475105621732" cy="13.122001883119527"></circle></g><g class="bobaCup bright" cupRadius="12.709453401804087" width="25.418906803608174" height="25.418906803608174" pearlRadius="2.7380424214283137" pearlCount="8" transform="translate(253.12058049500698,67.24082339605218)"><circle class="pool" r="12.709453401804087" cx="12.709453401804087" cy="12.709453401804087" style="stroke-width: 1; fill: rgb(65, 182, 196);"></circle><circle class="pearl" r="2.190433937142651" cx="14.197457850987405" cy="12.858358273212197"></circle><circle class="pearl" r="2.190433937142651" cx="6.780073293828292" cy="19.42671312627732"></circle><circle class="pearl" r="2.190433937142651" cx="15.143973379215955" cy="3.88607072044271"></circle><circle class="pearl" r="2.190433937142651" cx="21.00230270646863" cy="17.054712993125293"></circle><circle class="pearl" r="2.190433937142651" cx="3.6671364341354167" cy="12.063747315979194"></circle><circle class="pearl" r="2.190433937142651" cx="21.233942400288882" cy="9.063302966238044"></circle><circle class="pearl" r="2.190433937142651" cx="14.459621421640604" cy="21.647102493551902"></circle><circle class="pearl" r="2.190433937142651" cx="7.21426838701278" cy="4.9001091163575285"></circle></g><g class="bobaCup bright" cupRadius="12.600422158763081" width="25.200844317526162" height="25.200844317526162" pearlRadius="2.7380424214283137" pearlCount="8" transform="translate(163.0309802866463,100.82328975944891)"><circle class="pool" r="12.600422158763081" cx="12.600422158763081" cy="12.600422158763081" style="stroke-width: 1; fill: rgb(29, 145, 192);"></circle><circle class="pearl" r="2.190433937142651" cx="13.96933314541813" cy="12.828559696798214"></circle><circle class="pearl" r="2.190433937142651" cx="6.191703868365489" cy="19.694493015805893"></circle><circle class="pearl" r="2.190433937142651" cx="15.051262938054439" cy="3.891371196289647"></circle><circle class="pearl" r="2.190433937142651" cx="20.703934582994446" cy="17.140089855570356"></circle><circle class="pearl" r="2.190433937142651" cx="3.660224703325385" cy="12.1111830474407"></circle><circle class="pearl" r="2.190433937142651" cx="21.069487889220586" cy="9.153488134495088"></circle><circle class="pearl" r="2.190433937142651" cx="13.98593605783542" cy="21.47371545104205"></circle><circle class="pearl" r="2.190433937142651" cx="7.1209602390367035" cy="4.904509954338348"></circle></g><g class="bobaCup bright" cupRadius="12.467753288134913" width="24.935506576269827" height="24.935506576269827" pearlRadius="2.738042421428314" pearlCount="8" transform="translate(303.24794681547127,67.4850554478159)"><circle class="pool" r="12.467753288134913" cx="12.467753288134913" cy="12.467753288134913" style="stroke-width: 1; fill: rgb(127, 205, 187);"></circle><circle class="pearl" r="2.1904339371426516" cx="13.65943792234469" cy="12.769970363175595"></circle><circle class="pearl" r="2.1904339371426516" cx="5.7083245246135235" cy="19.2934318676599"></circle><circle class="pearl" r="2.1904339371426516" cx="15.266472611347016" cy="3.968906886316694"></circle><circle class="pearl" r="2.1904339371426516" cx="20.2591427794421" cy="17.419816349062025"></circle><circle class="pearl" r="2.1904339371426516" cx="3.6733339450214673" cy="11.717221194054805"></circle><circle class="pearl" r="2.1904339371426516" cx="20.9195885417049" cy="9.4722649739941"></circle><circle class="pearl" r="2.1904339371426516" cx="13.355499260694272" cy="21.253137937111514"></circle><circle class="pearl" r="2.1904339371426516" cx="7.362806070259131" cy="4.743750763682268"></circle></g><g class="bobaCup bright" cupRadius="12.411850194338713" width="24.823700388677427" height="24.823700388677427" pearlRadius="2.7380424214283137" pearlCount="8" transform="translate(121.88369657989946,114.02794198109879)"><circle class="pool" r="12.411850194338713" cx="12.411850194338713" cy="12.411850194338713" style="stroke-width: 1; fill: rgb(29, 145, 192);"></circle><circle class="pearl" r="2.190433937142651" cx="13.562156360014047" cy="12.723618711777723"></circle><circle class="pearl" r="2.190433937142651" cx="5.70872237043408" cy="19.207279493042993"></circle><circle class="pearl" r="2.190433937142651" cx="15.18159625526243" cy="3.963708517279043"></circle><circle class="pearl" r="2.190433937142651" cx="20.147750642544754" cy="17.35136702194084"></circle><circle class="pearl" r="2.190433937142651" cx="3.671278139958144" cy="11.697828865941553"></circle><circle class="pearl" r="2.190433937142651" cx="20.80616515765866" cy="9.416674038819252"></circle><circle class="pearl" r="2.190433937142651" cx="13.290155101028395" cy="21.141862232204385"></circle><circle class="pearl" r="2.190433937142651" cx="7.305312693809215" cy="4.749868176047229"></circle></g><g class="bobaCup bright" cupRadius="12.323275519451123" width="24.646551038902246" height="24.646551038902246" pearlRadius="2.738042421428314" pearlCount="8" transform="translate(86.31289477894981,11.379657979244264)"><circle class="pool" r="12.323275519451123" cx="12.323275519451123" cy="12.323275519451123" style="stroke-width: 1; fill: rgb(65, 182, 196);"></circle><circle class="pearl" r="2.1904339371426516" cx="13.415153749046354" cy="12.642552511745535"></circle><circle class="pearl" r="2.1904339371426516" cx="5.71678685678204" cy="19.075312841730383"></circle><circle class="pearl" r="2.1904339371426516" cx="14.997951436187394" cy="3.944483867166275"></circle><circle class="pearl" r="2.1904339371426516" cx="19.990630066410063" cy="17.198132952787677"></circle><circle class="pearl" r="2.1904339371426516" cx="3.666634889646913" cy="11.697244860568563"></circle><circle class="pearl" r="2.1904339371426516" cx="20.61397415515893" cy="9.279336724464379"></circle><circle class="pearl" r="2.1904339371426516" cx="13.217271989587003" cy="20.96335738410676"></circle><circle class="pearl" r="2.1904339371426516" cx="7.170228279169633" cy="4.7798384995832635"></circle></g><g class="bobaCup bright" cupRadius="12.084413928628472" width="24.168827857256943" height="24.168827857256943" pearlRadius="2.738042421428314" pearlCount="7" transform="translate(47.856278139968815,266.6953016640853)"><circle class="pool" r="12.084413928628472" cx="12.084413928628472" cy="12.084413928628472" style="stroke-width: 1; fill: rgb(65, 182, 196);"></circle><circle class="pearl" r="2.1904339371426516" cx="13.487743920241405" cy="12.400626739504988"></circle><circle class="pearl" r="2.1904339371426516" cx="5.272178506776459" cy="14.83936506607284"></circle><circle class="pearl" r="2.1904339371426516" cx="12.164623979318977" cy="3.6509894277898387"></circle><circle class="pearl" r="2.1904339371426516" cx="18.694600800878707" cy="18.46773468676783"></circle><circle class="pearl" r="2.1904339371426516" cx="4.8403280722868764" cy="6.856011208702056"></circle><circle class="pearl" r="2.1904339371426516" cx="19.41030141203995" cy="7.030002263951811"></circle><circle class="pearl" r="2.1904339371426516" cx="10.953052595656024" cy="20.465028179019757"></circle></g><g class="bobaCup bright" cupRadius="12.036525902365952" width="24.073051804731904" height="24.073051804731904" pearlRadius="2.7380424214283137" pearlCount="7" transform="translate(298.40547695201326,13.833535362353963)"><circle class="pool" r="12.036525902365952" cx="12.036525902365952" cy="12.036525902365952" style="stroke-width: 1; fill: rgb(127, 205, 187);"></circle><circle class="pearl" r="2.190433937142651" cx="13.347881969153901" cy="12.361360327817316"></circle><circle class="pearl" r="2.190433937142651" cx="5.0884433477236515" cy="14.852802657477827"></circle><circle class="pearl" r="2.190433937142651" cx="12.141324430319361" cy="3.6511794623589555"></circle><circle class="pearl" r="2.190433937142651" cx="18.62030167877288" cy="18.371585958547783"></circle><circle class="pearl" r="2.190433937142651" cx="4.819629748428316" cy="6.862281536736585"></circle><circle class="pearl" r="2.190433937142651" cx="19.358907515611975" cy="7.089918385206696"></circle><circle class="pearl" r="2.190433937142651" cx="10.878117004742807" cy="20.366455603591056"></circle></g><g class="bobaCup bright" cupRadius="11.64845481068404" width="23.29690962136808" height="23.29690962136808" pearlRadius="2.738042421428314" pearlCount="7" transform="translate(277.28584636638965,66.79753294849534)"><circle class="pool" r="11.64845481068404" cx="11.64845481068404" cy="11.64845481068404" style="stroke-width: 1; fill: rgb(127, 205, 187);"></circle><circle class="pearl" r="2.1904339371426516" cx="12.062783780197286" cy="11.757373531770126"></circle><circle class="pearl" r="2.1904339371426516" cx="4.067304381424641" cy="14.735769762398855"></circle><circle class="pearl" r="2.1904339371426516" cx="12.085325747653762" cy="3.658918451901441"></circle><circle class="pearl" r="2.1904339371426516" cx="18.118556921814783" cy="17.415203801215668"></circle><circle class="pearl" r="2.1904339371426516" cx="4.722268701145241" cy="6.7683433027416156"></circle><circle class="pearl" r="2.1904339371426516" cx="18.965842021503608" cy="7.725821401113635"></circle><circle class="pearl" r="2.1904339371426516" cx="10.423626982905846" cy="19.58161246327054"></circle></g><g class="bobaCup bright" cupRadius="11.538930067412569" width="23.077860134825137" height="23.077860134825137" pearlRadius="2.738042421428314" pearlCount="7" transform="translate(107.20953742470783,200.76259353344275)"><circle class="pool" r="11.538930067412569" cx="11.538930067412569" cy="11.538930067412569" style="stroke-width: 1; fill: rgb(29, 145, 192);"></circle><circle class="pearl" r="2.1904339371426516" cx="11.732419361148045" cy="11.57484186713503"></circle><circle class="pearl" r="2.1904339371426516" cx="4.037040378152682" cy="14.499695543715541"></circle><circle class="pearl" r="2.1904339371426516" cx="12.215697165845654" cy="3.6705867801970435"></circle><circle class="pearl" r="2.1904339371426516" cx="18.010249966439037" cy="17.078889455683655"></circle><circle class="pearl" r="2.1904339371426516" cx="4.78763880330275" cy="6.544432936099518"></circle><circle class="pearl" r="2.1904339371426516" cx="18.874855720378083" cy="8.011827367678912"></circle><circle class="pearl" r="2.1904339371426516" cx="10.32727126254102" cy="19.363344748305362"></circle></g><g class="bobaCup bright" cupRadius="11.433324933665393" width="22.866649867330786" height="22.866649867330786" pearlRadius="2.7380424214283146" pearlCount="7" transform="translate(34.60814543492296,253.37994866665213)"><circle class="pool" r="11.433324933665393" cx="11.433324933665393" cy="11.433324933665393" style="stroke-width: 1; fill: rgb(29, 145, 192);"></circle><circle class="pearl" r="2.1904339371426516" cx="11.468618581495384" cy="11.449786550065053"></circle><circle class="pearl" r="2.1904339371426516" cx="3.9910122286309706" cy="14.201983961879543"></circle><circle class="pearl" r="2.1904339371426516" cx="12.391268666170342" cy="3.6909246728623186"></circle><circle class="pearl" r="2.1904339371426516" cx="17.88263916967232" cy="16.791511404188356"></circle><circle class="pearl" r="2.1904339371426516" cx="4.884144079356463" cy="6.267777940478483"></circle><circle class="pearl" r="2.1904339371426516" cx="18.781264151604606" cy="8.310770942699211"></circle><circle class="pearl" r="2.1904339371426516" cx="10.133279972855044" cy="19.141774304304445"></circle></g><g class="bobaCup bright" cupRadius="11.293474623208198" width="22.586949246416395" height="22.586949246416395" pearlRadius="2.7380424214283137" pearlCount="6" transform="translate(119.05217305044656,102.34916574346201)"><circle class="pool" r="11.293474623208198" cx="11.293474623208198" cy="11.293474623208198" style="stroke-width: 1; fill: rgb(65, 182, 196);"></circle><circle class="pearl" r="2.190433937142651" cx="11.757255086750662" cy="11.43031861782878"></circle><circle class="pearl" r="2.190433937142651" cx="6.261527344297745" cy="17.23626273977459"></circle><circle class="pearl" r="2.190433937142651" cx="9.28802816882829" cy="3.8302087576842823"></circle><circle class="pearl" r="2.190433937142651" cx="17.241625165933822" cy="17.242859424556382"></circle><circle class="pearl" r="2.190433937142651" cx="3.775729996903385" cy="9.617797196120478"></circle><circle class="pearl" r="2.190433937142651" cx="17.241254320308787" cy="5.343860058773998"></circle></g><g class="bobaCup bright" cupRadius="10.683981879806314" width="21.36796375961263" height="21.36796375961263" pearlRadius="2.7380424214283137" pearlCount="6" transform="translate(25.99071335853122,249.34777521896126)"><circle class="pool" r="10.683981879806314" cx="10.683981879806314" cy="10.683981879806314" style="stroke-width: 1; fill: rgb(127, 205, 187);"></circle><circle class="pearl" r="2.190433937142651" cx="11.007644112510366" cy="10.971445610199494"></circle><circle class="pearl" r="2.190433937142651" cx="5.296336316507427" cy="16.259349052499214"></circle><circle class="pearl" r="2.190433937142651" cx="8.801374130434452" cy="3.8178968059486316"></circle><circle class="pearl" r="2.190433937142651" cx="16.05277554923252" cy="16.270331961713975"></circle><circle class="pearl" r="2.190433937142651" cx="3.796568868951045" cy="8.924677071844194"></circle><circle class="pearl" r="2.190433937142651" cx="16.17087991114989" cy="5.167294416057148"></circle></g><g class="bobaCup bright" cupRadius="10.626449771605607" width="21.252899543211214" height="21.252899543211214" pearlRadius="2.738042421428314" pearlCount="6" transform="translate(158.0650598653056,129.36366594973356)"><circle class="pool" r="10.626449771605607" cx="10.626449771605607" cy="10.626449771605607" style="stroke-width: 1; fill: rgb(127, 205, 187);"></circle><circle class="pearl" r="2.1904339371426516" cx="10.960885410383836" cy="10.918461357617794"></circle><circle class="pearl" r="2.1904339371426516" cx="5.296875968767143" cy="16.169043562943866"></circle><circle class="pearl" r="2.1904339371426516" cx="8.736627907851371" cy="3.8201175794699"></circle><circle class="pearl" r="2.1904339371426516" cx="15.93831174828657" cy="16.17928873868181"></circle><circle class="pearl" r="2.1904339371426516" cx="3.793476940402743" cy="8.890491340439407"></circle><circle class="pearl" r="2.1904339371426516" cx="16.059385439055344" cy="5.144558654776501"></circle></g><g class="bobaCup bright" cupRadius="10.61750980802012" width="21.23501961604024" height="21.23501961604024" pearlRadius="2.7380424214283137" pearlCount="6" transform="translate(283.0720862144043,99.5010891913007)"><circle class="pool" r="10.61750980802012" cx="10.61750980802012" cy="10.61750980802012" style="stroke-width: 1; fill: rgb(127, 205, 187);"></circle><circle class="pearl" r="2.190433937142651" cx="10.9536508511062" cy="10.910205554000202"></circle><circle class="pearl" r="2.190433937142651" cx="5.296963830956866" cy="16.15500213141338"></circle><circle class="pearl" r="2.190433937142651" cx="8.72653525960179" cy="3.820471085788654"></circle><circle class="pearl" r="2.190433937142651" cx="15.920520260016978" cy="16.165133967399523"></circle><circle class="pearl" r="2.190433937142651" cx="3.7929922657239743" cy="8.885214995996378"></circle><circle class="pearl" r="2.190433937142651" cx="16.042047462064335" cy="5.141026138352297"></circle></g><g class="bobaCup bright" cupRadius="10.292471412059104" width="20.584942824118208" height="20.584942824118208" pearlRadius="2.738042421428314" pearlCount="5" transform="translate(247.83131969040016,53.01023147451119)"><circle class="pool" r="10.292471412059104" cx="10.292471412059104" cy="10.292471412059104" style="stroke-width: 1; fill: rgb(29, 145, 192);"></circle><circle class="pearl" r="2.1904339371426516" cx="16.63645793023078" cy="7.8346787343868876"></circle><circle class="pearl" r="2.1904339371426516" cx="7.1999485496423015" cy="16.07876425393726"></circle><circle class="pearl" r="2.1904339371426516" cx="9.817854754807229" cy="3.6616720492669352"></circle><circle class="pearl" r="2.1904339371426516" cx="15.185878709842708" cy="15.696555347975405"></circle><circle class="pearl" r="2.1904339371426516" cx="3.7499650428857056" cy="8.866624949174774"></circle></g><g class="bobaCup bright" cupRadius="10.184357509223014" width="20.36871501844603" height="20.36871501844603" pearlRadius="2.738042421428314" pearlCount="5" transform="translate(230.4870393263948,99.3060305690171)"><circle class="pool" r="10.184357509223014" cx="10.184357509223014" cy="10.184357509223014" style="stroke-width: 1; fill: rgb(65, 182, 196);"></circle><circle class="pearl" r="2.1904339371426516" cx="16.34971344412062" cy="7.470370086226552"></circle><circle class="pearl" r="2.1904339371426516" cx="7.331541255017591" cy="16.310268532551124"></circle><circle class="pearl" r="2.1904339371426516" cx="9.372992575124496" cy="3.683094487833824"></circle><circle class="pearl" r="2.1904339371426516" cx="15.265703691914366" cy="15.359791929783018"></circle><circle class="pearl" r="2.1904339371426516" cx="3.694850295661537" cy="9.237328229783756"></circle></g><g class="bobaCup bright" cupRadius="10.174229895280412" width="20.348459790560824" height="20.348459790560824" pearlRadius="2.738042421428314" pearlCount="5" transform="translate(115.29300310605873,120.05713941932112)"><circle class="pool" r="10.174229895280412" cx="10.174229895280412" cy="10.174229895280412" style="stroke-width: 1; fill: rgb(127, 205, 187);"></circle><circle class="pearl" r="2.1904339371426516" cx="16.315341621886663" cy="7.411093602481074"></circle><circle class="pearl" r="2.1904339371426516" cx="7.385300931876814" cy="16.30802654246747"></circle><circle class="pearl" r="2.1904339371426516" cx="9.31348774867493" cy="3.687198100224489"></circle><circle class="pearl" r="2.1904339371426516" cx="15.300985722026997" cy="15.311642342433593"></circle><circle class="pearl" r="2.1904339371426516" cx="3.6900016760232988" cy="9.281082028360963"></circle></g><g class="bobaCup bright" cupRadius="9.86581326054869" width="19.73162652109738" height="19.73162652109738" pearlRadius="2.7380424214283137" pearlCount="5" transform="translate(238.81612956871464,103.36980785197599)"><circle class="pool" r="9.86581326054869" cx="9.86581326054869" cy="9.86581326054869" style="stroke-width: 1; fill: rgb(127, 205, 187);"></circle><circle class="pearl" r="2.190433937142651" cx="15.681353317478926" cy="7.0865812260492165"></circle><circle class="pearl" r="2.190433937142651" cx="6.953498345795929" cy="15.64126068231738"></circle><circle class="pearl" r="2.190433937142651" cx="9.029727246868976" cy="3.6862144460864172"></circle><circle class="pearl" r="2.190433937142651" cx="14.725125607344797" cy="14.801204101118152"></circle><circle class="pearl" r="2.190433937142651" cx="3.6983268172407993" cy="8.897810093694105"></circle></g><g class="bobaCup bright" cupRadius="9.483053647520158" width="18.966107295040317" height="18.966107295040317" pearlRadius="2.738042421428314" pearlCount="4" transform="translate(26.129172723577604,256.819705425628)"><circle class="pool" r="9.483053647520158" cx="9.483053647520158" cy="9.483053647520158" style="stroke-width: 1; fill: rgb(29, 145, 192);"></circle><circle class="pearl" r="2.1904339371426516" cx="14.84316556709087" cy="6.601111655546766"></circle><circle class="pearl" r="2.1904339371426516" cx="5.678216748388987" cy="12.415602846497395"></circle><circle class="pearl" r="2.1904339371426516" cx="7.31773758903784" cy="3.901241317068252"></circle><circle class="pearl" r="2.1904339371426516" cx="13.405922637005993" cy="14.465951059970763"></circle></g><g class="bobaCup bright" cupRadius="9.020045906486875" width="18.04009181297375" height="18.04009181297375" pearlRadius="2.7380424214283137" pearlCount="4" transform="translate(161.07592179489666,94.08453552229196)"><circle class="pool" r="9.020045906486875" cx="9.020045906486875" cy="9.020045906486875" style="stroke-width: 1; fill: rgb(127, 205, 187);"></circle><circle class="pearl" r="2.190433937142651" cx="13.731652045845639" cy="5.638821912518335"></circle><circle class="pearl" r="2.190433937142651" cx="4.896528048858433" cy="12.157579972670145"></circle><circle class="pearl" r="2.190433937142651" cx="5.86325991064134" cy="4.221157881777479"></circle><circle class="pearl" r="2.190433937142651" cx="12.764920184065625" cy="13.575244003413594"></circle></g><g class="bobaCup bright" cupRadius="8.996183367886161" width="17.992366735772322" height="17.992366735772322" pearlRadius="2.7380424214283137" pearlCount="4" transform="translate(18.18648453017788,33.41450947224521)"><circle class="pool" r="8.996183367886161" cx="8.996183367886161" cy="8.996183367886161" style="stroke-width: 1; fill: rgb(65, 182, 196);"></circle><circle class="pearl" r="2.190433937142651" cx="13.671834874330045" cy="5.589895217900021"></circle><circle class="pearl" r="2.190433937142651" cx="4.85108375851174" cy="12.180523574991435"></circle><circle class="pearl" r="2.190433937142651" cx="5.7913750736227" cy="4.240925452911197"></circle><circle class="pearl" r="2.190433937142651" cx="12.731543559221135" cy="13.529493339982185"></circle></g><g class="bobaCup bright" cupRadius="8.618411737541095" width="17.23682347508219" height="17.23682347508219" pearlRadius="2.7380424214283137" pearlCount="4" transform="translate(248.91967359601333,251.03880717324884)"><circle class="pool" r="8.618411737541095" cx="8.618411737541095" cy="8.618411737541095" style="stroke-width: 1; fill: rgb(29, 145, 192);"></circle><circle class="pearl" r="2.190433937142651" cx="12.605048606834867" cy="4.6282091485051495"></circle><circle class="pearl" r="2.190433937142651" cx="4.631773396140426" cy="12.608613558508203"></circle><circle class="pearl" r="2.190433937142651" cx="4.631775535363243" cy="4.628208800438867"></circle><circle class="pearl" r="2.190433937142651" cx="12.605046467609785" cy="12.608615442712818"></circle></g><g class="bobaCup bright" cupRadius="8.612817417964079" width="17.225634835928158" height="17.225634835928158" pearlRadius="2.7380424214283132" pearlCount="4" transform="translate(72.72093295827895,96.33963436615564)"><circle class="pool" r="8.612817417964079" cx="8.612817417964079" cy="8.612817417964079" style="stroke-width: 1; fill: rgb(127, 205, 187);"></circle><circle class="pearl" r="2.1904339371426507" cx="12.594174909928679" cy="4.626170916296696"></circle><circle class="pearl" r="2.1904339371426507" cx="4.6314566785123885" cy="12.599462226716984"></circle><circle class="pearl" r="2.1904339371426507" cx="4.6314613983096296" cy="4.626170148782241"></circle><circle class="pearl" r="2.1904339371426507" cx="12.594170190120415" cy="12.599466380063586"></circle></g><g class="bobaCup bright" cupRadius="8.004427646677252" width="16.008855293354504" height="16.008855293354504" pearlRadius="2.738042421428314" pearlCount="3" transform="translate(12.146420167495334,177.4371608047774)"><circle class="pool" r="8.004427646677252" cx="8.004427646677252" cy="8.004427646677252" style="stroke-width: 1; fill: rgb(29, 145, 192);"></circle><circle class="pearl" r="2.1904339371426516" cx="12.186273892458958" cy="9.654190472154895"></circle><circle class="pearl" r="2.1904339371426516" cx="4.47413339906276" cy="11.537567200492198"></circle><circle class="pearl" r="2.1904339371426516" cx="6.8341671942208295" cy="3.736732319481813"></circle></g><g class="bobaCup bright" cupRadius="8.00221823163184" width="16.00443646326368" height="16.00443646326368" pearlRadius="2.7380424214283137" pearlCount="3" transform="translate(178.62259688598812,116.39598175142888)"><circle class="pool" r="8.00221823163184" cx="8.00221823163184" cy="8.00221823163184" style="stroke-width: 1; fill: rgb(65, 182, 196);"></circle><circle class="pearl" r="2.190433937142651" cx="12.184704130459053" cy="9.638167923127577"></circle><circle class="pearl" r="2.190433937142651" cx="4.473518789603225" cy="11.533679689803915"></circle><circle class="pearl" r="2.190433937142651" cx="6.810688484969065" cy="3.7399298028452312"></circle></g><g class="bobaCup bright" cupRadius="7.7053196002346915" width="15.410639200469383" height="15.410639200469383" pearlRadius="2.7380424214283137" pearlCount="3" transform="translate(258.7929827777205,50.80302133850404)"><circle class="pool" r="7.7053196002346915" cx="7.7053196002346915" cy="7.7053196002346915" style="stroke-width: 1; fill: rgb(65, 182, 196);"></circle><circle class="pearl" r="2.190433937142651" cx="11.68828011937379" cy="8.753566985972581"></circle><circle class="pearl" r="2.190433937142651" cx="4.501831769454424" cy="11.062421701950003"></circle><circle class="pearl" r="2.190433937142651" cx="5.655142769343402" cy="3.928477608369308"></circle></g><g class="bobaCup bright" cupRadius="7.575960467961378" width="15.151920935922757" height="15.151920935922757" pearlRadius="2.7380424214283137" pearlCount="3" transform="translate(162.46204794969898,159.6006221218569)"><circle class="pool" r="7.575960467961378" cx="7.575960467961378" cy="7.575960467961378" style="stroke-width: 1; fill: rgb(29, 145, 192);"></circle><circle class="pearl" r="2.190433937142651" cx="11.492077224707398" cy="7.947591533293413"></circle><circle class="pearl" r="2.190433937142651" cx="4.554050008925073" cy="10.872411786620308"></circle><circle class="pearl" r="2.190433937142651" cx="4.783551732036145" cy="4.18412517965509"></circle></g><g class="bobaCup bright" cupRadius="7.412079912137454" width="14.824159824274908" height="14.824159824274908" pearlRadius="2.738042421428314" pearlCount="3" transform="translate(104.31815512628141,90.98966515976906)"><circle class="pool" r="7.412079912137454" cx="7.412079912137454" cy="7.412079912137454" style="stroke-width: 1; fill: rgb(29, 145, 192);"></circle><circle class="pearl" r="2.1904339371426516" cx="11.173435678377551" cy="7.41576753880263"></circle><circle class="pearl" r="2.1904339371426516" cx="4.552118607563848" cy="10.599452175752274"></circle><circle class="pearl" r="2.1904339371426516" cx="4.55185265295801" cy="4.2248188873076575"></circle></g><g class="bobaCup bright" cupRadius="6.407783522605785" width="12.81556704521157" height="12.81556704521157" pearlRadius="2.738042421428314" pearlCount="2" transform="translate(271.1171467131236,204.225277112295)"><circle class="pool" r="6.407783522605785" cx="6.407783522605785" cy="6.407783522605785" style="stroke-width: 1; fill: rgb(127, 205, 187);"></circle><circle class="pearl" r="2.1904339371426516" cx="8.60559728246368" cy="4.039428387377516"></circle><circle class="pearl" r="2.1904339371426516" cx="4.209969762747889" cy="8.776138657834053"></circle></g><g class="bobaCup bright" cupRadius="5.841452020253173" width="11.682904040506346" height="11.682904040506346" pearlRadius="2.7380424214283137" pearlCount="2" transform="translate(197.35252045360923,104.39782741166259)"><circle class="pool" r="5.841452020253173" cx="5.841452020253173" cy="5.841452020253173" style="stroke-width: 1; fill: rgb(29, 145, 192);"></circle><circle class="pearl" r="2.190433937142651" cx="7.60582519582994" cy="3.923553426306138"></circle><circle class="pearl" r="2.190433937142651" cx="4.077078844676405" cy="7.759350614200208"></circle></g><g class="bobaCup bright" cupRadius="5.669981661136974" width="11.339963322273949" height="11.339963322273949" pearlRadius="2.7380424214283137" pearlCount="2" transform="translate(211.12793570211787,274.1506885624925)"><circle class="pool" r="5.669981661136974" cx="5.669981661136974" cy="5.669981661136974" style="stroke-width: 1; fill: rgb(65, 182, 196);"></circle><circle class="pearl" r="2.190433937142651" cx="7.317492800743759" cy="3.8953570591536755"></circle><circle class="pearl" r="2.190433937142651" cx="4.02247052153019" cy="7.444606263120274"></circle></g><g class="bobaCup bright" cupRadius="5.4988345947577315" width="10.997669189515463" height="10.997669189515463" pearlRadius="2.7380424214283146" pearlCount="2" transform="translate(14.68844046669463,232.1577520760712)"><circle class="pool" r="5.4988345947577315" cx="5.4988345947577315" cy="5.4988345947577315" style="stroke-width: 1; fill: rgb(29, 145, 192);"></circle><circle class="pearl" r="2.1904339371426516" cx="7.0270751890643615" cy="3.8673553862370937"></circle><circle class="pearl" r="2.1904339371426516" cx="3.9705940004511024" cy="7.130313803278368"></circle></g><g class="bobaCup bright" cupRadius="4.7994692886821" width="9.5989385773642" height="9.5989385773642" pearlRadius="2.7380424214283132" pearlCount="1" transform="translate(20.973178134739502,62.144427102977936)"><circle class="pool" r="4.7994692886821" cx="4.7994692886821" cy="4.7994692886821" style="stroke-width: 1; fill: rgb(29, 145, 192);"></circle><circle class="pearl" r="2.1904339371426507" cx="5.9482153487931155" cy="4.7994692886821"></circle></g><g class="bobaCup bright" cupRadius="4.446487011082934" width="8.892974022165868" height="8.892974022165868" pearlRadius="2.738042421428314" pearlCount="1" transform="translate(30.081796581394823,268.00640012946195)"><circle class="pool" r="4.446487011082934" cx="4.446487011082934" cy="4.446487011082934" style="stroke-width: 1; fill: rgb(65, 182, 196);"></circle><circle class="pearl" r="2.1904339371426516" cx="5.242250793594783" cy="4.446487011082934"></circle></g><g class="bobaCup bright" cupRadius="3.4583467496310987" width="6.916693499262197" height="6.916693499262197" pearlRadius="2.7380424214283132" pearlCount="1" transform="translate(35.48057295152672,238.31608756556017)"><circle class="pool" r="3.4583467496310987" cx="3.4583467496310987" cy="3.4583467496310987" style="stroke-width: 1; fill: rgb(65, 182, 196);"></circle><circle class="pearl" r="2.1904339371426507" cx="3.656078010207667" cy="3.656078010207667"></circle></g><g class="bobaCup bright" cupRadius="2.742060541387624" width="5.484121082775248" height="5.484121082775248" pearlRadius="2.7380424214283137" pearlCount="0" transform="translate(219.87587176016265,183.6952490495056)"><circle class="pool" r="2.742060541387624" cx="2.742060541387624" cy="2.742060541387624" style="stroke-width: 1; fill: rgb(65, 182, 196);"></circle></g><g class="bobaCup bright" cupRadius="2.2328679379439444" width="4.465735875887889" height="4.465735875887889" pearlRadius="2.7380424214283146" pearlCount="0" transform="translate(68.21602905378268,297.7671320620561)"><circle class="pool" r="2.2328679379439444" cx="2.2328679379439444" cy="2.2328679379439444" style="stroke-width: 1; fill: rgb(127, 205, 187);"></circle></g><g class="bobaCup bright" cupRadius="0" width="0" height="0" pearlRadius="NaN" pearlCount="0" transform="translate(20,300)"><circle class="pool" r="0" cx="0" cy="0" style="stroke-width: 1; fill: rgb(127, 205, 187);"></circle></g><g class="bobaCup bright" cupRadius="0" width="0" height="0" pearlRadius="NaN" pearlCount="0" transform="translate(134.3562989022951,156.00766922156336)"><circle class="pool" r="0" cx="0" cy="0" style="stroke-width: 1; fill: rgb(127, 205, 187);"></circle></g></g><g id="legendDividerGroup" transform="translate(410,0)" height="400"><rect class="legendDivider" height="400" width="90"></rect></g><g id="legend" transform="translate(410,30)" width="90" height="320"><rect class="legendBorder" transform="translate(0,0)" width="90" height="324.9477195110013"></rect><text id="rTitle" text-anchor="middle" alignment-baseline="hanging" transform="translate(45,10)" x="0" y="0" style="fill: black; font-size: 0.8rem;">Population</text><text id="bobaValue" text-anchor="middle" alignment-baseline="hanging" transform="translate(45,25)" x="0" y="0" style="fill: black; font-size: 0.7rem;">(1 Pearl =   75)</text><g class="bright" cupRadius="8.94427190999916" width="17.88854381999832" height="17.88854381999832" pearlRadius="2.7380424214283137" pearlCount="4" transform="translate(36.05572809000084,50)"><circle class="pool" r="8.94427190999916" cx="8.94427190999916" cy="8.94427190999916" style="stroke-width: 1; fill: rgb(127, 205, 187);"></circle><circle class="pearl" r="2.190433937142651" cx="13.542613460651712" cy="5.486970900805415"></circle><circle class="pearl" r="2.190433937142651" cx="4.749399498236599" cy="12.229516637519533"></circle><circle class="pearl" r="2.190433937142651" cx="5.6385452023940825" cy="4.284028231246733"></circle><circle class="pearl" r="2.190433937142651" cx="12.653467756495177" cy="13.432459307079196"></circle></g><text id="0" class="legendSampleValue" text-anchor="middle" transform="translate(45,8)" x="0" y="72.88854381999832" style="fill: black; font-size: 0.7rem;"> 300</text><g class="bright" cupRadius="12.649110640673518" width="25.298221281347036" height="25.298221281347036" pearlRadius="2.7380424214283137" pearlCount="8" transform="translate(32.35088935932648,92.88854381999832)"><circle class="pool" r="12.649110640673518" cx="12.649110640673518" cy="12.649110640673518" style="stroke-width: 1; fill: rgb(127, 205, 187);"></circle><circle class="pearl" r="2.190433937142651" cx="14.071403428550026" cy="12.846878791771143"></circle><circle class="pearl" r="2.190433937142651" cx="6.440581911774749" cy="19.57795138257092"></circle><circle class="pearl" r="2.190433937142651" cx="15.10273708455154" cy="3.8909774644866477"></circle><circle class="pearl" r="2.190433937142651" cx="20.833946229646862" cy="17.112242666106596"></circle><circle class="pearl" r="2.190433937142651" cx="3.6634707295578792" cy="12.081372495075817"></circle><circle class="pearl" r="2.190433937142651" cx="21.1462151053254" cy="9.123450087562194"></circle><circle class="pearl" r="2.190433937142651" cx="14.187116834584868" cy="21.553646746241665"></circle><circle class="pearl" r="2.190433937142651" cx="7.171845845081948" cy="4.898098459274186"></circle></g><text id="1" class="legendSampleValue" text-anchor="middle" transform="translate(45,8)" x="0" y="123.18676510134536" style="fill: black; font-size: 0.7rem;"> 600</text><g class="bright" cupRadius="15.491933384829668" width="30.983866769659336" height="30.983866769659336" pearlRadius="2.738042421428314" pearlCount="12" transform="translate(29.508066615170332,143.18676510134537)"><circle class="pool" r="15.491933384829668" cx="15.491933384829668" cy="15.491933384829668" style="stroke-width: 1; fill: rgb(127, 205, 187);"></circle><circle class="pearl" r="2.1904339371426516" cx="17.033011743384765" cy="11.01737610913958"></circle><circle class="pearl" r="2.1904339371426516" cx="11.029309432951333" cy="17.00347040031935"></circle><circle class="pearl" r="2.1904339371426516" cx="13.977981653444434" cy="3.724876288236054"></circle><circle class="pearl" r="2.1904339371426516" cx="18.741808845067855" cy="18.756462357333643"></circle><circle class="pearl" r="2.1904339371426516" cx="3.725529689195627" cy="13.971342248807428"></circle><circle class="pearl" r="2.1904339371426516" cx="26.98661348100194" cy="12.233596672509572"></circle><circle class="pearl" r="2.1904339371426516" cx="12.152198575888569" cy="26.968872613027877"></circle><circle class="pearl" r="2.1904339371426516" cx="6.524197378590721" cy="6.5101702816287865"></circle><circle class="pearl" r="2.1904339371426516" cx="26.508263068801252" cy="20.479674242239334"></circle><circle class="pearl" r="2.1904339371426516" cx="5.419021306595209" cy="22.679550094546478"></circle><circle class="pearl" r="2.1904339371426516" cx="22.76079804957651" cy="5.461881544509561"></circle><circle class="pearl" r="2.1904339371426516" cx="20.400071923945557" cy="26.535092423407907"></circle></g><text id="2" class="legendSampleValue" text-anchor="middle" transform="translate(45,8)" x="0" y="179.1706318710047" style="fill: black; font-size: 0.7rem;"> 900</text><g class="bright" cupRadius="17.88854381999832" width="35.77708763999664" height="35.77708763999664" pearlRadius="2.7380424214283137" pearlCount="16" transform="translate(27.11145618000168,199.1706318710047)"><circle class="pool" r="17.88854381999832" cx="17.88854381999832" cy="17.88854381999832" style="stroke-width: 1; fill: rgb(127, 205, 187);"></circle><circle class="pearl" r="2.190433937142651" cx="19.8046930625516" cy="19.706925044831756"></circle><circle class="pearl" r="2.190433937142651" cx="13.339172784724305" cy="23.858410298028698"></circle><circle class="pearl" r="2.190433937142651" cx="16.092791630714295" cy="11.113543243945612"></circle><circle class="pearl" r="2.190433937142651" cx="20.836129534048155" cy="27.499380517199565"></circle><circle class="pearl" r="2.190433937142651" cx="10.312657514553905" cy="16.56124087753138"></circle><circle class="pearl" r="2.190433937142651" cx="23.678755837700653" cy="13.13675787817294"></circle><circle class="pearl" r="2.190433937142651" cx="14.311679794483911" cy="31.765114841909277"></circle><circle class="pearl" r="2.190433937142651" cx="11.081450997216843" cy="4.99648955196875"></circle><circle class="pearl" r="2.190433937142651" cx="27.674351504393126" cy="20.796258814455655"></circle><circle class="pearl" r="2.190433937142651" cx="4.000488629236898" cy="21.40866477780026"></circle><circle class="pearl" r="2.190433937142651" cx="28.333596734388347" cy="7.01684061165493"></circle><circle class="pearl" r="2.190433937142651" cx="28.522531366621063" cy="28.62247591779055"></circle><circle class="pearl" r="2.190433937142651" cx="5.30391541992303" cy="10.377661215789304"></circle><circle class="pearl" r="2.190433937142651" cx="31.694235049536697" cy="13.980399213320233"></circle><circle class="pearl" r="2.190433937142651" cx="7.311073872078207" cy="28.66408585659018"></circle><circle class="pearl" r="2.190433937142651" cx="18.987039995684725" cy="3.684483203560177"></circle></g><text id="3" class="legendSampleValue" text-anchor="middle" transform="translate(45,8)" x="0" y="239.94771951100134" style="fill: black; font-size: 0.7rem;">1.2k</text><g class="bright" cupRadius="20" width="40" height="40" pearlRadius="2.7380424214283137" pearlCount="20" transform="translate(25,259.9477195110013)"><circle class="pool" r="20" cx="20" cy="20" style="stroke-width: 1; fill: rgb(127, 205, 187);"></circle><circle class="pearl" r="2.190433937142651" cx="22.480421380823074" cy="19.96094551607325"></circle><circle class="pearl" r="2.190433937142651" cx="14.554532211889109" cy="20.25858246523202"></circle><circle class="pearl" r="2.190433937142651" cx="21.718613402750453" cy="11.231225788085391"></circle><circle class="pearl" r="2.190433937142651" cx="25.13767186853209" cy="27.447308990534317"></circle><circle class="pearl" r="2.190433937142651" cx="6.622341466842937" cy="15.212813608895589"></circle><circle class="pearl" r="2.190433937142651" cx="28.49521909515808" cy="14.82158787688231"></circle><circle class="pearl" r="2.190433937142651" cx="17.504603283401977" cy="28.993209871734443"></circle><circle class="pearl" r="2.190433937142651" cx="14.13811847195522" cy="12.373399584276378"></circle><circle class="pearl" r="2.190433937142651" cx="31.11803529924844" cy="22.444175683247455"></circle><circle class="pearl" r="2.190433937142651" cx="10.013176726772668" cy="26.767604068489224"></circle><circle class="pearl" r="2.190433937142651" cx="25.1625299271706" cy="4.328500666167248"></circle><circle class="pearl" r="2.190433937142651" cx="27.782608687955303" cy="34.772930101052836"></circle><circle class="pearl" r="2.190433937142651" cx="8.036930275650786" cy="7.623092000895575"></circle><circle class="pearl" r="2.190433937142651" cx="36.040664285033515" cy="16.500106031740792"></circle><circle class="pearl" r="2.190433937142651" cx="11.3070075503718" cy="34.36126950601293"></circle><circle class="pearl" r="2.190433937142651" cx="16.81383473400994" cy="3.9061454691506903"></circle><circle class="pearl" r="2.190433937142651" cx="33.74247113697989" cy="29.87303346303284"></circle><circle class="pearl" r="2.190433937142651" cx="3.788525504185259" cy="22.343736665541265"></circle><circle class="pearl" r="2.190433937142651" cx="32.18050534208177" cy="7.787706818962306"></circle><circle class="pearl" r="2.190433937142651" cx="20.00567962395882" cy="36.34927596497569"></circle></g><text id="4" class="legendSampleValue" text-anchor="middle" transform="translate(45,8)" x="0" y="304.9477195110013" style="fill: black; font-size: 0.7rem;">1.5k</text></g></svg>