<?xml version="1.0" standalone="no"?>
<?xml-stylesheet xmlns="http://www.w3.org/2000/svg" type="text/css" href="style.css"?>
<svg id="syntheticVisC" class="default" xTitle="Percent Cat Owners" yTitle="Percent Dog Owners" rTitle="Population" chartTitle="Towns in Vizzyland" width="500" height="400" xmlns="http://www.w3.org/2000/svg"><rect class="background" width="500" height="400"></rect><text id="chartTitle" text-anchor="middle" transform="translate(250,20)" x="0" y="0" style="fill: black; font-size: 1.2rem;">Towns in Vizzyland</text><g id="yAxis" transform="translate(50,30)" fill="none" font-size="10" font-family="sans-serif" text-anchor="end"><path class="domain" stroke="currentColor" d="M-6,300H0V20H-6"></path><g class="tick" opacity="1" transform="translate(0,300)"><line stroke="currentColor" x2="-6"></line><text fill="currentColor" x="-9" dy="0.32em">0</text></g><g class="tick" opacity="1" transform="translate(0,272)"><line stroke="currentColor" x2="-6"></line><text fill="currentColor" x="-9" dy="0.32em">10</text></g><g class="tick" opacity="1" transform="translate(0,244)"><line stroke="currentColor" x2="-6"></line><text fill="currentColor" x="-9" dy="0.32em">20</text></g><g class="tick" opacity="1" transform="translate(0,216)"><line stroke="currentColor" x2="-6"></line><text fill="currentColor" x="-9" dy="0.32em">30</text></g><g class="tick" opacity="1" transform="translate(0,188)"><line stroke="currentColor" x2="-6"></line><text fill="currentColor" x="-9" dy="0.32em">40</text></g><g class="tick" opacity="1" transform="translate(0,160)"><line stroke="currentColor" x2="-6"></line><text fill="currentColor" x="-9" dy="0.32em">50</text></g><g class="tick" opacity="1" transform="translate(0,132)"><line stroke="currentColor" x2="-6"></line><text fill="currentColor" x="-9" dy="0.32em">60</text></g><g class="tick" opacity="1" transform="translate(0,104.00000000000001)"><line stroke="currentColor" x2="-6"></line><text fill="currentColor" x="-9" dy="0.32em">70</text></g><g class="tick" opacity="1" transform="translate(0,75.99999999999999)"><line stroke="currentColor" x2="-6"></line><text fill="currentColor" x="-9" dy="0.32em">80</text></g><g class="tick" opacity="1" transform="translate(0,47.99999999999999)"><line stroke="currentColor" x2="-6"></line><text fill="currentColor" x="-9" dy="0.32em">90</text></g><g class="tick" opacity="1" transform="translate(0,20)"><line stroke="currentColor" x2="-6"></line><text fill="currentColor" x="-9" dy="0.32em">100</text></g></g><g id="xAxis" transform="translate(60,360)" fill="none" font-size="10" font-family="sans-serif" text-anchor="middle"><path class="domain" stroke="currentColor" d="M20,6V0H320V6"></path><g class="tick" opacity="1" transform="translate(20,0)"><line stroke="currentColor" y2="6"></line><text fill="currentColor" y="9" dy="0.71em">0</text></g><g class="tick" opacity="1" transform="translate(50,0)"><line stroke="currentColor" y2="6"></line><text fill="currentColor" y="9" dy="0.71em">10</text></g><g class="tick" opacity="1" transform="translate(80,0)"><line stroke="currentColor" y2="6"></line><text fill="currentColor" y="9" dy="0.71em">20</text></g><g class="tick" opacity="1" transform="translate(109.99999999999997,0)"><line stroke="currentColor" y2="6"></line><text fill="currentColor" y="9" dy="0.71em">30</text></g><g class="tick" opacity="1" transform="translate(140,0)"><line stroke="currentColor" y2="6"></line><text fill="currentColor" y="9" dy="0.71em">40</text></g><g class="tick" opacity="1" transform="translate(169.99999999999997,0)"><line stroke="currentColor" y2="6"></line><text fill="currentColor" y="9" dy="0.71em">50</text></g><g class="tick" opacity="1" transform="translate(199.99999999999994,0)"><line stroke="currentColor" y2="6"></line><text fill="currentColor" y="9" dy="0.71em">60</text></g><g class="tick" opacity="1" transform="translate(230,0)"><line stroke="currentColor" y2="6"></line><text fill="currentColor" y="9" dy="0.71em">70</text></g><g class="tick" opacity="1" transform="translate(260,0)"><line stroke="currentColor" y2="6"></line><text fill="currentColor" y="9" dy="0.71em">80</text></g><g class="tick" opacity="1" transform="translate(290,0)"><line stroke="currentColor" y2="6"></line><text fill="currentColor" y="9" dy="0.71em">90</text></g><g class="tick" opacity="1" transform="translate(319.99999999999994,0)"><line stroke="currentColor" y2="6"></line><text fill="currentColor" y="9" dy="0.71em">100</text></g></g><g id="labels"><text id="xTitle" text-anchor="middle" transform="translate(250,350)" x="0" y="40" style="fill: black; font-size: 0.8rem;">Percent Cat Owners</text><g id="group-yTitle" transform="translate(60,190)"><text id="yTitle" text-anchor="middle" transform="rotate(-90)" y="-45" style="fill: black; font-size: 0.8rem;">Percent Dog Owners</text></g></g><g id="quadrant_lines" transform="translate(60,30)"><line id="verticalQuadrantLine" x1="170" y1="10" x2="170" y2="310" class="quadrantLine"></line><line id="horizontalQuadrantLine" x1="10" y1="160" x2="330" y2="160" class="quadrantLine"></line></g><g id="chart" transform="translate(60,30)"><g class="bobaCup bright" cupRadius="20" width="40" height="40" pearlRadius="2.7380424214283137" pearlCount="20" transform="translate(8.15930986246007,121.67453424790213)"><circle class="pool" r="20" cx="20" cy="20" style="stroke-width: 1; fill: rgb(29, 145, 192);"></circle><circle class="pearl" r="2.190433937142651" cx="22.480421380823074" cy="19.96094551607325"></circle><circle class="pearl" r="2.190433937142651" cx="14.554532211889109" cy="20.25858246523202"></circle><circle class="pearl" r="2.190433937142651" cx="21.718613402750453" cy="11.231225788085391"></circle><circle class="pearl" r="2.190433937142651" cx="25.13767186853209" cy="27.447308990534317"></circle><circle class="pearl" r="2.190433937142651" cx="6.622341466842937" cy="15.212813608895589"></circle><circle class="pearl" r="2.190433937142651" cx="28.49521909515808" cy="14.82158787688231"></circle><circle class="pearl" r="2.190433937142651" cx="17.504603283401977" cy="28.993209871734443"></circle><circle class="pearl" r="2.190433937142651" cx="14.13811847195522" cy="12.373399584276378"></circle><circle class="pearl" r="2.190433937142651" cx="31.11803529924844" cy="22.444175683247455"></circle><circle class="pearl" r="2.190433937142651" cx="10.013176726772668" cy="26.767604068489224"></circle><circle class="pearl" r="2.190433937142651" cx="25.1625299271706" cy="4.328500666167248"></circle><circle class="pearl" r="2.190433937142651" cx="27.782608687955303" cy="34.772930101052836"></circle><circle class="pearl" r="2.190433937142651" cx="8.036930275650786" cy="7.623092000895575"></circle><circle class="pearl" r="2.190433937142651" cx="36.040664285033515" cy="16.500106031740792"></circle><circle class="pearl" r="2.190433937142651" cx="11.3070075503718" cy="34.36126950601293"></circle><circle class="pearl" r="2.190433937142651" cx="16.81383473400994" cy="3.9061454691506903"></circle><circle class="pearl" r="2.190433937142651" cx="33.74247113697989" cy="29.87303346303284"></circle><circle class="pearl" r="2.190433937142651" cx="3.788525504185259" cy="22.343736665541265"></circle><circle class="pearl" r="2.190433937142651" cx="32.18050534208177" cy="7.787706818962306"></circle><circle class="pearl" r="2.190433937142651" cx="20.00567962395882" cy="36.34927596497569"></circle></g><g class="bobaCup bright" cupRadius="19.30010864240202" width="38.60021728480404" height="38.60021728480404" pearlRadius="2.738042421428314" pearlCount="19" transform="translate(115.68825142304681,146.2347872981491)"><circle class="pool" r="19.30010864240202" cx="19.30010864240202" cy="19.30010864240202" style="stroke-width: 1; fill: rgb(29, 145, 192);"></circle><circle class="pearl" r="2.1904339371426516" cx="19.269500102193597" cy="19.432122473971553"></circle><circle class="pearl" r="2.1904339371426516" cx="16.03949731353971" cy="26.729671469714987"></circle><circle class="pearl" r="2.1904339371426516" cx="21.024091485355534" cy="11.211519809464091"></circle><circle class="pearl" r="2.1904339371426516" cx="23.999353926911134" cy="26.471953130709093"></circle><circle class="pearl" r="2.1904339371426516" cx="11.070873634641181" cy="20.57031752003699"></circle><circle class="pearl" r="2.1904339371426516" cx="26.74791351784038" cy="16.643146623891266"></circle><circle class="pearl" r="2.1904339371426516" cx="15.72363028775206" cy="34.61522302220566"></circle><circle class="pearl" r="2.1904339371426516" cx="13.377587189352292" cy="12.982214798329938"></circle><circle class="pearl" r="2.1904339371426516" cx="31.30295008658871" cy="23.204654082384465"></circle><circle class="pearl" r="2.1904339371426516" cx="4.435363221872066" cy="24.747274356117526"></circle><circle class="pearl" r="2.1904339371426516" cx="25.082349208731483" cy="4.537252978166443"></circle><circle class="pearl" r="2.1904339371426516" cx="23.672179642339163" cy="34.44776802457779"></circle><circle class="pearl" r="2.1904339371426516" cx="7.67386361382248" cy="7.54548798828257"></circle><circle class="pearl" r="2.1904339371426516" cx="34.68206564015211" cy="16.098347094265755"></circle><circle class="pearl" r="2.1904339371426516" cx="8.401047060642814" cy="31.577494223276634"></circle><circle class="pearl" r="2.1904339371426516" cx="16.66911553295912" cy="3.830892831672142"></circle><circle class="pearl" r="2.1904339371426516" cx="30.923350380277338" cy="31.05699538784813"></circle><circle class="pearl" r="2.1904339371426516" cx="3.816913717025447" cy="16.77278403195851"></circle><circle class="pearl" r="2.1904339371426516" cx="31.75335763471183" cy="8.662614937697999"></circle></g><g class="bobaCup bright" cupRadius="18.784705395584243" width="37.56941079116849" height="37.56941079116849" pearlRadius="2.7380424214283132" pearlCount="18" transform="translate(32.7744943370768,256.98037892767513)"><circle class="pool" r="18.784705395584243" cx="18.784705395584243" cy="18.784705395584243" style="stroke-width: 1; fill: rgb(127, 205, 187);"></circle><circle class="pearl" r="2.1904339371426507" cx="18.872055586098828" cy="18.439288362789476"></circle><circle class="pearl" r="2.1904339371426507" cx="13.675616397866255" cy="24.506929174319616"></circle><circle class="pearl" r="2.1904339371426507" cx="18.45133044308832" cy="10.624193178193188"></circle><circle class="pearl" r="2.1904339371426507" cx="21.510412287117198" cy="25.777323633785276"></circle><circle class="pearl" r="2.1904339371426507" cx="11.782821539950906" cy="14.850666186321666"></circle><circle class="pearl" r="2.1904339371426507" cx="25.602378769939726" cy="13.988265462102834"></circle><circle class="pearl" r="2.1904339371426507" cx="16.425728070169676" cy="32.024198545364925"></circle><circle class="pearl" r="2.1904339371426507" cx="13.652487929805199" cy="4.365412003165619"></circle><circle class="pearl" r="2.1904339371426507" cx="28.23523176806819" cy="21.500165462185684"></circle><circle class="pearl" r="2.1904339371426507" cx="5.750370472621528" cy="23.435703102823155"></circle><circle class="pearl" r="2.1904339371426507" cx="30.116954810587327" cy="7.454405860232143"></circle><circle class="pearl" r="2.1904339371426507" cx="24.260931080279825" cy="33.102735853598446"></circle><circle class="pearl" r="2.1904339371426507" cx="6.850962635663138" cy="8.2971138392534"></circle><circle class="pearl" r="2.1904339371426507" cx="33.65384440382123" cy="15.641481011525379"></circle><circle class="pearl" r="2.1904339371426507" cx="8.527151525264035" cy="30.87080984594422"></circle><circle class="pearl" r="2.1904339371426507" cx="22.976165249349556" cy="4.124316667390782"></circle><circle class="pearl" r="2.1904339371426507" cx="30.89748898214918" cy="29.00121212186069"></circle><circle class="pearl" r="2.1904339371426507" cx="3.901738544257337" cy="15.724070033248083"></circle></g><g class="bobaCup bright" cupRadius="18.371656719285745" width="36.74331343857149" height="36.74331343857149" pearlRadius="2.7380424214283132" pearlCount="17" transform="translate(274.55441600457664,150.6228752738041)"><circle class="pool" r="18.371656719285745" cx="18.371656719285745" cy="18.371656719285745" style="stroke-width: 1; fill: rgb(29, 145, 192);"></circle><circle class="pearl" r="2.1904339371426507" cx="18.34963195580334" cy="18.34236156011767"></circle><circle class="pearl" r="2.1904339371426507" cx="13.22530617362238" cy="24.347190143913135"></circle><circle class="pearl" r="2.1904339371426507" cx="15.853385645662165" cy="10.839008858630553"></circle><circle class="pearl" r="2.1904339371426507" cx="20.879290244830912" cy="25.798682323216198"></circle><circle class="pearl" r="2.1904339371426507" cx="10.562840783153865" cy="16.98691904778853"></circle><circle class="pearl" r="2.1904339371426507" cx="23.496240854860705" cy="12.411728776460086"></circle><circle class="pearl" r="2.1904339371426507" cx="15.786922672953013" cy="31.958022258228876"></circle><circle class="pearl" r="2.1904339371426507" cx="10.044082029825654" cy="5.646505302429772"></circle><circle class="pearl" r="2.1904339371426507" cx="26.152147643291194" cy="19.827306488917397"></circle><circle class="pearl" r="2.1904339371426507" cx="4.422359863302349" cy="22.16333967220171"></circle><circle class="pearl" r="2.1904339371426507" cx="29.28412665632786" cy="7.242807204220797"></circle><circle class="pearl" r="2.1904339371426507" cx="26.592975379060153" cy="31.150409748517955"></circle><circle class="pearl" r="2.1904339371426507" cx="5.009778917918157" cy="11.437020693696034"></circle><circle class="pearl" r="2.1904339371426507" cx="32.70831053882971" cy="14.633737841056682"></circle><circle class="pearl" r="2.1904339371426507" cx="7.439822937040813" cy="29.486189356044104"></circle><circle class="pearl" r="2.1904339371426507" cx="19.943185325366155" cy="3.7180616472058032"></circle><circle class="pearl" r="2.1904339371426507" cx="31.684754598170567" cy="25.424779718745658"></circle></g><g class="bobaCup bright" cupRadius="18.33575073310903" width="36.67150146621806" height="36.67150146621806" pearlRadius="2.7380424214283137" pearlCount="17" transform="translate(136.35853256447206,146.09895249500875)"><circle class="pool" r="18.33575073310903" cx="18.33575073310903" cy="18.33575073310903" style="stroke-width: 1; fill: rgb(127, 205, 187);"></circle><circle class="pearl" r="2.190433937142651" cx="18.308528088603047" cy="18.324835579205804"></circle><circle class="pearl" r="2.190433937142651" cx="13.21313585014493" cy="24.3103566902352"></circle><circle class="pearl" r="2.190433937142651" cx="15.767340736639001" cy="10.860100992742925"></circle><circle class="pearl" r="2.190433937142651" cx="20.8593840801156" cy="25.772552596467715"></circle><circle class="pearl" r="2.190433937142651" cx="10.54434297334201" cy="16.97017363351582"></circle><circle class="pearl" r="2.190433937142651" cx="23.408848829033484" cy="12.363752752410585"></circle><circle class="pearl" r="2.190433937142651" cx="15.70253556393273" cy="31.945792559787108"></circle><circle class="pearl" r="2.190433937142651" cx="9.992896203527085" cy="5.658689873049397"></circle><circle class="pearl" r="2.190433937142651" cx="26.074690053382067" cy="19.75221417598038"></circle><circle class="pearl" r="2.190433937142651" cx="4.4237182622928515" cy="22.131690834350934"></circle><circle class="pearl" r="2.190433937142651" cx="29.219697023051435" cy="7.230476262291662"></circle><circle class="pearl" r="2.190433937142651" cx="26.673665303215657" cy="31.015334775630915"></circle><circle class="pearl" r="2.190433937142651" cx="4.999205338255383" cy="11.434123413243231"></circle><circle class="pearl" r="2.190433937142651" cx="32.63752513469214" cy="14.606463430417458"></circle><circle class="pearl" r="2.190433937142651" cx="7.445730550479464" cy="29.436543201869835"></circle><circle class="pearl" r="2.190433937142651" cx="19.910723876167676" cy="3.7184906426229105"></circle><circle class="pearl" r="2.190433937142651" cx="31.668247681818396" cy="25.247334296716026"></circle></g><g class="bobaCup bright" cupRadius="18.089080810989167" width="36.17816162197833" height="36.17816162197833" pearlRadius="2.7380424214283132" pearlCount="16" transform="translate(63.51873954483606,219.17935948643665)"><circle class="pool" r="18.089080810989167" cx="18.089080810989167" cy="18.089080810989167" style="stroke-width: 1; fill: rgb(29, 145, 192);"></circle><circle class="pearl" r="2.1904339371426507" cx="19.91800493865472" cy="19.875254585139587"></circle><circle class="pearl" r="2.1904339371426507" cx="13.531631649139408" cy="24.24713656065181"></circle><circle class="pearl" r="2.1904339371426507" cx="16.52490479814954" cy="11.400975040527252"></circle><circle class="pearl" r="2.1904339371426507" cx="21.062191405952724" cy="27.731054545806764"></circle><circle class="pearl" r="2.1904339371426507" cx="10.712914091031653" cy="16.86518509412446"></circle><circle class="pearl" r="2.1904339371426507" cx="24.173983927266974" cy="13.424594161612884"></circle><circle class="pearl" r="2.1904339371426507" cx="14.50063340686295" cy="32.167934278276235"></circle><circle class="pearl" r="2.1904339371426507" cx="10.72314930959228" cy="5.908853581327948"></circle><circle class="pearl" r="2.1904339371426507" cx="27.781721936973433" cy="21.078887723147254"></circle><circle class="pearl" r="2.1904339371426507" cx="4.313144768791544" cy="21.664408998312634"></circle><circle class="pearl" r="2.1904339371426507" cx="28.772244804914113" cy="7.142377839527517"></circle><circle class="pearl" r="2.1904339371426507" cx="28.89732224292312" cy="28.94341744908264"></circle><circle class="pearl" r="2.1904339371426507" cx="4.943005878812538" cy="11.374736752661601"></circle><circle class="pearl" r="2.1904339371426507" cx="32.15215964693361" cy="14.42355751878898"></circle><circle class="pearl" r="2.1904339371426507" cx="7.355572052412929" cy="28.998805182545755"></circle><circle class="pearl" r="2.1904339371426507" cx="18.375783816873966" cy="3.6529954218711387"></circle></g><g class="bobaCup bright" cupRadius="17.709905975595696" width="35.41981195119139" height="35.41981195119139" pearlRadius="2.738042421428314" pearlCount="16" transform="translate(221.7165715490003,213.18834318236097)"><circle class="pool" r="17.709905975595696" cx="17.709905975595696" cy="17.709905975595696" style="stroke-width: 1; fill: rgb(29, 145, 192);"></circle><circle class="pearl" r="2.1904339371426516" cx="19.42789707265802" cy="19.3261310870781"></circle><circle class="pearl" r="2.1904339371426516" cx="13.208560372664575" cy="23.59451115941252"></circle><circle class="pearl" r="2.1904339371426516" cx="15.954816284022986" cy="10.964626297164703"></circle><circle class="pearl" r="2.1904339371426516" cx="20.61097203850741" cy="27.047847342413036"></circle><circle class="pearl" r="2.1904339371426516" cx="10.233051211768384" cy="16.375398276541326"></circle><circle class="pearl" r="2.1904339371426516" cx="23.365746464408147" cy="12.990539299767837"></circle><circle class="pearl" r="2.1904339371426516" cx="14.260764511701737" cy="31.429968360418368"></circle><circle class="pearl" r="2.1904339371426516" cx="11.067006450231919" cy="4.943788595804833"></circle><circle class="pearl" r="2.1904339371426516" cx="27.283017957999427" cy="20.509472120403284"></circle><circle class="pearl" r="2.1904339371426516" cx="4.010599466394517" cy="21.261981110338517"></circle><circle class="pearl" r="2.1904339371426516" cx="27.961219440686445" cy="6.919322410635621"></circle><circle class="pearl" r="2.1904339371426516" cx="28.214482461762056" cy="28.317325771651657"></circle><circle class="pearl" r="2.1904339371426516" cx="5.339616505223798" cy="10.162196272331542"></circle><circle class="pearl" r="2.1904339371426516" cx="31.324906832873392" cy="13.76839085374451"></circle><circle class="pearl" r="2.1904339371426516" cx="7.3420259843914675" cy="28.41703196452328"></circle><circle class="pearl" r="2.1904339371426516" cx="19.288641245134787" cy="3.721231124494292"></circle></g><g class="bobaCup bright" cupRadius="17.090452015382272" width="34.180904030764545" height="34.180904030764545" pearlRadius="2.738042421428314" pearlCount="15" transform="translate(145.77923097691274,238.71192508796676)"><circle class="pool" r="17.090452015382272" cx="17.090452015382272" cy="17.090452015382272" style="stroke-width: 1; fill: rgb(65, 182, 196);"></circle><circle class="pearl" r="2.1904339371426516" cx="18.319797916781216" cy="17.332351441506766"></circle><circle class="pearl" r="2.1904339371426516" cx="12.666790763273381" cy="22.572286986563896"></circle><circle class="pearl" r="2.1904339371426516" cx="16.06037766835578" cy="9.792792439470169"></circle><circle class="pearl" r="2.1904339371426516" cx="19.734671194749065" cy="25.154004250527148"></circle><circle class="pearl" r="2.1904339371426516" cx="10.603031932275023" cy="15.442821356454381"></circle><circle class="pearl" r="2.1904339371426516" cx="23.40090294328463" cy="11.439279317347404"></circle><circle class="pearl" r="2.1904339371426516" cx="14.130846577840009" cy="30.271968261823243"></circle><circle class="pearl" r="2.1904339371426516" cx="10.241699808226283" cy="5.083009856684644"></circle><circle class="pearl" r="2.1904339371426516" cx="25.706686790521793" cy="19.95636682730412"></circle><circle class="pearl" r="2.1904339371426516" cx="4.08903277850833" cy="20.16462454216415"></circle><circle class="pearl" r="2.1904339371426516" cx="21.519215090733866" cy="4.234521806248722"></circle><circle class="pearl" r="2.1904339371426516" cx="26.99874843168624" cy="27.364857591125418"></circle><circle class="pearl" r="2.1904339371426516" cx="5.123064793381587" cy="10.15084280132527"></circle><circle class="pearl" r="2.1904339371426516" cx="30.253021938140545" cy="14.025044457235174"></circle><circle class="pearl" r="2.1904339371426516" cx="7.209150664434892" cy="27.38402632027803"></circle></g><g class="bobaCup bright" cupRadius="16.967371922981926" width="33.93474384596385" height="33.93474384596385" pearlRadius="2.7380424214283137" pearlCount="14" transform="translate(24.857164872162343,44.30424674788913)"><circle class="pool" r="16.967371922981926" cx="16.967371922981926" cy="16.967371922981926" style="stroke-width: 1; fill: rgb(29, 145, 192);"></circle><circle class="pearl" r="2.190433937142651" cx="22.153070119621688" cy="13.420482038487851"></circle><circle class="pearl" r="2.190433937142651" cx="13.182293106776411" cy="22.795004163855477"></circle><circle class="pearl" r="2.190433937142651" cx="14.285892991300589" cy="12.033337831672657"></circle><circle class="pearl" r="2.190433937142651" cx="21.031710419841303" cy="21.33017771833539"></circle><circle class="pearl" r="2.190433937142651" cx="7.8922564057687685" cy="16.836202181670473"></circle><circle class="pearl" r="2.190433937142651" cx="27.026080529277056" cy="6.970212889638894"></circle><circle class="pearl" r="2.190433937142651" cx="15.975594496685632" cy="30.255010111899974"></circle><circle class="pearl" r="2.190433937142651" cx="11.797971799699454" cy="4.457370776135846"></circle><circle class="pearl" r="2.190433937142651" cx="29.425394746652376" cy="22.29653795503498"></circle><circle class="pearl" r="2.190433937142651" cx="5.363583173675684" cy="24.396475118495673"></circle><circle class="pearl" r="2.190433937142651" cx="19.747784579122776" cy="3.8800840560145957"></circle><circle class="pearl" r="2.190433937142651" cx="24.472386860495085" cy="28.53395662848708"></circle><circle class="pearl" r="2.190433937142651" cx="5.513589783383292" cy="9.23784234119446"></circle><circle class="pearl" r="2.190433937142651" cx="30.078508683184065" cy="14.334548402584373"></circle></g><g class="bobaCup bright" cupRadius="16.239650945023772" width="32.479301890047545" height="32.479301890047545" pearlRadius="2.7380424214283137" pearlCount="13" transform="translate(200.69408893994378,168.26089020071558)"><circle class="pool" r="16.239650945023772" cx="16.239650945023772" cy="16.239650945023772" style="stroke-width: 1; fill: rgb(127, 205, 187);"></circle><circle class="pearl" r="2.190433937142651" cx="21.158993014740226" cy="16.39307937170079"></circle><circle class="pearl" r="2.190433937142651" cx="15.19652060999582" cy="21.54676022573245"></circle><circle class="pearl" r="2.190433937142651" cx="16.076362847946854" cy="10.434273529397418"></circle><circle class="pearl" r="2.190433937142651" cx="24.110429439873755" cy="23.818528655389528"></circle><circle class="pearl" r="2.190433937142651" cx="10.048061668863957" cy="15.680219716848683"></circle><circle class="pearl" r="2.190433937142651" cx="27.46270959266997" cy="9.720688181291974"></circle><circle class="pearl" r="2.190433937142651" cx="9.859091380585905" cy="27.522605175835288"></circle><circle class="pearl" r="2.190433937142651" cx="10.865221518940288" cy="4.565826181557394"></circle><circle class="pearl" r="2.190433937142651" cx="28.77471355085626" cy="17.56124079782689"></circle><circle class="pearl" r="2.190433937142651" cx="4.614855140572142" cy="21.525537911657192"></circle><circle class="pearl" r="2.190433937142651" cx="21.438525831677858" cy="4.505382697187438"></circle><circle class="pearl" r="2.190433937142651" cx="18.037039273350278" cy="28.728805597446932"></circle><circle class="pearl" r="2.190433937142651" cx="5.071586298677749" cy="9.596625374214852"></circle></g><g class="bobaCup bright" cupRadius="16.232623044540347" width="32.46524608908069" height="32.46524608908069" pearlRadius="2.7380424214283132" pearlCount="13" transform="translate(159.15391695496754,106.58815582581202)"><circle class="pool" r="16.232623044540347" cx="16.232623044540347" cy="16.232623044540347" style="stroke-width: 1; fill: rgb(65, 182, 196);"></circle><circle class="pearl" r="2.1904339371426507" cx="21.148634958778064" cy="16.41813466382497"></circle><circle class="pearl" r="2.1904339371426507" cx="15.166027680713192" cy="21.539319441248328"></circle><circle class="pearl" r="2.1904339371426507" cx="16.070029576971123" cy="10.460087651290962"></circle><circle class="pearl" r="2.1904339371426507" cx="24.143125771672306" cy="23.827228774035888"></circle><circle class="pearl" r="2.1904339371426507" cx="10.012363746536174" cy="15.67476985574292"></circle><circle class="pearl" r="2.1904339371426507" cx="27.441572745883743" cy="9.699004497203115"></circle><circle class="pearl" r="2.1904339371426507" cx="9.812599195210133" cy="27.491002561613403"></circle><circle class="pearl" r="2.1904339371426507" cx="10.91517313249207" cy="4.546372081994067"></circle><circle class="pearl" r="2.1904339371426507" cx="28.761988954122057" cy="17.53752395555712"></circle><circle class="pearl" r="2.1904339371426507" cx="4.565468655246385" cy="21.506131538580004"></circle><circle class="pearl" r="2.1904339371426507" cx="21.401194717081047" cy="4.4955615796621435"></circle><circle class="pearl" r="2.1904339371426507" cx="18.043958539247743" cy="28.713146346592847"></circle><circle class="pearl" r="2.1904339371426507" cx="5.093511367441102" cy="9.54241868524325"></circle></g><g class="bobaCup bright" cupRadius="15.804684068696846" width="31.60936813739369" height="31.60936813739369" pearlRadius="2.7380424214283137" pearlCount="12" transform="translate(12.561098959886122,81.44213835097587)"><circle class="pool" r="15.804684068696846" cx="15.804684068696846" cy="15.804684068696846" style="stroke-width: 1; fill: rgb(29, 145, 192);"></circle><circle class="pearl" r="2.190433937142651" cx="17.859137656439195" cy="11.596607436479932"></circle><circle class="pearl" r="2.190433937142651" cx="11.625012799588081" cy="18.003488204287287"></circle><circle class="pearl" r="2.190433937142651" cx="14.30064537408164" cy="4.43828238376928"></circle><circle class="pearl" r="2.190433937142651" cx="19.489590301894307" cy="19.42089841117534"></circle><circle class="pearl" r="2.190433937142651" cx="4.52788898639626" cy="14.324886298503284"></circle><circle class="pearl" r="2.190433937142651" cx="27.411275324615353" cy="11.68128823119786"></circle><circle class="pearl" r="2.190433937142651" cx="11.982406156391214" cy="27.48948267905972"></circle><circle class="pearl" r="2.190433937142651" cx="6.604674944534283" cy="6.604420151268387"></circle><circle class="pearl" r="2.190433937142651" cx="27.477279223112863" cy="19.67559510421929"></circle><circle class="pearl" r="2.190433937142651" cx="5.3778044202456154" cy="22.988633939636436"></circle><circle class="pearl" r="2.190433937142651" cx="22.692017244177077" cy="5.230335056985659"></circle><circle class="pearl" r="2.190433937142651" cx="19.97642084617687" cy="27.398128602609237"></circle></g><g class="bobaCup bright" cupRadius="15.522373432533115" width="31.04474686506623" height="31.04474686506623" pearlRadius="2.738042421428314" pearlCount="12" transform="translate(210.53966244710648,267.5187793747112)"><circle class="pool" r="15.522373432533115" cx="15.522373432533115" cy="15.522373432533115" style="stroke-width: 1; fill: rgb(127, 205, 187);"></circle><circle class="pearl" r="2.1904339371426516" cx="17.056560031544656" cy="11.063667201902323"></circle><circle class="pearl" r="2.1904339371426516" cx="11.069517761309926" cy="17.04111260460333"></circle><circle class="pearl" r="2.1904339371426516" cx="13.998538289843033" cy="3.7257019475315407"></circle><circle class="pearl" r="2.1904339371426516" cx="18.817258005621373" cy="18.82587307928768"></circle><circle class="pearl" r="2.1904339371426516" cx="3.726082860950966" cy="13.99468182854839"></circle><circle class="pearl" r="2.1904339371426516" cx="27.018119334157678" cy="12.12700160207916"></circle><circle class="pearl" r="2.1904339371426516" cx="12.08308985412124" cy="27.00820877737218"></circle><circle class="pearl" r="2.1904339371426516" cx="6.528901926350828" cy="6.52155338581572"></circle><circle class="pearl" r="2.1904339371426516" cx="26.667382518805223" cy="20.21602683329831"></circle><circle class="pearl" r="2.1904339371426516" cx="5.385533392601188" cy="22.653094019965806"></circle><circle class="pearl" r="2.1904339371426516" cx="22.696631769967524" cy="5.408137733204606"></circle><circle class="pearl" r="2.1904339371426516" cx="20.169499922659643" cy="26.682061824297712"></circle></g><g class="bobaCup bright" cupRadius="15.100958757770828" width="30.201917515541655" height="30.201917515541655" pearlRadius="2.738042421428314" pearlCount="11" transform="translate(155.95373747011863,21.153236796181325)"><circle class="pool" r="15.100958757770828" cx="15.100958757770828" cy="15.100958757770828" style="stroke-width: 1; fill: rgb(65, 182, 196);"></circle><circle class="pearl" r="2.1904339371426516" cx="19.416880629429013" cy="14.967931818598696"></circle><circle class="pearl" r="2.1904339371426516" cx="12.008312760178262" cy="17.828361639867"></circle><circle class="pearl" r="2.1904339371426516" cx="13.793388614365094" cy="9.348148146006356"></circle><circle class="pearl" r="2.1904339371426516" cx="20.464274302524863" cy="25.286092397690705"></circle><circle class="pearl" r="2.1904339371426516" cx="4.8547426147224035" cy="14.225609079511305"></circle><circle class="pearl" r="2.1904339371426516" cx="25.70926780324446" cy="10.12914279057669"></circle><circle class="pearl" r="2.1904339371426516" cx="12.577646122926566" cy="26.33888384765803"></circle><circle class="pearl" r="2.1904339371426516" cx="6.417887356460811" cy="6.396795242884991"></circle><circle class="pearl" r="2.1904339371426516" cx="25.894535286237076" cy="19.505633539493843"></circle><circle class="pearl" r="2.1904339371426516" cx="5.62271528995295" cy="22.562137544598347"></circle><circle class="pearl" r="2.1904339371426516" cx="20.109155553944923" cy="4.505387020467909"></circle></g><g class="bobaCup bright" cupRadius="15.066959895970744" width="30.133919791941487" height="30.133919791941487" pearlRadius="2.7380424214283132" pearlCount="11" transform="translate(17.86511323999795,57.89899828450402)"><circle class="pool" r="15.066959895970744" cx="15.066959895970744" cy="15.066959895970744" style="stroke-width: 1; fill: rgb(65, 182, 196);"></circle><circle class="pearl" r="2.1904339371426507" cx="19.353335987123806" cy="14.991159349254689"></circle><circle class="pearl" r="2.1904339371426507" cx="11.852553238294455" cy="17.606932752526472"></circle><circle class="pearl" r="2.1904339371426507" cx="13.771471159400836" cy="9.34688693942392"></circle><circle class="pearl" r="2.1904339371426507" cx="20.597834177946016" cy="25.43132532868808"></circle><circle class="pearl" r="2.1904339371426507" cx="4.621390386805975" cy="14.165558193347078"></circle><circle class="pearl" r="2.1904339371426507" cx="25.663009372559628" cy="10.163619402562231"></circle><circle class="pearl" r="2.1904339371426507" cx="12.695424914759851" cy="26.295386587327336"></circle><circle class="pearl" r="2.1904339371426507" cx="6.410638683110094" cy="6.38555502082147"></circle><circle class="pearl" r="2.1904339371426507" cx="25.811734881814683" cy="19.51475841496467"></circle><circle class="pearl" r="2.1904339371426507" cx="5.683208771920747" cy="22.624456760518818"></circle><circle class="pearl" r="2.1904339371426507" cx="20.087954497923896" cy="4.511948588307946"></circle></g><g class="bobaCup bright" cupRadius="14.743400430088053" width="29.486800860176107" height="29.486800860176107" pearlRadius="2.7380424214283132" pearlCount="11" transform="translate(114.28986474855998,27.678129504801923)"><circle class="pool" r="14.743400430088053" cx="14.743400430088053" cy="14.743400430088053" style="stroke-width: 1; fill: rgb(29, 145, 192);"></circle><circle class="pearl" r="2.1904339371426507" cx="18.675986440643044" cy="14.97028090393978"></circle><circle class="pearl" r="2.1904339371426507" cx="11.051770563830909" cy="16.59494574320244"></circle><circle class="pearl" r="2.1904339371426507" cx="13.672434339973073" cy="8.955171074443706"></circle><circle class="pearl" r="2.1904339371426507" cx="20.750194125347523" cy="24.556936770632223"></circle><circle class="pearl" r="2.1904339371426507" cx="3.6880594027930895" cy="13.694815505411189"></circle><circle class="pearl" r="2.1904339371426507" cx="25.257803460254213" cy="10.654750981192588"></circle><circle class="pearl" r="2.1904339371426507" cx="13.022968224468075" cy="25.735353502923967"></circle><circle class="pearl" r="2.1904339371426507" cx="6.371767430967332" cy="6.258077466840583"></circle><circle class="pearl" r="2.1904339371426507" cx="25.326404956498845" cy="18.586426638557004"></circle><circle class="pearl" r="2.1904339371426507" cx="5.9290828000936004" cy="22.61681218333787"></circle><circle class="pearl" r="2.1904339371426507" cx="20.264854390036707" cy="4.723666372595589"></circle></g><g class="bobaCup bright" cupRadius="14.731246541518438" width="29.462493083036875" height="29.462493083036875" pearlRadius="2.7380424214283137" pearlCount="11" transform="translate(101.63418274167236,238.84764017679208)"><circle class="pool" r="14.731246541518438" cx="14.731246541518438" cy="14.731246541518438" style="stroke-width: 1; fill: rgb(127, 205, 187);"></circle><circle class="pearl" r="2.190433937142651" cx="18.66420643843041" cy="14.96722817357266"></circle><circle class="pearl" r="2.190433937142651" cx="11.046144827872594" cy="16.591081427733567"></circle><circle class="pearl" r="2.190433937142651" cx="13.655630323216462" cy="8.967513333985945"></circle><circle class="pearl" r="2.190433937142651" cx="20.760298119916264" cy="24.52151143629668"></circle><circle class="pearl" r="2.190433937142651" cx="3.6878969981811487" cy="13.685373680765329"></circle><circle class="pearl" r="2.190433937142651" cx="25.22835091823927" cy="10.626542079813687"></circle><circle class="pearl" r="2.190433937142651" cx="13.043093211098364" cy="25.714721719419455"></circle><circle class="pearl" r="2.190433937142651" cx="6.371453290489507" cy="6.252522896177666"></circle><circle class="pearl" r="2.190433937142651" cx="25.306820956960923" cy="18.555129386341612"></circle><circle class="pearl" r="2.190433937142651" cx="5.94586006830038" cy="22.627625468093893"></circle><circle class="pearl" r="2.190433937142651" cx="20.226128866446743" cy="4.713908718784936"></circle></g><g class="bobaCup bright" cupRadius="14.688374893053302" width="29.376749786106604" height="29.376749786106604" pearlRadius="2.7380424214283137" pearlCount="11" transform="translate(81.53840004821458,149.58734999791923)"><circle class="pool" r="14.688374893053302" cx="14.688374893053302" cy="14.688374893053302" style="stroke-width: 1; fill: rgb(127, 205, 187);"></circle><circle class="pearl" r="2.190433937142651" cx="18.62299857620199" cy="14.958498069022182"></circle><circle class="pearl" r="2.190433937142651" cx="11.02531303788249" cy="16.578970419994913"></circle><circle class="pearl" r="2.190433937142651" cx="13.594161727741598" cy="9.016924433845356"></circle><circle class="pearl" r="2.190433937142651" cx="20.801628371101835" cy="24.393417794210833"></circle><circle class="pearl" r="2.190433937142651" cx="3.687388581436336" cy="13.651184192728135"></circle><circle class="pearl" r="2.190433937142651" cx="25.12273573394742" cy="10.52198991864488"></circle><circle class="pearl" r="2.190433937142651" cx="13.120309690555889" cy="25.642086899012696"></circle><circle class="pearl" r="2.190433937142651" cx="6.3707157737147035" cy="6.232698831440619"></circle><circle class="pearl" r="2.190433937142651" cx="25.23905057989192" cy="18.43919158335938"></circle><circle class="pearl" r="2.190433937142651" cx="6.009413381709715" cy="22.671308640316514"></circle><circle class="pearl" r="2.190433937142651" cx="20.081677820321456" cy="4.676717636013567"></circle></g><g class="bobaCup bright" cupRadius="14.685328109763397" width="29.370656219526794" height="29.370656219526794" pearlRadius="2.7380424214283137" pearlCount="11" transform="translate(224.49245007914357,86.57404654874895)"><circle class="pool" r="14.685328109763397" cx="14.685328109763397" cy="14.685328109763397" style="stroke-width: 1; fill: rgb(127, 205, 187);"></circle><circle class="pearl" r="2.190433937142651" cx="18.62009022902857" cy="14.957993123933084"></circle><circle class="pearl" r="2.190433937142651" cx="11.023767360135622" cy="16.578229460487833"></circle><circle class="pearl" r="2.190433937142651" cx="13.589646840109356" cy="9.020804300527038"></circle><circle class="pearl" r="2.190433937142651" cx="20.804971258507585" cy="24.384092864760643"></circle><circle class="pearl" r="2.190433937142651" cx="3.687356166527408" cy="13.648703078769502"></circle><circle class="pearl" r="2.190433937142651" cx="25.11511027586504" cy="10.514209612046116"></circle><circle class="pearl" r="2.190433937142651" cx="13.126243902977697" cy="25.636937507439338"></circle><circle class="pearl" r="2.190433937142651" cx="6.370686515261793" cy="6.231275551629848"></circle><circle class="pearl" r="2.190433937142651" cx="25.234325591167238" cy="18.430564210480696"></circle><circle class="pearl" r="2.190433937142651" cx="6.014241803582053" cy="22.67481316705533"></circle><circle class="pearl" r="2.190433937142651" cx="20.070892661354804" cy="4.673893523697403"></circle></g><g class="bobaCup bright" cupRadius="14.433246180299111" width="28.866492360598222" height="28.866492360598222" pearlRadius="2.738042421428314" pearlCount="10" transform="translate(146.90425588909736,285.56675381970086)"><circle class="pool" r="14.433246180299111" cx="14.433246180299111" cy="14.433246180299111" style="stroke-width: 1; fill: rgb(29, 145, 192);"></circle><circle class="pearl" r="2.1904339371426516" cx="18.068726341074058" cy="12.66266799003242"></circle><circle class="pearl" r="2.1904339371426516" cx="11.088265547591803" cy="16.38606433242085"></circle><circle class="pearl" r="2.1904339371426516" cx="14.634697360538947" cy="5.452197530907318"></circle><circle class="pearl" r="2.1904339371426516" cx="21.495504029256587" cy="23.36994164564448"></circle><circle class="pearl" r="2.1904339371426516" cx="3.6918375524912848" cy="13.344606694646417"></circle><circle class="pearl" r="2.1904339371426516" cx="22.621538006534326" cy="6.198243841218533"></circle><circle class="pearl" r="2.1904339371426516" cx="13.745436466945353" cy="25.199371189097217"></circle><circle class="pearl" r="2.1904339371426516" cx="6.653931368162749" cy="5.926631856807463"></circle><circle class="pearl" r="2.1904339371426516" cx="25.092669512818976" cy="16.314283314758633"></circle><circle class="pearl" r="2.1904339371426516" cx="6.240050592471732" cy="22.664868736998073"></circle></g><g class="bobaCup bright" cupRadius="14.394186550670495" width="28.78837310134099" height="28.78837310134099" pearlRadius="2.7380424214283132" pearlCount="10" transform="translate(97.638996135121,190.8320113553525)"><circle class="pool" r="14.394186550670495" cx="14.394186550670495" cy="14.394186550670495" style="stroke-width: 1; fill: rgb(127, 205, 187);"></circle><circle class="pearl" r="2.1904339371426507" cx="17.976759281019206" cy="12.567010887894003"></circle><circle class="pearl" r="2.1904339371426507" cx="11.069913444468446" cy="16.331823835664878"></circle><circle class="pearl" r="2.1904339371426507" cx="14.602892116016664" cy="5.324356343404178"></circle><circle class="pearl" r="2.1904339371426507" cx="21.527787379585913" cy="23.245636959879388"></circle><circle class="pearl" r="2.1904339371426507" cx="3.6907277020679947" cy="13.321776484113865"></circle><circle class="pearl" r="2.1904339371426507" cx="22.537633833820944" cy="6.175753414863656"></circle><circle class="pearl" r="2.1904339371426507" cx="13.775261013815877" cy="25.124337344054144"></circle><circle class="pearl" r="2.1904339371426507" cx="6.633209145806178" cy="5.9222105675689205"></circle><circle class="pearl" r="2.1904339371426507" cx="25.032780627381353" cy="16.128550239310616"></circle><circle class="pearl" r="2.1904339371426507" cx="6.2466120737669835" cy="22.60978695660449"></circle></g><g class="bobaCup bright" cupRadius="14.318929729361853" width="28.637859458723707" height="28.637859458723707" pearlRadius="2.7380424214283132" pearlCount="10" transform="translate(233.79691876755157,22.181650116815362)"><circle class="pool" r="14.318929729361853" cx="14.318929729361853" cy="14.318929729361853" style="stroke-width: 1; fill: rgb(127, 205, 187);"></circle><circle class="pearl" r="2.1904339371426507" cx="17.83470409148652" cy="12.415918773145467"></circle><circle class="pearl" r="2.1904339371426507" cx="11.066534615383341" cy="16.272476011501475"></circle><circle class="pearl" r="2.1904339371426507" cx="14.546949863764231" cy="5.127477529118249"></circle><circle class="pearl" r="2.1904339371426507" cx="21.51348131314906" cy="23.048439782220797"></circle><circle class="pearl" r="2.1904339371426507" cx="3.687157469247434" cy="13.29811083745156"></circle><circle class="pearl" r="2.1904339371426507" cx="22.379125014159033" cy="6.134746935266933"></circle><circle class="pearl" r="2.1904339371426507" cx="13.77304537605045" cy="24.976726999682764"></circle><circle class="pearl" r="2.1904339371426507" cx="6.600425002350532" cy="5.909120906091002"></circle><circle class="pearl" r="2.1904339371426507" cx="24.900993273240218" cy="15.88721837766316"></circle><circle class="pearl" r="2.1904339371426507" cx="6.253003069174489" cy="22.499207122330834"></circle></g><g class="bobaCup bright" cupRadius="14.118534259766598" width="28.237068519533196" height="28.237068519533196" pearlRadius="2.7380424214283137" pearlCount="10" transform="translate(102.58236383101166,207.1762815563739)"><circle class="pool" r="14.118534259766598" cx="14.118534259766598" cy="14.118534259766598" style="stroke-width: 1; fill: rgb(29, 145, 192);"></circle><circle class="pearl" r="2.190433937142651" cx="17.4570582109135" cy="12.020723166773317"></circle><circle class="pearl" r="2.190433937142651" cx="11.106368654872076" cy="16.168906593933624"></circle><circle class="pearl" r="2.190433937142651" cx="14.281617823540728" cy="4.609021737876124"></circle><circle class="pearl" r="2.190433937142651" cx="21.44641677176637" cy="22.535749858291506"></circle><circle class="pearl" r="2.190433937142651" cx="3.6710811617040484" cy="13.360620077718178"></circle><circle class="pearl" r="2.190433937142651" cx="21.95863291537626" cy="6.027628013920143"></circle><circle class="pearl" r="2.190433937142651" cx="13.741862624488803" cy="24.581319741767107"></circle><circle class="pearl" r="2.190433937142651" cx="6.412894454236215" cy="5.93895213168569"></circle><circle class="pearl" r="2.190433937142651" cx="24.538499495109686" cy="15.279885109284407"></circle><circle class="pearl" r="2.190433937142651" cx="6.27135217353994" cy="22.204707680216778"></circle></g><g class="bobaCup bright" cupRadius="14.040177694039393" width="28.080355388078786" height="28.080355388078786" pearlRadius="2.738042421428314" pearlCount="10" transform="translate(118.9213300222284,176.31590657341596)"><circle class="pool" r="14.040177694039393" cx="14.040177694039393" cy="14.040177694039393" style="stroke-width: 1; fill: rgb(29, 145, 192);"></circle><circle class="pearl" r="2.1904339371426516" cx="17.290808386131605" cy="11.848661712697723"></circle><circle class="pearl" r="2.1904339371426516" cx="11.129260212266697" cy="16.140350287151517"></circle><circle class="pearl" r="2.1904339371426516" cx="14.18476506824101" cy="4.383116872329523"></circle><circle class="pearl" r="2.1904339371426516" cx="21.420052749229196" cy="22.333659497616267"></circle><circle class="pearl" r="2.1904339371426516" cx="3.6663996318725656" cy="13.376887993914337"></circle><circle class="pearl" r="2.1904339371426516" cx="21.794486433117104" cy="5.98631696335484"></circle><circle class="pearl" r="2.1904339371426516" cx="13.727582467583815" cy="24.42615186566179"></circle><circle class="pearl" r="2.1904339371426516" cx="6.357178065386405" cy="5.939385854913063"></circle><circle class="pearl" r="2.1904339371426516" cx="24.39460880545889" cy="15.031258716582084"></circle><circle class="pearl" r="2.1904339371426516" cx="6.27951991350942" cy="22.089829694224903"></circle></g><g class="bobaCup bright" cupRadius="13.87292059288026" width="27.74584118576052" height="27.74584118576052" pearlRadius="2.738042421428313" pearlCount="10" transform="translate(124.80663552894234,154.50746624984612)"><circle class="pool" r="13.87292059288026" cx="13.87292059288026" cy="13.87292059288026" style="stroke-width: 1; fill: rgb(65, 182, 196);"></circle><circle class="pearl" r="2.1904339371426502" cx="16.877761803317814" cy="11.426522054358989"></circle><circle class="pearl" r="2.1904339371426502" cx="11.20289165350123" cy="16.1137505483075"></circle><circle class="pearl" r="2.1904339371426502" cx="13.99807544001966" cy="3.8861701459965103"></circle><circle class="pearl" r="2.1904339371426502" cx="21.360668580830318" cy="21.90087690633408"></circle><circle class="pearl" r="2.1904339371426502" cx="3.6588117663265334" cy="13.399256302961017"></circle><circle class="pearl" r="2.1904339371426502" cx="21.447214010593324" cy="5.900907267663776"></circle><circle class="pearl" r="2.1904339371426502" cx="13.688521593133247" cy="24.09389238637672"></circle><circle class="pearl" r="2.1904339371426502" cx="6.275035368025789" cy="5.916315710025385"></circle><circle class="pearl" r="2.1904339371426502" cx="24.082173522879426" cy="14.472075547984023"></circle><circle class="pearl" r="2.1904339371426502" cx="6.295853164424283" cy="21.84312568183152"></circle></g><g class="bobaCup bright" cupRadius="13.559160895697598" width="27.118321791395196" height="27.118321791395196" pearlRadius="2.738042421428314" pearlCount="9" transform="translate(54.682814654001106,6.440839104302402)"><circle class="pool" r="13.559160895697598" cx="13.559160895697598" cy="13.559160895697598" style="stroke-width: 1; fill: rgb(29, 145, 192);"></circle><circle class="pearl" r="2.1904339371426516" cx="16.696150136012193" cy="11.744215724822437"></circle><circle class="pearl" r="2.1904339371426516" cx="10.516756013750346" cy="15.895120075504943"></circle><circle class="pearl" r="2.1904339371426516" cx="13.624689411957956" cy="3.6508815721274837"></circle><circle class="pearl" r="2.1904339371426516" cx="19.033734181409432" cy="22.3132710612026"></circle><circle class="pearl" r="2.1904339371426516" cx="3.6561214026981763" cy="13.176590271131996"></circle><circle class="pearl" r="2.1904339371426516" cx="20.951804716749223" cy="5.843281222324668"></circle><circle class="pearl" r="2.1904339371426516" cx="11.20003475803351" cy="23.26079206857965"></circle><circle class="pearl" r="2.1904339371426516" cx="6.068534090388438" cy="5.90761204034685"></circle><circle class="pearl" r="2.1904339371426516" cx="23.283905344496443" cy="15.783505429947427"></circle></g><g class="bobaCup bright" cupRadius="13.532665621000842" width="27.065331242001683" height="27.065331242001683" pearlRadius="2.7380424214283137" pearlCount="9" transform="translate(63.68803764530148,165.12457582085833)"><circle class="pool" r="13.532665621000842" cx="13.532665621000842" cy="13.532665621000842" style="stroke-width: 1; fill: rgb(65, 182, 196);"></circle><circle class="pearl" r="2.190433937142651" cx="16.561032936711868" cy="11.66169753176344"></circle><circle class="pearl" r="2.190433937142651" cx="10.46415496157752" cy="15.92951653127622"></circle><circle class="pearl" r="2.190433937142651" cx="13.607882365830042" cy="3.6509322636036785"></circle><circle class="pearl" r="2.190433937142651" cx="19.185138464090247" cy="22.177575339454275"></circle><circle class="pearl" r="2.190433937142651" cx="3.6558781351984635" cy="13.159178429347278"></circle><circle class="pearl" r="2.190433937142651" cx="20.909132486823125" cy="5.8378709950514"></circle><circle class="pearl" r="2.190433937142651" cx="11.373641917617666" cy="23.241270798380697"></circle><circle class="pearl" r="2.190433937142651" cx="6.064828157395469" cy="5.897803245493147"></circle><circle class="pearl" r="2.190433937142651" cx="23.265666200414763" cy="15.534908323920098"></circle></g><g class="bobaCup bright" cupRadius="13.318392807366408" width="26.636785614732815" height="26.636785614732815" pearlRadius="2.7380424214283137" pearlCount="9" transform="translate(273.286723451134,158.54619107219685)"><circle class="pool" r="13.318392807366408" cx="13.318392807366408" cy="13.318392807366408" style="stroke-width: 1; fill: rgb(127, 205, 187);"></circle><circle class="pearl" r="2.190433937142651" cx="15.36607892987613" cy="11.26687159007735"></circle><circle class="pearl" r="2.190433937142651" cx="9.932662737957296" cy="16.69605417314282"></circle><circle class="pearl" r="2.190433937142651" cx="13.388844363719752" cy="3.650909566989931"></circle><circle class="pearl" r="2.190433937142651" cx="20.708185194070747" cy="20.747857097637947"></circle><circle class="pearl" r="2.190433937142651" cx="3.6520037558583933" cy="13.133710672129416"></circle><circle class="pearl" r="2.190433937142651" cx="20.596734314756613" cy="5.815402220660085"></circle><circle class="pearl" r="2.190433937142651" cx="13.4784699935613" cy="22.985100346994162"></circle><circle class="pearl" r="2.190433937142651" cx="6.017987930804248" cy="5.829830798114704"></circle><circle class="pearl" r="2.190433937142651" cx="22.985986215144965" cy="13.273348992678715"></circle></g><g class="bobaCup bright" cupRadius="13.182475229003305" width="26.36495045800661" height="26.36495045800661" pearlRadius="2.7380424214283137" pearlCount="9" transform="translate(79.03056026752742,171.7968598027318)"><circle class="pool" r="13.182475229003305" cx="13.182475229003305" cy="13.182475229003305" style="stroke-width: 1; fill: rgb(29, 145, 192);"></circle><circle class="pearl" r="2.190433937142651" cx="15.160234547872896" cy="11.207686281634237"></circle><circle class="pearl" r="2.190433937142651" cx="9.755980156083302" cy="16.59946863989343"></circle><circle class="pearl" r="2.190433937142651" cx="13.246822936541657" cy="3.6508802799616102"></circle><circle class="pearl" r="2.190433937142651" cx="20.44800972841141" cy="20.531282063175645"></circle><circle class="pearl" r="2.190433937142651" cx="3.6514235883298856" cy="13.046591234950423"></circle><circle class="pearl" r="2.190433937142651" cx="20.335633470024437" cy="5.7602593562247755"></circle><circle class="pearl" r="2.190433937142651" cx="13.287053862015245" cy="22.713812403601487"></circle><circle class="pearl" r="2.190433937142651" cx="5.99775196820349" cy="5.780714355391396"></circle><circle class="pearl" r="2.190433937142651" cx="22.714225099973092" cy="13.174982354585659"></circle></g><g class="bobaCup bright" cupRadius="12.740222451504943" width="25.480444903009886" height="25.480444903009886" pearlRadius="2.7380424214283137" pearlCount="8" transform="translate(209.76316262402364,274.6853718262111)"><circle class="pool" r="12.740222451504943" cx="12.740222451504943" cy="12.740222451504943" style="stroke-width: 1; fill: rgb(65, 182, 196);"></circle><circle class="pearl" r="2.190433937142651" cx="14.260776878473708" cy="12.858155734705882"></circle><circle class="pearl" r="2.190433937142651" cx="6.972077024146495" cy="19.347729613164134"></circle><circle class="pearl" r="2.190433937142651" cx="15.149063452031264" cy="3.880519902029384"></circle><circle class="pearl" r="2.190433937142651" cx="21.093208796127875" cy="17.009206475396446"></circle><circle class="pearl" r="2.190433937142651" cx="3.668435852902487" cy="12.068648322087128"></circle><circle class="pearl" r="2.190433937142651" cx="21.27340397041978" cy="9.016550444195401"></circle><circle class="pearl" r="2.190433937142651" cx="14.614732893379275" cy="21.69106574131302"></circle><circle class="pearl" r="2.190433937142651" cx="7.2212676593858935" cy="4.908158295630699"></circle></g><g class="bobaCup bright" cupRadius="12.265622113317736" width="24.531244226635472" height="24.531244226635472" pearlRadius="2.738042421428314" pearlCount="8" transform="translate(266.05947543083425,76.41548055770407)"><circle class="pool" r="12.265622113317736" cx="12.265622113317736" cy="12.265622113317736" style="stroke-width: 1; fill: rgb(29, 145, 192);"></circle><circle class="pearl" r="2.1904339371426516" cx="13.322648214308122" cy="12.587206418244794"></circle><circle class="pearl" r="2.1904339371426516" cx="5.725224055995673" cy="18.991250800448373"></circle><circle class="pearl" r="2.1904339371426516" cx="14.857803092865671" cy="3.9277639580895287"></circle><circle class="pearl" r="2.1904339371426516" cx="19.896309464645174" cy="17.079691198246067"></circle><circle class="pearl" r="2.1904339371426516" cx="3.6633262759889367" cy="11.70973579634009"></circle><circle class="pearl" r="2.1904339371426516" cx="20.483386951038195" cy="9.169741487872985"></circle><circle class="pearl" r="2.1904339371426516" cx="13.1826706503136" cy="20.846191040831503"></circle><circle class="pearl" r="2.1904339371426516" cx="7.063627994012741" cy="4.80847682405763"></circle></g><g class="bobaCup bright" cupRadius="12.237086084150208" width="24.474172168300417" height="24.474172168300417" pearlRadius="2.738042421428314" pearlCount="7" transform="translate(243.13831178283647,179.8016796285025)"><circle class="pool" r="12.237086084150208" cx="12.237086084150208" cy="12.237086084150208" style="stroke-width: 1; fill: rgb(65, 182, 196);"></circle><circle class="pearl" r="2.1904339371426516" cx="13.953909549344417" cy="12.523256440113228"></circle><circle class="pearl" r="2.1904339371426516" cx="5.886188676338382" cy="14.786995636717931"></circle><circle class="pearl" r="2.1904339371426516" cx="12.22373189845064" cy="3.6507305152048297"></circle><circle class="pearl" r="2.1904339371426516" cx="18.923452053029763" cy="18.786197684577548"></circle><circle class="pearl" r="2.1904339371426516" cx="4.898679536946718" cy="6.8532860690969635"></circle><circle class="pearl" r="2.1904339371426516" cx="19.561340060957715" cy="6.824494175247131"></circle><circle class="pearl" r="2.1904339371426516" cx="11.180491024210466" cy="20.77774844993277"></circle></g><g class="bobaCup bright" cupRadius="11.926893628574458" width="23.853787257148916" height="23.853787257148916" pearlRadius="2.7380424214283132" pearlCount="7" transform="translate(172.31027797261007,229.66873118204194)"><circle class="pool" r="11.926893628574458" cx="11.926893628574458" cy="11.926893628574458" style="stroke-width: 1; fill: rgb(127, 205, 187);"></circle><circle class="pearl" r="2.1904339371426507" cx="13.03707375276293" cy="12.26933642425606"></circle><circle class="pearl" r="2.1904339371426507" cx="4.679246527813098" cy="14.88223907764886"></circle><circle class="pearl" r="2.1904339371426507" cx="12.078403065147977" cy="3.6516855929649887"></circle><circle class="pearl" r="2.1904339371426507" cx="18.44722299249464" cy="18.155896822353274"></circle><circle class="pearl" r="2.1904339371426507" cx="4.767577270056786" cy="6.887663950051763"></circle><circle class="pearl" r="2.1904339371426507" cx="19.234028633933974" cy="7.217739293408819"></circle><circle class="pearl" r="2.1904339371426507" cx="10.702263237988237" cy="20.14002609845919"></circle></g><g class="bobaCup bright" cupRadius="11.598774186234062" width="23.197548372468123" height="23.197548372468123" pearlRadius="2.7380424214283137" pearlCount="7" transform="translate(294.3562902883924,107.56683977961309)"><circle class="pool" r="11.598774186234062" cx="11.598774186234062" cy="11.598774186234062" style="stroke-width: 1; fill: rgb(127, 205, 187);"></circle><circle class="pearl" r="2.190433937142651" cx="11.885497217332242" cy="11.641610270935784"></circle><circle class="pearl" r="2.190433937142651" cx="4.058691441708136" cy="14.647941990036582"></circle><circle class="pearl" r="2.190433937142651" cx="12.139896201787215" cy="3.663352689853136"></circle><circle class="pearl" r="2.190433937142651" cx="18.083828220546703" cy="17.237708651224665"></circle><circle class="pearl" r="2.190433937142651" cx="4.743817991509292" cy="6.683261753314407"></circle><circle class="pearl" r="2.190433937142651" cx="18.9301952133597" cy="7.867277144788486"></circle><circle class="pearl" r="2.190433937142651" cx="10.414056836672403" cy="19.486162043317215"></circle></g><g class="bobaCup bright" cupRadius="11.342983931747295" width="22.68596786349459" height="22.68596786349459" pearlRadius="2.7380424214283132" pearlCount="6" transform="translate(8.657016068252705,63.359501690259066)"><circle class="pool" r="11.342983931747295" cx="11.342983931747295" cy="11.342983931747295" style="stroke-width: 1; fill: rgb(127, 205, 187);"></circle><circle class="pearl" r="2.1904339371426507" cx="11.924300410793755" cy="11.406506234599634"></circle><circle class="pearl" r="2.1904339371426507" cx="6.395920438825299" cy="17.182055756539484"></circle><circle class="pearl" r="2.1904339371426507" cx="9.416848770466038" cy="3.81545650038266"></circle><circle class="pearl" r="2.1904339371426507" cx="17.225564401114298" cy="17.390638479758188"></circle><circle class="pearl" r="2.1904339371426507" cx="3.8006005105229823" cy="9.505146071057897"></circle><circle class="pearl" r="2.1904339371426507" cx="17.326939161491865" cy="5.357547952195573"></circle></g><g class="bobaCup bright" cupRadius="11.065450134093028" width="22.130900268186057" height="22.130900268186057" pearlRadius="2.7380424214283137" pearlCount="6" transform="translate(308.93454986590694,232.0144843740479)"><circle class="pool" r="11.065450134093028" cx="11.065450134093028" cy="11.065450134093028" style="stroke-width: 1; fill: rgb(29, 145, 192);"></circle><circle class="pearl" r="2.190433937142651" cx="11.48893950616996" cy="11.205419620190602"></circle><circle class="pearl" r="2.190433937142651" cx="6.461636807147376" cy="17.476987562090972"></circle><circle class="pearl" r="2.190433937142651" cx="8.57698635198048" cy="3.9341635929034897"></circle><circle class="pearl" r="2.190433937142651" cx="16.802356644168523" cy="16.87686674621088"></circle><circle class="pearl" r="2.190433937142651" cx="3.697597370845914" cy="10.048017196437186"></circle><circle class="pearl" r="2.190433937142651" cx="16.84718124963116" cy="5.281356354490736"></circle></g><g class="bobaCup bright" cupRadius="10.854489432268986" width="21.708978864537972" height="21.708978864537972" pearlRadius="2.7380424214283132" pearlCount="6" transform="translate(141.12121621563384,22.896223451606566)"><circle class="pool" r="10.854489432268986" cx="10.854489432268986" cy="10.854489432268986" style="stroke-width: 1; fill: rgb(127, 205, 187);"></circle><circle class="pearl" r="2.1904339371426507" cx="11.213057820075223" cy="11.100762676754709"></circle><circle class="pearl" r="2.1904339371426507" cx="5.698432553956052" cy="16.75546858091009"></circle><circle class="pearl" r="2.1904339371426507" cx="8.857387592487331" cy="3.83602688699679"></circle><circle class="pearl" r="2.1904339371426507" cx="16.385084690873054" cy="16.543597943121544"></circle><circle class="pearl" r="2.1904339371426507" cx="3.7618548021416016" cy="9.305230656214782"></circle><circle class="pearl" r="2.1904339371426507" cx="16.4743997543662" cy="5.218849066470944"></circle></g><g class="bobaCup bright" cupRadius="10.81085848378618" width="21.62171696757236" height="21.62171696757236" pearlRadius="2.7380424214283132" pearlCount="6" transform="translate(36.47386877757805,29.753691932270666)"><circle class="pool" r="10.81085848378618" cx="10.81085848378618" cy="10.81085848378618" style="stroke-width: 1; fill: rgb(65, 182, 196);"></circle><circle class="pearl" r="2.1904339371426507" cx="11.151297576412844" cy="11.071170732605182"></circle><circle class="pearl" r="2.1904339371426507" cx="5.535154225762835" cy="16.59632122934288"></circle><circle class="pearl" r="2.1904339371426507" cx="8.860636840484796" cy="3.82808291382202"></circle><circle class="pearl" r="2.1904339371426507" cx="16.300979966425697" cy="16.473202809051035"></circle><circle class="pearl" r="2.1904339371426507" cx="3.7760946396013866" cy="9.16920469128952"></circle><circle class="pearl" r="2.1904339371426507" cx="16.400177658512735" cy="5.207708343897671"></circle></g><g class="bobaCup bright" cupRadius="10.554833213372959" width="21.109666426745918" height="21.109666426745918" pearlRadius="2.7380424214283137" pearlCount="6" transform="translate(153.57818457578452,225.10788831152115)"><circle class="pool" r="10.554833213372959" cx="10.554833213372959" cy="10.554833213372959" style="stroke-width: 1; fill: rgb(29, 145, 192);"></circle><circle class="pearl" r="2.190433937142651" cx="10.903178805844055" cy="10.852147215534382"></circle><circle class="pearl" r="2.190433937142651" cx="5.297612749201649" cy="16.0564942180615"></circle><circle class="pearl" r="2.190433937142651" cx="8.655525905610647" cy="3.823016487154483"></circle><circle class="pearl" r="2.190433937142651" cx="15.79574748510952" cy="16.06584135820663"></circle><circle class="pearl" r="2.190433937142651" cx="3.789560882340666" cy="8.848509485458566"></circle><circle class="pearl" r="2.190433937142651" cx="15.920392039565176" cy="5.116261494326173"></circle></g><g class="bobaCup bright" cupRadius="10.259598403905558" width="20.519196807811117" height="20.519196807811117" pearlRadius="2.7380424214283146" pearlCount="5" transform="translate(112.27930076097347,143.7381486462487)"><circle class="pool" r="10.259598403905558" cx="10.259598403905558" cy="10.259598403905558" style="stroke-width: 1; fill: rgb(127, 205, 187);"></circle><circle class="pearl" r="2.1904339371426516" cx="16.56070265905668" cy="7.765507558797303"></circle><circle class="pearl" r="2.1904339371426516" cx="7.166405839004589" cy="16.203285013995796"></circle><circle class="pearl" r="2.1904339371426516" cx="9.698200798989744" cy="3.6660943732532205"></circle><circle class="pearl" r="2.1904339371426516" cx="15.14110022479274" cy="15.632749032060122"></circle><circle class="pearl" r="2.1904339371426516" cx="3.7302402644814565" cy="8.98472478255374"></circle></g><g class="bobaCup bright" cupRadius="9.81281958288868" width="19.62563916577736" height="19.62563916577736" pearlRadius="2.7380424214283132" pearlCount="5" transform="translate(66.97654588062174,233.61315636962436)"><circle class="pool" r="9.81281958288868" cx="9.81281958288868" cy="9.81281958288868" style="stroke-width: 1; fill: rgb(65, 182, 196);"></circle><circle class="pearl" r="2.1904339371426507" cx="15.57305628755159" cy="7.033384154355033"></circle><circle class="pearl" r="2.1904339371426507" cx="6.87507763346352" cy="15.524847040142316"></circle><circle class="pearl" r="2.1904339371426507" cx="8.986642265033062" cy="3.6855645334216875"></circle><circle class="pearl" r="2.1904339371426507" cx="14.625633819501363" cy="14.713601911246261"></circle><circle class="pearl" r="2.1904339371426507" cx="3.700451540220917" cy="8.826170204546305"></circle></g><g class="bobaCup bright" cupRadius="9.797460550232813" width="19.594921100465626" height="19.594921100465626" pearlRadius="2.738042421428313" pearlCount="5" transform="translate(216.60973269073386,42.101981270665235)"><circle class="pool" r="9.797460550232813" cx="9.797460550232813" cy="9.797460550232813" style="stroke-width: 1; fill: rgb(65, 182, 196);"></circle><circle class="pearl" r="2.1904339371426502" cx="15.541702326137466" cy="7.0180962707536985"></circle><circle class="pearl" r="2.1904339371426502" cx="6.8521313295061175" cy="15.49100128491222"></circle><circle class="pearl" r="2.1904339371426502" cx="8.974444525463728" cy="3.6853523321209445"></circle><circle class="pearl" r="2.1904339371426502" cx="14.59677141581937" cy="14.688215440162713"></circle><circle class="pearl" r="2.1904339371426502" cx="3.7011078933463826" cy="8.805117405700198"></circle></g><g class="bobaCup bright" cupRadius="9.475495345400555" width="18.95099069080111" height="18.95099069080111" pearlRadius="2.7380424214283137" pearlCount="4" transform="translate(89.34716673227936,284.20047170787564)"><circle class="pool" r="9.475495345400555" cx="9.475495345400555" cy="9.475495345400555" style="stroke-width: 1; fill: rgb(29, 145, 192);"></circle><circle class="pearl" r="2.190433937142651" cx="14.839667963210085" cy="6.587911468890383"></circle><circle class="pearl" r="2.190433937142651" cx="5.666693223685378" cy="12.404729515395767"></circle><circle class="pearl" r="2.190433937142651" cx="7.309376820415777" cy="3.9016349748911168"></circle><circle class="pearl" r="2.190433937142651" cx="13.395359048068663" cy="14.451456334604725"></circle></g><g class="bobaCup bright" cupRadius="9.367560608300954" width="18.735121216601907" height="18.735121216601907" pearlRadius="2.7380424214283132" pearlCount="4" transform="translate(213.41497689665727,120.79816726101203)"><circle class="pool" r="9.367560608300954" cx="9.367560608300954" cy="9.367560608300954" style="stroke-width: 1; fill: rgb(29, 145, 192);"></circle><circle class="pearl" r="2.1904339371426507" cx="14.591585937886919" cy="6.3692227721522165"></circle><circle class="pearl" r="2.1904339371426507" cx="5.495046080733051" cy="12.247395087830478"></circle><circle class="pearl" r="2.1904339371426507" cx="6.9670203716449475" cy="3.9635282729494383"></circle><circle class="pearl" r="2.1904339371426507" cx="13.235652996973535" cy="14.248487455939337"></circle></g><g class="bobaCup bright" cupRadius="9.129186649119577" width="18.258373298239153" height="18.258373298239153" pearlRadius="2.7380424214283137" pearlCount="4" transform="translate(109.22972065277766,232.29046723548936)"><circle class="pool" r="9.129186649119577" cx="9.129186649119577" cy="9.129186649119577" style="stroke-width: 1; fill: rgb(29, 145, 192);"></circle><circle class="pearl" r="2.190433937142651" cx="14.003330743820658" cy="5.862891194775377"></circle><circle class="pearl" r="2.190433937142651" cx="5.112581927502006" cy="12.05546388466884"></circle><circle class="pearl" r="2.190433937142651" cx="6.197347182880588" cy="4.134311794349834"></circle><circle class="pearl" r="2.190433937142651" cx="12.918565488452618" cy="13.784043285102083"></circle></g><g class="bobaCup bright" cupRadius="8.701199227819968" width="17.402398455639936" height="17.402398455639936" pearlRadius="2.7380424214283132" pearlCount="4" transform="translate(129.26291866963328,249.56769592184517)"><circle class="pool" r="8.701199227819968" cx="8.701199227819968" cy="8.701199227819968" style="stroke-width: 1; fill: rgb(29, 145, 192);"></circle><circle class="pearl" r="2.1904339371426507" cx="12.867826357266814" cy="4.880217497660591"></circle><circle class="pearl" r="2.1904339371426507" cx="4.534572098373121" cy="12.522180957979344"></circle><circle class="pearl" r="2.1904339371426507" cx="4.880217497660591" cy="4.534572098373122"></circle><circle class="pearl" r="2.1904339371426507" cx="12.522180957979344" cy="12.867826357266814"></circle></g><g class="bobaCup bright" cupRadius="8.665478767047265" width="17.33095753409453" height="17.33095753409453" pearlRadius="2.7380424214283137" pearlCount="4" transform="translate(283.821968448003,185.1362854940366)"><circle class="pool" r="8.665478767047265" cx="8.665478767047265" cy="8.665478767047265" style="stroke-width: 1; fill: rgb(65, 182, 196);"></circle><circle class="pearl" r="2.190433937142651" cx="12.747143860265677" cy="4.753868727280979"></circle><circle class="pearl" r="2.190433937142651" cx="4.583813673828853" cy="12.577088806813551"></circle><circle class="pearl" r="2.190433937142651" cx="4.753868727280978" cy="4.583813673828854"></circle><circle class="pearl" r="2.190433937142651" cx="12.577088806813551" cy="12.747143860265677"></circle></g><g class="bobaCup bright" cupRadius="8.636584368906826" width="17.273168737813652" height="17.273168737813652" pearlRadius="2.738042421428314" pearlCount="4" transform="translate(18.401963101002437,222.2527633216848)"><circle class="pool" r="8.636584368906826" cx="8.636584368906826" cy="8.636584368906826" style="stroke-width: 1; fill: rgb(65, 182, 196);"></circle><circle class="pearl" r="2.1904339371426516" cx="12.649779096620858" cy="4.654756758301833"></circle><circle class="pearl" r="2.1904339371426516" cx="4.623389641192794" cy="12.61841197951182"></circle><circle class="pearl" r="2.1904339371426516" cx="4.6547567583018346" cy="4.623389641192793"></circle><circle class="pearl" r="2.1904339371426516" cx="12.618411979511821" cy="12.649779096620858"></circle></g><g class="bobaCup bright" cupRadius="8.30187832283819" width="16.60375664567638" height="16.60375664567638" pearlRadius="2.738042421428313" pearlCount="3" transform="translate(138.9964030208618,194.03266487729113)"><circle class="pool" r="8.30187832283819" cx="8.30187832283819" cy="8.30187832283819" style="stroke-width: 1; fill: rgb(127, 205, 187);"></circle><circle class="pearl" r="2.1904339371426502" cx="12.581793345299621" cy="9.92868818638602"></circle><circle class="pearl" r="2.1904339371426502" cx="4.562224556780234" cy="11.25058219428226"></circle><circle class="pearl" r="2.1904339371426502" cx="7.592972946937848" cy="3.6810456605728814"></circle></g><g class="bobaCup bright" cupRadius="7.921092333498111" width="15.842184666996221" height="15.842184666996221" pearlRadius="2.7380424214283137" pearlCount="3" transform="translate(52.515183631031505,210.7440502844293)"><circle class="pool" r="7.921092333498111" cx="7.921092333498111" cy="7.921092333498111" style="stroke-width: 1; fill: rgb(127, 205, 187);"></circle><circle class="pearl" r="2.190433937142651" cx="12.061723992698976" cy="9.34885028518133"></circle><circle class="pearl" r="2.190433937142651" cx="4.470637530833809" cy="11.400450830305312"></circle><circle class="pearl" r="2.190433937142651" cx="6.3989488987011836" cy="3.7983489531676593"></circle></g><g class="bobaCup bright" cupRadius="7.782256698827625" width="15.56451339765525" height="15.56451339765525" pearlRadius="2.7380424214283137" pearlCount="3" transform="translate(256.18464428277014,25.67437980469144)"><circle class="pool" r="7.782256698827625" cx="7.782256698827625" cy="7.782256698827625" style="stroke-width: 1; fill: rgb(65, 182, 196);"></circle><circle class="pearl" r="2.190433937142651" cx="11.811796612984622" cy="9.038074115851296"></circle><circle class="pearl" r="2.190433937142651" cx="4.485340719461399" cy="11.18092098630693"></circle><circle class="pearl" r="2.190433937142651" cx="5.988475081875231" cy="3.8602745431168746"></circle></g><g class="bobaCup bright" cupRadius="7.780941958353135" width="15.56188391670627" height="15.56188391670627" pearlRadius="2.7380424214283137" pearlCount="3" transform="translate(198.73605708861842,57.65486634061801)"><circle class="pool" r="7.780941958353135" cx="7.780941958353135" cy="7.780941958353135" style="stroke-width: 1; fill: rgb(127, 205, 187);"></circle><circle class="pearl" r="2.190433937142651" cx="11.809575687161956" cy="9.034151629717487"></circle><circle class="pearl" r="2.190433937142651" cx="4.485552722446584" cy="11.178868780900459"></circle><circle class="pearl" r="2.190433937142651" cx="5.983663590240787" cy="3.861140223173309"></circle></g><g class="bobaCup bright" cupRadius="7.455554124648492" width="14.911108249296984" height="14.911108249296984" pearlRadius="2.7380424214283137" pearlCount="3" transform="translate(203.0020774430532,60.94459606620695)"><circle class="pool" r="7.455554124648492" cx="7.455554124648492" cy="7.455554124648492" style="stroke-width: 1; fill: rgb(29, 145, 192);"></circle><circle class="pearl" r="2.190433937142651" cx="11.260384630356405" cy="7.457966766690152"></circle><circle class="pearl" r="2.190433937142651" cx="4.555721678506137" cy="10.67332848214841"></circle><circle class="pearl" r="2.190433937142651" cx="4.555539821342374" cy="4.237856548829162"></circle></g><g class="bobaCup bright" cupRadius="7.174636648959996" width="14.349273297919993" height="14.349273297919993" pearlRadius="2.7380424214283137" pearlCount="3" transform="translate(272.38206253444133,216.35688335315976)"><circle class="pool" r="7.174636648959996" cx="7.174636648959996" cy="7.174636648959996" style="stroke-width: 1; fill: rgb(127, 205, 187);"></circle><circle class="pearl" r="2.190433937142651" cx="10.034222509467417" cy="10.104048658435769"></circle><circle class="pearl" r="2.190433937142651" cx="4.321889335108376" cy="10.107016321598362"></circle><circle class="pearl" r="2.190433937142651" cx="6.6962955715855905" cy="3.666686756184066"></circle></g><g class="bobaCup bright" cupRadius="6.60378390316371" width="13.20756780632742" height="13.20756780632742" pearlRadius="2.7380424214283137" pearlCount="2" transform="translate(269.9751590893574,279.46650379921186)"><circle class="pool" r="6.60378390316371" cx="6.60378390316371" cy="6.60378390316371" style="stroke-width: 1; fill: rgb(65, 182, 196);"></circle><circle class="pearl" r="2.190433937142651" cx="8.988349558157285" cy="4.096276178229626"></circle><circle class="pearl" r="2.190433937142651" cx="4.219218248170134" cy="9.111291628097794"></circle></g><g class="bobaCup bright" cupRadius="6.128896661220593" width="12.257793322441186" height="12.257793322441186" pearlRadius="2.7380424214283132" pearlCount="2" transform="translate(110.68542182118561,262.8617387527793)"><circle class="pool" r="6.128896661220593" cx="6.128896661220593" cy="6.128896661220593" style="stroke-width: 1; fill: rgb(65, 182, 196);"></circle><circle class="pearl" r="2.1904339371426507" cx="8.083709153847892" cy="3.9708263487378046"></circle><circle class="pearl" r="2.1904339371426507" cx="4.174084168593294" cy="8.286966973703382"></circle></g><g class="bobaCup bright" cupRadius="5.8766589422713" width="11.7533178845426" height="11.7533178845426" pearlRadius="2.738042421428314" pearlCount="2" transform="translate(36.985647422572754,284.1051815000343)"><circle class="pool" r="5.8766589422713" cx="5.8766589422713" cy="5.8766589422713" style="stroke-width: 1; fill: rgb(65, 182, 196);"></circle><circle class="pearl" r="2.1904339371426516" cx="7.664715955836421" cy="3.9293492627560265"></circle><circle class="pearl" r="2.1904339371426516" cx="4.088601928706181" cy="7.823968621786575"></circle></g><g class="bobaCup bright" cupRadius="5.342513412054576" width="10.685026824109151" height="10.685026824109151" pearlRadius="2.7380424214283132" pearlCount="1" transform="translate(139.368374383722,288.78466932429086)"><circle class="pool" r="5.342513412054576" cx="5.342513412054576" cy="5.342513412054576" style="stroke-width: 1; fill: rgb(65, 182, 196);"></circle><circle class="pearl" r="2.1904339371426507" cx="7.016730774668644" cy="5.342513412054576"></circle></g><g class="bobaCup bright" cupRadius="3.8215994437250456" width="7.643198887450091" height="7.643198887450091" pearlRadius="2.7380424214283137" pearlCount="1" transform="translate(293.77132993067204,148.4471176508421)"><circle class="pool" r="3.8215994437250456" cx="3.8215994437250456" cy="3.8215994437250456" style="stroke-width: 1; fill: rgb(65, 182, 196);"></circle><circle class="pearl" r="2.190433937142651" cx="3.9924756588790062" cy="3.8215994437250456"></circle></g><g class="bobaCup bright" cupRadius="0" width="0" height="0" pearlRadius="NaN" pearlCount="0" transform="translate(20,300)"><circle class="pool" r="0" cx="0" cy="0" style="stroke-width: 1; fill: rgb(29, 145, 192);"></circle></g><g class="bobaCup bright" cupRadius="0" width="0" height="0" pearlRadius="NaN" pearlCount="0" transform="translate(211.84258064471106,282.416218845161)"><circle class="pool" r="0" cx="0" cy="0" style="stroke-width: 1; fill: rgb(29, 145, 192);"></circle></g></g><g id="legendDividerGroup" transform="translate(410,0)" height="400"><rect class="legendDivider" height="400" width="90"></rect></g><g id="legend" transform="translate(410,30)" width="90" height="320"><rect class="legendBorder" transform="translate(0,0)" width="90" height="324.9477195110013"></rect><text id="rTitle" text-anchor="middle" alignment-baseline="hanging" transform="translate(45,10)" x="0" y="0" style="fill: black; font-size: 0.8rem;">Population</text><text id="bobaValue" text-anchor="middle" alignment-baseline="hanging" transform="translate(45,25)" x="0" y="0" style="fill: black; font-size: 0.7rem;">(1 Pearl =   75)</text><g class="bright" cupRadius="8.944271909999157" width="17.888543819998315" height="17.888543819998315" pearlRadius="2.7380424214283137" pearlCount="4" transform="translate(36.05572809000084,50)"><circle class="pool" r="8.944271909999157" cx="8.944271909999157" cy="8.944271909999157" style="stroke-width: 1; fill: rgb(127, 205, 187);"></circle><circle class="pearl" r="2.190433937142651" cx="13.542613460651705" cy="5.486970900805408"></circle><circle class="pearl" r="2.190433937142651" cx="4.749399498236599" cy="12.229516637519536"></circle><circle class="pearl" r="2.190433937142651" cx="5.638545202394075" cy="4.284028231246737"></circle><circle class="pearl" r="2.190433937142651" cx="12.653467756495177" cy="13.432459307079188"></circle></g><text id="0" class="legendSampleValue" text-anchor="middle" transform="translate(45,8)" x="0" y="72.88854381999832" style="fill: black; font-size: 0.7rem;"> 300</text><g class="bright" cupRadius="12.649110640673516" width="25.298221281347033" height="25.298221281347033" pearlRadius="2.738042421428314" pearlCount="8" transform="translate(32.35088935932649,92.88854381999832)"><circle class="pool" r="12.649110640673516" cx="12.649110640673516" cy="12.649110640673516" style="stroke-width: 1; fill: rgb(127, 205, 187);"></circle><circle class="pearl" r="2.1904339371426516" cx="14.071403428550017" cy="12.84687879177114"></circle><circle class="pearl" r="2.1904339371426516" cx="6.440581911774734" cy="19.57795138257093"></circle><circle class="pearl" r="2.1904339371426516" cx="15.102737084551539" cy="3.89097746448665"></circle><circle class="pearl" r="2.1904339371426516" cx="20.833946229646855" cy="17.1122426661066"></circle><circle class="pearl" r="2.1904339371426516" cx="3.6634707295578797" cy="12.081372495075822"></circle><circle class="pearl" r="2.1904339371426516" cx="21.146215105325396" cy="9.123450087562196"></circle><circle class="pearl" r="2.1904339371426516" cx="14.187116834584858" cy="21.553646746241665"></circle><circle class="pearl" r="2.1904339371426516" cx="7.171845845081945" cy="4.898098459274188"></circle></g><text id="1" class="legendSampleValue" text-anchor="middle" transform="translate(45,8)" x="0" y="123.18676510134534" style="fill: black; font-size: 0.7rem;"> 600</text><g class="bright" cupRadius="15.491933384829666" width="30.983866769659333" height="30.983866769659333" pearlRadius="2.7380424214283137" pearlCount="12" transform="translate(29.508066615170335,143.18676510134534)"><circle class="pool" r="15.491933384829666" cx="15.491933384829666" cy="15.491933384829666" style="stroke-width: 1; fill: rgb(127, 205, 187);"></circle><circle class="pearl" r="2.190433937142651" cx="17.03301174338476" cy="11.017376109139578"></circle><circle class="pearl" r="2.190433937142651" cx="11.029309432951331" cy="17.003470400319355"></circle><circle class="pearl" r="2.190433937142651" cx="13.977981653444434" cy="3.7248762882360538"></circle><circle class="pearl" r="2.190433937142651" cx="18.741808845067855" cy="18.756462357333636"></circle><circle class="pearl" r="2.190433937142651" cx="3.7255296891956267" cy="13.971342248807426"></circle><circle class="pearl" r="2.190433937142651" cx="26.986613481001935" cy="12.233596672509563"></circle><circle class="pearl" r="2.190433937142651" cx="12.152198575888583" cy="26.968872613027877"></circle><circle class="pearl" r="2.190433937142651" cx="6.524197378590721" cy="6.5101702816287865"></circle><circle class="pearl" r="2.190433937142651" cx="26.508263068801245" cy="20.47967424223933"></circle><circle class="pearl" r="2.190433937142651" cx="5.419021306595214" cy="22.67955009454649"></circle><circle class="pearl" r="2.190433937142651" cx="22.7607980495765" cy="5.461881544509557"></circle><circle class="pearl" r="2.190433937142651" cx="20.400071923945603" cy="26.53509242340789"></circle></g><text id="2" class="legendSampleValue" text-anchor="middle" transform="translate(45,8)" x="0" y="179.17063187100467" style="fill: black; font-size: 0.7rem;"> 900</text><g class="bright" cupRadius="17.888543819998315" width="35.77708763999663" height="35.77708763999663" pearlRadius="2.7380424214283137" pearlCount="16" transform="translate(27.111456180001685,199.17063187100467)"><circle class="pool" r="17.888543819998315" cx="17.888543819998315" cy="17.888543819998315" style="stroke-width: 1; fill: rgb(127, 205, 187);"></circle><circle class="pearl" r="2.190433937142651" cx="19.804693062551593" cy="19.706925044831753"></circle><circle class="pearl" r="2.190433937142651" cx="13.339172784724301" cy="23.858410298028687"></circle><circle class="pearl" r="2.190433937142651" cx="16.092791630714295" cy="11.11354324394561"></circle><circle class="pearl" r="2.190433937142651" cx="20.83612953404815" cy="27.499380517199562"></circle><circle class="pearl" r="2.190433937142651" cx="10.312657514553903" cy="16.56124087753137"></circle><circle class="pearl" r="2.190433937142651" cx="23.67875583770065" cy="13.13675787817294"></circle><circle class="pearl" r="2.190433937142651" cx="14.311679794483904" cy="31.76511484190927"></circle><circle class="pearl" r="2.190433937142651" cx="11.081450997216848" cy="4.996489551968747"></circle><circle class="pearl" r="2.190433937142651" cx="27.67435150439312" cy="20.796258814455644"></circle><circle class="pearl" r="2.190433937142651" cx="4.000488629236898" cy="21.40866477780025"></circle><circle class="pearl" r="2.190433937142651" cx="28.33359673438834" cy="7.016840611654928"></circle><circle class="pearl" r="2.190433937142651" cx="28.522531366621056" cy="28.622475917790542"></circle><circle class="pearl" r="2.190433937142651" cx="5.303915419923033" cy="10.377661215789297"></circle><circle class="pearl" r="2.190433937142651" cx="31.694235049536683" cy="13.980399213320226"></circle><circle class="pearl" r="2.190433937142651" cx="7.3110738720782" cy="28.664085856590173"></circle><circle class="pearl" r="2.190433937142651" cx="18.987039995684736" cy="3.6844832035601804"></circle></g><text id="3" class="legendSampleValue" text-anchor="middle" transform="translate(45,8)" x="0" y="239.9477195110013" style="fill: black; font-size: 0.7rem;">1.2k</text><g class="bright" cupRadius="20" width="40" height="40" pearlRadius="2.7380424214283137" pearlCount="20" transform="translate(25,259.9477195110013)"><circle class="pool" r="20" cx="20" cy="20" style="stroke-width: 1; fill: rgb(127, 205, 187);"></circle><circle class="pearl" r="2.190433937142651" cx="22.480421380823074" cy="19.96094551607325"></circle><circle class="pearl" r="2.190433937142651" cx="14.554532211889109" cy="20.25858246523202"></circle><circle class="pearl" r="2.190433937142651" cx="21.718613402750453" cy="11.231225788085391"></circle><circle class="pearl" r="2.190433937142651" cx="25.13767186853209" cy="27.447308990534317"></circle><circle class="pearl" r="2.190433937142651" cx="6.622341466842937" cy="15.212813608895589"></circle><circle class="pearl" r="2.190433937142651" cx="28.49521909515808" cy="14.82158787688231"></circle><circle class="pearl" r="2.190433937142651" cx="17.504603283401977" cy="28.993209871734443"></circle><circle class="pearl" r="2.190433937142651" cx="14.13811847195522" cy="12.373399584276378"></circle><circle class="pearl" r="2.190433937142651" cx="31.11803529924844" cy="22.444175683247455"></circle><circle class="pearl" r="2.190433937142651" cx="10.013176726772668" cy="26.767604068489224"></circle><circle class="pearl" r="2.190433937142651" cx="25.1625299271706" cy="4.328500666167248"></circle><circle class="pearl" r="2.190433937142651" cx="27.782608687955303" cy="34.772930101052836"></circle><circle class="pearl" r="2.190433937142651" cx="8.036930275650786" cy="7.623092000895575"></circle><circle class="pearl" r="2.190433937142651" cx="36.040664285033515" cy="16.500106031740792"></circle><circle class="pearl" r="2.190433937142651" cx="11.3070075503718" cy="34.36126950601293"></circle><circle class="pearl" r="2.190433937142651" cx="16.81383473400994" cy="3.9061454691506903"></circle><circle class="pearl" r="2.190433937142651" cx="33.74247113697989" cy="29.87303346303284"></circle><circle class="pearl" r="2.190433937142651" cx="3.788525504185259" cy="22.343736665541265"></circle><circle class="pearl" r="2.190433937142651" cx="32.18050534208177" cy="7.787706818962306"></circle><circle class="pearl" r="2.190433937142651" cx="20.00567962395882" cy="36.34927596497569"></circle></g><text id="4" class="legendSampleValue" text-anchor="middle" transform="translate(45,8)" x="0" y="304.9477195110013" style="fill: black; font-size: 0.7rem;">1.5k</text></g></svg>