<?xml version="1.0" standalone="no"?>
<?xml-stylesheet xmlns="http://www.w3.org/2000/svg" type="text/css" href="style.css"?>
<svg id="syntheticVisC" class="default" xTitle="Percent Cat Owners" yTitle="Percent Dog Owners" rTitle="Population" chartTitle="Towns in Vizzyland" width="500" height="400" xmlns="http://www.w3.org/2000/svg"><rect class="background" width="500" height="400"></rect><text id="chartTitle" text-anchor="middle" transform="translate(250,20)" x="0" y="0" style="fill: black; font-size: 1.2rem;">Towns in Vizzyland</text><g id="yAxis" transform="translate(50,30)" fill="none" font-size="10" font-family="sans-serif" text-anchor="end"><path class="domain" stroke="currentColor" d="M-6,300H0V20H-6"></path><g class="tick" opacity="1" transform="translate(0,300)"><line stroke="currentColor" x2="-6"></line><text fill="currentColor" x="-9" dy="0.32em">0</text></g><g class="tick" opacity="1" transform="translate(0,272)"><line stroke="currentColor" x2="-6"></line><text fill="currentColor" x="-9" dy="0.32em">10</text></g><g class="tick" opacity="1" transform="translate(0,244)"><line stroke="currentColor" x2="-6"></line><text fill="currentColor" x="-9" dy="0.32em">20</text></g><g class="tick" opacity="1" transform="translate(0,216)"><line stroke="currentColor" x2="-6"></line><text fill="currentColor" x="-9" dy="0.32em">30</text></g><g class="tick" opacity="1" transform="translate(0,188)"><line stroke="currentColor" x2="-6"></line><text fill="currentColor" x="-9" dy="0.32em">40</text></g><g class="tick" opacity="1" transform="translate(0,160)"><line stroke="currentColor" x2="-6"></line><text fill="currentColor" x="-9" dy="0.32em">50</text></g><g class="tick" opacity="1" transform="translate(0,132)"><line stroke="currentColor" x2="-6"></line><text fill="currentColor" x="-9" dy="0.32em">60</text></g><g class="tick" opacity="1" transform="translate(0,104.00000000000001)"><line stroke="currentColor" x2="-6"></line><text fill="currentColor" x="-9" dy="0.32em">70</text></g><g class="tick" opacity="1" transform="translate(0,75.99999999999999)"><line stroke="currentColor" x2="-6"></line><text fill="currentColor" x="-9" dy="0.32em">80</text></g><g class="tick" opacity="1" transform="translate(0,47.99999999999999)"><line stroke="currentColor" x2="-6"></line><text fill="currentColor" x="-9" dy="0.32em">90</text></g><g class="tick" opacity="1" transform="translate(0,20)"><line stroke="currentColor" x2="-6"></line><text fill="currentColor" x="-9" dy="0.32em">100</text></g></g><g id="xAxis" transform="translate(60,360)" fill="none" font-size="10" font-family="sans-serif" text-anchor="middle"><path class="domain" stroke="currentColor" d="M20,6V0H320V6"></path><g class="tick" opacity="1" transform="translate(20,0)"><line stroke="currentColor" y2="6"></line><text fill="currentColor" y="9" dy="0.71em">0</text></g><g class="tick" opacity="1" transform="translate(50,0)"><line stroke="currentColor" y2="6"></line><text fill="currentColor" y="9" dy="0.71em">10</text></g><g class="tick" opacity="1" transform="translate(80,0)"><line stroke="currentColor" y2="6"></line><text fill="currentColor" y="9" dy="0.71em">20</text></g><g class="tick" opacity="1" transform="translate(110,0)"><line stroke="currentColor" y2="6"></line><text fill="currentColor" y="9" dy="0.71em">30</text></g><g class="tick" opacity="1" transform="translate(140,0)"><line stroke="currentColor" y2="6"></line><text fill="currentColor" y="9" dy="0.71em">40</text></g><g class="tick" opacity="1" transform="translate(170,0)"><line stroke="currentColor" y2="6"></line><text fill="currentColor" y="9" dy="0.71em">50</text></g><g class="tick" opacity="1" transform="translate(200,0)"><line stroke="currentColor" y2="6"></line><text fill="currentColor" y="9" dy="0.71em">60</text></g><g class="tick" opacity="1" transform="translate(230,0)"><line stroke="currentColor" y2="6"></line><text fill="currentColor" y="9" dy="0.71em">70</text></g><g class="tick" opacity="1" transform="translate(260,0)"><line stroke="currentColor" y2="6"></line><text fill="currentColor" y="9" dy="0.71em">80</text></g><g class="tick" opacity="1" transform="translate(290,0)"><line stroke="currentColor" y2="6"></line><text fill="currentColor" y="9" dy="0.71em">90</text></g><g class="tick" opacity="1" transform="translate(320,0)"><line stroke="currentColor" y2="6"></line><text fill="currentColor" y="9" dy="0.71em">100</text></g></g><g id="labels"><text id="xTitle" text-anchor="middle" transform="translate(250,350)" x="0" y="40" style="fill: black; font-size: 0.8rem;">Percent Cat Owners</text><g id="group-yTitle" transform="translate(60,190)"><text id="yTitle" text-anchor="middle" transform="rotate(-90)" y="-45" style="fill: black; font-size: 0.8rem;">Percent Dog Owners</text></g></g><g id="quadrant_lines" transform="translate(60,30)"><line id="verticalQuadrantLine" x1="170" y1="10" x2="170" y2="310" class="quadrantLine"></line><line id="horizontalQuadrantLine" x1="10" y1="160" x2="330" y2="160" class="quadrantLine"></line></g><g id="chart" transform="translate(60,30)"><g class="bobaCup bright" cupRadius="20" width="40" height="40" pearlRadius="2.7380424214283137" pearlCount="20" transform="translate(270.2725212844524,74.36002643808334)"><circle class="pool" r="20" cx="20" cy="20" style="stroke-width: 1; fill: rgb(127, 205, 187);"></circle><circle class="pearl" r="2.190433937142651" cx="22.480421380823074" cy="19.96094551607325"></circle><circle class="pearl" r="2.190433937142651" cx="14.554532211889109" cy="20.25858246523202"></circle><circle class="pearl" r="2.190433937142651" cx="21.718613402750453" cy="11.231225788085391"></circle><circle class="pearl" r="2.190433937142651" cx="25.13767186853209" cy="27.447308990534317"></circle><circle class="pearl" r="2.190433937142651" cx="6.622341466842937" cy="15.212813608895589"></circle><circle class="pearl" r="2.190433937142651" cx="28.49521909515808" cy="14.82158787688231"></circle><circle class="pearl" r="2.190433937142651" cx="17.504603283401977" cy="28.993209871734443"></circle><circle class="pearl" r="2.190433937142651" cx="14.13811847195522" cy="12.373399584276378"></circle><circle class="pearl" r="2.190433937142651" cx="31.11803529924844" cy="22.444175683247455"></circle><circle class="pearl" r="2.190433937142651" cx="10.013176726772668" cy="26.767604068489224"></circle><circle class="pearl" r="2.190433937142651" cx="25.1625299271706" cy="4.328500666167248"></circle><circle class="pearl" r="2.190433937142651" cx="27.782608687955303" cy="34.772930101052836"></circle><circle class="pearl" r="2.190433937142651" cx="8.036930275650786" cy="7.623092000895575"></circle><circle class="pearl" r="2.190433937142651" cx="36.040664285033515" cy="16.500106031740792"></circle><circle class="pearl" r="2.190433937142651" cx="11.3070075503718" cy="34.36126950601293"></circle><circle class="pearl" r="2.190433937142651" cx="16.81383473400994" cy="3.9061454691506903"></circle><circle class="pearl" r="2.190433937142651" cx="33.74247113697989" cy="29.87303346303284"></circle><circle class="pearl" r="2.190433937142651" cx="3.788525504185259" cy="22.343736665541265"></circle><circle class="pearl" r="2.190433937142651" cx="32.18050534208177" cy="7.787706818962306"></circle><circle class="pearl" r="2.190433937142651" cx="20.00567962395882" cy="36.34927596497569"></circle></g><g class="bobaCup bright" cupRadius="19.28713618685173" width="38.57427237370346" height="38.57427237370346" pearlRadius="2.738042421428314" pearlCount="19" transform="translate(49.221302441305966,0.712863813148271)"><circle class="pool" r="19.28713618685173" cx="19.28713618685173" cy="19.28713618685173" style="stroke-width: 1; fill: rgb(29, 145, 192);"></circle><circle class="pearl" r="2.1904339371426516" cx="19.21865565598125" cy="19.37731690536611"></circle><circle class="pearl" r="2.1904339371426516" cx="16.082947784703126" cy="26.71080338637346"></circle><circle class="pearl" r="2.1904339371426516" cx="21.018898406571147" cy="11.228708190605715"></circle><circle class="pearl" r="2.1904339371426516" cx="24.042369069798234" cy="26.45006410137886"></circle><circle class="pearl" r="2.1904339371426516" cx="11.09003131133323" cy="20.575561346225804"></circle><circle class="pearl" r="2.1904339371426516" cx="26.724419987477933" cy="16.67444780121532"></circle><circle class="pearl" r="2.1904339371426516" cx="15.696711645141749" cy="34.5864122696382"></circle><circle class="pearl" r="2.1904339371426516" cx="13.369718617643066" cy="12.980276528178756"></circle><circle class="pearl" r="2.1904339371426516" cx="31.350570762348276" cy="23.188068626889937"></circle><circle class="pearl" r="2.1904339371426516" cx="4.4276592202759915" cy="24.70618693636053"></circle><circle class="pearl" r="2.1904339371426516" cx="25.017289613583163" cy="4.521590412275529"></circle><circle class="pearl" r="2.1904339371426516" cx="23.64493799404527" cy="34.42479196498013"></circle><circle class="pearl" r="2.1904339371426516" cx="7.671462698084721" cy="7.540789834086217"></circle><circle class="pearl" r="2.1904339371426516" cx="34.64939455386963" cy="16.046742208342348"></circle><circle class="pearl" r="2.1904339371426516" cx="8.379597843078802" cy="31.54299114371351"></circle><circle class="pearl" r="2.1904339371426516" cx="16.64939593230172" cy="3.8319454451440866"></circle><circle class="pearl" r="2.1904339371426516" cx="30.900049492078164" cy="31.03556445618663"></circle><circle class="pearl" r="2.1904339371426516" cx="3.818462811821082" cy="16.748968382243845"></circle><circle class="pearl" r="2.1904339371426516" cx="31.704477351846887" cy="8.618915672896543"></circle></g><g class="bobaCup bright" cupRadius="19.171560555069732" width="38.343121110139464" height="38.343121110139464" pearlRadius="2.7380424214283137" pearlCount="18" transform="translate(140.677725890559,164.13342589016364)"><circle class="pool" r="19.171560555069732" cx="19.171560555069732" cy="19.171560555069732" style="stroke-width: 1; fill: rgb(127, 205, 187);"></circle><circle class="pearl" r="2.190433937142651" cx="20.744267382983534" cy="18.789713303027426"></circle><circle class="pearl" r="2.190433937142651" cx="14.20754285169829" cy="23.38229117912224"></circle><circle class="pearl" r="2.190433937142651" cx="18.83540877315454" cy="11.09527538264882"></circle><circle class="pearl" r="2.190433937142651" cx="21.436963969519855" cy="26.66495628834266"></circle><circle class="pearl" r="2.190433937142651" cx="11.859184977452843" cy="15.748217822035244"></circle><circle class="pearl" r="2.190433937142651" cx="27.397984163443077" cy="14.421763612052906"></circle><circle class="pearl" r="2.190433937142651" cx="16.41009221974574" cy="32.92236146593657"></circle><circle class="pearl" r="2.190433937142651" cx="13.750819192925539" cy="4.90651238391064"></circle><circle class="pearl" r="2.190433937142651" cx="28.28228574666633" cy="22.563657198392082"></circle><circle class="pearl" r="2.190433937142651" cx="6.236403465883358" cy="23.83555078510484"></circle><circle class="pearl" r="2.190433937142651" cx="29.719378729330074" cy="6.813153080212576"></circle><circle class="pearl" r="2.190433937142651" cx="24.587176742216016" cy="33.91159140103906"></circle><circle class="pearl" r="2.190433937142651" cx="6.73990340735762" cy="8.735767554571552"></circle><circle class="pearl" r="2.190433937142651" cx="34.63997802037386" cy="17.754806079336333"></circle><circle class="pearl" r="2.190433937142651" cx="8.54673327865457" cy="31.478963139483394"></circle><circle class="pearl" r="2.190433937142651" cx="22.270264424810367" cy="3.9028025950785867"></circle><circle class="pearl" r="2.190433937142651" cx="31.405274741589775" cy="29.906241832255315"></circle><circle class="pearl" r="2.190433937142651" cx="3.8819417656218818" cy="16.203029208229683"></circle></g><g class="bobaCup bright" cupRadius="17.876963283775" width="35.75392656755" height="35.75392656755" pearlRadius="2.7380424214283146" pearlCount="16" transform="translate(58.749469877043325,137.0415878084346)"><circle class="pool" r="17.876963283775" cx="17.876963283775" cy="17.876963283775" style="stroke-width: 1; fill: rgb(127, 205, 187);"></circle><circle class="pearl" r="2.1904339371426516" cx="19.788888010163458" cy="19.69058239540371"></circle><circle class="pearl" r="2.1904339371426516" cx="13.331243605373512" cy="23.84099987061254"></circle><circle class="pearl" r="2.1904339371426516" cx="16.084159993084896" cy="11.103619558427182"></circle><circle class="pearl" r="2.1904339371426516" cx="20.82210466676277" cy="27.478890045428205"></circle><circle class="pearl" r="2.1904339371426516" cx="10.307961231226319" cy="16.548056200780465"></circle><circle class="pearl" r="2.1904339371426516" cx="23.658658292305013" cy="13.128550260883529"></circle><circle class="pearl" r="2.1904339371426516" cx="14.30498079411591" cy="31.742711085151935"></circle><circle class="pearl" r="2.1904339371426516" cx="11.081759129958524" cy="4.992541615569562"></circle><circle class="pearl" r="2.1904339371426516" cx="27.657848562442204" cy="20.77953936602222"></circle><circle class="pearl" r="2.1904339371426516" cx="4.0004483143960785" cy="21.395732585926197"></circle><circle class="pearl" r="2.1904339371426516" cx="28.309140199518698" cy="7.010265906464894"></circle><circle class="pearl" r="2.1904339371426516" cx="28.501469732696467" cy="28.603502623796924"></circle><circle class="pearl" r="2.1904339371426516" cx="5.306864977817445" cy="10.36226002985929"></circle><circle class="pearl" r="2.1904339371426516" cx="31.669918143085706" cy="13.964941937234038"></circle><circle class="pearl" r="2.1904339371426516" cx="7.3116539963770935" cy="28.64706027844583"></circle><circle class="pearl" r="2.1904339371426516" cx="19.00732337175738" cy="3.6864953435665777"></circle></g><g class="bobaCup bright" cupRadius="17.58942818668827" width="35.17885637337654" height="35.17885637337654" pearlRadius="2.738042421428314" pearlCount="15" transform="translate(244.30244440394364,92.80656683646255)"><circle class="pool" r="17.58942818668827" cx="17.58942818668827" cy="17.58942818668827" style="stroke-width: 1; fill: rgb(65, 182, 196);"></circle><circle class="pearl" r="2.1904339371426516" cx="18.84870815468885" cy="17.764899908648328"></circle><circle class="pearl" r="2.1904339371426516" cx="13.17322662655926" cy="23.28072581079675"></circle><circle class="pearl" r="2.1904339371426516" cx="16.4325483313614" cy="9.791208946554843"></circle><circle class="pearl" r="2.1904339371426516" cx="20.433643536534923" cy="26.081886101774973"></circle><circle class="pearl" r="2.1904339371426516" cx="11.192098679215343" cy="15.764546993620511"></circle><circle class="pearl" r="2.1904339371426516" cx="24.023478068256214" cy="11.78081566229782"></circle><circle class="pearl" r="2.1904339371426516" cx="14.43545311674076" cy="31.243051960902744"></circle><circle class="pearl" r="2.1904339371426516" cx="9.94277761530726" cy="5.399800441437396"></circle><circle class="pearl" r="2.1904339371426516" cx="26.244965853020613" cy="20.556572796865698"></circle><circle class="pearl" r="2.1904339371426516" cx="4.73625350738189" cy="20.631606798355143"></circle><circle class="pearl" r="2.1904339371426516" cx="22.059333583711947" cy="4.2281577144516085"></circle><circle class="pearl" r="2.1904339371426516" cx="27.96242736150441" cy="28.14394596465866"></circle><circle class="pearl" r="2.1904339371426516" cx="4.858351726185909" cy="11.184381513810946"></circle><circle class="pearl" r="2.1904339371426516" cx="31.269572705013143" cy="14.584597563464197"></circle><circle class="pearl" r="2.1904339371426516" cx="7.214857650436853" cy="28.142798386527453"></circle></g><g class="bobaCup bright" cupRadius="17.565649237524067" width="35.13129847504813" height="35.13129847504813" pearlRadius="2.7380424214283137" pearlCount="15" transform="translate(47.262514569776926,70.3128749420533)"><circle class="pool" r="17.565649237524067" cx="17.565649237524067" cy="17.565649237524067" style="stroke-width: 1; fill: rgb(65, 182, 196);"></circle><circle class="pearl" r="2.190433937142651" cx="18.800723632066166" cy="17.69214359749612"></circle><circle class="pearl" r="2.190433937142651" cx="13.162012366868575" cy="23.258814437918424"></circle><circle class="pearl" r="2.190433937142651" cx="16.41985661753842" cy="9.855831646190733"></circle><circle class="pearl" r="2.190433937142651" cx="20.400775954541768" cy="26.075713439366535"></circle><circle class="pearl" r="2.190433937142651" cx="11.1224146204698" cy="15.771744028605111"></circle><circle class="pearl" r="2.190433937142651" cx="24.02051161686758" cy="11.7366911723404"></circle><circle class="pearl" r="2.190433937142651" cx="14.405067972147524" cy="31.19389470504942"></circle><circle class="pearl" r="2.190433937142651" cx="10.036027718879417" cy="5.346374579463495"></circle><circle class="pearl" r="2.190433937142651" cx="26.1812315803576" cy="20.533505265366294"></circle><circle class="pearl" r="2.190433937142651" cx="4.694780673971818" cy="20.590436410255695"></circle><circle class="pearl" r="2.190433937142651" cx="21.968794744654517" cy="4.211539541930129"></circle><circle class="pearl" r="2.190433937142651" cx="27.92033720922795" cy="28.10409336099943"></circle><circle class="pearl" r="2.190433937142651" cx="4.902664907872229" cy="11.052970922075797"></circle><circle class="pearl" r="2.190433937142651" cx="31.227881405333516" cy="14.596877003305364"></circle><circle class="pearl" r="2.190433937142651" cx="7.206038981746159" cy="28.10049996576245"></circle></g><g class="bobaCup bright" cupRadius="16.980688473020052" width="33.961376946040104" height="33.961376946040104" pearlRadius="2.7380424214283132" pearlCount="14" transform="translate(179.5222402935725,224.8537552297732)"><circle class="pool" r="16.980688473020052" cx="16.980688473020052" cy="16.980688473020052" style="stroke-width: 1; fill: rgb(65, 182, 196);"></circle><circle class="pearl" r="2.1904339371426507" cx="22.17843051298983" cy="13.475051650812812"></circle><circle class="pearl" r="2.1904339371426507" cx="13.159384022090917" cy="22.817846720153742"></circle><circle class="pearl" r="2.1904339371426507" cx="14.32744849295521" cy="12.020331725561178"></circle><circle class="pearl" r="2.1904339371426507" cx="21.011357276693982" cy="21.376658042015123"></circle><circle class="pearl" r="2.1904339371426507" cx="7.924479965115657" cy="16.80944006451055"></circle><circle class="pearl" r="2.1904339371426507" cx="27.049251579210683" cy="6.974442249656541"></circle><circle class="pearl" r="2.1904339371426507" cx="15.950178233964357" cy="30.279355489084832"></circle><circle class="pearl" r="2.1904339371426507" cx="11.823085786327796" cy="4.452940959769431"></circle><circle class="pearl" r="2.1904339371426507" cx="29.45707239449572" cy="22.29672045078946"></circle><circle class="pearl" r="2.1904339371426507" cx="5.331500718093676" cy="24.34658997350252"></circle><circle class="pearl" r="2.1904339371426507" cx="19.77315436565197" cy="3.881906775885315"></circle><circle class="pearl" r="2.1904339371426507" cx="24.522416735621658" cy="28.543975755515152"></circle><circle class="pearl" r="2.1904339371426507" cx="5.529440010027527" cy="9.217040358572342"></circle><circle class="pearl" r="2.1904339371426507" cx="30.103315002547912" cy="14.335217076418301"></circle></g><g class="bobaCup bright" cupRadius="16.725600153207157" width="33.451200306414314" height="33.451200306414314" pearlRadius="2.7380424214283137" pearlCount="14" transform="translate(55.03023008621966,202.684041909727)"><circle class="pool" r="16.725600153207157" cx="16.725600153207157" cy="16.725600153207157" style="stroke-width: 1; fill: rgb(29, 145, 192);"></circle><circle class="pearl" r="2.190433937142651" cx="21.224438610854552" cy="12.727276773574397"></circle><circle class="pearl" r="2.190433937142651" cx="13.328470222129955" cy="22.25370368115026"></circle><circle class="pearl" r="2.190433937142651" cx="13.2524661282878" cy="12.292490500269638"></circle><circle class="pearl" r="2.190433937142651" cx="21.09788259618071" cy="20.693923644669084"></circle><circle class="pearl" r="2.190433937142651" cx="6.975645289376901" cy="17.438070757687886"></circle><circle class="pearl" r="2.190433937142651" cx="26.567745923219544" cy="6.853089037628521"></circle><circle class="pearl" r="2.190433937142651" cx="15.971565383355335" cy="29.783471481055766"></circle><circle class="pearl" r="2.190433937142651" cx="11.291628605222385" cy="4.558053764002242"></circle><circle class="pearl" r="2.190433937142651" cx="28.890883665993396" cy="22.16615446708942"></circle><circle class="pearl" r="2.190433937142651" cx="6.077306243451639" cy="25.402224460090874"></circle><circle class="pearl" r="2.190433937142651" cx="19.23894586919636" cy="3.840640940557922"></circle><circle class="pearl" r="2.190433937142651" cx="23.802581381784414" cy="28.22948141222757"></circle><circle class="pearl" r="2.190433937142651" cx="5.217813904339227" cy="9.656987070900643"></circle><circle class="pearl" r="2.190433937142651" cx="29.610148181307263" cy="14.209550679673924"></circle></g><g class="bobaCup bright" cupRadius="16.45620984417796" width="32.91241968835592" height="32.91241968835592" pearlRadius="2.7380424214283132" pearlCount="14" transform="translate(277.3904108832895,105.92091097168814)"><circle class="pool" r="16.45620984417796" cx="16.45620984417796" cy="16.45620984417796" style="stroke-width: 1; fill: rgb(65, 182, 196);"></circle><circle class="pearl" r="2.1904339371426507" cx="20.401610306239316" cy="12.28712496587302"></circle><circle class="pearl" r="2.1904339371426507" cx="12.57218948055296" cy="20.691735037099146"></circle><circle class="pearl" r="2.1904339371426507" cx="12.449947798950697" cy="12.717127182072764"></circle><circle class="pearl" r="2.1904339371426507" cx="20.506611471494207" cy="20.26008212065184"></circle><circle class="pearl" r="2.1904339371426507" cx="5.068068523822758" cy="17.963656265792395"></circle><circle class="pearl" r="2.1904339371426507" cx="26.115033470596895" cy="6.783496256771309"></circle><circle class="pearl" r="2.1904339371426507" cx="14.76210135199565" cy="29.174262955099547"></circle><circle class="pearl" r="2.1904339371426507" cx="10.83006171143078" cy="4.642350969633388"></circle><circle class="pearl" r="2.1904339371426507" cx="28.18231025961058" cy="22.317961890864012"></circle><circle class="pearl" r="2.1904339371426507" cx="6.80937859101835" cy="26.137609072615835"></circle><circle class="pearl" r="2.1904339371426507" cx="18.77003507371012" cy="3.8142029380294487"></circle><circle class="pearl" r="2.1904339371426507" cx="22.67151610994882" cy="28.04283580955426"></circle><circle class="pearl" r="2.1904339371426507" cx="4.97691811076013" cy="9.984000817453682"></circle><circle class="pearl" r="2.1904339371426507" cx="29.10574725892189" cy="14.196044939659945"></circle></g><g class="bobaCup bright" cupRadius="16.392047072141835" width="32.78409414428367" height="32.78409414428367" pearlRadius="2.7380424214283137" pearlCount="13" transform="translate(89.62289449803036,44.06389261728695)"><circle class="pool" r="16.392047072141835" cx="16.392047072141835" cy="16.392047072141835" style="stroke-width: 1; fill: rgb(65, 182, 196);"></circle><circle class="pearl" r="2.190433937142651" cx="21.493056606525425" cy="15.958435344711862"></circle><circle class="pearl" r="2.190433937142651" cx="15.872421259181547" cy="21.552181267642244"></circle><circle class="pearl" r="2.190433937142651" cx="16.181828621820745" cy="10.1262739718319"></circle><circle class="pearl" r="2.190433937142651" cx="23.723162408286992" cy="23.6353735986993"></circle><circle class="pearl" r="2.190433937142651" cx="10.53160401719173" cy="15.77192864015564"></circle><circle class="pearl" r="2.190433937142651" cx="27.835708426779355" cy="9.999961241248437"></circle><circle class="pearl" r="2.190433937142651" cx="10.144795454574645" cy="27.896225837385092"></circle><circle class="pearl" r="2.190433937142651" cx="10.320120355937213" cy="4.816775647871541"></circle><circle class="pearl" r="2.190433937142651" cx="29.066622530895533" cy="17.869825805560847"></circle><circle class="pearl" r="2.190433937142651" cx="4.827792346900508" cy="21.66896698864587"></circle><circle class="pearl" r="2.190433937142651" cx="21.95080224637439" cy="4.622022973548244"></circle><circle class="pearl" r="2.190433937142651" cx="18.0375766240844" cy="29.050567839200877"></circle><circle class="pearl" r="2.190433937142651" cx="4.815053911816303" cy="10.32443957044538"></circle></g><g class="bobaCup bright" cupRadius="16.230063252772617" width="32.46012650554523" height="32.46012650554523" pearlRadius="2.7380424214283137" pearlCount="13" transform="translate(85.36262408067407,114.02451595452547)"><circle class="pool" r="16.230063252772617" cx="16.230063252772617" cy="16.230063252772617" style="stroke-width: 1; fill: rgb(29, 145, 192);"></circle><circle class="pearl" r="2.190433937142651" cx="21.145261900600445" cy="16.427047612297173"></circle><circle class="pearl" r="2.190433937142651" cx="15.155006438426065" cy="21.536053706751574"></circle><circle class="pearl" r="2.190433937142651" cx="16.068656711439438" cy="10.468850230856484"></circle><circle class="pearl" r="2.190433937142651" cx="24.15320220536147" cy="23.831043616037103"></circle><circle class="pearl" r="2.190433937142651" cx="9.990967066053676" cy="15.679341357308743"></circle><circle class="pearl" r="2.190433937142651" cx="27.434886788130054" cy="9.693421643067147"></circle><circle class="pearl" r="2.190433937142651" cx="9.795299609072398" cy="27.479298750275706"></circle><circle class="pearl" r="2.190433937142651" cx="10.934107191097088" cy="4.539085057388068"></circle><circle class="pearl" r="2.190433937142651" cx="28.757158398530233" cy="17.53127262725184"></circle><circle class="pearl" r="2.190433937142651" cx="4.5389420926267885" cy="21.505322559112177"></circle><circle class="pearl" r="2.190433937142651" cx="21.390396742688726" cy="4.4929370064544205"></circle><circle class="pearl" r="2.190433937142651" cx="18.044544763341968" cy="28.707657048516314"></circle><circle class="pearl" r="2.190433937142651" cx="5.101771191982342" cy="9.52218279275969"></circle></g><g class="bobaCup bright" cupRadius="15.631525407027485" width="31.26305081405497" height="31.26305081405497" pearlRadius="2.7380424214283137" pearlCount="12" transform="translate(277.3357127258303,200.56180755687268)"><circle class="pool" r="15.631525407027485" cx="15.631525407027485" cy="15.631525407027485" style="stroke-width: 1; fill: rgb(127, 205, 187);"></circle><circle class="pearl" r="2.190433937142651" cx="17.30450116548528" cy="11.252579177470066"></circle><circle class="pearl" r="2.190433937142651" cx="11.255771782427836" cy="17.337497988344854"></circle><circle class="pearl" r="2.190433937142651" cx="14.105645896466324" cy="3.925524954408716"></circle><circle class="pearl" r="2.190433937142651" cx="19.064360589899252" cy="19.05112470869096"></circle><circle class="pearl" r="2.190433937142651" cx="3.94092682480974" cy="14.110957412319005"></circle><circle class="pearl" r="2.190433937142651" cx="27.168302834871074" cy="11.932280840639677"></circle><circle class="pearl" r="2.190433937142651" cx="11.999556723771212" cy="27.184531656265175"></circle><circle class="pearl" r="2.190433937142651" cx="6.555505968748355" cy="6.5554871580456435"></circle><circle class="pearl" r="2.190433937142651" cx="27.010909918693795" cy="19.925759665588817"></circle><circle class="pearl" r="2.190433937142651" cx="5.357788738429967" cy="22.73462354253773"></circle><circle class="pearl" r="2.190433937142651" cx="22.66833769111841" cy="5.324173573864131"></circle><circle class="pearl" r="2.190433937142651" cx="19.992230868148937" cy="26.991759324218005"></circle></g><g class="bobaCup bright" cupRadius="15.607614587573835" width="31.21522917514767" height="31.21522917514767" pearlRadius="2.738042421428314" pearlCount="12" transform="translate(273.8307315462655,282.5935560277162)"><circle class="pool" r="15.607614587573835" cx="15.607614587573835" cy="15.607614587573835" style="stroke-width: 1; fill: rgb(127, 205, 187);"></circle><circle class="pearl" r="2.1904339371426516" cx="17.234810963897743" cy="11.205561356204836"></circle><circle class="pearl" r="2.1904339371426516" cx="11.207240529665816" cy="17.25419578906669"></circle><circle class="pearl" r="2.1904339371426516" cx="14.078206702345438" cy="3.8601574336630553"></circle><circle class="pearl" r="2.1904339371426516" cx="19.008622432395093" cy="19.0010563073438"></circle><circle class="pearl" r="2.1904339371426516" cx="3.86890788093376" cy="14.081302606300355"></circle><circle class="pearl" r="2.1904339371426516" cx="27.133716290448973" cy="11.965964121853666"></circle><circle class="pearl" r="2.1904339371426516" cx="12.00512936447268" cy="27.143060505024582"></circle><circle class="pearl" r="2.1904339371426516" cx="6.548734306703903" cy="6.548722512324215"></circle><circle class="pearl" r="2.1904339371426516" cx="26.94571470745897" cy="19.958799224316024"></circle><circle class="pearl" r="2.1904339371426516" cx="5.356728054217827" cy="22.702886192053885"></circle><circle class="pearl" r="2.1904339371426516" cx="22.664264604873395" cy="5.337083431298931"></circle><circle class="pearl" r="2.1904339371426516" cx="19.99742667635318" cy="26.934447332507048"></circle></g><g class="bobaCup bright" cupRadius="15.550917012169048" width="31.101834024338096" height="31.101834024338096" pearlRadius="2.7380424214283132" pearlCount="12" transform="translate(167.81081364513722,206.01556103238772)"><circle class="pool" r="15.550917012169048" cx="15.550917012169048" cy="15.550917012169048" style="stroke-width: 1; fill: rgb(29, 145, 192);"></circle><circle class="pearl" r="2.1904339371426507" cx="17.084041228952838" cy="11.100644963894498"></circle><circle class="pearl" r="2.1904339371426507" cx="11.101889661271334" cy="17.079228401855783"></circle><circle class="pearl" r="2.1904339371426507" cx="14.01647260213739" cy="3.7266119605756236"></circle><circle class="pearl" r="2.1904339371426507" cx="18.881677146234793" cy="18.884200688695064"></circle><circle class="pearl" r="2.1904339371426507" cx="3.7267297887387647" cy="14.015284757393337"></circle><circle class="pearl" r="2.1904339371426507" cx="27.050860616320925" cy="12.045447793477054"></circle><circle class="pearl" r="2.1904339371426507" cx="12.03213019925649" cy="27.047773104553553"></circle><circle class="pearl" r="2.1904339371426507" cx="6.533563637273491" cy="6.5320562684216865"></circle><circle class="pearl" r="2.1904339371426507" cx="26.786776635879907" cy="20.04765704262599"></circle><circle class="pearl" r="2.1904339371426507" cx="5.361738963631287" cy="22.642331014979042"></circle><circle class="pearl" r="2.1904339371426507" cx="22.655392313698172" cy="5.368439215332766"></circle><circle class="pearl" r="2.1904339371426507" cx="20.032133041580277" cy="26.79145708854011"></circle></g><g class="bobaCup bright" cupRadius="15.540540266946897" width="31.081080533893793" height="31.081080533893793" pearlRadius="2.7380424214283137" pearlCount="12" transform="translate(199.21076287657215,196.82786214892735)"><circle class="pool" r="15.540540266946897" cx="15.540540266946897" cy="15.540540266946897" style="stroke-width: 1; fill: rgb(65, 182, 196);"></circle><circle class="pearl" r="2.190433937142651" cx="17.073211709750915" cy="11.088159791640257"></circle><circle class="pearl" r="2.190433937142651" cx="11.090939586395804" cy="17.064851967430133"></circle><circle class="pearl" r="2.190433937142651" cx="14.01013833084598" cy="3.7262623088844506"></circle><circle class="pearl" r="2.190433937142651" cx="18.85921499598775" cy="18.86396748062036"></circle><circle class="pearl" r="2.190433937142651" cx="3.726475714358452" cy="14.007983360239404"></circle><circle class="pearl" r="2.190433937142651" cx="27.038320798706113" cy="12.071934551121505"></circle><circle class="pearl" r="2.190433937142651" cx="12.048165750165145" cy="27.03285874151892"></circle><circle class="pearl" r="2.190433937142651" cx="6.531830389171011" cy="6.528264714555348"></circle><circle class="pearl" r="2.190433937142651" cx="26.74676285315488" cy="20.098999748538965"></circle><circle class="pearl" r="2.190433937142651" cx="5.3690709563118" cy="22.64373568856602"></circle><circle class="pearl" r="2.190433937142651" cx="22.667177179830126" cy="5.381142637953841"></circle><circle class="pearl" r="2.190433937142651" cx="20.0723518182762" cy="26.75491292948382"></circle></g><g class="bobaCup bright" cupRadius="15.200469790905675" width="30.40093958181135" height="30.40093958181135" pearlRadius="2.738042421428314" pearlCount="12" transform="translate(184.53858399564103,108.42501948773224)"><circle class="pool" r="15.200469790905675" cx="15.200469790905675" cy="15.200469790905675" style="stroke-width: 1; fill: rgb(65, 182, 196);"></circle><circle class="pearl" r="2.1904339371426516" cx="16.944654236189635" cy="10.70412850508344"></circle><circle class="pearl" r="2.1904339371426516" cx="10.838854582219543" cy="16.51210165595243"></circle><circle class="pearl" r="2.1904339371426516" cx="13.828463306506917" cy="3.7127690568905707"></circle><circle class="pearl" r="2.1904339371426516" cx="18.271138510920633" cy="18.320910958895677"></circle><circle class="pearl" r="2.1904339371426516" cx="3.7152900564116664" cy="13.800925809134002"></circle><circle class="pearl" r="2.1904339371426516" cx="26.608150685794374" cy="13.127127774062961"></circle><circle class="pearl" r="2.1904339371426516" cx="12.125483458148615" cy="26.435939524861755"></circle><circle class="pearl" r="2.1904339371426516" cx="6.464237680601345" cy="6.412039898016941"></circle><circle class="pearl" r="2.1904339371426516" cx="25.604997991758484" cy="20.98875011583066"></circle><circle class="pearl" r="2.1904339371426516" cx="5.413585947752804" cy="22.305749380773364"></circle><circle class="pearl" r="2.1904339371426516" cx="23.296015611815296" cy="5.9858745342705415"></circle><circle class="pearl" r="2.1904339371426516" cx="20.012071295470562" cy="25.968580524396327"></circle></g><g class="bobaCup bright" cupRadius="15.189589066097696" width="30.379178132195392" height="30.379178132195392" pearlRadius="2.7380424214283137" pearlCount="12" transform="translate(212.73468959839192,235.24670672926277)"><circle class="pool" r="15.189589066097696" cx="15.189589066097696" cy="15.189589066097696" style="stroke-width: 1; fill: rgb(127, 205, 187);"></circle><circle class="pearl" r="2.190433937142651" cx="16.94215577006391" cy="10.69330049737457"></circle><circle class="pearl" r="2.190433937142651" cx="10.839388498972154" cy="16.472071414393415"></circle><circle class="pearl" r="2.190433937142651" cx="13.822550957177603" cy="3.7123638942519275"></circle><circle class="pearl" r="2.190433937142651" cx="18.255522061142315" cy="18.306138353342075"></circle><circle class="pearl" r="2.190433937142651" cx="3.714824931336759" cy="13.795584755272952"></circle><circle class="pearl" r="2.190433937142651" cx="26.592286805124047" cy="13.160270665941493"></circle><circle class="pearl" r="2.190433937142651" cx="12.073716232990856" cy="26.405437482826056"></circle><circle class="pearl" r="2.190433937142651" cx="6.461494432048742" cy="6.408740388590269"></circle><circle class="pearl" r="2.190433937142651" cx="25.56560021729012" cy="21.018340101823537"></circle><circle class="pearl" r="2.190433937142651" cx="5.386194758366228" cy="22.240144882221045"></circle><circle class="pearl" r="2.190433937142651" cx="23.313913174083098" cy="6.006023308311887"></circle><circle class="pearl" r="2.190433937142651" cx="19.95795415815847" cy="25.9605963282039"></circle></g><g class="bobaCup bright" cupRadius="15.17127442210083" width="30.34254884420166" height="30.34254884420166" pearlRadius="2.738042421428314" pearlCount="12" transform="translate(176.15738259580752,266.2166101751826)"><circle class="pool" r="15.17127442210083" cx="15.17127442210083" cy="15.17127442210083" style="stroke-width: 1; fill: rgb(65, 182, 196);"></circle><circle class="pearl" r="2.1904339371426516" cx="16.941940010226094" cy="10.673967732242172"></circle><circle class="pearl" r="2.1904339371426516" cx="10.842180714876413" cy="16.39833025827828"></circle><circle class="pearl" r="2.1904339371426516" cx="13.812474765430096" cy="3.7116955000290504"></circle><circle class="pearl" r="2.1904339371426516" cx="18.229522517707323" cy="18.28137505449656"></circle><circle class="pearl" r="2.1904339371426516" cx="3.7140064506072137" cy="13.787016682567323"></circle><circle class="pearl" r="2.1904339371426516" cx="26.56667754299909" cy="13.226628061835015"></circle><circle class="pearl" r="2.1904339371426516" cx="11.974149745926315" cy="26.35112641486512"></circle><circle class="pearl" r="2.1904339371426516" cx="6.456690397418452" cy="6.403318458928473"></circle><circle class="pearl" r="2.1904339371426516" cx="25.494347561108793" cy="21.07894593193662"></circle><circle class="pearl" r="2.1904339371426516" cx="5.333670437156593" cy="22.116243577671852"></circle><circle class="pearl" r="2.1904339371426516" cx="23.35307500248743" cy="6.046016011147055"></circle><circle class="pearl" r="2.1904339371426516" cx="19.854888162374408" cy="25.950773988851076"></circle></g><g class="bobaCup bright" cupRadius="15.123519403232192" width="30.247038806464385" height="30.247038806464385" pearlRadius="2.7380424214283132" pearlCount="11" transform="translate(235.16893203531836,31.926030231251808)"><circle class="pool" r="15.123519403232192" cx="15.123519403232192" cy="15.123519403232192" style="stroke-width: 1; fill: rgb(29, 145, 192);"></circle><circle class="pearl" r="2.1904339371426507" cx="19.448700354075527" cy="14.955342838482375"></circle><circle class="pearl" r="2.1904339371426507" cx="12.103052282423196" cy="17.972619892364662"></circle><circle class="pearl" r="2.1904339371426507" cx="13.812074157196925" cy="9.339251540221081"></circle><circle class="pearl" r="2.1904339371426507" cx="20.326874098046968" cy="25.04585636681045"></circle><circle class="pearl" r="2.1904339371426507" cx="5.004193019466139" cy="14.261943559035704"></circle><circle class="pearl" r="2.1904339371426507" cx="25.746931714851772" cy="10.12653093814581"></circle><circle class="pearl" r="2.1904339371426507" cx="12.479674199483737" cy="26.363428185377003"></circle><circle class="pearl" r="2.1904339371426507" cx="6.422403153584564" cy="6.404464333464273"></circle><circle class="pearl" r="2.1904339371426507" cx="25.961164211415173" cy="19.4603420617581"></circle><circle class="pearl" r="2.1904339371426507" cx="5.572411766569622" cy="22.501357904155388"></circle><circle class="pearl" r="2.1904339371426507" cx="20.14054104850686" cy="4.507135954176376"></circle></g><g class="bobaCup bright" cupRadius="15.11892406548496" width="30.23784813096992" height="30.23784813096992" pearlRadius="2.7380424214283137" pearlCount="11" transform="translate(217.20288402830158,232.85311068256593)"><circle class="pool" r="15.11892406548496" cx="15.11892406548496" cy="15.11892406548496" style="stroke-width: 1; fill: rgb(29, 145, 192);"></circle><circle class="pearl" r="2.190433937142651" cx="19.44268974111711" cy="14.957237656663054"></circle><circle class="pearl" r="2.190433937142651" cx="12.08477544085863" cy="17.94407188541393"></circle><circle class="pearl" r="2.190433937142651" cx="13.807839297598424" cy="9.341614700646032"></circle><circle class="pearl" r="2.190433937142651" cx="20.354808480532608" cy="25.0935180070702"></circle><circle class="pearl" r="2.190433937142651" cx="4.974825269056047" cy="14.254813132088488"></circle><circle class="pearl" r="2.190433937142651" cx="25.738674895507433" cy="10.125384735419704"></circle><circle class="pearl" r="2.190433937142651" cx="12.499265887050083" cy="26.358441127992442"></circle><circle class="pearl" r="2.190433937142651" cx="6.42154719540741" cy="6.402857068708956"></circle><circle class="pearl" r="2.190433937142651" cx="25.948033432250902" cy="19.468212847448697"></circle><circle class="pearl" r="2.190433937142651" cx="5.582611801427838" cy="22.513784430229126"></circle><circle class="pearl" r="2.190433937142651" cx="20.13271562817069" cy="4.506276056377287"></circle></g><g class="bobaCup bright" cupRadius="15.07932088589502" width="30.15864177179004" height="30.15864177179004" pearlRadius="2.7380424214283137" pearlCount="11" transform="translate(188.24835574229323,261.63865817257283)"><circle class="pool" r="15.07932088589502" cx="15.07932088589502" cy="15.07932088589502" style="stroke-width: 1; fill: rgb(29, 145, 192);"></circle><circle class="pearl" r="2.190433937142651" cx="19.382090916283147" cy="14.986601435948188"></circle><circle class="pearl" r="2.190433937142651" cx="11.910936175399218" cy="17.68711735484806"></circle><circle class="pearl" r="2.190433937142651" cx="13.779255146359201" cy="9.352487740802408"></circle><circle class="pearl" r="2.190433937142651" cx="20.5783807244946" cy="25.46947580903834"></circle><circle class="pearl" r="2.190433937142651" cx="4.707040949779501" cy="14.188741131305003"></circle><circle class="pearl" r="2.190433937142651" cx="25.678294026149015" cy="10.146565897444543"></circle><circle class="pearl" r="2.190433937142651" cx="12.666676736995765" cy="26.31365951781252"></circle><circle class="pearl" r="2.190433937142651" cx="6.412888501041078" cy="6.389911696272831"></circle><circle class="pearl" r="2.190433937142651" cx="25.82815101566845" cy="19.555790640062813"></circle><circle class="pearl" r="2.190433937142651" cx="5.666910105957189" cy="22.611946474328814"></circle><circle class="pearl" r="2.190433937142651" cx="20.091411178539182" cy="4.508058694765664"></circle></g><g class="bobaCup bright" cupRadius="15.023750574641998" width="30.047501149283995" height="30.047501149283995" pearlRadius="2.7380424214283137" pearlCount="11" transform="translate(213.45813723267014,89.560673845301)"><circle class="pool" r="15.023750574641998" cx="15.023750574641998" cy="15.023750574641998" style="stroke-width: 1; fill: rgb(65, 182, 196);"></circle><circle class="pearl" r="2.190433937142651" cx="19.232152028777747" cy="15.00234361802891"></circle><circle class="pearl" r="2.190433937142651" cx="11.634004359256375" cy="17.311640801376313"></circle><circle class="pearl" r="2.190433937142651" cx="13.758335441913678" cy="9.283870401635804"></circle><circle class="pearl" r="2.190433937142651" cx="20.636018704839774" cy="25.309150471381702"></circle><circle class="pearl" r="2.190433937142651" cx="4.3095083071646805" cy="14.073422029047512"></circle><circle class="pearl" r="2.190433937142651" cx="25.626690595059397" cy="10.275470326647914"></circle><circle class="pearl" r="2.190433937142651" cx="12.749100112447916" cy="26.223584460330837"></circle><circle class="pearl" r="2.190433937142651" cx="6.4033251180439095" cy="6.369948364323072"></circle><circle class="pearl" r="2.190433937142651" cx="25.758371531983126" cy="19.356758073123554"></circle><circle class="pearl" r="2.190433937142651" cx="5.710636786435298" cy="22.61664272002888"></circle><circle class="pearl" r="2.190433937142651" cx="20.133751953581807" cy="4.546453162079766"></circle></g><g class="bobaCup bright" cupRadius="14.952815242775495" width="29.90563048555099" height="29.90563048555099" pearlRadius="2.7380424214283137" pearlCount="11" transform="translate(10.152546767802589,150.454833147792)"><circle class="pool" r="14.952815242775495" cx="14.952815242775495" cy="14.952815242775495" style="stroke-width: 1; fill: rgb(29, 145, 192);"></circle><circle class="pearl" r="2.190433937142651" cx="18.992406453519187" cy="15.048357055566719"></circle><circle class="pearl" r="2.190433937142651" cx="11.246534333666183" cy="16.80639263782328"></circle><circle class="pearl" r="2.190433937142651" cx="13.7794585874582" cy="9.109381193285701"></circle><circle class="pearl" r="2.190433937142651" cx="20.639028871269478" cy="25.13154096402553"></circle><circle class="pearl" r="2.190433937142651" cx="3.7840068268154163" cy="13.903407354188467"></circle><circle class="pearl" r="2.190433937142651" cx="25.608187582326014" cy="10.602836704857106"></circle><circle class="pearl" r="2.190433937142651" cx="12.761479724003664" cy="26.093465592366382"></circle><circle class="pearl" r="2.190433937142651" cx="6.385428577301402" cy="6.348475460132157"></circle><circle class="pearl" r="2.190433937142651" cx="25.661883443845724" cy="19.122116596932933"></circle><circle class="pearl" r="2.190433937142651" cx="5.704226562004834" cy="22.51551555087269"></circle><circle class="pearl" r="2.190433937142651" cx="20.344650308843907" cy="4.656682255521659"></circle></g><g class="bobaCup bright" cupRadius="14.827077550458345" width="29.65415510091669" height="29.65415510091669" pearlRadius="2.738042421428314" pearlCount="11" transform="translate(106.99390733805846,285.17292244954166)"><circle class="pool" r="14.827077550458345" cx="14.827077550458345" cy="14.827077550458345" style="stroke-width: 1; fill: rgb(65, 182, 196);"></circle><circle class="pearl" r="2.1904339371426516" cx="18.75905254500905" cy="15.001530769412899"></circle><circle class="pearl" r="2.1904339371426516" cx="11.087990699636503" cy="16.620887433759872"></circle><circle class="pearl" r="2.1904339371426516" cx="13.780143635595268" cy="8.89489895150105"></circle><circle class="pearl" r="2.1904339371426516" cx="20.691061764028927" cy="24.794574390247913"></circle><circle class="pearl" r="2.1904339371426516" cx="3.689487021177167" cy="13.755627651198788"></circle><circle class="pearl" r="2.1904339371426516" cx="25.455919660089833" cy="10.835055200908002"></circle><circle class="pearl" r="2.1904339371426516" cx="12.89405187238126" cy="25.876886299172998"></circle><circle class="pearl" r="2.1904339371426516" cx="6.375424692906444" cy="6.295362900561072"></circle><circle class="pearl" r="2.1904339371426516" cx="25.464554188130403" cy="18.78808414848305"></circle><circle class="pearl" r="2.1904339371426516" cx="5.820318802568439" cy="22.549148432214807"></circle><circle class="pearl" r="2.1904339371426516" cx="20.503768039707335" cy="4.780450167448521"></circle></g><g class="bobaCup bright" cupRadius="14.803355784080452" width="29.606711568160904" height="29.606711568160904" pearlRadius="2.7380424214283137" pearlCount="11" transform="translate(202.9812511173437,122.98357706667386)"><circle class="pool" r="14.803355784080452" cx="14.803355784080452" cy="14.803355784080452" style="stroke-width: 1; fill: rgb(29, 145, 192);"></circle><circle class="pearl" r="2.190433937142651" cx="18.73495455576" cy="14.990133860622274"></circle><circle class="pearl" r="2.190433937142651" cx="11.07805771262273" cy="16.614617376603945"></circle><circle class="pearl" r="2.190433937142651" cx="13.751483463228755" cy="8.906022396232498"></circle><circle class="pearl" r="2.190433937142651" cx="20.70704512047201" cy="24.727822966308207"></circle><circle class="pearl" r="2.190433937142651" cx="3.689007320228356" cy="13.739400715634485"></circle><circle class="pearl" r="2.190433937142651" cx="25.400594863464644" cy="10.786527116940919"></circle><circle class="pearl" r="2.190433937142651" cx="12.930488250070601" cy="25.837036175340852"></circle><circle class="pearl" r="2.190433937142651" cx="6.37404251621645" cy="6.285019052971821"></circle><circle class="pearl" r="2.190433937142651" cx="25.42483463436909" cy="18.73318915080993"></circle><circle class="pearl" r="2.190433937142651" cx="5.851117460105362" cy="22.568966035381447"></circle><circle class="pearl" r="2.190433937142651" cx="20.442236248840132" cy="4.766772134590395"></circle></g><g class="bobaCup bright" cupRadius="14.791480960796193" width="29.582961921592386" height="29.582961921592386" pearlRadius="2.738042421428314" pearlCount="11" transform="translate(172.92423231653538,179.53064226884055)"><circle class="pool" r="14.791480960796193" cx="14.791480960796193" cy="14.791480960796193" style="stroke-width: 1; fill: rgb(127, 205, 187);"></circle><circle class="pearl" r="2.1904339371426516" cx="18.723122813524153" cy="14.985411354256234"></circle><circle class="pearl" r="2.1904339371426516" cx="11.073021276169172" cy="16.61085619940278"></circle><circle class="pearl" r="2.1904339371426516" cx="13.736408490169685" cy="8.913904728526079"></circle><circle class="pearl" r="2.1904339371426516" cx="20.714964837259085" cy="24.69436418139134"></circle><circle class="pearl" r="2.1904339371426516" cx="3.6887957829244926" cy="13.730891781943418"></circle><circle class="pearl" r="2.1904339371426516" cx="25.372630800916394" cy="10.761381958258417"></circle><circle class="pearl" r="2.1904339371426516" cx="12.94827288285106" cy="25.816945690785534"></circle><circle class="pearl" r="2.1904339371426516" cx="6.373480383580301" cy="6.2797547939704295"></circle><circle class="pearl" r="2.1904339371426516" cx="25.405117446066622" cy="18.705040845061603"></circle><circle class="pearl" r="2.1904339371426516" cx="5.866192558394902" cy="22.57812596819468"></circle><circle class="pearl" r="2.1904339371426516" cx="20.409112905075883" cy="4.758998411765136"></circle></g><g class="bobaCup bright" cupRadius="14.712077985091469" width="29.424155970182937" height="29.424155970182937" pearlRadius="2.7380424214283132" pearlCount="11" transform="translate(45.388296038113964,125.23920836210158)"><circle class="pool" r="14.712077985091469" cx="14.712077985091469" cy="14.712077985091469" style="stroke-width: 1; fill: rgb(65, 182, 196);"></circle><circle class="pearl" r="2.1904339371426507" cx="18.64571773177528" cy="14.962943185838101"></circle><circle class="pearl" r="2.1904339371426507" cx="11.03704424335431" cy="16.585266436727444"></circle><circle class="pearl" r="2.1904339371426507" cx="13.628635198710278" cy="8.98838616963978"></circle><circle class="pearl" r="2.1904339371426507" cx="20.77742000424987" cy="24.464968628534326"></circle><circle class="pearl" r="2.1904339371426507" cx="3.687657795375501" cy="13.67025060393886"></circle><circle class="pearl" r="2.1904339371426507" cx="25.181523328166346" cy="10.580966978629075"></circle><circle class="pearl" r="2.1904339371426507" cx="13.076124099709212" cy="25.682192404354236"></circle><circle class="pearl" r="2.1904339371426507" cx="6.371047799610483" cy="6.24370660703834"></circle><circle class="pearl" r="2.1904339371426507" cx="25.27621266009493" cy="18.50457761206538"></circle><circle class="pearl" r="2.1904339371426507" cx="5.973247578470599" cy="22.645816029677697"></circle><circle class="pearl" r="2.1904339371426507" cx="20.163261465873447" cy="4.697888579537783"></circle></g><g class="bobaCup bright" cupRadius="14.16796309730978" width="28.33592619461956" height="28.33592619461956" pearlRadius="2.738042421428314" pearlCount="10" transform="translate(166.3834038455153,103.8298770835117)"><circle class="pool" r="14.16796309730978" cx="14.16796309730978" cy="14.16796309730978" style="stroke-width: 1; fill: rgb(127, 205, 187);"></circle><circle class="pearl" r="2.1904339371426516" cx="17.55549271373776" cy="12.123094613080081"></circle><circle class="pearl" r="2.1904339371426516" cx="11.094329821947047" cy="16.190773072028954"></circle><circle class="pearl" r="2.1904339371426516" cx="14.345144704774574" cy="4.746236069347459"></circle><circle class="pearl" r="2.1904339371426516" cx="21.4631278023141" cy="22.66268141088079"></circle><circle class="pearl" r="2.1904339371426516" cx="3.674489301661167" cy="13.34767725274925"></circle><circle class="pearl" r="2.1904339371426516" cx="22.062306897342992" cy="6.0538865276008735"></circle><circle class="pearl" r="2.1904339371426516" cx="13.75026619374407" cy="24.679044401476865"></circle><circle class="pearl" r="2.1904339371426516" cx="6.453603904311037" cy="5.935090886447245"></circle><circle class="pearl" r="2.1904339371426516" cx="24.62863446356653" cy="15.432763838847924"></circle><circle class="pearl" r="2.1904339371426516" cx="6.266447859789563" cy="22.277224361839338"></circle></g><g class="bobaCup bright" cupRadius="13.90511302812768" width="27.81022605625536" height="27.81022605625536" pearlRadius="2.7380424214283137" pearlCount="10" transform="translate(49.23766268666231,55.854616799012625)"><circle class="pool" r="13.90511302812768" cx="13.90511302812768" cy="13.90511302812768" style="stroke-width: 1; fill: rgb(127, 205, 187);"></circle><circle class="pearl" r="2.190433937142651" cx="16.96492615756634" cy="11.514826438278696"></circle><circle class="pearl" r="2.190433937142651" cx="11.18518848995175" cy="16.114432047565536"></circle><circle class="pearl" r="2.190433937142651" cx="14.031515222445492" cy="3.9817634229705137"></circle><circle class="pearl" r="2.190433937142651" cx="21.372858773049213" cy="21.98405057104579"></circle><circle class="pearl" r="2.190433937142651" cx="3.660060233244142" cy="13.395626000824986"></circle><circle class="pearl" r="2.190433937142651" cx="21.513426216269696" cy="5.916861269349132"></circle><circle class="pearl" r="2.190433937142651" cx="13.697458626327514" cy="24.15795221982929"></circle><circle class="pearl" r="2.190433937142651" cx="6.287025250044156" cy="5.9232567091340655"></circle><circle class="pearl" r="2.190433937142651" cx="24.142979127787168" cy="14.5827964326507"></circle><circle class="pearl" r="2.190433937142651" cx="6.29319021800989" cy="21.891004404234994"></circle></g><g class="bobaCup bright" cupRadius="13.814919486937958" width="27.629838973875916" height="27.629838973875916" pearlRadius="2.7380424214283137" pearlCount="10" transform="translate(38.88163516189554,285.8711621077742)"><circle class="pool" r="13.814919486937958" cx="13.814919486937958" cy="13.814919486937958" style="stroke-width: 1; fill: rgb(127, 205, 187);"></circle><circle class="pearl" r="2.190433937142651" cx="16.708655844653208" cy="11.256687415977101"></circle><circle class="pearl" r="2.190433937142651" cx="11.244562969729966" cy="16.123501269840165"></circle><circle class="pearl" r="2.190433937142651" cx="13.936487668696339" cy="3.7337709945153867"></circle><circle class="pearl" r="2.190433937142651" cx="21.336303291449667" cy="21.75215492656237"></circle><circle class="pearl" r="2.190433937142651" cx="3.656475513061377" cy="13.416294844671757"></circle><circle class="pearl" r="2.190433937142651" cx="21.32914855698119" cy="5.87304326959117"></circle><circle class="pearl" r="2.190433937142651" cx="13.669001014214805" cy="23.97834510040185"></circle><circle class="pearl" r="2.190433937142651" cx="6.2490822693783405" cy="5.906658866226795"></circle><circle class="pearl" r="2.190433937142651" cx="23.97163904114114" cy="14.269368858147711"></circle><circle class="pearl" r="2.190433937142651" cx="6.299304036760512" cy="21.75589694617072"></circle></g><g class="bobaCup bright" cupRadius="13.673704748363091" width="27.347409496726183" height="27.347409496726183" pearlRadius="2.7380424214283132" pearlCount="9" transform="translate(137.3404025930865,122.6423710429359)"><circle class="pool" r="13.673704748363091" cx="13.673704748363091" cy="13.673704748363091" style="stroke-width: 1; fill: rgb(127, 205, 187);"></circle><circle class="pearl" r="2.1904339371426507" cx="17.00103311521454" cy="11.988236846014816"></circle><circle class="pearl" r="2.1904339371426507" cx="10.607374010580292" cy="15.956248590522371"></circle><circle class="pearl" r="2.1904339371426507" cx="13.771341424278836" cy="3.651071818882726"></circle><circle class="pearl" r="2.1904339371426507" cx="18.937019136763574" cy="22.64311318290328"></circle><circle class="pearl" r="2.1904339371426507" cx="3.66004908327504" cy="13.168778025035728"></circle><circle class="pearl" r="2.1904339371426507" cx="21.17346311900835" cy="5.890975920475298"></circle><circle class="pearl" r="2.1904339371426507" cx="11.065101569931802" cy="23.44555172832083"></circle><circle class="pearl" r="2.1904339371426507" cx="6.168593392387378" cy="5.894488997227778"></circle><circle class="pearl" r="2.1904339371426507" cx="23.44746836655266" cy="16.272426443073307"></circle></g><g class="bobaCup bright" cupRadius="13.6020100180781" width="27.2040200361562" height="27.2040200361562" pearlRadius="2.7380424214283132" pearlCount="9" transform="translate(247.4479630518358,204.18902790703032)"><circle class="pool" r="13.6020100180781" cx="13.6020100180781" cy="13.6020100180781" style="stroke-width: 1; fill: rgb(65, 182, 196);"></circle><circle class="pearl" r="2.1904339371426507" cx="16.84899788927427" cy="11.85053704839458"></circle><circle class="pearl" r="2.1904339371426507" cx="10.573605446537321" cy="15.892336880074046"></circle><circle class="pearl" r="2.1904339371426507" cx="13.657358588540088" cy="3.650835839756101"></circle><circle class="pearl" r="2.1904339371426507" cx="18.926068145502935" cy="22.468038827783502"></circle><circle class="pearl" r="2.1904339371426507" cx="3.6566351509828765" cy="13.201019862443342"></circle><circle class="pearl" r="2.1904339371426507" cx="21.02839884322152" cy="5.856969755347605"></circle><circle class="pearl" r="2.1904339371426507" cx="11.071798704652947" cy="23.31589330228218"></circle><circle class="pearl" r="2.1904339371426507" cx="6.076229411757944" cy="5.922362432000953"></circle><circle class="pearl" r="2.1904339371426507" cx="23.332462716135677" cy="16.043076865280497"></circle></g><g class="bobaCup bright" cupRadius="13.563851410926764" width="27.12770282185353" height="27.12770282185353" pearlRadius="2.7380424214283132" pearlCount="9" transform="translate(132.46930954328732,132.87736677427594)"><circle class="pool" r="13.563851410926764" cx="13.563851410926764" cy="13.563851410926764" style="stroke-width: 1; fill: rgb(65, 182, 196);"></circle><circle class="pearl" r="2.1904339371426507" cx="16.71856358830663" cy="11.758272473552296"></circle><circle class="pearl" r="2.1904339371426507" cx="10.525449884879405" cy="15.89043468812886"></circle><circle class="pearl" r="2.1904339371426507" cx="13.627789199706632" cy="3.650873925575193"></circle><circle class="pearl" r="2.1904339371426507" cx="19.0100697218675" cy="22.335558347475295"></circle><circle class="pearl" r="2.1904339371426507" cx="3.6561649241919225" cy="13.17967555328098"></circle><circle class="pearl" r="2.1904339371426507" cx="20.959600193020695" cy="5.844395878816198"></circle><circle class="pearl" r="2.1904339371426507" cx="11.172934087968803" cy="23.264591752035205"></circle><circle class="pearl" r="2.1904339371426507" cx="6.069216825428113" cy="5.909331717404247"></circle><circle class="pearl" r="2.1904339371426507" cx="23.287299187517565" cy="15.82429716837971"></circle></g><g class="bobaCup bright" cupRadius="13.32520841945388" width="26.65041683890776" height="26.65041683890776" pearlRadius="2.738042421428314" pearlCount="9" transform="translate(148.76884489887834,181.739183171682)"><circle class="pool" r="13.32520841945388" cx="13.32520841945388" cy="13.32520841945388" style="stroke-width: 1; fill: rgb(65, 182, 196);"></circle><circle class="pearl" r="2.1904339371426516" cx="15.376482434258255" cy="11.269834457698233"></circle><circle class="pearl" r="2.1904339371426516" cx="9.941356874742807" cy="16.700677426209644"></circle><circle class="pearl" r="2.1904339371426516" cx="13.39614505913392" cy="3.650912045223795"></circle><circle class="pearl" r="2.1904339371426516" cx="20.721231022088727" cy="20.758709524736698"></circle><circle class="pearl" r="2.1904339371426516" cx="3.652042833857593" cy="13.137681649124618"></circle><circle class="pearl" r="2.1904339371426516" cx="20.60984623726311" cy="5.818188539079136"></circle><circle class="pearl" r="2.1904339371426516" cx="13.487774137555615" cy="22.99870193368545"></circle><circle class="pearl" r="2.1904339371426516" cx="6.0191025092461015" cy="5.832234063708009"></circle><circle class="pearl" r="2.1904339371426516" cx="22.99961117941869" cy="13.278338263386047"></circle></g><g class="bobaCup bright" cupRadius="13.285271577213912" width="26.570543154427824" height="26.570543154427824" pearlRadius="2.7380424214283132" pearlCount="9" transform="translate(224.4563845215796,60.42665634270451)"><circle class="pool" r="13.285271577213912" cx="13.285271577213912" cy="13.285271577213912" style="stroke-width: 1; fill: rgb(127, 205, 187);"></circle><circle class="pearl" r="2.1904339371426507" cx="15.315986484138268" cy="11.252231296630116"></circle><circle class="pearl" r="2.1904339371426507" cx="9.890352209058435" cy="16.6723787979886"></circle><circle class="pearl" r="2.1904339371426507" cx="13.353938012473376" cy="3.6509006848915897"></circle><circle class="pearl" r="2.1904339371426507" cx="20.644758449305733" cy="20.69512671778049"></circle><circle class="pearl" r="2.1904339371426507" cx="3.651836582021974" cy="13.113279814745196"></circle><circle class="pearl" r="2.1904339371426507" cx="20.533033406494006" cy="5.8018855308426"></circle><circle class="pearl" r="2.1904339371426507" cx="13.432100840063798" cy="22.919008520132625"></circle><circle class="pearl" r="2.1904339371426507" cx="6.012843291271648" cy="5.817981147484576"></circle><circle class="pearl" r="2.1904339371426507" cx="22.91977087041563" cy="13.249168567525189"></circle></g><g class="bobaCup bright" cupRadius="13.270631544577016" width="26.541263089154032" height="26.541263089154032" pearlRadius="2.738042421428314" pearlCount="9" transform="translate(306.72936845542296,143.01653926881932)"><circle class="pool" r="13.270631544577016" cx="13.270631544577016" cy="13.270631544577016" style="stroke-width: 1; fill: rgb(29, 145, 192);"></circle><circle class="pearl" r="2.1904339371426516" cx="15.293905952896258" cy="11.24575430798859"></circle><circle class="pearl" r="2.1904339371426516" cx="9.871533548956224" cy="16.661747995797786"></circle><circle class="pearl" r="2.1904339371426516" cx="13.338640366662638" cy="3.65089749421302"></circle><circle class="pearl" r="2.1904339371426516" cx="20.61672232901563" cy="20.671813662085793"></circle><circle class="pearl" r="2.1904339371426516" cx="3.6517699672842494" cy="13.103956195740645"></circle><circle class="pearl" r="2.1904339371426516" cx="20.504890068104384" cy="5.795926008075979"></circle><circle class="pearl" r="2.1904339371426516" cx="13.411390562468307" cy="22.889793337768737"></circle><circle class="pearl" r="2.1904339371426516" cx="6.010642534001322" cy="5.81269953688108"></circle><circle class="pearl" r="2.1904339371426516" cx="22.89050101019617" cy="13.238520225276485"></circle></g><g class="bobaCup bright" cupRadius="13.024075073423667" width="26.048150146847334" height="26.048150146847334" pearlRadius="2.7380424214283137" pearlCount="8" transform="translate(6.975924926576333,247.1273199369536)"><circle class="pool" r="13.024075073423667" cx="13.024075073423667" cy="13.024075073423667" style="stroke-width: 1; fill: rgb(65, 182, 196);"></circle><circle class="pearl" r="2.190433937142651" cx="19.52456314139213" cy="13.017594408024813"></circle><circle class="pearl" r="2.190433937142651" cx="11.714083924594282" cy="14.395932197592167"></circle><circle class="pearl" r="2.190433937142651" cx="12.267887426049754" cy="3.672694173810928"></circle><circle class="pearl" r="2.190433937142651" cx="20.00433849113666" cy="20.368917048038522"></circle><circle class="pearl" r="2.190433937142651" cx="3.7924768749588367" cy="14.94040650840746"></circle><circle class="pearl" r="2.190433937142651" cx="20.00396746706971" cy="5.678997572111648"></circle><circle class="pearl" r="2.190433937142651" cx="12.193285516232661" cy="22.370902392161028"></circle><circle class="pearl" r="2.190433937142651" cx="5.098562351623066" cy="7.056052558427777"></circle></g><g class="bobaCup bright" cupRadius="12.947998588583221" width="25.895997177166443" height="25.895997177166443" pearlRadius="2.7380424214283146" pearlCount="8" transform="translate(177.65408678268366,130.5088945565842)"><circle class="pool" r="12.947998588583221" cx="12.947998588583221" cy="12.947998588583221" style="stroke-width: 1; fill: rgb(29, 145, 192);"></circle><circle class="pearl" r="2.1904339371426516" cx="19.59144105525562" cy="12.946486915472098"></circle><circle class="pearl" r="2.1904339371426516" cx="11.739504751143357" cy="14.221171729320078"></circle><circle class="pearl" r="2.1904339371426516" cx="12.111891488192077" cy="3.6777469171466217"></circle><circle class="pearl" r="2.1904339371426516" cx="19.853064842513973" cy="20.250390326941858"></circle><circle class="pearl" r="2.1904339371426516" cx="3.826973807433963" cy="15.077111132850785"></circle><circle class="pearl" r="2.1904339371426516" cx="19.85614143593951" cy="5.647547001159757"></circle><circle class="pearl" r="2.1904339371426516" cx="12.012843455555238" cy="22.211459512606698"></circle><circle class="pearl" r="2.1904339371426516" cx="5.012508504017091" cy="7.16783176465547"></circle></g><g class="bobaCup bright" cupRadius="12.445577323920087" width="24.891154647840175" height="24.891154647840175" pearlRadius="2.7380424214283132" pearlCount="8" transform="translate(20.706119389852592,77.36226402878407)"><circle class="pool" r="12.445577323920087" cx="12.445577323920087" cy="12.445577323920087" style="stroke-width: 1; fill: rgb(29, 145, 192);"></circle><circle class="pearl" r="2.1904339371426507" cx="13.619779596111972" cy="12.752155467375687"></circle><circle class="pearl" r="2.1904339371426507" cx="5.707569622890024" cy="19.25867974118874"></circle><circle class="pearl" r="2.1904339371426507" cx="15.238903852248692" cy="3.96824539794106"></circle><circle class="pearl" r="2.1904339371426507" cx="20.21254682553554" cy="17.398221834150895"></circle><circle class="pearl" r="2.1904339371426507" cx="3.672728163969551" cy="11.705817881373349"></circle><circle class="pearl" r="2.1904339371426507" cx="20.87612470877708" cy="9.456380894979183"></circle><circle class="pearl" r="2.1904339371426507" cx="13.325779183968619" cy="21.20926667151389"></circle><circle class="pearl" r="2.1904339371426507" cx="7.34542105983388" cy="4.743732516686406"></circle></g><g class="bobaCup bright" cupRadius="11.598395152838798" width="23.196790305677595" height="23.196790305677595" pearlRadius="2.7380424214283137" pearlCount="7" transform="translate(190.7182240127838,252.30739010148238)"><circle class="pool" r="11.598395152838798" cx="11.598395152838798" cy="11.598395152838798" style="stroke-width: 1; fill: rgb(29, 145, 192);"></circle><circle class="pearl" r="2.190433937142651" cx="11.88457807767878" cy="11.641196322430732"></circle><circle class="pearl" r="2.190433937142651" cx="4.058601273556086" cy="14.647181301493045"></circle><circle class="pearl" r="2.190433937142651" cx="12.140211863681017" cy="3.6633855701783613"></circle><circle class="pearl" r="2.190433937142651" cx="18.08336005863863" cy="17.23671016391854"></circle><circle class="pearl" r="2.190433937142651" cx="4.744012819021226" cy="6.682550643045448"></circle><circle class="pearl" r="2.190433937142651" cx="18.929789563244587" cy="7.867998084822099"></circle><circle class="pearl" r="2.190433937142651" cx="10.41367080838768" cy="19.485401265392827"></circle></g><g class="bobaCup bright" cupRadius="11.554283456003763" width="23.108566912007525" height="23.108566912007525" pearlRadius="2.738042421428314" pearlCount="7" transform="translate(160.92982606378126,259.9128612392225)"><circle class="pool" r="11.554283456003763" cx="11.554283456003763" cy="11.554283456003763" style="stroke-width: 1; fill: rgb(127, 205, 187);"></circle><circle class="pearl" r="2.1904339371426516" cx="11.773194046950504" cy="11.592346299052107"></circle><circle class="pearl" r="2.1904339371426516" cx="4.04365828495272" cy="14.541885853233822"></circle><circle class="pearl" r="2.1904339371426516" cx="12.19200233601879" cy="3.6683355524087493"></circle><circle class="pearl" r="2.1904339371426516" cx="18.029013338400272" cy="17.119951922529495"></circle><circle class="pearl" r="2.1904339371426516" cx="4.774380828798714" cy="6.584020843374864"></circle><circle class="pearl" r="2.1904339371426516" cx="18.8876401063262" cy="7.969390794323536"></circle><circle class="pearl" r="2.1904339371426516" cx="10.353199262717862" cy="19.395246915744405"></circle></g><g class="bobaCup bright" cupRadius="11.428500059023643" width="22.857000118047285" height="22.857000118047285" pearlRadius="2.7380424214283137" pearlCount="7" transform="translate(115.53580344085329,100.36984970512502)"><circle class="pool" r="11.428500059023643" cx="11.428500059023643" cy="11.428500059023643" style="stroke-width: 1; fill: rgb(65, 182, 196);"></circle><circle class="pearl" r="2.190433937142651" cx="11.463463699847567" cy="11.444670228841634"></circle><circle class="pearl" r="2.190433937142651" cx="3.993346364409579" cy="14.205899281874833"></circle><circle class="pearl" r="2.190433937142651" cx="12.38337885275182" cy="3.6906843080595735"></circle><circle class="pearl" r="2.190433937142651" cx="17.87692584740483" cy="16.77806104404805"></circle><circle class="pearl" r="2.190433937142651" cx="4.880255956110863" cy="6.271788028046121"></circle><circle class="pearl" r="2.190433937142651" cx="18.770954459932742" cy="8.304294687125072"></circle><circle class="pearl" r="2.190433937142651" cx="10.139372558741819" cy="19.133337753943767"></circle></g><g class="bobaCup bright" cupRadius="11.139388668072721" width="22.278777336145442" height="22.278777336145442" pearlRadius="2.738042421428314" pearlCount="6" transform="translate(119.65280431154899,83.50748264326943)"><circle class="pool" r="11.139388668072721" cx="11.139388668072721" cy="11.139388668072721" style="stroke-width: 1; fill: rgb(127, 205, 187);"></circle><circle class="pearl" r="2.1904339371426516" cx="11.513157231650277" cy="11.319931394568425"></circle><circle class="pearl" r="2.1904339371426516" cx="6.195757584323167" cy="17.47097437111521"></circle><circle class="pearl" r="2.1904339371426516" cx="8.829246109415015" cy="3.8929002690270704"></circle><circle class="pearl" r="2.1904339371426516" cx="16.947886989736602" cy="16.993786540551053"></circle><circle class="pearl" r="2.1904339371426516" cx="3.719083581947365" cy="9.907190650878803"></circle><circle class="pearl" r="2.1904339371426516" cx="16.977010597890985" cy="5.3035266020488505"></circle></g><g class="bobaCup bright" cupRadius="10.976113027243128" width="21.952226054486257" height="21.952226054486257" pearlRadius="2.7380424214283137" pearlCount="6" transform="translate(153.38829784892445,204.03793396286073)"><circle class="pool" r="10.976113027243128" cx="10.976113027243128" cy="10.976113027243128" style="stroke-width: 1; fill: rgb(127, 205, 187);"></circle><circle class="pearl" r="2.190433937142651" cx="11.373173013282956" cy="11.184837620679483"></circle><circle class="pearl" r="2.190433937142651" cx="6.113131913169614" cy="17.16543410095954"></circle><circle class="pearl" r="2.190433937142651" cx="8.836085428092877" cy="3.861366500077052"></circle><circle class="pearl" r="2.190433937142651" cx="16.621594452664795" cy="16.738338149854858"></circle><circle class="pearl" r="2.190433937142651" cx="3.7300403844184338" cy="9.658958167726528"></circle><circle class="pearl" r="2.190433937142651" cx="16.68784159018504" cy="5.2539384109590905"></circle></g><g class="bobaCup bright" cupRadius="10.95231675085496" width="21.90463350170992" height="21.90463350170992" pearlRadius="2.738042421428314" pearlCount="6" transform="translate(99.54562204351994,283.0407893260297)"><circle class="pool" r="10.95231675085496" cx="10.95231675085496" cy="10.95231675085496" style="stroke-width: 1; fill: rgb(29, 145, 192);"></circle><circle class="pearl" r="2.1904339371426516" cx="11.34070831251365" cy="11.173210873794664"></circle><circle class="pearl" r="2.1904339371426516" cx="6.007933980274925" cy="17.074327081992205"></circle><circle class="pearl" r="2.1904339371426516" cx="8.87785804256285" cy="3.8489773387934734"></circle><circle class="pearl" r="2.1904339371426516" cx="16.574722586656517" cy="16.70062511221923"></circle><circle class="pearl" r="2.1904339371426516" cx="3.7394172637883885" cy="9.561294212094486"></circle><circle class="pearl" r="2.1904339371426516" cx="16.64627631941382" cy="5.247182635351416"></circle></g><g class="bobaCup bright" cupRadius="10.909370636066418" width="21.818741272132836" height="21.818741272132836" pearlRadius="2.738042421428314" pearlCount="6" transform="translate(215.13539528004938,88.49142522638716)"><circle class="pool" r="10.909370636066418" cx="10.909370636066418" cy="10.909370636066418" style="stroke-width: 1; fill: rgb(127, 205, 187);"></circle><circle class="pearl" r="2.1904339371426516" cx="11.28615709973854" cy="11.140520439718086"></circle><circle class="pearl" r="2.1904339371426516" cx="5.8801835261497795" cy="16.93964140028949"></circle><circle class="pearl" r="2.1904339371426516" cx="8.86496413371563" cy="3.8439952402213398"></circle><circle class="pearl" r="2.1904339371426516" cx="16.49133355520218" cy="16.631803633893224"></circle><circle class="pearl" r="2.1904339371426516" cx="3.7479922323701342" cy="9.455814318413228"></circle><circle class="pearl" r="2.1904339371426516" cx="16.570058624918257" cy="5.234270621194771"></circle></g><g class="bobaCup bright" cupRadius="10.881250854437832" width="21.762501708875664" height="21.762501708875664" pearlRadius="2.7380424214283137" pearlCount="6" transform="translate(303.2141639832024,42.8142316456832)"><circle class="pool" r="10.881250854437832" cx="10.881250854437832" cy="10.881250854437832" style="stroke-width: 1; fill: rgb(29, 145, 192);"></circle><circle class="pearl" r="2.190433937142651" cx="11.24924907426658" cy="11.119834952371978"></circle><circle class="pearl" r="2.190433937142651" cx="5.789963143839769" cy="16.847201146638742"></circle><circle class="pearl" r="2.190433937142651" cx="8.8596692393438" cy="3.8401628271590518"></circle><circle class="pearl" r="2.190433937142651" cx="16.436841789337812" cy="16.586650194605422"></circle><circle class="pearl" r="2.190433937142651" cx="3.7546211167970434" cy="9.381156457778687"></circle><circle class="pearl" r="2.190433937142651" cx="16.52076805542141" cy="5.226198140240125"></circle></g><g class="bobaCup bright" cupRadius="10.490686258211213" width="20.981372516422425" height="20.981372516422425" pearlRadius="2.7380424214283137" pearlCount="6" transform="translate(153.578369640952,179.23198857410975)"><circle class="pool" r="10.490686258211213" cx="10.490686258211213" cy="10.490686258211213" style="stroke-width: 1; fill: rgb(29, 145, 192);"></circle><circle class="pearl" r="2.190433937142651" cx="10.851996732643595" cy="10.79238720562714"></circle><circle class="pearl" r="2.190433937142651" cx="5.298342119128604" cy="15.955557388186147"></circle><circle class="pearl" r="2.190433937142651" cx="8.582369849085621" cy="3.8257501937034704"></circle><circle class="pearl" r="2.190433937142651" cx="15.667969831868046" cy="15.96411959154571"></circle><circle class="pearl" r="2.190433937142651" cx="3.785985302131147" cy="8.811493558083072"></circle><circle class="pearl" r="2.190433937142651" cx="15.795687075312" cy="5.0909142241581815"></circle></g><g class="bobaCup bright" cupRadius="10.455580268455442" width="20.911160536910884" height="20.911160536910884" pearlRadius="2.738042421428314" pearlCount="5" transform="translate(250.11737308125004,189.79919646619004)"><circle class="pool" r="10.455580268455442" cx="10.455580268455442" cy="10.455580268455442" style="stroke-width: 1; fill: rgb(29, 145, 192);"></circle><circle class="pearl" r="2.1904339371426516" cx="16.549106308227486" cy="8.110150613047425"></circle><circle class="pearl" r="2.1904339371426516" cx="7.398350239046351" cy="15.93767870729146"></circle><circle class="pearl" r="2.1904339371426516" cx="9.903448065954422" cy="3.6653117442725702"></circle><circle class="pearl" r="2.1904339371426516" cx="15.39299779062378" cy="16.021204850264557"></circle><circle class="pearl" r="2.1904339371426516" cx="3.7814288211138547" cy="8.807514227056629"></circle></g><g class="bobaCup bright" cupRadius="10.39589238416754" width="20.79178476833508" height="20.79178476833508" pearlRadius="2.738042421428314" pearlCount="5" transform="translate(61.01595047316421,190.29635441121957)"><circle class="pool" r="10.39589238416754" cx="10.39589238416754" cy="10.39589238416754" style="stroke-width: 1; fill: rgb(65, 182, 196);"></circle><circle class="pearl" r="2.1904339371426516" cx="16.61513390177817" cy="8.011505105085803"></circle><circle class="pearl" r="2.1904339371426516" cx="7.325007229321989" cy="15.956847712924043"></circle><circle class="pearl" r="2.1904339371426516" cx="9.906533284511433" cy="3.6622472576206104"></circle><circle class="pearl" r="2.1904339371426516" cx="15.31989586256325" cy="15.90097431996838"></circle><circle class="pearl" r="2.1904339371426516" cx="3.7750183530337513" cy="8.793123468317233"></circle></g><g class="bobaCup bright" cupRadius="9.628649213051922" width="19.257298426103844" height="19.257298426103844" pearlRadius="2.7380424214283137" pearlCount="5" transform="translate(252.85739219422692,91.1283975892733)"><circle class="pool" r="9.628649213051922" cx="9.628649213051922" cy="9.628649213051922" style="stroke-width: 1; fill: rgb(29, 145, 192);"></circle><circle class="pearl" r="2.190433937142651" cx="15.198512359036663" cy="6.855262731264561"></circle><circle class="pearl" r="2.190433937142651" cx="6.591992811532597" cy="15.115190540523695"></circle><circle class="pearl" r="2.190433937142651" cx="8.851195521586135" cy="3.682161835116988"></circle><circle class="pearl" r="2.190433937142651" cx="14.278487121530965" cy="14.409408244017214"></circle><circle class="pearl" r="2.190433937142651" cx="3.7098792654367276" cy="8.562963509418044"></circle></g><g class="bobaCup bright" cupRadius="9.14847191127568" width="18.29694382255136" height="18.29694382255136" pearlRadius="2.738042421428314" pearlCount="4" transform="translate(219.47002870044687,49.40383722613541)"><circle class="pool" r="9.14847191127568" cx="9.14847191127568" cy="9.14847191127568" style="stroke-width: 1; fill: rgb(29, 145, 192);"></circle><circle class="pearl" r="2.1904339371426516" cx="14.051043244869685" cy="5.9025990788564595"></circle><circle class="pearl" r="2.1904339371426516" cx="5.152037265386557" cy="12.037894234634036"></circle><circle class="pearl" r="2.1904339371426516" cx="6.257314810529556" cy="4.119578274442777"></circle><circle class="pearl" r="2.1904339371426516" cx="12.945765699738553" cy="13.820915039056086"></circle></g><g class="bobaCup bright" cupRadius="8.963289786219805" width="17.92657957243961" height="17.92657957243961" pearlRadius="2.7380424214283137" pearlCount="4" transform="translate(180.60750123197295,267.2561182636632)"><circle class="pool" r="8.963289786219805" cx="8.963289786219805" cy="8.963289786219805" style="stroke-width: 1; fill: rgb(29, 145, 192);"></circle><circle class="pearl" r="2.190433937142651" cx="13.589613595231317" cy="5.523659554727255"></circle><circle class="pearl" r="2.190433937142651" cx="4.787801888760562" cy="12.211933068429234"></circle><circle class="pearl" r="2.190433937142651" cx="5.693694994670999" cy="4.268336667673827"></circle><circle class="pearl" r="2.190433937142651" cx="12.683720489322136" cy="13.467255955483918"></circle></g><g class="bobaCup bright" cupRadius="8.88946733340823" width="17.77893466681646" height="17.77893466681646" pearlRadius="2.738042421428314" pearlCount="4" transform="translate(259.52886034371335,174.05901503500706)"><circle class="pool" r="8.88946733340823" cx="8.88946733340823" cy="8.88946733340823" style="stroke-width: 1; fill: rgb(127, 205, 187);"></circle><circle class="pearl" r="2.1904339371426516" cx="13.406612934995533" cy="5.381113268457106"></circle><circle class="pearl" r="2.1904339371426516" cx="4.641043582298356" cy="12.281027149637014"></circle><circle class="pearl" r="2.1904339371426516" cx="5.480901557999187" cy="4.330177844179046"></circle><circle class="pearl" r="2.1904339371426516" cx="12.566754959295094" cy="13.331962573915526"></circle></g><g class="bobaCup bright" cupRadius="8.82121593741409" width="17.64243187482818" height="17.64243187482818" pearlRadius="2.738042421428314" pearlCount="4" transform="translate(276.3870426725955,91.45313136819702)"><circle class="pool" r="8.82121593741409" cx="8.82121593741409" cy="8.82121593741409" style="stroke-width: 1; fill: rgb(29, 145, 192);"></circle><circle class="pearl" r="2.1904339371426516" cx="13.235981547084275" cy="5.248858114533821"></circle><circle class="pearl" r="2.1904339371426516" cx="4.511292526176942" cy="12.346916940316067"></circle><circle class="pearl" r="2.1904339371426516" cx="5.287208346839264" cy="4.389573116105483"></circle><circle class="pearl" r="2.1904339371426516" cx="12.460065726422064" cy="13.206201938744556"></circle></g><g class="bobaCup bright" cupRadius="8.773193851579563" width="17.546387703159127" height="17.546387703159127" pearlRadius="2.7380424214283137" pearlCount="4" transform="translate(188.38293881107722,269.9098338487062)"><circle class="pool" r="8.773193851579563" cx="8.773193851579563" cy="8.773193851579563" style="stroke-width: 1; fill: rgb(65, 182, 196);"></circle><circle class="pearl" r="2.190433937142651" cx="13.112124152560298" cy="5.149057149534015"></circle><circle class="pearl" r="2.190433937142651" cx="4.434263550598828" cy="12.397330553625112"></circle><circle class="pearl" r="2.190433937142651" cx="5.149057149534015" cy="4.4342635505988275"></circle><circle class="pearl" r="2.190433937142651" cx="12.397330553625112" cy="13.112124152560298"></circle></g><g class="bobaCup bright" cupRadius="7.989425822103618" width="15.978851644207236" height="15.978851644207236" pearlRadius="2.738042421428314" pearlCount="3" transform="translate(148.85706155054007,120.11739370373508)"><circle class="pool" r="7.989425822103618" cx="7.989425822103618" cy="7.989425822103618" style="stroke-width: 1; fill: rgb(29, 145, 192);"></circle><circle class="pearl" r="2.1904339371426516" cx="12.172459596565709" cy="9.55887674020356"></circle><circle class="pearl" r="2.1904339371426516" cx="4.470153093494595" cy="11.511264508815305"></circle><circle class="pearl" r="2.1904339371426516" cx="6.693275247460239" cy="3.7565636572925967"></circle></g><g class="bobaCup bright" cupRadius="6.849396545409741" width="13.698793090819482" height="13.698793090819482" pearlRadius="2.738042421428314" pearlCount="2" transform="translate(39.73169803714277,206.37754682536647)"><circle class="pool" r="6.849396545409741" cx="6.849396545409741" cy="6.849396545409741" style="stroke-width: 1; fill: rgb(127, 205, 187);"></circle><circle class="pearl" r="2.1904339371426516" cx="9.468125958010734" cy="4.171100157970038"></circle><circle class="pearl" r="2.1904339371426516" cx="4.2306671328087475" cy="9.527692932849444"></circle></g><g class="bobaCup bright" cupRadius="5.677113582543293" width="11.354227165086586" height="11.354227165086586" pearlRadius="2.7380424214283137" pearlCount="2" transform="translate(261.23835121218616,49.58947880847945)"><circle class="pool" r="5.677113582543293" cx="5.677113582543293" cy="5.677113582543293" style="stroke-width: 1; fill: rgb(127, 205, 187);"></circle><circle class="pearl" r="2.190433937142651" cx="7.329536661818704" cy="3.8965278900369267"></circle><circle class="pearl" r="2.190433937142651" cx="4.024690503267881" cy="7.457699275049659"></circle></g><g class="bobaCup bright" cupRadius="0" width="0" height="0" pearlRadius="NaN" pearlCount="0" transform="translate(20,300)"><circle class="pool" r="0" cx="0" cy="0" style="stroke-width: 1; fill: rgb(29, 145, 192);"></circle></g><g class="bobaCup bright" cupRadius="0" width="0" height="0" pearlRadius="NaN" pearlCount="0" transform="translate(160.85317649827107,152.60688334531682)"><circle class="pool" r="0" cx="0" cy="0" style="stroke-width: 1; fill: rgb(127, 205, 187);"></circle></g></g><g id="legendDividerGroup" transform="translate(410,0)" height="400"><rect class="legendDivider" height="400" width="90"></rect></g><g id="legend" transform="translate(410,30)" width="90" height="320"><rect class="legendBorder" transform="translate(0,0)" width="90" height="324.9477195110013"></rect><text id="rTitle" text-anchor="middle" alignment-baseline="hanging" transform="translate(45,10)" x="0" y="0" style="fill: black; font-size: 0.8rem;">Population</text><text id="bobaValue" text-anchor="middle" alignment-baseline="hanging" transform="translate(45,25)" x="0" y="0" style="fill: black; font-size: 0.7rem;">(1 Pearl =   75)</text><g class="bright" cupRadius="8.94427190999916" width="17.88854381999832" height="17.88854381999832" pearlRadius="2.7380424214283137" pearlCount="4" transform="translate(36.05572809000084,50)"><circle class="pool" r="8.94427190999916" cx="8.94427190999916" cy="8.94427190999916" style="stroke-width: 1; fill: rgb(65, 182, 196);"></circle><circle class="pearl" r="2.190433937142651" cx="13.542613460651712" cy="5.486970900805415"></circle><circle class="pearl" r="2.190433937142651" cx="4.749399498236599" cy="12.229516637519533"></circle><circle class="pearl" r="2.190433937142651" cx="5.6385452023940825" cy="4.284028231246733"></circle><circle class="pearl" r="2.190433937142651" cx="12.653467756495177" cy="13.432459307079196"></circle></g><text id="0" class="legendSampleValue" text-anchor="middle" transform="translate(45,8)" x="0" y="72.88854381999832" style="fill: black; font-size: 0.7rem;"> 300</text><g class="bright" cupRadius="12.649110640673518" width="25.298221281347036" height="25.298221281347036" pearlRadius="2.7380424214283137" pearlCount="8" transform="translate(32.35088935932648,92.88854381999832)"><circle class="pool" r="12.649110640673518" cx="12.649110640673518" cy="12.649110640673518" style="stroke-width: 1; fill: rgb(65, 182, 196);"></circle><circle class="pearl" r="2.190433937142651" cx="14.071403428550026" cy="12.846878791771143"></circle><circle class="pearl" r="2.190433937142651" cx="6.440581911774749" cy="19.57795138257092"></circle><circle class="pearl" r="2.190433937142651" cx="15.10273708455154" cy="3.8909774644866477"></circle><circle class="pearl" r="2.190433937142651" cx="20.833946229646862" cy="17.112242666106596"></circle><circle class="pearl" r="2.190433937142651" cx="3.6634707295578792" cy="12.081372495075817"></circle><circle class="pearl" r="2.190433937142651" cx="21.1462151053254" cy="9.123450087562194"></circle><circle class="pearl" r="2.190433937142651" cx="14.187116834584868" cy="21.553646746241665"></circle><circle class="pearl" r="2.190433937142651" cx="7.171845845081948" cy="4.898098459274186"></circle></g><text id="1" class="legendSampleValue" text-anchor="middle" transform="translate(45,8)" x="0" y="123.18676510134536" style="fill: black; font-size: 0.7rem;"> 600</text><g class="bright" cupRadius="15.491933384829668" width="30.983866769659336" height="30.983866769659336" pearlRadius="2.738042421428314" pearlCount="12" transform="translate(29.508066615170332,143.18676510134537)"><circle class="pool" r="15.491933384829668" cx="15.491933384829668" cy="15.491933384829668" style="stroke-width: 1; fill: rgb(65, 182, 196);"></circle><circle class="pearl" r="2.1904339371426516" cx="17.033011743384765" cy="11.01737610913958"></circle><circle class="pearl" r="2.1904339371426516" cx="11.029309432951333" cy="17.00347040031935"></circle><circle class="pearl" r="2.1904339371426516" cx="13.977981653444434" cy="3.724876288236054"></circle><circle class="pearl" r="2.1904339371426516" cx="18.741808845067855" cy="18.756462357333643"></circle><circle class="pearl" r="2.1904339371426516" cx="3.725529689195627" cy="13.971342248807428"></circle><circle class="pearl" r="2.1904339371426516" cx="26.98661348100194" cy="12.233596672509572"></circle><circle class="pearl" r="2.1904339371426516" cx="12.152198575888569" cy="26.968872613027877"></circle><circle class="pearl" r="2.1904339371426516" cx="6.524197378590721" cy="6.5101702816287865"></circle><circle class="pearl" r="2.1904339371426516" cx="26.508263068801252" cy="20.479674242239334"></circle><circle class="pearl" r="2.1904339371426516" cx="5.419021306595209" cy="22.679550094546478"></circle><circle class="pearl" r="2.1904339371426516" cx="22.76079804957651" cy="5.461881544509561"></circle><circle class="pearl" r="2.1904339371426516" cx="20.400071923945557" cy="26.535092423407907"></circle></g><text id="2" class="legendSampleValue" text-anchor="middle" transform="translate(45,8)" x="0" y="179.1706318710047" style="fill: black; font-size: 0.7rem;"> 900</text><g class="bright" cupRadius="17.88854381999832" width="35.77708763999664" height="35.77708763999664" pearlRadius="2.7380424214283137" pearlCount="16" transform="translate(27.11145618000168,199.1706318710047)"><circle class="pool" r="17.88854381999832" cx="17.88854381999832" cy="17.88854381999832" style="stroke-width: 1; fill: rgb(65, 182, 196);"></circle><circle class="pearl" r="2.190433937142651" cx="19.8046930625516" cy="19.706925044831756"></circle><circle class="pearl" r="2.190433937142651" cx="13.339172784724305" cy="23.858410298028698"></circle><circle class="pearl" r="2.190433937142651" cx="16.092791630714295" cy="11.113543243945612"></circle><circle class="pearl" r="2.190433937142651" cx="20.836129534048155" cy="27.499380517199565"></circle><circle class="pearl" r="2.190433937142651" cx="10.312657514553905" cy="16.56124087753138"></circle><circle class="pearl" r="2.190433937142651" cx="23.678755837700653" cy="13.13675787817294"></circle><circle class="pearl" r="2.190433937142651" cx="14.311679794483911" cy="31.765114841909277"></circle><circle class="pearl" r="2.190433937142651" cx="11.081450997216843" cy="4.99648955196875"></circle><circle class="pearl" r="2.190433937142651" cx="27.674351504393126" cy="20.796258814455655"></circle><circle class="pearl" r="2.190433937142651" cx="4.000488629236898" cy="21.40866477780026"></circle><circle class="pearl" r="2.190433937142651" cx="28.333596734388347" cy="7.01684061165493"></circle><circle class="pearl" r="2.190433937142651" cx="28.522531366621063" cy="28.62247591779055"></circle><circle class="pearl" r="2.190433937142651" cx="5.30391541992303" cy="10.377661215789304"></circle><circle class="pearl" r="2.190433937142651" cx="31.694235049536697" cy="13.980399213320233"></circle><circle class="pearl" r="2.190433937142651" cx="7.311073872078207" cy="28.66408585659018"></circle><circle class="pearl" r="2.190433937142651" cx="18.987039995684725" cy="3.684483203560177"></circle></g><text id="3" class="legendSampleValue" text-anchor="middle" transform="translate(45,8)" x="0" y="239.94771951100134" style="fill: black; font-size: 0.7rem;">1.2k</text><g class="bright" cupRadius="20" width="40" height="40" pearlRadius="2.7380424214283137" pearlCount="20" transform="translate(25,259.9477195110013)"><circle class="pool" r="20" cx="20" cy="20" style="stroke-width: 1; fill: rgb(65, 182, 196);"></circle><circle class="pearl" r="2.190433937142651" cx="22.480421380823074" cy="19.96094551607325"></circle><circle class="pearl" r="2.190433937142651" cx="14.554532211889109" cy="20.25858246523202"></circle><circle class="pearl" r="2.190433937142651" cx="21.718613402750453" cy="11.231225788085391"></circle><circle class="pearl" r="2.190433937142651" cx="25.13767186853209" cy="27.447308990534317"></circle><circle class="pearl" r="2.190433937142651" cx="6.622341466842937" cy="15.212813608895589"></circle><circle class="pearl" r="2.190433937142651" cx="28.49521909515808" cy="14.82158787688231"></circle><circle class="pearl" r="2.190433937142651" cx="17.504603283401977" cy="28.993209871734443"></circle><circle class="pearl" r="2.190433937142651" cx="14.13811847195522" cy="12.373399584276378"></circle><circle class="pearl" r="2.190433937142651" cx="31.11803529924844" cy="22.444175683247455"></circle><circle class="pearl" r="2.190433937142651" cx="10.013176726772668" cy="26.767604068489224"></circle><circle class="pearl" r="2.190433937142651" cx="25.1625299271706" cy="4.328500666167248"></circle><circle class="pearl" r="2.190433937142651" cx="27.782608687955303" cy="34.772930101052836"></circle><circle class="pearl" r="2.190433937142651" cx="8.036930275650786" cy="7.623092000895575"></circle><circle class="pearl" r="2.190433937142651" cx="36.040664285033515" cy="16.500106031740792"></circle><circle class="pearl" r="2.190433937142651" cx="11.3070075503718" cy="34.36126950601293"></circle><circle class="pearl" r="2.190433937142651" cx="16.81383473400994" cy="3.9061454691506903"></circle><circle class="pearl" r="2.190433937142651" cx="33.74247113697989" cy="29.87303346303284"></circle><circle class="pearl" r="2.190433937142651" cx="3.788525504185259" cy="22.343736665541265"></circle><circle class="pearl" r="2.190433937142651" cx="32.18050534208177" cy="7.787706818962306"></circle><circle class="pearl" r="2.190433937142651" cx="20.00567962395882" cy="36.34927596497569"></circle></g><text id="4" class="legendSampleValue" text-anchor="middle" transform="translate(45,8)" x="0" y="304.9477195110013" style="fill: black; font-size: 0.7rem;">1.5k</text></g></svg>