<?xml version="1.0" standalone="no"?>
<?xml-stylesheet xmlns="http://www.w3.org/2000/svg" type="text/css" href="style.css"?>
<svg id="syntheticVisC" class="default" xTitle="Percent Cat Owners" yTitle="Percent Dog Owners" rTitle="Population" chartTitle="Towns in Vizzyland" width="500" height="400" xmlns="http://www.w3.org/2000/svg"><rect class="background" width="500" height="400"></rect><text id="chartTitle" text-anchor="middle" transform="translate(250,20)" x="0" y="0" style="fill: black; font-size: 1.2rem;">Towns in Vizzyland</text><g id="yAxis" transform="translate(50,30)" fill="none" font-size="10" font-family="sans-serif" text-anchor="end"><path class="domain" stroke="currentColor" d="M-6,300H0V20H-6"></path><g class="tick" opacity="1" transform="translate(0,300)"><line stroke="currentColor" x2="-6"></line><text fill="currentColor" x="-9" dy="0.32em">0</text></g><g class="tick" opacity="1" transform="translate(0,272)"><line stroke="currentColor" x2="-6"></line><text fill="currentColor" x="-9" dy="0.32em">10</text></g><g class="tick" opacity="1" transform="translate(0,244)"><line stroke="currentColor" x2="-6"></line><text fill="currentColor" x="-9" dy="0.32em">20</text></g><g class="tick" opacity="1" transform="translate(0,216)"><line stroke="currentColor" x2="-6"></line><text fill="currentColor" x="-9" dy="0.32em">30</text></g><g class="tick" opacity="1" transform="translate(0,188)"><line stroke="currentColor" x2="-6"></line><text fill="currentColor" x="-9" dy="0.32em">40</text></g><g class="tick" opacity="1" transform="translate(0,160)"><line stroke="currentColor" x2="-6"></line><text fill="currentColor" x="-9" dy="0.32em">50</text></g><g class="tick" opacity="1" transform="translate(0,132)"><line stroke="currentColor" x2="-6"></line><text fill="currentColor" x="-9" dy="0.32em">60</text></g><g class="tick" opacity="1" transform="translate(0,104.00000000000001)"><line stroke="currentColor" x2="-6"></line><text fill="currentColor" x="-9" dy="0.32em">70</text></g><g class="tick" opacity="1" transform="translate(0,75.99999999999999)"><line stroke="currentColor" x2="-6"></line><text fill="currentColor" x="-9" dy="0.32em">80</text></g><g class="tick" opacity="1" transform="translate(0,47.99999999999999)"><line stroke="currentColor" x2="-6"></line><text fill="currentColor" x="-9" dy="0.32em">90</text></g><g class="tick" opacity="1" transform="translate(0,20)"><line stroke="currentColor" x2="-6"></line><text fill="currentColor" x="-9" dy="0.32em">100</text></g></g><g id="xAxis" transform="translate(60,360)" fill="none" font-size="10" font-family="sans-serif" text-anchor="middle"><path class="domain" stroke="currentColor" d="M20,6V0H320V6"></path><g class="tick" opacity="1" transform="translate(20,0)"><line stroke="currentColor" y2="6"></line><text fill="currentColor" y="9" dy="0.71em">0</text></g><g class="tick" opacity="1" transform="translate(50,0)"><line stroke="currentColor" y2="6"></line><text fill="currentColor" y="9" dy="0.71em">10</text></g><g class="tick" opacity="1" transform="translate(80,0)"><line stroke="currentColor" y2="6"></line><text fill="currentColor" y="9" dy="0.71em">20</text></g><g class="tick" opacity="1" transform="translate(110,0)"><line stroke="currentColor" y2="6"></line><text fill="currentColor" y="9" dy="0.71em">30</text></g><g class="tick" opacity="1" transform="translate(140,0)"><line stroke="currentColor" y2="6"></line><text fill="currentColor" y="9" dy="0.71em">40</text></g><g class="tick" opacity="1" transform="translate(170,0)"><line stroke="currentColor" y2="6"></line><text fill="currentColor" y="9" dy="0.71em">50</text></g><g class="tick" opacity="1" transform="translate(200,0)"><line stroke="currentColor" y2="6"></line><text fill="currentColor" y="9" dy="0.71em">60</text></g><g class="tick" opacity="1" transform="translate(230,0)"><line stroke="currentColor" y2="6"></line><text fill="currentColor" y="9" dy="0.71em">70</text></g><g class="tick" opacity="1" transform="translate(260,0)"><line stroke="currentColor" y2="6"></line><text fill="currentColor" y="9" dy="0.71em">80</text></g><g class="tick" opacity="1" transform="translate(290,0)"><line stroke="currentColor" y2="6"></line><text fill="currentColor" y="9" dy="0.71em">90</text></g><g class="tick" opacity="1" transform="translate(320,0)"><line stroke="currentColor" y2="6"></line><text fill="currentColor" y="9" dy="0.71em">100</text></g></g><g id="labels"><text id="xTitle" text-anchor="middle" transform="translate(250,350)" x="0" y="40" style="fill: black; font-size: 0.8rem;">Percent Cat Owners</text><g id="group-yTitle" transform="translate(60,190)"><text id="yTitle" text-anchor="middle" transform="rotate(-90)" y="-45" style="fill: black; font-size: 0.8rem;">Percent Dog Owners</text></g></g><g id="quadrant_lines" transform="translate(60,30)"><line id="verticalQuadrantLine" x1="170" y1="10" x2="170" y2="310" class="quadrantLine"></line><line id="horizontalQuadrantLine" x1="10" y1="160" x2="330" y2="160" class="quadrantLine"></line></g><g id="chart" transform="translate(60,30)"><g class="bobaCup bright" cupRadius="20" width="40" height="40" pearlRadius="2.7380424214283137" pearlCount="20" transform="translate(289.1638858183893,25.27366636773398)"><circle class="pool" r="20" cx="20" cy="20" style="stroke-width: 1; fill: rgb(29, 145, 192);"></circle><circle class="pearl" r="2.190433937142651" cx="22.480421380823074" cy="19.96094551607325"></circle><circle class="pearl" r="2.190433937142651" cx="14.554532211889109" cy="20.25858246523202"></circle><circle class="pearl" r="2.190433937142651" cx="21.718613402750453" cy="11.231225788085391"></circle><circle class="pearl" r="2.190433937142651" cx="25.13767186853209" cy="27.447308990534317"></circle><circle class="pearl" r="2.190433937142651" cx="6.622341466842937" cy="15.212813608895589"></circle><circle class="pearl" r="2.190433937142651" cx="28.49521909515808" cy="14.82158787688231"></circle><circle class="pearl" r="2.190433937142651" cx="17.504603283401977" cy="28.993209871734443"></circle><circle class="pearl" r="2.190433937142651" cx="14.13811847195522" cy="12.373399584276378"></circle><circle class="pearl" r="2.190433937142651" cx="31.11803529924844" cy="22.444175683247455"></circle><circle class="pearl" r="2.190433937142651" cx="10.013176726772668" cy="26.767604068489224"></circle><circle class="pearl" r="2.190433937142651" cx="25.1625299271706" cy="4.328500666167248"></circle><circle class="pearl" r="2.190433937142651" cx="27.782608687955303" cy="34.772930101052836"></circle><circle class="pearl" r="2.190433937142651" cx="8.036930275650786" cy="7.623092000895575"></circle><circle class="pearl" r="2.190433937142651" cx="36.040664285033515" cy="16.500106031740792"></circle><circle class="pearl" r="2.190433937142651" cx="11.3070075503718" cy="34.36126950601293"></circle><circle class="pearl" r="2.190433937142651" cx="16.81383473400994" cy="3.9061454691506903"></circle><circle class="pearl" r="2.190433937142651" cx="33.74247113697989" cy="29.87303346303284"></circle><circle class="pearl" r="2.190433937142651" cx="3.788525504185259" cy="22.343736665541265"></circle><circle class="pearl" r="2.190433937142651" cx="32.18050534208177" cy="7.787706818962306"></circle><circle class="pearl" r="2.190433937142651" cx="20.00567962395882" cy="36.34927596497569"></circle></g><g class="bobaCup bright" cupRadius="19.017443198860903" width="38.034886397721806" height="38.034886397721806" pearlRadius="2.738042421428314" pearlCount="18" transform="translate(223.04311804993586,203.58196839498953)"><circle class="pool" r="19.017443198860903" cx="19.017443198860903" cy="19.017443198860903" style="stroke-width: 1; fill: rgb(127, 205, 187);"></circle><circle class="pearl" r="2.1904339371426516" cx="19.78196684225396" cy="18.528663802159194"></circle><circle class="pearl" r="2.1904339371426516" cx="13.767307505785249" cy="23.788281673930783"></circle><circle class="pearl" r="2.1904339371426516" cx="18.506569865564664" cy="10.716491430347402"></circle><circle class="pearl" r="2.1904339371426516" cx="21.32529705830308" cy="26.28983643807474"></circle><circle class="pearl" r="2.1904339371426516" cx="11.900526415324247" cy="15.983157168891537"></circle><circle class="pearl" r="2.1904339371426516" cx="26.61981863681503" cy="14.403423426289596"></circle><circle class="pearl" r="2.1904339371426516" cx="16.364943430622315" cy="32.592441481974554"></circle><circle class="pearl" r="2.1904339371426516" cx="13.631808135324246" cy="4.429249771437714"></circle><circle class="pearl" r="2.1904339371426516" cx="28.209987384361185" cy="22.21917161959398"></circle><circle class="pearl" r="2.1904339371426516" cx="5.775754256413016" cy="23.70722298253798"></circle><circle class="pearl" r="2.1904339371426516" cx="30.21560385845778" cy="7.29727368615773"></circle><circle class="pearl" r="2.1904339371426516" cx="24.298390912921423" cy="33.63622289355677"></circle><circle class="pearl" r="2.1904339371426516" cx="6.822228030638573" cy="8.502245523737104"></circle><circle class="pearl" r="2.1904339371426516" cx="34.27405877053928" cy="16.973993832108206"></circle><circle class="pearl" r="2.1904339371426516" cx="8.492477269631854" cy="31.206171918209872"></circle><circle class="pearl" r="2.1904339371426516" cx="22.908366784398275" cy="4.05301508575846"></circle><circle class="pearl" r="2.1904339371426516" cx="31.138199444544856" cy="29.643993956988062"></circle><circle class="pearl" r="2.1904339371426516" cx="3.899053527365624" cy="15.95418565721293"></circle></g><g class="bobaCup bright" cupRadius="18.199730366975018" width="36.399460733950036" height="36.399460733950036" pearlRadius="2.738042421428314" pearlCount="17" transform="translate(81.07656489944542,251.71996468722188)"><circle class="pool" r="18.199730366975018" cx="18.199730366975018" cy="18.199730366975018" style="stroke-width: 1; fill: rgb(29, 145, 192);"></circle><circle class="pearl" r="2.1904339371426516" cx="18.173133902388336" cy="18.198675985081383"></circle><circle class="pearl" r="2.1904339371426516" cx="13.24473880432244" cy="24.264904303416618"></circle><circle class="pearl" r="2.1904339371426516" cx="15.435554206270952" cy="10.853787059655929"></circle><circle class="pearl" r="2.1904339371426516" cx="20.856563108714653" cy="25.5634780228068"></circle><circle class="pearl" r="2.1904339371426516" cx="10.415952855774288" cy="17.04916277054466"></circle><circle class="pearl" r="2.1904339371426516" cx="23.048339979980955" cy="12.09141202024888"></circle><circle class="pearl" r="2.1904339371426516" cx="15.510703249759196" cy="31.976821430161426"></circle><circle class="pearl" r="2.1904339371426516" cx="9.669517283860074" cy="5.7735866685840165"></circle><circle class="pearl" r="2.1904339371426516" cx="25.931359483538436" cy="19.350824790096155"></circle><circle class="pearl" r="2.1904339371426516" cx="4.15763794015889" cy="22.056182950772943"></circle><circle class="pearl" r="2.1904339371426516" cx="28.956365934229847" cy="7.169684654381575"></circle><circle class="pearl" r="2.1904339371426516" cx="26.805815424230875" cy="30.585387198064222"></circle><circle class="pearl" r="2.1904339371426516" cx="4.904697492499579" cy="11.561090782944705"></circle><circle class="pearl" r="2.1904339371426516" cx="32.37089390955652" cy="14.510484191018637"></circle><circle class="pearl" r="2.1904339371426516" cx="7.441979013365918" cy="29.228958474989295"></circle><circle class="pearl" r="2.1904339371426516" cx="19.865493567627077" cy="3.7271145436510023"></circle><circle class="pearl" r="2.1904339371426516" cx="31.528656083766503" cy="24.75119639549416"></circle></g><g class="bobaCup bright" cupRadius="18.155468798599784" width="36.31093759719957" height="36.31093759719957" pearlRadius="2.738042421428314" pearlCount="16" transform="translate(221.16990595508628,150.52580059935428)"><circle class="pool" r="18.155468798599784" cx="18.155468798599784" cy="18.155468798599784" style="stroke-width: 1; fill: rgb(65, 182, 196);"></circle><circle class="pearl" r="2.1904339371426516" cx="19.804091751999746" cy="19.751346027482885"></circle><circle class="pearl" r="2.1904339371426516" cx="13.618023815562996" cy="24.422668938226547"></circle><circle class="pearl" r="2.1904339371426516" cx="16.746254177341804" cy="11.500599839769485"></circle><circle class="pearl" r="2.1904339371426516" cx="21.214347721280287" cy="27.57429505376536"></circle><circle class="pearl" r="2.1904339371426516" cx="10.910554115838739" cy="16.9566373604803"></circle><circle class="pearl" r="2.1904339371426516" cx="24.40147987541621" cy="13.53350775473733"></circle><circle class="pearl" r="2.1904339371426516" cx="14.849628877131451" cy="32.356705398309636"></circle><circle class="pearl" r="2.1904339371426516" cx="10.637741070421054" cy="6.351060731371847"></circle><circle class="pearl" r="2.1904339371426516" cx="27.64525320938264" cy="21.20140868461937"></circle><circle class="pearl" r="2.1904339371426516" cx="4.468284658385288" cy="21.6932156198955"></circle><circle class="pearl" r="2.1904339371426516" cx="28.883672978197904" cy="7.159462618262417"></circle><circle class="pearl" r="2.1904339371426516" cx="29.024067644822747" cy="29.047599705885634"></circle><circle class="pearl" r="2.1904339371426516" cx="4.796870949896736" cy="11.806922210038888"></circle><circle class="pearl" r="2.1904339371426516" cx="32.340220884138674" cy="14.761817723915781"></circle><circle class="pearl" r="2.1904339371426516" cx="7.370713928675622" cy="29.109885408201333"></circle><circle class="pearl" r="2.1904339371426516" cx="18.240492910412257" cy="3.650922318424023"></circle></g><g class="bobaCup bright" cupRadius="18.125040815647193" width="36.250081631294385" height="36.250081631294385" pearlRadius="2.7380424214283137" pearlCount="16" transform="translate(275.30374285293817,217.4655642973365)"><circle class="pool" r="18.125040815647193" cx="18.125040815647193" cy="18.125040815647193" style="stroke-width: 1; fill: rgb(127, 205, 187);"></circle><circle class="pearl" r="2.190433937142651" cx="19.85819420705639" cy="19.81751186132664"></circle><circle class="pearl" r="2.190433937142651" cx="13.576925579275006" cy="24.339669032054612"></circle><circle class="pearl" r="2.190433937142651" cx="16.647201331781883" cy="11.458203080828326"></circle><circle class="pearl" r="2.190433937142651" cx="21.13092989570019" cy="27.664797501781802"></circle><circle class="pearl" r="2.190433937142651" cx="10.827692189502383" cy="16.921702900890356"></circle><circle class="pearl" r="2.190433937142651" cx="24.29845517273518" cy="13.487553159190343"></circle><circle class="pearl" r="2.190433937142651" cx="14.649812076787597" cy="32.263074985542175"></circle><circle class="pearl" r="2.190433937142651" cx="10.650572869496783" cy="6.179487803108484"></circle><circle class="pearl" r="2.190433937142651" cx="27.70641052584415" cy="21.149357965752696"></circle><circle class="pearl" r="2.190433937142651" cx="4.400614529136047" cy="21.68443243808169"></circle><circle class="pearl" r="2.190433937142651" cx="28.836630472979405" cy="7.154582437323086"></circle><circle class="pearl" r="2.190433937142651" cx="28.963431624207292" cy="29.001753329484213"></circle><circle class="pearl" r="2.190433937142651" cx="4.848803826443696" cy="11.644676446666587"></circle><circle class="pearl" r="2.190433937142651" cx="32.25569472674135" cy="14.612245406593766"></circle><circle class="pearl" r="2.190433937142651" cx="7.368815605550907" cy="29.0626939120331"></circle><circle class="pearl" r="2.190433937142651" cx="18.2731002443469" cy="3.651327970937274"></circle></g><g class="bobaCup bright" cupRadius="17.98176425020942" width="35.96352850041884" height="35.96352850041884" pearlRadius="2.738042421428314" pearlCount="16" transform="translate(107.03548647282783,233.1786196943357)"><circle class="pool" r="17.98176425020942" cx="17.98176425020942" cy="17.98176425020942" style="stroke-width: 1; fill: rgb(29, 145, 192);"></circle><circle class="pearl" r="2.1904339371426516" cx="19.9264054232973" cy="19.837648199202"></circle><circle class="pearl" r="2.1904339371426516" cx="13.427791756615115" cy="24.02584644172525"></circle><circle class="pearl" r="2.1904339371426516" cx="16.16057946023838" cy="11.19540857805538"></circle><circle class="pearl" r="2.1904339371426516" cx="20.94513149485222" cy="27.6644981324303"></circle><circle class="pearl" r="2.1904339371426516" cx="10.394674322657968" cy="16.712618079568667"></circle><circle class="pearl" r="2.1904339371426516" cx="23.8170544856706" cy="13.201042789206987"></circle><circle class="pearl" r="2.1904339371426516" cx="14.368344656953177" cy="31.946007510200882"></circle><circle class="pearl" r="2.1904339371426516" cx="10.951333090770781" cy="5.1395482967289245"></circle><circle class="pearl" r="2.1904339371426516" cx="27.802345537969593" cy="20.920197545732435"></circle><circle class="pearl" r="2.1904339371426516" cx="4.003966527716405" cy="21.519239864205993"></circle><circle class="pearl" r="2.1904339371426516" cx="28.537515156813978" cy="7.075016257863508"></circle><circle class="pearl" r="2.1904339371426516" cx="28.696298435664385" cy="28.772045236679144"></circle><circle class="pearl" r="2.1904339371426516" cx="5.210134926189827" cy="10.657135782599067"></circle><circle class="pearl" r="2.1904339371426516" cx="31.890868602584558" cy="14.109258488102684"></circle><circle class="pearl" r="2.1904339371426516" cx="7.309760728512019" cy="28.803504059524723"></circle><circle class="pearl" r="2.1904339371426516" cx="18.797667705685797" cy="3.6692431420396834"></circle></g><g class="bobaCup bright" cupRadius="17.54338403462389" width="35.08676806924778" height="35.08676806924778" pearlRadius="2.7380424214283137" pearlCount="15" transform="translate(78.75834970298496,125.00398251246475)"><circle class="pool" r="17.54338403462389" cx="17.54338403462389" cy="17.54338403462389" style="stroke-width: 1; fill: rgb(127, 205, 187);"></circle><circle class="pearl" r="2.190433937142651" cx="18.75617253432379" cy="17.625510380815495"></circle><circle class="pearl" r="2.190433937142651" cx="13.15159109182184" cy="23.23765189720432"></circle><circle class="pearl" r="2.190433937142651" cx="16.405919318902885" cy="9.914501447118178"></circle><circle class="pearl" r="2.190433937142651" cx="20.37103851665479" cy="26.06675049893753"></circle><circle class="pearl" r="2.190433937142651" cx="11.056583917917356" cy="15.777969329502069"></circle><circle class="pearl" r="2.190433937142651" cx="24.01458346062872" cy="11.69426210751708"></circle><circle class="pearl" r="2.190433937142651" cx="14.37853997477424" cy="31.148213114313787"></circle><circle class="pearl" r="2.190433937142651" cx="10.122356400096432" cy="5.297608521840759"></circle><circle class="pearl" r="2.190433937142651" cx="26.124266125951163" cy="20.5093972548403"></circle><circle class="pearl" r="2.190433937142651" cx="4.60786379765214" cy="20.56777095021268"></circle><circle class="pearl" r="2.190433937142651" cx="21.88242340518836" cy="4.195782030190756"></circle><circle class="pearl" r="2.190433937142651" cx="27.88174776125256" cy="28.066176913293983"></circle><circle class="pearl" r="2.190433937142651" cx="4.943861628709996" cy="10.932798568479585"></circle><circle class="pearl" r="2.190433937142651" cx="31.187706225061998" cy="14.602002158582387"></circle><circle class="pearl" r="2.190433937142651" cx="7.1980981135694915" cy="28.06112517584003"></circle></g><g class="bobaCup bright" cupRadius="17.42575994413485" width="34.8515198882697" height="34.8515198882697" pearlRadius="2.738042421428314" pearlCount="15" transform="translate(80.7979370354962,22.828044178321836)"><circle class="pool" r="17.42575994413485" cx="17.42575994413485" cy="17.42575994413485" style="stroke-width: 1; fill: rgb(127, 205, 187);"></circle><circle class="pearl" r="2.1904339371426516" cx="18.628632726319157" cy="17.53105649819577"></circle><circle class="pearl" r="2.1904339371426516" cx="13.031774636086569" cy="23.068828464198656"></circle><circle class="pearl" r="2.1904339371426516" cx="16.314923219286833" cy="9.930710304322906"></circle><circle class="pearl" r="2.1904339371426516" cx="20.20116869674691" cy="25.859805179053946"></circle><circle class="pearl" r="2.1904339371426516" cx="10.902154640967696" cy="15.706708343183172"></circle><circle class="pearl" r="2.1904339371426516" cx="23.867563665185404" cy="11.603491469373138"></circle><circle class="pearl" r="2.1904339371426516" cx="14.295190784383825" cy="30.917284128509078"></circle><circle class="pearl" r="2.1904339371426516" cx="10.223577319729984" cy="5.208727342868647"></circle><circle class="pearl" r="2.1904339371426516" cx="25.987349977258383" cy="20.371380399911015"></circle><circle class="pearl" r="2.1904339371426516" cx="4.4228496998099445" cy="20.458607379432593"></circle><circle class="pearl" r="2.1904339371426516" cx="21.72900010150007" cy="4.190416911475822"></circle><circle class="pearl" r="2.1904339371426516" cx="27.653106085295097" cy="27.883846039511308"></circle><circle class="pearl" r="2.1904339371426516" cx="5.02161468162004" cy="10.650930989500498"></circle><circle class="pearl" r="2.1904339371426516" cx="30.94978736806041" cy="14.478719113881455"></circle><circle class="pearl" r="2.1904339371426516" cx="7.19384752651788" cy="27.88053486021751"></circle></g><g class="bobaCup bright" cupRadius="17.09815585545858" width="34.19631171091716" height="34.19631171091716" pearlRadius="2.7380424214283132" pearlCount="15" transform="translate(239.71614546832512,282.9018441445414)"><circle class="pool" r="17.09815585545858" cx="17.09815585545858" cy="17.09815585545858" style="stroke-width: 1; fill: rgb(127, 205, 187);"></circle><circle class="pearl" r="2.1904339371426507" cx="18.32745111159167" cy="17.339665477238267"></circle><circle class="pearl" r="2.1904339371426507" cx="12.67382314418986" cy="22.584742143392763"></circle><circle class="pearl" r="2.1904339371426507" cx="16.063381611975416" cy="9.797631192561667"></circle><circle class="pearl" r="2.1904339371426507" cx="19.745242362049204" cy="25.164684499981636"></circle><circle class="pearl" r="2.1904339371426507" cx="10.60837300279993" cy="15.451463686832472"></circle><circle class="pearl" r="2.1904339371426507" cx="23.408596647002145" cy="11.44096997909209"></circle><circle class="pearl" r="2.1904339371426507" cx="14.137962151086704" cy="30.287390669891924"></circle><circle class="pearl" r="2.1904339371426507" cx="10.240299130484768" cy="5.086288787489184"></circle><circle class="pearl" r="2.1904339371426507" cx="25.71712368004989" cy="19.963214497749753"></circle><circle class="pearl" r="2.1904339371426507" cx="4.096105739479484" cy="20.17525501185958"></circle><circle class="pearl" r="2.1904339371426507" cx="21.517340246632394" cy="4.231683711498699"></circle><circle class="pearl" r="2.1904339371426507" cx="27.0146318929875" cy="27.376195553101265"></circle><circle class="pearl" r="2.1904339371426507" cx="5.120132209574927" cy="10.16351781214487"></circle><circle class="pearl" r="2.1904339371426507" cx="30.26772912987879" cy="14.028211359378687"></circle><circle class="pearl" r="2.1904339371426507" cx="7.210171269344452" cy="27.396435977748155"></circle></g><g class="bobaCup bright" cupRadius="16.97632855281484" width="33.95265710562968" height="33.95265710562968" pearlRadius="2.738042421428314" pearlCount="14" transform="translate(206.13171649565612,254.01392682659804)"><circle class="pool" r="16.97632855281484" cx="16.97632855281484" cy="16.97632855281484" style="stroke-width: 1; fill: rgb(65, 182, 196);"></circle><circle class="pearl" r="2.1904339371426516" cx="22.169980935380202" cy="13.456856580784095"></circle><circle class="pearl" r="2.1904339371426516" cx="13.167137073451283" cy="22.81047358369883"></circle><circle class="pearl" r="2.1904339371426516" cx="14.313516784797683" cy="12.024714153013427"></circle><circle class="pearl" r="2.1904339371426516" cx="21.0182391945081" cy="21.361217039815045"></circle><circle class="pearl" r="2.1904339371426516" cx="7.9137889755367254" cy="16.81855536758208"></circle><circle class="pearl" r="2.1904339371426516" cx="27.04141393368704" cy="6.972712940335621"></circle><circle class="pearl" r="2.1904339371426516" cx="15.958967773396086" cy="30.271422158424894"></circle><circle class="pearl" r="2.1904339371426516" cx="11.81450425264462" cy="4.454504022072037"></circle><circle class="pearl" r="2.1904339371426516" cx="29.44682961301753" cy="22.296277665745055"></circle><circle class="pearl" r="2.1904339371426516" cx="5.34223471448481" cy="24.363486217606138"></circle><circle class="pearl" r="2.1904339371426516" cx="19.764478695245696" cy="3.8812478318474253"></circle><circle class="pearl" r="2.1904339371426516" cx="24.506380119035935" cy="28.54053399785796"></circle><circle class="pearl" r="2.1904339371426516" cx="5.5240600519955265" cy="9.22420807161219"></circle><circle class="pearl" r="2.1904339371426516" cx="30.09512985194777" cy="14.334590820213442"></circle></g><g class="bobaCup bright" cupRadius="15.867997207617492" width="31.735994415234984" height="31.735994415234984" pearlRadius="2.7380424214283137" pearlCount="13" transform="translate(16.78656925702959,95.13698098427466)"><circle class="pool" r="15.867997207617492" cx="15.867997207617492" cy="15.867997207617492" style="stroke-width: 1; fill: rgb(65, 182, 196);"></circle><circle class="pearl" r="2.190433937142651" cx="20.487841950152706" cy="17.993517515792107"></circle><circle class="pearl" r="2.190433937142651" cx="13.351138298025408" cy="20.770244064872283"></circle><circle class="pearl" r="2.190433937142651" cx="17.060682982832333" cy="11.022456383708752"></circle><circle class="pearl" r="2.190433937142651" cx="24.383387979352786" cy="25.606876489412496"></circle><circle class="pearl" r="2.190433937142651" cx="9.72364204012419" cy="13.744305194432314"></circle><circle class="pearl" r="2.190433937142651" cx="27.232097299919563" cy="10.734926389489203"></circle><circle class="pearl" r="2.190433937142651" cx="7.254809605739272" cy="25.544176646801127"></circle><circle class="pearl" r="2.190433937142651" cx="14.021022779052487" cy="3.758580181698978"></circle><circle class="pearl" r="2.190433937142651" cx="27.840497858700434" cy="18.64436371569323"></circle><circle class="pearl" r="2.190433937142651" cx="3.9393851318381863" cy="18.88091055777844"></circle><circle class="pearl" r="2.190433937142651" cx="21.97454688385842" cy="4.872786309866747"></circle><circle class="pearl" r="2.190433937142651" cx="16.782495768680505" cy="28.05889724696849"></circle><circle class="pearl" r="2.190433937142651" cx="6.708527297682734" cy="6.561195736233099"></circle></g><g class="bobaCup bright" cupRadius="15.836040480427133" width="31.672080960854267" height="31.672080960854267" pearlRadius="2.7380424214283137" pearlCount="13" transform="translate(270.43366159787104,35.84077181230701)"><circle class="pool" r="15.836040480427133" cx="15.836040480427133" cy="15.836040480427133" style="stroke-width: 1; fill: rgb(29, 145, 192);"></circle><circle class="pearl" r="2.190433937142651" cx="20.404770948095408" cy="18.10839203667787"></circle><circle class="pearl" r="2.190433937142651" cx="13.239920376452458" cy="20.794013598337777"></circle><circle class="pearl" r="2.190433937142651" cx="17.188062921294847" cy="11.025523395961295"></circle><circle class="pearl" r="2.190433937142651" cx="24.238841292759208" cy="25.608175241345403"></circle><circle class="pearl" r="2.190433937142651" cx="9.855486519671794" cy="13.656285740563137"></circle><circle class="pearl" r="2.190433937142651" cx="27.209580001448256" cy="10.830872458378034"></circle><circle class="pearl" r="2.190433937142651" cx="6.943642228146748" cy="25.288959166246396"></circle><circle class="pearl" r="2.190433937142651" cx="14.066052545778533" cy="3.749949520321872"></circle><circle class="pearl" r="2.190433937142651" cx="27.754403561123862" cy="18.73150755713451"></circle><circle class="pearl" r="2.190433937142651" cx="3.8808803746900544" cy="18.52613034020683"></circle><circle class="pearl" r="2.190433937142651" cx="22.08530652281278" cy="4.935926893570301"></circle><circle class="pearl" r="2.190433937142651" cx="16.625443858667357" cy="28.001670194432595"></circle><circle class="pearl" r="2.190433937142651" cx="6.712740467242218" cy="6.54282400861538"></circle></g><g class="bobaCup bright" cupRadius="15.698798719545131" width="31.397597439090262" height="31.397597439090262" pearlRadius="2.738042421428314" pearlCount="12" transform="translate(120.79703307598044,44.02712313762168)"><circle class="pool" r="15.698798719545131" cx="15.698798719545131" cy="15.698798719545131" style="stroke-width: 1; fill: rgb(65, 182, 196);"></circle><circle class="pearl" r="2.1904339371426516" cx="17.50852913487024" cy="11.38462494874482"></circle><circle class="pearl" r="2.1904339371426516" cx="11.394492451116742" cy="17.58309071982867"></circle><circle class="pearl" r="2.1904339371426516" cx="14.181903847489577" cy="4.114905451873156"></circle><circle class="pearl" r="2.1904339371426516" cx="19.224529084134453" cy="19.192434208803693"></circle><circle class="pearl" r="2.1904339371426516" cx="4.153677973932168" cy="14.194226034135088"></circle><circle class="pearl" r="2.1904339371426516" cx="27.2647783323623" cy="11.838198264476194"></circle><circle class="pearl" r="2.1904339371426516" cx="11.992128097176595" cy="27.30300499373026"></circle><circle class="pearl" r="2.1904339371426516" cx="6.574573519888764" cy="6.574515265427257"></circle><circle class="pearl" r="2.1904339371426516" cx="27.192783903172536" cy="19.83281472656254"></circle><circle class="pearl" r="2.1904339371426516" cx="5.364990406814091" cy="22.83218212485273"></circle><circle class="pearl" r="2.1904339371426516" cx="22.68060313029988" cy="5.288700904992263"></circle><circle class="pearl" r="2.1904339371426516" cx="19.985570396870234" cy="27.150256453446822"></circle></g><g class="bobaCup bright" cupRadius="15.520618582689226" width="31.04123716537845" height="31.04123716537845" pearlRadius="2.7380424214283146" pearlCount="12" transform="translate(210.54301615888912,203.55106436282253)"><circle class="pool" r="15.520618582689226" cx="15.520618582689226" cy="15.520618582689226" style="stroke-width: 1; fill: rgb(29, 145, 192);"></circle><circle class="pearl" r="2.1904339371426516" cx="17.05505865549808" cy="11.061161448086462"></circle><circle class="pearl" r="2.1904339371426516" cx="11.067328653929646" cy="17.038895857465665"></circle><circle class="pearl" r="2.1904339371426516" cx="13.99738675425635" cy="3.725650956327109"></circle><circle class="pearl" r="2.1904339371426516" cx="18.813067757236034" cy="18.8220416526345"></circle><circle class="pearl" r="2.1904339371426516" cx="3.726047527109494" cy="13.993370840737644"></circle><circle class="pearl" r="2.1904339371426516" cx="27.01623746588875" cy="12.132710404694677"></circle><circle class="pearl" r="2.1904339371426516" cx="12.086811687044927" cy="27.005897844628763"></circle><circle class="pearl" r="2.1904339371426516" cx="6.528624142392629" cy="6.520901614374149"></circle><circle class="pearl" r="2.1904339371426516" cx="26.659130870656423" cy="20.228921251983202"></circle><circle class="pearl" r="2.1904339371426516" cx="5.38731180490871" cy="22.654349582195497"></circle><circle class="pearl" r="2.1904339371426516" cx="22.699877568608013" cy="5.4109696650419385"></circle><circle class="pearl" r="2.1904339371426516" cx="20.180534767399234" cy="26.674448111320768"></circle></g><g class="bobaCup bright" cupRadius="15.51659197309182" width="31.03318394618364" height="31.03318394618364" pearlRadius="2.738042421428314" pearlCount="12" transform="translate(258.5110663051665,32.87375014188093)"><circle class="pool" r="15.51659197309182" cx="15.51659197309182" cy="15.51659197309182" style="stroke-width: 1; fill: rgb(65, 182, 196);"></circle><circle class="pearl" r="2.1904339371426516" cx="17.05164860614218" cy="11.055344327170346"></circle><circle class="pearl" r="2.1904339371426516" cx="11.062250282688684" cy="17.033831528581853"></circle><circle class="pearl" r="2.1904339371426516" cx="13.994726174135794" cy="3.7255358045407783"></circle><circle class="pearl" r="2.1904339371426516" cx="18.803385467157554" cy="18.813168028867388"></circle><circle class="pearl" r="2.1904339371426516" cx="3.7259677340594863" cy="13.990349907050208"></circle><circle class="pearl" r="2.1904339371426516" cx="27.0119342446044" cy="12.145935312054855"></circle><circle class="pearl" r="2.1904339371426516" cx="12.095471262995693" cy="27.000615506405087"></circle><circle class="pearl" r="2.1904339371426516" cx="6.527989059077457" cy="6.519404539676476"></circle><circle class="pearl" r="2.1904339371426516" cx="26.63984072344474" cy="20.259415860333036"></circle><circle class="pearl" r="2.1904339371426516" cx="5.391460953774489" cy="22.657352870948028"></circle><circle class="pearl" r="2.1904339371426516" cx="22.707459607338823" cy="5.417549780894577"></circle><circle class="pearl" r="2.1904339371426516" cx="20.206848191102424" cy="26.656613251435537"></circle></g><g class="bobaCup bright" cupRadius="15.289154425807496" width="30.57830885161499" height="30.57830885161499" pearlRadius="2.7380424214283137" pearlCount="12" transform="translate(298.32351395835053,53.57528059057857)"><circle class="pool" r="15.289154425807496" cx="15.289154425807496" cy="15.289154425807496" style="stroke-width: 1; fill: rgb(127, 205, 187);"></circle><circle class="pearl" r="2.190433937142651" cx="17.00013745388212" cy="10.781426884888171"></circle><circle class="pearl" r="2.190433937142651" cx="10.853908603185323" cy="16.77185290862688"></circle><circle class="pearl" r="2.190433937142651" cx="13.874581731048243" cy="3.7163029379254677"></circle><circle class="pearl" r="2.190433937142651" cx="18.40069578811187" cy="18.44085304049673"></circle><circle class="pearl" r="2.190433937142651" cx="3.7187622690473816" cy="13.848359685873039"></circle><circle class="pearl" r="2.190433937142651" cx="26.74881948331144" cy="12.9579725581199"></circle><circle class="pearl" r="2.190433937142651" cx="12.42342535893057" cy="26.656614841454033"></circle><circle class="pearl" r="2.190433937142651" cx="6.484689708484295" cy="6.440291897338476"></circle><circle class="pearl" r="2.190433937142651" cx="25.879276571170315" cy="20.85301694135317"></circle><circle class="pearl" r="2.190433937142651" cx="5.568593117112714" cy="22.70312723933087"></circle><circle class="pearl" r="2.190433937142651" cx="23.23422165531278" cy="5.877176946836125"></circle><circle class="pearl" r="2.190433937142651" cx="20.335864163900098" cy="26.070650842032226"></circle></g><g class="bobaCup bright" cupRadius="14.973928490031367" width="29.947856980062735" height="29.947856980062735" pearlRadius="2.7380424214283132" pearlCount="11" transform="translate(163.68240822667303,149.67868437920893)"><circle class="pool" r="14.973928490031367" cx="14.973928490031367" cy="14.973928490031367" style="stroke-width: 1; fill: rgb(65, 182, 196);"></circle><circle class="pearl" r="2.1904339371426507" cx="19.06807343565846" cy="15.032477960641627"></circle><circle class="pearl" r="2.1904339371426507" cx="11.36318149087479" cy="16.95700157666118"></circle><circle class="pearl" r="2.1904339371426507" cx="13.768495100073885" cy="9.168866078761518"></circle><circle class="pearl" r="2.1904339371426507" cx="20.644193354806504" cy="25.18201584490754"></circle><circle class="pearl" r="2.1904339371426507" cx="3.93902736973954" cy="13.955912157752213"></circle><circle class="pearl" r="2.1904339371426507" cx="25.610113982586054" cy="10.490316818756353"></circle><circle class="pearl" r="2.1904339371426507" cx="12.765639729204652" cy="26.133404286908235"></circle><circle class="pearl" r="2.1904339371426507" cx="6.3914957672191965" cy="6.354346792359748"></circle><circle class="pearl" r="2.1904339371426507" cx="25.691368769625072" cy="19.189899532058902"></circle><circle class="pearl" r="2.1904339371426507" cx="5.71159650185342" cy="22.554927065005757"></circle><circle class="pearl" r="2.1904339371426507" cx="20.26795264491053" cy="4.617801870327178"></circle></g><g class="bobaCup bright" cupRadius="14.80530928265383" width="29.61061856530766" height="29.61061856530766" pearlRadius="2.738042421428314" pearlCount="11" transform="translate(38.21017859201356,115.1347265509645)"><circle class="pool" r="14.80530928265383" cx="14.80530928265383" cy="14.80530928265383" style="stroke-width: 1; fill: rgb(29, 145, 192);"></circle><circle class="pearl" r="2.1904339371426516" cx="18.73691244869795" cy="14.990963160726102"></circle><circle class="pearl" r="2.1904339371426516" cx="11.078880976627344" cy="16.61520656715378"></circle><circle class="pearl" r="2.1904339371426516" cx="13.753929043198722" cy="8.904842361032944"></circle><circle class="pearl" r="2.1904339371426516" cx="20.70574143528377" cy="24.733322496301753"></circle><circle class="pearl" r="2.1904339371426516" cx="3.689043698655406" cy="13.740779168245298"></circle><circle class="pearl" r="2.1904339371426516" cx="25.405181768607694" cy="10.790623150937071"></circle><circle class="pearl" r="2.1904339371426516" cx="12.92754553662048" cy="25.84033377999437"></circle><circle class="pearl" r="2.1904339371426516" cx="6.374141825323262" cy="6.285880570452537"></circle><circle class="pearl" r="2.1904339371426516" cx="25.42808608732972" cy="18.737786842149145"></circle><circle class="pearl" r="2.1904339371426516" cx="5.848625866759683" cy="22.567427592505183"></circle><circle class="pearl" r="2.1904339371426516" cx="20.44757100337826" cy="4.768006151304233"></circle></g><g class="bobaCup bright" cupRadius="14.577980752792781" width="29.155961505585562" height="29.155961505585562" pearlRadius="2.7380424214283137" pearlCount="11" transform="translate(5.422019247207219,124.65008973156112)"><circle class="pool" r="14.577980752792781" cx="14.577980752792781" cy="14.577980752792781" style="stroke-width: 1; fill: rgb(127, 205, 187);"></circle><circle class="pearl" r="2.190433937142651" cx="18.514018778090044" cy="14.940274141623915"></circle><circle class="pearl" r="2.190433937142651" cx="10.958182920869845" cy="16.597983584210915"></circle><circle class="pearl" r="2.190433937142651" cx="13.415172576990612" cy="9.176738147609843"></circle><circle class="pearl" r="2.190433937142651" cx="20.99650551181685" cy="24.01618653872062"></circle><circle class="pearl" r="2.190433937142651" cx="3.6861244299614118" cy="13.562646906253642"></circle><circle class="pearl" r="2.190433937142651" cx="24.828889881646408" cy="10.189115224230873"></circle><circle class="pearl" r="2.190433937142651" cx="13.423501705291503" cy="25.45945284900581"></circle><circle class="pearl" r="2.190433937142651" cx="6.370977250817598" cy="6.180359018367335"></circle><circle class="pearl" r="2.190433937142651" cx="25.08172819582332" cy="18.066316005541033"></circle><circle class="pearl" r="2.190433937142651" cx="6.2528330124260965" cy="22.890383375629956"></circle><circle class="pearl" r="2.190433937142651" cx="19.63898515513853" cy="4.557429085867334"></circle></g><g class="bobaCup bright" cupRadius="14.451974006341414" width="28.90394801268283" height="28.90394801268283" pearlRadius="2.7380424214283132" pearlCount="10" transform="translate(123.61450047120506,207.81806896774194)"><circle class="pool" r="14.451974006341414" cx="14.451974006341414" cy="14.451974006341414" style="stroke-width: 1; fill: rgb(29, 145, 192);"></circle><circle class="pearl" r="2.1904339371426507" cx="18.15702008427029" cy="12.707323843878738"></circle><circle class="pearl" r="2.1904339371426507" cx="11.206999380037642" cy="16.49854972702727"></circle><circle class="pearl" r="2.1904339371426507" cx="14.674199259659842" cy="5.521263006203414"></circle><circle class="pearl" r="2.1904339371426507" cx="21.40985225430144" cy="23.468037385530508"></circle><circle class="pearl" r="2.1904339371426507" cx="3.831262810317499" cy="13.377597849044538"></circle><circle class="pearl" r="2.1904339371426507" cx="22.653158609833888" cy="6.203112209399806"></circle><circle class="pearl" r="2.1904339371426507" cx="13.66607103689018" cy="25.231840135193526"></circle><circle class="pearl" r="2.1904339371426507" cx="6.6886412769539865" cy="5.912938516513274"></circle><circle class="pearl" r="2.1904339371426507" cx="25.109213304604125" cy="16.487105700037862"></circle><circle class="pearl" r="2.1904339371426507" cx="6.221774199420643" cy="22.680170680260122"></circle></g><g class="bobaCup bright" cupRadius="14.418993142201517" width="28.837986284403033" height="28.837986284403033" pearlRadius="2.7380424214283137" pearlCount="10" transform="translate(248.8856418416644,241.0023057392865)"><circle class="pool" r="14.418993142201517" cx="14.418993142201517" cy="14.418993142201517" style="stroke-width: 1; fill: rgb(65, 182, 196);"></circle><circle class="pearl" r="2.190433937142651" cx="18.02975148832942" cy="12.624622778043738"></circle><circle class="pearl" r="2.190433937142651" cx="11.072693916899999" cy="16.353845795805707"></circle><circle class="pearl" r="2.190433937142651" cx="14.617451941606605" cy="5.402629024781717"></circle><circle class="pearl" r="2.190433937142651" cx="21.517855720177554" cy="23.31870868420199"></circle><circle class="pearl" r="2.190433937142651" cx="3.691758407114863" cy="13.331938391903556"></circle><circle class="pearl" r="2.190433937142651" cx="22.591314219038207" cy="6.190300078212383"></circle><circle class="pearl" r="2.190433937142651" cx="13.764441339945828" cy="25.172398668019508"></circle><circle class="pearl" r="2.190433937142651" cx="6.64185826786137" cy="5.927906934729856"></circle><circle class="pearl" r="2.190433937142651" cx="25.07302987082087" cy="16.2304030356313"></circle><circle class="pearl" r="2.190433937142651" cx="6.242620970606316" cy="22.644898279729034"></circle></g><g class="bobaCup bright" cupRadius="14.408643441349739" width="28.817286882699477" height="28.817286882699477" pearlRadius="2.738042421428314" pearlCount="10" transform="translate(255.2986868719628,215.7122450449283)"><circle class="pool" r="14.408643441349739" cx="14.408643441349739" cy="14.408643441349739" style="stroke-width: 1; fill: rgb(65, 182, 196);"></circle><circle class="pearl" r="2.1904339371426516" cx="18.006622018981695" cy="12.59924455976079"></circle><circle class="pearl" r="2.1904339371426516" cx="11.071244960765872" cy="16.344025168315806"></circle><circle class="pearl" r="2.1904339371426516" cx="14.610171424440182" cy="5.368556880317203"></circle><circle class="pearl" r="2.1904339371426516" cx="21.524508829419304" cy="23.286825416300008"></circle><circle class="pearl" r="2.1904339371426516" cx="3.6912935926222095" cy="13.328142693845338"></circle><circle class="pearl" r="2.1904339371426516" cx="22.568756311363472" cy="6.18411661913928"></circle><circle class="pearl" r="2.1904339371426516" cx="13.770918759709557" cy="25.152443930164296"></circle><circle class="pearl" r="2.1904339371426516" cx="6.637187331561642" cy="5.926210619099251"></circle><circle class="pearl" r="2.1904339371426516" cx="25.05675583601472" cy="16.18411679784543"></circle><circle class="pearl" r="2.1904339371426516" cx="6.244561000842667" cy="22.630441584608437"></circle></g><g class="bobaCup bright" cupRadius="14.289035799357638" width="28.578071598715276" height="28.578071598715276" pearlRadius="2.7380424214283137" pearlCount="10" transform="translate(240.94572811799176,159.0828609804278)"><circle class="pool" r="14.289035799357638" cx="14.289035799357638" cy="14.289035799357638" style="stroke-width: 1; fill: rgb(127, 205, 187);"></circle><circle class="pearl" r="2.190433937142651" cx="17.780918194606574" cy="12.359016211380814"></circle><circle class="pearl" r="2.190433937142651" cx="11.070787667564154" cy="16.254411000213626"></circle><circle class="pearl" r="2.190433937142651" cx="14.506781754225864" cy="5.0571617149544945"></circle><circle class="pearl" r="2.190433937142651" cx="21.50412918191409" cy="22.97196456670059"></circle><circle class="pearl" r="2.190433937142651" cx="3.6844452425811998" cy="13.307927774415935"></circle><circle class="pearl" r="2.190433937142651" cx="22.31632646669326" cy="6.118627583881981"></circle><circle class="pearl" r="2.190433937142651" cx="13.76922387637984" cy="24.91789028303191"></circle><circle class="pearl" r="2.190433937142651" cx="6.569663148132723" cy="5.915291058540431"></circle><circle class="pearl" r="2.190433937142651" cx="24.84752341687628" cy="15.797303417086704"></circle><circle class="pearl" r="2.190433937142651" cx="6.255513288933994" cy="22.455209801017542"></circle></g><g class="bobaCup bright" cupRadius="14.232581688392214" width="28.465163376784428" height="28.465163376784428" pearlRadius="2.7380424214283137" pearlCount="10" transform="translate(198.35947982175833,267.8422229855509)"><circle class="pool" r="14.232581688392214" cx="14.232581688392214" cy="14.232581688392214" style="stroke-width: 1; fill: rgb(29, 145, 192);"></circle><circle class="pearl" r="2.190433937142651" cx="17.678119819795718" cy="12.251151759247222"></circle><circle class="pearl" r="2.190433937142651" cx="11.080764925891302" cy="16.223065010771204"></circle><circle class="pearl" r="2.190433937142651" cx="14.430569857039165" cy="4.917192896987684"></circle><circle class="pearl" r="2.190433937142651" cx="21.485149337343636" cy="22.827945345603894"></circle><circle class="pearl" r="2.190433937142651" cx="3.679523711362581" cy="13.327606009060908"></circle><circle class="pearl" r="2.190433937142651" cx="22.197879225085465" cy="6.0883730956806605"></circle><circle class="pearl" r="2.190433937142651" cx="13.760754087903647" cy="24.80661716540818"></circle><circle class="pearl" r="2.190433937142651" cx="6.512951051834369" cy="5.926144537012092"></circle><circle class="pearl" r="2.190433937142651" cx="24.745807384240383" cy="15.628623372297136"></circle><circle class="pearl" r="2.190433937142651" cx="6.260426835792176" cy="22.372156527424128"></circle></g><g class="bobaCup bright" cupRadius="13.949755647372484" width="27.89951129474497" height="27.89951129474497" pearlRadius="2.7380424214283137" pearlCount="10" transform="translate(292.9432227980891,251.70798740508192)"><circle class="pool" r="13.949755647372484" cx="13.949755647372484" cy="13.949755647372484" style="stroke-width: 1; fill: rgb(65, 182, 196);"></circle><circle class="pearl" r="2.190433937142651" cx="17.079188472140107" cy="11.63118427860727"></circle><circle class="pearl" r="2.190433937142651" cx="11.164207654412563" cy="16.11957663398987"></circle><circle class="pearl" r="2.190433937142651" cx="14.079329811227515" cy="4.118442786693344"></circle><circle class="pearl" r="2.190433937142651" cx="21.3889389751712" cy="22.09963554054065"></circle><circle class="pearl" r="2.190433937142651" cx="3.6618908607402183" cy="13.391681491161991"></circle><circle class="pearl" r="2.190433937142651" cx="21.60584729112154" cy="5.939435039137344"></circle><circle class="pearl" r="2.190433937142651" cx="13.708472253261965" cy="24.246701218465628"></circle><circle class="pearl" r="2.190433937142651" cx="6.305324789371855" cy="5.9317874549380285"></circle><circle class="pearl" r="2.190433937142651" cx="24.226729804686915" cy="14.733929192321753"></circle><circle class="pearl" r="2.190433937142651" cx="6.288961704597622" cy="21.95698759060338"></circle></g><g class="bobaCup bright" cupRadius="13.583542623856246" width="27.167085247712492" height="27.167085247712492" pearlRadius="2.7380424214283137" pearlCount="9" transform="translate(188.94572079213953,43.61273494542471)"><circle class="pool" r="13.583542623856246" cx="13.583542623856246" cy="13.583542623856246" style="stroke-width: 1; fill: rgb(127, 205, 187);"></circle><circle class="pearl" r="2.190433937142651" cx="16.793358868164542" cy="11.80910528170079"></circle><circle class="pearl" r="2.190433937142651" cx="10.553580749847836" cy="15.885772498096985"></circle><circle class="pearl" r="2.190433937142651" cx="13.642376012194475" cy="3.650850639509187"></circle><circle class="pearl" r="2.190433937142651" cx="18.951340435730916" cy="22.410775031724686"></circle><circle class="pearl" r="2.190433937142651" cx="3.6563869147251236" cy="13.191326143807007"></circle><circle class="pearl" r="2.190433937142651" cx="20.99433384960611" cy="5.850382348874238"></circle><circle class="pearl" r="2.190433937142651" cx="11.103862362230833" cy="23.288111081138556"></circle><circle class="pearl" r="2.190433937142651" cx="6.0726046494377925" cy="5.916207672750119"></circle><circle class="pearl" r="2.190433937142651" cx="23.308052965422515" cy="15.953301505766005"></circle></g><g class="bobaCup bright" cupRadius="13.545060132875037" width="27.090120265750073" height="27.090120265750073" pearlRadius="2.7380424214283137" pearlCount="9" transform="translate(202.99598337380695,151.7382883922864)"><circle class="pool" r="13.545060132875037" cx="13.545060132875037" cy="13.545060132875037" style="stroke-width: 1; fill: rgb(29, 145, 192);"></circle><circle class="pearl" r="2.190433937142651" cx="16.625926884689722" cy="11.700894978747417"></circle><circle class="pearl" r="2.190433937142651" cx="10.489440449387951" cy="15.911793226573076"></circle><circle class="pearl" r="2.190433937142651" cx="13.615610261623079" cy="3.6509069617688503"></circle><circle class="pearl" r="2.190433937142651" cx="19.110764529090776" cy="22.243085366279583"></circle><circle class="pearl" r="2.190433937142651" cx="3.6559922062715895" cy="13.167291053332768"></circle><circle class="pearl" r="2.190433937142651" cx="20.928807689437253" cy="5.840215298854"></circle><circle class="pearl" r="2.190433937142651" cx="11.28828710408018" cy="23.25007086016369"></circle><circle class="pearl" r="2.190433937142651" cx="6.066536736941925" cy="5.902407346290964"></circle><circle class="pearl" r="2.190433937142651" cx="23.274081889395664" cy="15.654817971375449"></circle></g><g class="bobaCup bright" cupRadius="13.466578418691384" width="26.933156837382768" height="26.933156837382768" pearlRadius="2.738042421428314" pearlCount="9" transform="translate(67.77528960301699,87.01693644871378)"><circle class="pool" r="13.466578418691384" cx="13.466578418691384" cy="13.466578418691384" style="stroke-width: 1; fill: rgb(65, 182, 196);"></circle><circle class="pearl" r="2.1904339371426516" cx="16.079798881995835" cy="11.408501344732374"></circle><circle class="pearl" r="2.1904339371426516" cx="10.278202053241976" cy="16.16267753182452"></circle><circle class="pearl" r="2.1904339371426516" cx="13.574150563711564" cy="3.651152883032204"></circle><circle class="pearl" r="2.1904339371426516" cx="19.894410129230025" cy="21.649354833410886"></circle><circle class="pearl" r="2.1904339371426516" cx="3.655120639548399" cy="13.122460964459423"></circle><circle class="pearl" r="2.1904339371426516" cx="20.825863009857276" cy="5.8394621106760045"></circle><circle class="pearl" r="2.1904339371426516" cx="12.19049251536313" cy="23.221836656394654"></circle><circle class="pearl" r="2.1904339371426516" cx="6.05661653600929" cy="5.872694086126199"></circle><circle class="pearl" r="2.1904339371426516" cx="23.236223554991305" cy="14.581229600870836"></circle></g><g class="bobaCup bright" cupRadius="13.21123410198022" width="26.42246820396044" height="26.42246820396044" pearlRadius="2.7380424214283137" pearlCount="9" transform="translate(158.23624837278075,211.8103338779893)"><circle class="pool" r="13.21123410198022" cx="13.21123410198022" cy="13.21123410198022" style="stroke-width: 1; fill: rgb(127, 205, 187);"></circle><circle class="pearl" r="2.190433937142651" cx="15.20401708405058" cy="11.219899459505523"></circle><circle class="pearl" r="2.190433937142651" cx="9.794129452212275" cy="16.61935278016888"></circle><circle class="pearl" r="2.190433937142651" cx="13.276752344230259" cy="3.6508856913065326"></circle><circle class="pearl" r="2.190433937142651" cx="20.50302491309266" cy="20.577157062894454"></circle><circle class="pearl" r="2.190433937142651" cx="3.6515272959716363" cy="13.065478145667885"></circle><circle class="pearl" r="2.190433937142651" cx="20.390807621650737" cy="5.7718522556220755"></circle><circle class="pearl" r="2.190433937142651" cx="13.327468788772846" cy="22.77123363921235"></circle><circle class="pearl" r="2.190433937142651" cx="6.001901039687688" cy="5.7911749149195675"></circle><circle class="pearl" r="2.190433937142651" cx="22.771735719008387" cy="13.195595165117854"></circle></g><g class="bobaCup bright" cupRadius="13.129384700674416" width="26.258769401348832" height="26.258769401348832" pearlRadius="2.7380424214283146" pearlCount="9" transform="translate(135.02047284474796,209.03495961167903)"><circle class="pool" r="13.129384700674416" cx="13.129384700674416" cy="13.129384700674416" style="stroke-width: 1; fill: rgb(127, 205, 187);"></circle><circle class="pearl" r="2.1904339371426516" cx="15.07888464823979" cy="11.185730688199053"></circle><circle class="pearl" r="2.1904339371426516" cx="9.684276104396307" cy="16.56405410124029"></circle><circle class="pearl" r="2.1904339371426516" cx="13.191608050256566" cy="3.650870675197946"></circle><circle class="pearl" r="2.1904339371426516" cx="20.346507383042518" cy="20.446518273044493"></circle><circle class="pearl" r="2.1904339371426516" cx="3.6512542031460464" cy="13.011306518998575"></circle><circle class="pearl" r="2.1904339371426516" cx="20.23389421436927" cy="5.738971792591685"></circle><circle class="pearl" r="2.1904339371426516" cx="13.212909236281153" cy="22.607780493205055"></circle><circle class="pearl" r="2.1904339371426516" cx="5.990238546791335" cy="5.761336000768179"></circle><circle class="pearl" r="2.1904339371426516" cx="22.608043815078318" cy="13.137253009266304"></circle></g><g class="bobaCup bright" cupRadius="12.706650477131243" width="25.413300954262485" height="25.413300954262485" pearlRadius="2.7380424214283137" pearlCount="8" transform="translate(22.73919141803895,82.32953764273846)"><circle class="pool" r="12.706650477131243" cx="12.706650477131243" cy="12.706650477131243" style="stroke-width: 1; fill: rgb(29, 145, 192);"></circle><circle class="pearl" r="2.190433937142651" cx="14.191613964106862" cy="12.858271890555299"></circle><circle class="pearl" r="2.190433937142651" cx="6.763205287864439" cy="19.433781778602683"></circle><circle class="pearl" r="2.190433937142651" cx="15.143008771480485" cy="3.886482614463686"></circle><circle class="pearl" r="2.190433937142651" cx="20.994172437730892" cy="17.058347634703388"></circle><circle class="pearl" r="2.190433937142651" cx="3.666998179276689" cy="12.0637388609064"></circle><circle class="pearl" r="2.190433937142651" cx="21.230176202525218" cy="9.067058638083859"></circle><circle class="pearl" r="2.190433937142651" cx="14.446006291548551" cy="21.642968509270805"></circle><circle class="pearl" r="2.190433937142651" cx="7.213170874699566" cy="4.899596949034098"></circle></g><g class="bobaCup bright" cupRadius="12.459229705314943" width="24.918459410629886" height="24.918459410629886" pearlRadius="2.738042421428314" pearlCount="8" transform="translate(124.24045128172303,103.36801615488885)"><circle class="pool" r="12.459229705314943" cx="12.459229705314943" cy="12.459229705314943" style="stroke-width: 1; fill: rgb(127, 205, 187);"></circle><circle class="pearl" r="2.1904339371426516" cx="13.643928882800942" cy="12.763355179543012"></circle><circle class="pearl" r="2.1904339371426516" cx="5.707780674611861" cy="19.279912343943387"></circle><circle class="pearl" r="2.1904339371426516" cx="15.257577097266728" cy="3.9690445360865074"></circle><circle class="pearl" r="2.1904339371426516" cx="20.240563090253403" cy="17.413065232995994"></circle><circle class="pearl" r="2.1904339371426516" cx="3.673162264773293" cy="11.711805660697243"></circle><circle class="pearl" r="2.1904339371426516" cx="20.903309059858973" cy="9.467882964250942"></circle><circle class="pearl" r="2.1904339371426516" cx="13.343017983618326" cy="21.23635114623244"></circle><circle class="pearl" r="2.1904339371426516" cx="7.35763238138495" cy="4.743066394720053"></circle></g><g class="bobaCup bright" cupRadius="12.013608596641454" width="24.027217193282908" height="24.027217193282908" pearlRadius="2.7380424214283137" pearlCount="7" transform="translate(137.1185622347587,83.07885419480908)"><circle class="pool" r="12.013608596641454" cx="12.013608596641454" cy="12.013608596641454" style="stroke-width: 1; fill: rgb(65, 182, 196);"></circle><circle class="pearl" r="2.190433937142651" cx="13.281904006602636" cy="12.342330847862891"></circle><circle class="pearl" r="2.190433937142651" cx="5.0015686413790466" cy="14.85919461052943"></circle><circle class="pearl" r="2.190433937142651" cx="12.129138024470603" cy="3.6512787384821337"></circle><circle class="pearl" r="2.190433937142651" cx="18.584468366783792" cy="18.325979982555797"></circle><circle class="pearl" r="2.190433937142651" cx="4.809210058268649" cy="6.866461528787417"></circle><circle class="pearl" r="2.190433937142651" cx="19.333554148858113" cy="7.117567541304336"></circle><circle class="pearl" r="2.190433937142651" cx="10.841858089045472" cy="20.319213912454135"></circle></g><g class="bobaCup bright" cupRadius="11.785248456134536" width="23.57049691226907" height="23.57049691226907" pearlRadius="2.738042421428313" pearlCount="7" transform="translate(308.2147515438655,161.77396717126177)"><circle class="pool" r="11.785248456134536" cx="11.785248456134536" cy="11.785248456134536" style="stroke-width: 1; fill: rgb(127, 205, 187);"></circle><circle class="pearl" r="2.1904339371426502" cx="12.649320519436708" cy="12.146852205011148"></circle><circle class="pearl" r="2.1904339371426502" cx="4.177470922204227" cy="14.91235328488116"></circle><circle class="pearl" r="2.1904339371426502" cx="11.98597586760927" cy="3.6524327562213537"></circle><circle class="pearl" r="2.1904339371426502" cx="18.21926006189968" cy="17.883625657812615"></circle><circle class="pearl" r="2.1904339371426502" cx="4.695477409143512" cy="6.9340770626009"></circle><circle class="pearl" r="2.1904339371426502" cx="19.062612864624768" cy="7.37288154374737"></circle><circle class="pearl" r="2.1904339371426502" cx="10.468754856601366" cy="19.84601214320357"></circle></g><g class="bobaCup bright" cupRadius="11.69632951717781" width="23.39265903435562" height="23.39265903435562" pearlRadius="2.738042421428314" pearlCount="7" transform="translate(23.299760101541587,140.46874512906902)"><circle class="pool" r="11.69632951717781" cx="11.69632951717781" cy="11.69632951717781" style="stroke-width: 1; fill: rgb(29, 145, 192);"></circle><circle class="pearl" r="2.1904339371426516" cx="12.263850771436594" cy="11.893130332706626"></circle><circle class="pearl" r="2.1904339371426516" cx="4.075142307517293" cy="14.818533746066487"></circle><circle class="pearl" r="2.1904339371426516" cx="12.029114000008587" cy="3.6554583864499066"></circle><circle class="pearl" r="2.1904339371426516" cx="18.144610109290074" cy="17.596689337072533"></circle><circle class="pearl" r="2.1904339371426516" cx="4.702461985745305" cy="6.848978516223672"></circle><circle class="pearl" r="2.1904339371426516" cx="18.992744163044698" cy="7.577555848663048"></circle><circle class="pearl" r="2.1904339371426516" cx="10.424858944252822" cy="19.672621673329957"></circle></g><g class="bobaCup bright" cupRadius="11.516420470730607" width="23.032840941461213" height="23.032840941461213" pearlRadius="2.7380424214283137" pearlCount="7" transform="translate(48.35978800917774,8.715474376837351)"><circle class="pool" r="11.516420470730607" cx="11.516420470730607" cy="11.516420470730607" style="stroke-width: 1; fill: rgb(65, 182, 196);"></circle><circle class="pearl" r="2.190433937142651" cx="11.67093904956696" cy="11.548573133453662"></circle><circle class="pearl" r="2.190433937142651" cx="4.026311453233642" cy="14.433576161404886"></circle><circle class="pearl" r="2.190433937142651" cx="12.255034430440638" cy="3.6744334063732023"></circle><circle class="pearl" r="2.190433937142651" cx="17.982930889291577" cy="17.01819507425645"></circle><circle class="pearl" r="2.190433937142651" cx="4.809249581181103" cy="6.482339631444663"></circle><circle class="pearl" r="2.190433937142651" cx="18.85747184609546" cy="8.080022427003447"></circle><circle class="pearl" r="2.190433937142651" cx="10.28558066415306" cy="19.31615460547943"></circle></g><g class="bobaCup bright" cupRadius="11.257624599612395" width="22.51524919922479" height="22.51524919922479" pearlRadius="2.7380424214283132" pearlCount="6" transform="translate(86.10035968913569,258.1527339670088)"><circle class="pool" r="11.257624599612395" cx="11.257624599612395" cy="11.257624599612395" style="stroke-width: 1; fill: rgb(127, 205, 187);"></circle><circle class="pearl" r="2.1904339371426507" cx="11.600812605498863" cy="11.460575519107447"></circle><circle class="pearl" r="2.1904339371426507" cx="6.1646890185572305" cy="17.322114039557125"></circle><circle class="pearl" r="2.1904339371426507" cx="9.196452474813036" cy="3.841022898565291"></circle><circle class="pearl" r="2.1904339371426507" cx="17.17951816128518" cy="17.18110046391673"></circle><circle class="pearl" r="2.1904339371426507" cx="3.7592882214695296" cy="9.69795107231974"></circle><circle class="pearl" r="2.1904339371426507" cx="17.17926345540956" cy="5.333991197719405"></circle></g><g class="bobaCup bright" cupRadius="11.231626304366264" width="22.463252608732528" height="22.463252608732528" pearlRadius="2.7380424214283137" pearlCount="6" transform="translate(74.10457878188484,237.9315000971906)"><circle class="pool" r="11.231626304366264" cx="11.231626304366264" cy="11.231626304366264" style="stroke-width: 1; fill: rgb(65, 182, 196);"></circle><circle class="pearl" r="2.190433937142651" cx="11.54298389145816" cy="11.455773506524741"></circle><circle class="pearl" r="2.190433937142651" cx="6.134696387771708" cy="17.3521078249998"></circle><circle class="pearl" r="2.190433937142651" cx="9.144349642661517" cy="3.8463762827688406"></circle><circle class="pearl" r="2.190433937142651" cx="17.1304375251322" cy="17.138803243860234"></circle><circle class="pearl" r="2.190433937142651" cx="3.752186294754525" cy="9.725340895708326"></circle><circle class="pearl" r="2.190433937142651" cx="17.134471364444426" cy="5.32694008919068"></circle></g><g class="bobaCup bright" cupRadius="11.193972309609412" width="22.387944619218825" height="22.387944619218825" pearlRadius="2.7380424214283132" pearlCount="6" transform="translate(18.506569796868277,163.5522255917545)"><circle class="pool" r="11.193972309609412" cx="11.193972309609412" cy="11.193972309609412" style="stroke-width: 1; fill: rgb(65, 182, 196);"></circle><circle class="pearl" r="2.1904339371426507" cx="11.525237041023807" cy="11.408281733507845"></circle><circle class="pearl" r="2.1904339371426507" cx="6.1420524477035086" cy="17.381350426005593"></circle><circle class="pearl" r="2.1904339371426507" cx="9.047328522470115" cy="3.858479787548318"></circle><circle class="pearl" r="2.1904339371426507" cx="17.055566214802568" cy="17.079848734945624"></circle><circle class="pearl" r="2.1904339371426507" cx="3.741675390782798" cy="9.769907818519526"></circle><circle class="pearl" r="2.1904339371426507" cx="17.070244179517502" cy="5.317133154274045"></circle></g><g class="bobaCup bright" cupRadius="11.018733134818284" width="22.037466269636568" height="22.037466269636568" pearlRadius="2.7380424214283137" pearlCount="6" transform="translate(140.38518050839284,186.30030713826238)"><circle class="pool" r="11.018733134818284" cx="11.018733134818284" cy="11.018733134818284" style="stroke-width: 1; fill: rgb(127, 205, 187);"></circle><circle class="pearl" r="2.190433937142651" cx="11.438913870745678" cy="11.1740364419697"></circle><circle class="pearl" r="2.190433937142651" cx="6.472706807764798" cy="17.405246803425573"></circle><circle class="pearl" r="2.190433937142651" cx="8.528146903588555" cy="3.93588938306306"></circle><circle class="pearl" r="2.190433937142651" cx="16.709348389693602" cy="16.803547936339744"></circle><circle class="pearl" r="2.190433937142651" cx="3.695638872484695" cy="10.024847038398265"></circle><circle class="pearl" r="2.190433937142651" cx="16.75900912190043" cy="5.264047733857611"></circle></g><g class="bobaCup bright" cupRadius="10.926441149817471" width="21.852882299634942" height="21.852882299634942" pearlRadius="2.7380424214283137" pearlCount="6" transform="translate(49.27619719083467,91.25000811852141)"><circle class="pool" r="10.926441149817471" cx="10.926441149817471" cy="10.926441149817471" style="stroke-width: 1; fill: rgb(29, 145, 192);"></circle><circle class="pearl" r="2.190433937142651" cx="11.308080120321362" cy="11.153366191833474"></circle><circle class="pearl" r="2.190433937142651" cx="5.932311690488371" cy="16.994040160392696"></circle><circle class="pearl" r="2.190433937142651" cx="8.869447843896348" cy="3.8460929155839114"></circle><circle class="pearl" r="2.190433937142651" cx="16.52445821376269" cy="16.659177898898697"></circle><circle class="pearl" r="2.190433937142651" cx="3.7443810119470804" cy="9.498883537609325"></circle><circle class="pearl" r="2.190433937142651" cx="16.600229292812248" cy="5.239324997202113"></circle></g><g class="bobaCup bright" cupRadius="10.889980766244902" width="21.779961532489803" height="21.779961532489803" pearlRadius="2.7380424214283137" pearlCount="6" transform="translate(229.66680482600307,17.483334146231144)"><circle class="pool" r="10.889980766244902" cx="10.889980766244902" cy="10.889980766244902" style="stroke-width: 1; fill: rgb(29, 145, 192);"></circle><circle class="pearl" r="2.190433937142651" cx="11.260821237634591" cy="11.1261899877485"></circle><circle class="pearl" r="2.190433937142651" cx="5.818587203881806" cy="16.87630316508505"></circle><circle class="pearl" r="2.190433937142651" cx="8.861015932605829" cy="3.8414057564715733"></circle><circle class="pearl" r="2.190433937142651" cx="16.453748268855247" cy="16.60067688871674"></circle><circle class="pearl" r="2.190433937142651" cx="3.752465055468843" cy="9.40486067792278"></circle><circle class="pearl" r="2.190433937142651" cx="16.536012332300686" cy="5.228668307369038"></circle></g><g class="bobaCup bright" cupRadius="10.344220514298058" width="20.688441028596117" height="20.688441028596117" pearlRadius="2.738042421428314" pearlCount="5" transform="translate(194.42963660423473,259.2921256605636)"><circle class="pool" r="10.344220514298058" cx="10.344220514298058" cy="10.344220514298058" style="stroke-width: 1; fill: rgb(65, 182, 196);"></circle><circle class="pearl" r="2.1904339371426516" cx="16.669566153296845" cy="7.929449175514096"></circle><circle class="pearl" r="2.1904339371426516" cx="7.260896486454232" cy="15.972687059946292"></circle><circle class="pearl" r="2.1904339371426516" cx="9.909994168551096" cy="3.659841153679038"></circle><circle class="pearl" r="2.1904339371426516" cx="15.254076818036697" cy="15.79823281868249"></circle><circle class="pearl" r="2.1904339371426516" cx="3.7696523848470496" cy="8.780150601543685"></circle></g><g class="bobaCup bright" cupRadius="9.983949508522201" width="19.967899017044402" height="19.967899017044402" pearlRadius="2.7380424214283137" pearlCount="5" transform="translate(251.9542129632503,242.18553225456873)"><circle class="pool" r="9.983949508522201" cx="9.983949508522201" cy="9.983949508522201" style="stroke-width: 1; fill: rgb(29, 145, 192);"></circle><circle class="pearl" r="2.190433937142651" cx="15.923268291594791" cy="7.207199249022789"></circle><circle class="pearl" r="2.190433937142651" cx="7.124674526174277" cy="15.898987847335075"></circle><circle class="pearl" r="2.190433937142651" cx="9.13053133490143" cy="3.687264772721136"></circle><circle class="pearl" r="2.190433937142651" cx="14.94649205787307" cy="14.996506215091323"></circle><circle class="pearl" r="2.190433937142651" cx="3.6942455019367255" cy="9.052738377103339"></circle></g><g class="bobaCup bright" cupRadius="9.228711051843538" width="18.457422103687076" height="18.457422103687076" pearlRadius="2.7380424214283137" pearlCount="4" transform="translate(75.1637768535804,72.81031089670591)"><circle class="pool" r="9.228711051843538" cx="9.228711051843538" cy="9.228711051843538" style="stroke-width: 1; fill: rgb(29, 145, 192);"></circle><circle class="pearl" r="2.190433937142651" cx="14.257891549314017" cy="6.093686492917587"></circle><circle class="pearl" r="2.190433937142651" cx="5.266422490947037" cy="12.039552456783277"></circle><circle class="pearl" r="2.190433937142651" cx="6.527097200816027" cy="4.055014170381591"></circle><circle class="pearl" r="2.190433937142651" cx="13.019376974860586" cy="13.992259006119863"></circle></g><g class="bobaCup bright" cupRadius="8.790685220181992" width="17.581370440363983" height="17.581370440363983" pearlRadius="2.738042421428314" pearlCount="4" transform="translate(105.48579695147552,11.209314779818008)"><circle class="pool" r="8.790685220181992" cx="8.790685220181992" cy="8.790685220181992" style="stroke-width: 1; fill: rgb(29, 145, 192);"></circle><circle class="pearl" r="2.1904339371426516" cx="13.159369616594038" cy="5.189956407193077"></circle><circle class="pearl" r="2.1904339371426516" cx="4.454511137571981" cy="12.376795143061464"></circle><circle class="pearl" r="2.1904339371426516" cx="5.201766077613655" cy="4.4167087018196955"></circle><circle class="pearl" r="2.1904339371426516" cx="12.412114676552422" cy="13.150042848434932"></circle></g><g class="bobaCup bright" cupRadius="8.711800604607658" width="17.423601209215317" height="17.423601209215317" pearlRadius="2.7380424214283137" pearlCount="4" transform="translate(224.26372979207238,98.04168779687035)"><circle class="pool" r="8.711800604607658" cx="8.711800604607658" cy="8.711800604607658" style="stroke-width: 1; fill: rgb(29, 145, 192);"></circle><circle class="pearl" r="2.190433937142651" cx="12.903710639580911" cy="4.918573315347196"></circle><circle class="pearl" r="2.190433937142651" cx="4.519890569634407" cy="12.505027893868121"></circle><circle class="pearl" r="2.190433937142651" cx="4.918573315347195" cy="4.519890569634407"></circle><circle class="pearl" r="2.190433937142651" cx="12.505027893868121" cy="12.903710639580911"></circle></g><g class="bobaCup bright" cupRadius="8.65328464615713" width="17.30656929231426" height="17.30656929231426" pearlRadius="2.7380424214283137" pearlCount="4" transform="translate(23.956007208739585,92.2768466038448)"><circle class="pool" r="8.65328464615713" cx="8.65328464615713" cy="8.65328464615713" style="stroke-width: 1; fill: rgb(127, 205, 187);"></circle><circle class="pearl" r="2.190433937142651" cx="12.706025731041414" cy="4.711714814384724"></circle><circle class="pearl" r="2.190433937142651" cx="4.600543561272848" cy="12.594854477929537"></circle><circle class="pearl" r="2.190433937142651" cx="4.711714814384724" cy="4.600543561272848"></circle><circle class="pearl" r="2.190433937142651" cx="12.594854477929537" cy="12.706025731041414"></circle></g><g class="bobaCup bright" cupRadius="8.495752024350772" width="16.991504048701543" height="16.991504048701543" pearlRadius="2.7380424214283137" pearlCount="4" transform="translate(125.81775673625265,184.2078025026597)"><circle class="pool" r="8.495752024350772" cx="8.495752024350772" cy="8.495752024350772" style="stroke-width: 1; fill: rgb(29, 145, 192);"></circle><circle class="pearl" r="2.190433937142651" cx="12.366776244746323" cy="4.58387160441751"></circle><circle class="pearl" r="2.190433937142651" cx="4.624522802762787" cy="12.407527508056173"></circle><circle class="pearl" r="2.190433937142651" cx="4.624821625329845" cy="4.583823581371995"></circle><circle class="pearl" r="2.190433937142651" cx="12.366477377984893" cy="12.407785415954255"></circle></g><g class="bobaCup bright" cupRadius="8.43187205883347" width="16.86374411766694" height="16.86374411766694" pearlRadius="2.7380424214283132" pearlCount="4" transform="translate(301.1289827098777,239.29267525525418)"><circle class="pool" r="8.43187205883347" cx="8.43187205883347" cy="8.43187205883347" style="stroke-width: 1; fill: rgb(127, 205, 187);"></circle><circle class="pearl" r="2.1904339371426507" cx="12.242808053383008" cy="4.561077271605929"></circle><circle class="pearl" r="2.1904339371426507" cx="4.6204820385362915" cy="12.302436787102998"></circle><circle class="pearl" r="2.1904339371426507" cx="4.62114497434687" cy="4.560971426555301"></circle><circle class="pearl" r="2.1904339371426507" cx="12.242144899986961" cy="12.30300281000067"></circle></g><g class="bobaCup bright" cupRadius="8.219414331657367" width="16.438828663314734" height="16.438828663314734" pearlRadius="2.738042421428313" pearlCount="3" transform="translate(285.2591739395391,109.99346912184124)"><circle class="pool" r="8.219414331657367" cx="8.219414331657367" cy="8.219414331657367" style="stroke-width: 1; fill: rgb(127, 205, 187);"></circle><circle class="pearl" r="2.1904339371426502" cx="12.530171446302326" cy="9.875288900039658"></circle><circle class="pearl" r="2.1904339371426502" cx="4.491464648375501" cy="11.145777417296143"></circle><circle class="pearl" r="2.1904339371426502" cx="7.470462327410435" cy="3.6849165582768824"></circle></g><g class="bobaCup bright" cupRadius="8.180097181818184" width="16.360194363636367" height="16.360194363636367" pearlRadius="2.7380424214283132" pearlCount="3" transform="translate(57.48453813001035,219.1485923140185)"><circle class="pool" r="8.180097181818184" cx="8.180097181818184" cy="8.180097181818184" style="stroke-width: 1; fill: rgb(65, 182, 196);"></circle><circle class="pearl" r="2.1904339371426507" cx="12.507126840254946" cy="9.85150642856128"></circle><circle class="pearl" r="2.1904339371426507" cx="4.451585311312432" cy="11.111380493371037"></circle><circle class="pearl" r="2.1904339371426507" cx="7.416626553871328" cy="3.686429548928097"></circle></g><g class="bobaCup bright" cupRadius="7.895781273610841" width="15.791562547221682" height="15.791562547221682" pearlRadius="2.738042421428314" pearlCount="3" transform="translate(279.3710703273868,179.6228413422323)"><circle class="pool" r="7.895781273610841" cx="7.895781273610841" cy="7.895781273610841" style="stroke-width: 1; fill: rgb(65, 182, 196);"></circle><circle class="pearl" r="2.1904339371426516" cx="12.014505503558821" cy="9.302567721518013"></circle><circle class="pearl" r="2.1904339371426516" cx="4.472537809016835" cy="11.360166343781108"></circle><circle class="pearl" r="2.1904339371426516" cx="6.333938240116323" cy="3.8067365302445064"></circle></g><g class="bobaCup bright" cupRadius="7.469441415030537" width="14.938882830061074" height="14.938882830061074" pearlRadius="2.7380424214283146" pearlCount="3" transform="translate(169.03056089177858,74.36119009911644)"><circle class="pool" r="7.469441415030537" cx="7.469441415030537" cy="7.469441415030537" style="stroke-width: 1; fill: rgb(29, 145, 192);"></circle><circle class="pearl" r="2.1904339371426516" cx="11.288159169796952" cy="7.47198090543663"></circle><circle class="pearl" r="2.1904339371426516" cx="4.556885888328304" cy="10.696913833316966"></circle><circle class="pearl" r="2.1904339371426516" cx="4.556691846983392" cy="4.242051166316259"></circle></g><g class="bobaCup bright" cupRadius="7.065989776969309" width="14.131979553938619" height="14.131979553938619" pearlRadius="2.738042421428314" pearlCount="2" transform="translate(34.55291613914368,273.9095541773353)"><circle class="pool" r="7.065989776969309" cx="7.065989776969309" cy="7.065989776969309" style="stroke-width: 1; fill: rgb(127, 205, 187);"></circle><circle class="pearl" r="2.1904339371426516" cx="9.891406866069952" cy="4.240199298239773"></circle><circle class="pearl" r="2.1904339371426516" cx="4.240572687868667" cy="9.891780255698846"></circle></g><g class="bobaCup bright" cupRadius="6.5363062247854495" width="13.072612449570899" height="13.072612449570899" pearlRadius="2.738042421428314" pearlCount="2" transform="translate(243.0400157940225,87.58693555592302)"><circle class="pool" r="6.5363062247854495" cx="6.5363062247854495" cy="6.5363062247854495" style="stroke-width: 1; fill: rgb(65, 182, 196);"></circle><circle class="pearl" r="2.1904339371426516" cx="8.856570268695293" cy="4.07640969504166"></circle><circle class="pearl" r="2.1904339371426516" cx="4.216042180875606" cy="8.99620275452924"></circle></g><g class="bobaCup bright" cupRadius="6.30535955080679" width="12.61071910161358" height="12.61071910161358" pearlRadius="2.7380424214283137" pearlCount="2" transform="translate(224.9300077686747,269.25910713747913)"><circle class="pool" r="6.30535955080679" cx="6.30535955080679" cy="6.30535955080679" style="stroke-width: 1; fill: rgb(127, 205, 187);"></circle><circle class="pearl" r="2.190433937142651" cx="8.405598808646104" cy="4.010785972255377"></circle><circle class="pearl" r="2.190433937142651" cx="4.205120292967475" cy="8.599933129358202"></circle></g><g class="bobaCup bright" cupRadius="5.54421715982625" width="11.0884343196525" height="11.0884343196525" pearlRadius="2.7380424214283137" pearlCount="2" transform="translate(233.20420030813375,198.02025272005557)"><circle class="pool" r="5.54421715982625" cx="5.54421715982625" cy="5.54421715982625" style="stroke-width: 1; fill: rgb(65, 182, 196);"></circle><circle class="pearl" r="2.190433937142651" cx="7.1043503529589636" cy="3.8747591569920194"></circle><circle class="pearl" r="2.190433937142651" cx="3.984083966693537" cy="7.213675162660479"></circle></g><g class="bobaCup bright" cupRadius="4.997351565508196" width="9.994703131016392" height="9.994703131016392" pearlRadius="2.738042421428313" pearlCount="1" transform="translate(41.36850132201832,101.26276844665678)"><circle class="pool" r="4.997351565508196" cx="4.997351565508196" cy="4.997351565508196" style="stroke-width: 1; fill: rgb(127, 205, 187);"></circle><circle class="pearl" r="2.1904339371426502" cx="6.343979902445309" cy="4.997351565508196"></circle></g><g class="bobaCup bright" cupRadius="0" width="0" height="0" pearlRadius="NaN" pearlCount="0" transform="translate(20,300)"><circle class="pool" r="0" cx="0" cy="0" style="stroke-width: 1; fill: rgb(29, 145, 192);"></circle></g><g class="bobaCup bright" cupRadius="0" width="0" height="0" pearlRadius="NaN" pearlCount="0" transform="translate(171.8743702996002,241.81300513629031)"><circle class="pool" r="0" cx="0" cy="0" style="stroke-width: 1; fill: rgb(29, 145, 192);"></circle></g></g><g id="legendDividerGroup" transform="translate(410,0)" height="400"><rect class="legendDivider" height="400" width="90"></rect></g><g id="legend" transform="translate(410,30)" width="90" height="320"><rect class="legendBorder" transform="translate(0,0)" width="90" height="324.9477195110013"></rect><text id="rTitle" text-anchor="middle" alignment-baseline="hanging" transform="translate(45,10)" x="0" y="0" style="fill: black; font-size: 0.8rem;">Population</text><text id="bobaValue" text-anchor="middle" alignment-baseline="hanging" transform="translate(45,25)" x="0" y="0" style="fill: black; font-size: 0.7rem;">(1 Pearl =   75)</text><g class="bright" cupRadius="8.94427190999916" width="17.88854381999832" height="17.88854381999832" pearlRadius="2.7380424214283137" pearlCount="4" transform="translate(36.05572809000084,50)"><circle class="pool" r="8.94427190999916" cx="8.94427190999916" cy="8.94427190999916" style="stroke-width: 1; fill: rgb(127, 205, 187);"></circle><circle class="pearl" r="2.190433937142651" cx="13.542613460651712" cy="5.486970900805415"></circle><circle class="pearl" r="2.190433937142651" cx="4.749399498236599" cy="12.229516637519533"></circle><circle class="pearl" r="2.190433937142651" cx="5.6385452023940825" cy="4.284028231246733"></circle><circle class="pearl" r="2.190433937142651" cx="12.653467756495177" cy="13.432459307079196"></circle></g><text id="0" class="legendSampleValue" text-anchor="middle" transform="translate(45,8)" x="0" y="72.88854381999832" style="fill: black; font-size: 0.7rem;"> 300</text><g class="bright" cupRadius="12.649110640673518" width="25.298221281347036" height="25.298221281347036" pearlRadius="2.7380424214283137" pearlCount="8" transform="translate(32.35088935932648,92.88854381999832)"><circle class="pool" r="12.649110640673518" cx="12.649110640673518" cy="12.649110640673518" style="stroke-width: 1; fill: rgb(127, 205, 187);"></circle><circle class="pearl" r="2.190433937142651" cx="14.071403428550026" cy="12.846878791771143"></circle><circle class="pearl" r="2.190433937142651" cx="6.440581911774749" cy="19.57795138257092"></circle><circle class="pearl" r="2.190433937142651" cx="15.10273708455154" cy="3.8909774644866477"></circle><circle class="pearl" r="2.190433937142651" cx="20.833946229646862" cy="17.112242666106596"></circle><circle class="pearl" r="2.190433937142651" cx="3.6634707295578792" cy="12.081372495075817"></circle><circle class="pearl" r="2.190433937142651" cx="21.1462151053254" cy="9.123450087562194"></circle><circle class="pearl" r="2.190433937142651" cx="14.187116834584868" cy="21.553646746241665"></circle><circle class="pearl" r="2.190433937142651" cx="7.171845845081948" cy="4.898098459274186"></circle></g><text id="1" class="legendSampleValue" text-anchor="middle" transform="translate(45,8)" x="0" y="123.18676510134536" style="fill: black; font-size: 0.7rem;"> 600</text><g class="bright" cupRadius="15.491933384829668" width="30.983866769659336" height="30.983866769659336" pearlRadius="2.738042421428314" pearlCount="12" transform="translate(29.508066615170332,143.18676510134537)"><circle class="pool" r="15.491933384829668" cx="15.491933384829668" cy="15.491933384829668" style="stroke-width: 1; fill: rgb(127, 205, 187);"></circle><circle class="pearl" r="2.1904339371426516" cx="17.033011743384765" cy="11.01737610913958"></circle><circle class="pearl" r="2.1904339371426516" cx="11.029309432951333" cy="17.00347040031935"></circle><circle class="pearl" r="2.1904339371426516" cx="13.977981653444434" cy="3.724876288236054"></circle><circle class="pearl" r="2.1904339371426516" cx="18.741808845067855" cy="18.756462357333643"></circle><circle class="pearl" r="2.1904339371426516" cx="3.725529689195627" cy="13.971342248807428"></circle><circle class="pearl" r="2.1904339371426516" cx="26.98661348100194" cy="12.233596672509572"></circle><circle class="pearl" r="2.1904339371426516" cx="12.152198575888569" cy="26.968872613027877"></circle><circle class="pearl" r="2.1904339371426516" cx="6.524197378590721" cy="6.5101702816287865"></circle><circle class="pearl" r="2.1904339371426516" cx="26.508263068801252" cy="20.479674242239334"></circle><circle class="pearl" r="2.1904339371426516" cx="5.419021306595209" cy="22.679550094546478"></circle><circle class="pearl" r="2.1904339371426516" cx="22.76079804957651" cy="5.461881544509561"></circle><circle class="pearl" r="2.1904339371426516" cx="20.400071923945557" cy="26.535092423407907"></circle></g><text id="2" class="legendSampleValue" text-anchor="middle" transform="translate(45,8)" x="0" y="179.1706318710047" style="fill: black; font-size: 0.7rem;"> 900</text><g class="bright" cupRadius="17.88854381999832" width="35.77708763999664" height="35.77708763999664" pearlRadius="2.7380424214283137" pearlCount="16" transform="translate(27.11145618000168,199.1706318710047)"><circle class="pool" r="17.88854381999832" cx="17.88854381999832" cy="17.88854381999832" style="stroke-width: 1; fill: rgb(127, 205, 187);"></circle><circle class="pearl" r="2.190433937142651" cx="19.8046930625516" cy="19.706925044831756"></circle><circle class="pearl" r="2.190433937142651" cx="13.339172784724305" cy="23.858410298028698"></circle><circle class="pearl" r="2.190433937142651" cx="16.092791630714295" cy="11.113543243945612"></circle><circle class="pearl" r="2.190433937142651" cx="20.836129534048155" cy="27.499380517199565"></circle><circle class="pearl" r="2.190433937142651" cx="10.312657514553905" cy="16.56124087753138"></circle><circle class="pearl" r="2.190433937142651" cx="23.678755837700653" cy="13.13675787817294"></circle><circle class="pearl" r="2.190433937142651" cx="14.311679794483911" cy="31.765114841909277"></circle><circle class="pearl" r="2.190433937142651" cx="11.081450997216843" cy="4.99648955196875"></circle><circle class="pearl" r="2.190433937142651" cx="27.674351504393126" cy="20.796258814455655"></circle><circle class="pearl" r="2.190433937142651" cx="4.000488629236898" cy="21.40866477780026"></circle><circle class="pearl" r="2.190433937142651" cx="28.333596734388347" cy="7.01684061165493"></circle><circle class="pearl" r="2.190433937142651" cx="28.522531366621063" cy="28.62247591779055"></circle><circle class="pearl" r="2.190433937142651" cx="5.30391541992303" cy="10.377661215789304"></circle><circle class="pearl" r="2.190433937142651" cx="31.694235049536697" cy="13.980399213320233"></circle><circle class="pearl" r="2.190433937142651" cx="7.311073872078207" cy="28.66408585659018"></circle><circle class="pearl" r="2.190433937142651" cx="18.987039995684725" cy="3.684483203560177"></circle></g><text id="3" class="legendSampleValue" text-anchor="middle" transform="translate(45,8)" x="0" y="239.94771951100134" style="fill: black; font-size: 0.7rem;">1.2k</text><g class="bright" cupRadius="20" width="40" height="40" pearlRadius="2.7380424214283137" pearlCount="20" transform="translate(25,259.9477195110013)"><circle class="pool" r="20" cx="20" cy="20" style="stroke-width: 1; fill: rgb(127, 205, 187);"></circle><circle class="pearl" r="2.190433937142651" cx="22.480421380823074" cy="19.96094551607325"></circle><circle class="pearl" r="2.190433937142651" cx="14.554532211889109" cy="20.25858246523202"></circle><circle class="pearl" r="2.190433937142651" cx="21.718613402750453" cy="11.231225788085391"></circle><circle class="pearl" r="2.190433937142651" cx="25.13767186853209" cy="27.447308990534317"></circle><circle class="pearl" r="2.190433937142651" cx="6.622341466842937" cy="15.212813608895589"></circle><circle class="pearl" r="2.190433937142651" cx="28.49521909515808" cy="14.82158787688231"></circle><circle class="pearl" r="2.190433937142651" cx="17.504603283401977" cy="28.993209871734443"></circle><circle class="pearl" r="2.190433937142651" cx="14.13811847195522" cy="12.373399584276378"></circle><circle class="pearl" r="2.190433937142651" cx="31.11803529924844" cy="22.444175683247455"></circle><circle class="pearl" r="2.190433937142651" cx="10.013176726772668" cy="26.767604068489224"></circle><circle class="pearl" r="2.190433937142651" cx="25.1625299271706" cy="4.328500666167248"></circle><circle class="pearl" r="2.190433937142651" cx="27.782608687955303" cy="34.772930101052836"></circle><circle class="pearl" r="2.190433937142651" cx="8.036930275650786" cy="7.623092000895575"></circle><circle class="pearl" r="2.190433937142651" cx="36.040664285033515" cy="16.500106031740792"></circle><circle class="pearl" r="2.190433937142651" cx="11.3070075503718" cy="34.36126950601293"></circle><circle class="pearl" r="2.190433937142651" cx="16.81383473400994" cy="3.9061454691506903"></circle><circle class="pearl" r="2.190433937142651" cx="33.74247113697989" cy="29.87303346303284"></circle><circle class="pearl" r="2.190433937142651" cx="3.788525504185259" cy="22.343736665541265"></circle><circle class="pearl" r="2.190433937142651" cx="32.18050534208177" cy="7.787706818962306"></circle><circle class="pearl" r="2.190433937142651" cx="20.00567962395882" cy="36.34927596497569"></circle></g><text id="4" class="legendSampleValue" text-anchor="middle" transform="translate(45,8)" x="0" y="304.9477195110013" style="fill: black; font-size: 0.7rem;">1.5k</text></g></svg>