<?xml version="1.0" standalone="no"?>
<?xml-stylesheet xmlns="http://www.w3.org/2000/svg" type="text/css" href="style.css"?>
<svg id="syntheticVisC" class="default" xTitle="Percent Cat Owners" yTitle="Percent Dog Owners" rTitle="Population" chartTitle="Towns in Vizzyland" width="500" height="400" xmlns="http://www.w3.org/2000/svg"><rect class="background" width="500" height="400"></rect><text id="chartTitle" text-anchor="middle" transform="translate(250,20)" x="0" y="0" style="fill: black; font-size: 1.2rem;">Towns in Vizzyland</text><g id="yAxis" transform="translate(50,30)" fill="none" font-size="10" font-family="sans-serif" text-anchor="end"><path class="domain" stroke="currentColor" d="M-6,300H0V20H-6"></path><g class="tick" opacity="1" transform="translate(0,300)"><line stroke="currentColor" x2="-6"></line><text fill="currentColor" x="-9" dy="0.32em">0</text></g><g class="tick" opacity="1" transform="translate(0,272)"><line stroke="currentColor" x2="-6"></line><text fill="currentColor" x="-9" dy="0.32em">10</text></g><g class="tick" opacity="1" transform="translate(0,244)"><line stroke="currentColor" x2="-6"></line><text fill="currentColor" x="-9" dy="0.32em">20</text></g><g class="tick" opacity="1" transform="translate(0,216)"><line stroke="currentColor" x2="-6"></line><text fill="currentColor" x="-9" dy="0.32em">30</text></g><g class="tick" opacity="1" transform="translate(0,188)"><line stroke="currentColor" x2="-6"></line><text fill="currentColor" x="-9" dy="0.32em">40</text></g><g class="tick" opacity="1" transform="translate(0,160)"><line stroke="currentColor" x2="-6"></line><text fill="currentColor" x="-9" dy="0.32em">50</text></g><g class="tick" opacity="1" transform="translate(0,132)"><line stroke="currentColor" x2="-6"></line><text fill="currentColor" x="-9" dy="0.32em">60</text></g><g class="tick" opacity="1" transform="translate(0,104.00000000000001)"><line stroke="currentColor" x2="-6"></line><text fill="currentColor" x="-9" dy="0.32em">70</text></g><g class="tick" opacity="1" transform="translate(0,75.99999999999999)"><line stroke="currentColor" x2="-6"></line><text fill="currentColor" x="-9" dy="0.32em">80</text></g><g class="tick" opacity="1" transform="translate(0,47.99999999999999)"><line stroke="currentColor" x2="-6"></line><text fill="currentColor" x="-9" dy="0.32em">90</text></g><g class="tick" opacity="1" transform="translate(0,20)"><line stroke="currentColor" x2="-6"></line><text fill="currentColor" x="-9" dy="0.32em">100</text></g></g><g id="xAxis" transform="translate(60,360)" fill="none" font-size="10" font-family="sans-serif" text-anchor="middle"><path class="domain" stroke="currentColor" d="M20,6V0H320V6"></path><g class="tick" opacity="1" transform="translate(20,0)"><line stroke="currentColor" y2="6"></line><text fill="currentColor" y="9" dy="0.71em">0</text></g><g class="tick" opacity="1" transform="translate(50,0)"><line stroke="currentColor" y2="6"></line><text fill="currentColor" y="9" dy="0.71em">10</text></g><g class="tick" opacity="1" transform="translate(80,0)"><line stroke="currentColor" y2="6"></line><text fill="currentColor" y="9" dy="0.71em">20</text></g><g class="tick" opacity="1" transform="translate(109.99999999999997,0)"><line stroke="currentColor" y2="6"></line><text fill="currentColor" y="9" dy="0.71em">30</text></g><g class="tick" opacity="1" transform="translate(140,0)"><line stroke="currentColor" y2="6"></line><text fill="currentColor" y="9" dy="0.71em">40</text></g><g class="tick" opacity="1" transform="translate(169.99999999999997,0)"><line stroke="currentColor" y2="6"></line><text fill="currentColor" y="9" dy="0.71em">50</text></g><g class="tick" opacity="1" transform="translate(199.99999999999994,0)"><line stroke="currentColor" y2="6"></line><text fill="currentColor" y="9" dy="0.71em">60</text></g><g class="tick" opacity="1" transform="translate(230,0)"><line stroke="currentColor" y2="6"></line><text fill="currentColor" y="9" dy="0.71em">70</text></g><g class="tick" opacity="1" transform="translate(260,0)"><line stroke="currentColor" y2="6"></line><text fill="currentColor" y="9" dy="0.71em">80</text></g><g class="tick" opacity="1" transform="translate(290,0)"><line stroke="currentColor" y2="6"></line><text fill="currentColor" y="9" dy="0.71em">90</text></g><g class="tick" opacity="1" transform="translate(319.99999999999994,0)"><line stroke="currentColor" y2="6"></line><text fill="currentColor" y="9" dy="0.71em">100</text></g></g><g id="labels"><text id="xTitle" text-anchor="middle" transform="translate(250,350)" x="0" y="40" style="fill: black; font-size: 0.8rem;">Percent Cat Owners</text><g id="group-yTitle" transform="translate(60,190)"><text id="yTitle" text-anchor="middle" transform="rotate(-90)" y="-45" style="fill: black; font-size: 0.8rem;">Percent Dog Owners</text></g></g><g id="quadrant_lines" transform="translate(60,30)"><line id="verticalQuadrantLine" x1="170" y1="10" x2="170" y2="310" class="quadrantLine"></line><line id="horizontalQuadrantLine" x1="10" y1="160" x2="330" y2="160" class="quadrantLine"></line></g><g id="chart" transform="translate(60,30)"><g class="bobaCup bright" cupRadius="20" width="40" height="40" pearlRadius="2.7380424214283137" pearlCount="20" transform="translate(298.1908308326527,61.321629063863156)"><circle class="pool" r="20" cx="20" cy="20" style="stroke-width: 1; fill: rgb(65, 182, 196);"></circle><circle class="pearl" r="2.190433937142651" cx="22.480421380823074" cy="19.96094551607325"></circle><circle class="pearl" r="2.190433937142651" cx="14.554532211889109" cy="20.25858246523202"></circle><circle class="pearl" r="2.190433937142651" cx="21.718613402750453" cy="11.231225788085391"></circle><circle class="pearl" r="2.190433937142651" cx="25.13767186853209" cy="27.447308990534317"></circle><circle class="pearl" r="2.190433937142651" cx="6.622341466842937" cy="15.212813608895589"></circle><circle class="pearl" r="2.190433937142651" cx="28.49521909515808" cy="14.82158787688231"></circle><circle class="pearl" r="2.190433937142651" cx="17.504603283401977" cy="28.993209871734443"></circle><circle class="pearl" r="2.190433937142651" cx="14.13811847195522" cy="12.373399584276378"></circle><circle class="pearl" r="2.190433937142651" cx="31.11803529924844" cy="22.444175683247455"></circle><circle class="pearl" r="2.190433937142651" cx="10.013176726772668" cy="26.767604068489224"></circle><circle class="pearl" r="2.190433937142651" cx="25.1625299271706" cy="4.328500666167248"></circle><circle class="pearl" r="2.190433937142651" cx="27.782608687955303" cy="34.772930101052836"></circle><circle class="pearl" r="2.190433937142651" cx="8.036930275650786" cy="7.623092000895575"></circle><circle class="pearl" r="2.190433937142651" cx="36.040664285033515" cy="16.500106031740792"></circle><circle class="pearl" r="2.190433937142651" cx="11.3070075503718" cy="34.36126950601293"></circle><circle class="pearl" r="2.190433937142651" cx="16.81383473400994" cy="3.9061454691506903"></circle><circle class="pearl" r="2.190433937142651" cx="33.74247113697989" cy="29.87303346303284"></circle><circle class="pearl" r="2.190433937142651" cx="3.788525504185259" cy="22.343736665541265"></circle><circle class="pearl" r="2.190433937142651" cx="32.18050534208177" cy="7.787706818962306"></circle><circle class="pearl" r="2.190433937142651" cx="20.00567962395882" cy="36.34927596497569"></circle></g><g class="bobaCup bright" cupRadius="18.927877522581504" width="37.85575504516301" height="37.85575504516301" pearlRadius="2.738042421428314" pearlCount="18" transform="translate(208.60081613439633,221.43960647379635)"><circle class="pool" r="18.927877522581504" cx="18.927877522581504" cy="18.927877522581504" style="stroke-width: 1; fill: rgb(29, 145, 192);"></circle><circle class="pearl" r="2.1904339371426516" cx="19.37498451623533" cy="18.491635254834815"></circle><circle class="pearl" r="2.1904339371426516" cx="13.674516415908057" cy="24.095495136572136"></circle><circle class="pearl" r="2.1904339371426516" cx="18.58244723866776" cy="10.64474782088133"></circle><circle class="pearl" r="2.1904339371426516" cx="21.367207028665533" cy="26.10035594329023"></circle><circle class="pearl" r="2.1904339371426516" cx="11.86851711455885" cy="15.835136385261523"></circle><circle class="pearl" r="2.1904339371426516" cx="26.1270119966743" cy="14.239444215891318"></circle><circle class="pearl" r="2.1904339371426516" cx="16.371549744530412" cy="32.392122741762"></circle><circle class="pearl" r="2.1904339371426516" cx="13.671898508710559" cy="4.395112853733284"></circle><circle class="pearl" r="2.1904339371426516" cx="28.22974011243749" cy="21.932052872812406"></circle><circle class="pearl" r="2.1904339371426516" cx="5.697064249456122" cy="23.602459988021785"></circle><circle class="pearl" r="2.1904339371426516" cx="30.356111752703097" cy="7.4901942782568085"></circle><circle class="pearl" r="2.1904339371426516" cx="24.272566811897736" cy="33.43476547804325"></circle><circle class="pearl" r="2.1904339371426516" cx="6.844028274371812" cy="8.407051676537906"></circle><circle class="pearl" r="2.1904339371426516" cx="34.04208493348663" cy="16.449586658801984"></circle><circle class="pearl" r="2.1904339371426516" cx="8.489430282002457" cy="31.06649774823593"></circle><circle class="pearl" r="2.1904339371426516" cx="23.164632357491435" cy="4.130986922293491"></circle><circle class="pearl" r="2.1904339371426516" cx="31.047358622446293" cy="29.395217344581578"></circle><circle class="pearl" r="2.1904339371426516" cx="3.9037948006819545" cy="15.843048479974343"></circle></g><g class="bobaCup bright" cupRadius="18.611384824850038" width="37.222769649700076" height="37.222769649700076" pearlRadius="2.7380424214283137" pearlCount="17" transform="translate(65.43025956744988,267.0345167371087)"><circle class="pool" r="18.611384824850038" cx="18.611384824850038" cy="18.611384824850038" style="stroke-width: 1; fill: rgb(29, 145, 192);"></circle><circle class="pearl" r="2.190433937142651" cx="18.73249782154215" cy="18.23325822950944"></circle><circle class="pearl" r="2.190433937142651" cx="13.352498533434417" cy="24.61537465617456"></circle><circle class="pearl" r="2.190433937142651" cx="15.956141636959519" cy="10.8269822636255"></circle><circle class="pearl" r="2.190433937142651" cx="21.158236056752642" cy="25.674217302202226"></circle><circle class="pearl" r="2.190433937142651" cx="10.918951053159411" cy="17.091533360716785"></circle><circle class="pearl" r="2.190433937142651" cx="24.83776521278919" cy="13.245342174692048"></circle><circle class="pearl" r="2.190433937142651" cx="16.29476119245153" cy="32.0744677228914"></circle><circle class="pearl" r="2.190433937142651" cx="9.71544046055116" cy="5.914453207359642"></circle><circle class="pearl" r="2.190433937142651" cx="27.376440337387393" cy="20.6933882938161"></circle><circle class="pearl" r="2.190433937142651" cx="4.848264617348112" cy="22.315553243755982"></circle><circle class="pearl" r="2.190433937142651" cx="27.612758605115946" cy="5.972267195800697"></circle><circle class="pearl" r="2.190433937142651" cx="25.178070524116112" cy="32.375089063919475"></circle><circle class="pearl" r="2.190433937142651" cx="4.849130797925255" cy="12.040854541970136"></circle><circle class="pearl" r="2.190433937142651" cx="33.21109519228769" cy="14.963739192893145"></circle><circle class="pearl" r="2.190433937142651" cx="7.4397721403488735" cy="29.846181913894693"></circle><circle class="pearl" r="2.190433937142651" cx="19.487735128800637" cy="3.6713669373863986"></circle><circle class="pearl" r="2.190433937142651" cx="31.256786068627658" cy="27.601377721419855"></circle></g><g class="bobaCup bright" cupRadius="18.511110177741696" width="37.02222035548339" height="37.02222035548339" pearlRadius="2.7380424214283137" pearlCount="17" transform="translate(267.7369894518718,43.32403583714283)"><circle class="pool" r="18.511110177741696" cx="18.511110177741696" cy="18.511110177741696" style="stroke-width: 1; fill: rgb(127, 205, 187);"></circle><circle class="pearl" r="2.190433937142651" cx="18.326941981722204" cy="18.328650829206367"></circle><circle class="pearl" r="2.190433937142651" cx="13.350470941429661" cy="24.53349977487622"></circle><circle class="pearl" r="2.190433937142651" cx="16.153087048328477" cy="10.761945392009181"></circle><circle class="pearl" r="2.190433937142651" cx="21.110838882654214" cy="25.60107992597573"></circle><circle class="pearl" r="2.190433937142651" cx="10.523189182256456" cy="17.186785047371405"></circle><circle class="pearl" r="2.190433937142651" cx="24.02837870156383" cy="12.916418528851983"></circle><circle class="pearl" r="2.190433937142651" cx="16.1881392721111" cy="32.013583917803984"></circle><circle class="pearl" r="2.190433937142651" cx="10.074174548331825" cy="5.685203981649298"></circle><circle class="pearl" r="2.190433937142651" cx="27.022625324544727" cy="20.253815124765598"></circle><circle class="pearl" r="2.190433937142651" cx="4.3975218276662185" cy="22.340460206672695"></circle><circle class="pearl" r="2.190433937142651" cx="29.54005611854313" cy="7.294972559201453"></circle><circle class="pearl" r="2.190433937142651" cx="25.591503144507872" cy="31.96387301045824"></circle><circle class="pearl" r="2.190433937142651" cx="5.001392735957111" cy="11.569894433241657"></circle><circle class="pearl" r="2.190433937142651" cx="32.99234727000919" cy="14.783749860301564"></circle><circle class="pearl" r="2.190433937142651" cx="7.433503430903709" cy="29.691025127445396"></circle><circle class="pearl" r="2.190433937142651" cx="19.852344308185206" cy="3.6993771499035155"></circle><circle class="pearl" r="2.190433937142651" cx="31.374334423181875" cy="26.87476600746647"></circle></g><g class="bobaCup bright" cupRadius="17.04067789579723" width="34.08135579159446" height="34.08135579159446" pearlRadius="2.7380424214283137" pearlCount="15" transform="translate(168.08509165552942,77.89160377759316)"><circle class="pool" r="17.04067789579723" cx="17.04067789579723" cy="17.04067789579723" style="stroke-width: 1; fill: rgb(65, 182, 196);"></circle><circle class="pearl" r="2.190433937142651" cx="18.269675177026294" cy="17.285339506044565"></circle><circle class="pearl" r="2.190433937142651" cx="12.620791513000286" cy="22.49125572850391"></circle><circle class="pearl" r="2.190433937142651" cx="16.04245517104086" cy="9.761581920883302"></circle><circle class="pearl" r="2.190433937142651" cx="19.666057436393718" cy="25.084961624949685"></circle><circle class="pearl" r="2.190433937142651" cx="10.568364078858247" cy="15.385721498029696"></circle><circle class="pearl" r="2.190433937142651" cx="23.35180294292506" cy="11.43025514133545"></circle><circle class="pearl" r="2.190433937142651" cx="14.084580307415985" cy="30.172272451021055"></circle><circle class="pearl" r="2.190433937142651" cx="10.254215290460957" cy="5.060386171567435"></circle><circle class="pearl" r="2.190433937142651" cx="25.638303438085117" cy="19.912271255773565"></circle><circle class="pearl" r="2.190433937142651" cx="4.044233435024403" cy="20.095613678122167"></circle><circle class="pearl" r="2.190433937142651" cx="21.534673118091973" cy="4.253983137035135"></circle><circle class="pearl" r="2.190433937142651" cx="26.896121781664736" cy="27.291570722952514"></circle><circle class="pearl" r="2.190433937142651" cx="5.143686600450385" cy="10.065487845980396"></circle><circle class="pearl" r="2.190433937142651" cx="30.158329013555967" cy="14.006485263537344"></circle><circle class="pearl" r="2.190433937142651" cx="7.202605064112637" cy="27.30386950478289"></circle></g><g class="bobaCup bright" cupRadius="17.023586664889695" width="34.04717332977939" height="34.04717332977939" pearlRadius="2.7380424214283137" pearlCount="14" transform="translate(251.7819628639354,217.94122454191864)"><circle class="pool" r="17.023586664889695" cx="17.023586664889695" cy="17.023586664889695" style="stroke-width: 1; fill: rgb(127, 205, 187);"></circle><circle class="pearl" r="2.190433937142651" cx="22.26342921845053" cy="13.674050158939405"></circle><circle class="pearl" r="2.190433937142651" cx="13.07258771605012" cy="22.89885882112095"></circle><circle class="pearl" r="2.190433937142651" cx="14.478344779793257" cy="11.970136563424516"></circle><circle class="pearl" r="2.190433937142651" cx="20.931722740693253" cy="21.54259780308913"></circle><circle class="pearl" r="2.190433937142651" cx="8.044973683967083" cy="16.713699845180106"></circle><circle class="pearl" r="2.190433937142651" cx="27.121215599208487" cy="6.98439766666023"></circle><circle class="pearl" r="2.190433937142651" cx="15.871106579202445" cy="30.35739441568641"></circle><circle class="pearl" r="2.190433937142651" cx="11.903250149650761" cy="4.439019415378134"></circle><circle class="pearl" r="2.190433937142651" cx="29.561362981366816" cy="22.2899882273405"></circle><circle class="pearl" r="2.190433937142651" cx="5.218657236643306" cy="24.159783403266605"></circle><circle class="pearl" r="2.190433937142651" cx="19.85327334271369" cy="3.8875479590567643"></circle><circle class="pearl" r="2.190433937142651" cx="24.694727130582756" cy="28.57010354406899"></circle><circle class="pearl" r="2.190433937142651" cx="5.5825345440413" cy="9.146987161318068"></circle><circle class="pearl" r="2.190433937142651" cx="30.182132520734182" cy="14.330823068745193"></circle></g><g class="bobaCup bright" cupRadius="16.71394964902849" width="33.42789929805698" height="33.42789929805698" pearlRadius="2.7380424214283137" pearlCount="14" transform="translate(102.07748182573262,256.8117381321465)"><circle class="pool" r="16.71394964902849" cx="16.71394964902849" cy="16.71394964902849" style="stroke-width: 1; fill: rgb(65, 182, 196);"></circle><circle class="pearl" r="2.190433937142651" cx="21.171418130634024" cy="12.696600289783477"></circle><circle class="pearl" r="2.190433937142651" cx="13.319827116843985" cy="22.209254725230743"></circle><circle class="pearl" r="2.190433937142651" cx="13.196849962737849" cy="12.306034044602299"></circle><circle class="pearl" r="2.190433937142651" cx="21.08355067480094" cy="20.66389404009161"></circle><circle class="pearl" r="2.190433937142651" cx="6.907140575328012" cy="17.472017751272674"></circle><circle class="pearl" r="2.190433937142651" cx="26.54949225921424" cy="6.85104218731208"></circle><circle class="pearl" r="2.190433937142651" cx="15.922634034169652" cy="29.758433291530917"></circle><circle class="pearl" r="2.190433937142651" cx="11.268855965829767" cy="4.562550626096488"></circle><circle class="pearl" r="2.190433937142651" cx="28.86123722871128" cy="22.170960494954432"></circle><circle class="pearl" r="2.190433937142651" cx="6.142236867984357" cy="25.493381682062285"></circle><circle class="pearl" r="2.190433937142651" cx="19.216464020806566" cy="3.8391309896824417"></circle><circle class="pearl" r="2.190433937142651" cx="23.75752670104667" cy="28.220539347970064"></circle><circle class="pearl" r="2.190433937142651" cx="5.203939690135186" cy="9.67773745149099"></circle><circle class="pearl" r="2.190433937142651" cx="29.589096570705617" cy="14.213603943452025"></circle></g><g class="bobaCup bright" cupRadius="16.509530382733516" width="33.01906076546703" height="33.01906076546703" pearlRadius="2.738042421428314" pearlCount="14" transform="translate(168.9947490286704,271.49186121090145)"><circle class="pool" r="16.509530382733516" cx="16.509530382733516" cy="16.509530382733516" style="stroke-width: 1; fill: rgb(65, 182, 196);"></circle><circle class="pearl" r="2.1904339371426516" cx="20.453157233862907" cy="12.256719061628683"></circle><circle class="pearl" r="2.1904339371426516" cx="12.761174083267479" cy="20.96494383344386"></circle><circle class="pearl" r="2.1904339371426516" cx="12.496687444704957" cy="12.666857690929792"></circle><circle class="pearl" r="2.1904339371426516" cx="20.662249872095916" cy="20.223650790503207"></circle><circle class="pearl" r="2.1904339371426516" cx="5.409258059676075" cy="17.877434608270438"></circle><circle class="pearl" r="2.1904339371426516" cx="26.206531357063614" cy="6.798638231334923"></circle><circle class="pearl" r="2.1904339371426516" cx="15.001668439819122" cy="29.299334694953554"></circle><circle class="pearl" r="2.1904339371426516" cx="10.930394017363243" cy="4.621983730941341"></circle><circle class="pearl" r="2.1904339371426516" cx="28.32216459820741" cy="22.293056125401204"></circle><circle class="pearl" r="2.1904339371426516" cx="6.822598676743171" cy="26.22772437216779"></circle><circle class="pearl" r="2.1904339371426516" cx="18.871217138140935" cy="3.8205158800025996"></circle><circle class="pearl" r="2.1904339371426516" cx="22.896908110300494" cy="28.082669976185702"></circle><circle class="pearl" r="2.1904339371426516" cx="5.0278173995944275" cy="9.908472304143102"></circle><circle class="pearl" r="2.1904339371426516" cx="29.207133402442178" cy="14.20804774360529"></circle></g><g class="bobaCup bright" cupRadius="16.29986751294483" width="32.59973502588966" height="32.59973502588966" pearlRadius="2.7380424214283137" pearlCount="13" transform="translate(125.16764643413929,155.747573612439)"><circle class="pool" r="16.29986751294483" cx="16.29986751294483" cy="16.29986751294483" style="stroke-width: 1; fill: rgb(65, 182, 196);"></circle><circle class="pearl" r="2.190433937142651" cx="21.320217466740132" cy="16.11123289284764"></circle><circle class="pearl" r="2.190433937142651" cx="15.556364474596968" cy="21.52236482812033"></circle><circle class="pearl" r="2.190433937142651" cx="16.10196554785246" cy="10.252581724400219"></circle><circle class="pearl" r="2.190433937142651" cx="23.82766859719322" cy="23.698363215117826"></circle><circle class="pearl" r="2.190433937142651" cx="10.29479555239183" cy="15.73807923862041"></circle><circle class="pearl" r="2.190433937142651" cx="27.634981237470786" cy="9.888130481941033"></circle><circle class="pearl" r="2.190433937142651" cx="10.028123315038748" cy="27.694107084446916"></circle><circle class="pearl" r="2.190433937142651" cx="10.514429233949187" cy="4.712008627044561"></circle><circle class="pearl" r="2.190433937142651" cx="28.884976843444537" cy="17.743273919114266"></circle><circle class="pearl" r="2.190433937142651" cx="4.747951189685902" cy="21.55480165888414"></circle><circle class="pearl" r="2.190433937142651" cx="21.702782706285806" cy="4.572223196385531"></circle><circle class="pearl" r="2.190433937142651" cx="17.97592138113396" cy="28.86261166092471"></circle><circle class="pearl" r="2.190433937142651" cx="4.916454445849599" cy="10.002215031036753"></circle></g><g class="bobaCup bright" cupRadius="15.61594166500818" width="31.23188333001636" height="31.23188333001636" pearlRadius="2.7380424214283137" pearlCount="12" transform="translate(187.36913274521123,212.92709040835558)"><circle class="pool" r="15.61594166500818" cx="15.61594166500818" cy="15.61594166500818" style="stroke-width: 1; fill: rgb(127, 205, 187);"></circle><circle class="pearl" r="2.190433937142651" cx="17.25894185400871" cy="11.221902807980463"></circle><circle class="pearl" r="2.190433937142651" cx="11.2240635813242" cy="17.28301458926499"></circle><circle class="pearl" r="2.190433937142651" cx="14.087773788643744" cy="3.8827900501031136"></circle><circle class="pearl" r="2.190433937142651" cx="19.027942624047537" cy="19.018455653720352"></circle><circle class="pearl" r="2.190433937142651" cx="3.8937739251529213" cy="14.091626607351111"></circle><circle class="pearl" r="2.190433937142651" cx="27.145813704449395" cy="11.95436258027698"></circle><circle class="pearl" r="2.190433937142651" cx="12.003191643565547" cy="27.15750830227051"></circle><circle class="pearl" r="2.190433937142651" cx="6.551092319742507" cy="6.551078378102483"></circle><circle class="pearl" r="2.190433937142651" cx="26.96841156684821" cy="19.947434476559778"></circle><circle class="pearl" r="2.190433937142651" cx="5.357097465578253" cy="22.713939132662826"></circle><circle class="pearl" r="2.190433937142651" cx="22.66580760391188" cy="5.33264091166995"></circle><circle class="pearl" r="2.190433937142651" cx="19.99562451047334" cy="26.95441495453227"></circle></g><g class="bobaCup bright" cupRadius="15.12226653994549" width="30.24453307989098" height="30.24453307989098" pearlRadius="2.7380424214283137" pearlCount="11" transform="translate(4.877733460054509,181.39589173720435)"><circle class="pool" r="15.12226653994549" cx="15.12226653994549" cy="15.12226653994549" style="stroke-width: 1; fill: rgb(29, 145, 192);"></circle><circle class="pearl" r="2.190433937142651" cx="19.447093820638155" cy="14.955822975546303"></circle><circle class="pearl" r="2.190433937142651" cx="12.098147157367462" cy="17.964913745955712"></circle><circle class="pearl" r="2.190433937142651" cx="13.81089219018559" cy="9.339936412485656"></circle><circle class="pearl" r="2.190433937142651" cx="20.334433525244158" cy="25.058745824893204"></circle><circle class="pearl" r="2.190433937142651" cx="4.996281652678606" cy="14.260019196705892"></circle><circle class="pearl" r="2.190433937142651" cx="25.744642973594697" cy="10.126110884095496"></circle><circle class="pearl" r="2.190433937142651" cx="12.484951703363725" cy="26.362060957107904"></circle><circle class="pearl" r="2.190433937142651" cx="6.422173129046682" cy="6.404023766995264"></circle><circle class="pearl" r="2.190433937142651" cx="25.957602144840333" cy="19.46243298589185"></circle><circle class="pearl" r="2.190433937142651" cx="5.575166114345437" cy="22.50470489719276"></circle><circle class="pearl" r="2.190433937142651" cx="20.13831335927429" cy="4.5068683751084695"></circle></g><g class="bobaCup bright" cupRadius="14.958987118173809" width="29.917974236347618" height="29.917974236347618" pearlRadius="2.7380424214283137" pearlCount="11" transform="translate(77.05902856728548,5.041012881826191)"><circle class="pool" r="14.958987118173809" cx="14.958987118173809" cy="14.958987118173809" style="stroke-width: 1; fill: rgb(127, 205, 187);"></circle><circle class="pearl" r="2.190433937142651" cx="19.014798259144936" cy="15.043625474652028"></circle><circle class="pearl" r="2.190433937142651" cx="11.280588141297953" cy="16.850356475478478"></circle><circle class="pearl" r="2.190433937142651" cx="13.775908366549594" cy="9.12730103475934"></circle><circle class="pearl" r="2.190433937142651" cx="20.64113254206693" cy="25.146057029530073"></circle><circle class="pearl" r="2.190433937142651" cx="3.8290326764984037" cy="13.918889400199804"></circle><circle class="pearl" r="2.190433937142651" cx="25.608561819850895" cy="10.568910272852099"></circle><circle class="pearl" r="2.190433937142651" cx="12.763442364441111" cy="26.105252733149467"></circle><circle class="pearl" r="2.190433937142651" cx="6.387261376672843" cy="6.350150264336566"></circle><circle class="pearl" r="2.190433937142651" cx="25.670591573560277" cy="19.141670359864047"></circle><circle class="pearl" r="2.190433937142651" cx="5.706884687882281" cy="22.527896261418068"></circle><circle class="pearl" r="2.190433937142651" cx="20.321282819230003" cy="4.644858739365594"></circle></g><g class="bobaCup bright" cupRadius="14.852636211321435" width="29.70527242264287" height="29.70527242264287" pearlRadius="2.7380424214283137" pearlCount="11" transform="translate(141.49395933472,151.52648490215253)"><circle class="pool" r="14.852636211321435" cx="14.852636211321435" cy="14.852636211321435" style="stroke-width: 1; fill: rgb(127, 205, 187);"></circle><circle class="pearl" r="2.190433937142651" cx="18.786677112764444" cy="15.018861857908094"></circle><circle class="pearl" r="2.190433937142651" cx="11.099324434144277" cy="16.622857101458052"></circle><circle class="pearl" r="2.190433937142651" cx="13.805479075776432" cy="8.897616282932391"></circle><circle class="pearl" r="2.190433937142651" cx="20.670300794624588" cy="24.867767556176663"></circle><circle class="pearl" r="2.190433937142651" cx="3.690117621529721" cy="13.771586140064636"></circle><circle class="pearl" r="2.190433937142651" cx="25.513904227570396" cy="10.88177874295882"></circle><circle class="pearl" r="2.190433937142651" cx="12.847628918865848" cy="25.918595631467642"></circle><circle class="pearl" r="2.190433937142651" cx="6.377564626279105" cy="6.3060661313644015"></circle><circle class="pearl" r="2.190433937142651" cx="25.508367964312182" cy="18.84339406997452"></circle><circle class="pearl" r="2.190433937142651" cx="5.782082390044444" cy="22.518789917507178"></circle><circle class="pearl" r="2.190433937142651" cx="20.55441810588836" cy="4.788750963795014"></circle></g><g class="bobaCup bright" cupRadius="14.834629059465597" width="29.669258118931193" height="29.669258118931193" pearlRadius="2.7380424214283137" pearlCount="11" transform="translate(226.72010317068194,243.11186449528518)"><circle class="pool" r="14.834629059465597" cx="14.834629059465597" cy="14.834629059465597" style="stroke-width: 1; fill: rgb(127, 205, 187);"></circle><circle class="pearl" r="2.190433937142651" cx="18.76695897935468" cy="15.005995557017407"></circle><circle class="pearl" r="2.190433937142651" cx="11.09120038947263" cy="16.62206508118163"></circle><circle class="pearl" r="2.190433937142651" cx="13.788620541791168" cy="8.893380340820233"></circle><circle class="pearl" r="2.190433937142651" cx="20.685300787729638" cy="24.816068522853296"></circle><circle class="pearl" r="2.190433937142651" cx="3.689663015170943" cy="13.760479036076465"></circle><circle class="pearl" r="2.190433937142651" cx="25.473371747481714" cy="10.84998564372137"></circle><circle class="pearl" r="2.190433937142651" cx="12.881284180713092" cy="25.889369547370524"></circle><circle class="pearl" r="2.190433937142651" cx="6.375969106130826" cy="6.298585238248959"></circle><circle class="pearl" r="2.190433937142651" cx="25.47726864159005" cy="18.805271185591653"></circle><circle class="pearl" r="2.190433937142651" cx="5.809710036377286" cy="22.541399643821165"></circle><circle class="pearl" r="2.190433937142651" cx="20.521423784139696" cy="4.784017130784305"></circle></g><g class="bobaCup bright" cupRadius="14.765199678807907" width="29.530399357615813" height="29.530399357615813" pearlRadius="2.738042421428314" pearlCount="11" transform="translate(78.62134296440911,101.75670300002301)"><circle class="pool" r="14.765199678807907" cx="14.765199678807907" cy="14.765199678807907" style="stroke-width: 1; fill: rgb(29, 145, 192);"></circle><circle class="pearl" r="2.1904339371426516" cx="18.697238665719855" cy="14.976479626021119"></circle><circle class="pearl" r="2.1904339371426516" cx="11.061592524209372" cy="16.602126689628975"></circle><circle class="pearl" r="2.1904339371426516" cx="13.701948193887501" cy="8.934877085361245"></circle><circle class="pearl" r="2.1904339371426516" cx="20.733412120411224" cy="24.619718462394932"></circle><circle class="pearl" r="2.1904339371426516" cx="3.6883731182204245" cy="13.711445076006799"></circle><circle class="pearl" r="2.1904339371426516" cx="25.310183275752596" cy="10.704038603564278"></circle><circle class="pearl" r="2.1904339371426516" cx="12.988298879117686" cy="25.772366649823166"></circle><circle class="pearl" r="2.1904339371426516" cx="6.372446525217908" cy="6.267967686109271"></circle><circle class="pearl" r="2.1904339371426516" cx="25.361862609322703" cy="18.641165260305904"></circle><circle class="pearl" r="2.1904339371426516" cx="5.900001974376487" cy="22.59864366940992"></circle><circle class="pearl" r="2.1904339371426516" cx="20.332061730005524" cy="4.7403546026245245"></circle></g><g class="bobaCup bright" cupRadius="14.72754694953201" width="29.45509389906402" height="29.45509389906402" pearlRadius="2.7380424214283137" pearlCount="11" transform="translate(288.78115502227246,141.85012126518578)"><circle class="pool" r="14.72754694953201" cx="14.72754694953201" cy="14.72754694953201" style="stroke-width: 1; fill: rgb(65, 182, 196);"></circle><circle class="pearl" r="2.190433937142651" cx="18.660629239755675" cy="14.966351732164146"></circle><circle class="pearl" r="2.190433937142651" cx="11.044407324076985" cy="16.589944889917877"></circle><circle class="pearl" r="2.190433937142651" cx="13.650456974072872" cy="8.971423945778465"></circle><circle class="pearl" r="2.190433937142651" cx="20.763524114386126" cy="24.510647406569923"></circle><circle class="pearl" r="2.190433937142651" cx="3.687849159356867" cy="13.682477840502058"></circle><circle class="pearl" r="2.190433937142651" cx="25.219340909853027" cy="10.6178210812336"></circle><circle class="pearl" r="2.190433937142651" cx="13.04938318606242" cy="25.708447196626476"></circle><circle class="pearl" r="2.190433937142651" cx="6.371367153548205" cy="6.250826161829028"></circle><circle class="pearl" r="2.190433937142651" cx="25.30089472411565" cy="18.545457798135285"></circle><circle class="pearl" r="2.190433937142651" cx="5.951079265148428" cy="22.63106294961998"></circle><circle class="pearl" r="2.190433937142651" cx="20.21413559349316" cy="4.710864271983743"></circle></g><g class="bobaCup bright" cupRadius="14.430085243091618" width="28.860170486183236" height="28.860170486183236" pearlRadius="2.738042421428314" pearlCount="10" transform="translate(249.1419032665145,231.18911153140027)"><circle class="pool" r="14.430085243091618" cx="14.430085243091618" cy="14.430085243091618" style="stroke-width: 1; fill: rgb(65, 182, 196);"></circle><circle class="pearl" r="2.1904339371426516" cx="18.05821841447065" cy="12.654293433337884"></circle><circle class="pearl" r="2.1904339371426516" cx="11.080202166113539" cy="16.37341998235176"></circle><circle class="pearl" r="2.1904339371426516" cx="14.629337331160002" cy="5.441204090853161"></circle><circle class="pearl" r="2.1904339371426516" cx="21.502532905856693" cy="23.357431984922957"></circle><circle class="pearl" r="2.1904339371426516" cx="3.6919792633497956" cy="13.339693507570926"></circle><circle class="pearl" r="2.1904339371426516" cx="22.61534134463809" cy="6.1968300689986044"></circle><circle class="pearl" r="2.1904339371426516" cx="13.751236249426904" cy="25.19347052551388"></circle><circle class="pearl" r="2.1904339371426516" cx="6.6500508007832435" cy="5.927684420646607"></circle><circle class="pearl" r="2.1904339371426516" cx="25.08877092333246" cy="16.29238940817967"></circle><circle class="pearl" r="2.1904339371426516" cx="6.240443268609086" cy="22.66031839238357"></circle></g><g class="bobaCup bright" cupRadius="14.054877314387792" width="28.109754628775583" height="28.109754628775583" pearlRadius="2.7380424214283137" pearlCount="10" transform="translate(176.4502930748978,150.46256889916387)"><circle class="pool" r="14.054877314387792" cx="14.054877314387792" cy="14.054877314387792" style="stroke-width: 1; fill: rgb(29, 145, 192);"></circle><circle class="pearl" r="2.190433937142651" cx="17.323071603740427" cy="11.881971913809554"></circle><circle class="pearl" r="2.190433937142651" cx="11.124537412877585" cy="16.145056187367953"></circle><circle class="pearl" r="2.190433937142651" cx="14.20255650738542" cy="4.4260174269110975"></circle><circle class="pearl" r="2.190433937142651" cx="21.425007999514083" cy="22.371641291017824"></circle><circle class="pearl" r="2.190433937142651" cx="3.667216632815313" cy="13.374176562283845"></circle><circle class="pearl" r="2.190433937142651" cx="21.825249828756778" cy="5.9940298835455295"></circle><circle class="pearl" r="2.190433937142651" cx="13.730380846598122" cy="24.455284942971392"></circle><circle class="pearl" r="2.190433937142651" cx="6.366822405810075" cy="5.939828658157323"></circle><circle class="pearl" r="2.190433937142651" cx="24.421705062345456" cy="15.078518336871022"></circle><circle class="pearl" r="2.190433937142651" cx="6.2779643505225025" cy="22.111382667977242"></circle></g><g class="bobaCup bright" cupRadius="13.846449315930522" width="27.692898631861045" height="27.692898631861045" pearlRadius="2.7380424214283146" pearlCount="10" transform="translate(136.59609018609638,131.8902927209513)"><circle class="pool" r="13.846449315930522" cx="13.846449315930522" cy="13.846449315930522" style="stroke-width: 1; fill: rgb(65, 182, 196);"></circle><circle class="pearl" r="2.1904339371426516" cx="16.80271058963555" cy="11.350839160517705"></circle><circle class="pearl" r="2.1904339371426516" cx="11.219764147325353" cy="16.115768185306063"></circle><circle class="pearl" r="2.1904339371426516" cx="13.970680461881024" cy="3.8122582782271137"></circle><circle class="pearl" r="2.1904339371426516" cx="21.350078855888352" cy="21.832723225182626"></circle><circle class="pearl" r="2.1904339371426516" cx="3.6577872545070145" cy="13.40421244081255"></circle><circle class="pearl" r="2.1904339371426516" cx="21.39312176573011" cy="5.88804279270416"></circle><circle class="pearl" r="2.1904339371426516" cx="13.680326845083334" cy="24.04117884208409"></circle><circle class="pearl" r="2.1904339371426516" cx="6.2647109578444855" cy="5.910913349741651"></circle><circle class="pearl" r="2.1904339371426516" cx="24.031891596310356" cy="14.380005936683967"></circle><circle class="pearl" r="2.1904339371426516" cx="6.297681402264744" cy="21.803493385347576"></circle></g><g class="bobaCup bright" cupRadius="13.458959208685135" width="26.91791841737027" height="26.91791841737027" pearlRadius="2.7380424214283137" pearlCount="9" transform="translate(59.93943314445362,62.23679636810599)"><circle class="pool" r="13.458959208685135" cx="13.458959208685135" cy="13.458959208685135" style="stroke-width: 1; fill: rgb(29, 145, 192);"></circle><circle class="pearl" r="2.190433937142651" cx="16.015958960660644" cy="11.37812820973834"></circle><circle class="pearl" r="2.190433937142651" cx="10.255016967157875" cy="16.20202267897661"></circle><circle class="pearl" r="2.190433937142651" cx="13.570143556503854" cy="3.651182482883499"></circle><circle class="pearl" r="2.190433937142651" cx="19.999853263890245" cy="21.57090098170416"></circle><circle class="pearl" r="2.190433937142651" cx="3.6549757247662757" cy="13.120654225085332"></circle><circle class="pearl" r="2.190433937142651" cx="20.8182874670027" cy="5.840970418246286"></circle><circle class="pearl" r="2.190433937142651" cx="12.313648167038869" cy="23.218375636319482"></circle><circle class="pearl" r="2.190433937142651" cx="6.055323991203739" cy="5.870030816875827"></circle><circle class="pearl" r="2.190433937142651" cx="23.23076232603788" cy="14.448590187399441"></circle></g><g class="bobaCup bright" cupRadius="13.368305631329175" width="26.73661126265835" height="26.73661126265835" pearlRadius="2.7380424214283132" pearlCount="9" transform="translate(82.84172997161045,103.26674371114215)"><circle class="pool" r="13.368305631329175" cx="13.368305631329175" cy="13.368305631329175" style="stroke-width: 1; fill: rgb(127, 205, 187);"></circle><circle class="pearl" r="2.1904339371426507" cx="15.44802297242364" cy="11.285262531809956"></circle><circle class="pearl" r="2.1904339371426507" cx="9.998647596365517" cy="16.7156716291029"></circle><circle class="pearl" r="2.1904339371426507" cx="13.447446763458078" cy="3.6509574906326376"></circle><circle class="pearl" r="2.1904339371426507" cx="20.803097115191548" cy="20.827734113878638"></circle><circle class="pearl" r="2.1904339371426507" cx="3.6524376368900304" cy="13.154215627888433"></circle><circle class="pearl" r="2.1904339371426507" cx="20.692868599317848" cy="5.835899924732057"></circle><circle class="pearl" r="2.1904339371426507" cx="13.533341141401294" cy="23.084869290269804"></circle><circle class="pearl" r="2.1904339371426507" cx="6.028086796144087" cy="5.846169650896441"></circle><circle class="pearl" r="2.1904339371426507" cx="23.08576320880716" cy="13.310535488447009"></circle></g><g class="bobaCup bright" cupRadius="13.159371481595505" width="26.31874296319101" height="26.31874296319101" pearlRadius="2.7380424214283137" pearlCount="9" transform="translate(225.42793294726616,211.17600824242754)"><circle class="pool" r="13.159371481595505" cx="13.159371481595505" cy="13.159371481595505" style="stroke-width: 1; fill: rgb(127, 205, 187);"></circle><circle class="pearl" r="2.190433937142651" cx="15.124920198291623" cy="11.19803416929614"></circle><circle class="pearl" r="2.190433937142651" cx="9.72498766262599" cy="16.583842647907343"></circle><circle class="pearl" r="2.190433937142651" cx="13.222788893879507" cy="3.6508760394989324"></circle><circle class="pearl" r="2.190433937142651" cx="20.403829100533287" cy="20.49440683393468"></circle><circle class="pearl" r="2.190433937142651" cx="3.6513464180820865" cy="13.031304404670028"></circle><circle class="pearl" r="2.190433937142651" cx="20.291339961546267" cy="5.750977051346883"></circle><circle class="pearl" r="2.190433937142651" cx="13.254711557784741" cy="22.667674359104662"></circle><circle class="pearl" r="2.190433937142651" cx="5.994458140196892" cy="5.772292637250205"></circle><circle class="pearl" r="2.190433937142651" cx="22.668019706414334" cy="13.158509892551395"></circle></g><g class="bobaCup bright" cupRadius="13.15750224153006" width="26.31500448306012" height="26.31500448306012" pearlRadius="2.7380424214283137" pearlCount="9" transform="translate(10.815787924193057,210.0082681669883)"><circle class="pool" r="13.15750224153006" cx="13.15750224153006" cy="13.15750224153006" style="stroke-width: 1; fill: rgb(29, 145, 192);"></circle><circle class="pearl" r="2.190433937142651" cx="15.122057289701162" cy="11.197259702667248"></circle><circle class="pearl" r="2.190433937142651" cx="9.722466215588362" cy="16.58259256748335"></circle><circle class="pearl" r="2.190433937142651" cx="13.220844766665781" cy="3.650875700471321"></circle><circle class="pearl" r="2.190433937142651" cx="20.40025523550039" cy="20.4914225804218"></circle><circle class="pearl" r="2.190433937142651" cx="3.651340409500987" cy="13.03006308732328"></circle><circle class="pearl" r="2.190433937142651" cx="20.28775759138048" cy="5.750227284091254"></circle><circle class="pearl" r="2.190433937142651" cx="13.25209993912482" cy="22.663941188423653"></circle><circle class="pearl" r="2.190433937142651" cx="5.994193237270043" cy="5.771610529579032"></circle><circle class="pearl" r="2.190433937142651" cx="22.664281250559984" cy="13.157180693718235"></circle></g><g class="bobaCup bright" cupRadius="13.092177209588327" width="26.184354419176653" height="26.184354419176653" pearlRadius="2.738042421428314" pearlCount="9" transform="translate(306.90782279041167,198.01018173310075)"><circle class="pool" r="13.092177209588327" cx="13.092177209588327" cy="13.092177209588327" style="stroke-width: 1; fill: rgb(127, 205, 187);"></circle><circle class="pearl" r="2.1904339371426516" cx="15.021426939194955" cy="11.170838604802741"></circle><circle class="pearl" r="2.1904339371426516" cx="9.632946699479477" cy="16.540325969021684"></circle><circle class="pearl" r="2.1904339371426516" cx="13.152942093381851" cy="3.6508642437333685"></circle><circle class="pearl" r="2.1904339371426516" cx="20.27541439252811" cy="20.387056187423948"></circle><circle class="pearl" r="2.1904339371426516" cx="3.651151898793185" cy="12.986232557688128"></circle><circle class="pearl" r="2.1904339371426516" cx="20.162688254786037" cy="5.724144716799527"></circle><circle class="pearl" r="2.1904339371426516" cx="13.161327843475688" cy="22.533448568439624"></circle><circle class="pearl" r="2.1904339371426516" cx="5.985097086602726" cy="5.747696201187413"></circle><circle class="pearl" r="2.1904339371426516" cx="22.533617537381126" cy="13.111084898008428"></circle></g><g class="bobaCup bright" cupRadius="12.496004362265198" width="24.992008724530397" height="24.992008724530397" pearlRadius="2.7380424214283137" pearlCount="8" transform="translate(196.24100175287703,188.70430875120906)"><circle class="pool" r="12.496004362265198" cx="12.496004362265198" cy="12.496004362265198" style="stroke-width: 1; fill: rgb(127, 205, 187);"></circle><circle class="pearl" r="2.190433937142651" cx="13.718402177029024" cy="12.787605507825631"></circle><circle class="pearl" r="2.190433937142651" cx="5.716548728665407" cy="19.342381034800272"></circle><circle class="pearl" r="2.190433937142651" cx="15.252932065722813" cy="3.9586401830573745"></circle><circle class="pearl" r="2.190433937142651" cx="20.337532457946242" cy="17.402967223544678"></circle><circle class="pearl" r="2.190433937142651" cx="3.6723357917370354" cy="11.761379107923714"></circle><circle class="pearl" r="2.190433937142651" cx="20.962624770474985" cy="9.443119135153465"></circle><circle class="pearl" r="2.190433937142651" cx="13.42374984989992" cy="21.30679843023246"></circle><circle class="pearl" r="2.190433937142651" cx="7.341866825171784" cy="4.763187224567295"></circle></g><g class="bobaCup bright" cupRadius="12.356996307969574" width="24.713992615939148" height="24.713992615939148" pearlRadius="2.738042421428314" pearlCount="8" transform="translate(10.950668347969184,164.0618005840624)"><circle class="pool" r="12.356996307969574" cx="12.356996307969574" cy="12.356996307969574" style="stroke-width: 1; fill: rgb(127, 205, 187);"></circle><circle class="pearl" r="2.1904339371426516" cx="13.470280366709503" cy="12.67350804363562"></circle><circle class="pearl" r="2.1904339371426516" cx="5.713078869191582" cy="19.125184674276113"></circle><circle class="pearl" r="2.1904339371426516" cx="15.072010053635575" cy="3.9526766865123624"></circle><circle class="pearl" r="2.1904339371426516" cx="20.04882911237193" cy="17.260238132929004"></circle><circle class="pearl" r="2.1904339371426516" cx="3.668474245133281" cy="11.694891034123698"></circle><circle class="pearl" r="2.1904339371426516" cx="20.688224492567517" cy="9.335705509712907"></circle><circle class="pearl" r="2.1904339371426516" cx="13.24243411803563" cy="21.031505638651847"></circle><circle class="pearl" r="2.1904339371426516" cx="7.2254036138564235" cy="4.766629101138129"></circle></g><g class="bobaCup bright" cupRadius="12.226177828306144" width="24.452355656612287" height="24.452355656612287" pearlRadius="2.7380424214283137" pearlCount="7" transform="translate(166.53433001862155,16.447686850820816)"><circle class="pool" r="12.226177828306144" cx="12.226177828306144" cy="12.226177828306144" style="stroke-width: 1; fill: rgb(65, 182, 196);"></circle><circle class="pearl" r="2.190433937142651" cx="13.919344561604172" cy="12.514715453767996"></circle><circle class="pearl" r="2.190433937142651" cx="5.8409191474137305" cy="14.791018716234841"></circle><circle class="pearl" r="2.190433937142651" cx="12.220638684703626" cy="3.6507244833423584"></circle><circle class="pearl" r="2.190433937142651" cx="18.907523659826463" cy="18.76282629880436"></circle><circle class="pearl" r="2.190433937142651" cx="4.895096601434119" cy="6.852222563161615"></circle><circle class="pearl" r="2.190433937142651" cx="19.55141407937806" cy="6.840294633267499"></circle><circle class="pearl" r="2.190433937142651" cx="11.16483993705537" cy="20.755478662517532"></circle></g><g class="bobaCup bright" cupRadius="12.012488203571515" width="24.02497640714303" height="24.02497640714303" pearlRadius="2.738042421428314" pearlCount="7" transform="translate(89.26946298093725,142.8583524930066)"><circle class="pool" r="12.012488203571515" cx="12.012488203571515" cy="12.012488203571515" style="stroke-width: 1; fill: rgb(127, 205, 187);"></circle><circle class="pearl" r="2.1904339371426516" cx="13.27869503793079" cy="12.34140725848152"></circle><circle class="pearl" r="2.1904339371426516" cx="4.997329052583485" cy="14.859488986877432"></circle><circle class="pearl" r="2.1904339371426516" cx="12.128542303329734" cy="3.651283847992165"></circle><circle class="pearl" r="2.1904339371426516" cx="18.58269585234888" cy="18.323783224516884"></circle><circle class="pearl" r="2.1904339371426516" cx="4.808701118935135" cy="6.866666723825295"></circle><circle class="pearl" r="2.1904339371426516" cx="19.332310640532594" cy="7.118920931997711"></circle><circle class="pearl" r="2.1904339371426516" cx="10.840055445405294" cy="20.31690087002578"></circle></g><g class="bobaCup bright" cupRadius="11.98598881360609" width="23.97197762721218" height="23.97197762721218" pearlRadius="2.7380424214283137" pearlCount="7" transform="translate(141.1263993348383,137.75749471439715)"><circle class="pool" r="11.98598881360609" cx="11.98598881360609" cy="11.98598881360609" style="stroke-width: 1; fill: rgb(29, 145, 192);"></circle><circle class="pearl" r="2.190433937142651" cx="13.203126099579055" cy="12.319426535431475"></circle><circle class="pearl" r="2.190433937142651" cx="4.897778049316194" cy="14.86635063427405"></circle><circle class="pearl" r="2.190433937142651" cx="12.114091529602884" cy="3.651407810158508"></circle><circle class="pearl" r="2.190433937142651" cx="18.540781285546863" cy="18.271796409014676"></circle><circle class="pearl" r="2.190433937142651" cx="4.796489723193293" cy="6.871938763509393"></circle><circle class="pearl" r="2.190433937142651" cx="19.302616495625166" cy="7.15058377949907"></circle><circle class="pearl" r="2.190433937142651" cx="10.79743314790012" cy="20.262178985802556"></circle></g><g class="bobaCup bright" cupRadius="11.864481864736348" width="23.728963729472696" height="23.728963729472696" pearlRadius="2.7380424214283146" pearlCount="7" transform="translate(196.3029223229411,190.7962330326527)"><circle class="pool" r="11.864481864736348" cx="11.864481864736348" cy="11.864481864736348" style="stroke-width: 1; fill: rgb(29, 145, 192);"></circle><circle class="pearl" r="2.1904339371426516" cx="12.864407544489206" cy="12.21617449308458"></circle><circle class="pearl" r="2.1904339371426516" cx="4.455769976558659" cy="14.89553962714803"></circle><circle class="pearl" r="2.1904339371426516" cx="12.039946623349199" cy="3.652020780605274"></circle><circle class="pearl" r="2.1904339371426516" cx="18.347467999898246" cy="18.034884157135778"></circle><circle class="pearl" r="2.1904339371426516" cx="4.736821674655862" cy="6.905411306739161"></circle><circle class="pearl" r="2.1904339371426516" cx="19.16018592477727" cy="7.288276063661832"></circle><circle class="pearl" r="2.1904339371426516" cx="10.600380082654867" cy="20.010706402566374"></circle></g><g class="bobaCup bright" cupRadius="11.710552631177444" width="23.42110526235489" height="23.42110526235489" pearlRadius="2.738042421428314" pearlCount="7" transform="translate(158.0765965472932,148.20010434898197)"><circle class="pool" r="11.710552631177444" cx="11.710552631177444" cy="11.710552631177444" style="stroke-width: 1; fill: rgb(65, 182, 196);"></circle><circle class="pearl" r="2.1904339371426516" cx="12.327123318929518" cy="11.935332812182883"></circle><circle class="pearl" r="2.1904339371426516" cx="4.077335703448773" cy="14.842602674938368"></circle><circle class="pearl" r="2.1904339371426516" cx="12.012931784905419" cy="3.654627758136876"></circle><circle class="pearl" r="2.1904339371426516" cx="18.151922457494614" cy="17.65081362704734"></circle><circle class="pearl" r="2.1904339371426516" cx="4.696869302397349" cy="6.872425337781565"></circle><circle class="pearl" r="2.1904339371426516" cx="19.000357676722423" cy="7.534204464316359"></circle><circle class="pearl" r="2.1904339371426516" cx="10.424889437034347" cy="19.699593707728813"></circle></g><g class="bobaCup bright" cupRadius="11.58805356733684" width="23.17610713467368" height="23.17610713467368" pearlRadius="2.7380424214283132" pearlCount="7" transform="translate(236.41369591805795,213.91083577682556)"><circle class="pool" r="11.58805356733684" cx="11.58805356733684" cy="11.58805356733684" style="stroke-width: 1; fill: rgb(65, 182, 196);"></circle><circle class="pearl" r="2.1904339371426507" cx="11.85927120881299" cy="11.629890412276476"></circle><circle class="pearl" r="2.1904339371426507" cx="4.05579317788279" cy="14.625134876496924"></circle><circle class="pearl" r="2.1904339371426507" cx="12.149838328139731" cy="3.6643488030437554"></circle><circle class="pearl" r="2.1904339371426507" cx="18.070584243079228" cy="17.20945470852787"></circle><circle class="pearl" r="2.1904339371426507" cx="4.7498975254963645" cy="6.661960071452018"></circle><circle class="pearl" r="2.1904339371426507" cx="18.919045153277434" cy="7.888739413037051"></circle><circle class="pearl" r="2.1904339371426507" cx="10.401872756588299" cy="19.464513887390282"></circle></g><g class="bobaCup bright" cupRadius="11.293693269119283" width="22.587386538238565" height="22.587386538238565" pearlRadius="2.7380424214283137" pearlCount="6" transform="translate(296.7071496806603,227.0022968435056)"><circle class="pool" r="11.293693269119283" cx="11.293693269119283" cy="11.293693269119283" style="stroke-width: 1; fill: rgb(29, 145, 192);"></circle><circle class="pearl" r="2.190433937142651" cx="11.758175730937099" cy="11.430167876314368"></circle><circle class="pearl" r="2.190433937142651" cx="6.262228481871411" cy="17.2359071553842"></circle><circle class="pearl" r="2.190433937142651" cx="9.288709976149411" cy="3.830121663925075"></circle><circle class="pearl" r="2.190433937142651" cx="17.242005092894107" cy="17.243235354803364"></circle><circle class="pearl" r="2.190433937142651" cx="3.775851705172121" cy="9.617188532391102"></circle><circle class="pearl" r="2.190433937142651" cx="17.241637065625376" cy="5.343923163983247"></circle></g><g class="bobaCup bright" cupRadius="11.274339334283907" width="22.548678668567813" height="22.548678668567813" pearlRadius="2.7380424214283137" pearlCount="6" transform="translate(142.16001427281324,52.49050493437855)"><circle class="pool" r="11.274339334283907" cx="11.274339334283907" cy="11.274339334283907" style="stroke-width: 1; fill: rgb(127, 205, 187);"></circle><circle class="pearl" r="2.190433937142651" cx="11.674529915346637" cy="11.44553610218494"></circle><circle class="pearl" r="2.190433937142651" cx="6.206549383459662" cy="17.27748325070194"></circle><circle class="pearl" r="2.190433937142651" cx="9.235162809956927" cy="3.8366683361323943"></circle><circle class="pearl" r="2.190433937142651" cx="17.208444192650422" cy="17.20991502419498"></circle><circle class="pearl" r="2.190433937142651" cx="3.7662657269333017" cy="9.664376415703053"></circle><circle class="pearl" r="2.190433937142651" cx="17.20814310065628" cy="5.3385772691320454"></circle></g><g class="bobaCup bright" cupRadius="11.03809005085842" width="22.07618010171684" height="22.07618010171684" pearlRadius="2.7380424214283132" pearlCount="6" transform="translate(283.2272703274245,245.8224417586721)"><circle class="pool" r="11.03809005085842" cx="11.03809005085842" cy="11.03809005085842" style="stroke-width: 1; fill: rgb(65, 182, 196);"></circle><circle class="pearl" r="2.1904339371426507" cx="11.459805592031573" cy="11.185698073114434"></circle><circle class="pearl" r="2.1904339371426507" cx="6.529632146419338" cy="17.46274469583433"></circle><circle class="pearl" r="2.1904339371426507" cx="8.50448142027804" cy="3.945431164010345"></circle><circle class="pearl" r="2.1904339371426507" cx="16.748057051072248" cy="16.833832236786492"></circle><circle class="pearl" r="2.1904339371426507" cx="3.6922686276806393" cy="10.081304968954916"></circle><circle class="pearl" r="2.1904339371426507" cx="16.79533129088438" cy="5.271085035579824"></circle></g><g class="bobaCup bright" cupRadius="10.490926155342697" width="20.981852310685394" height="20.981852310685394" pearlRadius="2.7380424214283137" pearlCount="6" transform="translate(14.265230635365628,87.74869720156985)"><circle class="pool" r="10.490926155342697" cx="10.490926155342697" cy="10.490926155342697" style="stroke-width: 1; fill: rgb(29, 145, 192);"></circle><circle class="pearl" r="2.190433937142651" cx="10.85218720560198" cy="10.792611367164335"></circle><circle class="pearl" r="2.190433937142651" cx="5.298339258177338" cy="15.955935092222731"></circle><circle class="pearl" r="2.190433937142651" cx="8.582644391157684" cy="3.825739714605291"></circle><circle class="pearl" r="2.190433937142651" cx="15.668447853068283" cy="15.964500196503362"></circle><circle class="pearl" r="2.190433937142651" cx="3.785998799908839" cy="8.811630892784148"></circle><circle class="pearl" r="2.190433937142651" cx="15.796153836867493" cy="5.091009028445196"></circle></g><g class="bobaCup bright" cupRadius="10.205029187870371" width="20.410058375740743" height="20.410058375740743" pearlRadius="2.738042421428314" pearlCount="5" transform="translate(171.3878934918989,141.8389671795436)"><circle class="pool" r="10.205029187870371" cx="10.205029187870371" cy="10.205029187870371" style="stroke-width: 1; fill: rgb(65, 182, 196);"></circle><circle class="pearl" r="2.1904339371426516" cx="16.420179245487635" cy="7.595974756440974"></circle><circle class="pearl" r="2.1904339371426516" cx="7.215031745246235" cy="16.311484650826227"></circle><circle class="pearl" r="2.1904339371426516" cx="9.488754298688727" cy="3.675891365895922"></circle><circle class="pearl" r="2.1904339371426516" cx="15.16382393633367" cy="15.473553425756254"></circle><circle class="pearl" r="2.1904339371426516" cx="3.7050110721665015" cy="9.153805668863466"></circle></g><g class="bobaCup bright" cupRadius="10.176617345468186" width="20.35323469093637" height="20.35323469093637" pearlRadius="2.7380424214283132" pearlCount="5" transform="translate(43.69181384158783,243.67482751050508)"><circle class="pool" r="10.176617345468186" cx="10.176617345468186" cy="10.176617345468186" style="stroke-width: 1; fill: rgb(65, 182, 196);"></circle><circle class="pearl" r="2.1904339371426507" cx="16.321899457689437" cy="7.4194775305056"></circle><circle class="pearl" r="2.1904339371426507" cx="7.38089567659953" cy="16.3109582938099"></circle><circle class="pearl" r="2.1904339371426507" cx="9.324877019995244" cy="3.6864294209896"></circle><circle class="pearl" r="2.1904339371426507" cx="15.304182434790594" cy="15.316321686182114"></circle><circle class="pearl" r="2.1904339371426507" cx="3.6908297111702852" cy="9.274016590414767"></circle></g><g class="bobaCup bright" cupRadius="10.093470345601405" width="20.18694069120281" height="20.18694069120281" pearlRadius="2.738042421428314" pearlCount="5" transform="translate(161.28512226555307,257.89391190216264)"><circle class="pool" r="10.093470345601405" cx="10.093470345601405" cy="10.093470345601405" style="stroke-width: 1; fill: rgb(29, 145, 192);"></circle><circle class="pearl" r="2.1904339371426516" cx="16.147936814082378" cy="7.320847659087869"></circle><circle class="pearl" r="2.1904339371426516" cx="7.2796808229106515" cy="16.136081535048234"></circle><circle class="pearl" r="2.1904339371426516" cx="9.2286689116989" cy="3.687839259737507"></circle><circle class="pearl" r="2.1904339371426516" cx="15.151321614015462" cy="15.177521536792817"></circle><circle class="pearl" r="2.1904339371426516" cx="3.691092198316522" cy="9.191640902581405"></circle></g><g class="bobaCup bright" cupRadius="10.017203377269547" width="20.034406754539095" height="20.034406754539095" pearlRadius="2.7380424214283132" pearlCount="5" transform="translate(217.73571278850486,284.11548909321317)"><circle class="pool" r="10.017203377269547" cx="10.017203377269547" cy="10.017203377269547" style="stroke-width: 1; fill: rgb(127, 205, 187);"></circle><circle class="pearl" r="2.1904339371426507" cx="15.991453838563185" cy="7.241551206879257"></circle><circle class="pearl" r="2.1904339371426507" cx="7.172076486029932" cy="15.971146539277868"></circle><circle class="pearl" r="2.1904339371426507" cx="9.159906971683588" cy="3.6874753948707673"></circle><circle class="pearl" r="2.1904339371426507" cx="15.008718533886363" cy="15.051475251912112"></circle><circle class="pearl" r="2.1904339371426507" cx="3.6932320137814374" cy="9.09534042827685"></circle></g><g class="bobaCup bright" cupRadius="9.533199629961086" width="19.06639925992217" height="19.06639925992217" pearlRadius="2.7380424214283137" pearlCount="5" transform="translate(89.79833262742416,82.44745247726505)"><circle class="pool" r="9.533199629961086" cx="9.533199629961086" cy="9.533199629961086" style="stroke-width: 1; fill: rgb(65, 182, 196);"></circle><circle class="pearl" r="2.190433937142651" cx="15.006217876818134" cy="6.769282721976579"></circle><circle class="pearl" r="2.190433937142651" cx="6.436481007112568" cy="14.898696726758796"></circle><circle class="pearl" r="2.190433937142651" cx="8.793342464779007" cy="3.679476185536476"></circle><circle class="pearl" r="2.190433937142651" cx="14.097305243484954" cy="14.252114095656705"></circle><circle class="pearl" r="2.190433937142651" cx="3.7166067090528347" cy="8.414351959141706"></circle></g><g class="bobaCup bright" cupRadius="9.506703866991824" width="19.013407733983648" height="19.013407733983648" pearlRadius="2.738042421428314" pearlCount="5" transform="translate(108.02092594028252,81.55270582456866)"><circle class="pool" r="9.506703866991824" cx="9.506703866991824" cy="9.506703866991824" style="stroke-width: 1; fill: rgb(29, 145, 192);"></circle><circle class="pearl" r="2.1904339371426516" cx="14.953177412546012" cy="6.746553641456621"></circle><circle class="pearl" r="2.1904339371426516" cx="6.391868113724407" cy="14.837918995192307"></circle><circle class="pearl" r="2.1904339371426516" cx="8.779372300480247" cy="3.678587123971813"></circle><circle class="pearl" r="2.1904339371426516" cx="14.046787150118316" cy="14.208528884133102"></circle><circle class="pearl" r="2.1904339371426516" cx="3.718798528868606" cy="8.371050224960271"></circle></g><g class="bobaCup bright" cupRadius="9.406446084715189" width="18.812892169430377" height="18.812892169430377" pearlRadius="2.738042421428314" pearlCount="4" transform="translate(230.07772329749747,176.42183290642316)"><circle class="pool" r="9.406446084715189" cx="9.406446084715189" cy="9.406446084715189" style="stroke-width: 1; fill: rgb(65, 182, 196);"></circle><circle class="pearl" r="2.1904339371426516" cx="14.685113699410778" cy="6.448878314935607"></circle><circle class="pearl" r="2.1904339371426516" cx="5.556496471766223" cy="12.304084501633888"></circle><circle class="pearl" r="2.1904339371426516" cx="7.094082756540934" cy="3.93937331956232"></circle><circle class="pearl" r="2.1904339371426516" cx="13.292788583298268" cy="14.321793713215083"></circle></g><g class="bobaCup bright" cupRadius="9.374993558013106" width="18.74998711602621" height="18.74998711602621" pearlRadius="2.738042421428314" pearlCount="4" transform="translate(19.554263312003084,173.91322016846124)"><circle class="pool" r="9.374993558013106" cx="9.374993558013106" cy="9.374993558013106" style="stroke-width: 1; fill: rgb(65, 182, 196);"></circle><circle class="pearl" r="2.1904339371426516" cx="14.609498027043845" cy="6.384469695116066"></circle><circle class="pearl" r="2.1904339371426516" cx="5.506753617420201" cy="12.258215963153685"></circle><circle class="pearl" r="2.1904339371426516" cx="6.99125147952304" cy="3.9588387176994506"></circle><circle class="pearl" r="2.1904339371426516" cx="13.246529445196218" cy="14.262520389439121"></circle></g><g class="bobaCup bright" cupRadius="8.892632714952128" width="17.785265429904257" height="17.785265429904257" pearlRadius="2.7380424214283137" pearlCount="4" transform="translate(13.069666772904455,238.94623633988817)"><circle class="pool" r="8.892632714952128" cx="8.892632714952128" cy="8.892632714952128" style="stroke-width: 1; fill: rgb(65, 182, 196);"></circle><circle class="pearl" r="2.190433937142651" cx="13.414534005469925" cy="5.387333145297049"></circle><circle class="pearl" r="2.190433937142651" cx="4.64705276471575" cy="12.277971292298853"></circle><circle class="pearl" r="2.190433937142651" cx="5.4900141650308045" cy="4.3274504178511854"></circle><circle class="pearl" r="2.190433937142651" cx="12.571572605155286" cy="13.33785401974519"></circle></g><g class="bobaCup bright" cupRadius="8.649729816267138" width="17.299459632534276" height="17.299459632534276" pearlRadius="2.7380424214283137" pearlCount="4" transform="translate(166.8567184319074,135.54569860474874)"><circle class="pool" r="8.649729816267138" cx="8.649729816267138" cy="8.649729816267138" style="stroke-width: 1; fill: rgb(127, 205, 187);"></circle><circle class="pearl" r="2.190433937142651" cx="12.694046642454289" cy="4.6995166004916795"></circle><circle class="pearl" r="2.190433937142651" cx="4.605412990079987" cy="12.599943032042598"></circle><circle class="pearl" r="2.190433937142651" cx="4.6995166004916795" cy="4.605412990079986"></circle><circle class="pearl" r="2.190433937142651" cx="12.599943032042598" cy="12.694046642454289"></circle></g><g class="bobaCup bright" cupRadius="8.425478475141798" width="16.850956950283596" height="16.850956950283596" pearlRadius="2.7380424214283137" pearlCount="4" transform="translate(218.0449377190062,253.75544092837828)"><circle class="pool" r="8.425478475141798" cx="8.425478475141798" cy="8.425478475141798" style="stroke-width: 1; fill: rgb(65, 182, 196);"></circle><circle class="pearl" r="2.190433937142651" cx="12.230405151145696" cy="4.558807173337901"></circle><circle class="pearl" r="2.190433937142651" cx="4.620067189141605" cy="12.291904472138881"></circle><circle class="pearl" r="2.190433937142651" cx="4.620774903889456" cy="4.5586942531028445"></circle><circle class="pearl" r="2.190433937142651" cx="12.229697188415908" cy="12.29250807016453"></circle></g><g class="bobaCup bright" cupRadius="8.318221544421982" width="16.636443088843965" height="16.636443088843965" pearlRadius="2.738042421428314" pearlCount="3" transform="translate(86.18569860059368,269.4161009199627)"><circle class="pool" r="8.318221544421982" cx="8.318221544421982" cy="8.318221544421982" style="stroke-width: 1; fill: rgb(65, 182, 196);"></circle><circle class="pearl" r="2.1904339371426516" cx="12.591999827634229" cy="9.939164199124766"></circle><circle class="pearl" r="2.1904339371426516" cx="4.576273942709011" cy="11.271347884065708"></circle><circle class="pearl" r="2.1904339371426516" cx="7.617251367885896" cy="3.680310960735888"></circle></g><g class="bobaCup bright" cupRadius="8.162389424594723" width="16.324778849189446" height="16.324778849189446" pearlRadius="2.738042421428314" pearlCount="3" transform="translate(147.31667706094527,182.79040366742638)"><circle class="pool" r="8.162389424594723" cx="8.162389424594723" cy="8.162389424594723" style="stroke-width: 1; fill: rgb(127, 205, 187);"></circle><circle class="pearl" r="2.1904339371426516" cx="12.498246444190949" cy="9.84257299561157"></circle><circle class="pearl" r="2.1904339371426516" cx="4.4279180700876335" cy="11.110227686244487"></circle><circle class="pearl" r="2.1904339371426516" cx="7.396587655148041" cy="3.6867266933034473"></circle></g><g class="bobaCup bright" cupRadius="8.076334823204267" width="16.152669646408533" height="16.152669646408533" pearlRadius="2.738042421428314" pearlCount="3" transform="translate(15.07675709569368,120.90324536461728)"><circle class="pool" r="8.076334823204267" cx="8.076334823204267" cy="8.076334823204267" style="stroke-width: 1; fill: rgb(127, 205, 187);"></circle><circle class="pearl" r="2.1904339371426516" cx="12.296604273682552" cy="9.885936553655776"></circle><circle class="pearl" r="2.1904339371426516" cx="4.303121258038665" cy="11.131059054812262"></circle><circle class="pearl" r="2.1904339371426516" cx="7.238435132879731" cy="3.6943058281937025"></circle></g><g class="bobaCup bright" cupRadius="8.072825615027394" width="16.14565123005479" height="16.14565123005479" pearlRadius="2.7380424214283137" pearlCount="3" transform="translate(199.067435936927,41.66177330080993)"><circle class="pool" r="8.072825615027394" cx="8.072825615027394" cy="8.072825615027394" style="stroke-width: 1; fill: rgb(127, 205, 187);"></circle><circle class="pearl" r="2.190433937142651" cx="12.288258659465278" cy="9.887790876194687"></circle><circle class="pearl" r="2.190433937142651" cx="4.298048058228952" cy="11.131943037994722"></circle><circle class="pearl" r="2.190433937142651" cx="7.231956648232747" cy="3.69463529372611"></circle></g><g class="bobaCup bright" cupRadius="6.974729875495067" width="13.949459750990133" height="13.949459750990133" pearlRadius="2.738042421428314" pearlCount="2" transform="translate(173.76204041108176,270.50790977643555)"><circle class="pool" r="6.974729875495067" cx="6.974729875495067" cy="6.974729875495067" style="stroke-width: 1; fill: rgb(127, 205, 187);"></circle><circle class="pearl" r="2.1904339371426516" cx="9.713036110734578" cy="4.210740655470202"></circle><circle class="pearl" r="2.1904339371426516" cx="4.2364236402555555" cy="9.738719095519931"></circle></g><g class="bobaCup bright" cupRadius="6.693222983046478" width="13.386445966092955" height="13.386445966092955" pearlRadius="2.7380424214283137" pearlCount="2" transform="translate(44.281987451119086,135.70869985740663)"><circle class="pool" r="6.693222983046478" cx="6.693222983046478" cy="6.693222983046478" style="stroke-width: 1; fill: rgb(65, 182, 196);"></circle><circle class="pearl" r="2.190433937142651" cx="9.163036082749617" cy="4.123073511319287"></circle><circle class="pearl" r="2.190433937142651" cx="4.223409883343339" cy="9.263372454773668"></circle></g><g class="bobaCup bright" cupRadius="5.968785835211574" width="11.937571670423148" height="11.937571670423148" pearlRadius="2.7380424214283137" pearlCount="2" transform="translate(71.53255573261687,258.1197387501835)"><circle class="pool" r="5.968785835211574" cx="5.968785835211574" cy="5.968785835211574" style="stroke-width: 1; fill: rgb(127, 205, 187);"></circle><circle class="pearl" r="2.190433937142651" cx="7.818334427043316" cy="3.944513526068506"></circle><circle class="pearl" r="2.190433937142651" cx="4.119237243379832" cy="7.993058144354642"></circle></g><g class="bobaCup bright" cupRadius="5.771993738188643" width="11.543987476377286" height="11.543987476377286" pearlRadius="2.7380424214283137" pearlCount="2" transform="translate(41.9668051186714,294.22800626181134)"><circle class="pool" r="5.771993738188643" cx="5.771993738188643" cy="5.771993738188643" style="stroke-width: 1; fill: rgb(127, 205, 187);"></circle><circle class="pearl" r="2.190433937142651" cx="7.489335630190871" cy="3.9121227574513417"></circle><circle class="pearl" r="2.190433937142651" cx="4.054651846186415" cy="7.631864718925943"></circle></g><g class="bobaCup bright" cupRadius="5.017104937784163" width="10.034209875568326" height="10.034209875568326" pearlRadius="2.738042421428314" pearlCount="1" transform="translate(61.4542892613888,280.1871259453399)"><circle class="pool" r="5.017104937784163" cx="5.017104937784163" cy="5.017104937784163" style="stroke-width: 1; fill: rgb(65, 182, 196);"></circle><circle class="pearl" r="2.1904339371426516" cx="6.383486646997241" cy="5.017104937784163"></circle></g><g class="bobaCup bright" cupRadius="4.81330694549794" width="9.62661389099588" height="9.62661389099588" pearlRadius="2.7380424214283132" pearlCount="1" transform="translate(192.3171607436886,239.552680258)"><circle class="pool" r="4.81330694549794" cx="4.81330694549794" cy="4.81330694549794" style="stroke-width: 1; fill: rgb(29, 145, 192);"></circle><circle class="pearl" r="2.1904339371426507" cx="5.9758906624247965" cy="4.81330694549794"></circle></g><g class="bobaCup bright" cupRadius="4.373062080915354" width="8.746124161830709" height="8.746124161830709" pearlRadius="2.7380424214283146" pearlCount="1" transform="translate(300.0144162533108,171.26575727757194)"><circle class="pool" r="4.373062080915354" cx="4.373062080915354" cy="4.373062080915354" style="stroke-width: 1; fill: rgb(29, 145, 192);"></circle><circle class="pearl" r="2.1904339371426516" cx="5.095400933259623" cy="4.373062080915354"></circle></g><g class="bobaCup bright" cupRadius="2.7707788667998665" width="5.541557733599733" height="5.541557733599733" pearlRadius="2.7380424214283137" pearlCount="0" transform="translate(112.87240888248874,40.04828893796157)"><circle class="pool" r="2.7707788667998665" cx="2.7707788667998665" cy="2.7707788667998665" style="stroke-width: 1; fill: rgb(65, 182, 196);"></circle></g><g class="bobaCup bright" cupRadius="0" width="0" height="0" pearlRadius="NaN" pearlCount="0" transform="translate(20,300)"><circle class="pool" r="0" cx="0" cy="0" style="stroke-width: 1; fill: rgb(65, 182, 196);"></circle></g><g class="bobaCup bright" cupRadius="0" width="0" height="0" pearlRadius="NaN" pearlCount="0" transform="translate(166.70262117703973,166.92776729137796)"><circle class="pool" r="0" cx="0" cy="0" style="stroke-width: 1; fill: rgb(29, 145, 192);"></circle></g></g><g id="legendDividerGroup" transform="translate(410,0)" height="400"><rect class="legendDivider" height="400" width="90"></rect></g><g id="legend" transform="translate(410,30)" width="90" height="320"><rect class="legendBorder" transform="translate(0,0)" width="90" height="324.9477195110013"></rect><text id="rTitle" text-anchor="middle" alignment-baseline="hanging" transform="translate(45,10)" x="0" y="0" style="fill: black; font-size: 0.8rem;">Population</text><text id="bobaValue" text-anchor="middle" alignment-baseline="hanging" transform="translate(45,25)" x="0" y="0" style="fill: black; font-size: 0.7rem;">(1 Pearl =   75)</text><g class="bright" cupRadius="8.94427190999916" width="17.88854381999832" height="17.88854381999832" pearlRadius="2.7380424214283137" pearlCount="4" transform="translate(36.05572809000084,50)"><circle class="pool" r="8.94427190999916" cx="8.94427190999916" cy="8.94427190999916" style="stroke-width: 1; fill: rgb(65, 182, 196);"></circle><circle class="pearl" r="2.190433937142651" cx="13.542613460651712" cy="5.486970900805415"></circle><circle class="pearl" r="2.190433937142651" cx="4.749399498236599" cy="12.229516637519533"></circle><circle class="pearl" r="2.190433937142651" cx="5.6385452023940825" cy="4.284028231246733"></circle><circle class="pearl" r="2.190433937142651" cx="12.653467756495177" cy="13.432459307079196"></circle></g><text id="0" class="legendSampleValue" text-anchor="middle" transform="translate(45,8)" x="0" y="72.88854381999832" style="fill: black; font-size: 0.7rem;"> 300</text><g class="bright" cupRadius="12.649110640673518" width="25.298221281347036" height="25.298221281347036" pearlRadius="2.7380424214283137" pearlCount="8" transform="translate(32.35088935932648,92.88854381999832)"><circle class="pool" r="12.649110640673518" cx="12.649110640673518" cy="12.649110640673518" style="stroke-width: 1; fill: rgb(65, 182, 196);"></circle><circle class="pearl" r="2.190433937142651" cx="14.071403428550026" cy="12.846878791771143"></circle><circle class="pearl" r="2.190433937142651" cx="6.440581911774749" cy="19.57795138257092"></circle><circle class="pearl" r="2.190433937142651" cx="15.10273708455154" cy="3.8909774644866477"></circle><circle class="pearl" r="2.190433937142651" cx="20.833946229646862" cy="17.112242666106596"></circle><circle class="pearl" r="2.190433937142651" cx="3.6634707295578792" cy="12.081372495075817"></circle><circle class="pearl" r="2.190433937142651" cx="21.1462151053254" cy="9.123450087562194"></circle><circle class="pearl" r="2.190433937142651" cx="14.187116834584868" cy="21.553646746241665"></circle><circle class="pearl" r="2.190433937142651" cx="7.171845845081948" cy="4.898098459274186"></circle></g><text id="1" class="legendSampleValue" text-anchor="middle" transform="translate(45,8)" x="0" y="123.18676510134536" style="fill: black; font-size: 0.7rem;"> 600</text><g class="bright" cupRadius="15.491933384829668" width="30.983866769659336" height="30.983866769659336" pearlRadius="2.738042421428314" pearlCount="12" transform="translate(29.508066615170332,143.18676510134537)"><circle class="pool" r="15.491933384829668" cx="15.491933384829668" cy="15.491933384829668" style="stroke-width: 1; fill: rgb(65, 182, 196);"></circle><circle class="pearl" r="2.1904339371426516" cx="17.033011743384765" cy="11.01737610913958"></circle><circle class="pearl" r="2.1904339371426516" cx="11.029309432951333" cy="17.00347040031935"></circle><circle class="pearl" r="2.1904339371426516" cx="13.977981653444434" cy="3.724876288236054"></circle><circle class="pearl" r="2.1904339371426516" cx="18.741808845067855" cy="18.756462357333643"></circle><circle class="pearl" r="2.1904339371426516" cx="3.725529689195627" cy="13.971342248807428"></circle><circle class="pearl" r="2.1904339371426516" cx="26.98661348100194" cy="12.233596672509572"></circle><circle class="pearl" r="2.1904339371426516" cx="12.152198575888569" cy="26.968872613027877"></circle><circle class="pearl" r="2.1904339371426516" cx="6.524197378590721" cy="6.5101702816287865"></circle><circle class="pearl" r="2.1904339371426516" cx="26.508263068801252" cy="20.479674242239334"></circle><circle class="pearl" r="2.1904339371426516" cx="5.419021306595209" cy="22.679550094546478"></circle><circle class="pearl" r="2.1904339371426516" cx="22.76079804957651" cy="5.461881544509561"></circle><circle class="pearl" r="2.1904339371426516" cx="20.400071923945557" cy="26.535092423407907"></circle></g><text id="2" class="legendSampleValue" text-anchor="middle" transform="translate(45,8)" x="0" y="179.1706318710047" style="fill: black; font-size: 0.7rem;"> 900</text><g class="bright" cupRadius="17.88854381999832" width="35.77708763999664" height="35.77708763999664" pearlRadius="2.7380424214283137" pearlCount="16" transform="translate(27.11145618000168,199.1706318710047)"><circle class="pool" r="17.88854381999832" cx="17.88854381999832" cy="17.88854381999832" style="stroke-width: 1; fill: rgb(65, 182, 196);"></circle><circle class="pearl" r="2.190433937142651" cx="19.8046930625516" cy="19.706925044831756"></circle><circle class="pearl" r="2.190433937142651" cx="13.339172784724305" cy="23.858410298028698"></circle><circle class="pearl" r="2.190433937142651" cx="16.092791630714295" cy="11.113543243945612"></circle><circle class="pearl" r="2.190433937142651" cx="20.836129534048155" cy="27.499380517199565"></circle><circle class="pearl" r="2.190433937142651" cx="10.312657514553905" cy="16.56124087753138"></circle><circle class="pearl" r="2.190433937142651" cx="23.678755837700653" cy="13.13675787817294"></circle><circle class="pearl" r="2.190433937142651" cx="14.311679794483911" cy="31.765114841909277"></circle><circle class="pearl" r="2.190433937142651" cx="11.081450997216843" cy="4.99648955196875"></circle><circle class="pearl" r="2.190433937142651" cx="27.674351504393126" cy="20.796258814455655"></circle><circle class="pearl" r="2.190433937142651" cx="4.000488629236898" cy="21.40866477780026"></circle><circle class="pearl" r="2.190433937142651" cx="28.333596734388347" cy="7.01684061165493"></circle><circle class="pearl" r="2.190433937142651" cx="28.522531366621063" cy="28.62247591779055"></circle><circle class="pearl" r="2.190433937142651" cx="5.30391541992303" cy="10.377661215789304"></circle><circle class="pearl" r="2.190433937142651" cx="31.694235049536697" cy="13.980399213320233"></circle><circle class="pearl" r="2.190433937142651" cx="7.311073872078207" cy="28.66408585659018"></circle><circle class="pearl" r="2.190433937142651" cx="18.987039995684725" cy="3.684483203560177"></circle></g><text id="3" class="legendSampleValue" text-anchor="middle" transform="translate(45,8)" x="0" y="239.94771951100134" style="fill: black; font-size: 0.7rem;">1.2k</text><g class="bright" cupRadius="20" width="40" height="40" pearlRadius="2.7380424214283137" pearlCount="20" transform="translate(25,259.9477195110013)"><circle class="pool" r="20" cx="20" cy="20" style="stroke-width: 1; fill: rgb(65, 182, 196);"></circle><circle class="pearl" r="2.190433937142651" cx="22.480421380823074" cy="19.96094551607325"></circle><circle class="pearl" r="2.190433937142651" cx="14.554532211889109" cy="20.25858246523202"></circle><circle class="pearl" r="2.190433937142651" cx="21.718613402750453" cy="11.231225788085391"></circle><circle class="pearl" r="2.190433937142651" cx="25.13767186853209" cy="27.447308990534317"></circle><circle class="pearl" r="2.190433937142651" cx="6.622341466842937" cy="15.212813608895589"></circle><circle class="pearl" r="2.190433937142651" cx="28.49521909515808" cy="14.82158787688231"></circle><circle class="pearl" r="2.190433937142651" cx="17.504603283401977" cy="28.993209871734443"></circle><circle class="pearl" r="2.190433937142651" cx="14.13811847195522" cy="12.373399584276378"></circle><circle class="pearl" r="2.190433937142651" cx="31.11803529924844" cy="22.444175683247455"></circle><circle class="pearl" r="2.190433937142651" cx="10.013176726772668" cy="26.767604068489224"></circle><circle class="pearl" r="2.190433937142651" cx="25.1625299271706" cy="4.328500666167248"></circle><circle class="pearl" r="2.190433937142651" cx="27.782608687955303" cy="34.772930101052836"></circle><circle class="pearl" r="2.190433937142651" cx="8.036930275650786" cy="7.623092000895575"></circle><circle class="pearl" r="2.190433937142651" cx="36.040664285033515" cy="16.500106031740792"></circle><circle class="pearl" r="2.190433937142651" cx="11.3070075503718" cy="34.36126950601293"></circle><circle class="pearl" r="2.190433937142651" cx="16.81383473400994" cy="3.9061454691506903"></circle><circle class="pearl" r="2.190433937142651" cx="33.74247113697989" cy="29.87303346303284"></circle><circle class="pearl" r="2.190433937142651" cx="3.788525504185259" cy="22.343736665541265"></circle><circle class="pearl" r="2.190433937142651" cx="32.18050534208177" cy="7.787706818962306"></circle><circle class="pearl" r="2.190433937142651" cx="20.00567962395882" cy="36.34927596497569"></circle></g><text id="4" class="legendSampleValue" text-anchor="middle" transform="translate(45,8)" x="0" y="304.9477195110013" style="fill: black; font-size: 0.7rem;">1.5k</text></g></svg>