<?xml version="1.0" standalone="no"?>
<?xml-stylesheet xmlns="http://www.w3.org/2000/svg" type="text/css" href="style.css"?>
<svg id="syntheticVisC" class="default" xTitle="Percent Cat Owners" yTitle="Percent Dog Owners" rTitle="Population" chartTitle="Towns in Vizzyland" width="500" height="400" xmlns="http://www.w3.org/2000/svg"><rect class="background" width="500" height="400"></rect><text id="chartTitle" text-anchor="middle" transform="translate(250,20)" x="0" y="0" style="fill: black; font-size: 1.2rem;">Towns in Vizzyland</text><g id="yAxis" transform="translate(50,30)" fill="none" font-size="10" font-family="sans-serif" text-anchor="end"><path class="domain" stroke="currentColor" d="M-6,300H0V20H-6"></path><g class="tick" opacity="1" transform="translate(0,300)"><line stroke="currentColor" x2="-6"></line><text fill="currentColor" x="-9" dy="0.32em">0</text></g><g class="tick" opacity="1" transform="translate(0,272)"><line stroke="currentColor" x2="-6"></line><text fill="currentColor" x="-9" dy="0.32em">10</text></g><g class="tick" opacity="1" transform="translate(0,243.99999999999997)"><line stroke="currentColor" x2="-6"></line><text fill="currentColor" x="-9" dy="0.32em">20</text></g><g class="tick" opacity="1" transform="translate(0,216)"><line stroke="currentColor" x2="-6"></line><text fill="currentColor" x="-9" dy="0.32em">30</text></g><g class="tick" opacity="1" transform="translate(0,187.99999999999997)"><line stroke="currentColor" x2="-6"></line><text fill="currentColor" x="-9" dy="0.32em">40</text></g><g class="tick" opacity="1" transform="translate(0,159.99999999999997)"><line stroke="currentColor" x2="-6"></line><text fill="currentColor" x="-9" dy="0.32em">50</text></g><g class="tick" opacity="1" transform="translate(0,131.99999999999997)"><line stroke="currentColor" x2="-6"></line><text fill="currentColor" x="-9" dy="0.32em">60</text></g><g class="tick" opacity="1" transform="translate(0,103.99999999999999)"><line stroke="currentColor" x2="-6"></line><text fill="currentColor" x="-9" dy="0.32em">70</text></g><g class="tick" opacity="1" transform="translate(0,75.99999999999996)"><line stroke="currentColor" x2="-6"></line><text fill="currentColor" x="-9" dy="0.32em">80</text></g><g class="tick" opacity="1" transform="translate(0,47.999999999999964)"><line stroke="currentColor" x2="-6"></line><text fill="currentColor" x="-9" dy="0.32em">90</text></g></g><g id="xAxis" transform="translate(60,360)" fill="none" font-size="10" font-family="sans-serif" text-anchor="middle"><path class="domain" stroke="currentColor" d="M20,6V0H320V6"></path><g class="tick" opacity="1" transform="translate(20,0)"><line stroke="currentColor" y2="6"></line><text fill="currentColor" y="9" dy="0.71em">0</text></g><g class="tick" opacity="1" transform="translate(50,0)"><line stroke="currentColor" y2="6"></line><text fill="currentColor" y="9" dy="0.71em">10</text></g><g class="tick" opacity="1" transform="translate(80,0)"><line stroke="currentColor" y2="6"></line><text fill="currentColor" y="9" dy="0.71em">20</text></g><g class="tick" opacity="1" transform="translate(110,0)"><line stroke="currentColor" y2="6"></line><text fill="currentColor" y="9" dy="0.71em">30</text></g><g class="tick" opacity="1" transform="translate(140,0)"><line stroke="currentColor" y2="6"></line><text fill="currentColor" y="9" dy="0.71em">40</text></g><g class="tick" opacity="1" transform="translate(170,0)"><line stroke="currentColor" y2="6"></line><text fill="currentColor" y="9" dy="0.71em">50</text></g><g class="tick" opacity="1" transform="translate(200,0)"><line stroke="currentColor" y2="6"></line><text fill="currentColor" y="9" dy="0.71em">60</text></g><g class="tick" opacity="1" transform="translate(230,0)"><line stroke="currentColor" y2="6"></line><text fill="currentColor" y="9" dy="0.71em">70</text></g><g class="tick" opacity="1" transform="translate(260,0)"><line stroke="currentColor" y2="6"></line><text fill="currentColor" y="9" dy="0.71em">80</text></g><g class="tick" opacity="1" transform="translate(290,0)"><line stroke="currentColor" y2="6"></line><text fill="currentColor" y="9" dy="0.71em">90</text></g><g class="tick" opacity="1" transform="translate(320,0)"><line stroke="currentColor" y2="6"></line><text fill="currentColor" y="9" dy="0.71em">100</text></g></g><g id="labels"><text id="xTitle" text-anchor="middle" transform="translate(250,350)" x="0" y="40" style="fill: black; font-size: 0.8rem;">Percent Cat Owners</text><g id="group-yTitle" transform="translate(60,190)"><text id="yTitle" text-anchor="middle" transform="rotate(-90)" y="-45" style="fill: black; font-size: 0.8rem;">Percent Dog Owners</text></g></g><g id="quadrant_lines" transform="translate(60,30)"><line id="verticalQuadrantLine" x1="170" y1="10" x2="170" y2="310" class="quadrantLine"></line><line id="horizontalQuadrantLine" x1="10" y1="160" x2="330" y2="160" class="quadrantLine"></line></g><g id="chart" transform="translate(60,30)"><g class="bobaCup bright" cupRadius="20" width="40" height="40" pearlRadius="2.7380424214283137" pearlCount="20" transform="translate(105.29185005053414,231.95923007445393)"><circle class="pool" r="20" cx="20" cy="20" style="stroke-width: 1; fill: rgb(65, 182, 196);"></circle><circle class="pearl" r="2.190433937142651" cx="22.480421380823074" cy="19.96094551607325"></circle><circle class="pearl" r="2.190433937142651" cx="14.554532211889109" cy="20.25858246523202"></circle><circle class="pearl" r="2.190433937142651" cx="21.718613402750453" cy="11.231225788085391"></circle><circle class="pearl" r="2.190433937142651" cx="25.13767186853209" cy="27.447308990534317"></circle><circle class="pearl" r="2.190433937142651" cx="6.622341466842937" cy="15.212813608895589"></circle><circle class="pearl" r="2.190433937142651" cx="28.49521909515808" cy="14.82158787688231"></circle><circle class="pearl" r="2.190433937142651" cx="17.504603283401977" cy="28.993209871734443"></circle><circle class="pearl" r="2.190433937142651" cx="14.13811847195522" cy="12.373399584276378"></circle><circle class="pearl" r="2.190433937142651" cx="31.11803529924844" cy="22.444175683247455"></circle><circle class="pearl" r="2.190433937142651" cx="10.013176726772668" cy="26.767604068489224"></circle><circle class="pearl" r="2.190433937142651" cx="25.1625299271706" cy="4.328500666167248"></circle><circle class="pearl" r="2.190433937142651" cx="27.782608687955303" cy="34.772930101052836"></circle><circle class="pearl" r="2.190433937142651" cx="8.036930275650786" cy="7.623092000895575"></circle><circle class="pearl" r="2.190433937142651" cx="36.040664285033515" cy="16.500106031740792"></circle><circle class="pearl" r="2.190433937142651" cx="11.3070075503718" cy="34.36126950601293"></circle><circle class="pearl" r="2.190433937142651" cx="16.81383473400994" cy="3.9061454691506903"></circle><circle class="pearl" r="2.190433937142651" cx="33.74247113697989" cy="29.87303346303284"></circle><circle class="pearl" r="2.190433937142651" cx="3.788525504185259" cy="22.343736665541265"></circle><circle class="pearl" r="2.190433937142651" cx="32.18050534208177" cy="7.787706818962306"></circle><circle class="pearl" r="2.190433937142651" cx="20.00567962395882" cy="36.34927596497569"></circle></g><g class="bobaCup bright" cupRadius="17.4810311970411" width="34.9620623940822" height="34.9620623940822" pearlRadius="2.7380424214283132" pearlCount="15" transform="translate(220.5199960676398,146.7854264283272)"><circle class="pool" r="17.4810311970411" cx="17.4810311970411" cy="17.4810311970411" style="stroke-width: 1; fill: rgb(65, 182, 196);"></circle><circle class="pearl" r="2.1904339371426507" cx="18.678132448739472" cy="17.561091029586038"></circle><circle class="pearl" r="2.1904339371426507" cx="13.093883916163566" cy="23.151405809809052"></circle><circle class="pearl" r="2.1904339371426507" cx="16.357836392138775" cy="9.953619568501583"></circle><circle class="pearl" r="2.1904339371426507" cx="20.27994910400483" cy="25.97964178935009"></circle><circle class="pearl" r="2.1904339371426507" cx="10.950541979853387" cy="15.749114543450018"></circle><circle class="pearl" r="2.1904339371426507" cx="23.944926329232022" cy="11.633227663037887"></circle><circle class="pearl" r="2.1904339371426507" cx="14.322013120510265" cy="31.023535021704543"></circle><circle class="pearl" r="2.1904339371426507" cx="10.223305966952228" cy="5.228551094318967"></circle><circle class="pearl" r="2.1904339371426507" cx="26.031118860303454" cy="20.441675016975985"></circle><circle class="pearl" r="2.1904339371426507" cx="4.478761830367405" cy="20.506420971890503"></circle><circle class="pearl" r="2.1904339371426507" cx="21.76768670964398" cy="4.1844526867454475"></circle><circle class="pearl" r="2.1904339371426507" cx="27.760703430929528" cy="27.96943065963256"></circle><circle class="pearl" r="2.1904339371426507" cx="5.006727898086779" cy="10.7304777976133"></circle><circle class="pearl" r="2.1904339371426507" cx="31.06509505243876" cy="14.557238132854033"></circle><circle class="pearl" r="2.1904339371426507" cx="7.1910398251187475" cy="27.961922500351637"></circle></g><g class="bobaCup bright" cupRadius="16.635428823001412" width="33.270857646002824" height="33.270857646002824" pearlRadius="2.738042421428314" pearlCount="14" transform="translate(78.48381827888608,37.92908792818475)"><circle class="pool" r="16.635428823001412" cx="16.635428823001412" cy="16.635428823001412" style="stroke-width: 1; fill: rgb(127, 205, 187);"></circle><circle class="pearl" r="2.1904339371426516" cx="20.795654665505744" cy="12.437803529860913"></circle><circle class="pearl" r="2.1904339371426516" cx="13.203379758383479" cy="21.80493876303862"></circle><circle class="pearl" r="2.1904339371426516" cx="12.813832472971546" cy="12.390392790594644"></circle><circle class="pearl" r="2.1904339371426516" cx="20.968797060000508" cy="20.396653135122214"></circle><circle class="pearl" r="2.1904339371426516" cx="6.39774394229017" cy="17.664699583216994"></circle><circle class="pearl" r="2.1904339371426516" cx="26.423030363234883" cy="6.834745128325935"></circle><circle class="pearl" r="2.1904339371426516" cx="15.589606654986834" cy="29.58722793647328"></circle><circle class="pearl" r="2.1904339371426516" cx="11.135505978384582" cy="4.586204891521032"></circle><circle class="pearl" r="2.1904339371426516" cx="28.656563151790525" cy="22.214888727594165"></circle><circle class="pearl" r="2.1904339371426516" cx="6.76283630764771" cy="26.323432921641242"></circle><circle class="pearl" r="2.1904339371426516" cx="19.08272801734469" cy="3.831723505478504"></circle><circle class="pearl" r="2.1904339371426516" cx="23.44809892800003" cy="28.161168231211146"></circle><circle class="pearl" r="2.1904339371426516" cx="5.126881302364778" cy="9.78458927756164"></circle><circle class="pearl" r="2.1904339371426516" cx="29.445509342283156" cy="14.231383877535439"></circle></g><g class="bobaCup bright" cupRadius="15.724438203836845" width="31.44887640767369" height="31.44887640767369" pearlRadius="2.7380424214283137" pearlCount="12" transform="translate(304.2755617961632,128.14110837415336)"><circle class="pool" r="15.724438203836845" cx="15.724438203836845" cy="15.724438203836845" style="stroke-width: 1; fill: rgb(127, 205, 187);"></circle><circle class="pearl" r="2.190433937142651" cx="17.589176882907967" cy="11.434795179183688"></circle><circle class="pearl" r="2.190433937142651" cx="11.448392018809482" cy="17.681705298609852"></circle><circle class="pearl" r="2.190433937142651" cx="14.210532235199283" cy="4.189228011194466"></circle><circle class="pearl" r="2.190433937142651" cx="19.287096740212966" cy="19.24626369757256"></circle><circle class="pearl" r="2.190433937142651" cx="4.239411672278555" cy="14.225939489436342"></circle><circle class="pearl" r="2.190433937142651" cx="27.30100961040764" cy="11.80175354650546"></circle><circle class="pearl" r="2.190433937142651" cx="11.993418949864623" cy="27.349102111203504"></circle><circle class="pearl" r="2.190433937142651" cx="6.5818491949221585" cy="6.581763797676331"></circle><circle class="pearl" r="2.190433937142651" cx="27.261733834448183" cy="19.79654330555054"></circle><circle class="pearl" r="2.190433937142651" cx="5.369846228421869" cy="22.873501279742705"></circle><circle class="pearl" r="2.190433937142651" cx="22.684772694478745" cy="5.275101127406947"></circle><circle class="pearl" r="2.190433937142651" cx="19.987042294080727" cy="27.209373639364916"></circle></g><g class="bobaCup bright" cupRadius="15.298102580128763" width="30.596205160257526" height="30.596205160257526" pearlRadius="2.7380424214283137" pearlCount="12" transform="translate(303.16809119752094,158.11301915146066)"><circle class="pool" r="15.298102580128763" cx="15.298102580128763" cy="15.298102580128763" style="stroke-width: 1; fill: rgb(65, 182, 196);"></circle><circle class="pearl" r="2.190433937142651" cx="17.00446348248435" cy="10.789114671133133"></circle><circle class="pearl" r="2.190433937142651" cx="10.857077776644939" cy="16.791237213397686"></circle><circle class="pearl" r="2.190433937142651" cx="13.878745762984028" cy="3.71670944957998"></circle><circle class="pearl" r="2.190433937142651" cx="18.413479923928225" cy="18.452539376578823"></circle><circle class="pearl" r="2.190433937142651" cx="3.7191064942930776" cy="13.853252360719253"></circle><circle class="pearl" r="2.190433937142651" cx="26.763109905841503" cy="12.942973631974823"></circle><circle class="pearl" r="2.190433937142651" cx="12.445131154595238" cy="26.677099794640828"></circle><circle class="pearl" r="2.190433937142651" cx="6.486639007099042" cy="6.4432249733416125"></circle><circle class="pearl" r="2.190433937142651" cx="25.90509931425326" cy="20.843313488425604"></circle><circle class="pearl" r="2.190433937142651" cx="5.577933366199591" cy="22.73121618367552"></circle><circle class="pearl" r="2.190433937142651" cx="23.2271261765929" cy="5.865916065112328"></circle><circle class="pearl" r="2.190433937142651" cx="20.36237785590416" cy="26.082927781849904"></circle></g><g class="bobaCup bright" cupRadius="15.020865458040486" width="30.041730916080972" height="30.041730916080972" pearlRadius="2.7380424214283132" pearlCount="11" transform="translate(188.1346145299331,248.73757057008288)"><circle class="pool" r="15.020865458040486" cx="15.020865458040486" cy="15.020865458040486" style="stroke-width: 1; fill: rgb(127, 205, 187);"></circle><circle class="pearl" r="2.1904339371426507" cx="19.223333607396512" cy="15.003649065474146"></circle><circle class="pearl" r="2.1904339371426507" cx="11.618738964593009" cy="17.291324034243466"></circle><circle class="pearl" r="2.1904339371426507" cx="13.758233837404433" cy="9.278348118801901"></circle><circle class="pearl" r="2.1904339371426507" cx="20.637292109565937" cy="25.301479235535563"></circle><circle class="pearl" r="2.1904339371426507" cx="4.288167680167383" cy="14.06691207828625"></circle><circle class="pearl" r="2.1904339371426507" cx="25.62508671080933" cy="10.28557698293465"></circle><circle class="pearl" r="2.1904339371426507" cx="12.751097272153508" cy="26.21852771378685"></circle><circle class="pearl" r="2.1904339371426507" cx="6.402741920727828" cy="6.368973281577916"></circle><circle class="pearl" r="2.1904339371426507" cx="25.75459234832755" cy="19.346832851194954"></circle><circle class="pearl" r="2.1904339371426507" cx="5.711420407560806" cy="22.614312454447333"></circle><circle class="pearl" r="2.1904339371426507" cx="20.139352119780252" cy="4.549708733781425"></circle></g><g class="bobaCup bright" cupRadius="15.00830711515237" width="30.01661423030474" height="30.01661423030474" pearlRadius="2.7380424214283132" pearlCount="11" transform="translate(110.97786761400334,96.87844418133005)"><circle class="pool" r="15.00830711515237" cx="15.00830711515237" cy="15.00830711515237" style="stroke-width: 1; fill: rgb(127, 205, 187);"></circle><circle class="pearl" r="2.1904339371426507" cx="19.18385330013957" cy="15.010051217251187"></circle><circle class="pearl" r="2.1904339371426507" cx="11.551512884553112" cy="17.202502868739515"></circle><circle class="pearl" r="2.1904339371426507" cx="13.758857219180966" cy="9.25250798901962"></circle><circle class="pearl" r="2.1904339371426507" cx="20.641840781440393" cy="25.268463833354335"></circle><circle class="pearl" r="2.1904339371426507" cx="4.19491932309785" cy="14.038126316064906"></circle><circle class="pearl" r="2.1904339371426507" cx="25.61918010574652" cy="10.333250351408733"></circle><circle class="pearl" r="2.1904339371426507" cx="12.758465302465872" cy="26.196299945614857"></circle><circle class="pearl" r="2.1904339371426507" cx="6.400056030382218" cy="6.3648326991316475"></circle><circle class="pearl" r="2.1904339371426507" cx="25.738041928168787" cy="19.30385236306614"></circle><circle class="pearl" r="2.1904339371426507" cx="5.713888563778377" cy="22.602554066618566"></circle><circle class="pearl" r="2.1904339371426507" cx="20.16717640348518" cy="4.5652249623287675"></circle></g><g class="bobaCup bright" cupRadius="14.605978789745226" width="29.211957579490452" height="29.211957579490452" pearlRadius="2.7380424214283137" pearlCount="11" transform="translate(207.57115931942528,129.17977759239454)"><circle class="pool" r="14.605978789745226" cx="14.605978789745226" cy="14.605978789745226" style="stroke-width: 1; fill: rgb(127, 205, 187);"></circle><circle class="pearl" r="2.190433937142651" cx="18.545232850444584" cy="14.949837726474442"></circle><circle class="pearl" r="2.190433937142651" cx="10.979632217507637" cy="16.568072110819195"></circle><circle class="pearl" r="2.190433937142651" cx="13.463294104053242" cy="9.141323204191268"></circle><circle class="pearl" r="2.190433937142651" cx="20.91749947913482" cy="24.127169734668232"></circle><circle class="pearl" r="2.190433937142651" cx="3.6866870487989427" cy="13.58163500247105"></circle><circle class="pearl" r="2.190433937142651" cx="24.90898194812004" cy="10.289946314805164"></circle><circle class="pearl" r="2.190433937142651" cx="13.308841624305543" cy="25.50352183521939"></circle><circle class="pearl" r="2.190433937142651" cx="6.3711804540676695" cy="6.193422498334625"></circle><circle class="pearl" r="2.190433937142651" cx="25.116856546453274" cy="18.181405189523097"></circle><circle class="pearl" r="2.190433937142651" cx="6.1598907164125" cy="22.79143984778097"></circle><circle class="pearl" r="2.190433937142651" cx="19.759610492340848" cy="4.590148075186068"></circle></g><g class="bobaCup bright" cupRadius="14.593467826743332" width="29.186935653486664" height="29.186935653486664" pearlRadius="2.738042421428313" pearlCount="11" transform="translate(26.318444251728895,107.92167421221001)"><circle class="pool" r="14.593467826743332" cx="14.593467826743332" cy="14.593467826743332" style="stroke-width: 1; fill: rgb(65, 182, 196);"></circle><circle class="pearl" r="2.1904339371426502" cx="18.531353330649885" cy="14.945763841908729"></circle><circle class="pearl" r="2.1904339371426502" cx="10.97071716233133" cy="16.57884845292453"></circle><circle class="pearl" r="2.1904339371426502" cx="13.443280062527798" cy="9.154996446572037"></circle><circle class="pearl" r="2.1904339371426502" cx="20.945924624992337" cy="24.081070056029223"></circle><circle class="pearl" r="2.1904339371426502" cx="3.686452700579212" cy="13.572900726908964"></circle><circle class="pearl" r="2.1904339371426502" cx="24.87479039142104" cy="10.249805406042187"></circle><circle class="pearl" r="2.1904339371426502" cx="13.352181281360576" cy="25.483326117576638"></circle><circle class="pearl" r="2.1904339371426502" cx="6.371018042399054" cy="6.187631730443595"></circle><circle class="pearl" r="2.1904339371426502" cx="25.09984310583393" cy="18.13548209189758"></circle><circle class="pearl" r="2.1904339371426502" cx="6.196178752245546" cy="22.828436117835526"></circle><circle class="pearl" r="2.1904339371426502" cx="19.71060477041451" cy="4.577288966329203"></circle></g><g class="bobaCup bright" cupRadius="14.503347242156899" width="29.006694484313797" height="29.006694484313797" pearlRadius="2.7380424214283132" pearlCount="11" transform="translate(165.04305143079148,254.462019541821)"><circle class="pool" r="14.503347242156899" cx="14.503347242156899" cy="14.503347242156899" style="stroke-width: 1; fill: rgb(29, 145, 192);"></circle><circle class="pearl" r="2.1904339371426507" cx="18.44205010042107" cy="14.889457117799768"></circle><circle class="pearl" r="2.1904339371426507" cx="10.942301315823727" cy="16.58607450735824"></circle><circle class="pearl" r="2.1904339371426507" cx="13.313448555390307" cy="9.205823808244366"></circle><circle class="pearl" r="2.1904339371426507" cx="21.021747401636816" cy="23.808608753754054"></circle><circle class="pearl" r="2.1904339371426507" cx="3.6847899433526097" cy="13.509867374874236"></circle><circle class="pearl" r="2.1904339371426507" cx="24.64269507767661" cy="10.011018083034003"></circle><circle class="pearl" r="2.1904339371426507" cx="13.468508670930921" cy="25.319005397957067"></circle><circle class="pearl" r="2.1904339371426507" cx="6.369017329469853" cy="6.146582885968843"></circle><circle class="pearl" r="2.1904339371426507" cx="24.96354938590057" cy="17.854297310949892"></circle><circle class="pearl" r="2.1904339371426507" cx="6.282239534305552" cy="22.800865276737778"></circle><circle class="pearl" r="2.1904339371426507" cx="19.414770969016402" cy="4.507642432526132"></circle></g><g class="bobaCup bright" cupRadius="14.407504191672224" width="28.81500838334445" height="28.81500838334445" pearlRadius="2.7380424214283137" pearlCount="10" transform="translate(61.02072896790654,48.530373464079496)"><circle class="pool" r="14.407504191672224" cx="14.407504191672224" cy="14.407504191672224" style="stroke-width: 1; fill: rgb(65, 182, 196);"></circle><circle class="pearl" r="2.190433937142651" cx="18.004184615239858" cy="12.596589254524085"></circle><circle class="pearl" r="2.190433937142651" cx="11.07112563099578" cy="16.343031464646934"></circle><circle class="pearl" r="2.190433937142651" cx="14.60953191837142" cy="5.364931566408142"></circle><circle class="pearl" r="2.190433937142651" cx="21.524962350744328" cy="23.283471123990036"></circle><circle class="pearl" r="2.190433937142651" cx="3.691246927575939" cy="13.327666909315298"></circle><circle class="pearl" r="2.190433937142651" cx="22.566288929924795" cy="6.18344705899411"></circle><circle class="pearl" r="2.190433937142651" cx="13.771414026798698" cy="25.15023664042908"></circle><circle class="pearl" r="2.190433937142651" cx="6.6368172578750935" cy="5.925931610712153"></circle><circle class="pearl" r="2.190433937142651" cx="25.054907484086105" cy="16.179439580719777"></circle><circle class="pearl" r="2.190433937142651" cx="6.244746574914577" cy="22.62883070706354"></circle></g><g class="bobaCup bright" cupRadius="14.369415863517256" width="28.738831727034512" height="28.738831727034512" pearlRadius="2.7380424214283137" pearlCount="10" transform="translate(129.7231873275844,121.7082419612632)"><circle class="pool" r="14.369415863517256" cx="14.369415863517256" cy="14.369415863517256" style="stroke-width: 1; fill: rgb(65, 182, 196);"></circle><circle class="pearl" r="2.190433937142651" cx="17.92898502156284" cy="12.517036327619591"></circle><circle class="pearl" r="2.190433937142651" cx="11.067244378151132" cy="16.31102841914611"></circle><circle class="pearl" r="2.190433937142651" cx="14.59492058612772" cy="5.254491343254019"></circle><circle class="pearl" r="2.190433937142651" cx="21.526029741418306" cy="23.17914969162493"></circle><circle class="pearl" r="2.190433937142651" cx="3.6900307234643304" cy="13.307292329179816"></circle><circle class="pearl" r="2.190433937142651" cx="22.48508192290266" cy="6.16197411300152"></circle><circle class="pearl" r="2.190433937142651" cx="13.776914493125826" cy="25.07588784796691"></circle><circle class="pearl" r="2.190433937142651" cx="6.630559137169033" cy="5.912694736331169"></circle><circle class="pearl" r="2.190433937142651" cx="24.990091464109877" cy="16.044912123628308"></circle><circle class="pearl" r="2.190433937142651" cx="6.249113398553469" cy="22.573683151020166"></circle></g><g class="bobaCup bright" cupRadius="14.270032699272178" width="28.540065398544357" height="28.540065398544357" pearlRadius="2.7380424214283132" pearlCount="10" transform="translate(26.766486395938003,127.11517757140439)"><circle class="pool" r="14.270032699272178" cx="14.270032699272178" cy="14.270032699272178" style="stroke-width: 1; fill: rgb(127, 205, 187);"></circle><circle class="pearl" r="2.1904339371426507" cx="17.74665316659417" cy="12.322995997279476"></circle><circle class="pearl" r="2.1904339371426507" cx="11.073931574780026" cy="16.243524198157285"></circle><circle class="pearl" r="2.1904339371426507" cx="14.48103531975873" cy="5.011109032997823"></circle><circle class="pearl" r="2.1904339371426507" cx="21.497839643749774" cy="22.923481121472985"></circle><circle class="pearl" r="2.1904339371426507" cx="3.6827407005895365" cy="13.31465024873822"></circle><circle class="pearl" r="2.1904339371426507" cx="22.276452826563887" cy="6.108428892766921"></circle><circle class="pearl" r="2.1904339371426507" cx="13.766494281196666" cy="24.880455367851827"></circle><circle class="pearl" r="2.1904339371426507" cx="6.550169084415017" cy="5.919191904504397"></circle><circle class="pearl" r="2.1904339371426507" cx="24.813365978848932" cy="15.740608464679473"></circle><circle class="pearl" r="2.1904339371426507" cx="6.257137761015469" cy="22.42724527450513"></circle></g><g class="bobaCup bright" cupRadius="14.072475734544987" width="28.144951469089975" height="28.144951469089975" pearlRadius="2.7380424214283137" pearlCount="10" transform="translate(34.70700274352475,236.88405095329455)"><circle class="pool" r="14.072475734544987" cx="14.072475734544987" cy="14.072475734544987" style="stroke-width: 1; fill: rgb(127, 205, 187);"></circle><circle class="pearl" r="2.190433937142651" cx="17.361012556190907" cy="11.921191873654864"></circle><circle class="pearl" r="2.190433937142651" cx="11.119171111428319" cy="16.15111410759812"></circle><circle class="pearl" r="2.190433937142651" cx="14.224078336107562" cy="4.4772019288378955"></circle><circle class="pearl" r="2.190433937142651" cx="21.430927092929668" cy="22.417075215498816"></circle><circle class="pearl" r="2.190433937142651" cx="3.668229158219324" cy="13.370765621465395"></circle><circle class="pearl" r="2.190433937142651" cx="21.862101188395993" cy="6.003288187513981"></circle><circle class="pearl" r="2.190433937142651" cx="13.733648680624285" cy="24.490148630866354"></circle><circle class="pearl" r="2.190433937142651" cx="6.378829833391783" cy="5.9400590570033565"></circle><circle class="pearl" r="2.190433937142651" cx="24.45408007225544" cy="15.134716936877432"></circle><circle class="pearl" r="2.190433937142651" cx="6.276112086471233" cy="22.13718195462629"></circle></g><g class="bobaCup bright" cupRadius="14.02126420954859" width="28.04252841909718" height="28.04252841909718" pearlRadius="2.7380424214283137" pearlCount="10" transform="translate(70.1752065928493,285.9787357904514)"><circle class="pool" r="14.02126420954859" cx="14.02126420954859" cy="14.02126420954859" style="stroke-width: 1; fill: rgb(29, 145, 192);"></circle><circle class="pearl" r="2.190433937142651" cx="17.248485182808995" cy="11.805025978431251"></circle><circle class="pearl" r="2.190433937142651" cx="11.135675466200988" cy="16.134787928335943"></circle><circle class="pearl" r="2.190433937142651" cx="14.162147578730044" cy="4.327675149252305"></circle><circle class="pearl" r="2.190433937142651" cx="21.41365360682179" cy="22.28475220258387"></circle><circle class="pearl" r="2.190433937142651" cx="3.6653869409330557" cy="13.380177205952506"></circle><circle class="pearl" r="2.190433937142651" cx="21.75493454700456" cy="5.976424469817468"></circle><circle class="pearl" r="2.190433937142651" cx="13.723878384882813" cy="24.388651114132262"></circle><circle class="pearl" r="2.190433937142651" cx="6.34531473702071" cy="5.938460699360897"></circle><circle class="pearl" r="2.190433937142651" cx="24.359669617107468" cy="14.970016039995823"></circle><circle class="pearl" r="2.190433937142651" cx="6.2815255846144815" cy="22.062089041507015"></circle></g><g class="bobaCup bright" cupRadius="13.533105999124606" width="27.066211998249212" height="27.066211998249212" pearlRadius="2.7380424214283137" pearlCount="9" transform="translate(46.96860816901253,79.86791911395906)"><circle class="pool" r="13.533105999124606" cx="13.533105999124606" cy="13.533105999124606" style="stroke-width: 1; fill: rgb(29, 145, 192);"></circle><circle class="pearl" r="2.190433937142651" cx="16.563446155706895" cy="11.66313077082676"></circle><circle class="pearl" r="2.190433937142651" cx="10.465097855767903" cy="15.928789988778513"></circle><circle class="pearl" r="2.190433937142651" cx="13.608148864854948" cy="3.650931291486854"></circle><circle class="pearl" r="2.190433937142651" cx="19.182264440390625" cy="22.180023474729882"></circle><circle class="pearl" r="2.190433937142651" cx="3.6558821325460666" cy="13.159467973255666"></circle><circle class="pearl" r="2.190433937142651" cx="20.90981646864148" cy="5.83794448332857"></circle><circle class="pearl" r="2.190433937142651" cx="11.370346048059066" cy="23.241552931069084"></circle><circle class="pearl" r="2.190433937142651" cx="6.064886866889843" cy="5.897968118481868"></circle><circle class="pearl" r="2.190433937142651" cx="23.265944310906352" cy="15.539405697357884"></circle></g><g class="bobaCup bright" cupRadius="13.487879660453682" width="26.975759320907365" height="26.975759320907365" pearlRadius="2.738042421428313" pearlCount="9" transform="translate(48.94104008312566,16.45067720067792)"><circle class="pool" r="13.487879660453682" cx="13.487879660453682" cy="13.487879660453682" style="stroke-width: 1; fill: rgb(29, 145, 192);"></circle><circle class="pearl" r="2.1904339371426502" cx="16.256991465374217" cy="11.495695672026402"></circle><circle class="pearl" r="2.1904339371426502" cx="10.345151762350529" cy="16.060767482349082"></circle><circle class="pearl" r="2.1904339371426502" cx="13.584408286808424" cy="3.6510686459107125"></circle><circle class="pearl" r="2.1904339371426502" cx="19.61007424856176" cy="21.855543643161003"></circle><circle class="pearl" r="2.1904339371426502" cx="3.6554413109048984" cy="13.131156247720071"></circle><circle class="pearl" r="2.1904339371426502" cx="20.8484475640185" cy="5.836172271149177"></circle><circle class="pearl" r="2.1904339371426502" cx="11.86111678376712" cy="23.226575399034033"></circle><circle class="pearl" r="2.1904339371426502" cx="6.059522544290589" cy="5.880609804570092"></circle><circle class="pearl" r="2.1904339371426502" cx="23.246268758483456" cy="14.943422290362236"></circle></g><g class="bobaCup bright" cupRadius="13.171235588134314" width="26.342471176268628" height="26.342471176268628" pearlRadius="2.7380424214283137" pearlCount="9" transform="translate(46.404073238447495,154.89325165887567)"><circle class="pool" r="13.171235588134314" cx="13.171235588134314" cy="13.171235588134314" style="stroke-width: 1; fill: rgb(29, 145, 192);"></circle><circle class="pearl" r="2.190433937142651" cx="15.14307085692508" cy="11.202972421907463"></circle><circle class="pearl" r="2.190433937142651" cx="9.740942238700738" cy="16.591826847939313"></circle><circle class="pearl" r="2.190433937142651" cx="13.235129608472548" cy="3.6508782052938624"></circle><circle class="pearl" r="2.190433937142651" cx="20.426514688158687" cy="20.513345119997883"></circle><circle class="pearl" r="2.190433937142651" cx="3.651385371249562" cy="13.039167287662705"></circle><circle class="pearl" r="2.190433937142651" cx="20.31408175368283" cy="5.75574015026632"></circle><circle class="pearl" r="2.190433937142651" cx="13.271305468036589" cy="22.69136779637037"></circle><circle class="pearl" r="2.190433937142651" cx="5.996145062266427" cy="5.776619398483035"></circle><circle class="pearl" r="2.190433937142651" cx="22.69174725333176" cy="13.16695875399619"></circle></g><g class="bobaCup bright" cupRadius="12.93242419676282" width="25.86484839352564" height="25.86484839352564" pearlRadius="2.7380424214283137" pearlCount="8" transform="translate(197.21524845096528,48.50618316509271)"><circle class="pool" r="12.93242419676282" cx="12.93242419676282" cy="12.93242419676282" style="stroke-width: 1; fill: rgb(65, 182, 196);"></circle><circle class="pearl" r="2.190433937142651" cx="19.597110961282528" cy="12.932605902618699"></circle><circle class="pearl" r="2.190433937142651" cx="11.738666034093" cy="14.187081533373565"></circle><circle class="pearl" r="2.190433937142651" cx="12.105031398142454" cy="3.6772179058530394"></circle><circle class="pearl" r="2.190433937142651" cx="19.82223654447922" cy="20.22601827985038"></circle><circle class="pearl" r="2.190433937142651" cx="3.82575608261247" cy="15.052933978318336"></circle><circle class="pearl" r="2.190433937142651" cx="19.827368809850896" cy="5.642062726481409"></circle><circle class="pearl" r="2.190433937142651" cx="11.976707682261999" cy="22.17876270910493"></circle><circle class="pearl" r="2.190433937142651" cx="5.019561091699719" cy="7.1418226123326525"></circle></g><g class="bobaCup bright" cupRadius="12.149354828642466" width="24.29870965728493" height="24.29870965728493" pearlRadius="2.7380424214283137" pearlCount="7" transform="translate(59.59061153031511,216.51393202179707)"><circle class="pool" r="12.149354828642466" cx="12.149354828642466" cy="12.149354828642466" style="stroke-width: 1; fill: rgb(127, 205, 187);"></circle><circle class="pearl" r="2.190433937142651" cx="13.68169318727925" cy="12.453450595928647"></circle><circle class="pearl" r="2.190433937142651" cx="5.528523005477587" cy="14.818222977507055"></circle><circle class="pearl" r="2.190433937142651" cx="12.193531050338816" cy="3.6508035433302375"></circle><circle class="pearl" r="2.190433937142651" cx="18.793578749248436" cy="18.60077993848519"></circle><circle class="pearl" r="2.190433937142651" cx="4.867081621511177" cy="6.850636899824478"></circle><circle class="pearl" r="2.190433937142651" cx="19.477471497630805" cy="6.9462886887577"></circle><circle class="pearl" r="2.190433937142651" cx="11.052121306144675" cy="20.59833826384489"></circle></g><g class="bobaCup bright" cupRadius="12.111374956486197" width="24.222749912972393" height="24.222749912972393" pearlRadius="2.738042421428314" pearlCount="7" transform="translate(18.84295857201952,51.61876696495926)"><circle class="pool" r="12.111374956486197" cx="12.111374956486197" cy="12.111374956486197" style="stroke-width: 1; fill: rgb(65, 182, 196);"></circle><circle class="pearl" r="2.1904339371426516" cx="13.567621676351807" cy="12.422715867469982"></circle><circle class="pearl" r="2.1904339371426516" cx="5.377566072993593" cy="14.830806239863131"></circle><circle class="pearl" r="2.1904339371426516" cx="12.177224054816236" cy="3.6509022394518227"></circle><circle class="pearl" r="2.1904339371426516" cx="18.735835266791316" cy="18.522771573371514"></circle><circle class="pearl" r="2.1904339371426516" cx="4.851737245415524" cy="6.8531026638656956"></circle><circle class="pearl" r="2.1904339371426516" cx="19.438658137627016" cy="6.995832110910043"></circle><circle class="pearl" r="2.1904339371426516" cx="10.994383933390235" cy="20.520408541007324"></circle></g><g class="bobaCup bright" cupRadius="11.59776475086291" width="23.19552950172582" height="23.19552950172582" pearlRadius="2.7380424214283146" pearlCount="7" transform="translate(145.43245714837278,104.53664829784371)"><circle class="pool" r="11.59776475086291" cx="11.59776475086291" cy="11.59776475086291" style="stroke-width: 1; fill: rgb(29, 145, 192);"></circle><circle class="pearl" r="2.1904339371426516" cx="11.883047165468781" cy="11.640508164755163"></circle><circle class="pearl" r="2.1904339371426516" cx="4.058447104157536" cy="14.645900644487119"></circle><circle class="pearl" r="2.1904339371426516" cx="12.140748626706513" cy="3.6634409045649408"></circle><circle class="pearl" r="2.1904339371426516" cx="18.082577358824555" cy="17.23505670025838"></circle><circle class="pearl" r="2.1904339371426516" cx="4.744343523423695" cy="6.681353817709918"></circle><circle class="pearl" r="2.1904339371426516" cx="18.92911881407201" cy="7.869209323660015"></circle><circle class="pearl" r="2.1904339371426516" cx="10.413012996318606" cy="19.48413433185448"></circle></g><g class="bobaCup bright" cupRadius="11.592044159896002" width="23.184088319792004" height="23.184088319792004" pearlRadius="2.7380424214283132" pearlCount="7" transform="translate(166.71388613175472,166.37631509163498)"><circle class="pool" r="11.592044159896002" cx="11.592044159896002" cy="11.592044159896002" style="stroke-width: 1; fill: rgb(127, 205, 187);"></circle><circle class="pearl" r="2.1904339371426507" cx="11.869084524245407" cy="11.63426055917835"></circle><circle class="pearl" r="2.1904339371426507" cx="4.05693232408476" cy="14.633849827162377"></circle><circle class="pearl" r="2.1904339371426507" cx="12.145948160572056" cy="3.663964420844999"></circle><circle class="pearl" r="2.1904339371426507" cx="18.075483040565363" cy="17.220031912957857"></circle><circle class="pearl" r="2.1904339371426507" cx="4.747532738259511" cy="6.670099682145234"></circle><circle class="pearl" r="2.1904339371426507" cx="18.923134624768082" cy="7.880540986317511"></circle><circle class="pearl" r="2.1904339371426507" cx="10.40661946586948" cy="19.472593892267742"></circle></g><g class="bobaCup bright" cupRadius="11.541712039675652" width="23.083424079351303" height="23.083424079351303" pearlRadius="2.7380424214283132" pearlCount="7" transform="translate(127.61911396940295,258.5970662158398)"><circle class="pool" r="11.541712039675652" cx="11.541712039675652" cy="11.541712039675652" style="stroke-width: 1; fill: rgb(65, 182, 196);"></circle><circle class="pearl" r="2.1904339371426507" cx="11.739879046829355" cy="11.578036971879202"></circle><circle class="pearl" r="2.1904339371426507" cx="4.038283203712397" cy="14.507518595747412"></circle><circle class="pearl" r="2.1904339371426507" cx="12.211212096546726" cy="3.670157434387515"></circle><circle class="pearl" r="2.1904339371426507" cx="18.013640773640162" cy="17.086352158941114"></circle><circle class="pearl" r="2.1904339371426507" cx="4.785146594535674" cy="6.551776241607771"></circle><circle class="pearl" r="2.1904339371426507" cx="18.877113091219844" cy="8.003889247525732"></circle><circle class="pearl" r="2.1904339371426507" cx="10.332123431626268" cy="19.369142504363385"></circle></g><g class="bobaCup bright" cupRadius="11.540495667380146" width="23.08099133476029" height="23.08099133476029" pearlRadius="2.7380424214283137" pearlCount="7" transform="translate(99.04140847620523,264.60484608927163)"><circle class="pool" r="11.540495667380146" cx="11.540495667380146" cy="11.540495667380146" style="stroke-width: 1; fill: rgb(65, 182, 196);"></circle><circle class="pearl" r="2.190433937142651" cx="11.736620930445026" cy="11.576641310886863"></circle><circle class="pearl" r="2.190433937142651" cx="4.0377415812225" cy="14.504105634742839"></circle><circle class="pearl" r="2.190433937142651" cx="12.213164520710139" cy="3.670344065341377"></circle><circle class="pearl" r="2.190433937142651" cx="18.01215679350918" cy="17.083092100870694"></circle><circle class="pearl" r="2.190433937142651" cx="4.786232324769671" cy="6.548572721024573"></circle><circle class="pearl" r="2.190433937142651" cx="18.87612358037634" cy="8.007348508966945"></circle><circle class="pearl" r="2.190433937142651" cx="10.330008222299295" cy="19.366608256843644"></circle></g><g class="bobaCup bright" cupRadius="11.318689752534743" width="22.637379505069486" height="22.637379505069486" pearlRadius="2.7380424214283132" pearlCount="6" transform="translate(172.67299529509705,110.51674701877138)"><circle class="pool" r="11.318689752534743" cx="11.318689752534743" cy="11.318689752534743" style="stroke-width: 1; fill: rgb(65, 182, 196);"></circle><circle class="pearl" r="2.1904339371426507" cx="11.861368121975147" cy="11.414451500947647"></circle><circle class="pearl" r="2.1904339371426507" cx="6.340762006561715" cy="17.197245957073996"></circle><circle class="pearl" r="2.1904339371426507" cx="9.365647169877974" cy="3.8204954379331104"></circle><circle class="pearl" r="2.1904339371426507" cx="17.285611951119506" cy="17.286104451347075"></circle><circle class="pearl" r="2.1904339371426507" cx="3.7899079001158027" cy="9.549112441916975"></circle><circle class="pearl" r="2.1904339371426507" cx="17.284827848064193" cy="5.350788654352692"></circle></g><g class="bobaCup bright" cupRadius="11.263860353949848" width="22.527720707899697" height="22.527720707899697" pearlRadius="2.7380424214283132" pearlCount="6" transform="translate(201.20349587054363,72.6963466267976)"><circle class="pool" r="11.263860353949848" cx="11.263860353949848" cy="11.263860353949848" style="stroke-width: 1; fill: rgb(29, 145, 192);"></circle><circle class="pearl" r="2.1904339371426507" cx="11.62827491323406" cy="11.454949615026921"></circle><circle class="pearl" r="2.1904339371426507" cx="6.180367518930707" cy="17.30557666253161"></circle><circle class="pearl" r="2.1904339371426507" cx="9.21075377645509" cy="3.8394175135750155"></circle><circle class="pearl" r="2.1904339371426507" cx="17.190305316920625" cy="17.19185312357818"></circle><circle class="pearl" r="2.1904339371426507" cx="3.7618486494238494" cy="9.685553164154655"></circle><circle class="pearl" r="2.1904339371426507" cx="17.18991562792093" cy="5.335626490899593"></circle></g><g class="bobaCup bright" cupRadius="10.730764120500364" width="21.461528241000728" height="21.461528241000728" pearlRadius="2.7380424214283132" pearlCount="6" transform="translate(191.78962805881588,183.1262059047267)"><circle class="pool" r="10.730764120500364" cx="10.730764120500364" cy="10.730764120500364" style="stroke-width: 1; fill: rgb(65, 182, 196);"></circle><circle class="pearl" r="2.1904339371426507" cx="11.04591270505721" cy="11.014351886333325"></circle><circle class="pearl" r="2.1904339371426507" cx="5.2959280179717085" cy="16.332708353178983"></circle><circle class="pearl" r="2.1904339371426507" cx="8.853773278164539" cy="3.816157066131619"></circle><circle class="pearl" r="2.1904339371426507" cx="16.145814477490656" cy="16.344301695742892"></circle><circle class="pearl" r="2.1904339371426507" cx="3.7990498436447995" cy="8.952755387800392"></circle><circle class="pearl" r="2.1904339371426507" cx="16.261441714317645" cy="5.185787051483154"></circle></g><g class="bobaCup bright" cupRadius="10.6730224631555" width="21.346044926311" height="21.346044926311" pearlRadius="2.7380424214283137" pearlCount="6" transform="translate(234.60618125658738,115.41613235011586)"><circle class="pool" r="10.6730224631555" cx="10.6730224631555" cy="10.6730224631555" style="stroke-width: 1; fill: rgb(65, 182, 196);"></circle><circle class="pearl" r="2.190433937142651" cx="10.998710594381905" cy="10.961371503695084"></circle><circle class="pearl" r="2.190433937142651" cx="5.296435800474123" cy="16.242154133534758"></circle><circle class="pearl" r="2.190433937142651" cx="8.789067118985079" cy="3.818312775364042"></circle><circle class="pearl" r="2.190433937142651" cx="16.03097512923394" cy="16.25299540156363"></circle><circle class="pearl" r="2.190433937142651" cx="3.7959834296627246" cy="8.918134930438391"></circle><circle class="pearl" r="2.190433937142651" cx="16.149651789830585" cy="5.162962989510344"></circle></g><g class="bobaCup bright" cupRadius="9.929644042488516" width="19.85928808497703" height="19.85928808497703" pearlRadius="2.738042421428313" pearlCount="5" transform="translate(178.74509528943534,54.94935929783679)"><circle class="pool" r="9.929644042488516" cx="9.929644042488516" cy="9.929644042488516" style="stroke-width: 1; fill: rgb(127, 205, 187);"></circle><circle class="pearl" r="2.1904339371426502" cx="15.811993243698188" cy="7.1514502301201786"></circle><circle class="pearl" r="2.1904339371426502" cx="7.046559147355964" cy="15.780797065373575"></circle><circle class="pearl" r="2.1904339371426502" cx="9.083455639241501" cy="3.6868443395281862"></circle><circle class="pearl" r="2.1904339371426502" cx="14.844797422108245" cy="14.906730389084261"></circle><circle class="pearl" r="2.1904339371426502" cx="3.696021131754853" cy="8.98226227733835"></circle></g><g class="bobaCup bright" cupRadius="9.850387457041421" width="19.700774914082842" height="19.700774914082842" pearlRadius="2.7380424214283132" pearlCount="5" transform="translate(107.13208152305846,150.03230913316608)"><circle class="pool" r="9.850387457041421" cx="9.850387457041421" cy="9.850387457041421" style="stroke-width: 1; fill: rgb(29, 145, 192);"></circle><circle class="pearl" r="2.1904339371426507" cx="15.64981229316481" cy="7.071028788357186"></circle><circle class="pearl" r="2.1904339371426507" cx="6.930786287050543" cy="15.60743027902808"></circle><circle class="pearl" r="2.1904339371426507" cx="9.017033401572268" cy="3.686037885471282"></circle><circle class="pearl" r="2.1904339371426507" cx="14.696178794825215" cy="14.775702904018534"></circle><circle class="pearl" r="2.1904339371426507" cx="3.6989240713572675" cy="8.877109165310639"></circle></g><g class="bobaCup bright" cupRadius="9.760498741588792" width="19.520997483177585" height="19.520997483177585" pearlRadius="2.7380424214283132" pearlCount="5" transform="translate(221.39231751024067,105.29034350577611)"><circle class="pool" r="9.760498741588792" cx="9.760498741588792" cy="9.760498741588792" style="stroke-width: 1; fill: rgb(65, 182, 196);"></circle><circle class="pearl" r="2.1904339371426507" cx="15.46632034052367" cy="6.981577264571527"></circle><circle class="pearl" r="2.1904339371426507" cx="6.79647341495114" cy="15.409339456967281"></circle><circle class="pearl" r="2.1904339371426507" cx="8.945677582125121" cy="3.68479394325058"></circle><circle class="pearl" r="2.1904339371426507" cx="14.52725767831566" cy="14.627131025363717"></circle><circle class="pearl" r="2.1904339371426507" cx="3.702770553748276" cy="8.753867339469826"></circle></g><g class="bobaCup bright" cupRadius="9.75186711550053" width="19.50373423100106" height="19.50373423100106" pearlRadius="2.7380424214283137" pearlCount="5" transform="translate(10.24813288449947,180.36472071605277)"><circle class="pool" r="9.75186711550053" cx="9.75186711550053" cy="9.75186711550053" style="stroke-width: 1; fill: rgb(127, 205, 187);"></circle><circle class="pearl" r="2.190433937142651" cx="15.448732503231764" cy="6.973108525994066"></circle><circle class="pearl" r="2.190433937142651" cx="6.783382068797122" cy="15.390223968717894"></circle><circle class="pearl" r="2.190433937142651" cx="8.939086233558495" cy="3.6846533471401077"></circle><circle class="pearl" r="2.190433937142651" cx="14.511012085813999" cy="14.612868235727444"></circle><circle class="pearl" r="2.190433937142651" cx="3.703176866737353" cy="8.741772845599396"></circle></g><g class="bobaCup bright" cupRadius="9.646241998912377" width="19.292483997824753" height="19.292483997824753" pearlRadius="2.7380424214283137" pearlCount="5" transform="translate(235.48003838467375,240.80461982920812)"><circle class="pool" r="9.646241998912377" cx="9.646241998912377" cy="9.646241998912377" style="stroke-width: 1; fill: rgb(29, 145, 192);"></circle><circle class="pearl" r="2.190433937142651" cx="15.234123838143756" cy="6.871685979878764"></circle><circle class="pearl" r="2.190433937142651" cx="6.619892192800659" cy="15.154732249272147"></circle><circle class="pearl" r="2.190433937142651" cx="8.862946543334454" cy="3.682578459163185"></circle><circle class="pearl" r="2.190433937142651" cx="14.31176741158444" cy="14.438436354049674"></circle><circle class="pearl" r="2.190433937142651" cx="3.7088046251657136" cy="8.589283643184592"></circle></g><g class="bobaCup bright" cupRadius="9.366962752491048" width="18.733925504982096" height="18.733925504982096" pearlRadius="2.7380424214283137" pearlCount="4" transform="translate(213.21647983939124,177.8253339855484)"><circle class="pool" r="9.366962752491048" cx="9.366962752491048" cy="9.366962752491048" style="stroke-width: 1; fill: rgb(127, 205, 187);"></circle><circle class="pearl" r="2.190433937142651" cx="14.590144631097704" cy="6.367996371325791"></circle><circle class="pearl" r="2.190433937142651" cx="5.494104721835886" cy="12.24652496381045"></circle><circle class="pearl" r="2.190433937142651" cx="6.965072841142284" cy="3.9639068772670942"></circle><circle class="pearl" r="2.190433937142651" cx="13.234778525661108" cy="14.247358580138297"></circle></g><g class="bobaCup bright" cupRadius="9.320156091838664" width="18.640312183677327" height="18.640312183677327" pearlRadius="2.7380424214283132" pearlCount="4" transform="translate(74.42197314692889,153.37351904039372)"><circle class="pool" r="9.320156091838664" cx="9.320156091838664" cy="9.320156091838664" style="stroke-width: 1; fill: rgb(65, 182, 196);"></circle><circle class="pearl" r="2.1904339371426507" cx="14.477247869465167" cy="6.272582566419149"></circle><circle class="pearl" r="2.1904339371426507" cx="5.419859463709877" cy="12.177957597346031"></circle><circle class="pearl" r="2.1904339371426507" cx="6.813713474440222" cy="3.994072817987731"></circle><circle class="pearl" r="2.1904339371426507" cx="13.165537625731787" cy="14.159329825836156"></circle></g><g class="bobaCup bright" cupRadius="9.206680517771446" width="18.41336103554289" height="18.41336103554289" pearlRadius="2.7380424214283137" pearlCount="4" transform="translate(267.45415727965417,13.135431669891332)"><circle class="pool" r="9.206680517771446" cx="9.206680517771446" cy="9.206680517771446" style="stroke-width: 1; fill: rgb(29, 145, 192);"></circle><circle class="pearl" r="2.190433937142651" cx="14.193249390672403" cy="6.019181292648254"></circle><circle class="pearl" r="2.190433937142651" cx="5.253758581868513" cy="12.08609535067651"></circle><circle class="pearl" r="2.190433937142651" cx="6.437650845864582" cy="4.077002796931868"></circle><circle class="pearl" r="2.190433937142651" cx="13.033382102416095" cy="13.929685320274121"></circle></g><g class="bobaCup bright" cupRadius="8.946998824111974" width="17.893997648223948" height="17.893997648223948" pearlRadius="2.738042421428314" pearlCount="4" transform="translate(68.57423834062358,194.2970761967786)"><circle class="pool" r="8.946998824111974" cx="8.946998824111974" cy="8.946998824111974" style="stroke-width: 1; fill: rgb(29, 145, 192);"></circle><circle class="pearl" r="2.1904339371426516" cx="13.549356592267987" cy="5.49222791707297"></circle><circle class="pearl" r="2.1904339371426516" cx="4.754888418492199" cy="12.226988444937968"></circle><circle class="pearl" r="2.1904339371426516" cx="5.646435883062802" cy="4.281769176984815"></circle><circle class="pearl" r="2.1904339371426516" cx="12.657809127698371" cy="13.437447185027139"></circle></g><g class="bobaCup bright" cupRadius="8.69367628290975" width="17.3873525658195" height="17.3873525658195" pearlRadius="2.7380424214283137" pearlCount="4" transform="translate(224.56074576085462,53.152311554151325)"><circle class="pool" r="8.69367628290975" cx="8.69367628290975" cy="8.69367628290975" style="stroke-width: 1; fill: rgb(127, 205, 187);"></circle><circle class="pearl" r="2.190433937142651" cx="12.84238084097031" cy="4.853242256247439"></circle><circle class="pearl" r="2.190433937142651" cx="4.54497172484919" cy="12.534110309572062"></circle><circle class="pearl" r="2.190433937142651" cx="4.85324225624744" cy="4.54497172484919"></circle><circle class="pearl" r="2.190433937142651" cx="12.534110309572064" cy="12.84238084097031"></circle></g><g class="bobaCup bright" cupRadius="8.36751849423951" width="16.73503698847902" height="16.73503698847902" pearlRadius="2.7380424214283132" pearlCount="4" transform="translate(211.72373121166373,202.52333867747942)"><circle class="pool" r="8.36751849423951" cx="8.36751849423951" cy="8.36751849423951" style="stroke-width: 1; fill: rgb(29, 145, 192);"></circle><circle class="pearl" r="2.1904339371426507" cx="12.118009185863055" cy="4.538322918205468"></circle><circle class="pearl" r="2.1904339371426507" cx="4.616217409738471" cy="12.19630767790905"></circle><circle class="pearl" r="2.1904339371426507" cx="4.617402775634675" cy="4.538134915517453"></circle><circle class="pearl" r="2.1904339371426507" cx="12.116823124020332" cy="12.197308653434291"></circle></g><g class="bobaCup bright" cupRadius="8.272733835988381" width="16.545467671976763" height="16.545467671976763" pearlRadius="2.7380424214283132" pearlCount="3" transform="translate(231.344917548219,157.82192329183536)"><circle class="pool" r="8.272733835988381" cx="8.272733835988381" cy="8.272733835988381" style="stroke-width: 1; fill: rgb(29, 145, 192);"></circle><circle class="pearl" r="2.1904339371426507" cx="12.563572634344998" cy="9.909918718444093"></circle><circle class="pearl" r="2.1904339371426507" cx="4.5371918536997065" cy="11.213546880402081"></circle><circle class="pearl" r="2.1904339371426507" cx="7.549676292099757" cy="3.6823823221892207"></circle></g><g class="bobaCup bright" cupRadius="8.180802684597433" width="16.361605369194866" height="16.361605369194866" pearlRadius="2.7380424214283132" pearlCount="3" transform="translate(165.24497098534482,230.00182658783473)"><circle class="pool" r="8.180802684597433" cx="8.180802684597433" cy="8.180802684597433" style="stroke-width: 1; fill: rgb(65, 182, 196);"></circle><circle class="pearl" r="2.1904339371426507" cx="12.50748052534427" cy="9.85186176650536"></circle><circle class="pearl" r="2.1904339371426507" cx="4.45252839953028" cy="11.111426495242826"></circle><circle class="pearl" r="2.1904339371426507" cx="7.417424904573327" cy="3.6864177537097342"></circle></g><g class="bobaCup bright" cupRadius="8.085254006891118" width="16.170508013782236" height="16.170508013782236" pearlRadius="2.7380424214283132" pearlCount="3" transform="translate(309.6220051795409,147.6189135103516)"><circle class="pool" r="8.085254006891118" cx="8.085254006891118" cy="8.085254006891118" style="stroke-width: 1; fill: rgb(29, 145, 192);"></circle><circle class="pearl" r="2.1904339371426507" cx="12.317789092035266" cy="9.881241399716735"></circle><circle class="pearl" r="2.1904339371426507" cx="4.316019473482095" cy="11.12882299876816"></circle><circle class="pearl" r="2.1904339371426507" cx="7.254892620196147" cy="3.6934756144841314"></circle></g><g class="bobaCup bright" cupRadius="7.929151517022932" width="15.858303034045864" height="15.858303034045864" pearlRadius="2.7380424214283137" pearlCount="3" transform="translate(87.97678359398934,244.8784642026745)"><circle class="pool" r="7.929151517022932" cx="7.929151517022932" cy="7.929151517022932" style="stroke-width: 1; fill: rgb(29, 145, 192);"></circle><circle class="pearl" r="2.190433937142651" cx="12.07754204937679" cy="9.359280295860088"></circle><circle class="pearl" r="2.190433937142651" cx="4.470301256695663" cy="11.41339841148257"></circle><circle class="pearl" r="2.190433937142651" cx="6.415550878813046" cy="3.7965299062644826"></circle></g><g class="bobaCup bright" cupRadius="7.827933977341493" width="15.655867954682986" height="15.655867954682986" pearlRadius="2.7380424214283132" pearlCount="3" transform="translate(197.85494280586866,292.15089998426134)"><circle class="pool" r="7.827933977341493" cx="7.827933977341493" cy="7.827933977341493" style="stroke-width: 1; fill: rgb(65, 182, 196);"></circle><circle class="pearl" r="2.1904339371426507" cx="11.890984300088558" cy="9.159942968528117"></circle><circle class="pearl" r="2.1904339371426507" cx="4.479044932655029" cy="11.252625402343469"></circle><circle class="pearl" r="2.1904339371426507" cx="6.142063409879567" cy="3.8344181474200303"></circle></g><g class="bobaCup bright" cupRadius="7.692100848411878" width="15.384201696823755" height="15.384201696823755" pearlRadius="2.7380424214283137" pearlCount="3" transform="translate(176.37637487052032,180.30588194211947)"><circle class="pool" r="7.692100848411878" cx="7.692100848411878" cy="7.692100848411878" style="stroke-width: 1; fill: rgb(29, 145, 192);"></circle><circle class="pearl" r="2.190433937142651" cx="11.668329714985163" cy="8.691108956743154"></circle><circle class="pearl" r="2.190433937142651" cx="4.5056776669286265" cy="11.042457734412036"></circle><circle class="pearl" r="2.190433937142651" cx="5.585071848793201" cy="3.94492949427197"></circle></g><g class="bobaCup bright" cupRadius="7.253664464881853" width="14.507328929763705" height="14.507328929763705" pearlRadius="2.738042421428314" pearlCount="3" transform="translate(234.51054905307006,210.38196631311388)"><circle class="pool" r="7.253664464881853" cx="7.253664464881853" cy="7.253664464881853" style="stroke-width: 1; fill: rgb(127, 205, 187);"></circle><circle class="pearl" r="2.1904339371426516" cx="10.183263100899818" cy="10.238685354413228"></circle><circle class="pearl" r="2.1904339371426516" cx="4.327850159742683" cy="10.240354800413334"></circle><circle class="pearl" r="2.1904339371426516" cx="6.827340762574775" cy="3.663262347904712"></circle></g><g class="bobaCup bright" cupRadius="6.826491365128713" width="13.652982730257426" height="13.652982730257426" pearlRadius="2.7380424214283137" pearlCount="2" transform="translate(234.42976293962803,67.54472243490801)"><circle class="pool" r="6.826491365128713" cx="6.826491365128713" cy="6.826491365128713" style="stroke-width: 1; fill: rgb(65, 182, 196);"></circle><circle class="pearl" r="2.190433937142651" cx="9.42337445332116" cy="4.163960077648909"></circle><circle class="pearl" r="2.190433937142651" cx="4.229608276936268" cy="9.489022652608519"></circle></g><g class="bobaCup bright" cupRadius="6.711264535350296" width="13.422529070700593" height="13.422529070700593" pearlRadius="2.7380424214283137" pearlCount="2" transform="translate(93.7207749833697,132.6814105988992)"><circle class="pool" r="6.711264535350296" cx="6.711264535350296" cy="6.711264535350296" style="stroke-width: 1; fill: rgb(65, 182, 196);"></circle><circle class="pearl" r="2.190433937142651" cx="9.198276536285114" cy="4.12854225035051"></circle><circle class="pearl" r="2.190433937142651" cx="4.22425253441548" cy="9.293986820350083"></circle></g><g class="bobaCup bright" cupRadius="6.6304956703090445" width="13.260991340618089" height="13.260991340618089" pearlRadius="2.7380424214283137" pearlCount="2" transform="translate(248.66229841840186,102.33287841751039)"><circle class="pool" r="6.6304956703090445" cx="6.6304956703090445" cy="6.6304956703090445" style="stroke-width: 1; fill: rgb(29, 145, 192);"></circle><circle class="pearl" r="2.190433937142651" cx="9.040518877098632" cy="4.104224405056891"></circle><circle class="pearl" r="2.190433937142651" cx="4.220472463519455" cy="9.156766935561198"></circle></g><g class="bobaCup bright" cupRadius="6.469243069615248" width="12.938486139230497" height="12.938486139230497" pearlRadius="2.7380424214283132" pearlCount="2" transform="translate(275.3889700588199,170.47902516582135)"><circle class="pool" r="6.469243069615248" cx="6.469243069615248" cy="6.469243069615248" style="stroke-width: 1; fill: rgb(127, 205, 187);"></circle><circle class="pearl" r="2.1904339371426507" cx="8.725609596409623" cy="4.056970669742682"></circle><circle class="pearl" r="2.1904339371426507" cx="4.212876542820872" cy="8.881515469487812"></circle></g><g class="bobaCup bright" cupRadius="5.950433974682884" width="11.900867949365768" height="11.900867949365768" pearlRadius="2.7380424214283137" pearlCount="2" transform="translate(143.82858106261614,14.049566025317116)"><circle class="pool" r="5.950433974682884" cx="5.950433974682884" cy="5.950433974682884" style="stroke-width: 1; fill: rgb(127, 205, 187);"></circle><circle class="pearl" r="2.190433937142651" cx="7.78778827574622" cy="3.9414934624099596"></circle><circle class="pearl" r="2.190433937142651" cx="4.113079673619548" cy="7.959374486955809"></circle></g><g class="bobaCup bright" cupRadius="5.890524096330455" width="11.78104819266091" height="11.78104819266091" pearlRadius="2.7380424214283137" pearlCount="2" transform="translate(86.73120148214593,216.75569272299063)"><circle class="pool" r="5.890524096330455" cx="5.890524096330455" cy="5.890524096330455" style="stroke-width: 1; fill: rgb(65, 182, 196);"></circle><circle class="pearl" r="2.190433937142651" cx="7.687879997345696" cy="3.931631839457336"></circle><circle class="pearl" r="2.190433937142651" cx="4.093168195315214" cy="7.849416353203573"></circle></g><g class="bobaCup bright" cupRadius="5.719037341929576" width="11.438074683859153" height="11.438074683859153" pearlRadius="2.7380424214283132" pearlCount="2" transform="translate(141.1511835633323,277.2178621204304)"><circle class="pool" r="5.719037341929576" cx="5.719037341929576" cy="5.719037341929576" style="stroke-width: 1; fill: rgb(127, 205, 187);"></circle><circle class="pearl" r="2.1904339371426507" cx="7.400242924479941" cy="3.9034148160147257"></circle><circle class="pearl" r="2.1904339371426507" cx="4.037831759379212" cy="7.534659867844426"></circle></g><g class="bobaCup bright" cupRadius="5.651183315252185" width="11.30236663050437" height="11.30236663050437" pearlRadius="2.7380424214283137" pearlCount="2" transform="translate(252.46536328551986,123.79572083017302)"><circle class="pool" r="5.651183315252185" cx="5.651183315252185" cy="5.651183315252185" style="stroke-width: 1; fill: rgb(127, 205, 187);"></circle><circle class="pearl" r="2.190433937142651" cx="7.285725671699559" cy="3.8922721617634117"></circle><circle class="pearl" r="2.190433937142651" cx="4.01664095880481" cy="7.410094468740958"></circle></g><g class="bobaCup bright" cupRadius="5.548977859501773" width="11.097955719003545" height="11.097955719003545" pearlRadius="2.738042421428314" pearlCount="2" transform="translate(188.1253476956148,163.63754393532372)"><circle class="pool" r="5.548977859501773" cx="5.548977859501773" cy="5.548977859501773" style="stroke-width: 1; fill: rgb(65, 182, 196);"></circle><circle class="pearl" r="2.1904339371426516" cx="7.1124453295330206" cy="3.875536857379465"></circle><circle class="pearl" r="2.1904339371426516" cx="3.985510389470526" cy="7.222418861624082"></circle></g><g class="bobaCup bright" cupRadius="4.979502823048215" width="9.95900564609643" height="9.95900564609643" pearlRadius="2.7380424214283132" pearlCount="1" transform="translate(265.9281234789885,72.2827262017853)"><circle class="pool" r="4.979502823048215" cx="4.979502823048215" cy="4.979502823048215" style="stroke-width: 1; fill: rgb(29, 145, 192);"></circle><circle class="pearl" r="2.1904339371426507" cx="6.308282417525345" cy="4.979502823048215"></circle></g><g class="bobaCup bright" cupRadius="4.781685110729097" width="9.563370221458195" height="9.563370221458195" pearlRadius="2.7380424214283132" pearlCount="1" transform="translate(273.3952576169429,233.71605958252601)"><circle class="pool" r="4.781685110729097" cx="4.781685110729097" cy="4.781685110729097" style="stroke-width: 1; fill: rgb(127, 205, 187);"></circle><circle class="pearl" r="2.1904339371426507" cx="5.912646992887111" cy="4.781685110729097"></circle></g><g class="bobaCup bright" cupRadius="4.144030667091479" width="8.288061334182958" height="8.288061334182958" pearlRadius="2.7380424214283137" pearlCount="1" transform="translate(180.95447730795536,144.521320935093)"><circle class="pool" r="4.144030667091479" cx="4.144030667091479" cy="4.144030667091479" style="stroke-width: 1; fill: rgb(29, 145, 192);"></circle><circle class="pearl" r="2.190433937142651" cx="4.637338105611873" cy="4.144030667091479"></circle></g><g class="bobaCup bright" cupRadius="0" width="0" height="0" pearlRadius="NaN" pearlCount="0" transform="translate(20,300)"><circle class="pool" r="0" cx="0" cy="0" style="stroke-width: 1; fill: rgb(127, 205, 187);"></circle></g><g class="bobaCup bright" cupRadius="0" width="0" height="0" pearlRadius="NaN" pearlCount="0" transform="translate(119.0103071665174,299.92279388363346)"><circle class="pool" r="0" cx="0" cy="0" style="stroke-width: 1; fill: rgb(127, 205, 187);"></circle></g></g><g id="legendDividerGroup" transform="translate(410,0)" height="400"><rect class="legendDivider" height="400" width="90"></rect></g><g id="legend" transform="translate(410,30)" width="90" height="320"><rect class="legendBorder" transform="translate(0,0)" width="90" height="324.9477195110013"></rect><text id="rTitle" text-anchor="middle" alignment-baseline="hanging" transform="translate(45,10)" x="0" y="0" style="fill: black; font-size: 0.8rem;">Population</text><text id="bobaValue" text-anchor="middle" alignment-baseline="hanging" transform="translate(45,25)" x="0" y="0" style="fill: black; font-size: 0.7rem;">(1 Pearl =   75)</text><g class="bright" cupRadius="8.944271909999157" width="17.888543819998315" height="17.888543819998315" pearlRadius="2.7380424214283137" pearlCount="4" transform="translate(36.05572809000084,50)"><circle class="pool" r="8.944271909999157" cx="8.944271909999157" cy="8.944271909999157" style="stroke-width: 1; fill: rgb(65, 182, 196);"></circle><circle class="pearl" r="2.190433937142651" cx="13.542613460651705" cy="5.486970900805408"></circle><circle class="pearl" r="2.190433937142651" cx="4.749399498236599" cy="12.229516637519536"></circle><circle class="pearl" r="2.190433937142651" cx="5.638545202394075" cy="4.284028231246737"></circle><circle class="pearl" r="2.190433937142651" cx="12.653467756495177" cy="13.432459307079188"></circle></g><text id="0" class="legendSampleValue" text-anchor="middle" transform="translate(45,8)" x="0" y="72.88854381999832" style="fill: black; font-size: 0.7rem;"> 300</text><g class="bright" cupRadius="12.649110640673516" width="25.298221281347033" height="25.298221281347033" pearlRadius="2.738042421428314" pearlCount="8" transform="translate(32.35088935932649,92.88854381999832)"><circle class="pool" r="12.649110640673516" cx="12.649110640673516" cy="12.649110640673516" style="stroke-width: 1; fill: rgb(65, 182, 196);"></circle><circle class="pearl" r="2.1904339371426516" cx="14.071403428550017" cy="12.84687879177114"></circle><circle class="pearl" r="2.1904339371426516" cx="6.440581911774734" cy="19.57795138257093"></circle><circle class="pearl" r="2.1904339371426516" cx="15.102737084551539" cy="3.89097746448665"></circle><circle class="pearl" r="2.1904339371426516" cx="20.833946229646855" cy="17.1122426661066"></circle><circle class="pearl" r="2.1904339371426516" cx="3.6634707295578797" cy="12.081372495075822"></circle><circle class="pearl" r="2.1904339371426516" cx="21.146215105325396" cy="9.123450087562196"></circle><circle class="pearl" r="2.1904339371426516" cx="14.187116834584858" cy="21.553646746241665"></circle><circle class="pearl" r="2.1904339371426516" cx="7.171845845081945" cy="4.898098459274188"></circle></g><text id="1" class="legendSampleValue" text-anchor="middle" transform="translate(45,8)" x="0" y="123.18676510134534" style="fill: black; font-size: 0.7rem;"> 600</text><g class="bright" cupRadius="15.491933384829666" width="30.983866769659333" height="30.983866769659333" pearlRadius="2.7380424214283137" pearlCount="12" transform="translate(29.508066615170335,143.18676510134534)"><circle class="pool" r="15.491933384829666" cx="15.491933384829666" cy="15.491933384829666" style="stroke-width: 1; fill: rgb(65, 182, 196);"></circle><circle class="pearl" r="2.190433937142651" cx="17.03301174338476" cy="11.017376109139578"></circle><circle class="pearl" r="2.190433937142651" cx="11.029309432951331" cy="17.003470400319355"></circle><circle class="pearl" r="2.190433937142651" cx="13.977981653444434" cy="3.7248762882360538"></circle><circle class="pearl" r="2.190433937142651" cx="18.741808845067855" cy="18.756462357333636"></circle><circle class="pearl" r="2.190433937142651" cx="3.7255296891956267" cy="13.971342248807426"></circle><circle class="pearl" r="2.190433937142651" cx="26.986613481001935" cy="12.233596672509563"></circle><circle class="pearl" r="2.190433937142651" cx="12.152198575888583" cy="26.968872613027877"></circle><circle class="pearl" r="2.190433937142651" cx="6.524197378590721" cy="6.5101702816287865"></circle><circle class="pearl" r="2.190433937142651" cx="26.508263068801245" cy="20.47967424223933"></circle><circle class="pearl" r="2.190433937142651" cx="5.419021306595214" cy="22.67955009454649"></circle><circle class="pearl" r="2.190433937142651" cx="22.7607980495765" cy="5.461881544509557"></circle><circle class="pearl" r="2.190433937142651" cx="20.400071923945603" cy="26.53509242340789"></circle></g><text id="2" class="legendSampleValue" text-anchor="middle" transform="translate(45,8)" x="0" y="179.17063187100467" style="fill: black; font-size: 0.7rem;"> 900</text><g class="bright" cupRadius="17.888543819998315" width="35.77708763999663" height="35.77708763999663" pearlRadius="2.7380424214283137" pearlCount="16" transform="translate(27.111456180001685,199.17063187100467)"><circle class="pool" r="17.888543819998315" cx="17.888543819998315" cy="17.888543819998315" style="stroke-width: 1; fill: rgb(65, 182, 196);"></circle><circle class="pearl" r="2.190433937142651" cx="19.804693062551593" cy="19.706925044831753"></circle><circle class="pearl" r="2.190433937142651" cx="13.339172784724301" cy="23.858410298028687"></circle><circle class="pearl" r="2.190433937142651" cx="16.092791630714295" cy="11.11354324394561"></circle><circle class="pearl" r="2.190433937142651" cx="20.83612953404815" cy="27.499380517199562"></circle><circle class="pearl" r="2.190433937142651" cx="10.312657514553903" cy="16.56124087753137"></circle><circle class="pearl" r="2.190433937142651" cx="23.67875583770065" cy="13.13675787817294"></circle><circle class="pearl" r="2.190433937142651" cx="14.311679794483904" cy="31.76511484190927"></circle><circle class="pearl" r="2.190433937142651" cx="11.081450997216848" cy="4.996489551968747"></circle><circle class="pearl" r="2.190433937142651" cx="27.67435150439312" cy="20.796258814455644"></circle><circle class="pearl" r="2.190433937142651" cx="4.000488629236898" cy="21.40866477780025"></circle><circle class="pearl" r="2.190433937142651" cx="28.33359673438834" cy="7.016840611654928"></circle><circle class="pearl" r="2.190433937142651" cx="28.522531366621056" cy="28.622475917790542"></circle><circle class="pearl" r="2.190433937142651" cx="5.303915419923033" cy="10.377661215789297"></circle><circle class="pearl" r="2.190433937142651" cx="31.694235049536683" cy="13.980399213320226"></circle><circle class="pearl" r="2.190433937142651" cx="7.3110738720782" cy="28.664085856590173"></circle><circle class="pearl" r="2.190433937142651" cx="18.987039995684736" cy="3.6844832035601804"></circle></g><text id="3" class="legendSampleValue" text-anchor="middle" transform="translate(45,8)" x="0" y="239.9477195110013" style="fill: black; font-size: 0.7rem;">1.2k</text><g class="bright" cupRadius="20" width="40" height="40" pearlRadius="2.7380424214283137" pearlCount="20" transform="translate(25,259.9477195110013)"><circle class="pool" r="20" cx="20" cy="20" style="stroke-width: 1; fill: rgb(65, 182, 196);"></circle><circle class="pearl" r="2.190433937142651" cx="22.480421380823074" cy="19.96094551607325"></circle><circle class="pearl" r="2.190433937142651" cx="14.554532211889109" cy="20.25858246523202"></circle><circle class="pearl" r="2.190433937142651" cx="21.718613402750453" cy="11.231225788085391"></circle><circle class="pearl" r="2.190433937142651" cx="25.13767186853209" cy="27.447308990534317"></circle><circle class="pearl" r="2.190433937142651" cx="6.622341466842937" cy="15.212813608895589"></circle><circle class="pearl" r="2.190433937142651" cx="28.49521909515808" cy="14.82158787688231"></circle><circle class="pearl" r="2.190433937142651" cx="17.504603283401977" cy="28.993209871734443"></circle><circle class="pearl" r="2.190433937142651" cx="14.13811847195522" cy="12.373399584276378"></circle><circle class="pearl" r="2.190433937142651" cx="31.11803529924844" cy="22.444175683247455"></circle><circle class="pearl" r="2.190433937142651" cx="10.013176726772668" cy="26.767604068489224"></circle><circle class="pearl" r="2.190433937142651" cx="25.1625299271706" cy="4.328500666167248"></circle><circle class="pearl" r="2.190433937142651" cx="27.782608687955303" cy="34.772930101052836"></circle><circle class="pearl" r="2.190433937142651" cx="8.036930275650786" cy="7.623092000895575"></circle><circle class="pearl" r="2.190433937142651" cx="36.040664285033515" cy="16.500106031740792"></circle><circle class="pearl" r="2.190433937142651" cx="11.3070075503718" cy="34.36126950601293"></circle><circle class="pearl" r="2.190433937142651" cx="16.81383473400994" cy="3.9061454691506903"></circle><circle class="pearl" r="2.190433937142651" cx="33.74247113697989" cy="29.87303346303284"></circle><circle class="pearl" r="2.190433937142651" cx="3.788525504185259" cy="22.343736665541265"></circle><circle class="pearl" r="2.190433937142651" cx="32.18050534208177" cy="7.787706818962306"></circle><circle class="pearl" r="2.190433937142651" cx="20.00567962395882" cy="36.34927596497569"></circle></g><text id="4" class="legendSampleValue" text-anchor="middle" transform="translate(45,8)" x="0" y="304.9477195110013" style="fill: black; font-size: 0.7rem;">1.5k</text></g></svg>