<?xml version="1.0" standalone="no"?>
<?xml-stylesheet xmlns="http://www.w3.org/2000/svg" type="text/css" href="style.css"?>
<svg id="syntheticVisC" class="default" xTitle="Percent Cat Owners" yTitle="Percent Dog Owners" rTitle="Population" chartTitle="Towns in Vizzyland" width="500" height="400" xmlns="http://www.w3.org/2000/svg"><rect class="background" width="500" height="400"></rect><text id="chartTitle" text-anchor="middle" transform="translate(250,20)" x="0" y="0" style="fill: black; font-size: 1.2rem;">Towns in Vizzyland</text><g id="yAxis" transform="translate(50,30)" fill="none" font-size="10" font-family="sans-serif" text-anchor="end"><path class="domain" stroke="currentColor" d="M-6,300H0V20H-6"></path><g class="tick" opacity="1" transform="translate(0,300)"><line stroke="currentColor" x2="-6"></line><text fill="currentColor" x="-9" dy="0.32em">0</text></g><g class="tick" opacity="1" transform="translate(0,272)"><line stroke="currentColor" x2="-6"></line><text fill="currentColor" x="-9" dy="0.32em">10</text></g><g class="tick" opacity="1" transform="translate(0,244)"><line stroke="currentColor" x2="-6"></line><text fill="currentColor" x="-9" dy="0.32em">20</text></g><g class="tick" opacity="1" transform="translate(0,216)"><line stroke="currentColor" x2="-6"></line><text fill="currentColor" x="-9" dy="0.32em">30</text></g><g class="tick" opacity="1" transform="translate(0,188)"><line stroke="currentColor" x2="-6"></line><text fill="currentColor" x="-9" dy="0.32em">40</text></g><g class="tick" opacity="1" transform="translate(0,160)"><line stroke="currentColor" x2="-6"></line><text fill="currentColor" x="-9" dy="0.32em">50</text></g><g class="tick" opacity="1" transform="translate(0,132)"><line stroke="currentColor" x2="-6"></line><text fill="currentColor" x="-9" dy="0.32em">60</text></g><g class="tick" opacity="1" transform="translate(0,104.00000000000001)"><line stroke="currentColor" x2="-6"></line><text fill="currentColor" x="-9" dy="0.32em">70</text></g><g class="tick" opacity="1" transform="translate(0,75.99999999999999)"><line stroke="currentColor" x2="-6"></line><text fill="currentColor" x="-9" dy="0.32em">80</text></g><g class="tick" opacity="1" transform="translate(0,47.99999999999999)"><line stroke="currentColor" x2="-6"></line><text fill="currentColor" x="-9" dy="0.32em">90</text></g><g class="tick" opacity="1" transform="translate(0,20)"><line stroke="currentColor" x2="-6"></line><text fill="currentColor" x="-9" dy="0.32em">100</text></g></g><g id="xAxis" transform="translate(60,360)" fill="none" font-size="10" font-family="sans-serif" text-anchor="middle"><path class="domain" stroke="currentColor" d="M20,6V0H320V6"></path><g class="tick" opacity="1" transform="translate(20,0)"><line stroke="currentColor" y2="6"></line><text fill="currentColor" y="9" dy="0.71em">0</text></g><g class="tick" opacity="1" transform="translate(50.00000000000001,0)"><line stroke="currentColor" y2="6"></line><text fill="currentColor" y="9" dy="0.71em">10</text></g><g class="tick" opacity="1" transform="translate(80.00000000000001,0)"><line stroke="currentColor" y2="6"></line><text fill="currentColor" y="9" dy="0.71em">20</text></g><g class="tick" opacity="1" transform="translate(110.00000000000001,0)"><line stroke="currentColor" y2="6"></line><text fill="currentColor" y="9" dy="0.71em">30</text></g><g class="tick" opacity="1" transform="translate(140.00000000000003,0)"><line stroke="currentColor" y2="6"></line><text fill="currentColor" y="9" dy="0.71em">40</text></g><g class="tick" opacity="1" transform="translate(170.00000000000003,0)"><line stroke="currentColor" y2="6"></line><text fill="currentColor" y="9" dy="0.71em">50</text></g><g class="tick" opacity="1" transform="translate(200.00000000000003,0)"><line stroke="currentColor" y2="6"></line><text fill="currentColor" y="9" dy="0.71em">60</text></g><g class="tick" opacity="1" transform="translate(230.00000000000003,0)"><line stroke="currentColor" y2="6"></line><text fill="currentColor" y="9" dy="0.71em">70</text></g><g class="tick" opacity="1" transform="translate(260.00000000000006,0)"><line stroke="currentColor" y2="6"></line><text fill="currentColor" y="9" dy="0.71em">80</text></g><g class="tick" opacity="1" transform="translate(290.00000000000006,0)"><line stroke="currentColor" y2="6"></line><text fill="currentColor" y="9" dy="0.71em">90</text></g></g><g id="labels"><text id="xTitle" text-anchor="middle" transform="translate(250,350)" x="0" y="40" style="fill: black; font-size: 0.8rem;">Percent Cat Owners</text><g id="group-yTitle" transform="translate(60,190)"><text id="yTitle" text-anchor="middle" transform="rotate(-90)" y="-45" style="fill: black; font-size: 0.8rem;">Percent Dog Owners</text></g></g><g id="quadrant_lines" transform="translate(60,30)"><line id="verticalQuadrantLine" x1="170" y1="10" x2="170" y2="310" class="quadrantLine"></line><line id="horizontalQuadrantLine" x1="10" y1="160" x2="330" y2="160" class="quadrantLine"></line></g><g id="chart" transform="translate(60,30)"><g class="bobaCup bright" cupRadius="20" width="40" height="40" pearlRadius="2.7380424214283137" pearlCount="20" transform="translate(102.90760751793401,2.296800195238447)"><circle class="pool" r="20" cx="20" cy="20" style="stroke-width: 1; fill: rgb(127, 205, 187);"></circle><circle class="pearl" r="2.190433937142651" cx="22.480421380823074" cy="19.96094551607325"></circle><circle class="pearl" r="2.190433937142651" cx="14.554532211889109" cy="20.25858246523202"></circle><circle class="pearl" r="2.190433937142651" cx="21.718613402750453" cy="11.231225788085391"></circle><circle class="pearl" r="2.190433937142651" cx="25.13767186853209" cy="27.447308990534317"></circle><circle class="pearl" r="2.190433937142651" cx="6.622341466842937" cy="15.212813608895589"></circle><circle class="pearl" r="2.190433937142651" cx="28.49521909515808" cy="14.82158787688231"></circle><circle class="pearl" r="2.190433937142651" cx="17.504603283401977" cy="28.993209871734443"></circle><circle class="pearl" r="2.190433937142651" cx="14.13811847195522" cy="12.373399584276378"></circle><circle class="pearl" r="2.190433937142651" cx="31.11803529924844" cy="22.444175683247455"></circle><circle class="pearl" r="2.190433937142651" cx="10.013176726772668" cy="26.767604068489224"></circle><circle class="pearl" r="2.190433937142651" cx="25.1625299271706" cy="4.328500666167248"></circle><circle class="pearl" r="2.190433937142651" cx="27.782608687955303" cy="34.772930101052836"></circle><circle class="pearl" r="2.190433937142651" cx="8.036930275650786" cy="7.623092000895575"></circle><circle class="pearl" r="2.190433937142651" cx="36.040664285033515" cy="16.500106031740792"></circle><circle class="pearl" r="2.190433937142651" cx="11.3070075503718" cy="34.36126950601293"></circle><circle class="pearl" r="2.190433937142651" cx="16.81383473400994" cy="3.9061454691506903"></circle><circle class="pearl" r="2.190433937142651" cx="33.74247113697989" cy="29.87303346303284"></circle><circle class="pearl" r="2.190433937142651" cx="3.788525504185259" cy="22.343736665541265"></circle><circle class="pearl" r="2.190433937142651" cx="32.18050534208177" cy="7.787706818962306"></circle><circle class="pearl" r="2.190433937142651" cx="20.00567962395882" cy="36.34927596497569"></circle></g><g class="bobaCup bright" cupRadius="19.173403030439836" width="38.34680606087967" height="38.34680606087967" pearlRadius="2.7380424214283137" pearlCount="18" transform="translate(271.958822139455,68.85975660726831)"><circle class="pool" r="19.173403030439836" cx="19.173403030439836" cy="19.173403030439836" style="stroke-width: 1; fill: rgb(127, 205, 187);"></circle><circle class="pearl" r="2.190433937142651" cx="20.758512254508016" cy="18.794421503614885"></circle><circle class="pearl" r="2.190433937142651" cx="14.215627332950914" cy="23.377928374549345"></circle><circle class="pearl" r="2.190433937142651" cx="18.84530759603615" cy="11.102057283948088"></circle><circle class="pearl" r="2.190433937142651" cx="21.440319558433085" cy="26.669309383773488"></circle><circle class="pearl" r="2.190433937142651" cx="11.85815960087687" cy="15.746769156120866"></circle><circle class="pearl" r="2.190433937142651" cx="27.40660990140023" cy="14.419251714819483"></circle><circle class="pearl" r="2.190433937142651" cx="16.411505393489385" cy="32.92570916978725"></circle><circle class="pearl" r="2.190433937142651" cx="13.753082093006268" cy="4.919262967391064"></circle><circle class="pearl" r="2.190433937142651" cx="28.28553935866642" cy="22.56834056948497"></circle><circle class="pearl" r="2.190433937142651" cx="6.244934322403793" cy="23.837507765398698"></circle><circle class="pearl" r="2.190433937142651" cx="29.711832939188596" cy="6.806608385567824"></circle><circle class="pearl" r="2.190433937142651" cx="24.589403625243193" cy="33.91524137780942"></circle><circle class="pearl" r="2.190433937142651" cx="6.737858757591873" cy="8.74021647788223"></circle><circle class="pearl" r="2.190433937142651" cx="34.64400219513688" cy="17.761165904323125"></circle><circle class="pearl" r="2.190433937142651" cx="8.54808846396991" cy="31.482694655597474"></circle><circle class="pearl" r="2.190433937142651" cx="22.26082757606243" cy="3.9009343125456866"></circle><circle class="pearl" r="2.190433937142651" cx="31.407150670663054" cy="29.9113250354697"></circle><circle class="pearl" r="2.190433937142651" cx="3.881417139159197" cy="16.208077589891047"></circle></g><g class="bobaCup bright" cupRadius="18.916301638462844" width="37.83260327692569" height="37.83260327692569" pearlRadius="2.7380424214283146" pearlCount="18" transform="translate(122.89538961281468,46.60646275966039)"><circle class="pool" r="18.916301638462844" cx="18.916301638462844" cy="18.916301638462844" style="stroke-width: 1; fill: rgb(29, 145, 192);"></circle><circle class="pearl" r="2.1904339371426516" cx="19.344996205965348" cy="18.489094199409898"></circle><circle class="pearl" r="2.1904339371426516" cx="13.671432204035305" cy="24.119501026295833"></circle><circle class="pearl" r="2.1904339371426516" cx="18.577317216435123" cy="10.646728886378499"></circle><circle class="pearl" r="2.1904339371426516" cx="21.37299576952203" cy="26.078848089557734"></circle><circle class="pearl" r="2.1904339371426516" cx="11.866451322755928" cy="15.76463361259936"></circle><circle class="pearl" r="2.1904339371426516" cx="26.083589362350825" cy="14.218291024775123"></circle><circle class="pearl" r="2.1904339371426516" cx="16.369986419712255" cy="32.368119826266245"></circle><circle class="pearl" r="2.1904339371426516" cx="13.678411020840182" cy="4.390364845040545"></circle><circle class="pearl" r="2.1904339371426516" cx="28.227763188943644" cy="21.897936291869797"></circle><circle class="pearl" r="2.1904339371426516" cx="5.69665428055183" cy="23.583829798901874"></circle><circle class="pearl" r="2.1904339371426516" cx="30.336227018106616" cy="7.4868467513524"></circle><circle class="pearl" r="2.1904339371426516" cx="24.271877341881247" cy="33.40791223336294"></circle><circle class="pearl" r="2.1904339371426516" cx="6.848634312202653" cy="8.392107320459067"></circle><circle class="pearl" r="2.1904339371426516" cx="34.011948146359906" cy="16.3864618449298"></circle><circle class="pearl" r="2.1904339371426516" cx="8.48718718408917" cy="31.047214553678824"></circle><circle class="pearl" r="2.1904339371426516" cx="23.150406224368123" cy="4.13067962094657"></circle><circle class="pearl" r="2.1904339371426516" cx="31.03514149897129" cy="29.363662437097712"></circle><circle class="pearl" r="2.1904339371426516" cx="3.9048632520443585" cy="15.825963221181997"></circle></g><g class="bobaCup bright" cupRadius="18.12911747121515" width="36.2582349424303" height="36.2582349424303" pearlRadius="2.7380424214283137" pearlCount="16" transform="translate(240.1642047356257,118.47532953182801)"><circle class="pool" r="18.12911747121515" cx="18.12911747121515" cy="18.12911747121515" style="stroke-width: 1; fill: rgb(65, 182, 196);"></circle><circle class="pearl" r="2.190433937142651" cx="19.85020776022977" cy="19.809430054947487"></circle><circle class="pearl" r="2.190433937142651" cx="13.58193042364506" cy="24.351171434008865"></circle><circle class="pearl" r="2.190433937142651" cx="16.660409646472413" cy="11.463870237437686"></circle><circle class="pearl" r="2.190433937142651" cx="21.141100492915825" cy="27.654207386687144"></circle><circle class="pearl" r="2.190433937142651" cx="10.839922249318205" cy="16.927616306476864"></circle><circle class="pearl" r="2.190433937142651" cx="24.312317951161344" cy="13.49429195523623"></circle><circle class="pearl" r="2.190433937142651" cx="14.67434391862814" cy="32.27528835328775"></circle><circle class="pearl" r="2.190433937142651" cx="10.64408029818796" cy="6.207296893162163"></circle><circle class="pearl" r="2.190433937142651" cx="27.696918119002905" cy="21.15722967649934"></circle><circle class="pearl" r="2.190433937142651" cx="4.409703535722451" cy="21.68563450520171"></circle><circle class="pearl" r="2.190433937142651" cx="28.843935800964946" cy="7.1559708820678"></circle><circle class="pearl" r="2.190433937142651" cx="28.97117130951919" cy="29.008183258745955"></circle><circle class="pearl" r="2.190433937142651" cx="4.839440466032208" cy="11.672513084593273"></circle><circle class="pearl" r="2.190433937142651" cx="32.26740633765604" cy="14.633985289360496"></circle><circle class="pearl" r="2.190433937142651" cx="7.369514999060453" cy="29.069345374298262"></circle><circle class="pearl" r="2.190433937142651" cx="18.267065480343746" cy="3.651248072891672"></circle></g><g class="bobaCup bright" cupRadius="17.289207109648874" width="34.57841421929775" height="34.57841421929775" pearlRadius="2.7380424214283137" pearlCount="15" transform="translate(90.2099196590938,272.6802505937651)"><circle class="pool" r="17.289207109648874" cx="17.289207109648874" cy="17.289207109648874" style="stroke-width: 1; fill: rgb(29, 145, 192);"></circle><circle class="pearl" r="2.190433937142651" cx="18.506756726587007" cy="17.46398806351478"></circle><circle class="pearl" r="2.190433937142651" cx="12.875523169384381" cy="22.870524286660704"></circle><circle class="pearl" r="2.190433937142651" cx="16.197331223165413" cy="9.88011738906784"></circle><circle class="pearl" r="2.190433937142651" cx="20.009185997402327" cy="25.544280514057558"></circle><circle class="pearl" r="2.190433937142651" cx="10.775547668816143" cy="15.611692129844387"></circle><circle class="pearl" r="2.190433937142651" cx="23.66340464750549" cy="11.524657446261262"></circle><circle class="pearl" r="2.190433937142651" cx="14.24372379551319" cy="30.657347352639402"></circle><circle class="pearl" r="2.190433937142651" cx="10.219859205986548" cy="5.1620660119773785"></circle><circle class="pearl" r="2.190433937142651" cx="25.893374189716326" cy="20.188338174900228"></circle><circle class="pearl" r="2.190433937142651" cx="4.28420151505873" cy="20.356445869044204"></circle><circle class="pearl" r="2.190433937142651" cx="21.610904015328966" cy="4.199571371466341"></circle><circle class="pearl" r="2.190433937142651" cx="27.390741747464435" cy="27.66972332887233"></circle><circle class="pearl" r="2.190433937142651" cx="5.056888448688092" cy="10.459444096504924"></circle><circle class="pearl" r="2.190433937142651" cx="30.6598154802258" cy="14.257548640728148"></circle><circle class="pearl" r="2.190433937142651" cx="7.206378497364774" cy="27.683171476593692"></circle></g><g class="bobaCup bright" cupRadius="17.168335953099078" width="34.336671906198156" height="34.336671906198156" pearlRadius="2.7380424214283146" pearlCount="15" transform="translate(73.39072559025621,154.37722249018228)"><circle class="pool" r="17.168335953099078" cx="17.168335953099078" cy="17.168335953099078" style="stroke-width: 1; fill: rgb(127, 205, 187);"></circle><circle class="pearl" r="2.1904339371426516" cx="18.39614236603634" cy="17.406661668045903"></circle><circle class="pearl" r="2.1904339371426516" cx="12.737057845661704" cy="22.69742730787477"></circle><circle class="pearl" r="2.1904339371426516" cx="16.09280693408578" cy="9.841807593349364"></circle><circle class="pearl" r="2.1904339371426516" cx="19.841091462093992" cy="25.261920307195364"></circle><circle class="pearl" r="2.1904339371426516" cx="10.656683893981429" cy="15.528451263011714"></circle><circle class="pearl" r="2.1904339371426516" cx="23.479482592669793" cy="11.459113676467696"></circle><circle class="pearl" r="2.1904339371426516" cx="14.20236484537466" cy="30.427810085487987"></circle><circle class="pearl" r="2.1904339371426516" cx="10.23253491480258" cy="5.114078336230089"></circle><circle class="pearl" r="2.1904339371426516" cx="25.8108006190668" cy="20.02578722246394"></circle><circle class="pearl" r="2.1904339371426516" cx="4.161751245032669" cy="20.271676104399205"></circle><circle class="pearl" r="2.1904339371426516" cx="21.50499128339122" cy="4.207461427549004"></circle><circle class="pearl" r="2.1904339371426516" cx="27.159329922198566" cy="27.479410563914296"></circle><circle class="pearl" r="2.1904339371426516" cx="5.095856332681625" cy="10.273943190278477"></circle><circle class="pearl" r="2.1904339371426516" cx="30.402177236762352" cy="14.059760615316407"></circle><circle class="pearl" r="2.1904339371426516" cx="7.219546910000239" cy="27.5095159536956"></circle></g><g class="bobaCup bright" cupRadius="17.10946237170713" width="34.21892474341426" height="34.21892474341426" pearlRadius="2.7380424214283137" pearlCount="15" transform="translate(147.12320602402457,252.36007895858745)"><circle class="pool" r="17.10946237170713" cx="17.10946237170713" cy="17.10946237170713" style="stroke-width: 1; fill: rgb(29, 145, 192);"></circle><circle class="pearl" r="2.190433937142651" cx="18.338646257003894" cy="17.350411977453387"></circle><circle class="pearl" r="2.190433937142651" cx="12.684120833665373" cy="22.603004558712435"></circle><circle class="pearl" r="2.190433937142651" cx="16.067833880447136" cy="9.804744129947201"></circle><circle class="pearl" r="2.190433937142651" cx="19.760745684267043" cy="25.18035700686885"></circle><circle class="pearl" r="2.190433937142651" cx="10.616187560826758" cy="15.464110747971295"></circle><circle class="pearl" r="2.190433937142651" cx="23.41989662357492" cy="11.443525492152045"></circle><circle class="pearl" r="2.190433937142651" cx="14.148396413749822" cy="30.310023694810095"></circle><circle class="pearl" r="2.190433937142651" cx="10.238381965975009" cy="5.091045333281233"></circle><circle class="pearl" r="2.190433937142651" cx="25.732398223996082" cy="19.973263457475223"></circle><circle class="pearl" r="2.190433937142651" cx="4.106508547925359" cy="20.190855146564612"></circle><circle class="pearl" r="2.190433937142651" cx="21.514697686432346" cy="4.227563168529521"></circle><circle class="pearl" r="2.190433937142651" cx="27.03794614163105" cy="27.392830885306385"></circle><circle class="pearl" r="2.190433937142651" cx="5.11590056787127" cy="10.18197736821054"></circle><circle class="pearl" r="2.190433937142651" cx="30.289325053948073" cy="14.032925268462966"></circle><circle class="pearl" r="2.190433937142651" cx="7.2116736818303835" cy="27.4146512129153"></circle></g><g class="bobaCup bright" cupRadius="17.072888435624208" width="34.145776871248415" height="34.145776871248415" pearlRadius="2.7380424214283132" pearlCount="15" transform="translate(2.9271115643757923,50.65075638056109)"><circle class="pool" r="17.072888435624208" cx="17.072888435624208" cy="17.072888435624208" style="stroke-width: 1; fill: rgb(127, 205, 187);"></circle><circle class="pearl" r="2.1904339371426507" cx="18.302245482003" cy="17.315714945237506"></circle><circle class="pearl" r="2.1904339371426507" cx="12.650666570771216" cy="22.543797861149415"></circle><circle class="pearl" r="2.1904339371426507" cx="16.053778602667848" cy="9.781762995053755"></circle><circle class="pearl" r="2.1904339371426507" cx="19.710518824025357" cy="25.12964914682058"></circle><circle class="pearl" r="2.1904339371426507" cx="10.590838042158769" cy="15.422906463453979"></circle><circle class="pearl" r="2.1904339371426507" cx="23.383469842973415" cy="11.435734464960756"></circle><circle class="pearl" r="2.1904339371426507" cx="14.11457472811975" cy="30.236798701223076"></circle><circle class="pearl" r="2.1904339371426507" cx="10.245454602548437" cy="5.075299717207428"></circle><circle class="pearl" r="2.1904339371426507" cx="25.682740616872113" cy="19.940783304485407"></circle><circle class="pearl" r="2.1904339371426507" cx="4.0730602093572745" cy="20.140329062742396"></circle><circle class="pearl" r="2.1904339371426507" cx="21.52404692027837" cy="4.241175324874514"></circle><circle class="pearl" r="2.1904339371426507" cx="26.96253394115475" cy="27.339005053448222"></circle><circle class="pearl" r="2.1904339371426507" cx="5.1300189345014475" cy="10.121386057309852"></circle><circle class="pearl" r="2.1904339371426507" cx="30.219546636152945" cy="14.018138583246232"></circle><circle class="pearl" r="2.1904339371426507" cx="7.206830112332432" cy="27.355736633527957"></circle></g><g class="bobaCup bright" cupRadius="16.553652506805857" width="33.107305013611715" height="33.107305013611715" pearlRadius="2.738042421428313" pearlCount="14" transform="translate(287.9131146258948,241.08931153312574)"><circle class="pool" r="16.553652506805857" cx="16.553652506805857" cy="16.553652506805857" style="stroke-width: 1; fill: rgb(65, 182, 196);"></circle><circle class="pearl" r="2.1904339371426502" cx="20.522378108224018" cy="12.256418552418381"></circle><circle class="pearl" r="2.1904339371426502" cx="12.934831647582152" cy="21.258380211386054"></circle><circle class="pearl" r="2.1904339371426502" cx="12.562351814918888" cy="12.535768558544147"></circle><circle class="pearl" r="2.1904339371426502" cx="20.787317656975933" cy="20.216300424222705"></circle><circle class="pearl" r="2.1904339371426502" cx="5.751080967477076" cy="17.804604536773407"></circle><circle class="pearl" r="2.1904339371426502" cx="26.2802712757656" cy="6.809738799670177"></circle><circle class="pearl" r="2.1904339371426502" cx="15.203521687606823" cy="29.401430970422727"></circle><circle class="pearl" r="2.1904339371426502" cx="11.002926653273208" cy="4.609092672379845"></circle><circle class="pearl" r="2.1904339371426502" cx="28.437770624087943" cy="22.27135446434532"></circle><circle class="pearl" r="2.1904339371426502" cx="6.840474014008661" cy="26.30731568280928"></circle><circle class="pearl" r="2.1904339371426502" cx="18.94565202169376" cy="3.8244566379926135"></circle><circle class="pearl" r="2.1904339371426502" cx="23.08628622836796" cy="28.113061032298887"></circle><circle class="pearl" r="2.1904339371426502" cx="5.0658459604944674" cy="9.856763111640618"></circle><circle class="pearl" r="2.1904339371426502" cx="29.29111861199183" cy="14.218987289475752"></circle></g><g class="bobaCup bright" cupRadius="15.38279898067266" width="30.76559796134532" height="30.76559796134532" pearlRadius="2.7380424214283137" pearlCount="12" transform="translate(70.63400806600559,50.64438009982017)"><circle class="pool" r="15.38279898067266" cx="15.38279898067266" cy="15.38279898067266" style="stroke-width: 1; fill: rgb(65, 182, 196);"></circle><circle class="pearl" r="2.190433937142651" cx="17.009060068717037" cy="10.878031658300687"></circle><circle class="pearl" r="2.190433937142651" cx="10.9169126807339" cy="16.897042800056052"></circle><circle class="pearl" r="2.190433937142651" cx="13.918193844420815" cy="3.7206049080026613"></circle><circle class="pearl" r="2.190433937142651" cx="18.539693158540725" cy="18.568874133115553"></circle><circle class="pearl" r="2.190433937142651" cx="3.722247869440926" cy="13.901116635809364"></circle><circle class="pearl" r="2.190433937142651" cx="26.875463117725037" cy="12.679407855722458"></circle><circle class="pearl" r="2.190433937142651" cx="12.407675776305172" cy="26.824429657262225"></circle><circle class="pearl" r="2.190433937142651" cx="6.504099550927608" cy="6.471707017320696"></circle><circle class="pearl" r="2.190433937142651" cx="26.12652504325926" cy="20.807772168078646"></circle><circle class="pearl" r="2.190433937142651" cx="5.543878709850917" cy="22.776040674210932"></circle><circle class="pearl" r="2.190433937142651" cx="23.04931912764497" cy="5.6972943574165456"></circle><circle class="pearl" r="2.190433937142651" cx="20.575495082130715" cy="26.21193803313471"></circle></g><g class="bobaCup bright" cupRadius="15.158175027048205" width="30.31635005409641" height="30.31635005409641" pearlRadius="2.7380424214283137" pearlCount="11" transform="translate(216.69119814691732,124.8908985436357)"><circle class="pool" r="15.158175027048205" cx="15.158175027048205" cy="15.158175027048205" style="stroke-width: 1; fill: rgb(127, 205, 187);"></circle><circle class="pearl" r="2.190433937142651" cx="19.480082755522158" cy="14.952279151959196"></circle><circle class="pearl" r="2.190433937142651" cx="12.206853069240076" cy="18.150868945381767"></circle><circle class="pearl" r="2.190433937142651" cx="13.856256077153727" cy="9.300387930048869"></circle><circle class="pearl" r="2.190433937142651" cx="20.17330370096018" cy="24.753269522457558"></circle><circle class="pearl" r="2.190433937142651" cx="5.17956399560643" cy="14.307845352740939"></circle><circle class="pearl" r="2.190433937142651" cx="25.82550071831086" cy="10.181856580658776"></circle><circle class="pearl" r="2.190433937142651" cx="12.384255680692094" cy="26.409654374289165"></circle><circle class="pearl" r="2.190433937142651" cx="6.427771748897495" cy="6.4173556256041255"></circle><circle class="pearl" r="2.190433937142651" cx="26.057480499749904" cy="19.408696752997393"></circle><circle class="pearl" r="2.190433937142651" cx="5.5216799808943495" cy="22.453385830749728"></circle><circle class="pearl" r="2.190433937142651" cx="20.242600650050758" cy="4.528881230602025"></circle></g><g class="bobaCup bright" cupRadius="15.134151615826294" width="30.268303231652588" height="30.268303231652588" pearlRadius="2.738042421428313" pearlCount="11" transform="translate(286.0570827154087,81.22280606533702)"><circle class="pool" r="15.134151615826294" cx="15.134151615826294" cy="15.134151615826294" style="stroke-width: 1; fill: rgb(65, 182, 196);"></circle><circle class="pearl" r="2.1904339371426502" cx="19.46026605243663" cy="14.952400716562845"></circle><circle class="pearl" r="2.1904339371426502" cx="12.14002884421643" cy="18.03307339886883"></circle><circle class="pearl" r="2.1904339371426502" cx="13.823534222792798" cy="9.330584283229186"></circle><circle class="pearl" r="2.1904339371426502" cx="20.27134250246202" cy="24.94326851820772"></circle><circle class="pearl" r="2.1904339371426502" cx="5.065083581742148" cy="14.277128402124141"></circle><circle class="pearl" r="2.1904339371426502" cx="25.76837321793972" cy="10.135862276950688"></circle><circle class="pearl" r="2.1904339371426502" cx="12.443193099307999" cy="26.376422961658147"></circle><circle class="pearl" r="2.1904339371426502" cx="6.42426708249929" cy="6.408265593599781"></circle><circle class="pearl" r="2.1904339371426502" cx="25.991715617916103" cy="19.441371921714968"></circle><circle class="pearl" r="2.1904339371426502" cx="5.553289413078733" cy="22.48042224142496"></circle><circle class="pearl" r="2.1904339371426502" cx="20.164767204489415" cy="4.511282026542538"></circle></g><g class="bobaCup bright" cupRadius="14.944170410989948" width="29.888340821979895" height="29.888340821979895" pearlRadius="2.7380424214283137" pearlCount="11" transform="translate(12.415005869353216,28.968567423853536)"><circle class="pool" r="14.944170410989948" cx="14.944170410989948" cy="14.944170410989948" style="stroke-width: 1; fill: rgb(65, 182, 196);"></circle><circle class="pearl" r="2.190433937142651" cx="18.960675478302573" cy="15.054980904587058"></circle><circle class="pearl" r="2.190433937142651" cx="11.199035765643936" cy="16.745268968485078"></circle><circle class="pearl" r="2.190433937142651" cx="13.784868368637449" cy="9.083550156409997"></circle><circle class="pearl" r="2.190433937142651" cx="20.63577586947731" cy="25.111328951258262"></circle><circle class="pearl" r="2.190433937142651" cx="3.7215867822097377" cy="13.881600540402827"></circle><circle class="pearl" r="2.190433937142651" cx="25.60785953903229" cy="10.651638738708392"></circle><circle class="pearl" r="2.190433937142651" cx="12.758271646176954" cy="26.07688642579848"></circle><circle class="pearl" r="2.190433937142651" cx="6.382790883716028" cy="6.346179018724996"></circle><circle class="pearl" r="2.190433937142651" cx="25.64969736542361" cy="19.094629416411358"></circle><circle class="pearl" r="2.190433937142651" cx="5.700161857743959" cy="22.497588282900924"></circle><circle class="pearl" r="2.190433937142651" cx="20.378562842611693" cy="4.673844534991373"></circle></g><g class="bobaCup bright" cupRadius="14.909739589983017" width="29.819479179966034" height="29.819479179966034" pearlRadius="2.7380424214283137" pearlCount="11" transform="translate(48.14896950896991,74.19081731797161)"><circle class="pool" r="14.909739589983017" cx="14.909739589983017" cy="14.909739589983017" style="stroke-width: 1; fill: rgb(127, 205, 187);"></circle><circle class="pearl" r="2.190433937142651" cx="18.88141975818615" cy="15.054080312708072"></circle><circle class="pearl" r="2.190433937142651" cx="11.13767482984985" cy="16.640608225349254"></circle><circle class="pearl" r="2.190433937142651" cx="13.807804595289664" cy="8.994127675566451"></circle><circle class="pearl" r="2.190433937142651" cx="20.617737418292858" cy="25.032871864977995"></circle><circle class="pearl" r="2.190433937142651" cx="3.6905835506229394" cy="13.82023272985871"></circle><circle class="pearl" r="2.190433937142651" cx="25.591798137282282" cy="10.802221944690947"></circle><circle class="pearl" r="2.190433937142651" cx="12.748483846422177" cy="26.011280874090392"></circle><circle class="pearl" r="2.190433937142651" cx="6.382628905915036" cy="6.329816146249295"></circle><circle class="pearl" r="2.190433937142651" cx="25.5945108918294" cy="19.00777951285807"></circle><circle class="pearl" r="2.190433937142651" cx="5.6987115565241755" cy="22.45133684220874"></circle><circle class="pearl" r="2.190433937142651" cx="20.494418213885577" cy="4.7361473089589605"></circle></g><g class="bobaCup bright" cupRadius="14.870762517121426" width="29.74152503424285" height="29.74152503424285" pearlRadius="2.738042421428314" pearlCount="11" transform="translate(111.6710038191976,148.64285981062608)"><circle class="pool" r="14.870762517121426" cx="14.870762517121426" cy="14.870762517121426" style="stroke-width: 1; fill: rgb(29, 145, 192);"></circle><circle class="pearl" r="2.1904339371426516" cx="18.81156197922836" cy="15.033233796847599"></circle><circle class="pearl" r="2.1904339371426516" cx="11.111489081282263" cy="16.62108432686951"></circle><circle class="pearl" r="2.1904339371426516" cx="13.810830185153046" cy="8.923183620428276"></circle><circle class="pearl" r="2.1904339371426516" cx="20.645559437204987" cy="24.923735810745253"></circle><circle class="pearl" r="2.1904339371426516" cx="3.690426896449124" cy="13.784819953767832"></circle><circle class="pearl" r="2.1904339371426516" cx="25.5492464415891" cy="10.894155897662273"></circle><circle class="pearl" r="2.1904339371426516" cx="12.800726581016095" cy="25.94602071811408"></circle><circle class="pearl" r="2.1904339371426516" cx="6.3793614151890505" cy="6.313468496084562"></circle><circle class="pearl" r="2.1904339371426516" cx="25.539865340200283" cy="18.881019328238533"></circle><circle class="pearl" r="2.1904339371426516" cx="5.746345840084389" cy="22.482291813705817"></circle><circle class="pearl" r="2.1904339371426516" cx="20.555056247887112" cy="4.780001742026769"></circle></g><g class="bobaCup bright" cupRadius="14.587438091492064" width="29.17487618298413" height="29.17487618298413" pearlRadius="2.7380424214283137" pearlCount="11" transform="translate(251.05155967960405,273.2179621262669)"><circle class="pool" r="14.587438091492064" cx="14.587438091492064" cy="14.587438091492064" style="stroke-width: 1; fill: rgb(65, 182, 196);"></circle><circle class="pearl" r="2.190433937142651" cx="18.5246342836061" cy="14.94362383625467"></circle><circle class="pearl" r="2.190433937142651" cx="10.96604372386592" cy="16.585477792104747"></circle><circle class="pearl" r="2.190433937142651" cx="13.432823236585735" cy="9.162723361246782"></circle><circle class="pearl" r="2.190433937142651" cx="20.963720820476706" cy="24.05678988683627"></circle><circle class="pearl" r="2.190433937142651" cx="3.6863272717040694" cy="13.568872481366238"></circle><circle class="pearl" r="2.190433937142651" cx="24.857399905988064" cy="10.22763557247334"></circle><circle class="pearl" r="2.190433937142651" cx="13.377795617921867" cy="25.473912500679386"></circle><circle class="pearl" r="2.190433937142651" cx="6.370967078014834" cy="6.184823435568163"></circle><circle class="pearl" r="2.190433937142651" cx="25.092409102849984" cy="18.110174337473936"></circle><circle class="pearl" r="2.190433937142651" cx="6.216736084154121" cy="22.850529847642616"></circle><circle class="pearl" r="2.190433937142651" cx="19.684294338271542" cy="4.570118063152574"></circle></g><g class="bobaCup bright" cupRadius="14.557394114826735" width="29.11478822965347" height="29.11478822965347" pearlRadius="2.7380424214283137" pearlCount="11" transform="translate(40.21134681306265,5.442605885173265)"><circle class="pool" r="14.557394114826735" cx="14.557394114826735" cy="14.557394114826735" style="stroke-width: 1; fill: rgb(127, 205, 187);"></circle><circle class="pearl" r="2.190433937142651" cx="18.494610035997475" cy="14.926125716276092"></circle><circle class="pearl" r="2.190433937142651" cx="10.952890520349458" cy="16.60615334117845"></circle><circle class="pearl" r="2.190433937142651" cx="13.37856875973119" cy="9.197066869900679"></circle><circle class="pearl" r="2.190433937142651" cx="21.038938391742533" cy="23.94152060540363"></circle><circle class="pearl" r="2.190433937142651" cx="3.6856759239944346" cy="13.549218220258211"></circle><circle class="pearl" r="2.190433937142651" cx="24.768858913360884" cy="10.112456936916068"></circle><circle class="pearl" r="2.190433937142651" cx="13.470891756533277" cy="25.42346240641653"></circle><circle class="pearl" r="2.190433937142651" cx="6.3708721502696015" cy="6.170734673638762"></circle><circle class="pearl" r="2.190433937142651" cx="25.05657167892957" cy="17.97763255269596"></circle><circle class="pearl" r="2.190433937142651" cx="6.27439827770171" cy="22.877873974356763"></circle><circle class="pearl" r="2.190433937142651" cx="19.549476940570205" cy="4.533438828883881"></circle></g><g class="bobaCup bright" cupRadius="14.120093166539897" width="28.240186333079794" height="28.240186333079794" pearlRadius="2.7380424214283137" pearlCount="10" transform="translate(86.94678912568429,266.06442061449786)"><circle class="pool" r="14.120093166539897" cx="14.120093166539897" cy="14.120093166539897" style="stroke-width: 1; fill: rgb(65, 182, 196);"></circle><circle class="pearl" r="2.190433937142651" cx="17.460232392442876" cy="12.024018262409948"></circle><circle class="pearl" r="2.190433937142651" cx="11.105964812647446" cy="16.16955540627421"></circle><circle class="pearl" r="2.190433937142651" cx="14.28359276245777" cy="4.613433042003975"></circle><circle class="pearl" r="2.190433937142651" cx="21.446941822217532" cy="22.53976014742607"></circle><circle class="pearl" r="2.190433937142651" cx="3.6711828397939037" cy="13.360248026038636"></circle><circle class="pearl" r="2.190433937142651" cx="21.961901635667218" cy="6.028454155540542"></circle><circle class="pearl" r="2.190433937142651" cx="13.742133287395163" cy="24.584403673724584"></circle><circle class="pearl" r="2.190433937142651" cx="6.414110285832773" cy="5.938874083131285"></circle><circle class="pearl" r="2.190433937142651" cx="24.541349246031036" cy="15.284751650918649"></circle><circle class="pearl" r="2.190433937142651" cx="6.271193961130475" cy="22.206993730504085"></circle></g><g class="bobaCup bright" cupRadius="14.013818177718543" width="28.027636355437085" height="28.027636355437085" pearlRadius="2.7380424214283137" pearlCount="10" transform="translate(255.44474116798696,285.9861818222815)"><circle class="pool" r="14.013818177718543" cx="14.013818177718543" cy="14.013818177718543" style="stroke-width: 1; fill: rgb(127, 205, 187);"></circle><circle class="pearl" r="2.190433937142651" cx="17.231561380127125" cy="11.78759543014147"></circle><circle class="pearl" r="2.190433937142651" cx="11.138319157310649" cy="16.13276331923311"></circle><circle class="pearl" r="2.190433937142651" cx="14.153319798449472" cy="4.305848968865059"></circle><circle class="pearl" r="2.190433937142651" cx="21.41112356792371" cy="22.265488527003814"></circle><circle class="pearl" r="2.190433937142651" cx="3.6649987686518273" cy="13.381437078130718"></circle><circle class="pearl" r="2.190433937142651" cx="21.739373851693838" cy="5.972540318089935"></circle><circle class="pearl" r="2.190433937142651" cx="13.72238384499878" cy="24.373882434077306"></circle><circle class="pearl" r="2.190433937142651" cx="6.340791290320526" cy="5.938000641706845"></circle><circle class="pearl" r="2.190433937142651" cx="24.34589028879434" cy="14.94577011194265"></circle><circle class="pearl" r="2.190433937142651" cx="6.282314678588559" cy="22.051163804227645"></circle></g><g class="bobaCup bright" cupRadius="13.730814915955637" width="27.461629831911274" height="27.461629831911274" pearlRadius="2.738042421428314" pearlCount="9" transform="translate(116.48528130317364,190.70789713280723)"><circle class="pool" r="13.730814915955637" cx="13.730814915955637" cy="13.730814915955637" style="stroke-width: 1; fill: rgb(29, 145, 192);"></circle><circle class="pearl" r="2.1904339371426516" cx="17.07909430539104" cy="12.078515245062993"></circle><circle class="pearl" r="2.1904339371426516" cx="10.612679830901229" cy="16.03471227376576"></circle><circle class="pearl" r="2.1904339371426516" cx="13.879431533828278" cy="3.6515275342933156"></circle><circle class="pearl" r="2.1904339371426516" cx="19.02956686257838" cy="22.747313405835346"></circle><circle class="pearl" r="2.1904339371426516" cx="3.664172327872777" cy="13.12323503781315"></circle><circle class="pearl" r="2.1904339371426516" cx="21.294050979328762" cy="5.921488471601128"></circle><circle class="pearl" r="2.1904339371426516" cx="11.150034120462914" cy="23.56619003871826"></circle><circle class="pearl" r="2.1904339371426516" cx="6.2644104411899475" cy="5.85816700256359"></circle><circle class="pearl" r="2.1904339371426516" cx="23.555866986095463" cy="16.364967218857405"></circle></g><g class="bobaCup bright" cupRadius="13.679794657602603" width="27.359589315205206" height="27.359589315205206" pearlRadius="2.7380424214283137" pearlCount="9" transform="translate(25.70890939358547,124.28951042833523)"><circle class="pool" r="13.679794657602603" cx="13.679794657602603" cy="13.679794657602603" style="stroke-width: 1; fill: rgb(65, 182, 196);"></circle><circle class="pearl" r="2.190433937142651" cx="17.01142519847748" cy="11.998784926847874"></circle><circle class="pearl" r="2.190433937142651" cx="10.608961412679115" cy="15.963258736664294"></circle><circle class="pearl" r="2.190433937142651" cx="13.782265554872025" cy="3.651107022054374"></circle><circle class="pearl" r="2.190433937142651" cx="18.942711708427815" cy="22.655966771525886"></circle><circle class="pearl" r="2.190433937142651" cx="3.6604260162726447" cy="13.164653761693415"></circle><circle class="pearl" r="2.190433937142651" cx="21.18610697544759" cy="5.894082372380881"></circle><circle class="pearl" r="2.190433937142651" cx="11.06967871106506" cy="23.45755148523308"></circle><circle class="pearl" r="2.190433937142651" cx="6.178186190866882" cy="5.890996380185262"></circle><circle class="pearl" r="2.190433937142651" cx="23.458163504048162" cy="16.286759926818483"></circle></g><g class="bobaCup bright" cupRadius="13.42708104630142" width="26.85416209260284" height="26.85416209260284" pearlRadius="2.7380424214283137" pearlCount="9" transform="translate(222.3386645923921,78.55188723930605)"><circle class="pool" r="13.42708104630142" cx="13.42708104630142" cy="13.42708104630142" style="stroke-width: 1; fill: rgb(29, 145, 192);"></circle><circle class="pearl" r="2.190433937142651" cx="15.755203630686868" cy="11.276063765085132"></circle><circle class="pearl" r="2.190433937142651" cx="10.162274084830443" cy="16.38659972715062"></circle><circle class="pearl" r="2.190433937142651" cx="13.549209415944011" cy="3.6512786600578035"></circle><circle class="pearl" r="2.190433937142651" cx="20.46362229221913" cy="21.211986034774018"></circle><circle class="pearl" r="2.190433937142651" cx="3.6541988907914202" cy="13.121591412408291"></circle><circle class="pearl" r="2.190433937142651" cx="20.790294790507627" cy="5.849732811745826"></circle><circle class="pearl" r="2.190433937142651" cx="12.861878250652177" cy="23.191537698139587"></circle><circle class="pearl" r="2.190433937142651" cx="6.048096645578765" cy="5.8600908430790835"></circle><circle class="pearl" r="2.190433937142651" cx="23.19587673929521" cy="13.87765549931581"></circle></g><g class="bobaCup bright" cupRadius="13.208251538411735" width="26.41650307682347" height="26.41650307682347" pearlRadius="2.7380424214283137" pearlCount="9" transform="translate(46.21157562222606,220.59498932586982)"><circle class="pool" r="13.208251538411735" cx="13.208251538411735" cy="13.208251538411735" style="stroke-width: 1; fill: rgb(127, 205, 187);"></circle><circle class="pearl" r="2.190433937142651" cx="15.199485094690878" cy="11.21862296394911"></circle><circle class="pearl" r="2.190433937142651" cx="9.790194383772205" cy="16.617269203243158"></circle><circle class="pearl" r="2.190433937142651" cx="13.273647692249119" cy="3.6508851229419665"></circle><circle class="pearl" r="2.190433937142651" cx="20.49731826135686" cy="20.57240075623829"></circle><circle class="pearl" r="2.190433937142651" cx="3.6515161391626467" cy="13.063526639467481"></circle><circle class="pearl" r="2.190433937142651" cx="20.385083599102657" cy="5.770648009775723"></circle><circle class="pearl" r="2.190433937142651" cx="13.32326967494758" cy="22.765279046821714"></circle><circle class="pearl" r="2.190433937142651" cx="6.001468281573732" cy="5.790091183219037"></circle><circle class="pearl" r="2.190433937142651" cx="22.765771557014585" cy="13.193452030309144"></circle></g><g class="bobaCup bright" cupRadius="13.068804541345067" width="26.137609082690133" height="26.137609082690133" pearlRadius="2.738042421428314" pearlCount="9" transform="translate(169.92847441968294,88.14979671010312)"><circle class="pool" r="13.068804541345067" cx="13.068804541345067" cy="13.068804541345067" style="stroke-width: 1; fill: rgb(65, 182, 196);"></circle><circle class="pearl" r="2.1904339371426516" cx="14.985129730683878" cy="11.161708762043213"></circle><circle class="pearl" r="2.1904339371426516" cx="9.600210158477855" cy="16.525918324853087"></circle><circle class="pearl" r="2.1904339371426516" cx="13.12866818602091" cy="3.6508603365499046"></circle><circle class="pearl" r="2.1904339371426516" cx="20.23077263364679" cy="20.3496807010032"></circle><circle class="pearl" r="2.1904339371426516" cx="3.651094282397555" cy="12.970324481516029"></circle><circle class="pearl" r="2.1904339371426516" cx="20.118002268258483" cy="5.71487132154121"></circle><circle class="pearl" r="2.1904339371426516" cx="13.129093858811292" cy="22.486746789328233"></circle><circle class="pearl" r="2.1904339371426516" cx="5.981925241644792" cy="5.73910000359661"></circle><circle class="pearl" r="2.1904339371426516" cx="22.48686005369267" cy="13.094772999004041"></circle></g><g class="bobaCup bright" cupRadius="13.016528583517884" width="26.033057167035768" height="26.033057167035768" pearlRadius="2.738042421428314" pearlCount="8" transform="translate(120.15255784994041,210.3805127090542)"><circle class="pool" r="13.016528583517884" cx="13.016528583517884" cy="13.016528583517884" style="stroke-width: 1; fill: rgb(29, 145, 192);"></circle><circle class="pearl" r="2.1904339371426516" cx="19.53197494313705" cy="13.010489670968388"></circle><circle class="pearl" r="2.1904339371426516" cx="11.717299983745384" cy="14.378109346251033"></circle><circle class="pearl" r="2.1904339371426516" cx="12.250488900745125" cy="3.6732839973698845"></circle><circle class="pearl" r="2.1904339371426516" cx="19.989237956696773" cy="20.35722657163763"></circle><circle class="pearl" r="2.1904339371426516" cx="3.796329181406666" cy="14.95801435491262"></circle><circle class="pearl" r="2.1904339371426516" cx="19.98910890427153" cy="5.675748728516773"></circle><circle class="pearl" r="2.1904339371426516" cx="12.175226476582674" cy="22.355117389477513"></circle><circle class="pearl" r="2.1904339371426516" cx="5.088008860014556" cy="7.0708453576494605"></circle></g><g class="bobaCup bright" cupRadius="12.96670787289493" width="25.93341574578986" height="25.93341574578986" pearlRadius="2.7380424214283137" pearlCount="8" transform="translate(146.38994560091868,135.71949799146267)"><circle class="pool" r="12.96670787289493" cx="12.96670787289493" cy="12.96670787289493" style="stroke-width: 1; fill: rgb(29, 145, 192);"></circle><circle class="pearl" r="2.190433937142651" cx="19.57755650773834" cy="12.963777668233943"></circle><circle class="pearl" r="2.190433937142651" cx="11.735348806914574" cy="14.263088537091692"></circle><circle class="pearl" r="2.190433937142651" cx="12.142902715068859" cy="3.676918819375537"></circle><circle class="pearl" r="2.190433937142651" cx="19.890093562096105" cy="20.27966302612435"></circle><circle class="pearl" r="2.190433937142651" cx="3.8206202599841603" cy="15.05887071271592"></circle><circle class="pearl" r="2.190433937142651" cx="19.8919345340445" cy="5.6549154799173476"></circle><circle class="pearl" r="2.190433937142651" cx="12.056833512639166" cy="22.250730165962242"></circle><circle class="pearl" r="2.190433937142651" cx="5.0262628833113485" cy="7.154622842594999"></circle></g><g class="bobaCup bright" cupRadius="12.84745226216674" width="25.69490452433348" height="25.69490452433348" pearlRadius="2.7380424214283137" pearlCount="8" transform="translate(92.17922669068211,140.46660481333615)"><circle class="pool" r="12.84745226216674" cx="12.84745226216674" cy="12.84745226216674" style="stroke-width: 1; fill: rgb(127, 205, 187);"></circle><circle class="pearl" r="2.190433937142651" cx="14.488662562009335" cy="12.75118302404805"></circle><circle class="pearl" r="2.190433937142651" cx="7.809048925616833" cy="19.145901878009482"></circle><circle class="pearl" r="2.190433937142651" cx="14.911916201772364" cy="3.81767793461956"></circle><circle class="pearl" r="2.190433937142651" cx="21.4685040173073" cy="16.650157664614095"></circle><circle class="pearl" r="2.190433937142651" cx="3.661937164493681" cy="12.31078172961052"></circle><circle class="pearl" r="2.190433937142651" cx="21.320825593097045" cy="8.597356705059829"></circle><circle class="pearl" r="2.190433937142651" cx="15.351318801432301" cy="21.797827477072698"></circle><circle class="pearl" r="2.190433937142651" cx="7.012780754499149" cy="5.052056584040006"></circle></g><g class="bobaCup bright" cupRadius="12.68991802732387" width="25.37983605464774" height="25.37983605464774" pearlRadius="2.738042421428314" pearlCount="8" transform="translate(154.48920753465495,89.30053689469386)"><circle class="pool" r="12.68991802732387" cx="12.68991802732387" cy="12.68991802732387" style="stroke-width: 1; fill: rgb(29, 145, 192);"></circle><circle class="pearl" r="2.1904339371426516" cx="14.156724532346527" cy="12.856249806469467"></circle><circle class="pearl" r="2.1904339371426516" cx="6.66587077730798" cy="19.47658579677464"></circle><circle class="pearl" r="2.1904339371426516" cx="15.133876920745514" cy="3.888288688308997"></circle><circle class="pearl" r="2.1904339371426516" cx="20.946777148199782" cy="17.076659657661544"></circle><circle class="pearl" r="2.1904339371426516" cx="3.666039025297549" cy="12.066638125245705"></circle><circle class="pearl" r="2.1904339371426516" cx="21.206623033839033" cy="9.086071515022711"></circle><circle class="pearl" r="2.1904339371426516" cx="14.368063030344523" cy="21.617662467313853"></circle><circle class="pearl" r="2.1904339371426516" cx="7.2035179708076615" cy="4.898026434095776"></circle></g><g class="bobaCup bright" cupRadius="12.483710839333167" width="24.967421678666334" height="24.967421678666334" pearlRadius="2.7380424214283132" pearlCount="8" transform="translate(98.11997594404781,53.811805186634075)"><circle class="pool" r="12.483710839333167" cx="12.483710839333167" cy="12.483710839333167" style="stroke-width: 1; fill: rgb(29, 145, 192);"></circle><circle class="pearl" r="2.1904339371426507" cx="13.690372661419861" cy="12.781036826581555"></circle><circle class="pearl" r="2.1904339371426507" cx="5.711040118099118" cy="19.31983497409409"></circle><circle class="pearl" r="2.1904339371426507" cx="15.271718999983156" cy="3.966030441452939"></circle><circle class="pearl" r="2.1904339371426507" cx="20.298395208311778" cy="17.422077466279173"></circle><circle class="pearl" r="2.1904339371426507" cx="3.6732386563072987" cy="11.734280899926237"></circle><circle class="pearl" r="2.1904339371426507" cx="20.94719438768897" cy="9.468908941041505"></circle><circle class="pearl" r="2.1904339371426507" cx="13.385945754419062" cy="21.284052162762617"></circle><circle class="pearl" r="2.1904339371426507" cx="7.362387723806119" cy="4.749571931433176"></circle></g><g class="bobaCup bright" cupRadius="12.464640868126839" width="24.929281736253678" height="24.929281736253678" pearlRadius="2.7380424214283146" pearlCount="8" transform="translate(199.56603142011605,87.44459007825581)"><circle class="pool" r="12.464640868126839" cx="12.464640868126839" cy="12.464640868126839" style="stroke-width: 1; fill: rgb(127, 205, 187);"></circle><circle class="pearl" r="2.1904339371426516" cx="13.65374743649441" cy="12.767682005682262"></circle><circle class="pearl" r="2.1904339371426516" cx="5.708067961775041" cy="19.288457941284065"></circle><circle class="pearl" r="2.1904339371426516" cx="15.263613332821322" cy="3.96904674890646"></circle><circle class="pearl" r="2.1904339371426516" cx="20.252205331922138" cy="17.41770523657971"></circle><circle class="pearl" r="2.1904339371426516" cx="3.673285410125767" cy="11.715007672140548"></circle><circle class="pearl" r="2.1904339371426516" cx="20.913741610856693" cy="9.47105909458048"></circle><circle class="pearl" r="2.1904339371426516" cx="13.350699840569554" cy="21.247025516057573"></circle><circle class="pearl" r="2.1904339371426516" cx="7.3612615658907465" cy="4.743346172473305"></circle></g><g class="bobaCup bright" cupRadius="12.400045412789806" width="24.800090825579613" height="24.800090825579613" pearlRadius="2.7380424214283132" pearlCount="8" transform="translate(118.86023256157992,172.8566989745043)"><circle class="pool" r="12.400045412789806" cx="12.400045412789806" cy="12.400045412789806" style="stroke-width: 1; fill: rgb(127, 205, 187);"></circle><circle class="pearl" r="2.1904339371426507" cx="13.542300454681813" cy="12.713272015148043"></circle><circle class="pearl" r="2.1904339371426507" cx="5.709457522937192" cy="19.189492677434195"></circle><circle class="pearl" r="2.1904339371426507" cx="15.159339007265345" cy="3.9616237130073655"></circle><circle class="pearl" r="2.1904339371426507" cx="20.125940666835884" cy="17.3329632248178"></circle><circle class="pearl" r="2.1904339371426507" cx="3.67070489740894" cy="11.696377923889042"></circle><circle class="pearl" r="2.1904339371426507" cx="20.781124054193523" cy="9.400567124666948"></circle><circle class="pearl" r="2.1904339371426507" cx="13.279057883933191" cy="21.1181727094221"></circle><circle class="pearl" r="2.1904339371426507" cx="7.289309559159019" cy="4.752914629484905"></circle></g><g class="bobaCup bright" cupRadius="12.285502596776983" width="24.571005193553965" height="24.571005193553965" pearlRadius="2.738042421428314" pearlCount="8" transform="translate(273.7215425860615,142.30105616528002)"><circle class="pool" r="12.285502596776983" cx="12.285502596776983" cy="12.285502596776983" style="stroke-width: 1; fill: rgb(29, 145, 192);"></circle><circle class="pearl" r="2.1904339371426516" cx="13.353989523336297" cy="12.605931114935524"></circle><circle class="pearl" r="2.1904339371426516" cx="5.722028218182622" cy="19.020075615157612"></circle><circle class="pearl" r="2.1904339371426516" cx="14.907966400605073" cy="3.9338819853714164"></circle><circle class="pearl" r="2.1904339371426516" cx="19.928140099339572" cy="17.122193350991257"></circle><circle class="pearl" r="2.1904339371426516" cx="3.664480015240788" cy="11.704272154070813"></circle><circle class="pearl" r="2.1904339371426516" cx="20.528922129784657" cy="9.20931306708321"></circle><circle class="pearl" r="2.1904339371426516" cx="13.193461591281501" cy="20.886684710629677"></circle><circle class="pearl" r="2.1904339371426516" cx="7.102057790450084" cy="4.7977576184905075"></circle></g><g class="bobaCup bright" cupRadius="12.046808816632815" width="24.09361763326563" height="24.09361763326563" pearlRadius="2.7380424214283132" pearlCount="7" transform="translate(181.3596523381275,83.43046379099371)"><circle class="pool" r="12.046808816632815" cx="12.046808816632815" cy="12.046808816632815" style="stroke-width: 1; fill: rgb(127, 205, 187);"></circle><circle class="pearl" r="2.1904339371426507" cx="13.377736898656792" cy="12.369852762809172"></circle><circle class="pearl" r="2.1904339371426507" cx="5.127405270492663" cy="14.850058644808563"></circle><circle class="pearl" r="2.1904339371426507" cx="12.146464881381815" cy="3.651135433218186"></circle><circle class="pearl" r="2.1904339371426507" cx="18.636253360717454" cy="18.392245496039934"></circle><circle class="pearl" r="2.1904339371426507" cx="4.824140472416663" cy="6.860773879482696"></circle><circle class="pearl" r="2.1904339371426507" cx="19.37007176629679" cy="7.077178043184146"></circle><circle class="pearl" r="2.1904339371426507" cx="10.8942031674509" cy="20.387628561423252"></circle></g><g class="bobaCup bright" cupRadius="11.965882643561548" width="23.931765287123095" height="23.931765287123095" pearlRadius="2.7380424214283137" pearlCount="7" transform="translate(189.58326008052853,14.491243635887928)"><circle class="pool" r="11.965882643561548" cx="11.965882643561548" cy="11.965882643561548" style="stroke-width: 1; fill: rgb(65, 182, 196);"></circle><circle class="pearl" r="2.190433937142651" cx="13.146322960962749" cy="12.302427949837316"></circle><circle class="pearl" r="2.190433937142651" cx="4.822657024724457" cy="14.872073778768094"></circle><circle class="pearl" r="2.190433937142651" cx="12.102096751897458" cy="3.651498553091246"></circle><circle class="pearl" r="2.190433937142651" cx="18.509044257286792" cy="18.232226016014785"></circle><circle class="pearl" r="2.190433937142651" cx="4.786711508649457" cy="6.877097374434656"></circle><circle class="pearl" r="2.190433937142651" cx="19.279458823007477" cy="7.17354647725964"></circle><circle class="pearl" r="2.190433937142651" cx="10.765190021570985" cy="20.22064910113882"></circle></g><g class="bobaCup bright" cupRadius="11.866279144967898" width="23.732558289935795" height="23.732558289935795" pearlRadius="2.738042421428314" pearlCount="7" transform="translate(85.11528089216236,172.06805467815346)"><circle class="pool" r="11.866279144967898" cx="11.866279144967898" cy="11.866279144967898" style="stroke-width: 1; fill: rgb(65, 182, 196);"></circle><circle class="pearl" r="2.1904339371426516" cx="12.869341120874337" cy="12.217706359427458"></circle><circle class="pearl" r="2.1904339371426516" cx="4.462119496700121" cy="14.89520366428149"></circle><circle class="pearl" r="2.1904339371426516" cx="12.041063622524852" cy="3.652010543255019"></circle><circle class="pearl" r="2.1904339371426516" cx="18.35036032115029" cy="18.038338803111973"></circle><circle class="pearl" r="2.1904339371426516" cx="4.7377096575719655" cy="6.904885259193412"></circle><circle class="pearl" r="2.1904339371426516" cx="19.162331855813168" cy="7.286248874487666"></circle><circle class="pearl" r="2.1904339371426516" cx="10.60334265335203" cy="20.014436039715513"></circle></g><g class="bobaCup bright" cupRadius="11.502064439361217" width="23.004128878722433" height="23.004128878722433" pearlRadius="2.7380424214283132" pearlCount="7" transform="translate(39.67786000051527,71.88037371372849)"><circle class="pool" r="11.502064439361217" cx="11.502064439361217" cy="11.502064439361217" style="stroke-width: 1; fill: rgb(65, 182, 196);"></circle><circle class="pearl" r="2.1904339371426507" cx="11.630762161288965" cy="11.53139771221308"></circle><circle class="pearl" r="2.1904339371426507" cx="4.018928951459485" cy="14.389048410366284"></circle><circle class="pearl" r="2.1904339371426507" cx="12.28272144864677" cy="3.6772458070408858"></circle><circle class="pearl" r="2.1904339371426507" cx="17.965687210017315" cy="16.979061004554126"></circle><circle class="pearl" r="2.1904339371426507" cx="4.824274597511729" cy="6.440512886589155"></circle><circle class="pearl" r="2.1904339371426507" cx="18.847067441528633" cy="8.126936141671324"></circle><circle class="pearl" r="2.1904339371426507" cx="10.256983881548077" cy="19.285818058104727"></circle></g><g class="bobaCup bright" cupRadius="11.405913647780396" width="22.811827295560793" height="22.811827295560793" pearlRadius="2.7380424214283137" pearlCount="7" transform="translate(31.151743889125044,33.58502073117386)"><circle class="pool" r="11.405913647780396" cx="11.405913647780396" cy="11.405913647780396" style="stroke-width: 1; fill: rgb(29, 145, 192);"></circle><circle class="pearl" r="2.190433937142651" cx="11.43866385188422" cy="11.420225448982531"></circle><circle class="pearl" r="2.190433937142651" cx="4.009058598792919" cy="14.242439752338452"></circle><circle class="pearl" r="2.190433937142651" cx="12.33224648671214" cy="3.6884015862046517"></circle><circle class="pearl" r="2.190433937142651" cx="17.850022538904298" cy="16.71526677370803"></circle><circle class="pearl" r="2.190433937142651" cx="4.853931922531233" cy="6.306925731937208"></circle><circle class="pearl" r="2.190433937142651" cx="18.718974487782912" cy="8.261028111180565"></circle><circle class="pearl" r="2.190433937142651" cx="10.186895296935944" cy="19.09577507789987"></circle></g><g class="bobaCup bright" cupRadius="11.372094148835487" width="22.744188297670973" height="22.744188297670973" pearlRadius="2.7380424214283137" pearlCount="6" transform="translate(123.3720857338129,136.75134002970978)"><circle class="pool" r="11.372094148835487" cx="11.372094148835487" cy="11.372094148835487" style="stroke-width: 1; fill: rgb(127, 205, 187);"></circle><circle class="pearl" r="2.190433937142651" cx="11.995978013082553" cy="11.396919106521521"></circle><circle class="pearl" r="2.190433937142651" cx="6.460326092417315" cy="17.165475360183805"></circle><circle class="pearl" r="2.190433937142651" cx="9.477845221147973" cy="3.809595434988193"></circle><circle class="pearl" r="2.190433937142651" cx="17.117485286117503" cy="17.535391809258858"></circle><circle class="pearl" r="2.190433937142651" cx="3.8140295329053515" cy="9.451781573513438"></circle><circle class="pearl" r="2.190433937142651" cx="17.37747282682071" cy="5.365698124545563"></circle></g><g class="bobaCup bright" cupRadius="11.371356096264744" width="22.74271219252949" height="22.74271219252949" pearlRadius="2.7380424214283137" pearlCount="6" transform="translate(15.070043685884674,286.1630326026194)"><circle class="pool" r="11.371356096264744" cx="11.371356096264744" cy="11.371356096264744" style="stroke-width: 1; fill: rgb(127, 205, 187);"></circle><circle class="pearl" r="2.190433937142651" cx="11.99412520539545" cy="11.397164845850968"></circle><circle class="pearl" r="2.190433937142651" cx="6.4586747712867485" cy="17.16591491635319"></circle><circle class="pearl" r="2.190433937142651" cx="9.476252880524028" cy="3.8097502505646617"></circle><circle class="pearl" r="2.190433937142651" cx="17.12041115612558" cy="17.531652457254463"></circle><circle class="pearl" r="2.190433937142651" cx="3.8136742021903256" cy="9.453181423636783"></circle><circle class="pearl" r="2.190433937142651" cx="17.376212751408787" cy="5.3655045687833685"></circle></g><g class="bobaCup bright" cupRadius="10.774170717977654" width="21.548341435955308" height="21.548341435955308" pearlRadius="2.7380424214283137" pearlCount="6" transform="translate(53.46715642547099,252.37848125612095)"><circle class="pool" r="10.774170717977654" cx="10.774170717977654" cy="10.774170717977654" style="stroke-width: 1; fill: rgb(65, 182, 196);"></circle><circle class="pearl" r="2.190433937142651" cx="11.096010757700917" cy="11.048002956842593"></circle><circle class="pearl" r="2.190433937142651" cx="5.381556551374174" cy="16.450958792550328"></circle><circle class="pearl" r="2.190433937142651" cx="8.871662525121435" cy="3.8200263266186294"></circle><circle class="pearl" r="2.190433937142651" cx="16.230617357036625" cy="16.41376205540643"></circle><circle class="pearl" r="2.190433937142651" cx="3.7911391101748197" cy="9.040385050710384"></circle><circle class="pearl" r="2.190433937142651" cx="16.339412404386866" cy="5.199340324571342"></circle></g><g class="bobaCup bright" cupRadius="10.744163738317567" width="21.488327476635135" height="21.488327476635135" pearlRadius="2.7380424214283137" pearlCount="6" transform="translate(151.64880359553035,166.73873209999368)"><circle class="pool" r="10.744163738317567" cx="10.744163738317567" cy="10.744163738317567" style="stroke-width: 1; fill: rgb(65, 182, 196);"></circle><circle class="pearl" r="2.190433937142651" cx="11.056912869343956" cy="11.02661311310057"></circle><circle class="pearl" r="2.190433937142651" cx="5.295815728196986" cy="16.353708237862836"></circle><circle class="pearl" r="2.190433937142651" cx="8.868742314241839" cy="3.8156691830496268"></circle><circle class="pearl" r="2.190433937142651" cx="16.172457436623557" cy="16.3654781477584"></circle><circle class="pearl" r="2.190433937142651" cx="3.7997551988825577" cy="8.96084176672462"></circle><circle class="pearl" r="2.190433937142651" cx="16.28736517781759" cy="5.191084913557486"></circle></g><g class="bobaCup bright" cupRadius="10.712139791066086" width="21.424279582132172" height="21.424279582132172" pearlRadius="2.738042421428314" pearlCount="6" transform="translate(42.45426525745493,48.511461903637056)"><circle class="pool" r="10.712139791066086" cx="10.712139791066086" cy="10.712139791066086" style="stroke-width: 1; fill: rgb(65, 182, 196);"></circle><circle class="pearl" r="2.1904339371426516" cx="11.03065201724488" cy="10.997289156103577"></circle><circle class="pearl" r="2.1904339371426516" cx="5.296087469916017" cy="16.303511355230373"></circle><circle class="pearl" r="2.1904339371426516" cx="8.832938750990659" cy="3.8168428056265413"></circle><circle class="pearl" r="2.1904339371426516" cx="16.108778853225022" cy="16.314860555739987"></circle><circle class="pearl" r="2.1904339371426516" cx="3.7980656104212813" cy="8.941548193444943"></circle><circle class="pearl" r="2.1904339371426516" cx="16.225398805366744" cy="5.178424335396642"></circle></g><g class="bobaCup bright" cupRadius="10.38006867825917" width="20.76013735651834" height="20.76013735651834" pearlRadius="2.7380424214283132" pearlCount="5" transform="translate(200.8491104026449,74.59168425947566)"><circle class="pool" r="10.38006867825917" cx="10.38006867825917" cy="10.38006867825917" style="stroke-width: 1; fill: rgb(65, 182, 196);"></circle><circle class="pearl" r="2.1904339371426507" cx="16.632062876162248" cy="7.986049364341666"></circle><circle class="pearl" r="2.1904339371426507" cx="7.305433401376703" cy="15.961772181637988"></circle><circle class="pearl" r="2.1904339371426507" cx="9.907517460013059" cy="3.6614852226053545"></circle><circle class="pearl" r="2.1904339371426507" cx="15.2999834270744" cy="15.869381807918145"></circle><circle class="pearl" r="2.1904339371426507" cx="3.773357560525242" cy="8.789198980069106"></circle></g><g class="bobaCup bright" cupRadius="10.196271314885287" width="20.392542629770574" height="20.392542629770574" pearlRadius="2.7380424214283137" pearlCount="5" transform="translate(25.190647332558633,90.04153288964397)"><circle class="pool" r="10.196271314885287" cx="10.196271314885287" cy="10.196271314885287" style="stroke-width: 1; fill: rgb(29, 145, 192);"></circle><circle class="pearl" r="2.190433937142651" cx="16.391129351154472" cy="7.545143576699365"></circle><circle class="pearl" r="2.190433937142651" cx="7.260930441091102" cy="16.310163935459816"></circle><circle class="pearl" r="2.190433937142651" cx="9.44217149307086" cy="3.678647471021641"></circle><circle class="pearl" r="2.190433937142651" cx="15.20402813575195" cy="15.42734522145616"></circle><circle class="pearl" r="2.190433937142651" cx="3.700856399658729" cy="9.186405237760672"></circle></g><g class="bobaCup bright" cupRadius="10.131949269855918" width="20.263898539711835" height="20.263898539711835" pearlRadius="2.7380424214283137" pearlCount="5" transform="translate(146.0863809271787,262.61525999214325)"><circle class="pool" r="10.131949269855918" cx="10.131949269855918" cy="10.131949269855918" style="stroke-width: 1; fill: rgb(65, 182, 196);"></circle><circle class="pearl" r="2.190433937142651" cx="16.226930774598568" cy="7.361094661977663"></circle><circle class="pearl" r="2.190433937142651" cx="7.333422896750344" cy="16.21902076832475"></circle><circle class="pearl" r="2.190433937142651" cx="9.264040021154136" cy="3.687964501513383"></circle><circle class="pearl" r="2.190433937142651" cx="15.223215772683577" cy="15.241100549753483"></circle><circle class="pearl" r="2.190433937142651" cx="3.690101053038571" cy="9.239538138894444"></circle></g><g class="bobaCup bright" cupRadius="9.638855998209081" width="19.277711996418162" height="19.277711996418162" pearlRadius="2.738042421428314" pearlCount="5" transform="translate(207.05947364145095,206.07537286585165)"><circle class="pool" r="9.638855998209081" cx="9.638855998209081" cy="9.638855998209081" style="stroke-width: 1; fill: rgb(127, 205, 187);"></circle><circle class="pearl" r="2.1904339371426516" cx="15.219167593964986" cy="6.864772180752667"></circle><circle class="pearl" r="2.1904339371426516" cx="6.608205020568103" cy="15.138143677059634"></circle><circle class="pearl" r="2.1904339371426516" cx="8.85797670605236" cy="3.682406256270476"></circle><circle class="pearl" r="2.1904339371426516" cx="14.297799062126128" cy="14.426248346079838"></circle><circle class="pearl" r="2.1904339371426516" cx="3.7092503497829488" cy="8.578269574203748"></circle></g><g class="bobaCup bright" cupRadius="9.108787966832763" width="18.217575933665525" height="18.217575933665525" pearlRadius="2.738042421428313" pearlCount="4" transform="translate(310.8912120331672,244.1006408915625)"><circle class="pool" r="9.108787966832763" cx="9.108787966832763" cy="9.108787966832763" style="stroke-width: 1; fill: rgb(127, 205, 187);"></circle><circle class="pearl" r="2.1904339371426502" cx="13.952796380627033" cy="5.820999569001452"></circle><circle class="pearl" r="2.1904339371426502" cx="5.071165466929827" cy="12.074172427145006"></circle><circle class="pearl" r="2.1904339371426502" cx="6.1342667030875475" cy="4.150083718721966"></circle><circle class="pearl" r="2.1904339371426502" cx="12.88969514447801" cy="13.745088277431096"></circle></g><g class="bobaCup bright" cupRadius="9.105774648528353" width="18.211549297056706" height="18.211549297056706" pearlRadius="2.7380424214283132" pearlCount="4" transform="translate(142.47014348265648,229.77883971400536)"><circle class="pool" r="9.105774648528353" cx="9.105774648528353" cy="9.105774648528353" style="stroke-width: 1; fill: rgb(127, 205, 187);"></circle><circle class="pearl" r="2.1904339371426507" cx="13.9453258177948" cy="5.8148215040417535"></circle><circle class="pearl" r="2.1904339371426507" cx="5.065073980454256" cy="12.076946397449927"></circle><circle class="pearl" r="2.1904339371426507" cx="6.124979329504339" cy="4.152429582631629"></circle><circle class="pearl" r="2.1904339371426507" cx="12.885420468753143" cy="13.739338318866487"></circle></g><g class="bobaCup bright" cupRadius="9.073799593752979" width="18.147599187505957" height="18.147599187505957" pearlRadius="2.7380424214283137" pearlCount="4" transform="translate(53.77207098873592,38.63911785710145)"><circle class="pool" r="9.073799593752979" cx="9.073799593752979" cy="9.073799593752979" style="stroke-width: 1; fill: rgb(29, 145, 192);"></circle><circle class="pearl" r="2.190433937142651" cx="13.86595969495987" cy="5.749410905986631"></circle><circle class="pearl" r="2.190433937142651" cx="5.000878331932205" cy="12.10654962121947"></circle><circle class="pearl" r="2.190433937142651" cx="6.026909967398439" cy="4.1775758427058545"></circle><circle class="pearl" r="2.190433937142651" cx="12.83992805949951" cy="13.678384684505009"></circle></g><g class="bobaCup bright" cupRadius="8.818456027309105" width="17.63691205461821" height="17.63691205461821" pearlRadius="2.738042421428314" pearlCount="4" transform="translate(40.89563574933555,246.37805528025584)"><circle class="pool" r="8.818456027309105" cx="8.818456027309105" cy="8.818456027309105" style="stroke-width: 1; fill: rgb(29, 145, 192);"></circle><circle class="pearl" r="2.1904339371426516" cx="13.229060216740788" cy="5.243520088674527"></circle><circle class="pearl" r="2.1904339371426516" cx="4.506138471747198" cy="12.349611074512294"></circle><circle class="pearl" r="2.1904339371426516" cx="5.279449973028528" cy="4.392013734897615"></circle><circle class="pearl" r="2.1904339371426516" cx="12.455748715459567" cy="13.201117428289347"></circle></g><g class="bobaCup bright" cupRadius="8.66167404943193" width="17.32334809886386" height="17.32334809886386" pearlRadius="2.7380424214283137" pearlCount="4" transform="translate(127.0967097311221,182.00478584406792)"><circle class="pool" r="8.66167404943193" cx="8.66167404943193" cy="8.66167404943193" style="stroke-width: 1; fill: rgb(65, 182, 196);"></circle><circle class="pearl" r="2.190433937142651" cx="12.734310120096094" cy="4.740664170138211"></circle><circle class="pearl" r="2.190433937142651" cx="4.589037978767767" cy="12.582683928725649"></circle><circle class="pearl" r="2.190433937142651" cx="4.740664170138211" cy="4.589037978767767"></circle><circle class="pearl" r="2.190433937142651" cx="12.582683928725649" cy="12.734310120096094"></circle></g><g class="bobaCup bright" cupRadius="8.402648890379192" width="16.805297780758384" height="16.805297780758384" pearlRadius="2.738042421428314" pearlCount="4" transform="translate(106.64142950194692,152.23756052625345)"><circle class="pool" r="8.402648890379192" cx="8.402648890379192" cy="8.402648890379192" style="stroke-width: 1; fill: rgb(65, 182, 196);"></circle><circle class="pearl" r="2.1904339371426516" cx="12.186125273310768" cy="4.550718266159942"></circle><circle class="pearl" r="2.1904339371426516" cx="4.618570087170777" cy="12.254275692705054"></circle><circle class="pearl" r="2.1904339371426516" cx="4.619450395850855" cy="4.55057813763977"></circle><circle class="pearl" r="2.1904339371426516" cx="12.185244580891762" cy="12.255023569812932"></circle></g><g class="bobaCup bright" cupRadius="8.135647076628622" width="16.271294153257244" height="16.271294153257244" pearlRadius="2.7380424214283132" pearlCount="3" transform="translate(152.69248374302356,273.4386514441253)"><circle class="pool" r="8.135647076628622" cx="8.135647076628622" cy="8.135647076628622" style="stroke-width: 1; fill: rgb(127, 205, 187);"></circle><circle class="pearl" r="2.1904339371426507" cx="12.43674732611619" cy="9.855314698365746"></circle><circle class="pearl" r="2.1904339371426507" cx="4.389081208065359" cy="11.116435755030745"></circle><circle class="pearl" r="2.1904339371426507" cx="7.347794044850466" cy="3.688960783891438"></circle></g><g class="bobaCup bright" cupRadius="7.809836312482544" width="15.619672624965087" height="15.619672624965087" pearlRadius="2.7380424214283137" pearlCount="3" transform="translate(82.32869579067123,58.26919463123896)"><circle class="pool" r="7.809836312482544" cx="7.809836312482544" cy="7.809836312482544" style="stroke-width: 1; fill: rgb(127, 205, 187);"></circle><circle class="pearl" r="2.190433937142651" cx="11.859160089244314" cy="9.11475751448497"></circle><circle class="pearl" r="2.190433937142651" cx="4.48130941833965" cy="11.224129144950414"></circle><circle class="pearl" r="2.190433937142651" cx="6.0841325476178865" cy="3.8437695515828088"></circle></g><g class="bobaCup bright" cupRadius="7.636485302471732" width="15.272970604943463" height="15.272970604943463" pearlRadius="2.7380424214283137" pearlCount="3" transform="translate(140.93206009962805,28.159298069469457)"><circle class="pool" r="7.636485302471732" cx="7.636485302471732" cy="7.636485302471732" style="stroke-width: 1; fill: rgb(65, 182, 196);"></circle><circle class="pearl" r="2.190433937142651" cx="11.586509066062758" cy="8.374423603419302"></circle><circle class="pearl" r="2.190433937142651" cx="4.525884162864713" cy="10.960005281958587"></circle><circle class="pearl" r="2.190433937142651" cx="5.239142681677918" cy="4.036783982549657"></circle></g><g class="bobaCup bright" cupRadius="6.730191868300565" width="13.46038373660113" height="13.46038373660113" pearlRadius="2.7380424214283137" pearlCount="2" transform="translate(254.17076201631886,76.95567692474357)"><circle class="pool" r="6.730191868300565" cx="6.730191868300565" cy="6.730191868300565" style="stroke-width: 1; fill: rgb(29, 145, 192);"></circle><circle class="pearl" r="2.190433937142651" cx="9.23524830759473" cy="4.134302028969182"></circle><circle class="pearl" r="2.190433937142651" cx="4.225135429006401" cy="9.32608170763195"></circle></g><g class="bobaCup bright" cupRadius="6.522695884969041" width="13.045391769938082" height="13.045391769938082" pearlRadius="2.738042421428314" pearlCount="2" transform="translate(108.66521817310846,107.04343800982134)"><circle class="pool" r="6.522695884969041" cx="6.522695884969041" cy="6.522695884969041" style="stroke-width: 1; fill: rgb(65, 182, 196);"></circle><circle class="pearl" r="2.1904339371426516" cx="8.829991399110126" cy="4.07243976443424"></circle><circle class="pearl" r="2.1904339371426516" cx="4.215400370827956" cy="8.972952005503842"></circle></g><g class="bobaCup bright" cupRadius="6.170361270660283" width="12.340722541320567" height="12.340722541320567" pearlRadius="2.738042421428314" pearlCount="2" transform="translate(135.3738512934743,214.18797427380406)"><circle class="pool" r="6.170361270660283" cx="6.170361270660283" cy="6.170361270660283" style="stroke-width: 1; fill: rgb(65, 182, 196);"></circle><circle class="pearl" r="2.1904339371426516" cx="8.152113727551258" cy="3.9776253002576163"></circle><circle class="pearl" r="2.1904339371426516" cx="4.18860881376931" cy="8.363097241062952"></circle></g><g class="bobaCup bright" cupRadius="4.911902841515029" width="9.823805683030058" height="9.823805683030058" pearlRadius="2.7380424214283132" pearlCount="1" transform="translate(90.88819488985163,83.09077072138699)"><circle class="pool" r="4.911902841515029" cx="4.911902841515029" cy="4.911902841515029" style="stroke-width: 1; fill: rgb(29, 145, 192);"></circle><circle class="pearl" r="2.1904339371426507" cx="6.1730824544589735" cy="4.911902841515029"></circle></g><g class="bobaCup bright" cupRadius="0" width="0" height="0" pearlRadius="NaN" pearlCount="0" transform="translate(20,300)"><circle class="pool" r="0" cx="0" cy="0" style="stroke-width: 1; fill: rgb(65, 182, 196);"></circle></g><g class="bobaCup bright" cupRadius="0" width="0" height="0" pearlRadius="NaN" pearlCount="0" transform="translate(262.2436041642471,182.9292380127062)"><circle class="pool" r="0" cx="0" cy="0" style="stroke-width: 1; fill: rgb(127, 205, 187);"></circle></g></g><g id="legendDividerGroup" transform="translate(410,0)" height="400"><rect class="legendDivider" height="400" width="90"></rect></g><g id="legend" transform="translate(410,30)" width="90" height="320"><rect class="legendBorder" transform="translate(0,0)" width="90" height="324.9477195110013"></rect><text id="rTitle" text-anchor="middle" alignment-baseline="hanging" transform="translate(45,10)" x="0" y="0" style="fill: black; font-size: 0.8rem;">Population</text><text id="bobaValue" text-anchor="middle" alignment-baseline="hanging" transform="translate(45,25)" x="0" y="0" style="fill: black; font-size: 0.7rem;">(1 Pearl =   75)</text><g class="bright" cupRadius="8.94427190999916" width="17.88854381999832" height="17.88854381999832" pearlRadius="2.7380424214283137" pearlCount="4" transform="translate(36.05572809000084,50)"><circle class="pool" r="8.94427190999916" cx="8.94427190999916" cy="8.94427190999916" style="stroke-width: 1; fill: rgb(65, 182, 196);"></circle><circle class="pearl" r="2.190433937142651" cx="13.542613460651712" cy="5.486970900805415"></circle><circle class="pearl" r="2.190433937142651" cx="4.749399498236599" cy="12.229516637519533"></circle><circle class="pearl" r="2.190433937142651" cx="5.6385452023940825" cy="4.284028231246733"></circle><circle class="pearl" r="2.190433937142651" cx="12.653467756495177" cy="13.432459307079196"></circle></g><text id="0" class="legendSampleValue" text-anchor="middle" transform="translate(45,8)" x="0" y="72.88854381999832" style="fill: black; font-size: 0.7rem;"> 300</text><g class="bright" cupRadius="12.649110640673518" width="25.298221281347036" height="25.298221281347036" pearlRadius="2.7380424214283137" pearlCount="8" transform="translate(32.35088935932648,92.88854381999832)"><circle class="pool" r="12.649110640673518" cx="12.649110640673518" cy="12.649110640673518" style="stroke-width: 1; fill: rgb(65, 182, 196);"></circle><circle class="pearl" r="2.190433937142651" cx="14.071403428550026" cy="12.846878791771143"></circle><circle class="pearl" r="2.190433937142651" cx="6.440581911774749" cy="19.57795138257092"></circle><circle class="pearl" r="2.190433937142651" cx="15.10273708455154" cy="3.8909774644866477"></circle><circle class="pearl" r="2.190433937142651" cx="20.833946229646862" cy="17.112242666106596"></circle><circle class="pearl" r="2.190433937142651" cx="3.6634707295578792" cy="12.081372495075817"></circle><circle class="pearl" r="2.190433937142651" cx="21.1462151053254" cy="9.123450087562194"></circle><circle class="pearl" r="2.190433937142651" cx="14.187116834584868" cy="21.553646746241665"></circle><circle class="pearl" r="2.190433937142651" cx="7.171845845081948" cy="4.898098459274186"></circle></g><text id="1" class="legendSampleValue" text-anchor="middle" transform="translate(45,8)" x="0" y="123.18676510134536" style="fill: black; font-size: 0.7rem;"> 600</text><g class="bright" cupRadius="15.491933384829668" width="30.983866769659336" height="30.983866769659336" pearlRadius="2.738042421428314" pearlCount="12" transform="translate(29.508066615170332,143.18676510134537)"><circle class="pool" r="15.491933384829668" cx="15.491933384829668" cy="15.491933384829668" style="stroke-width: 1; fill: rgb(65, 182, 196);"></circle><circle class="pearl" r="2.1904339371426516" cx="17.033011743384765" cy="11.01737610913958"></circle><circle class="pearl" r="2.1904339371426516" cx="11.029309432951333" cy="17.00347040031935"></circle><circle class="pearl" r="2.1904339371426516" cx="13.977981653444434" cy="3.724876288236054"></circle><circle class="pearl" r="2.1904339371426516" cx="18.741808845067855" cy="18.756462357333643"></circle><circle class="pearl" r="2.1904339371426516" cx="3.725529689195627" cy="13.971342248807428"></circle><circle class="pearl" r="2.1904339371426516" cx="26.98661348100194" cy="12.233596672509572"></circle><circle class="pearl" r="2.1904339371426516" cx="12.152198575888569" cy="26.968872613027877"></circle><circle class="pearl" r="2.1904339371426516" cx="6.524197378590721" cy="6.5101702816287865"></circle><circle class="pearl" r="2.1904339371426516" cx="26.508263068801252" cy="20.479674242239334"></circle><circle class="pearl" r="2.1904339371426516" cx="5.419021306595209" cy="22.679550094546478"></circle><circle class="pearl" r="2.1904339371426516" cx="22.76079804957651" cy="5.461881544509561"></circle><circle class="pearl" r="2.1904339371426516" cx="20.400071923945557" cy="26.535092423407907"></circle></g><text id="2" class="legendSampleValue" text-anchor="middle" transform="translate(45,8)" x="0" y="179.1706318710047" style="fill: black; font-size: 0.7rem;"> 900</text><g class="bright" cupRadius="17.88854381999832" width="35.77708763999664" height="35.77708763999664" pearlRadius="2.7380424214283137" pearlCount="16" transform="translate(27.11145618000168,199.1706318710047)"><circle class="pool" r="17.88854381999832" cx="17.88854381999832" cy="17.88854381999832" style="stroke-width: 1; fill: rgb(65, 182, 196);"></circle><circle class="pearl" r="2.190433937142651" cx="19.8046930625516" cy="19.706925044831756"></circle><circle class="pearl" r="2.190433937142651" cx="13.339172784724305" cy="23.858410298028698"></circle><circle class="pearl" r="2.190433937142651" cx="16.092791630714295" cy="11.113543243945612"></circle><circle class="pearl" r="2.190433937142651" cx="20.836129534048155" cy="27.499380517199565"></circle><circle class="pearl" r="2.190433937142651" cx="10.312657514553905" cy="16.56124087753138"></circle><circle class="pearl" r="2.190433937142651" cx="23.678755837700653" cy="13.13675787817294"></circle><circle class="pearl" r="2.190433937142651" cx="14.311679794483911" cy="31.765114841909277"></circle><circle class="pearl" r="2.190433937142651" cx="11.081450997216843" cy="4.99648955196875"></circle><circle class="pearl" r="2.190433937142651" cx="27.674351504393126" cy="20.796258814455655"></circle><circle class="pearl" r="2.190433937142651" cx="4.000488629236898" cy="21.40866477780026"></circle><circle class="pearl" r="2.190433937142651" cx="28.333596734388347" cy="7.01684061165493"></circle><circle class="pearl" r="2.190433937142651" cx="28.522531366621063" cy="28.62247591779055"></circle><circle class="pearl" r="2.190433937142651" cx="5.30391541992303" cy="10.377661215789304"></circle><circle class="pearl" r="2.190433937142651" cx="31.694235049536697" cy="13.980399213320233"></circle><circle class="pearl" r="2.190433937142651" cx="7.311073872078207" cy="28.66408585659018"></circle><circle class="pearl" r="2.190433937142651" cx="18.987039995684725" cy="3.684483203560177"></circle></g><text id="3" class="legendSampleValue" text-anchor="middle" transform="translate(45,8)" x="0" y="239.94771951100134" style="fill: black; font-size: 0.7rem;">1.2k</text><g class="bright" cupRadius="20" width="40" height="40" pearlRadius="2.7380424214283137" pearlCount="20" transform="translate(25,259.9477195110013)"><circle class="pool" r="20" cx="20" cy="20" style="stroke-width: 1; fill: rgb(65, 182, 196);"></circle><circle class="pearl" r="2.190433937142651" cx="22.480421380823074" cy="19.96094551607325"></circle><circle class="pearl" r="2.190433937142651" cx="14.554532211889109" cy="20.25858246523202"></circle><circle class="pearl" r="2.190433937142651" cx="21.718613402750453" cy="11.231225788085391"></circle><circle class="pearl" r="2.190433937142651" cx="25.13767186853209" cy="27.447308990534317"></circle><circle class="pearl" r="2.190433937142651" cx="6.622341466842937" cy="15.212813608895589"></circle><circle class="pearl" r="2.190433937142651" cx="28.49521909515808" cy="14.82158787688231"></circle><circle class="pearl" r="2.190433937142651" cx="17.504603283401977" cy="28.993209871734443"></circle><circle class="pearl" r="2.190433937142651" cx="14.13811847195522" cy="12.373399584276378"></circle><circle class="pearl" r="2.190433937142651" cx="31.11803529924844" cy="22.444175683247455"></circle><circle class="pearl" r="2.190433937142651" cx="10.013176726772668" cy="26.767604068489224"></circle><circle class="pearl" r="2.190433937142651" cx="25.1625299271706" cy="4.328500666167248"></circle><circle class="pearl" r="2.190433937142651" cx="27.782608687955303" cy="34.772930101052836"></circle><circle class="pearl" r="2.190433937142651" cx="8.036930275650786" cy="7.623092000895575"></circle><circle class="pearl" r="2.190433937142651" cx="36.040664285033515" cy="16.500106031740792"></circle><circle class="pearl" r="2.190433937142651" cx="11.3070075503718" cy="34.36126950601293"></circle><circle class="pearl" r="2.190433937142651" cx="16.81383473400994" cy="3.9061454691506903"></circle><circle class="pearl" r="2.190433937142651" cx="33.74247113697989" cy="29.87303346303284"></circle><circle class="pearl" r="2.190433937142651" cx="3.788525504185259" cy="22.343736665541265"></circle><circle class="pearl" r="2.190433937142651" cx="32.18050534208177" cy="7.787706818962306"></circle><circle class="pearl" r="2.190433937142651" cx="20.00567962395882" cy="36.34927596497569"></circle></g><text id="4" class="legendSampleValue" text-anchor="middle" transform="translate(45,8)" x="0" y="304.9477195110013" style="fill: black; font-size: 0.7rem;">1.5k</text></g></svg>