<?xml version="1.0" standalone="no"?>
<?xml-stylesheet xmlns="http://www.w3.org/2000/svg" type="text/css" href="style.css"?>
<svg id="syntheticVisC" class="default" xTitle="Percent Cat Owners" yTitle="Percent Dog Owners" rTitle="Population" chartTitle="Towns in Vizzyland" width="500" height="400" xmlns="http://www.w3.org/2000/svg"><rect class="background" width="500" height="400"></rect><text id="chartTitle" text-anchor="middle" transform="translate(250,20)" x="0" y="0" style="fill: black; font-size: 1.2rem;">Towns in Vizzyland</text><g id="yAxis" transform="translate(50,30)" fill="none" font-size="10" font-family="sans-serif" text-anchor="end"><path class="domain" stroke="currentColor" d="M-6,300H0V20H-6"></path><g class="tick" opacity="1" transform="translate(0,300)"><line stroke="currentColor" x2="-6"></line><text fill="currentColor" x="-9" dy="0.32em">0</text></g><g class="tick" opacity="1" transform="translate(0,272)"><line stroke="currentColor" x2="-6"></line><text fill="currentColor" x="-9" dy="0.32em">10</text></g><g class="tick" opacity="1" transform="translate(0,244)"><line stroke="currentColor" x2="-6"></line><text fill="currentColor" x="-9" dy="0.32em">20</text></g><g class="tick" opacity="1" transform="translate(0,216)"><line stroke="currentColor" x2="-6"></line><text fill="currentColor" x="-9" dy="0.32em">30</text></g><g class="tick" opacity="1" transform="translate(0,188)"><line stroke="currentColor" x2="-6"></line><text fill="currentColor" x="-9" dy="0.32em">40</text></g><g class="tick" opacity="1" transform="translate(0,160)"><line stroke="currentColor" x2="-6"></line><text fill="currentColor" x="-9" dy="0.32em">50</text></g><g class="tick" opacity="1" transform="translate(0,132)"><line stroke="currentColor" x2="-6"></line><text fill="currentColor" x="-9" dy="0.32em">60</text></g><g class="tick" opacity="1" transform="translate(0,104.00000000000001)"><line stroke="currentColor" x2="-6"></line><text fill="currentColor" x="-9" dy="0.32em">70</text></g><g class="tick" opacity="1" transform="translate(0,75.99999999999999)"><line stroke="currentColor" x2="-6"></line><text fill="currentColor" x="-9" dy="0.32em">80</text></g><g class="tick" opacity="1" transform="translate(0,47.99999999999999)"><line stroke="currentColor" x2="-6"></line><text fill="currentColor" x="-9" dy="0.32em">90</text></g><g class="tick" opacity="1" transform="translate(0,20)"><line stroke="currentColor" x2="-6"></line><text fill="currentColor" x="-9" dy="0.32em">100</text></g></g><g id="xAxis" transform="translate(60,360)" fill="none" font-size="10" font-family="sans-serif" text-anchor="middle"><path class="domain" stroke="currentColor" d="M20,6V0H320V6"></path><g class="tick" opacity="1" transform="translate(20,0)"><line stroke="currentColor" y2="6"></line><text fill="currentColor" y="9" dy="0.71em">0</text></g><g class="tick" opacity="1" transform="translate(50,0)"><line stroke="currentColor" y2="6"></line><text fill="currentColor" y="9" dy="0.71em">10</text></g><g class="tick" opacity="1" transform="translate(80,0)"><line stroke="currentColor" y2="6"></line><text fill="currentColor" y="9" dy="0.71em">20</text></g><g class="tick" opacity="1" transform="translate(110,0)"><line stroke="currentColor" y2="6"></line><text fill="currentColor" y="9" dy="0.71em">30</text></g><g class="tick" opacity="1" transform="translate(140,0)"><line stroke="currentColor" y2="6"></line><text fill="currentColor" y="9" dy="0.71em">40</text></g><g class="tick" opacity="1" transform="translate(170,0)"><line stroke="currentColor" y2="6"></line><text fill="currentColor" y="9" dy="0.71em">50</text></g><g class="tick" opacity="1" transform="translate(200,0)"><line stroke="currentColor" y2="6"></line><text fill="currentColor" y="9" dy="0.71em">60</text></g><g class="tick" opacity="1" transform="translate(230,0)"><line stroke="currentColor" y2="6"></line><text fill="currentColor" y="9" dy="0.71em">70</text></g><g class="tick" opacity="1" transform="translate(260,0)"><line stroke="currentColor" y2="6"></line><text fill="currentColor" y="9" dy="0.71em">80</text></g><g class="tick" opacity="1" transform="translate(290,0)"><line stroke="currentColor" y2="6"></line><text fill="currentColor" y="9" dy="0.71em">90</text></g><g class="tick" opacity="1" transform="translate(320,0)"><line stroke="currentColor" y2="6"></line><text fill="currentColor" y="9" dy="0.71em">100</text></g></g><g id="labels"><text id="xTitle" text-anchor="middle" transform="translate(250,350)" x="0" y="40" style="fill: black; font-size: 0.8rem;">Percent Cat Owners</text><g id="group-yTitle" transform="translate(60,190)"><text id="yTitle" text-anchor="middle" transform="rotate(-90)" y="-45" style="fill: black; font-size: 0.8rem;">Percent Dog Owners</text></g></g><g id="quadrant_lines" transform="translate(60,30)"><line id="verticalQuadrantLine" x1="170" y1="10" x2="170" y2="310" class="quadrantLine"></line><line id="horizontalQuadrantLine" x1="10" y1="160" x2="330" y2="160" class="quadrantLine"></line></g><g id="chart" transform="translate(60,30)"><g class="bobaCup bright" cupRadius="20" width="40" height="40" pearlRadius="2.7380424214283137" pearlCount="20" transform="translate(89.99964509459966,198.96841844426137)"><circle class="pool" r="20" cx="20" cy="20" style="stroke-width: 1; fill: rgb(29, 145, 192);"></circle><circle class="pearl" r="2.190433937142651" cx="22.480421380823074" cy="19.96094551607325"></circle><circle class="pearl" r="2.190433937142651" cx="14.554532211889109" cy="20.25858246523202"></circle><circle class="pearl" r="2.190433937142651" cx="21.718613402750453" cy="11.231225788085391"></circle><circle class="pearl" r="2.190433937142651" cx="25.13767186853209" cy="27.447308990534317"></circle><circle class="pearl" r="2.190433937142651" cx="6.622341466842937" cy="15.212813608895589"></circle><circle class="pearl" r="2.190433937142651" cx="28.49521909515808" cy="14.82158787688231"></circle><circle class="pearl" r="2.190433937142651" cx="17.504603283401977" cy="28.993209871734443"></circle><circle class="pearl" r="2.190433937142651" cx="14.13811847195522" cy="12.373399584276378"></circle><circle class="pearl" r="2.190433937142651" cx="31.11803529924844" cy="22.444175683247455"></circle><circle class="pearl" r="2.190433937142651" cx="10.013176726772668" cy="26.767604068489224"></circle><circle class="pearl" r="2.190433937142651" cx="25.1625299271706" cy="4.328500666167248"></circle><circle class="pearl" r="2.190433937142651" cx="27.782608687955303" cy="34.772930101052836"></circle><circle class="pearl" r="2.190433937142651" cx="8.036930275650786" cy="7.623092000895575"></circle><circle class="pearl" r="2.190433937142651" cx="36.040664285033515" cy="16.500106031740792"></circle><circle class="pearl" r="2.190433937142651" cx="11.3070075503718" cy="34.36126950601293"></circle><circle class="pearl" r="2.190433937142651" cx="16.81383473400994" cy="3.9061454691506903"></circle><circle class="pearl" r="2.190433937142651" cx="33.74247113697989" cy="29.87303346303284"></circle><circle class="pearl" r="2.190433937142651" cx="3.788525504185259" cy="22.343736665541265"></circle><circle class="pearl" r="2.190433937142651" cx="32.18050534208177" cy="7.787706818962306"></circle><circle class="pearl" r="2.190433937142651" cx="20.00567962395882" cy="36.34927596497569"></circle></g><g class="bobaCup bright" cupRadius="19.7167961665581" width="39.4335923331162" height="39.4335923331162" pearlRadius="2.738042421428314" pearlCount="19" transform="translate(119.52781941659948,30.28693153858313)"><circle class="pool" r="19.7167961665581" cx="19.7167961665581" cy="19.7167961665581" style="stroke-width: 1; fill: rgb(29, 145, 192);"></circle><circle class="pearl" r="2.1904339371426516" cx="20.898802056381026" cy="19.57611940625157"></circle><circle class="pearl" r="2.1904339371426516" cx="15.630823011692758" cy="25.578025523541218"></circle><circle class="pearl" r="2.1904339371426516" cx="21.5201631218861" cy="11.208222536385707"></circle><circle class="pearl" r="2.1904339371426516" cx="23.536107887088185" cy="27.198736586036958"></circle><circle class="pearl" r="2.1904339371426516" cx="11.695634019426624" cy="18.62925100504321"></circle><circle class="pearl" r="2.1904339371426516" cx="27.895006258292444" cy="15.736043727442915"></circle><circle class="pearl" r="2.1904339371426516" cx="17.480881294406185" cy="33.34619171071016"></circle><circle class="pearl" r="2.1904339371426516" cx="13.738525582989222" cy="10.88911996639045"></circle><circle class="pearl" r="2.1904339371426516" cx="30.51842545654839" cy="23.31683195822516"></circle><circle class="pearl" r="2.1904339371426516" cx="7.3443664352279265" cy="25.31362740768452"></circle><circle class="pearl" r="2.1904339371426516" cx="25.74771241609015" cy="4.595729382859965"></circle><circle class="pearl" r="2.1904339371426516" cx="25.254449019592897" cy="34.989245292348635"></circle><circle class="pearl" r="2.1904339371426516" cx="5.940683891144268" cy="10.494136279592146"></circle><circle class="pearl" r="2.1904339371426516" cx="35.6365941114942" cy="17.319557740596448"></circle><circle class="pearl" r="2.1904339371426516" cx="9.52604296935633" cy="32.94507173374863"></circle><circle class="pearl" r="2.1904339371426516" cx="17.29489195084312" cy="3.800035370771273"></circle><circle class="pearl" r="2.1904339371426516" cx="32.15458210904395" cy="31.11468736302146"></circle><circle class="pearl" r="2.1904339371426516" cx="3.7068263725904775" cy="18.230458066697253"></circle><circle class="pearl" r="2.1904339371426516" cx="32.47375939529609" cy="8.783366869570054"></circle></g><g class="bobaCup bright" cupRadius="17.562879885758175" width="35.12575977151635" height="35.12575977151635" pearlRadius="2.7380424214283132" pearlCount="15" transform="translate(130.5024923303294,91.23076132140554)"><circle class="pool" r="17.562879885758175" cx="17.562879885758175" cy="17.562879885758175" style="stroke-width: 1; fill: rgb(29, 145, 192);"></circle><circle class="pearl" r="2.1904339371426507" cx="18.795476648398463" cy="17.68415005791343"></circle><circle class="pearl" r="2.1904339371426507" cx="13.16061414926817" cy="23.256059521884463"></circle><circle class="pearl" r="2.1904339371426507" cx="16.41826558824102" cy="9.86256519389929"></circle><circle class="pearl" r="2.1904339371426507" cx="20.397044373452303" cy="26.0743477541281"></circle><circle class="pearl" r="2.1904339371426507" cx="11.114733475317152" cy="15.772240954697986"></circle><circle class="pearl" r="2.1904339371426507" cx="24.019786645245745" cy="11.731573802217378"></circle><circle class="pearl" r="2.1904339371426507" cx="14.401866312758244" cy="31.18823095295461"></circle><circle class="pearl" r="2.1904339371426507" cx="10.046154413358957" cy="5.340557154143993"></circle><circle class="pearl" r="2.1904339371426507" cx="26.1744569081152" cy="20.530580852750294"></circle><circle class="pearl" r="2.1904339371426507" cx="4.684539773906198" cy="20.587505833547063"></circle><circle class="pearl" r="2.1904339371426507" cx="21.958745134324076" cy="4.209747122289698"></circle><circle class="pearl" r="2.1904339371426507" cx="27.915455417052844" cy="28.099437219381098"></circle><circle class="pearl" r="2.1904339371426507" cx="4.907529723295908" cy="11.038562262603765"></circle><circle class="pearl" r="2.1904339371426507" cx="31.222871951558293" cy="14.597431204901953"></circle><circle class="pearl" r="2.1904339371426507" cx="7.205083424314204" cy="28.095625991058398"></circle></g><g class="bobaCup bright" cupRadius="17.369858190156947" width="34.739716380313894" height="34.739716380313894" pearlRadius="2.738042421428314" pearlCount="15" transform="translate(50.78128648922504,88.68143067958799)"><circle class="pool" r="17.369858190156947" cx="17.369858190156947" cy="17.369858190156947" style="stroke-width: 1; fill: rgb(29, 145, 192);"></circle><circle class="pearl" r="2.1904339371426516" cx="18.57886512575601" cy="17.502146478887358"></circle><circle class="pearl" r="2.1904339371426516" cx="12.968284667040562" cy="22.986529753554205"></circle><circle class="pearl" r="2.1904339371426516" cx="16.26899511218072" cy="9.908217715048384"></circle><circle class="pearl" r="2.1904339371426516" cx="20.122188917639537" cy="25.733737495196564"></circle><circle class="pearl" r="2.1904339371426516" cx="10.852244375910185" cy="15.665814752751533"></circle><circle class="pearl" r="2.1904339371426516" cx="23.786418301490677" cy="11.572291687369614"></circle><circle class="pearl" r="2.1904339371426516" cx="14.271727020558348" cy="30.81046483383758"></circle><circle class="pearl" r="2.1904339371426516" cx="10.221551777497357" cy="5.189798463457242"></circle><circle class="pearl" r="2.1904339371426516" cx="25.946654383641757" cy="20.297981439475226"></circle><circle class="pearl" r="2.1904339371426516" cx="4.3668103502580475" cy="20.41380404333307"></circle><circle class="pearl" r="2.1904339371426516" cx="21.685520482581047" cy="4.195391003047408"></circle><circle class="pearl" r="2.1904339371426516" cx="27.545116888491098" cy="27.79663772195276"></circle><circle class="pearl" r="2.1904339371426516" cx="5.035706382629849" cy="10.573113114277795"></circle><circle class="pearl" r="2.1904339371426516" cx="30.831963691538196" cy="14.392767931955106"></circle><circle class="pearl" r="2.1904339371426516" cx="7.197985995480222" cy="27.799084876316556"></circle></g><g class="bobaCup bright" cupRadius="17.336885504580188" width="34.673771009160376" height="34.673771009160376" pearlRadius="2.738042421428314" pearlCount="15" transform="translate(170.08832881430124,202.63534556404625)"><circle class="pool" r="17.336885504580188" cx="17.336885504580188" cy="17.336885504580188" style="stroke-width: 1; fill: rgb(29, 145, 192);"></circle><circle class="pearl" r="2.1904339371426516" cx="18.549457523587513" cy="17.485964062431638"></circle><circle class="pearl" r="2.1904339371426516" cx="12.93059661947132" cy="22.938763251185218"></circle><circle class="pearl" r="2.1904339371426516" cx="16.24028579954732" cy="9.896052349017932"></circle><circle class="pearl" r="2.1904339371426516" cx="20.07588999692233" cy="25.657442949173166"></circle><circle class="pearl" r="2.1904339371426516" cx="10.8215822223392" cy="15.643131449715263"></circle><circle class="pearl" r="2.1904339371426516" cx="23.73689846993562" cy="11.553007072961778"></circle><circle class="pearl" r="2.1904339371426516" cx="14.25942727639833" cy="30.747722868543374"></circle><circle class="pearl" r="2.1904339371426516" cx="10.220176834495827" cy="5.178748663428703"></circle><circle class="pearl" r="2.1904339371426516" cx="25.92411797534956" cy="20.253686941156193"></circle><circle class="pearl" r="2.1904339371426516" cx="4.333165623297014" cy="20.38930750395325"></circle><circle class="pearl" r="2.1904339371426516" cx="21.656397498312394" cy="4.19745045114195"></circle><circle class="pearl" r="2.1904339371426516" cx="27.48179827051264" cy="27.74490844949639"></circle><circle class="pearl" r="2.1904339371426516" cx="5.044034119150242" cy="10.527331368904013"></circle><circle class="pearl" r="2.1904339371426516" cx="30.76187677274886" cy="14.338957315854788"></circle><circle class="pearl" r="2.1904339371426516" cx="7.201048433427312" cy="27.751453096534846"></circle></g><g class="bobaCup bright" cupRadius="16.260156833962196" width="32.52031366792439" height="32.52031366792439" pearlRadius="2.7380424214283132" pearlCount="13" transform="translate(241.0072510831277,15.008675447820995)"><circle class="pool" r="16.260156833962196" cx="16.260156833962196" cy="16.260156833962196" style="stroke-width: 1; fill: rgb(65, 182, 196);"></circle><circle class="pearl" r="2.1904339371426507" cx="21.199566763954245" cy="16.305848838992787"></circle><circle class="pearl" r="2.1904339371426507" cx="15.296243691964161" cy="21.56000214952287"></circle><circle class="pearl" r="2.1904339371426507" cx="16.08512641285974" cy="10.367388186935859"></circle><circle class="pearl" r="2.1904339371426507" cx="24.008044359241797" cy="23.78246096726296"></circle><circle class="pearl" r="2.1904339371426507" cx="10.137458329045263" cy="15.702389273513015"></circle><circle class="pearl" r="2.1904339371426507" cx="27.523079622995336" cy="9.781278634254688"></circle><circle class="pearl" r="2.1904339371426507" cx="9.971892341083636" cy="27.60444710764079"></circle><circle class="pearl" r="2.1904339371426507" cx="10.731805336844612" cy="4.619378174577169"></circle><circle class="pearl" r="2.1904339371426507" cx="28.811959423227844" cy="17.62794972302894"></circle><circle class="pearl" r="2.1904339371426507" cx="4.685889795915028" cy="21.535438639696785"></circle><circle class="pearl" r="2.1904339371426507" cx="21.535112370341242" cy="4.530127663698184"></circle><circle class="pearl" r="2.1904339371426507" cx="18.013644864417074" cy="28.77476626488497"></circle><circle class="pearl" r="2.1904339371426507" cx="5.013194497451475" cy="9.74466260336075"></circle></g><g class="bobaCup bright" cupRadius="16.204706688589663" width="32.40941337717933" height="32.40941337717933" pearlRadius="2.7380424214283132" pearlCount="13" transform="translate(194.11987992378874,223.47846212825067)"><circle class="pool" r="16.204706688589663" cx="16.204706688589663" cy="16.204706688589663" style="stroke-width: 1; fill: rgb(65, 182, 196);"></circle><circle class="pearl" r="2.1904339371426507" cx="21.114878198038944" cy="16.501146048050234"></circle><circle class="pearl" r="2.1904339371426507" cx="15.058662228332148" cy="21.49875702724303"></circle><circle class="pearl" r="2.1904339371426507" cx="16.08137435602811" cy="10.523480451427892"></circle><circle class="pearl" r="2.1904339371426507" cx="24.237666199090995" cy="23.85971597664034"></circle><circle class="pearl" r="2.1904339371426507" cx="9.929923580492796" cy="15.60155694230062"></circle><circle class="pearl" r="2.1904339371426507" cx="27.371931449617232" cy="9.645671985161743"></circle><circle class="pearl" r="2.1904339371426507" cx="9.686045961868519" cy="27.389736935765132"></circle><circle class="pearl" r="2.1904339371426507" cx="11.102258185163931" cy="4.475002805629967"></circle><circle class="pearl" r="2.1904339371426507" cx="28.708827123363744" cy="17.474960630169488"></circle><circle class="pearl" r="2.1904339371426507" cx="4.512654429628475" cy="21.419278502497434"></circle><circle class="pearl" r="2.1904339371426507" cx="21.308056770590486" cy="4.475301933175545"></circle><circle class="pearl" r="2.1904339371426507" cx="18.045849910547126" cy="28.65375707642271"></circle><circle class="pearl" r="2.1904339371426507" cx="5.177862289740751" cy="9.337281595752097"></circle></g><g class="bobaCup bright" cupRadius="15.782537864146096" width="31.565075728292193" height="31.565075728292193" pearlRadius="2.738042421428314" pearlCount="12" transform="translate(176.57726505570727,251.20793060401928)"><circle class="pool" r="15.782537864146096" cx="15.782537864146096" cy="15.782537864146096" style="stroke-width: 1; fill: rgb(65, 182, 196);"></circle><circle class="pearl" r="2.1904339371426516" cx="17.78176547695082" cy="11.551321882359359"></circle><circle class="pearl" r="2.1904339371426516" cx="11.575103743949715" cy="17.9121066550613"></circle><circle class="pearl" r="2.1904339371426516" cx="14.275739190374727" cy="4.3669399077448645"></circle><circle class="pearl" r="2.1904339371426516" cx="19.43264431637926" cy="19.371864655101653"></circle><circle class="pearl" r="2.1904339371426516" cx="4.444856091654273" cy="14.297635186228732"></circle><circle class="pearl" r="2.1904339371426516" cx="27.381281767685334" cy="11.715320926252053"></circle><circle class="pearl" r="2.1904339371426516" cx="11.986807916904755" cy="27.451114084336385"></circle><circle class="pearl" r="2.1904339371426516" cx="6.598365005864801" cy="6.598173623501616"></circle><circle class="pearl" r="2.1904339371426516" cx="27.41789068292807" cy="19.709926374052436"></circle><circle class="pearl" r="2.1904339371426516" cx="5.376233961760152" cy="22.958085904034284"></circle><circle class="pearl" r="2.1904339371426516" cx="22.690700878520655" cy="5.24291982832073"></circle><circle class="pearl" r="2.1904339371426516" cx="19.980758419326342" cy="27.345737390843205"></circle></g><g class="bobaCup bright" cupRadius="15.629703360342619" width="31.259406720685238" height="31.259406720685238" pearlRadius="2.7380424214283137" pearlCount="12" transform="translate(282.81063332037013,47.264910059591074)"><circle class="pool" r="15.629703360342619" cx="15.629703360342619" cy="15.629703360342619" style="stroke-width: 1; fill: rgb(29, 145, 192);"></circle><circle class="pearl" r="2.190433937142651" cx="17.299146417934036" cy="11.248985611033046"></circle><circle class="pearl" r="2.190433937142651" cx="11.252048659159245" cy="17.331090658245067"></circle><circle class="pearl" r="2.190433937142651" cx="14.10355823490034" cy="3.920501736214364"></circle><circle class="pearl" r="2.190433937142651" cx="19.060084674699297" cy="19.04729721112167"></circle><circle class="pearl" r="2.190433937142651" cx="3.9353711006070324" cy="14.108696559375879"></circle><circle class="pearl" r="2.190433937142651" cx="27.165683809638946" cy="11.934888272553545"></circle><circle class="pearl" r="2.190433937142651" cx="11.999985093191947" cy="27.18137377334713"></circle><circle class="pearl" r="2.190433937142651" cx="6.554989872673646" cy="6.554971695314649"></circle><circle class="pearl" r="2.190433937142651" cx="27.00593940152595" cy="19.92832200328446"></circle><circle class="pearl" r="2.190433937142651" cx="5.357709289275181" cy="22.73220785711357"></circle><circle class="pearl" r="2.190433937142651" cx="22.66806661917932" cy="5.325174180986323"></circle><circle class="pearl" r="2.190433937142651" cx="19.99263183897291" cy="26.987393846173937"></circle></g><g class="bobaCup bright" cupRadius="15.087956127518494" width="30.175912255036987" height="30.175912255036987" pearlRadius="2.7380424214283137" pearlCount="11" transform="translate(262.6875044932804,68.23558304018222)"><circle class="pool" r="15.087956127518494" cx="15.087956127518494" cy="15.087956127518494" style="stroke-width: 1; fill: rgb(127, 205, 187);"></circle><circle class="pearl" r="2.190433937142651" cx="19.39657221648419" cy="14.978548442381868"></circle><circle class="pearl" r="2.190433937142651" cx="11.950275929259877" cy="17.743376767258454"></circle><circle class="pearl" r="2.190433937142651" cx="13.784511239136842" cy="9.351185479777788"></circle><circle class="pearl" r="2.190433937142651" cx="20.538781962354417" cy="25.427108584064413"></circle><circle class="pearl" r="2.190433937142651" cx="4.76603563865247" cy="14.203631420467975"></circle><circle class="pearl" r="2.190433937142651" cx="25.690122939077416" cy="10.1380525314991"></circle><circle class="pearl" r="2.190433937142651" cx="12.632114258539142" cy="26.323980724462924"></circle><circle class="pearl" r="2.190433937142651" cx="6.414951983075204" cy="6.392610377811822"></circle><circle class="pearl" r="2.190433937142651" cx="25.85347798423744" cy="19.53973080137316"></circle><circle class="pearl" r="2.190433937142651" cx="5.649828623609791" cy="22.593181414529283"></circle><circle class="pearl" r="2.190433937142651" cx="20.09722717306475" cy="4.506545865351979"></circle></g><g class="bobaCup bright" cupRadius="14.732901384459199" width="29.465802768918397" height="29.465802768918397" pearlRadius="2.7380424214283146" pearlCount="11" transform="translate(245.06910371625983,122.51046716335428)"><circle class="pool" r="14.732901384459199" cx="14.732901384459199" cy="14.732901384459199" style="stroke-width: 1; fill: rgb(29, 145, 192);"></circle><circle class="pearl" r="2.1904339371426516" cx="18.665807915117888" cy="14.967627994302969"></circle><circle class="pearl" r="2.1904339371426516" cx="11.046919174986193" cy="16.59159157709372"></circle><circle class="pearl" r="2.1904339371426516" cx="13.657938859412845" cy="8.965782248266631"></circle><circle class="pearl" r="2.1904339371426516" cx="20.75886638208388" cy="24.52636385274614"></circle><circle class="pearl" r="2.1904339371426516" cx="3.687918658578229" cy="13.686665414669303"></circle><circle class="pearl" r="2.1904339371426516" cx="25.23237702649053" cy="10.630431990715726"></circle><circle class="pearl" r="2.1904339371426516" cx="13.040291807343971" cy="25.717527691299203"></circle><circle class="pearl" r="2.1904339371426516" cx="6.371493031110057" cy="6.253281107888191"></circle><circle class="pearl" r="2.1904339371426516" cx="25.30947451543752" cy="18.5594431001278"></circle><circle class="pearl" r="2.1904339371426516" cx="5.943535116988529" cy="22.626098235841493"></circle><circle class="pearl" r="2.1904339371426516" cx="20.231472348000423" cy="4.7152633153801125"></circle></g><g class="bobaCup bright" cupRadius="14.629071796270507" width="29.258143592541014" height="29.258143592541014" pearlRadius="2.7380424214283132" pearlCount="11" transform="translate(163.06516550168467,229.19702041448204)"><circle class="pool" r="14.629071796270507" cx="14.629071796270507" cy="14.629071796270507" style="stroke-width: 1; fill: rgb(29, 145, 192);"></circle><circle class="pearl" r="2.1904339371426507" cx="18.566926326665563" cy="14.951317284965468"></circle><circle class="pearl" r="2.1904339371426507" cx="10.993434196951823" cy="16.56832811066528"></circle><circle class="pearl" r="2.1904339371426507" cx="13.502091239624212" cy="9.102277420146802"></circle><circle class="pearl" r="2.1904339371426507" cx="20.878664757893173" cy="24.205303222285398"></circle><circle class="pearl" r="2.1904339371426507" cx="3.6868489310194787" cy="13.60161575183884"></circle><circle class="pearl" r="2.1904339371426507" cx="24.970760126880304" cy="10.360329548378461"></circle><circle class="pearl" r="2.1904339371426507" cx="13.248991900193959" cy="25.542177772303635"></circle><circle class="pearl" r="2.1904339371426507" cx="6.3707628326633055" cy="6.20461077440292"></circle><circle class="pearl" r="2.1904339371426507" cx="25.149723196098734" cy="18.259758062253493"></circle><circle class="pearl" r="2.1904339371426507" cx="6.112651479968728" cy="22.751285754231468"></circle><circle class="pearl" r="2.1904339371426507" cx="19.857032538450884" cy="4.616773100733513"></circle></g><g class="bobaCup bright" cupRadius="14.512567069675896" width="29.025134139351792" height="29.025134139351792" pearlRadius="2.7380424214283132" pearlCount="11" transform="translate(161.31792528727001,9.856803054186898)"><circle class="pool" r="14.512567069675896" cx="14.512567069675896" cy="14.512567069675896" style="stroke-width: 1; fill: rgb(65, 182, 196);"></circle><circle class="pearl" r="2.1904339371426507" cx="18.451144511477143" cy="14.894611389745014"></circle><circle class="pearl" r="2.1904339371426507" cx="10.944376109716005" cy="16.590718621265857"></circle><circle class="pearl" r="2.1904339371426507" cx="13.322934645896598" cy="9.20568101192132"></circle><circle class="pearl" r="2.1904339371426507" cx="21.028076644579006" cy="23.82960147036312"></circle><circle class="pearl" r="2.1904339371426507" cx="3.6849259207710316" cy="13.51679204243495"></circle><circle class="pearl" r="2.1904339371426507" cx="24.66282350115058" cy="10.023963347487419"></circle><circle class="pearl" r="2.1904339371426507" cx="13.471453643541368" cy="25.33701865130188"></circle><circle class="pearl" r="2.1904339371426507" cx="6.369450191829569" cy="6.150619884655526"></circle><circle class="pearl" r="2.1904339371426507" cx="24.980552591944512" cy="17.87064183965997"></circle><circle class="pearl" r="2.1904339371426507" cx="6.281552587050444" cy="22.814458765825314"></circle><circle class="pearl" r="2.1904339371426507" cx="19.433253225337317" cy="4.51039863716202"></circle></g><g class="bobaCup bright" cupRadius="14.368707671614862" width="28.737415343229724" height="28.737415343229724" pearlRadius="2.7380424214283137" pearlCount="10" transform="translate(148.82700893405124,215.77266777003712)"><circle class="pool" r="14.368707671614862" cx="14.368707671614862" cy="14.368707671614862" style="stroke-width: 1; fill: rgb(127, 205, 187);"></circle><circle class="pearl" r="2.190433937142651" cx="17.927656224689564" cy="12.515670726692486"></circle><circle class="pearl" r="2.190433937142651" cx="11.067158333057328" cy="16.31042921247009"></circle><circle class="pearl" r="2.190433937142651" cx="14.5947534944721" cy="5.2525634218168324"></circle><circle class="pearl" r="2.190433937142651" cx="21.52590344701425" cy="23.17729055473912"></circle><circle class="pearl" r="2.190433937142651" cx="3.690014942913754" cy="13.306823273105863"></circle><circle class="pearl" r="2.190433937142651" cx="22.483589675233656" cy="6.161587495094631"></circle><circle class="pearl" r="2.190433937142651" cx="13.776902171801064" cy="25.074499563459103"></circle><circle class="pearl" r="2.190433937142651" cx="6.630541360393991" cy="5.912385749026637"></circle><circle class="pearl" r="2.190433937142651" cx="24.98885335583977" cy="16.04264334126193"></circle><circle class="pearl" r="2.190433937142651" cx="6.249174155021931" cy="22.572643258262705"></circle></g><g class="bobaCup bright" cupRadius="14.282435925343426" width="28.564871850686853" height="28.564871850686853" pearlRadius="2.7380424214283137" pearlCount="10" transform="translate(102.18089074230991,149.44014430572642)"><circle class="pool" r="14.282435925343426" cx="14.282435925343426" cy="14.282435925343426" style="stroke-width: 1; fill: rgb(127, 205, 187);"></circle><circle class="pearl" r="2.190433937142651" cx="17.769045936359788" cy="12.346525699811082"></circle><circle class="pearl" r="2.190433937142651" cx="11.071851227916975" cy="16.250588298431868"></circle><circle class="pearl" r="2.190433937142651" cx="14.49783722439833" cy="5.0412937282198715"></circle><circle class="pearl" r="2.190433937142651" cx="21.501963984819984" cy="22.955120933131763"></circle><circle class="pearl" r="2.190433937142651" cx="3.6838487270335527" cy="13.310258822176454"></circle><circle class="pearl" r="2.190433937142651" cx="22.30247706492442" cy="6.115083334181042"></circle><circle class="pearl" r="2.190433937142651" cx="13.768295211845231" cy="24.90489157494325"></circle><circle class="pearl" r="2.190433937142651" cx="6.562857643206242" cy="5.916666857595404"></circle><circle class="pearl" r="2.190433937142651" cx="24.835671550804104" cy="15.777604422374186"></circle><circle class="pearl" r="2.190433937142651" cx="6.2560747805880155" cy="22.445497134263196"></circle></g><g class="bobaCup bright" cupRadius="14.239663012692098" width="28.479326025384196" height="28.479326025384196" pearlRadius="2.7380424214283137" pearlCount="10" transform="translate(26.26627883269429,31.376772743938282)"><circle class="pool" r="14.239663012692098" cx="14.239663012692098" cy="14.239663012692098" style="stroke-width: 1; fill: rgb(65, 182, 196);"></circle><circle class="pearl" r="2.190433937142651" cx="17.69120165249227" cy="12.264849029738704"></circle><circle class="pearl" r="2.190433937142651" cx="11.079413419634816" cy="16.226836025677557"></circle><circle class="pearl" r="2.190433937142651" cx="14.440070243066195" cy="4.935252181115306"></circle><circle class="pearl" r="2.190433937142651" cx="21.487563352217034" cy="22.846017061487984"></circle><circle class="pearl" r="2.190433937142651" cx="3.6801159771959657" cy="13.325211408068645"></circle><circle class="pearl" r="2.190433937142651" cx="22.212736231777527" cy="6.092161537599749"></circle><circle class="pearl" r="2.190433937142651" cx="13.761865356722424" cy="24.820584527964968"></circle><circle class="pearl" r="2.190433937142651" cx="6.51984694705847" cy="5.924917482045418"></circle><circle class="pearl" r="2.190433937142651" cx="24.758602836315355" cy="15.649858638238404"></circle><circle class="pearl" r="2.190433937142651" cx="6.259794508029856" cy="22.38256947829621"></circle></g><g class="bobaCup bright" cupRadius="14.21263091660762" width="28.42526183321524" height="28.42526183321524" pearlRadius="2.7380424214283137" pearlCount="10" transform="translate(169.9547536182823,149.79579951832855)"><circle class="pool" r="14.21263091660762" cx="14.21263091660762" cy="14.21263091660762" style="stroke-width: 1; fill: rgb(127, 205, 187);"></circle><circle class="pearl" r="2.190433937142651" cx="17.640909866700113" cy="12.21223055412482"></circle><circle class="pearl" r="2.190433937142651" cx="11.084713223574784" cy="16.212681098916534"></circle><circle class="pearl" r="2.190433937142651" cx="14.403939500118106" cy="4.865559571775574"></circle><circle class="pearl" r="2.190433937142651" cx="21.47833999773825" cy="22.77699463492671"></circle><circle class="pearl" r="2.190433937142651" cx="3.6778979625776422" cy="13.334160391651842"></circle><circle class="pearl" r="2.190433937142651" cx="22.156020948171403" cy="6.077708962238404"></circle><circle class="pearl" r="2.190433937142651" cx="13.757577680793688" cy="24.76725189802617"></circle><circle class="pearl" r="2.190433937142651" cx="6.493923463374831" cy="5.92935092651317"></circle><circle class="pearl" r="2.190433937142651" cx="24.709709028858665" cy="15.568578847887578"></circle><circle class="pearl" r="2.190433937142651" cx="6.262237005427904" cy="22.342829308554485"></circle></g><g class="bobaCup bright" cupRadius="14.139347824189695" width="28.27869564837939" height="28.27869564837939" pearlRadius="2.7380424214283137" pearlCount="10" transform="translate(238.28849518592938,249.8961785876272)"><circle class="pool" r="14.139347824189695" cx="14.139347824189695" cy="14.139347824189695" style="stroke-width: 1; fill: rgb(127, 205, 187);"></circle><circle class="pearl" r="2.190433937142651" cx="17.499051184829987" cy="12.06434997885212"></circle><circle class="pearl" r="2.190433937142651" cx="11.101106211962104" cy="16.177789934247265"></circle><circle class="pearl" r="2.190433937142651" cx="14.308153060269891" cy="4.667419450190062"></circle><circle class="pearl" r="2.190433937142651" cx="21.4534372806417" cy="22.589254840214775"></circle><circle class="pearl" r="2.190433937142651" cx="3.6724705302977068" cy="13.355439422928253"></circle><circle class="pearl" r="2.190433937142651" cx="22.002281541746658" cy="6.038669849213873"></circle><circle class="pearl" r="2.190433937142651" cx="13.745444843701636" cy="24.622484554433132"></circle><circle class="pearl" r="2.190433937142651" cx="6.429515059906923" cy="5.937660511431655"></circle><circle class="pearl" r="2.190433937142651" cx="24.57650918515731" cy="15.344613224529363"></circle><circle class="pearl" r="2.190433937142651" cx="6.269257825987726" cy="22.235234332628654"></circle></g><g class="bobaCup bright" cupRadius="13.749647052445619" width="27.499294104891238" height="27.499294104891238" pearlRadius="2.738042421428314" pearlCount="9" transform="translate(249.27863500510855,60.765216051447844)"><circle class="pool" r="13.749647052445619" cx="13.749647052445619" cy="13.749647052445619" style="stroke-width: 1; fill: rgb(65, 182, 196);"></circle><circle class="pearl" r="2.1904339371426516" cx="17.10102644949226" cy="12.106977826332061"></circle><circle class="pearl" r="2.1904339371426516" cx="10.611498279323301" cy="16.0622852604763"></circle><circle class="pearl" r="2.1904339371426516" cx="13.918601212472504" cy="3.651761312883379"></circle><circle class="pearl" r="2.1904339371426516" cx="19.065845444048772" cy="22.77925618260798"></circle><circle class="pearl" r="2.1904339371426516" cx="3.665917342957816" cy="13.103429937946133"></circle><circle class="pearl" r="2.1904339371426516" cx="21.334593197901196" cy="5.932092902204962"></circle><circle class="pearl" r="2.1904339371426516" cx="11.184085321717212" cy="23.607094946297007"></circle><circle class="pearl" r="2.1904339371426516" cx="6.299914381786605" cy="5.84380170714746"></circle><circle class="pearl" r="2.1904339371426516" cx="23.59292698532362" cy="16.388713695338257"></circle></g><g class="bobaCup bright" cupRadius="13.44617207218711" width="26.89234414437422" height="26.89234414437422" pearlRadius="2.7380424214283137" pearlCount="9" transform="translate(195.9712826270681,12.197596446612906)"><circle class="pool" r="13.44617207218711" cx="13.44617207218711" cy="13.44617207218711" style="stroke-width: 1; fill: rgb(127, 205, 187);"></circle><circle class="pearl" r="2.190433937142651" cx="15.910217746759919" cy="11.328871765287245"></circle><circle class="pearl" r="2.190433937142651" cx="10.218012235122282" cy="16.269730337977585"></circle><circle class="pearl" r="2.190433937142651" cx="13.562846737577654" cy="3.6512294408120773"></circle><circle class="pearl" r="2.190433937142651" cx="20.177136997041185" cy="21.435623007916522"></circle><circle class="pearl" r="2.190433937142651" cx="3.654697680092255" cy="13.119267618519812"></circle><circle class="pearl" r="2.190433937142651" cx="20.80587930877761" cy="5.843706739886123"></circle><circle class="pearl" r="2.190433937142651" cx="12.522026621599117" cy="23.209825406879116"></circle><circle class="pearl" r="2.190433937142651" cx="6.052793572458526" cy="5.86580017362942"></circle><circle class="pearl" r="2.190433937142651" cx="23.218960389429693" cy="14.226480456271144"></circle></g><g class="bobaCup bright" cupRadius="13.033135371504398" width="26.066270743008797" height="26.066270743008797" pearlRadius="2.738042421428314" pearlCount="8" transform="translate(231.1553781984133,94.65317795853414)"><circle class="pool" r="13.033135371504398" cx="13.033135371504398" cy="13.033135371504398" style="stroke-width: 1; fill: rgb(29, 145, 192);"></circle><circle class="pearl" r="2.1904339371426516" cx="19.51546147911941" cy="13.026133576099229"></circle><circle class="pearl" r="2.1904339371426516" cx="11.710030520504164" cy="14.417479419616969"></circle><circle class="pearl" r="2.1904339371426516" cx="12.28916410491076" cy="3.671974633238007"></circle><circle class="pearl" r="2.1904339371426516" cx="20.022499266853476" cy="20.38293076481428"></circle><circle class="pearl" r="2.1904339371426516" cx="3.7878044646942066" cy="14.918448435500553"></circle><circle class="pearl" r="2.1904339371426516" cx="20.021858159173913" cy="5.682932665906671"></circle><circle class="pearl" r="2.1904339371426516" cx="12.215016488983146" cy="22.38984459926463"></circle><circle class="pearl" r="2.1904339371426516" cx="5.111664091503583" cy="7.037559346822743"></circle></g><g class="bobaCup bright" cupRadius="12.848406766366072" width="25.696813532732143" height="25.696813532732143" pearlRadius="2.7380424214283137" pearlCount="8" transform="translate(272.05064426278466,100.85589872257687)"><circle class="pool" r="12.848406766366072" cx="12.848406766366072" cy="12.848406766366072" style="stroke-width: 1; fill: rgb(29, 145, 192);"></circle><circle class="pearl" r="2.190433937142651" cx="14.490774842611385" cy="12.748494710783929"></circle><circle class="pearl" r="2.190433937142651" cx="7.819041635917739" cy="19.145989396676807"></circle><circle class="pearl" r="2.190433937142651" cx="14.904923611086296" cy="3.8163741863053673"></circle><circle class="pearl" r="2.190433937142651" cx="21.472794995987247" cy="16.64356092963251"></circle><circle class="pearl" r="2.190433937142651" cx="3.6617136598227873" cy="12.317089278473784"></circle><circle class="pearl" r="2.190433937142651" cx="21.3193820166801" cy="8.588596627287593"></circle><circle class="pearl" r="2.190433937142651" cx="15.361288378561792" cy="21.797960615585385"></circle><circle class="pearl" r="2.190433937142651" cx="7.00655069578198" cy="5.055604572910024"></circle></g><g class="bobaCup bright" cupRadius="12.769417404289232" width="25.538834808578464" height="25.538834808578464" pearlRadius="2.738042421428314" pearlCount="8" transform="translate(103.85744735136441,103.15352750603535)"><circle class="pool" r="12.769417404289232" cx="12.769417404289232" cy="12.769417404289232" style="stroke-width: 1; fill: rgb(127, 205, 187);"></circle><circle class="pearl" r="2.1904339371426516" cx="14.32077124822814" cy="12.851143922691502"></circle><circle class="pearl" r="2.1904339371426516" cx="7.170115839230906" cy="19.27249639758348"></circle><circle class="pearl" r="2.1904339371426516" cx="15.13891958452482" cy="3.872492237131994"></circle><circle class="pearl" r="2.1904339371426516" cx="21.18409660908865" cy="16.950814893859185"></circle><circle class="pearl" r="2.1904339371426516" cx="3.6689956248209854" cy="12.086539795256408"></circle><circle class="pearl" r="2.1904339371426516" cx="21.30574802060098" cy="8.957103221684225"></circle><circle class="pearl" r="2.1904339371426516" cx="14.776862472170027" cy="21.729331952785802"></circle><circle class="pearl" r="2.1904339371426516" cx="7.214144716612889" cy="4.922446681005361"></circle></g><g class="bobaCup bright" cupRadius="12.68537036447233" width="25.37074072894466" height="25.37074072894466" pearlRadius="2.7380424214283132" pearlCount="8" transform="translate(234.69177150499672,72.64605864722772)"><circle class="pool" r="12.68537036447233" cx="12.68537036447233" cy="12.68537036447233" style="stroke-width: 1; fill: rgb(127, 205, 187);"></circle><circle class="pearl" r="2.1904339371426507" cx="14.147228006945658" cy="12.855597581406547"></circle><circle class="pearl" r="2.1904339371426507" cx="6.639772903340588" cy="19.48797389002313"></circle><circle class="pearl" r="2.1904339371426507" cx="15.131218269644705" cy="3.888746513902544"></circle><circle class="pearl" r="2.1904339371426507" cx="20.93393716387507" cy="17.08145022202674"></circle><circle class="pearl" r="2.1904339371426507" cx="3.6657756907902757" cy="12.067579510156335"></circle><circle class="pearl" r="2.1904339371426507" cx="21.200154372422553" cy="9.091061674059029"></circle><circle class="pearl" r="2.1904339371426507" cx="14.347074291048195" cy="21.610710166286996"></circle><circle class="pearl" r="2.1904339371426507" cx="7.200732207610035" cy="4.897677375221865"></circle></g><g class="bobaCup bright" cupRadius="12.635156910365144" width="25.270313820730287" height="25.270313820730287" pearlRadius="2.7380424214283137" pearlCount="8" transform="translate(7.3648430896348565,224.62829466398307)"><circle class="pool" r="12.635156910365144" cx="12.635156910365144" cy="12.635156910365144" style="stroke-width: 1; fill: rgb(29, 145, 192);"></circle><circle class="pearl" r="2.190433937142651" cx="14.042162369003215" cy="12.842444783202946"></circle><circle class="pearl" r="2.190433937142651" cx="6.366996516628313" cy="19.6116486815142"></circle><circle class="pearl" r="2.190433937142651" cx="15.089692587856819" cy="3.891427962358657"></circle><circle class="pearl" r="2.190433937142651" cx="20.796116571510947" cy="17.121952811932022"></circle><circle class="pearl" r="2.190433937142651" cx="3.662555942580992" cy="12.088461032147226"></circle><circle class="pearl" r="2.190433937142651" cx="21.12476521919145" cy="9.13379427395881"></circle><circle class="pearl" r="2.190433937142651" cx="14.127728429854239" cy="21.531123301321518"></circle><circle class="pearl" r="2.190433937142651" cx="7.1588234580160135" cy="4.89917903333809"></circle></g><g class="bobaCup bright" cupRadius="12.583729285776817" width="25.167458571553635" height="25.167458571553635" pearlRadius="2.738042421428314" pearlCount="8" transform="translate(24.812574042710388,64.09818303551835)"><circle class="pool" r="12.583729285776817" cx="12.583729285776817" cy="12.583729285776817" style="stroke-width: 1; fill: rgb(127, 205, 187);"></circle><circle class="pearl" r="2.1904339371426516" cx="13.934353935377631" cy="12.821046362548227"></circle><circle class="pearl" r="2.1904339371426516" cx="6.1126852470853414" cy="19.725403000750415"></circle><circle class="pearl" r="2.1904339371426516" cx="15.032919812263394" cy="3.891369086667219"></circle><circle class="pearl" r="2.1904339371426516" cx="20.659952514855224" cy="17.147605874504777"></circle><circle class="pearl" r="2.1904339371426516" cx="3.6592854875628196" cy="12.119598931054814"></circle><circle class="pearl" r="2.1904339371426516" cx="21.042566686425833" cy="9.161919223111212"></circle><circle class="pearl" r="2.1904339371426516" cx="13.91979600926305" cy="21.44560644433989"></circle><circle class="pearl" r="2.1904339371426516" cx="7.103490688988224" cy="4.90673307661527"></circle></g><g class="bobaCup bright" cupRadius="12.576775562679828" width="25.153551125359655" height="25.153551125359655" pearlRadius="2.7380424214283137" pearlCount="8" transform="translate(147.31250914976022,56.34521195172195)"><circle class="pool" r="12.576775562679828" cx="12.576775562679828" cy="12.576775562679828" style="stroke-width: 1; fill: rgb(127, 205, 187);"></circle><circle class="pearl" r="2.190433937142651" cx="13.919443269108863" cy="12.817912003869264"></circle><circle class="pearl" r="2.190433937142651" cx="6.089357888923878" cy="19.700498745885984"></circle><circle class="pearl" r="2.190433937142651" cx="15.03908811011442" cy="3.894117240647418"></circle><circle class="pearl" r="2.190433937142651" cx="20.639177147527025" cy="17.156949212150487"></circle><circle class="pearl" r="2.190433937142651" cx="3.6597479861212943" cy="12.10041093953456"></circle><circle class="pearl" r="2.190433937142651" cx="21.033386350567888" cy="9.172697630564912"></circle><circle class="pearl" r="2.190433937142651" cx="13.890855459353686" cy="21.4339889177015"></circle><circle class="pearl" r="2.190433937142651" cx="7.11190334080654" cy="4.9000782926281925"></circle></g><g class="bobaCup bright" cupRadius="12.489556535350523" width="24.979113070701047" height="24.979113070701047" pearlRadius="2.7380424214283137" pearlCount="8" transform="translate(62.62134510369042,221.0594144308424)"><circle class="pool" r="12.489556535350523" cx="12.489556535350523" cy="12.489556535350523" style="stroke-width: 1; fill: rgb(127, 205, 187);"></circle><circle class="pearl" r="2.190433937142651" cx="13.70296758044301" cy="12.784429969781547"></circle><circle class="pearl" r="2.190433937142651" cx="5.713088445729937" cy="19.330187017338954"></circle><circle class="pearl" r="2.190433937142651" cx="15.266548989843937" cy="3.9633616251886554"></circle><circle class="pearl" r="2.190433937142651" cx="20.315535359620558" cy="17.416455401780542"></circle><circle class="pearl" r="2.190433937142651" cx="3.6729460311270916" cy="11.744833738035352"></circle><circle class="pearl" r="2.190433937142651" cx="20.955507672151498" cy="9.460493186185873"></circle><circle class="pearl" r="2.190433937142651" cx="13.401493300116318" cy="21.295052387495122"></circle><circle class="pearl" r="2.190433937142651" cx="7.355957429924935" cy="4.754535050707167"></circle></g><g class="bobaCup bright" cupRadius="12.485928784975096" width="24.971857569950192" height="24.971857569950192" pearlRadius="2.738042421428314" pearlCount="8" transform="translate(177.25649400098976,7.514071215024904)"><circle class="pool" r="12.485928784975096" cx="12.485928784975096" cy="12.485928784975096" style="stroke-width: 1; fill: rgb(29, 145, 192);"></circle><circle class="pearl" r="2.1904339371426516" cx="13.695036304343677" cy="12.782397616745127"></circle><circle class="pearl" r="2.1904339371426516" cx="5.7117180010382445" cy="19.323698578676723"></circle><circle class="pearl" r="2.1904339371426516" cx="15.270426219421314" cy="3.965169291172867"></circle><circle class="pearl" r="2.1904339371426516" cx="20.304638821810368" cy="17.420553207751333"></circle><circle class="pearl" r="2.1904339371426516" cx="3.6731517450180307" cy="11.737878866942612"></circle><circle class="pearl" r="2.1904339371426516" cx="20.950519328507855" cy="9.466394081259882"></circle><circle class="pearl" r="2.1904339371426516" cx="13.39143015671859" cy="21.28825678448624"></circle><circle class="pearl" r="2.1904339371426516" cx="7.360539612736982" cy="4.751187444343309"></circle></g><g class="bobaCup bright" cupRadius="12.451759922063959" width="24.903519844127917" height="24.903519844127917" pearlRadius="2.738042421428314" pearlCount="8" transform="translate(199.2279697126032,266.6604794597644)"><circle class="pool" r="12.451759922063959" cx="12.451759922063959" cy="12.451759922063959" style="stroke-width: 1; fill: rgb(127, 205, 187);"></circle><circle class="pearl" r="2.1904339371426516" cx="13.630637038032127" cy="12.757282396764568"></circle><circle class="pearl" r="2.1904339371426516" cx="5.707594128933687" cy="19.26824992870929"></circle><circle class="pearl" r="2.1904339371426516" cx="15.247836123986781" cy="3.9687169162888805"></circle><circle class="pearl" r="2.1904339371426516" cx="20.225046461893267" cy="17.405377384909734"></circle><circle class="pearl" r="2.1904339371426516" cx="3.6729415728006836" cy="11.708240371813147"></circle><circle class="pearl" r="2.1904339371426516" cx="20.88855457936263" cy="9.462071557786338"></circle><circle class="pearl" r="2.1904339371426516" cx="13.333289687463415" cy="21.221553205676777"></circle><circle class="pearl" r="2.1904339371426516" cx="7.351373560498523" cy="4.743240917128642"></circle></g><g class="bobaCup bright" cupRadius="12.403016096377266" width="24.806032192754532" height="24.806032192754532" pearlRadius="2.7380424214283137" pearlCount="8" transform="translate(152.5942835064723,50.4388339462063)"><circle class="pool" r="12.403016096377266" cx="12.403016096377266" cy="12.403016096377266" style="stroke-width: 1; fill: rgb(29, 145, 192);"></circle><circle class="pearl" r="2.190433937142651" cx="13.547311486057495" cy="12.715950902104797"></circle><circle class="pearl" r="2.190433937142651" cx="5.709258503123104" cy="19.193960242787334"></circle><circle class="pearl" r="2.190433937142651" cx="15.165032548104277" cy="3.962168979977319"></circle><circle class="pearl" r="2.190433937142651" cx="20.131392667292513" cy="17.337678804235185"></circle><circle class="pearl" r="2.190433937142651" cx="3.6708516779339373" cy="11.696686280773102"></circle><circle class="pearl" r="2.190433937142651" cx="20.787449148289095" cy="9.404712977720607"></circle><circle class="pearl" r="2.190433937142651" cx="13.281792802864526" cy="21.12413831572255"></circle><circle class="pearl" r="2.190433937142651" cx="7.293419604788672" cy="4.752109708820459"></circle></g><g class="bobaCup bright" cupRadius="12.298369666866083" width="24.596739333732167" height="24.596739333732167" pearlRadius="2.738042421428314" pearlCount="8" transform="translate(218.15452114714626,142.7539398597371)"><circle class="pool" r="12.298369666866083" cx="12.298369666866083" cy="12.298369666866083" style="stroke-width: 1; fill: rgb(127, 205, 187);"></circle><circle class="pearl" r="2.1904339371426516" cx="13.374744170683671" cy="12.618633849265432"></circle><circle class="pearl" r="2.1904339371426516" cx="5.720105401904572" cy="19.038812673286245"></circle><circle class="pearl" r="2.1904339371426516" cx="14.939504389759955" cy="3.937669006554716"></circle><circle class="pearl" r="2.1904339371426516" cx="19.9490892840181" cy="17.14886305081641"></circle><circle class="pearl" r="2.1904339371426516" cx="3.66522409808896" cy="11.701323745326675"></circle><circle class="pearl" r="2.1904339371426516" cx="20.5581342090305" cy="9.234030011075319"></circle><circle class="pearl" r="2.1904339371426516" cx="13.201021942104273" cy="20.912845797983334"></circle><circle class="pearl" r="2.1904339371426516" cx="7.126082183217756" cy="4.7912553518364085"></circle></g><g class="bobaCup bright" cupRadius="12.24008566356063" width="24.48017132712126" height="24.48017132712126" pearlRadius="2.7380424214283146" pearlCount="7" transform="translate(291.63425824851987,250.94291844782313)"><circle class="pool" r="12.24008566356063" cx="12.24008566356063" cy="12.24008566356063" style="stroke-width: 1; fill: rgb(127, 205, 187);"></circle><circle class="pearl" r="2.1904339371426516" cx="13.963472717107958" cy="12.525653692332648"></circle><circle class="pearl" r="2.1904339371426516" cx="5.898599754515177" cy="14.78582499556087"></circle><circle class="pearl" r="2.1904339371426516" cx="12.224613248385415" cy="3.6507330077398583"></circle><circle class="pearl" r="2.1904339371426516" cx="18.927729393605926" cy="18.792784777688446"></circle><circle class="pearl" r="2.1904339371426516" cx="4.899681032301511" cy="6.853546383079444"></circle><circle class="pearl" r="2.1904339371426516" cx="19.56407800809337" cy="6.820185743748931"></circle><circle class="pearl" r="2.1904339371426516" cx="11.184647491697751" cy="20.783859034549412"></circle></g><g class="bobaCup bright" cupRadius="12.165574840133962" width="24.331149680267924" height="24.331149680267924" pearlRadius="2.738042421428314" pearlCount="7" transform="translate(25.222153593397586,277.38972689418233)"><circle class="pool" r="12.165574840133962" cx="12.165574840133962" cy="12.165574840133962" style="stroke-width: 1; fill: rgb(65, 182, 196);"></circle><circle class="pearl" r="2.1904339371426516" cx="13.731129587947242" cy="12.466464464875806"></circle><circle class="pearl" r="2.1904339371426516" cx="5.593383645723875" cy="14.812890591142326"></circle><circle class="pearl" r="2.1904339371426516" cx="12.199758282326723" cy="3.6507712538408286"></circle><circle class="pearl" r="2.1904339371426516" cx="18.817926344279893" cy="18.634567207029185"></circle><circle class="pearl" r="2.1904339371426516" cx="4.8732558960023535" cy="6.850404175202232"></circle><circle class="pearl" r="2.1904339371426516" cx="19.493520974659734" cy="6.924388885915304"></circle><circle class="pearl" r="2.1904339371426516" cx="11.076331501101556" cy="20.63156569332919"></circle></g><g class="bobaCup bright" cupRadius="11.74879962493118" width="23.49759924986236" height="23.49759924986236" pearlRadius="2.7380424214283132" pearlCount="7" transform="translate(113.80391663785832,29.627307647427315)"><circle class="pool" r="11.74879962493118" cx="11.74879962493118" cy="11.74879962493118" style="stroke-width: 1; fill: rgb(127, 205, 187);"></circle><circle class="pearl" r="2.1904339371426507" cx="12.50513093770599" cy="12.053341253255756"></circle><circle class="pearl" r="2.1904339371426507" cx="4.0826382863409245" cy="14.905129189524924"></circle><circle class="pearl" r="2.1904339371426507" cx="11.972278208446125" cy="3.6528488583028915"></circle><circle class="pearl" r="2.1904339371426507" cx="18.170484381421506" cy="17.79701341160028"></circle><circle class="pearl" r="2.1904339371426507" cx="4.68299293744282" cy="6.933170986322718"></circle><circle class="pearl" r="2.1904339371426507" cx="19.02107731183878" cy="7.421867267332458"></circle><circle class="pearl" r="2.1904339371426507" cx="10.423823008802735" cy="19.771924501997578"></circle></g><g class="bobaCup bright" cupRadius="11.421118612506334" width="22.842237225012667" height="22.842237225012667" pearlRadius="2.7380424214283137" pearlCount="7" transform="translate(118.28010483469932,274.5902871746868)"><circle class="pool" r="11.421118612506334" cx="11.421118612506334" cy="11.421118612506334" style="stroke-width: 1; fill: rgb(29, 145, 192);"></circle><circle class="pearl" r="2.190433937142651" cx="11.455468111808136" cy="11.43675545226146"></circle><circle class="pearl" r="2.190433937142651" cx="3.997773414448316" cy="14.215212176307485"></circle><circle class="pearl" r="2.190433937142651" cx="12.36871897831286" cy="3.6901019078483195"></circle><circle class="pearl" r="2.190433937142651" cx="17.867976981943333" cy="16.757858837822447"></circle><circle class="pearl" r="2.190433937142651" cx="4.872814178375361" cy="6.280906058887873"></circle><circle class="pearl" r="2.190433937142651" cx="18.754504070271356" cy="8.292012234050286"></circle><circle class="pearl" r="2.190433937142651" cx="10.152153014872487" cy="19.12079963545688"></circle></g><g class="bobaCup bright" cupRadius="11.417765619835958" width="22.835531239671916" height="22.835531239671916" pearlRadius="2.7380424214283132" pearlCount="7" transform="translate(216.92742704991605,84.42885353670188)"><circle class="pool" r="11.417765619835958" cx="11.417765619835958" cy="11.417765619835958" style="stroke-width: 1; fill: rgb(65, 182, 196);"></circle><circle class="pearl" r="2.1904339371426507" cx="11.451800888552361" cy="11.433135131195218"></circle><circle class="pearl" r="2.1904339371426507" cx="4.000021414567525" cy="14.220335942868381"></circle><circle class="pearl" r="2.1904339371426507" cx="12.361363998609693" cy="3.689780931904239"></circle><circle class="pearl" r="2.1904339371426507" cx="17.86384519339102" cy="16.748801628388666"></circle><circle class="pearl" r="2.1904339371426507" cx="4.869036786528617" cy="6.285850832258914"></circle><circle class="pearl" r="2.1904339371426507" cx="18.746849661600496" cy="8.28580073245407"></circle><circle class="pearl" r="2.1904339371426507" cx="10.158891802214812" cy="19.11519679895672"></circle></g><g class="bobaCup bright" cupRadius="11.401336636018218" width="22.802673272036436" height="22.802673272036436" pearlRadius="2.738042421428314" pearlCount="6" transform="translate(75.41014250015579,142.23426295257)"><circle class="pool" r="11.401336636018218" cx="11.401336636018218" cy="11.401336636018218" style="stroke-width: 1; fill: rgb(65, 182, 196);"></circle><circle class="pearl" r="2.1904339371426516" cx="12.070806596594409" cy="11.387237198144378"></circle><circle class="pearl" r="2.1904339371426516" cx="6.526349304081222" cy="17.14732449445888"></circle><circle class="pearl" r="2.1904339371426516" cx="9.543348703602051" cy="3.8031328966155535"></circle><circle class="pearl" r="2.1904339371426516" cx="16.992640719604466" cy="17.686799583877352"></circle><circle class="pearl" r="2.1904339371426516" cx="3.828842273040389" cy="9.393884524370668"></circle><circle class="pearl" r="2.1904339371426516" cx="17.42817478373103" cy="5.37385243608867"></circle></g><g class="bobaCup bright" cupRadius="11.379251398860234" width="22.758502797720467" height="22.758502797720467" pearlRadius="2.738042421428314" pearlCount="6" transform="translate(133.24044546353207,58.46935410052011)"><circle class="pool" r="11.379251398860234" cx="11.379251398860234" cy="11.379251398860234" style="stroke-width: 1; fill: rgb(65, 182, 196);"></circle><circle class="pearl" r="2.1904339371426516" cx="12.014021276820753" cy="11.394549068269484"></circle><circle class="pearl" r="2.1904339371426516" cx="6.476360267282297" cy="17.161172786761014"></circle><circle class="pearl" r="2.1904339371426516" cx="9.49347699063725" cy="3.8080667112276836"></circle><circle class="pearl" r="2.1904339371426516" cx="17.08856582828065" cy="17.571855409819204"></circle><circle class="pearl" r="2.1904339371426516" cx="3.817527844027636" cy="9.438014801275338"></circle><circle class="pearl" r="2.1904339371426516" cx="17.38991310241081" cy="5.36771255874714"></circle></g><g class="bobaCup bright" cupRadius="11.342139311203974" width="22.68427862240795" height="22.68427862240795" pearlRadius="2.7380424214283137" pearlCount="6" transform="translate(142.52348718790677,104.57550681035639)"><circle class="pool" r="11.342139311203974" cx="11.342139311203974" cy="11.342139311203974" style="stroke-width: 1; fill: rgb(65, 182, 196);"></circle><circle class="pearl" r="2.190433937142651" cx="11.922246432605128" cy="11.406785973252116"></circle><circle class="pearl" r="2.190433937142651" cx="6.394063924248835" cy="17.182525287005955"></circle><circle class="pearl" r="2.190433937142651" cx="9.415132182223076" cy="3.8156192445964408"></circle><circle class="pearl" r="2.190433937142651" cx="17.228459243580016" cy="17.38653659805048"></circle><circle class="pearl" r="2.190433937142651" cx="3.8002280856507156" cy="9.506639888401768"></circle><circle class="pearl" r="2.190433937142651" cx="17.32549589526695" cy="5.3573258062708575"></circle></g><g class="bobaCup bright" cupRadius="11.315203820157391" width="22.630407640314782" height="22.630407640314782" pearlRadius="2.7380424214283132" pearlCount="6" transform="translate(118.18550050070954,20.932591161073034)"><circle class="pool" r="11.315203820157391" cx="11.315203820157391" cy="11.315203820157391" style="stroke-width: 1; fill: rgb(65, 182, 196);"></circle><circle class="pearl" r="2.1904339371426507" cx="11.847518609380145" cy="11.416303884658186"></circle><circle class="pearl" r="2.1904339371426507" cx="6.330242651131459" cy="17.20216904983995"></circle><circle class="pearl" r="2.1904339371426507" cx="9.355275866419587" cy="3.8217572766969328"></circle><circle class="pearl" r="2.1904339371426507" cx="17.279491554898197" cy="17.280150579107964"></circle><circle class="pearl" r="2.1904339371426507" cx="3.7879804113187623" cy="9.558119171392477"></circle><circle class="pearl" r="2.1904339371426507" cx="17.27881109160723" cy="5.349835025270347"></circle></g><g class="bobaCup bright" cupRadius="11.281242279154704" width="22.562484558309407" height="22.562484558309407" pearlRadius="2.7380424214283132" pearlCount="6" transform="translate(46.00004282218312,271.38339277661237)"><circle class="pool" r="11.281242279154704" cx="11.281242279154704" cy="11.281242279154704" style="stroke-width: 1; fill: rgb(127, 205, 187);"></circle><circle class="pearl" r="2.1904339371426507" cx="11.705109195104145" cy="11.43933870850075"></circle><circle class="pearl" r="2.1904339371426507" cx="6.223754458776749" cy="17.258772416459035"></circle><circle class="pearl" r="2.1904339371426507" cx="9.251465204883454" cy="3.834829283016709"></circle><circle class="pearl" r="2.1904339371426507" cx="17.220399226953862" cy="17.22180895916195"></circle><circle class="pearl" r="2.1904339371426507" cx="3.769251351170955" cy="9.650218054920758"></circle><circle class="pearl" r="2.1904339371426507" cx="17.220024507152562" cy="5.34044357377785"></circle></g><g class="bobaCup bright" cupRadius="10.755836271467574" width="21.51167254293515" height="21.51167254293515" pearlRadius="2.738042421428314" pearlCount="6" transform="translate(167.06707637886151,232.15536279319815)"><circle class="pool" r="10.755836271467574" cx="10.755836271467574" cy="10.755836271467574" style="stroke-width: 1; fill: rgb(65, 182, 196);"></circle><circle class="pearl" r="2.1904339371426516" cx="11.066948235853948" cy="11.037111870379313"></circle><circle class="pearl" r="2.1904339371426516" cx="5.298147818454429" cy="16.373427379843875"></circle><circle class="pearl" r="2.1904339371426516" cx="8.880647364394598" cy="3.815446222322859"></circle><circle class="pearl" r="2.1904339371426516" cx="16.19561495891284" cy="16.383950347765765"></circle><circle class="pearl" r="2.1904339371426516" cx="3.800011967104066" cy="8.970013399451267"></circle><circle class="pearl" r="2.1904339371426516" cx="16.30973801910924" cy="5.19557750699577"></circle></g><g class="bobaCup bright" cupRadius="10.626084590662837" width="21.252169181325673" height="21.252169181325673" pearlRadius="2.7380424214283137" pearlCount="6" transform="translate(290.9011564717734,266.5966068571787)"><circle class="pool" r="10.626084590662837" cx="10.626084590662837" cy="10.626084590662837" style="stroke-width: 1; fill: rgb(29, 145, 192);"></circle><circle class="pearl" r="2.190433937142651" cx="10.960589723476554" cy="10.918124244538582"></circle><circle class="pearl" r="2.190433937142651" cx="5.296879535857819" cy="16.16847004260689"></circle><circle class="pearl" r="2.190433937142651" cx="8.736215812508176" cy="3.820131974144413"></circle><circle class="pearl" r="2.190433937142651" cx="15.93758502545943" cy="16.17871058175509"></circle><circle class="pearl" r="2.190433937142651" cx="3.7934571650383173" cy="8.89027561813769"></circle><circle class="pearl" r="2.190433937142651" cx="16.05867728368616" cy="5.144414356420802"></circle></g><g class="bobaCup bright" cupRadius="10.62134752082423" width="21.24269504164846" height="21.24269504164846" pearlRadius="2.7380424214283132" pearlCount="6" transform="translate(262.41660558735214,26.16234300944646)"><circle class="pool" r="10.62134752082423" cx="10.62134752082423" cy="10.62134752082423" style="stroke-width: 1; fill: rgb(127, 205, 187);"></circle><circle class="pearl" r="2.1904339371426507" cx="10.956755418614124" cy="10.913750332427774"></circle><circle class="pearl" r="2.1904339371426507" cx="5.296925976339872" cy="16.16103007082189"></circle><circle class="pearl" r="2.1904339371426507" cx="8.730868861337578" cy="3.8203190495057404"></circle><circle class="pearl" r="2.1904339371426507" cx="15.928157887048027" cy="16.171210517872613"></circle><circle class="pearl" r="2.1904339371426507" cx="3.793200467168158" cy="8.887478792697557"></circle><circle class="pearl" r="2.1904339371426507" cx="16.04949067283944" cy="5.142542553516328"></circle></g><g class="bobaCup bright" cupRadius="10.356364805900784" width="20.712729611801567" height="20.712729611801567" pearlRadius="2.7380424214283132" pearlCount="5" transform="translate(147.25209925483617,289.1458487675247)"><circle class="pool" r="10.356364805900784" cx="10.356364805900784" cy="10.356364805900784" style="stroke-width: 1; fill: rgb(127, 205, 187);"></circle><circle class="pearl" r="2.1904339371426507" cx="16.65698585829704" cy="7.948452467782739"></circle><circle class="pearl" r="2.1904339371426507" cx="7.276020468362955" cy="15.969031972603874"></circle><circle class="pearl" r="2.1904339371426507" cx="9.909108597187684" cy="3.6603854739133608"></circle><circle class="pearl" r="2.1904339371426507" cx="15.269757158709567" cy="15.822267465247911"></circle><circle class="pearl" r="2.1904339371426507" cx="3.7708974191980458" cy="8.783248891328522"></circle></g><g class="bobaCup bright" cupRadius="10.245598531427294" width="20.49119706285459" height="20.49119706285459" pearlRadius="2.738042421428315" pearlCount="5" transform="translate(96.20596225014002,252.72559758099223)"><circle class="pool" r="10.245598531427294" cx="10.245598531427294" cy="10.245598531427294" style="stroke-width: 1; fill: rgb(127, 205, 187);"></circle><circle class="pearl" r="2.190433937142652" cx="16.528408496319763" cy="7.736174780534911"></circle><circle class="pearl" r="2.190433937142652" cx="7.153216383455085" cy="16.25579319353522"></circle><circle class="pearl" r="2.190433937142652" cx="9.647371919840857" cy="3.6682029599269352"></circle><circle class="pearl" r="2.190433937142652" cx="15.121824233191097" cy="15.605686152754414"></circle><circle class="pearl" r="2.190433937142652" cx="3.722534599754047" cy="9.034671578538441"></circle></g><g class="bobaCup bright" cupRadius="10.201738677521494" width="20.403477355042988" height="20.403477355042988" pearlRadius="2.738042421428314" pearlCount="5" transform="translate(252.95761147262144,200.62359814859408)"><circle class="pool" r="10.201738677521494" cx="10.201738677521494" cy="10.201738677521494" style="stroke-width: 1; fill: rgb(127, 205, 187);"></circle><circle class="pearl" r="2.1904339371426516" cx="16.409407551143985" cy="7.577319274330508"></circle><circle class="pearl" r="2.1904339371426516" cx="7.231641114269017" cy="16.310830637221123"></circle><circle class="pearl" r="2.1904339371426516" cx="9.471704750804411" cy="3.676877278648315"></circle><circle class="pearl" r="2.1904339371426516" cx="15.178378399714873" cy="15.456549072486116"></circle><circle class="pearl" r="2.1904339371426516" cx="3.70348304836411" cy="9.16554362357723"></circle></g><g class="bobaCup bright" cupRadius="9.601371857504224" width="19.20274371500845" height="19.20274371500845" pearlRadius="2.7380424214283137" pearlCount="5" transform="translate(285.25042134878333,243.61604481832882)"><circle class="pool" r="9.601371857504224" cx="9.601371857504224" cy="9.601371857504224" style="stroke-width: 1; fill: rgb(65, 182, 196);"></circle><circle class="pearl" r="2.190433937142651" cx="15.143390597431615" cy="6.830120038076608"></circle><circle class="pearl" r="2.190433937142651" cx="6.548298887466051" cy="15.053674883190372"></circle><circle class="pearl" r="2.190433937142651" cx="8.83359230957407" cy="3.681470440219936"></circle><circle class="pearl" r="2.190433937142651" cx="14.226822504935125" cy="14.364419950656544"></circle><circle class="pearl" r="2.190433937142651" cx="3.7116381811911783" cy="8.521546134471643"></circle></g><g class="bobaCup bright" cupRadius="9.350044155682811" width="18.700088311365622" height="18.700088311365622" pearlRadius="2.7380424214283132" pearlCount="4" transform="translate(291.43718563958146,56.38928005836948)"><circle class="pool" r="9.350044155682811" cx="9.350044155682811" cy="9.350044155682811" style="stroke-width: 1; fill: rgb(65, 182, 196);"></circle><circle class="pearl" r="2.1904339371426507" cx="14.549321896642208" cy="6.333289516583394"></circle><circle class="pearl" r="2.1904339371426507" cx="5.467483289023999" cy="12.221915707018793"></circle><circle class="pearl" r="2.1904339371426507" cx="6.910051243309614" cy="3.9747073190434454"></circle><circle class="pearl" r="2.1904339371426507" cx="13.210052118792488" cy="14.215403608600216"></circle></g><g class="bobaCup bright" cupRadius="8.986841485028162" width="17.973682970056323" height="17.973682970056323" pearlRadius="2.738042421428314" pearlCount="4" transform="translate(40.766287537715186,290.32102904756476)"><circle class="pool" r="8.986841485028162" cx="8.986841485028162" cy="8.986841485028162" style="stroke-width: 1; fill: rgb(29, 145, 192);"></circle><circle class="pearl" r="2.1904339371426516" cx="13.64839351587785" cy="5.570791150410049"></circle><circle class="pearl" r="2.1904339371426516" cx="4.8334088522256895" cy="12.18954191855891"></circle><circle class="pearl" r="2.1904339371426516" cx="5.763375151335369" cy="4.248727805387697"></circle><circle class="pearl" r="2.1904339371426516" cx="12.718427216769955" cy="13.511605263582968"></circle></g><g class="bobaCup bright" cupRadius="8.606242409002455" width="17.21248481800491" height="17.21248481800491" pearlRadius="2.738042421428314" pearlCount="4" transform="translate(311.39375759099755,81.8894343668486)"><circle class="pool" r="8.606242409002455" cx="8.606242409002455" cy="8.606242409002455" style="stroke-width: 1; fill: rgb(127, 205, 187);"></circle><circle class="pearl" r="2.1904339371426516" cx="12.581395817391524" cy="4.623777327156644"></circle><circle class="pearl" r="2.1904339371426516" cx="4.631082774888256" cy="12.588704248659536"></circle><circle class="pearl" r="2.1904339371426516" cx="4.631091824619762" cy="4.623775856492873"></circle><circle class="pearl" r="2.1904339371426516" cx="12.581386767619499" cy="12.588712203712486"></circle></g><g class="bobaCup bright" cupRadius="8.486188654719623" width="16.972377309439246" height="16.972377309439246" pearlRadius="2.7380424214283137" pearlCount="4" transform="translate(236.67799081642247,11.644194939474392)"><circle class="pool" r="8.486188654719623" cx="8.486188654719623" cy="8.486188654719623" style="stroke-width: 1; fill: rgb(29, 145, 192);"></circle><circle class="pearl" r="2.190433937142651" cx="12.348211722071621" cy="4.580446061841298"></circle><circle class="pearl" r="2.190433937142651" cx="4.623929749417681" cy="12.391810708883302"></circle><circle class="pearl" r="2.190433937142651" cx="4.624273607285294" cy="4.580390855073269"></circle><circle class="pearl" r="2.190433937142651" cx="12.347867805682183" cy="12.392107009452136"></circle></g><g class="bobaCup bright" cupRadius="8.473982912481345" width="16.94796582496269" height="16.94796582496269" pearlRadius="2.738042421428314" pearlCount="4" transform="translate(237.91177132573551,98.65624297380444)"><circle class="pool" r="8.473982912481345" cx="8.473982912481345" cy="8.473982912481345" style="stroke-width: 1; fill: rgb(127, 205, 187);"></circle><circle class="pearl" r="2.1904339371426516" cx="12.324520555057095" cy="4.576080685770323"></circle><circle class="pearl" r="2.1904339371426516" cx="4.623166813541863" cy="12.371743092726518"></circle><circle class="pearl" r="2.1904339371426516" cx="4.62357294013216" cy="4.576015562822338"></circle><circle class="pearl" r="2.1904339371426516" cx="12.324114346825642" cy="12.372092331366407"></circle></g><g class="bobaCup bright" cupRadius="8.184341519578345" width="16.36868303915669" height="16.36868303915669" pearlRadius="2.738042421428314" pearlCount="3" transform="translate(121.91236850250118,229.38547977448704)"><circle class="pool" r="8.184341519578345" cx="8.184341519578345" cy="8.184341519578345" style="stroke-width: 1; fill: rgb(65, 182, 196);"></circle><circle class="pearl" r="2.1904339371426516" cx="12.509254641421602" cy="9.853643276732008"></circle><circle class="pearl" r="2.1904339371426516" cx="4.4572590994017" cy="11.111657359595062"></circle><circle class="pearl" r="2.1904339371426516" cx="7.421429328773738" cy="3.686358648515226"></circle></g><g class="bobaCup bright" cupRadius="7.611409104997615" width="15.22281820999523" height="15.22281820999523" pearlRadius="2.7380424214283137" pearlCount="3" transform="translate(65.7730858978188,41.48725279038718)"><circle class="pool" r="7.611409104997615" cx="7.611409104997615" cy="7.611409104997615" style="stroke-width: 1; fill: rgb(29, 145, 192);"></circle><circle class="pearl" r="2.190433937142651" cx="11.548973990721835" cy="8.204226157793162"></circle><circle class="pearl" r="2.190433937142651" cx="4.5370438317685196" cy="10.92357512805215"></circle><circle class="pearl" r="2.190433937142651" cx="5.0569402146892415" cy="4.092178550447968"></circle></g><g class="bobaCup bright" cupRadius="7.344273279270606" width="14.688546558541212" height="14.688546558541212" pearlRadius="2.738042421428314" pearlCount="3" transform="translate(194.10487007967606,101.9213964991213)"><circle class="pool" r="7.344273279270606" cx="7.344273279270606" cy="7.344273279270606" style="stroke-width: 1; fill: rgb(29, 145, 192);"></circle><circle class="pearl" r="2.1904339371426516" cx="10.85530195189866" cy="8.97143636460617"></circle><circle class="pearl" r="2.1904339371426516" cx="4.472288273897009" cy="10.4529917532011"></circle><circle class="pearl" r="2.1904339371426516" cx="5.530721912745731" cy="3.8781586256369844"></circle></g><g class="bobaCup bright" cupRadius="6.624380034088765" width="13.24876006817753" height="13.24876006817753" pearlRadius="2.7380424214283137" pearlCount="2" transform="translate(158.466401902662,288.5298581392507)"><circle class="pool" r="6.624380034088765" cx="6.624380034088765" cy="6.624380034088765" style="stroke-width: 1; fill: rgb(29, 145, 192);"></circle><circle class="pearl" r="2.190433937142651" cx="9.028574589366919" cy="4.102400501599282"></circle><circle class="pearl" r="2.190433937142651" cx="4.220185478810611" cy="9.146359566578248"></circle></g><g class="bobaCup bright" cupRadius="6.2499488097152724" width="12.499897619430545" height="12.499897619430545" pearlRadius="2.7380424214283146" pearlCount="2" transform="translate(60.09854163141271,293.75005119028475)"><circle class="pool" r="6.2499488097152724" cx="6.2499488097152724" cy="6.2499488097152724" style="stroke-width: 1; fill: rgb(65, 182, 196);"></circle><circle class="pearl" r="2.1904339371426516" cx="8.29739967561289" cy="3.9956059865138256"></circle><circle class="pearl" r="2.1904339371426516" cx="4.2024979438176535" cy="8.504291632916718"></circle></g><g class="bobaCup bright" cupRadius="0" width="0" height="0" pearlRadius="NaN" pearlCount="0" transform="translate(20,300)"><circle class="pool" r="0" cx="0" cy="0" style="stroke-width: 1; fill: rgb(127, 205, 187);"></circle></g><g class="bobaCup bright" cupRadius="0" width="0" height="0" pearlRadius="NaN" pearlCount="0" transform="translate(30.777898740281223,138.61061654532858)"><circle class="pool" r="0" cx="0" cy="0" style="stroke-width: 1; fill: rgb(65, 182, 196);"></circle></g></g><g id="legendDividerGroup" transform="translate(410,0)" height="400"><rect class="legendDivider" height="400" width="90"></rect></g><g id="legend" transform="translate(410,30)" width="90" height="320"><rect class="legendBorder" transform="translate(0,0)" width="90" height="324.9477195110013"></rect><text id="rTitle" text-anchor="middle" alignment-baseline="hanging" transform="translate(45,10)" x="0" y="0" style="fill: black; font-size: 0.8rem;">Population</text><text id="bobaValue" text-anchor="middle" alignment-baseline="hanging" transform="translate(45,25)" x="0" y="0" style="fill: black; font-size: 0.7rem;">(1 Pearl =   75)</text><g class="bright" cupRadius="8.94427190999916" width="17.88854381999832" height="17.88854381999832" pearlRadius="2.7380424214283137" pearlCount="4" transform="translate(36.05572809000084,50)"><circle class="pool" r="8.94427190999916" cx="8.94427190999916" cy="8.94427190999916" style="stroke-width: 1; fill: rgb(65, 182, 196);"></circle><circle class="pearl" r="2.190433937142651" cx="13.542613460651712" cy="5.486970900805415"></circle><circle class="pearl" r="2.190433937142651" cx="4.749399498236599" cy="12.229516637519533"></circle><circle class="pearl" r="2.190433937142651" cx="5.6385452023940825" cy="4.284028231246733"></circle><circle class="pearl" r="2.190433937142651" cx="12.653467756495177" cy="13.432459307079196"></circle></g><text id="0" class="legendSampleValue" text-anchor="middle" transform="translate(45,8)" x="0" y="72.88854381999832" style="fill: black; font-size: 0.7rem;"> 300</text><g class="bright" cupRadius="12.649110640673518" width="25.298221281347036" height="25.298221281347036" pearlRadius="2.7380424214283137" pearlCount="8" transform="translate(32.35088935932648,92.88854381999832)"><circle class="pool" r="12.649110640673518" cx="12.649110640673518" cy="12.649110640673518" style="stroke-width: 1; fill: rgb(65, 182, 196);"></circle><circle class="pearl" r="2.190433937142651" cx="14.071403428550026" cy="12.846878791771143"></circle><circle class="pearl" r="2.190433937142651" cx="6.440581911774749" cy="19.57795138257092"></circle><circle class="pearl" r="2.190433937142651" cx="15.10273708455154" cy="3.8909774644866477"></circle><circle class="pearl" r="2.190433937142651" cx="20.833946229646862" cy="17.112242666106596"></circle><circle class="pearl" r="2.190433937142651" cx="3.6634707295578792" cy="12.081372495075817"></circle><circle class="pearl" r="2.190433937142651" cx="21.1462151053254" cy="9.123450087562194"></circle><circle class="pearl" r="2.190433937142651" cx="14.187116834584868" cy="21.553646746241665"></circle><circle class="pearl" r="2.190433937142651" cx="7.171845845081948" cy="4.898098459274186"></circle></g><text id="1" class="legendSampleValue" text-anchor="middle" transform="translate(45,8)" x="0" y="123.18676510134536" style="fill: black; font-size: 0.7rem;"> 600</text><g class="bright" cupRadius="15.491933384829668" width="30.983866769659336" height="30.983866769659336" pearlRadius="2.738042421428314" pearlCount="12" transform="translate(29.508066615170332,143.18676510134537)"><circle class="pool" r="15.491933384829668" cx="15.491933384829668" cy="15.491933384829668" style="stroke-width: 1; fill: rgb(65, 182, 196);"></circle><circle class="pearl" r="2.1904339371426516" cx="17.033011743384765" cy="11.01737610913958"></circle><circle class="pearl" r="2.1904339371426516" cx="11.029309432951333" cy="17.00347040031935"></circle><circle class="pearl" r="2.1904339371426516" cx="13.977981653444434" cy="3.724876288236054"></circle><circle class="pearl" r="2.1904339371426516" cx="18.741808845067855" cy="18.756462357333643"></circle><circle class="pearl" r="2.1904339371426516" cx="3.725529689195627" cy="13.971342248807428"></circle><circle class="pearl" r="2.1904339371426516" cx="26.98661348100194" cy="12.233596672509572"></circle><circle class="pearl" r="2.1904339371426516" cx="12.152198575888569" cy="26.968872613027877"></circle><circle class="pearl" r="2.1904339371426516" cx="6.524197378590721" cy="6.5101702816287865"></circle><circle class="pearl" r="2.1904339371426516" cx="26.508263068801252" cy="20.479674242239334"></circle><circle class="pearl" r="2.1904339371426516" cx="5.419021306595209" cy="22.679550094546478"></circle><circle class="pearl" r="2.1904339371426516" cx="22.76079804957651" cy="5.461881544509561"></circle><circle class="pearl" r="2.1904339371426516" cx="20.400071923945557" cy="26.535092423407907"></circle></g><text id="2" class="legendSampleValue" text-anchor="middle" transform="translate(45,8)" x="0" y="179.1706318710047" style="fill: black; font-size: 0.7rem;"> 900</text><g class="bright" cupRadius="17.88854381999832" width="35.77708763999664" height="35.77708763999664" pearlRadius="2.7380424214283137" pearlCount="16" transform="translate(27.11145618000168,199.1706318710047)"><circle class="pool" r="17.88854381999832" cx="17.88854381999832" cy="17.88854381999832" style="stroke-width: 1; fill: rgb(65, 182, 196);"></circle><circle class="pearl" r="2.190433937142651" cx="19.8046930625516" cy="19.706925044831756"></circle><circle class="pearl" r="2.190433937142651" cx="13.339172784724305" cy="23.858410298028698"></circle><circle class="pearl" r="2.190433937142651" cx="16.092791630714295" cy="11.113543243945612"></circle><circle class="pearl" r="2.190433937142651" cx="20.836129534048155" cy="27.499380517199565"></circle><circle class="pearl" r="2.190433937142651" cx="10.312657514553905" cy="16.56124087753138"></circle><circle class="pearl" r="2.190433937142651" cx="23.678755837700653" cy="13.13675787817294"></circle><circle class="pearl" r="2.190433937142651" cx="14.311679794483911" cy="31.765114841909277"></circle><circle class="pearl" r="2.190433937142651" cx="11.081450997216843" cy="4.99648955196875"></circle><circle class="pearl" r="2.190433937142651" cx="27.674351504393126" cy="20.796258814455655"></circle><circle class="pearl" r="2.190433937142651" cx="4.000488629236898" cy="21.40866477780026"></circle><circle class="pearl" r="2.190433937142651" cx="28.333596734388347" cy="7.01684061165493"></circle><circle class="pearl" r="2.190433937142651" cx="28.522531366621063" cy="28.62247591779055"></circle><circle class="pearl" r="2.190433937142651" cx="5.30391541992303" cy="10.377661215789304"></circle><circle class="pearl" r="2.190433937142651" cx="31.694235049536697" cy="13.980399213320233"></circle><circle class="pearl" r="2.190433937142651" cx="7.311073872078207" cy="28.66408585659018"></circle><circle class="pearl" r="2.190433937142651" cx="18.987039995684725" cy="3.684483203560177"></circle></g><text id="3" class="legendSampleValue" text-anchor="middle" transform="translate(45,8)" x="0" y="239.94771951100134" style="fill: black; font-size: 0.7rem;">1.2k</text><g class="bright" cupRadius="20" width="40" height="40" pearlRadius="2.7380424214283137" pearlCount="20" transform="translate(25,259.9477195110013)"><circle class="pool" r="20" cx="20" cy="20" style="stroke-width: 1; fill: rgb(65, 182, 196);"></circle><circle class="pearl" r="2.190433937142651" cx="22.480421380823074" cy="19.96094551607325"></circle><circle class="pearl" r="2.190433937142651" cx="14.554532211889109" cy="20.25858246523202"></circle><circle class="pearl" r="2.190433937142651" cx="21.718613402750453" cy="11.231225788085391"></circle><circle class="pearl" r="2.190433937142651" cx="25.13767186853209" cy="27.447308990534317"></circle><circle class="pearl" r="2.190433937142651" cx="6.622341466842937" cy="15.212813608895589"></circle><circle class="pearl" r="2.190433937142651" cx="28.49521909515808" cy="14.82158787688231"></circle><circle class="pearl" r="2.190433937142651" cx="17.504603283401977" cy="28.993209871734443"></circle><circle class="pearl" r="2.190433937142651" cx="14.13811847195522" cy="12.373399584276378"></circle><circle class="pearl" r="2.190433937142651" cx="31.11803529924844" cy="22.444175683247455"></circle><circle class="pearl" r="2.190433937142651" cx="10.013176726772668" cy="26.767604068489224"></circle><circle class="pearl" r="2.190433937142651" cx="25.1625299271706" cy="4.328500666167248"></circle><circle class="pearl" r="2.190433937142651" cx="27.782608687955303" cy="34.772930101052836"></circle><circle class="pearl" r="2.190433937142651" cx="8.036930275650786" cy="7.623092000895575"></circle><circle class="pearl" r="2.190433937142651" cx="36.040664285033515" cy="16.500106031740792"></circle><circle class="pearl" r="2.190433937142651" cx="11.3070075503718" cy="34.36126950601293"></circle><circle class="pearl" r="2.190433937142651" cx="16.81383473400994" cy="3.9061454691506903"></circle><circle class="pearl" r="2.190433937142651" cx="33.74247113697989" cy="29.87303346303284"></circle><circle class="pearl" r="2.190433937142651" cx="3.788525504185259" cy="22.343736665541265"></circle><circle class="pearl" r="2.190433937142651" cx="32.18050534208177" cy="7.787706818962306"></circle><circle class="pearl" r="2.190433937142651" cx="20.00567962395882" cy="36.34927596497569"></circle></g><text id="4" class="legendSampleValue" text-anchor="middle" transform="translate(45,8)" x="0" y="304.9477195110013" style="fill: black; font-size: 0.7rem;">1.5k</text></g></svg>