<?xml version="1.0" standalone="no"?>
<?xml-stylesheet xmlns="http://www.w3.org/2000/svg" type="text/css" href="style.css"?>
<svg id="syntheticVisC" class="default" xTitle="Percent Cat Owners" yTitle="Percent Dog Owners" rTitle="Population" chartTitle="Towns in Vizzyland" width="500" height="400" xmlns="http://www.w3.org/2000/svg"><rect class="background" width="500" height="400"></rect><text id="chartTitle" text-anchor="middle" transform="translate(250,20)" x="0" y="0" style="fill: black; font-size: 1.2rem;">Towns in Vizzyland</text><g id="yAxis" transform="translate(50,30)" fill="none" font-size="10" font-family="sans-serif" text-anchor="end"><path class="domain" stroke="currentColor" d="M-6,300H0V20H-6"></path><g class="tick" opacity="1" transform="translate(0,300)"><line stroke="currentColor" x2="-6"></line><text fill="currentColor" x="-9" dy="0.32em">0</text></g><g class="tick" opacity="1" transform="translate(0,272)"><line stroke="currentColor" x2="-6"></line><text fill="currentColor" x="-9" dy="0.32em">10</text></g><g class="tick" opacity="1" transform="translate(0,244)"><line stroke="currentColor" x2="-6"></line><text fill="currentColor" x="-9" dy="0.32em">20</text></g><g class="tick" opacity="1" transform="translate(0,216)"><line stroke="currentColor" x2="-6"></line><text fill="currentColor" x="-9" dy="0.32em">30</text></g><g class="tick" opacity="1" transform="translate(0,188)"><line stroke="currentColor" x2="-6"></line><text fill="currentColor" x="-9" dy="0.32em">40</text></g><g class="tick" opacity="1" transform="translate(0,160)"><line stroke="currentColor" x2="-6"></line><text fill="currentColor" x="-9" dy="0.32em">50</text></g><g class="tick" opacity="1" transform="translate(0,132)"><line stroke="currentColor" x2="-6"></line><text fill="currentColor" x="-9" dy="0.32em">60</text></g><g class="tick" opacity="1" transform="translate(0,104.00000000000001)"><line stroke="currentColor" x2="-6"></line><text fill="currentColor" x="-9" dy="0.32em">70</text></g><g class="tick" opacity="1" transform="translate(0,75.99999999999999)"><line stroke="currentColor" x2="-6"></line><text fill="currentColor" x="-9" dy="0.32em">80</text></g><g class="tick" opacity="1" transform="translate(0,47.99999999999999)"><line stroke="currentColor" x2="-6"></line><text fill="currentColor" x="-9" dy="0.32em">90</text></g><g class="tick" opacity="1" transform="translate(0,20)"><line stroke="currentColor" x2="-6"></line><text fill="currentColor" x="-9" dy="0.32em">100</text></g></g><g id="xAxis" transform="translate(60,360)" fill="none" font-size="10" font-family="sans-serif" text-anchor="middle"><path class="domain" stroke="currentColor" d="M20,6V0H320V6"></path><g class="tick" opacity="1" transform="translate(20,0)"><line stroke="currentColor" y2="6"></line><text fill="currentColor" y="9" dy="0.71em">0</text></g><g class="tick" opacity="1" transform="translate(50,0)"><line stroke="currentColor" y2="6"></line><text fill="currentColor" y="9" dy="0.71em">10</text></g><g class="tick" opacity="1" transform="translate(80,0)"><line stroke="currentColor" y2="6"></line><text fill="currentColor" y="9" dy="0.71em">20</text></g><g class="tick" opacity="1" transform="translate(109.99999999999997,0)"><line stroke="currentColor" y2="6"></line><text fill="currentColor" y="9" dy="0.71em">30</text></g><g class="tick" opacity="1" transform="translate(140,0)"><line stroke="currentColor" y2="6"></line><text fill="currentColor" y="9" dy="0.71em">40</text></g><g class="tick" opacity="1" transform="translate(169.99999999999997,0)"><line stroke="currentColor" y2="6"></line><text fill="currentColor" y="9" dy="0.71em">50</text></g><g class="tick" opacity="1" transform="translate(199.99999999999994,0)"><line stroke="currentColor" y2="6"></line><text fill="currentColor" y="9" dy="0.71em">60</text></g><g class="tick" opacity="1" transform="translate(230,0)"><line stroke="currentColor" y2="6"></line><text fill="currentColor" y="9" dy="0.71em">70</text></g><g class="tick" opacity="1" transform="translate(260,0)"><line stroke="currentColor" y2="6"></line><text fill="currentColor" y="9" dy="0.71em">80</text></g><g class="tick" opacity="1" transform="translate(290,0)"><line stroke="currentColor" y2="6"></line><text fill="currentColor" y="9" dy="0.71em">90</text></g><g class="tick" opacity="1" transform="translate(319.99999999999994,0)"><line stroke="currentColor" y2="6"></line><text fill="currentColor" y="9" dy="0.71em">100</text></g></g><g id="labels"><text id="xTitle" text-anchor="middle" transform="translate(250,350)" x="0" y="40" style="fill: black; font-size: 0.8rem;">Percent Cat Owners</text><g id="group-yTitle" transform="translate(60,190)"><text id="yTitle" text-anchor="middle" transform="rotate(-90)" y="-45" style="fill: black; font-size: 0.8rem;">Percent Dog Owners</text></g></g><g id="quadrant_lines" transform="translate(60,30)"><line id="verticalQuadrantLine" x1="170" y1="10" x2="170" y2="310" class="quadrantLine"></line><line id="horizontalQuadrantLine" x1="10" y1="160" x2="330" y2="160" class="quadrantLine"></line></g><g id="chart" transform="translate(60,30)"><g class="bobaCup bright" cupRadius="20" width="40" height="40" pearlRadius="2.7380424214283137" pearlCount="20" transform="translate(116.21529908589363,246.9040342802498)"><circle class="pool" r="20" cx="20" cy="20" style="stroke-width: 1; fill: rgb(65, 182, 196);"></circle><circle class="pearl" r="2.190433937142651" cx="22.480421380823074" cy="19.96094551607325"></circle><circle class="pearl" r="2.190433937142651" cx="14.554532211889109" cy="20.25858246523202"></circle><circle class="pearl" r="2.190433937142651" cx="21.718613402750453" cy="11.231225788085391"></circle><circle class="pearl" r="2.190433937142651" cx="25.13767186853209" cy="27.447308990534317"></circle><circle class="pearl" r="2.190433937142651" cx="6.622341466842937" cy="15.212813608895589"></circle><circle class="pearl" r="2.190433937142651" cx="28.49521909515808" cy="14.82158787688231"></circle><circle class="pearl" r="2.190433937142651" cx="17.504603283401977" cy="28.993209871734443"></circle><circle class="pearl" r="2.190433937142651" cx="14.13811847195522" cy="12.373399584276378"></circle><circle class="pearl" r="2.190433937142651" cx="31.11803529924844" cy="22.444175683247455"></circle><circle class="pearl" r="2.190433937142651" cx="10.013176726772668" cy="26.767604068489224"></circle><circle class="pearl" r="2.190433937142651" cx="25.1625299271706" cy="4.328500666167248"></circle><circle class="pearl" r="2.190433937142651" cx="27.782608687955303" cy="34.772930101052836"></circle><circle class="pearl" r="2.190433937142651" cx="8.036930275650786" cy="7.623092000895575"></circle><circle class="pearl" r="2.190433937142651" cx="36.040664285033515" cy="16.500106031740792"></circle><circle class="pearl" r="2.190433937142651" cx="11.3070075503718" cy="34.36126950601293"></circle><circle class="pearl" r="2.190433937142651" cx="16.81383473400994" cy="3.9061454691506903"></circle><circle class="pearl" r="2.190433937142651" cx="33.74247113697989" cy="29.87303346303284"></circle><circle class="pearl" r="2.190433937142651" cx="3.788525504185259" cy="22.343736665541265"></circle><circle class="pearl" r="2.190433937142651" cx="32.18050534208177" cy="7.787706818962306"></circle><circle class="pearl" r="2.190433937142651" cx="20.00567962395882" cy="36.34927596497569"></circle></g><g class="bobaCup bright" cupRadius="19.994214487997567" width="39.988428975995134" height="39.988428975995134" pearlRadius="2.7380424214283137" pearlCount="20" transform="translate(295.08329338649764,178.54981543657786)"><circle class="pool" r="19.994214487997567" cx="19.994214487997567" cy="19.994214487997567" style="stroke-width: 1; fill: rgb(127, 205, 187);"></circle><circle class="pearl" r="2.190433937142651" cx="22.45045013616915" cy="19.95888772933376"></circle><circle class="pearl" r="2.190433937142651" cx="14.531527552339815" cy="20.29553428218299"></circle><circle class="pearl" r="2.190433937142651" cx="21.675123544436165" cy="11.215157514092423"></circle><circle class="pearl" r="2.190433937142651" cx="25.160839037713163" cy="27.422700247313983"></circle><circle class="pearl" r="2.190433937142651" cx="6.548351237211739" cy="15.183603326400293"></circle><circle class="pearl" r="2.190433937142651" cx="28.454615267823872" cy="14.814980466827969"></circle><circle class="pearl" r="2.190433937142651" cx="17.516867755365944" cy="28.95480744939548"></circle><circle class="pearl" r="2.190433937142651" cx="14.09630081435762" cy="12.4193578768059"></circle><circle class="pearl" r="2.190433937142651" cx="31.146917624171845" cy="22.415514602935513"></circle><circle class="pearl" r="2.190433937142651" cx="9.995793227576979" cy="26.80068891916926"></circle><circle class="pearl" r="2.190433937142651" cx="25.156946751423575" cy="4.328757748256283"></circle><circle class="pearl" r="2.190433937142651" cx="27.765701922947127" cy="34.76555943974958"></circle><circle class="pearl" r="2.190433937142651" cx="8.041725942451084" cy="7.616630552035279"></circle><circle class="pearl" r="2.190433937142651" cx="36.01558783451621" cy="16.419689438093044"></circle><circle class="pearl" r="2.190433937142651" cx="11.354769130303659" cy="34.374813920381584"></circle><circle class="pearl" r="2.190433937142651" cx="16.79855587746777" cy="3.9077550646044017"></circle><circle class="pearl" r="2.190433937142651" cx="33.733346324198024" cy="29.86141033171586"></circle><circle class="pearl" r="2.190433937142651" cx="3.7899272562239332" cy="22.349458129673234"></circle><circle class="pearl" r="2.190433937142651" cx="32.173840083747464" cy="7.788540479509857"></circle><circle class="pearl" r="2.190433937142651" cx="19.983777093574506" cy="36.33770302315574"></circle></g><g class="bobaCup bright" cupRadius="18.99013212546751" width="37.98026425093502" height="37.98026425093502" pearlRadius="2.7380424214283137" pearlCount="18" transform="translate(212.64313248252807,204.91891405689753)"><circle class="pool" r="18.99013212546751" cx="18.99013212546751" cy="18.99013212546751" style="stroke-width: 1; fill: rgb(29, 145, 192);"></circle><circle class="pearl" r="2.190433937142651" cx="19.622698336039914" cy="18.511725079646883"></circle><circle class="pearl" r="2.190433937142651" cx="13.723741512886425" cy="23.89966350927449"></circle><circle class="pearl" r="2.190433937142651" cx="18.5337420654822" cy="10.682668466740907"></circle><circle class="pearl" r="2.190433937142651" cx="21.334480425894668" cy="26.22745259790669"></circle><circle class="pearl" r="2.190433937142651" cx="11.901287744007282" cy="15.985154155314923"></circle><circle class="pearl" r="2.190433937142651" cx="26.449900707602573" cy="14.362939442691045"></circle><circle class="pearl" r="2.190433937142651" cx="16.376871517690542" cy="32.5361274714077"></circle><circle class="pearl" r="2.190433937142651" cx="13.632502885545078" cy="4.422158170369247"></circle><circle class="pearl" r="2.190433937142651" cx="28.22318385177857" cy="22.141481743501988"></circle><circle class="pearl" r="2.190433937142651" cx="5.733901862310787" cy="23.693316755669624"></circle><circle class="pearl" r="2.190433937142651" cx="30.302124801325352" cy="7.38752982010824"></circle><circle class="pearl" r="2.190433937142651" cx="24.266956232424103" cy="33.581674257507615"></circle><circle class="pearl" r="2.190433937142651" cx="6.82376171352942" cy="8.480866360911103"></circle><circle class="pearl" r="2.190433937142651" cx="34.204087551159915" cy="16.810908086023947"></circle><circle class="pearl" r="2.190433937142651" cx="8.501557494447358" cy="31.1702307439211"></circle><circle class="pearl" r="2.190433937142651" cx="23.025759631157722" cy="4.0844863994712775"></circle><circle class="pearl" r="2.190433937142651" cx="31.098307047456256" cy="29.586463906937702"></circle><circle class="pearl" r="2.190433937142651" cx="3.898344413941224" cy="15.933434266168438"></circle></g><g class="bobaCup bright" cupRadius="17.83403575676863" width="35.66807151353726" height="35.66807151353726" pearlRadius="2.738042421428314" pearlCount="16" transform="translate(129.2529298428817,51.50190026996505)"><circle class="pool" r="17.83403575676863" cx="17.83403575676863" cy="17.83403575676863" style="stroke-width: 1; fill: rgb(29, 145, 192);"></circle><circle class="pearl" r="2.1904339371426516" cx="19.728721108342217" cy="19.62771990532608"></circle><circle class="pearl" r="2.1904339371426516" cx="13.303424355855537" cy="23.777951630891256"></circle><circle class="pearl" r="2.1904339371426516" cx="16.051233694429143" cy="11.064809876165851"></circle><circle class="pearl" r="2.1904339371426516" cx="20.76944478075131" cy="27.400823808377726"></circle><circle class="pearl" r="2.1904339371426516" cx="10.293009995785814" cy="16.50173554920672"></circle><circle class="pearl" r="2.1904339371426516" cx="23.583575006022013" cy="13.096970005419285"></circle><circle class="pearl" r="2.1904339371426516" cx="14.280725812802016" cy="31.659777268407733"></circle><circle class="pearl" r="2.1904339371426516" cx="11.074243834759308" cy="4.981485232994711"></circle><circle class="pearl" r="2.1904339371426516" cx="27.59488131227408" cy="20.717139768801747"></circle><circle class="pearl" r="2.1904339371426516" cx="4.0003784140766285" cy="21.34818820265654"></circle><circle class="pearl" r="2.1904339371426516" cx="28.21828492746847" cy="6.985786589527601"></circle><circle class="pearl" r="2.1904339371426516" cx="28.423616011831474" cy="28.53300316581357"></circle><circle class="pearl" r="2.1904339371426516" cx="5.314006960622649" cy="10.313423392817741"></circle><circle class="pearl" r="2.1904339371426516" cx="31.57975439073878" cy="13.907632581224307"></circle><circle class="pearl" r="2.1904339371426516" cx="7.313944082415416" cy="28.58402440424403"></circle><circle class="pearl" r="2.1904339371426516" cx="19.08545503955609" cy="3.6946836298958883"></circle></g><g class="bobaCup bright" cupRadius="17.82742665220416" width="35.65485330440832" height="35.65485330440832" pearlRadius="2.738042421428314" pearlCount="16" transform="translate(170.50471448664464,12.800632849101987)"><circle class="pool" r="17.82742665220416" cx="17.82742665220416" cy="17.82742665220416" style="stroke-width: 1; fill: rgb(65, 182, 196);"></circle><circle class="pearl" r="2.1904339371426516" cx="19.71856864852398" cy="19.617080969251916"></circle><circle class="pearl" r="2.1904339371426516" cx="13.299230901299804" cy="23.768394645739196"></circle><circle class="pearl" r="2.1904339371426516" cx="16.046011196950143" cy="11.05873275162123"></circle><circle class="pearl" r="2.1904339371426516" cx="20.761245105330964" cy="27.387810965000167"></circle><circle class="pearl" r="2.1904339371426516" cx="10.290824843062506" cy="16.494925593981744"></circle><circle class="pearl" r="2.1904339371426516" cx="23.57191929253777" cy="13.091843506694369"></circle><circle class="pearl" r="2.1904339371426516" cx="14.277369220433485" cy="31.647085024240692"></circle><circle class="pearl" r="2.1904339371426516" cx="11.072305439959303" cy="4.980105195189054"></circle><circle class="pearl" r="2.1904339371426516" cx="27.584249700567092" cy="20.707318634405006"></circle><circle class="pearl" r="2.1904339371426516" cx="4.000444777650369" cy="21.341251543675266"></circle><circle class="pearl" r="2.1904339371426516" cx="28.204288681098856" cy="6.982016759387228"></circle><circle class="pearl" r="2.1904339371426516" cx="28.411748029931115" cy="28.522060930949213"></circle><circle class="pearl" r="2.1904339371426516" cx="5.314758677645511" cy="10.306660344552554"></circle><circle class="pearl" r="2.1904339371426516" cx="31.565895755290224" cy="13.898924254043338"></circle><circle class="pearl" r="2.1904339371426516" cx="7.314447964036411" cy="28.5744261651589"></circle><circle class="pearl" r="2.1904339371426516" cx="19.097409918860546" cy="3.696016050941101"></circle></g><g class="bobaCup bright" cupRadius="17.753407718234342" width="35.506815436468685" height="35.506815436468685" pearlRadius="2.7380424214283132" pearlCount="16" transform="translate(187.929681905422,269.5433239963512)"><circle class="pool" r="17.753407718234342" cx="17.753407718234342" cy="17.753407718234342" style="stroke-width: 1; fill: rgb(65, 182, 196);"></circle><circle class="pearl" r="2.1904339371426507" cx="19.574252237860357" cy="19.46833052024481"></circle><circle class="pearl" r="2.1904339371426507" cx="13.249230475551204" cy="23.661430268428454"></circle><circle class="pearl" r="2.1904339371426507" cx="15.986476830481518" cy="10.992830740987342"></circle><circle class="pearl" r="2.1904339371426507" cx="20.667986389467146" cy="27.210606338588743"></circle><circle class="pearl" r="2.1904339371426507" cx="10.262645019275592" cy="16.42111884528931"></circle><circle class="pearl" r="2.1904339371426507" cx="23.4405798379911" cy="13.029670882082076"></circle><circle class="pearl" r="2.1904339371426507" cx="14.252322682624003" cy="31.507450767418558"></circle><circle class="pearl" r="2.1904339371426507" cx="11.05185844892406" cy="4.964157619550011"></circle><circle class="pearl" r="2.1904339371426507" cx="27.433818402940954" cy="20.590436446552637"></circle><circle class="pearl" r="2.1904339371426507" cx="4.0037802177698145" cy="21.276372395379518"></circle><circle class="pearl" r="2.1904339371426507" cx="28.048469256955432" cy="6.94054931832182"></circle><circle class="pearl" r="2.1904339371426507" cx="28.282767335963356" cy="28.396601785156474"></circle><circle class="pearl" r="2.1904339371426507" cx="5.323544416047091" cy="10.230228706895037"></circle><circle class="pearl" r="2.1904339371426507" cx="31.41189942625004" cy="13.806945519137086"></circle><circle class="pearl" r="2.1904339371426507" cx="7.325393253316528" cy="28.470704531733343"></circle><circle class="pearl" r="2.1904339371426507" cx="19.22648545779282" cy="3.7119426258802823"></circle></g><g class="bobaCup bright" cupRadius="17.74827018940688" width="35.49654037881376" height="35.49654037881376" pearlRadius="2.7380424214283137" pearlCount="16" transform="translate(286.88812667743554,222.90137725037056)"><circle class="pool" r="17.74827018940688" cx="17.74827018940688" cy="17.74827018940688" style="stroke-width: 1; fill: rgb(65, 182, 196);"></circle><circle class="pearl" r="2.190433937142651" cx="19.56110112197933" cy="19.455090237598636"></circle><circle class="pearl" r="2.190433937142651" cx="13.245324542302255" cy="23.653905883390525"></circle><circle class="pearl" r="2.190433937142651" cx="15.982373384790057" cy="10.988604394328913"></circle><circle class="pearl" r="2.190433937142651" cx="20.661390979278742" cy="27.19519889904705"></circle><circle class="pearl" r="2.190433937142651" cx="10.260175990237858" cy="16.416061299604987"></circle><circle class="pearl" r="2.190433937142651" cx="23.431470449919466" cy="13.025028353467858"></circle><circle class="pearl" r="2.190433937142651" cx="14.251828495740655" cy="31.49800644324549"></circle><circle class="pearl" r="2.190433937142651" cx="11.051164935400708" cy="4.962756746131461"></circle><circle class="pearl" r="2.190433937142651" cx="27.420191629440634" cy="20.581646798894564"></circle><circle class="pearl" r="2.190433937142651" cx="4.004268324732166" cy="21.273129569097627"></circle><circle class="pearl" r="2.190433937142651" cx="28.037802865657003" cy="6.937782817873632"></circle><circle class="pearl" r="2.190433937142651" cx="28.274212047018825" cy="28.38760093996274"></circle><circle class="pearl" r="2.190433937142651" cx="5.32444267086759" cy="10.224314248895118"></circle><circle class="pearl" r="2.190433937142651" cx="31.401357717665388" cy="13.801217110460842"></circle><circle class="pearl" r="2.190433937142651" cx="7.326683652690937" cy="28.46388361197724"></circle><circle class="pearl" r="2.190433937142651" cx="19.23501702992601" cy="3.713104168398363"></circle></g><g class="bobaCup bright" cupRadius="17.70415053167147" width="35.40830106334294" height="35.40830106334294" pearlRadius="2.7380424214283132" pearlCount="16" transform="translate(254.66035226924305,59.49690394501255)"><circle class="pool" r="17.70415053167147" cx="17.70415053167147" cy="17.70415053167147" style="stroke-width: 1; fill: rgb(127, 205, 187);"></circle><circle class="pearl" r="2.1904339371426507" cx="19.398759269889414" cy="19.299324261277338"></circle><circle class="pearl" r="2.1904339371426507" cx="13.200989930105862" cy="23.584738598819833"></circle><circle class="pearl" r="2.1904339371426507" cx="15.95235678672476" cy="10.962893648774802"></circle><circle class="pearl" r="2.1904339371426507" cx="20.602674965366372" cy="27.017830470147892"></circle><circle class="pearl" r="2.1904339371426507" cx="10.227327936383352" cy="16.368335895470075"></circle><circle class="pearl" r="2.1904339371426507" cx="23.35717015485686" cy="12.986395407092932"></circle><circle class="pearl" r="2.1904339371426507" cx="14.264715850731315" cy="31.420270284011718"></circle><circle class="pearl" r="2.1904339371426507" cx="11.075006123504359" cy="4.938680825711422"></circle><circle class="pearl" r="2.1904339371426507" cx="27.253049662200883" cy="20.49762348265071"></circle><circle class="pearl" r="2.1904339371426507" cx="4.012086503436449" cy="21.262896970130804"></circle><circle class="pearl" r="2.1904339371426507" cx="27.951032579085417" cy="6.9174794539811595"></circle><circle class="pearl" r="2.1904339371426507" cx="28.20634593251527" cy="28.306175733160412"></circle><circle class="pearl" r="2.1904339371426507" cx="5.343991144413969" cy="10.148451761190925"></circle><circle class="pearl" r="2.1904339371426507" cx="31.314306783592993" cy="13.767275424687218"></circle><circle class="pearl" r="2.1904339371426507" cx="7.345552750081231" cy="28.410878262352067"></circle><circle class="pearl" r="2.1904339371426507" cx="19.295152787372537" cy="3.7223567002639255"></circle></g><g class="bobaCup bright" cupRadius="16.68681070996527" width="33.37362141993054" height="33.37362141993054" pearlRadius="2.7380424214283132" pearlCount="14" transform="translate(85.54904309353653,37.31835907508753)"><circle class="pool" r="16.68681070996527" cx="16.68681070996527" cy="16.68681070996527" style="stroke-width: 1; fill: rgb(29, 145, 192);"></circle><circle class="pearl" r="2.1904339371426507" cx="21.046397025821136" cy="12.614598716132873"></circle><circle class="pearl" r="2.1904339371426507" cx="13.29664260137238" cy="22.101096307279423"></circle><circle class="pearl" r="2.1904339371426507" cx="13.067915109520378" cy="12.336431199726094"></circle><circle class="pearl" r="2.1904339371426507" cx="21.047676442870358" cy="20.578282338517585"></circle><circle class="pearl" r="2.1904339371426507" cx="6.752609789869174" cy="17.5457857785873"></circle><circle class="pearl" r="2.1904339371426507" cx="26.506289184706265" cy="6.845777412630993"></circle><circle class="pearl" r="2.1904339371426507" cx="15.812195746934472" cy="29.699961590875876"></circle><circle class="pearl" r="2.1904339371426507" cx="11.217951664756393" cy="4.572343409594157"></circle><circle class="pearl" r="2.1904339371426507" cx="28.792330564003745" cy="22.18139491551985"></circle><circle class="pearl" r="2.1904339371426507" cx="6.3241727084573744" cy="25.746355880973084"></circle><circle class="pearl" r="2.1904339371426507" cx="19.166166372943543" cy="3.835944706990527"></circle><circle class="pearl" r="2.1904339371426507" cx="23.656481816282078" cy="28.19766181719402"></circle><circle class="pearl" r="2.1904339371426507" cx="5.173177603320803" cy="9.723194651564315"></circle><circle class="pearl" r="2.1904339371426507" cx="29.54004972985194" cy="14.223300658901385"></circle></g><g class="bobaCup bright" cupRadius="16.1392631440066" width="32.2785262880132" height="32.2785262880132" pearlRadius="2.7380424214283137" pearlCount="13" transform="translate(76.51595794221313,242.00680879551274)"><circle class="pool" r="16.1392631440066" cx="16.1392631440066" cy="16.1392631440066" style="stroke-width: 1; fill: rgb(127, 205, 187);"></circle><circle class="pearl" r="2.190433937142651" cx="21.034101111984818" cy="16.736624302485296"></circle><circle class="pearl" r="2.190433937142651" cx="14.771429916164125" cy="21.39008603601195"></circle><circle class="pearl" r="2.190433937142651" cx="16.21637261986784" cy="10.619949714811314"></circle><circle class="pearl" r="2.190433937142651" cx="24.409850872699238" cy="24.057052185239773"></circle><circle class="pearl" r="2.190433937142651" cx="9.82478088448407" cy="15.312015361760904"></circle><circle class="pearl" r="2.190433937142651" cx="27.27523869976173" cy="9.67170147881195"></circle><circle class="pearl" r="2.190433937142651" cx="9.326523983551784" cy="27.11941138514282"></circle><circle class="pearl" r="2.190433937142651" cx="11.610674499533305" cy="4.299095509859772"></circle><circle class="pearl" r="2.190433937142651" cx="28.57117302284355" cy="17.49008776770604"></circle><circle class="pearl" r="2.190433937142651" cx="4.4240350882605775" cy="21.075188179851775"></circle><circle class="pearl" r="2.190433937142651" cx="21.275716210801992" cy="4.489899290338643"></circle><circle class="pearl" r="2.190433937142651" cx="17.93594693149048" cy="28.527484462982347"></circle><circle class="pearl" r="2.190433937142651" cx="5.416108909834088" cy="8.79981755748431"></circle></g><g class="bobaCup bright" cupRadius="15.530336679848066" width="31.060673359696132" height="31.060673359696132" pearlRadius="2.7380424214283137" pearlCount="12" transform="translate(238.75061158892717,126.02839685782587)"><circle class="pool" r="15.530336679848066" cx="15.530336679848066" cy="15.530336679848066" style="stroke-width: 1; fill: rgb(65, 182, 196);"></circle><circle class="pearl" r="2.190433937142651" cx="17.063600810045294" cy="11.074739588046048"></circle><circle class="pearl" r="2.190433937142651" cx="11.079195706868246" cy="17.051336470258207"></circle><circle class="pearl" r="2.190433937142651" cx="14.003696817432525" cy="3.7259401055862362"></circle><circle class="pearl" r="2.190433937142651" cx="18.835981462936683" cy="18.84293430374568"></circle><circle class="pearl" r="2.190433937142651" cx="3.7262487372174675" cy="14.000575570414988"></circle><circle class="pearl" r="2.190433937142651" cx="27.02679824284782" cy="12.10190405262038"></circle><circle class="pearl" r="2.190433937142651" cx="12.066936416401287" cy="27.01884117281519"></circle><circle class="pearl" r="2.190433937142651" cx="6.530173182743448" cy="6.524503725364465"></circle><circle class="pearl" r="2.190433937142651" cx="26.703519822250023" cy="20.16101236424436"></circle><circle class="pearl" r="2.190433937142651" cx="5.377863308453291" cy="22.648139782781243"></circle><circle class="pearl" r="2.190433937142651" cx="22.682736528229483" cy="5.395758540719287"></circle><circle class="pearl" r="2.190433937142651" cx="20.123076147430762" cy="26.715317060217895"></circle></g><g class="bobaCup bright" cupRadius="15.506327529954298" width="31.012655059908596" height="31.012655059908596" pearlRadius="2.7380424214283137" pearlCount="12" transform="translate(292.34255375365115,59.18939242116338)"><circle class="pool" r="15.506327529954298" cx="15.506327529954298" cy="15.506327529954298" style="stroke-width: 1; fill: rgb(65, 182, 196);"></circle><circle class="pearl" r="2.190433937142651" cx="17.043502636760774" cy="11.040013137351304"></circle><circle class="pearl" r="2.190433937142651" cx="11.048921102208963" cy="17.020937338995004"></circle><circle class="pearl" r="2.190433937142651" cx="13.987867695799947" cy="3.725250047063401"></circle><circle class="pearl" r="2.190433937142651" cx="18.778163490857686" cy="18.790084121358905"></circle><circle class="pearl" r="2.190433937142651" cx="3.725777618037137" cy="13.982515622314597"></circle><circle class="pearl" r="2.190433937142651" cx="27.001237288264083" cy="12.181271907423364"></circle><circle class="pearl" r="2.190433937142651" cx="12.118060293011117" cy="26.987221485189973"></circle><circle class="pearl" r="2.190433937142651" cx="6.526396663917943" cy="6.515570026133862"></circle><circle class="pearl" r="2.190433937142651" cx="26.587864091404036" cy="20.344376201221895"></circle><circle class="pearl" r="2.190433937142651" cx="5.40235375415654" cy="22.6655526126169"></circle><circle class="pearl" r="2.190433937142651" cx="22.728452909306448" cy="5.435276147669244"></circle><circle class="pearl" r="2.190433937142651" cx="20.27995895900053" cy="26.608862804027318"></circle></g><g class="bobaCup bright" cupRadius="15.20791095981136" width="30.41582191962272" height="30.41582191962272" pearlRadius="2.738042421428314" pearlCount="12" transform="translate(55.85585707931364,265.16610316289405)"><circle class="pool" r="15.20791095981136" cx="15.20791095981136" cy="15.20791095981136" style="stroke-width: 1; fill: rgb(65, 182, 196);"></circle><circle class="pearl" r="2.1904339371426516" cx="16.94733766068063" cy="10.711259741242786"></circle><circle class="pearl" r="2.1904339371426516" cx="10.83891162717737" cy="16.538086129929546"></circle><circle class="pearl" r="2.1904339371426516" cx="13.832483391652897" cy="3.7130488657116776"></circle><circle class="pearl" r="2.1904339371426516" cx="18.281892400155563" cy="18.33102766000682"></circle><circle class="pearl" r="2.1904339371426516" cx="3.7156006200953127" cy="13.804668246921121"></circle><circle class="pearl" r="2.1904339371426516" cx="26.619279512612845" cy="13.10697142449404"></circle><circle class="pearl" r="2.1904339371426516" cx="12.15805765447861" cy="26.45614576787832"></circle><circle class="pearl" r="2.1904339371426516" cx="6.466073214927135" cy="6.414325103356148"></circle><circle class="pearl" r="2.1904339371426516" cx="25.630808965787914" cy="20.971047354869196"></circle><circle class="pearl" r="2.1904339371426516" cx="5.430856344696151" cy="22.347612490138655"></circle><circle class="pearl" r="2.1904339371426516" cx="23.285982139080765" cy="5.973552823322795"></circle><circle class="pearl" r="2.1904339371426516" cx="20.04632803909907" cy="25.974894758656507"></circle></g><g class="bobaCup bright" cupRadius="14.919105031248217" width="29.838210062496433" height="29.838210062496433" pearlRadius="2.7380424214283137" pearlCount="11" transform="translate(301.5464640440003,165.4790620488316)"><circle class="pool" r="14.919105031248217" cx="14.919105031248217" cy="14.919105031248217" style="stroke-width: 1; fill: rgb(29, 145, 192);"></circle><circle class="pearl" r="2.190433937142651" cx="18.898064470866903" cy="15.058097701901215"></circle><circle class="pearl" r="2.190433937142651" cx="11.143741461472406" cy="16.650823302571983"></circle><circle class="pearl" r="2.190433937142651" cx="13.803845457273404" cy="9.014852615047827"></circle><circle class="pearl" r="2.190433937142651" cx="20.620631264130743" cy="25.055052668015446"></circle><circle class="pearl" r="2.190433937142651" cx="3.6904917269572888" cy="13.830509938822344"></circle><circle class="pearl" r="2.190433937142651" cx="25.59955339603511" cy="10.772152451926244"></circle><circle class="pearl" r="2.190433937142651" cx="12.746765411157662" cy="26.028484631194306"></circle><circle class="pearl" r="2.190433937142651" cx="6.383217413669946" cy="6.333884589080627"></circle><circle class="pearl" r="2.190433937142651" cx="25.60995107299092" cy="19.029954797197718"></circle><circle class="pearl" r="2.190433937142651" cx="5.693880409246006" cy="22.454996609736643"></circle><circle class="pearl" r="2.190433937142651" cx="20.470996195791926" cy="4.722221989041765"></circle></g><g class="bobaCup bright" cupRadius="14.477319154161297" width="28.954638308322593" height="28.954638308322593" pearlRadius="2.738042421428314" pearlCount="10" transform="translate(162.16939716641528,257.5254888280436)"><circle class="pool" r="14.477319154161297" cx="14.477319154161297" cy="14.477319154161297" style="stroke-width: 1; fill: rgb(29, 145, 192);"></circle><circle class="pearl" r="2.1904339371426516" cx="18.29463271783533" cy="12.76488192100864"></circle><circle class="pearl" r="2.1904339371426516" cx="11.38684856121153" cy="16.617987171948258"></circle><circle class="pearl" r="2.1904339371426516" cx="14.728239405977968" cy="5.619493653744055"></circle><circle class="pearl" r="2.1904339371426516" cx="21.233771128355738" cy="23.630623675163765"></circle><circle class="pearl" r="2.1904339371426516" cx="4.042269903354555" cy="13.417451109823526"></circle><circle class="pearl" r="2.1904339371426516" cx="22.69289065190252" cy="6.207591264718953"></circle><circle class="pearl" r="2.1904339371426516" cx="13.46498999765924" cy="25.268478059520728"></circle><circle class="pearl" r="2.1904339371426516" cx="6.737818352162941" cy="5.8931375107150945"></circle><circle class="pearl" r="2.1904339371426516" cx="25.12313547543835" cy="16.758048596921554"></circle><circle class="pearl" r="2.1904339371426516" cx="6.096958029425121" cy="22.530006853001403"></circle></g><g class="bobaCup bright" cupRadius="14.431386675296704" width="28.862773350593407" height="28.862773350593407" pearlRadius="2.7380424214283132" pearlCount="10" transform="translate(64.81029887922354,285.5686133247033)"><circle class="pool" r="14.431386675296704" cx="14.431386675296704" cy="14.431386675296704" style="stroke-width: 1; fill: rgb(29, 145, 192);"></circle><circle class="pearl" r="2.1904339371426507" cx="18.062260614150727" cy="12.657821124385585"></circle><circle class="pearl" r="2.1904339371426507" cx="11.082745948947487" cy="16.37784012034478"></circle><circle class="pearl" r="2.1904339371426507" cx="14.631382618905922" cy="5.445748266104143"></circle><circle class="pearl" r="2.1904339371426507" cx="21.49980575300731" cy="23.3624905443211"></circle><circle class="pearl" r="2.1904339371426507" cx="3.691938362313741" cy="13.341485589610826"></circle><circle class="pearl" r="2.1904339371426507" cx="22.617995081360693" cy="6.197482683054605"></circle><circle class="pearl" r="2.1904339371426507" cx="13.748980921683327" cy="25.195906897995062"></circle><circle class="pearl" r="2.1904339371426507" cx="6.65151221747804" cy="5.927338215657762"></circle><circle class="pearl" r="2.1904339371426507" cx="25.090415491710036" cy="16.301124031984962"></circle><circle class="pearl" r="2.1904339371426507" cx="6.240258159923999" cy="22.662175766989375"></circle></g><g class="bobaCup bright" cupRadius="13.981721278737542" width="27.963442557475084" height="27.963442557475084" pearlRadius="2.7380424214283132" pearlCount="10" transform="translate(305.2578409025793,87.10831947719399)"><circle class="pool" r="13.981721278737542" cx="13.981721278737542" cy="13.981721278737542" style="stroke-width: 1; fill: rgb(127, 205, 187);"></circle><circle class="pearl" r="2.1904339371426507" cx="17.156802030874744" cy="11.710725883105392"></circle><circle class="pearl" r="2.1904339371426507" cx="11.150563657874299" cy="16.125187757950982"></circle><circle class="pearl" r="2.1904339371426507" cx="14.115764370569774" cy="4.211985358806105"></circle><circle class="pearl" r="2.1904339371426507" cx="21.40011839636302" cy="22.182407844849457"></circle><circle class="pearl" r="2.1904339371426507" cx="3.6633886154957986" cy="13.386736062356913"></circle><circle class="pearl" r="2.1904339371426507" cx="21.672381879071704" cy="5.9558752574488905"></circle><circle class="pearl" r="2.1904339371426507" cx="13.715669677948332" cy="24.310187814313007"></circle><circle class="pearl" r="2.1904339371426507" cx="6.322193171070162" cy="5.935429542619748"></circle><circle class="pearl" r="2.1904339371426507" cx="24.2863289595039" cy="14.840365050736807"></circle><circle class="pearl" r="2.1904339371426507" cx="6.285691719932671" cy="22.004029316564395"></circle></g><g class="bobaCup bright" cupRadius="13.903265954439295" width="27.80653190887859" height="27.80653190887859" pearlRadius="2.738042421428314" pearlCount="10" transform="translate(291.3292193333519,192.77017281478567)"><circle class="pool" r="13.903265954439295" cx="13.903265954439295" cy="13.903265954439295" style="stroke-width: 1; fill: rgb(65, 182, 196);"></circle><circle class="pearl" r="2.1904339371426516" cx="16.960038770656528" cy="11.509864722463385"></circle><circle class="pearl" r="2.1904339371426516" cx="11.186135882718593" cy="16.11431505732462"></circle><circle class="pearl" r="2.1904339371426516" cx="14.029581209215534" cy="3.9761633536579764"></circle><circle class="pearl" r="2.1904339371426516" cx="21.372175405877126" cy="21.979272696584406"></circle><circle class="pearl" r="2.1904339371426516" cx="3.6599877158756002" cy="13.39579434821154"></circle><circle class="pearl" r="2.1904339371426516" cx="21.509616272593107" cy="5.915937841080657"></circle><circle class="pearl" r="2.1904339371426516" cx="13.696971413313422" cy="24.154278112580638"></circle><circle class="pearl" r="2.1904339371426516" cx="6.286328845918431" cy="5.922863988743549"></circle><circle class="pearl" r="2.1904339371426516" cx="24.13950005060332" cy="14.576482458141266"></circle><circle class="pearl" r="2.1904339371426516" cx="6.2933534663153825" cy="21.88826514104152"></circle></g><g class="bobaCup bright" cupRadius="13.898631611503427" width="27.797263223006855" height="27.797263223006855" pearlRadius="2.738042421428314" pearlCount="10" transform="translate(50.64214660842,128.61165019474487)"><circle class="pool" r="13.898631611503427" cx="13.898631611503427" cy="13.898631611503427" style="stroke-width: 1; fill: rgb(29, 145, 192);"></circle><circle class="pearl" r="2.1904339371426516" cx="16.947716654367834" cy="11.497359734818408"></circle><circle class="pearl" r="2.1904339371426516" cx="11.188550777458763" cy="16.11406463401275"></circle><circle class="pearl" r="2.1904339371426516" cx="14.024733151240383" cy="3.9621926606595954"></circle><circle class="pearl" r="2.1904339371426516" cx="21.370452663626796" cy="21.967287668429012"></circle><circle class="pearl" r="2.1904339371426516" cx="3.6598059674592887" cy="13.396244522183306"></circle><circle class="pearl" r="2.1904339371426516" cx="21.50006227463625" cy="5.913624843814437"></circle><circle class="pearl" r="2.1904339371426516" cx="13.695735720584132" cy="24.145058951654352"></circle><circle class="pearl" r="2.1904339371426516" cx="6.284579380324601" cy="5.921880080129295"></circle><circle class="pearl" r="2.1904339371426516" cx="24.130765892808274" cy="14.560619551547493"></circle><circle class="pearl" r="2.1904339371426516" cx="6.293758083284301" cy="21.88138848529528"></circle></g><g class="bobaCup bright" cupRadius="13.71023506547271" width="27.42047013094542" height="27.42047013094542" pearlRadius="2.738042421428314" pearlCount="9" transform="translate(33.519577304622125,78.20826423333861)"><circle class="pool" r="13.71023506547271" cx="13.71023506547271" cy="13.71023506547271" style="stroke-width: 1; fill: rgb(29, 145, 192);"></circle><circle class="pearl" r="2.1904339371426516" cx="17.055256882042354" cy="12.047829094522797"></circle><circle class="pearl" r="2.1904339371426516" cx="10.613056323003438" cy="16.003718341488856"></circle><circle class="pearl" r="2.1904339371426516" cx="13.838863605287656" cy="3.6513266341755206"></circle><circle class="pearl" r="2.1904339371426516" cx="18.987752477391044" cy="22.71330002532237"></circle><circle class="pearl" r="2.1904339371426516" cx="3.662516471947511" cy="13.141695535483006"></circle><circle class="pearl" r="2.1904339371426516" cx="21.25009328918121" cy="5.9101468155112435"></circle><circle class="pearl" r="2.1904339371426516" cx="11.110375445113606" cy="23.520985586270367"></circle><circle class="pearl" r="2.1904339371426516" cx="6.228162372914129" cy="5.872305902497315"></circle><circle class="pearl" r="2.1904339371426516" cx="23.515029593097047" cy="16.340745940422146"></circle></g><g class="bobaCup bright" cupRadius="13.582368865491915" width="27.16473773098383" height="27.16473773098383" pearlRadius="2.7380424214283137" pearlCount="9" transform="translate(222.04644673719616,60.65114522718932)"><circle class="pool" r="13.582368865491915" cx="13.582368865491915" cy="13.582368865491915" style="stroke-width: 1; fill: rgb(29, 145, 192);"></circle><circle class="pearl" r="2.190433937142651" cx="16.78946142226984" cy="11.806316362670426"></circle><circle class="pearl" r="2.190433937142651" cx="10.552147342669041" cy="15.885622031705296"></circle><circle class="pearl" r="2.190433937142651" cx="13.64145897958506" cy="3.650851764989868"></circle><circle class="pearl" r="2.190433937142651" cx="18.95367538140923" cy="22.40681338370277"></circle><circle class="pearl" r="2.190433937142651" cx="3.6563723731222773" cy="13.190673043069243"></circle><circle class="pearl" r="2.190433937142651" cx="20.992205950696132" cy="5.8499880196456715"></circle><circle class="pearl" r="2.190433937142651" cx="11.106698628802926" cy="23.286487488378913"></circle><circle class="pearl" r="2.190433937142651" cx="6.072386848825115" cy="5.915808227886213"></circle><circle class="pearl" r="2.190433937142651" cx="23.30662504411774" cy="15.946828604067022"></circle></g><g class="bobaCup bright" cupRadius="13.37427958942615" width="26.7485591788523" height="26.7485591788523" pearlRadius="2.7380424214283132" pearlCount="9" transform="translate(135.47497628940877,247.3520132122624)"><circle class="pool" r="13.37427958942615" cx="13.37427958942615" cy="13.37427958942615" style="stroke-width: 1; fill: rgb(127, 205, 187);"></circle><circle class="pearl" r="2.1904339371426507" cx="15.460548944589696" cy="11.286094543288717"></circle><circle class="pearl" r="2.1904339371426507" cx="10.007774381067337" cy="16.711542722249575"></circle><circle class="pearl" r="2.1904339371426507" cx="13.456656305978003" cy="3.6509769240223386"></circle><circle class="pearl" r="2.1904339371426507" cx="20.814036021365673" cy="20.837573580994476"></circle><circle class="pearl" r="2.1904339371426507" cx="3.6525462725388644" cy="13.153461845645158"></circle><circle class="pearl" r="2.1904339371426507" cx="20.704529414078547" cy="5.838457683581317"></circle><circle class="pearl" r="2.1904339371426507" cx="13.533290983804001" cy="23.09689064638756"></circle><circle class="pearl" r="2.1904339371426507" cx="6.029983856736439" cy="5.847674213767305"></circle><circle class="pearl" r="2.1904339371426507" cx="23.097707615631546" cy="13.315689910287036"></circle></g><g class="bobaCup bright" cupRadius="12.963258447168167" width="25.926516894336334" height="25.926516894336334" pearlRadius="2.7380424214283137" pearlCount="8" transform="translate(171.91320691548887,248.95156405630038)"><circle class="pool" r="12.963258447168167" cx="12.963258447168167" cy="12.963258447168167" style="stroke-width: 1; fill: rgb(127, 205, 187);"></circle><circle class="pearl" r="2.190433937142651" cx="19.580353565453006" cy="12.960569447078262"></circle><circle class="pearl" r="2.190433937142651" cx="11.736295821016116" cy="14.255302660053738"></circle><circle class="pearl" r="2.190433937142651" cx="12.136436497268004" cy="3.677118260241656"></circle><circle class="pearl" r="2.190433937142651" cx="19.88326065647935" cy="20.274270436672968"></circle><circle class="pearl" r="2.190433937142651" cx="3.8220380067955055" cy="15.063793316825608"></circle><circle class="pearl" r="2.190433937142651" cx="19.885289413283" cy="5.653527448280238"></circle><circle class="pearl" r="2.190433937142651" cx="12.048697879235142" cy="22.243492203122972"></circle><circle class="pearl" r="2.190433937142651" cx="5.022990634915178" cy="7.158519326448538"></circle></g><g class="bobaCup bright" cupRadius="12.919221435798072" width="25.838442871596143" height="25.838442871596143" pearlRadius="2.7380424214283137" pearlCount="8" transform="translate(104.15928645327293,122.43665442725248)"><circle class="pool" r="12.919221435798072" cx="12.919221435798072" cy="12.919221435798072" style="stroke-width: 1; fill: rgb(65, 182, 196);"></circle><circle class="pearl" r="2.190433937142651" cx="19.564878256207134" cy="12.923358557194167"></circle><circle class="pearl" r="2.190433937142651" cx="11.71183531014958" cy="14.161794763210873"></circle><circle class="pearl" r="2.190433937142651" cx="12.204877962935015" cy="3.670487469976738"></circle><circle class="pearl" r="2.190433937142651" cx="19.79578575688633" cy="20.20555199904498"></circle><circle class="pearl" r="2.190433937142651" cx="3.7903773698966674" cy="14.813671823967027"></circle><circle class="pearl" r="2.190433937142651" cx="19.808433636375124" cy="5.640853313181507"></circle><circle class="pearl" r="2.190433937142651" cx="11.949426304825856" cy="22.15126886850661"></circle><circle class="pearl" r="2.190433937142651" cx="5.130697559569169" cy="6.9150638610412685"></circle></g><g class="bobaCup bright" cupRadius="12.88162164210573" width="25.76324328421146" height="25.76324328421146" pearlRadius="2.7380424214283137" pearlCount="8" transform="translate(156.60421704813672,32.02863698121961)"><circle class="pool" r="12.88162164210573" cx="12.88162164210573" cy="12.88162164210573" style="stroke-width: 1; fill: rgb(29, 145, 192);"></circle><circle class="pearl" r="2.190433937142651" cx="14.55780640634766" cy="12.587255327164087"></circle><circle class="pearl" r="2.190433937142651" cx="8.30900735701941" cy="19.17473427003685"></circle><circle class="pearl" r="2.190433937142651" cx="14.49185258382238" cy="3.751760672577536"></circle><circle class="pearl" r="2.190433937142651" cx="21.66454104025771" cy="16.249218286791944"></circle><circle class="pearl" r="2.190433937142651" cx="3.6523440881357416" cy="12.677278861200623"></circle><circle class="pearl" r="2.190433937142651" cx="21.195360813573366" cy="8.10796312809089"></circle><circle class="pearl" r="2.190433937142651" cx="15.873565316833684" cy="21.7602419389402"></circle><circle class="pearl" r="2.190433937142651" cx="6.641264966221457" cy="5.263177878919469"></circle></g><g class="bobaCup bright" cupRadius="12.856515161611263" width="25.713030323222526" height="25.713030323222526" pearlRadius="2.7380424214283137" pearlCount="8" transform="translate(7.143484838388737,21.838184518749017)"><circle class="pool" r="12.856515161611263" cx="12.856515161611263" cy="12.856515161611263" style="stroke-width: 1; fill: rgb(127, 205, 187);"></circle><circle class="pearl" r="2.190433937142651" cx="14.508600759384347" cy="12.722855651835237"></circle><circle class="pearl" r="2.190433937142651" cx="7.908921289354841" cy="19.14893429770723"></circle><circle class="pearl" r="2.190433937142651" cx="14.838020721491015" cy="3.8043403815818735"></circle><circle class="pearl" r="2.190433937142651" cx="21.51093352930557" cy="16.58122621035041"></circle><circle class="pearl" r="2.190433937142651" cx="3.6596698830524694" cy="12.376967921660064"></circle><circle class="pearl" r="2.190433937142651" cx="21.304007468726173" cy="8.506438960804395"></circle><circle class="pearl" r="2.190433937142651" cx="15.452277759988892" cy="21.797535205264406"></circle><circle class="pearl" r="2.190433937142651" cx="6.946999520948313" cy="5.089374886290727"></circle></g><g class="bobaCup bright" cupRadius="12.835590283859865" width="25.67118056771973" height="25.67118056771973" pearlRadius="2.7380424214283137" pearlCount="8" transform="translate(23.500328617968528,16.95795741803842)"><circle class="pool" r="12.835590283859865" cx="12.835590283859865" cy="12.835590283859865" style="stroke-width: 1; fill: rgb(29, 145, 192);"></circle><circle class="pearl" r="2.190433937142651" cx="14.461664561288801" cy="12.779358616297793"></circle><circle class="pearl" r="2.190433937142651" cx="7.697226174935753" cy="19.146388834683144"></circle><circle class="pearl" r="2.190433937142651" cx="14.986111510490494" cy="3.832158606277444"></circle><circle class="pearl" r="2.190433937142651" cx="21.419197377022027" cy="16.71805593262435"></circle><circle class="pearl" r="2.190433937142651" cx="3.6644042665436505" cy="12.243119841265827"></circle><circle class="pearl" r="2.190433937142651" cx="21.3336290187824" cy="8.69313199324444"></circle><circle class="pearl" r="2.190433937142651" cx="15.24143774302149" cy="21.79297063744432"></circle><circle class="pearl" r="2.190433937142651" cx="7.07892391848088" cy="5.014035173198064"></circle></g><g class="bobaCup bright" cupRadius="12.690616561650574" width="25.381233123301147" height="25.381233123301147" pearlRadius="2.7380424214283132" pearlCount="8" transform="translate(210.26181297266157,49.68991347510231)"><circle class="pool" r="12.690616561650574" cx="12.690616561650574" cy="12.690616561650574" style="stroke-width: 1; fill: rgb(65, 182, 196);"></circle><circle class="pearl" r="2.1904339371426507" cx="14.158181880724335" cy="12.856348651962719"></circle><circle class="pearl" r="2.1904339371426507" cx="6.669884701330314" cy="19.474825057477727"></circle><circle class="pearl" r="2.1904339371426507" cx="15.134286524834161" cy="3.888218662332707"></circle><circle class="pearl" r="2.1904339371426507" cx="20.948747845895905" cy="17.075925320154578"></circle><circle class="pearl" r="2.1904339371426507" cx="3.6660796918471545" cy="12.06649305352497"></circle><circle class="pearl" r="2.1904339371426507" cx="21.207616671085372" cy="9.08530693769498"></circle><circle class="pearl" r="2.1904339371426507" cx="14.371285503309373" cy="21.618728757051905"></circle><circle class="pearl" r="2.1904339371426507" cx="7.203946785662723" cy="4.898079612977532"></circle></g><g class="bobaCup bright" cupRadius="12.633194132004554" width="25.26638826400911" height="25.26638826400911" pearlRadius="2.7380424214283132" pearlCount="8" transform="translate(75.65204848395064,66.78432405693079)"><circle class="pool" r="12.633194132004554" cx="12.633194132004554" cy="12.633194132004554" style="stroke-width: 1; fill: rgb(65, 182, 196);"></circle><circle class="pearl" r="2.1904339371426507" cx="14.038052419623886" cy="12.841759488708432"></circle><circle class="pearl" r="2.1904339371426507" cx="6.356822247112565" cy="19.616383975222757"></circle><circle class="pearl" r="2.1904339371426507" cx="15.087712089378583" cy="3.8914625765611843"></circle><circle class="pearl" r="2.1904339371426507" cx="20.790845045708632" cy="17.123171202431713"></circle><circle class="pearl" r="2.1904339371426507" cx="3.6624245651745353" cy="12.089582512783316"></circle><circle class="pearl" r="2.1904339371426507" cx="21.12170224199622" cy="9.135100867700372"></circle><circle class="pearl" r="2.1904339371426507" cx="14.119521679260272" cy="21.527925235548473"></circle><circle class="pearl" r="2.1904339371426507" cx="7.156858546475317" cy="4.899395300709425"></circle></g><g class="bobaCup bright" cupRadius="12.419322617133266" width="24.838645234266533" height="24.838645234266533" pearlRadius="2.738042421428314" pearlCount="8" transform="translate(135.9055021647066,173.69051025203157)"><circle class="pool" r="12.419322617133266" cx="12.419322617133266" cy="12.419322617133266" style="stroke-width: 1; fill: rgb(65, 182, 196);"></circle><circle class="pearl" r="2.1904339371426516" cx="13.574742069765096" cy="12.729961107652178"></circle><circle class="pearl" r="2.1904339371426516" cx="5.708334901348417" cy="19.218585902765096"></circle><circle class="pearl" r="2.1904339371426516" cx="15.195170476436093" cy="3.9649129290263283"></circle><circle class="pearl" r="2.1904339371426516" cx="20.16175961281635" cy="17.362547715478534"></circle><circle class="pearl" r="2.1904339371426516" cx="3.6716265836444273" cy="11.699062892714828"></circle><circle class="pearl" r="2.1904339371426516" cx="20.821885844106657" cy="9.426354209510821"></circle><circle class="pearl" r="2.1904339371426516" cx="13.297500696408068" cy="21.156834837144803"></circle><circle class="pearl" r="2.1904339371426516" cx="7.314981987352958" cy="4.7481519668688925"></circle></g><g class="bobaCup bright" cupRadius="12.22071551574113" width="24.44143103148226" height="24.44143103148226" pearlRadius="2.7380424214283132" pearlCount="7" transform="translate(163.03689622165714,139.34078545263804)"><circle class="pool" r="12.22071551574113" cx="12.22071551574113" cy="12.22071551574113" style="stroke-width: 1; fill: rgb(65, 182, 196);"></circle><circle class="pearl" r="2.1904339371426507" cx="13.902096000633755" cy="12.510340857462534"></circle><circle class="pearl" r="2.1904339371426507" cx="5.818428821961423" cy="14.79311797110767"></circle><circle class="pearl" r="2.1904339371426507" cx="12.21890619007653" cy="3.650723362510024"></circle><circle class="pearl" r="2.1904339371426507" cx="18.89965043006138" cy="18.750956733925545"></circle><circle class="pearl" r="2.1904339371426507" cx="4.893205578675517" cy="6.851890292511148"></circle><circle class="pearl" r="2.1904339371426507" cx="19.546329447600062" cy="6.848015053474588"></circle><circle class="pearl" r="2.1904339371426507" cx="11.157151572633737" cy="20.74433906453752"></circle></g><g class="bobaCup bright" cupRadius="12.16118965524824" width="24.32237931049648" height="24.32237931049648" pearlRadius="2.738042421428314" pearlCount="7" transform="translate(38.217550651625686,216.48728882637644)"><circle class="pool" r="12.16118965524824" cx="12.16118965524824" cy="12.16118965524824" style="stroke-width: 1; fill: rgb(127, 205, 187);"></circle><circle class="pearl" r="2.1904339371426516" cx="13.717730372591236" cy="12.462958960867562"></circle><circle class="pearl" r="2.1904339371426516" cx="5.575779617422137" cy="14.814343462886892"></circle><circle class="pearl" r="2.1904339371426516" cx="12.198110113214057" cy="3.65077927256826"></circle><circle class="pearl" r="2.1904339371426516" cx="18.81134345231752" cy="18.625434880605283"></circle><circle class="pearl" r="2.1904339371426516" cx="4.871604844079231" cy="6.850427579376731"></circle><circle class="pearl" r="2.1904339371426516" cx="19.489209242864913" cy="6.930344598575031"></circle><circle class="pearl" r="2.1904339371426516" cx="11.069785270688088" cy="20.62258309967365"></circle></g><g class="bobaCup bright" cupRadius="11.972759747015466" width="23.945519494030933" height="23.945519494030933" pearlRadius="2.7380424214283132" pearlCount="7" transform="translate(236.12653660311082,160.24429954659797)"><circle class="pool" r="11.972759747015466" cx="11.972759747015466" cy="11.972759747015466" style="stroke-width: 1; fill: rgb(127, 205, 187);"></circle><circle class="pearl" r="2.1904339371426507" cx="13.165700976178927" cy="12.308271757018241"></circle><circle class="pearl" r="2.1904339371426507" cx="4.8483133231163045" cy="14.870066483544791"></circle><circle class="pearl" r="2.1904339371426507" cx="12.106297497817527" cy="3.6514679560142573"></circle><circle class="pearl" r="2.1904339371426507" cx="18.519894968059546" cy="18.245770108984146"></circle><circle class="pearl" r="2.1904339371426507" cx="4.7901045182245925" cy="6.875222384786555"></circle><circle class="pearl" r="2.1904339371426507" cx="19.28743888952588" cy="7.165793260754711"></circle><circle class="pearl" r="2.1904339371426507" cx="10.776211620895474" cy="20.23485518329581"></circle></g><g class="bobaCup bright" cupRadius="11.695067377663928" width="23.390134755327857" height="23.390134755327857" pearlRadius="2.7380424214283132" pearlCount="7" transform="translate(295.1870383081026,12.315451419533925)"><circle class="pool" r="11.695067377663928" cx="11.695067377663928" cy="11.695067377663928" style="stroke-width: 1; fill: rgb(29, 145, 192);"></circle><circle class="pearl" r="2.1904339371426507" cx="12.258319725698742" cy="11.889427972931658"></circle><circle class="pearl" r="2.1904339371426507" cx="4.0749481627601005" cy="14.816399077830305"></circle><circle class="pearl" r="2.1904339371426507" cx="12.030552778689755" cy="3.6555360960116543"></circle><circle class="pearl" r="2.1904339371426507" cx="18.14396117387554" cy="17.591874727477773"></circle><circle class="pearl" r="2.1904339371426507" cx="4.702959429023568" cy="6.846898083850531"></circle><circle class="pearl" r="2.1904339371426507" cx="18.992057710494368" cy="7.581411005820965"></circle><circle class="pearl" r="2.1904339371426507" cx="10.424862517057077" cy="19.670228226451854"></circle></g><g class="bobaCup bright" cupRadius="11.66775106490628" width="23.33550212981256" height="23.33550212981256" pearlRadius="2.7380424214283132" pearlCount="7" transform="translate(165.02045534397422,273.0622222107599)"><circle class="pool" r="11.66775106490628" cx="11.66775106490628" cy="11.66775106490628" style="stroke-width: 1; fill: rgb(65, 182, 196);"></circle><circle class="pearl" r="2.1904339371426507" cx="12.141629266708195" cy="11.811010775717195"></circle><circle class="pearl" r="2.1904339371426507" cx="4.07043852089519" cy="14.769058236299237"></circle><circle class="pearl" r="2.1904339371426507" cx="12.062729215005957" cy="3.6574105695469656"></circle><circle class="pearl" r="2.1904339371426507" cx="18.129106596868684" cy="17.488599633061025"></circle><circle class="pearl" r="2.1904339371426507" cx="4.714277323423617" cy="6.800778542595871"></circle><circle class="pearl" r="2.1904339371426507" cx="18.97709718680056" cy="7.666089566776866"></circle><circle class="pearl" r="2.1904339371426507" cx="10.42398900956733" cy="19.618298062578557"></circle></g><g class="bobaCup bright" cupRadius="11.608532349488927" width="23.217064698977854" height="23.217064698977854" pearlRadius="2.7380424214283132" pearlCount="7" transform="translate(105.65095888322757,217.229132223224)"><circle class="pool" r="11.608532349488927" cx="11.608532349488927" cy="11.608532349488927" style="stroke-width: 1; fill: rgb(29, 145, 192);"></circle><circle class="pearl" r="2.1904339371426507" cx="11.909203750608706" cy="11.652374683268837"></circle><circle class="pearl" r="2.1904339371426507" cx="4.060658978285846" cy="14.666220611012237"></circle><circle class="pearl" r="2.1904339371426507" cx="12.13227036265143" cy="3.662543897471436"></circle><circle class="pearl" r="2.1904339371426507" cx="18.095401708536347" cy="17.264258636765675"></circle><circle class="pearl" r="2.1904339371426507" cx="4.739277453311144" cy="6.700571106372164"></circle><circle class="pearl" r="2.1904339371426507" cx="18.94069271742417" cy="7.848972373278527"></circle><circle class="pearl" r="2.1904339371426507" cx="10.421913693802745" cy="19.50553441532576"></circle></g><g class="bobaCup bright" cupRadius="11.550112613327352" width="23.100225226654704" height="23.100225226654704" pearlRadius="2.7380424214283137" pearlCount="7" transform="translate(140.28599061486665,146.1829469251045)"><circle class="pool" r="11.550112613327352" cx="11.550112613327352" cy="11.550112613327352" style="stroke-width: 1; fill: rgb(29, 145, 192);"></circle><circle class="pearl" r="2.190433937142651" cx="11.76221531784722" cy="11.587621423128658"></circle><circle class="pearl" r="2.190433937142651" cx="4.041922614502136" cy="14.530675809098152"></circle><circle class="pearl" r="2.190433937142651" cx="12.198172228136617" cy="3.6689183900521556"></circle><circle class="pearl" r="2.190433937142651" cx="18.023909784199194" cy="17.108816424631534"></circle><circle class="pearl" r="2.190433937142651" cx="4.777856890185733" cy="6.573506224160381"></circle><circle class="pearl" r="2.190433937142651" cx="18.88408333199935" cy="7.980574790871234"></circle><circle class="pearl" r="2.190433937142651" cx="10.346374050403073" cy="19.386604663172207"></circle></g><g class="bobaCup bright" cupRadius="11.220628422531647" width="22.441256845063293" height="22.441256845063293" pearlRadius="2.738042421428314" pearlCount="6" transform="translate(189.7720313464257,8.779371577468353)"><circle class="pool" r="11.220628422531647" cx="11.220628422531647" cy="11.220628422531647" style="stroke-width: 1; fill: rgb(127, 205, 187);"></circle><circle class="pearl" r="2.1904339371426516" cx="11.537094723222348" cy="11.442774295110036"></circle><circle class="pearl" r="2.1904339371426516" cx="6.135488325112129" cy="17.357287532869183"></circle><circle class="pearl" r="2.1904339371426516" cx="9.119983896350028" cy="3.8491107368807858"></circle><circle class="pearl" r="2.1904339371426516" cx="17.10854635062275" cy="17.121602669728333"></circle><circle class="pearl" r="2.1904339371426516" cx="3.749583349928845" cy="9.734434608949876"></circle><circle class="pearl" r="2.1904339371426516" cx="17.11537882762545" cy="5.323869267868318"></circle></g><g class="bobaCup bright" cupRadius="11.202052218244877" width="22.404104436489753" height="22.404104436489753" pearlRadius="2.738042421428314" pearlCount="6" transform="translate(135.46622107987736,65.12033432591096)"><circle class="pool" r="11.202052218244877" cx="11.202052218244877" cy="11.202052218244877" style="stroke-width: 1; fill: rgb(127, 205, 187);"></circle><circle class="pearl" r="2.1904339371426516" cx="11.528445744248746" cy="11.419222747510625"></circle><circle class="pearl" r="2.1904339371426516" cx="6.139216269986225" cy="17.372290352448115"></circle><circle class="pearl" r="2.1904339371426516" cx="9.07148466241305" cy="3.85520045092156"></circle><circle class="pearl" r="2.1904339371426516" cx="17.071611421977334" cy="17.092515952214907"></circle><circle class="pearl" r="2.1904339371426516" cx="3.744312589718487" cy="9.757051577147873"></circle><circle class="pearl" r="2.1904339371426516" cx="17.083795591801643" cy="5.319094689212106"></circle></g><g class="bobaCup bright" cupRadius="11.199802792706738" width="22.399605585413475" height="22.399605585413475" pearlRadius="2.7380424214283137" pearlCount="6" transform="translate(152.6484363908701,188.91746842417862)"><circle class="pool" r="11.199802792706738" cx="11.199802792706738" cy="11.199802792706738" style="stroke-width: 1; fill: rgb(127, 205, 187);"></circle><circle class="pearl" r="2.190433937142651" cx="11.527513194576576" cy="11.416226691568504"></circle><circle class="pearl" r="2.190433937142651" cx="6.139899426257465" cy="17.374635326151452"></circle><circle class="pearl" r="2.190433937142651" cx="9.064980905453918" cy="3.856067503223013"></circle><circle class="pearl" r="2.190433937142651" cx="17.067142970303944" cy="17.08899056140786"></circle><circle class="pearl" r="2.190433937142651" cx="3.743603045607271" cy="9.760412432851824"></circle><circle class="pearl" r="2.190433937142651" cx="17.08001042832811" cy="5.318540878743148"></circle></g><g class="bobaCup bright" cupRadius="11.059960181973834" width="22.119920363947667" height="22.119920363947667" pearlRadius="2.7380424214283137" pearlCount="6" transform="translate(222.80855935646238,288.6852326555046)"><circle class="pool" r="11.059960181973834" cx="11.059960181973834" cy="11.059960181973834" style="stroke-width: 1; fill: rgb(127, 205, 187);"></circle><circle class="pearl" r="2.190433937142651" cx="11.48271390639041" cy="11.201884923708075"></circle><circle class="pearl" r="2.190433937142651" cx="6.481120622063139" cy="17.476855714134775"></circle><circle class="pearl" r="2.190433937142651" cx="8.559206506856174" cy="3.937153335252411"></circle><circle class="pearl" r="2.190433937142651" cx="16.79145466083683" cy="16.86823744318018"></circle><circle class="pearl" r="2.190433937142651" cx="3.696174551564903" cy="10.058304641232688"></circle><circle class="pearl" r="2.190433937142651" cx="16.836895007035675" cy="5.279366256836514"></circle></g><g class="bobaCup bright" cupRadius="10.116823151295325" width="20.23364630259065" height="20.23364630259065" pearlRadius="2.7380424214283132" pearlCount="5" transform="translate(139.82176884180004,152.3937070407703)"><circle class="pool" r="10.116823151295325" cx="10.116823151295325" cy="10.116823151295325" style="stroke-width: 1; fill: rgb(127, 205, 187);"></circle><circle class="pearl" r="2.1904339371426507" cx="16.19587442223114" cy="7.345253404142935"></circle><circle class="pearl" r="2.1904339371426507" cx="7.312341508820846" cy="16.18643908304209"></circle><circle class="pearl" r="2.1904339371426507" cx="9.250079673304073" cy="3.687920076379524"></circle><circle class="pearl" r="2.1904339371426507" cx="15.19495856852068" cy="15.216108571800337"></circle><circle class="pearl" r="2.1904339371426507" cx="3.6904836398907" cy="9.22076667473911"></circle></g><g class="bobaCup bright" cupRadius="9.855605996413903" width="19.711211992827806" height="19.711211992827806" pearlRadius="2.738042421428314" pearlCount="5" transform="translate(84.27064891519508,63.27299805349939)"><circle class="pool" r="9.855605996413903" cx="9.855605996413903" cy="9.855605996413903" style="stroke-width: 1; fill: rgb(127, 205, 187);"></circle><circle class="pearl" r="2.1904339371426516" cx="15.660481127823129" cy="7.076284278568459"></circle><circle class="pearl" r="2.1904339371426516" cx="6.938480000624559" cy="15.618880084670547"></circle><circle class="pearl" r="2.1904339371426516" cx="9.021314244965756" cy="3.686098737363262"></circle><circle class="pearl" r="2.1904339371426516" cx="14.705972711058504" cy="14.784329853175148"></circle><circle class="pearl" r="2.1904339371426516" cx="3.6987201508261625" cy="8.884125783014209"></circle></g><g class="bobaCup bright" cupRadius="9.833159059995078" width="19.666318119990155" height="19.666318119990155" pearlRadius="2.738042421428314" pearlCount="5" transform="translate(268.235825638522,114.0369099619184)"><circle class="pool" r="9.833159059995078" cx="9.833159059995078" cy="9.833159059995078" style="stroke-width: 1; fill: rgb(29, 145, 192);"></circle><circle class="pearl" r="2.1904339371426516" cx="15.61460161576937" cy="7.0537228373435"></circle><circle class="pearl" r="2.1904339371426516" cx="6.905310129240451" cy="15.569592895085083"></circle><circle class="pearl" r="2.1904339371426516" cx="9.00300140409469" cy="3.6858286366660438"></circle><circle class="pearl" r="2.1904339371426516" cx="14.6638360829451" cy="14.74722284565301"></circle><circle class="pearl" r="2.1904339371426516" cx="3.6996113077017427" cy="8.853843752151024"></circle></g><g class="bobaCup bright" cupRadius="9.33739144970804" width="18.67478289941608" height="18.67478289941608" pearlRadius="2.7380424214283137" pearlCount="4" transform="translate(191.9065227113751,119.17018696373509)"><circle class="pool" r="9.33739144970804" cx="9.33739144970804" cy="9.33739144970804" style="stroke-width: 1; fill: rgb(127, 205, 187);"></circle><circle class="pearl" r="2.190433937142651" cx="14.51872504234893" cy="6.307267460171664"></circle><circle class="pearl" r="2.190433937142651" cx="5.447687112127351" cy="12.203517034017535"></circle><circle class="pearl" r="2.190433937142651" cx="6.868972856313276" cy="3.9829057005338644"></circle><circle class="pearl" r="2.190433937142651" cx="13.191684146807933" cy="14.191449634563359"></circle></g><g class="bobaCup bright" cupRadius="9.075820509304858" width="18.151641018609716" height="18.151641018609716" pearlRadius="2.7380424214283137" pearlCount="4" transform="translate(263.25689312382144,197.19548070528518)"><circle class="pool" r="9.075820509304858" cx="9.075820509304858" cy="9.075820509304858" style="stroke-width: 1; fill: rgb(127, 205, 187);"></circle><circle class="pearl" r="2.190433937142651" cx="13.870980704080399" cy="5.7535364882799644"></circle><circle class="pearl" r="2.190433937142651" cx="5.0049126107708535" cy="12.10466994713169"></circle><circle class="pearl" r="2.190433937142651" cx="6.033081767742385" cy="4.175973062902633"></circle><circle class="pearl" r="2.190433937142651" cx="12.842811547114886" cy="13.682233372513878"></circle></g><g class="bobaCup bright" cupRadius="8.810677635706343" width="17.621355271412686" height="17.621355271412686" pearlRadius="2.7380424214283137" pearlCount="4" transform="translate(311.1893223642937,97.91335767858702)"><circle class="pool" r="8.810677635706343" cx="8.810677635706343" cy="8.810677635706343" style="stroke-width: 1; fill: rgb(65, 182, 196);"></circle><circle class="pearl" r="2.190433937142651" cx="13.209545750986866" cy="5.228482834006528"></circle><circle class="pearl" r="2.190433937142651" cx="4.491646885281994" cy="12.35721476689812"></circle><circle class="pearl" r="2.190433937142651" cx="5.257617008489753" cy="4.398907417479522"></circle><circle class="pearl" r="2.190433937142651" cx="12.443575627779198" cy="13.186790183425249"></circle></g><g class="bobaCup bright" cupRadius="8.411570425677041" width="16.823140851354083" height="16.823140851354083" pearlRadius="2.738042421428314" pearlCount="4" transform="translate(202.5560103011066,171.78458681284664)"><circle class="pool" r="8.411570425677041" cx="8.411570425677041" cy="8.411570425677041" style="stroke-width: 1; fill: rgb(127, 205, 187);"></circle><circle class="pearl" r="2.1904339371426516" cx="12.203427989326205" cy="4.553876161652148"></circle><circle class="pearl" r="2.1904339371426516" cx="4.61915808885124" cy="12.268984495638538"></circle><circle class="pearl" r="2.1904339371426516" cx="4.619968574125263" cy="4.5537470288728965"></circle><circle class="pearl" r="2.1904339371426516" cx="12.202617178791748" cy="12.269674105606583"></circle></g><g class="bobaCup bright" cupRadius="8.338047610148042" width="16.676095220296084" height="16.676095220296084" pearlRadius="2.7380424214283132" pearlCount="3" transform="translate(246.91841545714104,60.75138034902889)"><circle class="pool" r="8.338047610148042" cx="8.338047610148042" cy="8.338047610148042" style="stroke-width: 1; fill: rgb(29, 145, 192);"></circle><circle class="pearl" r="2.1904339371426507" cx="12.604438109682755" cy="9.951782577531242"></circle><circle class="pearl" r="2.1904339371426507" cx="4.593246694912193" cy="11.296553904979698"></circle><circle class="pearl" r="2.1904339371426507" cx="7.646717587603999" cy="3.6794326731956692"></circle></g><g class="bobaCup bright" cupRadius="8.273942351946713" width="16.547884703893427" height="16.547884703893427" pearlRadius="2.7380424214283137" pearlCount="3" transform="translate(249.5359210734779,142.4829642480791)"><circle class="pool" r="8.273942351946713" cx="8.273942351946713" cy="8.273942351946713" style="stroke-width: 1; fill: rgb(29, 145, 192);"></circle><circle class="pearl" r="2.190433937142651" cx="12.564328687468715" cy="9.91069925687459"></circle><circle class="pearl" r="2.190433937142651" cx="4.538229330098315" cy="11.215082708720193"></circle><circle class="pearl" r="2.190433937142651" cx="7.5514716794098655" cy="3.6823262177724327"></circle></g><g class="bobaCup bright" cupRadius="8.153673577579669" width="16.307347155159338" height="16.307347155159338" pearlRadius="2.738042421428314" pearlCount="3" transform="translate(214.57666957104001,173.77910245644568)"><circle class="pool" r="8.153673577579669" cx="8.153673577579669" cy="8.153673577579669" style="stroke-width: 1; fill: rgb(65, 182, 196);"></circle><circle class="pearl" r="2.1904339371426516" cx="12.479007331823556" cy="9.84627743454366"></circle><circle class="pearl" r="2.1904339371426516" cx="4.415299289850619" cy="11.112110700193034"></circle><circle class="pearl" r="2.1904339371426516" cx="7.380986696580127" cy="3.687417824186341"></circle></g><g class="bobaCup bright" cupRadius="7.534610698710632" width="15.069221397421265" height="15.069221397421265" pearlRadius="2.7380424214283137" pearlCount="3" transform="translate(309.03833653654397,54.162463573119275)"><circle class="pool" r="7.534610698710632" cx="7.534610698710632" cy="7.534610698710632" style="stroke-width: 1; fill: rgb(65, 182, 196);"></circle><circle class="pearl" r="2.190433937142651" cx="11.418491925623169" cy="7.54431021060931"></circle><circle class="pearl" r="2.190433937142651" cx="4.562577212890225" cy="10.8075696797941"></circle><circle class="pearl" r="2.190433937142651" cx="4.561789530164866" cy="4.261989888381808"></circle></g><g class="bobaCup bright" cupRadius="7.1566806118771495" width="14.313361223754299" height="14.313361223754299" pearlRadius="2.738042421428314" pearlCount="3" transform="translate(250.43103647135388,28.75150708728537)"><circle class="pool" r="7.1566806118771495" cx="7.1566806118771495" cy="7.1566806118771495" style="stroke-width: 1; fill: rgb(29, 145, 192);"></circle><circle class="pearl" r="2.1904339371426516" cx="10.000451396595974" cy="10.073380401842176"></circle><circle class="pearl" r="2.1904339371426516" cx="4.320604683873089" cy="10.076707014133145"></circle><circle class="pearl" r="2.1904339371426516" cx="6.665915227432114" cy="3.6675700386116117"></circle></g><g class="bobaCup bright" cupRadius="6.724357766130197" width="13.448715532260394" height="13.448715532260394" pearlRadius="2.738042421428314" pearlCount="2" transform="translate(158.59211416313582,187.74013868132045)"><circle class="pool" r="6.724357766130197" cx="6.724357766130197" cy="6.724357766130197" style="stroke-width: 1; fill: rgb(29, 145, 192);"></circle><circle class="pearl" r="2.1904339371426516" cx="9.223852118588166" cy="4.132524198888671"></circle><circle class="pearl" r="2.1904339371426516" cx="4.224863413672228" cy="9.316191333371723"></circle></g><g class="bobaCup bright" cupRadius="6.343343558962142" width="12.686687117924285" height="12.686687117924285" pearlRadius="2.7380424214283137" pearlCount="2" transform="translate(307.8429008516688,70.19681121276763)"><circle class="pool" r="6.343343558962142" cx="6.343343558962142" cy="6.343343558962142" style="stroke-width: 1; fill: rgb(29, 145, 192);"></circle><circle class="pearl" r="2.190433937142651" cx="8.479768227764442" cy="4.0213205898818085"></circle><circle class="pearl" r="2.190433937142651" cx="4.206918890159843" cy="8.665366528042476"></circle></g><g class="bobaCup bright" cupRadius="6.21330282752103" width="12.42660565504206" height="12.42660565504206" pearlRadius="2.7380424214283137" pearlCount="2" transform="translate(167.48201428973528,91.1716242951111)"><circle class="pool" r="6.21330282752103" cx="6.21330282752103" cy="6.21330282752103" style="stroke-width: 1; fill: rgb(65, 182, 196);"></circle><circle class="pearl" r="2.190433937142651" cx="8.225840009452295" cy="3.9856907374985093"></circle><circle class="pearl" r="2.190433937142651" cx="4.200765645589766" cy="8.440914917543552"></circle></g><g class="bobaCup bright" cupRadius="5.5276878502814615" width="11.055375700562923" height="11.055375700562923" pearlRadius="2.738042421428314" pearlCount="2" transform="translate(242.22061096700583,269.33559902967517)"><circle class="pool" r="5.5276878502814615" cx="5.5276878502814615" cy="5.5276878502814615" style="stroke-width: 1; fill: rgb(65, 182, 196);"></circle><circle class="pearl" r="2.1904339371426516" cx="7.076227721323331" cy="3.8720604272330257"></circle><circle class="pearl" r="2.1904339371426516" cx="3.9791479792395923" cy="7.183315273329898"></circle></g><g class="bobaCup bright" cupRadius="5.230415903999668" width="10.460831807999336" height="10.460831807999336" pearlRadius="2.738042421428314" pearlCount="1" transform="translate(299.90259265072575,70.10931486329852)"><circle class="pool" r="5.230415903999668" cx="5.230415903999668" cy="5.230415903999668" style="stroke-width: 1; fill: rgb(127, 205, 187);"></circle><circle class="pearl" r="2.1904339371426516" cx="6.810108579428251" cy="5.230415903999668"></circle></g><g class="bobaCup bright" cupRadius="4.013565250277514" width="8.027130500555028" height="8.027130500555028" pearlRadius="2.7380424214283137" pearlCount="1" transform="translate(31.751582827289617,159.17007099964115)"><circle class="pool" r="4.013565250277514" cx="4.013565250277514" cy="4.013565250277514" style="stroke-width: 1; fill: rgb(127, 205, 187);"></circle><circle class="pearl" r="2.190433937142651" cx="4.376407271983943" cy="4.013565250277514"></circle></g><g class="bobaCup bright" cupRadius="0" width="0" height="0" pearlRadius="NaN" pearlCount="0" transform="translate(20,300)"><circle class="pool" r="0" cx="0" cy="0" style="stroke-width: 1; fill: rgb(65, 182, 196);"></circle></g><g class="bobaCup bright" cupRadius="0" width="0" height="0" pearlRadius="NaN" pearlCount="0" transform="translate(247.95121335507244,90.76581463035029)"><circle class="pool" r="0" cx="0" cy="0" style="stroke-width: 1; fill: rgb(65, 182, 196);"></circle></g></g><g id="legendDividerGroup" transform="translate(410,0)" height="400"><rect class="legendDivider" height="400" width="90"></rect></g><g id="legend" transform="translate(410,30)" width="90" height="320"><rect class="legendBorder" transform="translate(0,0)" width="90" height="324.9477195110013"></rect><text id="rTitle" text-anchor="middle" alignment-baseline="hanging" transform="translate(45,10)" x="0" y="0" style="fill: black; font-size: 0.8rem;">Population</text><text id="bobaValue" text-anchor="middle" alignment-baseline="hanging" transform="translate(45,25)" x="0" y="0" style="fill: black; font-size: 0.7rem;">(1 Pearl =   75)</text><g class="bright" cupRadius="8.94427190999916" width="17.88854381999832" height="17.88854381999832" pearlRadius="2.7380424214283137" pearlCount="4" transform="translate(36.05572809000084,50)"><circle class="pool" r="8.94427190999916" cx="8.94427190999916" cy="8.94427190999916" style="stroke-width: 1; fill: rgb(65, 182, 196);"></circle><circle class="pearl" r="2.190433937142651" cx="13.542613460651712" cy="5.486970900805415"></circle><circle class="pearl" r="2.190433937142651" cx="4.749399498236599" cy="12.229516637519533"></circle><circle class="pearl" r="2.190433937142651" cx="5.6385452023940825" cy="4.284028231246733"></circle><circle class="pearl" r="2.190433937142651" cx="12.653467756495177" cy="13.432459307079196"></circle></g><text id="0" class="legendSampleValue" text-anchor="middle" transform="translate(45,8)" x="0" y="72.88854381999832" style="fill: black; font-size: 0.7rem;"> 300</text><g class="bright" cupRadius="12.649110640673518" width="25.298221281347036" height="25.298221281347036" pearlRadius="2.7380424214283137" pearlCount="8" transform="translate(32.35088935932648,92.88854381999832)"><circle class="pool" r="12.649110640673518" cx="12.649110640673518" cy="12.649110640673518" style="stroke-width: 1; fill: rgb(65, 182, 196);"></circle><circle class="pearl" r="2.190433937142651" cx="14.071403428550026" cy="12.846878791771143"></circle><circle class="pearl" r="2.190433937142651" cx="6.440581911774749" cy="19.57795138257092"></circle><circle class="pearl" r="2.190433937142651" cx="15.10273708455154" cy="3.8909774644866477"></circle><circle class="pearl" r="2.190433937142651" cx="20.833946229646862" cy="17.112242666106596"></circle><circle class="pearl" r="2.190433937142651" cx="3.6634707295578792" cy="12.081372495075817"></circle><circle class="pearl" r="2.190433937142651" cx="21.1462151053254" cy="9.123450087562194"></circle><circle class="pearl" r="2.190433937142651" cx="14.187116834584868" cy="21.553646746241665"></circle><circle class="pearl" r="2.190433937142651" cx="7.171845845081948" cy="4.898098459274186"></circle></g><text id="1" class="legendSampleValue" text-anchor="middle" transform="translate(45,8)" x="0" y="123.18676510134536" style="fill: black; font-size: 0.7rem;"> 600</text><g class="bright" cupRadius="15.491933384829668" width="30.983866769659336" height="30.983866769659336" pearlRadius="2.738042421428314" pearlCount="12" transform="translate(29.508066615170332,143.18676510134537)"><circle class="pool" r="15.491933384829668" cx="15.491933384829668" cy="15.491933384829668" style="stroke-width: 1; fill: rgb(65, 182, 196);"></circle><circle class="pearl" r="2.1904339371426516" cx="17.033011743384765" cy="11.01737610913958"></circle><circle class="pearl" r="2.1904339371426516" cx="11.029309432951333" cy="17.00347040031935"></circle><circle class="pearl" r="2.1904339371426516" cx="13.977981653444434" cy="3.724876288236054"></circle><circle class="pearl" r="2.1904339371426516" cx="18.741808845067855" cy="18.756462357333643"></circle><circle class="pearl" r="2.1904339371426516" cx="3.725529689195627" cy="13.971342248807428"></circle><circle class="pearl" r="2.1904339371426516" cx="26.98661348100194" cy="12.233596672509572"></circle><circle class="pearl" r="2.1904339371426516" cx="12.152198575888569" cy="26.968872613027877"></circle><circle class="pearl" r="2.1904339371426516" cx="6.524197378590721" cy="6.5101702816287865"></circle><circle class="pearl" r="2.1904339371426516" cx="26.508263068801252" cy="20.479674242239334"></circle><circle class="pearl" r="2.1904339371426516" cx="5.419021306595209" cy="22.679550094546478"></circle><circle class="pearl" r="2.1904339371426516" cx="22.76079804957651" cy="5.461881544509561"></circle><circle class="pearl" r="2.1904339371426516" cx="20.400071923945557" cy="26.535092423407907"></circle></g><text id="2" class="legendSampleValue" text-anchor="middle" transform="translate(45,8)" x="0" y="179.1706318710047" style="fill: black; font-size: 0.7rem;"> 900</text><g class="bright" cupRadius="17.88854381999832" width="35.77708763999664" height="35.77708763999664" pearlRadius="2.7380424214283137" pearlCount="16" transform="translate(27.11145618000168,199.1706318710047)"><circle class="pool" r="17.88854381999832" cx="17.88854381999832" cy="17.88854381999832" style="stroke-width: 1; fill: rgb(65, 182, 196);"></circle><circle class="pearl" r="2.190433937142651" cx="19.8046930625516" cy="19.706925044831756"></circle><circle class="pearl" r="2.190433937142651" cx="13.339172784724305" cy="23.858410298028698"></circle><circle class="pearl" r="2.190433937142651" cx="16.092791630714295" cy="11.113543243945612"></circle><circle class="pearl" r="2.190433937142651" cx="20.836129534048155" cy="27.499380517199565"></circle><circle class="pearl" r="2.190433937142651" cx="10.312657514553905" cy="16.56124087753138"></circle><circle class="pearl" r="2.190433937142651" cx="23.678755837700653" cy="13.13675787817294"></circle><circle class="pearl" r="2.190433937142651" cx="14.311679794483911" cy="31.765114841909277"></circle><circle class="pearl" r="2.190433937142651" cx="11.081450997216843" cy="4.99648955196875"></circle><circle class="pearl" r="2.190433937142651" cx="27.674351504393126" cy="20.796258814455655"></circle><circle class="pearl" r="2.190433937142651" cx="4.000488629236898" cy="21.40866477780026"></circle><circle class="pearl" r="2.190433937142651" cx="28.333596734388347" cy="7.01684061165493"></circle><circle class="pearl" r="2.190433937142651" cx="28.522531366621063" cy="28.62247591779055"></circle><circle class="pearl" r="2.190433937142651" cx="5.30391541992303" cy="10.377661215789304"></circle><circle class="pearl" r="2.190433937142651" cx="31.694235049536697" cy="13.980399213320233"></circle><circle class="pearl" r="2.190433937142651" cx="7.311073872078207" cy="28.66408585659018"></circle><circle class="pearl" r="2.190433937142651" cx="18.987039995684725" cy="3.684483203560177"></circle></g><text id="3" class="legendSampleValue" text-anchor="middle" transform="translate(45,8)" x="0" y="239.94771951100134" style="fill: black; font-size: 0.7rem;">1.2k</text><g class="bright" cupRadius="20" width="40" height="40" pearlRadius="2.7380424214283137" pearlCount="20" transform="translate(25,259.9477195110013)"><circle class="pool" r="20" cx="20" cy="20" style="stroke-width: 1; fill: rgb(65, 182, 196);"></circle><circle class="pearl" r="2.190433937142651" cx="22.480421380823074" cy="19.96094551607325"></circle><circle class="pearl" r="2.190433937142651" cx="14.554532211889109" cy="20.25858246523202"></circle><circle class="pearl" r="2.190433937142651" cx="21.718613402750453" cy="11.231225788085391"></circle><circle class="pearl" r="2.190433937142651" cx="25.13767186853209" cy="27.447308990534317"></circle><circle class="pearl" r="2.190433937142651" cx="6.622341466842937" cy="15.212813608895589"></circle><circle class="pearl" r="2.190433937142651" cx="28.49521909515808" cy="14.82158787688231"></circle><circle class="pearl" r="2.190433937142651" cx="17.504603283401977" cy="28.993209871734443"></circle><circle class="pearl" r="2.190433937142651" cx="14.13811847195522" cy="12.373399584276378"></circle><circle class="pearl" r="2.190433937142651" cx="31.11803529924844" cy="22.444175683247455"></circle><circle class="pearl" r="2.190433937142651" cx="10.013176726772668" cy="26.767604068489224"></circle><circle class="pearl" r="2.190433937142651" cx="25.1625299271706" cy="4.328500666167248"></circle><circle class="pearl" r="2.190433937142651" cx="27.782608687955303" cy="34.772930101052836"></circle><circle class="pearl" r="2.190433937142651" cx="8.036930275650786" cy="7.623092000895575"></circle><circle class="pearl" r="2.190433937142651" cx="36.040664285033515" cy="16.500106031740792"></circle><circle class="pearl" r="2.190433937142651" cx="11.3070075503718" cy="34.36126950601293"></circle><circle class="pearl" r="2.190433937142651" cx="16.81383473400994" cy="3.9061454691506903"></circle><circle class="pearl" r="2.190433937142651" cx="33.74247113697989" cy="29.87303346303284"></circle><circle class="pearl" r="2.190433937142651" cx="3.788525504185259" cy="22.343736665541265"></circle><circle class="pearl" r="2.190433937142651" cx="32.18050534208177" cy="7.787706818962306"></circle><circle class="pearl" r="2.190433937142651" cx="20.00567962395882" cy="36.34927596497569"></circle></g><text id="4" class="legendSampleValue" text-anchor="middle" transform="translate(45,8)" x="0" y="304.9477195110013" style="fill: black; font-size: 0.7rem;">1.5k</text></g></svg>