<?xml version="1.0" standalone="no"?>
<?xml-stylesheet xmlns="http://www.w3.org/2000/svg" type="text/css" href="style.css"?>
<svg id="syntheticVisC" class="default" xTitle="Percent Cat Owners" yTitle="Percent Dog Owners" rTitle="Population" chartTitle="Towns in Vizzyland" width="500" height="400" xmlns="http://www.w3.org/2000/svg"><rect class="background" width="500" height="400"></rect><text id="chartTitle" text-anchor="middle" transform="translate(250,20)" x="0" y="0" style="fill: black; font-size: 1.2rem;">Towns in Vizzyland</text><g id="yAxis" transform="translate(50,30)" fill="none" font-size="10" font-family="sans-serif" text-anchor="end"><path class="domain" stroke="currentColor" d="M-6,300H0V20H-6"></path><g class="tick" opacity="1" transform="translate(0,300)"><line stroke="currentColor" x2="-6"></line><text fill="currentColor" x="-9" dy="0.32em">0</text></g><g class="tick" opacity="1" transform="translate(0,272)"><line stroke="currentColor" x2="-6"></line><text fill="currentColor" x="-9" dy="0.32em">10</text></g><g class="tick" opacity="1" transform="translate(0,243.99999999999997)"><line stroke="currentColor" x2="-6"></line><text fill="currentColor" x="-9" dy="0.32em">20</text></g><g class="tick" opacity="1" transform="translate(0,216)"><line stroke="currentColor" x2="-6"></line><text fill="currentColor" x="-9" dy="0.32em">30</text></g><g class="tick" opacity="1" transform="translate(0,187.99999999999997)"><line stroke="currentColor" x2="-6"></line><text fill="currentColor" x="-9" dy="0.32em">40</text></g><g class="tick" opacity="1" transform="translate(0,159.99999999999997)"><line stroke="currentColor" x2="-6"></line><text fill="currentColor" x="-9" dy="0.32em">50</text></g><g class="tick" opacity="1" transform="translate(0,131.99999999999997)"><line stroke="currentColor" x2="-6"></line><text fill="currentColor" x="-9" dy="0.32em">60</text></g><g class="tick" opacity="1" transform="translate(0,103.99999999999999)"><line stroke="currentColor" x2="-6"></line><text fill="currentColor" x="-9" dy="0.32em">70</text></g><g class="tick" opacity="1" transform="translate(0,75.99999999999996)"><line stroke="currentColor" x2="-6"></line><text fill="currentColor" x="-9" dy="0.32em">80</text></g><g class="tick" opacity="1" transform="translate(0,47.999999999999964)"><line stroke="currentColor" x2="-6"></line><text fill="currentColor" x="-9" dy="0.32em">90</text></g></g><g id="xAxis" transform="translate(60,360)" fill="none" font-size="10" font-family="sans-serif" text-anchor="middle"><path class="domain" stroke="currentColor" d="M20,6V0H320V6"></path><g class="tick" opacity="1" transform="translate(20,0)"><line stroke="currentColor" y2="6"></line><text fill="currentColor" y="9" dy="0.71em">0</text></g><g class="tick" opacity="1" transform="translate(50,0)"><line stroke="currentColor" y2="6"></line><text fill="currentColor" y="9" dy="0.71em">10</text></g><g class="tick" opacity="1" transform="translate(80,0)"><line stroke="currentColor" y2="6"></line><text fill="currentColor" y="9" dy="0.71em">20</text></g><g class="tick" opacity="1" transform="translate(110,0)"><line stroke="currentColor" y2="6"></line><text fill="currentColor" y="9" dy="0.71em">30</text></g><g class="tick" opacity="1" transform="translate(140,0)"><line stroke="currentColor" y2="6"></line><text fill="currentColor" y="9" dy="0.71em">40</text></g><g class="tick" opacity="1" transform="translate(170,0)"><line stroke="currentColor" y2="6"></line><text fill="currentColor" y="9" dy="0.71em">50</text></g><g class="tick" opacity="1" transform="translate(200,0)"><line stroke="currentColor" y2="6"></line><text fill="currentColor" y="9" dy="0.71em">60</text></g><g class="tick" opacity="1" transform="translate(230,0)"><line stroke="currentColor" y2="6"></line><text fill="currentColor" y="9" dy="0.71em">70</text></g><g class="tick" opacity="1" transform="translate(260,0)"><line stroke="currentColor" y2="6"></line><text fill="currentColor" y="9" dy="0.71em">80</text></g><g class="tick" opacity="1" transform="translate(290,0)"><line stroke="currentColor" y2="6"></line><text fill="currentColor" y="9" dy="0.71em">90</text></g><g class="tick" opacity="1" transform="translate(320,0)"><line stroke="currentColor" y2="6"></line><text fill="currentColor" y="9" dy="0.71em">100</text></g></g><g id="labels"><text id="xTitle" text-anchor="middle" transform="translate(250,350)" x="0" y="40" style="fill: black; font-size: 0.8rem;">Percent Cat Owners</text><g id="group-yTitle" transform="translate(60,190)"><text id="yTitle" text-anchor="middle" transform="rotate(-90)" y="-45" style="fill: black; font-size: 0.8rem;">Percent Dog Owners</text></g></g><g id="quadrant_lines" transform="translate(60,30)"><line id="verticalQuadrantLine" x1="170" y1="10" x2="170" y2="310" class="quadrantLine"></line><line id="horizontalQuadrantLine" x1="10" y1="160" x2="330" y2="160" class="quadrantLine"></line></g><g id="chart" transform="translate(60,30)"><g class="bobaCup bright" cupRadius="20" width="40" height="40" pearlRadius="2.7380424214283137" pearlCount="20" transform="translate(120.71833648139568,49.25870339178863)"><circle class="pool" r="20" cx="20" cy="20" style="stroke-width: 1; fill: rgb(127, 205, 187);"></circle><circle class="pearl" r="2.190433937142651" cx="22.480421380823074" cy="19.96094551607325"></circle><circle class="pearl" r="2.190433937142651" cx="14.554532211889109" cy="20.25858246523202"></circle><circle class="pearl" r="2.190433937142651" cx="21.718613402750453" cy="11.231225788085391"></circle><circle class="pearl" r="2.190433937142651" cx="25.13767186853209" cy="27.447308990534317"></circle><circle class="pearl" r="2.190433937142651" cx="6.622341466842937" cy="15.212813608895589"></circle><circle class="pearl" r="2.190433937142651" cx="28.49521909515808" cy="14.82158787688231"></circle><circle class="pearl" r="2.190433937142651" cx="17.504603283401977" cy="28.993209871734443"></circle><circle class="pearl" r="2.190433937142651" cx="14.13811847195522" cy="12.373399584276378"></circle><circle class="pearl" r="2.190433937142651" cx="31.11803529924844" cy="22.444175683247455"></circle><circle class="pearl" r="2.190433937142651" cx="10.013176726772668" cy="26.767604068489224"></circle><circle class="pearl" r="2.190433937142651" cx="25.1625299271706" cy="4.328500666167248"></circle><circle class="pearl" r="2.190433937142651" cx="27.782608687955303" cy="34.772930101052836"></circle><circle class="pearl" r="2.190433937142651" cx="8.036930275650786" cy="7.623092000895575"></circle><circle class="pearl" r="2.190433937142651" cx="36.040664285033515" cy="16.500106031740792"></circle><circle class="pearl" r="2.190433937142651" cx="11.3070075503718" cy="34.36126950601293"></circle><circle class="pearl" r="2.190433937142651" cx="16.81383473400994" cy="3.9061454691506903"></circle><circle class="pearl" r="2.190433937142651" cx="33.74247113697989" cy="29.87303346303284"></circle><circle class="pearl" r="2.190433937142651" cx="3.788525504185259" cy="22.343736665541265"></circle><circle class="pearl" r="2.190433937142651" cx="32.18050534208177" cy="7.787706818962306"></circle><circle class="pearl" r="2.190433937142651" cx="20.00567962395882" cy="36.34927596497569"></circle></g><g class="bobaCup bright" cupRadius="19.230659869853312" width="38.461319739706624" height="38.461319739706624" pearlRadius="2.7380424214283137" pearlCount="18" transform="translate(247.40422235099726,263.5299204423246)"><circle class="pool" r="19.230659869853312" cx="19.230659869853312" cy="19.230659869853312" style="stroke-width: 1; fill: rgb(127, 205, 187);"></circle><circle class="pearl" r="2.190433937142651" cx="21.219071227699995" cy="18.9416600821846"></circle><circle class="pearl" r="2.190433937142651" cx="14.496413708988431" cy="23.249811203604956"></circle><circle class="pearl" r="2.190433937142651" cx="19.207631890577623" cy="11.309287589355597"></circle><circle class="pearl" r="2.190433937142651" cx="21.573855284600594" cy="26.79308529793334"></circle><circle class="pearl" r="2.190433937142651" cx="11.818774830047937" cy="15.72913605825242"></circle><circle class="pearl" r="2.190433937142651" cx="27.662331159062877" cy="14.310073031852742"></circle><circle class="pearl" r="2.190433937142651" cx="16.468142102700753" cy="33.004439698187504"></circle><circle class="pearl" r="2.190433937142651" cx="13.817939733706513" cy="5.371987666080866"></circle><circle class="pearl" r="2.190433937142651" cx="28.428120547415364" cy="22.70709684364399"></circle><circle class="pearl" r="2.190433937142651" cx="6.542786374913998" cy="23.903436847125764"></circle><circle class="pearl" r="2.190433937142651" cx="29.443827185476632" cy="6.586921081743078"></circle><circle class="pearl" r="2.190433937142651" cx="24.645039060400137" cy="34.03265397534878"></circle><circle class="pearl" r="2.190433937142651" cx="6.660167563105059" cy="8.901553152101714"></circle><circle class="pearl" r="2.190433937142651" cx="34.764016862534234" cy="17.89299582587421"></circle><circle class="pearl" r="2.190433937142651" cx="8.597421106227902" cy="31.603435398598638"></circle><circle class="pearl" r="2.190433937142651" cx="21.93227858689635" cy="3.8414373175743535"></circle><circle class="pearl" r="2.190433937142651" cx="31.455661933771342" cy="30.083292060589713"></circle><circle class="pearl" r="2.190433937142651" cx="3.8614106232838346" cy="16.39183509983281"></circle></g><g class="bobaCup bright" cupRadius="18.799500163392953" width="37.599000326785905" height="37.599000326785905" pearlRadius="2.738042421428314" pearlCount="18" transform="translate(174.58911869649015,237.91771758070928)"><circle class="pool" r="18.799500163392953" cx="18.799500163392953" cy="18.799500163392953" style="stroke-width: 1; fill: rgb(127, 205, 187);"></circle><circle class="pearl" r="2.1904339371426516" cx="18.916836056910668" cy="18.447728743088927"></circle><circle class="pearl" r="2.1904339371426516" cx="13.687122748508582" cy="24.486239006494717"></circle><circle class="pearl" r="2.1904339371426516" cx="18.462077282033913" cy="10.632337336678816"></circle><circle class="pearl" r="2.1904339371426516" cx="21.512241972848138" cy="25.806504936931926"></circle><circle class="pearl" r="2.1904339371426516" cx="11.802208569610153" cy="14.898012589253113"></circle><circle class="pearl" r="2.1904339371426516" cx="25.618926979196385" cy="14.002345375749664"></circle><circle class="pearl" r="2.1904339371426516" cx="16.436486046732536" cy="32.058362474247666"></circle><circle class="pearl" r="2.1904339371426516" cx="13.66441113680708" cy="4.365642471122964"></circle><circle class="pearl" r="2.1904339371426516" cx="28.233869517252256" cy="21.525734374287556"></circle><circle class="pearl" r="2.1904339371426516" cx="5.758376517617864" cy="23.451224172195836"></circle><circle class="pearl" r="2.1904339371426516" cx="30.15255382730258" cy="7.472193097983565"></circle><circle class="pearl" r="2.1904339371426516" cx="24.28070974380266" cy="33.13147828720595"></circle><circle class="pearl" r="2.1904339371426516" cx="6.856091197346501" cy="8.299774096004123"></circle><circle class="pearl" r="2.1904339371426516" cx="33.69103976667875" cy="15.70019452055126"></circle><circle class="pearl" r="2.1904339371426516" cx="8.534438521530083" cy="30.898371084582276"></circle><circle class="pearl" r="2.1904339371426516" cx="23.002926287681024" cy="4.126675285468281"></circle><circle class="pearl" r="2.1904339371426516" cx="30.927413199976552" cy="29.019864345033305"></circle><circle class="pearl" r="2.1904339371426516" cx="3.9029462638966206" cy="15.730344330255951"></circle></g><g class="bobaCup bright" cupRadius="18.515190853594987" width="37.030381707189974" height="37.030381707189974" pearlRadius="2.7380424214283137" pearlCount="17" transform="translate(213.2014512261152,92.6009795633332)"><circle class="pool" r="18.515190853594987" cx="18.515190853594987" cy="18.515190853594987" style="stroke-width: 1; fill: rgb(29, 145, 192);"></circle><circle class="pearl" r="2.190433937142651" cx="18.33314544426977" cy="18.330949986227658"></circle><circle class="pearl" r="2.190433937142651" cx="13.350418607333982" cy="24.533872436595093"></circle><circle class="pearl" r="2.190433937142651" cx="16.14525548428525" cy="10.766268993020631"></circle><circle class="pearl" r="2.190433937142651" cx="21.112045109020652" cy="25.603029452872494"></circle><circle class="pearl" r="2.190433937142651" cx="10.534486521446" cy="17.182596047544767"></circle><circle class="pearl" r="2.190433937142651" cx="24.055536818629374" cy="12.945345407316253"></circle><circle class="pearl" r="2.190433937142651" cx="16.191538983485998" cy="32.01179108105456"></circle><circle class="pearl" r="2.190433937142651" cx="10.063343207461987" cy="5.692342407765782"></circle><circle class="pearl" r="2.190433937142651" cx="27.045231724438946" cy="20.28045800035967"></circle><circle class="pearl" r="2.190433937142651" cx="4.4105694323145626" cy="22.33915603732166"></circle><circle class="pearl" r="2.190433937142651" cx="29.48526582226734" cy="7.250494291668867"></circle><circle class="pearl" r="2.190433937142651" cx="25.558079066432338" cy="31.98784398503317"></circle><circle class="pearl" r="2.190433937142651" cx="4.9976466739990215" cy="11.5824506632578"></circle><circle class="pearl" r="2.190433937142651" cx="33.0010826411072" cy="14.790209229018902"></circle><circle class="pearl" r="2.190433937142651" cx="7.432864831091994" cy="29.696673876151902"></circle><circle class="pearl" r="2.190433937142651" cx="19.834521310238166" cy="3.697788581963806"></circle><circle class="pearl" r="2.190433937142651" cx="31.35984253823008" cy="26.924405966660867"></circle></g><g class="bobaCup bright" cupRadius="18.072082877469335" width="36.14416575493867" height="36.14416575493867" pearlRadius="2.7380424214283137" pearlCount="16" transform="translate(262.6336260897557,100.07648218814535)"><circle class="pool" r="18.072082877469335" cx="18.072082877469335" cy="18.072082877469335" style="stroke-width: 1; fill: rgb(29, 145, 192);"></circle><circle class="pearl" r="2.190433937142651" cx="19.932623423120983" cy="19.88450770708375"></circle><circle class="pearl" r="2.190433937142651" cx="13.514861186229286" cy="24.212595135584678"></circle><circle class="pearl" r="2.190433937142651" cx="16.465335763037533" cy="11.369137938486436"></circle><circle class="pearl" r="2.190433937142651" cx="21.04570570154707" cy="27.735342433819955"></circle><circle class="pearl" r="2.190433937142651" cx="10.66189301073527" cy="16.841318009069422"></circle><circle class="pearl" r="2.190433937142651" cx="24.114758572929734" cy="13.391174121411211"></circle><circle class="pearl" r="2.190433937142651" cx="14.475163085566916" cy="32.13187481759792"></circle><circle class="pearl" r="2.190433937142651" cx="10.75915841873058" cy="5.7780955638127915"></circle><circle class="pearl" r="2.190433937142651" cx="27.803811659649735" cy="21.046304294695542"></circle><circle class="pearl" r="2.190433937142651" cx="4.261651218652288" cy="21.63913960380983"></circle><circle class="pearl" r="2.190433937142651" cx="28.740658663892685" cy="7.135768359484002"></circle><circle class="pearl" r="2.190433937142651" cx="28.86727358147169" cy="28.914945719789795"></circle><circle class="pearl" r="2.190433937142651" cx="4.986874774943178" cy="11.252348131094074"></circle><circle class="pearl" r="2.190433937142651" cx="32.10452844492957" cy="14.343045352693753"></circle><circle class="pearl" r="2.190433937142651" cx="7.347396785264854" cy="28.967193683211857"></circle><circle class="pearl" r="2.190433937142651" cx="18.449597361479203" cy="3.6546666792902727"></circle></g><g class="bobaCup bright" cupRadius="18.024433116488087" width="36.048866232976174" height="36.048866232976174" pearlRadius="2.7380424214283146" pearlCount="16" transform="translate(119.31953095038527,166.5556693495745)"><circle class="pool" r="18.024433116488087" cx="18.024433116488087" cy="18.024433116488087" style="stroke-width: 1; fill: rgb(127, 205, 187);"></circle><circle class="pearl" r="2.1904339371426516" cx="19.94857854874716" cy="19.87633044970098"></circle><circle class="pearl" r="2.1904339371426516" cx="13.471937711738018" cy="24.11527890450241"></circle><circle class="pearl" r="2.1904339371426516" cx="16.302845698391565" cy="11.279179093352425"></circle><circle class="pearl" r="2.1904339371426516" cx="20.99680674109827" cy="27.71474367947417"></circle><circle class="pearl" r="2.1904339371426516" cx="10.51872674928355" cy="16.77553569492027"></circle><circle class="pearl" r="2.1904339371426516" cx="23.96147081247221" cy="13.292659612928887"></circle><circle class="pearl" r="2.1904339371426516" cx="14.4150072213553" cy="32.0330483205508"></circle><circle class="pearl" r="2.1904339371426516" cx="10.86107527490676" cy="5.4286048235933695"></circle><circle class="pearl" r="2.1904339371426516" cx="27.82910533214717" cy="20.96731729857341"></circle><circle class="pearl" r="2.1904339371426516" cx="4.1198243821405125" cy="21.57284613951296"></circle><circle class="pearl" r="2.1904339371426516" cx="28.63405193154072" cy="7.104083022546738"></circle><circle class="pearl" r="2.1904339371426516" cx="28.780885029475495" cy="28.836729331115645"></circle><circle class="pearl" r="2.1904339371426516" cx="5.106975488648389" cy="10.926858017905783"></circle><circle class="pearl" r="2.1904339371426516" cx="31.98247708460482" cy="14.175861045758047"></circle><circle class="pearl" r="2.1904339371426516" cx="7.325452876018187" cy="28.879295397808942"></circle><circle class="pearl" r="2.1904339371426516" cx="18.64340598121237" cy="3.661354365369058"></circle></g><g class="bobaCup bright" cupRadius="17.975886177618527" width="35.951772355237054" height="35.951772355237054" pearlRadius="2.738042421428314" pearlCount="16" transform="translate(285.35208017430585,8.531666396292842)"><circle class="pool" r="17.975886177618527" cx="17.975886177618527" cy="17.975886177618527" style="stroke-width: 1; fill: rgb(29, 145, 192);"></circle><circle class="pearl" r="2.1904339371426516" cx="19.921373934638662" cy="19.830612137787202"></circle><circle class="pearl" r="2.1904339371426516" cx="13.421170519243352" cy="24.0133615877617"></circle><circle class="pearl" r="2.1904339371426516" cx="16.140211400711205" cy="11.182378109517735"></circle><circle class="pearl" r="2.1904339371426516" cx="20.937912673966395" cy="27.65573290143301"></circle><circle class="pearl" r="2.1904339371426516" cx="10.38022239319012" cy="16.70217120619015"></circle><circle class="pearl" r="2.1904339371426516" cx="23.79543962606731" cy="13.187209112317879"></circle><circle class="pearl" r="2.1904339371426516" cx="14.363072284286991" cy="31.934253205016017"></circle><circle class="pearl" r="2.1904339371426516" cx="10.962604886026051" cy="5.100237612212446"></circle><circle class="pearl" r="2.1904339371426516" cx="27.796350246190592" cy="20.913774685055458"></circle><circle class="pearl" r="2.1904339371426516" cx="4.0021335965816185" cy="21.512881556077406"></circle><circle class="pearl" r="2.1904339371426516" cx="28.524702027679457" cy="7.071370897934237"></circle><circle class="pearl" r="2.1904339371426516" cx="28.68471238752247" cy="28.7630826425757"></circle><circle class="pearl" r="2.1904339371426516" cx="5.223918052363928" cy="10.621690081386864"></circle><circle class="pearl" r="2.1904339371426516" cx="31.878567775655103" cy="14.10155231694987"></circle><circle class="pearl" r="2.1904339371426516" cx="7.309160093911606" cy="28.794214007284236"></circle><circle class="pearl" r="2.1904339371426516" cx="18.81671734419163" cy="3.6703991484538183"></circle></g><g class="bobaCup bright" cupRadius="17.857616707341066" width="35.71523341468213" height="35.71523341468213" pearlRadius="2.7380424214283137" pearlCount="16" transform="translate(267.2948678926456,275.8825531593303)"><circle class="pool" r="17.857616707341066" cx="17.857616707341066" cy="17.857616707341066" style="stroke-width: 1; fill: rgb(127, 205, 187);"></circle><circle class="pearl" r="2.190433937142651" cx="19.762222088539126" cy="19.662864615574474"></circle><circle class="pearl" r="2.190433937142651" cx="13.318391228470253" cy="23.81228555622195"></circle><circle class="pearl" r="2.190433937142651" cx="16.069548780538543" cy="11.086440805784736"></circle><circle class="pearl" r="2.190433937142651" cx="20.798504329571216" cy="27.44429945967103"></circle><circle class="pearl" r="2.190433937142651" cx="10.300798967693838" cy="16.526642313322988"></circle><circle class="pearl" r="2.190433937142651" cx="23.624955184148472" cy="13.114599733477013"></circle><circle class="pearl" r="2.190433937142651" cx="14.293849369231555" cy="31.705294457891778"></circle><circle class="pearl" r="2.190433937142651" cx="11.080016065041953" cy="4.986881041498091"></circle><circle class="pearl" r="2.190433937142651" cx="27.62996684870198" cy="20.75153650363855"></circle><circle class="pearl" r="2.190433937142651" cx="4.000379518757427" cy="21.37412015503596"></circle><circle class="pearl" r="2.190433937142651" cx="28.268237925216585" cy="6.999258630597648"></circle><circle class="pearl" r="2.190433937142651" cx="28.4663198590984" cy="28.571777463828848"></circle><circle class="pearl" r="2.190433937142651" cx="5.310813150801554" cy="10.338667278602268"></circle><circle class="pearl" r="2.190433937142651" cx="31.62928545077136" cy="13.939105199096058"></circle><circle class="pearl" r="2.190433937142651" cx="7.312621001905873" cy="28.618608853376156"></circle><circle class="pearl" r="2.190433937142651" cx="19.042403342666617" cy="3.690069674883425"></circle></g><g class="bobaCup bright" cupRadius="17.684991604293646" width="35.36998320858729" height="35.36998320858729" pearlRadius="2.738042421428314" pearlCount="16" transform="translate(14.575679322442834,31.843331090345917)"><circle class="pool" r="17.684991604293646" cx="17.684991604293646" cy="17.684991604293646" style="stroke-width: 1; fill: rgb(29, 145, 192);"></circle><circle class="pearl" r="2.1904339371426516" cx="19.27855335305617" cy="19.190534084678262"></circle><circle class="pearl" r="2.1904339371426516" cx="13.17289577621321" cy="23.55069176116121"></circle><circle class="pearl" r="2.1904339371426516" cx="15.957685454087889" cy="10.96289048960067"></circle><circle class="pearl" r="2.1904339371426516" cx="20.56996440779378" cy="26.899576206516976"></circle><circle class="pearl" r="2.1904339371426516" cx="10.208779329185486" cy="16.342515504403984"></circle><circle class="pearl" r="2.1904339371426516" cx="23.346013125295325" cy="12.982687564018239"></circle><circle class="pearl" r="2.1904339371426516" cx="14.281686927065826" cy="31.38870427314936"></circle><circle class="pearl" r="2.1904339371426516" cx="11.11424511272174" cy="4.916694807679541"></circle><circle class="pearl" r="2.1904339371426516" cx="27.12284700584822" cy="20.473097840120232"></circle><circle class="pearl" r="2.1904339371426516" cx="4.017466340955728" cy="21.2678950660727"></circle><circle class="pearl" r="2.1904339371426516" cx="27.91511412501019" cy="6.909921223670647"></circle><circle class="pearl" r="2.1904339371426516" cx="28.174956188283502" cy="28.272230697297065"></circle><circle class="pearl" r="2.1904339371426516" cx="5.361401769823324" cy="10.096826463241339"></circle><circle class="pearl" r="2.1904339371426516" cx="31.289406076676524" cy="13.809536667766341"></circle><circle class="pearl" r="2.1904339371426516" cx="7.3585976881719155" cy="28.391305560776477"></circle><circle class="pearl" r="2.1904339371426516" cx="19.316542319700986" cy="3.7261444148508223"></circle></g><g class="bobaCup bright" cupRadius="17.668105481060415" width="35.33621096212083" height="35.33621096212083" pearlRadius="2.7380424214283132" pearlCount="16" transform="translate(115.00770372195268,46.170064832278875)"><circle class="pool" r="17.668105481060415" cx="17.668105481060415" cy="17.668105481060415" style="stroke-width: 1; fill: rgb(29, 145, 192);"></circle><circle class="pearl" r="2.1904339371426507" cx="19.143360670006583" cy="19.06793063901508"></circle><circle class="pearl" r="2.1904339371426507" cx="13.145238508730248" cy="23.51856046705041"></circle><circle class="pearl" r="2.1904339371426507" cx="15.975106353559044" cy="10.970401640310616"></circle><circle class="pearl" r="2.1904339371426507" cx="20.53767976375366" cy="26.770513566668352"></circle><circle class="pearl" r="2.1904339371426507" cx="10.190178377011016" cy="16.31738006716999"></circle><circle class="pearl" r="2.1904339371426507" cx="23.355610805875223" cy="12.988779888950141"></circle><circle class="pearl" r="2.1904339371426507" cx="14.304910785306689" cy="31.36243551641248"></circle><circle class="pearl" r="2.1904339371426507" cx="11.165393917997857" cy="4.890904506693089"></circle><circle class="pearl" r="2.1904339371426507" cx="26.97005722208598" cy="20.46298976829634"></circle><circle class="pearl" r="2.1904339371426507" cx="4.0233996766127005" cy="21.277826502647464"></circle><circle class="pearl" r="2.1904339371426507" cx="27.87285091399452" cy="6.89575268754496"></circle><circle class="pearl" r="2.1904339371426507" cx="28.14569891072684" cy="28.243484572256616"></circle><circle class="pearl" r="2.1904339371426507" cx="5.381570301807625" cy="10.041458397831486"></circle><circle class="pearl" r="2.1904339371426507" cx="31.279873790892747" cy="13.904020309809983"></circle><circle class="pearl" r="2.1904339371426507" cx="7.372515800607533" cy="28.375752091075785"></circle><circle class="pearl" r="2.1904339371426507" cx="19.331644893305" cy="3.729212798140252"></circle></g><g class="bobaCup bright" cupRadius="17.64579089817615" width="35.2915817963523" height="35.2915817963523" pearlRadius="2.7380424214283137" pearlCount="16" transform="translate(205.89276773870435,116.03739285759714)"><circle class="pool" r="17.64579089817615" cx="17.64579089817615" cy="17.64579089817615" style="stroke-width: 1; fill: rgb(127, 205, 187);"></circle><circle class="pearl" r="2.190433937142651" cx="18.91657634754693" cy="18.86062393770308"></circle><circle class="pearl" r="2.190433937142651" cx="13.106674587878043" cy="23.47262702528893"></circle><circle class="pearl" r="2.190433937142651" cx="16.016836051097766" cy="10.99187308778505"></circle><circle class="pearl" r="2.190433937142651" cx="20.490402600797832" cy="26.558065304480035"></circle><circle class="pearl" r="2.190433937142651" cx="10.162665638290319" cy="16.280689471953625"></circle><circle class="pearl" r="2.190433937142651" cx="23.392215594584243" cy="13.015333799714925"></circle><circle class="pearl" r="2.190433937142651" cx="14.350854117216393" cy="31.33050328661898"></circle><circle class="pearl" r="2.190433937142651" cx="11.260246751318228" cy="4.846627732893786"></circle><circle class="pearl" r="2.190433937142651" cx="26.71001823910939" cy="20.454456889823568"></circle><circle class="pearl" r="2.190433937142651" cx="4.033089434849302" cy="21.299296656940605"></circle><circle class="pearl" r="2.190433937142651" cx="27.818148612941663" cy="6.877877750688409"></circle><circle class="pearl" r="2.190433937142651" cx="28.109893375124688" cy="28.203392545327592"></circle><circle class="pearl" r="2.190433937142651" cx="5.416073474336706" cy="9.95257693342622"></circle><circle class="pearl" r="2.190433937142651" cx="31.27953563741188" cy="14.093171654291963"></circle><circle class="pearl" r="2.190433937142651" cx="7.394071646402198" cy="28.35738603416458"></circle><circle class="pearl" r="2.190433937142651" cx="19.345925508562154" cy="3.7328163746016507"></circle></g><g class="bobaCup bright" cupRadius="17.618138089387564" width="35.23627617877513" height="35.23627617877513" pearlRadius="2.738042421428314" pearlCount="16" transform="translate(139.27559760558717,61.9300700833784)"><circle class="pool" r="17.618138089387564" cx="17.618138089387564" cy="17.618138089387564" style="stroke-width: 1; fill: rgb(65, 182, 196);"></circle><circle class="pearl" r="2.1904339371426516" cx="18.60315375315138" cy="18.57934559757699"></circle><circle class="pearl" r="2.1904339371426516" cx="13.06326669421513" cy="23.412704160450694"></circle><circle class="pearl" r="2.1904339371426516" cx="16.09254222576531" cy="11.022023405885625"></circle><circle class="pearl" r="2.1904339371426516" cx="20.429388488353013" cy="26.268995563498542"></circle><circle class="pearl" r="2.1904339371426516" cx="10.136751367491094" cy="16.230123880842246"></circle><circle class="pearl" r="2.1904339371426516" cx="23.468659214191593" cy="13.08457082773529"></circle><circle class="pearl" r="2.1904339371426516" cx="14.41954711723205" cy="31.29276638768525"></circle><circle class="pearl" r="2.1904339371426516" cx="11.387465319268815" cy="4.789252506811778"></circle><circle class="pearl" r="2.1904339371426516" cx="26.330592862552272" cy="20.45530213781234"></circle><circle class="pearl" r="2.1904339371426516" cx="4.044661133545752" cy="21.322961667373367"></circle><circle class="pearl" r="2.1904339371426516" cx="27.76323578482265" cy="6.864841653753571"></circle><circle class="pearl" r="2.1904339371426516" cx="28.067897827392404" cy="28.151959659811684"></circle><circle class="pearl" r="2.1904339371426516" cx="5.461957246182887" cy="9.837355776380232"></circle><circle class="pearl" r="2.1904339371426516" cx="31.29263671306939" cy="14.418844806966087"></circle><circle class="pearl" r="2.1904339371426516" cx="7.418945018729625" cy="28.333181476078334"></circle><circle class="pearl" r="2.1904339371426516" cx="19.37798229221635" cy="3.738837412712574"></circle></g><g class="bobaCup bright" cupRadius="17.57423384370467" width="35.14846768740934" height="35.14846768740934" pearlRadius="2.7380424214283137" pearlCount="15" transform="translate(100.16789873309699,140.38404567694164)"><circle class="pool" r="17.57423384370467" cx="17.57423384370467" cy="17.57423384370467" style="stroke-width: 1; fill: rgb(65, 182, 196);"></circle><circle class="pearl" r="2.190433937142651" cx="18.816621629161784" cy="17.717074939402274"></circle><circle class="pearl" r="2.190433937142651" cx="13.166254666185248" cy="23.267449825483595"></circle><circle class="pearl" r="2.190433937142651" cx="16.42465608749905" cy="9.834760305456683"></circle><circle class="pearl" r="2.190433937142651" cx="20.412268998940153" cy="26.079391244776723"></circle><circle class="pearl" r="2.190433937142651" cx="11.144890379220945" cy="15.770968794022938"></circle><circle class="pearl" r="2.190433937142651" cx="24.022542799517776" cy="11.75308087690342"></circle><circle class="pearl" r="2.190433937142651" cx="14.414992803515563" cy="31.211451245619312"></circle><circle class="pearl" r="2.190433937142651" cx="10.004438788659776" cy="5.364569371534246"></circle><circle class="pearl" r="2.190433937142651" cx="26.20250574898434" cy="20.542261765376793"></circle><circle class="pearl" r="2.190433937142651" cx="4.718773259390961" cy="20.601438713695284"></circle><circle class="pearl" r="2.190433937142651" cx="22.001023445085263" cy="4.217393195625952"></circle><circle class="pearl" r="2.190433937142651" cx="27.935605122731662" cy="28.118428029876405"></circle><circle class="pearl" r="2.190433937142651" cx="4.887571029313257" cy="11.097852718691351"></circle><circle class="pearl" r="2.190433937142651" cx="31.243312991523975" cy="14.594612922178511"></circle><circle class="pearl" r="2.190433937142651" cx="7.208729463973716" cy="28.115410211276203"></circle></g><g class="bobaCup bright" cupRadius="17.18411265821606" width="34.36822531643212" height="34.36822531643212" pearlRadius="2.7380424214283137" pearlCount="15" transform="translate(148.78316394060755,60.35376222318768)"><circle class="pool" r="17.18411265821606" cx="17.18411265821606" cy="17.18411265821606" style="stroke-width: 1; fill: rgb(29, 145, 192);"></circle><circle class="pearl" r="2.190433937142651" cx="18.411350431169133" cy="17.421808372743865"></circle><circle class="pearl" r="2.190433937142651" cx="12.751072162793582" cy="22.722565181290097"></circle><circle class="pearl" r="2.190433937142651" cx="16.099940067039554" cy="9.851743136623895"></circle><circle class="pearl" r="2.190433937142651" cx="19.86252726001174" cy="25.28376606040607"></circle><circle class="pearl" r="2.190433937142651" cx="10.667481514449872" cy="15.545321082691888"></circle><circle class="pearl" r="2.190433937142651" cx="23.495633114228074" cy="11.463858265040901"></circle><circle class="pearl" r="2.190433937142651" cx="14.21673589204586" cy="30.459357732163287"></circle><circle class="pearl" r="2.190433937142651" cx="10.23199228023775" cy="5.119819179816702"></circle><circle class="pearl" r="2.190433937142651" cx="25.831528466862256" cy="20.039912749580356"></circle><circle class="pearl" r="2.190433937142651" cx="4.176817576099907" cy="20.293233432505982"></circle><circle class="pearl" r="2.190433937142651" cx="21.50339666639696" cy="4.202412325954704"></circle><circle class="pearl" r="2.190433937142651" cx="27.1918538313026" cy="27.502600018034347"></circle><circle class="pearl" r="2.190433937142651" cx="5.090978494639122" cy="10.297554572643307"></circle><circle class="pearl" r="2.190433937142651" cx="30.43251882512214" cy="14.067519401921485"></circle><circle class="pearl" r="2.190433937142651" cx="7.221668726319599" cy="27.534940727771936"></circle></g><g class="bobaCup bright" cupRadius="16.61186313527432" width="33.22372627054864" height="33.22372627054864" pearlRadius="2.7380424214283137" pearlCount="14" transform="translate(80.30365475822308,135.33883099628468)"><circle class="pool" r="16.61186313527432" cx="16.61186313527432" cy="16.61186313527432" style="stroke-width: 1; fill: rgb(127, 205, 187);"></circle><circle class="pearl" r="2.190433937142651" cx="20.68284732179035" cy="12.359896966094576"></circle><circle class="pearl" r="2.190433937142651" cx="13.13825344814215" cy="21.64596595931786"></circle><circle class="pearl" r="2.190433937142651" cx="12.700648535136164" cy="12.412758734558128"></circle><circle class="pearl" r="2.190433937142651" cx="20.92425527254426" cy="20.318849729192138"></circle><circle class="pearl" r="2.190433937142651" cx="6.208832569740041" cy="17.71745353919699"></circle><circle class="pearl" r="2.190433937142651" cx="26.383905167480638" cy="6.829001907495753"></circle><circle class="pearl" r="2.190433937142651" cx="15.47829487349261" cy="29.53428142607026"></circle><circle class="pearl" r="2.190433937142651" cx="11.097159781226765" cy="4.592805135572222"></circle><circle class="pearl" r="2.190433937142651" cx="28.59270392937047" cy="22.23398044375706"></circle><circle class="pearl" r="2.190433937142651" cx="6.865459767175626" cy="26.41333743020847"></circle><circle class="pearl" r="2.190433937142651" cx="19.043553949152734" cy="3.8296658501087997"></circle><circle class="pearl" r="2.190433937142651" cx="23.343617627476494" cy="28.147893288575272"></circle><circle class="pearl" r="2.190433937142651" cx="5.106246596550557" cy="9.811910070480215"></circle><circle class="pearl" r="2.190433937142651" cx="29.401289519103525" cy="14.229537056212026"></circle></g><g class="bobaCup bright" cupRadius="16.512193490982387" width="33.024386981964774" height="33.024386981964774" pearlRadius="2.738042421428314" pearlCount="14" transform="translate(3.487806509017613,154.52762310658895)"><circle class="pool" r="16.512193490982387" cx="16.512193490982387" cy="16.512193490982387" style="stroke-width: 1; fill: rgb(127, 205, 187);"></circle><circle class="pearl" r="2.1904339371426516" cx="20.457084489393072" cy="12.256093416147236"></circle><circle class="pearl" r="2.1904339371426516" cx="12.771547549940122" cy="20.982058367165553"></circle><circle class="pearl" r="2.1904339371426516" cx="12.500499544866377" cy="12.659055138788558"></circle><circle class="pearl" r="2.1904339371426516" cx="20.670009807235974" cy="20.222555738828852"></circle><circle class="pearl" r="2.1904339371426516" cx="5.429030868174326" cy="17.87282509774568"></circle><circle class="pearl" r="2.1904339371426516" cx="26.21094187410493" cy="6.7992789781105"></circle><circle class="pearl" r="2.1904339371426516" cx="15.013824184856825" cy="29.30553981061323"></circle><circle class="pearl" r="2.1904339371426516" cx="10.935028057652088" cy="4.621109887241252"></circle><circle class="pearl" r="2.1904339371426516" cx="28.329133512292298" cy="22.29180658114006"></circle><circle class="pearl" r="2.1904339371426516" cx="6.823672009537777" cy="26.23252427423952"></circle><circle class="pearl" r="2.1904339371426516" cx="18.87592689497088" cy="3.82078410846167"></circle><circle class="pearl" r="2.1904339371426516" cx="22.908323845093623" cy="28.08454650792942"></circle><circle class="pearl" r="2.1904339371426516" cx="5.0303345009854965" cy="9.904812067005"></circle><circle class="pearl" r="2.1904339371426516" cx="29.212222106206355" cy="14.208837672557081"></circle></g><g class="bobaCup bright" cupRadius="16.203825403799858" width="32.407650807599715" height="32.407650807599715" pearlRadius="2.7380424214283146" pearlCount="13" transform="translate(57.037364157727296,117.79694250089624)"><circle class="pool" r="16.203825403799858" cx="16.203825403799858" cy="16.203825403799858" style="stroke-width: 1; fill: rgb(29, 145, 192);"></circle><circle class="pearl" r="2.1904339371426516" cx="21.113721775940853" cy="16.504083367885286"></circle><circle class="pearl" r="2.1904339371426516" cx="15.055073820563035" cy="21.497647930192464"></circle><circle class="pearl" r="2.1904339371426516" cx="16.082742180697014" cy="10.524782839991461"></circle><circle class="pearl" r="2.1904339371426516" cx="24.240755361445405" cy="23.860928688728716"></circle><circle class="pearl" r="2.1904339371426516" cx="9.928549667864646" cy="15.598192231477338"></circle><circle class="pearl" r="2.1904339371426516" cx="27.36989509942202" cy="9.644358568880532"></circle><circle class="pearl" r="2.1904339371426516" cx="9.681380179524112" cy="27.386229492593515"></circle><circle class="pearl" r="2.1904339371426516" cx="11.108202795674384" cy="4.472787096305246"></circle><circle class="pearl" r="2.1904339371426516" cx="28.707125487717132" cy="17.47326958784746"></circle><circle class="pearl" r="2.1904339371426516" cx="4.511573340656608" cy="21.4150696808102"></circle><circle class="pearl" r="2.1904339371426516" cx="21.306207216197052" cy="4.475027913006898"></circle><circle class="pearl" r="2.1904339371426516" cx="18.04600060023402" cy="28.651870707712003"></circle><circle class="pearl" r="2.1904339371426516" cx="5.180552074315766" cy="9.330850594373127"></circle></g><g class="bobaCup bright" cupRadius="15.544534441653736" width="31.089068883307473" height="31.089068883307473" pearlRadius="2.738042421428314" pearlCount="12" transform="translate(249.54763500498186,63.18480749537727)"><circle class="pool" r="15.544534441653736" cx="15.544534441653736" cy="15.544534441653736" style="stroke-width: 1; fill: rgb(29, 145, 192);"></circle><circle class="pearl" r="2.1904339371426516" cx="17.077241044732173" cy="11.093139824884728"></circle><circle class="pearl" r="2.1904339371426516" cx="11.0953111704899" cy="17.070229703984047"></circle><circle class="pearl" r="2.1904339371426516" cx="14.012614888454879" cy="3.726393022478812"></circle><circle class="pearl" r="2.1904339371426516" cx="18.868018287587866" cy="18.871940720522847"></circle><circle class="pearl" r="2.1904339371426516" cx="3.726571002614867" cy="14.010818761657845"></circle><circle class="pearl" r="2.1904339371426516" cx="27.043025038294232" cy="12.06116373416687"></circle><circle class="pearl" r="2.1904339371426516" cx="12.041370468727377" cy="27.038460208240977"></circle><circle class="pearl" r="2.1904339371426516" cx="6.532492416719565" cy="6.529727695187075"></circle><circle class="pearl" r="2.1904339371426516" cx="26.762666880919237" cy="20.077710164786815"></circle><circle class="pearl" r="2.1904339371426516" cx="5.365926619170368" cy="22.642573162885142"></circle><circle class="pearl" r="2.1904339371426516" cx="22.662058613551782" cy="5.37594507262409"></circle><circle class="pearl" r="2.1904339371426516" cx="20.05513278587494" cy="26.769531484211313"></circle></g><g class="bobaCup bright" cupRadius="15.374010616172882" width="30.748021232345764" height="30.748021232345764" pearlRadius="2.738042421428314" pearlCount="12" transform="translate(229.72822480725026,118.6765985230646)"><circle class="pool" r="15.374010616172882" cx="15.374010616172882" cy="15.374010616172882" style="stroke-width: 1; fill: rgb(29, 145, 192);"></circle><circle class="pearl" r="2.1904339371426516" cx="17.00932395499986" cy="10.867918097742548"></circle><circle class="pearl" r="2.1904339371426516" cx="10.909483873228154" cy="16.888233864492225"></circle><circle class="pearl" r="2.1904339371426516" cx="13.91395861913595" cy="3.720209984389966"></circle><circle class="pearl" r="2.1904339371426516" cx="18.52582226772448" cy="18.555964154468654"></circle><circle class="pearl" r="2.1904339371426516" cx="3.7219321453008694" cy="13.896017864594613"></circle><circle class="pearl" r="2.1904339371426516" cx="26.86582780166397" cy="12.71625362301299"></circle><circle class="pearl" r="2.1904339371426516" cx="12.42476053224734" cy="26.811763996214797"></circle><circle class="pearl" r="2.1904339371426516" cx="6.502335819598823" cy="6.468715816323128"></circle><circle class="pearl" r="2.1904339371426516" cx="26.105961728012613" cy="20.80529787094819"></circle><circle class="pearl" r="2.1904339371426516" cx="5.552207209022953" cy="22.780172137229812"></circle><circle class="pearl" r="2.1904339371426516" cx="23.07341903249842" cy="5.717618737974508"></circle><circle class="pearl" r="2.1904339371426516" cx="20.55616698646228" cy="26.197590748387956"></circle></g><g class="bobaCup bright" cupRadius="14.990937001099507" width="29.981874002199014" height="29.981874002199014" pearlRadius="2.7380424214283137" pearlCount="11" transform="translate(241.01548603214115,98.01006892662508)"><circle class="pool" r="14.990937001099507" cx="14.990937001099507" cy="14.990937001099507" style="stroke-width: 1; fill: rgb(29, 145, 192);"></circle><circle class="pearl" r="2.190433937142651" cx="19.12659432495917" cy="15.02065469392457"></circle><circle class="pearl" r="2.190433937142651" cx="11.45681239764647" cy="17.078610002998108"></circle><circle class="pearl" r="2.190433937142651" cx="13.762393673469203" cy="9.212378838455674"></circle><circle class="pearl" r="2.190433937142651" cx="20.64489727176389" cy="25.224050613570707"></circle><circle class="pearl" r="2.190433937142651" cx="4.065336036164521" cy="13.99713698023937"></circle><circle class="pearl" r="2.190433937142651" cx="25.61351889868116" cy="10.408257332316598"></circle><circle class="pearl" r="2.190433937142651" cx="12.764476246649851" cy="26.164891329893027"></circle><circle class="pearl" r="2.190433937142651" cx="6.395943730615475" cy="6.359385080038564"></circle><circle class="pearl" r="2.190433937142651" cx="25.714723149559756" cy="19.24554301582901"></circle><circle class="pearl" r="2.190433937142651" cx="5.714378902023029" cy="22.58129862929542"></circle><circle class="pearl" r="2.190433937142651" cx="20.21407850466196" cy="4.5900772225963475"></circle></g><g class="bobaCup bright" cupRadius="14.89370927513962" width="29.78741855027924" height="29.78741855027924" pearlRadius="2.7380424214283132" pearlCount="11" transform="translate(173.90989575725504,254.57985104157123)"><circle class="pool" r="14.89370927513962" cx="14.89370927513962" cy="14.89370927513962" style="stroke-width: 1; fill: rgb(65, 182, 196);"></circle><circle class="pearl" r="2.1904339371426507" cx="18.85329311518887" cy="15.046034803093855"></circle><circle class="pearl" r="2.1904339371426507" cx="11.127537471895792" cy="16.62917597448486"></circle><circle class="pearl" r="2.1904339371426507" cx="13.810730682441871" cy="8.963253349314712"></circle><circle class="pearl" r="2.1904339371426507" cx="20.621256755901353" cy="24.99135961684949"></circle><circle class="pearl" r="2.1904339371426507" cx="3.6905624271391426" cy="13.80507723413039"></circle><circle class="pearl" r="2.1904339371426507" cx="25.575518715262444" cy="10.843884183459506"></circle><circle class="pearl" r="2.1904339371426507" cx="12.761307975220689" cy="25.98325200985712"></circle><circle class="pearl" r="2.1904339371426507" cx="6.381275376222127" cy="6.32309685293422"></circle><circle class="pearl" r="2.1904339371426507" cx="25.570006909971813" cy="18.962990434261847"></circle><circle class="pearl" r="2.1904339371426507" cx="5.713204715672956" cy="22.455598551231137"></circle><circle class="pearl" r="2.1904339371426507" cx="20.52388748459305" cy="4.75589852427055"></circle></g><g class="bobaCup bright" cupRadius="14.735794222720191" width="29.471588445440382" height="29.471588445440382" pearlRadius="2.7380424214283137" pearlCount="11" transform="translate(66.2163521033624,119.09453845666863)"><circle class="pool" r="14.735794222720191" cx="14.735794222720191" cy="14.735794222720191" style="stroke-width: 1; fill: rgb(127, 205, 187);"></circle><circle class="pearl" r="2.190433937142651" cx="18.66860908336301" cy="14.968339034361854"></circle><circle class="pearl" r="2.190433937142651" cx="11.048264060543737" cy="16.59250649637748"></circle><circle class="pearl" r="2.190433937142651" cx="13.661950791708692" cy="8.962806575574096"></circle><circle class="pearl" r="2.190433937142651" cx="20.756435048110394" cy="24.534811342051686"></circle><circle class="pearl" r="2.190433937142651" cx="3.6879568099295366" cy="13.688919613912933"></circle><circle class="pearl" r="2.190433937142651" cx="25.23939627432946" cy="10.637171620283965"></circle><circle class="pearl" r="2.190433937142651" cx="13.035473292313057" cy="25.722438930631853"></circle><circle class="pearl" r="2.190433937142651" cx="6.37156533768399" cy="6.254604719447224"></circle><circle class="pearl" r="2.190433937142651" cx="25.314129443733005" cy="18.566920299042764"></circle><circle class="pearl" r="2.190433937142651" cx="5.939520628090939" cy="22.623499938427038"></circle><circle class="pearl" r="2.190433937142651" cx="20.24073529626858" cy="4.717601797476096"></circle></g><g class="bobaCup bright" cupRadius="14.72445862932709" width="29.44891725865418" height="29.44891725865418" pearlRadius="2.7380424214283132" pearlCount="11" transform="translate(130.69317709643153,143.78082307796976)"><circle class="pool" r="14.72445862932709" cx="14.72445862932709" cy="14.72445862932709" style="stroke-width: 1; fill: rgb(29, 145, 192);"></circle><circle class="pearl" r="2.1904339371426507" cx="18.657647129156825" cy="14.965638796432323"></circle><circle class="pearl" r="2.1904339371426507" cx="11.042956016001899" cy="16.588973229508646"></circle><circle class="pearl" r="2.1904339371426507" cx="13.646144477391383" cy="8.974703285687779"></circle><circle class="pearl" r="2.1904339371426507" cx="20.766173077349467" cy="24.501593325805803"></circle><circle class="pearl" r="2.1904339371426507" cx="3.6878099993902316" cy="13.68004979334669"></circle><circle class="pearl" r="2.1904339371426507" cx="25.2118261030001" cy="10.610570781817863"></circle><circle class="pearl" r="2.1904339371426507" cx="13.054583951301662" cy="25.703198838847452"></circle><circle class="pearl" r="2.1904339371426507" cx="6.371296890587492" cy="6.249408856014052"></circle><circle class="pearl" r="2.1904339371426507" cx="25.29593860647366" cy="18.537412589452956"></circle><circle class="pearl" r="2.1904339371426507" cx="5.955412375820862" cy="22.633883889029978"></circle><circle class="pearl" r="2.1904339371426507" cx="20.20413177265346" cy="4.708329105011988"></circle></g><g class="bobaCup bright" cupRadius="14.362479791679041" width="28.724959583358082" height="28.724959583358082" pearlRadius="2.7380424214283132" pearlCount="10" transform="translate(227.68503252320738,236.57502723581746)"><circle class="pool" r="14.362479791679041" cx="14.362479791679041" cy="14.362479791679041" style="stroke-width: 1; fill: rgb(127, 205, 187);"></circle><circle class="pearl" r="2.1904339371426507" cx="17.91601262477708" cy="12.50374125532732"></circle><circle class="pearl" r="2.1904339371426507" cx="11.066388373017029" cy="16.305155508491517"></circle><circle class="pearl" r="2.1904339371426507" cx="14.593367020813753" cy="5.235699407261102"></circle><circle class="pearl" r="2.1904339371426507" cx="21.52469874550698" cy="23.160991295565072"></circle><circle class="pearl" r="2.1904339371426507" cx="3.689882128367933" cy="13.302619237379577"></circle><circle class="pearl" r="2.1904339371426507" cx="22.47048120475183" cy="6.1581982183954045"></circle><circle class="pearl" r="2.1904339371426507" cx="13.776719826199319" cy="25.06228655433929"></circle><circle class="pearl" r="2.1904339371426507" cx="6.630468949892386" cy="5.909615365803099"></circle><circle class="pearl" r="2.1904339371426507" cx="24.977941220216163" cy="16.0228415280724"></circle><circle class="pearl" r="2.1904339371426507" cx="6.249696079184225" cy="22.563489187524844"></circle></g><g class="bobaCup bright" cupRadius="14.207560919493112" width="28.415121838986224" height="28.415121838986224" pearlRadius="2.7380424214283132" pearlCount="10" transform="translate(154.46100298516183,275.371914306493)"><circle class="pool" r="14.207560919493112" cx="14.207560919493112" cy="14.207560919493112" style="stroke-width: 1; fill: rgb(127, 205, 187);"></circle><circle class="pearl" r="2.1904339371426507" cx="17.631366581453896" cy="12.20225728879003"></circle><circle class="pearl" r="2.1904339371426507" cx="11.085750674774964" cy="16.21010038778104"></circle><circle class="pearl" r="2.1904339371426507" cx="14.39720475522535" cy="4.852277172961509"></circle><circle class="pearl" r="2.1904339371426507" cx="21.47660926986673" cy="22.764037343628562"></circle><circle class="pearl" r="2.1904339371426507" cx="3.677494813267562" cy="13.335780486570915"></circle><circle class="pearl" r="2.1904339371426507" cx="22.145383596763462" cy="6.0750011409680615"></circle><circle class="pearl" r="2.1904339371426507" cx="13.756760700771204" cy="24.757244954233464"></circle><circle class="pearl" r="2.1904339371426507" cx="6.48918276699683" cy="5.9301063334868145"></circle><circle class="pearl" r="2.1904339371426507" cx="24.70052423821244" cy="15.553264502420657"></circle><circle class="pearl" r="2.1904339371426507" cx="6.262703910517241" cy="22.3353789583301"></circle></g><g class="bobaCup bright" cupRadius="14.113106408930541" width="28.226212817861082" height="28.226212817861082" pearlRadius="2.738042421428314" pearlCount="10" transform="translate(262.48404056440575,285.5931946975712)"><circle class="pool" r="14.113106408930541" cx="14.113106408930541" cy="14.113106408930541" style="stroke-width: 1; fill: rgb(65, 182, 196);"></circle><circle class="pearl" r="2.1904339371426516" cx="17.44596974005082" cy="12.009213558679384"></circle><circle class="pearl" r="2.1904339371426516" cx="11.10779432584514" cy="16.16667520379829"></circle><circle class="pearl" r="2.1904339371426516" cx="14.274745473444776" cy="4.593697619557325"></circle><circle class="pearl" r="2.1904339371426516" cx="21.44458836155211" cy="22.521783865641478"></circle><circle class="pearl" r="2.1904339371426516" cx="3.6707288218339955" cy="13.361919408760341"></circle><circle class="pearl" r="2.1904339371426516" cx="21.94725194918094" cy="6.024752324357673"></circle><circle class="pearl" r="2.1904339371426516" cx="13.740915997593433" cy="24.570581038608577"></circle><circle class="pearl" r="2.1904339371426516" cx="6.408674726254943" cy="5.9392152692957545"></circle><circle class="pearl" r="2.1904339371426516" cx="24.52857330251943" cy="15.262918548823617"></circle><circle class="pearl" r="2.1904339371426516" cx="6.271904804771525" cy="22.196748519513097"></circle></g><g class="bobaCup bright" cupRadius="13.95628461660235" width="27.9125692332047" height="27.9125692332047" pearlRadius="2.7380424214283137" pearlCount="10" transform="translate(122.06315596959365,71.34030677332817)"><circle class="pool" r="13.95628461660235" cx="13.95628461660235" cy="13.95628461660235" style="stroke-width: 1; fill: rgb(29, 145, 192);"></circle><circle class="pearl" r="2.190433937142651" cx="17.095312124048288" cy="11.647667508880694"></circle><circle class="pearl" r="2.190433937142651" cx="11.161367863302786" cy="16.12062872239687"></circle><circle class="pearl" r="2.190433937142651" cx="14.086576119817977" cy="4.138146574262412"></circle><circle class="pearl" r="2.190433937142651" cx="21.39123730455483" cy="22.11654605602231"></circle><circle class="pearl" r="2.190433937142651" cx="3.662179111175142" cy="13.390924661293376"></circle><circle class="pearl" r="2.190433937142651" cx="21.619413675474636" cy="5.942774765940213"></circle><circle class="pearl" r="2.190433937142651" cx="13.709980098523566" cy="24.259672408944972"></circle><circle class="pearl" r="2.190433937142651" cx="6.3084153380443215" cy="5.932763724130748"></circle><circle class="pearl" r="2.190433937142651" cx="24.238926692895074" cy="14.75579170276786"></circle><circle class="pearl" r="2.190433937142651" cx="6.288306844224248" cy="21.96660753243558"></circle></g><g class="bobaCup bright" cupRadius="13.883041724900716" width="27.76608344980143" height="27.76608344980143" pearlRadius="2.7380424214283137" pearlCount="10" transform="translate(91.23327478023585,128.7117724104813)"><circle class="pool" r="13.883041724900716" cx="13.883041724900716" cy="13.883041724900716" style="stroke-width: 1; fill: rgb(29, 145, 192);"></circle><circle class="pearl" r="2.190433937142651" cx="16.905629362760433" cy="11.454709560443"></circle><circle class="pearl" r="2.190433937142651" cx="11.197039354133635" cy="16.11364117535733"></circle><circle class="pearl" r="2.190433937142651" cx="14.00853550388374" cy="3.9157200836182406"></circle><circle class="pearl" r="2.190433937142651" cx="21.364569937671334" cy="21.927000327694326"></circle><circle class="pearl" r="2.190433937142651" cx="3.6592013956984246" cy="13.39792976190533"></circle><circle class="pearl" r="2.190433937142651" cx="21.467984495383668" cy="5.905889364877268"></circle><circle class="pearl" r="2.190433937142651" cx="13.69143865435726" cy="24.11403797911319"></circle><circle class="pearl" r="2.190433937142651" cx="6.278791399888253" cy="5.91850668988239"></circle><circle class="pearl" r="2.190433937142651" cx="24.10132984935204" cy="14.507038219337767"></circle><circle class="pearl" r="2.190433937142651" cx="6.295061130545271" cy="21.85821192586955"></circle></g><g class="bobaCup bright" cupRadius="13.811663305138424" width="27.623326610276848" height="27.623326610276848" pearlRadius="2.7380424214283137" pearlCount="10" transform="translate(241.88222874397076,270.4886179490209)"><circle class="pool" r="13.811663305138424" cx="13.811663305138424" cy="13.811663305138424" style="stroke-width: 1; fill: rgb(65, 182, 196);"></circle><circle class="pearl" r="2.190433937142651" cx="16.69863666213277" cy="11.246753957245549"></circle><circle class="pearl" r="2.190433937142651" cx="11.247427667012984" cy="16.12467467509767"></circle><circle class="pearl" r="2.190433937142651" cx="13.932899307131091" cy="3.7253532584878606"></circle><circle class="pearl" r="2.190433937142651" cx="21.33479509317838" cy="21.74388147132066"></circle><circle class="pearl" r="2.190433937142651" cx="3.656339963918054" cy="13.417808805028477"></circle><circle class="pearl" r="2.190433937142651" cx="21.322566469067734" cy="5.871511807590519"></circle><circle class="pearl" r="2.190433937142651" cx="13.667719675009108" cy="23.971853279026202"></circle><circle class="pearl" r="2.190433937142651" cx="6.247465664799853" cy="5.906221196003248"></circle><circle class="pearl" r="2.190433937142651" cx="23.96539294976478" cy="14.25789656944994"></circle><circle class="pearl" r="2.190433937142651" cx="6.299434303304505" cy="21.750955550177054"></circle></g><g class="bobaCup bright" cupRadius="13.655565467499445" width="27.31113093499889" height="27.31113093499889" pearlRadius="2.738042421428314" pearlCount="9" transform="translate(176.60662718050546,151.34782043317708)"><circle class="pool" r="13.655565467499445" cx="13.655565467499445" cy="13.655565467499445" style="stroke-width: 1; fill: rgb(65, 182, 196);"></circle><circle class="pearl" r="2.1904339371426516" cx="16.969585150264425" cy="11.956529714007804"></circle><circle class="pearl" r="2.1904339371426516" cx="10.60243100527623" cy="15.935545922428705"></circle><circle class="pearl" r="2.1904339371426516" cx="13.739099350767061" cy="3.6509787278746573"></circle><circle class="pearl" r="2.1904339371426516" cx="18.92073183081754" cy="22.60454427523648"></circle><circle class="pearl" r="2.1904339371426516" cx="3.6589804304848728" cy="13.180754619644485"></circle><circle class="pearl" r="2.1904339371426516" cx="21.13585740117461" cy="5.881766788167445"></circle><circle class="pearl" r="2.1904339371426516" cx="11.052188299636061" cy="23.409949308959952"></circle><circle class="pearl" r="2.1904339371426516" cx="6.140326475901469" cy="5.9047251569620105"></circle><circle class="pearl" r="2.1904339371426516" cx="23.415750394068485" cy="16.228892242621363"></circle></g><g class="bobaCup bright" cupRadius="13.595964788786677" width="27.191929577573354" height="27.191929577573354" pearlRadius="2.738042421428314" pearlCount="9" transform="translate(50.05571497828939,191.6734519703815)"><circle class="pool" r="13.595964788786677" cx="13.595964788786677" cy="13.595964788786677" style="stroke-width: 1; fill: rgb(65, 182, 196);"></circle><circle class="pearl" r="2.1904339371426516" cx="16.831680774174302" cy="11.83735185611639"></circle><circle class="pearl" r="2.1904339371426516" cx="10.567465231669972" cy="15.889539958765095"></circle><circle class="pearl" r="2.1904339371426516" cx="13.652351417819698" cy="3.6508401553819074"></circle><circle class="pearl" r="2.1904339371426516" cx="18.932590674279467" cy="22.450067936307963"></circle><circle class="pearl" r="2.1904339371426516" cx="3.6565497015420285" cy="13.197970950989845"></circle><circle class="pearl" r="2.1904339371426516" cx="21.017150090178536" cy="5.854749321054459"></circle><circle class="pearl" r="2.1904339371426516" cx="11.080377333562197" cy="23.30645700990595"></circle><circle class="pearl" r="2.1904339371426516" cx="6.075003589011843" cy="5.920373472484455"></circle><circle class="pearl" r="2.1904339371426516" cx="23.324175940568757" cy="16.01554603026861"></circle></g><g class="bobaCup bright" cupRadius="13.559302559529735" width="27.11860511905947" height="27.11860511905947" pearlRadius="2.7380424214283132" pearlCount="9" transform="translate(214.82934468551395,112.80986653355738)"><circle class="pool" r="13.559302559529735" cx="13.559302559529735" cy="13.559302559529735" style="stroke-width: 1; fill: rgb(65, 182, 196);"></circle><circle class="pearl" r="2.1904339371426507" cx="16.69683795759971" cy="11.744644588555984"></circle><circle class="pearl" r="2.1904339371426507" cx="10.517023214987619" cy="15.894969339458186"></circle><circle class="pearl" r="2.1904339371426507" cx="13.624782126509688" cy="3.6508813339998243"></circle><circle class="pearl" r="2.1904339371426507" cx="19.032996750118393" cy="22.313955496508232"></circle><circle class="pearl" r="2.1904339371426507" cx="3.6561227034111328" cy="13.176683856760214"></circle><circle class="pearl" r="2.1904339371426507" cx="20.952038736775542" cy="5.843313963016544"></circle><circle class="pearl" r="2.1904339371426507" cx="11.199190657838257" cy="23.260903387555086"></circle><circle class="pearl" r="2.1904339371426507" cx="6.068554458250705" cy="5.907664141787504"></circle><circle class="pearl" r="2.1904339371426507" cx="23.28400534193653" cy="15.784760922592481"></circle></g><g class="bobaCup bright" cupRadius="13.455235947764216" width="26.91047189552843" height="26.91047189552843" pearlRadius="2.738042421428314" pearlCount="9" transform="translate(198.36736517840586,286.5447640522358)"><circle class="pool" r="13.455235947764216" cx="13.455235947764216" cy="13.455235947764216" style="stroke-width: 1; fill: rgb(65, 182, 196);"></circle><circle class="pearl" r="2.1904339371426516" cx="15.984895232435143" cy="11.363532636698489"></circle><circle class="pearl" r="2.1904339371426516" cx="10.243953892635924" cy="16.22161668114725"></circle><circle class="pearl" r="2.1904339371426516" cx="13.568098661674219" cy="3.6511965839364575"></circle><circle class="pearl" r="2.1904339371426516" cx="20.05164821538917" cy="21.53186193397877"></circle><circle class="pearl" r="2.1904339371426516" cx="3.6548990741850713" cy="13.120039679365153"></circle><circle class="pearl" r="2.1904339371426516" cx="20.81465008062137" cy="5.841750458848361"></circle><circle class="pearl" r="2.1904339371426516" cx="12.37435193582495" cy="23.216263692229443"></circle><circle class="pearl" r="2.1904339371426516" cx="6.054635295642894" cy="5.868767160630139"></circle><circle class="pearl" r="2.1904339371426516" cx="23.22768090008899" cy="14.383638014431071"></circle></g><g class="bobaCup bright" cupRadius="13.436375998848145" width="26.87275199769629" height="26.87275199769629" pearlRadius="2.7380424214283137" pearlCount="9" transform="translate(80.28554920680126,244.29204392753954)"><circle class="pool" r="13.436375998848145" cx="13.436375998848145" cy="13.436375998848145" style="stroke-width: 1; fill: rgb(65, 182, 196);"></circle><circle class="pearl" r="2.190433937142651" cx="15.827323725631441" cy="11.291763396094494"></circle><circle class="pearl" r="2.190433937142651" cx="10.190409341944905" cy="16.32650130965202"></circle><circle class="pearl" r="2.190433937142651" cx="13.556823723250412" cy="3.651263104270482"></circle><circle class="pearl" r="2.190433937142651" cx="20.321231445942807" cy="21.324065375788855"></circle><circle class="pearl" r="2.190433937142651" cx="3.6544489393691126" cy="13.119980326675522"></circle><circle class="pearl" r="2.190433937142651" cx="20.79708686106087" cy="5.846274720946134"></circle><circle class="pearl" r="2.190433937142651" cx="12.692363449361846" cy="23.20141384852489"></circle><circle class="pearl" r="2.190433937142651" cx="6.050504159948808" cy="5.8627909119025805"></circle><circle class="pearl" r="2.190433937142651" cx="23.20806886694879" cy="14.048704432150249"></circle></g><g class="bobaCup bright" cupRadius="13.18584571893108" width="26.37169143786216" height="26.37169143786216" pearlRadius="2.738042421428314" pearlCount="9" transform="translate(34.141560867126486,138.30551184505686)"><circle class="pool" r="13.18584571893108" cx="13.18584571893108" cy="13.18584571893108" style="stroke-width: 1; fill: rgb(29, 145, 192);"></circle><circle class="pearl" r="2.1904339371426516" cx="15.165375637283862" cy="11.209106471920505"></circle><circle class="pearl" r="2.1904339371426516" cx="9.76047534726575" cy="16.601774710199926"></circle><circle class="pearl" r="2.1904339371426516" cx="13.250329876027758" cy="3.6508809064124397"></circle><circle class="pearl" r="2.1904339371426516" cx="20.454456231495318" cy="20.53666004381559"></circle><circle class="pearl" r="2.1904339371426516" cx="3.651435299849633" cy="13.048812814144942"></circle><circle class="pearl" r="2.1904339371426516" cx="20.34209758963542" cy="5.761615833087019"></circle><circle class="pearl" r="2.1904339371426516" cx="13.291781643165397" cy="22.72054265444312"></circle><circle class="pearl" r="2.1904339371426516" cx="5.9982354668371265" cy="5.781941582120417"></circle><circle class="pearl" r="2.1904339371426516" cx="22.720965499392804" cy="13.177392045545762"></circle></g><g class="bobaCup bright" cupRadius="12.992187111709876" width="25.984374223419753" height="25.984374223419753" pearlRadius="2.7380424214283137" pearlCount="8" transform="translate(126.41760319536934,7.007812888290124)"><circle class="pool" r="12.992187111709876" cx="12.992187111709876" cy="12.992187111709876" style="stroke-width: 1; fill: rgb(65, 182, 196);"></circle><circle class="pearl" r="2.190433937142651" cx="19.555059372660267" cy="12.987614917525693"></circle><circle class="pearl" r="2.190433937142651" cx="11.72686268945597" cy="14.321339123209572"></circle><circle class="pearl" r="2.190433937142651" cx="12.195963597690959" cy="3.675144377656421"></circle><circle class="pearl" r="2.190433937142651" cx="19.94068351593194" cy="20.319411034869542"></circle><circle class="pearl" r="2.190433937142651" cx="3.8085971172281123" cy="15.011427077204567"></circle><circle class="pearl" r="2.190433937142651" cx="19.94141640632439" cy="5.6654271061078525"></circle><circle class="pearl" r="2.190433937142651" cx="12.117199404795088" cy="22.304153513706524"></circle><circle class="pearl" r="2.190433937142651" cx="5.05576170780412" cy="7.115545850362516"></circle></g><g class="bobaCup bright" cupRadius="12.974856360024631" width="25.949712720049263" height="25.949712720049263" pearlRadius="2.7380424214283137" pearlCount="8" transform="translate(232.77236435806364,141.5039006404311)"><circle class="pool" r="12.974856360024631" cx="12.974856360024631" cy="12.974856360024631" style="stroke-width: 1; fill: rgb(65, 182, 196);"></circle><circle class="pearl" r="2.190433937142651" cx="19.570640491073924" cy="12.971380686186931"></circle><circle class="pearl" r="2.190433937142651" cx="11.73286889125737" cy="14.281580966884528"></circle><circle class="pearl" r="2.190433937142651" cx="12.15910060220953" cy="3.676392737412236"></circle><circle class="pearl" r="2.190433937142651" cx="19.90624866430188" cy="20.29239180306946"></circle><circle class="pearl" r="2.190433937142651" cx="3.816984938634233" cy="15.045315404838044"></circle><circle class="pearl" r="2.190433937142651" cx="19.90769498161819" cy="5.658235050823031"></circle><circle class="pearl" r="2.190433937142651" cx="12.076091747872047" cy="22.26782347598875"></circle><circle class="pearl" r="2.190433937142651" cx="5.03491111743711" cy="7.143621331751336"></circle></g><g class="bobaCup bright" cupRadius="12.855134241219561" width="25.710268482439123" height="25.710268482439123" pearlRadius="2.7380424214283137" pearlCount="8" transform="translate(200.1879695716576,59.137091291779626)"><circle class="pool" r="12.855134241219561" cx="12.855134241219561" cy="12.855134241219561" style="stroke-width: 1; fill: rgb(29, 145, 192);"></circle><circle class="pearl" r="2.190433937142651" cx="14.505580434957638" cy="12.727613306914058"></circle><circle class="pearl" r="2.190433937142651" cx="7.8929212637151025" cy="19.148127657555236"></circle><circle class="pearl" r="2.190433937142651" cx="14.850458428184183" cy="3.8065205678618845"></circle><circle class="pearl" r="2.190433937142651" cx="21.50420620576395" cy="16.592715620559567"></circle><circle class="pearl" r="2.190433937142651" cx="3.6600362695430277" cy="12.365896005750907"></circle><circle class="pearl" r="2.190433937142651" cx="21.30706222903147" cy="8.521508750437167"></circle><circle class="pearl" r="2.190433937142651" cx="15.435907295902371" cy="21.79782543448018"></circle><circle class="pearl" r="2.190433937142651" cx="6.958061989231747" cy="5.083116327025877"></circle></g><g class="bobaCup bright" cupRadius="11.999040930749835" width="23.99808186149967" height="23.99808186149967" pearlRadius="2.7380424214283137" pearlCount="7" transform="translate(118.60651213561519,24.16934646504044)"><circle class="pool" r="11.999040930749835" cx="11.999040930749835" cy="11.999040930749835" style="stroke-width: 1; fill: rgb(29, 145, 192);"></circle><circle class="pearl" r="2.190433937142651" cx="13.240270780469892" cy="12.330293654371195"></circle><circle class="pearl" r="2.190433937142651" cx="4.946629333799371" cy="14.862982047667968"></circle><circle class="pearl" r="2.190433937142651" cx="12.121306670165566" cy="3.6513461658196515"></circle><circle class="pearl" r="2.190433937142651" cx="18.561410284448375" cy="18.297431452446556"></circle><circle class="pearl" r="2.190433937142651" cx="4.802551678069147" cy="6.869229565369464"></circle><circle class="pearl" r="2.190433937142651" cx="19.31731503657773" cy="7.135083618462038"></circle><circle class="pearl" r="2.190433937142651" cx="10.818403354278386" cy="20.28913334311524"></circle></g><g class="bobaCup bright" cupRadius="11.896879216217407" width="23.793758432434814" height="23.793758432434814" pearlRadius="2.738042421428314" pearlCount="7" transform="translate(153.04503106246963,285.76843646245857)"><circle class="pool" r="11.896879216217407" cx="11.896879216217407" cy="11.896879216217407" style="stroke-width: 1; fill: rgb(29, 145, 192);"></circle><circle class="pearl" r="2.1904339371426516" cx="12.95373397284931" cy="12.243669529244324"></circle><circle class="pearl" r="2.1904339371426516" cx="4.57082407887167" cy="14.889425618744028"></circle><circle class="pearl" r="2.1904339371426516" cx="12.059664764000255" cy="3.6518369817886964"></circle><circle class="pearl" r="2.1904339371426516" cx="18.399518230114662" cy="18.097280030558682"></circle><circle class="pearl" r="2.1904339371426516" cx="4.752640263077929" cy="6.89642657863504"></circle><circle class="pearl" r="2.1904339371426516" cx="19.198539228303108" cy="7.251339803506967"></circle><circle class="pearl" r="2.1904339371426516" cx="10.653657391280525" cy="20.077898656385628"></circle></g><g class="bobaCup bright" cupRadius="11.788808353688315" width="23.57761670737663" height="23.57761670737663" pearlRadius="2.738042421428314" pearlCount="7" transform="translate(279.6500614400898,170.2328341910261)"><circle class="pool" r="11.788808353688315" cx="11.788808353688315" cy="11.788808353688315" style="stroke-width: 1; fill: rgb(127, 205, 187);"></circle><circle class="pearl" r="2.1904339371426516" cx="12.658945308937701" cy="12.150023154767702"></circle><circle class="pearl" r="2.1904339371426516" cx="4.189729162203185" cy="14.911717034773867"></circle><circle class="pearl" r="2.1904339371426516" cx="11.988404988079273" cy="3.6524130376985107"></circle><circle class="pearl" r="2.1904339371426516" cx="18.225038422162317" cy="17.89039630955871"></circle><circle class="pearl" r="2.1904339371426516" cx="4.6973290778582175" cy="6.93277213528669"></circle><circle class="pearl" r="2.1904339371426516" cx="19.067033459172432" cy="7.369069593134312"></circle><circle class="pearl" r="2.1904339371426516" cx="10.474695083299663" cy="19.853421599695324"></circle></g><g class="bobaCup bright" cupRadius="11.640238280842572" width="23.280476561685145" height="23.280476561685145" pearlRadius="2.738042421428314" pearlCount="7" transform="translate(259.7781257806959,31.041331013171543)"><circle class="pool" r="11.640238280842572" cx="11.640238280842572" cy="11.640238280842572" style="stroke-width: 1; fill: rgb(65, 182, 196);"></circle><circle class="pearl" r="2.1904339371426516" cx="12.030031743805301" cy="11.734949001659235"></circle><circle class="pearl" r="2.1904339371426516" cx="4.0659495193233575" cy="14.721512864050284"></circle><circle class="pearl" r="2.1904339371426516" cx="12.09500387447607" cy="3.659610105142527"></circle><circle class="pearl" r="2.1904339371426516" cx="18.113965394034516" cy="17.38398727535542"></circle><circle class="pearl" r="2.1904339371426516" cx="4.725721798446454" cy="6.75445716779683"></circle><circle class="pearl" r="2.1904339371426516" cx="18.960907162717906" cy="7.7513178144885755"></circle><circle class="pearl" r="2.1904339371426516" cx="10.423411452639574" cy="19.56597736616334"></circle></g><g class="bobaCup bright" cupRadius="11.559570045691354" width="23.119140091382707" height="23.119140091382707" pearlRadius="2.7380424214283137" pearlCount="7" transform="translate(205.35166992694744,263.70880615232716)"><circle class="pool" r="11.559570045691354" cx="11.559570045691354" cy="11.559570045691354" style="stroke-width: 1; fill: rgb(127, 205, 187);"></circle><circle class="pearl" r="2.190433937142651" cx="11.786994419894935" cy="11.598305415497181"></circle><circle class="pearl" r="2.190433937142651" cx="4.045775934752026" cy="14.55576967472413"></circle><circle class="pearl" r="2.190433937142651" cx="12.184515207913382" cy="3.6676287991310534"></circle><circle class="pearl" r="2.190433937142651" cx="18.03546324888335" cy="17.13409238264461"></circle><circle class="pearl" r="2.190433937142651" cx="4.770133333623997" cy="6.59703842814642"></circle><circle class="pearl" r="2.190433937142651" cx="18.892257582349476" cy="7.955635029144586"></circle><circle class="pearl" r="2.190433937142651" cx="10.361563242551961" cy="19.406169955176214"></circle></g><g class="bobaCup bright" cupRadius="11.483337922711065" width="22.96667584542213" height="22.96667584542213" pearlRadius="2.7380424214283137" pearlCount="7" transform="translate(145.4071021082586,268.41725995206826)"><circle class="pool" r="11.483337922711065" cx="11.483337922711065" cy="11.483337922711065" style="stroke-width: 1; fill: rgb(65, 182, 196);"></circle><circle class="pearl" r="2.190433937142651" cx="11.577233587604544" cy="11.508450227703047"></circle><circle class="pearl" r="2.190433937142651" cx="4.00859639214926" cy="14.32782095842533"></circle><circle class="pearl" r="2.190433937142651" cx="12.322174741367096" cy="3.6814019561938274"></circle><circle class="pearl" r="2.190433937142651" cx="17.943134830927125" cy="16.928008014718085"></circle><circle class="pearl" r="2.190433937142651" cx="4.845531008328431" cy="6.383024467176513"></circle><circle class="pearl" r="2.190433937142651" cx="18.834294085226436" cy="8.19242613068174"></circle><circle class="pearl" r="2.190433937142651" cx="10.216961137165319" cy="19.245911311866383"></circle></g><g class="bobaCup bright" cupRadius="11.229289264074456" width="22.458578528148912" height="22.458578528148912" pearlRadius="2.738042421428314" pearlCount="6" transform="translate(97.92711003323254,36.716323004388926)"><circle class="pool" r="11.229289264074456" cx="11.229289264074456" cy="11.229289264074456" style="stroke-width: 1; fill: rgb(29, 145, 192);"></circle><circle class="pearl" r="2.1904339371426516" cx="11.54168255813352" cy="11.453071258981899"></circle><circle class="pearl" r="2.1904339371426516" cx="6.134777109026522" cy="17.352954801052967"></circle><circle class="pearl" r="2.1904339371426516" cx="9.13946631887981" cy="3.846899720902663"></circle><circle class="pearl" r="2.1904339371426516" cx="17.12578425526306" cy="17.135149326363422"></circle><circle class="pearl" r="2.1904339371426516" cx="3.7516698811588527" cy="9.726981673190526"></circle><circle class="pearl" r="2.1904339371426516" cx="17.130413854533053" cy="5.3262872535493955"></circle></g><g class="bobaCup bright" cupRadius="11.170067568287323" width="22.340135136574645" height="22.340135136574645" pearlRadius="2.7380424214283132" pearlCount="6" transform="translate(241.35559647192304,106.89408012118611)"><circle class="pool" r="11.170067568287323" cx="11.170067568287323" cy="11.170067568287323" style="stroke-width: 1; fill: rgb(65, 182, 196);"></circle><circle class="pearl" r="2.1904339371426507" cx="11.518284316956713" cy="11.372599567772014"></circle><circle class="pearl" r="2.1904339371426507" cx="6.157251549852827" cy="17.4196317872624"></circle><circle class="pearl" r="2.1904339371426507" cx="8.961554073275938" cy="3.8712301836439726"></circle><circle class="pearl" r="2.1904339371426507" cx="17.008207219027085" cy="17.04229214481128"></circle><circle class="pearl" r="2.1904339371426507" cx="3.732362485136677" cy="9.822044179798738"></circle><circle class="pearl" r="2.1904339371426507" cx="17.02940289612445" cy="5.310955371564066"></circle></g><g class="bobaCup bright" cupRadius="10.514851117137772" width="21.029702234275543" height="21.029702234275543" pearlRadius="2.7380424214283132" pearlCount="6" transform="translate(203.2157455091579,69.25283475278484)"><circle class="pool" r="10.514851117137772" cx="10.514851117137772" cy="10.514851117137772" style="stroke-width: 1; fill: rgb(65, 182, 196);"></circle><circle class="pearl" r="2.1904339371426507" cx="10.871219019680362" cy="10.814941343429645"></circle><circle class="pearl" r="2.1904339371426507" cx="5.298059088677278" cy="15.993595285264288"></circle><circle class="pearl" r="2.1904339371426507" cx="8.609987994659168" cy="3.8247044354839668"></circle><circle class="pearl" r="2.1904339371426507" cx="15.7161148670165" cy="16.00245100715748"></circle><circle class="pearl" r="2.1904339371426507" cx="3.7873401195107173" cy="8.825369432791064"></circle><circle class="pearl" r="2.1904339371426507" cx="15.842689071376594" cy="5.1004633839530245"></circle></g><g class="bobaCup bright" cupRadius="10.402433514718481" width="20.804867029436963" height="20.804867029436963" pearlRadius="2.738042421428314" pearlCount="5" transform="translate(128.26307849750202,199.77389027729998)"><circle class="pool" r="10.402433514718481" cx="10.402433514718481" cy="10.402433514718481" style="stroke-width: 1; fill: rgb(65, 182, 196);"></circle><circle class="pearl" r="2.1904339371426516" cx="16.608057705933255" cy="8.022102437952809"></circle><circle class="pearl" r="2.1904339371426516" cx="7.333095553992438" cy="15.954802658070756"></circle><circle class="pearl" r="2.1904339371426516" cx="9.906129802507017" cy="3.6625693848490717"></circle><circle class="pearl" r="2.1904339371426516" cx="15.328075617833239" cy="15.914061125324071"></circle><circle class="pearl" r="2.1904339371426516" cx="3.775706798782608" cy="8.794750191954883"></circle></g><g class="bobaCup bright" cupRadius="10.276387766996875" width="20.55277553399375" height="20.55277553399375" pearlRadius="2.7380424214283137" pearlCount="5" transform="translate(279.3063324578854,256.0473569477578)"><circle class="pool" r="10.276387766996875" cx="10.276387766996875" cy="10.276387766996875" style="stroke-width: 1; fill: rgb(127, 205, 187);"></circle><circle class="pearl" r="2.190433937142651" cx="16.59939922733604" cy="7.800754132366878"></circle><circle class="pearl" r="2.190433937142651" cx="7.183128262704414" cy="16.13988822308736"></circle><circle class="pearl" r="2.190433937142651" cx="9.759242577871234" cy="3.663743790257257"></circle><circle class="pearl" r="2.190433937142651" cx="15.164100656582539" cy="15.665266755706217"></circle><circle class="pearl" r="2.190433937142651" cx="3.7400257585500096" cy="8.924559408286372"></circle></g><g class="bobaCup bright" cupRadius="9.939662369501272" width="19.879324739002545" height="19.879324739002545" pearlRadius="2.7380424214283146" pearlCount="5" transform="translate(131.67213123959826,51.222096599878505)"><circle class="pool" r="9.939662369501272" cx="9.939662369501272" cy="9.939662369501272" style="stroke-width: 1; fill: rgb(65, 182, 196);"></circle><circle class="pearl" r="2.1904339371426516" cx="15.83251339036682" cy="7.1616993450587785"></circle><circle class="pearl" r="2.1904339371426516" cx="7.06103928035994" cy="15.802635432611044"></circle><circle class="pearl" r="2.1904339371426516" cx="9.092051450391075" cy="3.6869294463299367"></circle><circle class="pearl" r="2.1904339371426516" cx="14.86356573826314" cy="14.923292830395031"></circle><circle class="pearl" r="2.1904339371426516" cx="3.695681547824859" cy="8.99535321583633"></circle></g><g class="bobaCup bright" cupRadius="9.584655493374047" width="19.169310986748094" height="19.169310986748094" pearlRadius="2.7380424214283137" pearlCount="5" transform="translate(78.45395612988642,168.04502180231108)"><circle class="pool" r="9.584655493374047" cx="9.584655493374047" cy="9.584655493374047" style="stroke-width: 1; fill: rgb(29, 145, 192);"></circle><circle class="pearl" r="2.190433937142651" cx="15.10967178293927" cy="6.8149217115861624"></circle><circle class="pearl" r="2.190433937142651" cx="6.521242557996527" cy="15.01584407421991"></circle><circle class="pearl" r="2.190433937142651" cx="8.82320197073621" cy="3.68101796574968"></circle><circle class="pearl" r="2.190433937142651" cx="14.195119248439863" cy="14.336862996987403"></circle><circle class="pearl" r="2.190433937142651" cx="3.7127763717803433" cy="8.495772851717312"></circle></g><g class="bobaCup bright" cupRadius="9.421991463802042" width="18.843982927604085" height="18.843982927604085" pearlRadius="2.7380424214283132" pearlCount="4" transform="translate(112.55113167816216,38.40455206267266)"><circle class="pool" r="9.421991463802042" cx="9.421991463802042" cy="9.421991463802042" style="stroke-width: 1; fill: rgb(127, 205, 187);"></circle><circle class="pearl" r="2.1904339371426507" cx="14.72238797713997" cy="6.480668885442897"></circle><circle class="pearl" r="2.1904339371426507" cx="5.581173493726266" cy="12.326797170587065"></circle><circle class="pearl" r="2.1904339371426507" cx="7.145097558336591" cy="3.9299756450628047"></circle><circle class="pearl" r="2.1904339371426507" cx="13.315758326007945" cy="14.35104112073007"></circle></g><g class="bobaCup bright" cupRadius="9.274028216521554" width="18.548056433043108" height="18.548056433043108" pearlRadius="2.7380424214283137" pearlCount="4" transform="translate(82.97704506229127,84.53727475443716)"><circle class="pool" r="9.274028216521554" cx="9.274028216521554" cy="9.274028216521554" style="stroke-width: 1; fill: rgb(127, 205, 187);"></circle><circle class="pearl" r="2.190433937142651" cx="14.36694456038288" cy="6.18269090263426"></circle><circle class="pearl" r="2.190433937142651" cx="5.341913947211718" cy="12.108111897106497"></circle><circle class="pearl" r="2.190433937142651" cx="6.6687493804686495" cy="4.024182837006256"></circle><circle class="pearl" r="2.190433937142651" cx="13.091197661826227" cy="14.075335323122626"></circle></g><g class="bobaCup bright" cupRadius="8.774202323532851" width="17.548404647065702" height="17.548404647065702" pearlRadius="2.7380424214283137" pearlCount="4" transform="translate(97.81808752531002,283.34813881714916)"><circle class="pool" r="8.774202323532851" cx="8.774202323532851" cy="8.774202323532851" style="stroke-width: 1; fill: rgb(127, 205, 187);"></circle><circle class="pearl" r="2.190433937142651" cx="13.115556260624672" cy="5.152969247303309"></circle><circle class="pearl" r="2.190433937142651" cx="4.432848386441031" cy="12.395435399762393"></circle><circle class="pearl" r="2.190433937142651" cx="5.152969247303309" cy="4.432848386441031"></circle><circle class="pearl" r="2.190433937142651" cx="12.395435399762391" cy="13.115556260624672"></circle></g><g class="bobaCup bright" cupRadius="8.350168362498827" width="16.700336724997655" height="16.700336724997655" pearlRadius="2.7380424214283137" pearlCount="3" transform="translate(311.64983163750117,181.3568742361468)"><circle class="pool" r="8.350168362498827" cx="8.350168362498827" cy="8.350168362498827" style="stroke-width: 1; fill: rgb(29, 145, 192);"></circle><circle class="pearl" r="2.190433937142651" cx="12.61211615570616" cy="9.959421022338615"></circle><circle class="pearl" r="2.190433937142651" cx="4.603532579334933" cy="11.311983150826883"></circle><circle class="pearl" r="2.190433937142651" cx="7.664748524940632" cy="3.6789019654840907"></circle></g><g class="bobaCup bright" cupRadius="6.225981294914389" width="12.451962589828778" height="12.451962589828778" pearlRadius="2.7380424214283137" pearlCount="2" transform="translate(38.04156640454432,283.055567304741)"><circle class="pool" r="6.225981294914389" cx="6.225981294914389" cy="6.225981294914389" style="stroke-width: 1; fill: rgb(29, 145, 192);"></circle><circle class="pearl" r="2.190433937142651" cx="8.250597860611261" cy="3.989109866367029"></circle><circle class="pearl" r="2.190433937142651" cx="4.201364729217517" cy="8.462852723461749"></circle></g><g class="bobaCup bright" cupRadius="5.980375864796161" width="11.960751729592323" height="11.960751729592323" pearlRadius="2.7380424214283137" pearlCount="2" transform="translate(240.5692622028184,213.07676648702935)"><circle class="pool" r="5.980375864796161" cx="5.980375864796161" cy="5.980375864796161" style="stroke-width: 1; fill: rgb(65, 182, 196);"></circle><circle class="pearl" r="2.190433937142651" cx="7.83761179355059" cy="3.9464205457992216"></circle><circle class="pearl" r="2.190433937142651" cx="4.123139936041732" cy="8.0143311837931"></circle></g><g class="bobaCup bright" cupRadius="5.7845958300061815" width="11.569191660012363" height="11.569191660012363" pearlRadius="2.7380424214283132" pearlCount="2" transform="translate(89.55215219175494,52.56976122136365)"><circle class="pool" r="5.7845958300061815" cx="5.7845958300061815" cy="5.7845958300061815" style="stroke-width: 1; fill: rgb(65, 182, 196);"></circle><circle class="pearl" r="2.1904339371426507" cx="7.510501344185475" cy="3.9141960684012256"></circle><circle class="pearl" r="2.1904339371426507" cx="4.058690315826887" cy="7.654995591611137"></circle></g><g class="bobaCup bright" cupRadius="5.296630864680783" width="10.593261729361567" height="10.593261729361567" pearlRadius="2.7380424214283137" pearlCount="1" transform="translate(259.4104130883499,93.63649810587779)"><circle class="pool" r="5.296630864680783" cx="5.296630864680783" cy="5.296630864680783" style="stroke-width: 1; fill: rgb(65, 182, 196);"></circle><circle class="pearl" r="2.190433937142651" cx="6.941353808762013" cy="5.296630864680783"></circle></g><g class="bobaCup bright" cupRadius="0" width="0" height="0" pearlRadius="NaN" pearlCount="0" transform="translate(20,300)"><circle class="pool" r="0" cx="0" cy="0" style="stroke-width: 1; fill: rgb(65, 182, 196);"></circle></g><g class="bobaCup bright" cupRadius="0" width="0" height="0" pearlRadius="NaN" pearlCount="0" transform="translate(268.7152185981031,109.2171369944671)"><circle class="pool" r="0" cx="0" cy="0" style="stroke-width: 1; fill: rgb(29, 145, 192);"></circle></g></g><g id="legendDividerGroup" transform="translate(410,0)" height="400"><rect class="legendDivider" height="400" width="90"></rect></g><g id="legend" transform="translate(410,30)" width="90" height="320"><rect class="legendBorder" transform="translate(0,0)" width="90" height="324.9477195110013"></rect><text id="rTitle" text-anchor="middle" alignment-baseline="hanging" transform="translate(45,10)" x="0" y="0" style="fill: black; font-size: 0.8rem;">Population</text><text id="bobaValue" text-anchor="middle" alignment-baseline="hanging" transform="translate(45,25)" x="0" y="0" style="fill: black; font-size: 0.7rem;">(1 Pearl =   75)</text><g class="bright" cupRadius="8.94427190999916" width="17.88854381999832" height="17.88854381999832" pearlRadius="2.7380424214283137" pearlCount="4" transform="translate(36.05572809000084,50)"><circle class="pool" r="8.94427190999916" cx="8.94427190999916" cy="8.94427190999916" style="stroke-width: 1; fill: rgb(29, 145, 192);"></circle><circle class="pearl" r="2.190433937142651" cx="13.542613460651712" cy="5.486970900805415"></circle><circle class="pearl" r="2.190433937142651" cx="4.749399498236599" cy="12.229516637519533"></circle><circle class="pearl" r="2.190433937142651" cx="5.6385452023940825" cy="4.284028231246733"></circle><circle class="pearl" r="2.190433937142651" cx="12.653467756495177" cy="13.432459307079196"></circle></g><text id="0" class="legendSampleValue" text-anchor="middle" transform="translate(45,8)" x="0" y="72.88854381999832" style="fill: black; font-size: 0.7rem;"> 300</text><g class="bright" cupRadius="12.649110640673518" width="25.298221281347036" height="25.298221281347036" pearlRadius="2.7380424214283137" pearlCount="8" transform="translate(32.35088935932648,92.88854381999832)"><circle class="pool" r="12.649110640673518" cx="12.649110640673518" cy="12.649110640673518" style="stroke-width: 1; fill: rgb(29, 145, 192);"></circle><circle class="pearl" r="2.190433937142651" cx="14.071403428550026" cy="12.846878791771143"></circle><circle class="pearl" r="2.190433937142651" cx="6.440581911774749" cy="19.57795138257092"></circle><circle class="pearl" r="2.190433937142651" cx="15.10273708455154" cy="3.8909774644866477"></circle><circle class="pearl" r="2.190433937142651" cx="20.833946229646862" cy="17.112242666106596"></circle><circle class="pearl" r="2.190433937142651" cx="3.6634707295578792" cy="12.081372495075817"></circle><circle class="pearl" r="2.190433937142651" cx="21.1462151053254" cy="9.123450087562194"></circle><circle class="pearl" r="2.190433937142651" cx="14.187116834584868" cy="21.553646746241665"></circle><circle class="pearl" r="2.190433937142651" cx="7.171845845081948" cy="4.898098459274186"></circle></g><text id="1" class="legendSampleValue" text-anchor="middle" transform="translate(45,8)" x="0" y="123.18676510134536" style="fill: black; font-size: 0.7rem;"> 600</text><g class="bright" cupRadius="15.491933384829668" width="30.983866769659336" height="30.983866769659336" pearlRadius="2.738042421428314" pearlCount="12" transform="translate(29.508066615170332,143.18676510134537)"><circle class="pool" r="15.491933384829668" cx="15.491933384829668" cy="15.491933384829668" style="stroke-width: 1; fill: rgb(29, 145, 192);"></circle><circle class="pearl" r="2.1904339371426516" cx="17.033011743384765" cy="11.01737610913958"></circle><circle class="pearl" r="2.1904339371426516" cx="11.029309432951333" cy="17.00347040031935"></circle><circle class="pearl" r="2.1904339371426516" cx="13.977981653444434" cy="3.724876288236054"></circle><circle class="pearl" r="2.1904339371426516" cx="18.741808845067855" cy="18.756462357333643"></circle><circle class="pearl" r="2.1904339371426516" cx="3.725529689195627" cy="13.971342248807428"></circle><circle class="pearl" r="2.1904339371426516" cx="26.98661348100194" cy="12.233596672509572"></circle><circle class="pearl" r="2.1904339371426516" cx="12.152198575888569" cy="26.968872613027877"></circle><circle class="pearl" r="2.1904339371426516" cx="6.524197378590721" cy="6.5101702816287865"></circle><circle class="pearl" r="2.1904339371426516" cx="26.508263068801252" cy="20.479674242239334"></circle><circle class="pearl" r="2.1904339371426516" cx="5.419021306595209" cy="22.679550094546478"></circle><circle class="pearl" r="2.1904339371426516" cx="22.76079804957651" cy="5.461881544509561"></circle><circle class="pearl" r="2.1904339371426516" cx="20.400071923945557" cy="26.535092423407907"></circle></g><text id="2" class="legendSampleValue" text-anchor="middle" transform="translate(45,8)" x="0" y="179.1706318710047" style="fill: black; font-size: 0.7rem;"> 900</text><g class="bright" cupRadius="17.88854381999832" width="35.77708763999664" height="35.77708763999664" pearlRadius="2.7380424214283137" pearlCount="16" transform="translate(27.11145618000168,199.1706318710047)"><circle class="pool" r="17.88854381999832" cx="17.88854381999832" cy="17.88854381999832" style="stroke-width: 1; fill: rgb(29, 145, 192);"></circle><circle class="pearl" r="2.190433937142651" cx="19.8046930625516" cy="19.706925044831756"></circle><circle class="pearl" r="2.190433937142651" cx="13.339172784724305" cy="23.858410298028698"></circle><circle class="pearl" r="2.190433937142651" cx="16.092791630714295" cy="11.113543243945612"></circle><circle class="pearl" r="2.190433937142651" cx="20.836129534048155" cy="27.499380517199565"></circle><circle class="pearl" r="2.190433937142651" cx="10.312657514553905" cy="16.56124087753138"></circle><circle class="pearl" r="2.190433937142651" cx="23.678755837700653" cy="13.13675787817294"></circle><circle class="pearl" r="2.190433937142651" cx="14.311679794483911" cy="31.765114841909277"></circle><circle class="pearl" r="2.190433937142651" cx="11.081450997216843" cy="4.99648955196875"></circle><circle class="pearl" r="2.190433937142651" cx="27.674351504393126" cy="20.796258814455655"></circle><circle class="pearl" r="2.190433937142651" cx="4.000488629236898" cy="21.40866477780026"></circle><circle class="pearl" r="2.190433937142651" cx="28.333596734388347" cy="7.01684061165493"></circle><circle class="pearl" r="2.190433937142651" cx="28.522531366621063" cy="28.62247591779055"></circle><circle class="pearl" r="2.190433937142651" cx="5.30391541992303" cy="10.377661215789304"></circle><circle class="pearl" r="2.190433937142651" cx="31.694235049536697" cy="13.980399213320233"></circle><circle class="pearl" r="2.190433937142651" cx="7.311073872078207" cy="28.66408585659018"></circle><circle class="pearl" r="2.190433937142651" cx="18.987039995684725" cy="3.684483203560177"></circle></g><text id="3" class="legendSampleValue" text-anchor="middle" transform="translate(45,8)" x="0" y="239.94771951100134" style="fill: black; font-size: 0.7rem;">1.2k</text><g class="bright" cupRadius="20" width="40" height="40" pearlRadius="2.7380424214283137" pearlCount="20" transform="translate(25,259.9477195110013)"><circle class="pool" r="20" cx="20" cy="20" style="stroke-width: 1; fill: rgb(29, 145, 192);"></circle><circle class="pearl" r="2.190433937142651" cx="22.480421380823074" cy="19.96094551607325"></circle><circle class="pearl" r="2.190433937142651" cx="14.554532211889109" cy="20.25858246523202"></circle><circle class="pearl" r="2.190433937142651" cx="21.718613402750453" cy="11.231225788085391"></circle><circle class="pearl" r="2.190433937142651" cx="25.13767186853209" cy="27.447308990534317"></circle><circle class="pearl" r="2.190433937142651" cx="6.622341466842937" cy="15.212813608895589"></circle><circle class="pearl" r="2.190433937142651" cx="28.49521909515808" cy="14.82158787688231"></circle><circle class="pearl" r="2.190433937142651" cx="17.504603283401977" cy="28.993209871734443"></circle><circle class="pearl" r="2.190433937142651" cx="14.13811847195522" cy="12.373399584276378"></circle><circle class="pearl" r="2.190433937142651" cx="31.11803529924844" cy="22.444175683247455"></circle><circle class="pearl" r="2.190433937142651" cx="10.013176726772668" cy="26.767604068489224"></circle><circle class="pearl" r="2.190433937142651" cx="25.1625299271706" cy="4.328500666167248"></circle><circle class="pearl" r="2.190433937142651" cx="27.782608687955303" cy="34.772930101052836"></circle><circle class="pearl" r="2.190433937142651" cx="8.036930275650786" cy="7.623092000895575"></circle><circle class="pearl" r="2.190433937142651" cx="36.040664285033515" cy="16.500106031740792"></circle><circle class="pearl" r="2.190433937142651" cx="11.3070075503718" cy="34.36126950601293"></circle><circle class="pearl" r="2.190433937142651" cx="16.81383473400994" cy="3.9061454691506903"></circle><circle class="pearl" r="2.190433937142651" cx="33.74247113697989" cy="29.87303346303284"></circle><circle class="pearl" r="2.190433937142651" cx="3.788525504185259" cy="22.343736665541265"></circle><circle class="pearl" r="2.190433937142651" cx="32.18050534208177" cy="7.787706818962306"></circle><circle class="pearl" r="2.190433937142651" cx="20.00567962395882" cy="36.34927596497569"></circle></g><text id="4" class="legendSampleValue" text-anchor="middle" transform="translate(45,8)" x="0" y="304.9477195110013" style="fill: black; font-size: 0.7rem;">1.5k</text></g></svg>