<?xml version="1.0" standalone="no"?>
<?xml-stylesheet xmlns="http://www.w3.org/2000/svg" type="text/css" href="style.css"?>
<svg id="syntheticVisC" class="default" xTitle="Percent Cat Owners" yTitle="Percent Dog Owners" rTitle="Population" chartTitle="Towns in Vizzyland" width="500" height="400" xmlns="http://www.w3.org/2000/svg"><rect class="background" width="500" height="400"></rect><text id="chartTitle" text-anchor="middle" transform="translate(250,20)" x="0" y="0" style="fill: black; font-size: 1.2rem;">Towns in Vizzyland</text><g id="yAxis" transform="translate(50,30)" fill="none" font-size="10" font-family="sans-serif" text-anchor="end"><path class="domain" stroke="currentColor" d="M-6,300H0V20H-6"></path><g class="tick" opacity="1" transform="translate(0,300)"><line stroke="currentColor" x2="-6"></line><text fill="currentColor" x="-9" dy="0.32em">0</text></g><g class="tick" opacity="1" transform="translate(0,272)"><line stroke="currentColor" x2="-6"></line><text fill="currentColor" x="-9" dy="0.32em">10</text></g><g class="tick" opacity="1" transform="translate(0,244)"><line stroke="currentColor" x2="-6"></line><text fill="currentColor" x="-9" dy="0.32em">20</text></g><g class="tick" opacity="1" transform="translate(0,216)"><line stroke="currentColor" x2="-6"></line><text fill="currentColor" x="-9" dy="0.32em">30</text></g><g class="tick" opacity="1" transform="translate(0,188)"><line stroke="currentColor" x2="-6"></line><text fill="currentColor" x="-9" dy="0.32em">40</text></g><g class="tick" opacity="1" transform="translate(0,160)"><line stroke="currentColor" x2="-6"></line><text fill="currentColor" x="-9" dy="0.32em">50</text></g><g class="tick" opacity="1" transform="translate(0,132)"><line stroke="currentColor" x2="-6"></line><text fill="currentColor" x="-9" dy="0.32em">60</text></g><g class="tick" opacity="1" transform="translate(0,104.00000000000001)"><line stroke="currentColor" x2="-6"></line><text fill="currentColor" x="-9" dy="0.32em">70</text></g><g class="tick" opacity="1" transform="translate(0,75.99999999999999)"><line stroke="currentColor" x2="-6"></line><text fill="currentColor" x="-9" dy="0.32em">80</text></g><g class="tick" opacity="1" transform="translate(0,47.99999999999999)"><line stroke="currentColor" x2="-6"></line><text fill="currentColor" x="-9" dy="0.32em">90</text></g><g class="tick" opacity="1" transform="translate(0,20)"><line stroke="currentColor" x2="-6"></line><text fill="currentColor" x="-9" dy="0.32em">100</text></g></g><g id="xAxis" transform="translate(60,360)" fill="none" font-size="10" font-family="sans-serif" text-anchor="middle"><path class="domain" stroke="currentColor" d="M20,6V0H320V6"></path><g class="tick" opacity="1" transform="translate(20,0)"><line stroke="currentColor" y2="6"></line><text fill="currentColor" y="9" dy="0.71em">0</text></g><g class="tick" opacity="1" transform="translate(50,0)"><line stroke="currentColor" y2="6"></line><text fill="currentColor" y="9" dy="0.71em">10</text></g><g class="tick" opacity="1" transform="translate(80,0)"><line stroke="currentColor" y2="6"></line><text fill="currentColor" y="9" dy="0.71em">20</text></g><g class="tick" opacity="1" transform="translate(110,0)"><line stroke="currentColor" y2="6"></line><text fill="currentColor" y="9" dy="0.71em">30</text></g><g class="tick" opacity="1" transform="translate(140,0)"><line stroke="currentColor" y2="6"></line><text fill="currentColor" y="9" dy="0.71em">40</text></g><g class="tick" opacity="1" transform="translate(170,0)"><line stroke="currentColor" y2="6"></line><text fill="currentColor" y="9" dy="0.71em">50</text></g><g class="tick" opacity="1" transform="translate(200,0)"><line stroke="currentColor" y2="6"></line><text fill="currentColor" y="9" dy="0.71em">60</text></g><g class="tick" opacity="1" transform="translate(230,0)"><line stroke="currentColor" y2="6"></line><text fill="currentColor" y="9" dy="0.71em">70</text></g><g class="tick" opacity="1" transform="translate(260,0)"><line stroke="currentColor" y2="6"></line><text fill="currentColor" y="9" dy="0.71em">80</text></g><g class="tick" opacity="1" transform="translate(290,0)"><line stroke="currentColor" y2="6"></line><text fill="currentColor" y="9" dy="0.71em">90</text></g><g class="tick" opacity="1" transform="translate(320,0)"><line stroke="currentColor" y2="6"></line><text fill="currentColor" y="9" dy="0.71em">100</text></g></g><g id="labels"><text id="xTitle" text-anchor="middle" transform="translate(250,350)" x="0" y="40" style="fill: black; font-size: 0.8rem;">Percent Cat Owners</text><g id="group-yTitle" transform="translate(60,190)"><text id="yTitle" text-anchor="middle" transform="rotate(-90)" y="-45" style="fill: black; font-size: 0.8rem;">Percent Dog Owners</text></g></g><g id="quadrant_lines" transform="translate(60,30)"><line id="verticalQuadrantLine" x1="170" y1="10" x2="170" y2="310" class="quadrantLine"></line><line id="horizontalQuadrantLine" x1="10" y1="160" x2="330" y2="160" class="quadrantLine"></line></g><g id="chart" transform="translate(60,30)"><g class="bobaCup bright" cupRadius="20" width="40" height="40" pearlRadius="2.7380424214283137" pearlCount="20" transform="translate(286.50679409922583,79.84967349255874)"><circle class="pool" r="20" cx="20" cy="20" style="stroke-width: 1; fill: rgb(65, 182, 196);"></circle><circle class="pearl" r="2.190433937142651" cx="22.480421380823074" cy="19.96094551607325"></circle><circle class="pearl" r="2.190433937142651" cx="14.554532211889109" cy="20.25858246523202"></circle><circle class="pearl" r="2.190433937142651" cx="21.718613402750453" cy="11.231225788085391"></circle><circle class="pearl" r="2.190433937142651" cx="25.13767186853209" cy="27.447308990534317"></circle><circle class="pearl" r="2.190433937142651" cx="6.622341466842937" cy="15.212813608895589"></circle><circle class="pearl" r="2.190433937142651" cx="28.49521909515808" cy="14.82158787688231"></circle><circle class="pearl" r="2.190433937142651" cx="17.504603283401977" cy="28.993209871734443"></circle><circle class="pearl" r="2.190433937142651" cx="14.13811847195522" cy="12.373399584276378"></circle><circle class="pearl" r="2.190433937142651" cx="31.11803529924844" cy="22.444175683247455"></circle><circle class="pearl" r="2.190433937142651" cx="10.013176726772668" cy="26.767604068489224"></circle><circle class="pearl" r="2.190433937142651" cx="25.1625299271706" cy="4.328500666167248"></circle><circle class="pearl" r="2.190433937142651" cx="27.782608687955303" cy="34.772930101052836"></circle><circle class="pearl" r="2.190433937142651" cx="8.036930275650786" cy="7.623092000895575"></circle><circle class="pearl" r="2.190433937142651" cx="36.040664285033515" cy="16.500106031740792"></circle><circle class="pearl" r="2.190433937142651" cx="11.3070075503718" cy="34.36126950601293"></circle><circle class="pearl" r="2.190433937142651" cx="16.81383473400994" cy="3.9061454691506903"></circle><circle class="pearl" r="2.190433937142651" cx="33.74247113697989" cy="29.87303346303284"></circle><circle class="pearl" r="2.190433937142651" cx="3.788525504185259" cy="22.343736665541265"></circle><circle class="pearl" r="2.190433937142651" cx="32.18050534208177" cy="7.787706818962306"></circle><circle class="pearl" r="2.190433937142651" cx="20.00567962395882" cy="36.34927596497569"></circle></g><g class="bobaCup bright" cupRadius="19.572528681470867" width="39.145057362941735" height="39.145057362941735" pearlRadius="2.7380424214283132" pearlCount="19" transform="translate(24.66695652003806,30.47683407529539)"><circle class="pool" r="19.572528681470867" cx="19.572528681470867" cy="19.572528681470867" style="stroke-width: 1; fill: rgb(65, 182, 196);"></circle><circle class="pearl" r="2.1904339371426507" cx="20.143163996232566" cy="19.48227225268878"></circle><circle class="pearl" r="2.1904339371426507" cx="15.660322514942102" cy="26.194449343544562"></circle><circle class="pearl" r="2.1904339371426507" cx="21.877419890551643" cy="10.991831313998656"></circle><circle class="pearl" r="2.1904339371426507" cx="23.57065043790558" cy="27.00694981770681"></circle><circle class="pearl" r="2.1904339371426507" cx="11.406576884073647" cy="19.516045257830573"></circle><circle class="pearl" r="2.1904339371426507" cx="27.51788731979711" cy="16.421013727467134"></circle><circle class="pearl" r="2.1904339371426507" cx="16.33950016235455" cy="34.130031469581084"></circle><circle class="pearl" r="2.1904339371426507" cx="14.194883864749563" cy="12.061305955297183"></circle><circle class="pearl" r="2.1904339371426507" cx="30.82288878796348" cy="23.700753201220593"></circle><circle class="pearl" r="2.1904339371426507" cx="5.516845115389911" cy="24.836301294159398"></circle><circle class="pearl" r="2.1904339371426507" cx="26.76266549325308" cy="5.019246537189139"></circle><circle class="pearl" r="2.1904339371426507" cx="24.22670498068574" cy="34.932921200346755"></circle><circle class="pearl" r="2.1904339371426507" cx="7.775722113511342" cy="7.605338035738932"></circle><circle class="pearl" r="2.1904339371426507" cx="35.36897033942412" cy="17.36081964469987"></circle><circle class="pearl" r="2.1904339371426507" cx="8.633259231771518" cy="32.15190905373592"></circle><circle class="pearl" r="2.1904339371426507" cx="17.105667572331356" cy="3.8068033353098896"></circle><circle class="pearl" r="2.1904339371426507" cx="31.388864224327204" cy="31.52494915298887"></circle><circle class="pearl" r="2.1904339371426507" cx="3.8122581585285564" cy="17.063106324491557"></circle><circle class="pearl" r="2.1904339371426507" cx="32.869935916990855" cy="9.782495343471048"></circle></g><g class="bobaCup bright" cupRadius="18.79451164376789" width="37.58902328753578" height="37.58902328753578" pearlRadius="2.7380424214283132" pearlCount="18" transform="translate(184.6346599221462,279.8519466952407)"><circle class="pool" r="18.79451164376789" cx="18.79451164376789" cy="18.79451164376789" style="stroke-width: 1; fill: rgb(29, 145, 192);"></circle><circle class="pearl" r="2.1904339371426507" cx="18.90054317301323" cy="18.444725160705918"></circle><circle class="pearl" r="2.1904339371426507" cx="13.683187966799784" cy="24.494036437174454"></circle><circle class="pearl" r="2.1904339371426507" cx="18.45847069760664" cy="10.629089860030634"></circle><circle class="pearl" r="2.1904339371426507" cx="21.511452262171524" cy="25.796497140276628"></circle><circle class="pearl" r="2.1904339371426507" cx="11.795134614624" cy="14.88046013631942"></circle><circle class="pearl" r="2.1904339371426507" cx="25.61313447436219" cy="13.997369849276684"></circle><circle class="pearl" r="2.1904339371426507" cx="16.433573940709643" cy="32.04729458181414"></circle><circle class="pearl" r="2.1904339371426507" cx="13.659497560580153" cy="4.365818446657797"></circle><circle class="pearl" r="2.1904339371426507" cx="28.23420171277419" cy="21.516742581427398"></circle><circle class="pearl" r="2.1904339371426507" cx="5.755483357897371" cy="23.446929417834028"></circle><circle class="pearl" r="2.1904339371426507" cx="30.14073241040813" cy="7.466434192928241"></circle><circle class="pearl" r="2.1904339371426507" cx="24.274785881105444" cy="33.12155975124681"></circle><circle class="pearl" r="2.1904339371426507" cx="6.8537656860423875" cy="8.299762645316767"></circle><circle class="pearl" r="2.1904339371426507" cx="33.67846186839587" cy="15.680101922648188"></circle><circle class="pearl" r="2.1904339371426507" cx="8.532788370405624" cy="30.88960383989495"></circle><circle class="pearl" r="2.1904339371426507" cx="22.994392936542567" cy="4.125991846102106"></circle><circle class="pearl" r="2.1904339371426507" cx="30.917741764084266" cy="29.01292950931091"></circle><circle class="pearl" r="2.1904339371426507" cx="3.9023763074289795" cy="15.729211630804919"></circle></g><g class="bobaCup bright" cupRadius="18.355994085422328" width="36.711988170844656" height="36.711988170844656" pearlRadius="2.7380424214283137" pearlCount="17" transform="translate(267.73805974737394,71.04484150725474)"><circle class="pool" r="18.355994085422328" cx="18.355994085422328" cy="18.355994085422328" style="stroke-width: 1; fill: rgb(29, 145, 192);"></circle><circle class="pearl" r="2.190433937142651" cx="18.32976589916724" cy="18.338810322325163"></circle><circle class="pearl" r="2.190433937142651" cx="13.216816357934631" cy="24.329903082530723"></circle><circle class="pearl" r="2.190433937142651" cx="15.812879771178975" cy="10.854450146736903"></circle><circle class="pearl" r="2.190433937142651" cx="20.866446409715305" cy="25.794751241325905"></circle><circle class="pearl" r="2.190433937142651" cx="10.554907727925281" cy="16.977047220589206"></circle><circle class="pearl" r="2.190433937142651" cx="23.45721027335335" cy="12.393558733327726"></circle><circle class="pearl" r="2.190433937142651" cx="15.746820920608654" cy="31.95234956920958"></circle><circle class="pearl" r="2.190433937142651" cx="10.024723708090008" cy="5.650298000346417"></circle><circle class="pearl" r="2.190433937142651" cx="26.110868220414204" cy="19.798136326080463"></circle><circle class="pearl" r="2.190433937142651" cx="4.437131361202562" cy="22.142346964553674"></circle><circle class="pearl" r="2.190433937142651" cx="29.257595392356844" cy="7.238589206182892"></circle><circle class="pearl" r="2.190433937142651" cx="26.639710220801657" cy="31.085825360668128"></circle><circle class="pearl" r="2.190433937142651" cx="5.006526469608765" cy="11.432409022858286"></circle><circle class="pearl" r="2.190433937142651" cx="32.67741069388292" cy="14.621732640070844"></circle><circle class="pearl" r="2.190433937142651" cx="7.443024367185414" cy="29.465000217273253"></circle><circle class="pearl" r="2.190433937142651" cx="19.928392888204176" cy="3.7181941131149543"></circle><circle class="pearl" r="2.190433937142651" cx="31.682507282511462" cy="25.33567618500933"></circle></g><g class="bobaCup bright" cupRadius="18.32283292493525" width="36.6456658498705" height="36.6456658498705" pearlRadius="2.7380424214283137" pearlCount="17" transform="translate(246.33699107302135,281.0387087308222)"><circle class="pool" r="18.32283292493525" cx="18.32283292493525" cy="18.32283292493525" style="stroke-width: 1; fill: rgb(29, 145, 192);"></circle><circle class="pearl" r="2.190433937142651" cx="18.295036134002043" cy="18.31320331730449"></circle><circle class="pearl" r="2.190433937142651" cx="13.213929359637003" cy="24.301183558372276"></circle><circle class="pearl" r="2.190433937142651" cx="15.738334144257726" cy="10.860056567827812"></circle><circle class="pearl" r="2.190433937142651" cx="20.85812392808093" cy="25.75346169227865"></circle><circle class="pearl" r="2.190433937142651" cx="10.533974625983129" cy="16.97184539027095"></circle><circle class="pearl" r="2.190433937142651" cx="23.377121619690996" cy="12.341709862124443"></circle><circle class="pearl" r="2.190433937142651" cx="15.68005110705281" cy="31.944210520847605"></circle><circle class="pearl" r="2.190433937142651" cx="9.967505300993531" cy="5.666664766988557"></circle><circle class="pearl" r="2.190433937142651" cx="26.0560949424477" cy="19.71931833170432"></circle><circle class="pearl" r="2.190433937142651" cx="4.405034405465099" cy="22.124355319803943"></circle><circle class="pearl" r="2.190433937142651" cx="29.194724780848556" cy="7.2247197970876655"></circle><circle class="pearl" r="2.190433937142651" cx="26.68938282710695" cy="30.97324613311488"></circle><circle class="pearl" r="2.190433937142651" cx="4.992536497627132" cy="11.440160635647073"></circle><circle class="pearl" r="2.190433937142651" cx="32.61210794055441" cy="14.596887488734938"></circle><circle class="pearl" r="2.190433937142651" cx="7.446352821039465" cy="29.41756279027248"></circle><circle class="pearl" r="2.190433937142651" cx="19.902008089768458" cy="3.718901618460613"></circle><circle class="pearl" r="2.190433937142651" cx="31.656694803782326" cy="25.196701931830894"></circle></g><g class="bobaCup bright" cupRadius="17.882755922227517" width="35.765511844455034" height="35.765511844455034" pearlRadius="2.7380424214283132" pearlCount="16" transform="translate(111.19314724878737,171.1700483634233)"><circle class="pool" r="17.882755922227517" cx="17.882755922227517" cy="17.882755922227517" style="stroke-width: 1; fill: rgb(65, 182, 196);"></circle><circle class="pearl" r="2.1904339371426507" cx="19.796848712803865" cy="19.698820238927727"></circle><circle class="pearl" r="2.1904339371426507" cx="13.33518914760198" cy="23.84968524538079"></circle><circle class="pearl" r="2.1904339371426507" cx="16.08849041764808" cy="11.108623585405251"></circle><circle class="pearl" r="2.1904339371426507" cx="20.829132832930753" cy="27.489200963914797"></circle><circle class="pearl" r="2.1904339371426507" cx="10.310269543538961" cy="16.554610644350284"></circle><circle class="pearl" r="2.1904339371426507" cx="23.66872070135338" cy="13.132677568536705"></circle><circle class="pearl" r="2.1904339371426507" cx="14.30831418655714" cy="31.75391403249277"></circle><circle class="pearl" r="2.1904339371426507" cx="11.081750923621309" cy="4.994455891159091"></circle><circle class="pearl" r="2.1904339371426507" cx="27.666164020929475" cy="20.787915471767974"></circle><circle class="pearl" r="2.1904339371426507" cx="4.000465880052054" cy="21.40218840798268"></circle><circle class="pearl" r="2.1904339371426507" cx="28.321375047122903" cy="7.013555248128463"></circle><circle class="pearl" r="2.1904339371426507" cx="28.5119977260135" cy="28.61299851833635"></circle><circle class="pearl" r="2.1904339371426507" cx="5.305452226570774" cy="10.369826964723654"></circle><circle class="pearl" r="2.1904339371426507" cx="31.682080346966668" cy="13.97266688600786"></circle><circle class="pearl" r="2.1904339371426507" cx="7.311358144770961" cy="28.655572772456434"></circle><circle class="pearl" r="2.1904339371426507" cx="18.997073676917747" cy="3.685474911793462"></circle></g><g class="bobaCup bright" cupRadius="17.660302770731036" width="35.32060554146207" height="35.32060554146207" pearlRadius="2.7380424214283137" pearlCount="16" transform="translate(149.48454498415765,234.10486281977734)"><circle class="pool" r="17.660302770731036" cx="17.660302770731036" cy="17.660302770731036" style="stroke-width: 1; fill: rgb(127, 205, 187);"></circle><circle class="pearl" r="2.190433937142651" cx="19.071928542847974" cy="19.002933445569035"></circle><circle class="pearl" r="2.190433937142651" cx="13.132012127362762" cy="23.503091360669124"></circle><circle class="pearl" r="2.190433937142651" cx="15.986578220655225" cy="10.975965665290392"></circle><circle class="pearl" r="2.190433937142651" cx="20.521899099199178" cy="26.703103419629375"></circle><circle class="pearl" r="2.190433937142651" cx="10.181046496636446" cy="16.305160392295598"></circle><circle class="pearl" r="2.190433937142651" cx="23.364403688492878" cy="12.994896681728727"></circle><circle class="pearl" r="2.190433937142651" cx="14.318460323783272" cy="31.35081314919231"></circle><circle class="pearl" r="2.190433937142651" cx="11.193927485541536" cy="4.8771498702514755"></circle><circle class="pearl" r="2.190433937142651" cx="26.88872454977448" cy="20.459219645541317"></circle><circle class="pearl" r="2.190433937142651" cx="4.026496569908129" cy="21.284021352285524"></circle><circle class="pearl" r="2.190433937142651" cx="27.853462953285007" cy="6.8893139148550535"></circle><circle class="pearl" r="2.190433937142651" cx="28.13268325302028" cy="28.229830629537336"></circle><circle class="pearl" r="2.190433937142651" cx="5.392288887553228" cy="10.01307433678722"></circle><circle class="pearl" r="2.190433937142651" cx="31.277736709967325" cy="13.959351273913862"></circle><circle class="pearl" r="2.190433937142651" cx="7.3795747098432685" cy="28.368998906882364"></circle><circle class="pearl" r="2.190433937142651" cx="19.3377279614349" cy="3.730566998369227"></circle></g><g class="bobaCup bright" cupRadius="17.558883541252296" width="35.11776708250459" height="35.11776708250459" pearlRadius="2.7380424214283132" pearlCount="15" transform="translate(88.64300131280945,129.8118006420929)"><circle class="pool" r="17.558883541252296" cx="17.558883541252296" cy="17.558883541252296" style="stroke-width: 1; fill: rgb(127, 205, 187);"></circle><circle class="pearl" r="2.1904339371426507" cx="18.787596130408456" cy="17.67231508041582"></circle><circle class="pearl" r="2.1904339371426507" cx="13.158729098329031" cy="23.252303142563466"></circle><circle class="pearl" r="2.1904339371426507" cx="16.415771599780374" cy="9.872927645671803"></circle><circle class="pearl" r="2.1904339371426507" cx="20.3916980247496" cy="26.072696014920428"></circle><circle class="pearl" r="2.1904339371426507" cx="11.103094901283507" cy="15.77337228536589"></circle><circle class="pearl" r="2.1904339371426507" cx="24.018722655510665" cy="11.724008887132026"></circle><circle class="pearl" r="2.1904339371426507" cx="14.397108208622093" cy="31.18003247412428"></circle><circle class="pearl" r="2.1904339371426507" cx="10.06128317703758" cy="5.3319375456019555"></circle><circle class="pearl" r="2.1904339371426507" cx="26.164355133736734" cy="20.526304602464624"></circle><circle class="pearl" r="2.1904339371426507" cx="4.669016140869788" cy="20.583387136329524"></circle><circle class="pearl" r="2.1904339371426507" cx="21.943427688746652" cy="4.206955099159365"></circle><circle class="pearl" r="2.1904339371426507" cx="27.9084872115619" cy="28.092662245522376"></circle><circle class="pearl" r="2.1904339371426507" cx="4.914771274291808" cy="11.017268496874868"></circle><circle class="pearl" r="2.1904339371426507" cx="31.215658918619265" cy="14.598328995105044"></circle><circle class="pearl" r="2.1904339371426507" cx="7.203661237722078" cy="28.08856095087656"></circle></g><g class="bobaCup bright" cupRadius="17.198333959694995" width="34.39666791938999" height="34.39666791938999" pearlRadius="2.7380424214283137" pearlCount="15" transform="translate(275.8227349567973,92.22871711511806)"><circle class="pool" r="17.198333959694995" cx="17.198333959694995" cy="17.198333959694995" style="stroke-width: 1; fill: rgb(127, 205, 187);"></circle><circle class="pearl" r="2.190433937142651" cx="18.42456386224394" cy="17.427430169121266"></circle><circle class="pearl" r="2.190433937142651" cx="12.7684872116799" cy="22.743375480924733"></circle><circle class="pearl" r="2.190433937142651" cx="16.110699957633088" cy="9.856179627402367"></circle><circle class="pearl" r="2.190433937142651" cx="19.88287114878296" cy="25.31855425529459"></circle><circle class="pearl" r="2.190433937142651" cx="10.681362276944402" cy="15.556323575347777"></circle><circle class="pearl" r="2.190433937142651" cx="23.516724391912888" cy="11.469599810974813"></circle><circle class="pearl" r="2.190433937142651" cx="14.221195231791377" cy="30.48630418676017"></circle><circle class="pearl" r="2.190433937142651" cx="10.22719935872256" cy="5.126908055137905"></circle><circle class="pearl" r="2.190433937142651" cx="25.84104510854813" cy="20.059083867286596"></circle><circle class="pearl" r="2.190433937142651" cx="4.1898754240864085" cy="20.303053891980078"></circle><circle class="pearl" r="2.190433937142651" cx="21.51266353878289" cy="4.200656325954846"></circle><circle class="pearl" r="2.190433937142651" cx="27.219043813536477" cy="27.52502340351512"></circle><circle class="pearl" r="2.190433937142651" cx="5.08508605764367" cy="10.322295479428808"></circle><circle class="pearl" r="2.190433937142651" cx="30.462707942919504" cy="14.089929657693238"></circle><circle class="pearl" r="2.190433937142651" cx="7.219823005198007" cy="27.555180474665498"></circle></g><g class="bobaCup bright" cupRadius="16.603645121159964" width="33.20729024231993" height="33.20729024231993" pearlRadius="2.738042421428314" pearlCount="14" transform="translate(62.21180721081736,209.62459854364158)"><circle class="pool" r="16.603645121159964" cx="16.603645121159964" cy="16.603645121159964" style="stroke-width: 1; fill: rgb(29, 145, 192);"></circle><circle class="pearl" r="2.1904339371426516" cx="20.644764025920175" cy="12.33408896591149"></circle><circle class="pearl" r="2.1904339371426516" cx="13.113012945945208" cy="21.591595434630296"></circle><circle class="pearl" r="2.1904339371426516" cx="12.662619949397971" cy="12.420239212063247"></circle><circle class="pearl" r="2.1904339371426516" cx="20.90765996653782" cy="20.29337086985218"></circle><circle class="pearl" r="2.1904339371426516" cx="6.142086628326972" cy="17.73611006388549"></circle><circle class="pearl" r="2.1904339371426516" cx="26.370251534249576" cy="6.8269921919995635"></circle><circle class="pearl" r="2.1904339371426516" cx="15.438922417767861" cy="29.5156647914454"></circle><circle class="pearl" r="2.1904339371426516" cx="11.083195677954103" cy="4.595324022109162"></circle><circle class="pearl" r="2.1904339371426516" cx="28.570515549841286" cy="22.24029303160892"></circle><circle class="pearl" r="2.1904339371426516" cx="6.8616730679548965" cy="26.398181719903132"></circle><circle class="pearl" r="2.1904339371426516" cx="19.029379831381682" cy="3.828874676022345"></circle><circle class="pearl" r="2.1904339371426516" cx="23.306659790921696" cy="28.143400016939612"></circle><circle class="pearl" r="2.1904339371426516" cx="5.0986447624489255" cy="9.822415597296363"></circle><circle class="pearl" r="2.1904339371426516" cx="29.38585019497531" cy="14.228798027546102"></circle></g><g class="bobaCup bright" cupRadius="16.499729750632234" width="32.99945950126447" height="32.99945950126447" pearlRadius="2.738042421428314" pearlCount="14" transform="translate(127.22176764011587,187.82691895229442)"><circle class="pool" r="16.499729750632234" cx="16.499729750632234" cy="16.499729750632234" style="stroke-width: 1; fill: rgb(29, 145, 192);"></circle><circle class="pearl" r="2.1904339371426516" cx="20.43935988305556" cy="12.26011266735707"></circle><circle class="pearl" r="2.1904339371426516" cx="12.722576241507463" cy="20.901777729246295"></circle><circle class="pearl" r="2.1904339371426516" cx="12.483131207110707" cy="12.694612181143254"></circle><circle class="pearl" r="2.1904339371426516" cx="20.63315254139373" cy="20.228855407268522"></circle><circle class="pearl" r="2.1904339371426516" cx="5.336381924126989" cy="17.894856943168637"></circle><circle class="pearl" r="2.1904339371426516" cx="26.190331452994872" cy="6.79630304406837"></circle><circle class="pearl" r="2.1904339371426516" cx="14.95623742696071" cy="29.276383466986513"></circle><circle class="pearl" r="2.1904339371426516" cx="10.912960277410667" cy="4.625341427366468"></circle><circle class="pearl" r="2.1904339371426516" cx="28.29632431282235" cy="22.298130816023534"></circle><circle class="pearl" r="2.1904339371426516" cx="6.81861340972225" cy="26.21003448542026"></circle><circle class="pearl" r="2.1904339371426516" cx="18.853552115745035" cy="3.819482336972858"></circle><circle class="pearl" r="2.1904339371426516" cx="22.854251619192556" cy="28.075993540702985"></circle><circle class="pearl" r="2.1904339371426516" cx="5.018260924120359" cy="9.922660080027965"></circle><circle class="pearl" r="2.1904339371426516" cx="29.18840124580961" cy="14.205113899244589"></circle></g><g class="bobaCup bright" cupRadius="15.908234654476676" width="31.81646930895335" height="31.81646930895335" pearlRadius="2.738042421428314" pearlCount="13" transform="translate(141.17289309502527,205.94889499358504)"><circle class="pool" r="15.908234654476676" cx="15.908234654476676" cy="15.908234654476676" style="stroke-width: 1; fill: rgb(65, 182, 196);"></circle><circle class="pearl" r="2.1904339371426516" cx="20.60821919390386" cy="17.764280666748064"></circle><circle class="pearl" r="2.1904339371426516" cx="13.580546472882308" cy="20.847280586909736"></circle><circle class="pearl" r="2.1904339371426516" cx="16.908411079103946" cy="10.957186788933841"></circle><circle class="pearl" r="2.1904339371426516" cx="24.460727343002592" cy="25.389854521822443"></circle><circle class="pearl" r="2.1904339371426516" cx="9.65114832364102" cy="13.947999124277349"></circle><circle class="pearl" r="2.1904339371426516" cx="27.24129845204727" cy="10.564260835573654"></circle><circle class="pearl" r="2.1904339371426516" cx="7.661537140487259" cy="25.86133110769546"></circle><circle class="pearl" r="2.1904339371426516" cx="13.753018139571981" cy="3.79739160314478"></circle><circle class="pearl" r="2.1904339371426516" cx="27.96111331836351" cy="18.451621653162633"></circle><circle class="pearl" r="2.1904339371426516" cx="4.019252508307877" cy="19.31256817047845"></circle><circle class="pearl" r="2.1904339371426516" cx="21.861041789939797" cy="4.80646599083267"></circle><circle class="pearl" r="2.1904339371426516" cx="16.966523883748447" cy="28.13050590486576"></circle><circle class="pearl" r="2.1904339371426516" cx="6.601262757813874" cy="6.679471635340113"></circle></g><g class="bobaCup bright" cupRadius="15.884456817212449" width="31.768913634424898" height="31.768913634424898" pearlRadius="2.7380424214283132" pearlCount="13" transform="translate(160.5021749353413,214.80096910170568)"><circle class="pool" r="15.884456817212449" cx="15.884456817212449" cy="15.884456817212449" style="stroke-width: 1; fill: rgb(127, 205, 187);"></circle><circle class="pearl" r="2.1904339371426507" cx="20.537203492376857" cy="17.91139996134625"></circle><circle class="pearl" r="2.1904339371426507" cx="13.427244123391498" cy="20.776124704917862"></circle><circle class="pearl" r="2.1904339371426507" cx="16.998761724502252" cy="11.005290993838226"></circle><circle class="pearl" r="2.1904339371426507" cx="24.414863676462453" cy="25.518607144227833"></circle><circle class="pearl" r="2.1904339371426507" cx="9.674575201920577" cy="13.80430031073566"></circle><circle class="pearl" r="2.1904339371426507" cx="27.237398432192" cy="10.668518776908506"></circle><circle class="pearl" r="2.1904339371426507" cx="7.4271108213690615" cy="25.67952352766982"></circle><circle class="pearl" r="2.1904339371426507" cx="13.962760790890536" cy="3.7673947618476307"></circle><circle class="pearl" r="2.1904339371426507" cx="27.89028243907114" cy="18.565584653029525"></circle><circle class="pearl" r="2.1904339371426507" cx="3.9711008502532517" cy="19.058635005838365"></circle><circle class="pearl" r="2.1904339371426507" cx="21.93066957704129" cy="4.846433344966273"></circle><circle class="pearl" r="2.1904339371426507" cx="16.858422581973986" cy="28.088302616746777"></circle><circle class="pearl" r="2.1904339371426507" cx="6.693060065183228" cy="6.580096328390051"></circle></g><g class="bobaCup bright" cupRadius="15.651851420023288" width="31.303702840046576" height="31.303702840046576" pearlRadius="2.7380424214283137" pearlCount="12" transform="translate(39.75397843924705,10.947178297984)"><circle class="pool" r="15.651851420023288" cx="15.651851420023288" cy="15.651851420023288" style="stroke-width: 1; fill: rgb(127, 205, 187);"></circle><circle class="pearl" r="2.190433937142651" cx="17.364989818373164" cy="11.292673402240029"></circle><circle class="pearl" r="2.190433937142651" cx="11.29744815774494" cy="17.40962369614107"></circle><circle class="pearl" r="2.190433937142651" cx="14.128895205192403" cy="3.9820421744427037"></circle><circle class="pearl" r="2.190433937142651" cx="19.11224122534542" cy="19.09393304122452"></circle><circle class="pearl" r="2.190433937142651" cx="4.003551839517216" cy="14.136141197512938"></circle><circle class="pearl" r="2.190433937142651" cx="27.19753936687174" cy="11.903579783379374"></circle><circle class="pearl" r="2.190433937142651" cx="11.995004902446532" cy="27.219798515149073"></circle><circle class="pearl" r="2.190433937142651" cx="6.5612643583180486" cy="6.56123720906149"></circle><circle class="pearl" r="2.190433937142651" cx="27.06614892641754" cy="19.897508392689527"></circle><circle class="pearl" r="2.190433937142651" cx="5.358794550392679" cy="22.761805670753695"></circle><circle class="pearl" r="2.190433937142651" cx="22.671750652885635" cy="5.313240581708142"></circle><circle class="pearl" r="2.190433937142651" cx="19.987966664155493" cy="27.040362130190218"></circle></g><g class="bobaCup bright" cupRadius="15.57025687794811" width="31.14051375589622" height="31.14051375589622" pearlRadius="2.7380424214283132" pearlCount="12" transform="translate(176.96825828781462,7.07123948296819)"><circle class="pool" r="15.57025687794811" cx="15.57025687794811" cy="15.57025687794811" style="stroke-width: 1; fill: rgb(127, 205, 187);"></circle><circle class="pearl" r="2.1904339371426507" cx="17.12741659357319" cy="11.131920618033398"></circle><circle class="pearl" r="2.1904339371426507" cx="11.132168461489083" cy="17.129389124122877"></circle><circle class="pearl" r="2.1904339371426507" cx="14.034780058073515" cy="3.759301198933777"></circle><circle class="pearl" r="2.1904339371426507" cx="18.923232284828924" cy="18.922500233431872"></circle><circle class="pearl" r="2.1904339371426507" cx="3.7602683943920807" cy="14.03512834666084"></circle><circle class="pearl" r="2.1904339371426507" cx="27.078752985582554" cy="12.016249511312132"></circle><circle class="pearl" r="2.1904339371426507" cx="12.01972042342353" cy="27.079566305357105"></circle><circle class="pearl" r="2.1904339371426507" cx="6.538158380019955" cy="6.538153293500954"></circle><circle class="pearl" r="2.1904339371426507" cx="26.84402735940139" cy="20.00786735485272"></circle><circle class="pearl" r="2.1904339371426507" cx="5.358048979068365" cy="22.6591241923253"></circle><circle class="pearl" r="2.1904339371426507" cx="22.65562942913598" cy="5.356262473038018"></circle><circle class="pearl" r="2.1904339371426507" cx="20.011262770730795" cy="26.84301735478441"></circle></g><g class="bobaCup bright" cupRadius="15.28623326509612" width="30.57246653019224" height="30.57246653019224" pearlRadius="2.7380424214283132" pearlCount="12" transform="translate(219.0893809829067,4.71376673490388)"><circle class="pool" r="15.28623326509612" cx="15.28623326509612" cy="15.28623326509612" style="stroke-width: 1; fill: rgb(65, 182, 196);"></circle><circle class="pearl" r="2.1904339371426507" cx="16.998555497063975" cy="10.77892857843193"></circle><circle class="pearl" r="2.1904339371426507" cx="10.852959348453822" cy="16.765149945297832"></circle><circle class="pearl" r="2.1904339371426507" cx="13.873190463013527" cy="3.7161734167551037"></circle><circle class="pearl" r="2.1904339371426507" cx="18.39649899896942" cy="18.43700027080772"></circle><circle class="pearl" r="2.1904339371426507" cx="3.718650344953134" cy="13.846759264308776"></circle><circle class="pearl" r="2.1904339371426507" cx="26.74413468136494" cy="12.962789963384747"></circle><circle class="pearl" r="2.1904339371426507" cx="12.41597511043715" cy="26.64985469623446"></circle><circle class="pearl" r="2.1904339371426507" cx="6.484050197257486" cy="6.439336693273769"></circle><circle class="pearl" r="2.1904339371426507" cx="25.870815839886316" cy="20.85624189343054"></circle><circle class="pearl" r="2.1904339371426507" cx="5.56520216564813" cy="22.693332132131335"></circle><circle class="pearl" r="2.1904339371426507" cx="23.23628582545854" cy="5.880709263991821"></circle><circle class="pearl" r="2.1904339371426507" cx="20.327008191392828" cy="26.066709417635035"></circle></g><g class="bobaCup bright" cupRadius="14.849557291977497" width="29.699114583954994" height="29.699114583954994" pearlRadius="2.738042421428314" pearlCount="11" transform="translate(19.808134116591937,166.17390867618965)"><circle class="pool" r="14.849557291977497" cx="14.849557291977497" cy="14.849557291977497" style="stroke-width: 1; fill: rgb(127, 205, 187);"></circle><circle class="pearl" r="2.1904339371426516" cx="18.7831752484165" cy="15.016402314965584"></circle><circle class="pearl" r="2.1904339371426516" cx="11.097823865415158" cy="16.623011442531073"></circle><circle class="pearl" r="2.1904339371426516" cx="13.803101373848671" cy="8.89579675348125"></circle><circle class="pearl" r="2.1904339371426516" cx="20.673194838285006" cy="24.8587973685167"></circle><circle class="pearl" r="2.1904339371426516" cx="3.690038419363408" cy="13.769705139132405"></circle><circle class="pearl" r="2.1904339371426516" cx="25.507119351207265" cy="10.876859985282241"></circle><circle class="pearl" r="2.1904339371426516" cx="12.854026852026871" cy="25.913697638409495"></circle><circle class="pearl" r="2.1904339371426516" cx="6.377259582298118" cy="6.304809095208617"></circle><circle class="pearl" r="2.1904339371426516" cx="25.502949674257277" cy="18.837241878192238"></circle><circle class="pearl" r="2.1904339371426516" cx="5.787235853637981" cy="22.523399032908696"></circle><circle class="pearl" r="2.1904339371426516" cx="20.550081731046397" cy="4.788483669395184"></circle></g><g class="bobaCup bright" cupRadius="14.830626775758658" width="29.661253551517316" height="29.661253551517316" pearlRadius="2.738042421428314" pearlCount="11" transform="translate(143.66347092503042,56.9831550130061)"><circle class="pool" r="14.830626775758658" cx="14.830626775758658" cy="14.830626775758658" style="stroke-width: 1; fill: rgb(127, 205, 187);"></circle><circle class="pearl" r="2.1904339371426516" cx="18.76274896629805" cy="15.003566771038438"></circle><circle class="pearl" r="2.1904339371426516" cx="11.089492165932578" cy="16.621505653863185"></circle><circle class="pearl" r="2.1904339371426516" cx="13.78418708773595" cy="8.89401731505819"></circle><circle class="pearl" r="2.1904339371426516" cx="20.68840866963963" cy="24.804656089731967"></circle><circle class="pearl" r="2.1904339371426516" cx="3.689568171639499" cy="13.757928879823146"></circle><circle class="pearl" r="2.1904339371426516" cx="25.464137545003293" cy="10.8421245935485"></circle><circle class="pearl" r="2.1904339371426516" cx="12.888149375639491" cy="25.882769666141247"></circle><circle class="pearl" r="2.1904339371426516" cx="6.37567267063498" cy="6.296882775841583"></circle><circle class="pearl" r="2.1904339371426516" cx="25.47052174433644" cy="18.796193835482562"></circle><circle class="pearl" r="2.1904339371426516" cx="5.815401188014624" cy="22.54562717396573"></circle><circle class="pearl" r="2.1904339371426516" cx="20.51223586876622" cy="4.782196429159361"></circle></g><g class="bobaCup bright" cupRadius="14.75112534720906" width="29.50225069441812" height="29.50225069441812" pearlRadius="2.738042421428314" pearlCount="11" transform="translate(176.42890867108235,221.08596589526783)"><circle class="pool" r="14.75112534720906" cx="14.75112534720906" cy="14.75112534720906" style="stroke-width: 1; fill: rgb(29, 145, 192);"></circle><circle class="pearl" r="2.1904339371426516" cx="18.68349688522864" cy="14.972364089973935"></circle><circle class="pearl" r="2.1904339371426516" cx="11.055282360276486" cy="16.597496494360787"></circle><circle class="pearl" r="2.1904339371426516" cx="13.68296311376158" cy="8.947732415744746"></circle><circle class="pearl" r="2.1904339371426516" cx="20.744149948048502" cy="24.579250553975722"></circle><circle class="pearl" r="2.1904339371426516" cx="3.688166896270858" cy="13.70075853359281"></circle><circle class="pearl" r="2.1904339371426516" cx="25.276409392617676" cy="10.672336706307423"></circle><circle class="pearl" r="2.1904339371426516" cx="13.010586735101919" cy="25.748481322029722"></circle><circle class="pearl" r="2.1904339371426516" cx="6.371992020131852" cy="6.26159224833229"></circle><circle class="pearl" r="2.1904339371426516" cx="25.338941821169367" cy="18.60595169200215"></circle><circle class="pearl" r="2.1904339371426516" cx="5.918698295861995" cy="22.610302027883254"></circle><circle class="pearl" r="2.1904339371426516" cx="20.28893480460592" cy="4.72967371504056"></circle></g><g class="bobaCup bright" cupRadius="14.302456420739432" width="28.604912841478864" height="28.604912841478864" pearlRadius="2.738042421428314" pearlCount="10" transform="translate(118.58184844714977,36.314440208444864)"><circle class="pool" r="14.302456420739432" cx="14.302456420739432" cy="14.302456420739432" style="stroke-width: 1; fill: rgb(29, 145, 192);"></circle><circle class="pearl" r="2.1904339371426516" cx="17.80500688350645" cy="12.38440853891752"></circle><circle class="pearl" r="2.1904339371426516" cx="11.068731569843843" cy="16.262334140002423"></circle><circle class="pearl" r="2.1904339371426516" cx="14.524949296592128" cy="5.088984860922795"></circle><circle class="pearl" r="2.1904339371426516" cx="21.5084458192303" cy="23.006245584650205"></circle><circle class="pearl" r="2.1904339371426516" cx="3.685669167118141" cy="13.303254585432233"></circle><circle class="pearl" r="2.1904339371426516" cx="22.34449734761575" cy="6.125845317450404"></circle><circle class="pearl" r="2.1904339371426516" cx="13.771033727212052" cy="24.944313420662947"></circle><circle class="pearl" r="2.1904339371426516" cx="6.583576638166559" cy="5.912450661025034"></circle><circle class="pearl" r="2.1904339371426516" cx="24.87158014341745" cy="15.83745230027861"></circle><circle class="pearl" r="2.1904339371426516" cx="6.2543788541687935" cy="22.474960634352357"></circle></g><g class="bobaCup bright" cupRadius="14.269262987847714" width="28.53852597569543" height="28.53852597569543" pearlRadius="2.738042421428314" pearlCount="10" transform="translate(156.6070005312065,122.94862567866822)"><circle class="pool" r="14.269262987847714" cx="14.269262987847714" cy="14.269262987847714" style="stroke-width: 1; fill: rgb(65, 182, 196);"></circle><circle class="pearl" r="2.1904339371426516" cx="17.74525961354743" cy="12.321532881540277"></circle><circle class="pearl" r="2.1904339371426516" cx="11.074063902456565" cy="16.24309074588322"></circle><circle class="pearl" r="2.1904339371426516" cx="14.479993637493903" cy="5.00921731472915"></circle><circle class="pearl" r="2.1904339371426516" cx="21.497581507087425" cy="22.921518162930635"></circle><circle class="pearl" r="2.1904339371426516" cx="3.6826725840014007" cy="13.314921985615078"></circle><circle class="pearl" r="2.1904339371426516" cx="22.274837941752736" cy="6.108016191322678"></circle><circle class="pearl" r="2.1904339371426516" cx="13.76638023444716" cy="24.878938601970088"></circle><circle class="pearl" r="2.1904339371426516" cx="6.549387138086523" cy="5.919345271842772"></circle><circle class="pearl" r="2.1904339371426516" cx="24.811980429004645" cy="15.73831307932569"></circle><circle class="pearl" r="2.1904339371426516" cx="6.257204060918921" cy="22.426112666855108"></circle></g><g class="bobaCup bright" cupRadius="14.217930164287228" width="28.435860328574456" height="28.435860328574456" pearlRadius="2.738042421428314" pearlCount="10" transform="translate(53.436799427886186,207.83894428605126)"><circle class="pool" r="14.217930164287228" cx="14.217930164287228" cy="14.217930164287228" style="stroke-width: 1; fill: rgb(127, 205, 187);"></circle><circle class="pearl" r="2.1904339371426516" cx="17.65084643371278" cy="12.22261838804625"></circle><circle class="pearl" r="2.1904339371426516" cx="11.08364471470999" cy="16.21540479168695"></circle><circle class="pearl" r="2.1904339371426516" cx="14.410991475810182" cy="4.879387191809447"></circle><circle class="pearl" r="2.1904339371426516" cx="21.48014870106374" cy="22.79053381838799"></circle><circle class="pearl" r="2.1904339371426516" cx="3.6783234576427017" cy="13.332450358604254"></circle><circle class="pearl" r="2.1904339371426516" cx="22.167139198355155" cy="6.080540147336725"></circle><circle class="pearl" r="2.1904339371426516" cx="13.758427176878167" cy="24.77770992333452"></circle><circle class="pearl" r="2.1904339371426516" cx="6.4989166921646655" cy="5.92853743137205"></circle><circle class="pearl" r="2.1904339371426516" cx="24.719304195492498" cy="15.58456153608405"></circle><circle class="pearl" r="2.1904339371426516" cx="6.261751984868299" cy="22.35061760215253"></circle></g><g class="bobaCup bright" cupRadius="14.113720198822634" width="28.227440397645267" height="28.227440397645267" pearlRadius="2.7380424214283137" pearlCount="10" transform="translate(219.3485667707264,237.96280023287596)"><circle class="pool" r="14.113720198822634" cx="14.113720198822634" cy="14.113720198822634" style="stroke-width: 1; fill: rgb(127, 205, 187);"></circle><circle class="pearl" r="2.190433937142651" cx="17.4472266096363" cy="12.010517929512128"></circle><circle class="pearl" r="2.190433937142651" cx="11.107632048771965" cy="16.166925796918754"></circle><circle class="pearl" r="2.190433937142651" cx="14.275521450626554" cy="4.59543326186602"></circle><circle class="pearl" r="2.190433937142651" cx="21.444795034491833" cy="22.523363449114115"></circle><circle class="pearl" r="2.190433937142651" cx="3.6707684449411726" cy="13.36177383129017"></circle><circle class="pearl" r="2.190433937142651" cx="21.948538875509378" cy="6.025077424321211"></circle><circle class="pearl" r="2.190433937142651" cx="13.741023279989212" cy="24.571795461170115"></circle><circle class="pearl" r="2.190433937142651" cx="6.409149232905296" cy="5.93918723220718"></circle><circle class="pearl" r="2.190433937142651" cx="24.529696058292114" cy="15.264839053317143"></circle><circle class="pearl" r="2.190433937142651" cx="6.271842183056208" cy="22.197648521810002"></circle></g><g class="bobaCup bright" cupRadius="13.90951795387361" width="27.81903590774722" height="27.81903590774722" pearlRadius="2.7380424214283132" pearlCount="10" transform="translate(96.48914464080866,233.72835007954072)"><circle class="pool" r="13.90951795387361" cx="13.90951795387361" cy="13.90951795387361" style="stroke-width: 1; fill: rgb(127, 205, 187);"></circle><circle class="pearl" r="2.1904339371426507" cx="16.976528017742872" cy="11.52660915330737"></circle><circle class="pearl" r="2.1904339371426507" cx="11.182960865788132" cy="16.11474765043405"></circle><circle class="pearl" r="2.1904339371426507" cx="14.036134958854644" cy="3.9951744424940783"></circle><circle class="pearl" r="2.1904339371426507" cx="21.374481406361326" cy="21.995447159542667"></circle><circle class="pearl" r="2.1904339371426507" cx="3.6602336220777127" cy="13.39524221958991"></circle><circle class="pearl" r="2.1904339371426507" cx="21.522516985584925" cy="5.919067038386248"></circle><circle class="pearl" r="2.1904339371426507" cx="13.698608918991013" cy="24.166713587883557"></circle><circle class="pearl" r="2.1904339371426507" cx="6.288691066723337" cy="5.924189993780225"></circle><circle class="pearl" r="2.1904339371426507" cx="24.151271448103206" cy="14.597834898001587"></circle><circle class="pearl" r="2.1904339371426507" cx="6.292796503363683" cy="21.897533662767973"></circle></g><g class="bobaCup bright" cupRadius="13.777114320841541" width="27.554228641683082" height="27.554228641683082" pearlRadius="2.7380424214283137" pearlCount="9" transform="translate(212.70559948615684,173.39130126552405)"><circle class="pool" r="13.777114320841541" cx="13.777114320841541" cy="13.777114320841541" style="stroke-width: 1; fill: rgb(65, 182, 196);"></circle><circle class="pearl" r="2.190433937142651" cx="17.133728784391195" cy="12.150161832295048"></circle><circle class="pearl" r="2.190433937142651" cx="10.606977578251815" cy="16.09987184193278"></circle><circle class="pearl" r="2.190433937142651" cx="13.982197356411032" cy="3.652249723186891"></circle><circle class="pearl" r="2.190433937142651" cx="19.111629744656003" cy="22.828824882793544"></circle><circle class="pearl" r="2.190433937142651" cx="3.669134817962549" cy="13.065090334500312"></circle><circle class="pearl" r="2.190433937142651" cx="21.394802474956695" cy="5.948303316866834"></circle><circle class="pearl" r="2.190433937142651" cx="11.225775843954688" cy="23.665207546669034"></circle><circle class="pearl" r="2.190433937142651" cx="6.359111024921538" cy="5.818267957422703"></circle><circle class="pearl" r="2.190433937142651" cx="23.645786960876617" cy="16.429436766821993"></circle></g><g class="bobaCup bright" cupRadius="13.598815096192302" width="27.197630192384604" height="27.197630192384604" pearlRadius="2.7380424214283132" pearlCount="9" transform="translate(233.544320096301,186.68856792941972)"><circle class="pool" r="13.598815096192302" cx="13.598815096192302" cy="13.598815096192302" style="stroke-width: 1; fill: rgb(127, 205, 187);"></circle><circle class="pearl" r="2.1904339371426507" cx="16.83987535177844" cy="11.843577436581862"></circle><circle class="pearl" r="2.1904339371426507" cx="10.57037975659017" cy="15.890840969645174"></circle><circle class="pearl" r="2.1904339371426507" cx="13.654703338200969" cy="3.650838073458748"></circle><circle class="pearl" r="2.1904339371426507" cx="18.92947876790335" cy="22.458559358467742"></circle><circle class="pearl" r="2.1904339371426507" cx="3.6565894688331957" cy="13.199423783700691"></circle><circle class="pearl" r="2.1904339371426507" cx="21.022448135336905" cy="5.855792473615559"></circle><circle class="pearl" r="2.1904339371426507" cx="11.076291490179303" cy="23.310900205599236"></circle><circle class="pearl" r="2.1904339371426507" cx="6.075577417855313" cy="5.921313977775978"></circle><circle class="pearl" r="2.1904339371426507" cx="23.328079166015314" cy="16.028570622009727"></circle></g><g class="bobaCup bright" cupRadius="13.393514406961222" width="26.787028813922444" height="26.787028813922444" pearlRadius="2.7380424214283132" pearlCount="9" transform="translate(13.040386606784638,86.2174366379894)"><circle class="pool" r="13.393514406961222" cx="13.393514406961222" cy="13.393514406961222" style="stroke-width: 1; fill: rgb(127, 205, 187);"></circle><circle class="pearl" r="2.1904339371426507" cx="15.518784167197317" cy="11.28338334272071"></circle><circle class="pearl" r="2.1904339371426507" cx="10.045189447656858" cy="16.65896180880628"></circle><circle class="pearl" r="2.1904339371426507" cx="13.498588327562677" cy="3.6511353944274747"></circle><circle class="pearl" r="2.1904339371426507" cx="20.843586810252148" cy="20.87304945729817"></circle><circle class="pearl" r="2.1904339371426507" cx="3.6531338328017187" cy="13.139413808826871"></circle><circle class="pearl" r="2.1904339371426507" cx="20.74560982379162" cy="5.84901896186187"></circle><circle class="pearl" r="2.1904339371426507" cx="13.479635607621006" cy="23.136028699925948"></circle><circle class="pearl" r="2.1904339371426507" cx="6.038010593276085" cy="5.851258058299922"></circle><circle class="pearl" r="2.1904339371426507" cx="23.136225370095882" cy="13.34716009836612"></circle></g><g class="bobaCup bright" cupRadius="13.384873425716929" width="26.769746851433858" height="26.769746851433858" pearlRadius="2.7380424214283132" pearlCount="9" transform="translate(199.71984257957146,173.58801269233686)"><circle class="pool" r="13.384873425716929" cx="13.384873425716929" cy="13.384873425716929" style="stroke-width: 1; fill: rgb(29, 145, 192);"></circle><circle class="pearl" r="2.1904339371426507" cx="15.487551785999512" cy="11.285832633746189"></circle><circle class="pearl" r="2.1904339371426507" cx="10.026136568957837" cy="16.69346729248298"></circle><circle class="pearl" r="2.1904339371426507" cx="13.47644527274828" cy="3.6510364740170713"></circle><circle class="pearl" r="2.1904339371426507" cx="20.83223155352577" cy="20.855826938475044"></circle><circle class="pearl" r="2.1904339371426507" cx="3.6528135507586557" cy="13.148329505160163"></circle><circle class="pearl" r="2.1904339371426507" cx="20.72589076536843" cy="5.843443106315253"></circle><circle class="pearl" r="2.1904339371426507" cx="13.519966954469442" cy="23.118341856000423"></circle><circle class="pearl" r="2.1904339371426507" cx="6.034051466334632" cy="5.849880175495685"></circle><circle class="pearl" r="2.1904339371426507" cx="23.118901492565634" cy="13.32769491383092"></circle></g><g class="bobaCup bright" cupRadius="13.26248628532791" width="26.52497257065582" height="26.52497257065582" pearlRadius="2.7380424214283137" pearlCount="9" transform="translate(269.5133995647816,174.25351828956724)"><circle class="pool" r="13.26248628532791" cx="13.26248628532791" cy="13.26248628532791" style="stroke-width: 1; fill: rgb(65, 182, 196);"></circle><circle class="pearl" r="2.190433937142651" cx="15.281613877618" cy="11.242164713745188"></circle><circle class="pearl" r="2.190433937142651" cx="9.86102213320653" cy="16.655849722197964"></circle><circle class="pearl" r="2.190433937142651" cx="13.330141834064783" cy="3.650895794368907"></circle><circle class="pearl" r="2.190433937142651" cx="20.60112560591337" cy="20.658840289711605"></circle><circle class="pearl" r="2.190433937142651" cx="3.6517342187062276" cy="13.09873200751258"></circle><circle class="pearl" r="2.190433937142651" cx="20.489236054072958" cy="5.792614644538171"></circle><circle class="pearl" r="2.190433937142651" cx="13.399860899468594" cy="22.8735378506485"></circle><circle class="pearl" r="2.190433937142651" cx="6.009428104449277" cy="5.809755569594076"></circle><circle class="pearl" r="2.190433937142651" cx="22.874215684599775" cy="13.232607149923922"></circle></g><g class="bobaCup bright" cupRadius="13.249088753112897" width="26.498177506225794" height="26.498177506225794" pearlRadius="2.7380424214283132" pearlCount="9" transform="translate(172.5546379124322,217.43766105361237)"><circle class="pool" r="13.249088753112897" cx="13.249088753112897" cy="13.249088753112897" style="stroke-width: 1; fill: rgb(65, 182, 196);"></circle><circle class="pearl" r="2.1904339371426507" cx="15.261375982459203" cy="11.236287977689065"></circle><circle class="pearl" r="2.1904339371426507" cx="9.843664148083448" cy="16.646195474827962"></circle><circle class="pearl" r="2.1904339371426507" cx="13.316175000595829" cy="3.6508930739669685"></circle><circle class="pearl" r="2.1904339371426507" cx="20.575475003517536" cy="20.637496708550113"></circle><circle class="pearl" r="2.1904339371426507" cx="3.651677237951371" cy="13.090096301192746"></circle><circle class="pearl" r="2.1904339371426507" cx="20.463494501656104" cy="5.78717491916595"></circle><circle class="pearl" r="2.1904339371426507" cx="13.380902960371257" cy="22.846798556513082"></circle><circle class="pearl" r="2.1904339371426507" cx="6.007442866498775" cy="5.804906950961661"></circle><circle class="pearl" r="2.1904339371426507" cx="22.847428393303137" cy="13.222899299651962"></circle></g><g class="bobaCup bright" cupRadius="13.0866600638304" width="26.1733201276608" height="26.1733201276608" pearlRadius="2.7380424214283137" pearlCount="9" transform="translate(275.65031069104054,121.85705696967108)"><circle class="pool" r="13.0866600638304" cx="13.0866600638304" cy="13.0866600638304" style="stroke-width: 1; fill: rgb(127, 205, 187);"></circle><circle class="pearl" r="2.190433937142651" cx="15.012873578554597" cy="11.168667394351468"></circle><circle class="pearl" r="2.190433937142651" cx="9.62525458374554" cy="16.53688936961725"></circle><circle class="pearl" r="2.190433937142651" cx="13.147211102588821" cy="3.6508633119804585"></circle><circle class="pearl" r="2.190433937142651" cx="20.264875524388312" cy="20.37823524226965"></circle><circle class="pearl" r="2.190433937142651" cx="3.6511378431187875" cy="12.98248872717117"></circle><circle class="pearl" r="2.190433937142651" cx="20.152136960576357" cy="5.721952849254807"></circle><circle class="pearl" r="2.190433937142651" cx="13.153707113870874" cy="22.522425146465434"></circle><circle class="pearl" r="2.190433937142651" cx="5.984344184099795" cy="5.745669105306737"></circle><circle class="pearl" r="2.190433937142651" cx="22.522580740182764" cy="13.10722537402541"></circle></g><g class="bobaCup bright" cupRadius="11.71093337635485" width="23.4218667527097" height="23.4218667527097" pearlRadius="2.738042421428314" pearlCount="7" transform="translate(45.12955445704062,62.95499534613632)"><circle class="pool" r="11.71093337635485" cx="11.71093337635485" cy="11.71093337635485" style="stroke-width: 1; fill: rgb(127, 205, 187);"></circle><circle class="pearl" r="2.1904339371426516" cx="12.328838720592513" cy="11.936475783344052"></circle><circle class="pearl" r="2.1904339371426516" cx="4.0773912778438" cy="14.843235496750317"></circle><circle class="pearl" r="2.1904339371426516" cx="12.012509742785552" cy="3.6546069236171363"></circle><circle class="pearl" r="2.1904339371426516" cx="18.152110768278266" cy="17.652271812387987"></circle><circle class="pearl" r="2.1904339371426516" cx="4.696725013265533" cy="6.873041822110796"></circle><circle class="pearl" r="2.1904339371426516" cx="19.00056279514872" cy="7.533057780227476"></circle><circle class="pearl" r="2.1904339371426516" cx="10.424880857930097" cy="19.700314505789983"></circle></g><g class="bobaCup bright" cupRadius="11.710096286474174" width="23.42019257294835" height="23.42019257294835" pearlRadius="2.7380424214283132" pearlCount="7" transform="translate(141.99330608498659,283.2830489348341)"><circle class="pool" r="11.710096286474174" cx="11.710096286474174" cy="11.710096286474174" style="stroke-width: 1; fill: rgb(65, 182, 196);"></circle><circle class="pearl" r="2.1904339371426507" cx="12.325069031577222" cy="11.933963820579223"></circle><circle class="pearl" r="2.1904339371426507" cx="4.077269052999774" cy="14.841844042754904"></circle><circle class="pearl" r="2.1904339371426507" cx="12.013437805483429" cy="3.6546528085037275"></circle><circle class="pearl" r="2.1904339371426507" cx="18.151696610882173" cy="17.649065922739364"></circle><circle class="pearl" r="2.1904339371426507" cx="4.6970423373360175" cy="6.871686284969157"></circle><circle class="pearl" r="2.1904339371426507" cx="19.00011166570412" cy="7.53557909831119"></circle><circle class="pearl" r="2.1904339371426507" cx="10.42489964004538" cy="19.698729767726206"></circle></g><g class="bobaCup bright" cupRadius="11.683750561194888" width="23.367501122389776" height="23.367501122389776" pearlRadius="2.738042421428314" pearlCount="7" transform="translate(217.84509465508182,82.38482140487677)"><circle class="pool" r="11.683750561194888" cx="11.683750561194888" cy="11.683750561194888" style="stroke-width: 1; fill: rgb(29, 145, 192);"></circle><circle class="pearl" r="2.1904339371426516" cx="12.2092510641875" cy="11.856561633410054"></circle><circle class="pearl" r="2.1904339371426516" cx="4.073104755138852" cy="14.796883170346527"></circle><circle class="pearl" r="2.1904339371426516" cx="12.043790854788714" cy="3.65627195201669"></circle><circle class="pearl" r="2.1904339371426516" cx="18.137891264968562" cy="17.54905124274736"></circle><circle class="pearl" r="2.1904339371426516" cx="4.707592835288969" cy="6.827885205195426"></circle><circle class="pearl" r="2.1904339371426516" cx="18.98594673494716" cy="7.616370109057369"></circle><circle class="pearl" r="2.1904339371426516" cx="10.424563911320277" cy="19.648726887837835"></circle></g><g class="bobaCup bright" cupRadius="11.61518281646856" width="23.23036563293712" height="23.23036563293712" pearlRadius="2.7380424214283137" pearlCount="7" transform="translate(285.79694618602554,73.57639570489798)"><circle class="pool" r="11.61518281646856" cx="11.61518281646856" cy="11.61518281646856" style="stroke-width: 1; fill: rgb(127, 205, 187);"></circle><circle class="pearl" r="2.190433937142651" cx="11.933004417243202" cy="11.667971947971333"></circle><circle class="pearl" r="2.190433937142651" cx="4.06176504560495" cy="14.677811805551801"></circle><circle class="pearl" r="2.190433937142651" cx="12.124627675059731" cy="3.6619007970211186"></circle><circle class="pearl" r="2.190433937142651" cx="18.09962776883629" cy="17.288879830239377"></circle><circle class="pearl" r="2.190433937142651" cx="4.7364019712440495" cy="6.711916984402297"></circle><circle class="pearl" r="2.190433937142651" cx="18.94528385642542" cy="7.8291598049571105"></circle><circle class="pearl" r="2.190433937142651" cx="10.422580909677903" cy="19.51825431309083"></circle></g><g class="bobaCup bright" cupRadius="11.590464406859125" width="23.18092881371825" height="23.18092881371825" pearlRadius="2.7380424214283137" pearlCount="7" transform="translate(307.05317848834017,86.60313512505611)"><circle class="pool" r="11.590464406859125" cx="11.590464406859125" cy="11.590464406859125" style="stroke-width: 1; fill: rgb(29, 145, 192);"></circle><circle class="pearl" r="2.190433937142651" cx="11.865203506060011" cy="11.63253252448781"></circle><circle class="pearl" r="2.190433937142651" cx="4.0564823535084145" cy="14.630404031789029"></circle><circle class="pearl" r="2.190433937142651" cx="12.147482903502652" cy="3.664115658411788"></circle><circle class="pearl" r="2.190433937142651" cx="18.0735260371576" cy="17.215877245115028"></circle><circle class="pearl" r="2.190433937142651" cx="4.748466460180843" cy="6.666881615319837"></circle><circle class="pearl" r="2.190433937142651" cx="18.921514572536513" cy="7.8837787870574285"></circle><circle class="pearl" r="2.190433937142651" cx="10.404743178735067" cy="19.469395567550723"></circle></g><g class="bobaCup bright" cupRadius="11.502770736756192" width="23.005541473512384" height="23.005541473512384" pearlRadius="2.738042421428314" pearlCount="7" transform="translate(188.0897011893734,231.6007628166095)"><circle class="pool" r="11.502770736756192" cx="11.502770736756192" cy="11.502770736756192" style="stroke-width: 1; fill: rgb(127, 205, 187);"></circle><circle class="pearl" r="2.1904339371426516" cx="11.632757222426648" cy="11.532250862018376"></circle><circle class="pearl" r="2.1904339371426516" cx="4.019304139351252" cy="14.391291386069014"></circle><circle class="pearl" r="2.1904339371426516" cx="12.28130430522268" cy="3.6770999277758727"></circle><circle class="pearl" r="2.1904339371426516" cx="17.96653868773306" cy="16.980982379365596"></circle><circle class="pearl" r="2.1904339371426516" cx="4.823508249112971" cy="6.442619580399004"></circle><circle class="pearl" r="2.1904339371426516" cx="18.847565295163157" cy="8.12455771525741"></circle><circle class="pearl" r="2.1904339371426516" cx="10.258436300782604" cy="19.287316041710014"></circle></g><g class="bobaCup bright" cupRadius="11.4143784458029" width="22.8287568916058" height="22.8287568916058" pearlRadius="2.738042421428314" pearlCount="7" transform="translate(87.95832386337914,215.77795309854253)"><circle class="pool" r="11.4143784458029" cx="11.4143784458029" cy="11.4143784458029" style="stroke-width: 1; fill: rgb(65, 182, 196);"></circle><circle class="pearl" r="2.1904339371426516" cx="11.44807385316899" cy="11.429462802068322"></circle><circle class="pearl" r="2.1904339371426516" cx="4.002437411582557" cy="14.226049605943643"></circle><circle class="pearl" r="2.1904339371426516" cx="12.353514450454112" cy="3.6894232827888236"></circle><circle class="pearl" r="2.1904339371426516" cx="17.859743041313983" cy="16.73951186689477"></circle><circle class="pearl" r="2.1904339371426516" cx="4.864983612773276" cy="6.2913298579582735"></circle><circle class="pearl" r="2.1904339371426516" cx="18.73900725927366" cy="8.279145941305396"></circle><circle class="pearl" r="2.1904339371426516" cx="10.166261927915397" cy="19.109590192445896"></circle></g><g class="bobaCup bright" cupRadius="11.082588717406164" width="22.16517743481233" height="22.16517743481233" pearlRadius="2.7380424214283137" pearlCount="6" transform="translate(142.14427771694508,57.197983570479906)"><circle class="pool" r="11.082588717406164" cx="11.082588717406164" cy="11.082588717406164" style="stroke-width: 1; fill: rgb(65, 182, 196);"></circle><circle class="pearl" r="2.190433937142651" cx="11.498633844428204" cy="11.227983637305549"></circle><circle class="pearl" r="2.190433937142651" cx="6.393247208331803" cy="17.473471380845112"></circle><circle class="pearl" r="2.190433937142651" cx="8.641053844115628" cy="3.9230075958821704"></circle><circle class="pearl" r="2.190433937142651" cx="16.836086581303544" cy="16.903984312483075"></circle><circle class="pearl" r="2.190433937142651" cx="3.702824866328239" cy="10.009216710656103"></circle><circle class="pearl" r="2.190433937142651" cx="16.87946069742139" cy="5.288909622575716"></circle></g><g class="bobaCup bright" cupRadius="10.966064292599116" width="21.93212858519823" height="21.93212858519823" pearlRadius="2.738042421428314" pearlCount="6" transform="translate(309.0339357074009,214.3148689380302)"><circle class="pool" r="10.966064292599116" cx="10.966064292599116" cy="10.966064292599116" style="stroke-width: 1; fill: rgb(127, 205, 187);"></circle><circle class="pearl" r="2.1904339371426516" cx="11.3577788682343" cy="11.183922400834328"></circle><circle class="pearl" r="2.1904339371426516" cx="6.046588733121104" cy="17.116020953153882"></circle><circle class="pearl" r="2.1904339371426516" cx="8.883044855457536" cy="3.8503769728998205"></circle><circle class="pearl" r="2.1904339371426516" cx="16.60145064695783" cy="16.722624769036877"></circle><circle class="pearl" r="2.1904339371426516" cx="3.737002278638585" cy="9.59316985171569"></circle><circle class="pearl" r="2.1904339371426516" cx="16.670880187157817" cy="5.2514449391496285"></circle></g><g class="bobaCup bright" cupRadius="10.74106063317692" width="21.48212126635384" height="21.48212126635384" pearlRadius="2.7380424214283137" pearlCount="6" transform="translate(9.25893936682308,157.91919592959374)"><circle class="pool" r="10.74106063317692" cx="10.74106063317692" cy="10.74106063317692" style="stroke-width: 1; fill: rgb(65, 182, 196);"></circle><circle class="pearl" r="2.190433937142651" cx="11.054363916812997" cy="11.023774734720794"></circle><circle class="pearl" r="2.190433937142651" cx="5.295841554936079" cy="16.34884553040801"></circle><circle class="pearl" r="2.190433937142651" cx="8.86527728939023" cy="3.815781763943967"></circle><circle class="pearl" r="2.190433937142651" cx="16.166287636947214" cy="16.360574482649987"></circle><circle class="pearl" r="2.190433937142651" cx="3.799592055669139" cy="8.958967406429586"></circle><circle class="pearl" r="2.190433937142651" cx="16.281362389052948" cy="5.189857977487691"></circle></g><g class="bobaCup bright" cupRadius="10.61162462641257" width="21.22324925282514" height="21.22324925282514" pearlRadius="2.7380424214283146" pearlCount="6" transform="translate(220.5951917400428,282.4107052733656)"><circle class="pool" r="10.61162462641257" cx="10.61162462641257" cy="10.61162462641257" style="stroke-width: 1; fill: rgb(65, 182, 196);"></circle><circle class="pearl" r="2.1904339371426516" cx="10.948893060157006" cy="10.904767360733512"></circle><circle class="pearl" r="2.1904339371426516" cx="5.297022287170177" cy="16.145757367730454"></circle><circle class="pearl" r="2.1904339371426516" cx="8.719886484348546" cy="3.8207050716977866"></circle><circle class="pearl" r="2.1904339371426516" cx="15.908807371665322" cy="16.155814783800174"></circle><circle class="pearl" r="2.1904339371426516" cx="3.792672568373237" cy="8.881746999288398"></circle><circle class="pearl" r="2.1904339371426516" cx="16.030631934569264" cy="5.138700722064164"></circle></g><g class="bobaCup bright" cupRadius="10.477825946298282" width="20.955651892596563" height="20.955651892596563" pearlRadius="2.7380424214283137" pearlCount="5" transform="translate(49.632790431615135,128.23167633139818)"><circle class="pool" r="10.477825946298282" cx="10.477825946298282" cy="10.477825946298282" style="stroke-width: 1; fill: rgb(29, 145, 192);"></circle><circle class="pearl" r="2.190433937142651" cx="16.523633830061105" cy="8.148042486271326"></circle><circle class="pearl" r="2.190433937142651" cx="7.425408714103675" cy="15.930236908965826"></circle><circle class="pearl" r="2.190433937142651" cx="9.902656687031945" cy="3.6665217956222413"></circle><circle class="pearl" r="2.190433937142651" cx="15.419331403192754" cy="16.066494493185342"></circle><circle class="pearl" r="2.190433937142651" cx="3.7838954349337275" cy="8.812600567631154"></circle></g><g class="bobaCup bright" cupRadius="10.251350874475563" width="20.502701748951125" height="20.502701748951125" pearlRadius="2.7380424214283137" pearlCount="5" transform="translate(140.2227616320103,175.23275866436063)"><circle class="pool" r="10.251350874475563" cx="10.251350874475563" cy="10.251350874475563" style="stroke-width: 1; fill: rgb(127, 205, 187);"></circle><circle class="pearl" r="2.190433937142651" cx="16.5416771706365" cy="7.748207031538017"></circle><circle class="pearl" r="2.190433937142651" cx="7.158572035833215" cy="16.23426213516243"></circle><circle class="pearl" r="2.190433937142651" cx="9.668235844255562" cy="3.6673209739700887"></circle><circle class="pearl" r="2.190433937142651" cx="15.129772749866317" cy="15.616790618994518"></circle><circle class="pearl" r="2.190433937142651" cx="3.725649244566732" cy="9.014188051188782"></circle></g><g class="bobaCup bright" cupRadius="9.90163085575062" width="19.80326171150124" height="19.80326171150124" pearlRadius="2.738042421428314" pearlCount="5" transform="translate(132.92849291930548,234.92481465866214)"><circle class="pool" r="9.90163085575062" cx="9.90163085575062" cy="9.90163085575062" style="stroke-width: 1; fill: rgb(65, 182, 196);"></circle><circle class="pearl" r="2.1904339371426516" cx="15.754636738777481" cy="7.122885351585387"></circle><circle class="pearl" r="2.1904339371426516" cx="7.005893399092508" cy="15.719645567668753"></circle><circle class="pearl" r="2.1904339371426516" cx="9.05964785891367" cy="3.686587097584678"></circle><circle class="pearl" r="2.1904339371426516" cx="14.792297714911786" cy="14.860418140342023"></circle><circle class="pearl" r="2.1904339371426516" cx="3.6970017164762674" cy="8.94542830965693"></circle></g><g class="bobaCup bright" cupRadius="9.179687234505332" width="18.359374469010664" height="18.359374469010664" pearlRadius="2.7380424214283137" pearlCount="4" transform="translate(198.0713097325209,290.8203127654947)"><circle class="pool" r="9.179687234505332" cx="9.179687234505332" cy="9.179687234505332" style="stroke-width: 1; fill: rgb(65, 182, 196);"></circle><circle class="pearl" r="2.190433937142651" cx="14.127652699411772" cy="5.965778325403838"></circle><circle class="pearl" r="2.190433937142651" cx="5.209531692827133" cy="12.04674015743923"></circle><circle class="pearl" r="2.190433937142651" cx="6.354189471467572" cy="4.096383893709412"></circle><circle class="pearl" r="2.190433937142651" cx="12.99165590749874" cy="13.879745559744467"></circle></g><g class="bobaCup bright" cupRadius="9.17554548636809" width="18.35109097273618" height="18.35109097273618" pearlRadius="2.7380424214283132" pearlCount="4" transform="translate(12.315862951672141,159.9901387530381)"><circle class="pool" r="9.17554548636809" cx="9.17554548636809" cy="9.17554548636809" style="stroke-width: 1; fill: rgb(29, 145, 192);"></circle><circle class="pearl" r="2.1904339371426507" cx="14.117550986124147" cy="5.957526223872717"></circle><circle class="pearl" r="2.1904339371426507" cx="5.202836625520945" cy="12.040695531176778"></circle><circle class="pearl" r="2.1904339371426507" cx="6.341385688489725" cy="4.099403687192962"></circle><circle class="pearl" r="2.1904339371426507" cx="12.985352403114474" cy="13.872037735399179"></circle></g><g class="bobaCup bright" cupRadius="8.729061830353018" width="17.458123660706036" height="17.458123660706036" pearlRadius="2.7380424214283137" pearlCount="4" transform="translate(187.84175789655768,199.75804804425553)"><circle class="pool" r="8.729061830353018" cx="8.729061830353018" cy="8.729061830353018" style="stroke-width: 1; fill: rgb(127, 205, 187);"></circle><circle class="pearl" r="2.190433937142651" cx="12.96220351457482" cy="4.981903643812294"></circle><circle class="pearl" r="2.190433937142651" cx="4.495920146131215" cy="12.476220016893743"></circle><circle class="pearl" r="2.190433937142651" cx="4.981903643812295" cy="4.495920146131215"></circle><circle class="pearl" r="2.190433937142651" cx="12.476220016893743" cy="12.96220351457482"></circle></g><g class="bobaCup bright" cupRadius="7.8658074175431905" width="15.731614835086381" height="15.731614835086381" pearlRadius="2.7380424214283137" pearlCount="3" transform="translate(212.2680473784299,104.56589405979555)"><circle class="pool" r="7.8658074175431905" cx="7.8658074175431905" cy="7.8658074175431905" style="stroke-width: 1; fill: rgb(127, 205, 187);"></circle><circle class="pearl" r="2.190433937142651" cx="11.959230047438721" cy="9.243897128945113"></circle><circle class="pearl" r="2.190433937142651" cx="4.475090192184999" cy="11.312545920291036"></circle><circle class="pearl" r="2.190433937142651" cx="6.253279609380225" cy="3.8177852679517645"></circle></g><g class="bobaCup bright" cupRadius="7.71214731701214" width="15.42429463402428" height="15.42429463402428" pearlRadius="2.7380424214283137" pearlCount="3" transform="translate(45.57215476284009,80.40036478594719)"><circle class="pool" r="7.71214731701214" cx="7.71214731701214" cy="7.71214731701214" style="stroke-width: 1; fill: rgb(29, 145, 192);"></circle><circle class="pearl" r="2.190433937142651" cx="11.698711872331451" cy="8.784085536004287"></circle><circle class="pearl" r="2.190433937142651" cx="4.49997567570565" cy="11.072784126699247"></circle><circle class="pearl" r="2.190433937142651" cx="5.68969077608983" cy="3.9206339342292083"></circle></g><g class="bobaCup bright" cupRadius="7.657697375219003" width="15.315394750438006" height="15.315394750438006" pearlRadius="2.738042421428314" pearlCount="3" transform="translate(175.41363116597253,291.0457389755232)"><circle class="pool" r="7.657697375219003" cx="7.657697375219003" cy="7.657697375219003" style="stroke-width: 1; fill: rgb(127, 205, 187);"></circle><circle class="pearl" r="2.1904339371426516" cx="11.617596558898256" cy="8.505491919073153"></circle><circle class="pearl" r="2.1904339371426516" cx="4.517407933358626" cy="10.991164243701139"></circle><circle class="pearl" r="2.1904339371426516" cx="5.380867450108022" cy="3.9970339649537086"></circle></g><g class="bobaCup bright" cupRadius="7.460243246517763" width="14.920486493035526" height="14.920486493035526" pearlRadius="2.7380424214283137" pearlCount="3" transform="translate(206.57532539000815,223.074597106744)"><circle class="pool" r="7.460243246517763" cx="7.460243246517763" cy="7.460243246517763" style="stroke-width: 1; fill: rgb(65, 182, 196);"></circle><circle class="pearl" r="2.190433937142651" cx="11.269762867664685" cy="7.462676443028724"></circle><circle class="pearl" r="2.190433937142651" cx="4.556114260727217" cy="10.681293015587467"></circle><circle class="pearl" r="2.190433937142651" cx="4.555930004748018" cy="4.239271350092774"></circle></g><g class="bobaCup bright" cupRadius="7.005679492586521" width="14.011358985173041" height="14.011358985173041" pearlRadius="2.738042421428314" pearlCount="2" transform="translate(137.0431183996004,116.5728932070678)"><circle class="pool" r="7.005679492586521" cx="7.005679492586521" cy="7.005679492586521" style="stroke-width: 1; fill: rgb(127, 205, 187);"></circle><circle class="pearl" r="2.1904339371426516" cx="9.773524087066981" cy="4.220675765043586"></circle><circle class="pearl" r="2.1904339371426516" cx="4.237834898106062" cy="9.790683220129456"></circle></g><g class="bobaCup bright" cupRadius="5.862022578884297" width="11.724045157768593" height="11.724045157768593" pearlRadius="2.738042421428314" pearlCount="2" transform="translate(65.56604476761682,259.8757045399793)"><circle class="pool" r="5.862022578884297" cx="5.862022578884297" cy="5.862022578884297" style="stroke-width: 1; fill: rgb(127, 205, 187);"></circle><circle class="pearl" r="2.1904339371426516" cx="7.64024620017771" cy="3.92693973598965"></circle><circle class="pearl" r="2.1904339371426516" cx="4.083798957590883" cy="7.797105421778944"></circle></g><g class="bobaCup bright" cupRadius="5.527047726731283" width="11.054095453462566" height="11.054095453462566" pearlRadius="2.7380424214283146" pearlCount="2" transform="translate(160.82936544820313,209.66738948013233)"><circle class="pool" r="5.527047726731283" cx="5.527047726731283" cy="5.527047726731283" style="stroke-width: 1; fill: rgb(29, 145, 192);"></circle><circle class="pearl" r="2.1904339371426516" cx="7.075138108126352" cy="3.871955961863801"></circle><circle class="pearl" r="2.1904339371426516" cx="3.9789573453362133" cy="7.182139491598764"></circle></g><g class="bobaCup bright" cupRadius="5.465357607556584" width="10.930715215113167" height="10.930715215113167" pearlRadius="2.7380424214283137" pearlCount="1" transform="translate(239.33894981215622,15.312914121593792)"><circle class="pool" r="5.465357607556584" cx="5.465357607556584" cy="5.465357607556584" style="stroke-width: 1; fill: rgb(127, 205, 187);"></circle><circle class="pearl" r="2.190433937142651" cx="7.21854220986963" cy="5.465357607556584"></circle></g><g class="bobaCup bright" cupRadius="4.1259957594931524" width="8.251991518986305" height="8.251991518986305" pearlRadius="2.738042421428314" pearlCount="1" transform="translate(171.39912131276742,17.47061622624159)"><circle class="pool" r="4.1259957594931524" cx="4.1259957594931524" cy="4.1259957594931524" style="stroke-width: 1; fill: rgb(29, 145, 192);"></circle><circle class="pearl" r="2.1904339371426516" cx="4.60126829041522" cy="4.1259957594931524"></circle></g><g class="bobaCup bright" cupRadius="3.0314773322560877" width="6.0629546645121755" height="6.0629546645121755" pearlRadius="2.7380424214283137" pearlCount="0" transform="translate(67.06577973550175,200.51216693348735)"><circle class="pool" r="3.0314773322560877" cx="3.0314773322560877" cy="3.0314773322560877" style="stroke-width: 1; fill: rgb(65, 182, 196);"></circle></g><g class="bobaCup bright" cupRadius="2.4278443901580724" width="4.855688780316145" height="4.855688780316145" pearlRadius="2.7380424214283132" pearlCount="0" transform="translate(32.81996144884984,89.01148481125563)"><circle class="pool" r="2.4278443901580724" cx="2.4278443901580724" cy="2.4278443901580724" style="stroke-width: 1; fill: rgb(29, 145, 192);"></circle></g><g class="bobaCup bright" cupRadius="0" width="0" height="0" pearlRadius="NaN" pearlCount="0" transform="translate(20,300)"><circle class="pool" r="0" cx="0" cy="0" style="stroke-width: 1; fill: rgb(65, 182, 196);"></circle></g><g class="bobaCup bright" cupRadius="0" width="0" height="0" pearlRadius="NaN" pearlCount="0" transform="translate(277.75015694650745,121.90845777936224)"><circle class="pool" r="0" cx="0" cy="0" style="stroke-width: 1; fill: rgb(29, 145, 192);"></circle></g></g><g id="legendDividerGroup" transform="translate(410,0)" height="400"><rect class="legendDivider" height="400" width="90"></rect></g><g id="legend" transform="translate(410,30)" width="90" height="320"><rect class="legendBorder" transform="translate(0,0)" width="90" height="324.9477195110013"></rect><text id="rTitle" text-anchor="middle" alignment-baseline="hanging" transform="translate(45,10)" x="0" y="0" style="fill: black; font-size: 0.8rem;">Population</text><text id="bobaValue" text-anchor="middle" alignment-baseline="hanging" transform="translate(45,25)" x="0" y="0" style="fill: black; font-size: 0.7rem;">(1 Pearl =   75)</text><g class="bright" cupRadius="8.94427190999916" width="17.88854381999832" height="17.88854381999832" pearlRadius="2.7380424214283137" pearlCount="4" transform="translate(36.05572809000084,50)"><circle class="pool" r="8.94427190999916" cx="8.94427190999916" cy="8.94427190999916" style="stroke-width: 1; fill: rgb(127, 205, 187);"></circle><circle class="pearl" r="2.190433937142651" cx="13.542613460651712" cy="5.486970900805415"></circle><circle class="pearl" r="2.190433937142651" cx="4.749399498236599" cy="12.229516637519533"></circle><circle class="pearl" r="2.190433937142651" cx="5.6385452023940825" cy="4.284028231246733"></circle><circle class="pearl" r="2.190433937142651" cx="12.653467756495177" cy="13.432459307079196"></circle></g><text id="0" class="legendSampleValue" text-anchor="middle" transform="translate(45,8)" x="0" y="72.88854381999832" style="fill: black; font-size: 0.7rem;"> 300</text><g class="bright" cupRadius="12.649110640673518" width="25.298221281347036" height="25.298221281347036" pearlRadius="2.7380424214283137" pearlCount="8" transform="translate(32.35088935932648,92.88854381999832)"><circle class="pool" r="12.649110640673518" cx="12.649110640673518" cy="12.649110640673518" style="stroke-width: 1; fill: rgb(127, 205, 187);"></circle><circle class="pearl" r="2.190433937142651" cx="14.071403428550026" cy="12.846878791771143"></circle><circle class="pearl" r="2.190433937142651" cx="6.440581911774749" cy="19.57795138257092"></circle><circle class="pearl" r="2.190433937142651" cx="15.10273708455154" cy="3.8909774644866477"></circle><circle class="pearl" r="2.190433937142651" cx="20.833946229646862" cy="17.112242666106596"></circle><circle class="pearl" r="2.190433937142651" cx="3.6634707295578792" cy="12.081372495075817"></circle><circle class="pearl" r="2.190433937142651" cx="21.1462151053254" cy="9.123450087562194"></circle><circle class="pearl" r="2.190433937142651" cx="14.187116834584868" cy="21.553646746241665"></circle><circle class="pearl" r="2.190433937142651" cx="7.171845845081948" cy="4.898098459274186"></circle></g><text id="1" class="legendSampleValue" text-anchor="middle" transform="translate(45,8)" x="0" y="123.18676510134536" style="fill: black; font-size: 0.7rem;"> 600</text><g class="bright" cupRadius="15.491933384829668" width="30.983866769659336" height="30.983866769659336" pearlRadius="2.738042421428314" pearlCount="12" transform="translate(29.508066615170332,143.18676510134537)"><circle class="pool" r="15.491933384829668" cx="15.491933384829668" cy="15.491933384829668" style="stroke-width: 1; fill: rgb(127, 205, 187);"></circle><circle class="pearl" r="2.1904339371426516" cx="17.033011743384765" cy="11.01737610913958"></circle><circle class="pearl" r="2.1904339371426516" cx="11.029309432951333" cy="17.00347040031935"></circle><circle class="pearl" r="2.1904339371426516" cx="13.977981653444434" cy="3.724876288236054"></circle><circle class="pearl" r="2.1904339371426516" cx="18.741808845067855" cy="18.756462357333643"></circle><circle class="pearl" r="2.1904339371426516" cx="3.725529689195627" cy="13.971342248807428"></circle><circle class="pearl" r="2.1904339371426516" cx="26.98661348100194" cy="12.233596672509572"></circle><circle class="pearl" r="2.1904339371426516" cx="12.152198575888569" cy="26.968872613027877"></circle><circle class="pearl" r="2.1904339371426516" cx="6.524197378590721" cy="6.5101702816287865"></circle><circle class="pearl" r="2.1904339371426516" cx="26.508263068801252" cy="20.479674242239334"></circle><circle class="pearl" r="2.1904339371426516" cx="5.419021306595209" cy="22.679550094546478"></circle><circle class="pearl" r="2.1904339371426516" cx="22.76079804957651" cy="5.461881544509561"></circle><circle class="pearl" r="2.1904339371426516" cx="20.400071923945557" cy="26.535092423407907"></circle></g><text id="2" class="legendSampleValue" text-anchor="middle" transform="translate(45,8)" x="0" y="179.1706318710047" style="fill: black; font-size: 0.7rem;"> 900</text><g class="bright" cupRadius="17.88854381999832" width="35.77708763999664" height="35.77708763999664" pearlRadius="2.7380424214283137" pearlCount="16" transform="translate(27.11145618000168,199.1706318710047)"><circle class="pool" r="17.88854381999832" cx="17.88854381999832" cy="17.88854381999832" style="stroke-width: 1; fill: rgb(127, 205, 187);"></circle><circle class="pearl" r="2.190433937142651" cx="19.8046930625516" cy="19.706925044831756"></circle><circle class="pearl" r="2.190433937142651" cx="13.339172784724305" cy="23.858410298028698"></circle><circle class="pearl" r="2.190433937142651" cx="16.092791630714295" cy="11.113543243945612"></circle><circle class="pearl" r="2.190433937142651" cx="20.836129534048155" cy="27.499380517199565"></circle><circle class="pearl" r="2.190433937142651" cx="10.312657514553905" cy="16.56124087753138"></circle><circle class="pearl" r="2.190433937142651" cx="23.678755837700653" cy="13.13675787817294"></circle><circle class="pearl" r="2.190433937142651" cx="14.311679794483911" cy="31.765114841909277"></circle><circle class="pearl" r="2.190433937142651" cx="11.081450997216843" cy="4.99648955196875"></circle><circle class="pearl" r="2.190433937142651" cx="27.674351504393126" cy="20.796258814455655"></circle><circle class="pearl" r="2.190433937142651" cx="4.000488629236898" cy="21.40866477780026"></circle><circle class="pearl" r="2.190433937142651" cx="28.333596734388347" cy="7.01684061165493"></circle><circle class="pearl" r="2.190433937142651" cx="28.522531366621063" cy="28.62247591779055"></circle><circle class="pearl" r="2.190433937142651" cx="5.30391541992303" cy="10.377661215789304"></circle><circle class="pearl" r="2.190433937142651" cx="31.694235049536697" cy="13.980399213320233"></circle><circle class="pearl" r="2.190433937142651" cx="7.311073872078207" cy="28.66408585659018"></circle><circle class="pearl" r="2.190433937142651" cx="18.987039995684725" cy="3.684483203560177"></circle></g><text id="3" class="legendSampleValue" text-anchor="middle" transform="translate(45,8)" x="0" y="239.94771951100134" style="fill: black; font-size: 0.7rem;">1.2k</text><g class="bright" cupRadius="20" width="40" height="40" pearlRadius="2.7380424214283137" pearlCount="20" transform="translate(25,259.9477195110013)"><circle class="pool" r="20" cx="20" cy="20" style="stroke-width: 1; fill: rgb(127, 205, 187);"></circle><circle class="pearl" r="2.190433937142651" cx="22.480421380823074" cy="19.96094551607325"></circle><circle class="pearl" r="2.190433937142651" cx="14.554532211889109" cy="20.25858246523202"></circle><circle class="pearl" r="2.190433937142651" cx="21.718613402750453" cy="11.231225788085391"></circle><circle class="pearl" r="2.190433937142651" cx="25.13767186853209" cy="27.447308990534317"></circle><circle class="pearl" r="2.190433937142651" cx="6.622341466842937" cy="15.212813608895589"></circle><circle class="pearl" r="2.190433937142651" cx="28.49521909515808" cy="14.82158787688231"></circle><circle class="pearl" r="2.190433937142651" cx="17.504603283401977" cy="28.993209871734443"></circle><circle class="pearl" r="2.190433937142651" cx="14.13811847195522" cy="12.373399584276378"></circle><circle class="pearl" r="2.190433937142651" cx="31.11803529924844" cy="22.444175683247455"></circle><circle class="pearl" r="2.190433937142651" cx="10.013176726772668" cy="26.767604068489224"></circle><circle class="pearl" r="2.190433937142651" cx="25.1625299271706" cy="4.328500666167248"></circle><circle class="pearl" r="2.190433937142651" cx="27.782608687955303" cy="34.772930101052836"></circle><circle class="pearl" r="2.190433937142651" cx="8.036930275650786" cy="7.623092000895575"></circle><circle class="pearl" r="2.190433937142651" cx="36.040664285033515" cy="16.500106031740792"></circle><circle class="pearl" r="2.190433937142651" cx="11.3070075503718" cy="34.36126950601293"></circle><circle class="pearl" r="2.190433937142651" cx="16.81383473400994" cy="3.9061454691506903"></circle><circle class="pearl" r="2.190433937142651" cx="33.74247113697989" cy="29.87303346303284"></circle><circle class="pearl" r="2.190433937142651" cx="3.788525504185259" cy="22.343736665541265"></circle><circle class="pearl" r="2.190433937142651" cx="32.18050534208177" cy="7.787706818962306"></circle><circle class="pearl" r="2.190433937142651" cx="20.00567962395882" cy="36.34927596497569"></circle></g><text id="4" class="legendSampleValue" text-anchor="middle" transform="translate(45,8)" x="0" y="304.9477195110013" style="fill: black; font-size: 0.7rem;">1.5k</text></g></svg>