<?xml version="1.0" standalone="no"?>
<?xml-stylesheet xmlns="http://www.w3.org/2000/svg" type="text/css" href="style.css"?>
<svg id="syntheticVisC" class="default" xTitle="Percent Cat Owners" yTitle="Percent Dog Owners" rTitle="Population" chartTitle="Towns in Vizzyland" width="500" height="400" xmlns="http://www.w3.org/2000/svg"><rect class="background" width="500" height="400"></rect><text id="chartTitle" text-anchor="middle" transform="translate(250,20)" x="0" y="0" style="fill: black; font-size: 1.2rem;">Towns in Vizzyland</text><g id="yAxis" transform="translate(50,30)" fill="none" font-size="10" font-family="sans-serif" text-anchor="end"><path class="domain" stroke="currentColor" d="M-6,300H0V20H-6"></path><g class="tick" opacity="1" transform="translate(0,300)"><line stroke="currentColor" x2="-6"></line><text fill="currentColor" x="-9" dy="0.32em">0</text></g><g class="tick" opacity="1" transform="translate(0,272)"><line stroke="currentColor" x2="-6"></line><text fill="currentColor" x="-9" dy="0.32em">10</text></g><g class="tick" opacity="1" transform="translate(0,244)"><line stroke="currentColor" x2="-6"></line><text fill="currentColor" x="-9" dy="0.32em">20</text></g><g class="tick" opacity="1" transform="translate(0,216)"><line stroke="currentColor" x2="-6"></line><text fill="currentColor" x="-9" dy="0.32em">30</text></g><g class="tick" opacity="1" transform="translate(0,188)"><line stroke="currentColor" x2="-6"></line><text fill="currentColor" x="-9" dy="0.32em">40</text></g><g class="tick" opacity="1" transform="translate(0,160)"><line stroke="currentColor" x2="-6"></line><text fill="currentColor" x="-9" dy="0.32em">50</text></g><g class="tick" opacity="1" transform="translate(0,132)"><line stroke="currentColor" x2="-6"></line><text fill="currentColor" x="-9" dy="0.32em">60</text></g><g class="tick" opacity="1" transform="translate(0,104.00000000000001)"><line stroke="currentColor" x2="-6"></line><text fill="currentColor" x="-9" dy="0.32em">70</text></g><g class="tick" opacity="1" transform="translate(0,75.99999999999999)"><line stroke="currentColor" x2="-6"></line><text fill="currentColor" x="-9" dy="0.32em">80</text></g><g class="tick" opacity="1" transform="translate(0,47.99999999999999)"><line stroke="currentColor" x2="-6"></line><text fill="currentColor" x="-9" dy="0.32em">90</text></g><g class="tick" opacity="1" transform="translate(0,20)"><line stroke="currentColor" x2="-6"></line><text fill="currentColor" x="-9" dy="0.32em">100</text></g></g><g id="xAxis" transform="translate(60,360)" fill="none" font-size="10" font-family="sans-serif" text-anchor="middle"><path class="domain" stroke="currentColor" d="M20,6V0H320V6"></path><g class="tick" opacity="1" transform="translate(20,0)"><line stroke="currentColor" y2="6"></line><text fill="currentColor" y="9" dy="0.71em">0</text></g><g class="tick" opacity="1" transform="translate(50.000000000000014,0)"><line stroke="currentColor" y2="6"></line><text fill="currentColor" y="9" dy="0.71em">10</text></g><g class="tick" opacity="1" transform="translate(80.00000000000003,0)"><line stroke="currentColor" y2="6"></line><text fill="currentColor" y="9" dy="0.71em">20</text></g><g class="tick" opacity="1" transform="translate(110.00000000000003,0)"><line stroke="currentColor" y2="6"></line><text fill="currentColor" y="9" dy="0.71em">30</text></g><g class="tick" opacity="1" transform="translate(140.00000000000006,0)"><line stroke="currentColor" y2="6"></line><text fill="currentColor" y="9" dy="0.71em">40</text></g><g class="tick" opacity="1" transform="translate(170.00000000000003,0)"><line stroke="currentColor" y2="6"></line><text fill="currentColor" y="9" dy="0.71em">50</text></g><g class="tick" opacity="1" transform="translate(200.00000000000006,0)"><line stroke="currentColor" y2="6"></line><text fill="currentColor" y="9" dy="0.71em">60</text></g><g class="tick" opacity="1" transform="translate(230.00000000000006,0)"><line stroke="currentColor" y2="6"></line><text fill="currentColor" y="9" dy="0.71em">70</text></g><g class="tick" opacity="1" transform="translate(260.0000000000001,0)"><line stroke="currentColor" y2="6"></line><text fill="currentColor" y="9" dy="0.71em">80</text></g><g class="tick" opacity="1" transform="translate(290.00000000000006,0)"><line stroke="currentColor" y2="6"></line><text fill="currentColor" y="9" dy="0.71em">90</text></g></g><g id="labels"><text id="xTitle" text-anchor="middle" transform="translate(250,350)" x="0" y="40" style="fill: black; font-size: 0.8rem;">Percent Cat Owners</text><g id="group-yTitle" transform="translate(60,190)"><text id="yTitle" text-anchor="middle" transform="rotate(-90)" y="-45" style="fill: black; font-size: 0.8rem;">Percent Dog Owners</text></g></g><g id="quadrant_lines" transform="translate(60,30)"><line id="verticalQuadrantLine" x1="170" y1="10" x2="170" y2="310" class="quadrantLine"></line><line id="horizontalQuadrantLine" x1="10" y1="160" x2="330" y2="160" class="quadrantLine"></line></g><g id="chart" transform="translate(60,30)"><g class="bobaCup bright" cupRadius="20" width="40" height="40" pearlRadius="2.7380424214283137" pearlCount="20" transform="translate(103.95145018418455,251.70141286889663)"><circle class="pool" r="20" cx="20" cy="20" style="stroke-width: 1; fill: rgb(65, 182, 196);"></circle><circle class="pearl" r="2.190433937142651" cx="22.480421380823074" cy="19.96094551607325"></circle><circle class="pearl" r="2.190433937142651" cx="14.554532211889109" cy="20.25858246523202"></circle><circle class="pearl" r="2.190433937142651" cx="21.718613402750453" cy="11.231225788085391"></circle><circle class="pearl" r="2.190433937142651" cx="25.13767186853209" cy="27.447308990534317"></circle><circle class="pearl" r="2.190433937142651" cx="6.622341466842937" cy="15.212813608895589"></circle><circle class="pearl" r="2.190433937142651" cx="28.49521909515808" cy="14.82158787688231"></circle><circle class="pearl" r="2.190433937142651" cx="17.504603283401977" cy="28.993209871734443"></circle><circle class="pearl" r="2.190433937142651" cx="14.13811847195522" cy="12.373399584276378"></circle><circle class="pearl" r="2.190433937142651" cx="31.11803529924844" cy="22.444175683247455"></circle><circle class="pearl" r="2.190433937142651" cx="10.013176726772668" cy="26.767604068489224"></circle><circle class="pearl" r="2.190433937142651" cx="25.1625299271706" cy="4.328500666167248"></circle><circle class="pearl" r="2.190433937142651" cx="27.782608687955303" cy="34.772930101052836"></circle><circle class="pearl" r="2.190433937142651" cx="8.036930275650786" cy="7.623092000895575"></circle><circle class="pearl" r="2.190433937142651" cx="36.040664285033515" cy="16.500106031740792"></circle><circle class="pearl" r="2.190433937142651" cx="11.3070075503718" cy="34.36126950601293"></circle><circle class="pearl" r="2.190433937142651" cx="16.81383473400994" cy="3.9061454691506903"></circle><circle class="pearl" r="2.190433937142651" cx="33.74247113697989" cy="29.87303346303284"></circle><circle class="pearl" r="2.190433937142651" cx="3.788525504185259" cy="22.343736665541265"></circle><circle class="pearl" r="2.190433937142651" cx="32.18050534208177" cy="7.787706818962306"></circle><circle class="pearl" r="2.190433937142651" cx="20.00567962395882" cy="36.34927596497569"></circle></g><g class="bobaCup bright" cupRadius="18.87727501373339" width="37.75455002746678" height="37.75455002746678" pearlRadius="2.7380424214283132" pearlCount="18" transform="translate(197.1545668292748,240.9633378641643)"><circle class="pool" r="18.87727501373339" cx="18.87727501373339" cy="18.87727501373339" style="stroke-width: 1; fill: rgb(65, 182, 196);"></circle><circle class="pearl" r="2.1904339371426507" cx="19.225453738242436" cy="18.481065135466924"></circle><circle class="pearl" r="2.1904339371426507" cx="13.668646618381224" cy="24.223844588023212"></circle><circle class="pearl" r="2.1904339371426507" cx="18.553270569924607" cy="10.653621004510532"></circle><circle class="pearl" r="2.1904339371426507" cx="21.406667367794288" cy="25.99943716490162"></circle><circle class="pearl" r="2.1904339371426507" cx="11.85803383206419" cy="15.486824020980134"></circle><circle class="pearl" r="2.1904339371426507" cx="25.921327572601996" cy="14.142891251283295"></circle><circle class="pearl" r="2.1904339371426507" cx="16.37543084843207" cy="32.276264296955986"></circle><circle class="pearl" r="2.1904339371426507" cx="13.693977287768332" cy="4.376278306493201"></circle><circle class="pearl" r="2.1904339371426507" cx="28.22105014100526" cy="21.77549510475389"></circle><circle class="pearl" r="2.1904339371426507" cx="5.705790068502988" cy="23.526485984729852"></circle><circle class="pearl" r="2.1904339371426507" cx="30.27149515473378" cy="7.477308579616456"></circle><circle class="pearl" r="2.1904339371426507" cx="24.276466090022787" cy="33.31522911839593"></circle><circle class="pearl" r="2.1904339371426507" cx="6.861117098530252" cy="8.346351636793706"></circle><circle class="pearl" r="2.1904339371426507" cx="33.90810161737865" cy="16.16596392672391"></circle><circle class="pearl" r="2.1904339371426507" cx="8.487833946555632" cy="30.98761222714283"></circle><circle class="pearl" r="2.1904339371426507" cx="23.09887144677392" cy="4.128823383070638"></circle><circle class="pearl" r="2.1904339371426507" cx="30.999873001626195" cy="29.24809223063452"></circle><circle class="pearl" r="2.1904339371426507" cx="3.907214968869744" cy="15.775994273797636"></circle></g><g class="bobaCup bright" cupRadius="18.180879088570585" width="36.36175817714117" height="36.36175817714117" pearlRadius="2.7380424214283146" pearlCount="17" transform="translate(132.71053887340912,239.69817655275602)"><circle class="pool" r="18.180879088570585" cx="18.180879088570585" cy="18.180879088570585" style="stroke-width: 1; fill: rgb(127, 205, 187);"></circle><circle class="pearl" r="2.1904339371426516" cx="18.16275358668566" cy="18.18916655044685"></circle><circle class="pearl" r="2.1904339371426516" cx="13.240762406836453" cy="24.253373723841808"></circle><circle class="pearl" r="2.1904339371426516" cx="15.377854102948536" cy="10.866111492257161"></circle><circle class="pearl" r="2.1904339371426516" cx="20.841548969015967" cy="25.55374716699483"></circle><circle class="pearl" r="2.1904339371426516" cx="10.408359246635607" cy="17.050561064263604"></circle><circle class="pearl" r="2.1904339371426516" cx="22.98875815006531" cy="12.044945275678355"></circle><circle class="pearl" r="2.1904339371426516" cx="15.479255026949202" cy="31.974341761513497"></circle><circle class="pearl" r="2.1904339371426516" cx="9.626160734962541" cy="5.789122511211887"></circle><circle class="pearl" r="2.1904339371426516" cx="25.915440271590573" cy="19.28525729451613"></circle><circle class="pearl" r="2.1904339371426516" cx="4.134702307170271" cy="22.04157166979209"></circle><circle class="pearl" r="2.1904339371426516" cx="28.921361853176794" cy="7.16236939866839"></circle><circle class="pearl" r="2.1904339371426516" cx="26.82607088564901" cy="30.524061675182704"></circle><circle class="pearl" r="2.1904339371426516" cx="4.892101883155246" cy="11.578024442268205"></circle><circle class="pearl" r="2.1904339371426516" cx="32.33044831816395" cy="14.480344959956629"></circle><circle class="pearl" r="2.1904339371426516" cx="7.442259097572822" cy="29.200752477798193"></circle><circle class="pearl" r="2.1904339371426516" cx="19.869364016790986" cy="3.7292990636770513"></circle><circle class="pearl" r="2.1904339371426516" cx="31.5097654031561" cy="24.67989626004879"></circle></g><g class="bobaCup bright" cupRadius="17.727360408787746" width="35.45472081757549" height="35.45472081757549" pearlRadius="2.7380424214283137" pearlCount="16" transform="translate(234.91992216643936,44.811745539865726)"><circle class="pool" r="17.727360408787746" cx="17.727360408787746" cy="17.727360408787746" style="stroke-width: 1; fill: rgb(127, 205, 187);"></circle><circle class="pearl" r="2.190433937142651" cx="19.498073810317425" cy="19.392860891065187"></circle><circle class="pearl" r="2.190433937142651" cx="13.227395864013237" cy="23.62241520809777"></circle><circle class="pearl" r="2.190433937142651" cx="15.966217927289897" cy="10.973614300325425"></circle><circle class="pearl" r="2.190433937142651" cx="20.63436196451283" cy="27.123492900396563"></circle><circle class="pearl" r="2.190433937142651" cx="10.247499863471495" cy="16.394762819444846"></circle><circle class="pearl" r="2.190433937142651" cx="23.394815626678717" cy="13.00584957699795"></circle><circle class="pearl" r="2.190433937142651" cx="14.253503347311156" cy="31.460296869116593"></circle><circle class="pearl" r="2.190433937142651" cx="11.054166425708264" cy="4.954692114069648"></circle><circle class="pearl" r="2.190433937142651" cx="27.35513839461268" cy="20.543949150020158"></circle><circle class="pearl" r="2.190433937142651" cx="4.007049089112922" cy="21.263808596829296"></circle><circle class="pearl" r="2.190433937142651" cx="27.99507815336661" cy="6.927018646130136"></circle><circle class="pearl" r="2.190433937142651" cx="28.24057104142949" cy="28.350098892666235"></circle><circle class="pearl" r="2.190433937142651" cx="5.330487615177184" cy="10.19516491398578"></circle><circle class="pearl" r="2.190433937142651" cx="31.358995526605586" cy="13.780285916197522"></circle><circle class="pearl" r="2.190433937142651" cx="7.333589709308837" cy="28.437307001283816"></circle><circle class="pearl" r="2.190433937142651" cx="19.266172044409927" cy="3.7176372722997364"></circle></g><g class="bobaCup bright" cupRadius="17.23600704574341" width="34.47201409148682" height="34.47201409148682" pearlRadius="2.738042421428314" pearlCount="15" transform="translate(234.44452371247596,282.57382805853337)"><circle class="pool" r="17.23600704574341" cx="17.23600704574341" cy="17.23600704574341" style="stroke-width: 1; fill: rgb(65, 182, 196);"></circle><circle class="pearl" r="2.1904339371426516" cx="18.45882937288931" cy="17.44161188596107"></circle><circle class="pearl" r="2.1904339371426516" cx="12.813327883117235" cy="22.79573507669624"></circle><circle class="pearl" r="2.1904339371426516" cx="16.147008650636813" cy="9.86504143278033"></circle><circle class="pearl" r="2.1904339371426516" cx="19.935174129876216" cy="25.413882544014918"></circle><circle class="pearl" r="2.1904339371426516" cx="10.721429418115017" cy="15.578856032820163"></circle><circle class="pearl" r="2.1904339371426516" cx="23.578424323355726" cy="11.492180810133759"></circle><circle class="pearl" r="2.1904339371426516" cx="14.229331502012036" cy="30.55702035341528"></circle><circle class="pearl" r="2.1904339371426516" cx="10.22203572428432" cy="5.142393350116452"></circle><circle class="pearl" r="2.1904339371426516" cx="25.86180535724755" cy="20.113414466841178"></circle><circle class="pearl" r="2.1904339371426516" cx="4.228859807888951" cy="20.32373662420992"></circle><circle class="pearl" r="2.1904339371426516" cx="21.554505414617367" cy="4.20049310954456"></circle><circle class="pearl" r="2.1904339371426516" cx="27.28992277087529" cy="27.585238012556765"></circle><circle class="pearl" r="2.1904339371426516" cx="5.072455810644639" cy="10.381179398848417"></circle><circle class="pearl" r="2.1904339371426516" cx="30.544795782691377" cy="14.161126109457793"></circle><circle class="pearl" r="2.1904339371426516" cx="7.213687961865896" cy="27.607874842437983"></circle></g><g class="bobaCup bright" cupRadius="17.202537186119812" width="34.405074372239625" height="34.405074372239625" pearlRadius="2.7380424214283146" pearlCount="15" transform="translate(20.57062637884227,160.00009680324376)"><circle class="pool" r="17.202537186119812" cx="17.202537186119812" cy="17.202537186119812" style="stroke-width: 1; fill: rgb(29, 145, 192);"></circle><circle class="pearl" r="2.1904339371426516" cx="18.42841483251782" cy="17.42892177295012"></circle><circle class="pearl" r="2.1904339371426516" cx="12.773563012422901" cy="22.749233637150276"></circle><circle class="pearl" r="2.1904339371426516" cx="16.11466006067611" cy="9.857111455894135"></circle><circle class="pearl" r="2.1904339371426516" cx="19.88872530908235" cy="25.329339516378727"></circle><circle class="pearl" r="2.1904339371426516" cx="10.685876574936385" cy="15.558908450827207"></circle><circle class="pearl" r="2.1904339371426516" cx="23.52360691032745" cy="11.471982324253885"></circle><circle class="pearl" r="2.1904339371426516" cx="14.222028118385854" cy="30.494182485502268"></circle><circle class="pearl" r="2.1904339371426516" cx="10.226272782810778" cy="5.128788384922832"></circle><circle class="pearl" r="2.1904339371426516" cx="25.843324408955954" cy="20.065183019298082"></circle><circle class="pearl" r="2.1904339371426516" cx="4.194127358884059" cy="20.30529141620804"></circle><circle class="pearl" r="2.1904339371426516" cx="21.517161717691316" cy="4.200593937775069"></circle><circle class="pearl" r="2.1904339371426516" cx="27.22693480985325" cy="27.531754512541166"></circle><circle class="pearl" r="2.1904339371426516" cx="5.083528445281877" cy="10.32919453113497"></circle><circle class="pearl" r="2.1904339371426516" cx="30.471873131667476" cy="14.097882103158927"></circle><circle class="pearl" r="2.1904339371426516" cx="7.219096461775567" cy="27.561032242069096"></circle></g><g class="bobaCup bright" cupRadius="17.022080720192005" width="34.04416144038401" height="34.04416144038401" pearlRadius="2.7380424214283132" pearlCount="14" transform="translate(155.27777041109758,50.97499790733782)"><circle class="pool" r="17.022080720192005" cx="17.022080720192005" cy="17.022080720192005" style="stroke-width: 1; fill: rgb(127, 205, 187);"></circle><circle class="pearl" r="2.1904339371426507" cx="22.260248664820836" cy="13.666403535077023"></circle><circle class="pearl" r="2.1904339371426507" cx="13.076071048186876" cy="22.89601319266907"></circle><circle class="pearl" r="2.1904339371426507" cx="14.47246943064231" cy="11.972126516389732"></circle><circle class="pearl" r="2.1904339371426507" cx="20.934934197134435" cy="21.536324496373894"></circle><circle class="pearl" r="2.1904339371426507" cx="8.04032492798984" cy="16.71753077539287"></circle><circle class="pearl" r="2.1904339371426507" cx="27.118441531312865" cy="6.983708718199881"></circle><circle class="pearl" r="2.1904339371426507" cx="15.874305630837227" cy="30.354697692800105"></circle><circle class="pearl" r="2.1904339371426507" cx="11.900074551812871" cy="4.439619268737469"></circle><circle class="pearl" r="2.1904339371426507" cx="29.557822503623203" cy="22.28986796532238"></circle><circle class="pearl" r="2.1904339371426507" cx="5.222977138720048" cy="24.16729475368377"></circle><circle class="pearl" r="2.1904339371426507" cx="19.85009513817213" cy="3.887287379517182"></circle><circle class="pearl" r="2.1904339371426507" cx="24.68896280700405" cy="28.569059657134392"></circle><circle class="pearl" r="2.1904339371426507" cx="5.580459618392774" cy="9.149827252583675"></circle><circle class="pearl" r="2.1904339371426507" cx="30.179305018114686" cy="14.33058819904977"></circle></g><g class="bobaCup bright" cupRadius="17.01294215307933" width="34.02588430615866" height="34.02588430615866" pearlRadius="2.7380424214283137" pearlCount="14" transform="translate(284.21182926183434,219.33632885839373)"><circle class="pool" r="17.01294215307933" cx="17.01294215307933" cy="17.01294215307933" style="stroke-width: 1; fill: rgb(29, 145, 192);"></circle><circle class="pearl" r="2.190433937142651" cx="22.241799056400612" cy="13.620569183560667"></circle><circle class="pearl" r="2.190433937142651" cx="13.096327589718259" cy="22.876856178194814"></circle><circle class="pearl" r="2.190433937142651" cx="14.437878926764295" cy="11.984117521984716"></circle><circle class="pearl" r="2.190433937142651" cx="20.95398913946223" cy="21.498554150963056"></circle><circle class="pearl" r="2.190433937142651" cx="8.01176233647236" cy="16.738790973830287"></circle><circle class="pearl" r="2.190433937142651" cx="27.10415528630742" cy="6.98301764028836"></circle><circle class="pearl" r="2.190433937142651" cx="15.88883557348431" cy="30.33798356418603"></circle><circle class="pearl" r="2.190433937142651" cx="11.8840282103686" cy="4.442246132019665"></circle><circle class="pearl" r="2.190433937142651" cx="29.53491342572526" cy="22.293486942618433"></circle><circle class="pearl" r="2.190433937142651" cx="5.248243356237976" cy="24.21050871980538"></circle><circle class="pearl" r="2.190433937142651" cx="19.83421712145098" cy="3.886281549334271"></circle><circle class="pearl" r="2.190433937142651" cx="24.649475608518216" cy="28.564967277618155"></circle><circle class="pearl" r="2.190433937142651" cx="5.569301144250847" cy="9.164351899235236"></circle><circle class="pearl" r="2.190433937142651" cx="30.16285684140632" cy="14.333620169944393"></circle></g><g class="bobaCup bright" cupRadius="16.743081076400323" width="33.486162152800645" height="33.486162152800645" pearlRadius="2.7380424214283146" pearlCount="14" transform="translate(144.68678575348346,107.92405158401459)"><circle class="pool" r="16.743081076400323" cx="16.743081076400323" cy="16.743081076400323" style="stroke-width: 1; fill: rgb(127, 205, 187);"></circle><circle class="pearl" r="2.1904339371426516" cx="21.304769343990777" cy="12.773200913942562"></circle><circle class="pearl" r="2.1904339371426516" cx="13.339949763457255" cy="22.317195777003242"></circle><circle class="pearl" r="2.1904339371426516" cx="13.337188757872118" cy="12.27140107502362"></circle><circle class="pearl" r="2.1904339371426516" cx="21.117937232400042" cy="20.736872428326713"></circle><circle class="pearl" r="2.1904339371426516" cx="7.07977804709521" cy="17.383969747789152"></circle><circle class="pearl" r="2.1904339371426516" cx="26.596136595216265" cy="6.856889557731354"></circle><circle class="pearl" r="2.1904339371426516" cx="16.039418805156917" cy="29.820645965235126"></circle><circle class="pearl" r="2.1904339371426516" cx="11.327798436406153" cy="4.550651908434525"></circle><circle class="pearl" r="2.1904339371426516" cx="28.9339280759816" cy="22.16299035953701"></circle><circle class="pearl" r="2.1904339371426516" cx="5.99492421705554" cy="25.287261326414626"></circle><circle class="pearl" r="2.1904339371426516" cx="19.274670134341473" cy="3.843220606121773"></circle><circle class="pearl" r="2.1904339371426516" cx="23.866260629354247" cy="28.244620945706522"></circle><circle class="pearl" r="2.1904339371426516" cx="5.239800768214333" cy="9.623604920188503"></circle><circle class="pearl" r="2.1904339371426516" cx="29.64226538702832" cy="14.207075481990879"></circle></g><g class="bobaCup bright" cupRadius="16.529956027078406" width="33.05991205415681" height="33.05991205415681" pearlRadius="2.7380424214283137" pearlCount="14" transform="translate(297.62559330298836,3.4700439729215944)"><circle class="pool" r="16.529956027078406" cx="16.529956027078406" cy="16.529956027078406" style="stroke-width: 1; fill: rgb(65, 182, 196);"></circle><circle class="pearl" r="2.190433937142651" cx="20.48382627637599" cy="12.253242483515509"></circle><circle class="pearl" r="2.190433937142651" cx="12.841639007175782" cy="21.098885695327898"></circle><circle class="pearl" r="2.190433937142651" cx="12.526307678020514" cy="12.606616727576071"></circle><circle class="pearl" r="2.190433937142651" cx="20.72137833116259" cy="20.216603943564667"></circle><circle class="pearl" r="2.190433937142651" cx="5.564717357471173" cy="17.842440312566506"></circle><circle class="pearl" r="2.190433937142651" cx="26.24041442870414" cy="6.803592731019327"></circle><circle class="pearl" r="2.190433937142651" cx="15.095261871375065" cy="29.346810001506437"></circle><circle class="pearl" r="2.190433937142651" cx="10.965171567267424" cy="4.61557019168878"></circle><circle class="pearl" r="2.190433937142651" cx="28.375708045737728" cy="22.283103093608258"></circle><circle class="pearl" r="2.190433937142651" cx="6.830873772140844" cy="26.264569913018146"></circle><circle class="pearl" r="2.190433937142651" cx="18.90667334399682" cy="3.822480667400054"></circle><circle class="pearl" r="2.190433937142651" cx="22.98475600423276" cy="28.096821421941517"></circle><circle class="pearl" r="2.190433937142651" cx="5.0465316198121215" cy="9.881871972719296"></circle><circle class="pearl" r="2.190433937142651" cx="29.246075183766912" cy="14.213511209428773"></circle></g><g class="bobaCup bright" cupRadius="16.161821004165834" width="32.32364200833167" height="32.32364200833167" pearlRadius="2.7380424214283137" pearlCount="13" transform="translate(3.8381789958341663,15.203810533555899)"><circle class="pool" r="16.161821004165834" cx="16.161821004165834" cy="16.161821004165834" style="stroke-width: 1; fill: rgb(65, 182, 196);"></circle><circle class="pearl" r="2.190433937142651" cx="21.061582812756107" cy="16.657398221078836"></circle><circle class="pearl" r="2.190433937142651" cx="14.871098215165652" cy="21.432780225210493"></circle><circle class="pearl" r="2.190433937142651" cx="16.166123227874895" cy="10.589978694096416"></circle><circle class="pearl" r="2.190433937142651" cx="24.363111912816333" cy="23.965435208327445"></circle><circle class="pearl" r="2.190433937142651" cx="9.859199685068246" cy="15.41713379035977"></circle><circle class="pearl" r="2.190433937142651" cx="27.29698197980701" cy="9.636325891124812"></circle><circle class="pearl" r="2.190433937142651" cx="9.450362505772855" cy="27.213505163333824"></circle><circle class="pearl" r="2.190433937142651" cx="11.43230704038806" cy="4.358219406426098"></circle><circle class="pearl" r="2.190433937142651" cx="28.62112547154302" cy="17.454672815656764"></circle><circle class="pearl" r="2.190433937142651" cx="4.4556912742040815" cy="21.198836527339967"></circle><circle class="pearl" r="2.190433937142651" cx="21.264342269947903" cy="4.477331977833575"></circle><circle class="pearl" r="2.190433937142651" cx="17.99831862637493" cy="28.568237454077842"></circle><circle class="pearl" r="2.190433937142651" cx="5.329941374274801" cy="8.988350950226746"></circle></g><g class="bobaCup bright" cupRadius="15.992174109867946" width="31.984348219735892" height="31.984348219735892" pearlRadius="2.7380424214283137" pearlCount="13" transform="translate(251.62541162583148,69.65666690648708)"><circle class="pool" r="15.992174109867946" cx="15.992174109867946" cy="15.992174109867946" style="stroke-width: 1; fill: rgb(65, 182, 196);"></circle><circle class="pearl" r="2.190433937142651" cx="20.812025515698313" cy="17.292301731852323"></circle><circle class="pearl" r="2.190433937142651" cx="14.084121779832426" cy="21.06261714943552"></circle><circle class="pearl" r="2.190433937142651" cx="16.59116353893055" cy="10.806539317494225"></circle><circle class="pearl" r="2.190433937142651" cx="24.566783469331234" cy="24.910952460538265"></circle><circle class="pearl" r="2.190433937142651" cx="9.651170098392202" cy="14.532726442376267"></circle><circle class="pearl" r="2.190433937142651" cx="27.242930031317112" cy="10.187387128260239"></circle><circle class="pearl" r="2.190433937142651" cx="8.435992310047887" cy="26.435908989659833"></circle><circle class="pearl" r="2.190433937142651" cx="12.861116180154827" cy="3.9602282734771865"></circle><circle class="pearl" r="2.190433937142651" cx="28.201294069912098" cy="18.04522228097002"></circle><circle class="pearl" r="2.190433937142651" cx="4.197239174007937" cy="20.137204462938197"></circle><circle class="pearl" r="2.190433937142651" cx="21.59088626140292" cy="4.662775342788086"></circle><circle class="pearl" r="2.190433937142651" cx="17.36632995909124" cy="28.274477224787795"></circle><circle class="pearl" r="2.190433937142651" cx="6.07885923000177" cy="7.5206628543013005"></circle></g><g class="bobaCup bright" cupRadius="15.834709174269545" width="31.66941834853909" height="31.66941834853909" pearlRadius="2.7380424214283137" pearlCount="13" transform="translate(277.03281364465755,238.81459554901113)"><circle class="pool" r="15.834709174269545" cx="15.834709174269545" cy="15.834709174269545" style="stroke-width: 1; fill: rgb(29, 145, 192);"></circle><circle class="pearl" r="2.190433937142651" cx="20.40107952412606" cy="18.112936193330423"></circle><circle class="pearl" r="2.190433937142651" cx="13.235055352145485" cy="20.794100269863545"></circle><circle class="pearl" r="2.190433937142651" cx="17.19415263657645" cy="11.025162390272458"></circle><circle class="pearl" r="2.190433937142651" cx="24.23247781825631" cy="25.60842248641661"></circle><circle class="pearl" r="2.190433937142651" cx="9.86207100768772" cy="13.652544920375785"></circle><circle class="pearl" r="2.190433937142651" cx="27.208805846571256" cy="10.835429068090965"></circle><circle class="pearl" r="2.190433937142651" cx="6.9383088151968035" cy="25.283301778396993"></circle><circle class="pearl" r="2.190433937142651" cx="14.067186776318477" cy="3.749680777753337"></circle><circle class="pearl" r="2.190433937142651" cx="27.75069492543482" cy="18.73567214781668"></circle><circle class="pearl" r="2.190433937142651" cx="3.87854676151208" cy="18.511112584106865"></circle><circle class="pearl" r="2.190433937142651" cx="22.09129894094235" cy="4.939192368891611"></circle><circle class="pearl" r="2.190433937142651" cx="16.61905946641479" cy="27.99925733928851"></circle><circle class="pearl" r="2.190433937142651" cx="6.712783571091698" cy="6.542152759574609"></circle></g><g class="bobaCup bright" cupRadius="15.814428041394791" width="31.628856082789582" height="31.628856082789582" pearlRadius="2.7380424214283137" pearlCount="13" transform="translate(263.5660939797848,133.94754791465388)"><circle class="pool" r="15.814428041394791" cx="15.814428041394791" cy="15.814428041394791" style="stroke-width: 1; fill: rgb(65, 182, 196);"></circle><circle class="pearl" r="2.190433937142651" cx="20.351977893673343" cy="18.17736024918162"></circle><circle class="pearl" r="2.190433937142651" cx="13.171941905885827" cy="20.7783750440731"></circle><circle class="pearl" r="2.190433937142651" cx="17.281574230793325" cy="11.021669057829959"></circle><circle class="pearl" r="2.190433937142651" cx="24.140759281996033" cy="25.608716614538185"></circle><circle class="pearl" r="2.190433937142651" cx="9.946598075086579" cy="13.595776945107035"></circle><circle class="pearl" r="2.190433937142651" cx="27.195357870994126" cy="10.900616830608424"></circle><circle class="pearl" r="2.190433937142651" cx="6.892062977625118" cy="25.220792387979056"></circle><circle class="pearl" r="2.190433937142651" cx="14.086511927821082" cy="3.7454044469121985"></circle><circle class="pearl" r="2.190433937142651" cx="27.694722510334078" cy="18.794968857433645"></circle><circle class="pearl" r="2.190433937142651" cx="3.852898177005585" cy="18.335080266079054"></circle><circle class="pearl" r="2.190433937142651" cx="22.17754718395347" cy="4.987345875015398"></circle><circle class="pearl" r="2.190433937142651" cx="16.526882094798292" cy="27.962076358595215"></circle><circle class="pearl" r="2.190433937142651" cx="6.717267159004319" cy="6.529240086119627"></circle></g><g class="bobaCup bright" cupRadius="15.416136212459776" width="30.83227242491955" height="30.83227242491955" pearlRadius="2.7380424214283137" pearlCount="12" transform="translate(127.84502907694991,238.0090845932517)"><circle class="pool" r="15.416136212459776" cx="15.416136212459776" cy="15.416136212459776" style="stroke-width: 1; fill: rgb(65, 182, 196);"></circle><circle class="pearl" r="2.190433937142651" cx="17.009962791221508" cy="10.915751676052164"></circle><circle class="pearl" r="2.190433937142651" cx="10.94538682340646" cy="16.92944126203613"></circle><circle class="pearl" r="2.190433937142651" cx="13.934222072256722" cy="3.722114861788759"></circle><circle class="pearl" r="2.190433937142651" cx="18.592582814640206" cy="18.61751939979497"></circle><circle class="pearl" r="2.190433937142651" cx="3.7234468808510215" cy="13.920493631751002"></circle><circle class="pearl" r="2.190433937142651" cx="26.91117592538073" cy="12.541571786109223"></circle><circle class="pearl" r="2.190433937142651" cx="12.339780995807889" cy="26.871481112362506"></circle><circle class="pearl" r="2.190433937142651" cx="6.51075974903905" cy="6.483079175710515"></circle><circle class="pearl" r="2.190433937142651" cx="26.20476947823585" cy="20.81634359276178"></circle><circle class="pearl" r="2.190433937142651" cx="5.510862630052763" cy="22.757267336603064"></circle><circle class="pearl" r="2.190433937142651" cx="22.96003195528501" cy="5.622645341928715"></circle><circle class="pearl" r="2.190433937142651" cx="20.649414007034455" cy="26.26610466552668"></circle></g><g class="bobaCup bright" cupRadius="15.310941937076908" width="30.621883874153816" height="30.621883874153816" pearlRadius="2.7380424214283146" pearlCount="12" transform="translate(111.12563765715595,284.6890580629231)"><circle class="pool" r="15.310941937076908" cx="15.310941937076908" cy="15.310941937076908" style="stroke-width: 1; fill: rgb(127, 205, 187);"></circle><circle class="pearl" r="2.1904339371426516" cx="17.009422223523213" cy="10.800132109210555"></circle><circle class="pearl" r="2.1904339371426516" cx="10.862616156731196" cy="16.814923610690233"></circle><circle class="pearl" r="2.1904339371426516" cx="13.884464340760054" cy="3.7173185195058087"></circle><circle class="pearl" r="2.1904339371426516" cx="18.4315995763837" cy="18.468882425923546"></circle><circle class="pearl" r="2.1904339371426516" cx="3.719607509898178" cy="13.860210597600574"></circle><circle class="pearl" r="2.1904339371426516" cx="26.783554217727346" cy="12.921451180438646"></circle><circle class="pearl" r="2.1904339371426516" cx="12.47161569824841" cy="26.70558907649745"></circle><circle class="pearl" r="2.1904339371426516" cx="6.489412149663727" cy="6.447451038891077"></circle><circle class="pearl" r="2.1904339371426516" cx="25.941559471554147" cy="20.83074709760882"></circle><circle class="pearl" r="2.1904339371426516" cx="5.587265266911522" cy="22.764154019744236"></circle><circle class="pearl" r="2.1904339371426516" cx="23.21529482839646" cy="5.848841351914026"></circle><circle class="pearl" r="2.1904339371426516" cx="20.397568623638733" cy="26.10151961777634"></circle></g><g class="bobaCup bright" cupRadius="15.013710971541483" width="30.027421943082967" height="30.027421943082967" pearlRadius="2.7380424214283137" pearlCount="11" transform="translate(169.9451104072141,136.43023340710786)"><circle class="pool" r="15.013710971541483" cx="15.013710971541483" cy="15.013710971541483" style="stroke-width: 1; fill: rgb(29, 145, 192);"></circle><circle class="pearl" r="2.190433937142651" cx="19.20104052303423" cy="15.007137672201742"></circle><circle class="pearl" r="2.190433937142651" cx="11.580611405067206" cy="17.240888160372894"></circle><circle class="pearl" r="2.190433937142651" cx="13.758380846903323" cy="9.263955572962514"></circle><circle class="pearl" r="2.190433937142651" cx="20.640229451352635" cy="25.282535398455785"></circle><circle class="pearl" r="2.190433937142651" cx="4.235163934605019" cy="14.050613740960904"></circle><circle class="pearl" r="2.190433937142651" cx="25.621518131220885" cy="10.312027410908915"></circle><circle class="pearl" r="2.190433937142651" cx="12.755722277810586" cy="26.205932336142215"></circle><circle class="pearl" r="2.190433937142651" cx="6.40124329211687" cy="6.366592210240869"></circle><circle class="pearl" r="2.190433937142651" cx="25.745223832932762" cy="19.322168025936843"></circle><circle class="pearl" r="2.190433937142651" cx="5.713115145342217" cy="22.60810705540013"></circle><circle class="pearl" r="2.190433937142651" cx="20.15454692266636" cy="4.558289338365007"></circle></g><g class="bobaCup bright" cupRadius="14.99071221194587" width="29.98142442389174" height="29.98142442389174" pearlRadius="2.7380424214283132" pearlCount="11" transform="translate(33.11570417797675,272.31723661577786)"><circle class="pool" r="14.99071221194587" cx="14.99071221194587" cy="14.99071221194587" style="stroke-width: 1; fill: rgb(29, 145, 192);"></circle><circle class="pearl" r="2.1904339371426507" cx="19.12583375035362" cy="15.02080349353944"></circle><circle class="pearl" r="2.1904339371426507" cx="11.455575747934235" cy="17.077000251930723"></circle><circle class="pearl" r="2.1904339371426507" cx="13.762459445449032" cy="9.211826623876984"></circle><circle class="pearl" r="2.1904339371426507" cx="20.64491344450269" cy="25.22348497837316"></circle><circle class="pearl" r="2.1904339371426507" cx="4.063656852331479" cy="13.996597819043464"></circle><circle class="pearl" r="2.1904339371426507" cx="25.61346324863563" cy="10.409294852621414"></circle><circle class="pearl" r="2.1904339371426507" cx="12.76452351535575" cy="26.164480087913834"></circle><circle class="pearl" r="2.1904339371426507" cx="6.395887493266447" cy="6.359316703240384"></circle><circle class="pearl" r="2.1904339371426507" cx="25.714418559012838" cy="19.244795779108713"></circle><circle class="pearl" r="2.1904339371426507" cx="5.714363727492008" cy="22.580986880737065"></circle><circle class="pearl" r="2.1904339371426507" cx="20.21474742446724" cy="4.590424490420879"></circle></g><g class="bobaCup bright" cupRadius="14.925697095821409" width="29.851394191642818" height="29.851394191642818" pearlRadius="2.7380424214283137" pearlCount="11" transform="translate(258.58558804285474,250.44321235015843)"><circle class="pool" r="14.925697095821409" cx="14.925697095821409" cy="14.925697095821409" style="stroke-width: 1; fill: rgb(127, 205, 187);"></circle><circle class="pearl" r="2.190433937142651" cx="18.910096640810224" cy="15.060240680517325"></circle><circle class="pearl" r="2.190433937142651" cx="11.148542666017935" cy="16.661311790898413"></circle><circle class="pearl" r="2.190433937142651" cx="13.799647963838481" cy="9.030856844192577"></circle><circle class="pearl" r="2.190433937142651" cx="20.624890049887007" cy="25.069742204143143"></circle><circle class="pearl" r="2.190433937142651" cx="3.690299128459351" cy="13.83949751185828"></circle><circle class="pearl" r="2.190433937142651" cx="25.6038824659086" cy="10.747322750755078"></circle><circle class="pearl" r="2.190433937142651" cx="12.748566308121449" cy="26.0410341180234"></circle><circle class="pearl" r="2.190433937142651" cx="6.3832646105964645" cy="6.337005263549706"></circle><circle class="pearl" r="2.190433937142651" cx="25.621208327863144" cy="19.044190825006492"></circle><circle class="pearl" r="2.190433937142651" cx="5.69279968130669" cy="22.461528365247826"></circle><circle class="pearl" r="2.190433937142651" cx="20.450801410914373" cy="4.711008101759056"></circle></g><g class="bobaCup bright" cupRadius="14.161949038218793" width="28.323898076437587" height="28.323898076437587" pearlRadius="2.7380424214283137" pearlCount="10" transform="translate(207.97203871665363,187.12702669624593)"><circle class="pool" r="14.161949038218793" cx="14.161949038218793" cy="14.161949038218793" style="stroke-width: 1; fill: rgb(127, 205, 187);"></circle><circle class="pearl" r="2.190433937142651" cx="17.543748068896228" cy="12.110861391667084"></circle><circle class="pearl" r="2.190433937142651" cx="11.095709553124799" cy="16.187971003147013"></circle><circle class="pearl" r="2.190433937142651" cx="14.337328231173963" cy="4.729786123117168"></circle><circle class="pearl" r="2.190433937142651" cx="21.461087815956752" cy="22.64726196913686"></circle><circle class="pearl" r="2.190433937142651" cx="3.674054957496555" cy="13.34935987852156"></circle><circle class="pearl" r="2.190433937142651" cx="22.04969054120794" cy="6.050685421739901"></circle><circle class="pearl" r="2.190433937142651" cx="13.749262614562271" cy="24.667160624305335"></circle><circle class="pearl" r="2.190433937142651" cx="6.448433558909769" cy="5.935699609097755"></circle><circle class="pearl" r="2.190433937142651" cx="24.617691759013983" cy="15.414314392448967"></circle><circle class="pearl" r="2.190433937142651" cx="6.2670313473355" cy="22.268397034703685"></circle></g><g class="bobaCup bright" cupRadius="13.718986771267947" width="27.437973542535893" height="27.437973542535893" pearlRadius="2.7380424214283137" pearlCount="9" transform="translate(144.9541224809319,103.39005650754332)"><circle class="pool" r="13.718986771267947" cx="13.718986771267947" cy="13.718986771267947" style="stroke-width: 1; fill: rgb(29, 145, 192);"></circle><circle class="pearl" r="2.190433937142651" cx="17.065834309727318" cy="12.061045338091986"></circle><circle class="pearl" r="2.190433937142651" cx="10.613184329641411" cy="16.016650353286767"></circle><circle class="pearl" r="2.190433937142651" cx="13.855836209589192" cy="3.6514057948195173"></circle><circle class="pearl" r="2.190433937142651" cx="19.004740918196738" cy="22.728097709401023"></circle><circle class="pearl" r="2.190433937142651" cx="3.6631916431418876" cy="13.1342196657044"></circle><circle class="pearl" r="2.190433937142651" cx="21.268716013527253" cy="5.914921202187648"></circle><circle class="pearl" r="2.190433937142651" cx="11.126398881654577" cy="23.540052067790885"></circle><circle class="pearl" r="2.190433937142651" cx="6.2432705956108245" cy="5.866481509921803"></circle><circle class="pearl" r="2.190433937142651" cx="23.532223900791518" cy="16.351926099448626"></circle></g><g class="bobaCup bright" cupRadius="13.533224266473947" width="27.066448532947895" height="27.066448532947895" pearlRadius="2.7380424214283137" pearlCount="9" transform="translate(137.60978823651794,55.943639298687245)"><circle class="pool" r="13.533224266473947" cx="13.533224266473947" cy="13.533224266473947" style="stroke-width: 1; fill: rgb(65, 182, 196);"></circle><circle class="pearl" r="2.190433937142651" cx="16.564087530391042" cy="11.663512976918792"></circle><circle class="pearl" r="2.190433937142651" cx="10.465348202636562" cy="15.928600435349018"></circle><circle class="pearl" r="2.190433937142651" cx="13.60822093826216" cy="3.650931033594169"></circle><circle class="pearl" r="2.190433937142651" cx="19.181507132785292" cy="22.180674061112978"></circle><circle class="pearl" r="2.190433937142651" cx="3.6558832148799034" cy="13.159545422545534"></circle><circle class="pearl" r="2.190433937142651" cx="20.91000092184412" cy="5.83796471595247"></circle><circle class="pearl" r="2.190433937142651" cx="11.369477057348375" cy="23.241631139136274"></circle><circle class="pearl" r="2.190433937142651" cx="6.06490279030697" cy="5.898012293418965"></circle><circle class="pearl" r="2.190433937142651" cx="23.266021040274705" cy="15.54059851976906"></circle></g><g class="bobaCup bright" cupRadius="13.299999487209636" width="26.59999897441927" height="26.59999897441927" pearlRadius="2.738042421428314" pearlCount="9" transform="translate(70.97179160941623,61.65957680842628)"><circle class="pool" r="13.299999487209636" cx="13.299999487209636" cy="13.299999487209636" style="stroke-width: 1; fill: rgb(65, 182, 196);"></circle><circle class="pearl" r="2.1904339371426516" cx="15.33820800481141" cy="11.25876284927819"></circle><circle class="pearl" r="2.1904339371426516" cx="9.909199158815195" cy="16.683046407553533"></circle><circle class="pearl" r="2.1904339371426516" cx="13.369380712239927" cy="3.650904198019291"></circle><circle class="pearl" r="2.1904339371426516" cx="20.672964901159798" cy="20.718574672019198"></circle><circle class="pearl" r="2.1904339371426516" cx="3.6519073250690455" cy="13.122529592447641"></circle><circle class="pearl" r="2.1904339371426516" cx="20.561354475957938" cy="5.807890486622968"></circle><circle class="pearl" r="2.1904339371426516" cx="13.452865974407288" cy="22.94839721443365"></circle><circle class="pearl" r="2.1904339371426516" cx="6.015090686104573" cy="5.8232751144950345"></circle><circle class="pearl" r="2.1904339371426516" cx="22.949215313849326" cy="13.259906003254223"></circle></g><g class="bobaCup bright" cupRadius="13.251433093302198" width="26.502866186604397" height="26.502866186604397" pearlRadius="2.7380424214283137" pearlCount="9" transform="translate(211.92516641611817,255.62683804708487)"><circle class="pool" r="13.251433093302198" cx="13.251433093302198" cy="13.251433093302198" style="stroke-width: 1; fill: rgb(127, 205, 187);"></circle><circle class="pearl" r="2.190433937142651" cx="15.26491924355921" cy="11.23731366185512"></circle><circle class="pearl" r="2.190433937142651" cx="9.846707843504355" cy="16.647879998388586"></circle><circle class="pearl" r="2.190433937142651" cx="13.318618060558098" cy="3.650893544068312"></circle><circle class="pearl" r="2.190433937142651" cx="20.57996312408706" cy="20.641231891073396"></circle><circle class="pearl" r="2.190433937142651" cx="3.6516870502769283" cy="13.091610977356213"></circle><circle class="pearl" r="2.190433937142651" cx="20.467998226483893" cy="5.7881261480429576"></circle><circle class="pearl" r="2.190433937142651" cx="13.384219337870606" cy="22.851477647751015"></circle><circle class="pearl" r="2.190433937142651" cx="6.007789202927748" cy="5.8057559048143546"></circle><circle class="pearl" r="2.190433937142651" cx="22.852115783122137" cy="13.224596321961318"></circle></g><g class="bobaCup bright" cupRadius="13.184229644200194" width="26.368459288400388" height="26.368459288400388" pearlRadius="2.7380424214283137" pearlCount="9" transform="translate(199.70872347998522,31.922207641531706)"><circle class="pool" r="13.184229644200194" cx="13.184229644200194" cy="13.184229644200194" style="stroke-width: 1; fill: rgb(65, 182, 196);"></circle><circle class="pearl" r="2.190433937142651" cx="15.162910927667902" cy="11.208425143726215"></circle><circle class="pearl" r="2.190433937142651" cx="9.758320829300342" cy="16.600668194605696"></circle><circle class="pearl" r="2.190433937142651" cx="13.248648340655336" cy="3.6508806057304835"></circle><circle class="pearl" r="2.190433937142651" cx="20.45136524154557" cy="20.534081469725276"></circle><circle class="pearl" r="2.190433937142651" cx="3.651429669625392" cy="13.04774791237807"></circle><circle class="pearl" r="2.190433937142651" cx="20.33899811226989" cy="5.760965357909129"></circle><circle class="pearl" r="2.190433937142651" cx="13.289514506400376" cy="22.717315668223694"></circle><circle class="pearl" r="2.190433937142651" cx="5.99800354032166" cy="5.781353201399879"></circle><circle class="pearl" r="2.190433937142651" cx="22.717733636807306" cy="13.176236437644402"></circle></g><g class="bobaCup bright" cupRadius="13.10885105859205" width="26.2177021171841" height="26.2177021171841" pearlRadius="2.7380424214283137" pearlCount="9" transform="translate(46.04080224644363,164.17146749242903)"><circle class="pool" r="13.10885105859205" cx="13.10885105859205" cy="13.10885105859205" style="stroke-width: 1; fill: rgb(127, 205, 187);"></circle><circle class="pearl" r="2.190433937142651" cx="15.047223413184295" cy="11.177459280394878"></circle><circle class="pearl" r="2.190433937142651" cx="9.656064703489566" cy="16.550842286213577"></circle><circle class="pearl" r="2.190433937142651" cx="13.170266128672269" cy="3.6508670944031643"></circle><circle class="pearl" r="2.190433937142651" cx="20.30726921222952" cy="20.413708698315098"></circle><circle class="pearl" r="2.190433937142651" cx="3.6511961135662148" cy="12.997505945013703"></circle><circle class="pearl" r="2.190433937142651" cx="20.194587637306185" cy="5.730779556394843"></circle><circle class="pearl" r="2.190433937142651" cx="13.184403061148096" cy="22.56676116730139"></circle><circle class="pearl" r="2.190433937142651" cx="5.987387649060459" cy="5.7538151137552145"></circle><circle class="pearl" r="2.190433937142651" cx="22.566971486183252" cy="13.122782126162846"></circle></g><g class="bobaCup bright" cupRadius="12.976926174624243" width="25.953852349248486" height="25.953852349248486" pearlRadius="2.7380424214283132" pearlCount="8" transform="translate(146.76685848323388,27.384159525161262)"><circle class="pool" r="12.976926174624243" cx="12.976926174624243" cy="12.976926174624243" style="stroke-width: 1; fill: rgb(29, 145, 192);"></circle><circle class="pearl" r="2.1904339371426507" cx="19.56882193711766" cy="12.973316556796266"></circle><circle class="pearl" r="2.1904339371426507" cx="11.732189612745152" cy="14.286300615468857"></circle><circle class="pearl" r="2.1904339371426507" cx="12.163393749142724" cy="3.6762487864922067"></circle><circle class="pearl" r="2.1904339371426507" cx="19.910355623784756" cy="20.295622667039385"></circle><circle class="pearl" r="2.1904339371426507" cx="3.816008099262926" cy="15.0414987795527"></circle><circle class="pearl" r="2.1904339371426507" cx="19.911711140514928" cy="5.659086579447437"></circle><circle class="pearl" r="2.1904339371426507" cx="12.080992188094084" cy="22.27216429442076"></circle><circle class="pearl" r="2.1904339371426507" cx="5.037286903589542" cy="7.140479475700339"></circle></g><g class="bobaCup bright" cupRadius="12.713066524134762" width="25.426133048269524" height="25.426133048269524" pearlRadius="2.738042421428314" pearlCount="8" transform="translate(123.67836499143509,231.23332801512754)"><circle class="pool" r="12.713066524134762" cx="12.713066524134762" cy="12.713066524134762" style="stroke-width: 1; fill: rgb(29, 145, 192);"></circle><circle class="pearl" r="2.1904339371426516" cx="14.204990971075764" cy="12.858410154597083"></circle><circle class="pearl" r="2.1904339371426516" cx="6.8019882673265055" cy="19.417571220628155"></circle><circle class="pearl" r="2.1904339371426516" cx="15.145083152877653" cy="3.8855144085489486"></circle><circle class="pearl" r="2.1904339371426516" cx="21.012825939056615" cy="17.049888521248537"></circle><circle class="pearl" r="2.1904339371426516" cx="3.667309657578914" cy="12.063871914544157"></circle><circle class="pearl" r="2.1904339371426516" cx="21.238751645884847" cy="9.05832438093166"></circle><circle class="pearl" r="2.1904339371426516" cx="14.477315429275105" cy="21.652398348969403"></circle><circle class="pearl" r="2.1904339371426516" cx="7.215561388037076" cy="4.900827756535072"></circle></g><g class="bobaCup bright" cupRadius="12.510754731387676" width="25.021509462775352" height="25.021509462775352" pearlRadius="2.7380424214283132" pearlCount="8" transform="translate(67.58564996145016,240.33270006084817)"><circle class="pool" r="12.510754731387676" cx="12.510754731387676" cy="12.510754731387676" style="stroke-width: 1; fill: rgb(127, 205, 187);"></circle><circle class="pearl" r="2.1904339371426507" cx="13.757893609132001" cy="12.792824897179559"></circle><circle class="pearl" r="2.1904339371426507" cx="5.783409265133194" cy="19.408102744830668"></circle><circle class="pearl" r="2.1904339371426507" cx="15.198998366822865" cy="3.942953904022981"></circle><circle class="pearl" r="2.1904339371426507" cx="20.39913687150212" cy="17.344803887045067"></circle><circle class="pearl" r="2.1904339371426507" cx="3.669095658404072" cy="11.832987528918908"></circle><circle class="pearl" r="2.1904339371426507" cx="20.97238670361395" cy="9.378689049021434"></circle><circle class="pearl" r="2.1904339371426507" cx="13.518811087257118" cy="21.33010793932372"></circle><circle class="pearl" r="2.1904339371426507" cx="7.286244721012181" cy="4.793827406725458"></circle></g><g class="bobaCup bright" cupRadius="12.486792838356926" width="24.973585676713853" height="24.973585676713853" pearlRadius="2.7380424214283137" pearlCount="8" transform="translate(136.39082501346772,106.82588849271525)"><circle class="pool" r="12.486792838356926" cx="12.486792838356926" cy="12.486792838356926" style="stroke-width: 1; fill: rgb(65, 182, 196);"></circle><circle class="pearl" r="2.190433937142651" cx="13.696891865671024" cy="12.782902447505935"></circle><circle class="pearl" r="2.190433937142651" cx="5.712015826861441" cy="19.32522552590007"></circle><circle class="pearl" r="2.190433937142651" cx="15.269695374265634" cy="3.9647822382568734"></circle><circle class="pearl" r="2.190433937142651" cx="20.307159461491292" cy="17.4197527005636"></circle><circle class="pearl" r="2.190433937142651" cx="3.6731096682298343" cy="11.73941842339895"></circle><circle class="pearl" r="2.190433937142651" cx="20.951756794595386" cy="9.465184090043618"></circle><circle class="pearl" r="2.190433937142651" cx="13.393707483401371" cy="21.289884335188084"></circle><circle class="pearl" r="2.190433937142651" cx="7.359618588325437" cy="4.7519076247824685"></circle></g><g class="bobaCup bright" cupRadius="12.457266094546636" width="24.914532189093272" height="24.914532189093272" pearlRadius="2.7380424214283137" pearlCount="8" transform="translate(28.035942196349755,251.7531535932343)"><circle class="pool" r="12.457266094546636" cx="12.457266094546636" cy="12.457266094546636" style="stroke-width: 1; fill: rgb(127, 205, 187);"></circle><circle class="pearl" r="2.190433937142651" cx="13.64040354188159" cy="12.76175735537406"></circle><circle class="pearl" r="2.190433937142651" cx="5.707710692888092" cy="19.276833235888088"></circle><circle class="pearl" r="2.190433937142651" cx="15.255156802542858" cy="3.968990759131909"></circle><circle class="pearl" r="2.190433937142651" cx="20.236428840200514" cy="17.41117214599298"></circle><circle class="pearl" r="2.190433937142651" cx="3.67310927274076" cy="11.71078321927202"></circle><circle class="pearl" r="2.190433937142651" cx="20.89946565737298" cy="9.4664974790162"></circle><circle class="pearl" r="2.190433937142651" cx="13.340373330615291" cy="21.23246738529983"></circle><circle class="pearl" r="2.190433937142651" cx="7.356111612063933" cy="4.74305634943997"></circle></g><g class="bobaCup bright" cupRadius="12.34196878546805" width="24.6839375709361" height="24.6839375709361" pearlRadius="2.7380424214283137" pearlCount="8" transform="translate(59.420747812063674,65.3892227328743)"><circle class="pool" r="12.34196878546805" cx="12.34196878546805" cy="12.34196878546805" style="stroke-width: 1; fill: rgb(65, 182, 196);"></circle><circle class="pearl" r="2.190433937142651" cx="13.445662299725118" cy="12.659929768241517"></circle><circle class="pearl" r="2.190433937142651" cx="5.714621795403646" cy="19.102896020428286"></circle><circle class="pearl" r="2.190433937142651" cx="15.039716026944278" cy="3.9491728720866845"></circle><circle class="pearl" r="2.190433937142651" cx="20.022617655450066" cy="17.23320583406833"></circle><circle class="pearl" r="2.190433937142651" cx="3.667665892634963" cy="11.695497898132423"></circle><circle class="pearl" r="2.190433937142651" cx="20.655322500272458" cy="9.311282989404953"></circle><circle class="pearl" r="2.190433937142651" cx="13.23077822168992" cy="21.00116884209865"></circle><circle class="pearl" r="2.190433937142651" cx="7.201457004411814" cy="4.772204853033614"></circle></g><g class="bobaCup bright" cupRadius="12.337673755667222" width="24.675347511334444" height="24.675347511334444" pearlRadius="2.7380424214283132" pearlCount="8" transform="translate(53.156887181391426,23.2774106701436)"><circle class="pool" r="12.337673755667222" cx="12.337673755667222" cy="12.337673755667222" style="stroke-width: 1; fill: rgb(127, 205, 187);"></circle><circle class="pearl" r="2.1904339371426507" cx="13.4386802822142" cy="12.656071212709103"></circle><circle class="pearl" r="2.1904339371426507" cx="5.715094401767369" cy="19.096544006314193"></circle><circle class="pearl" r="2.1904339371426507" cx="15.03028096541067" cy="3.9481287100129636"></circle><circle class="pearl" r="2.1904339371426507" cx="20.01520581079641" cy="17.225293414416928"></circle><circle class="pearl" r="2.1904339371426507" cx="3.667431498604242" cy="11.695798999118981"></circle><circle class="pearl" r="2.1904339371426507" cx="20.645864773026414" cy="9.304100984203574"></circle><circle class="pearl" r="2.1904339371426507" cx="13.22757470722833" cy="20.99248871108835"></circle><circle class="pearl" r="2.1904339371426507" cx="7.194427342970848" cy="4.773888076597026"></circle></g><g class="bobaCup bright" cupRadius="12.224076803546616" width="24.448153607093232" height="24.448153607093232" pearlRadius="2.738042421428314" pearlCount="7" transform="translate(64.72242012216034,193.5229530643515)"><circle class="pool" r="12.224076803546616" cx="12.224076803546616" cy="12.224076803546616" style="stroke-width: 1; fill: rgb(65, 182, 196);"></circle><circle class="pearl" r="2.1904339371426516" cx="13.912707621573148" cy="12.513057049493835"></circle><circle class="pearl" r="2.1904339371426516" cx="5.832245995960315" cy="14.791793826753366"></circle><circle class="pearl" r="2.1904339371426516" cx="12.220012762751026" cy="3.6507239041406323"></circle><circle class="pearl" r="2.1904339371426516" cx="18.90446370509937" cy="18.75831104929103"></circle><circle class="pearl" r="2.1904339371426516" cx="4.89439063180653" cy="6.8520508262672335"></circle><circle class="pearl" r="2.1904339371426516" cx="19.54948101993192" cy="6.843307340813467"></circle><circle class="pearl" r="2.1904339371426516" cx="11.161837147470557" cy="20.751190025349867"></circle></g><g class="bobaCup bright" cupRadius="12.047170435041842" width="24.094340870083684" height="24.094340870083684" pearlRadius="2.7380424214283137" pearlCount="7" transform="translate(71.83084913679605,20.060587847456475)"><circle class="pool" r="12.047170435041842" cx="12.047170435041842" cy="12.047170435041842" style="stroke-width: 1; fill: rgb(29, 145, 192);"></circle><circle class="pearl" r="2.190433937142651" cx="13.37878879031917" cy="12.370150849280177"></circle><circle class="pearl" r="2.190433937142651" cx="5.128779089430222" cy="14.849961378847778"></circle><circle class="pearl" r="2.190433937142651" cx="12.146643819667219" cy="3.6511339110198087"></circle><circle class="pearl" r="2.190433937142651" cx="18.636814018853624" cy="18.392972436270203"></circle><circle class="pearl" r="2.190433937142651" cx="4.824298202186238" cy="6.8607229772739355"></circle><circle class="pearl" r="2.190433937142651" cx="19.370462877873937" cy="7.076728247998149"></circle><circle class="pearl" r="2.190433937142651" cx="10.89476842410794" cy="20.38837303580033"></circle></g><g class="bobaCup bright" cupRadius="11.971443171789131" width="23.942886343578262" height="23.942886343578262" pearlRadius="2.7380424214283137" pearlCount="7" transform="translate(231.56277179453292,218.8570411179896)"><circle class="pool" r="11.971443171789131" cx="11.971443171789131" cy="11.971443171789131" style="stroke-width: 1; fill: rgb(127, 205, 187);"></circle><circle class="pearl" r="2.190433937142651" cx="13.161988323383348" cy="12.307154223962238"></circle><circle class="pearl" r="2.190433937142651" cx="4.8433937808300564" cy="14.87045216407934"></circle><circle class="pearl" r="2.190433937142651" cx="12.105496205118978" cy="3.65147379718843"></circle><circle class="pearl" r="2.190433937142651" cx="18.517817388976436" cy="18.24317780401683"></circle><circle class="pearl" r="2.190433937142651" cx="4.789456284085405" cy="6.875577872143348"></circle><circle class="pearl" r="2.190433937142651" cx="19.285913538723005" cy="7.167280286491252"></circle><circle class="pearl" r="2.190433937142651" cx="10.77410118783862" cy="20.23213563526935"></circle></g><g class="bobaCup bright" cupRadius="11.591236586215341" width="23.182473172430683" height="23.182473172430683" pearlRadius="2.7380424214283132" pearlCount="7" transform="translate(59.23731337763118,231.2884776307467)"><circle class="pool" r="11.591236586215341" cx="11.591236586215341" cy="11.591236586215341" style="stroke-width: 1; fill: rgb(65, 182, 196);"></circle><circle class="pearl" r="2.1904339371426507" cx="11.867101976316105" cy="11.633377373276604"></circle><circle class="pearl" r="2.1904339371426507" cx="4.05670385567059" cy="14.632094150568003"></circle><circle class="pearl" r="2.1904339371426507" cx="12.146727582988774" cy="3.664041377082662"></circle><circle class="pearl" r="2.1904339371426507" cx="18.07448242894034" cy="17.2179084674993"></circle><circle class="pearl" r="2.1904339371426507" cx="4.748007405766384" cy="6.668460089680124"></circle><circle class="pearl" r="2.1904339371426507" cx="18.92230470972542" cy="7.882190307591627"></circle><circle class="pearl" r="2.1904339371426507" cx="10.405665652360675" cy="19.470959453022182"></circle></g><g class="bobaCup bright" cupRadius="11.465852302804437" width="22.931704605608875" height="22.931704605608875" pearlRadius="2.7380424214283137" pearlCount="7" transform="translate(148.3158915653871,130.36889446368167)"><circle class="pool" r="11.465852302804437" cx="11.465852302804437" cy="11.465852302804437" style="stroke-width: 1; fill: rgb(29, 145, 192);"></circle><circle class="pearl" r="2.190433937142651" cx="11.526144104419211" cy="11.486418090744738"></circle><circle class="pearl" r="2.190433937142651" cx="3.998178265650621" cy="14.267104035735072"></circle><circle class="pearl" r="2.190433937142651" cx="12.362662074385026" cy="3.6858493399507886"></circle><circle class="pearl" r="2.190433937142651" cx="17.92177908222717" cy="16.88077563057597"></circle><circle class="pearl" r="2.190433937142651" cx="4.867256760109695" cy="6.326082487462139"></circle><circle class="pearl" r="2.190433937142651" cx="18.823153379441298" cy="8.258178702564383"></circle><circle class="pearl" r="2.190433937142651" cx="10.176481100609207" cy="19.208253796304792"></circle></g><g class="bobaCup bright" cupRadius="11.328782195028815" width="22.65756439005763" height="22.65756439005763" pearlRadius="2.7380424214283137" pearlCount="6" transform="translate(92.4983794763298,224.71730921166892)"><circle class="pool" r="11.328782195028815" cx="11.328782195028815" cy="11.328782195028815" style="stroke-width: 1; fill: rgb(65, 182, 196);"></circle><circle class="pearl" r="2.190433937142651" cx="11.890226199000747" cy="11.4111365228469"></circle><circle class="pearl" r="2.190433937142651" cx="6.364915627459851" cy="17.189635971511382"></circle><circle class="pearl" r="2.190433937142651" cx="9.388437645461929" cy="3.8181269670037814"></circle><circle class="pearl" r="2.190433937142651" cx="17.27319007981498" cy="17.32198560044318"></circle><circle class="pearl" r="2.190433937142651" cx="3.7944719529128346" cy="9.529801294070733"></circle><circle class="pearl" r="2.190433937142651" cx="17.302358305813893" cy="5.353618738672651"></circle></g><g class="bobaCup bright" cupRadius="10.968695578745605" width="21.93739115749121" height="21.93739115749121" pearlRadius="2.738042421428314" pearlCount="6" transform="translate(302.5037798213122,15.853322356289068)"><circle class="pool" r="10.968695578745605" cx="10.968695578745605" cy="10.968695578745605" style="stroke-width: 1; fill: rgb(127, 205, 187);"></circle><circle class="pearl" r="2.1904339371426516" cx="11.361026893494778" cy="11.18598510073831"></circle><circle class="pearl" r="2.1904339371426516" cx="6.053874395435678" cy="17.123930510154675"></circle><circle class="pearl" r="2.1904339371426516" cx="8.884090582303191" cy="3.8506349991050723"></circle><circle class="pearl" r="2.1904339371426516" cx="16.606568043595413" cy="16.72683395874767"></circle><circle class="pearl" r="2.1904339371426516" cx="3.73655616834461" cy="9.599176144615868"></circle><circle class="pearl" r="2.1904339371426516" cx="16.675599626254066" cy="5.252267218294287"></circle></g><g class="bobaCup bright" cupRadius="10.765150252925542" width="21.530300505851084" height="21.530300505851084" pearlRadius="2.738042421428314" pearlCount="6" transform="translate(207.7614134373226,24.598053131130627)"><circle class="pool" r="10.765150252925542" cx="10.765150252925542" cy="10.765150252925542" style="stroke-width: 1; fill: rgb(29, 145, 192);"></circle><circle class="pearl" r="2.1904339371426516" cx="11.081844677753312" cy="11.042583103943866"></circle><circle class="pearl" r="2.1904339371426516" cx="5.341121323942609" cy="16.41326405624286"></circle><circle class="pearl" r="2.1904339371426516" cx="8.875764438076734" cy="3.817822660203545"></circle><circle class="pearl" r="2.1904339371426516" cx="16.21338112205392" cy="16.399104744380043"></circle><circle class="pearl" r="2.1904339371426516" cx="3.795377267221792" cy="9.006309688622812"></circle><circle class="pearl" r="2.1904339371426516" cx="16.32474912188236" cy="5.197450602047185"></circle></g><g class="bobaCup bright" cupRadius="10.65782446792065" width="21.3156489358413" height="21.3156489358413" pearlRadius="2.7380424214283137" pearlCount="6" transform="translate(274.85107568852817,250.51089293079724)"><circle class="pool" r="10.65782446792065" cx="10.65782446792065" cy="10.65782446792065" style="stroke-width: 1; fill: rgb(65, 182, 196);"></circle><circle class="pearl" r="2.190433937142651" cx="10.986342305804502" cy="10.947386595138846"></circle><circle class="pearl" r="2.190433937142651" cx="5.296576288599175" cy="16.21830313425613"></circle><circle class="pearl" r="2.190433937142651" cx="8.771979843732785" cy="3.818895059610483"></circle><circle class="pearl" r="2.190433937142651" cx="16.000740261691853" cy="16.228948842171807"></circle><circle class="pearl" r="2.190433937142651" cx="3.795168838172396" cy="8.909085673688642"></circle><circle class="pearl" r="2.190433937142651" cx="16.120205418250986" cy="5.156956755978914"></circle></g><g class="bobaCup bright" cupRadius="10.308116855267446" width="20.616233710534893" height="20.616233710534893" pearlRadius="2.7380424214283132" pearlCount="5" transform="translate(117.56650785645216,238.7867739044146)"><circle class="pool" r="10.308116855267446" cx="10.308116855267446" cy="10.308116855267446" style="stroke-width: 1; fill: rgb(65, 182, 196);"></circle><circle class="pearl" r="2.1904339371426507" cx="16.672492530951285" cy="7.867816250866291"></circle><circle class="pearl" r="2.1904339371426507" cx="7.217059544613767" cy="16.019061172361322"></circle><circle class="pearl" r="2.1904339371426507" cx="9.874931887343193" cy="3.6598292631134006"></circle><circle class="pearl" r="2.1904339371426507" cx="15.20680310072557" cy="15.72713155953699"></circle><circle class="pearl" r="2.1904339371426507" cx="3.7601523745214225" cy="8.810104135136879"></circle></g><g class="bobaCup bright" cupRadius="10.157783923879325" width="20.31556784775865" height="20.31556784775865" pearlRadius="2.738042421428314" pearlCount="5" transform="translate(95.81513829741189,240.69612825623787)"><circle class="pool" r="10.157783923879325" cx="10.157783923879325" cy="10.157783923879325" style="stroke-width: 1; fill: rgb(127, 205, 187);"></circle><circle class="pearl" r="2.1904339371426516" cx="16.28003096232687" cy="7.3883748886894915"></circle><circle class="pearl" r="2.1904339371426516" cx="7.369100470850979" cy="16.274548542397028"></circle><circle class="pearl" r="2.1904339371426516" cx="9.288347843744052" cy="3.6880004879211943"></circle><circle class="pearl" r="2.1904339371426516" cx="15.271429408104396" cy="15.28380292154947"></circle><circle class="pearl" r="2.1904339371426516" cx="3.6894953727997852" cy="9.27111890961906"></circle></g><g class="bobaCup bright" cupRadius="9.385834694812146" width="18.771669389624293" height="18.771669389624293" pearlRadius="2.7380424214283137" pearlCount="4" transform="translate(168.43787815411116,211.56805938333304)"><circle class="pool" r="9.385834694812146" cx="9.385834694812146" cy="9.385834694812146" style="stroke-width: 1; fill: rgb(65, 182, 196);"></circle><circle class="pearl" r="2.190433937142651" cx="14.635590557911744" cy="6.406679637237532"></circle><circle class="pearl" r="2.190433937142651" cx="5.5238755853870884" cy="12.274013807281548"></circle><circle class="pearl" r="2.190433937142651" cx="7.026634088103613" cy="3.9520620421774115"></circle><circle class="pearl" r="2.190433937142651" cx="13.262447053710767" cy="14.282963216077032"></circle></g><g class="bobaCup bright" cupRadius="9.2320029768093" width="18.4640059536186" height="18.4640059536186" pearlRadius="2.7380424214283137" pearlCount="4" transform="translate(64.70031665095605,66.15005003226605)"><circle class="pool" r="9.2320029768093" cx="9.2320029768093" cy="9.2320029768093" style="stroke-width: 1; fill: rgb(127, 205, 187);"></circle><circle class="pearl" r="2.190433937142651" cx="14.265836679153505" cy="6.100174456997435"></circle><circle class="pearl" r="2.190433937142651" cx="5.271868275002699" cy="12.044537734617556"></circle><circle class="pearl" r="2.190433937142651" cx="6.537360125399626" cy="4.05273306454712"></circle><circle class="pearl" r="2.190433937142651" cx="13.02455366467007" cy="13.998312375228714"></circle></g><g class="bobaCup bright" cupRadius="9.097900806374897" width="18.195801612749793" height="18.195801612749793" pearlRadius="2.738042421428314" pearlCount="4" transform="translate(62.401164455594284,65.94847515677944)"><circle class="pool" r="9.097900806374897" cx="9.097900806374897" cy="9.097900806374897" style="stroke-width: 1; fill: rgb(29, 145, 192);"></circle><circle class="pearl" r="2.1904339371426516" cx="13.925797410426146" cy="5.798688049291744"></circle><circle class="pearl" r="2.1904339371426516" cx="5.049192519727302" cy="12.084208442115031"></circle><circle class="pearl" r="2.1904339371426516" cx="6.100747307510434" cy="4.158579216268869"></circle><circle class="pearl" r="2.1904339371426516" cx="12.87424262265076" cy="13.724317275143907"></circle></g><g class="bobaCup bright" cupRadius="9.067955572289568" width="18.135911144579136" height="18.135911144579136" pearlRadius="2.7380424214283132" pearlCount="4" transform="translate(85.90339886423916,175.98057894153786)"><circle class="pool" r="9.067955572289568" cx="9.067955572289568" cy="9.067955572289568" style="stroke-width: 1; fill: rgb(29, 145, 192);"></circle><circle class="pearl" r="2.1904339371426507" cx="13.851435010213773" cy="5.737483587495044"></circle><circle class="pearl" r="2.1904339371426507" cx="4.989234568386957" cy="12.111993438663504"></circle><circle class="pearl" r="2.1904339371426507" cx="6.009080363987086" cy="4.1822216480923045"></circle><circle class="pearl" r="2.1904339371426507" cx="12.831589214619118" cy="13.667255378070731"></circle></g><g class="bobaCup bright" cupRadius="9.022609054799617" width="18.045218109599233" height="18.045218109599233" pearlRadius="2.7380424214283137" pearlCount="4" transform="translate(232.78189486336896,256.44120825670063)"><circle class="pool" r="9.022609054799617" cx="9.022609054799617" cy="9.022609054799617" style="stroke-width: 1; fill: rgb(29, 145, 192);"></circle><circle class="pearl" r="2.190433937142651" cx="13.73807233436396" cy="5.644089043486267"></circle><circle class="pearl" r="2.190433937142651" cx="4.901433580122951" cy="12.155123172240561"></circle><circle class="pearl" r="2.190433937142651" cx="5.871012822100701" cy="4.219048437781531"></circle><circle class="pearl" r="2.190433937142651" cx="12.768493092389207" cy="13.580163777947977"></circle></g><g class="bobaCup bright" cupRadius="9.019329240777015" width="18.03865848155403" height="18.03865848155403" pearlRadius="2.738042421428314" pearlCount="4" transform="translate(105.5773991216002,222.88793052847362)"><circle class="pool" r="9.019329240777015" cx="9.019329240777015" cy="9.019329240777015" style="stroke-width: 1; fill: rgb(29, 145, 192);"></circle><circle class="pearl" r="2.1904339371426516" cx="13.729856650764546" cy="5.637349389752112"></circle><circle class="pearl" r="2.1904339371426516" cx="4.895157602433939" cy="12.158267278516144"></circle><circle class="pearl" r="2.1904339371426516" cx="5.861093123788275" cy="4.2217482263131"></circle><circle class="pearl" r="2.1904339371426516" cx="12.763921129413072" cy="13.573868441957725"></circle></g><g class="bobaCup bright" cupRadius="8.84895666376149" width="17.69791332752298" height="17.69791332752298" pearlRadius="2.7380424214283137" pearlCount="4" transform="translate(142.77968434896036,241.2117854388611)"><circle class="pool" r="8.84895666376149" cx="8.84895666376149" cy="8.84895666376149" style="stroke-width: 1; fill: rgb(29, 145, 192);"></circle><circle class="pearl" r="2.190433937142651" cx="13.305306011571798" cy="5.302210510113947"></circle><circle class="pearl" r="2.190433937142651" cx="4.564043987682661" cy="12.320125357669607"></circle><circle class="pearl" r="2.190433937142651" cx="5.365308926707603" cy="4.365294083849662"></circle><circle class="pearl" r="2.190433937142651" cx="12.504041072547045" cy="13.257041783934131"></circle></g><g class="bobaCup bright" cupRadius="8.66236697087463" width="17.32473394174926" height="17.32473394174926" pearlRadius="2.738042421428314" pearlCount="4" transform="translate(108.22517467176463,190.97939901909274)"><circle class="pool" r="8.66236697087463" cx="8.66236697087463" cy="8.66236697087463" style="stroke-width: 1; fill: rgb(127, 205, 187);"></circle><circle class="pearl" r="2.1904339371426516" cx="12.736647126690507" cy="4.743065470695081"></circle><circle class="pearl" r="2.1904339371426516" cx="4.588086815058752" cy="12.581668471054178"></circle><circle class="pearl" r="2.1904339371426516" cx="4.743065470695081" cy="4.588086815058752"></circle><circle class="pearl" r="2.1904339371426516" cx="12.581668471054178" cy="12.736647126690507"></circle></g><g class="bobaCup bright" cupRadius="8.45448230704983" width="16.90896461409966" height="16.90896461409966" pearlRadius="2.7380424214283137" pearlCount="4" transform="translate(221.213301681491,166.53873345622122)"><circle class="pool" r="8.45448230704983" cx="8.45448230704983" cy="8.45448230704983" style="stroke-width: 1; fill: rgb(65, 182, 196);"></circle><circle class="pearl" r="2.190433937142651" cx="12.286676637837004" cy="4.569121825144946"></circle><circle class="pearl" r="2.190433937142651" cx="4.6219337616012135" cy="12.3396626558209"></circle><circle class="pearl" r="2.190433937142651" cx="4.622450647651783" cy="4.569039106886099"></circle><circle class="pearl" r="2.190433937142651" cx="12.286159619528839" cy="12.34010567701389"></circle></g><g class="bobaCup bright" cupRadius="8.243317381745598" width="16.486634763491196" height="16.486634763491196" pearlRadius="2.738042421428314" pearlCount="3" transform="translate(231.2508575191627,277.7865055826618)"><circle class="pool" r="8.243317381745598" cx="8.243317381745598" cy="8.243317381745598" style="stroke-width: 1; fill: rgb(127, 205, 187);"></circle><circle class="pearl" r="2.1904339371426516" cx="12.545155909019778" cy="9.890859971566616"></circle><circle class="pearl" r="2.1904339371426516" cx="4.511952972782547" cy="11.176160506581402"></circle><circle class="pearl" r="2.1904339371426516" cx="7.505974170829554" cy="3.6837661663346126"></circle></g><g class="bobaCup bright" cupRadius="7.865209150787123" width="15.730418301574247" height="15.730418301574247" pearlRadius="2.7380424214283137" pearlCount="3" transform="translate(23.839011484710742,174.75205829163434)"><circle class="pool" r="7.865209150787123" cx="7.865209150787123" cy="7.865209150787123" style="stroke-width: 1; fill: rgb(65, 182, 196);"></circle><circle class="pearl" r="2.190433937142651" cx="11.958136697846664" cy="9.242666101366966"></circle><circle class="pearl" r="2.190433937142651" cx="4.475145629279237" cy="11.311596905268724"></circle><circle class="pearl" r="2.190433937142651" cx="6.25161280390176" cy="3.818022155476423"></circle></g><g class="bobaCup bright" cupRadius="6.959548953680078" width="13.919097907360156" height="13.919097907360156" pearlRadius="2.7380424214283137" pearlCount="2" transform="translate(83.97554170891188,134.73692513441435)"><circle class="pool" r="6.959548953680078" cx="6.959548953680078" cy="6.959548953680078" style="stroke-width: 1; fill: rgb(127, 205, 187);"></circle><circle class="pearl" r="2.190433937142651" cx="9.683368020852054" cy="4.205888423607413"></circle><circle class="pearl" r="2.190433937142651" cx="4.235729886508101" cy="9.713209483752742"></circle></g><g class="bobaCup bright" cupRadius="6.506956347849075" width="13.01391269569815" height="13.01391269569815" pearlRadius="2.7380424214283137" pearlCount="2" transform="translate(225.97926294036955,192.5985187089198)"><circle class="pool" r="6.506956347849075" cx="6.506956347849075" cy="6.506956347849075" style="stroke-width: 1; fill: rgb(29, 145, 192);"></circle><circle class="pearl" r="2.190433937142651" cx="8.799254977863946" cy="4.067864480405723"></circle><circle class="pearl" r="2.190433937142651" cx="4.214657717834203" cy="8.946048215292425"></circle></g><g class="bobaCup bright" cupRadius="6.23167831625577" width="12.46335663251154" height="12.46335663251154" pearlRadius="2.7380424214283132" pearlCount="2" transform="translate(313.7683216837442,212.69761552496018)"><circle class="pool" r="6.23167831625577" cx="6.23167831625577" cy="6.23167831625577" style="stroke-width: 1; fill: rgb(65, 182, 196);"></circle><circle class="pearl" r="2.1904339371426507" cx="8.261722618711694" cy="3.9906501271787373"></circle><circle class="pearl" r="2.1904339371426507" cx="4.201634013799844" cy="8.472706505332802"></circle></g><g class="bobaCup bright" cupRadius="3.251191996541074" width="6.502383993082148" height="6.502383993082148" pearlRadius="2.7380424214283137" pearlCount="1" transform="translate(29.311557153614366,251.6852763784556)"><circle class="pool" r="3.251191996541074" cx="3.251191996541074" cy="3.251191996541074" style="stroke-width: 1; fill: rgb(65, 182, 196);"></circle><circle class="pearl" r="2.190433937142651" cx="3.6753653350584945" cy="3.6753653350584945"></circle></g><g class="bobaCup bright" cupRadius="0" width="0" height="0" pearlRadius="NaN" pearlCount="0" transform="translate(20,300)"><circle class="pool" r="0" cx="0" cy="0" style="stroke-width: 1; fill: rgb(127, 205, 187);"></circle></g><g class="bobaCup bright" cupRadius="0" width="0" height="0" pearlRadius="NaN" pearlCount="0" transform="translate(164.01922178995522,263.6140921480157)"><circle class="pool" r="0" cx="0" cy="0" style="stroke-width: 1; fill: rgb(29, 145, 192);"></circle></g></g><g id="legendDividerGroup" transform="translate(410,0)" height="400"><rect class="legendDivider" height="400" width="90"></rect></g><g id="legend" transform="translate(410,30)" width="90" height="320"><rect class="legendBorder" transform="translate(0,0)" width="90" height="324.9477195110013"></rect><text id="rTitle" text-anchor="middle" alignment-baseline="hanging" transform="translate(45,10)" x="0" y="0" style="fill: black; font-size: 0.8rem;">Population</text><text id="bobaValue" text-anchor="middle" alignment-baseline="hanging" transform="translate(45,25)" x="0" y="0" style="fill: black; font-size: 0.7rem;">(1 Pearl =   75)</text><g class="bright" cupRadius="8.94427190999916" width="17.88854381999832" height="17.88854381999832" pearlRadius="2.7380424214283137" pearlCount="4" transform="translate(36.05572809000084,50)"><circle class="pool" r="8.94427190999916" cx="8.94427190999916" cy="8.94427190999916" style="stroke-width: 1; fill: rgb(127, 205, 187);"></circle><circle class="pearl" r="2.190433937142651" cx="13.542613460651712" cy="5.486970900805415"></circle><circle class="pearl" r="2.190433937142651" cx="4.749399498236599" cy="12.229516637519533"></circle><circle class="pearl" r="2.190433937142651" cx="5.6385452023940825" cy="4.284028231246733"></circle><circle class="pearl" r="2.190433937142651" cx="12.653467756495177" cy="13.432459307079196"></circle></g><text id="0" class="legendSampleValue" text-anchor="middle" transform="translate(45,8)" x="0" y="72.88854381999832" style="fill: black; font-size: 0.7rem;"> 300</text><g class="bright" cupRadius="12.649110640673518" width="25.298221281347036" height="25.298221281347036" pearlRadius="2.7380424214283137" pearlCount="8" transform="translate(32.35088935932648,92.88854381999832)"><circle class="pool" r="12.649110640673518" cx="12.649110640673518" cy="12.649110640673518" style="stroke-width: 1; fill: rgb(127, 205, 187);"></circle><circle class="pearl" r="2.190433937142651" cx="14.071403428550026" cy="12.846878791771143"></circle><circle class="pearl" r="2.190433937142651" cx="6.440581911774749" cy="19.57795138257092"></circle><circle class="pearl" r="2.190433937142651" cx="15.10273708455154" cy="3.8909774644866477"></circle><circle class="pearl" r="2.190433937142651" cx="20.833946229646862" cy="17.112242666106596"></circle><circle class="pearl" r="2.190433937142651" cx="3.6634707295578792" cy="12.081372495075817"></circle><circle class="pearl" r="2.190433937142651" cx="21.1462151053254" cy="9.123450087562194"></circle><circle class="pearl" r="2.190433937142651" cx="14.187116834584868" cy="21.553646746241665"></circle><circle class="pearl" r="2.190433937142651" cx="7.171845845081948" cy="4.898098459274186"></circle></g><text id="1" class="legendSampleValue" text-anchor="middle" transform="translate(45,8)" x="0" y="123.18676510134536" style="fill: black; font-size: 0.7rem;"> 600</text><g class="bright" cupRadius="15.491933384829668" width="30.983866769659336" height="30.983866769659336" pearlRadius="2.738042421428314" pearlCount="12" transform="translate(29.508066615170332,143.18676510134537)"><circle class="pool" r="15.491933384829668" cx="15.491933384829668" cy="15.491933384829668" style="stroke-width: 1; fill: rgb(127, 205, 187);"></circle><circle class="pearl" r="2.1904339371426516" cx="17.033011743384765" cy="11.01737610913958"></circle><circle class="pearl" r="2.1904339371426516" cx="11.029309432951333" cy="17.00347040031935"></circle><circle class="pearl" r="2.1904339371426516" cx="13.977981653444434" cy="3.724876288236054"></circle><circle class="pearl" r="2.1904339371426516" cx="18.741808845067855" cy="18.756462357333643"></circle><circle class="pearl" r="2.1904339371426516" cx="3.725529689195627" cy="13.971342248807428"></circle><circle class="pearl" r="2.1904339371426516" cx="26.98661348100194" cy="12.233596672509572"></circle><circle class="pearl" r="2.1904339371426516" cx="12.152198575888569" cy="26.968872613027877"></circle><circle class="pearl" r="2.1904339371426516" cx="6.524197378590721" cy="6.5101702816287865"></circle><circle class="pearl" r="2.1904339371426516" cx="26.508263068801252" cy="20.479674242239334"></circle><circle class="pearl" r="2.1904339371426516" cx="5.419021306595209" cy="22.679550094546478"></circle><circle class="pearl" r="2.1904339371426516" cx="22.76079804957651" cy="5.461881544509561"></circle><circle class="pearl" r="2.1904339371426516" cx="20.400071923945557" cy="26.535092423407907"></circle></g><text id="2" class="legendSampleValue" text-anchor="middle" transform="translate(45,8)" x="0" y="179.1706318710047" style="fill: black; font-size: 0.7rem;"> 900</text><g class="bright" cupRadius="17.88854381999832" width="35.77708763999664" height="35.77708763999664" pearlRadius="2.7380424214283137" pearlCount="16" transform="translate(27.11145618000168,199.1706318710047)"><circle class="pool" r="17.88854381999832" cx="17.88854381999832" cy="17.88854381999832" style="stroke-width: 1; fill: rgb(127, 205, 187);"></circle><circle class="pearl" r="2.190433937142651" cx="19.8046930625516" cy="19.706925044831756"></circle><circle class="pearl" r="2.190433937142651" cx="13.339172784724305" cy="23.858410298028698"></circle><circle class="pearl" r="2.190433937142651" cx="16.092791630714295" cy="11.113543243945612"></circle><circle class="pearl" r="2.190433937142651" cx="20.836129534048155" cy="27.499380517199565"></circle><circle class="pearl" r="2.190433937142651" cx="10.312657514553905" cy="16.56124087753138"></circle><circle class="pearl" r="2.190433937142651" cx="23.678755837700653" cy="13.13675787817294"></circle><circle class="pearl" r="2.190433937142651" cx="14.311679794483911" cy="31.765114841909277"></circle><circle class="pearl" r="2.190433937142651" cx="11.081450997216843" cy="4.99648955196875"></circle><circle class="pearl" r="2.190433937142651" cx="27.674351504393126" cy="20.796258814455655"></circle><circle class="pearl" r="2.190433937142651" cx="4.000488629236898" cy="21.40866477780026"></circle><circle class="pearl" r="2.190433937142651" cx="28.333596734388347" cy="7.01684061165493"></circle><circle class="pearl" r="2.190433937142651" cx="28.522531366621063" cy="28.62247591779055"></circle><circle class="pearl" r="2.190433937142651" cx="5.30391541992303" cy="10.377661215789304"></circle><circle class="pearl" r="2.190433937142651" cx="31.694235049536697" cy="13.980399213320233"></circle><circle class="pearl" r="2.190433937142651" cx="7.311073872078207" cy="28.66408585659018"></circle><circle class="pearl" r="2.190433937142651" cx="18.987039995684725" cy="3.684483203560177"></circle></g><text id="3" class="legendSampleValue" text-anchor="middle" transform="translate(45,8)" x="0" y="239.94771951100134" style="fill: black; font-size: 0.7rem;">1.2k</text><g class="bright" cupRadius="20" width="40" height="40" pearlRadius="2.7380424214283137" pearlCount="20" transform="translate(25,259.9477195110013)"><circle class="pool" r="20" cx="20" cy="20" style="stroke-width: 1; fill: rgb(127, 205, 187);"></circle><circle class="pearl" r="2.190433937142651" cx="22.480421380823074" cy="19.96094551607325"></circle><circle class="pearl" r="2.190433937142651" cx="14.554532211889109" cy="20.25858246523202"></circle><circle class="pearl" r="2.190433937142651" cx="21.718613402750453" cy="11.231225788085391"></circle><circle class="pearl" r="2.190433937142651" cx="25.13767186853209" cy="27.447308990534317"></circle><circle class="pearl" r="2.190433937142651" cx="6.622341466842937" cy="15.212813608895589"></circle><circle class="pearl" r="2.190433937142651" cx="28.49521909515808" cy="14.82158787688231"></circle><circle class="pearl" r="2.190433937142651" cx="17.504603283401977" cy="28.993209871734443"></circle><circle class="pearl" r="2.190433937142651" cx="14.13811847195522" cy="12.373399584276378"></circle><circle class="pearl" r="2.190433937142651" cx="31.11803529924844" cy="22.444175683247455"></circle><circle class="pearl" r="2.190433937142651" cx="10.013176726772668" cy="26.767604068489224"></circle><circle class="pearl" r="2.190433937142651" cx="25.1625299271706" cy="4.328500666167248"></circle><circle class="pearl" r="2.190433937142651" cx="27.782608687955303" cy="34.772930101052836"></circle><circle class="pearl" r="2.190433937142651" cx="8.036930275650786" cy="7.623092000895575"></circle><circle class="pearl" r="2.190433937142651" cx="36.040664285033515" cy="16.500106031740792"></circle><circle class="pearl" r="2.190433937142651" cx="11.3070075503718" cy="34.36126950601293"></circle><circle class="pearl" r="2.190433937142651" cx="16.81383473400994" cy="3.9061454691506903"></circle><circle class="pearl" r="2.190433937142651" cx="33.74247113697989" cy="29.87303346303284"></circle><circle class="pearl" r="2.190433937142651" cx="3.788525504185259" cy="22.343736665541265"></circle><circle class="pearl" r="2.190433937142651" cx="32.18050534208177" cy="7.787706818962306"></circle><circle class="pearl" r="2.190433937142651" cx="20.00567962395882" cy="36.34927596497569"></circle></g><text id="4" class="legendSampleValue" text-anchor="middle" transform="translate(45,8)" x="0" y="304.9477195110013" style="fill: black; font-size: 0.7rem;">1.5k</text></g></svg>