<?xml version="1.0" standalone="no"?>
<?xml-stylesheet xmlns="http://www.w3.org/2000/svg" type="text/css" href="style.css"?>
<svg id="syntheticVisC" class="default" xTitle="Percent Cat Owners" yTitle="Percent Dog Owners" rTitle="Population" chartTitle="Towns in Vizzyland" width="500" height="400" xmlns="http://www.w3.org/2000/svg"><rect class="background" width="500" height="400"></rect><text id="chartTitle" text-anchor="middle" transform="translate(250,20)" x="0" y="0" style="fill: black; font-size: 1.2rem;">Towns in Vizzyland</text><g id="yAxis" transform="translate(50,30)" fill="none" font-size="10" font-family="sans-serif" text-anchor="end"><path class="domain" stroke="currentColor" d="M-6,300H0V20H-6"></path><g class="tick" opacity="1" transform="translate(0,300)"><line stroke="currentColor" x2="-6"></line><text fill="currentColor" x="-9" dy="0.32em">0</text></g><g class="tick" opacity="1" transform="translate(0,272)"><line stroke="currentColor" x2="-6"></line><text fill="currentColor" x="-9" dy="0.32em">10</text></g><g class="tick" opacity="1" transform="translate(0,244)"><line stroke="currentColor" x2="-6"></line><text fill="currentColor" x="-9" dy="0.32em">20</text></g><g class="tick" opacity="1" transform="translate(0,216.00000000000003)"><line stroke="currentColor" x2="-6"></line><text fill="currentColor" x="-9" dy="0.32em">30</text></g><g class="tick" opacity="1" transform="translate(0,188.00000000000003)"><line stroke="currentColor" x2="-6"></line><text fill="currentColor" x="-9" dy="0.32em">40</text></g><g class="tick" opacity="1" transform="translate(0,160)"><line stroke="currentColor" x2="-6"></line><text fill="currentColor" x="-9" dy="0.32em">50</text></g><g class="tick" opacity="1" transform="translate(0,132.00000000000003)"><line stroke="currentColor" x2="-6"></line><text fill="currentColor" x="-9" dy="0.32em">60</text></g><g class="tick" opacity="1" transform="translate(0,104.00000000000001)"><line stroke="currentColor" x2="-6"></line><text fill="currentColor" x="-9" dy="0.32em">70</text></g><g class="tick" opacity="1" transform="translate(0,76.00000000000001)"><line stroke="currentColor" x2="-6"></line><text fill="currentColor" x="-9" dy="0.32em">80</text></g><g class="tick" opacity="1" transform="translate(0,48.00000000000003)"><line stroke="currentColor" x2="-6"></line><text fill="currentColor" x="-9" dy="0.32em">90</text></g><g class="tick" opacity="1" transform="translate(0,20.00000000000003)"><line stroke="currentColor" x2="-6"></line><text fill="currentColor" x="-9" dy="0.32em">100</text></g></g><g id="xAxis" transform="translate(60,360)" fill="none" font-size="10" font-family="sans-serif" text-anchor="middle"><path class="domain" stroke="currentColor" d="M20,6V0H320V6"></path><g class="tick" opacity="1" transform="translate(20,0)"><line stroke="currentColor" y2="6"></line><text fill="currentColor" y="9" dy="0.71em">0</text></g><g class="tick" opacity="1" transform="translate(50,0)"><line stroke="currentColor" y2="6"></line><text fill="currentColor" y="9" dy="0.71em">10</text></g><g class="tick" opacity="1" transform="translate(80,0)"><line stroke="currentColor" y2="6"></line><text fill="currentColor" y="9" dy="0.71em">20</text></g><g class="tick" opacity="1" transform="translate(110,0)"><line stroke="currentColor" y2="6"></line><text fill="currentColor" y="9" dy="0.71em">30</text></g><g class="tick" opacity="1" transform="translate(140,0)"><line stroke="currentColor" y2="6"></line><text fill="currentColor" y="9" dy="0.71em">40</text></g><g class="tick" opacity="1" transform="translate(170,0)"><line stroke="currentColor" y2="6"></line><text fill="currentColor" y="9" dy="0.71em">50</text></g><g class="tick" opacity="1" transform="translate(200,0)"><line stroke="currentColor" y2="6"></line><text fill="currentColor" y="9" dy="0.71em">60</text></g><g class="tick" opacity="1" transform="translate(230,0)"><line stroke="currentColor" y2="6"></line><text fill="currentColor" y="9" dy="0.71em">70</text></g><g class="tick" opacity="1" transform="translate(260,0)"><line stroke="currentColor" y2="6"></line><text fill="currentColor" y="9" dy="0.71em">80</text></g><g class="tick" opacity="1" transform="translate(290,0)"><line stroke="currentColor" y2="6"></line><text fill="currentColor" y="9" dy="0.71em">90</text></g><g class="tick" opacity="1" transform="translate(320,0)"><line stroke="currentColor" y2="6"></line><text fill="currentColor" y="9" dy="0.71em">100</text></g></g><g id="labels"><text id="xTitle" text-anchor="middle" transform="translate(250,350)" x="0" y="40" style="fill: black; font-size: 0.8rem;">Percent Cat Owners</text><g id="group-yTitle" transform="translate(60,190)"><text id="yTitle" text-anchor="middle" transform="rotate(-90)" y="-45" style="fill: black; font-size: 0.8rem;">Percent Dog Owners</text></g></g><g id="quadrant_lines" transform="translate(60,30)"><line id="verticalQuadrantLine" x1="170" y1="10" x2="170" y2="310" class="quadrantLine"></line><line id="horizontalQuadrantLine" x1="10" y1="160" x2="330" y2="160" class="quadrantLine"></line></g><g id="chart" transform="translate(60,30)"><g class="bobaCup bright" cupRadius="20" width="40" height="40" pearlRadius="2.7380424214283137" pearlCount="20" transform="translate(248.06794647357907,280)"><circle class="pool" r="20" cx="20" cy="20" style="stroke-width: 1; fill: rgb(29, 145, 192);"></circle><circle class="pearl" r="2.190433937142651" cx="22.480421380823074" cy="19.96094551607325"></circle><circle class="pearl" r="2.190433937142651" cx="14.554532211889109" cy="20.25858246523202"></circle><circle class="pearl" r="2.190433937142651" cx="21.718613402750453" cy="11.231225788085391"></circle><circle class="pearl" r="2.190433937142651" cx="25.13767186853209" cy="27.447308990534317"></circle><circle class="pearl" r="2.190433937142651" cx="6.622341466842937" cy="15.212813608895589"></circle><circle class="pearl" r="2.190433937142651" cx="28.49521909515808" cy="14.82158787688231"></circle><circle class="pearl" r="2.190433937142651" cx="17.504603283401977" cy="28.993209871734443"></circle><circle class="pearl" r="2.190433937142651" cx="14.13811847195522" cy="12.373399584276378"></circle><circle class="pearl" r="2.190433937142651" cx="31.11803529924844" cy="22.444175683247455"></circle><circle class="pearl" r="2.190433937142651" cx="10.013176726772668" cy="26.767604068489224"></circle><circle class="pearl" r="2.190433937142651" cx="25.1625299271706" cy="4.328500666167248"></circle><circle class="pearl" r="2.190433937142651" cx="27.782608687955303" cy="34.772930101052836"></circle><circle class="pearl" r="2.190433937142651" cx="8.036930275650786" cy="7.623092000895575"></circle><circle class="pearl" r="2.190433937142651" cx="36.040664285033515" cy="16.500106031740792"></circle><circle class="pearl" r="2.190433937142651" cx="11.3070075503718" cy="34.36126950601293"></circle><circle class="pearl" r="2.190433937142651" cx="16.81383473400994" cy="3.9061454691506903"></circle><circle class="pearl" r="2.190433937142651" cx="33.74247113697989" cy="29.87303346303284"></circle><circle class="pearl" r="2.190433937142651" cx="3.788525504185259" cy="22.343736665541265"></circle><circle class="pearl" r="2.190433937142651" cx="32.18050534208177" cy="7.787706818962306"></circle><circle class="pearl" r="2.190433937142651" cx="20.00567962395882" cy="36.34927596497569"></circle></g><g class="bobaCup bright" cupRadius="19.431141555331962" width="38.862283110663924" height="38.862283110663924" pearlRadius="2.7380424214283132" pearlCount="19" transform="translate(128.17045161320715,114.66225181512205)"><circle class="pool" r="19.431141555331962" cx="19.431141555331962" cy="19.431141555331962" style="stroke-width: 1; fill: rgb(127, 205, 187);"></circle><circle class="pearl" r="2.1904339371426507" cx="19.67295353268975" cy="19.561934339641738"></circle><circle class="pearl" r="2.1904339371426507" cx="15.743426545787317" cy="26.934004849199788"></circle><circle class="pearl" r="2.1904339371426507" cx="21.17779173064677" cy="11.133533544743416"></circle><circle class="pearl" r="2.1904339371426507" cx="23.717393461040107" cy="26.71155471625684"></circle><circle class="pearl" r="2.1904339371426507" cx="10.999626575650323" cy="20.547222878828958"></circle><circle class="pearl" r="2.1904339371426507" cx="27.042240617819864" cy="16.466772541920502"></circle><circle class="pearl" r="2.1904339371426507" cx="15.900237833905006" cy="34.88806028105137"></circle><circle class="pearl" r="2.1904339371426507" cx="13.49906676452573" cy="12.98912772403623"></circle><circle class="pearl" r="2.1904339371426507" cx="30.990272283064684" cy="23.403129131368967"></circle><circle class="pearl" r="2.1904339371426507" cx="4.47192552918484" cy="25.02036539044959"></circle><circle class="pearl" r="2.1904339371426507" cx="25.709091932124025" cy="4.6928299748140985"></circle><circle class="pearl" r="2.1904339371426507" cx="23.883651815455234" cy="34.694550993284224"></circle><circle class="pearl" r="2.1904339371426507" cx="7.68135690544189" cy="7.605695269951723"></circle><circle class="pearl" r="2.1904339371426507" cx="35.00515526845676" cy="16.60647313834172"></circle><circle class="pearl" r="2.1904339371426507" cx="8.523397566913328" cy="31.86116405656041"></circle><circle class="pearl" r="2.1904339371426507" cx="16.87753787525976" cy="3.819248907847416"></circle><circle class="pearl" r="2.1904339371426507" cx="31.150413250625345" cy="31.279706474132166"></circle><circle class="pearl" r="2.1904339371426507" cx="3.8171765253060803" cy="16.893219483552596"></circle><circle class="pearl" r="2.1904339371426507" cx="32.24190842678342" cy="9.106965761099834"></circle></g><g class="bobaCup bright" cupRadius="18.759975558396977" width="37.519951116793955" height="37.519951116793955" pearlRadius="2.738042421428314" pearlCount="18" transform="translate(112.39464923528593,48.092180533509435)"><circle class="pool" r="18.759975558396977" cx="18.759975558396977" cy="18.759975558396977" style="stroke-width: 1; fill: rgb(29, 145, 192);"></circle><circle class="pearl" r="2.1904339371426516" cx="18.816710291496" cy="18.42482303666905"></circle><circle class="pearl" r="2.1904339371426516" cx="13.65695103285272" cy="24.522891923758216"></circle><circle class="pearl" r="2.1904339371426516" cx="18.43890145416329" cy="10.61462205706862"></circle><circle class="pearl" r="2.1904339371426516" cx="21.523951631280752" cy="25.72516689356805"></circle><circle class="pearl" r="2.1904339371426516" cx="11.761135736185178" cy="14.788776885772531"></circle><circle class="pearl" r="2.1904339371426516" cx="25.576406859388367" cy="13.977275452808241"></circle><circle class="pearl" r="2.1904339371426516" cx="16.376347852276357" cy="32.04116113630853"></circle><circle class="pearl" r="2.1904339371426516" cx="13.653258452860566" cy="4.359158039550579"></circle><circle class="pearl" r="2.1904339371426516" cx="28.255943911442778" cy="21.465213917281073"></circle><circle class="pearl" r="2.1904339371426516" cx="5.736286209362475" cy="23.388992143979333"></circle><circle class="pearl" r="2.1904339371426516" cx="30.071602438151803" cy="7.444611112333115"></circle><circle class="pearl" r="2.1904339371426516" cx="24.207954405259514" cy="33.06074835204616"></circle><circle class="pearl" r="2.1904339371426516" cx="6.856407802786691" cy="8.271852993749572"></circle><circle class="pearl" r="2.1904339371426516" cx="33.590053435868136" cy="15.535588263024472"></circle><circle class="pearl" r="2.1904339371426516" cx="8.495762789584301" cy="30.812201708467942"></circle><circle class="pearl" r="2.1904339371426516" cx="22.945311278006887" cy="4.12355445369915"></circle><circle class="pearl" r="2.1904339371426516" cx="30.835239406791484" cy="28.988856895413416"></circle><circle class="pearl" r="2.1904339371426516" cx="3.9035627965747293" cy="15.690350111418178"></circle></g><g class="bobaCup bright" cupRadius="18.685217050579602" width="37.370434101159205" height="37.370434101159205" pearlRadius="2.7380424214283137" pearlCount="17" transform="translate(195.79791435316002,212.18293358236699)"><circle class="pool" r="18.685217050579602" cx="18.685217050579602" cy="18.685217050579602" style="stroke-width: 1; fill: rgb(29, 145, 192);"></circle><circle class="pearl" r="2.190433937142651" cx="19.140946939381884" cy="18.179797919778085"></circle><circle class="pearl" r="2.190433937142651" cx="13.396895155930427" cy="24.715192547331736"></circle><circle class="pearl" r="2.190433937142651" cx="15.947101169320868" cy="10.954913567618092"></circle><circle class="pearl" r="2.190433937142651" cx="21.226505675671845" cy="25.780063614224236"></circle><circle class="pearl" r="2.190433937142651" cx="10.963767347044492" cy="17.158265889979"></circle><circle class="pearl" r="2.190433937142651" cx="25.362795155971586" cy="13.222388926731224"></circle><circle class="pearl" r="2.190433937142651" cx="16.351718868361523" cy="32.143480477528556"></circle><circle class="pearl" r="2.190433937142651" cx="9.797829256285363" cy="5.899648896326507"></circle><circle class="pearl" r="2.190433937142651" cx="27.472975760947815" cy="20.828889121852857"></circle><circle class="pearl" r="2.190433937142651" cx="5.049628231498643" cy="22.5329033225228"></circle><circle class="pearl" r="2.190433937142651" cx="26.865661581720236" cy="5.536605069083535"></circle><circle class="pearl" r="2.190433937142651" cx="25.25285970544582" cy="32.52744686559875"></circle><circle class="pearl" r="2.190433937142651" cx="4.865594689475536" cy="12.0576714110092"></circle><circle class="pearl" r="2.190433937142651" cx="33.37618656956131" cy="15.118756146316118"></circle><circle class="pearl" r="2.190433937142651" cx="7.54535716108458" cy="30.035855689175467"></circle><circle class="pearl" r="2.190433937142651" cx="19.077395832795464" cy="3.6548393471913947"></circle><circle class="pearl" r="2.190433937142651" cx="31.383214266254367" cy="27.732684987144417"></circle></g><g class="bobaCup bright" cupRadius="17.595457365963863" width="35.19091473192773" height="35.19091473192773" pearlRadius="2.7380424214283132" pearlCount="15" transform="translate(126.27674643477182,172.634750533965)"><circle class="pool" r="17.595457365963863" cx="17.595457365963863" cy="17.595457365963863" style="stroke-width: 1; fill: rgb(29, 145, 192);"></circle><circle class="pearl" r="2.1904339371426507" cx="18.86343845742491" cy="17.787348850334897"></circle><circle class="pearl" r="2.1904339371426507" cx="13.17648375448638" cy="23.287196609834567"></circle><circle class="pearl" r="2.1904339371426507" cx="16.433604981487157" cy="9.772223198419512"></circle><circle class="pearl" r="2.1904339371426507" cx="20.441430305179562" cy="26.087809636350194"></circle><circle class="pearl" r="2.1904339371426507" cx="11.211909856881698" cy="15.762752303090876"></circle><circle class="pearl" r="2.1904339371426507" cx="24.020346716258757" cy="11.790978161542462"></circle><circle class="pearl" r="2.1904339371426507" cx="14.441716582720096" cy="31.2552522980244"></circle><circle class="pearl" r="2.1904339371426507" cx="9.915380040518048" cy="5.415307839294159"></circle><circle class="pearl" r="2.1904339371426507" cx="26.26814192410076" cy="20.558549536185392"></circle><circle class="pearl" r="2.1904339371426507" cx="4.742622303272038" cy="20.64333544183666"></circle><circle class="pearl" r="2.1904339371426507" cx="22.08100584811261" cy="4.232069547179431"></circle><circle class="pearl" r="2.1904339371426507" cx="27.97434648287969" cy="28.153139417937748"></circle><circle class="pearl" r="2.1904339371426507" cx="4.845513729920074" cy="11.222212798761399"></circle><circle class="pearl" r="2.1904339371426507" cx="31.278269768646634" cy="14.570781773853998"></circle><circle class="pearl" r="2.1904339371426507" cx="7.21725692910825" cy="28.153642456116703"></circle></g><g class="bobaCup bright" cupRadius="17.366890275231402" width="34.733780550462804" height="34.733780550462804" pearlRadius="2.738042421428314" pearlCount="15" transform="translate(10.8254936460966,12.388725728941733)"><circle class="pool" r="17.366890275231402" cx="17.366890275231402" cy="17.366890275231402" style="stroke-width: 1; fill: rgb(29, 145, 192);"></circle><circle class="pearl" r="2.1904339371426516" cx="18.576220127751814" cy="17.500662136446834"></circle><circle class="pearl" r="2.1904339371426516" cx="12.964899480863817" cy="22.982205656848727"></circle><circle class="pearl" r="2.1904339371426516" cx="16.266461622339023" cy="9.907085870707808"></circle><circle class="pearl" r="2.1904339371426516" cx="20.118012710834208" cy="25.726929370305818"></circle><circle class="pearl" r="2.1904339371426516" cx="10.849524618523287" cy="15.66372757441689"></circle><circle class="pearl" r="2.1904339371426516" cx="23.782012807479138" cy="11.570583516188574"></circle><circle class="pearl" r="2.1904339371426516" cx="14.270572411646304" cy="30.80480928411063"></circle><circle class="pearl" r="2.1904339371426516" cx="10.221428688932335" cy="5.188802539277972"></circle><circle class="pearl" r="2.1904339371426516" cx="25.944580857030545" cy="20.294025381898475"></circle><circle class="pearl" r="2.1904339371426516" cx="4.363801946096154" cy="20.411538337487496"></circle><circle class="pearl" r="2.1904339371426516" cx="21.68300989818743" cy="4.195604431391992"></circle><circle class="pearl" r="2.1904339371426516" cx="27.539405774962663" cy="27.79199051243504"></circle><circle class="pearl" r="2.1904339371426516" cx="5.036453349289413" cy="10.568993692630965"></circle><circle class="pearl" r="2.1904339371426516" cx="30.825673608617077" cy="14.388020852399059"></circle><circle class="pearl" r="2.1904339371426516" cx="7.198242231669463" cy="27.794784691801866"></circle></g><g class="bobaCup bright" cupRadius="16.957152816813938" width="33.914305633627876" height="33.914305633627876" pearlRadius="2.7380424214283132" pearlCount="14" transform="translate(158.12138698720295,37.433207314767806)"><circle class="pool" r="16.957152816813938" cx="16.957152816813938" cy="16.957152816813938" style="stroke-width: 1; fill: rgb(127, 205, 187);"></circle><circle class="pearl" r="2.1904339371426507" cx="22.133967466247665" cy="13.380493871995668"></circle><circle class="pearl" r="2.1904339371426507" cx="13.198899014776007" cy="22.778466514328155"></circle><circle class="pearl" r="2.1904339371426507" cx="14.256255159573428" cy="12.041855708589882"></circle><circle class="pearl" r="2.1904339371426507" cx="21.046199055044386" cy="21.29580498366539"></circle><circle class="pearl" r="2.1904339371426507" cx="7.868010715762936" cy="16.85666288533516"></circle><circle class="pearl" r="2.1904339371426507" cx="27.007446317527226" cy="6.965797941890786"></circle><circle class="pearl" r="2.1904339371426507" cx="15.996766065372306" cy="30.236364288070742"></circle><circle class="pearl" r="2.1904339371426507" cx="11.777699671850764" cy="4.461102473803858"></circle><circle class="pearl" r="2.1904339371426507" cx="29.40164872819413" cy="22.294657148402532"></circle><circle class="pearl" r="2.1904339371426507" cx="5.388045700768049" cy="24.433903176017946"></circle><circle class="pearl" r="2.1904339371426507" cx="19.727254514913028" cy="3.878513587868315"></circle><circle class="pearl" r="2.1904339371426507" cx="24.43609960651749" cy="28.525180738372217"></circle><circle class="pearl" r="2.1904339371426507" cx="5.501166960505194" cy="9.254401861629798"></circle><circle class="pearl" r="2.1904339371426507" cx="30.059202552339524" cy="14.33234241104886"></circle></g><g class="bobaCup bright" cupRadius="16.9442583672179" width="33.8885167344358" height="33.8885167344358" pearlRadius="2.7380424214283137" pearlCount="14" transform="translate(71.25861892455185,69.42365346565617)"><circle class="pool" r="16.9442583672179" cx="16.9442583672179" cy="16.9442583672179" style="stroke-width: 1; fill: rgb(29, 145, 192);"></circle><circle class="pearl" r="2.190433937142651" cx="22.112463788250086" cy="13.332674789514439"></circle><circle class="pearl" r="2.190433937142651" cx="13.217520701821881" cy="22.755340367933194"></circle><circle class="pearl" r="2.190433937142651" cx="14.223460605935244" cy="12.0504452885445"></circle><circle class="pearl" r="2.190433937142651" cx="21.062687851942595" cy="21.254131157789594"></circle><circle class="pearl" r="2.190433937142651" cx="7.835774317100664" cy="16.87975982111571"></circle><circle class="pearl" r="2.190433937142651" cx="26.98730959195186" cy="6.964857942490779"></circle><circle class="pearl" r="2.190433937142651" cx="16.017422950799332" cy="30.21242599253868"></circle><circle class="pearl" r="2.190433937142651" cx="11.756218950125746" cy="4.464509233773921"></circle><circle class="pearl" r="2.190433937142651" cx="29.369970658748425" cy="22.29739880840278"></circle><circle class="pearl" r="2.190433937142651" cx="5.417647437357177" cy="24.477944016243402"></circle><circle class="pearl" r="2.190433937142651" cx="19.70572371506271" cy="3.877260436860471"></circle><circle class="pearl" r="2.190433937142651" cx="24.38540248610297" cy="28.516454235095292"></circle><circle class="pearl" r="2.190433937142651" cx="5.487514395941" cy="9.27142796243564"></circle><circle class="pearl" r="2.190433937142651" cx="30.03568300456274" cy="14.334971788315448"></circle></g><g class="bobaCup bright" cupRadius="16.77592533962924" width="33.55185067925848" height="33.55185067925848" pearlRadius="2.7380424214283137" pearlCount="14" transform="translate(48.89742627518099,82.83867692776344)"><circle class="pool" r="16.77592533962924" cx="16.77592533962924" cy="16.77592533962924" style="stroke-width: 1; fill: rgb(127, 205, 187);"></circle><circle class="pearl" r="2.190433937142651" cx="21.457179283353167" cy="12.861709758274404"></circle><circle class="pearl" r="2.190433937142651" cx="13.354455076691684" cy="22.422274206670213"></circle><circle class="pearl" r="2.190433937142651" cx="13.49926876979826" cy="12.230294199069284"></circle><circle class="pearl" r="2.190433937142651" cx="21.152068772134026" cy="20.819183567179813"></circle><circle class="pearl" r="2.190433937142651" cx="7.269589980901184" cy="17.27465462485599"></circle><circle class="pearl" r="2.190433937142651" cx="26.652854479011697" cy="6.866488474144205"></circle><circle class="pearl" r="2.190433937142651" cx="16.141999480880767" cy="29.88914582983818"></circle><circle class="pearl" r="2.190433937142651" cx="11.399575502894441" cy="4.535565111309914"></circle><circle class="pearl" r="2.190433937142651" cx="29.010227753610277" cy="22.170147372163303"></circle><circle class="pearl" r="2.190433937142651" cx="5.874842004660579" cy="25.123176188749323"></circle><circle class="pearl" r="2.190433937142651" cx="19.345422671787098" cy="3.8486705714466787"></circle><circle class="pearl" r="2.190433937142651" cx="23.965516371342023" cy="28.282426520478552"></circle><circle class="pearl" r="2.190433937142651" cx="5.283543789029604" cy="9.556642227860367"></circle><circle class="pearl" r="2.190433937142651" cx="29.70439392356265" cy="14.214271607174696"></circle></g><g class="bobaCup bright" cupRadius="16.649128332490065" width="33.29825666498013" height="33.29825666498013" pearlRadius="2.7380424214283137" pearlCount="14" transform="translate(50.964925035214335,9.910689910455403)"><circle class="pool" r="16.649128332490065" cx="16.649128332490065" cy="16.649128332490065" style="stroke-width: 1; fill: rgb(127, 205, 187);"></circle><circle class="pearl" r="2.190433937142651" cx="20.862827287336387" cy="12.485225561966804"></circle><circle class="pearl" r="2.190433937142651" cx="13.236245529726895" cy="21.89149144100852"></circle><circle class="pearl" r="2.190433937142651" cx="12.881533787032543" cy="12.376689488348791"></circle><circle class="pearl" r="2.190433937142651" cx="20.992333937066327" cy="20.444558063910407"></circle><circle class="pearl" r="2.190433937142651" cx="6.501308001005832" cy="17.634256318506175"></circle><circle class="pearl" r="2.190433937142651" cx="26.445864442186366" cy="6.838149000511983"></circle><circle class="pearl" r="2.190433937142651" cx="15.651168082213715" cy="29.617597309636796"></circle><circle class="pearl" r="2.190433937142651" cx="11.157219173053383" cy="4.5825869130309815"></circle><circle class="pearl" r="2.190433937142651" cx="28.6933779439282" cy="22.204423264633306"></circle><circle class="pearl" r="2.190433937142651" cx="6.640788070750245" cy="26.168763766653452"></circle><circle class="pearl" r="2.190433937142651" cx="19.10496825800227" cy="3.832844410641144"></circle><circle class="pearl" r="2.190433937142651" cx="23.506119167615854" cy="28.169929447857672"></circle><circle class="pearl" r="2.190433937142651" cx="5.138544640856592" cy="9.769575534300285"></circle><circle class="pearl" r="2.190433937142651" cx="29.471184844084288" cy="14.232311859581385"></circle></g><g class="bobaCup bright" cupRadius="16.3814365488168" width="32.7628730976336" height="32.7628730976336" pearlRadius="2.7380424214283137" pearlCount="13" transform="translate(194.82924270310173,142.76096546281508)"><circle class="pool" r="16.3814365488168" cx="16.3814365488168" cy="16.3814365488168" style="stroke-width: 1; fill: rgb(29, 145, 192);"></circle><circle class="pearl" r="2.190433937142651" cx="21.476918499342936" cy="15.964496755767335"></circle><circle class="pearl" r="2.190433937142651" cx="15.84739714172664" cy="21.54492284368112"></circle><circle class="pearl" r="2.190433937142651" cx="16.171948921496003" cy="10.133417481818508"></circle><circle class="pearl" r="2.190433937142651" cx="23.723375084370875" cy="23.6365876697485"></circle><circle class="pearl" r="2.190433937142651" cx="10.511791083432975" cy="15.768392740760131"></circle><circle class="pearl" r="2.190433937142651" cx="27.814764785258067" cy="9.992160001055732"></circle><circle class="pearl" r="2.190433937142651" cx="10.131949111884664" cy="27.87321543114332"></circle><circle class="pearl" r="2.190433937142651" cx="10.329024768751173" cy="4.809815179809176"></circle><circle class="pearl" r="2.190433937142651" cx="29.045256305153128" cy="17.860338369939285"></circle><circle class="pearl" r="2.190433937142651" cx="4.819346401670633" cy="21.65507079059973"></circle><circle class="pearl" r="2.190433937142651" cx="21.928936256880526" cy="4.618636157139861"></circle><circle class="pearl" r="2.190433937142651" cx="18.026134885395624" cy="29.029376786449493"></circle><circle class="pearl" r="2.190433937142651" cx="4.821259511371309" cy="10.30032016280611"></circle></g><g class="bobaCup bright" cupRadius="15.976936155074403" width="31.953872310148807" height="31.953872310148807" pearlRadius="2.7380424214283137" pearlCount="13" transform="translate(16.512543485521284,100.15035020068574)"><circle class="pool" r="15.976936155074403" cx="15.976936155074403" cy="15.976936155074403" style="stroke-width: 1; fill: rgb(29, 145, 192);"></circle><circle class="pearl" r="2.190433937142651" cx="20.7800918342417" cy="17.369239899960185"></circle><circle class="pearl" r="2.190433937142651" cx="13.999602849199954" cy="21.02712151967724"></circle><circle class="pearl" r="2.190433937142651" cx="16.64254383948462" cy="10.831005436542322"></circle><circle class="pearl" r="2.190433937142651" cx="24.561493363670984" cy="25.00316953971424"></circle><circle class="pearl" r="2.190433937142651" cx="9.643666541935907" cy="14.434404887167819"></circle><circle class="pearl" r="2.190433937142651" cx="27.24293020226902" cy="10.253822088572086"></circle><circle class="pearl" r="2.190433937142651" cx="8.311361869646797" cy="26.344110763836657"></circle><circle class="pearl" r="2.190433937142651" cx="13.014854719883346" cy="3.92770516477529"></circle><circle class="pearl" r="2.190433937142651" cx="28.159161546419526" cy="18.117082622589447"></circle><circle class="pearl" r="2.190433937142651" cx="4.167083630233529" cy="20.005966593819423"></circle><circle class="pearl" r="2.190433937142651" cx="21.63671519981801" cy="4.686796287157225"></circle><circle class="pearl" r="2.190433937142651" cx="17.29846277433879" cy="28.248400474007564"></circle><circle class="pearl" r="2.190433937142651" cx="6.165371688650833" cy="7.372908091398696"></circle></g><g class="bobaCup bright" cupRadius="15.87188754837616" width="31.74377509675232" height="31.74377509675232" pearlRadius="2.7380424214283137" pearlCount="13" transform="translate(132.40320556533555,115.78881349514172)"><circle class="pool" r="15.87188754837616" cx="15.87188754837616" cy="15.87188754837616" style="stroke-width: 1; fill: rgb(65, 182, 196);"></circle><circle class="pearl" r="2.190433937142651" cx="20.499351668319576" cy="17.976074979822407"></circle><circle class="pearl" r="2.190433937142651" cx="13.367523720617735" cy="20.769749386386387"></circle><circle class="pearl" r="2.190433937142651" cx="17.04597861497085" cy="11.019567953553432"></circle><circle class="pearl" r="2.190433937142651" cx="24.390918671214234" cy="25.59071316560042"></circle><circle class="pearl" r="2.190433937142651" cx="9.710460766683406" cy="13.757210900978198"></circle><circle class="pearl" r="2.190433937142651" cx="27.23361746028753" cy="10.719891328160477"></circle><circle class="pearl" r="2.190433937142651" cx="7.295920415318086" cy="25.57667262465839"></circle><circle class="pearl" r="2.190433937142651" cx="14.010522245272687" cy="3.760246311020799"></circle><circle class="pearl" r="2.190433937142651" cx="27.85246701020524" cy="18.62492052118756"></circle><circle class="pearl" r="2.190433937142651" cx="3.946826894853942" cy="18.923406974272165"></circle><circle class="pearl" r="2.190433937142651" cx="21.964304416680815" cy="4.866578877040126"></circle><circle class="pearl" r="2.190433937142651" cx="16.800666166853446" cy="28.065853796918773"></circle><circle class="pearl" r="2.190433937142651" cx="6.706057254237939" cy="6.564818937001821"></circle></g><g class="bobaCup bright" cupRadius="15.662424764237366" width="31.324849528474733" height="31.324849528474733" pearlRadius="2.7380424214283137" pearlCount="12" transform="translate(126.66451575168183,235.32199068790388)"><circle class="pool" r="15.662424764237366" cx="15.662424764237366" cy="15.662424764237366" style="stroke-width: 1; fill: rgb(127, 205, 187);"></circle><circle class="pearl" r="2.190433937142651" cx="17.396904855146975" cy="11.3136280414579"></circle><circle class="pearl" r="2.190433937142651" cx="11.31933516209855" cy="17.447599370334267"></circle><circle class="pearl" r="2.190433937142651" cx="14.140973918058567" cy="4.011841313463418"></circle><circle class="pearl" r="2.190433937142651" cx="19.13736495390778" cy="19.11633197731556"></circle><circle class="pearl" r="2.190433937142651" cx="4.036692269171911" cy="14.149239827127905"></circle><circle class="pearl" r="2.190433937142651" cx="27.212640667187106" cy="11.888434963615893"></circle><circle class="pearl" r="2.190433937142651" cx="11.992478002116208" cy="27.238094419688167"></circle><circle class="pearl" r="2.190433937142651" cx="6.5642606387562505" cy="6.5642280761565175"></circle><circle class="pearl" r="2.190433937142651" cx="27.094870308352508" cy="19.88256330106989"></circle><circle class="pearl" r="2.190433937142651" cx="5.3592428861477295" cy="22.77579820935493"></circle><circle class="pearl" r="2.190433937142651" cx="22.673322173583987" cy="5.30747532024421"></circle><circle class="pearl" r="2.190433937142651" cx="19.985579955454725" cy="27.065667082592658"></circle></g><g class="bobaCup bright" cupRadius="15.290886217146172" width="30.581772434292343" height="30.581772434292343" pearlRadius="2.7380424214283137" pearlCount="12" transform="translate(164.33559196924742,181.44484789141632)"><circle class="pool" r="15.290886217146172" cx="15.290886217146172" cy="15.290886217146172" style="stroke-width: 1; fill: rgb(127, 205, 187);"></circle><circle class="pearl" r="2.190433937142651" cx="17.000981187573245" cy="10.782923883047818"></circle><circle class="pearl" r="2.190433937142651" cx="10.854482228633511" cy="16.775765861796128"></circle><circle class="pearl" r="2.190433937142651" cx="13.875395016575933" cy="3.7163808442538624"></circle><circle class="pearl" r="2.190433937142651" cx="18.40317622632985" cy="18.443125987006486"></circle><circle class="pearl" r="2.190433937142651" cx="3.718828593302746" cy="13.849309155358311"></circle><circle class="pearl" r="2.190433937142651" cx="26.751574067354102" cy="12.954980287134093"></circle><circle class="pearl" r="2.190433937142651" cx="12.427854569407618" cy="26.66062406970566"></circle><circle class="pearl" r="2.190433937142651" cx="6.48506791224586" cy="6.440858856780871"></circle><circle class="pearl" r="2.190433937142651" cx="25.8843276869527" cy="20.851009718580624"></circle><circle class="pearl" r="2.190433937142651" cx="5.57056848528925" cy="22.708868755563696"></circle><circle class="pearl" r="2.190433937142651" cx="23.23281908623898" cy="5.874976229447119"></circle><circle class="pearl" r="2.190433937142651" cx="20.341171179819895" cy="26.072966704468353"></circle></g><g class="bobaCup bright" cupRadius="15.192430734657531" width="30.384861469315062" height="30.384861469315062" pearlRadius="2.7380424214283137" pearlCount="12" transform="translate(80.3450499043848,138.36623596764335)"><circle class="pool" r="15.192430734657531" cx="15.192430734657531" cy="15.192430734657531" style="stroke-width: 1; fill: rgb(65, 182, 196);"></circle><circle class="pearl" r="2.190433937142651" cx="16.94271949701606" cy="10.696154976554672"></circle><circle class="pearl" r="2.190433937142651" cx="10.839193197999547" cy="16.48271764160039"></circle><circle class="pearl" r="2.190433937142651" cx="13.824102942728624" cy="3.7124688934374372"></circle><circle class="pearl" r="2.190433937142651" cx="18.25959355103789" cy="18.30999519035358"></circle><circle class="pearl" r="2.190433937142651" cx="3.714947732335551" cy="13.796963836829065"></circle><circle class="pearl" r="2.190433937142651" cx="26.5964064522805" cy="13.151354727540117"></circle><circle class="pearl" r="2.190433937142651" cx="12.087573055554506" cy="26.413486499195567"></circle><circle class="pearl" r="2.190433937142651" cx="6.462217592677977" cy="6.4095973472408065"></circle><circle class="pearl" r="2.190433937142651" cx="25.576019833699455" cy="21.010336639566642"></circle><circle class="pearl" r="2.190433937142651" cx="5.393527532846601" cy="22.257662543348335"></circle><circle class="pearl" r="2.190433937142651" cx="23.309031968933805" cy="6.000617763898219"></circle><circle class="pearl" r="2.190433937142651" cx="19.972405156665037" cy="25.96258806700646"></circle></g><g class="bobaCup bright" cupRadius="14.985142007254238" width="29.970284014508476" height="29.970284014508476" pearlRadius="2.738042421428314" pearlCount="11" transform="translate(186.51319778938316,204.01905904846856)"><circle class="pool" r="14.985142007254238" cx="14.985142007254238" cy="14.985142007254238" style="stroke-width: 1; fill: rgb(29, 145, 192);"></circle><circle class="pearl" r="2.1904339371426516" cx="19.106846987053252" cy="15.02454832919924"></circle><circle class="pearl" r="2.1904339371426516" cx="11.424914571714616" cy="17.037188444035497"></circle><circle class="pearl" r="2.1904339371426516" cx="13.764229686347724" cy="9.197902572435888"></circle><circle class="pearl" r="2.1904339371426516" cx="20.6452303030877" cy="25.2095000923528"></circle><circle class="pearl" r="2.1904339371426516" cx="4.022143223890732" cy="13.983192132422598"></circle><circle class="pearl" r="2.1904339371426516" cx="25.612195572894866" cy="10.435463909603252"></circle><circle class="pearl" r="2.1904339371426516" cx="12.765567464871173" cy="26.15426931195037"></circle><circle class="pearl" r="2.1904339371426516" cx="6.394472738709027" cy="6.3576372490167845"></circle><circle class="pearl" r="2.1904339371426516" cx="25.706873988260245" cy="19.226251794359"></circle><circle class="pearl" r="2.1904339371426516" cx="5.713889915458001" cy="22.573095275256975"></circle><circle class="pearl" r="2.1904339371426516" cx="20.231750743807876" cy="4.59921400616607"></circle></g><g class="bobaCup bright" cupRadius="14.640154004128284" width="29.28030800825657" height="29.28030800825657" pearlRadius="2.7380424214283137" pearlCount="11" transform="translate(147.74231262383526,111.04363494908532)"><circle class="pool" r="14.640154004128284" cx="14.640154004128284" cy="14.640154004128284" style="stroke-width: 1; fill: rgb(29, 145, 192);"></circle><circle class="pearl" r="2.190433937142651" cx="18.577312196994125" cy="14.952244858235387"></circle><circle class="pearl" r="2.190433937142651" cx="10.999676335529445" cy="16.569731372707572"></circle><circle class="pearl" r="2.190433937142651" cx="13.519960709886778" cy="9.084765032246219"></circle><circle class="pearl" r="2.190433937142651" cx="20.86241028671908" cy="24.24151121669371"></circle><circle class="pearl" r="2.190433937142651" cx="3.686934534632787" cy="13.611092812468064"></circle><circle class="pearl" r="2.190433937142651" cx="24.999729379212862" cy="10.392137725793472"></circle><circle class="pearl" r="2.190433937142651" cx="13.222902887549841" cy="25.560824275739346"></circle><circle class="pearl" r="2.190433937142651" cx="6.370654749844707" cy="6.209921502791374"></circle><circle class="pearl" r="2.190433937142651" cx="25.16600895770942" cy="18.29511505862928"></circle><circle class="pearl" r="2.190433937142651" cx="6.091894638987773" cy="22.734530628854547"></circle><circle class="pearl" r="2.190433937142651" cx="19.90135968045822" cy="4.628746209467778"></circle></g><g class="bobaCup bright" cupRadius="14.515157241101658" width="29.030314482203316" height="29.030314482203316" pearlRadius="2.7380424214283137" pearlCount="11" transform="translate(264.3857202446321,134.41342043284496)"><circle class="pool" r="14.515157241101658" cx="14.515157241101658" cy="14.515157241101658" style="stroke-width: 1; fill: rgb(127, 205, 187);"></circle><circle class="pearl" r="2.190433937142651" cx="18.453693634347406" cy="14.896123043852409"></circle><circle class="pearl" r="2.190433937142651" cx="10.944944704477798" cy="16.59196092016417"></circle><circle class="pearl" r="2.190433937142651" cx="13.325686214806561" cy="9.205572451852865"></circle><circle class="pearl" r="2.190433937142651" cx="21.02969114221992" cy="23.835580368388516"></circle><circle class="pearl" r="2.190433937142651" cx="3.6849648068136975" cy="13.518727966607242"></circle><circle class="pearl" r="2.190433937142651" cx="24.66855050341638" cy="10.027824220257271"></circle><circle class="pearl" r="2.190433937142651" cx="13.472161502220416" cy="25.342070201583727"></circle><circle class="pearl" r="2.190433937142651" cx="6.369564824888094" cy="6.151759031846755"></circle><circle class="pearl" r="2.190433937142651" cx="24.985272100381696" cy="17.875472915349985"></circle><circle class="pearl" r="2.190433937142651" cx="6.281328220634105" cy="22.81825555192174"></circle><circle class="pearl" r="2.190433937142651" cx="19.438680266148182" cy="4.511258147699035"></circle></g><g class="bobaCup bright" cupRadius="14.5037025920616" width="29.0074051841232" height="29.0074051841232" pearlRadius="2.738042421428314" pearlCount="11" transform="translate(305.4962974079384,217.49124299654693)"><circle class="pool" r="14.5037025920616" cx="14.5037025920616" cy="14.5037025920616" style="stroke-width: 1; fill: rgb(127, 205, 187);"></circle><circle class="pearl" r="2.1904339371426516" cx="18.44240101229483" cy="14.889650870073325"></circle><circle class="pearl" r="2.1904339371426516" cx="10.94238231981956" cy="16.58625789341237"></circle><circle class="pearl" r="2.1904339371426516" cx="13.313807829731822" cy="9.205823091250503"></circle><circle class="pearl" r="2.1904339371426516" cx="21.02200332751859" cy="23.809411912657563"></circle><circle class="pearl" r="2.1904339371426516" cx="3.684795132770628" cy="13.510134961824509"></circle><circle class="pearl" r="2.1904339371426516" cx="24.643465568499767" cy="10.011500558712703"></circle><circle class="pearl" r="2.1904339371426516" cx="13.46863093512321" cy="25.319700330730367"></circle><circle class="pearl" r="2.1904339371426516" cx="6.369034525534849" cy="6.146738102907664"></circle><circle class="pearl" r="2.1904339371426516" cx="24.964208916197425" cy="17.85490974617571"></circle><circle class="pearl" r="2.1904339371426516" cx="6.282215299001564" cy="22.801390787986524"></circle><circle class="pearl" r="2.1904339371426516" cx="19.415466243546952" cy="4.507742461262113"></circle></g><g class="bobaCup bright" cupRadius="14.317317039774117" width="28.634634079548235" height="28.634634079548235" pearlRadius="2.738042421428314" pearlCount="10" transform="translate(172.38354300478798,149.0574224690471)"><circle class="pool" r="14.317317039774117" cx="14.317317039774117" cy="14.317317039774117" style="stroke-width: 1; fill: rgb(65, 182, 196);"></circle><circle class="pearl" r="2.1904339371426516" cx="17.8317725186689" cy="12.412786953054427"></circle><circle class="pearl" r="2.1904339371426516" cx="11.066722860560077" cy="16.271450640448105"></circle><circle class="pearl" r="2.1904339371426516" cx="14.544832921263893" cy="5.123718852510918"></circle><circle class="pearl" r="2.1904339371426516" cx="21.51300705507969" cy="23.044300077754926"></circle><circle class="pearl" r="2.1904339371426516" cx="3.6870152600204418" cy="13.29854722818316"></circle><circle class="pearl" r="2.1904339371426516" cx="22.37572950778807" cy="6.133871277124754"></circle><circle class="pearl" r="2.1904339371426516" cx="13.772862172454825" cy="24.973554918120833"></circle><circle class="pearl" r="2.1904339371426516" cx="6.59881747470526" cy="5.90941963074995"></circle><circle class="pearl" r="2.1904339371426516" cx="24.898121756317476" cy="15.882302523678993"></circle><circle class="pearl" r="2.1904339371426516" cx="6.25313609254917" cy="22.496832729661968"></circle></g><g class="bobaCup bright" cupRadius="14.311618613501055" width="28.62323722700211" height="28.62323722700211" pearlRadius="2.7380424214283137" pearlCount="10" transform="translate(243.2483053600745,49.43438551399239)"><circle class="pool" r="14.311618613501055" cx="14.311618613501055" cy="14.311618613501055" style="stroke-width: 1; fill: rgb(127, 205, 187);"></circle><circle class="pearl" r="2.190433937142651" cx="17.821475599927137" cy="12.401835748095417"></circle><circle class="pearl" r="2.190433937142651" cx="11.067447627057392" cy="16.26789850655408"></circle><circle class="pearl" r="2.190433937142651" cx="14.537262877159824" cy="5.1104450065567"></circle><circle class="pearl" r="2.190433937142651" cx="21.511292621848504" cy="23.029691668798343"></circle><circle class="pearl" r="2.190433937142651" cx="3.686503484711073" cy="13.300249970123032"></circle><circle class="pearl" r="2.190433937142651" cx="22.36374451272938" cy="6.13078675234339"></circle><circle class="pearl" r="2.190433937142651" cx="13.772187169781034" cy="24.962344299492297"></circle><circle class="pearl" r="2.190433937142651" cx="6.593029190756388" cy="5.9105451021082605"></circle><circle class="pearl" r="2.190433937142651" cx="24.887959118964872" cy="15.865029327388005"></circle><circle class="pearl" r="2.190433937142651" cx="6.253610097044801" cy="22.48844483893896"></circle></g><g class="bobaCup bright" cupRadius="14.196328749658445" width="28.39265749931689" height="28.39265749931689" pearlRadius="2.7380424214283137" pearlCount="10" transform="translate(183.32476696399337,203.2914710821973)"><circle class="pool" r="14.196328749658445" cx="14.196328749658445" cy="14.196328749658445" style="stroke-width: 1; fill: rgb(65, 182, 196);"></circle><circle class="pearl" r="2.190433937142651" cx="17.61009027988229" cy="12.180035848177454"></circle><circle class="pearl" r="2.190433937142651" cx="11.08809640591571" cy="16.204466178813785"></circle><circle class="pearl" r="2.190433937142651" cx="14.382339805197498" cy="4.822593939775194"></circle><circle class="pearl" r="2.190433937142651" cx="21.47277810675506" cy="22.735315719528796"></circle><circle class="pearl" r="2.190433937142651" cx="3.6766167256403914" cy="13.3392904071335"></circle><circle class="pearl" r="2.190433937142651" cx="22.12181760717442" cy="6.069005606365943"></circle><circle class="pearl" r="2.190433937142651" cx="13.754938935788601" cy="24.735070803492857"></circle><circle class="pearl" r="2.190433937142651" cx="6.478830115432871" cy="5.931685227721793"></circle><circle class="pearl" r="2.190433937142651" cx="24.680160177621953" cy="15.519247730478961"></circle><circle class="pearl" r="2.190433937142651" cx="6.263748411065059" cy="22.3188769075857"></circle></g><g class="bobaCup bright" cupRadius="14.022633683572877" width="28.045267367145755" height="28.045267367145755" pearlRadius="2.7380424214283137" pearlCount="10" transform="translate(288.0780842926382,259.7252179301811)"><circle class="pool" r="14.022633683572877" cx="14.022633683572877" cy="14.022633683572877" style="stroke-width: 1; fill: rgb(29, 145, 192);"></circle><circle class="pearl" r="2.190433937142651" cx="17.25158140007473" cy="11.808215981006631"></circle><circle class="pearl" r="2.190433937142651" cx="11.135196915511223" cy="16.135170857501556"></circle><circle class="pearl" r="2.190433937142651" cx="14.163775601468" cy="4.3316918263231265"></circle><circle class="pearl" r="2.190433937142651" cx="21.414118180001434" cy="22.288294653353613"></circle><circle class="pearl" r="2.190433937142651" cx="3.665458938346088" cy="13.379944194517687"></circle><circle class="pearl" r="2.190433937142651" cx="21.75779713998907" cy="5.977139501109054"></circle><circle class="pearl" r="2.190433937142651" cx="13.72415091436587" cy="24.391367058599492"></circle><circle class="pearl" r="2.190433937142651" cx="6.346155017127878" cy="5.938539883008508"></circle><circle class="pearl" r="2.190433937142651" cx="24.362202403381605" cy="14.974466979256306"></circle><circle class="pearl" r="2.190433937142651" cx="6.281380374092807" cy="22.06409812977577"></circle></g><g class="bobaCup bright" cupRadius="13.73395906258035" width="27.4679181251607" height="27.4679181251607" pearlRadius="2.738042421428314" pearlCount="9" transform="translate(119.49420908883177,136.7081649208649)"><circle class="pool" r="13.73395906258035" cx="13.73395906258035" cy="13.73395906258035" style="stroke-width: 1; fill: rgb(65, 182, 196);"></circle><circle class="pearl" r="2.1904339371426516" cx="17.082170756773117" cy="12.082979796893325"></circle><circle class="pearl" r="2.1904339371426516" cx="10.612289614915978" cy="16.0398060324539"></circle><circle class="pearl" r="2.1904339371426516" cx="13.885887735903388" cy="3.651563591786195"></circle><circle class="pearl" r="2.1904339371426516" cx="19.037065338659403" cy="22.75204380308212"></circle><circle class="pearl" r="2.1904339371426516" cx="3.664450032668921" cy="13.120071201543231"></circle><circle class="pearl" r="2.1904339371426516" cx="21.300843302922072" cy="5.923273371393751"></circle><circle class="pearl" r="2.1904339371426516" cx="11.157277526122659" cy="23.57331899877556"></circle><circle class="pearl" r="2.1904339371426516" cx="6.270228762288012" cy="5.855833192601704"></circle><circle class="pearl" r="2.1904339371426516" cx="23.562339837404423" cy="16.367471317780538"></circle></g><g class="bobaCup bright" cupRadius="13.673680774071093" width="27.347361548142185" height="27.347361548142185" pearlRadius="2.7380424214283132" pearlCount="9" transform="translate(201.64347828463474,122.88387059486142)"><circle class="pool" r="13.673680774071093" cx="13.673680774071093" cy="13.673680774071093" style="stroke-width: 1; fill: rgb(127, 205, 187);"></circle><circle class="pearl" r="2.1904339371426507" cx="17.000994979775818" cy="11.98819653288646"></circle><circle class="pearl" r="2.1904339371426507" cx="10.607369006212663" cy="15.956218897596518"></circle><circle class="pearl" r="2.1904339371426507" cx="13.771298153063645" cy="3.651071681714696"></circle><circle class="pearl" r="2.1904339371426507" cx="18.93699054827846" cy="22.643065157241463"></circle><circle class="pearl" r="2.1904339371426507" cx="3.6600476024865136" cy="13.168794568351032"></circle><circle class="pearl" r="2.1904339371426507" cx="21.17341311107941" cy="5.890963541239789"></circle><circle class="pearl" r="2.1904339371426507" cx="11.06507689509498" cy="23.445503195032817"></circle><circle class="pearl" r="2.1904339371426507" cx="6.168555392452365" cy="5.894502913070849"></circle><circle class="pearl" r="2.1904339371426507" cx="23.447425019936272" cy="16.27237639668722"></circle></g><g class="bobaCup bright" cupRadius="13.47131239024667" width="26.94262478049334" height="26.94262478049334" pearlRadius="2.738042421428314" pearlCount="9" transform="translate(99.32111351000607,55.29255072294448)"><circle class="pool" r="13.47131239024667" cx="13.47131239024667" cy="13.47131239024667" style="stroke-width: 1; fill: rgb(65, 182, 196);"></circle><circle class="pearl" r="2.1904339371426516" cx="16.118580391108914" cy="11.427341854853967"></circle><circle class="pearl" r="2.1904339371426516" cx="10.29253878917697" cy="16.139769744337006"></circle><circle class="pearl" r="2.1904339371426516" cx="13.576582569968991" cy="3.6511345463254377"></circle><circle class="pearl" r="2.1904339371426516" cx="19.831730632851883" cy="21.695829676913508"></circle><circle class="pearl" r="2.1904339371426516" cx="3.6552019501096145" cy="13.123967525649132"></circle><circle class="pearl" r="2.1904339371426516" cx="20.830807436595475" cy="5.838681056526413"></circle><circle class="pearl" r="2.1904339371426516" cx="12.117491075756188" cy="23.223701686908097"></circle><circle class="pearl" r="2.1904339371426516" cx="6.057354532853285" cy="5.874392025406362"></circle><circle class="pearl" r="2.1904339371426516" cx="23.23926988071584" cy="14.660961614207544"></circle></g><g class="bobaCup bright" cupRadius="13.418007761198842" width="26.836015522397684" height="26.836015522397684" pearlRadius="2.738042421428314" pearlCount="9" transform="translate(112.54614098596959,6.581992238801158)"><circle class="pool" r="13.418007761198842" cx="13.418007761198842" cy="13.418007761198842" style="stroke-width: 1; fill: rgb(127, 205, 187);"></circle><circle class="pearl" r="2.1904339371426516" cx="15.685654203466129" cy="11.275120680311561"></circle><circle class="pearl" r="2.1904339371426516" cx="10.129050980396828" cy="16.458686761504982"></circle><circle class="pearl" r="2.1904339371426516" cx="13.540924300978002" cy="3.651286232893114"></circle><circle class="pearl" r="2.1904339371426516" cx="20.618458011864124" cy="21.08967158074118"></circle><circle class="pearl" r="2.1904339371426516" cx="3.653950873321666" cy="13.123717586478818"></circle><circle class="pearl" r="2.1904339371426516" cx="20.786754798156537" cy="5.8551455067533755"></circle><circle class="pearl" r="2.1904339371426516" cx="13.047421780019267" cy="23.18017379296781"></circle><circle class="pearl" r="2.1904339371426516" cx="6.0458199349151585" cy="5.857407297467265"></circle><circle class="pearl" r="2.1904339371426516" cx="23.18232529681148" cy="13.700166537212231"></circle></g><g class="bobaCup bright" cupRadius="13.383660456164229" width="26.767320912328458" height="26.767320912328458" pearlRadius="2.7380424214283137" pearlCount="9" transform="translate(149.76008073332025,224.35579748320393)"><circle class="pool" r="13.383660456164229" cx="13.383660456164229" cy="13.383660456164229" style="stroke-width: 1; fill: rgb(65, 182, 196);"></circle><circle class="pearl" r="2.190433937142651" cx="15.484041802688616" cy="11.285987475907424"></circle><circle class="pearl" r="2.190433937142651" cx="10.02383197246261" cy="16.696438357624434"></circle><circle class="pearl" r="2.190433937142651" cx="13.473901933033007" cy="3.651027465843633"></circle><circle class="pearl" r="2.190433937142651" cx="20.83027409689466" cy="20.853652694305776"></circle><circle class="pearl" r="2.190433937142651" cx="3.652777836206953" cy="13.149156467870444"></circle><circle class="pearl" r="2.190433937142651" cx="20.723366505501705" cy="5.842820687762417"></circle><circle class="pearl" r="2.190433937142651" cx="13.52270245235426" cy="23.11587541504621"></circle><circle class="pearl" r="2.190433937142651" cx="6.0335491461401975" cy="5.84965163894401"></circle><circle class="pearl" r="2.190433937142651" cx="23.11647343966919" cy="13.325991869019065"></circle></g><g class="bobaCup bright" cupRadius="13.12457055482356" width="26.24914110964712" height="26.24914110964712" pearlRadius="2.7380424214283132" pearlCount="9" transform="translate(287.39491739183075,262.5103676767419)"><circle class="pool" r="13.12457055482356" cx="13.12457055482356" cy="13.12457055482356" style="stroke-width: 1; fill: rgb(127, 205, 187);"></circle><circle class="pearl" r="2.1904339371426507" cx="15.071471947013045" cy="11.183779994917973"></circle><circle class="pearl" r="2.1904339371426507" cx="9.677686861060891" cy="16.560931290496608"></circle><circle class="pearl" r="2.1904339371426507" cx="13.186603683769594" cy="3.650869828818398"></circle><circle class="pearl" r="2.1904339371426507" cx="20.337306983095203" cy="20.43882728359051"></circle><circle class="pearl" r="2.1904339371426507" cx="3.6512402193555795" cy="13.008078938064529"></circle><circle class="pearl" r="2.1904339371426507" cx="20.224676504772685" cy="5.737049006799107"></circle><circle class="pearl" r="2.1904339371426507" cx="13.206217179586579" cy="22.598163920925373"></circle><circle class="pearl" r="2.1904339371426507" cx="5.989567253456449" cy="5.7595741002317675"></circle><circle class="pearl" r="2.1904339371426507" cx="22.59841459788173" cy="13.133853928122715"></circle></g><g class="bobaCup bright" cupRadius="12.944790630888862" width="25.889581261777725" height="25.889581261777725" pearlRadius="2.7380424214283137" pearlCount="8" transform="translate(150.1260512773173,171.10503864684048)"><circle class="pool" r="12.944790630888862" cx="12.944790630888862" cy="12.944790630888862" style="stroke-width: 1; fill: rgb(29, 145, 192);"></circle><circle class="pearl" r="2.190433937142651" cx="19.593337840361535" cy="12.943564542505246"></circle><circle class="pearl" r="2.190433937142651" cx="11.73985767057458" cy="14.214071354771216"></circle><circle class="pearl" r="2.190433937142651" cx="12.108131350690892" cy="3.6777893800322072"></circle><circle class="pearl" r="2.190433937142651" cx="19.846720396703883" cy="20.24536732448705"></circle><circle class="pearl" r="2.190433937142651" cx="3.827534958410343" cy="15.077000578314353"></circle><circle class="pearl" r="2.190433937142651" cx="19.8500926967239" cy="5.646340015871456"></circle><circle class="pearl" r="2.190433937142651" cx="12.00534480408014" cy="22.204723699192844"></circle><circle class="pearl" r="2.190433937142651" cx="5.011672485667416" cy="7.167055477356777"></circle></g><g class="bobaCup bright" cupRadius="12.906317128835752" width="25.812634257671505" height="25.812634257671505" pearlRadius="2.7380424214283137" pearlCount="8" transform="translate(152.55471043150115,70.07029288751693)"><circle class="pool" r="12.906317128835752" cx="12.906317128835752" cy="12.906317128835752" style="stroke-width: 1; fill: rgb(65, 182, 196);"></circle><circle class="pearl" r="2.190433937142651" cx="14.578140750238271" cy="12.158459146875993"></circle><circle class="pearl" r="2.190433937142651" cx="9.416355793739477" cy="18.978423979303006"></circle><circle class="pearl" r="2.190433937142651" cx="13.531388537435607" cy="3.6658686665080555"></circle><circle class="pearl" r="2.190433937142651" cx="21.948397209706247" cy="15.244214897752945"></circle><circle class="pearl" r="2.190433937142651" cx="3.6623546833667504" cy="13.45413388449818"></circle><circle class="pearl" r="2.190433937142651" cx="20.76381515187023" cy="7.063897642512192"></circle><circle class="pearl" r="2.190433937142651" cx="16.990448343288392" cy="21.498669251385103"></circle><circle class="pearl" r="2.190433937142651" cx="5.820489135604926" cy="5.7698227606200945"></circle></g><g class="bobaCup bright" cupRadius="12.876335921440443" width="25.752671842880886" height="25.752671842880886" pearlRadius="2.7380424214283137" pearlCount="8" transform="translate(93.93442980703153,153.26546921333897)"><circle class="pool" r="12.876335921440443" cx="12.876335921440443" cy="12.876335921440443" style="stroke-width: 1; fill: rgb(29, 145, 192);"></circle><circle class="pearl" r="2.190433937142651" cx="14.548692437600149" cy="12.627334482390937"></circle><circle class="pearl" r="2.190433937142651" cx="8.199690575755897" cy="19.166466859016797"></circle><circle class="pearl" r="2.190433937142651" cx="14.593394106485361" cy="3.7657215261200676"></circle><circle class="pearl" r="2.190433937142651" cx="21.62526497060917" cy="16.347452478532617"></circle><circle class="pearl" r="2.190433937142651" cx="3.6538948152097817" cy="12.590561935630348"></circle><circle class="pearl" r="2.190433937142651" cx="21.231183253848496" cy="8.221628383138112"></circle><circle class="pearl" r="2.190433937142651" cx="15.75632944438686" cy="21.77573875078464"></circle><circle class="pearl" r="2.190433937142651" cx="6.730486929324629" cy="5.212088229682722"></circle></g><g class="bobaCup bright" cupRadius="12.220840204741561" width="24.441680409483123" height="24.441680409483123" pearlRadius="2.7380424214283137" pearlCount="7" transform="translate(208.6614489398678,120.77996440683216)"><circle class="pool" r="12.220840204741561" cx="12.220840204741561" cy="12.220840204741561" style="stroke-width: 1; fill: rgb(65, 182, 196);"></circle><circle class="pearl" r="2.190433937142651" cx="13.90248904820557" cy="12.510441848954548"></circle><circle class="pearl" r="2.190433937142651" cx="5.818941954996271" cy="14.79306807301369"></circle><circle class="pearl" r="2.190433937142651" cx="12.218948286739845" cy="3.650723375015751"></circle><circle class="pearl" r="2.190433937142651" cx="18.89982911682271" cy="18.75122935096322"></circle><circle class="pearl" r="2.190433937142651" cx="4.893250090347905" cy="6.8518951078430925"></circle><circle class="pearl" r="2.190433937142651" cx="19.5464469851117" cy="6.847841522009161"></circle><circle class="pearl" r="2.190433937142651" cx="11.157325576878165" cy="20.744593225527094"></circle></g><g class="bobaCup bright" cupRadius="12.060871248486116" width="24.12174249697223" height="24.12174249697223" pearlRadius="2.7380424214283137" pearlCount="7" transform="translate(176.493469632557,59.101208020176124)"><circle class="pool" r="12.060871248486116" cx="12.060871248486116" cy="12.060871248486116" style="stroke-width: 1; fill: rgb(29, 145, 192);"></circle><circle class="pearl" r="2.190433937142651" cx="13.418699901251157" cy="12.381324643401017"></circle><circle class="pearl" r="2.190433937142651" cx="5.181215665748584" cy="14.846313233644453"></circle><circle class="pearl" r="2.190433937142651" cx="12.153249861954684" cy="3.6510770145130405"></circle><circle class="pearl" r="2.190433937142651" cx="18.658213293856367" cy="18.420255921046557"></circle><circle class="pearl" r="2.190433937142651" cx="4.830186625318451" cy="6.858989047140403"></circle><circle class="pearl" r="2.190433937142651" cx="19.38516534238006" cy="7.059510429253861"></circle><circle class="pearl" r="2.190433937142651" cx="10.916413469767711" cy="20.416597606087038"></circle></g><g class="bobaCup bright" cupRadius="11.926328738033993" width="23.852657476067986" height="23.852657476067986" pearlRadius="2.7380424214283137" pearlCount="7" transform="translate(94.73486425678203,132.93465704532935)"><circle class="pool" r="11.926328738033993" cx="11.926328738033993" cy="11.926328738033993" style="stroke-width: 1; fill: rgb(65, 182, 196);"></circle><circle class="pearl" r="2.190433937142651" cx="13.03549904985761" cy="12.268853163299868"></circle><circle class="pearl" r="2.190433937142651" cx="4.677191934304109" cy="14.88238246680947"></circle><circle class="pearl" r="2.190433937142651" cx="12.078051433622166" cy="3.651688349872087"></circle><circle class="pearl" r="2.190433937142651" cx="18.44632870566873" cy="18.154788165036496"></circle><circle class="pearl" r="2.190433937142651" cx="4.7672962807373676" cy="6.887827058019763"></circle><circle class="pearl" r="2.190433937142651" cx="19.233363444316783" cy="7.218371834152821"></circle><circle class="pearl" r="2.190433937142651" cx="10.701353599077132" cy="20.138857722772425"></circle></g><g class="bobaCup bright" cupRadius="11.851777381979467" width="23.703554763958934" height="23.703554763958934" pearlRadius="2.738042421428314" pearlCount="7" transform="translate(149.74013552818607,162.25125791163532)"><circle class="pool" r="11.851777381979467" cx="11.851777381979467" cy="11.851777381979467" style="stroke-width: 1; fill: rgb(127, 205, 187);"></circle><circle class="pearl" r="2.1904339371426516" cx="12.829755117008084" cy="12.205251288547373"></circle><circle class="pearl" r="2.1904339371426516" cx="4.4103721826951165" cy="14.898471080677506"></circle><circle class="pearl" r="2.1904339371426516" cx="12.03144573351372" cy="3.6520851581093567"></circle><circle class="pearl" r="2.1904339371426516" cx="18.32690862762267" cy="18.01064889216983"></circle><circle class="pearl" r="2.1904339371426516" cx="4.7302444334691" cy="6.909801667011762"></circle><circle class="pearl" r="2.1904339371426516" cx="19.14471838123609" cy="7.301959761396828"></circle><circle class="pearl" r="2.1904339371426516" cx="10.579271689936789" cy="19.98432010032306"></circle></g><g class="bobaCup bright" cupRadius="11.60641041875673" width="23.21282083751346" height="23.21282083751346" pearlRadius="2.7380424214283132" pearlCount="7" transform="translate(149.23674916438523,150.40929851213184)"><circle class="pool" r="11.60641041875673" cx="11.60641041875673" cy="11.60641041875673" style="stroke-width: 1; fill: rgb(65, 182, 196);"></circle><circle class="pearl" r="2.1904339371426507" cx="11.903974862346546" cy="11.650013403497702"></circle><circle class="pearl" r="2.1904339371426507" cx="4.0602853700102175" cy="14.662445671065631"></circle><circle class="pearl" r="2.1904339371426507" cx="12.133946845020118" cy="3.662718261997253"></circle><circle class="pearl" r="2.1904339371426507" cx="18.093098990797348" cy="17.258104394322224"></circle><circle class="pearl" r="2.1904339371426507" cx="4.7402003291042645" cy="6.696942383555342"></circle><circle class="pearl" r="2.1904339371426507" cx="18.93846627321663" cy="7.85310168885429"></circle><circle class="pearl" r="2.1904339371426507" cx="10.420561463891383" cy="19.501358459751113"></circle></g><g class="bobaCup bright" cupRadius="11.564195245086445" width="23.12839049017289" height="23.12839049017289" pearlRadius="2.7380424214283132" pearlCount="7" transform="translate(254.5714005427666,132.23549911364097)"><circle class="pool" r="11.564195245086445" cx="11.564195245086445" cy="11.564195245086445" style="stroke-width: 1; fill: rgb(29, 145, 192);"></circle><circle class="pearl" r="2.1904339371426507" cx="11.798992878896334" cy="11.603489442954915"></circle><circle class="pearl" r="2.1904339371426507" cx="4.047601620894702" cy="14.567800741232581"></circle><circle class="pearl" r="2.1904339371426507" cx="12.178114792365792" cy="3.6670305950908046"></circle><circle class="pearl" r="2.1904339371426507" cx="18.04119158570555" cy="17.146301298747733"></circle><circle class="pearl" r="2.1904339371426507" cx="4.7664808388642035" cy="6.608313622376476"></circle><circle class="pearl" r="2.1904339371426507" cx="18.896343351281118" cy="7.943815581230657"></circle><circle class="pearl" r="2.1904339371426507" cx="10.368790847690812" cy="19.41571614508293"></circle></g><g class="bobaCup bright" cupRadius="11.156883472937196" width="22.31376694587439" height="22.31376694587439" pearlRadius="2.738042421428314" pearlCount="6" transform="translate(134.1252375169521,174.49153944722764)"><circle class="pool" r="11.156883472937196" cx="11.156883472937196" cy="11.156883472937196" style="stroke-width: 1; fill: rgb(65, 182, 196);"></circle><circle class="pearl" r="2.1904339371426516" cx="11.516049125505127" cy="11.350719518930678"></circle><circle class="pearl" r="2.1904339371426516" cx="6.169096965256963" cy="17.44796400809697"></circle><circle class="pearl" r="2.1904339371426516" cx="8.905504241579257" cy="3.880240120977119"></circle><circle class="pearl" r="2.1904339371426516" cx="16.982175613124106" cy="17.02151732175295"></circle><circle class="pearl" r="2.1904339371426516" cx="3.726426971399438" cy="9.85938410194542"></circle><circle class="pearl" r="2.1904339371426516" cx="17.006885212576055" cy="5.307757563270752"></circle></g><g class="bobaCup bright" cupRadius="11.142084582409932" width="22.284169164819865" height="22.284169164819865" pearlRadius="2.7380424214283137" pearlCount="6" transform="translate(72.08884769729329,149.1698209655508)"><circle class="pool" r="11.142084582409932" cx="11.142084582409932" cy="11.142084582409932" style="stroke-width: 1; fill: rgb(127, 205, 187);"></circle><circle class="pearl" r="2.190433937142651" cx="11.51408366044283" cy="11.324313036900708"></circle><circle class="pearl" r="2.190433937142651" cx="6.188558974805223" cy="17.47177381507418"></circle><circle class="pearl" r="2.190433937142651" cx="8.838227189949153" cy="3.8915101837817243"></circle><circle class="pearl" r="2.190433937142651" cx="16.953146226557678" cy="16.998075371284205"></circle><circle class="pearl" r="2.190433937142651" cx="3.719822733261351" cy="9.90311310970578"></circle><circle class="pearl" r="2.190433937142651" cx="16.98162011666111" cy="5.304187918691704"></circle></g><g class="bobaCup bright" cupRadius="10.98214201819965" width="21.9642840363993" height="21.9642840363993" pearlRadius="2.7380424214283137" pearlCount="6" transform="translate(63.42177283888266,160.33897443041283)"><circle class="pool" r="10.98214201819965" cx="10.98214201819965" cy="10.98214201819965" style="stroke-width: 1; fill: rgb(29, 145, 192);"></circle><circle class="pearl" r="2.190433937142651" cx="11.383764459955216" cy="11.181826441890781"></circle><circle class="pearl" r="2.190433937142651" cx="6.173198878462278" cy="17.20469125556807"></circle><circle class="pearl" r="2.190433937142651" cx="8.781955256212658" cy="3.8733754112681478"></circle><circle class="pearl" r="2.190433937142651" cx="16.63402081921861" cy="16.747559683142146"></circle><circle class="pearl" r="2.190433937142651" cx="3.7234339751747623" cy="9.720495222051794"></circle><circle class="pearl" r="2.190433937142651" cx="16.697482335195158" cy="5.255108139187284"></circle></g><g class="bobaCup bright" cupRadius="9.841352135773809" width="19.682704271547617" height="19.682704271547617" pearlRadius="2.738042421428313" pearlCount="5" transform="translate(199.0029534535304,153.55199092653655)"><circle class="pool" r="9.841352135773809" cx="9.841352135773809" cy="9.841352135773809" style="stroke-width: 1; fill: rgb(127, 205, 187);"></circle><circle class="pearl" r="2.1904339371426502" cx="15.631344086076522" cy="7.06194414634843"></circle><circle class="pearl" r="2.1904339371426502" cx="6.917440242472307" cy="15.587593901311712"></circle><circle class="pearl" r="2.1904339371426502" cx="9.0096548913798" cy="3.685929763041232"></circle><circle class="pearl" r="2.1904339371426502" cx="14.679218666091762" cy="14.760766554587919"></circle><circle class="pearl" r="2.1904339371426502" cx="3.69928176738973" cy="8.864927316479623"></circle></g><g class="bobaCup bright" cupRadius="9.838137751713393" width="19.676275503426787" height="19.676275503426787" pearlRadius="2.7380424214283132" pearlCount="5" transform="translate(177.39503289920953,208.11423047042408)"><circle class="pool" r="9.838137751713393" cx="9.838137751713393" cy="9.838137751713393" style="stroke-width: 1; fill: rgb(127, 205, 187);"></circle><circle class="pearl" r="2.1904339371426507" cx="15.624775040433985" cy="7.058716788931321"></circle><circle class="pearl" r="2.1904339371426507" cx="6.91268446522051" cy="15.580533147445752"></circle><circle class="pearl" r="2.1904339371426507" cx="9.007040267046152" cy="3.6858904410719857"></circle><circle class="pearl" r="2.1904339371426507" cx="14.673184021069947" cy="14.755452921449677"></circle><circle class="pearl" r="2.1904339371426507" cx="3.699410460441759" cy="8.86058317971274"></circle></g><g class="bobaCup bright" cupRadius="9.361920961727701" width="18.723841923455403" height="18.723841923455403" pearlRadius="2.738042421428314" pearlCount="4" transform="translate(179.02575199437658,87.76606664203051)"><circle class="pool" r="9.361920961727701" cx="9.361920961727701" cy="9.361920961727701" style="stroke-width: 1; fill: rgb(29, 145, 192);"></circle><circle class="pearl" r="2.1904339371426516" cx="14.577986514896342" cy="6.357653864139484"></circle><circle class="pearl" r="2.1904339371426516" cx="5.4861678411454005" cy="12.239188461138834"></circle><circle class="pearl" r="2.1904339371426516" cx="6.948657805761234" cy="3.967107996479689"></circle><circle class="pearl" r="2.1904339371426516" cx="13.227405926433056" cy="14.237837756124243"></circle></g><g class="bobaCup bright" cupRadius="8.984003818024476" width="17.968007636048952" height="17.968007636048952" pearlRadius="2.7380424214283137" pearlCount="4" transform="translate(274.9937991059151,81.88990170059215)"><circle class="pool" r="8.984003818024476" cx="8.984003818024476" cy="8.984003818024476" style="stroke-width: 1; fill: rgb(29, 145, 192);"></circle><circle class="pearl" r="2.190433937142651" cx="13.64127089780353" cy="5.564994950144994"></circle><circle class="pearl" r="2.190433937142651" cx="4.828051078048118" cy="12.192284689837283"></circle><circle class="pearl" r="2.190433937142651" cx="5.754886548922289" cy="4.251104544081246"></circle><circle class="pearl" r="2.190433937142651" cx="12.71443542693107" cy="13.506175095902677"></circle></g><g class="bobaCup bright" cupRadius="8.29161405851944" width="16.58322811703888" height="16.58322811703888" pearlRadius="2.7380424214283137" pearlCount="3" transform="translate(305.8827074043911,150.53170704225664)"><circle class="pool" r="8.29161405851944" cx="8.29161405851944" cy="8.29161405851944" style="stroke-width: 1; fill: rgb(65, 182, 196);"></circle><circle class="pearl" r="2.190433937142651" cx="12.57537917378497" cy="9.922090692528172"></circle><circle class="pearl" r="2.190433937142651" cx="4.553405305192407" cy="11.237539522817627"></circle><circle class="pearl" r="2.190433937142651" cx="7.577724694782189" cy="3.681512529732453"></circle></g><g class="bobaCup bright" cupRadius="8.246746030858073" width="16.493492061716147" height="16.493492061716147" pearlRadius="2.7380424214283137" pearlCount="3" transform="translate(52.391256366486544,180.87105070709217)"><circle class="pool" r="8.246746030858073" cx="8.246746030858073" cy="8.246746030858073" style="stroke-width: 1; fill: rgb(65, 182, 196);"></circle><circle class="pearl" r="2.190433937142651" cx="12.547303836665009" cy="9.893087275792325"></circle><circle class="pearl" r="2.190433937142651" cx="4.514893291468145" cy="11.180518368847435"></circle><circle class="pearl" r="2.190433937142651" cx="7.511067946860494" cy="3.683603065352276"></circle></g><g class="bobaCup bright" cupRadius="8.20281591468122" width="16.40563182936244" height="16.40563182936244" pearlRadius="2.7380424214283137" pearlCount="3" transform="translate(12.344101155556135,182.5574380404715)"><circle class="pool" r="8.20281591468122" cx="8.20281591468122" cy="8.20281591468122" style="stroke-width: 1; fill: rgb(127, 205, 187);"></circle><circle class="pearl" r="2.190433937142651" cx="12.519755731842032" cy="9.864431730587874"></circle><circle class="pearl" r="2.190433937142651" cx="4.477247991318516" cy="11.124677238494666"></circle><circle class="pearl" r="2.190433937142651" cx="7.445802558706638" cy="3.6857291730691344"></circle></g><g class="bobaCup bright" cupRadius="8.130401035083185" width="16.26080207016637" height="16.26080207016637" pearlRadius="2.738042421428314" pearlCount="3" transform="translate(195.10579828571005,204.76439329675145)"><circle class="pool" r="8.130401035083185" cx="8.130401035083185" cy="8.130401035083185" style="stroke-width: 1; fill: rgb(127, 205, 187);"></circle><circle class="pearl" r="2.1904339371426516" cx="12.424420208515826" cy="9.857968445370199"></circle><circle class="pearl" r="2.1904339371426516" cx="4.381460267626347" cy="11.11770489629717"></circle><circle class="pearl" r="2.1904339371426516" cx="7.338131093677291" cy="3.689416821388058"></circle></g><g class="bobaCup bright" cupRadius="7.604056024126696" width="15.208112048253392" height="15.208112048253392" pearlRadius="2.7380424214283132" pearlCount="3" transform="translate(16.967070491010734,166.60023744178957)"><circle class="pool" r="7.604056024126696" cx="7.604056024126696" cy="7.604056024126696" style="stroke-width: 1; fill: rgb(65, 182, 196);"></circle><circle class="pearl" r="2.1904339371426507" cx="11.537611621333834" cy="8.152127835944803"></circle><circle class="pearl" r="2.1904339371426507" cx="4.540483052571586" cy="10.912944039440898"></circle><circle class="pearl" r="2.1904339371426507" cx="5.0013757325409784" cy="4.110010304869672"></circle></g><g class="bobaCup bright" cupRadius="7.431177210144377" width="14.862354420288755" height="14.862354420288755" pearlRadius="2.7380424214283137" pearlCount="3" transform="translate(103.25816303333497,147.35276412425338)"><circle class="pool" r="7.431177210144377" cx="7.431177210144377" cy="7.431177210144377" style="stroke-width: 1; fill: rgb(127, 205, 187);"></circle><circle class="pearl" r="2.190433937142651" cx="11.211630709747102" cy="7.4338536288652675"></circle><circle class="pearl" r="2.190433937142651" cx="4.553688966401733" cy="10.631910478967992"></circle><circle class="pearl" r="2.190433937142651" cx="4.5534921015439425" cy="4.230526624340095"></circle></g><g class="bobaCup bright" cupRadius="7.390282271854186" width="14.780564543708373" height="14.780564543708373" pearlRadius="2.7380424214283137" pearlCount="3" transform="translate(115.345060724182,157.26811754377275)"><circle class="pool" r="7.390282271854186" cx="7.390282271854186" cy="7.390282271854186" style="stroke-width: 1; fill: rgb(127, 205, 187);"></circle><circle class="pearl" r="2.190433937142651" cx="11.12983764620595" cy="7.397646296772786"></circle><circle class="pearl" r="2.190433937142651" cx="4.550406125682924" cy="10.562415888629467"></circle><circle class="pearl" r="2.190433937142651" cx="4.54988714372645" cy="4.218364693978658"></circle></g><g class="bobaCup bright" cupRadius="6.805846044382728" width="13.611692088765457" height="13.611692088765457" pearlRadius="2.7380424214283137" pearlCount="2" transform="translate(136.94559347964255,150.15854533920302)"><circle class="pool" r="6.805846044382728" cx="6.805846044382728" cy="6.805846044382728" style="stroke-width: 1; fill: rgb(127, 205, 187);"></circle><circle class="pearl" r="2.190433937142651" cx="9.383039906877343" cy="4.15755251039792"></circle><circle class="pearl" r="2.190433937142651" cx="4.2286521818881155" cy="9.454139578367538"></circle></g><g class="bobaCup bright" cupRadius="6.397891745618409" width="12.795783491236818" height="12.795783491236818" pearlRadius="2.738042421428314" pearlCount="2" transform="translate(283.09204509686833,114.5888007314287)"><circle class="pool" r="6.397891745618409" cx="6.397891745618409" cy="6.397891745618409" style="stroke-width: 1; fill: rgb(65, 182, 196);"></circle><circle class="pearl" r="2.1904339371426516" cx="8.58628191150938" cy="4.036629672271012"></circle><circle class="pearl" r="2.1904339371426516" cx="4.209501579727439" cy="8.759153818965807"></circle></g><g class="bobaCup bright" cupRadius="6.2811105382407195" width="12.562221076481439" height="12.562221076481439" pearlRadius="2.7380424214283137" pearlCount="2" transform="translate(13.71888946175928,98.16029035659282)"><circle class="pool" r="6.2811105382407195" cx="6.2811105382407195" cy="6.2811105382407195" style="stroke-width: 1; fill: rgb(127, 205, 187);"></circle><circle class="pearl" r="2.190433937142651" cx="8.358248702270858" cy="4.004115264628345"></circle><circle class="pearl" r="2.190433937142651" cx="4.203972374210581" cy="8.558105811853094"></circle></g><g class="bobaCup bright" cupRadius="5.400294186674054" width="10.800588373348107" height="10.800588373348107" pearlRadius="2.7380424214283137" pearlCount="1" transform="translate(119.25451827856118,161.43946011877708)"><circle class="pool" r="5.400294186674054" cx="5.400294186674054" cy="5.400294186674054" style="stroke-width: 1; fill: rgb(65, 182, 196);"></circle><circle class="pearl" r="2.190433937142651" cx="7.111654437975071" cy="5.400294186674054"></circle></g><g class="bobaCup bright" cupRadius="4.544820815254647" width="9.089641630509295" height="9.089641630509295" pearlRadius="2.7380424214283146" pearlCount="1" transform="translate(47.200916992269576,217.9351775092343)"><circle class="pool" r="4.544820815254647" cx="4.544820815254647" cy="4.544820815254647" style="stroke-width: 1; fill: rgb(127, 205, 187);"></circle><circle class="pearl" r="2.1904339371426516" cx="5.438918401938209" cy="4.544820815254647"></circle></g><g class="bobaCup bright" cupRadius="2.202920234269587" width="4.405840468539174" height="4.405840468539174" pearlRadius="2.7380424214283137" pearlCount="0" transform="translate(298.00737098139746,242.5275340617409)"><circle class="pool" r="2.202920234269587" cx="2.202920234269587" cy="2.202920234269587" style="stroke-width: 1; fill: rgb(29, 145, 192);"></circle></g><g class="bobaCup bright" cupRadius="0" width="0" height="0" pearlRadius="NaN" pearlCount="0" transform="translate(20,300)"><circle class="pool" r="0" cx="0" cy="0" style="stroke-width: 1; fill: rgb(65, 182, 196);"></circle></g><g class="bobaCup bright" cupRadius="0" width="0" height="0" pearlRadius="NaN" pearlCount="0" transform="translate(149.49715074075834,186.31122562372332)"><circle class="pool" r="0" cx="0" cy="0" style="stroke-width: 1; fill: rgb(127, 205, 187);"></circle></g></g><g id="legendDividerGroup" transform="translate(410,0)" height="400"><rect class="legendDivider" height="400" width="90"></rect></g><g id="legend" transform="translate(410,30)" width="90" height="320"><rect class="legendBorder" transform="translate(0,0)" width="90" height="324.9477195110013"></rect><text id="rTitle" text-anchor="middle" alignment-baseline="hanging" transform="translate(45,10)" x="0" y="0" style="fill: black; font-size: 0.8rem;">Population</text><text id="bobaValue" text-anchor="middle" alignment-baseline="hanging" transform="translate(45,25)" x="0" y="0" style="fill: black; font-size: 0.7rem;">(1 Pearl =   75)</text><g class="bright" cupRadius="8.94427190999916" width="17.88854381999832" height="17.88854381999832" pearlRadius="2.7380424214283137" pearlCount="4" transform="translate(36.05572809000084,50)"><circle class="pool" r="8.94427190999916" cx="8.94427190999916" cy="8.94427190999916" style="stroke-width: 1; fill: rgb(29, 145, 192);"></circle><circle class="pearl" r="2.190433937142651" cx="13.542613460651712" cy="5.486970900805415"></circle><circle class="pearl" r="2.190433937142651" cx="4.749399498236599" cy="12.229516637519533"></circle><circle class="pearl" r="2.190433937142651" cx="5.6385452023940825" cy="4.284028231246733"></circle><circle class="pearl" r="2.190433937142651" cx="12.653467756495177" cy="13.432459307079196"></circle></g><text id="0" class="legendSampleValue" text-anchor="middle" transform="translate(45,8)" x="0" y="72.88854381999832" style="fill: black; font-size: 0.7rem;"> 300</text><g class="bright" cupRadius="12.649110640673518" width="25.298221281347036" height="25.298221281347036" pearlRadius="2.7380424214283137" pearlCount="8" transform="translate(32.35088935932648,92.88854381999832)"><circle class="pool" r="12.649110640673518" cx="12.649110640673518" cy="12.649110640673518" style="stroke-width: 1; fill: rgb(29, 145, 192);"></circle><circle class="pearl" r="2.190433937142651" cx="14.071403428550026" cy="12.846878791771143"></circle><circle class="pearl" r="2.190433937142651" cx="6.440581911774749" cy="19.57795138257092"></circle><circle class="pearl" r="2.190433937142651" cx="15.10273708455154" cy="3.8909774644866477"></circle><circle class="pearl" r="2.190433937142651" cx="20.833946229646862" cy="17.112242666106596"></circle><circle class="pearl" r="2.190433937142651" cx="3.6634707295578792" cy="12.081372495075817"></circle><circle class="pearl" r="2.190433937142651" cx="21.1462151053254" cy="9.123450087562194"></circle><circle class="pearl" r="2.190433937142651" cx="14.187116834584868" cy="21.553646746241665"></circle><circle class="pearl" r="2.190433937142651" cx="7.171845845081948" cy="4.898098459274186"></circle></g><text id="1" class="legendSampleValue" text-anchor="middle" transform="translate(45,8)" x="0" y="123.18676510134536" style="fill: black; font-size: 0.7rem;"> 600</text><g class="bright" cupRadius="15.491933384829668" width="30.983866769659336" height="30.983866769659336" pearlRadius="2.738042421428314" pearlCount="12" transform="translate(29.508066615170332,143.18676510134537)"><circle class="pool" r="15.491933384829668" cx="15.491933384829668" cy="15.491933384829668" style="stroke-width: 1; fill: rgb(29, 145, 192);"></circle><circle class="pearl" r="2.1904339371426516" cx="17.033011743384765" cy="11.01737610913958"></circle><circle class="pearl" r="2.1904339371426516" cx="11.029309432951333" cy="17.00347040031935"></circle><circle class="pearl" r="2.1904339371426516" cx="13.977981653444434" cy="3.724876288236054"></circle><circle class="pearl" r="2.1904339371426516" cx="18.741808845067855" cy="18.756462357333643"></circle><circle class="pearl" r="2.1904339371426516" cx="3.725529689195627" cy="13.971342248807428"></circle><circle class="pearl" r="2.1904339371426516" cx="26.98661348100194" cy="12.233596672509572"></circle><circle class="pearl" r="2.1904339371426516" cx="12.152198575888569" cy="26.968872613027877"></circle><circle class="pearl" r="2.1904339371426516" cx="6.524197378590721" cy="6.5101702816287865"></circle><circle class="pearl" r="2.1904339371426516" cx="26.508263068801252" cy="20.479674242239334"></circle><circle class="pearl" r="2.1904339371426516" cx="5.419021306595209" cy="22.679550094546478"></circle><circle class="pearl" r="2.1904339371426516" cx="22.76079804957651" cy="5.461881544509561"></circle><circle class="pearl" r="2.1904339371426516" cx="20.400071923945557" cy="26.535092423407907"></circle></g><text id="2" class="legendSampleValue" text-anchor="middle" transform="translate(45,8)" x="0" y="179.1706318710047" style="fill: black; font-size: 0.7rem;"> 900</text><g class="bright" cupRadius="17.88854381999832" width="35.77708763999664" height="35.77708763999664" pearlRadius="2.7380424214283137" pearlCount="16" transform="translate(27.11145618000168,199.1706318710047)"><circle class="pool" r="17.88854381999832" cx="17.88854381999832" cy="17.88854381999832" style="stroke-width: 1; fill: rgb(29, 145, 192);"></circle><circle class="pearl" r="2.190433937142651" cx="19.8046930625516" cy="19.706925044831756"></circle><circle class="pearl" r="2.190433937142651" cx="13.339172784724305" cy="23.858410298028698"></circle><circle class="pearl" r="2.190433937142651" cx="16.092791630714295" cy="11.113543243945612"></circle><circle class="pearl" r="2.190433937142651" cx="20.836129534048155" cy="27.499380517199565"></circle><circle class="pearl" r="2.190433937142651" cx="10.312657514553905" cy="16.56124087753138"></circle><circle class="pearl" r="2.190433937142651" cx="23.678755837700653" cy="13.13675787817294"></circle><circle class="pearl" r="2.190433937142651" cx="14.311679794483911" cy="31.765114841909277"></circle><circle class="pearl" r="2.190433937142651" cx="11.081450997216843" cy="4.99648955196875"></circle><circle class="pearl" r="2.190433937142651" cx="27.674351504393126" cy="20.796258814455655"></circle><circle class="pearl" r="2.190433937142651" cx="4.000488629236898" cy="21.40866477780026"></circle><circle class="pearl" r="2.190433937142651" cx="28.333596734388347" cy="7.01684061165493"></circle><circle class="pearl" r="2.190433937142651" cx="28.522531366621063" cy="28.62247591779055"></circle><circle class="pearl" r="2.190433937142651" cx="5.30391541992303" cy="10.377661215789304"></circle><circle class="pearl" r="2.190433937142651" cx="31.694235049536697" cy="13.980399213320233"></circle><circle class="pearl" r="2.190433937142651" cx="7.311073872078207" cy="28.66408585659018"></circle><circle class="pearl" r="2.190433937142651" cx="18.987039995684725" cy="3.684483203560177"></circle></g><text id="3" class="legendSampleValue" text-anchor="middle" transform="translate(45,8)" x="0" y="239.94771951100134" style="fill: black; font-size: 0.7rem;">1.2k</text><g class="bright" cupRadius="20" width="40" height="40" pearlRadius="2.7380424214283137" pearlCount="20" transform="translate(25,259.9477195110013)"><circle class="pool" r="20" cx="20" cy="20" style="stroke-width: 1; fill: rgb(29, 145, 192);"></circle><circle class="pearl" r="2.190433937142651" cx="22.480421380823074" cy="19.96094551607325"></circle><circle class="pearl" r="2.190433937142651" cx="14.554532211889109" cy="20.25858246523202"></circle><circle class="pearl" r="2.190433937142651" cx="21.718613402750453" cy="11.231225788085391"></circle><circle class="pearl" r="2.190433937142651" cx="25.13767186853209" cy="27.447308990534317"></circle><circle class="pearl" r="2.190433937142651" cx="6.622341466842937" cy="15.212813608895589"></circle><circle class="pearl" r="2.190433937142651" cx="28.49521909515808" cy="14.82158787688231"></circle><circle class="pearl" r="2.190433937142651" cx="17.504603283401977" cy="28.993209871734443"></circle><circle class="pearl" r="2.190433937142651" cx="14.13811847195522" cy="12.373399584276378"></circle><circle class="pearl" r="2.190433937142651" cx="31.11803529924844" cy="22.444175683247455"></circle><circle class="pearl" r="2.190433937142651" cx="10.013176726772668" cy="26.767604068489224"></circle><circle class="pearl" r="2.190433937142651" cx="25.1625299271706" cy="4.328500666167248"></circle><circle class="pearl" r="2.190433937142651" cx="27.782608687955303" cy="34.772930101052836"></circle><circle class="pearl" r="2.190433937142651" cx="8.036930275650786" cy="7.623092000895575"></circle><circle class="pearl" r="2.190433937142651" cx="36.040664285033515" cy="16.500106031740792"></circle><circle class="pearl" r="2.190433937142651" cx="11.3070075503718" cy="34.36126950601293"></circle><circle class="pearl" r="2.190433937142651" cx="16.81383473400994" cy="3.9061454691506903"></circle><circle class="pearl" r="2.190433937142651" cx="33.74247113697989" cy="29.87303346303284"></circle><circle class="pearl" r="2.190433937142651" cx="3.788525504185259" cy="22.343736665541265"></circle><circle class="pearl" r="2.190433937142651" cx="32.18050534208177" cy="7.787706818962306"></circle><circle class="pearl" r="2.190433937142651" cx="20.00567962395882" cy="36.34927596497569"></circle></g><text id="4" class="legendSampleValue" text-anchor="middle" transform="translate(45,8)" x="0" y="304.9477195110013" style="fill: black; font-size: 0.7rem;">1.5k</text></g></svg>