<?xml version="1.0" standalone="no"?>
<?xml-stylesheet xmlns="http://www.w3.org/2000/svg" type="text/css" href="style.css"?>
<svg id="syntheticVisC" class="default" xTitle="Percent Cat Owners" yTitle="Percent Dog Owners" rTitle="Population" chartTitle="Towns in Vizzyland" width="500" height="400" xmlns="http://www.w3.org/2000/svg"><rect class="background" width="500" height="400"></rect><text id="chartTitle" text-anchor="middle" transform="translate(250,20)" x="0" y="0" style="fill: black; font-size: 1.2rem;">Towns in Vizzyland</text><g id="yAxis" transform="translate(50,30)" fill="none" font-size="10" font-family="sans-serif" text-anchor="end"><path class="domain" stroke="currentColor" d="M-6,300H0V20H-6"></path><g class="tick" opacity="1" transform="translate(0,300)"><line stroke="currentColor" x2="-6"></line><text fill="currentColor" x="-9" dy="0.32em">0</text></g><g class="tick" opacity="1" transform="translate(0,272)"><line stroke="currentColor" x2="-6"></line><text fill="currentColor" x="-9" dy="0.32em">10</text></g><g class="tick" opacity="1" transform="translate(0,244)"><line stroke="currentColor" x2="-6"></line><text fill="currentColor" x="-9" dy="0.32em">20</text></g><g class="tick" opacity="1" transform="translate(0,216)"><line stroke="currentColor" x2="-6"></line><text fill="currentColor" x="-9" dy="0.32em">30</text></g><g class="tick" opacity="1" transform="translate(0,188)"><line stroke="currentColor" x2="-6"></line><text fill="currentColor" x="-9" dy="0.32em">40</text></g><g class="tick" opacity="1" transform="translate(0,160)"><line stroke="currentColor" x2="-6"></line><text fill="currentColor" x="-9" dy="0.32em">50</text></g><g class="tick" opacity="1" transform="translate(0,132)"><line stroke="currentColor" x2="-6"></line><text fill="currentColor" x="-9" dy="0.32em">60</text></g><g class="tick" opacity="1" transform="translate(0,104.00000000000001)"><line stroke="currentColor" x2="-6"></line><text fill="currentColor" x="-9" dy="0.32em">70</text></g><g class="tick" opacity="1" transform="translate(0,75.99999999999999)"><line stroke="currentColor" x2="-6"></line><text fill="currentColor" x="-9" dy="0.32em">80</text></g><g class="tick" opacity="1" transform="translate(0,47.99999999999999)"><line stroke="currentColor" x2="-6"></line><text fill="currentColor" x="-9" dy="0.32em">90</text></g><g class="tick" opacity="1" transform="translate(0,20)"><line stroke="currentColor" x2="-6"></line><text fill="currentColor" x="-9" dy="0.32em">100</text></g></g><g id="xAxis" transform="translate(60,360)" fill="none" font-size="10" font-family="sans-serif" text-anchor="middle"><path class="domain" stroke="currentColor" d="M20,6V0H320V6"></path><g class="tick" opacity="1" transform="translate(20,0)"><line stroke="currentColor" y2="6"></line><text fill="currentColor" y="9" dy="0.71em">0</text></g><g class="tick" opacity="1" transform="translate(50,0)"><line stroke="currentColor" y2="6"></line><text fill="currentColor" y="9" dy="0.71em">10</text></g><g class="tick" opacity="1" transform="translate(80,0)"><line stroke="currentColor" y2="6"></line><text fill="currentColor" y="9" dy="0.71em">20</text></g><g class="tick" opacity="1" transform="translate(110,0)"><line stroke="currentColor" y2="6"></line><text fill="currentColor" y="9" dy="0.71em">30</text></g><g class="tick" opacity="1" transform="translate(140,0)"><line stroke="currentColor" y2="6"></line><text fill="currentColor" y="9" dy="0.71em">40</text></g><g class="tick" opacity="1" transform="translate(170,0)"><line stroke="currentColor" y2="6"></line><text fill="currentColor" y="9" dy="0.71em">50</text></g><g class="tick" opacity="1" transform="translate(200,0)"><line stroke="currentColor" y2="6"></line><text fill="currentColor" y="9" dy="0.71em">60</text></g><g class="tick" opacity="1" transform="translate(230,0)"><line stroke="currentColor" y2="6"></line><text fill="currentColor" y="9" dy="0.71em">70</text></g><g class="tick" opacity="1" transform="translate(260,0)"><line stroke="currentColor" y2="6"></line><text fill="currentColor" y="9" dy="0.71em">80</text></g><g class="tick" opacity="1" transform="translate(290,0)"><line stroke="currentColor" y2="6"></line><text fill="currentColor" y="9" dy="0.71em">90</text></g><g class="tick" opacity="1" transform="translate(320,0)"><line stroke="currentColor" y2="6"></line><text fill="currentColor" y="9" dy="0.71em">100</text></g></g><g id="labels"><text id="xTitle" text-anchor="middle" transform="translate(250,350)" x="0" y="40" style="fill: black; font-size: 0.8rem;">Percent Cat Owners</text><g id="group-yTitle" transform="translate(60,190)"><text id="yTitle" text-anchor="middle" transform="rotate(-90)" y="-45" style="fill: black; font-size: 0.8rem;">Percent Dog Owners</text></g></g><g id="quadrant_lines" transform="translate(60,30)"><line id="verticalQuadrantLine" x1="170" y1="10" x2="170" y2="310" class="quadrantLine"></line><line id="horizontalQuadrantLine" x1="10" y1="160" x2="330" y2="160" class="quadrantLine"></line></g><g id="chart" transform="translate(60,30)"><g class="bobaCup bright" cupRadius="20" width="40" height="40" pearlRadius="2.7380424214283137" pearlCount="20" transform="translate(17.98043307178824,66.22653072801197)"><circle class="pool" r="20" cx="20" cy="20" style="stroke-width: 1; fill: rgb(65, 182, 196);"></circle><circle class="pearl" r="2.190433937142651" cx="22.480421380823074" cy="19.96094551607325"></circle><circle class="pearl" r="2.190433937142651" cx="14.554532211889109" cy="20.25858246523202"></circle><circle class="pearl" r="2.190433937142651" cx="21.718613402750453" cy="11.231225788085391"></circle><circle class="pearl" r="2.190433937142651" cx="25.13767186853209" cy="27.447308990534317"></circle><circle class="pearl" r="2.190433937142651" cx="6.622341466842937" cy="15.212813608895589"></circle><circle class="pearl" r="2.190433937142651" cx="28.49521909515808" cy="14.82158787688231"></circle><circle class="pearl" r="2.190433937142651" cx="17.504603283401977" cy="28.993209871734443"></circle><circle class="pearl" r="2.190433937142651" cx="14.13811847195522" cy="12.373399584276378"></circle><circle class="pearl" r="2.190433937142651" cx="31.11803529924844" cy="22.444175683247455"></circle><circle class="pearl" r="2.190433937142651" cx="10.013176726772668" cy="26.767604068489224"></circle><circle class="pearl" r="2.190433937142651" cx="25.1625299271706" cy="4.328500666167248"></circle><circle class="pearl" r="2.190433937142651" cx="27.782608687955303" cy="34.772930101052836"></circle><circle class="pearl" r="2.190433937142651" cx="8.036930275650786" cy="7.623092000895575"></circle><circle class="pearl" r="2.190433937142651" cx="36.040664285033515" cy="16.500106031740792"></circle><circle class="pearl" r="2.190433937142651" cx="11.3070075503718" cy="34.36126950601293"></circle><circle class="pearl" r="2.190433937142651" cx="16.81383473400994" cy="3.9061454691506903"></circle><circle class="pearl" r="2.190433937142651" cx="33.74247113697989" cy="29.87303346303284"></circle><circle class="pearl" r="2.190433937142651" cx="3.788525504185259" cy="22.343736665541265"></circle><circle class="pearl" r="2.190433937142651" cx="32.18050534208177" cy="7.787706818962306"></circle><circle class="pearl" r="2.190433937142651" cx="20.00567962395882" cy="36.34927596497569"></circle></g><g class="bobaCup bright" cupRadius="19.775772465715583" width="39.55154493143117" height="39.55154493143117" pearlRadius="2.7380424214283132" pearlCount="20" transform="translate(247.0027684503051,164.72785712022915)"><circle class="pool" r="19.775772465715583" cx="19.775772465715583" cy="19.775772465715583" style="stroke-width: 1; fill: rgb(127, 205, 187);"></circle><circle class="pearl" r="2.1904339371426507" cx="21.728204901928137" cy="19.683423922490846"></circle><circle class="pearl" r="2.1904339371426507" cx="14.006776913263963" cy="21.109615410175817"></circle><circle class="pearl" r="2.1904339371426507" cx="20.527673794925878" cy="10.931033338000336"></circle><circle class="pearl" r="2.1904339371426507" cx="24.976666149347867" cy="26.88666556237089"></circle><circle class="pearl" r="2.1904339371426507" cx="4.977836178355692" cy="14.461328245702745"></circle><circle class="pearl" r="2.1904339371426507" cx="27.539333162863407" cy="14.427822806544844"></circle><circle class="pearl" r="2.1904339371426507" cx="17.1788947795655" cy="28.38341677820317"></circle><circle class="pearl" r="2.1904339371426507" cx="13.042029922489457" cy="13.371146960272949"></circle><circle class="pearl" r="2.1904339371426507" cx="30.94136725877449" cy="21.665956625621938"></circle><circle class="pearl" r="2.1904339371426507" cx="9.275057889496145" cy="27.38318234477589"></circle><circle class="pearl" r="2.1904339371426507" cx="24.681619880430794" cy="4.268890474445469"></circle><circle class="pearl" r="2.1904339371426507" cx="27.71284273257503" cy="34.23814097198343"></circle><circle class="pearl" r="2.1904339371426507" cx="8.04726327070695" cy="7.504082288073634"></circle><circle class="pearl" r="2.1904339371426507" cx="35.35956859108293" cy="15.180727108080614"></circle><circle class="pearl" r="2.1904339371426507" cx="12.0519608176517" cy="34.33010101518093"></circle><circle class="pearl" r="2.1904339371426507" cx="16.335731232709538" cy="3.9522231037385707"></circle><circle class="pearl" r="2.1904339371426507" cx="33.543429038214555" cy="29.139597630755205"></circle><circle class="pearl" r="2.1904339371426507" cx="3.787528118712344" cy="22.097868325342194"></circle><circle class="pearl" r="2.1904339371426507" cx="31.769323510029533" cy="7.7027585442580415"></circle><circle class="pearl" r="2.1904339371426507" cx="19.977149129315546" cy="35.899796367136126"></circle></g><g class="bobaCup bright" cupRadius="19.70330802843543" width="39.40661605687086" height="39.40661605687086" pearlRadius="2.738042421428314" pearlCount="19" transform="translate(290.92177427109755,98.68230501717132)"><circle class="pool" r="19.70330802843543" cx="19.70330802843543" cy="19.70330802843543" style="stroke-width: 1; fill: rgb(127, 205, 187);"></circle><circle class="pearl" r="2.1904339371426516" cx="20.85589859800702" cy="19.549349720642414"></circle><circle class="pearl" r="2.1904339371426516" cx="15.627926240773133" cy="25.58545502959754"></circle><circle class="pearl" r="2.1904339371426516" cx="21.543576421405064" cy="11.191309011693825"></circle><circle class="pearl" r="2.1904339371426516" cx="23.495721953113275" cy="27.18271615686438"></circle><circle class="pearl" r="2.1904339371426516" cx="11.695978558925813" cy="18.636105568150576"></circle><circle class="pearl" r="2.1904339371426516" cx="27.878392486176836" cy="15.759496657801169"></circle><circle class="pearl" r="2.1904339371426516" cx="17.396876488462073" cy="33.37198439639768"></circle><circle class="pearl" r="2.1904339371426516" cx="13.773090977025555" cy="10.904653792135012"></circle><circle class="pearl" r="2.1904339371426516" cx="30.50056369090803" cy="23.341851261568035"></circle><circle class="pearl" r="2.1904339371426516" cx="7.245246870719951" cy="25.252872480640725"></circle><circle class="pearl" r="2.1904339371426516" cx="25.822505790292073" cy="4.625022580231956"></circle><circle class="pearl" r="2.1904339371426516" cx="25.17424785188533" cy="34.98111260082124"></circle><circle class="pearl" r="2.1904339371426516" cx="5.992562242384203" cy="10.38667017362335"></circle><circle class="pearl" r="2.1904339371426516" cx="35.614673147896774" cy="17.348515738830677"></circle><circle class="pearl" r="2.1904339371426516" cx="9.448881713099388" cy="32.87718251293766"></circle><circle class="pearl" r="2.1904339371426516" cx="17.295374649704996" cy="3.798413033411436"></circle><circle class="pearl" r="2.1904339371426516" cx="32.09146710999372" cy="31.14772157851421"></circle><circle class="pearl" r="2.1904339371426516" cx="3.714863784717377" cy="18.114771513655757"></circle><circle class="pearl" r="2.1904339371426516" cx="32.50763957726088" cy="8.865802801849043"></circle></g><g class="bobaCup bright" cupRadius="18.592193767015385" width="37.18438753403077" height="37.18438753403077" pearlRadius="2.738042421428314" pearlCount="17" transform="translate(277.761402462476,101.38654392940555)"><circle class="pool" r="18.592193767015385" cx="18.592193767015385" cy="18.592193767015385" style="stroke-width: 1; fill: rgb(29, 145, 192);"></circle><circle class="pearl" r="2.1904339371426516" cx="18.649379885684635" cy="18.256988093808822"></circle><circle class="pearl" r="2.1904339371426516" cx="13.347744833312111" cy="24.592095696704646"></circle><circle class="pearl" r="2.1904339371426516" cx="15.984370125833324" cy="10.81208094569933"></circle><circle class="pearl" r="2.1904339371426516" cx="21.14207255369308" cy="25.658233940925186"></circle><circle class="pearl" r="2.1904339371426516" cx="10.855999451623536" cy="17.098271091625527"></circle><circle class="pearl" r="2.1904339371426516" cx="24.70679887023789" cy="13.23929964538826"></circle><circle class="pearl" r="2.1904339371426516" cx="16.276902827559443" cy="32.05395779934972"></circle><circle class="pearl" r="2.1904339371426516" cx="9.76482562471275" cy="5.879933137178913"></circle><circle class="pearl" r="2.1904339371426516" cx="27.336749337364438" cy="20.65032766893552"></circle><circle class="pearl" r="2.1904339371426516" cx="4.774567557087734" cy="22.311719899854793"></circle><circle class="pearl" r="2.1904339371426516" cx="27.938030458351637" cy="6.1704247927848535"></circle><circle class="pearl" r="2.1904339371426516" cx="25.19272822068965" cy="32.32256987065296"></circle><circle class="pearl" r="2.1904339371426516" cx="4.872608238376387" cy="11.963314318010719"></circle><circle class="pearl" r="2.1904339371426516" cx="33.16860528221418" cy="14.925965718638908"></circle><circle class="pearl" r="2.1904339371426516" cx="7.437198182373084" cy="29.815466053330557"></circle><circle class="pearl" r="2.1904339371426516" cx="19.55441992832716" cy="3.6756395999979365"></circle><circle class="pearl" r="2.1904339371426516" cx="31.23874558307976" cy="27.540293855288212"></circle></g><g class="bobaCup bright" cupRadius="18.11632759235472" width="36.23265518470944" height="36.23265518470944" pearlRadius="2.738042421428314" pearlCount="16" transform="translate(179.47865252086092,115.48461829619201)"><circle class="pool" r="18.11632759235472" cx="18.11632759235472" cy="18.11632759235472" style="stroke-width: 1; fill: rgb(65, 182, 196);"></circle><circle class="pearl" r="2.1904339371426516" cx="19.874698440016694" cy="19.83385277828523"></circle><circle class="pearl" r="2.1904339371426516" cx="13.56610334678701" cy="24.31478962524914"></circle><circle class="pearl" r="2.1904339371426516" cx="16.618870476943187" cy="11.446128734180146"></circle><circle class="pearl" r="2.1904339371426516" cx="21.10979837560056" cy="27.68603818591284"></circle><circle class="pearl" r="2.1904339371426516" cx="10.800512020424181" cy="16.908330043641993"></circle><circle class="pearl" r="2.1904339371426516" cx="24.268851502377828" cy="13.473019572695296"></circle><circle class="pearl" r="2.1904339371426516" cx="14.599005409088221" cy="32.237204463172944"></circle><circle class="pearl" r="2.1904339371426516" cx="10.66764194786356" cy="6.117041378204349"></circle><circle class="pearl" r="2.1904339371426516" cx="27.726153080534246" cy="21.132316521325443"></circle><circle class="pearl" r="2.1904339371426516" cx="4.381080668361225" cy="21.68214619902247"></circle><circle class="pearl" r="2.1904339371426516" cx="28.820965290715247" cy="7.151577609963677"></circle><circle class="pearl" r="2.1904339371426516" cx="28.94708450254276" cy="28.98786418055894"></circle><circle class="pearl" r="2.1904339371426516" cx="4.87046235606914" cy="11.581297088769771"></circle><circle class="pearl" r="2.1904339371426516" cx="32.23064793413112" cy="14.566038536915936"></circle><circle class="pearl" r="2.1904339371426516" cx="7.367227247390886" cy="29.048408182234024"></circle><circle class="pearl" r="2.1904339371426516" cx="18.28733455421994" cy="3.6515303466886206"></circle></g><g class="bobaCup bright" cupRadius="17.74924241930102" width="35.49848483860204" height="35.49848483860204" pearlRadius="2.7380424214283132" pearlCount="16" transform="translate(211.02041553214588,272.3474529943701)"><circle class="pool" r="17.74924241930102" cx="17.74924241930102" cy="17.74924241930102" style="stroke-width: 1; fill: rgb(29, 145, 192);"></circle><circle class="pearl" r="2.1904339371426507" cx="19.563638366897777" cy="19.457640388162424"></circle><circle class="pearl" r="2.1904339371426507" cx="13.24606690328432" cy="23.6553282725658"></circle><circle class="pearl" r="2.1904339371426507" cx="15.983145366193806" cy="10.989418052555777"></circle><circle class="pearl" r="2.1904339371426507" cx="20.662644070278652" cy="27.19816026537274"></circle><circle class="pearl" r="2.1904339371426507" cx="10.260635579884992" cy="16.417014652566476"></circle><circle class="pearl" r="2.1904339371426507" cx="23.433193867822347" cy="13.025911024734762"></circle><circle class="pearl" r="2.1904339371426507" cx="14.251907853137771" cy="31.499790908378454"></circle><circle class="pearl" r="2.1904339371426507" cx="11.05131804384255" cy="4.963012903529434"></circle><circle class="pearl" r="2.1904339371426507" cx="27.422820276935052" cy="20.583320504510954"></circle><circle class="pearl" r="2.1904339371426507" cx="4.004173954363348" cy="21.273733562028788"></circle><circle class="pearl" r="2.1904339371426507" cx="28.039818570386235" cy="6.938304300093594"></circle><circle class="pearl" r="2.1904339371426507" cx="28.275824928739283" cy="28.389308781620397"></circle><circle class="pearl" r="2.1904339371426507" cx="5.324281571110855" cy="10.225414409352918"></circle><circle class="pearl" r="2.1904339371426507" cx="31.40335006619784" cy="13.802289818804363"></circle><circle class="pearl" r="2.1904339371426507" cx="7.326434534499842" cy="28.46517093202446"></circle><circle class="pearl" r="2.1904339371426507" cx="19.233332827071713" cy="3.7128776421918657"></circle></g><g class="bobaCup bright" cupRadius="16.78956032935308" width="33.57912065870616" height="33.57912065870616" pearlRadius="2.7380424214283132" pearlCount="14" transform="translate(167.04338486483556,152.59511995543966)"><circle class="pool" r="16.78956032935308" cx="16.78956032935308" cy="16.78956032935308" style="stroke-width: 1; fill: rgb(29, 145, 192);"></circle><circle class="pearl" r="2.1904339371426507" cx="21.521250827535724" cy="12.89867371802744"></circle><circle class="pearl" r="2.1904339371426507" cx="13.357059992653907" cy="22.457229394457542"></circle><circle class="pearl" r="2.1904339371426507" cx="13.568033464889524" cy="12.212671362845533"></circle><circle class="pearl" r="2.1904339371426507" cx="21.165001492846248" cy="20.85303319487416"></circle><circle class="pearl" r="2.1904339371426507" cx="7.336412792732035" cy="17.232660557854825"></circle><circle class="pearl" r="2.1904339371426507" cx="26.6768341736615" cy="6.870790126677686"></circle><circle class="pearl" r="2.1904339371426507" cx="16.171292549946415" cy="29.917009856059433"></circle><circle class="pearl" r="2.1904339371426507" cx="11.428573641501902" cy="4.529621793381836"></circle><circle class="pearl" r="2.1904339371426507" cx="29.040564516392404" cy="22.17699025953417"></circle><circle class="pearl" r="2.1904339371426507" cx="5.829840473943878" cy="25.06145787119675"></circle><circle class="pearl" r="2.1904339371426507" cx="19.374034275932857" cy="3.8508341857347075"></circle><circle class="pearl" r="2.1904339371426507" cx="23.998120010068266" cy="28.302148196402044"></circle><circle class="pearl" r="2.1904339371426507" cx="5.301194554489796" cy="9.53026833914637"></circle><circle class="pearl" r="2.1904339371426507" cx="29.730532330365552" cy="14.219543702636246"></circle></g><g class="bobaCup bright" cupRadius="16.192462500862263" width="32.384925001724525" height="32.384925001724525" pearlRadius="2.7380424214283137" pearlCount="13" transform="translate(176.8588987438214,213.81353173200463)"><circle class="pool" r="16.192462500862263" cx="16.192462500862263" cy="16.192462500862263" style="stroke-width: 1; fill: rgb(65, 182, 196);"></circle><circle class="pearl" r="2.190433937142651" cx="21.09798528706953" cy="16.548398977781922"></circle><circle class="pearl" r="2.190433937142651" cx="15.004840440097606" cy="21.48509176028057"></circle><circle class="pearl" r="2.190433937142651" cx="16.10447011369357" cy="10.542748695637778"></circle><circle class="pearl" r="2.190433937142651" cx="24.286839590218076" cy="23.88013460554326"></circle><circle class="pearl" r="2.190433937142651" cx="9.912213628935264" cy="15.551182611330345"></circle><circle class="pearl" r="2.190433937142651" cx="27.343635623736386" cy="9.627425848801316"></circle><circle class="pearl" r="2.190433937142651" cx="9.612372784179732" cy="27.336950023146986"></circle><circle class="pearl" r="2.190433937142651" cx="11.191454075233281" cy="4.442349499909366"></circle><circle class="pearl" r="2.190433937142651" cx="28.685199917357526" cy="17.45123978180776"></circle><circle class="pearl" r="2.190433937142651" cx="4.495105034712369" cy="21.353107889780564"></circle><circle class="pearl" r="2.190433937142651" cx="21.28378971623541" cy="4.4719714303666915"></circle><circle class="pearl" r="2.190433937142651" cx="18.051008069896707" cy="28.627187671687846"></circle><circle class="pearl" r="2.190433937142651" cx="5.217733669966705" cy="9.243218376637419"></circle></g><g class="bobaCup bright" cupRadius="15.794483650853937" width="31.588967301707875" height="31.588967301707875" pearlRadius="2.7380424214283146" pearlCount="12" transform="translate(76.29269187464182,258.2556273220748)"><circle class="pool" r="15.794483650853937" cx="15.794483650853937" cy="15.794483650853937" style="stroke-width: 1; fill: rgb(65, 182, 196);"></circle><circle class="pearl" r="2.1904339371426516" cx="17.82320252102029" cy="11.575672211559175"></circle><circle class="pearl" r="2.1904339371426516" cx="11.601894479548054" cy="17.961123611647988"></circle><circle class="pearl" r="2.1904339371426516" cx="14.28916610574808" cy="4.405138444601918"></circle><circle class="pearl" r="2.1904339371426516" cx="19.463242769528936" cy="19.398218360735044"></circle><circle class="pearl" r="2.1904339371426516" cx="4.489275253054142" cy="14.312337807102471"></circle><circle class="pearl" r="2.1904339371426516" cx="27.397516733451017" cy="11.697090309156112"></circle><circle class="pearl" r="2.1904339371426516" cx="11.984609990222987" cy="27.471858037026923"></circle><circle class="pearl" r="2.1904339371426516" cx="6.601767401095949" cy="6.601543782452738"></circle><circle class="pearl" r="2.1904339371426516" cx="27.449921826523155" cy="19.69155137729094"></circle><circle class="pearl" r="2.1904339371426516" cx="5.3771629274532975" cy="22.97472411775225"></circle><circle class="pearl" r="2.1904339371426516" cx="22.691525416099925" cy="5.2361770502795855"></circle><circle class="pearl" r="2.1904339371426516" cx="19.978599721755284" cy="27.373956957532076"></circle></g><g class="bobaCup bright" cupRadius="15.406798565733704" width="30.813597131467407" height="30.813597131467407" pearlRadius="2.7380424214283137" pearlCount="12" transform="translate(88.42840545085923,213.19347789789995)"><circle class="pool" r="15.406798565733704" cx="15.406798565733704" cy="15.406798565733704" style="stroke-width: 1; fill: rgb(127, 205, 187);"></circle><circle class="pearl" r="2.190433937142651" cx="17.00938310925289" cy="10.905270218884247"></circle><circle class="pearl" r="2.190433937142651" cx="10.937355614980094" cy="16.920633500054187"></circle><circle class="pearl" r="2.190433937142651" cx="13.929721086904177" cy="3.7216917167827788"></circle><circle class="pearl" r="2.190433937142651" cx="18.577767917466897" cy="18.603895696911263"></circle><circle class="pearl" r="2.190433937142651" cx="3.7231087892030548" cy="13.915081489991481"></circle><circle class="pearl" r="2.190433937142651" cx="26.901296736357168" cy="12.57983715558435"></circle><circle class="pearl" r="2.190433937142651" cx="12.35952934891739" cy="26.85851197385598"></circle><circle class="pearl" r="2.190433937142651" cx="6.508894603179197" cy="6.479892959017475"></circle><circle class="pearl" r="2.190433937142651" cx="26.183219261363906" cy="20.812995032333493"></circle><circle class="pearl" r="2.190433937142651" cx="5.520461952699662" cy="22.763255110150716"></circle><circle class="pearl" r="2.190433937142651" cx="22.984671207988228" cy="5.643153070325843"></circle><circle class="pearl" r="2.190433937142651" cx="20.629687425165187" cy="26.250587195349514"></circle></g><g class="bobaCup bright" cupRadius="15.327184651197435" width="30.65436930239487" height="30.65436930239487" pearlRadius="2.738042421428314" pearlCount="12" transform="translate(286.33498490361893,245.4011286037654)"><circle class="pool" r="15.327184651197435" cx="15.327184651197435" cy="15.327184651197435" style="stroke-width: 1; fill: rgb(127, 205, 187);"></circle><circle class="pearl" r="2.1904339371426516" cx="17.012730841361716" cy="10.814457633659547"></circle><circle class="pearl" r="2.1904339371426516" cx="10.871982376670275" cy="16.837272607338587"></circle><circle class="pearl" r="2.1904339371426516" cx="13.891534135935968" cy="3.718107850609169"></circle><circle class="pearl" r="2.1904339371426516" cx="18.454131254874813" cy="18.48845063043439"></circle><circle class="pearl" r="2.1904339371426516" cx="3.7202375741702913" cy="13.869074169248856"></circle><circle class="pearl" r="2.1904339371426516" cx="26.808725148987715" cy="12.890550938931638"></circle><circle class="pearl" r="2.1904339371426516" cx="12.495228686061242" cy="26.739748405998597"></circle><circle class="pearl" r="2.1904339371426516" cx="6.492838649256834" cy="6.452856181276479"></circle><circle class="pearl" r="2.1904339371426516" cx="25.987756712206355" cy="20.814389446568878"></circle><circle class="pearl" r="2.1904339371426516" cx="5.589784833387368" cy="22.78913819077808"></circle><circle class="pearl" r="2.1904339371426516" cx="23.194188512343338" cy="5.823713127499657"></circle><circle class="pearl" r="2.1904339371426516" cx="20.43920658093983" cy="26.126022700455344"></circle></g><g class="bobaCup bright" cupRadius="15.296391501273055" width="30.59278300254611" height="30.59278300254611" pearlRadius="2.7380424214283137" pearlCount="12" transform="translate(135.75085397663898,6.648003003117049)"><circle class="pool" r="15.296391501273055" cx="15.296391501273055" cy="15.296391501273055" style="stroke-width: 1; fill: rgb(65, 182, 196);"></circle><circle class="pearl" r="2.190433937142651" cx="17.003653462067614" cy="10.78765220616275"></circle><circle class="pearl" r="2.190433937142651" cx="10.856429008856573" cy="16.787707387430704"></circle><circle class="pearl" r="2.190433937142651" cx="13.877957766206734" cy="3.716630866898605"></circle><circle class="pearl" r="2.190433937142651" cx="18.411043616707474" cy="18.450317383950523"></circle><circle class="pearl" r="2.190433937142651" cx="3.7190402759440992" cy="13.852320385747392"></circle><circle class="pearl" r="2.190433937142651" cx="26.76036725953598" cy="12.945760203596292"></circle><circle class="pearl" r="2.190433937142651" cx="12.441223729088358" cy="26.67322994959741"></circle><circle class="pearl" r="2.190433937142651" cx="6.486267048027754" cy="6.442663519233266"></circle><circle class="pearl" r="2.190433937142651" cx="25.900214512271614" cy="20.845040387640747"></circle><circle class="pearl" r="2.190433937142651" cx="5.576330008174384" cy="22.726176753013593"></circle><circle class="pearl" r="2.190433937142651" cx="23.228470645138966" cy="5.868058440659281"></circle><circle class="pearl" r="2.190433937142651" cx="20.35748985511208" cy="26.08051764541752"></circle></g><g class="bobaCup bright" cupRadius="14.72445101646278" width="29.44890203292556" height="29.44890203292556" pearlRadius="2.7380424214283132" pearlCount="11" transform="translate(46.702310323890984,259.03572837751346)"><circle class="pool" r="14.72445101646278" cx="14.72445101646278" cy="14.72445101646278" style="stroke-width: 1; fill: rgb(127, 205, 187);"></circle><circle class="pearl" r="2.1904339371426507" cx="18.657639783263313" cy="14.965637059312506"></circle><circle class="pearl" r="2.1904339371426507" cx="11.04295244427043" cy="16.588970777908056"></circle><circle class="pearl" r="2.1904339371426507" cx="13.646133876549555" cy="8.974711351265022"></circle><circle class="pearl" r="2.1904339371426507" cx="20.766179476146856" cy="24.50157106057161"></circle><circle class="pearl" r="2.1904339371426507" cx="3.6878099038765706" cy="13.680043794009306"></circle><circle class="pearl" r="2.1904339371426507" cx="25.211807604981868" cy="10.610553008271602"></circle><circle class="pearl" r="2.1904339371426507" cx="13.054596624952973" cy="25.70318587926908"></circle><circle class="pearl" r="2.1904339371426507" cx="6.3712967176768105" cy="6.249405362324395"></circle><circle class="pearl" r="2.1904339371426507" cx="25.295926361155175" cy="18.5373928569416"></circle><circle class="pearl" r="2.1904339371426507" cx="5.9554229771577765" cy="22.633890704601384"></circle><circle class="pearl" r="2.1904339371426507" cx="20.204107190901084" cy="4.70832289052825"></circle></g><g class="bobaCup bright" cupRadius="14.347710605215141" width="28.695421210430283" height="28.695421210430283" pearlRadius="2.738042421428314" pearlCount="10" transform="translate(65.62968736794978,179.16227856501678)"><circle class="pool" r="14.347710605215141" cx="14.347710605215141" cy="14.347710605215141" style="stroke-width: 1; fill: rgb(29, 145, 192);"></circle><circle class="pearl" r="2.1904339371426516" cx="17.88823452527778" cy="12.473997879928696"></circle><circle class="pearl" r="2.1904339371426516" cx="11.064982114328009" cy="16.292784056057716"></circle><circle class="pearl" r="2.1904339371426516" cx="14.581959861026332" cy="5.196671280094838"></circle><circle class="pearl" r="2.1904339371426516" cx="21.5212706494559" cy="23.122639709728045"></circle><circle class="pearl" r="2.1904339371426516" cx="3.6893586673405516" cy="13.295490337395364"></circle><circle class="pearl" r="2.1904339371426516" cx="22.439768267320446" cy="6.15042124077444"></circle><circle class="pearl" r="2.1904339371426516" cx="13.775803780771053" cy="25.033295206596556"></circle><circle class="pearl" r="2.1904339371426516" cx="6.625421244400884" cy="5.906161647019259"></circle><circle class="pearl" r="2.1904339371426516" cx="24.95195331076788" cy="15.976435820827737"></circle><circle class="pearl" r="2.1904339371426516" cx="6.250772369264558" cy="22.54166511874428"></circle></g><g class="bobaCup bright" cupRadius="14.280973628485917" width="28.561947256971834" height="28.561947256971834" pearlRadius="2.7380424214283137" pearlCount="10" transform="translate(168.69231910434956,32.76112630816744)"><circle class="pool" r="14.280973628485917" cx="14.280973628485917" cy="14.280973628485917" style="stroke-width: 1; fill: rgb(127, 205, 187);"></circle><circle class="pearl" r="2.190433937142651" cx="17.766411905749774" cy="12.343755916742364"></circle><circle class="pearl" r="2.190433937142651" cx="11.072091583647493" cy="16.24974791606053"></circle><circle class="pearl" r="2.190433937142651" cx="14.495854615089913" cy="5.0377662904577445"></circle><circle class="pearl" r="2.190433937142651" cx="21.501481111873343" cy="22.95138993568247"></circle><circle class="pearl" r="2.190433937142651" cx="3.6837170553870795" cy="13.310778107615956"></circle><circle class="pearl" r="2.190433937142651" cx="22.2994086730616" cy="6.114298361049904"></circle><circle class="pearl" r="2.190433937142651" cx="13.768086396239644" cy="24.902011134474144"></circle><circle class="pearl" r="2.190433937142651" cx="6.561352834517142" cy="5.9169699531762845"></circle><circle class="pearl" r="2.190433937142651" cx="24.833043901182062" cy="15.773241881137428"></circle><circle class="pearl" r="2.190433937142651" cx="6.256199572971191" cy="22.443345216068977"></circle></g><g class="bobaCup bright" cupRadius="14.073908710310274" width="28.147817420620548" height="28.147817420620548" pearlRadius="2.7380424214283132" pearlCount="10" transform="translate(213.55836961289566,16.143587353306703)"><circle class="pool" r="14.073908710310274" cx="14.073908710310274" cy="14.073908710310274" style="stroke-width: 1; fill: rgb(29, 145, 192);"></circle><circle class="pearl" r="2.1904339371426507" cx="17.364070220306637" cy="11.924355020059584"></circle><circle class="pearl" r="2.1904339371426507" cx="11.118746585630548" cy="16.15162635907923"></circle><circle class="pearl" r="2.1904339371426507" cx="14.225842303068092" cy="4.481352696107209"></circle><circle class="pearl" r="2.1904339371426507" cx="21.431408775286336" cy="22.4207727050114"></circle><circle class="pearl" r="2.1904339371426507" cx="3.668313412190847" cy="13.370477219428262"></circle><circle class="pearl" r="2.1904339371426507" cx="21.86510279779548" cy="6.004043170509568"></circle><circle class="pearl" r="2.1904339371426507" cx="13.733911245188452" cy="24.49298676355757"></circle><circle class="pearl" r="2.1904339371426507" cx="6.37983193328206" cy="5.940061987655199"></circle><circle class="pearl" r="2.1904339371426507" cx="24.456713242978324" cy="15.139274826102353"></circle><circle class="pearl" r="2.1904339371426507" cx="6.275961901145773" cy="22.139282611226832"></circle></g><g class="bobaCup bright" cupRadius="13.945134320890581" width="27.890268641781162" height="27.890268641781162" pearlRadius="2.7380424214283137" pearlCount="10" transform="translate(281.61440051823496,136.14322851995303)"><circle class="pool" r="13.945134320890581" cx="13.945134320890581" cy="13.945134320890581" style="stroke-width: 1; fill: rgb(127, 205, 187);"></circle><circle class="pearl" r="2.190433937142651" cx="17.06768919616873" cy="11.619440397139645"></circle><circle class="pearl" r="2.190433937142651" cx="11.166240031695938" cy="16.11886615116368"></circle><circle class="pearl" r="2.190433937142651" cx="14.074255156771859" cy="4.10435997561888"></circle><circle class="pearl" r="2.190433937142651" cx="21.38730611322505" cy="22.087665530389657"></circle><circle class="pearl" r="2.190433937142651" cx="3.661691475490919" cy="13.392154166922051"></circle><circle class="pearl" r="2.190433937142651" cx="21.596252310067186" cy="5.9370769638524425"></circle><circle class="pearl" r="2.190433937142651" cx="13.707391692568393" cy="24.23751869680849"></circle><circle class="pearl" r="2.190433937142651" cx="6.303233308642767" cy="5.931033498208848"></circle><circle class="pearl" r="2.190433937142651" cx="24.218088954434037" cy="14.71841694693481"></circle><circle class="pearl" r="2.190433937142651" cx="6.28942045029072" cy="21.950174317401984"></circle></g><g class="bobaCup bright" cupRadius="13.667729579569466" width="27.33545915913893" height="27.33545915913893" pearlRadius="2.7380424214283137" pearlCount="9" transform="translate(250.7229144428882,83.0528244324281)"><circle class="pool" r="13.667729579569466" cx="13.667729579569466" cy="13.667729579569466" style="stroke-width: 1; fill: rgb(29, 145, 192);"></circle><circle class="pearl" r="2.190433937142651" cx="16.99135635831035" cy="11.978105813531943"></circle><circle class="pearl" r="2.190433937142651" cx="10.606052760457468" cy="15.948961120128452"></circle><circle class="pearl" r="2.190433937142651" cx="13.760592527356833" cy="3.651038702569359"></circle><circle class="pearl" r="2.190433937142651" cx="18.930243698609907" cy="22.630997670447517"></circle><circle class="pearl" r="2.190433937142651" cx="3.6596848908640958" cy="13.172865111035362"></circle><circle class="pearl" r="2.190433937142651" cx="21.161014112372687" cy="5.88790081925173"></circle><circle class="pearl" r="2.190433937142651" cx="11.059328328901756" cy="23.433528805634428"></circle><circle class="pearl" r="2.190433937142651" cx="6.15915734234565" cy="5.897937284810183"></circle><circle class="pearl" r="2.190433937142651" cx="23.436736196638524" cy="16.25957886729306"></circle></g><g class="bobaCup bright" cupRadius="13.559990381881997" width="27.119980763763994" height="27.119980763763994" pearlRadius="2.738042421428314" pearlCount="9" transform="translate(102.46020254727246,114.34515322523869)"><circle class="pool" r="13.559990381881997" cx="13.559990381881997" cy="13.559990381881997" style="stroke-width: 1; fill: rgb(29, 145, 192);"></circle><circle class="pearl" r="2.1904339371426516" cx="16.70017491756214" cy="11.746726025732803"></circle><circle class="pearl" r="2.1904339371426516" cx="10.518319541807523" cy="15.894240298493079"></circle><circle class="pearl" r="2.1904339371426516" cx="13.625232527488304" cy="3.6508801815658036"></circle><circle class="pearl" r="2.1904339371426516" cx="19.029421467766422" cy="22.31727516239494"></circle><circle class="pearl" r="2.1904339371426516" cx="3.6561290154625667" cy="13.177138434024798"></circle><circle class="pearl" r="2.1904339371426516" cx="20.953175564878297" cy="5.84347331182931"></circle><circle class="pearl" r="2.1904339371426516" cx="11.195098652718348" cy="23.261443989544983"></circle><circle class="pearl" r="2.1904339371426516" cx="6.068653374398581" cy="5.90791709821587"></circle><circle class="pearl" r="2.1904339371426516" cx="23.284490441560987" cy="15.790851459175936"></circle></g><g class="bobaCup bright" cupRadius="13.367114001193581" width="26.734228002387162" height="26.734228002387162" pearlRadius="2.7380424214283132" pearlCount="9" transform="translate(95.92887615421492,190.100640296084)"><circle class="pool" r="13.367114001193581" cx="13.367114001193581" cy="13.367114001193581" style="stroke-width: 1; fill: rgb(127, 205, 187);"></circle><circle class="pearl" r="2.1904339371426507" cx="15.445691136951101" cy="11.285024065459247"></circle><circle class="pearl" r="2.1904339371426507" cx="9.996899639155705" cy="16.716106827326495"></circle><circle class="pearl" r="2.1904339371426507" cx="13.445739227113414" cy="3.650954466952892"></circle><circle class="pearl" r="2.1904339371426507" cx="20.80088199588668" cy="20.825793552339416"></circle><circle class="pearl" r="2.1904339371426507" cx="3.6524190868910322" cy="13.154194798091098"></circle><circle class="pearl" r="2.1904339371426507" cx="20.690558474534196" cy="5.835400207057929"></circle><circle class="pearl" r="2.1904339371426507" cx="13.532918619077671" cy="23.08247642061959"></circle><circle class="pearl" r="2.1904339371426507" cx="6.027743532349244" cy="5.845846456318728"></circle><circle class="pearl" r="2.1904339371426507" cx="23.083380934967547" cy="13.309575138882007"></circle></g><g class="bobaCup bright" cupRadius="13.332229665466409" width="26.664459330932818" height="26.664459330932818" pearlRadius="2.7380424214283137" pearlCount="9" transform="translate(79.19172999388795,12.712804472850229)"><circle class="pool" r="13.332229665466409" cx="13.332229665466409" cy="13.332229665466409" style="stroke-width: 1; fill: rgb(65, 182, 196);"></circle><circle class="pearl" r="2.190433937142651" cx="15.387286178952287" cy="11.272835137983751"></circle><circle class="pearl" r="2.190433937142651" cx="9.950333412561346" cy="16.70521902789983"></circle><circle class="pearl" r="2.190433937142651" cx="13.403755242780681" cy="3.6509150923909495"></circle><circle class="pearl" r="2.190433937142651" cx="20.734663872998386" cy="20.769892958653255"></circle><circle class="pearl" r="2.190433937142651" cx="3.652086052121895" cy="13.141606750113013"></circle><circle class="pearl" r="2.190433937142651" cx="20.62335432526295" cy="5.82106017604162"></circle><circle class="pearl" r="2.190433937142651" cx="13.497160923991084" cy="23.01271589188117"></circle><circle class="pearl" r="2.190433937142651" cx="6.020289525219779" cy="5.834684901286662"></circle><circle class="pearl" r="2.190433937142651" cx="23.013646984357507" cy="13.283482609582679"></circle></g><g class="bobaCup bright" cupRadius="13.210091425876257" width="26.420182851752514" height="26.420182851752514" pearlRadius="2.7380424214283137" pearlCount="9" transform="translate(6.789908574123743,174.967993666037)"><circle class="pool" r="13.210091425876257" cx="13.210091425876257" cy="13.210091425876257" style="stroke-width: 1; fill: rgb(127, 205, 187);"></circle><circle class="pearl" r="2.190433937142651" cx="15.202281036757947" cy="11.219410137933197"></circle><circle class="pearl" r="2.190433937142651" cx="9.79262243108371" cy="16.6185539207946"></circle><circle class="pearl" r="2.190433937142651" cx="13.275562885734908" cy="3.6508854734125933"></circle><circle class="pearl" r="2.190433937142651" cx="20.50083855732555" cy="20.575334870515167"></circle><circle class="pearl" r="2.190433937142651" cx="3.651523010744258" cy="13.064730662238722"></circle><circle class="pearl" r="2.190433937142651" cx="20.388614588590986" cy="5.7713908334196"></circle><circle class="pearl" r="2.190433937142651" cx="13.325859798478302" cy="22.76895233776601"></circle><circle class="pearl" r="2.190433937142651" cx="6.0017351806535615" cy="5.790759743925518"></circle><circle class="pearl" r="2.190433937142651" cx="22.76945074264908" cy="13.194773945352063"></circle></g><g class="bobaCup bright" cupRadius="13.1863462336163" width="26.3726924672326" height="26.3726924672326" pearlRadius="2.738042421428314" pearlCount="9" transform="translate(183.49369959239826,263.56674974849506)"><circle class="pool" r="13.1863462336163" cx="13.1863462336163" cy="13.1863462336163" style="stroke-width: 1; fill: rgb(127, 205, 187);"></circle><circle class="pearl" r="2.1904339371426516" cx="15.166138859468003" cy="11.209317624006264"></circle><circle class="pearl" r="2.1904339371426516" cx="9.761142324592383" cy="16.60211771398537"></circle><circle class="pearl" r="2.1904339371426516" cx="13.250850671962368" cy="3.650880999623974"></circle><circle class="pearl" r="2.1904339371426516" cx="20.45541355786199" cy="20.537458634993083"></circle><circle class="pearl" r="2.1904339371426516" cx="3.651437048982596" cy="13.04914252867356"></circle><circle class="pearl" r="2.1904339371426516" cx="20.34305755570551" cy="5.7618173185526"></circle><circle class="pearl" r="2.1904339371426516" cx="13.29248391175641" cy="22.721542077528778"></circle><circle class="pearl" r="2.1904339371426516" cx="5.998307330398035" cy="5.782123794359453"></circle><circle class="pearl" r="2.1904339371426516" cx="22.721966436715572" cy="13.177750022198351"></circle></g><g class="bobaCup bright" cupRadius="12.996428497696947" width="25.992856995393893" height="25.992856995393893" pearlRadius="2.738042421428314" pearlCount="8" transform="translate(260.86741297486185,96.868797923806)"><circle class="pool" r="12.996428497696947" cx="12.996428497696947" cy="12.996428497696947" style="stroke-width: 1; fill: rgb(127, 205, 187);"></circle><circle class="pearl" r="2.1904339371426516" cx="19.551138988789006" cy="12.991595006576427"></circle><circle class="pearl" r="2.1904339371426516" cx="11.72529283225256" cy="14.331151673986243"></circle><circle class="pearl" r="2.1904339371426516" cx="12.205243373905583" cy="3.6748281180766083"></circle><circle class="pearl" r="2.1904339371426516" cx="19.949127527105023" cy="20.32601172669877"></circle><circle class="pearl" r="2.1904339371426516" cx="3.8064944342640534" cy="15.002587515585194"></circle><circle class="pearl" r="2.1904339371426516" cx="19.949698918540157" cy="5.667207092966086"></circle><circle class="pearl" r="2.1904339371426516" cx="12.127285256518892" cy="22.313038985895236"></circle><circle class="pearl" r="2.1904339371426516" cx="5.061140011709577" cy="7.1081786519564"></circle></g><g class="bobaCup bright" cupRadius="12.711184298129051" width="25.422368596258103" height="25.422368596258103" pearlRadius="2.7380424214283137" pearlCount="8" transform="translate(40.974959614659014,169.4684347797376)"><circle class="pool" r="12.711184298129051" cx="12.711184298129051" cy="12.711184298129051" style="stroke-width: 1; fill: rgb(65, 182, 196);"></circle><circle class="pearl" r="2.190433937142651" cx="14.201066767073264" cy="12.858388320660858"></circle><circle class="pearl" r="2.190433937142651" cx="6.790557931166809" cy="19.422344337421457"></circle><circle class="pearl" r="2.190433937142651" cx="15.14451178773009" cy="3.885805427512487"></circle><circle class="pearl" r="2.190433937142651" cx="21.00734199045" cy="17.052410222108183"></circle><circle class="pearl" r="2.190433937142651" cx="3.6672195665909104" cy="12.063801987233557"></circle><circle class="pearl" r="2.190433937142651" cx="21.236249393339566" cy="9.060926094184273"></circle><circle class="pearl" r="2.190433937142651" cx="14.46808982392053" cy="21.649642505793043"></circle><circle class="pearl" r="2.190433937142651" cx="7.214893634582889" cy="4.900450586030775"></circle></g><g class="bobaCup bright" cupRadius="12.645449193335105" width="25.29089838667021" height="25.29089838667021" pearlRadius="2.7380424214283132" pearlCount="8" transform="translate(18.93082234943479,8.093777164113275)"><circle class="pool" r="12.645449193335105" cx="12.645449193335105" cy="12.645449193335105" style="stroke-width: 1; fill: rgb(29, 145, 192);"></circle><circle class="pearl" r="2.1904339371426507" cx="14.063725398789213" cy="12.845835680909973"></circle><circle class="pearl" r="2.1904339371426507" cx="6.4209761715210085" cy="19.586740199640104"></circle><circle class="pearl" r="2.1904339371426507" cx="15.099597266384471" cy="3.891151561916975"></circle><circle class="pearl" r="2.1904339371426507" cx="20.823920130902412" cy="17.1150745334522"></circle><circle class="pearl" r="2.1904339371426507" cx="3.663238340347273" cy="12.082988712761903"></circle><circle class="pearl" r="2.1904339371426507" cx="21.140673648138566" cy="9.126452152423026"></circle><circle class="pearl" r="2.1904339371426507" cx="14.171253537137826" cy="21.547785607960666"></circle><circle class="pearl" r="2.1904339371426507" cx="7.168688130673727" cy="4.898257105334667"></circle></g><g class="bobaCup bright" cupRadius="12.284030615848849" width="24.568061231697698" height="24.568061231697698" pearlRadius="2.7380424214283137" pearlCount="8" transform="translate(164.45453380575103,182.54502298290245)"><circle class="pool" r="12.284030615848849" cx="12.284030615848849" cy="12.284030615848849" style="stroke-width: 1; fill: rgb(65, 182, 196);"></circle><circle class="pearl" r="2.190433937142651" cx="13.351623719544504" cy="12.604464638555104"></circle><circle class="pearl" r="2.190433937142651" cx="5.722258987641084" cy="19.01793839999841"></circle><circle class="pearl" r="2.190433937142651" cx="14.904288775866563" cy="3.9334349441501626"></circle><circle class="pearl" r="2.190433937142651" cx="19.925770024005704" cy="17.119079299080003"></circle><circle class="pearl" r="2.190433937142651" cx="3.664394035519038" cy="11.704653078122872"></circle><circle class="pearl" r="2.190433937142651" cx="20.52556137110916" cy="9.206417359580582"></circle><circle class="pearl" r="2.190433937142651" cx="13.192640006150388" cy="20.883688489389147"></circle><circle class="pearl" r="2.190433937142651" cx="7.099246331047222" cy="4.7985327577502765"></circle></g><g class="bobaCup bright" cupRadius="12.010388328890162" width="24.020776657780324" height="24.020776657780324" pearlRadius="2.738042421428314" pearlCount="7" transform="translate(66.4176536722574,16.50710364681009)"><circle class="pool" r="12.010388328890162" cx="12.010388328890162" cy="12.010388328890162" style="stroke-width: 1; fill: rgb(29, 145, 192);"></circle><circle class="pearl" r="2.1904339371426516" cx="13.272683898817972" cy="12.339675298649228"></circle><circle class="pearl" r="2.1904339371426516" cx="4.989389282709444" cy="14.860039347380928"></circle><circle class="pearl" r="2.1904339371426516" cx="12.127422779753292" cy="3.651293459419455"></circle><circle class="pearl" r="2.1904339371426516" cx="18.57937322715072" cy="18.31966670387983"></circle><circle class="pearl" r="2.1904339371426516" cx="4.807745806438456" cy="6.867054810123707"></circle><circle class="pearl" r="2.1904339371426516" cx="19.329977549994783" cy="7.121454644820469"></circle><circle class="pearl" r="2.1904339371426516" cx="10.836676121862846" cy="20.31256547913158"></circle></g><g class="bobaCup bright" cupRadius="11.327223696924369" width="22.654447393848738" height="22.654447393848738" pearlRadius="2.738042421428314" pearlCount="6" transform="translate(202.22239273779508,230.16896835894815)"><circle class="pool" r="11.327223696924369" cx="11.327223696924369" cy="11.327223696924369" style="stroke-width: 1; fill: rgb(127, 205, 187);"></circle><circle class="pearl" r="2.1904339371426516" cx="11.886515578382495" cy="11.411644433303223"></circle><circle class="pearl" r="2.1904339371426516" cx="6.3615263402169" cy="17.190452605642434"></circle><circle class="pearl" r="2.1904339371426516" cx="9.385373229810684" cy="3.818412282709702"></circle><circle class="pearl" r="2.1904339371426516" cx="17.27822347894946" cy="17.31452922295359"></circle><circle class="pearl" r="2.1904339371426516" cx="3.79381566915812" cy="9.532452201389834"></circle><circle class="pearl" r="2.1904339371426516" cx="17.29969890407771" cy="5.353211262626388"></circle></g><g class="bobaCup bright" cupRadius="11.301431476904323" width="22.602862953808646" height="22.602862953808646" pearlRadius="2.7380424214283137" pearlCount="6" transform="translate(69.35538098678265,36.24048891294467)"><circle class="pool" r="11.301431476904323" cx="11.301431476904323" cy="11.301431476904323" style="stroke-width: 1; fill: rgb(29, 145, 192);"></circle><circle class="pearl" r="2.190433937142651" cx="11.790680336285423" cy="11.424911519941075"></circle><circle class="pearl" r="2.190433937142651" cx="6.286982929891288" cy="17.223417374620187"></circle><circle class="pearl" r="2.190433937142651" cx="9.312794408368609" cy="3.827062524427671"></circle><circle class="pearl" r="2.190433937142651" cx="17.25546095049768" cy="17.2565339002356"></circle><circle class="pearl" r="2.190433937142651" cx="3.7801860366078" cy="9.595714768595359"></circle><circle class="pearl" r="2.190433937142651" cx="17.254900665122495" cy="5.345981791556948"></circle></g><g class="bobaCup bright" cupRadius="11.256164550818223" width="22.512329101636446" height="22.512329101636446" pearlRadius="2.7380424214283132" pearlCount="6" transform="translate(237.43429348980393,175.41063052683444)"><circle class="pool" r="11.256164550818223" cx="11.256164550818223" cy="11.256164550818223" style="stroke-width: 1; fill: rgb(29, 145, 192);"></circle><circle class="pearl" r="2.1904339371426507" cx="11.594393172637552" cy="11.461892220186911"></circle><circle class="pearl" r="2.1904339371426507" cx="6.161019685145833" cy="17.32597145892245"></circle><circle class="pearl" r="2.1904339371426507" cx="9.193118359178445" cy="3.841397243210742"></circle><circle class="pearl" r="2.1904339371426507" cx="17.17699306495252" cy="17.178582400352646"></circle><circle class="pearl" r="2.1904339371426507" cx="3.7586946698459736" cy="9.700841180124101"></circle><circle class="pearl" r="2.1904339371426507" cx="17.176771965390827" cy="5.333609958412592"></circle></g><g class="bobaCup bright" cupRadius="11.233940032256216" width="22.467880064512432" height="22.467880064512432" pearlRadius="2.7380424214283137" pearlCount="6" transform="translate(98.8564272071558,231.61687190078177)"><circle class="pool" r="11.233940032256216" cx="11.233940032256216" cy="11.233940032256216" style="stroke-width: 1; fill: rgb(65, 182, 196);"></circle><circle class="pearl" r="2.190433937142651" cx="11.544301551980483" cy="11.458413905973542"></circle><circle class="pearl" r="2.190433937142651" cx="6.134670028022536" cy="17.351421997067863"></circle><circle class="pearl" r="2.190433937142651" cx="9.1490070221437" cy="3.8458923604203203"></circle><circle class="pearl" r="2.190433937142651" cx="17.135045168059552" cy="17.142420056285438"></circle><circle class="pearl" r="2.190433937142651" cx="3.7526749118765874" cy="9.723892335276293"></circle><circle class="pearl" r="2.190433937142651" cx="17.138422532402487" cy="5.327545753241907"></circle></g><g class="bobaCup bright" cupRadius="10.886910628983408" width="21.773821257966816" height="21.773821257966816" pearlRadius="2.7380424214283137" pearlCount="6" transform="translate(73.96442328518796,81.51447370901315)"><circle class="pool" r="10.886910628983408" cx="10.886910628983408" cy="10.886910628983408" style="stroke-width: 1; fill: rgb(29, 145, 192);"></circle><circle class="pearl" r="2.190433937142651" cx="11.256763766035046" cy="11.12394794629135"></circle><circle class="pearl" r="2.190433937142651" cx="5.808586104772185" cy="16.866111754750044"></circle><circle class="pearl" r="2.190433937142651" cx="8.860510586725697" cy="3.8409742896234906"></circle><circle class="pearl" r="2.190433937142651" cx="16.447801429456458" cy="16.595744897895102"></circle><circle class="pearl" r="2.190433937142651" cx="3.7532127220686267" cy="9.396580525966748"></circle><circle class="pearl" r="2.190433937142651" cx="16.53064499644512" cy="5.227795758371272"></circle></g><g class="bobaCup bright" cupRadius="10.746103553012157" width="21.492207106024313" height="21.492207106024313" pearlRadius="2.7380424214283146" pearlCount="6" transform="translate(57.78822239416416,227.44879350234447)"><circle class="pool" r="10.746103553012157" cx="10.746103553012157" cy="10.746103553012157" style="stroke-width: 1; fill: rgb(29, 145, 192);"></circle><circle class="pearl" r="2.1904339371426516" cx="11.05850673371376" cy="11.028387107765194"></circle><circle class="pearl" r="2.1904339371426516" cx="5.295799637243495" cy="16.356747869129993"></circle><circle class="pearl" r="2.1904339371426516" cx="8.870907906655315" cy="3.8155989293940236"></circle><circle class="pearl" r="2.1904339371426516" cx="16.17631423831256" cy="16.368543403202807"></circle><circle class="pearl" r="2.1904339371426516" cx="3.7998571208441208" cy="8.962013986472662"></circle><circle class="pearl" r="2.1904339371426516" cx="16.29111745898265" cy="5.191851911728663"></circle></g><g class="bobaCup bright" cupRadius="10.666395861894845" width="21.33279172378969" height="21.33279172378969" pearlRadius="2.7380424214283132" pearlCount="6" transform="translate(77.6586553049472,256.69431986567344)"><circle class="pool" r="10.666395861894845" cx="10.666395861894845" cy="10.666395861894845" style="stroke-width: 1; fill: rgb(127, 205, 187);"></circle><circle class="pearl" r="2.1904339371426507" cx="10.99331487924372" cy="10.955275931801838"></circle><circle class="pearl" r="2.1904339371426507" cx="5.296496690334604" cy="16.231755508923573"></circle><circle class="pearl" r="2.1904339371426507" cx="8.781619705865625" cy="3.818565879460558"></circle><circle class="pearl" r="2.1904339371426507" cx="16.017792624917373" cy="16.24251138597136"></circle><circle class="pearl" r="2.1904339371426507" cx="3.7956286459125996" cy="8.91418596926769"></circle><circle class="pearl" r="2.1904339371426507" cx="16.136813822470597" cy="5.160344111290253"></circle></g><g class="bobaCup bright" cupRadius="10.322282502076646" width="20.644565004153293" height="20.644565004153293" pearlRadius="2.7380424214283137" pearlCount="5" transform="translate(94.72334109589961,93.45653699624069)"><circle class="pool" r="10.322282502076646" cx="10.322282502076646" cy="10.322282502076646" style="stroke-width: 1; fill: rgb(29, 145, 192);"></circle><circle class="pearl" r="2.190433937142651" cx="16.69195586080892" cy="7.895488172526318"></circle><circle class="pearl" r="2.190433937142651" cx="7.233584406391063" cy="15.97919857485965"></circle><circle class="pearl" r="2.190433937142651" cx="9.911643202219073" cy="3.6588944544354085"></circle><circle class="pearl" r="2.190433937142651" cx="15.225522402340365" cy="15.754937198767703"></circle><circle class="pearl" r="2.190433937142651" cx="3.7674180674495137" cy="8.774543343996681"></circle></g><g class="bobaCup bright" cupRadius="9.955192912739065" width="19.91038582547813" height="19.91038582547813" pearlRadius="2.7380424214283137" pearlCount="5" transform="translate(274.27595076310325,89.8257310328985)"><circle class="pool" r="9.955192912739065" cx="9.955192912739065" cy="9.955192912739065" style="stroke-width: 1; fill: rgb(65, 182, 196);"></circle><circle class="pearl" r="2.190433937142651" cx="15.864331460869398" cy="7.177620458200148"></circle><circle class="pearl" r="2.190433937142651" cx="7.083423324379226" cy="15.836458215488275"></circle><circle class="pearl" r="2.190433937142651" cx="9.105457991174152" cy="3.687054488231043"></circle><circle class="pearl" r="2.190433937142651" cx="14.8926536425807" cy="14.948967788229421"></circle><circle class="pearl" r="2.190433937142651" cx="3.6951661362114017" cy="9.015565185239883"></circle></g><g class="bobaCup bright" cupRadius="9.954930862635493" width="19.909861725270986" height="19.909861725270986" pearlRadius="2.738042421428314" pearlCount="5" transform="translate(288.11576785953866,56.88244629596383)"><circle class="pool" r="9.954930862635493" cx="9.954930862635493" cy="9.954930862635493" style="stroke-width: 1; fill: rgb(65, 182, 196);"></circle><circle class="pearl" r="2.1904339371426516" cx="15.863794515584143" cy="7.177351496617594"></circle><circle class="pearl" r="2.1904339371426516" cx="7.083046260171654" cy="15.835887827502695"></circle><circle class="pearl" r="2.1904339371426516" cx="9.105230977584428" cy="3.6870524465594436"></circle><circle class="pearl" r="2.1904339371426516" cx="14.89216290490668" cy="14.948534573775984"></circle><circle class="pearl" r="2.1904339371426516" cx="3.69517472425469" cy="9.015224952750092"></circle></g><g class="bobaCup bright" cupRadius="9.6094834416468" width="19.2189668832936" height="19.2189668832936" pearlRadius="2.7380424214283137" pearlCount="5" transform="translate(303.89463126099554,272.4425102995011)"><circle class="pool" r="9.6094834416468" cx="9.6094834416468" cy="9.6094834416468" style="stroke-width: 1; fill: rgb(29, 145, 192);"></circle><circle class="pearl" r="2.190433937142651" cx="15.159769884557836" cy="6.837553961920364"></circle><circle class="pearl" r="2.190433937142651" cx="6.5613498752910155" cy="15.071995301502835"></circle><circle class="pearl" r="2.190433937142651" cx="8.838745433349233" cy="3.6816819958304183"></circle><circle class="pearl" r="2.190433937142651" cx="14.242194756234454" cy="14.377795662043464"></circle><circle class="pearl" r="2.190433937142651" cx="3.7111027912434835" cy="8.5339430547528"></circle></g><g class="bobaCup bright" cupRadius="9.48328376941453" width="18.96656753882906" height="18.96656753882906" pearlRadius="2.7380424214283146" pearlCount="4" transform="translate(52.017991878915126,75.62004673937685)"><circle class="pool" r="9.48328376941453" cx="9.48328376941453" cy="9.48328376941453" style="stroke-width: 1; fill: rgb(127, 205, 187);"></circle><circle class="pearl" r="2.1904339371426516" cx="14.843271852401816" cy="6.601513650918693"></circle><circle class="pearl" r="2.1904339371426516" cx="5.678567566183595" cy="12.415933945017038"></circle><circle class="pearl" r="2.1904339371426516" cx="7.317992429572152" cy="3.9012292759322653"></circle><circle class="pearl" r="2.1904339371426516" cx="13.406244205847248" cy="14.466392393817227"></circle></g><g class="bobaCup bright" cupRadius="8.70244820872951" width="17.40489641745902" height="17.40489641745902" pearlRadius="2.7380424214283146" pearlCount="4" transform="translate(203.78929564985592,153.2006913157877)"><circle class="pool" r="8.70244820872951" cx="8.70244820872951" cy="8.70244820872951" style="stroke-width: 1; fill: rgb(127, 205, 187);"></circle><circle class="pearl" r="2.1904339371426516" cx="12.87205239545927" cy="4.884715381106099"></circle><circle class="pearl" r="2.1904339371426516" cx="4.53284402199975" cy="12.520181036352923"></circle><circle class="pearl" r="2.1904339371426516" cx="4.8847153811060995" cy="4.53284402199975"></circle><circle class="pearl" r="2.1904339371426516" cx="12.520181036352923" cy="12.87205239545927"></circle></g><g class="bobaCup bright" cupRadius="8.650116592851164" width="17.30023318570233" height="17.30023318570233" pearlRadius="2.738042421428314" pearlCount="4" transform="translate(95.30519265971779,211.04624035263043)"><circle class="pool" r="8.650116592851164" cx="8.650116592851164" cy="8.650116592851164" style="stroke-width: 1; fill: rgb(29, 145, 192);"></circle><circle class="pearl" r="2.1904339371426516" cx="12.695349836850045" cy="4.700841843960235"></circle><circle class="pearl" r="2.1904339371426516" cx="4.604883348852287" cy="12.599391341742095"></circle><circle class="pearl" r="2.1904339371426516" cx="4.700841843960235" cy="4.604883348852285"></circle><circle class="pearl" r="2.1904339371426516" cx="12.599391341742093" cy="12.695349836850045"></circle></g><g class="bobaCup bright" cupRadius="8.649965803141109" width="17.299931606282218" height="17.299931606282218" pearlRadius="2.7380424214283137" pearlCount="4" transform="translate(97.56963436070188,276.5692476501273)"><circle class="pool" r="8.649965803141109" cx="8.649965803141109" cy="8.649965803141109" style="stroke-width: 1; fill: rgb(127, 205, 187);"></circle><circle class="pearl" r="2.190433937142651" cx="12.694841765270223" cy="4.700325124344482"></circle><circle class="pearl" r="2.190433937142651" cx="4.605089841011996" cy="12.599606481937736"></circle><circle class="pearl" r="2.190433937142651" cx="4.700325124344483" cy="4.605089841011996"></circle><circle class="pearl" r="2.190433937142651" cx="12.599606481937736" cy="12.694841765270223"></circle></g><g class="bobaCup bright" cupRadius="8.32678498666613" width="16.65356997333226" height="16.65356997333226" pearlRadius="2.7380424214283137" pearlCount="3" transform="translate(202.8521216101557,245.42354791173838)"><circle class="pool" r="8.32678498666613" cx="8.32678498666613" cy="8.32678498666613" style="stroke-width: 1; fill: rgb(29, 145, 192);"></circle><circle class="pearl" r="2.190433937142651" cx="12.597344628141252" cy="9.944639237164308"></circle><circle class="pearl" r="2.190433937142651" cx="4.583638905093602" cy="11.282227874581178"></circle><circle class="pearl" r="2.190433937142651" cx="7.62997236724591" cy="3.6799302320191494"></circle></g><g class="bobaCup bright" cupRadius="8.220086684244404" width="16.440173368488807" height="16.440173368488807" pearlRadius="2.7380424214283137" pearlCount="3" transform="translate(311.7799133157556,107.6644647355922)"><circle class="pool" r="8.220086684244404" cx="8.220086684244404" cy="8.220086684244404" style="stroke-width: 1; fill: rgb(65, 182, 196);"></circle><circle class="pearl" r="2.190433937142651" cx="12.5305931753185" cy="9.875727922653986"></circle><circle class="pearl" r="2.190433937142651" cx="4.492040704860517" cy="11.146632088980303"></circle><circle class="pearl" r="2.190433937142651" cx="7.4714612201494575" cy="3.6848838802275576"></circle></g><g class="bobaCup bright" cupRadius="8.157622542261612" width="16.315245084523223" height="16.315245084523223" pearlRadius="2.7380424214283132" pearlCount="3" transform="translate(30.436276319356367,11.842377457738388)"><circle class="pool" r="8.157622542261612" cx="8.157622542261612" cy="8.157622542261612" style="stroke-width: 1; fill: rgb(127, 205, 187);"></circle><circle class="pearl" r="2.1904339371426507" cx="12.488244967759574" cy="9.844313709099199"></circle><circle class="pearl" r="2.1904339371426507" cx="4.421048870910443" cy="11.111170960958695"></circle><circle class="pearl" r="2.1904339371426507" cx="7.388254882172242" cy="3.6870848499150943"></circle></g><g class="bobaCup bright" cupRadius="8.118716675264327" width="16.237433350528654" height="16.237433350528654" pearlRadius="2.7380424214283137" pearlCount="3" transform="translate(37.57536812956555,209.70655850709412)"><circle class="pool" r="8.118716675264327" cx="8.118716675264327" cy="8.118716675264327" style="stroke-width: 1; fill: rgb(127, 205, 187);"></circle><circle class="pearl" r="2.190433937142651" cx="12.396918088228663" cy="9.863914223413943"></circle><circle class="pearl" r="2.190433937142651" cx="4.3644979140394184" cy="11.120549491930998"></circle><circle class="pearl" r="2.190433937142651" cx="7.316599570236035" cy="3.6904443844013226"></circle></g><g class="bobaCup bright" cupRadius="8.073675623437083" width="16.147351246874166" height="16.147351246874166" pearlRadius="2.7380424214283137" pearlCount="3" transform="translate(114.93126907455944,276.2325480050423)"><circle class="pool" r="8.073675623437083" cx="8.073675623437083" cy="8.073675623437083" style="stroke-width: 1; fill: rgb(65, 182, 196);"></circle><circle class="pearl" r="2.190433937142651" cx="12.290280702379754" cy="9.887341351810123"></circle><circle class="pearl" r="2.190433937142651" cx="4.299276820328712" cy="11.131728698388228"></circle><circle class="pearl" r="2.190433937142651" cx="7.233526056605003" cy="3.6945553430826017"></circle></g><g class="bobaCup bright" cupRadius="7.478469722218702" width="14.956939444437404" height="14.956939444437404" pearlRadius="2.7380424214283132" pearlCount="3" transform="translate(34.560083105439475,104.9256638323202)"><circle class="pool" r="7.478469722218702" cx="7.478469722218702" cy="7.478469722218702" style="stroke-width: 1; fill: rgb(29, 145, 192);"></circle><circle class="pearl" r="2.1904339371426507" cx="11.306215719351972" cy="7.481194852453838"></circle><circle class="pearl" r="2.1904339371426507" cx="4.55764518241842" cy="10.712243090628572"></circle><circle class="pearl" r="2.1904339371426507" cx="4.557435131863805" cy="4.244785473882854"></circle></g><g class="bobaCup bright" cupRadius="7.365374938347388" width="14.730749876694777" height="14.730749876694777" pearlRadius="2.7380424214283137" pearlCount="3" transform="translate(155.85614424434237,36.58099455409248)"><circle class="pool" r="7.365374938347388" cx="7.365374938347388" cy="7.365374938347388" style="stroke-width: 1; fill: rgb(29, 145, 192);"></circle><circle class="pearl" r="2.190433937142651" cx="11.079914208146029" cy="7.406072758243891"></circle><circle class="pearl" r="2.190433937142651" cx="4.549427496559586" cy="10.520471865167167"></circle><circle class="pearl" r="2.190433937142651" cx="4.546636353631546" cy="4.211433533487233"></circle></g><g class="bobaCup bright" cupRadius="7.329535565375517" width="14.659071130751034" height="14.659071130751034" pearlRadius="2.7380424214283137" pearlCount="3" transform="translate(62.487241966232695,17.75519393182531)"><circle class="pool" r="7.329535565375517" cx="7.329535565375517" cy="7.329535565375517" style="stroke-width: 1; fill: rgb(127, 205, 187);"></circle><circle class="pearl" r="2.190433937142651" cx="10.327130942989328" cy="10.367348316838697"></circle><circle class="pearl" r="2.190433937142651" cx="4.334228175238324" cy="10.36837325234247"></circle><circle class="pearl" r="2.190433937142651" cx="6.947085097459591" cy="3.6607080397202543"></circle></g><g class="bobaCup bright" cupRadius="7.267496966727744" width="14.534993933455487" height="14.534993933455487" pearlRadius="2.7380424214283137" pearlCount="3" transform="translate(218.84830327979097,292.02247757412124)"><circle class="pool" r="7.267496966727744" cx="7.267496966727744" cy="7.267496966727744" style="stroke-width: 1; fill: rgb(127, 205, 187);"></circle><circle class="pearl" r="2.190433937142651" cx="10.209413626353946" cy="10.262196112183066"></circle><circle class="pearl" r="2.190433937142651" cx="4.328939271082581" cy="10.263682104514777"></circle><circle class="pearl" r="2.190433937142651" cx="6.849870686225194" cy="3.662732585824841"></circle></g><g class="bobaCup bright" cupRadius="7.214247066911255" width="14.42849413382251" height="14.42849413382251" pearlRadius="2.7380424214283137" pearlCount="3" transform="translate(107.51086724419667,93.83260010539873)"><circle class="pool" r="7.214247066911255" cx="7.214247066911255" cy="7.214247066911255" style="stroke-width: 1; fill: rgb(127, 205, 187);"></circle><circle class="pearl" r="2.190433937142651" cx="10.108844962863852" cy="10.171599485847878"></circle><circle class="pearl" r="2.190433937142651" cx="4.324818253304972" cy="10.173861339068814"></circle><circle class="pearl" r="2.190433937142651" cx="6.762495136373647" cy="3.66488134216425"></circle></g><g class="bobaCup bright" cupRadius="6.447837535520016" width="12.895675071040031" height="12.895675071040031" pearlRadius="2.7380424214283137" pearlCount="2" transform="translate(83.57110822326524,105.3707736802871)"><circle class="pool" r="6.447837535520016" cx="6.447837535520016" cy="6.447837535520016" style="stroke-width: 1; fill: rgb(127, 205, 187);"></circle><circle class="pearl" r="2.190433937142651" cx="8.683810429269089" cy="4.050831098929121"></circle><circle class="pearl" r="2.190433937142651" cx="4.211864641770942" cy="8.84484397211091"></circle></g><g class="bobaCup bright" cupRadius="6.351714059640358" width="12.703428119280716" height="12.703428119280716" pearlRadius="2.7380424214283137" pearlCount="2" transform="translate(137.53120279333916,109.96851033175972)"><circle class="pool" r="6.351714059640358" cx="6.351714059640358" cy="6.351714059640358" style="stroke-width: 1; fill: rgb(65, 182, 196);"></circle><circle class="pearl" r="2.190433937142651" cx="8.496112855615094" cy="4.023656032867248"></circle><circle class="pearl" r="2.190433937142651" cx="4.207315263665622" cy="8.679772086413468"></circle></g><g class="bobaCup bright" cupRadius="6.311064469219629" width="12.622128938439259" height="12.622128938439259" pearlRadius="2.7380424214283132" pearlCount="2" transform="translate(230.43690498347507,191.69881304292312)"><circle class="pool" r="6.311064469219629" cx="6.311064469219629" cy="6.311064469219629" style="stroke-width: 1; fill: rgb(65, 182, 196);"></circle><circle class="pearl" r="2.1904339371426507" cx="8.416738534376659" cy="4.012361551852644"></circle><circle class="pearl" r="2.1904339371426507" cx="4.205390404062599" cy="8.609767386586615"></circle></g><g class="bobaCup bright" cupRadius="6.090516766711561" width="12.181033533423122" height="12.181033533423122" pearlRadius="2.738042421428314" pearlCount="2" transform="translate(182.41689135097624,115.47540802884318)"><circle class="pool" r="6.090516766711561" cx="6.090516766711561" cy="6.090516766711561" style="stroke-width: 1; fill: rgb(127, 205, 187);"></circle><circle class="pearl" r="2.1904339371426516" cx="8.020277565251622" cy="3.964526591796831"></circle><circle class="pearl" r="2.1904339371426516" cx="4.1607559681715" cy="8.216506941626292"></circle></g><g class="bobaCup bright" cupRadius="2.798850085089554" width="5.597700170179108" height="5.597700170179108" pearlRadius="2.7380424214283137" pearlCount="0" transform="translate(60.72689970791803,290.56515233261666)"><circle class="pool" r="2.798850085089554" cx="2.798850085089554" cy="2.798850085089554" style="stroke-width: 1; fill: rgb(65, 182, 196);"></circle></g><g class="bobaCup bright" cupRadius="2.5789160571185077" width="5.157832114237015" height="5.157832114237015" pearlRadius="2.7380424214283137" pearlCount="0" transform="translate(70.35722611143109,227.26514556529153)"><circle class="pool" r="2.5789160571185077" cx="2.5789160571185077" cy="2.5789160571185077" style="stroke-width: 1; fill: rgb(65, 182, 196);"></circle></g><g class="bobaCup bright" cupRadius="0" width="0" height="0" pearlRadius="NaN" pearlCount="0" transform="translate(20,300)"><circle class="pool" r="0" cx="0" cy="0" style="stroke-width: 1; fill: rgb(65, 182, 196);"></circle></g><g class="bobaCup bright" cupRadius="0" width="0" height="0" pearlRadius="NaN" pearlCount="0" transform="translate(209.30259607135372,300)"><circle class="pool" r="0" cx="0" cy="0" style="stroke-width: 1; fill: rgb(65, 182, 196);"></circle></g></g><g id="legendDividerGroup" transform="translate(410,0)" height="400"><rect class="legendDivider" height="400" width="90"></rect></g><g id="legend" transform="translate(410,30)" width="90" height="320"><rect class="legendBorder" transform="translate(0,0)" width="90" height="324.9477195110013"></rect><text id="rTitle" text-anchor="middle" alignment-baseline="hanging" transform="translate(45,10)" x="0" y="0" style="fill: black; font-size: 0.8rem;">Population</text><text id="bobaValue" text-anchor="middle" alignment-baseline="hanging" transform="translate(45,25)" x="0" y="0" style="fill: black; font-size: 0.7rem;">(1 Pearl =   75)</text><g class="bright" cupRadius="8.94427190999916" width="17.88854381999832" height="17.88854381999832" pearlRadius="2.7380424214283137" pearlCount="4" transform="translate(36.05572809000084,50)"><circle class="pool" r="8.94427190999916" cx="8.94427190999916" cy="8.94427190999916" style="stroke-width: 1; fill: rgb(65, 182, 196);"></circle><circle class="pearl" r="2.190433937142651" cx="13.542613460651712" cy="5.486970900805415"></circle><circle class="pearl" r="2.190433937142651" cx="4.749399498236599" cy="12.229516637519533"></circle><circle class="pearl" r="2.190433937142651" cx="5.6385452023940825" cy="4.284028231246733"></circle><circle class="pearl" r="2.190433937142651" cx="12.653467756495177" cy="13.432459307079196"></circle></g><text id="0" class="legendSampleValue" text-anchor="middle" transform="translate(45,8)" x="0" y="72.88854381999832" style="fill: black; font-size: 0.7rem;"> 300</text><g class="bright" cupRadius="12.649110640673518" width="25.298221281347036" height="25.298221281347036" pearlRadius="2.7380424214283137" pearlCount="8" transform="translate(32.35088935932648,92.88854381999832)"><circle class="pool" r="12.649110640673518" cx="12.649110640673518" cy="12.649110640673518" style="stroke-width: 1; fill: rgb(65, 182, 196);"></circle><circle class="pearl" r="2.190433937142651" cx="14.071403428550026" cy="12.846878791771143"></circle><circle class="pearl" r="2.190433937142651" cx="6.440581911774749" cy="19.57795138257092"></circle><circle class="pearl" r="2.190433937142651" cx="15.10273708455154" cy="3.8909774644866477"></circle><circle class="pearl" r="2.190433937142651" cx="20.833946229646862" cy="17.112242666106596"></circle><circle class="pearl" r="2.190433937142651" cx="3.6634707295578792" cy="12.081372495075817"></circle><circle class="pearl" r="2.190433937142651" cx="21.1462151053254" cy="9.123450087562194"></circle><circle class="pearl" r="2.190433937142651" cx="14.187116834584868" cy="21.553646746241665"></circle><circle class="pearl" r="2.190433937142651" cx="7.171845845081948" cy="4.898098459274186"></circle></g><text id="1" class="legendSampleValue" text-anchor="middle" transform="translate(45,8)" x="0" y="123.18676510134536" style="fill: black; font-size: 0.7rem;"> 600</text><g class="bright" cupRadius="15.491933384829668" width="30.983866769659336" height="30.983866769659336" pearlRadius="2.738042421428314" pearlCount="12" transform="translate(29.508066615170332,143.18676510134537)"><circle class="pool" r="15.491933384829668" cx="15.491933384829668" cy="15.491933384829668" style="stroke-width: 1; fill: rgb(65, 182, 196);"></circle><circle class="pearl" r="2.1904339371426516" cx="17.033011743384765" cy="11.01737610913958"></circle><circle class="pearl" r="2.1904339371426516" cx="11.029309432951333" cy="17.00347040031935"></circle><circle class="pearl" r="2.1904339371426516" cx="13.977981653444434" cy="3.724876288236054"></circle><circle class="pearl" r="2.1904339371426516" cx="18.741808845067855" cy="18.756462357333643"></circle><circle class="pearl" r="2.1904339371426516" cx="3.725529689195627" cy="13.971342248807428"></circle><circle class="pearl" r="2.1904339371426516" cx="26.98661348100194" cy="12.233596672509572"></circle><circle class="pearl" r="2.1904339371426516" cx="12.152198575888569" cy="26.968872613027877"></circle><circle class="pearl" r="2.1904339371426516" cx="6.524197378590721" cy="6.5101702816287865"></circle><circle class="pearl" r="2.1904339371426516" cx="26.508263068801252" cy="20.479674242239334"></circle><circle class="pearl" r="2.1904339371426516" cx="5.419021306595209" cy="22.679550094546478"></circle><circle class="pearl" r="2.1904339371426516" cx="22.76079804957651" cy="5.461881544509561"></circle><circle class="pearl" r="2.1904339371426516" cx="20.400071923945557" cy="26.535092423407907"></circle></g><text id="2" class="legendSampleValue" text-anchor="middle" transform="translate(45,8)" x="0" y="179.1706318710047" style="fill: black; font-size: 0.7rem;"> 900</text><g class="bright" cupRadius="17.88854381999832" width="35.77708763999664" height="35.77708763999664" pearlRadius="2.7380424214283137" pearlCount="16" transform="translate(27.11145618000168,199.1706318710047)"><circle class="pool" r="17.88854381999832" cx="17.88854381999832" cy="17.88854381999832" style="stroke-width: 1; fill: rgb(65, 182, 196);"></circle><circle class="pearl" r="2.190433937142651" cx="19.8046930625516" cy="19.706925044831756"></circle><circle class="pearl" r="2.190433937142651" cx="13.339172784724305" cy="23.858410298028698"></circle><circle class="pearl" r="2.190433937142651" cx="16.092791630714295" cy="11.113543243945612"></circle><circle class="pearl" r="2.190433937142651" cx="20.836129534048155" cy="27.499380517199565"></circle><circle class="pearl" r="2.190433937142651" cx="10.312657514553905" cy="16.56124087753138"></circle><circle class="pearl" r="2.190433937142651" cx="23.678755837700653" cy="13.13675787817294"></circle><circle class="pearl" r="2.190433937142651" cx="14.311679794483911" cy="31.765114841909277"></circle><circle class="pearl" r="2.190433937142651" cx="11.081450997216843" cy="4.99648955196875"></circle><circle class="pearl" r="2.190433937142651" cx="27.674351504393126" cy="20.796258814455655"></circle><circle class="pearl" r="2.190433937142651" cx="4.000488629236898" cy="21.40866477780026"></circle><circle class="pearl" r="2.190433937142651" cx="28.333596734388347" cy="7.01684061165493"></circle><circle class="pearl" r="2.190433937142651" cx="28.522531366621063" cy="28.62247591779055"></circle><circle class="pearl" r="2.190433937142651" cx="5.30391541992303" cy="10.377661215789304"></circle><circle class="pearl" r="2.190433937142651" cx="31.694235049536697" cy="13.980399213320233"></circle><circle class="pearl" r="2.190433937142651" cx="7.311073872078207" cy="28.66408585659018"></circle><circle class="pearl" r="2.190433937142651" cx="18.987039995684725" cy="3.684483203560177"></circle></g><text id="3" class="legendSampleValue" text-anchor="middle" transform="translate(45,8)" x="0" y="239.94771951100134" style="fill: black; font-size: 0.7rem;">1.2k</text><g class="bright" cupRadius="20" width="40" height="40" pearlRadius="2.7380424214283137" pearlCount="20" transform="translate(25,259.9477195110013)"><circle class="pool" r="20" cx="20" cy="20" style="stroke-width: 1; fill: rgb(65, 182, 196);"></circle><circle class="pearl" r="2.190433937142651" cx="22.480421380823074" cy="19.96094551607325"></circle><circle class="pearl" r="2.190433937142651" cx="14.554532211889109" cy="20.25858246523202"></circle><circle class="pearl" r="2.190433937142651" cx="21.718613402750453" cy="11.231225788085391"></circle><circle class="pearl" r="2.190433937142651" cx="25.13767186853209" cy="27.447308990534317"></circle><circle class="pearl" r="2.190433937142651" cx="6.622341466842937" cy="15.212813608895589"></circle><circle class="pearl" r="2.190433937142651" cx="28.49521909515808" cy="14.82158787688231"></circle><circle class="pearl" r="2.190433937142651" cx="17.504603283401977" cy="28.993209871734443"></circle><circle class="pearl" r="2.190433937142651" cx="14.13811847195522" cy="12.373399584276378"></circle><circle class="pearl" r="2.190433937142651" cx="31.11803529924844" cy="22.444175683247455"></circle><circle class="pearl" r="2.190433937142651" cx="10.013176726772668" cy="26.767604068489224"></circle><circle class="pearl" r="2.190433937142651" cx="25.1625299271706" cy="4.328500666167248"></circle><circle class="pearl" r="2.190433937142651" cx="27.782608687955303" cy="34.772930101052836"></circle><circle class="pearl" r="2.190433937142651" cx="8.036930275650786" cy="7.623092000895575"></circle><circle class="pearl" r="2.190433937142651" cx="36.040664285033515" cy="16.500106031740792"></circle><circle class="pearl" r="2.190433937142651" cx="11.3070075503718" cy="34.36126950601293"></circle><circle class="pearl" r="2.190433937142651" cx="16.81383473400994" cy="3.9061454691506903"></circle><circle class="pearl" r="2.190433937142651" cx="33.74247113697989" cy="29.87303346303284"></circle><circle class="pearl" r="2.190433937142651" cx="3.788525504185259" cy="22.343736665541265"></circle><circle class="pearl" r="2.190433937142651" cx="32.18050534208177" cy="7.787706818962306"></circle><circle class="pearl" r="2.190433937142651" cx="20.00567962395882" cy="36.34927596497569"></circle></g><text id="4" class="legendSampleValue" text-anchor="middle" transform="translate(45,8)" x="0" y="304.9477195110013" style="fill: black; font-size: 0.7rem;">1.5k</text></g></svg>