<?xml version="1.0" standalone="no"?>
<?xml-stylesheet xmlns="http://www.w3.org/2000/svg" type="text/css" href="style.css"?>
<svg id="syntheticVisC" class="default" xTitle="Percent Cat Owners" yTitle="Percent Dog Owners" rTitle="Population" chartTitle="Towns in Vizzyland" width="500" height="400" xmlns="http://www.w3.org/2000/svg"><rect class="background" width="500" height="400"></rect><text id="chartTitle" text-anchor="middle" transform="translate(250,20)" x="0" y="0" style="fill: black; font-size: 1.2rem;">Towns in Vizzyland</text><g id="yAxis" transform="translate(50,30)" fill="none" font-size="10" font-family="sans-serif" text-anchor="end"><path class="domain" stroke="currentColor" d="M-6,300H0V20H-6"></path><g class="tick" opacity="1" transform="translate(0,300)"><line stroke="currentColor" x2="-6"></line><text fill="currentColor" x="-9" dy="0.32em">0</text></g><g class="tick" opacity="1" transform="translate(0,272)"><line stroke="currentColor" x2="-6"></line><text fill="currentColor" x="-9" dy="0.32em">10</text></g><g class="tick" opacity="1" transform="translate(0,244)"><line stroke="currentColor" x2="-6"></line><text fill="currentColor" x="-9" dy="0.32em">20</text></g><g class="tick" opacity="1" transform="translate(0,216)"><line stroke="currentColor" x2="-6"></line><text fill="currentColor" x="-9" dy="0.32em">30</text></g><g class="tick" opacity="1" transform="translate(0,188)"><line stroke="currentColor" x2="-6"></line><text fill="currentColor" x="-9" dy="0.32em">40</text></g><g class="tick" opacity="1" transform="translate(0,160)"><line stroke="currentColor" x2="-6"></line><text fill="currentColor" x="-9" dy="0.32em">50</text></g><g class="tick" opacity="1" transform="translate(0,132)"><line stroke="currentColor" x2="-6"></line><text fill="currentColor" x="-9" dy="0.32em">60</text></g><g class="tick" opacity="1" transform="translate(0,104.00000000000001)"><line stroke="currentColor" x2="-6"></line><text fill="currentColor" x="-9" dy="0.32em">70</text></g><g class="tick" opacity="1" transform="translate(0,75.99999999999999)"><line stroke="currentColor" x2="-6"></line><text fill="currentColor" x="-9" dy="0.32em">80</text></g><g class="tick" opacity="1" transform="translate(0,47.99999999999999)"><line stroke="currentColor" x2="-6"></line><text fill="currentColor" x="-9" dy="0.32em">90</text></g><g class="tick" opacity="1" transform="translate(0,20)"><line stroke="currentColor" x2="-6"></line><text fill="currentColor" x="-9" dy="0.32em">100</text></g></g><g id="xAxis" transform="translate(60,360)" fill="none" font-size="10" font-family="sans-serif" text-anchor="middle"><path class="domain" stroke="currentColor" d="M20,6V0H320V6"></path><g class="tick" opacity="1" transform="translate(20,0)"><line stroke="currentColor" y2="6"></line><text fill="currentColor" y="9" dy="0.71em">0</text></g><g class="tick" opacity="1" transform="translate(50,0)"><line stroke="currentColor" y2="6"></line><text fill="currentColor" y="9" dy="0.71em">10</text></g><g class="tick" opacity="1" transform="translate(80,0)"><line stroke="currentColor" y2="6"></line><text fill="currentColor" y="9" dy="0.71em">20</text></g><g class="tick" opacity="1" transform="translate(110,0)"><line stroke="currentColor" y2="6"></line><text fill="currentColor" y="9" dy="0.71em">30</text></g><g class="tick" opacity="1" transform="translate(140,0)"><line stroke="currentColor" y2="6"></line><text fill="currentColor" y="9" dy="0.71em">40</text></g><g class="tick" opacity="1" transform="translate(170,0)"><line stroke="currentColor" y2="6"></line><text fill="currentColor" y="9" dy="0.71em">50</text></g><g class="tick" opacity="1" transform="translate(200,0)"><line stroke="currentColor" y2="6"></line><text fill="currentColor" y="9" dy="0.71em">60</text></g><g class="tick" opacity="1" transform="translate(230,0)"><line stroke="currentColor" y2="6"></line><text fill="currentColor" y="9" dy="0.71em">70</text></g><g class="tick" opacity="1" transform="translate(260,0)"><line stroke="currentColor" y2="6"></line><text fill="currentColor" y="9" dy="0.71em">80</text></g><g class="tick" opacity="1" transform="translate(290,0)"><line stroke="currentColor" y2="6"></line><text fill="currentColor" y="9" dy="0.71em">90</text></g><g class="tick" opacity="1" transform="translate(320,0)"><line stroke="currentColor" y2="6"></line><text fill="currentColor" y="9" dy="0.71em">100</text></g></g><g id="labels"><text id="xTitle" text-anchor="middle" transform="translate(250,350)" x="0" y="40" style="fill: black; font-size: 0.8rem;">Percent Cat Owners</text><g id="group-yTitle" transform="translate(60,190)"><text id="yTitle" text-anchor="middle" transform="rotate(-90)" y="-45" style="fill: black; font-size: 0.8rem;">Percent Dog Owners</text></g></g><g id="quadrant_lines" transform="translate(60,30)"><line id="verticalQuadrantLine" x1="170" y1="10" x2="170" y2="310" class="quadrantLine"></line><line id="horizontalQuadrantLine" x1="10" y1="160" x2="330" y2="160" class="quadrantLine"></line></g><g id="chart" transform="translate(60,30)"><g class="bobaCup bright" cupRadius="20" width="40" height="40" pearlRadius="2.7380424214283137" pearlCount="20" transform="translate(224.78801468782237,110.8022948931065)"><circle class="pool" r="20" cx="20" cy="20" style="stroke-width: 1; fill: rgb(29, 145, 192);"></circle><circle class="pearl" r="2.190433937142651" cx="22.480421380823074" cy="19.96094551607325"></circle><circle class="pearl" r="2.190433937142651" cx="14.554532211889109" cy="20.25858246523202"></circle><circle class="pearl" r="2.190433937142651" cx="21.718613402750453" cy="11.231225788085391"></circle><circle class="pearl" r="2.190433937142651" cx="25.13767186853209" cy="27.447308990534317"></circle><circle class="pearl" r="2.190433937142651" cx="6.622341466842937" cy="15.212813608895589"></circle><circle class="pearl" r="2.190433937142651" cx="28.49521909515808" cy="14.82158787688231"></circle><circle class="pearl" r="2.190433937142651" cx="17.504603283401977" cy="28.993209871734443"></circle><circle class="pearl" r="2.190433937142651" cx="14.13811847195522" cy="12.373399584276378"></circle><circle class="pearl" r="2.190433937142651" cx="31.11803529924844" cy="22.444175683247455"></circle><circle class="pearl" r="2.190433937142651" cx="10.013176726772668" cy="26.767604068489224"></circle><circle class="pearl" r="2.190433937142651" cx="25.1625299271706" cy="4.328500666167248"></circle><circle class="pearl" r="2.190433937142651" cx="27.782608687955303" cy="34.772930101052836"></circle><circle class="pearl" r="2.190433937142651" cx="8.036930275650786" cy="7.623092000895575"></circle><circle class="pearl" r="2.190433937142651" cx="36.040664285033515" cy="16.500106031740792"></circle><circle class="pearl" r="2.190433937142651" cx="11.3070075503718" cy="34.36126950601293"></circle><circle class="pearl" r="2.190433937142651" cx="16.81383473400994" cy="3.9061454691506903"></circle><circle class="pearl" r="2.190433937142651" cx="33.74247113697989" cy="29.87303346303284"></circle><circle class="pearl" r="2.190433937142651" cx="3.788525504185259" cy="22.343736665541265"></circle><circle class="pearl" r="2.190433937142651" cx="32.18050534208177" cy="7.787706818962306"></circle><circle class="pearl" r="2.190433937142651" cx="20.00567962395882" cy="36.34927596497569"></circle></g><g class="bobaCup bright" cupRadius="17.435501416063484" width="34.87100283212697" height="34.87100283212697" pearlRadius="2.7380424214283132" pearlCount="15" transform="translate(302.56449858393654,107.7084604154334)"><circle class="pool" r="17.435501416063484" cx="17.435501416063484" cy="17.435501416063484" style="stroke-width: 1; fill: rgb(29, 145, 192);"></circle><circle class="pearl" r="2.1904339371426507" cx="18.637308357299936" cy="17.536258470518778"></circle><circle class="pearl" r="2.1904339371426507" cx="13.042796082622086" cy="23.08333831443198"></circle><circle class="pearl" r="2.1904339371426507" cx="16.322556847642957" cy="9.934814947208118"></circle><circle class="pearl" r="2.1904339371426507" cx="20.215003946476404" cy="25.88134825086813"></circle><circle class="pearl" r="2.1904339371426507" cx="10.910631412460793" cy="15.714150707966649"></circle><circle class="pearl" r="2.1904339371426507" cx="23.881340404667796" cy="11.60871683970127"></circle><circle class="pearl" r="2.1904339371426507" cx="14.299622495401712" cy="30.935958118462192"></circle><circle class="pearl" r="2.1904339371426507" cx="10.223732417524678" cy="5.21212317270028"></circle><circle class="pearl" r="2.1904339371426507" cx="25.994776961245115" cy="20.38394574262622"></circle><circle class="pearl" r="2.1904339371426507" cx="4.432505024382025" cy="20.466820752923287"></circle><circle class="pearl" r="2.1904339371426507" cx="21.735829425772256" cy="4.189364325673949"></circle><circle class="pearl" r="2.1904339371426507" cx="27.672007574415904" cy="27.898978529685532"></circle><circle class="pearl" r="2.1904339371426507" cx="5.019092492409537" cy="10.664683590092352"></circle><circle class="pearl" r="2.1904339371426507" cx="30.97018893595921" cy="14.492991087104022"></circle><circle class="pearl" r="2.1904339371426507" cx="7.193256818933773" cy="27.894814872140635"></circle></g><g class="bobaCup bright" cupRadius="16.759270663065667" width="33.518541326131334" height="33.518541326131334" pearlRadius="2.738042421428314" pearlCount="14" transform="translate(272.14918284545035,141.08871838053568)"><circle class="pool" r="16.759270663065667" cx="16.759270663065667" cy="16.759270663065667" style="stroke-width: 1; fill: rgb(65, 182, 196);"></circle><circle class="pearl" r="2.1904339371426516" cx="21.380249902848153" cy="12.816637239114673"></circle><circle class="pearl" r="2.1904339371426516" cx="13.349074419542273" cy="22.372742592457534"></circle><circle class="pearl" r="2.1904339371426516" cx="13.417247822531328" cy="12.251133062215983"></circle><circle class="pearl" r="2.1904339371426516" cx="21.135712535348624" cy="20.777197204719737"></circle><circle class="pearl" r="2.1904339371426516" cx="7.178358166409942" cy="17.32939248852303"></circle><circle class="pearl" r="2.1904339371426516" cx="26.623152885924874" cy="6.860935597738402"></circle><circle class="pearl" r="2.1904339371426516" cx="16.09714820381808" cy="29.854733478094285"></circle><circle class="pearl" r="2.1904339371426516" cx="11.362564107377393" cy="4.543402842842285"></circle><circle class="pearl" r="2.1904339371426516" cx="28.972827593436232" cy="22.162766586678813"></circle><circle class="pearl" r="2.1904339371426516" cx="5.932956966136558" cy="25.202525664283943"></circle><circle class="pearl" r="2.1904339371426516" cx="19.308760972182824" cy="3.845777872711761"></circle><circle class="pearl" r="2.1904339371426516" cx="23.92110492490286" cy="28.260487348705848"></circle><circle class="pearl" r="2.1904339371426516" cx="5.261301066661398" cy="9.59057072148395"></circle><circle class="pearl" r="2.1904339371426516" cx="29.672375130741973" cy="14.20725867114215"></circle></g><g class="bobaCup bright" cupRadius="15.98785733384873" width="31.97571466769746" height="31.97571466769746" pearlRadius="2.738042421428314" pearlCount="13" transform="translate(65.68124684195888,203.3273303327067)"><circle class="pool" r="15.98785733384873" cx="15.98785733384873" cy="15.98785733384873" style="stroke-width: 1; fill: rgb(65, 182, 196);"></circle><circle class="pearl" r="2.1904339371426516" cx="20.803193446226516" cy="17.313651423263227"></circle><circle class="pearl" r="2.1904339371426516" cx="14.060434536764772" cy="21.052552460409423"></circle><circle class="pearl" r="2.1904339371426516" cx="16.605436360680518" cy="10.813328095507925"></circle><circle class="pearl" r="2.1904339371426516" cx="24.565701224865645" cy="24.937279718224705"></circle><circle class="pearl" r="2.1904339371426516" cx="9.64871700164955" cy="14.505204547818204"></circle><circle class="pearl" r="2.1904339371426516" cx="27.242972572768654" cy="10.206199984215683"></circle><circle class="pearl" r="2.1904339371426516" cx="8.401464981534625" cy="26.410450459437055"></circle><circle class="pearl" r="2.1904339371426516" cx="12.90424228355013" cy="3.9509134207102936"></circle><circle class="pearl" r="2.1904339371426516" cx="28.18940983557205" cy="18.065581160111407"></circle><circle class="pearl" r="2.1904339371426516" cx="4.18882460007694" cy="20.10083956473077"></circle><circle class="pearl" r="2.1904339371426516" cx="21.603800867225893" cy="4.669520459747375"></circle><circle class="pearl" r="2.1904339371426516" cx="17.34715329211457" cy="28.267102612005548"></circle><circle class="pearl" r="2.1904339371426516" cx="6.103029297491291" cy="7.479012871643978"></circle></g><g class="bobaCup bright" cupRadius="15.946497579835944" width="31.892995159671887" height="31.892995159671887" pearlRadius="2.7380424214283146" pearlCount="13" transform="translate(122.93891299059283,7.11464327086623)"><circle class="pool" r="15.946497579835944" cx="15.946497579835944" cy="15.946497579835944" style="stroke-width: 1; fill: rgb(127, 205, 187);"></circle><circle class="pearl" r="2.1904339371426516" cx="20.709822202300565" cy="17.53510780230465"></circle><circle class="pearl" r="2.1904339371426516" cx="13.823242586508904" cy="20.95529585535658"></circle><circle class="pearl" r="2.1904339371426516" cx="16.753785396515635" cy="10.883653642590858"></circle><circle class="pearl" r="2.1904339371426516" cx="24.532385435770905" cy="25.18078146029774"></circle><circle class="pearl" r="2.1904339371426516" cx="9.63902861526931" cy="14.22809168332649"></circle><circle class="pearl" r="2.1904339371426516" cx="27.24261030391664" cy="10.389260850288625"></circle><circle class="pearl" r="2.1904339371426516" cx="8.039916977266975" cy="26.14412328674427"></circle><circle class="pearl" r="2.1904339371426516" cx="13.333646708188708" cy="3.8662387860968552"></circle><circle class="pearl" r="2.1904339371426516" cx="28.073074063957232" cy="18.263305478560124"></circle><circle class="pearl" r="2.1904339371426516" cx="4.103446090506503" cy="19.719259175094784"></circle><circle class="pearl" r="2.1904339371426516" cx="21.732594186575536" cy="4.737480867170166"></circle><circle class="pearl" r="2.1904339371426516" cx="17.155616613232258" cy="28.1963660455004"></circle><circle class="pearl" r="2.1904339371426516" cx="6.3483708005644806" cy="7.0718844314556675"></circle></g><g class="bobaCup bright" cupRadius="15.08987482000622" width="30.17974964001244" height="30.17974964001244" pearlRadius="2.7380424214283137" pearlCount="11" transform="translate(141.5836286356091,94.73984666244901)"><circle class="pool" r="15.08987482000622" cx="15.08987482000622" cy="15.08987482000622" style="stroke-width: 1; fill: rgb(65, 182, 196);"></circle><circle class="pearl" r="2.190433937142651" cx="19.399648207266356" cy="14.976842329801444"></circle><circle class="pearl" r="2.190433937142651" cx="11.958937343213417" cy="17.75592237923997"></circle><circle class="pearl" r="2.190433937142651" cx="13.785746154126327" cy="9.350815989626694"></circle><circle class="pearl" r="2.190433937142651" cx="20.528085711913107" cy="25.406288091348014"></circle><circle class="pearl" r="2.190433937142651" cx="4.779151621353513" cy="14.206910229412502"></circle><circle class="pearl" r="2.190433937142651" cx="25.692846721159704" cy="10.136441946500836"></circle><circle class="pearl" r="2.190433937142651" cx="12.624226264996723" cy="26.326223139816882"></circle><circle class="pearl" r="2.190433937142651" cx="6.415399236595883" cy="6.393217944430692"></circle><circle class="pearl" r="2.190433937142651" cx="25.859655063680282" cy="19.534354732259555"></circle><circle class="pearl" r="2.190433937142651" cx="5.645943134660763" cy="22.58883039854508"></circle><circle class="pearl" r="2.190433937142651" cx="20.09874403376111" cy="4.50628909861573"></circle></g><g class="bobaCup bright" cupRadius="15.088684033969571" width="30.177368067939142" height="30.177368067939142" pearlRadius="2.7380424214283132" pearlCount="11" transform="translate(241.59385120995807,26.341501973196557)"><circle class="pool" r="15.088684033969571" cx="15.088684033969571" cy="15.088684033969571" style="stroke-width: 1; fill: rgb(29, 145, 192);"></circle><circle class="pearl" r="2.1904339371426507" cx="19.397737631573793" cy="14.97789701450897"></circle><circle class="pearl" r="2.1904339371426507" cx="11.953556603629961" cy="17.748128183052135"></circle><circle class="pearl" r="2.1904339371426507" cx="13.784979397991957" cy="9.35104216674109"></circle><circle class="pearl" r="2.1904339371426507" cx="20.534758120592205" cy="25.41922044172117"></circle><circle class="pearl" r="2.1904339371426507" cx="4.771000713551343" cy="14.204874554875309"></circle><circle class="pearl" r="2.1904339371426507" cx="25.691156152274303" cy="10.137440929377977"></circle><circle class="pearl" r="2.1904339371426507" cx="12.62914832518257" cy="26.324836568102018"></circle><circle class="pearl" r="2.1904339371426507" cx="6.415122156844437" cy="6.392840523537875"></circle><circle class="pearl" r="2.1904339371426507" cx="25.855828608296488" cy="19.53766974929002"></circle><circle class="pearl" r="2.1904339371426507" cx="5.648370235934171" cy="22.59155917920465"></circle><circle class="pearl" r="2.1904339371426507" cx="20.097803458938237" cy="4.50644873441412"></circle></g><g class="bobaCup bright" cupRadius="14.951325515597569" width="29.902651031195138" height="29.902651031195138" pearlRadius="2.7380424214283132" pearlCount="11" transform="translate(177.34827591861878,89.110262407797)"><circle class="pool" r="14.951325515597569" cx="14.951325515597569" cy="14.951325515597569" style="stroke-width: 1; fill: rgb(29, 145, 192);"></circle><circle class="pearl" r="2.1904339371426507" cx="18.986943673632556" cy="15.04949660982777"></circle><circle class="pearl" r="2.1904339371426507" cx="11.238312407170012" cy="16.795839438805473"></circle><circle class="pearl" r="2.1904339371426507" cx="13.780368754051134" cy="9.10495185680412"></circle><circle class="pearl" r="2.1904339371426507" cx="20.63857526247787" cy="25.128014372806266"></circle><circle class="pearl" r="2.1904339371426507" cx="3.7731850486363454" cy="13.899656668984857"></circle><circle class="pearl" r="2.1904339371426507" cx="25.608132174445" cy="10.611196117297931"></circle><circle class="pearl" r="2.1904339371426507" cx="12.76105167372436" cy="26.09062714065553"></circle><circle class="pearl" r="2.1904339371426507" cx="6.384979491935391" cy="6.348075899566536"></circle><circle class="pearl" r="2.1904339371426507" cx="25.659806730978953" cy="19.117304681428166"></circle><circle class="pearl" r="2.1904339371426507" cx="5.703604568398318" cy="22.51256036963399"></circle><circle class="pearl" r="2.1904339371426507" cx="20.350451161315917" cy="4.6596107602612"></circle></g><g class="bobaCup bright" cupRadius="14.566682510964547" width="29.133365021929094" height="29.133365021929094" pearlRadius="2.7380424214283132" pearlCount="11" transform="translate(179.39625737459218,55.45220851987417)"><circle class="pool" r="14.566682510964547" cx="14.566682510964547" cy="14.566682510964547" style="stroke-width: 1; fill: rgb(29, 145, 192);"></circle><circle class="pearl" r="2.1904339371426507" cx="18.503110543006997" cy="14.934151780824747"></circle><circle class="pearl" r="2.1904339371426507" cx="10.954067402760176" cy="16.60569899932103"></circle><circle class="pearl" r="2.1904339371426507" cx="13.39402117505274" cy="9.19096037967574"></circle><circle class="pearl" r="2.1904339371426507" cx="21.029245291444976" cy="23.970595305032678"></circle><circle class="pearl" r="2.1904339371426507" cx="3.6858762008870505" cy="13.555302937004225"></circle><circle class="pearl" r="2.1904339371426507" cx="24.79466858303879" cy="10.14292081717708"></circle><circle class="pearl" r="2.1904339371426507" cx="13.46115297130371" cy="25.44062946151208"></circle><circle class="pearl" r="2.1904339371426507" cx="6.370966555505656" cy="6.175043871833888"></circle><circle class="pearl" r="2.1904339371426507" cx="25.069048723106572" cy="18.013173285421303"></circle><circle class="pearl" r="2.1904339371426507" cx="6.2705927729136794" cy="22.8893938119446"></circle><circle class="pearl" r="2.1904339371426507" cx="19.585604592625465" cy="4.5426603849245675"></circle></g><g class="bobaCup bright" cupRadius="14.235635804485797" width="28.471271608971595" height="28.471271608971595" pearlRadius="2.7380424214283137" pearlCount="10" transform="translate(238.80467078649232,119.25659376215101)"><circle class="pool" r="14.235635804485797" cx="14.235635804485797" cy="14.235635804485797" style="stroke-width: 1; fill: rgb(65, 182, 196);"></circle><circle class="pearl" r="2.190433937142651" cx="17.683769380230466" cy="12.25706630129812"></circle><circle class="pearl" r="2.190433937142651" cx="11.080178342833975" cy="16.224685521336575"></circle><circle class="pearl" r="2.190433937142651" cx="14.434665245265107" cy="4.924993360988594"></circle><circle class="pearl" r="2.190433937142651" cx="21.486191144358603" cy="22.835740059044166"></circle><circle class="pearl" r="2.190433937142651" cx="3.679778288697909" cy="13.326575678879783"></circle><circle class="pearl" r="2.190433937142651" cx="22.2042869657607" cy="6.090006824519275"></circle><circle class="pearl" r="2.190433937142651" cx="13.761234760816" cy="24.8126415024765"></circle><circle class="pearl" r="2.190433937142651" cx="6.515917850939291" cy="5.925619863772663"></circle><circle class="pearl" r="2.190433937142651" cx="24.751327143726254" cy="15.63778595723512"></circle><circle class="pearl" r="2.190433937142651" cx="6.260153494907829" cy="22.37664733749949"></circle></g><g class="bobaCup bright" cupRadius="14.134593372258255" width="28.26918674451651" height="28.26918674451651" pearlRadius="2.738042421428314" pearlCount="10" transform="translate(213.93533351359926,140.5878050544853)"><circle class="pool" r="14.134593372258255" cx="14.134593372258255" cy="14.134593372258255" style="stroke-width: 1; fill: rgb(127, 205, 187);"></circle><circle class="pearl" r="2.1904339371426516" cx="17.489530902301986" cy="12.054453426062333"></circle><circle class="pearl" r="2.1904339371426516" cx="11.102282110222376" cy="16.175717421939076"></circle><circle class="pearl" r="2.1904339371426516" cx="14.30206383469291" cy="4.654151287951346"></circle><circle class="pearl" r="2.1904339371426516" cx="21.45183182222374" cy="22.577039755721632"></circle><circle class="pearl" r="2.1904339371426516" cx="3.6721474476398233" cy="13.356656194494605"></circle><circle class="pearl" r="2.1904339371426516" cx="21.99230985557408" cy="6.036145503815144"></circle><circle class="pearl" r="2.1904339371426516" cx="13.744632655380933" cy="24.613083159222732"></circle><circle class="pearl" r="2.1904339371426516" cx="6.425651983563366" cy="5.937998234854957"></circle><circle class="pearl" r="2.1904339371426516" cx="24.56783390343934" cy="15.329873512256635"></circle><circle class="pearl" r="2.1904339371426516" cx="6.2697326697319795" cy="22.228260120563146"></circle></g><g class="bobaCup bright" cupRadius="14.103675056700737" width="28.207350113401475" height="28.207350113401475" pearlRadius="2.7380424214283137" pearlCount="10" transform="translate(94.53833857700273,40.0111566382417)"><circle class="pool" r="14.103675056700737" cx="14.103675056700737" cy="14.103675056700737" style="stroke-width: 1; fill: rgb(65, 182, 196);"></circle><circle class="pearl" r="2.190433937142651" cx="17.426560400794184" cy="11.989080030806193"></circle><circle class="pearl" r="2.190433937142651" cx="11.110317629916725" cy="16.162876791507742"></circle><circle class="pearl" r="2.190433937142651" cx="14.262868335655282" cy="4.566881201897066"></circle><circle class="pearl" r="2.190433937142651" cx="21.441414848302863" cy="22.49750349499303"></circle><circle class="pearl" r="2.190433937142651" cx="3.6701278971370286" cy="13.364095622892613"></circle><circle class="pearl" r="2.190433937142651" cx="21.927479600818213" cy="6.0197601331833965"></circle><circle class="pearl" r="2.190433937142651" cx="13.739259441333187" cy="24.551918150675387"></circle><circle class="pearl" r="2.190433937142651" cx="6.4014865819415565" cy="5.93957950526976"></circle><circle class="pearl" r="2.190433937142651" cx="24.511311928732578" cy="15.233348189415784"></circle><circle class="pearl" r="2.190433937142651" cx="6.272870767108579" cy="22.182920041347774"></circle></g><g class="bobaCup bright" cupRadius="13.95597134214448" width="27.91194268428896" height="27.91194268428896" pearlRadius="2.7380424214283137" pearlCount="10" transform="translate(28.624346306820243,181.66929505014906)"><circle class="pool" r="13.95597134214448" cx="13.95597134214448" cy="13.95597134214448" style="stroke-width: 1; fill: rgb(127, 205, 187);"></circle><circle class="pearl" r="2.190433937142651" cx="17.094541731587068" cy="11.64687953077142"></circle><circle class="pearl" r="2.190433937142651" cx="11.161503135813374" cy="16.12057680149892"></circle><circle class="pearl" r="2.190433937142651" cx="14.08622661416429" cy="4.137205149335375"></circle><circle class="pearl" r="2.190433937142651" cx="21.391127254146188" cy="22.115734668622007"></circle><circle class="pearl" r="2.190433937142651" cx="3.6621651221282328" cy="13.390962881819645"></circle><circle class="pearl" r="2.190433937142651" cx="21.618762464062645" cy="5.942614310163078"></circle><circle class="pearl" r="2.190433937142651" cx="13.709908254524453" cy="24.25905007073435"></circle><circle class="pearl" r="2.190433937142651" cx="6.308263872993152" cy="5.932718959594691"></circle><circle class="pearl" r="2.190433937142651" cx="24.238341745448142" cy="14.75474411845159"></circle><circle class="pearl" r="2.190433937142651" cx="6.288338432067073" cy="21.966146091819144"></circle></g><g class="bobaCup bright" cupRadius="13.822614884690763" width="27.645229769381526" height="27.645229769381526" pearlRadius="2.7380424214283137" pearlCount="10" transform="translate(6.267999626377,80.87236588895995)"><circle class="pool" r="13.822614884690763" cx="13.822614884690763" cy="13.822614884690763" style="stroke-width: 1; fill: rgb(65, 182, 196);"></circle><circle class="pearl" r="2.190433937142651" cx="16.732156992254026" cy="11.28009653761158"></circle><circle class="pearl" r="2.190433937142651" cx="11.23774862226828" cy="16.120716640319568"></circle><circle class="pearl" r="2.190433937142651" cx="13.945247476766452" cy="3.751779818827055"></circle><circle class="pearl" r="2.190433937142651" cx="21.339844446540404" cy="21.77171673949609"></circle><circle class="pearl" r="2.190433937142651" cx="3.6568176964145103" cy="13.412193368057794"></circle><circle class="pearl" r="2.190433937142651" cx="21.34472936932232" cy="5.876680149409902"></circle><circle class="pearl" r="2.190433937142651" cx="13.671996341632514" cy="23.99368590668504"></circle><circle class="pearl" r="2.190433937142651" cx="6.253565839482423" cy="5.907259313525726"></circle><circle class="pearl" r="2.190433937142651" cx="23.98638295344556" cy="14.296442328579467"></circle><circle class="pearl" r="2.190433937142651" cx="6.298965902438701" cy="21.76755413147365"></circle></g><g class="bobaCup bright" cupRadius="13.772500194048893" width="27.545000388097787" height="27.545000388097787" pearlRadius="2.7380424214283137" pearlCount="9" transform="translate(6.227499805951107,108.66425314307497)"><circle class="pool" r="13.772500194048893" cx="13.772500194048893" cy="13.772500194048893" style="stroke-width: 1; fill: rgb(127, 205, 187);"></circle><circle class="pearl" r="2.190433937142651" cx="17.12936318994774" cy="12.143201690356626"></circle><circle class="pearl" r="2.190433937142651" cx="10.608694305773781" cy="16.092979334785365"></circle><circle class="pearl" r="2.190433937142651" cx="13.970463943104132" cy="3.6521460519442623"></circle><circle class="pearl" r="2.190433937142651" cx="19.102127869030728" cy="22.82125846832447"></circle><circle class="pearl" r="2.190433937142651" cx="3.6684971138637206" cy="13.073024843314307"></circle><circle class="pearl" r="2.190433937142651" cx="21.38443032840581" cy="5.94540650367821"></circle><circle class="pearl" r="2.190433937142651" cx="11.216867496987106" cy="23.655087835800174"></circle><circle class="pearl" r="2.190433937142651" cx="6.347989602020176" cy="5.823292213171786"></circle><circle class="pearl" r="2.190433937142651" cx="23.636507621524835" cy="16.424634596672472"></circle></g><g class="bobaCup bright" cupRadius="13.751127981679048" width="27.502255963358095" height="27.502255963358095" pearlRadius="2.738042421428314" pearlCount="9" transform="translate(205.51063231494575,63.13785189492461)"><circle class="pool" r="13.751127981679048" cx="13.751127981679048" cy="13.751127981679048" style="stroke-width: 1; fill: rgb(127, 205, 187);"></circle><circle class="pearl" r="2.1904339371426516" cx="17.10289753586548" cy="12.109303137076862"></circle><circle class="pearl" r="2.1904339371426516" cx="10.611417609345256" cy="16.064305223004666"></circle><circle class="pearl" r="2.1904339371426516" cx="13.921779403492657" cy="3.651782160941709"></circle><circle class="pearl" r="2.1904339371426516" cx="19.068270065273165" cy="22.78194727881787"></circle><circle class="pearl" r="2.1904339371426516" cx="3.666065967673385" cy="13.101724764619503"></circle><circle class="pearl" r="2.1904339371426516" cx="21.337788651712437" cy="5.932932314108047"></circle><circle class="pearl" r="2.1904339371426516" cx="11.186296832238792" cy="23.610221996260346"></circle><circle class="pearl" r="2.1904339371426516" cx="6.302821665476899" cy="5.842601503260511"></circle><circle class="pearl" r="2.1904339371426516" cx="23.595759319428232" cy="16.391000307723452"></circle></g><g class="bobaCup bright" cupRadius="13.729368412644984" width="27.458736825289968" height="27.458736825289968" pearlRadius="2.7380424214283132" pearlCount="9" transform="translate(148.00373043620218,204.57771023990855)"><circle class="pool" r="13.729368412644984" cx="13.729368412644984" cy="13.729368412644984" style="stroke-width: 1; fill: rgb(65, 182, 196);"></circle><circle class="pearl" r="2.1904339371426507" cx="17.07767664065404" cy="12.076462530653425"></circle><circle class="pearl" r="2.1904339371426507" cx="10.612851713504565" cy="16.032365418816724"></circle><circle class="pearl" r="2.1904339371426507" cx="13.876477579055347" cy="3.6515113831088266"></circle><circle class="pearl" r="2.1904339371426507" cx="19.026110547916115" cy="22.74513955949511"></circle><circle class="pearl" r="2.1904339371426507" cx="3.6640464982761047" cy="13.124667952113597"></circle><circle class="pearl" r="2.1904339371426507" cx="21.290928730170602" cy="5.920669204873314"></circle><circle class="pearl" r="2.1904339371426507" cx="11.1466938333872" cy="23.562908197964923"></circle><circle class="pearl" r="2.1904339371426507" cx="6.2617521939082135" cy="5.859229476438929"></circle><circle class="pearl" r="2.1904339371426507" cx="23.55288841682934" cy="16.363818320059817"></circle></g><g class="bobaCup bright" cupRadius="13.486135775172809" width="26.972271550345617" height="26.972271550345617" pearlRadius="2.7380424214283132" pearlCount="9" transform="translate(160.88976843107483,198.73834936434287)"><circle class="pool" r="13.486135775172809" cx="13.486135775172809" cy="13.486135775172809" style="stroke-width: 1; fill: rgb(29, 145, 192);"></circle><circle class="pearl" r="2.1904339371426507" cx="16.24275928509686" cy="11.488517260378405"></circle><circle class="pearl" r="2.1904339371426507" cx="10.33965958119075" cy="16.06850156956739"></circle><circle class="pearl" r="2.1904339371426507" cx="13.58360054647652" cy="3.6510754238123733"></circle><circle class="pearl" r="2.1904339371426507" cx="19.632364727063297" cy="21.839567153126044"></circle><circle class="pearl" r="2.1904339371426507" cx="3.6554194604036665" cy="13.130262222266218"></circle><circle class="pearl" r="2.1904339371426507" cx="20.84649495233256" cy="5.836373574807836"></circle><circle class="pearl" r="2.1904339371426507" cx="11.886802292154321" cy="23.226379298725778"></circle><circle class="pearl" r="2.1904339371426507" cx="6.05931594106264" cy="5.879940895395422"></circle><circle class="pearl" r="2.1904339371426507" cx="23.24567539609132" cy="14.914669447857893"></circle></g><g class="bobaCup bright" cupRadius="13.39182253170306" width="26.78364506340612" height="26.78364506340612" pearlRadius="2.738042421428314" pearlCount="9" transform="translate(284.814203536066,210.23530820619973)"><circle class="pool" r="13.39182253170306" cx="13.39182253170306" cy="13.39182253170306" style="stroke-width: 1; fill: rgb(29, 145, 192);"></circle><circle class="pearl" r="2.1904339371426516" cx="15.511771245737759" cy="11.283989278586965"></circle><circle class="pearl" r="2.1904339371426516" cx="10.041042773468408" cy="16.667526684999764"></circle><circle class="pearl" r="2.1904339371426516" cx="13.493775136390617" cy="3.65111131929557"></circle><circle class="pearl" r="2.1904339371426516" cx="20.841826162524757" cy="20.869367659950715"></circle><circle class="pearl" r="2.1904339371426516" cx="3.6530657963855764" cy="13.141348945757716"></circle><circle class="pearl" r="2.1904339371426516" cx="20.741423715399694" cy="5.847713329137234"></circle><circle class="pearl" r="2.1904339371426516" cx="13.490753898613642" cy="23.132556404779688"></circle><circle class="pearl" r="2.1904339371426516" cx="6.037244672502412" cy="5.850982186153441"></circle><circle class="pearl" r="2.1904339371426516" cx="23.132828998294325" cy="13.34195779128797"></circle></g><g class="bobaCup bright" cupRadius="13.246390594743717" width="26.492781189487435" height="26.492781189487435" pearlRadius="2.7380424214283137" pearlCount="9" transform="translate(237.204415264308,21.372340092213626)"><circle class="pool" r="13.246390594743717" cx="13.246390594743717" cy="13.246390594743717" style="stroke-width: 1; fill: rgb(65, 182, 196);"></circle><circle class="pearl" r="2.190433937142651" cx="15.257296704873273" cy="11.23510895163422"></circle><circle class="pearl" r="2.190433937142651" cx="9.840157824318954" cy="16.644259824386776"></circle><circle class="pearl" r="2.190433937142651" cx="13.31336340125611" cy="3.650892534520679"></circle><circle class="pearl" r="2.190433937142651" cx="20.570309729478577" cy="20.63319753810781"></circle><circle class="pearl" r="2.190433937142651" cx="3.6516660200181086" cy="13.088351743008985"></circle><circle class="pearl" r="2.190433937142651" cx="20.458311345754222" cy="5.786080438896461"></circle><circle class="pearl" r="2.190433937142651" cx="13.377087183347852" cy="22.841413180970758"></circle><circle class="pearl" r="2.190433937142651" cx="6.007044666721017" cy="5.803929685163306"></circle><circle class="pearl" r="2.190433937142651" cx="22.842033524786622" cy="13.220946922821424"></circle></g><g class="bobaCup bright" cupRadius="13.185000655880328" width="26.370001311760657" height="26.370001311760657" pearlRadius="2.7380424214283132" pearlCount="9" transform="translate(120.25703354378037,8.197620363631843)"><circle class="pool" r="13.185000655880328" cx="13.185000655880328" cy="13.185000655880328" style="stroke-width: 1; fill: rgb(29, 145, 192);"></circle><circle class="pearl" r="2.1904339371426507" cx="15.164086886490809" cy="11.208750111961713"></circle><circle class="pearl" r="2.1904339371426507" cx="9.759348916809634" cy="16.601195923206436"></circle><circle class="pearl" r="2.1904339371426507" cx="13.249450571050126" cy="3.650880749093324"></circle><circle class="pearl" r="2.1904339371426507" cx="20.452839911740785" cy="20.535311689892847"></circle><circle class="pearl" r="2.1904339371426507" cx="3.651432352262554" cy="13.048256040564416"></circle><circle class="pearl" r="2.1904339371426507" cx="20.340476821376452" cy="5.761275675146282"></circle><circle class="pearl" r="2.1904339371426507" cx="13.290596078043068" cy="22.718855232547565"></circle><circle class="pearl" r="2.1904339371426507" cx="5.998114165342666" cy="5.781633923369498"></circle><circle class="pearl" r="2.1904339371426507" cx="22.719275525267594" cy="13.176787714913484"></circle></g><g class="bobaCup bright" cupRadius="13.073885016841725" width="26.14777003368345" height="26.14777003368345" pearlRadius="2.738042421428314" pearlCount="9" transform="translate(290.0396644041733,170.2920301589102)"><circle class="pool" r="13.073885016841725" cx="13.073885016841725" cy="13.073885016841725" style="stroke-width: 1; fill: rgb(65, 182, 196);"></circle><circle class="pearl" r="2.1904339371426516" cx="14.993033530597197" cy="11.163677979742047"></circle><circle class="pearl" r="2.1904339371426516" cx="9.607359741020014" cy="16.529016149651113"></circle><circle class="pearl" r="2.1904339371426516" cx="13.133943497991757" cy="3.650861176862016"></circle><circle class="pearl" r="2.1904339371426516" cx="20.240475281122148" cy="20.357806428930875"></circle><circle class="pearl" r="2.1904339371426516" cx="3.6511063790282923" cy="12.973793142850557"></circle><circle class="pearl" r="2.1904339371426516" cx="20.127712618602455" cy="5.7168843390715445"></circle><circle class="pearl" r="2.1904339371426516" cx="13.136089266367176" cy="22.49689882344691"></circle><circle class="pearl" r="2.1904339371426516" cx="5.98261070555156" cy="5.740970502131455"></circle><circle class="pearl" r="2.1904339371426516" cx="22.497023989328756" cy="13.098310031527028"></circle></g><g class="bobaCup bright" cupRadius="12.990997493420757" width="25.981994986841514" height="25.981994986841514" pearlRadius="2.738042421428314" pearlCount="8" transform="translate(270.63458549444334,131.59939595555488)"><circle class="pool" r="12.990997493420757" cx="12.990997493420757" cy="12.990997493420757" style="stroke-width: 1; fill: rgb(29, 145, 192);"></circle><circle class="pearl" r="2.1904339371426516" cx="19.556146315912148" cy="12.986499370549913"></circle><circle class="pearl" r="2.1904339371426516" cx="11.727292207076106" cy="14.318593474286281"></circle><circle class="pearl" r="2.1904339371426516" cx="12.193392639333934" cy="3.6752315143920637"></circle><circle class="pearl" r="2.1904339371426516" cx="19.93831635093909" cy="20.317558836456374"></circle><circle class="pearl" r="2.1904339371426516" cx="3.809179057160448" cy="15.013839626270148"></circle><circle class="pearl" r="2.1904339371426516" cx="19.939096204345304" cy="5.664929743872918"></circle><circle class="pearl" r="2.1904339371426516" cx="12.114372852342932" cy="22.301660961986656"></circle><circle class="pearl" r="2.1904339371426516" cx="5.054286143751419" cy="7.117550824805934"></circle></g><g class="bobaCup bright" cupRadius="12.914098328499271" width="25.828196656998543" height="25.828196656998543" pearlRadius="2.7380424214283137" pearlCount="8" transform="translate(194.63735759053637,168.01926317399165)"><circle class="pool" r="12.914098328499271" cx="12.914098328499271" cy="12.914098328499271" style="stroke-width: 1; fill: rgb(29, 145, 192);"></circle><circle class="pearl" r="2.190433937142651" cx="14.708494477501972" cy="12.039956320334348"></circle><circle class="pearl" r="2.190433937142651" cx="9.757584268690858" cy="18.39219893227076"></circle><circle class="pearl" r="2.190433937142651" cx="13.330581950265822" cy="3.657440837848199"></circle><circle class="pearl" r="2.190433937142651" cx="21.94132229834378" cy="15.372469836700141"></circle><circle class="pearl" r="2.190433937142651" cx="3.661841242702355" cy="13.449854471888697"></circle><circle class="pearl" r="2.190433937142651" cx="20.554977729052933" cy="6.647229436932227"></circle><circle class="pearl" r="2.190433937142651" cx="16.997959237950447" cy="21.51474301173315"></circle><circle class="pearl" r="2.190433937142651" cx="5.812161846149191" cy="5.778884702127591"></circle></g><g class="bobaCup bright" cupRadius="12.649376079682739" width="25.298752159365478" height="25.298752159365478" pearlRadius="2.7380424214283137" pearlCount="8" transform="translate(157.9224488156617,237.95672205350604)"><circle class="pool" r="12.649376079682739" cx="12.649376079682739" cy="12.649376079682739" style="stroke-width: 1; fill: rgb(29, 145, 192);"></circle><circle class="pearl" r="2.190433937142651" cx="14.071959841990505" cy="12.84696162501306"></circle><circle class="pearl" r="2.190433937142651" cx="6.441992497969639" cy="19.577300936254208"></circle><circle class="pearl" r="2.190433937142651" cx="15.102981901921599" cy="3.890968247848125"></circle><circle class="pearl" r="2.190433937142651" cx="20.834666578230248" cy="17.112054004058425"></circle><circle class="pearl" r="2.190433937142651" cx="3.663488341838864" cy="12.081240102357748"></circle><circle class="pearl" r="2.190433937142651" cx="21.146621722474087" cy="9.123249663108998"></circle><circle class="pearl" r="2.190433937142651" cx="14.1882510778914" cy="21.554073152524833"></circle><circle class="pearl" r="2.190433937142651" cx="7.17209064666073" cy="4.898079334124031"></circle></g><g class="bobaCup bright" cupRadius="12.14201651859809" width="24.28403303719618" height="24.28403303719618" pearlRadius="2.7380424214283132" pearlCount="7" transform="translate(237.02462296777657,159.39092766124742)"><circle class="pool" r="12.14201651859809" cx="12.14201651859809" cy="12.14201651859809" style="stroke-width: 1; fill: rgb(65, 182, 196);"></circle><circle class="pearl" r="2.1904339371426507" cx="13.659456100679396" cy="12.447572873986298"></circle><circle class="pearl" r="2.1904339371426507" cx="5.499322090698643" cy="14.820542538920359"></circle><circle class="pearl" r="2.1904339371426507" cx="12.190658326123518" cy="3.650820660283874"></circle><circle class="pearl" r="2.1904339371426507" cx="18.782475970623192" cy="18.58562763135978"></circle><circle class="pearl" r="2.1904339371426507" cx="4.864260487119782" cy="6.8508062411115525"></circle><circle class="pearl" r="2.1904339371426507" cx="19.470151682563372" cy="6.956147880217178"></circle><circle class="pearl" r="2.1904339371426507" cx="11.041042782089068" cy="20.583291552077256"></circle></g><g class="bobaCup bright" cupRadius="12.080536072960351" width="24.161072145920702" height="24.161072145920702" pearlRadius="2.7380424214283137" pearlCount="7" transform="translate(53.73832787329396,273.1067122441779)"><circle class="pool" r="12.080536072960351" cx="12.080536072960351" cy="12.080536072960351" style="stroke-width: 1; fill: rgb(127, 205, 187);"></circle><circle class="pearl" r="2.190433937142651" cx="13.476328464995651" cy="12.397456104665201"></circle><circle class="pearl" r="2.190433937142651" cx="5.257121702394071" cy="14.840530605018953"></circle><circle class="pearl" r="2.190433937142651" cx="12.162785442437798" cy="3.651003225962638"></circle><circle class="pearl" r="2.190433937142651" cx="18.68861910106762" cy="18.459897012586936"></circle><circle class="pearl" r="2.190433937142651" cx="4.838674828468017" cy="6.85646148435865"></circle><circle class="pearl" r="2.190433937142651" cx="19.406190558072613" cy="7.034895965238453"></circle><circle class="pearl" r="2.190433937142651" cx="10.947034561944553" cy="20.457053846989208"></circle></g><g class="bobaCup bright" cupRadius="12.024615283185119" width="24.049230566370237" height="24.049230566370237" pearlRadius="2.7380424214283137" pearlCount="7" transform="translate(222.21954397288528,54.10004790959861)"><circle class="pool" r="12.024615283185119" cx="12.024615283185119" cy="12.024615283185119" style="stroke-width: 1; fill: rgb(65, 182, 196);"></circle><circle class="pearl" r="2.190433937142651" cx="13.313499112353407" cy="12.351452573027876"></circle><circle class="pearl" r="2.190433937142651" cx="5.04329873595173" cy="14.856154111347902"></circle><circle class="pearl" r="2.190433937142651" cx="12.135044346968316" cy="3.651230306551083"></circle><circle class="pearl" r="2.190433937142651" cx="18.601771985242774" cy="18.34773514866695"></circle><circle class="pearl" r="2.190433937142651" cx="4.814239965007346" cy="6.864391347499867"></circle><circle class="pearl" r="2.190433937142651" cx="19.345776456252832" cy="7.104338320890786"></circle><circle class="pearl" r="2.190433937142651" cx="10.859408267351181" cy="20.34191884765141"></circle></g><g class="bobaCup bright" cupRadius="11.994230620318753" width="23.988461240637506" height="23.988461240637506" pearlRadius="2.7380424214283137" pearlCount="7" transform="translate(168.3594445016451,8.005769379681247)"><circle class="pool" r="11.994230620318753" cx="11.994230620318753" cy="11.994230620318753" style="stroke-width: 1; fill: rgb(29, 145, 192);"></circle><circle class="pearl" r="2.190433937142651" cx="13.226563216362768" cy="12.326294214935762"></circle><circle class="pearl" r="2.190433937142651" cx="4.9285897203906845" cy="14.86423067558258"></circle><circle class="pearl" r="2.190433937142651" cx="12.118664830742839" cy="3.6513687176345435"></circle><circle class="pearl" r="2.190433937142651" cx="18.553809955120474" cy="18.2879806739652"></circle><circle class="pearl" r="2.190433937142651" cx="4.800325769516608" cy="6.870207787283987"></circle><circle class="pearl" r="2.190433937142651" cx="19.311912057452417" cy="7.140812519357509"></circle><circle class="pearl" r="2.190433937142651" cx="10.810678318490934" cy="20.279200589975833"></circle></g><g class="bobaCup bright" cupRadius="11.615771772496588" width="23.231543544993176" height="23.231543544993176" pearlRadius="2.7380424214283137" pearlCount="7" transform="translate(246.36202691375496,24.93901380994054)"><circle class="pool" r="11.615771772496588" cx="11.615771772496588" cy="11.615771772496588" style="stroke-width: 1; fill: rgb(127, 205, 187);"></circle><circle class="pearl" r="2.190433937142651" cx="11.935237311838868" cy="11.669523537224874"></circle><circle class="pearl" r="2.190433937142651" cx="4.0618630957226145" cy="14.678838493358557"></circle><circle class="pearl" r="2.190433937142651" cx="12.123933379409445" cy="3.661843965728943"></circle><circle class="pearl" r="2.190433937142651" cx="18.099967988244124" cy="17.291118610170994"></circle><circle class="pearl" r="2.190433937142651" cx="4.736150282168154" cy="6.712916076896975"></circle><circle class="pearl" r="2.190433937142651" cx="18.945662596702665" cy="7.827332925863156"></circle><circle class="pearl" r="2.190433937142651" cx="10.42259929486499" cy="19.519376447760976"></circle></g><g class="bobaCup bright" cupRadius="11.400352010248547" width="22.800704020497093" height="22.800704020497093" pearlRadius="2.738042421428314" pearlCount="6" transform="translate(150.2025428592154,70.80844612964177)"><circle class="pool" r="11.400352010248547" cx="11.400352010248547" cy="11.400352010248547" style="stroke-width: 1; fill: rgb(65, 182, 196);"></circle><circle class="pearl" r="2.1904339371426516" cx="12.06824003787886" cy="11.387563587981795"></circle><circle class="pearl" r="2.1904339371426516" cx="6.524103226381896" cy="17.147959053382525"></circle><circle class="pearl" r="2.1904339371426516" cx="9.541081999683" cy="3.803358093310074"></circle><circle class="pearl" r="2.1904339371426516" cx="16.997159126280348" cy="17.681586094489166"></circle><circle class="pearl" r="2.1904339371426516" cx="3.8283224851369977" cy="9.395895328928912"></circle><circle class="pearl" r="2.1904339371426516" cx="17.426490973030916" cy="5.373592345070126"></circle></g><g class="bobaCup bright" cupRadius="11.147248043513901" width="22.294496087027802" height="22.294496087027802" pearlRadius="2.7380424214283137" pearlCount="6" transform="translate(163.6404191720929,253.16339497299901)"><circle class="pool" r="11.147248043513901" cx="11.147248043513901" cy="11.147248043513901" style="stroke-width: 1; fill: rgb(127, 205, 187);"></circle><circle class="pearl" r="2.190433937142651" cx="11.515166894355993" cy="11.333634792619973"></circle><circle class="pearl" r="2.190433937142651" cx="6.179205313731522" cy="17.472122267399683"></circle><circle class="pearl" r="2.190433937142651" cx="8.860427733446015" cy="3.887811245161206"></circle><circle class="pearl" r="2.190433937142651" cx="16.96320216434913" cy="17.006299607647648"></circle><circle class="pearl" r="2.190433937142651" cx="3.721770119791353" cy="9.890702390720621"></circle><circle class="pearl" r="2.190433937142651" cx="16.990430652248993" cy="5.305425477226204"></circle></g><g class="bobaCup bright" cupRadius="11.071227162959051" width="22.142454325918102" height="22.142454325918102" pearlRadius="2.738042421428314" pearlCount="6" transform="translate(247.65363228116396,141.74312180958796)"><circle class="pool" r="11.071227162959051" cx="11.071227162959051" cy="11.071227162959051" style="stroke-width: 1; fill: rgb(127, 205, 187);"></circle><circle class="pearl" r="2.1904339371426516" cx="11.495344534462419" cy="11.209429548953223"></circle><circle class="pearl" r="2.1904339371426516" cx="6.439293215993429" cy="17.476211706831922"></circle><circle class="pearl" r="2.1904339371426516" cx="8.597488934464138" cy="3.9306256317647645"></circle><circle class="pearl" r="2.1904339371426516" cx="16.813804827426917" cy="16.885960746470367"></circle><circle class="pearl" r="2.1904339371426516" cx="3.6992743044212326" cy="10.03552316445375"></circle><circle class="pearl" r="2.1904339371426516" cx="16.85816052183012" cy="5.283546225897709"></circle></g><g class="bobaCup bright" cupRadius="10.899154052984166" width="21.79830810596833" height="21.79830810596833" pearlRadius="2.7380424214283132" pearlCount="6" transform="translate(38.80481747454333,225.65576813680164)"><circle class="pool" r="10.899154052984166" cx="10.899154052984166" cy="10.899154052984166" style="stroke-width: 1; fill: rgb(127, 205, 187);"></circle><circle class="pearl" r="2.1904339371426507" cx="11.272868321426627" cy="11.13293367663796"></circle><circle class="pearl" r="2.1904339371426507" cx="5.848058591839037" cy="16.90648413308146"></circle><circle class="pearl" r="2.1904339371426507" cx="8.86272461663824" cy="3.8426594252928217"></circle><circle class="pearl" r="2.1904339371426507" cx="16.471524077284368" cy="16.61540746487513"></circle><circle class="pearl" r="2.1904339371426507" cx="3.750296820362249" cy="9.429248976831442"></circle><circle class="pearl" r="2.1904339371426507" cx="16.552088376139462" cy="5.231299460408187"></circle></g><g class="bobaCup bright" cupRadius="9.982552229722488" width="19.965104459444976" height="19.965104459444976" pearlRadius="2.7380424214283137" pearlCount="5" transform="translate(58.04896840580308,115.7824850872909)"><circle class="pool" r="9.982552229722488" cx="9.982552229722488" cy="9.982552229722488" style="stroke-width: 1; fill: rgb(65, 182, 196);"></circle><circle class="pearl" r="2.190433937142651" cx="15.920403943798188" cy="7.205759189471976"></circle><circle class="pearl" r="2.190433937142651" cx="7.122675830798898" cy="15.895952379800242"></circle><circle class="pearl" r="2.190433937142651" cx="9.12930578353494" cy="3.687255172711719"></circle><circle class="pearl" r="2.190433937142651" cx="14.943876665760651" cy="14.994196394624623"></circle><circle class="pearl" r="2.190433937142651" cx="3.694289260778593" cy="9.050939442807161"></circle></g><g class="bobaCup bright" cupRadius="9.831274896633973" width="19.662549793267946" height="19.662549793267946" pearlRadius="2.7380424214283146" pearlCount="5" transform="translate(207.85558281931097,24.475547286693946)"><circle class="pool" r="9.831274896633973" cx="9.831274896633973" cy="9.831274896633973" style="stroke-width: 1; fill: rgb(127, 205, 187);"></circle><circle class="pearl" r="2.1904339371426516" cx="15.610751925582417" cy="7.051834450021756"></circle><circle class="pearl" r="2.1904339371426516" cx="6.902516720440363" cy="15.565451328611445"></circle><circle class="pearl" r="2.1904339371426516" cx="9.001476393269678" cy="3.685804959643259"></circle><circle class="pearl" r="2.1904339371426516" cx="14.660298076268415" cy="14.744108243676703"></circle><circle class="pearl" r="2.1904339371426516" cx="3.6996878033044682" cy="8.851289764490378"></circle></g><g class="bobaCup bright" cupRadius="9.824813242006417" width="19.649626484012835" height="19.649626484012835" pearlRadius="2.7380424214283132" pearlCount="5" transform="translate(158.357654667049,130.43506652003848)"><circle class="pool" r="9.824813242006417" cx="9.824813242006417" cy="9.824813242006417" style="stroke-width: 1; fill: rgb(127, 205, 187);"></circle><circle class="pearl" r="2.1904339371426507" cx="15.597551269308877" cy="7.045364879587202"></circle><circle class="pearl" r="2.1904339371426507" cx="6.892925787156256" cy="15.551242629896091"></circle><circle class="pearl" r="2.1904339371426507" cx="8.996261115987464" cy="3.685722549221585"></circle><circle class="pearl" r="2.1904339371426507" cx="14.648163277747475" cy="14.733427001369702"></circle><circle class="pearl" r="2.1904339371426507" cx="3.699952194718155" cy="8.842516287986838"></circle></g><g class="bobaCup bright" cupRadius="9.701460996398946" width="19.402921992797893" height="19.402921992797893" pearlRadius="2.738042421428314" pearlCount="5" transform="translate(189.59572297834185,12.784389715580286)"><circle class="pool" r="9.701460996398946" cx="9.701460996398946" cy="9.701460996398946" style="stroke-width: 1; fill: rgb(65, 182, 196);"></circle><circle class="pearl" r="2.1904339371426516" cx="15.346163769103295" cy="6.924159982921541"></circle><circle class="pearl" r="2.1904339371426516" cx="6.706162309648206" cy="15.27822557555751"></circle><circle class="pearl" r="2.1904339371426516" cx="8.901645703635326" cy="3.6837489347014203"></circle><circle class="pearl" r="2.1904339371426516" cx="14.416039713020108" cy="14.529599306350164"></circle><circle class="pearl" r="2.1904339371426516" cx="3.705701029382521" cy="8.670099070643593"></circle></g><g class="bobaCup bright" cupRadius="9.558155920092515" width="19.11631184018503" height="19.11631184018503" pearlRadius="2.7380424214283132" pearlCount="5" transform="translate(199.0660164006629,130.3016921919467)"><circle class="pool" r="9.558155920092515" cx="9.558155920092515" cy="9.558155920092515" style="stroke-width: 1; fill: rgb(29, 145, 192);"></circle><circle class="pearl" r="2.1904339371426507" cx="15.056325388853349" cy="6.791188806896871"></circle><circle class="pearl" r="2.1904339371426507" cx="6.4778825659386206" cy="14.955651337005694"></circle><circle class="pearl" r="2.1904339371426507" cx="8.807402939105812" cy="3.680253090603645"></circle><circle class="pearl" r="2.1904339371426507" cx="14.144790515835428" cy="14.293202046681028"></circle><circle class="pearl" r="2.1904339371426507" cx="3.7146836998934196" cy="8.454254940225571"></circle></g><g class="bobaCup bright" cupRadius="9.474260510493894" width="18.948521020987787" height="18.948521020987787" pearlRadius="2.738042421428314" pearlCount="4" transform="translate(49.20631614098678,256.79437108584193)"><circle class="pool" r="9.474260510493894" cx="9.474260510493894" cy="9.474260510493894" style="stroke-width: 1; fill: rgb(29, 145, 192);"></circle><circle class="pearl" r="2.1904339371426516" cx="14.839095310840506" cy="6.585755492566691"></circle><circle class="pearl" r="2.1904339371426516" cx="5.664810390430832" cy="12.402953371547406"></circle><circle class="pearl" r="2.1904339371426516" cx="7.308012614331534" cy="3.901698951470259"></circle><circle class="pearl" r="2.1904339371426516" cx="13.393632908113942" cy="14.44908840805255"></circle></g><g class="bobaCup bright" cupRadius="9.08935045656607" width="18.17870091313214" height="18.17870091313214" pearlRadius="2.738042421428314" pearlCount="4" transform="translate(124.35199711914193,189.09002934568701)"><circle class="pool" r="9.08935045656607" cx="9.08935045656607" cy="9.08935045656607" style="stroke-width: 1; fill: rgb(29, 145, 192);"></circle><circle class="pearl" r="2.1904339371426516" cx="13.904579451440192" cy="5.7811871183040395"></circle><circle class="pearl" r="2.1904339371426516" cx="5.03200170339089" cy="12.09211539321654"></circle><circle class="pearl" r="2.1904339371426516" cx="6.07449391628818" cy="4.165289036889629"></circle><circle class="pearl" r="2.1904339371426516" cx="12.862087238549943" cy="13.708013474636498"></circle></g><g class="bobaCup bright" cupRadius="9.017102656905852" width="18.034205313811704" height="18.034205313811704" pearlRadius="2.738042421428314" pearlCount="4" transform="translate(33.54730657669549,279.08090106993734)"><circle class="pool" r="9.017102656905852" cx="9.017102656905852" cy="9.017102656905852" style="stroke-width: 1; fill: rgb(65, 182, 196);"></circle><circle class="pearl" r="2.1904339371426516" cx="13.72427787840353" cy="5.632774980170523"></circle><circle class="pearl" r="2.1904339371426516" cx="4.890903039905073" cy="12.160403689305458"></circle><circle class="pearl" r="2.1904339371426516" cx="5.854363874530072" cy="4.2235838401756105"></circle><circle class="pearl" r="2.1904339371426516" cx="12.760817043781305" cy="13.569594829302872"></circle></g><g class="bobaCup bright" cupRadius="8.975343567017944" width="17.95068713403589" height="17.95068713403589" pearlRadius="2.7380424214283137" pearlCount="4" transform="translate(152.480193696733,213.69452165382154)"><circle class="pool" r="8.975343567017944" cx="8.975343567017944" cy="8.975343567017944" style="stroke-width: 1; fill: rgb(127, 205, 187);"></circle><circle class="pearl" r="2.190433937142651" cx="13.619522876779495" cy="5.547314391883462"></circle><circle class="pearl" r="2.190433937142651" cx="4.811747397703926" cy="12.200670133871427"></circle><circle class="pearl" r="2.190433937142651" cx="5.729021377465595" cy="4.258379875798683"></circle><circle class="pearl" r="2.190433937142651" cx="12.702248897019325" cy="13.489604649957673"></circle></g><g class="bobaCup bright" cupRadius="8.865590609582894" width="17.731181219165787" height="17.731181219165787" pearlRadius="2.738042421428313" pearlCount="4" transform="translate(201.68599330191475,291.1344093904171)"><circle class="pool" r="8.865590609582894" cx="8.865590609582894" cy="8.865590609582894" style="stroke-width: 1; fill: rgb(29, 145, 192);"></circle><circle class="pearl" r="2.1904339371426502" cx="13.346812273648135" cy="5.3342779471512065"></circle><circle class="pearl" r="2.1904339371426502" cx="4.595955437197522" cy="12.304155601233434"></circle><circle class="pearl" r="2.1904339371426502" cx="5.412439030184136" cy="4.350871962393654"></circle><circle class="pearl" r="2.1904339371426502" cx="12.530328680661778" cy="13.287561585991297"></circle></g><g class="bobaCup bright" cupRadius="8.859122084670936" width="17.718244169341872" height="17.718244169341872" pearlRadius="2.7380424214283137" pearlCount="4" transform="translate(36.87892171769945,81.32465529035565)"><circle class="pool" r="8.859122084670936" cx="8.859122084670936" cy="8.859122084670936" style="stroke-width: 1; fill: rgb(127, 205, 187);"></circle><circle class="pearl" r="2.190433937142651" cx="13.330671167572394" cy="5.321787408761569"></circle><circle class="pearl" r="2.190433937142651" cx="4.583542098348598" cy="12.310363594434481"></circle><circle class="pearl" r="2.190433937142651" cx="5.394076730256597" cy="4.356471483780016"></circle><circle class="pearl" r="2.190433937142651" cx="12.520136535664621" cy="13.275679519416315"></circle></g><g class="bobaCup bright" cupRadius="8.636775260177851" width="17.273550520355702" height="17.273550520355702" pearlRadius="2.7380424214283146" pearlCount="4" transform="translate(16.750659295902132,70.27459176778846)"><circle class="pool" r="8.636775260177851" cx="8.636775260177851" cy="8.636775260177851" style="stroke-width: 1; fill: rgb(29, 145, 192);"></circle><circle class="pearl" r="2.1904339371426516" cx="12.65042158794451" cy="4.655402858768588"></circle><circle class="pearl" r="2.1904339371426516" cx="4.623128932411193" cy="12.618147661587114"></circle><circle class="pearl" r="2.1904339371426516" cx="4.655402858768587" cy="4.623128932411193"></circle><circle class="pearl" r="2.1904339371426516" cx="12.618147661587114" cy="12.65042158794451"></circle></g><g class="bobaCup bright" cupRadius="8.498234041135097" width="16.996468082270194" height="16.996468082270194" pearlRadius="2.7380424214283137" pearlCount="4" transform="translate(279.78107974962484,151.2862981312811)"><circle class="pool" r="8.498234041135097" cx="8.498234041135097" cy="8.498234041135097" style="stroke-width: 1; fill: rgb(127, 205, 187);"></circle><circle class="pearl" r="2.190433937142651" cx="12.371594673232803" cy="4.584761394953663"></circle><circle class="pearl" r="2.190433937142651" cx="4.6246760462963366" cy="12.411605621497074"></circle><circle class="pearl" r="2.190433937142651" cx="4.624963716025967" cy="4.584715152577965"></circle><circle class="pearl" r="2.190433937142651" cx="12.371306962546608" cy="12.411854007008344"></circle></g><g class="bobaCup bright" cupRadius="8.418790012390541" width="16.837580024781083" height="16.837580024781083" pearlRadius="2.7380424214283137" pearlCount="4" transform="translate(130.57191631781015,108.84985459313852)"><circle class="pool" r="8.418790012390541" cx="8.418790012390541" cy="8.418790012390541" style="stroke-width: 1; fill: rgb(127, 205, 187);"></circle><circle class="pearl" r="2.190433937142651" cx="12.21743115423244" cy="4.556434594479026"></circle><circle class="pearl" r="2.190433937142651" cx="4.619631141992361" cy="12.280883642375343"></circle><circle class="pearl" r="2.190433937142651" cx="4.620387359298925" cy="4.556314018412467"></circle><circle class="pearl" r="2.190433937142651" cx="12.216674653777181" cy="12.281527871989557"></circle></g><g class="bobaCup bright" cupRadius="7.846405665801144" width="15.692811331602288" height="15.692811331602288" pearlRadius="2.7380424214283137" pearlCount="3" transform="translate(192.10911396490462,118.81473570689333)"><circle class="pool" r="7.846405665801144" cx="7.846405665801144" cy="7.846405665801144" style="stroke-width: 1; fill: rgb(127, 205, 187);"></circle><circle class="pearl" r="2.190433937142651" cx="11.92401435100691" cy="9.202491099250858"></circle><circle class="pearl" r="2.190433937142651" cx="4.476997599163506" cy="11.281807693870213"></circle><circle class="pearl" r="2.190433937142651" cx="6.197820438426621" cy="3.8258676799174127"></circle></g><g class="bobaCup bright" cupRadius="7.31854424117871" width="14.63708848235742" height="14.63708848235742" pearlRadius="2.7380424214283132" pearlCount="3" transform="translate(137.5268351406267,241.1839437903656)"><circle class="pool" r="7.31854424117871" cx="7.31854424117871" cy="7.31854424117871" style="stroke-width: 1; fill: rgb(65, 182, 196);"></circle><circle class="pearl" r="2.1904339371426507" cx="10.306079124425196" cy="10.348818328239137"></circle><circle class="pearl" r="2.1904339371426507" cx="4.333072718080857" cy="10.349740616648209"></circle><circle class="pearl" r="2.1904339371426507" cx="6.931957503959062" cy="3.660940677337188"></circle></g><g class="bobaCup bright" cupRadius="6.969481371418578" width="13.938962742837155" height="13.938962742837155" pearlRadius="2.7380424214283137" pearlCount="2" transform="translate(159.82708190248363,144.91968428687733)"><circle class="pool" r="6.969481371418578" cx="6.969481371418578" cy="6.969481371418578" style="stroke-width: 1; fill: rgb(65, 182, 196);"></circle><circle class="pearl" r="2.190433937142651" cx="9.70277884164056" cy="4.209061525168396"></circle><circle class="pearl" r="2.190433937142651" cx="4.236183901196595" cy="9.72990121766876"></circle></g><g class="bobaCup bright" cupRadius="6.92059656485445" width="13.8411931297089" height="13.8411931297089" pearlRadius="2.7380424214283137" pearlCount="2" transform="translate(102.18667363795146,134.89434445782842)"><circle class="pool" r="6.92059656485445" cx="6.92059656485445" cy="6.92059656485445" style="stroke-width: 1; fill: rgb(29, 145, 192);"></circle><circle class="pearl" r="2.190433937142651" cx="9.607247829990442" cy="4.193501844234888"></circle><circle class="pearl" r="2.190433937142651" cx="4.233945299718457" cy="9.64769128547401"></circle></g><g class="bobaCup bright" cupRadius="6.504618143291221" width="13.009236286582443" height="13.009236286582443" pearlRadius="2.7380424214283137" pearlCount="2" transform="translate(257.30036855375175,161.533245109421)"><circle class="pool" r="6.504618143291221" cx="6.504618143291221" cy="6.504618143291221" style="stroke-width: 1; fill: rgb(29, 145, 192);"></circle><circle class="pearl" r="2.190433937142651" cx="8.794688932582483" cy="4.067186235035697"></circle><circle class="pearl" r="2.190433937142651" cx="4.2145473539999605" cy="8.942050051546747"></circle></g><g class="bobaCup bright" cupRadius="5.560012059200423" width="11.120024118400845" height="11.120024118400845" pearlRadius="2.7380424214283137" pearlCount="2" transform="translate(109.61628875364431,114.91207756258784)"><circle class="pool" r="5.560012059200423" cx="5.560012059200423" cy="5.560012059200423" style="stroke-width: 1; fill: rgb(127, 205, 187);"></circle><circle class="pearl" r="2.190433937142651" cx="7.13119942539139" cy="3.877340087828416"></circle><circle class="pearl" r="2.190433937142651" cx="3.9888246930094544" cy="7.2426840305724305"></circle></g><g class="bobaCup bright" cupRadius="5.497030130133883" width="10.994060260267766" height="10.994060260267766" pearlRadius="2.7380424214283137" pearlCount="2" transform="translate(20.92815447226393,170.94519648273993)"><circle class="pool" r="5.497030130133883" cx="5.497030130133883" cy="5.497030130133883" style="stroke-width: 1; fill: rgb(65, 182, 196);"></circle><circle class="pearl" r="2.190433937142651" cx="7.023998576126022" cy="3.867061394904761"></circle><circle class="pearl" r="2.190433937142651" cx="3.9700616841417444" cy="7.126998865363005"></circle></g><g class="bobaCup bright" cupRadius="5.4174888644388925" width="10.834977728877785" height="10.834977728877785" pearlRadius="2.7380424214283132" pearlCount="1" transform="translate(251.722436406498,190.52968462274842)"><circle class="pool" r="5.4174888644388925" cx="5.4174888644388925" cy="5.4174888644388925" style="stroke-width: 1; fill: rgb(65, 182, 196);"></circle><circle class="pearl" r="2.1904339371426507" cx="7.139902273237943" cy="5.4174888644388925"></circle></g><g class="bobaCup bright" cupRadius="4.403076108155023" width="8.806152216310046" height="8.806152216310046" pearlRadius="2.738042421428314" pearlCount="1" transform="translate(178.23101347204624,78.03649181365354)"><circle class="pool" r="4.403076108155023" cx="4.403076108155023" cy="4.403076108155023" style="stroke-width: 1; fill: rgb(127, 205, 187);"></circle><circle class="pearl" r="2.1904339371426516" cx="5.155428987738961" cy="4.403076108155023"></circle></g><g class="bobaCup bright" cupRadius="3.0114475698537415" width="6.022895139707483" height="6.022895139707483" pearlRadius="2.7380424214283137" pearlCount="0" transform="translate(190.62111273419114,104.98118532368665)"><circle class="pool" r="3.0114475698537415" cx="3.0114475698537415" cy="3.0114475698537415" style="stroke-width: 1; fill: rgb(65, 182, 196);"></circle></g><g class="bobaCup bright" cupRadius="2.5244427610935434" width="5.048885522187087" height="5.048885522187087" pearlRadius="2.738042421428314" pearlCount="0" transform="translate(312.19072665767345,239.78717178398946)"><circle class="pool" r="2.5244427610935434" cx="2.5244427610935434" cy="2.5244427610935434" style="stroke-width: 1; fill: rgb(127, 205, 187);"></circle></g><g class="bobaCup bright" cupRadius="0" width="0" height="0" pearlRadius="NaN" pearlCount="0" transform="translate(20,300)"><circle class="pool" r="0" cx="0" cy="0" style="stroke-width: 1; fill: rgb(29, 145, 192);"></circle></g><g class="bobaCup bright" cupRadius="0" width="0" height="0" pearlRadius="NaN" pearlCount="0" transform="translate(278.7249094629381,297.0880769682601)"><circle class="pool" r="0" cx="0" cy="0" style="stroke-width: 1; fill: rgb(127, 205, 187);"></circle></g></g><g id="legendDividerGroup" transform="translate(410,0)" height="400"><rect class="legendDivider" height="400" width="90"></rect></g><g id="legend" transform="translate(410,30)" width="90" height="320"><rect class="legendBorder" transform="translate(0,0)" width="90" height="324.9477195110013"></rect><text id="rTitle" text-anchor="middle" alignment-baseline="hanging" transform="translate(45,10)" x="0" y="0" style="fill: black; font-size: 0.8rem;">Population</text><text id="bobaValue" text-anchor="middle" alignment-baseline="hanging" transform="translate(45,25)" x="0" y="0" style="fill: black; font-size: 0.7rem;">(1 Pearl =   75)</text><g class="bright" cupRadius="8.94427190999916" width="17.88854381999832" height="17.88854381999832" pearlRadius="2.7380424214283137" pearlCount="4" transform="translate(36.05572809000084,50)"><circle class="pool" r="8.94427190999916" cx="8.94427190999916" cy="8.94427190999916" style="stroke-width: 1; fill: rgb(127, 205, 187);"></circle><circle class="pearl" r="2.190433937142651" cx="13.542613460651712" cy="5.486970900805415"></circle><circle class="pearl" r="2.190433937142651" cx="4.749399498236599" cy="12.229516637519533"></circle><circle class="pearl" r="2.190433937142651" cx="5.6385452023940825" cy="4.284028231246733"></circle><circle class="pearl" r="2.190433937142651" cx="12.653467756495177" cy="13.432459307079196"></circle></g><text id="0" class="legendSampleValue" text-anchor="middle" transform="translate(45,8)" x="0" y="72.88854381999832" style="fill: black; font-size: 0.7rem;"> 300</text><g class="bright" cupRadius="12.649110640673518" width="25.298221281347036" height="25.298221281347036" pearlRadius="2.7380424214283137" pearlCount="8" transform="translate(32.35088935932648,92.88854381999832)"><circle class="pool" r="12.649110640673518" cx="12.649110640673518" cy="12.649110640673518" style="stroke-width: 1; fill: rgb(127, 205, 187);"></circle><circle class="pearl" r="2.190433937142651" cx="14.071403428550026" cy="12.846878791771143"></circle><circle class="pearl" r="2.190433937142651" cx="6.440581911774749" cy="19.57795138257092"></circle><circle class="pearl" r="2.190433937142651" cx="15.10273708455154" cy="3.8909774644866477"></circle><circle class="pearl" r="2.190433937142651" cx="20.833946229646862" cy="17.112242666106596"></circle><circle class="pearl" r="2.190433937142651" cx="3.6634707295578792" cy="12.081372495075817"></circle><circle class="pearl" r="2.190433937142651" cx="21.1462151053254" cy="9.123450087562194"></circle><circle class="pearl" r="2.190433937142651" cx="14.187116834584868" cy="21.553646746241665"></circle><circle class="pearl" r="2.190433937142651" cx="7.171845845081948" cy="4.898098459274186"></circle></g><text id="1" class="legendSampleValue" text-anchor="middle" transform="translate(45,8)" x="0" y="123.18676510134536" style="fill: black; font-size: 0.7rem;"> 600</text><g class="bright" cupRadius="15.491933384829668" width="30.983866769659336" height="30.983866769659336" pearlRadius="2.738042421428314" pearlCount="12" transform="translate(29.508066615170332,143.18676510134537)"><circle class="pool" r="15.491933384829668" cx="15.491933384829668" cy="15.491933384829668" style="stroke-width: 1; fill: rgb(127, 205, 187);"></circle><circle class="pearl" r="2.1904339371426516" cx="17.033011743384765" cy="11.01737610913958"></circle><circle class="pearl" r="2.1904339371426516" cx="11.029309432951333" cy="17.00347040031935"></circle><circle class="pearl" r="2.1904339371426516" cx="13.977981653444434" cy="3.724876288236054"></circle><circle class="pearl" r="2.1904339371426516" cx="18.741808845067855" cy="18.756462357333643"></circle><circle class="pearl" r="2.1904339371426516" cx="3.725529689195627" cy="13.971342248807428"></circle><circle class="pearl" r="2.1904339371426516" cx="26.98661348100194" cy="12.233596672509572"></circle><circle class="pearl" r="2.1904339371426516" cx="12.152198575888569" cy="26.968872613027877"></circle><circle class="pearl" r="2.1904339371426516" cx="6.524197378590721" cy="6.5101702816287865"></circle><circle class="pearl" r="2.1904339371426516" cx="26.508263068801252" cy="20.479674242239334"></circle><circle class="pearl" r="2.1904339371426516" cx="5.419021306595209" cy="22.679550094546478"></circle><circle class="pearl" r="2.1904339371426516" cx="22.76079804957651" cy="5.461881544509561"></circle><circle class="pearl" r="2.1904339371426516" cx="20.400071923945557" cy="26.535092423407907"></circle></g><text id="2" class="legendSampleValue" text-anchor="middle" transform="translate(45,8)" x="0" y="179.1706318710047" style="fill: black; font-size: 0.7rem;"> 900</text><g class="bright" cupRadius="17.88854381999832" width="35.77708763999664" height="35.77708763999664" pearlRadius="2.7380424214283137" pearlCount="16" transform="translate(27.11145618000168,199.1706318710047)"><circle class="pool" r="17.88854381999832" cx="17.88854381999832" cy="17.88854381999832" style="stroke-width: 1; fill: rgb(127, 205, 187);"></circle><circle class="pearl" r="2.190433937142651" cx="19.8046930625516" cy="19.706925044831756"></circle><circle class="pearl" r="2.190433937142651" cx="13.339172784724305" cy="23.858410298028698"></circle><circle class="pearl" r="2.190433937142651" cx="16.092791630714295" cy="11.113543243945612"></circle><circle class="pearl" r="2.190433937142651" cx="20.836129534048155" cy="27.499380517199565"></circle><circle class="pearl" r="2.190433937142651" cx="10.312657514553905" cy="16.56124087753138"></circle><circle class="pearl" r="2.190433937142651" cx="23.678755837700653" cy="13.13675787817294"></circle><circle class="pearl" r="2.190433937142651" cx="14.311679794483911" cy="31.765114841909277"></circle><circle class="pearl" r="2.190433937142651" cx="11.081450997216843" cy="4.99648955196875"></circle><circle class="pearl" r="2.190433937142651" cx="27.674351504393126" cy="20.796258814455655"></circle><circle class="pearl" r="2.190433937142651" cx="4.000488629236898" cy="21.40866477780026"></circle><circle class="pearl" r="2.190433937142651" cx="28.333596734388347" cy="7.01684061165493"></circle><circle class="pearl" r="2.190433937142651" cx="28.522531366621063" cy="28.62247591779055"></circle><circle class="pearl" r="2.190433937142651" cx="5.30391541992303" cy="10.377661215789304"></circle><circle class="pearl" r="2.190433937142651" cx="31.694235049536697" cy="13.980399213320233"></circle><circle class="pearl" r="2.190433937142651" cx="7.311073872078207" cy="28.66408585659018"></circle><circle class="pearl" r="2.190433937142651" cx="18.987039995684725" cy="3.684483203560177"></circle></g><text id="3" class="legendSampleValue" text-anchor="middle" transform="translate(45,8)" x="0" y="239.94771951100134" style="fill: black; font-size: 0.7rem;">1.2k</text><g class="bright" cupRadius="20" width="40" height="40" pearlRadius="2.7380424214283137" pearlCount="20" transform="translate(25,259.9477195110013)"><circle class="pool" r="20" cx="20" cy="20" style="stroke-width: 1; fill: rgb(127, 205, 187);"></circle><circle class="pearl" r="2.190433937142651" cx="22.480421380823074" cy="19.96094551607325"></circle><circle class="pearl" r="2.190433937142651" cx="14.554532211889109" cy="20.25858246523202"></circle><circle class="pearl" r="2.190433937142651" cx="21.718613402750453" cy="11.231225788085391"></circle><circle class="pearl" r="2.190433937142651" cx="25.13767186853209" cy="27.447308990534317"></circle><circle class="pearl" r="2.190433937142651" cx="6.622341466842937" cy="15.212813608895589"></circle><circle class="pearl" r="2.190433937142651" cx="28.49521909515808" cy="14.82158787688231"></circle><circle class="pearl" r="2.190433937142651" cx="17.504603283401977" cy="28.993209871734443"></circle><circle class="pearl" r="2.190433937142651" cx="14.13811847195522" cy="12.373399584276378"></circle><circle class="pearl" r="2.190433937142651" cx="31.11803529924844" cy="22.444175683247455"></circle><circle class="pearl" r="2.190433937142651" cx="10.013176726772668" cy="26.767604068489224"></circle><circle class="pearl" r="2.190433937142651" cx="25.1625299271706" cy="4.328500666167248"></circle><circle class="pearl" r="2.190433937142651" cx="27.782608687955303" cy="34.772930101052836"></circle><circle class="pearl" r="2.190433937142651" cx="8.036930275650786" cy="7.623092000895575"></circle><circle class="pearl" r="2.190433937142651" cx="36.040664285033515" cy="16.500106031740792"></circle><circle class="pearl" r="2.190433937142651" cx="11.3070075503718" cy="34.36126950601293"></circle><circle class="pearl" r="2.190433937142651" cx="16.81383473400994" cy="3.9061454691506903"></circle><circle class="pearl" r="2.190433937142651" cx="33.74247113697989" cy="29.87303346303284"></circle><circle class="pearl" r="2.190433937142651" cx="3.788525504185259" cy="22.343736665541265"></circle><circle class="pearl" r="2.190433937142651" cx="32.18050534208177" cy="7.787706818962306"></circle><circle class="pearl" r="2.190433937142651" cx="20.00567962395882" cy="36.34927596497569"></circle></g><text id="4" class="legendSampleValue" text-anchor="middle" transform="translate(45,8)" x="0" y="304.9477195110013" style="fill: black; font-size: 0.7rem;">1.5k</text></g></svg>