<?xml version="1.0" standalone="no"?>
<?xml-stylesheet xmlns="http://www.w3.org/2000/svg" type="text/css" href="style.css"?>
<svg id="syntheticVisC" class="default" xTitle="Percent Cat Owners" yTitle="Percent Dog Owners" rTitle="Population" chartTitle="Towns in Vizzyland" width="500" height="400" xmlns="http://www.w3.org/2000/svg"><rect class="background" width="500" height="400"></rect><text id="chartTitle" text-anchor="middle" transform="translate(250,20)" x="0" y="0" style="fill: black; font-size: 1.2rem;">Towns in Vizzyland</text><g id="yAxis" transform="translate(50,30)" fill="none" font-size="10" font-family="sans-serif" text-anchor="end"><path class="domain" stroke="currentColor" d="M-6,300H0V20H-6"></path><g class="tick" opacity="1" transform="translate(0,300)"><line stroke="currentColor" x2="-6"></line><text fill="currentColor" x="-9" dy="0.32em">0</text></g><g class="tick" opacity="1" transform="translate(0,272)"><line stroke="currentColor" x2="-6"></line><text fill="currentColor" x="-9" dy="0.32em">10</text></g><g class="tick" opacity="1" transform="translate(0,244)"><line stroke="currentColor" x2="-6"></line><text fill="currentColor" x="-9" dy="0.32em">20</text></g><g class="tick" opacity="1" transform="translate(0,216)"><line stroke="currentColor" x2="-6"></line><text fill="currentColor" x="-9" dy="0.32em">30</text></g><g class="tick" opacity="1" transform="translate(0,188)"><line stroke="currentColor" x2="-6"></line><text fill="currentColor" x="-9" dy="0.32em">40</text></g><g class="tick" opacity="1" transform="translate(0,160)"><line stroke="currentColor" x2="-6"></line><text fill="currentColor" x="-9" dy="0.32em">50</text></g><g class="tick" opacity="1" transform="translate(0,132)"><line stroke="currentColor" x2="-6"></line><text fill="currentColor" x="-9" dy="0.32em">60</text></g><g class="tick" opacity="1" transform="translate(0,104.00000000000001)"><line stroke="currentColor" x2="-6"></line><text fill="currentColor" x="-9" dy="0.32em">70</text></g><g class="tick" opacity="1" transform="translate(0,75.99999999999999)"><line stroke="currentColor" x2="-6"></line><text fill="currentColor" x="-9" dy="0.32em">80</text></g><g class="tick" opacity="1" transform="translate(0,47.99999999999999)"><line stroke="currentColor" x2="-6"></line><text fill="currentColor" x="-9" dy="0.32em">90</text></g><g class="tick" opacity="1" transform="translate(0,20)"><line stroke="currentColor" x2="-6"></line><text fill="currentColor" x="-9" dy="0.32em">100</text></g></g><g id="xAxis" transform="translate(60,360)" fill="none" font-size="10" font-family="sans-serif" text-anchor="middle"><path class="domain" stroke="currentColor" d="M20,6V0H320V6"></path><g class="tick" opacity="1" transform="translate(20,0)"><line stroke="currentColor" y2="6"></line><text fill="currentColor" y="9" dy="0.71em">0</text></g><g class="tick" opacity="1" transform="translate(50,0)"><line stroke="currentColor" y2="6"></line><text fill="currentColor" y="9" dy="0.71em">10</text></g><g class="tick" opacity="1" transform="translate(80,0)"><line stroke="currentColor" y2="6"></line><text fill="currentColor" y="9" dy="0.71em">20</text></g><g class="tick" opacity="1" transform="translate(109.99999999999997,0)"><line stroke="currentColor" y2="6"></line><text fill="currentColor" y="9" dy="0.71em">30</text></g><g class="tick" opacity="1" transform="translate(140,0)"><line stroke="currentColor" y2="6"></line><text fill="currentColor" y="9" dy="0.71em">40</text></g><g class="tick" opacity="1" transform="translate(169.99999999999997,0)"><line stroke="currentColor" y2="6"></line><text fill="currentColor" y="9" dy="0.71em">50</text></g><g class="tick" opacity="1" transform="translate(199.99999999999994,0)"><line stroke="currentColor" y2="6"></line><text fill="currentColor" y="9" dy="0.71em">60</text></g><g class="tick" opacity="1" transform="translate(230,0)"><line stroke="currentColor" y2="6"></line><text fill="currentColor" y="9" dy="0.71em">70</text></g><g class="tick" opacity="1" transform="translate(260,0)"><line stroke="currentColor" y2="6"></line><text fill="currentColor" y="9" dy="0.71em">80</text></g><g class="tick" opacity="1" transform="translate(290,0)"><line stroke="currentColor" y2="6"></line><text fill="currentColor" y="9" dy="0.71em">90</text></g><g class="tick" opacity="1" transform="translate(319.99999999999994,0)"><line stroke="currentColor" y2="6"></line><text fill="currentColor" y="9" dy="0.71em">100</text></g></g><g id="labels"><text id="xTitle" text-anchor="middle" transform="translate(250,350)" x="0" y="40" style="fill: black; font-size: 0.8rem;">Percent Cat Owners</text><g id="group-yTitle" transform="translate(60,190)"><text id="yTitle" text-anchor="middle" transform="rotate(-90)" y="-45" style="fill: black; font-size: 0.8rem;">Percent Dog Owners</text></g></g><g id="quadrant_lines" transform="translate(60,30)"><line id="verticalQuadrantLine" x1="170" y1="10" x2="170" y2="310" class="quadrantLine"></line><line id="horizontalQuadrantLine" x1="10" y1="160" x2="330" y2="160" class="quadrantLine"></line></g><g id="chart" transform="translate(60,30)"><g class="bobaCup bright" cupRadius="20" width="40" height="40" pearlRadius="2.7380424214283137" pearlCount="20" transform="translate(222.54217194730796,234.77202853589705)"><circle class="pool" r="20" cx="20" cy="20" style="stroke-width: 1; fill: rgb(29, 145, 192);"></circle><circle class="pearl" r="2.190433937142651" cx="22.480421380823074" cy="19.96094551607325"></circle><circle class="pearl" r="2.190433937142651" cx="14.554532211889109" cy="20.25858246523202"></circle><circle class="pearl" r="2.190433937142651" cx="21.718613402750453" cy="11.231225788085391"></circle><circle class="pearl" r="2.190433937142651" cx="25.13767186853209" cy="27.447308990534317"></circle><circle class="pearl" r="2.190433937142651" cx="6.622341466842937" cy="15.212813608895589"></circle><circle class="pearl" r="2.190433937142651" cx="28.49521909515808" cy="14.82158787688231"></circle><circle class="pearl" r="2.190433937142651" cx="17.504603283401977" cy="28.993209871734443"></circle><circle class="pearl" r="2.190433937142651" cx="14.13811847195522" cy="12.373399584276378"></circle><circle class="pearl" r="2.190433937142651" cx="31.11803529924844" cy="22.444175683247455"></circle><circle class="pearl" r="2.190433937142651" cx="10.013176726772668" cy="26.767604068489224"></circle><circle class="pearl" r="2.190433937142651" cx="25.1625299271706" cy="4.328500666167248"></circle><circle class="pearl" r="2.190433937142651" cx="27.782608687955303" cy="34.772930101052836"></circle><circle class="pearl" r="2.190433937142651" cx="8.036930275650786" cy="7.623092000895575"></circle><circle class="pearl" r="2.190433937142651" cx="36.040664285033515" cy="16.500106031740792"></circle><circle class="pearl" r="2.190433937142651" cx="11.3070075503718" cy="34.36126950601293"></circle><circle class="pearl" r="2.190433937142651" cx="16.81383473400994" cy="3.9061454691506903"></circle><circle class="pearl" r="2.190433937142651" cx="33.74247113697989" cy="29.87303346303284"></circle><circle class="pearl" r="2.190433937142651" cx="3.788525504185259" cy="22.343736665541265"></circle><circle class="pearl" r="2.190433937142651" cx="32.18050534208177" cy="7.787706818962306"></circle><circle class="pearl" r="2.190433937142651" cx="20.00567962395882" cy="36.34927596497569"></circle></g><g class="bobaCup bright" cupRadius="19.547359055164833" width="39.094718110329666" height="39.094718110329666" pearlRadius="2.7380424214283132" pearlCount="19" transform="translate(10.548424894236653,215.9285434173245)"><circle class="pool" r="19.547359055164833" cx="19.547359055164833" cy="19.547359055164833" style="stroke-width: 1; fill: rgb(127, 205, 187);"></circle><circle class="pearl" r="2.1904339371426507" cx="20.03131053541376" cy="19.49573029154839"></circle><circle class="pearl" r="2.1904339371426507" cx="15.662911584278122" cy="26.4117613605925"></circle><circle class="pearl" r="2.1904339371426507" cx="21.743470481049723" cy="11.034862480178653"></circle><circle class="pearl" r="2.1904339371426507" cx="23.599178692036077" cy="26.959982159983237"></circle><circle class="pearl" r="2.1904339371426507" cx="11.29008046394421" cy="19.79850611414081"></circle><circle class="pearl" r="2.1904339371426507" cx="27.424387640374363" cy="16.47088869836625"></circle><circle class="pearl" r="2.1904339371426507" cx="16.184541711922503" cy="34.36404682948384"></circle><circle class="pearl" r="2.1904339371426507" cx="14.040435214537776" cy="12.321335664886139"></circle><circle class="pearl" r="2.1904339371426507" cx="30.86391604308033" cy="23.677233877675047"></circle><circle class="pearl" r="2.1904339371426507" cx="5.145733182884928" cy="24.846923866670583"></circle><circle class="pearl" r="2.1904339371426507" cx="26.584091534194588" cy="4.961206398593137"></circle><circle class="pearl" r="2.1904339371426507" cx="24.12026521154506" cy="34.901576639878975"></circle><circle class="pearl" r="2.1904339371426507" cx="7.747976871410626" cy="7.613672570396166"></circle><circle class="pearl" r="2.1904339371426507" cx="35.30833576350875" cy="17.248413298799793"></circle><circle class="pearl" r="2.1904339371426507" cx="8.553703023416928" cy="32.05951840016792"></circle><circle class="pearl" r="2.1904339371426507" cx="17.065608821486194" cy="3.808905874997701"></circle><circle class="pearl" r="2.1904339371426507" cx="31.330442926662418" cy="31.493372039942617"></circle><circle class="pearl" r="2.1904339371426507" cx="3.820268769075869" cy="16.978392449194068"></circle><circle class="pearl" r="2.1904339371426507" cx="32.7697540635547" cy="9.678360778081672"></circle></g><g class="bobaCup bright" cupRadius="19.205175557111943" width="38.410351114223886" height="38.410351114223886" pearlRadius="2.7380424214283137" pearlCount="18" transform="translate(6.1818105799796115,120.15069422280305)"><circle class="pool" r="19.205175557111943" cx="19.205175557111943" cy="19.205175557111943" style="stroke-width: 1; fill: rgb(29, 145, 192);"></circle><circle class="pearl" r="2.190433937142651" cx="21.011246082325144" cy="18.876866564307115"></circle><circle class="pearl" r="2.190433937142651" cx="14.364637949228246" cy="23.30410877750015"></circle><circle class="pearl" r="2.190433937142651" cx="19.03372681925294" cy="11.21929693138602"></circle><circle class="pearl" r="2.190433937142651" cx="21.506397057019434" cy="26.741611517564817"></circle><circle class="pearl" r="2.190433937142651" cx="11.838094941423433" cy="15.729406246494086"></circle><circle class="pearl" r="2.190433937142651" cx="27.552176689904766" cy="14.36590306169156"></circle><circle class="pearl" r="2.190433937142651" cx="16.439301681157417" cy="32.97662139818033"></circle><circle class="pearl" r="2.190433937142651" cx="13.791224188182001" cy="5.157269579211732"></circle><circle class="pearl" r="2.190433937142651" cx="28.354237853557827" cy="22.64640637133601"></circle><circle class="pearl" r="2.190433937142651" cx="6.402768276735676" cy="23.872406729808247"></circle><circle class="pearl" r="2.190433937142651" cx="29.57062166662768" cy="6.688143990096378"></circle><circle class="pearl" r="2.190433937142651" cx="24.6249958712445" cy="33.979009743632446"></circle><circle class="pearl" r="2.190433937142651" cx="6.698402433702725" cy="8.823745992007085"></circle><circle class="pearl" r="2.190433937142651" cx="34.71179058460136" cy="17.850495106831872"></circle><circle class="pearl" r="2.190433937142651" cx="8.573385467013653" cy="31.548320142786974"></circle><circle class="pearl" r="2.190433937142651" cx="22.08624106070767" cy="3.8680545230111676"></circle><circle class="pearl" r="2.190433937142651" cx="31.43716146037443" cy="30.00231956898196"></circle><circle class="pearl" r="2.190433937142651" cx="3.87125864664511" cy="16.303071670149862"></circle></g><g class="bobaCup bright" cupRadius="18.32868200826761" width="36.65736401653522" height="36.65736401653522" pearlRadius="2.7380424214283146" pearlCount="17" transform="translate(267.7871283448658,173.9836354203318)"><circle class="pool" r="18.32868200826761" cx="18.32868200826761" cy="18.32868200826761" style="stroke-width: 1; fill: rgb(65, 182, 196);"></circle><circle class="pearl" r="2.1904339371426516" cx="18.30118425379607" cy="18.318617060874736"></circle><circle class="pearl" r="2.1904339371426516" cx="13.213287972522199" cy="24.304975194461022"></circle><circle class="pearl" r="2.1904339371426516" cx="15.751618330388746" cy="10.860271734961255"></circle><circle class="pearl" r="2.1904339371426516" cx="20.858381177803334" cy="25.762445267077535"></circle><circle class="pearl" r="2.1904339371426516" cx="10.538928068229911" cy="16.970538560421545"></circle><circle class="pearl" r="2.1904339371426516" cx="23.39166691027241" cy="12.351987374501892"></circle><circle class="pearl" r="2.1904339371426516" cx="15.689614866917074" cy="31.944631681575135"></circle><circle class="pearl" r="2.1904339371426516" cx="9.979550870641036" cy="5.662769756234639"></circle><circle class="pearl" r="2.1904339371426516" cx="26.064230608128977" cy="19.734571771132234"></circle><circle class="pearl" r="2.1904339371426516" cx="4.4142320776572666" cy="22.127674067433468"></circle><circle class="pearl" r="2.1904339371426516" cx="29.206063120805563" cy="7.227348963464622"></circle><circle class="pearl" r="2.1904339371426516" cx="26.682475849139966" cy="30.99220754034732"></circle><circle class="pearl" r="2.1904339371426516" cx="4.995774195129685" cy="11.436885377541275"></circle><circle class="pearl" r="2.1904339371426516" cx="32.623630660886164" cy="14.6012908438106"></circle><circle class="pearl" r="2.1904339371426516" cx="7.446181684164434" cy="29.42623904744595"></circle><circle class="pearl" r="2.1904339371426516" cx="19.905396973986342" cy="3.718667188307596"></circle><circle class="pearl" r="2.1904339371426516" cx="31.662010080049154" cy="25.21944289420632"></circle></g><g class="bobaCup bright" cupRadius="17.58140094757719" width="35.16280189515438" height="35.16280189515438" pearlRadius="2.7380424214283137" pearlCount="15" transform="translate(144.72723752317938,122.18163270526101)"><circle class="pool" r="17.58140094757719" cx="17.58140094757719" cy="17.58140094757719" style="stroke-width: 1; fill: rgb(65, 182, 196);"></circle><circle class="pearl" r="2.190433937142651" cx="18.831280959823005" cy="17.738494996621647"></circle><circle class="pearl" r="2.190433937142651" cx="13.16941655369193" cy="23.27331042579869"></circle><circle class="pearl" r="2.190433937142651" cx="16.429269273191903" cy="9.81507764239791"></circle><circle class="pearl" r="2.190433937142651" cx="20.42200466016331" cy="26.081199195154756"></circle><circle class="pearl" r="2.190433937142651" cx="11.166636713945815" cy="15.767612613029852"></circle><circle class="pearl" r="2.190433937142651" cx="24.02411696211996" cy="11.766233568827834"></circle><circle class="pearl" r="2.190433937142651" cx="14.424291593562291" cy="31.22629334280683"></circle><circle class="pearl" r="2.190433937142651" cx="9.977338180281118" cy="5.380187742056393"></circle><circle class="pearl" r="2.190433937142651" cx="26.221413333833453" cy="20.549432387360486"></circle><circle class="pearl" r="2.190433937142651" cx="4.727039462449928" cy="20.615292239937197"></circle><circle class="pearl" r="2.190433937142651" cx="22.028919187925553" cy="4.222560960673377"></circle><circle class="pearl" r="2.190433937142651" cx="27.94821908648289" cy="28.130492540134018"></circle><circle class="pearl" r="2.190433937142651" cx="4.874617221507613" cy="11.136431940021726"></circle><circle class="pearl" r="2.190433937142651" cx="31.25602150154617" cy="14.591731719005463"></circle><circle class="pearl" r="2.190433937142651" cx="7.211468866742816" cy="28.12821862996495"></circle></g><g class="bobaCup bright" cupRadius="16.724299180841097" width="33.448598361682194" height="33.448598361682194" pearlRadius="2.7380424214283132" pearlCount="14" transform="translate(188.4886030438094,135.18623542603135)"><circle class="pool" r="16.724299180841097" cx="16.724299180841097" cy="16.724299180841097" style="stroke-width: 1; fill: rgb(127, 205, 187);"></circle><circle class="pearl" r="2.1904339371426507" cx="21.21848199339829" cy="12.723886345115712"></circle><circle class="pearl" r="2.1904339371426507" cx="13.327541957093326" cy="22.248781189282035"></circle><circle class="pearl" r="2.1904339371426507" cx="13.246201994576234" cy="12.294027893344179"></circle><circle class="pearl" r="2.1904339371426507" cx="21.09635156416205" cy="20.690746670777653"></circle><circle class="pearl" r="2.1904339371426507" cx="6.967919061564252" cy="17.441942260958925"></circle><circle class="pearl" r="2.1904339371426507" cx="26.565695305373165" cy="6.8528515256255345"></circle><circle class="pearl" r="2.1904339371426507" cx="15.966142303740792" cy="29.78068166331367"></circle><circle class="pearl" r="2.1904339371426507" cx="11.2890488832271" cy="4.558567772150101"></circle><circle class="pearl" r="2.1904339371426507" cx="28.887601802292412" cy="22.166612062797213"></circle><circle class="pearl" r="2.1904339371426507" cx="6.084168442304194" cy="25.411857870201192"></circle><circle class="pearl" r="2.1904339371426507" cx="19.236400091619796" cy="3.8404667121959113"></circle><circle class="pearl" r="2.1904339371426507" cx="23.79753002343491" cy="28.22849556728816"></circle><circle class="pearl" r="2.1904339371426507" cx="5.2162403512947355" cy="9.65934981054984"></circle><circle class="pearl" r="2.1904339371426507" cx="29.607788976322876" cy="14.20994384288211"></circle></g><g class="bobaCup bright" cupRadius="16.608622207886842" width="33.217244415773685" height="33.217244415773685" pearlRadius="2.738042421428314" pearlCount="14" transform="translate(197.52077263421714,216.50218285111262)"><circle class="pool" r="16.608622207886842" cx="16.608622207886842" cy="16.608622207886842" style="stroke-width: 1; fill: rgb(65, 182, 196);"></circle><circle class="pearl" r="2.1904339371426516" cx="20.667719016765126" cy="12.3495866082052"></circle><circle class="pearl" r="2.1904339371426516" cx="13.128396619233893" cy="21.62427968129122"></circle><circle class="pearl" r="2.1904339371426516" cx="12.685534817964449" cy="12.415729612249294"></circle><circle class="pearl" r="2.1904339371426516" cx="20.91781149363788" cy="20.308648015027813"></circle><circle class="pearl" r="2.1904339371426516" cx="6.182416445120992" cy="17.72479382819098"></circle><circle class="pearl" r="2.1904339371426516" cx="26.378520624476653" cy="6.828209349967407"></circle><circle class="pearl" r="2.1904339371426516" cx="15.46272646993059" cy="29.52694405143883"></circle><circle class="pearl" r="2.1904339371426516" cx="11.091701142720941" cy="4.593780856621018"></circle><circle class="pearl" r="2.1904339371426516" cx="28.583908166817803" cy="22.236603063967788"></circle><circle class="pearl" r="2.1904339371426516" cx="6.863999794633498" cy="26.40738468202694"></circle><circle class="pearl" r="2.1904339371426516" cx="19.038005345025333" cy="3.829359763387512"></circle><circle class="pearl" r="2.1904339371426516" cx="23.32899653032339" cy="28.146147746393794"></circle><circle class="pearl" r="2.1904339371426516" cx="5.103283058994446" cy="9.815971410536223"></circle><circle class="pearl" r="2.1904339371426516" cx="29.395202083844115" cy="14.229252901920582"></circle></g><g class="bobaCup bright" cupRadius="16.558083356269076" width="33.11616671253815" height="33.11616671253815" pearlRadius="2.7380424214283132" pearlCount="14" transform="translate(78.77428985821494,118.78042206712611)"><circle class="pool" r="16.558083356269076" cx="16.558083356269076" cy="16.558083356269076" style="stroke-width: 1; fill: rgb(65, 182, 196);"></circle><circle class="pearl" r="2.1904339371426507" cx="20.530057116670736" cy="12.258263955696613"></circle><circle class="pearl" r="2.1904339371426507" cx="12.952131499989743" cy="21.288654911951166"></circle><circle class="pearl" r="2.1904339371426507" cx="12.569298191350478" cy="12.522701733465535"></circle><circle class="pearl" r="2.1904339371426507" cx="20.79926263119256" cy="20.21763488652562"></circle><circle class="pearl" r="2.1904339371426507" cx="5.7864924312477655" cy="17.797999499364668"></circle><circle class="pearl" r="2.1904339371426507" cx="26.28785686004193" cy="6.810984672363687"></circle><circle class="pearl" r="2.1904339371426507" cx="15.223895042578219" cy="29.41160400546367"></circle><circle class="pearl" r="2.1904339371426507" cx="11.009692980929643" cy="4.607989661486571"></circle><circle class="pearl" r="2.1904339371426507" cx="28.449411317413162" cy="22.2690175398706"></circle><circle class="pearl" r="2.1904339371426507" cx="6.842284460715814" cy="26.3153195643282"></circle><circle class="pearl" r="2.1904339371426507" cx="18.952717936167975" cy="3.8247945712365476"></circle><circle class="pearl" r="2.1904339371426507" cx="23.105376914867055" cy="28.11601133320259"></circle><circle class="pearl" r="2.1904339371426507" cx="5.069108670802987" cy="9.85288600608963"></circle><circle class="pearl" r="2.1904339371426507" cx="29.29951909005717" cy="14.219868441873343"></circle></g><g class="bobaCup bright" cupRadius="16.122235070417716" width="32.24447014083543" height="32.24447014083543" pearlRadius="2.7380424214283137" pearlCount="13" transform="translate(40.98637154025889,48.85338087144379)"><circle class="pool" r="16.122235070417716" cx="16.122235070417716" cy="16.122235070417716" style="stroke-width: 1; fill: rgb(127, 205, 187);"></circle><circle class="pearl" r="2.190433937142651" cx="21.013236579234963" cy="16.793419142957223"></circle><circle class="pearl" r="2.190433937142651" cx="14.697902973628867" cy="21.355455473883634"></circle><circle class="pearl" r="2.190433937142651" cx="16.253988576761774" cy="10.640575840894282"></circle><circle class="pearl" r="2.190433937142651" cx="24.442264314257724" cy="24.13945144792201"></circle><circle class="pearl" r="2.190433937142651" cx="9.799873651853686" cy="15.232133614569864"></circle><circle class="pearl" r="2.190433937142651" cx="27.264068055824" cy="9.710780920061"></circle><circle class="pearl" r="2.190433937142651" cx="9.236410212995066" cy="27.04929904356923"></circle><circle class="pearl" r="2.190433937142651" cx="11.742945038392703" cy="4.2568929961740025"></circle><circle class="pearl" r="2.190433937142651" cx="28.532079040699973" cy="17.531009330873598"></circle><circle class="pearl" r="2.190433937142651" cx="4.40078672418605" cy="20.982564765061202"></circle><circle class="pearl" r="2.190433937142651" cx="21.29439959378353" cy="4.502883714722914"></circle><circle class="pearl" r="2.190433937142651" cx="17.880920006022013" cy="28.497537268105173"></circle><circle class="pearl" r="2.190433937142651" cx="5.481812186261614" cy="8.659688155959522"></circle></g><g class="bobaCup bright" cupRadius="15.734153604435207" width="31.468307208870414" height="31.468307208870414" pearlRadius="2.738042421428314" pearlCount="12" transform="translate(294.0498168957202,83.2386177063913)"><circle class="pool" r="15.734153604435207" cx="15.734153604435207" cy="15.734153604435207" style="stroke-width: 1; fill: rgb(65, 182, 196);"></circle><circle class="pearl" r="2.1904339371426516" cx="17.620478850522108" cy="11.454061673498014"></circle><circle class="pearl" r="2.1904339371426516" cx="11.469159547367578" cy="17.719364926607486"></circle><circle class="pearl" r="2.1904339371426516" cx="14.221431075734827" cy="4.218098578246705"></circle><circle class="pearl" r="2.1904339371426516" cx="19.311043180091872" cy="19.266992868894178"></circle><circle class="pearl" r="2.1904339371426516" cx="4.272602382136376" cy="14.237935517656416"></circle><circle class="pearl" r="2.1904339371426516" cx="27.314624012542655" cy="11.787721031849589"></circle><circle class="pearl" r="2.1904339371426516" cx="11.992777789085812" cy="27.36628667487708"></circle><circle class="pearl" r="2.1904339371426516" cx="6.584607848304735" cy="6.584509568570624"></circle><circle class="pearl" r="2.1904339371426516" cx="27.287843537834448" cy="19.7825372384384"></circle><circle class="pearl" r="2.1904339371426516" cx="5.371129762165179" cy="22.88806740615616"></circle><circle class="pearl" r="2.1904339371426516" cx="22.686150062521154" cy="5.26987294017219"></circle><circle class="pearl" r="2.1904339371426516" cx="19.986469585563448" cy="27.232073828153926"></circle></g><g class="bobaCup bright" cupRadius="15.674469534325313" width="31.348939068650626" height="31.348939068650626" pearlRadius="2.738042421428314" pearlCount="12" transform="translate(299.1333349596958,111.24226553038768)"><circle class="pool" r="15.674469534325313" cx="15.674469534325313" cy="15.674469534325313" style="stroke-width: 1; fill: rgb(65, 182, 196);"></circle><circle class="pearl" r="2.1904339371426516" cx="17.433686233067288" cy="11.337409904852688"></circle><circle class="pearl" r="2.1904339371426516" cx="11.344286500858285" cy="17.49143229124574"></circle><circle class="pearl" r="2.1904339371426516" cx="14.154675400523423" cy="4.0459980848234425"></circle><circle class="pearl" r="2.1904339371426516" cx="19.166079908369824" cy="19.141815992643018"></circle><circle class="pearl" r="2.1904339371426516" cx="4.074865535672035" cy="14.164136120932579"></circle><circle class="pearl" r="2.1904339371426516" cx="27.229891539143924" cy="11.871557186722194"></circle><circle class="pearl" r="2.1904339371426516" cx="11.990313076161055" cy="27.259099480993026"></circle><circle class="pearl" r="2.1904339371426516" cx="6.5676746518521405" cy="6.567634918581021"></circle><circle class="pearl" r="2.1904339371426516" cx="27.12742373282794" cy="19.865880199172697"></circle><circle class="pearl" r="2.1904339371426516" cx="5.360115059074406" cy="22.792446768674008"></circle><circle class="pearl" r="2.1904339371426516" cx="22.675487264372745" cy="5.301115398375982"></circle><circle class="pearl" r="2.1904339371426516" cx="19.98355756687091" cy="27.094272358625265"></circle></g><g class="bobaCup bright" cupRadius="15.491631058334445" width="30.98326211666889" height="30.98326211666889" pearlRadius="2.7380424214283137" pearlCount="12" transform="translate(245.94395598823692,46.61011422963739)"><circle class="pool" r="15.491631058334445" cx="15.491631058334445" cy="15.491631058334445" style="stroke-width: 1; fill: rgb(127, 205, 187);"></circle><circle class="pearl" r="2.190433937142651" cx="17.032801102255906" cy="11.016887700176719"></circle><circle class="pearl" r="2.190433937142651" cx="11.028887943897452" cy="17.003110266035545"></circle><circle class="pearl" r="2.190433937142651" cx="13.977770545272726" cy="3.724868785224496"></circle><circle class="pearl" r="2.190433937142651" cx="18.741035722778864" cy="18.75574113729894"></circle><circle class="pearl" r="2.190433937142651" cx="3.725524647439469" cy="13.971105913776432"></circle><circle class="pearl" r="2.190433937142651" cx="26.986309111337828" cy="12.234722575181308"></circle><circle class="pearl" r="2.190433937142651" cx="12.15294014673568" cy="26.968491108144615"></circle><circle class="pearl" r="2.190433937142651" cx="6.524151452852314" cy="6.510056698073386"></circle><circle class="pearl" r="2.190433937142651" cx="26.506505091711624" cy="20.482712083311696"></circle><circle class="pearl" r="2.190433937142651" cx="5.41938570581873" cy="22.679869101836964"></circle><circle class="pearl" r="2.190433937142651" cx="22.761506135585297" cy="5.462458482890087"></circle><circle class="pearl" r="2.190433937142651" cx="20.40283408034199" cy="26.53344735580093"></circle></g><g class="bobaCup bright" cupRadius="15.423823784427608" width="30.847647568855216" height="30.847647568855216" pearlRadius="2.738042421428314" pearlCount="12" transform="translate(304.46040631654574,24.491377213395257)"><circle class="pool" r="15.423823784427608" cx="15.423823784427608" cy="15.423823784427608" style="stroke-width: 1; fill: rgb(29, 145, 192);"></circle><circle class="pearl" r="2.1904339371426516" cx="17.01056440088484" cy="10.924352327918504"></circle><circle class="pearl" r="2.1904339371426516" cx="10.952072615101544" cy="16.936406319429473"></circle><circle class="pearl" r="2.1904339371426516" cx="13.937932623460348" cy="3.722463519516966"></circle><circle class="pearl" r="2.1904339371426516" cx="18.604780993472257" cy="18.6287372014852"></circle><circle class="pearl" r="2.1904339371426516" cx="3.7237269693522532" cy="13.924936156665769"></circle><circle class="pearl" r="2.1904339371426516" cx="26.919208935595293" cy="12.510107758065093"></circle><circle class="pearl" r="2.1904339371426516" cx="12.322748694511773" cy="26.88196131435775"></circle><circle class="pearl" r="2.1904339371426516" cx="6.512295736247232" cy="6.485702428225663"></circle><circle class="pearl" r="2.1904339371426516" cx="26.222317760855045" cy="20.81960568289695"></circle><circle class="pearl" r="2.1904339371426516" cx="5.502572479112812" cy="22.7515688253408"></circle><circle class="pearl" r="2.1904339371426516" cx="22.939803114981856" cy="5.605902135515432"></circle><circle class="pearl" r="2.1904339371426516" cx="20.665143178389357" cy="26.27906178369507"></circle></g><g class="bobaCup bright" cupRadius="15.151470762824701" width="30.302941525649402" height="30.302941525649402" pearlRadius="2.7380424214283132" pearlCount="11" transform="translate(152.01106346418493,116.7077498857514)"><circle class="pool" r="15.151470762824701" cx="15.151470762824701" cy="15.151470762824701" style="stroke-width: 1; fill: rgb(127, 205, 187);"></circle><circle class="pearl" r="2.1904339371426507" cx="19.474777787894197" cy="14.951315949482959"></circle><circle class="pearl" r="2.1904339371426507" cx="12.189285285235307" cy="18.119295352810905"></circle><circle class="pearl" r="2.1904339371426507" cx="13.846278811540015" cy="9.309634498479266"></circle><circle class="pearl" r="2.1904339371426507" cx="20.200458640379292" cy="24.800960807768973"></circle><circle class="pearl" r="2.1904339371426507" cx="5.149179138716702" cy="14.299391644401398"></circle><circle class="pearl" r="2.1904339371426507" cx="25.8086336707773" cy="10.166346834474965"></circle><circle class="pearl" r="2.1904339371426507" cx="12.401257005985297" cy="26.40052573959691"></circle><circle class="pearl" r="2.1904339371426507" cx="6.4269268247772695" cy="6.414724542399694"></circle><circle class="pearl" r="2.1904339371426507" cx="26.04025178690875" cy="19.414085261434085"></circle><circle class="pearl" r="2.1904339371426507" cx="5.53088606963322" cy="22.461700056252774"></circle><circle class="pearl" r="2.1904339371426507" cx="20.218383148063396" cy="4.523067086817675"></circle></g><g class="bobaCup bright" cupRadius="15.011609896859122" width="30.023219793718244" height="30.023219793718244" pearlRadius="2.7380424214283137" pearlCount="11" transform="translate(258.99077287756865,119.93012309555239)"><circle class="pool" r="15.011609896859122" cx="15.011609896859122" cy="15.011609896859122" style="stroke-width: 1; fill: rgb(29, 145, 192);"></circle><circle class="pearl" r="2.190433937142651" cx="19.194387152474736" cy="15.00825220742399"></circle><circle class="pearl" r="2.190433937142651" cx="11.56930219684335" cy="17.225947107823007"></circle><circle class="pearl" r="2.190433937142651" cx="13.75853607330018" cy="9.2595542487597"></circle><circle class="pearl" r="2.190433937142651" cx="20.64088591568294" cy="25.277052921943312"></circle><circle class="pearl" r="2.190433937142651" cx="4.219496284879686" cy="14.045767549195933"></circle><circle class="pearl" r="2.190433937142651" cx="25.620581819843654" cy="10.320178784695168"></circle><circle class="pearl" r="2.190433937142651" cx="12.756828506432358" cy="26.202193638257494"></circle><circle class="pearl" r="2.190433937142651" cx="6.4007862298998095" cy="6.36590488500152"></circle><circle class="pearl" r="2.190433937142651" cx="25.74243463810757" cy="19.315039887838214"></circle><circle class="pearl" r="2.190433937142651" cx="5.71344355277235" cy="22.605995357881717"></circle><circle class="pearl" r="2.190433937142651" cx="20.159363599624054" cy="4.56094796257657"></circle></g><g class="bobaCup bright" cupRadius="14.77253020058692" width="29.54506040117384" height="29.54506040117384" pearlRadius="2.7380424214283132" pearlCount="11" transform="translate(10.665633215631617,178.03929316780597)"><circle class="pool" r="14.77253020058692" cx="14.77253020058692" cy="14.77253020058692" style="stroke-width: 1; fill: rgb(29, 145, 192);"></circle><circle class="pearl" r="2.1904339371426507" cx="18.70442588461801" cy="14.978793329891543"></circle><circle class="pearl" r="2.1904339371426507" cx="11.064826963680016" cy="16.60455923730358"></circle><circle class="pearl" r="2.1904339371426507" cx="13.711704081015153" cy="8.928591704055291"></circle><circle class="pearl" r="2.1904339371426507" cx="20.7280514580001" cy="24.6406610314305"></circle><circle class="pearl" r="2.1904339371426507" cx="3.6884857501126076" cy="13.716940331456042"></circle><circle class="pearl" r="2.1904339371426507" cx="25.327687778582433" cy="10.72029636764054"></circle><circle class="pearl" r="2.1904339371426507" cx="12.976927301833397" cy="25.784803212799655"></circle><circle class="pearl" r="2.1904339371426507" cx="6.372708736242951" cy="6.271272195861148"></circle><circle class="pearl" r="2.1904339371426507" cx="25.37386343532255" cy="18.659242833901843"></circle><circle class="pearl" r="2.1904339371426507" cx="5.890432957639825" cy="22.592764184039556"></circle><circle class="pearl" r="2.1904339371426507" cx="20.354050641979352" cy="4.74574349168872"></circle></g><g class="bobaCup bright" cupRadius="14.730951372389791" width="29.461902744779582" height="29.461902744779582" pearlRadius="2.7380424214283137" pearlCount="11" transform="translate(263.0835158111442,185.75519516568167)"><circle class="pool" r="14.730951372389791" cx="14.730951372389791" cy="14.730951372389791" style="stroke-width: 1; fill: rgb(29, 145, 192);"></circle><circle class="pearl" r="2.190433937142651" cx="18.66392092022388" cy="14.967157461936774"></circle><circle class="pearl" r="2.190433937142651" cx="11.046006679511931" cy="16.59098976217345"></circle><circle class="pearl" r="2.190433937142651" cx="13.655218645522435" cy="8.967822740192208"></circle><circle class="pearl" r="2.190433937142651" cx="20.760552326696455" cy="24.520646316909037"></circle><circle class="pearl" r="2.190433937142651" cx="3.6878931583814616" cy="13.68514295139602"></circle><circle class="pearl" r="2.190433937142651" cx="25.227632939484767" cy="10.62584895183101"></circle><circle class="pearl" r="2.190433937142651" cx="13.043591525830205" cy="25.714220937445848"></circle><circle class="pearl" r="2.190433937142651" cx="6.371446259576935" cy="6.252387622553266"></circle><circle class="pearl" r="2.190433937142651" cx="25.306347425881373" cy="18.554360650539007"></circle><circle class="pearl" r="2.190433937142651" cx="5.9462740934908265" cy="22.62789651304553"></circle><circle class="pearl" r="2.190433937142651" cx="20.22517573537585" cy="4.713667175411127"></circle></g><g class="bobaCup bright" cupRadius="14.242653278946744" width="28.485306557893487" height="28.485306557893487" pearlRadius="2.7380424214283132" pearlCount="10" transform="translate(241.64032891458217,12.37224640882074)"><circle class="pool" r="14.242653278946744" cx="14.242653278946744" cy="14.242653278946744" style="stroke-width: 1; fill: rgb(65, 182, 196);"></circle><circle class="pearl" r="2.1904339371426507" cx="17.696707301919044" cy="12.270615814405472"></circle><circle class="pearl" r="2.1904339371426507" cx="11.078851009683552" cy="16.228442144930142"></circle><circle class="pearl" r="2.1904339371426507" cx="14.444088247218621" cy="4.942840429898897"></circle><circle class="pearl" r="2.1904339371426507" cx="21.488581494503094" cy="22.853646762129227"></circle><circle class="pearl" r="2.1904339371426507" cx="3.6803683425821196" cy="13.32419188739925"></circle><circle class="pearl" r="2.1904339371426507" cx="22.219009917892055" cy="6.093761802255394"></circle><circle class="pearl" r="2.1904339371426507" cx="13.762331532585938" cy="24.826481797595005"></circle><circle class="pearl" r="2.1904339371426507" cx="6.5227790721248935" cy="5.9243867984764185"></circle><circle class="pearl" r="2.1904339371426507" cx="24.76400319683349" cy="15.658815400930408"></circle><circle class="pearl" r="2.1904339371426507" cx="6.259529034993707" cy="22.38696713085581"></circle></g><g class="bobaCup bright" cupRadius="14.19187116810933" width="28.38374233621866" height="28.38374233621866" pearlRadius="2.738042421428314" pearlCount="10" transform="translate(300.1649797385832,285.80812883189066)"><circle class="pool" r="14.19187116810933" cx="14.19187116810933" cy="14.19187116810933" style="stroke-width: 1; fill: rgb(127, 205, 187);"></circle><circle class="pearl" r="2.1904339371426516" cx="17.601594138197594" cy="12.171167465325718"></circle><circle class="pearl" r="2.1904339371426516" cx="11.08904572387076" cy="16.20226247906812"></circle><circle class="pearl" r="2.1904339371426516" cx="14.37646222510876" cy="4.810717849014082"></circle><circle class="pearl" r="2.1904339371426516" cx="21.471259063062007" cy="22.723911137065695"></circle><circle class="pearl" r="2.1904339371426516" cx="3.6762739843326977" cy="13.340652496490089"></circle><circle class="pearl" r="2.1904339371426516" cx="22.112465380524043" cy="6.066627575460366"></circle><circle class="pearl" r="2.1904339371426516" cx="13.754211479535646" cy="24.726269061658087"></circle><circle class="pearl" r="2.1904339371426516" cx="6.47477962983445" cy="5.932275112878694"></circle><circle class="pearl" r="2.1904339371426516" cx="24.672072435170836" cy="15.505712920735448"></circle><circle class="pearl" r="2.1904339371426516" cx="6.264166778897561" cy="22.312329289321507"></circle></g><g class="bobaCup bright" cupRadius="13.595643850582206" width="27.191287701164413" height="27.191287701164413" pearlRadius="2.738042421428314" pearlCount="9" transform="translate(207.43945200771896,184.00966466375905)"><circle class="pool" r="13.595643850582206" cx="13.595643850582206" cy="13.595643850582206" style="stroke-width: 1; fill: rgb(65, 182, 196);"></circle><circle class="pearl" r="2.1904339371426516" cx="16.83075985535416" cy="11.836651971310017"></circle><circle class="pearl" r="2.1904339371426516" cx="10.567137313123286" cy="15.88939176385253"></circle><circle class="pearl" r="2.1904339371426516" cx="13.652087044939725" cy="3.6508403928610513"></circle><circle class="pearl" r="2.1904339371426516" cx="18.932934685083776" cy="22.44911424894362"></circle><circle class="pearl" r="2.1904339371426516" cx="3.656545258826569" cy="13.197806442027598"></circle><circle class="pearl" r="2.1904339371426516" cx="21.016553675625953" cy="5.854631957564353"></circle><circle class="pearl" r="2.1904339371426516" cx="11.080830637724004" cy="23.305955245733475"></circle><circle class="pearl" r="2.1904339371426516" cx="6.074939203818351" cy="5.920267427109861"></circle><circle class="pearl" r="2.1904339371426516" cx="23.323734895472885" cy="16.014085569559423"></circle></g><g class="bobaCup bright" cupRadius="13.271608826520445" width="26.54321765304089" height="26.54321765304089" pearlRadius="2.738042421428313" pearlCount="9" transform="translate(8.43352162260042,38.39253452325731)"><circle class="pool" r="13.271608826520445" cx="13.271608826520445" cy="13.271608826520445" style="stroke-width: 1; fill: rgb(29, 145, 192);"></circle><circle class="pearl" r="2.1904339371426502" cx="15.295380368420181" cy="11.24618571478094"></circle><circle class="pearl" r="2.1904339371426502" cx="9.872792697022442" cy="16.66245663354603"></circle><circle class="pearl" r="2.1904339371426502" cx="13.33966058685731" cy="3.6508977014848907"></circle><circle class="pearl" r="2.1904339371426502" cx="20.61859373459624" cy="20.673370097132423"></circle><circle class="pearl" r="2.1904339371426502" cx="3.6517743177870536" cy="13.104581328653328"></circle><circle class="pearl" r="2.1904339371426502" cx="20.506768462420833" cy="5.7963235216050855"></circle><circle class="pearl" r="2.1904339371426502" cx="13.412773691551463" cy="22.891743645756826"></circle><circle class="pearl" r="2.1904339371426502" cx="6.010788702970615" cy="5.813052511501439"></circle><circle class="pearl" r="2.1904339371426502" cx="22.89245492758895" cy="13.23923024185143"></circle></g><g class="bobaCup bright" cupRadius="13.234377961396413" width="26.468755922792827" height="26.468755922792827" pearlRadius="2.738042421428314" pearlCount="9" transform="translate(196.5203619044792,66.54929170222267)"><circle class="pool" r="13.234377961396413" cx="13.234377961396413" cy="13.234377961396413" style="stroke-width: 1; fill: rgb(127, 205, 187);"></circle><circle class="pearl" r="2.1904339371426516" cx="15.239119372321362" cy="11.22987924046448"></circle><circle class="pearl" r="2.1904339371426516" cx="9.824502618728715" cy="16.635680674038163"></circle><circle class="pearl" r="2.1904339371426516" cx="13.300849777474074" cy="3.6508901623783427"></circle><circle class="pearl" r="2.1904339371426516" cx="20.547315362981852" cy="20.614053936189997"></circle><circle class="pearl" r="2.1904339371426516" cx="3.651617093688165" cy="13.080564117360797"></circle><circle class="pearl" r="2.1904339371426516" cx="20.43523928914103" cy="5.781211954042677"></circle><circle class="pearl" r="2.1904339371426516" cx="13.360109837509967" cy="22.817435429225885"></circle><circle class="pearl" r="2.1904339371426516" cx="6.005278117968864" cy="5.799575695934712"></circle><circle class="pearl" r="2.1904339371426516" cx="22.818014222126962" cy="13.212266131374788"></circle></g><g class="bobaCup bright" cupRadius="13.112161641729967" width="26.224323283459935" height="26.224323283459935" pearlRadius="2.7380424214283137" pearlCount="9" transform="translate(274.25723209172094,82.84806299175283)"><circle class="pool" r="13.112161641729967" cx="13.112161641729967" cy="13.112161641729967" style="stroke-width: 1; fill: rgb(127, 205, 187);"></circle><circle class="pearl" r="2.190433937142651" cx="15.052335920398257" cy="11.178784159157997"></circle><circle class="pearl" r="2.190433937142651" cx="9.660632133575666" cy="16.552953178998184"></circle><circle class="pearl" r="2.190433937142651" cx="13.173706477480875" cy="3.6508676665277484"></circle><circle class="pearl" r="2.190433937142651" cx="20.31359476820258" cy="20.418999448526087"></circle><circle class="pearl" r="2.190433937142651" cx="3.6512052056377726" cy="12.999737044287302"></circle><circle class="pearl" r="2.190433937142651" cx="20.200923244397078" cy="5.732098775946437"></circle><circle class="pearl" r="2.190433937142651" cx="13.188992420205473" cy="22.573374957786207"></circle><circle class="pearl" r="2.190433937142651" cx="5.9878450850942055" cy="5.755028742984512"></circle><circle class="pearl" r="2.190433937142651" cx="22.57359366120367" cy="13.125110387854887"></circle></g><g class="bobaCup bright" cupRadius="13.054284606460111" width="26.108569212920223" height="26.108569212920223" pearlRadius="2.7380424214283137" pearlCount="9" transform="translate(270.3854170778769,192.5297133942862)"><circle class="pool" r="13.054284606460111" cx="13.054284606460111" cy="13.054284606460111" style="stroke-width: 1; fill: rgb(127, 205, 187);"></circle><circle class="pearl" r="2.190433937142651" cx="14.962496874776448" cy="11.156128891978174"></circle><circle class="pearl" r="2.190433937142651" cx="9.57967058358681" cy="16.517171478897083"></circle><circle class="pearl" r="2.190433937142651" cx="13.113594869342252" cy="3.650857963087093"></circle><circle class="pearl" r="2.190433937142651" cx="20.203045697953346" cy="20.326453002509947"></circle><circle class="pearl" r="2.190433937142651" cx="3.6510609993478997" cy="12.960377217957065"></circle><circle class="pearl" r="2.190433937142651" cx="20.09025951775929" cy="5.709126622775857"></circle><circle class="pearl" r="2.190433937142651" cx="13.10913590416174" cy="22.45773074715959"></circle><circle class="pearl" r="2.190433937142651" cx="5.979978863486487" cy="5.73374788726805"></circle><circle class="pearl" r="2.190433937142651" cx="22.457810571338662" cy="13.084691542855664"></circle></g><g class="bobaCup bright" cupRadius="12.831261629367328" width="25.662523258734655" height="25.662523258734655" pearlRadius="2.738042421428314" pearlCount="8" transform="translate(7.168738370632672,129.21979663594053)"><circle class="pool" r="12.831261629367328" cx="12.831261629367328" cy="12.831261629367328" style="stroke-width: 1; fill: rgb(65, 182, 196);"></circle><circle class="pearl" r="2.1904339371426516" cx="14.451609872870993" cy="12.78798696371884"></circle><circle class="pearl" r="2.1904339371426516" cx="7.6600719412816325" cy="19.147345923162973"></circle><circle class="pearl" r="2.1904339371426516" cx="15.00893379128034" cy="3.8368664734983757"></circle><circle class="pearl" r="2.1904339371426516" cx="21.402418540616818" cy="16.7385523594172"></circle><circle class="pearl" r="2.1904339371426516" cx="3.665194913820408" cy="12.222023966685635"></circle><circle class="pearl" r="2.1904339371426516" cx="21.336574812994694" cy="8.723701070278791"></circle><circle class="pearl" r="2.1904339371426516" cx="15.205604047256482" cy="21.79020822533513"></circle><circle class="pearl" r="2.1904339371426516" cx="7.099282784866653" cy="5.002189845505873"></circle></g><g class="bobaCup bright" cupRadius="12.695472242235354" width="25.390944484470708" height="25.390944484470708" pearlRadius="2.7380424214283137" pearlCount="8" transform="translate(107.12879254468294,279.32640293799716)"><circle class="pool" r="12.695472242235354" cx="12.695472242235354" cy="12.695472242235354" style="stroke-width: 1; fill: rgb(29, 145, 192);"></circle><circle class="pearl" r="2.190433937142651" cx="14.168313611258675" cy="12.857003789324214"></circle><circle class="pearl" r="2.190433937142651" cx="6.697915848863267" cy="19.462512463974047"></circle><circle class="pearl" r="2.190433937142651" cx="15.137066877618972" cy="3.8877191960032356"></circle><circle class="pearl" r="2.190433937142651" cx="20.962467072863564" cy="17.07074500113888"></circle><circle class="pearl" r="2.190433937142651" cx="3.666361200299786" cy="12.06553706632168"></circle><circle class="pearl" r="2.190433937142651" cx="21.214498043059237" cy="9.07991917044833"></circle><circle class="pearl" r="2.190433937142651" cx="14.393767362857483" cy="21.62611655207755"></circle><circle class="pearl" r="2.190433937142651" cx="7.206868156085017" cy="4.898477766440115"></circle></g><g class="bobaCup bright" cupRadius="12.378467901136045" width="24.75693580227209" height="24.75693580227209" pearlRadius="2.7380424214283137" pearlCount="8" transform="translate(31.62482500962526,118.75302320692228)"><circle class="pool" r="12.378467901136045" cx="12.378467901136045" cy="12.378467901136045" style="stroke-width: 1; fill: rgb(127, 205, 187);"></circle><circle class="pearl" r="2.190433937142651" cx="13.506056375361547" cy="12.693521718894274"></circle><circle class="pearl" r="2.190433937142651" cx="5.711108000672569" cy="19.15716361789202"></circle><circle class="pearl" r="2.190433937142651" cx="15.116640935228064" cy="3.9573695598351364"></circle><circle class="pearl" r="2.190433937142651" cx="20.08686895247583" cy="17.29748845130604"></circle><circle class="pearl" r="2.190433937142651" cx="3.6696080316534463" cy="11.69496719026508"></circle><circle class="pearl" r="2.190433937142651" cx="20.73483779514154" cy="9.369118748041712"></circle><circle class="pearl" r="2.190433937142651" cx="13.260030945248474" cy="21.074781328326157"></circle><circle class="pearl" r="2.190433937142651" cx="7.258247288371995" cy="4.759328288657041"></circle></g><g class="bobaCup bright" cupRadius="12.361004866274284" width="24.722009732548567" height="24.722009732548567" pearlRadius="2.7380424214283137" pearlCount="8" transform="translate(220.50679238161092,164.20263557721051)"><circle class="pool" r="12.361004866274284" cx="12.361004866274284" cy="12.361004866274284" style="stroke-width: 1; fill: rgb(127, 205, 187);"></circle><circle class="pearl" r="2.190433937142651" cx="13.47692803939417" cy="12.677246117498335"></circle><circle class="pearl" r="2.190433937142651" cx="5.7126875016031775" cy="19.131141368199007"></circle><circle class="pearl" r="2.190433937142651" cx="15.080494356779392" cy="3.9535848623618204"></circle><circle class="pearl" r="2.190433937142651" cx="20.055871419214558" cy="17.26733076390089"></circle><circle class="pearl" r="2.190433937142651" cx="3.6686884943019535" cy="11.694810657748274"></circle><circle class="pearl" r="2.190433937142651" cx="20.696966508485954" cy="9.34209328880065"></circle><circle class="pearl" r="2.190433937142651" cx="13.245624405353592" cy="21.039591820156055"></circle><circle class="pearl" r="2.190433937142651" cx="7.231672872859382" cy="4.765199981450246"></circle></g><g class="bobaCup bright" cupRadius="12.303869873291525" width="24.60773974658305" height="24.60773974658305" pearlRadius="2.738042421428314" pearlCount="8" transform="translate(194.78951334072673,30.507572961748224)"><circle class="pool" r="12.303869873291525" cx="12.303869873291525" cy="12.303869873291525" style="stroke-width: 1; fill: rgb(127, 205, 187);"></circle><circle class="pearl" r="2.1904339371426516" cx="13.383648646964806" cy="12.624014583074574"></circle><circle class="pearl" r="2.1904339371426516" cx="5.719324655351603" cy="19.04684560764001"></circle><circle class="pearl" r="2.1904339371426516" cx="14.952721050227002" cy="3.9392362073988285"></circle><circle class="pearl" r="2.1904339371426516" cx="19.958144719747896" cy="17.160023946477047"></circle><circle class="pearl" r="2.1904339371426516" cx="3.665539746378427" cy="11.700229678346087"></circle><circle class="pearl" r="2.1904339371426516" cx="20.5705490350113" cy="9.244338189065896"></circle><circle class="pearl" r="2.1904339371426516" cx="13.204418200049348" cy="20.924015667331044"></circle><circle class="pearl" r="2.1904339371426516" cx="7.136111328345906" cy="4.788596259662073"></circle></g><g class="bobaCup bright" cupRadius="12.15214507998266" width="24.30429015996532" height="24.30429015996532" pearlRadius="2.738042421428314" pearlCount="7" transform="translate(133.48838302754575,112.56063259556183)"><circle class="pool" r="12.15214507998266" cx="12.15214507998266" cy="12.15214507998266" style="stroke-width: 1; fill: rgb(29, 145, 192);"></circle><circle class="pearl" r="2.1904339371426516" cx="13.690166811693977" cy="12.455679095345715"></circle><circle class="pearl" r="2.1904339371426516" cx="5.53965996678052" cy="14.817335518328488"></circle><circle class="pearl" r="2.1904339371426516" cx="12.194604338651072" cy="3.6507974045349543"></circle><circle class="pearl" r="2.1904339371426516" cx="18.79779933894621" cy="18.606542083509535"></circle><circle class="pearl" r="2.1904339371426516" cx="4.868144526389731" cy="6.850593811464784"></circle><circle class="pearl" r="2.1904339371426516" cx="19.480240055025472" cy="6.942521207096746"></circle><circle class="pearl" r="2.1904339371426516" cx="11.056332359635585" cy="20.604058941189667"></circle></g><g class="bobaCup bright" cupRadius="12.120621996095174" width="24.24124399219035" height="24.24124399219035" pearlRadius="2.7380424214283137" pearlCount="7" transform="translate(159.61976967403527,71.24886637009715)"><circle class="pool" r="12.120621996095174" cx="12.120621996095174" cy="12.120621996095174" style="stroke-width: 1; fill: rgb(65, 182, 196);"></circle><circle class="pearl" r="2.190433937142651" cx="13.59520069189893" cy="12.430241736563138"></circle><circle class="pearl" r="2.190433937142651" cx="5.414138951334375" cy="14.827746428921644"></circle><circle class="pearl" r="2.190433937142651" cx="12.181400234596037" cy="3.650875614211765"></circle><circle class="pearl" r="2.190433937142651" cx="18.749956578331084" cy="18.541672453667694"></circle><circle class="pearl" r="2.190433937142651" cx="4.855578296154182" cy="6.852272165775611"></circle><circle class="pearl" r="2.190433937142651" cx="19.448256729802633" cy="6.9839758116377"></circle><circle class="pearl" r="2.190433937142651" cx="11.008530389820075" cy="20.539394607511717"></circle></g><g class="bobaCup bright" cupRadius="12.116846135590125" width="24.23369227118025" height="24.23369227118025" pearlRadius="2.738042421428314" pearlCount="7" transform="translate(188.4978983014979,114.81138463376382)"><circle class="pool" r="12.116846135590125" cx="12.116846135590125" cy="12.116846135590125" style="stroke-width: 1; fill: rgb(65, 182, 196);"></circle><circle class="pearl" r="2.1904339371426516" cx="13.583933773395605" cy="12.42718752748067"></circle><circle class="pearl" r="2.1904339371426516" cx="5.3991509324192535" cy="14.82898770318709"></circle><circle class="pearl" r="2.1904339371426516" cx="12.179721288277364" cy="3.65088636142734"></circle><circle class="pearl" r="2.1904339371426516" cx="18.744164320582644" cy="18.53399698114743"></circle><circle class="pearl" r="2.1904339371426516" cx="4.854023411077815" cy="6.852582179109369"></circle><circle class="pearl" r="2.1904339371426516" cx="19.444353989116195" cy="6.9888443238079505"></circle><circle class="pearl" r="2.1904339371426516" cx="11.002716095006535" cy="20.531638831596595"></circle></g><g class="bobaCup bright" cupRadius="11.865331401467458" width="23.730662802934916" height="23.730662802934916" pearlRadius="2.7380424214283137" pearlCount="7" transform="translate(249.3071337497659,229.0742246468442)"><circle class="pool" r="11.865331401467458" cx="11.865331401467458" cy="11.865331401467458" style="stroke-width: 1; fill: rgb(127, 205, 187);"></circle><circle class="pearl" r="2.190433937142651" cx="12.866738189377234" cy="12.216899173121947"></circle><circle class="pearl" r="2.190433937142651" cx="4.4587750926686045" cy="14.895376984418192"></circle><circle class="pearl" r="2.190433937142651" cx="12.040478559374991" cy="3.652015994745474"></circle><circle class="pearl" r="2.190433937142651" cx="18.34883588499869" cy="18.036515886305615"></circle><circle class="pearl" r="2.190433937142651" cx="4.737243382318036" cy="6.9051582842604"></circle><circle class="pearl" r="2.190433937142651" cx="19.161202167107845" cy="7.2873220969178245"></circle><circle class="pearl" r="2.190433937142651" cx="10.60178151493857" cy="20.012469460049335"></circle></g><g class="bobaCup bright" cupRadius="11.821441856733143" width="23.642883713466286" height="23.642883713466286" pearlRadius="2.7380424214283132" pearlCount="7" transform="translate(22.194971168498142,271.9038295173501)"><circle class="pool" r="11.821441856733143" cx="11.821441856733143" cy="11.821441856733143" style="stroke-width: 1; fill: rgb(29, 145, 192);"></circle><circle class="pearl" r="2.1904339371426507" cx="12.747363998577388" cy="12.178822862190355"></circle><circle class="pearl" r="2.1904339371426507" cx="4.303031317772431" cy="14.905471765722861"></circle><circle class="pearl" r="2.1904339371426507" cx="12.010564762287789" cy="3.6522361473318457"></circle><circle class="pearl" r="2.1904339371426507" cx="18.277908059329942" cy="17.952608905069905"></circle><circle class="pearl" r="2.1904339371426507" cx="4.714284700550743" cy="6.920982980315697"></circle><circle class="pearl" r="2.1904339371426507" cx="19.10735569763383" cy="7.334075459526622"></circle><circle class="pearl" r="2.1904339371426507" cx="10.529002145707612" cy="19.921296791192443"></circle></g><g class="bobaCup bright" cupRadius="11.723439604481014" width="23.446879208962027" height="23.446879208962027" pearlRadius="2.7380424214283137" pearlCount="7" transform="translate(253.61228469146525,108.84644684193249)"><circle class="pool" r="11.723439604481014" cx="11.723439604481014" cy="11.723439604481014" style="stroke-width: 1; fill: rgb(29, 145, 192);"></circle><circle class="pearl" r="2.190433937142651" cx="12.385837076263426" cy="11.974390512019228"></circle><circle class="pearl" r="2.190433937142651" cx="4.079171986480816" cy="14.863856445568334"></circle><circle class="pearl" r="2.190433937142651" cx="11.998849959231473" cy="3.653958683959381"></circle><circle class="pearl" r="2.190433937142651" cx="18.158202434062378" cy="17.70022863628785"></circle><circle class="pearl" r="2.190433937142651" cx="4.692072415806228" cy="6.8931207249764865"></circle><circle class="pearl" r="2.190433937142651" cx="19.00730090366275" cy="7.4956863754783285"></circle><circle class="pearl" r="2.190433937142651" cx="10.424504700562093" cy="19.723974002247743"></circle></g><g class="bobaCup bright" cupRadius="11.720846522696554" width="23.44169304539311" height="23.44169304539311" pearlRadius="2.7380424214283137" pearlCount="7" transform="translate(30.73315000403904,283.0111292040528)"><circle class="pool" r="11.720846522696554" cx="11.720846522696554" cy="11.720846522696554" style="stroke-width: 1; fill: rgb(127, 205, 187);"></circle><circle class="pearl" r="2.190433937142651" cx="12.373913899991255" cy="11.966470088941646"></circle><circle class="pearl" r="2.190433937142651" cx="4.078808527842714" cy="14.859602193231979"></circle><circle class="pearl" r="2.190433937142651" cx="12.001652906464768" cy="3.654087471210932"></circle><circle class="pearl" r="2.190433937142651" cx="18.15695033828489" cy="17.690282290825902"></circle><circle class="pearl" r="2.190433937142651" cx="4.693025292407526" cy="6.888980273641655"></circle><circle class="pearl" r="2.190433937142651" cx="19.00590431456374" cy="7.503390336601676"></circle><circle class="pearl" r="2.190433937142651" cx="10.424592090149604" cy="19.71907035618693"></circle></g><g class="bobaCup bright" cupRadius="11.535123275956698" width="23.070246551913396" height="23.070246551913396" pearlRadius="2.7380424214283137" pearlCount="7" transform="translate(246.96016505637712,201.6132524668994)"><circle class="pool" r="11.535123275956698" cx="11.535123275956698" cy="11.535123275956698" style="stroke-width: 1; fill: rgb(65, 182, 196);"></circle><circle class="pearl" r="2.190433937142651" cx="11.722171814299456" cy="11.57045133348997"></circle><circle class="pearl" r="2.190433937142651" cx="4.03532637828625" cy="14.488929279370005"></circle><circle class="pearl" r="2.190433937142651" cx="12.221915430465415" cy="3.6711869121636536"></circle><circle class="pearl" r="2.190433937142651" cx="18.005647889770476" cy="17.06860419708923"></circle><circle class="pearl" r="2.190433937142651" cx="4.791084132018646" cy="6.5343249186355195"></circle><circle class="pearl" r="2.190433937142651" cx="18.87178835115937" cy="8.022806767779565"></circle><circle class="pearl" r="2.190433937142651" cx="10.320584601594572" cy="19.355405443600745"></circle></g><g class="bobaCup bright" cupRadius="11.460799629820745" width="22.92159925964149" height="22.92159925964149" pearlRadius="2.7380424214283137" pearlCount="7" transform="translate(266.98437801181166,211.03773916717338)"><circle class="pool" r="11.460799629820745" cx="11.460799629820745" cy="11.460799629820745" style="stroke-width: 1; fill: rgb(65, 182, 196);"></circle><circle class="pearl" r="2.190433937142651" cx="11.511210242604442" cy="11.479935722807252"></circle><circle class="pearl" r="2.190433937142651" cx="3.9950579079856254" cy="14.24901324453711"></circle><circle class="pearl" r="2.190433937142651" cx="12.374932102671995" cy="3.687237761416256"></circle><circle class="pearl" r="2.190433937142651" cx="17.9155906847861" cy="16.867139354638294"></circle><circle class="pearl" r="2.190433937142651" cx="4.873834869934875" cy="6.309132636904421"></circle><circle class="pearl" r="2.190433937142651" cx="18.82003188928373" cy="8.277906558037175"></circle><circle class="pearl" r="2.190433937142651" cx="10.164311260203638" cy="19.197308113230708"></circle></g><g class="bobaCup bright" cupRadius="11.424464829819263" width="22.848929659638525" height="22.848929659638525" pearlRadius="2.7380424214283137" pearlCount="7" transform="translate(90.0954046469498,31.72954325927008)"><circle class="pool" r="11.424464829819263" cx="11.424464829819263" cy="11.424464829819263" style="stroke-width: 1; fill: rgb(29, 145, 192);"></circle><circle class="pearl" r="2.190433937142651" cx="11.45910594652231" cy="11.440353070942772"></circle><circle class="pearl" r="2.190433937142651" cx="3.995676037711002" cy="14.2106468108462"></circle><circle class="pearl" r="2.190433937142651" cx="12.375632058724497" cy="3.6903877724637653"></circle><circle class="pearl" r="2.190433937142651" cx="17.872106452995027" cy="16.76688225723741"></circle><circle class="pearl" r="2.190433937142651" cx="4.876340868721931" cy="6.276463989729013"></circle><circle class="pearl" r="2.190433937142651" cx="18.76203131228261" cy="8.297823520978072"></circle><circle class="pearl" r="2.190433937142651" cx="10.146000639170968" cy="19.126447268224982"></circle></g><g class="bobaCup bright" cupRadius="11.40700269570476" width="22.81400539140952" height="22.81400539140952" pearlRadius="2.738042421428314" pearlCount="7" transform="translate(34.105242389417796,281.9457508581826)"><circle class="pool" r="11.40700269570476" cx="11.40700269570476" cy="11.40700269570476" style="stroke-width: 1; fill: rgb(65, 182, 196);"></circle><circle class="pearl" r="2.1904339371426516" cx="11.439881348521258" cy="11.421417731737542"></circle><circle class="pearl" r="2.1904339371426516" cx="4.0081700881" cy="14.240203416276453"></circle><circle class="pearl" r="2.1904339371426516" cx="12.335082656806271" cy="3.6885404615605215"></circle><circle class="pearl" r="2.1904339371426516" cx="17.85124256230809" cy="16.718446059507322"></circle><circle class="pearl" r="2.1904339371426516" cx="4.855408644424543" cy="6.304803893123351"></circle><circle class="pearl" r="2.1904339371426516" cx="18.721578104996556" cy="8.263447974962945"></circle><circle class="pearl" r="2.1904339371426516" cx="10.18410618572633" cy="19.09754194649188"></circle></g><g class="bobaCup bright" cupRadius="11.335356206977794" width="22.670712413955588" height="22.670712413955588" pearlRadius="2.738042421428314" pearlCount="6" transform="translate(141.03997333614996,38.45671539895843)"><circle class="pool" r="11.335356206977794" cx="11.335356206977794" cy="11.335356206977794" style="stroke-width: 1; fill: rgb(65, 182, 196);"></circle><circle class="pearl" r="2.1904339371426516" cx="11.905885334846403" cy="11.409012542881026"></circle><circle class="pearl" r="2.1904339371426516" cx="6.3792125988369275" cy="17.186202931874597"></circle><circle class="pearl" r="2.1904339371426516" cx="9.401485974863373" cy="3.816905506183659"></circle><circle class="pearl" r="2.1904339371426516" cx="17.2514400641389" cy="17.353668718029756"></circle><circle class="pearl" r="2.1904339371426516" cx="3.797276406719361" cy="9.518494318686502"></circle><circle class="pearl" r="2.1904339371426516" cx="17.3137685911075" cy="5.355457144940937"></circle></g><g class="bobaCup bright" cupRadius="11.169413946341324" width="22.338827892682648" height="22.338827892682648" pearlRadius="2.738042421428314" pearlCount="6" transform="translate(86.46155905561626,8.830586053658676)"><circle class="pool" r="11.169413946341324" cx="11.169413946341324" cy="11.169413946341324" style="stroke-width: 1; fill: rgb(127, 205, 187);"></circle><circle class="pearl" r="2.1904339371426516" cx="11.518147137266835" cy="11.371552289385418"></circle><circle class="pearl" r="2.1904339371426516" cx="6.157796827155829" cy="17.420914444041895"></circle><circle class="pearl" r="2.1904339371426516" cx="8.958917534596178" cy="3.871643510559038"></circle><circle class="pearl" r="2.1904339371426516" cx="17.006915019862493" cy="17.041263328223952"></circle><circle class="pearl" r="2.1904339371426516" cx="3.7320799690798574" cy="9.823756001353491"></circle><circle class="pearl" r="2.1904339371426516" cx="17.028285958830736" cy="5.3107958280540775"></circle></g><g class="bobaCup bright" cupRadius="11.00232756732643" width="22.00465513465286" height="22.00465513465286" pearlRadius="2.7380424214283137" pearlCount="6" transform="translate(284.95105453455733,93.00652104267397)"><circle class="pool" r="11.00232756732643" cx="11.00232756732643" cy="11.00232756732643" style="stroke-width: 1; fill: rgb(29, 145, 192);"></circle><circle class="pearl" r="2.190433937142651" cx="11.416643248724741" cy="11.173771481343174"></circle><circle class="pearl" r="2.190433937142651" cx="6.362200097111095" cy="17.32759696901045"></circle><circle class="pearl" r="2.190433937142651" cx="8.615498736361934" cy="3.9127407430904846"></circle><circle class="pearl" r="2.190433937142651" cx="16.675758622405873" cy="16.778342478855098"></circle><circle class="pearl" r="2.190433937142651" cx="3.7047652010384446" cy="9.913174487106522"></circle><circle class="pearl" r="2.190433937142651" cx="16.73045714606833" cy="5.259449599982643"></circle></g><g class="bobaCup bright" cupRadius="10.713487647480308" width="21.426975294960616" height="21.426975294960616" pearlRadius="2.738042421428314" pearlCount="6" transform="translate(309.2865123525197,206.1686659287742)"><circle class="pool" r="10.713487647480308" cx="10.713487647480308" cy="10.713487647480308" style="stroke-width: 1; fill: rgb(127, 205, 187);"></circle><circle class="pearl" r="2.1904339371426516" cx="11.031755315345361" cy="10.998524813837589"></circle><circle class="pearl" r="2.1904339371426516" cx="5.296075795585237" cy="16.305624712111754"></circle><circle class="pearl" r="2.1904339371426516" cx="8.834447699850935" cy="3.8167928769425044"></circle><circle class="pearl" r="2.1904339371426516" cx="16.111459314688343" cy="16.316991531571443"></circle><circle class="pearl" r="2.1904339371426516" cx="3.7981369920766697" cy="8.942357993530479"></circle><circle class="pearl" r="2.1904339371426516" cx="16.228007711787036" cy="5.178957148849751"></circle></g><g class="bobaCup bright" cupRadius="10.473475844283557" width="20.946951688567115" height="20.946951688567115" pearlRadius="2.7380424214283146" pearlCount="5" transform="translate(120.40457521946489,68.24722220350664)"><circle class="pool" r="10.473475844283557" cx="10.473475844283557" cy="10.473475844283557" style="stroke-width: 1; fill: rgb(127, 205, 187);"></circle><circle class="pearl" r="2.1904339371426516" cx="16.52865304773629" cy="8.140584261912492"></circle><circle class="pearl" r="2.1904339371426516" cx="7.420129748965077" cy="15.931705101784292"></circle><circle class="pearl" r="2.1904339371426516" cx="9.90279541883371" cy="3.6662824489376424"></circle><circle class="pearl" r="2.1904339371426516" cx="15.414222083080125" cy="16.05761714447567"></circle><circle class="pearl" r="2.1904339371426516" cx="3.7834096185511052" cy="8.811618533153654"></circle></g><g class="bobaCup bright" cupRadius="9.334760170871807" width="18.669520341743613" height="18.669520341743613" pearlRadius="2.7380424214283137" pearlCount="4" transform="translate(130.63765176652637,190.091128407197)"><circle class="pool" r="9.334760170871807" cx="9.334760170871807" cy="9.334760170871807" style="stroke-width: 1; fill: rgb(127, 205, 187);"></circle><circle class="pearl" r="2.190433937142651" cx="14.51235134860882" cy="6.30183877540711"></circle><circle class="pearl" r="2.190433937142651" cx="5.443598912892185" cy="12.199679589911318"></circle><circle class="pearl" r="2.190433937142651" cx="6.860430729456356" cy="3.9846255923758704"></circle><circle class="pearl" r="2.190433937142651" cx="13.187892867581951" cy="14.18645517885189"></circle></g><g class="bobaCup bright" cupRadius="9.187624224791628" width="18.375248449583257" height="18.375248449583257" pearlRadius="2.7380424214283137" pearlCount="4" transform="translate(229.57254187647615,192.04882653286046)"><circle class="pool" r="9.187624224791628" cx="9.187624224791628" cy="9.187624224791628" style="stroke-width: 1; fill: rgb(29, 145, 192);"></circle><circle class="pearl" r="2.190433937142651" cx="14.146977483328353" cy="5.981532868929913"></circle><circle class="pearl" r="2.190433937142651" cx="5.222453142973564" cy="12.05831519994148"></circle><circle class="pearl" r="2.190433937142651" cx="6.378717060907048" cy="4.09063464139547"></circle><circle class="pearl" r="2.190433937142651" cx="13.003834628652967" cy="13.894471040763303"></circle></g><g class="bobaCup bright" cupRadius="8.704220976862533" width="17.408441953725067" height="17.408441953725067" pearlRadius="2.738042421428314" pearlCount="4" transform="translate(153.85593581157187,279.3982196665767)"><circle class="pool" r="8.704220976862533" cx="8.704220976862533" cy="8.704220976862533" style="stroke-width: 1; fill: rgb(127, 205, 187);"></circle><circle class="pearl" r="2.1904339371426516" cx="12.878051448067563" cy="4.8911090963411"></circle><circle class="pearl" r="2.1904339371426516" cx="4.530390505657506" cy="12.517332857383966"></circle><circle class="pearl" r="2.1904339371426516" cx="4.891109096341101" cy="4.530390505657506"></circle><circle class="pearl" r="2.1904339371426516" cx="12.517332857383966" cy="12.878051448067563"></circle></g><g class="bobaCup bright" cupRadius="7.775795182249578" width="15.551590364499155" height="15.551590364499155" pearlRadius="2.7380424214283137" pearlCount="3" transform="translate(181.1608931791465,79.56206295718722)"><circle class="pool" r="7.775795182249578" cx="7.775795182249578" cy="7.775795182249578" style="stroke-width: 1; fill: rgb(127, 205, 187);"></circle><circle class="pearl" r="2.190433937142651" cx="11.800916028879136" cy="9.018537492426121"></circle><circle class="pearl" r="2.190433937142651" cx="4.486401859460991" cy="11.170842478205218"></circle><circle class="pearl" r="2.190433937142651" cx="5.964584392383733" cy="3.8646068673702043"></circle></g><g class="bobaCup bright" cupRadius="7.009250136752177" width="14.018500273504355" height="14.018500273504355" pearlRadius="2.7380424214283137" pearlCount="2" transform="translate(32.44368452311489,176.08344187812338)"><circle class="pool" r="7.009250136752177" cx="7.009250136752177" cy="7.009250136752177" style="stroke-width: 1; fill: rgb(65, 182, 196);"></circle><circle class="pearl" r="2.190433937142651" cx="9.780502830752134" cy="4.221825651457232"></circle><circle class="pearl" r="2.190433937142651" cx="4.23799744275222" cy="9.796674622047123"></circle></g><g class="bobaCup bright" cupRadius="6.8755755048610645" width="13.751151009722129" height="13.751151009722129" pearlRadius="2.7380424214283137" pearlCount="2" transform="translate(171.10264707660528,70.87403573994293)"><circle class="pool" r="6.8755755048610645" cx="6.8755755048610645" cy="6.8755755048610645" style="stroke-width: 1; fill: rgb(127, 205, 187);"></circle><circle class="pearl" r="2.190433937142651" cx="9.519276184866307" cy="4.179300605373083"></circle><circle class="pearl" r="2.190433937142651" cx="4.231874824855823" cy="9.571850404349046"></circle></g><g class="bobaCup bright" cupRadius="6.821533481221293" width="13.643066962442585" height="13.643066962442585" pearlRadius="2.7380424214283132" pearlCount="2" transform="translate(171.07493810605015,62.496347072910325)"><circle class="pool" r="6.821533481221293" cx="6.821533481221293" cy="6.821533481221293" style="stroke-width: 1; fill: rgb(29, 145, 192);"></circle><circle class="pearl" r="2.1904339371426507" cx="9.413688141441217" cy="4.162418894687837"></circle><circle class="pearl" r="2.1904339371426507" cx="4.229378821001367" cy="9.480648067754746"></circle></g><g class="bobaCup bright" cupRadius="6.284874132942866" width="12.569748265885732" height="12.569748265885732" pearlRadius="2.7380424214283132" pearlCount="2" transform="translate(140.12320463695684,18.158003960198307)"><circle class="pool" r="6.284874132942866" cx="6.284874132942866" cy="6.284874132942866" style="stroke-width: 1; fill: rgb(29, 145, 192);"></circle><circle class="pearl" r="2.1904339371426507" cx="8.365597753685474" cy="4.005147793309352"></circle><circle class="pearl" r="2.1904339371426507" cx="4.2041505122002585" cy="8.56460047257638"></circle></g><g class="bobaCup bright" cupRadius="6.256396408898564" width="12.512792817797129" height="12.512792817797129" pearlRadius="2.7380424214283137" pearlCount="2" transform="translate(260.9928823912444,146.2282323187093)"><circle class="pool" r="6.256396408898564" cx="6.256396408898564" cy="6.256396408898564" style="stroke-width: 1; fill: rgb(127, 205, 187);"></circle><circle class="pearl" r="2.190433937142651" cx="8.309989889392474" cy="3.9973607724945506"></circle><circle class="pearl" r="2.190433937142651" cx="4.202802928404655" cy="8.515432045302578"></circle></g><g class="bobaCup bright" cupRadius="6.001118771059632" width="12.002237542119264" height="12.002237542119264" pearlRadius="2.7380424214283137" pearlCount="2" transform="translate(246.6214685615879,117.30924257684917)"><circle class="pool" r="6.001118771059632" cx="6.001118771059632" cy="6.001118771059632" style="stroke-width: 1; fill: rgb(127, 205, 187);"></circle><circle class="pearl" r="2.190433937142651" cx="7.872086162055551" cy="3.949832921578123"></circle><circle class="pearl" r="2.190433937142651" cx="4.1301513800637135" cy="8.052404620541141"></circle></g><g class="bobaCup bright" cupRadius="5.661260029365004" width="11.322520058730008" height="11.322520058730008" pearlRadius="2.7380424214283137" pearlCount="2" transform="translate(244.15384090375787,202.42908854339694)"><circle class="pool" r="5.661260029365004" cx="5.661260029365004" cy="5.661260029365004" style="stroke-width: 1; fill: rgb(29, 145, 192);"></circle><circle class="pearl" r="2.190433937142651" cx="7.302758157912233" cy="3.8939255788354146"></circle><circle class="pearl" r="2.190433937142651" cx="4.019761900817776" cy="7.4285944798945955"></circle></g><g class="bobaCup bright" cupRadius="5.310083460610131" width="10.620166921220262" height="10.620166921220262" pearlRadius="2.7380424214283137" pearlCount="1" transform="translate(254.49935789677988,189.40390361982736)"><circle class="pool" r="5.310083460610131" cx="5.310083460610131" cy="5.310083460610131" style="stroke-width: 1; fill: rgb(127, 205, 187);"></circle><circle class="pearl" r="2.190433937142651" cx="6.96345406087882" cy="5.310083460610131"></circle></g><g class="bobaCup bright" cupRadius="3.8892940906314295" width="7.778588181262859" height="7.778588181262859" pearlRadius="2.738042421428314" pearlCount="1" transform="translate(193.7546848656859,186.50442591044805)"><circle class="pool" r="3.8892940906314295" cx="3.8892940906314295" cy="3.8892940906314295" style="stroke-width: 1; fill: rgb(29, 145, 192);"></circle><circle class="pearl" r="2.1904339371426516" cx="4.127864952691773" cy="3.8892940906314295"></circle></g><g class="bobaCup bright" cupRadius="2.4512620387230437" width="4.902524077446087" height="4.902524077446087" pearlRadius="2.7380424214283137" pearlCount="0" transform="translate(44.13485903305975,144.43018558309075)"><circle class="pool" r="2.4512620387230437" cx="2.4512620387230437" cy="2.4512620387230437" style="stroke-width: 1; fill: rgb(29, 145, 192);"></circle></g><g class="bobaCup bright" cupRadius="0" width="0" height="0" pearlRadius="NaN" pearlCount="0" transform="translate(20,300)"><circle class="pool" r="0" cx="0" cy="0" style="stroke-width: 1; fill: rgb(127, 205, 187);"></circle></g><g class="bobaCup bright" cupRadius="0" width="0" height="0" pearlRadius="NaN" pearlCount="0" transform="translate(94.16469569526386,282.606996565371)"><circle class="pool" r="0" cx="0" cy="0" style="stroke-width: 1; fill: rgb(65, 182, 196);"></circle></g></g><g id="legendDividerGroup" transform="translate(410,0)" height="400"><rect class="legendDivider" height="400" width="90"></rect></g><g id="legend" transform="translate(410,30)" width="90" height="320"><rect class="legendBorder" transform="translate(0,0)" width="90" height="324.9477195110013"></rect><text id="rTitle" text-anchor="middle" alignment-baseline="hanging" transform="translate(45,10)" x="0" y="0" style="fill: black; font-size: 0.8rem;">Population</text><text id="bobaValue" text-anchor="middle" alignment-baseline="hanging" transform="translate(45,25)" x="0" y="0" style="fill: black; font-size: 0.7rem;">(1 Pearl =   75)</text><g class="bright" cupRadius="8.94427190999916" width="17.88854381999832" height="17.88854381999832" pearlRadius="2.7380424214283137" pearlCount="4" transform="translate(36.05572809000084,50)"><circle class="pool" r="8.94427190999916" cx="8.94427190999916" cy="8.94427190999916" style="stroke-width: 1; fill: rgb(127, 205, 187);"></circle><circle class="pearl" r="2.190433937142651" cx="13.542613460651712" cy="5.486970900805415"></circle><circle class="pearl" r="2.190433937142651" cx="4.749399498236599" cy="12.229516637519533"></circle><circle class="pearl" r="2.190433937142651" cx="5.6385452023940825" cy="4.284028231246733"></circle><circle class="pearl" r="2.190433937142651" cx="12.653467756495177" cy="13.432459307079196"></circle></g><text id="0" class="legendSampleValue" text-anchor="middle" transform="translate(45,8)" x="0" y="72.88854381999832" style="fill: black; font-size: 0.7rem;"> 300</text><g class="bright" cupRadius="12.649110640673518" width="25.298221281347036" height="25.298221281347036" pearlRadius="2.7380424214283137" pearlCount="8" transform="translate(32.35088935932648,92.88854381999832)"><circle class="pool" r="12.649110640673518" cx="12.649110640673518" cy="12.649110640673518" style="stroke-width: 1; fill: rgb(127, 205, 187);"></circle><circle class="pearl" r="2.190433937142651" cx="14.071403428550026" cy="12.846878791771143"></circle><circle class="pearl" r="2.190433937142651" cx="6.440581911774749" cy="19.57795138257092"></circle><circle class="pearl" r="2.190433937142651" cx="15.10273708455154" cy="3.8909774644866477"></circle><circle class="pearl" r="2.190433937142651" cx="20.833946229646862" cy="17.112242666106596"></circle><circle class="pearl" r="2.190433937142651" cx="3.6634707295578792" cy="12.081372495075817"></circle><circle class="pearl" r="2.190433937142651" cx="21.1462151053254" cy="9.123450087562194"></circle><circle class="pearl" r="2.190433937142651" cx="14.187116834584868" cy="21.553646746241665"></circle><circle class="pearl" r="2.190433937142651" cx="7.171845845081948" cy="4.898098459274186"></circle></g><text id="1" class="legendSampleValue" text-anchor="middle" transform="translate(45,8)" x="0" y="123.18676510134536" style="fill: black; font-size: 0.7rem;"> 600</text><g class="bright" cupRadius="15.491933384829668" width="30.983866769659336" height="30.983866769659336" pearlRadius="2.738042421428314" pearlCount="12" transform="translate(29.508066615170332,143.18676510134537)"><circle class="pool" r="15.491933384829668" cx="15.491933384829668" cy="15.491933384829668" style="stroke-width: 1; fill: rgb(127, 205, 187);"></circle><circle class="pearl" r="2.1904339371426516" cx="17.033011743384765" cy="11.01737610913958"></circle><circle class="pearl" r="2.1904339371426516" cx="11.029309432951333" cy="17.00347040031935"></circle><circle class="pearl" r="2.1904339371426516" cx="13.977981653444434" cy="3.724876288236054"></circle><circle class="pearl" r="2.1904339371426516" cx="18.741808845067855" cy="18.756462357333643"></circle><circle class="pearl" r="2.1904339371426516" cx="3.725529689195627" cy="13.971342248807428"></circle><circle class="pearl" r="2.1904339371426516" cx="26.98661348100194" cy="12.233596672509572"></circle><circle class="pearl" r="2.1904339371426516" cx="12.152198575888569" cy="26.968872613027877"></circle><circle class="pearl" r="2.1904339371426516" cx="6.524197378590721" cy="6.5101702816287865"></circle><circle class="pearl" r="2.1904339371426516" cx="26.508263068801252" cy="20.479674242239334"></circle><circle class="pearl" r="2.1904339371426516" cx="5.419021306595209" cy="22.679550094546478"></circle><circle class="pearl" r="2.1904339371426516" cx="22.76079804957651" cy="5.461881544509561"></circle><circle class="pearl" r="2.1904339371426516" cx="20.400071923945557" cy="26.535092423407907"></circle></g><text id="2" class="legendSampleValue" text-anchor="middle" transform="translate(45,8)" x="0" y="179.1706318710047" style="fill: black; font-size: 0.7rem;"> 900</text><g class="bright" cupRadius="17.88854381999832" width="35.77708763999664" height="35.77708763999664" pearlRadius="2.7380424214283137" pearlCount="16" transform="translate(27.11145618000168,199.1706318710047)"><circle class="pool" r="17.88854381999832" cx="17.88854381999832" cy="17.88854381999832" style="stroke-width: 1; fill: rgb(127, 205, 187);"></circle><circle class="pearl" r="2.190433937142651" cx="19.8046930625516" cy="19.706925044831756"></circle><circle class="pearl" r="2.190433937142651" cx="13.339172784724305" cy="23.858410298028698"></circle><circle class="pearl" r="2.190433937142651" cx="16.092791630714295" cy="11.113543243945612"></circle><circle class="pearl" r="2.190433937142651" cx="20.836129534048155" cy="27.499380517199565"></circle><circle class="pearl" r="2.190433937142651" cx="10.312657514553905" cy="16.56124087753138"></circle><circle class="pearl" r="2.190433937142651" cx="23.678755837700653" cy="13.13675787817294"></circle><circle class="pearl" r="2.190433937142651" cx="14.311679794483911" cy="31.765114841909277"></circle><circle class="pearl" r="2.190433937142651" cx="11.081450997216843" cy="4.99648955196875"></circle><circle class="pearl" r="2.190433937142651" cx="27.674351504393126" cy="20.796258814455655"></circle><circle class="pearl" r="2.190433937142651" cx="4.000488629236898" cy="21.40866477780026"></circle><circle class="pearl" r="2.190433937142651" cx="28.333596734388347" cy="7.01684061165493"></circle><circle class="pearl" r="2.190433937142651" cx="28.522531366621063" cy="28.62247591779055"></circle><circle class="pearl" r="2.190433937142651" cx="5.30391541992303" cy="10.377661215789304"></circle><circle class="pearl" r="2.190433937142651" cx="31.694235049536697" cy="13.980399213320233"></circle><circle class="pearl" r="2.190433937142651" cx="7.311073872078207" cy="28.66408585659018"></circle><circle class="pearl" r="2.190433937142651" cx="18.987039995684725" cy="3.684483203560177"></circle></g><text id="3" class="legendSampleValue" text-anchor="middle" transform="translate(45,8)" x="0" y="239.94771951100134" style="fill: black; font-size: 0.7rem;">1.2k</text><g class="bright" cupRadius="20" width="40" height="40" pearlRadius="2.7380424214283137" pearlCount="20" transform="translate(25,259.9477195110013)"><circle class="pool" r="20" cx="20" cy="20" style="stroke-width: 1; fill: rgb(127, 205, 187);"></circle><circle class="pearl" r="2.190433937142651" cx="22.480421380823074" cy="19.96094551607325"></circle><circle class="pearl" r="2.190433937142651" cx="14.554532211889109" cy="20.25858246523202"></circle><circle class="pearl" r="2.190433937142651" cx="21.718613402750453" cy="11.231225788085391"></circle><circle class="pearl" r="2.190433937142651" cx="25.13767186853209" cy="27.447308990534317"></circle><circle class="pearl" r="2.190433937142651" cx="6.622341466842937" cy="15.212813608895589"></circle><circle class="pearl" r="2.190433937142651" cx="28.49521909515808" cy="14.82158787688231"></circle><circle class="pearl" r="2.190433937142651" cx="17.504603283401977" cy="28.993209871734443"></circle><circle class="pearl" r="2.190433937142651" cx="14.13811847195522" cy="12.373399584276378"></circle><circle class="pearl" r="2.190433937142651" cx="31.11803529924844" cy="22.444175683247455"></circle><circle class="pearl" r="2.190433937142651" cx="10.013176726772668" cy="26.767604068489224"></circle><circle class="pearl" r="2.190433937142651" cx="25.1625299271706" cy="4.328500666167248"></circle><circle class="pearl" r="2.190433937142651" cx="27.782608687955303" cy="34.772930101052836"></circle><circle class="pearl" r="2.190433937142651" cx="8.036930275650786" cy="7.623092000895575"></circle><circle class="pearl" r="2.190433937142651" cx="36.040664285033515" cy="16.500106031740792"></circle><circle class="pearl" r="2.190433937142651" cx="11.3070075503718" cy="34.36126950601293"></circle><circle class="pearl" r="2.190433937142651" cx="16.81383473400994" cy="3.9061454691506903"></circle><circle class="pearl" r="2.190433937142651" cx="33.74247113697989" cy="29.87303346303284"></circle><circle class="pearl" r="2.190433937142651" cx="3.788525504185259" cy="22.343736665541265"></circle><circle class="pearl" r="2.190433937142651" cx="32.18050534208177" cy="7.787706818962306"></circle><circle class="pearl" r="2.190433937142651" cx="20.00567962395882" cy="36.34927596497569"></circle></g><text id="4" class="legendSampleValue" text-anchor="middle" transform="translate(45,8)" x="0" y="304.9477195110013" style="fill: black; font-size: 0.7rem;">1.5k</text></g></svg>