<?xml version="1.0" standalone="no"?>
<?xml-stylesheet xmlns="http://www.w3.org/2000/svg" type="text/css" href="style.css"?>
<svg id="syntheticVisC" class="default" xTitle="Percent Cat Owners" yTitle="Percent Dog Owners" rTitle="Population" chartTitle="Towns in Vizzyland" width="500" height="400" xmlns="http://www.w3.org/2000/svg"><rect class="background" width="500" height="400"></rect><text id="chartTitle" text-anchor="middle" transform="translate(250,20)" x="0" y="0" style="fill: black; font-size: 1.2rem;">Towns in Vizzyland</text><g id="yAxis" transform="translate(50,30)" fill="none" font-size="10" font-family="sans-serif" text-anchor="end"><path class="domain" stroke="currentColor" d="M-6,300H0V20H-6"></path><g class="tick" opacity="1" transform="translate(0,300)"><line stroke="currentColor" x2="-6"></line><text fill="currentColor" x="-9" dy="0.32em">0</text></g><g class="tick" opacity="1" transform="translate(0,272)"><line stroke="currentColor" x2="-6"></line><text fill="currentColor" x="-9" dy="0.32em">10</text></g><g class="tick" opacity="1" transform="translate(0,244)"><line stroke="currentColor" x2="-6"></line><text fill="currentColor" x="-9" dy="0.32em">20</text></g><g class="tick" opacity="1" transform="translate(0,216)"><line stroke="currentColor" x2="-6"></line><text fill="currentColor" x="-9" dy="0.32em">30</text></g><g class="tick" opacity="1" transform="translate(0,188)"><line stroke="currentColor" x2="-6"></line><text fill="currentColor" x="-9" dy="0.32em">40</text></g><g class="tick" opacity="1" transform="translate(0,160)"><line stroke="currentColor" x2="-6"></line><text fill="currentColor" x="-9" dy="0.32em">50</text></g><g class="tick" opacity="1" transform="translate(0,132)"><line stroke="currentColor" x2="-6"></line><text fill="currentColor" x="-9" dy="0.32em">60</text></g><g class="tick" opacity="1" transform="translate(0,104.00000000000001)"><line stroke="currentColor" x2="-6"></line><text fill="currentColor" x="-9" dy="0.32em">70</text></g><g class="tick" opacity="1" transform="translate(0,75.99999999999999)"><line stroke="currentColor" x2="-6"></line><text fill="currentColor" x="-9" dy="0.32em">80</text></g><g class="tick" opacity="1" transform="translate(0,47.99999999999999)"><line stroke="currentColor" x2="-6"></line><text fill="currentColor" x="-9" dy="0.32em">90</text></g><g class="tick" opacity="1" transform="translate(0,20)"><line stroke="currentColor" x2="-6"></line><text fill="currentColor" x="-9" dy="0.32em">100</text></g></g><g id="xAxis" transform="translate(60,360)" fill="none" font-size="10" font-family="sans-serif" text-anchor="middle"><path class="domain" stroke="currentColor" d="M20,6V0H320V6"></path><g class="tick" opacity="1" transform="translate(20,0)"><line stroke="currentColor" y2="6"></line><text fill="currentColor" y="9" dy="0.71em">0</text></g><g class="tick" opacity="1" transform="translate(50,0)"><line stroke="currentColor" y2="6"></line><text fill="currentColor" y="9" dy="0.71em">10</text></g><g class="tick" opacity="1" transform="translate(80,0)"><line stroke="currentColor" y2="6"></line><text fill="currentColor" y="9" dy="0.71em">20</text></g><g class="tick" opacity="1" transform="translate(110,0)"><line stroke="currentColor" y2="6"></line><text fill="currentColor" y="9" dy="0.71em">30</text></g><g class="tick" opacity="1" transform="translate(140,0)"><line stroke="currentColor" y2="6"></line><text fill="currentColor" y="9" dy="0.71em">40</text></g><g class="tick" opacity="1" transform="translate(170,0)"><line stroke="currentColor" y2="6"></line><text fill="currentColor" y="9" dy="0.71em">50</text></g><g class="tick" opacity="1" transform="translate(200,0)"><line stroke="currentColor" y2="6"></line><text fill="currentColor" y="9" dy="0.71em">60</text></g><g class="tick" opacity="1" transform="translate(230,0)"><line stroke="currentColor" y2="6"></line><text fill="currentColor" y="9" dy="0.71em">70</text></g><g class="tick" opacity="1" transform="translate(260,0)"><line stroke="currentColor" y2="6"></line><text fill="currentColor" y="9" dy="0.71em">80</text></g><g class="tick" opacity="1" transform="translate(290,0)"><line stroke="currentColor" y2="6"></line><text fill="currentColor" y="9" dy="0.71em">90</text></g><g class="tick" opacity="1" transform="translate(320,0)"><line stroke="currentColor" y2="6"></line><text fill="currentColor" y="9" dy="0.71em">100</text></g></g><g id="labels"><text id="xTitle" text-anchor="middle" transform="translate(250,350)" x="0" y="40" style="fill: black; font-size: 0.8rem;">Percent Cat Owners</text><g id="group-yTitle" transform="translate(60,190)"><text id="yTitle" text-anchor="middle" transform="rotate(-90)" y="-45" style="fill: black; font-size: 0.8rem;">Percent Dog Owners</text></g></g><g id="quadrant_lines" transform="translate(60,30)"><line id="verticalQuadrantLine" x1="170" y1="10" x2="170" y2="310" class="quadrantLine"></line><line id="horizontalQuadrantLine" x1="10" y1="160" x2="330" y2="160" class="quadrantLine"></line></g><g id="chart" transform="translate(60,30)"><g class="bobaCup bright" cupRadius="20" width="40" height="40" pearlRadius="2.7380424214283137" pearlCount="20" transform="translate(143.7931634795529,212.88193962439)"><circle class="pool" r="20" cx="20" cy="20" style="stroke-width: 1; fill: rgb(65, 182, 196);"></circle><circle class="pearl" r="2.190433937142651" cx="22.480421380823074" cy="19.96094551607325"></circle><circle class="pearl" r="2.190433937142651" cx="14.554532211889109" cy="20.25858246523202"></circle><circle class="pearl" r="2.190433937142651" cx="21.718613402750453" cy="11.231225788085391"></circle><circle class="pearl" r="2.190433937142651" cx="25.13767186853209" cy="27.447308990534317"></circle><circle class="pearl" r="2.190433937142651" cx="6.622341466842937" cy="15.212813608895589"></circle><circle class="pearl" r="2.190433937142651" cx="28.49521909515808" cy="14.82158787688231"></circle><circle class="pearl" r="2.190433937142651" cx="17.504603283401977" cy="28.993209871734443"></circle><circle class="pearl" r="2.190433937142651" cx="14.13811847195522" cy="12.373399584276378"></circle><circle class="pearl" r="2.190433937142651" cx="31.11803529924844" cy="22.444175683247455"></circle><circle class="pearl" r="2.190433937142651" cx="10.013176726772668" cy="26.767604068489224"></circle><circle class="pearl" r="2.190433937142651" cx="25.1625299271706" cy="4.328500666167248"></circle><circle class="pearl" r="2.190433937142651" cx="27.782608687955303" cy="34.772930101052836"></circle><circle class="pearl" r="2.190433937142651" cx="8.036930275650786" cy="7.623092000895575"></circle><circle class="pearl" r="2.190433937142651" cx="36.040664285033515" cy="16.500106031740792"></circle><circle class="pearl" r="2.190433937142651" cx="11.3070075503718" cy="34.36126950601293"></circle><circle class="pearl" r="2.190433937142651" cx="16.81383473400994" cy="3.9061454691506903"></circle><circle class="pearl" r="2.190433937142651" cx="33.74247113697989" cy="29.87303346303284"></circle><circle class="pearl" r="2.190433937142651" cx="3.788525504185259" cy="22.343736665541265"></circle><circle class="pearl" r="2.190433937142651" cx="32.18050534208177" cy="7.787706818962306"></circle><circle class="pearl" r="2.190433937142651" cx="20.00567962395882" cy="36.34927596497569"></circle></g><g class="bobaCup bright" cupRadius="19.1419268982173" width="38.2838537964346" height="38.2838537964346" pearlRadius="2.7380424214283137" pearlCount="18" transform="translate(86.0102605834723,28.14909247420605)"><circle class="pool" r="19.1419268982173" cx="19.1419268982173" cy="19.1419268982173" style="stroke-width: 1; fill: rgb(29, 145, 192);"></circle><circle class="pearl" r="2.190433937142651" cx="20.52312781044432" cy="18.71490715455433"></circle><circle class="pearl" r="2.190433937142651" cx="14.087235062256628" cy="23.45240237676613"></circle><circle class="pearl" r="2.190433937142651" cx="18.68938813543621" cy="10.987838340718884"></circle><circle class="pearl" r="2.190433937142651" cx="21.391328665210132" cy="26.59172231132949"></circle><circle class="pearl" r="2.190433937142651" cx="11.873868499079501" cy="15.77654628240477"></circle><circle class="pearl" r="2.190433937142651" cx="27.25865800902848" cy="14.453717967573521"></circle><circle class="pearl" r="2.190433937142651" cx="16.389843004273363" cy="32.861350523092476"></circle><circle class="pearl" r="2.190433937142651" cx="13.714495182058434" cy="4.714907061098706"></circle><circle class="pearl" r="2.190433937142651" cx="28.240320718229366" cy="22.48945327891923"></circle><circle class="pearl" r="2.190433937142651" cx="6.1097010699122" cy="23.803727516013577"></circle><circle class="pearl" r="2.190433937142651" cx="29.83079526621215" cy="6.913057613490881"></circle><circle class="pearl" r="2.190433937142651" cx="24.54416261592777" cy="33.855005417296084"></circle><circle class="pearl" r="2.190433937142651" cx="6.770001417521147" cy="8.668718520833037"></circle><circle class="pearl" r="2.190433937142651" cx="34.574057512721595" cy="17.6392444365781"></circle><circle class="pearl" r="2.190433937142651" cx="8.525982410837091" cy="31.419640128305826"></circle><circle class="pearl" r="2.190433937142651" cx="22.41106721209292" cy="3.93194793983659"></circle><circle class="pearl" r="2.190433937142651" cx="31.369918382829493" cy="29.83209922769973"></circle><circle class="pearl" r="2.190433937142651" cx="3.8896284671969106" cy="16.127107249596403"></circle></g><g class="bobaCup bright" cupRadius="16.845228918573817" width="33.69045783714763" height="33.69045783714763" pearlRadius="2.738042421428313" pearlCount="14" transform="translate(287.3224317904962,141.86531169950229)"><circle class="pool" r="16.845228918573817" cx="16.845228918573817" cy="16.845228918573817" style="stroke-width: 1; fill: rgb(29, 145, 192);"></circle><circle class="pearl" r="2.1904339371426502" cx="21.78440109486623" cy="13.06019398030638"></circle><circle class="pearl" r="2.1904339371426502" cx="13.316589898255966" cy="22.570030891870395"></circle><circle class="pearl" r="2.1904339371426502" cx="13.852962133133529" cy="12.139382216239998"></circle><circle class="pearl" r="2.1904339371426502" cx="21.14184426876159" cy="20.99861839664325"></circle><circle class="pearl" r="2.1904339371426502" cx="7.529406281263432" cy="17.09181102355803"></circle><circle class="pearl" r="2.1904339371426502" cx="26.77877574449452" cy="6.891306441489927"></circle><circle class="pearl" r="2.1904339371426502" cx="16.132043887717067" cy="30.024630598360286"></circle><circle class="pearl" r="2.1904339371426502" cx="11.548311583981475" cy="4.5051921880419314"></circle><circle class="pearl" r="2.1904339371426502" cx="29.163320618220684" cy="22.207941581721"></circle><circle class="pearl" r="2.1904339371426502" cx="5.67073654506329" cy="24.843648741948407"></circle><circle class="pearl" r="2.1904339371426502" cx="19.493737106862362" cy="3.860233295958333"></circle><circle class="pearl" r="2.1904339371426502" cx="24.15108553031248" cy="28.372983758895874"></circle><circle class="pearl" r="2.1904339371426502" cx="5.371880254243525" cy="9.427399943900282"></circle><circle class="pearl" r="2.1904339371426502" cx="29.83842977818649" cy="14.248783605086155"></circle></g><g class="bobaCup bright" cupRadius="16.69910225712306" width="33.39820451424612" height="33.39820451424612" pearlRadius="2.7380424214283137" pearlCount="14" transform="translate(303.30089774287694,60.39747912376636)"><circle class="pool" r="16.69910225712306" cx="16.69910225712306" cy="16.69910225712306" style="stroke-width: 1; fill: rgb(127, 205, 187);"></circle><circle class="pearl" r="2.190433937142651" cx="21.10350237046307" cy="12.65331053235499"></circle><circle class="pearl" r="2.190433937142651" cx="13.307816523263607" cy="22.152050475832148"></circle><circle class="pearl" r="2.190433937142651" cx="13.126479930415263" cy="12.322802356191392"></circle><circle class="pearl" r="2.190433937142651" cx="21.06390926126959" cy="20.618864874331358"></circle><circle class="pearl" r="2.190433937142651" cx="6.821864255782185" cy="17.513306272565906"></circle><circle class="pearl" r="2.190433937142651" cx="26.526102514164872" cy="6.84834104353177"></circle><circle class="pearl" r="2.190433937142651" cx="15.860910689600429" cy="29.72643200514329"></circle><circle class="pearl" r="2.190433937142651" cx="11.240775201753202" cy="4.567978890619475"></circle><circle class="pearl" r="2.190433937142651" cx="28.82326775696448" cy="22.177505473394792"></circle><circle class="pearl" r="2.190433937142651" cx="6.236756888108538" cy="25.625541130139304"></circle><circle class="pearl" r="2.190433937142651" cx="19.18877401053018" cy="3.837358960243165"></circle><circle class="pearl" r="2.190433937142651" cx="23.70138663179746" cy="28.208459164555318"></circle><circle class="pearl" r="2.190433937142651" cx="5.186829047681671" cy="9.703135189256493"></circle><circle class="pearl" r="2.190433937142651" cx="29.562367481080127" cy="14.219545525846398"></circle></g><g class="bobaCup bright" cupRadius="16.68952182563119" width="33.37904365126238" height="33.37904365126238" pearlRadius="2.7380424214283137" pearlCount="14" transform="translate(13.553245017569935,24.36016671587072)"><circle class="pool" r="16.68952182563119" cx="16.68952182563119" cy="16.68952182563119" style="stroke-width: 1; fill: rgb(65, 182, 196);"></circle><circle class="pearl" r="2.190433937142651" cx="21.059126347245893" cy="12.62333997045515"></circle><circle class="pearl" r="2.190433937142651" cx="13.299360900771461" cy="22.113155250264647"></circle><circle class="pearl" r="2.190433937142651" cx="13.08093554090618" cy="12.333433727704861"></circle><circle class="pearl" r="2.190433937142651" cx="21.051290542448278" cy="20.587443772212204"></circle><circle class="pearl" r="2.190433937142651" cx="6.768244551074279" cy="17.53879272720733"></circle><circle class="pearl" r="2.190433937142651" cx="26.510636560030672" cy="6.846326270469314"></circle><circle class="pearl" r="2.190433937142651" cx="15.823020430526803" cy="29.70581134981523"></circle><circle class="pearl" r="2.190433937142651" cx="11.222855763879746" cy="4.571424523245788"></circle><circle class="pearl" r="2.190433937142651" cx="28.7991779053275" cy="22.180476462828327"></circle><circle class="pearl" r="2.190433937142651" cx="6.304096574742616" cy="25.7187341185603"></circle><circle class="pearl" r="2.190433937142651" cx="19.171041065981594" cy="3.836239448653341"></circle><circle class="pearl" r="2.190433937142651" cx="23.66650648656929" cy="28.199993266651756"></circle><circle class="pearl" r="2.190433937142651" cx="5.176085484473493" cy="9.718983588735645"></circle><circle class="pearl" r="2.190433937142651" cx="29.54496169169651" cy="14.222394212092965"></circle></g><g class="bobaCup bright" cupRadius="16.513133544376256" width="33.02626708875251" height="33.02626708875251" pearlRadius="2.7380424214283137" pearlCount="14" transform="translate(277.5936142093779,36.25617620506878)"><circle class="pool" r="16.513133544376256" cx="16.513133544376256" cy="16.513133544376256" style="stroke-width: 1; fill: rgb(127, 205, 187);"></circle><circle class="pearl" r="2.190433937142651" cx="20.458462634477314" cy="12.255863879532578"></circle><circle class="pearl" r="2.190433937142651" cx="12.775238557697561" cy="20.988155491296865"></circle><circle class="pearl" r="2.190433937142651" cx="12.501839811986027" cy="12.656316220711997"></circle><circle class="pearl" r="2.190433937142651" cx="20.67275647244346" cy="20.22215781274522"></circle><circle class="pearl" r="2.190433937142651" cx="5.436084159068985" cy="17.871193378143644"></circle><circle class="pearl" r="2.190433937142651" cx="26.212498022487274" cy="6.799504630955479"></circle><circle class="pearl" r="2.190433937142651" cx="15.01812255546644" cy="29.307729455227285"></circle><circle class="pearl" r="2.190433937142651" cx="10.936658844978913" cy="4.6208033605259065"></circle><circle class="pearl" r="2.190433937142651" cx="28.331593809755198" cy="22.291363505610782"></circle><circle class="pearl" r="2.190433937142651" cx="6.824052855254646" cy="26.23422002332401"></circle><circle class="pearl" r="2.190433937142651" cx="18.8775848052641" cy="3.82087816776982"></circle><circle class="pearl" r="2.190433937142651" cx="22.912359520051776" cy="28.085205274900037"></circle><circle class="pearl" r="2.190433937142651" cx="5.031220052318302" cy="9.903528008803509"></circle><circle class="pearl" r="2.190433937142651" cx="29.214013465814148" cy="14.2090819219032"></circle></g><g class="bobaCup bright" cupRadius="15.588521837057618" width="31.177043674115236" height="31.177043674115236" pearlRadius="2.7380424214283132" pearlCount="12" transform="translate(233.64880802570138,271.4080119628382)"><circle class="pool" r="15.588521837057618" cx="15.588521837057618" cy="15.588521837057618" style="stroke-width: 1; fill: rgb(127, 205, 187);"></circle><circle class="pearl" r="2.1904339371426507" cx="17.179659548858503" cy="11.167890339021586"></circle><circle class="pearl" r="2.1904339371426507" cx="11.168723588096457" cy="17.189747942433634"></circle><circle class="pearl" r="2.1904339371426507" cx="14.056071811449511" cy="3.808354887868703"></circle><circle class="pearl" r="2.1904339371426507" cx="18.964732227448785" cy="18.960884271557656"></circle><circle class="pearl" r="2.1904339371426507" cx="3.8128340560301504" cy="14.05768542228931"></circle><circle class="pearl" r="2.1904339371426507" cx="27.10577200135974" cy="11.99205187089459"></circle><circle class="pearl" r="2.1904339371426507" cx="12.01211671612599" cy="27.11051555290345"></circle><circle class="pearl" r="2.1904339371426507" cx="6.543328644080884" cy="6.543320791825333"></circle><circle class="pearl" r="2.1904339371426507" cx="26.893706765167092" cy="19.98429529270319"></circle><circle class="pearl" r="2.1904339371426507" cx="5.357163383914368" cy="22.680053494367872"></circle><circle class="pearl" r="2.1904339371426507" cx="22.660228930590172" cy="5.347054027217822"></circle><circle class="pearl" r="2.1904339371426507" cx="20.004048939406477" cy="26.88788668424197"></circle></g><g class="bobaCup bright" cupRadius="15.348577929962534" width="30.69715585992507" height="30.69715585992507" pearlRadius="2.7380424214283137" pearlCount="12" transform="translate(288.0711971096018,39.18978622769464)"><circle class="pool" r="15.348577929962534" cx="15.348577929962534" cy="15.348577929962534" style="stroke-width: 1; fill: rgb(29, 145, 192);"></circle><circle class="pearl" r="2.190433937142651" cx="17.01073193862347" cy="10.838381912150984"></circle><circle class="pearl" r="2.190433937142651" cx="10.888426351902325" cy="16.86139030366181"></circle><circle class="pearl" r="2.190433937142651" cx="13.901636012085017" cy="3.7190785306259375"></circle><circle class="pearl" r="2.190433937142651" cx="18.485914694913063" cy="18.5183502135964"></circle><circle class="pearl" r="2.190433937142651" cx="3.7210180709856555" cy="13.881298008175667"></circle><circle class="pearl" r="2.190433937142651" cx="26.837174957357607" cy="12.822746055227825"></circle><circle class="pearl" r="2.190433937142651" cx="12.470542585497894" cy="26.774185721508555"></circle><circle class="pearl" r="2.190433937142651" cx="6.497205400940855" cy="6.460080735213303"></circle><circle class="pearl" r="2.190433937142651" cx="26.04739303096526" cy="20.795558212671942"></circle><circle class="pearl" r="2.190433937142651" cx="5.574432499676373" cy="22.788453329763623"></circle><circle class="pearl" r="2.190433937142651" cx="23.14317486393426" cy="5.777232367718334"></circle><circle class="pearl" r="2.190433937142651" cx="20.502752899652435" cy="26.155147838557728"></circle></g><g class="bobaCup bright" cupRadius="13.863425076866962" width="27.726850153733924" height="27.726850153733924" pearlRadius="2.7380424214283137" pearlCount="10" transform="translate(81.97678699617714,264.2930966475504)"><circle class="pool" r="13.863425076866962" cx="13.863425076866962" cy="13.863425076866962" style="stroke-width: 1; fill: rgb(29, 145, 192);"></circle><circle class="pearl" r="2.190433937142651" cx="16.851210706380364" cy="11.399708015851324"></circle><circle class="pearl" r="2.190433937142651" cx="11.208655706762913" cy="16.114157000312524"></circle><circle class="pearl" r="2.190433937142651" cx="13.988280695079986" cy="3.8589895238479075"></circle><circle class="pearl" r="2.190433937142651" cx="21.35694094451353" cy="21.876396580379396"></circle><circle class="pearl" r="2.190433937142651" cx="3.658446814888041" cy="13.400725318196075"></circle><circle class="pearl" r="2.190433937142651" cx="21.4277704805991" cy="5.896264097246773"></circle><circle class="pearl" r="2.190433937142651" cx="13.685683905752875" cy="24.0749874801098"></circle><circle class="pearl" r="2.190433937142651" cx="6.2714661542389685" cy="5.914289919275182"></circle><circle class="pearl" r="2.190433937142651" cx="24.064167298165113" cy="14.43915049143758"></circle><circle class="pearl" r="2.190433937142651" cx="6.296552229267068" cy="21.828940059100578"></circle></g><g class="bobaCup bright" cupRadius="13.687807646469544" width="27.375615292939088" height="27.375615292939088" pearlRadius="2.738042421428314" pearlCount="9" transform="translate(261.7248773164705,258.935195820951)"><circle class="pool" r="13.687807646469544" cx="13.687807646469544" cy="13.687807646469544" style="stroke-width: 1; fill: rgb(29, 145, 192);"></circle><circle class="pearl" r="2.1904339371426516" cx="17.02328587313902" cy="12.011846536322311"></circle><circle class="pearl" r="2.1904339371426516" cx="10.610224123524887" cy="15.973760440370242"></circle><circle class="pearl" r="2.1904339371426516" cx="13.796951932174684" cy="3.651158384615448"></circle><circle class="pearl" r="2.1904339371426516" cx="18.95404687103571" cy="22.671276224119815"></circle><circle class="pearl" r="2.1904339371426516" cx="3.660946896736576" cy="13.158870331478086"></circle><circle class="pearl" r="2.1904339371426516" cx="21.202905368407077" cy="5.8982780633026195"></circle><circle class="pearl" r="2.1904339371426516" cx="11.079838856572323" cy="23.474144250974746"></circle><circle class="pearl" r="2.1904339371426516" cx="6.191113086864827" cy="5.886210199878624"></circle><circle class="pearl" r="2.1904339371426516" cx="23.4730166152828" cy="16.30157966293177"></circle></g><g class="bobaCup bright" cupRadius="13.676905459055092" width="27.353810918110185" height="27.353810918110185" pearlRadius="2.7380424214283137" pearlCount="9" transform="translate(148.16355819433292,6.323094540944908)"><circle class="pool" r="13.676905459055092" cx="13.676905459055092" cy="13.676905459055092" style="stroke-width: 1; fill: rgb(127, 205, 187);"></circle><circle class="pearl" r="2.190433937142651" cx="17.006368932074817" cy="11.993726527805343"></circle><circle class="pearl" r="2.190433937142651" cx="10.608150777816823" cy="15.960028779085054"></circle><circle class="pearl" r="2.190433937142651" cx="13.777095316892865" cy="3.651090202749332"></circle><circle class="pearl" r="2.190433937142651" cx="18.94029263513985" cy="22.649751391801164"></circle><circle class="pearl" r="2.190433937142651" cx="3.660246849242954" cy="13.166595141930898"></circle><circle class="pearl" r="2.190433937142651" cx="21.180119231976324" cy="5.8926155256846435"></circle><circle class="pearl" r="2.190433937142651" cx="11.067810457177432" cy="23.451917450840025"></circle><circle class="pearl" r="2.190433937142651" cx="6.173646374491404" cy="5.892645257561949"></circle><circle class="pearl" r="2.190433937142651" cx="23.453146233711674" cy="16.279669488305437"></circle></g><g class="bobaCup bright" cupRadius="13.149275057881988" width="26.298550115763977" height="26.298550115763977" pearlRadius="2.7380424214283137" pearlCount="9" transform="translate(16.372083172919183,261.5695956828414)"><circle class="pool" r="13.149275057881988" cx="13.149275057881988" cy="13.149275057881988" style="stroke-width: 1; fill: rgb(127, 205, 187);"></circle><circle class="pearl" r="2.190433937142651" cx="15.109446148749699" cy="11.193862725284994"></circle><circle class="pearl" r="2.190433937142651" cx="9.711343007447624" cy="16.57711626250489"></circle><circle class="pearl" r="2.190433937142651" cx="13.21228870346272" cy="3.6508742156904894"></circle><circle class="pearl" r="2.190433937142651" cx="20.38452649406894" cy="20.47828639818788"></circle><circle class="pearl" r="2.190433937142651" cx="3.651314378037652" cy="13.024591360412193"></circle><circle class="pearl" r="2.190433937142651" cx="20.27199260261023" cy="5.746929512313564"></circle><circle class="pearl" r="2.190433937142651" cx="13.240614404070712" cy="22.647509646251198"></circle><circle class="pearl" r="2.190433937142651" cx="5.993030225457128" cy="5.768606966849283"></circle><circle class="pearl" r="2.190433937142651" cx="22.647826725546462" cy="13.151336869397356"></circle></g><g class="bobaCup bright" cupRadius="12.934567114147654" width="25.86913422829531" height="25.86913422829531" pearlRadius="2.7380424214283137" pearlCount="8" transform="translate(193.3292060391848,191.60128728033845)"><circle class="pool" r="12.934567114147654" cx="12.934567114147654" cy="12.934567114147654" style="stroke-width: 1; fill: rgb(29, 145, 192);"></circle><circle class="pearl" r="2.190433937142651" cx="19.597039137663888" cy="12.934455119740033"></circle><circle class="pearl" r="2.190433937142651" cx="11.739289374406027" cy="14.19170319833013"></circle><circle class="pearl" r="2.190433937142651" cx="12.103711156753235" cy="3.6774359583350904"></circle><circle class="pearl" r="2.190433937142651" cx="19.82648529824001" cy="20.229367636140868"></circle><circle class="pearl" r="2.190433937142651" cx="3.8267049653860408" cy="15.060955037293912"></circle><circle class="pearl" r="2.190433937142651" cx="19.83121118566022" cy="5.642743702139107"></circle><circle class="pearl" r="2.190433937142651" cx="11.981626596647043" cy="22.18325979485307"></circle><circle class="pearl" r="2.190433937142651" cx="5.016379701459822" cy="7.149817075904327"></circle></g><g class="bobaCup bright" cupRadius="12.538889960883367" width="25.077779921766734" height="25.077779921766734" pearlRadius="2.7380424214283137" pearlCount="8" transform="translate(58.50452025200981,50.21622014225753)"><circle class="pool" r="12.538889960883367" cx="12.538889960883367" cy="12.538889960883367" style="stroke-width: 1; fill: rgb(29, 145, 192);"></circle><circle class="pearl" r="2.190433937142651" cx="13.83017378267343" cy="12.8026929912421"></circle><circle class="pearl" r="2.190433937142651" cx="5.929029247444123" cy="19.54337685694493"></circle><circle class="pearl" r="2.190433937142651" cx="15.11231174903108" cy="3.917642616175346"></circle><circle class="pearl" r="2.190433937142651" cx="20.509654112624105" cy="17.24683988844151"></circle><circle class="pearl" r="2.190433937142651" cx="3.6639727817880168" cy="11.962614133717656"></circle><circle class="pearl" r="2.190433937142651" cx="20.99399232880135" cy="9.271972747587059"></circle><circle class="pearl" r="2.190433937142651" cx="13.694985951074399" cy="21.373646439260103"></circle><circle class="pearl" r="2.190433937142651" cx="7.194439673002425" cy="4.846747036161846"></circle></g><g class="bobaCup bright" cupRadius="12.395746803833346" width="24.79149360766669" height="24.79149360766669" pearlRadius="2.7380424214283137" pearlCount="8" transform="translate(279.61367407430913,61.38894674648877)"><circle class="pool" r="12.395746803833346" cx="12.395746803833346" cy="12.395746803833346" style="stroke-width: 1; fill: rgb(29, 145, 192);"></circle><circle class="pearl" r="2.190433937142651" cx="13.53503924058164" cy="12.709333422109346"></circle><circle class="pearl" r="2.190433937142651" cx="5.709758419691662" cy="19.1830357496117"></circle><circle class="pearl" r="2.190433937142651" cx="15.1510155586537" cy="3.9608160197555797"></circle><circle class="pearl" r="2.190433937142651" cx="20.118085008846645" cy="17.326062458298086"></circle><circle class="pearl" r="2.190433937142651" cx="3.6704904412877752" cy="11.695983997584948"></circle><circle class="pearl" r="2.190433937142651" cx="20.771949931230857" cy="9.394483527669037"></circle><circle class="pearl" r="2.190433937142651" cx="13.275153363416814" cy="21.109536623809955"></circle><circle class="pearl" r="2.190433937142651" cx="7.2832860239557675" cy="4.754114937077409"></circle></g><g class="bobaCup bright" cupRadius="12.374118455865355" width="24.74823691173071" height="24.74823691173071" pearlRadius="2.7380424214283132" pearlCount="8" transform="translate(159.30158841118538,114.0080287318938)"><circle class="pool" r="12.374118455865355" cx="12.374118455865355" cy="12.374118455865355" style="stroke-width: 1; fill: rgb(127, 205, 187);"></circle><circle class="pearl" r="2.1904339371426507" cx="13.49879731691891" cy="12.68952005160873"></circle><circle class="pearl" r="2.1904339371426507" cx="5.711481101674029" cy="19.150670568739994"></circle><circle class="pearl" r="2.1904339371426507" cx="15.107770214470019" cy="3.9564550639115046"></circle><circle class="pearl" r="2.1904339371426507" cx="20.079096808841477" cy="17.290097417438915"></circle><circle class="pearl" r="2.1904339371426507" cx="3.6693814842593726" cy="11.694846197026491"></circle><circle class="pearl" r="2.1904339371426507" cx="20.725439684111123" cy="9.362518147660523"></circle><circle class="pearl" r="2.1904339371426507" cx="13.256360319852012" cy="21.066022858929966"></circle><circle class="pearl" r="2.1904339371426507" cx="7.251747886314219" cy="4.760733761126047"></circle></g><g class="bobaCup bright" cupRadius="12.20144784241301" width="24.40289568482602" height="24.40289568482602" pearlRadius="2.7380424214283137" pearlCount="7" transform="translate(133.4325283397798,45.862747959312976)"><circle class="pool" r="12.20144784241301" cx="12.20144784241301" cy="12.20144784241301" style="stroke-width: 1; fill: rgb(127, 205, 187);"></circle><circle class="pearl" r="2.190433937142651" cx="13.841809519536048" cy="12.495028555063406"></circle><circle class="pearl" r="2.190433937142651" cx="5.739007437735703" cy="14.800387915786848"></circle><circle class="pearl" r="2.190433937142651" cx="12.212524243131046" cy="3.6507282561169845"></circle><circle class="pearl" r="2.190433937142651" cx="18.87135809603722" cy="18.709892662591987"></circle><circle class="pearl" r="2.190433937142651" cx="4.886393926451463" cy="6.8510215913960995"></circle><circle class="pearl" r="2.190433937142651" cx="19.5281635529109" cy="6.874989000918285"></circle><circle class="pearl" r="2.190433937142651" cx="11.129286710038159" cy="20.70497489748138"></circle></g><g class="bobaCup bright" cupRadius="12.000213127659546" width="24.00042625531909" height="24.00042625531909" pearlRadius="2.7380424214283137" pearlCount="7" transform="translate(177.1050021649192,197.2620327881033)"><circle class="pool" r="12.000213127659546" cx="12.000213127659546" cy="12.000213127659546" style="stroke-width: 1; fill: rgb(127, 205, 187);"></circle><circle class="pearl" r="2.190433937142651" cx="13.243613912563893" cy="12.331264780976971"></circle><circle class="pearl" r="2.190433937142651" cx="4.951034020514905" cy="14.862680605926602"></circle><circle class="pearl" r="2.190433937142651" cx="12.121943517860185" cy="3.6513406621518474"></circle><circle class="pearl" r="2.190433937142651" cx="18.563265816559497" cy="18.299728713555112"></circle><circle class="pearl" r="2.190433937142651" cx="4.803090644732061" cy="6.868998989780033"></circle><circle class="pearl" r="2.190433937142651" cx="19.3186272929655" cy="7.133680486907928"></circle><circle class="pearl" r="2.190433937142651" cx="10.820290851822227" cy="20.291554148297447"></circle></g><g class="bobaCup bright" cupRadius="11.96522379025983" width="23.93044758051966" height="23.93044758051966" pearlRadius="2.7380424214283137" pearlCount="7" transform="translate(252.95187345163455,68.52592298183559)"><circle class="pool" r="11.96522379025983" cx="11.96522379025983" cy="11.96522379025983" style="stroke-width: 1; fill: rgb(29, 145, 192);"></circle><circle class="pearl" r="2.190433937142651" cx="13.144468464651222" cy="12.3018673328131"></circle><circle class="pearl" r="2.190433937142651" cx="4.820204062758889" cy="14.872265144984542"></circle><circle class="pearl" r="2.190433937142651" cx="12.101692337952844" cy="3.6515014952602396"></circle><circle class="pearl" r="2.190433937142651" cx="18.508004738865207" cy="18.23092829501314"></circle><circle class="pearl" r="2.190433937142651" cx="4.786385545842434" cy="6.877279347386721"></circle><circle class="pearl" r="2.190433937142651" cx="19.27869269363826" cy="7.174287426176479"></circle><circle class="pearl" r="2.190433937142651" cx="10.764134147875943" cy="20.219288002964543"></circle></g><g class="bobaCup bright" cupRadius="11.859875380244286" width="23.719750760488573" height="23.719750760488573" pearlRadius="2.7380424214283132" pearlCount="7" transform="translate(212.62781840545534,287.79465220132334)"><circle class="pool" r="11.859875380244286" cx="11.859875380244286" cy="11.859875380244286" style="stroke-width: 1; fill: rgb(65, 182, 196);"></circle><circle class="pearl" r="2.1904339371426507" cx="12.85183004596208" cy="12.21221755492771"></circle><circle class="pearl" r="2.1904339371426507" cx="4.439281346197068" cy="14.896609054322429"></circle><circle class="pearl" r="2.1904339371426507" cx="12.036875670704514" cy="3.65204410448806"></circle><circle class="pearl" r="2.1904339371426507" cx="18.340015882573017" cy="18.026093354080697"></circle><circle class="pearl" r="2.1904339371426507" cx="4.734441531442553" cy="6.906989082466764"></circle><circle class="pearl" r="2.1904339371426507" cx="19.15458757038009" cy="7.293247791986039"></circle><circle class="pearl" r="2.1904339371426507" cx="10.592730022590077" cy="20.001140392741792"></circle></g><g class="bobaCup bright" cupRadius="11.848401063294231" width="23.696802126588462" height="23.696802126588462" pearlRadius="2.7380424214283137" pearlCount="7" transform="translate(246.78162070372932,48.005165549661)"><circle class="pool" r="11.848401063294231" cx="11.848401063294231" cy="11.848401063294231" style="stroke-width: 1; fill: rgb(65, 182, 196);"></circle><circle class="pearl" r="2.190433937142651" cx="12.820563160820567" cy="12.202341290460442"></circle><circle class="pearl" r="2.190433937142651" cx="4.398355354432173" cy="14.89924049043905"></circle><circle class="pearl" r="2.190433937142651" cx="12.029170627668725" cy="3.6521022980785354"></circle><circle class="pearl" r="2.190433937142651" cx="18.32144588090001" cy="18.00420550332318"></circle><circle class="pearl" r="2.190433937142651" cx="4.72848999021425" cy="6.910988330215365"></circle><circle class="pearl" r="2.190433937142651" cx="19.140593535907552" cy="7.30558214620721"></circle><circle class="pearl" r="2.190433937142651" cx="10.573663526908643" cy="19.9773065202973"></circle></g><g class="bobaCup bright" cupRadius="11.836544348890746" width="23.67308869778149" height="23.67308869778149" pearlRadius="2.738042421428314" pearlCount="7" transform="translate(35.55784632897825,288.16345565110925)"><circle class="pool" r="11.836544348890746" cx="11.836544348890746" cy="11.836544348890746" style="stroke-width: 1; fill: rgb(65, 182, 196);"></circle><circle class="pearl" r="2.1904339371426516" cx="12.788335149606533" cy="12.192086423170991"></circle><circle class="pearl" r="2.1904339371426516" cx="4.356279235189548" cy="14.901923372930309"></circle><circle class="pearl" r="2.1904339371426516" cx="12.02111665296324" cy="3.6521623735429896"></circle><circle class="pearl" r="2.1904339371426516" cx="18.302250681885493" cy="17.981593986536836"></circle><circle class="pearl" r="2.1904339371426516" cx="4.722301743379207" cy="6.915234288115135"></circle><circle class="pearl" r="2.1904339371426516" cx="19.12605593591109" cy="7.318243307240397"></circle><circle class="pearl" r="2.1904339371426516" cx="10.553952500951466" cy="19.952670327939224"></circle></g><g class="bobaCup bright" cupRadius="11.77571955971847" width="23.55143911943694" height="23.55143911943694" pearlRadius="2.738042421428314" pearlCount="7" transform="translate(58.90077986352516,56.65861401645803)"><circle class="pool" r="11.77571955971847" cx="11.77571955971847" cy="11.77571955971847" style="stroke-width: 1; fill: rgb(65, 182, 196);"></circle><circle class="pearl" r="2.1904339371426516" cx="12.618308029651258" cy="12.130129005744294"></circle><circle class="pearl" r="2.1904339371426516" cx="4.14321500474491" cy="14.915356045738113"></circle><circle class="pearl" r="2.1904339371426516" cx="11.977965805962118" cy="3.65246013138809"></circle><circle class="pearl" r="2.1904339371426516" cx="18.203405052739978" cy="17.866142269979434"></circle><circle class="pearl" r="2.1904339371426516" cx="4.689872834522557" cy="6.939022672688658"></circle><circle class="pearl" r="2.1904339371426516" cx="19.049992238704707" cy="7.3811734433383185"></circle><circle class="pearl" r="2.1904339371426516" cx="10.45231279923726" cy="19.826114469831772"></circle></g><g class="bobaCup bright" cupRadius="11.766339771918382" width="23.532679543836764" height="23.532679543836764" pearlRadius="2.7380424214283146" pearlCount="7" transform="translate(263.9421149858805,79.89055955470653)"><circle class="pool" r="11.766339771918382" cx="11.766339771918382" cy="11.766339771918382" style="stroke-width: 1; fill: rgb(65, 182, 196);"></circle><circle class="pearl" r="2.1904339371426516" cx="12.581992951589887" cy="12.105032813963401"></circle><circle class="pearl" r="2.1904339371426516" cx="4.107744203346612" cy="14.919904216419617"></circle><circle class="pearl" r="2.1904339371426516" cx="11.96858948512377" cy="3.6524615758029233"></circle><circle class="pearl" r="2.1904339371426516" cx="18.187426394410352" cy="17.84954599497687"></circle><circle class="pearl" r="2.1904339371426516" cx="4.683582380687674" cy="6.9456400911077605"></circle><circle class="pearl" r="2.1904339371426516" cx="19.036957763586557" cy="7.387863144216556"></circle><circle class="pearl" r="2.1904339371426516" cx="10.435572785912202" cy="19.80645957784162"></circle></g><g class="bobaCup bright" cupRadius="11.756117190431326" width="23.51223438086265" height="23.51223438086265" pearlRadius="2.7380424214283137" pearlCount="7" transform="translate(178.5343963711267,229.11083262025784)"><circle class="pool" r="11.756117190431326" cx="11.756117190431326" cy="11.756117190431326" style="stroke-width: 1; fill: rgb(29, 145, 192);"></circle><circle class="pearl" r="2.190433937142651" cx="12.540008478543024" cy="12.07639471564113"></circle><circle class="pearl" r="2.190433937142651" cx="4.08359950513784" cy="14.91689345611961"></circle><circle class="pearl" r="2.190433937142651" cx="11.965189828140879" cy="3.6525824659321238"></circle><circle class="pearl" r="2.190433937142651" cx="18.174210665261842" cy="17.824496017470373"></circle><circle class="pearl" r="2.190433937142651" cx="4.680494177049114" cy="6.944486729466005"></circle><circle class="pearl" r="2.190433937142651" cx="19.025332812733087" cy="7.401668099173886"></circle><circle class="pearl" r="2.190433937142651" cx="10.423856381041249" cy="19.785778053615022"></circle></g><g class="bobaCup bright" cupRadius="11.69704696830844" width="23.39409393661688" height="23.39409393661688" pearlRadius="2.7380424214283132" pearlCount="7" transform="translate(204.49796332630376,184.80254101300713)"><circle class="pool" r="11.69704696830844" cx="11.69704696830844" cy="11.69704696830844" style="stroke-width: 1; fill: rgb(127, 205, 187);"></circle><circle class="pearl" r="2.1904339371426507" cx="12.267003261322122" cy="11.89523685459302"></circle><circle class="pearl" r="2.1904339371426507" cx="4.075256363518897" cy="14.819760476702541"></circle><circle class="pearl" r="2.1904339371426507" cx="12.02828516468023" cy="3.6554141880984856"></circle><circle class="pearl" r="2.1904339371426507" cx="18.14498748906298" cy="17.5994107538498"></circle><circle class="pearl" r="2.1904339371426507" cx="4.702173629927871" cy="6.850173593387153"></circle><circle class="pearl" r="2.1904339371426507" cx="18.993129056791968" cy="7.5753530047397515"></circle><circle class="pearl" r="2.1904339371426507" cx="10.424870136422003" cy="19.67398360263432"></circle></g><g class="bobaCup bright" cupRadius="11.675254347054778" width="23.350508694109557" height="23.350508694109557" pearlRadius="2.738042421428314" pearlCount="7" transform="translate(201.16333670210466,151.31385765826278)"><circle class="pool" r="11.675254347054778" cx="11.675254347054778" cy="11.675254347054778" style="stroke-width: 1; fill: rgb(127, 205, 187);"></circle><circle class="pearl" r="2.1904339371426516" cx="12.173077206039249" cy="11.832247973886517"></circle><circle class="pearl" r="2.1904339371426516" cx="4.071676579728107" cy="14.782065117307171"></circle><circle class="pearl" r="2.1904339371426516" cx="12.053882529231295" cy="3.6568642944856387"></circle><circle class="pearl" r="2.1904339371426516" cx="18.133209366174672" cy="17.517016765459072"></circle><circle class="pearl" r="2.1904339371426516" cx="4.711156098034998" cy="6.8134512795398905"></circle><circle class="pearl" r="2.1904339371426516" cx="18.981305966575647" cy="7.642804843757677"></circle><circle class="pearl" r="2.1904339371426516" cx="10.424209466892433" cy="19.632565007831236"></circle></g><g class="bobaCup bright" cupRadius="11.599553543414071" width="23.199107086828143" height="23.199107086828143" pearlRadius="2.7380424214283137" pearlCount="7" transform="translate(8.400446456585929,159.24436005458807)"><circle class="pool" r="11.599553543414071" cx="11.599553543414071" cy="11.599553543414071" style="stroke-width: 1; fill: rgb(65, 182, 196);"></circle><circle class="pearl" r="2.190433937142651" cx="11.887385759938194" cy="11.642461803289523"></circle><circle class="pearl" r="2.190433937142651" cx="4.058873237877174" cy="14.64949277941293"></circle><circle class="pearl" r="2.190433937142651" cx="12.139255816750508" cy="3.663285624034563"></circle><circle class="pearl" r="2.190433937142651" cx="18.08479078225594" cy="17.239761678720043"></circle><circle class="pearl" r="2.190433937142651" cx="4.743422913937934" cy="6.684712303641607"></circle><circle class="pearl" r="2.190433937142651" cx="18.93103184654864" cy="7.865803160282922"></circle><circle class="pearl" r="2.190433937142651" cx="10.41483550393788" cy="19.487724784135512"></circle></g><g class="bobaCup bright" cupRadius="10.816852189347962" width="21.633704378695924" height="21.633704378695924" pearlRadius="2.738042421428314" pearlCount="6" transform="translate(75.95494230939869,177.13975856451526)"><circle class="pool" r="10.816852189347962" cx="10.816852189347962" cy="10.816852189347962" style="stroke-width: 1; fill: rgb(127, 205, 187);"></circle><circle class="pearl" r="2.1904339371426516" cx="11.160014232633488" cy="11.07511354150475"></circle><circle class="pearl" r="2.1904339371426516" cx="5.558738212808954" cy="16.61898718968981"></circle><circle class="pearl" r="2.1904339371426516" cx="8.85961024105697" cy="3.829272205373736"></circle><circle class="pearl" r="2.1904339371426516" cx="16.312509434098576" cy="16.4828903473544"></circle><circle class="pearl" r="2.1904339371426516" cx="3.773928695846202" cy="9.188905301485063"></circle><circle class="pearl" r="2.1904339371426516" cx="16.410258889242474" cy="5.209168817656938"></circle></g><g class="bobaCup bright" cupRadius="10.69155696748165" width="21.3831139349633" height="21.3831139349633" pearlRadius="2.738042421428314" pearlCount="6" transform="translate(138.88697823217112,96.8337965640236)"><circle class="pool" r="10.69155696748165" cx="10.69155696748165" cy="10.69155696748165" style="stroke-width: 1; fill: rgb(65, 182, 196);"></circle><circle class="pearl" r="2.1904339371426516" cx="11.013825987825344" cy="10.978403673794038"></circle><circle class="pearl" r="2.1904339371426516" cx="5.296268426847147" cy="16.271231994251632"></circle><circle class="pearl" r="2.1904339371426516" cx="8.80987351963522" cy="3.8176111850573684"></circle><circle class="pearl" r="2.1904339371426516" cx="16.067842809478574" cy="16.282313108256627"></circle><circle class="pearl" r="2.1904339371426516" cx="3.7969725682198097" cy="8.929206995633228"></circle><circle class="pearl" r="2.1904339371426516" cx="16.185549804916" cy="5.170288422663191"></circle></g><g class="bobaCup bright" cupRadius="10.466426366952934" width="20.932852733905868" height="20.932852733905868" pearlRadius="2.7380424214283137" pearlCount="5" transform="translate(47.05900844110499,124.87182648732514)"><circle class="pool" r="10.466426366952934" cx="10.466426366952934" cy="10.466426366952934" style="stroke-width: 1; fill: rgb(29, 145, 192);"></circle><circle class="pearl" r="2.190433937142651" cx="16.536747313935322" cy="8.128548139741719"></circle><circle class="pearl" r="2.190433937142651" cx="7.411562285399736" cy="15.934070935654463"></circle><circle class="pearl" r="2.190433937142651" cx="9.903036881562318" cy="3.665897365164305"></circle><circle class="pearl" r="2.190433937142651" cx="15.405900618454698" cy="16.043252922240978"></circle><circle class="pearl" r="2.190433937142651" cx="3.7826259496071355" cy="8.810014006810569"></circle></g><g class="bobaCup bright" cupRadius="10.445045914010295" width="20.89009182802059" height="20.89009182802059" pearlRadius="2.738042421428314" pearlCount="5" transform="translate(183.04737369160756,87.4654291654324)"><circle class="pool" r="10.445045914010295" cx="10.445045914010295" cy="10.445045914010295" style="stroke-width: 1; fill: rgb(65, 182, 196);"></circle><circle class="pearl" r="2.1904339371426516" cx="16.561001638990692" cy="8.092421681379227"></circle><circle class="pearl" r="2.1904339371426516" cx="7.385483130002716" cy="15.94114566394832"></circle><circle class="pearl" r="2.1904339371426516" cx="9.903892710087165" cy="3.6647511023483514"></circle><circle class="pearl" r="2.1904339371426516" cx="15.38035147339672" cy="15.999850545441188"></circle><circle class="pearl" r="2.1904339371426516" cx="3.7802758985632594" cy="8.805051012067102"></circle></g><g class="bobaCup bright" cupRadius="10.431945670771327" width="20.863891341542654" height="20.863891341542654" pearlRadius="2.7380424214283137" pearlCount="5" transform="translate(176.38175273398878,58.05432910967774)"><circle class="pool" r="10.431945670771327" cx="10.431945670771327" cy="10.431945670771327" style="stroke-width: 1; fill: rgb(127, 205, 187);"></circle><circle class="pearl" r="2.190433937142651" cx="16.575647441607718" cy="8.070565905894268"></circle><circle class="pearl" r="2.190433937142651" cx="7.369434899039077" cy="15.94540650422034"></circle><circle class="pearl" r="2.190433937142651" cx="9.90450664856079" cy="3.6640654153924537"></circle><circle class="pearl" r="2.190433937142651" cx="15.364469844111998" cy="15.973376474707234"></circle><circle class="pearl" r="2.190433937142651" cx="3.7788553281443313" cy="8.801940649945044"></circle></g><g class="bobaCup bright" cupRadius="10.110334596487903" width="20.220669192975805" height="20.220669192975805" pearlRadius="2.738042421428314" pearlCount="5" transform="translate(95.95566201839121,276.85839234503203)"><circle class="pool" r="10.110334596487903" cx="10.110334596487903" cy="10.110334596487903" style="stroke-width: 1; fill: rgb(127, 205, 187);"></circle><circle class="pearl" r="2.1904339371426516" cx="16.182553997088906" cy="7.338466583257766"></circle><circle class="pearl" r="2.1904339371426516" cx="7.3032800114065415" cy="16.1724539080445"></circle><circle class="pearl" r="2.1904339371426516" cx="9.244114327122016" cy="3.6878990306251436"></circle><circle class="pearl" r="2.1904339371426516" cx="15.182835360999196" cy="15.205387585438768"></circle><circle class="pearl" r="2.1904339371426516" cx="3.6906506220425954" cy="9.212690781617132"></circle></g><g class="bobaCup bright" cupRadius="10.089500926850445" width="20.17900185370089" height="20.17900185370089" pearlRadius="2.7380424214283132" pearlCount="5" transform="translate(150.49011106543296,107.40616517664775)"><circle class="pool" r="10.089500926850445" cx="10.089500926850445" cy="10.089500926850445" style="stroke-width: 1; fill: rgb(29, 145, 192);"></circle><circle class="pearl" r="2.1904339371426507" cx="16.139789545073278" cy="7.316704846847439"></circle><circle class="pearl" r="2.1904339371426507" cx="7.274116237650881" cy="16.12751538720131"></circle><circle class="pearl" r="2.1904339371426507" cx="9.22504570292641" cy="3.687824137577709"></circle><circle class="pearl" r="2.1904339371426507" cx="15.143903125360854" cy="15.170962268512007"></circle><circle class="pearl" r="2.1904339371426507" cx="3.691197724809302" cy="9.18667383943398"></circle></g><g class="bobaCup bright" cupRadius="10.00676921563339" width="20.01353843126678" height="20.01353843126678" pearlRadius="2.7380424214283132" pearlCount="5" transform="translate(245.97900388515163,17.08391002627136)"><circle class="pool" r="10.00676921563339" cx="10.00676921563339" cy="10.00676921563339" style="stroke-width: 1; fill: rgb(65, 182, 196);"></circle><circle class="pearl" r="2.1904339371426507" cx="15.970055762173264" cy="7.230756575348939"></circle><circle class="pearl" r="2.1904339371426507" cx="7.15723640692115" cy="15.948521835716843"></circle><circle class="pearl" r="2.1904339371426507" cx="9.15064764087169" cy="3.687412906699488"></circle><circle class="pearl" r="2.1904339371426507" cx="14.989197008310175" cy="15.034228021665523"></circle><circle class="pearl" r="2.1904339371426507" cx="3.693544391567852" cy="9.082015551511454"></circle></g><g class="bobaCup bright" cupRadius="9.914064654944754" width="19.82812930988951" height="19.82812930988951" pearlRadius="2.738042421428314" pearlCount="5" transform="translate(305.51228423306964,135.38762961677202)"><circle class="pool" r="9.914064654944754" cx="9.914064654944754" cy="9.914064654944754" style="stroke-width: 1; fill: rgb(127, 205, 187);"></circle><circle class="pearl" r="2.1904339371426516" cx="15.780090598941879" cy="7.135546494333398"></circle><circle class="pearl" r="2.1904339371426516" cx="7.023975790832142" cy="15.746804103052327"></circle><circle class="pearl" r="2.1904339371426516" cx="9.070172774470324" cy="3.686704846990273"></circle><circle class="pearl" r="2.1904339371426516" cx="14.81560369198009" cy="14.880974108894058"></circle><circle class="pearl" r="2.1904339371426516" cx="3.6965607025276506" cy="8.961819787890732"></circle></g><g class="bobaCup bright" cupRadius="9.45783280977004" width="18.91566561954008" height="18.91566561954008" pearlRadius="2.7380424214283132" pearlCount="4" transform="translate(106.1191322314114,156.2786906176991)"><circle class="pool" r="9.45783280977004" cx="9.45783280977004" cy="9.45783280977004" style="stroke-width: 1; fill: rgb(29, 145, 192);"></circle><circle class="pearl" r="2.1904339371426507" cx="14.807997154351977" cy="6.553590334868524"></circle><circle class="pearl" r="2.1904339371426507" cx="5.638695528895697" cy="12.379050562568798"></circle><circle class="pearl" r="2.1904339371426507" cx="7.262992710432302" cy="3.9089213501645466"></circle><circle class="pearl" r="2.1904339371426507" cx="13.369370190832383" cy="14.418176691268098"></circle></g><g class="bobaCup bright" cupRadius="9.080125873965596" width="18.16025174793119" height="18.16025174793119" pearlRadius="2.7380424214283137" pearlCount="4" transform="translate(202.99559382394517,106.44501704784585)"><circle class="pool" r="9.080125873965596" cx="9.080125873965596" cy="9.080125873965596" style="stroke-width: 1; fill: rgb(65, 182, 196);"></circle><circle class="pearl" r="2.190433937142651" cx="13.88167446606398" cy="5.7623273634203525"></circle><circle class="pearl" r="2.190433937142651" cx="5.0135205358966415" cy="12.100670385265957"></circle><circle class="pearl" r="2.190433937142651" cx="6.046240737879684" cy="4.172564994837495"></circle><circle class="pearl" r="2.190433937142651" cx="12.848954264087274" cy="13.690432753853887"></circle></g><g class="bobaCup bright" cupRadius="9.016202227471384" width="18.032404454942768" height="18.032404454942768" pearlRadius="2.7380424214283132" pearlCount="4" transform="translate(252.78174451324182,50.6732498853414)"><circle class="pool" r="9.016202227471384" cx="9.016202227471384" cy="9.016202227471384" style="stroke-width: 1; fill: rgb(29, 145, 192);"></circle><circle class="pearl" r="2.1904339371426507" cx="13.722021515513891" cy="5.6309253149147"></circle><circle class="pearl" r="2.1904339371426507" cx="4.889183884927364" cy="12.161268100601346"></circle><circle class="pearl" r="2.1904339371426507" cx="5.851643715071213" cy="4.224326802295178"></circle><circle class="pearl" r="2.1904339371426507" cx="12.759561685372782" cy="13.567866613223345"></circle></g><g class="bobaCup bright" cupRadius="8.219431549824861" width="16.438863099649723" height="16.438863099649723" pearlRadius="2.738042421428314" pearlCount="3" transform="translate(278.1616465213648,49.96243069803117)"><circle class="pool" r="8.219431549824861" cx="8.219431549824861" cy="8.219431549824861" style="stroke-width: 1; fill: rgb(65, 182, 196);"></circle><circle class="pearl" r="2.1904339371426516" cx="12.530182246466747" cy="9.875300143645163"></circle><circle class="pearl" r="2.1904339371426516" cx="4.491479400334864" cy="11.145799304476794"></circle><circle class="pearl" r="2.1904339371426516" cx="7.470487907893317" cy="3.6849157211987387"></circle></g><g class="bobaCup bright" cupRadius="7.812567031040106" width="15.625134062080212" height="15.625134062080212" pearlRadius="2.7380424214283137" pearlCount="3" transform="translate(173.3502750561011,197.24081310936464)"><circle class="pool" r="7.812567031040106" cx="7.812567031040106" cy="7.812567031040106" style="stroke-width: 1; fill: rgb(65, 182, 196);"></circle><circle class="pearl" r="2.190433937142651" cx="11.863926357832128" cy="9.121814114239502"></circle><circle class="pearl" r="2.190433937142651" cx="4.480950035930929" cy="11.228422310657727"></circle><circle class="pearl" r="2.190433937142651" cx="6.093098706552151" cy="3.8422908306926056"></circle></g><g class="bobaCup bright" cupRadius="7.7601990989001255" width="15.520398197800251" height="15.520398197800251" pearlRadius="2.738042421428314" pearlCount="3" transform="translate(73.05522994014433,230.0035850774179)"><circle class="pool" r="7.7601990989001255" cx="7.7601990989001255" cy="7.7601990989001255" style="stroke-width: 1; fill: rgb(127, 205, 187);"></circle><circle class="pearl" r="2.1904339371426516" cx="11.77502519087557" cy="8.9685217664186"></circle><circle class="pearl" r="2.1904339371426516" cx="4.489175275246859" cy="11.14659837883087"></circle><circle class="pearl" r="2.1904339371426516" cx="5.904226335360272" cy="3.87593359784669"></circle></g><g class="bobaCup bright" cupRadius="7.725959013773698" width="15.451918027547396" height="15.451918027547396" pearlRadius="2.7380424214283146" pearlCount="3" transform="translate(224.52291426898722,104.35023035968888)"><circle class="pool" r="7.725959013773698" cx="7.725959013773698" cy="7.725959013773698" style="stroke-width: 1; fill: rgb(29, 145, 192);"></circle><circle class="pearl" r="2.1904339371426516" cx="11.720115455056884" cy="8.842318058149619"></circle><circle class="pearl" r="2.1904339371426516" cx="4.496482419626205" cy="11.093848440874996"></circle><circle class="pearl" r="2.1904339371426516" cx="5.756273302010843" cy="3.9060209008444007"></circle></g><g class="bobaCup bright" cupRadius="7.698920589554389" width="15.397841179108777" height="15.397841179108777" pearlRadius="2.7380424214283132" pearlCount="3" transform="translate(193.02829550839078,114.89927795563574)"><circle class="pool" r="7.698920589554389" cx="7.698920589554389" cy="7.698920589554389" style="stroke-width: 1; fill: rgb(29, 145, 192);"></circle><circle class="pearl" r="2.1904339371426507" cx="11.678578411369767" cy="8.723939257758852"></circle><circle class="pearl" r="2.1904339371426507" cx="4.503648373072604" cy="11.052739723396716"></circle><circle class="pearl" r="2.1904339371426507" cx="5.621796259356115" cy="3.936214600741465"></circle></g><g class="bobaCup bright" cupRadius="7.418334544934977" width="14.836669089869954" height="14.836669089869954" pearlRadius="2.7380424214283137" pearlCount="3" transform="translate(71.81896217045961,111.63178007596593)"><circle class="pool" r="7.418334544934977" cx="7.418334544934977" cy="7.418334544934977" style="stroke-width: 1; fill: rgb(65, 182, 196);"></circle><circle class="pearl" r="2.190433937142651" cx="11.185945152033785" cy="7.4215784824879005"></circle><circle class="pearl" r="2.190433937142651" cx="4.55262963794937" cy="10.610083297063138"></circle><circle class="pearl" r="2.190433937142651" cx="4.552394156100623" cy="4.226684420039911"></circle></g><g class="bobaCup bright" cupRadius="7.124770312363279" width="14.249540624726558" height="14.249540624726558" pearlRadius="2.7380424214283137" pearlCount="3" transform="translate(16.750432845196674,173.39141550274738)"><circle class="pool" r="7.124770312363279" cx="7.124770312363279" cy="7.124770312363279" style="stroke-width: 1; fill: rgb(29, 145, 192);"></circle><circle class="pearl" r="2.190433937142651" cx="9.940528080441572" cy="10.018805306632814"></circle><circle class="pearl" r="2.190433937142651" cx="4.318394613767864" cy="10.022833799075126"></circle><circle class="pearl" r="2.190433937142651" cx="6.611308512000912" cy="3.669249175342805"></circle></g><g class="bobaCup bright" cupRadius="6.998253116216157" width="13.996506232432314" height="13.996506232432314" pearlRadius="2.7380424214283146" pearlCount="2" transform="translate(192.32846717976972,87.50077405397961)"><circle class="pool" r="6.998253116216157" cx="6.998253116216157" cy="6.998253116216157" style="stroke-width: 1; fill: rgb(29, 145, 192);"></circle><circle class="pearl" r="2.1904339371426516" cx="9.759009582407238" cy="4.2182866140497"></circle><circle class="pearl" r="2.1904339371426516" cx="4.2374966500250775" cy="9.778219618382614"></circle></g><g class="bobaCup bright" cupRadius="6.855059456881822" width="13.710118913763644" height="13.710118913763644" pearlRadius="2.7380424214283137" pearlCount="2" transform="translate(190.3599050634506,187.69335449045536)"><circle class="pool" r="6.855059456881822" cx="6.855059456881822" cy="6.855059456881822" style="stroke-width: 1; fill: rgb(29, 145, 192);"></circle><circle class="pearl" r="2.190433937142651" cx="9.479190309976683" cy="4.172870446741515"></circle><circle class="pearl" r="2.190433937142651" cx="4.23092860378696" cy="9.537248467022128"></circle></g><g class="bobaCup bright" cupRadius="6.495876443519856" width="12.991752887039713" height="12.991752887039713" pearlRadius="2.738042421428314" pearlCount="2" transform="translate(266.5906557304415,22.78616062555735)"><circle class="pool" r="6.495876443519856" cx="6.495876443519856" cy="6.495876443519856" style="stroke-width: 1; fill: rgb(65, 182, 196);"></circle><circle class="pearl" r="2.1904339371426516" cx="8.777618227120376" cy="4.064653831946712"></circle><circle class="pearl" r="2.1904339371426516" cx="4.214134659919337" cy="8.927099055093"></circle></g><g class="bobaCup bright" cupRadius="6.468538864877926" width="12.937077729755853" height="12.937077729755853" pearlRadius="2.7380424214283132" pearlCount="2" transform="translate(121.79320045885098,20.137841145014335)"><circle class="pool" r="6.468538864877926" cx="6.468538864877926" cy="6.468538864877926" style="stroke-width: 1; fill: rgb(65, 182, 196);"></circle><circle class="pearl" r="2.1904339371426507" cx="8.72423446687906" cy="4.056768184375868"></circle><circle class="pearl" r="2.1904339371426507" cx="4.212843262876792" cy="8.880309545379983"></circle></g><g class="bobaCup bright" cupRadius="6.448336168057688" width="12.896672336115376" height="12.896672336115376" pearlRadius="2.738042421428314" pearlCount="2" transform="translate(281.32315979777206,18.07626178531725)"><circle class="pool" r="6.448336168057688" cx="6.448336168057688" cy="6.448336168057688" style="stroke-width: 1; fill: rgb(127, 205, 187);"></circle><circle class="pearl" r="2.1904339371426516" cx="8.684784115863671" cy="4.050973756276505"></circle><circle class="pearl" r="2.1904339371426516" cx="4.2118882202517085" cy="8.845698579838874"></circle></g><g class="bobaCup bright" cupRadius="5.878711166996072" width="11.757422333992144" height="11.757422333992144" pearlRadius="2.7380424214283132" pearlCount="2" transform="translate(209.96913266886637,201.9114481804423)"><circle class="pool" r="5.878711166996072" cx="5.878711166996072" cy="5.878711166996072" style="stroke-width: 1; fill: rgb(65, 182, 196);"></circle><circle class="pearl" r="2.1904339371426507" cx="7.668145540112378" cy="3.929687114727227"></circle><circle class="pearl" r="2.1904339371426507" cx="4.089276793879766" cy="7.827735219264917"></circle></g><g class="bobaCup bright" cupRadius="5.378587534492257" width="10.757175068984514" height="10.757175068984514" pearlRadius="2.738042421428313" pearlCount="1" transform="translate(139.60915483585865,206.62625884348301)"><circle class="pool" r="5.378587534492257" cx="5.378587534492257" cy="5.378587534492257" style="stroke-width: 1; fill: rgb(127, 205, 187);"></circle><circle class="pearl" r="2.1904339371426502" cx="7.075994221289088" cy="5.378587534492257"></circle></g><g class="bobaCup bright" cupRadius="5.250514319929835" width="10.50102863985967" height="10.50102863985967" pearlRadius="2.7380424214283137" pearlCount="1" transform="translate(46.33714875557043,199.27046724294257)"><circle class="pool" r="5.250514319929835" cx="5.250514319929835" cy="5.250514319929835" style="stroke-width: 1; fill: rgb(65, 182, 196);"></circle><circle class="pearl" r="2.190433937142651" cx="6.850305411288586" cy="5.250514319929835"></circle></g><g class="bobaCup bright" cupRadius="5.001448046660119" width="10.002896093320238" height="10.002896093320238" pearlRadius="2.7380424214283137" pearlCount="1" transform="translate(277.92918757392505,76.74532547049263)"><circle class="pool" r="5.001448046660119" cx="5.001448046660119" cy="5.001448046660119" style="stroke-width: 1; fill: rgb(65, 182, 196);"></circle><circle class="pearl" r="2.190433937142651" cx="6.3521728647491535" cy="5.001448046660119"></circle></g><g class="bobaCup bright" cupRadius="4.501811375214184" width="9.003622750428368" height="9.003622750428368" pearlRadius="2.7380424214283132" pearlCount="1" transform="translate(50.6714725239878,210.42234655086793)"><circle class="pool" r="4.501811375214184" cx="4.501811375214184" cy="4.501811375214184" style="stroke-width: 1; fill: rgb(29, 145, 192);"></circle><circle class="pearl" r="2.1904339371426507" cx="5.352899521857284" cy="4.501811375214184"></circle></g><g class="bobaCup bright" cupRadius="2.468061623832719" width="4.936123247665438" height="4.936123247665438" pearlRadius="2.7380424214283137" pearlCount="0" transform="translate(274.5375066320381,225.38405694618032)"><circle class="pool" r="2.468061623832719" cx="2.468061623832719" cy="2.468061623832719" style="stroke-width: 1; fill: rgb(127, 205, 187);"></circle></g><g class="bobaCup bright" cupRadius="0.8012202936132252" width="1.6024405872264504" height="1.6024405872264504" pearlRadius="2.738042421428314" pearlCount="0" transform="translate(236.67000952269703,24.73241542568846)"><circle class="pool" r="0.8012202936132252" cx="0.8012202936132252" cy="0.8012202936132252" style="stroke-width: 1; fill: rgb(29, 145, 192);"></circle></g><g class="bobaCup bright" cupRadius="0" width="0" height="0" pearlRadius="NaN" pearlCount="0" transform="translate(20,300)"><circle class="pool" r="0" cx="0" cy="0" style="stroke-width: 1; fill: rgb(29, 145, 192);"></circle></g><g class="bobaCup bright" cupRadius="0" width="0" height="0" pearlRadius="NaN" pearlCount="0" transform="translate(84.81014626212416,82.66401620482694)"><circle class="pool" r="0" cx="0" cy="0" style="stroke-width: 1; fill: rgb(127, 205, 187);"></circle></g></g><g id="legendDividerGroup" transform="translate(410,0)" height="400"><rect class="legendDivider" height="400" width="90"></rect></g><g id="legend" transform="translate(410,30)" width="90" height="320"><rect class="legendBorder" transform="translate(0,0)" width="90" height="324.9477195110013"></rect><text id="rTitle" text-anchor="middle" alignment-baseline="hanging" transform="translate(45,10)" x="0" y="0" style="fill: black; font-size: 0.8rem;">Population</text><text id="bobaValue" text-anchor="middle" alignment-baseline="hanging" transform="translate(45,25)" x="0" y="0" style="fill: black; font-size: 0.7rem;">(1 Pearl =   75)</text><g class="bright" cupRadius="8.94427190999916" width="17.88854381999832" height="17.88854381999832" pearlRadius="2.7380424214283137" pearlCount="4" transform="translate(36.05572809000084,50)"><circle class="pool" r="8.94427190999916" cx="8.94427190999916" cy="8.94427190999916" style="stroke-width: 1; fill: rgb(29, 145, 192);"></circle><circle class="pearl" r="2.190433937142651" cx="13.542613460651712" cy="5.486970900805415"></circle><circle class="pearl" r="2.190433937142651" cx="4.749399498236599" cy="12.229516637519533"></circle><circle class="pearl" r="2.190433937142651" cx="5.6385452023940825" cy="4.284028231246733"></circle><circle class="pearl" r="2.190433937142651" cx="12.653467756495177" cy="13.432459307079196"></circle></g><text id="0" class="legendSampleValue" text-anchor="middle" transform="translate(45,8)" x="0" y="72.88854381999832" style="fill: black; font-size: 0.7rem;"> 300</text><g class="bright" cupRadius="12.649110640673518" width="25.298221281347036" height="25.298221281347036" pearlRadius="2.7380424214283137" pearlCount="8" transform="translate(32.35088935932648,92.88854381999832)"><circle class="pool" r="12.649110640673518" cx="12.649110640673518" cy="12.649110640673518" style="stroke-width: 1; fill: rgb(29, 145, 192);"></circle><circle class="pearl" r="2.190433937142651" cx="14.071403428550026" cy="12.846878791771143"></circle><circle class="pearl" r="2.190433937142651" cx="6.440581911774749" cy="19.57795138257092"></circle><circle class="pearl" r="2.190433937142651" cx="15.10273708455154" cy="3.8909774644866477"></circle><circle class="pearl" r="2.190433937142651" cx="20.833946229646862" cy="17.112242666106596"></circle><circle class="pearl" r="2.190433937142651" cx="3.6634707295578792" cy="12.081372495075817"></circle><circle class="pearl" r="2.190433937142651" cx="21.1462151053254" cy="9.123450087562194"></circle><circle class="pearl" r="2.190433937142651" cx="14.187116834584868" cy="21.553646746241665"></circle><circle class="pearl" r="2.190433937142651" cx="7.171845845081948" cy="4.898098459274186"></circle></g><text id="1" class="legendSampleValue" text-anchor="middle" transform="translate(45,8)" x="0" y="123.18676510134536" style="fill: black; font-size: 0.7rem;"> 600</text><g class="bright" cupRadius="15.491933384829668" width="30.983866769659336" height="30.983866769659336" pearlRadius="2.738042421428314" pearlCount="12" transform="translate(29.508066615170332,143.18676510134537)"><circle class="pool" r="15.491933384829668" cx="15.491933384829668" cy="15.491933384829668" style="stroke-width: 1; fill: rgb(29, 145, 192);"></circle><circle class="pearl" r="2.1904339371426516" cx="17.033011743384765" cy="11.01737610913958"></circle><circle class="pearl" r="2.1904339371426516" cx="11.029309432951333" cy="17.00347040031935"></circle><circle class="pearl" r="2.1904339371426516" cx="13.977981653444434" cy="3.724876288236054"></circle><circle class="pearl" r="2.1904339371426516" cx="18.741808845067855" cy="18.756462357333643"></circle><circle class="pearl" r="2.1904339371426516" cx="3.725529689195627" cy="13.971342248807428"></circle><circle class="pearl" r="2.1904339371426516" cx="26.98661348100194" cy="12.233596672509572"></circle><circle class="pearl" r="2.1904339371426516" cx="12.152198575888569" cy="26.968872613027877"></circle><circle class="pearl" r="2.1904339371426516" cx="6.524197378590721" cy="6.5101702816287865"></circle><circle class="pearl" r="2.1904339371426516" cx="26.508263068801252" cy="20.479674242239334"></circle><circle class="pearl" r="2.1904339371426516" cx="5.419021306595209" cy="22.679550094546478"></circle><circle class="pearl" r="2.1904339371426516" cx="22.76079804957651" cy="5.461881544509561"></circle><circle class="pearl" r="2.1904339371426516" cx="20.400071923945557" cy="26.535092423407907"></circle></g><text id="2" class="legendSampleValue" text-anchor="middle" transform="translate(45,8)" x="0" y="179.1706318710047" style="fill: black; font-size: 0.7rem;"> 900</text><g class="bright" cupRadius="17.88854381999832" width="35.77708763999664" height="35.77708763999664" pearlRadius="2.7380424214283137" pearlCount="16" transform="translate(27.11145618000168,199.1706318710047)"><circle class="pool" r="17.88854381999832" cx="17.88854381999832" cy="17.88854381999832" style="stroke-width: 1; fill: rgb(29, 145, 192);"></circle><circle class="pearl" r="2.190433937142651" cx="19.8046930625516" cy="19.706925044831756"></circle><circle class="pearl" r="2.190433937142651" cx="13.339172784724305" cy="23.858410298028698"></circle><circle class="pearl" r="2.190433937142651" cx="16.092791630714295" cy="11.113543243945612"></circle><circle class="pearl" r="2.190433937142651" cx="20.836129534048155" cy="27.499380517199565"></circle><circle class="pearl" r="2.190433937142651" cx="10.312657514553905" cy="16.56124087753138"></circle><circle class="pearl" r="2.190433937142651" cx="23.678755837700653" cy="13.13675787817294"></circle><circle class="pearl" r="2.190433937142651" cx="14.311679794483911" cy="31.765114841909277"></circle><circle class="pearl" r="2.190433937142651" cx="11.081450997216843" cy="4.99648955196875"></circle><circle class="pearl" r="2.190433937142651" cx="27.674351504393126" cy="20.796258814455655"></circle><circle class="pearl" r="2.190433937142651" cx="4.000488629236898" cy="21.40866477780026"></circle><circle class="pearl" r="2.190433937142651" cx="28.333596734388347" cy="7.01684061165493"></circle><circle class="pearl" r="2.190433937142651" cx="28.522531366621063" cy="28.62247591779055"></circle><circle class="pearl" r="2.190433937142651" cx="5.30391541992303" cy="10.377661215789304"></circle><circle class="pearl" r="2.190433937142651" cx="31.694235049536697" cy="13.980399213320233"></circle><circle class="pearl" r="2.190433937142651" cx="7.311073872078207" cy="28.66408585659018"></circle><circle class="pearl" r="2.190433937142651" cx="18.987039995684725" cy="3.684483203560177"></circle></g><text id="3" class="legendSampleValue" text-anchor="middle" transform="translate(45,8)" x="0" y="239.94771951100134" style="fill: black; font-size: 0.7rem;">1.2k</text><g class="bright" cupRadius="20" width="40" height="40" pearlRadius="2.7380424214283137" pearlCount="20" transform="translate(25,259.9477195110013)"><circle class="pool" r="20" cx="20" cy="20" style="stroke-width: 1; fill: rgb(29, 145, 192);"></circle><circle class="pearl" r="2.190433937142651" cx="22.480421380823074" cy="19.96094551607325"></circle><circle class="pearl" r="2.190433937142651" cx="14.554532211889109" cy="20.25858246523202"></circle><circle class="pearl" r="2.190433937142651" cx="21.718613402750453" cy="11.231225788085391"></circle><circle class="pearl" r="2.190433937142651" cx="25.13767186853209" cy="27.447308990534317"></circle><circle class="pearl" r="2.190433937142651" cx="6.622341466842937" cy="15.212813608895589"></circle><circle class="pearl" r="2.190433937142651" cx="28.49521909515808" cy="14.82158787688231"></circle><circle class="pearl" r="2.190433937142651" cx="17.504603283401977" cy="28.993209871734443"></circle><circle class="pearl" r="2.190433937142651" cx="14.13811847195522" cy="12.373399584276378"></circle><circle class="pearl" r="2.190433937142651" cx="31.11803529924844" cy="22.444175683247455"></circle><circle class="pearl" r="2.190433937142651" cx="10.013176726772668" cy="26.767604068489224"></circle><circle class="pearl" r="2.190433937142651" cx="25.1625299271706" cy="4.328500666167248"></circle><circle class="pearl" r="2.190433937142651" cx="27.782608687955303" cy="34.772930101052836"></circle><circle class="pearl" r="2.190433937142651" cx="8.036930275650786" cy="7.623092000895575"></circle><circle class="pearl" r="2.190433937142651" cx="36.040664285033515" cy="16.500106031740792"></circle><circle class="pearl" r="2.190433937142651" cx="11.3070075503718" cy="34.36126950601293"></circle><circle class="pearl" r="2.190433937142651" cx="16.81383473400994" cy="3.9061454691506903"></circle><circle class="pearl" r="2.190433937142651" cx="33.74247113697989" cy="29.87303346303284"></circle><circle class="pearl" r="2.190433937142651" cx="3.788525504185259" cy="22.343736665541265"></circle><circle class="pearl" r="2.190433937142651" cx="32.18050534208177" cy="7.787706818962306"></circle><circle class="pearl" r="2.190433937142651" cx="20.00567962395882" cy="36.34927596497569"></circle></g><text id="4" class="legendSampleValue" text-anchor="middle" transform="translate(45,8)" x="0" y="304.9477195110013" style="fill: black; font-size: 0.7rem;">1.5k</text></g></svg>