<?xml version="1.0" standalone="no"?>
<?xml-stylesheet xmlns="http://www.w3.org/2000/svg" type="text/css" href="style.css"?>
<svg id="syntheticVisC" class="default" xTitle="Percent Cat Owners" yTitle="Percent Dog Owners" rTitle="Population" chartTitle="Towns in Vizzyland" width="500" height="400" xmlns="http://www.w3.org/2000/svg"><rect class="background" width="500" height="400"></rect><text id="chartTitle" text-anchor="middle" transform="translate(250,20)" x="0" y="0" style="fill: black; font-size: 1.2rem;">Towns in Vizzyland</text><g id="yAxis" transform="translate(50,30)" fill="none" font-size="10" font-family="sans-serif" text-anchor="end"><path class="domain" stroke="currentColor" d="M-6,300H0V20H-6"></path><g class="tick" opacity="1" transform="translate(0,300)"><line stroke="currentColor" x2="-6"></line><text fill="currentColor" x="-9" dy="0.32em">0</text></g><g class="tick" opacity="1" transform="translate(0,272)"><line stroke="currentColor" x2="-6"></line><text fill="currentColor" x="-9" dy="0.32em">10</text></g><g class="tick" opacity="1" transform="translate(0,244)"><line stroke="currentColor" x2="-6"></line><text fill="currentColor" x="-9" dy="0.32em">20</text></g><g class="tick" opacity="1" transform="translate(0,216)"><line stroke="currentColor" x2="-6"></line><text fill="currentColor" x="-9" dy="0.32em">30</text></g><g class="tick" opacity="1" transform="translate(0,188)"><line stroke="currentColor" x2="-6"></line><text fill="currentColor" x="-9" dy="0.32em">40</text></g><g class="tick" opacity="1" transform="translate(0,160)"><line stroke="currentColor" x2="-6"></line><text fill="currentColor" x="-9" dy="0.32em">50</text></g><g class="tick" opacity="1" transform="translate(0,132)"><line stroke="currentColor" x2="-6"></line><text fill="currentColor" x="-9" dy="0.32em">60</text></g><g class="tick" opacity="1" transform="translate(0,104.00000000000001)"><line stroke="currentColor" x2="-6"></line><text fill="currentColor" x="-9" dy="0.32em">70</text></g><g class="tick" opacity="1" transform="translate(0,75.99999999999999)"><line stroke="currentColor" x2="-6"></line><text fill="currentColor" x="-9" dy="0.32em">80</text></g><g class="tick" opacity="1" transform="translate(0,47.99999999999999)"><line stroke="currentColor" x2="-6"></line><text fill="currentColor" x="-9" dy="0.32em">90</text></g><g class="tick" opacity="1" transform="translate(0,20)"><line stroke="currentColor" x2="-6"></line><text fill="currentColor" x="-9" dy="0.32em">100</text></g></g><g id="xAxis" transform="translate(60,360)" fill="none" font-size="10" font-family="sans-serif" text-anchor="middle"><path class="domain" stroke="currentColor" d="M20,6V0H320V6"></path><g class="tick" opacity="1" transform="translate(20,0)"><line stroke="currentColor" y2="6"></line><text fill="currentColor" y="9" dy="0.71em">0</text></g><g class="tick" opacity="1" transform="translate(50,0)"><line stroke="currentColor" y2="6"></line><text fill="currentColor" y="9" dy="0.71em">10</text></g><g class="tick" opacity="1" transform="translate(80,0)"><line stroke="currentColor" y2="6"></line><text fill="currentColor" y="9" dy="0.71em">20</text></g><g class="tick" opacity="1" transform="translate(110,0)"><line stroke="currentColor" y2="6"></line><text fill="currentColor" y="9" dy="0.71em">30</text></g><g class="tick" opacity="1" transform="translate(140,0)"><line stroke="currentColor" y2="6"></line><text fill="currentColor" y="9" dy="0.71em">40</text></g><g class="tick" opacity="1" transform="translate(170,0)"><line stroke="currentColor" y2="6"></line><text fill="currentColor" y="9" dy="0.71em">50</text></g><g class="tick" opacity="1" transform="translate(200,0)"><line stroke="currentColor" y2="6"></line><text fill="currentColor" y="9" dy="0.71em">60</text></g><g class="tick" opacity="1" transform="translate(230,0)"><line stroke="currentColor" y2="6"></line><text fill="currentColor" y="9" dy="0.71em">70</text></g><g class="tick" opacity="1" transform="translate(260,0)"><line stroke="currentColor" y2="6"></line><text fill="currentColor" y="9" dy="0.71em">80</text></g><g class="tick" opacity="1" transform="translate(290,0)"><line stroke="currentColor" y2="6"></line><text fill="currentColor" y="9" dy="0.71em">90</text></g><g class="tick" opacity="1" transform="translate(320,0)"><line stroke="currentColor" y2="6"></line><text fill="currentColor" y="9" dy="0.71em">100</text></g></g><g id="labels"><text id="xTitle" text-anchor="middle" transform="translate(250,350)" x="0" y="40" style="fill: black; font-size: 0.8rem;">Percent Cat Owners</text><g id="group-yTitle" transform="translate(60,190)"><text id="yTitle" text-anchor="middle" transform="rotate(-90)" y="-45" style="fill: black; font-size: 0.8rem;">Percent Dog Owners</text></g></g><g id="quadrant_lines" transform="translate(60,30)"><line id="verticalQuadrantLine" x1="170" y1="10" x2="170" y2="310" class="quadrantLine"></line><line id="horizontalQuadrantLine" x1="10" y1="160" x2="330" y2="160" class="quadrantLine"></line></g><g id="chart" transform="translate(60,30)"><g class="bobaCup bright" cupRadius="20" width="40" height="40" pearlRadius="2.7380424214283137" pearlCount="20" transform="translate(250.0772745464347,66.19375027869327)"><circle class="pool" r="20" cx="20" cy="20" style="stroke-width: 1; fill: rgb(127, 205, 187);"></circle><circle class="pearl" r="2.190433937142651" cx="22.480421380823074" cy="19.96094551607325"></circle><circle class="pearl" r="2.190433937142651" cx="14.554532211889109" cy="20.25858246523202"></circle><circle class="pearl" r="2.190433937142651" cx="21.718613402750453" cy="11.231225788085391"></circle><circle class="pearl" r="2.190433937142651" cx="25.13767186853209" cy="27.447308990534317"></circle><circle class="pearl" r="2.190433937142651" cx="6.622341466842937" cy="15.212813608895589"></circle><circle class="pearl" r="2.190433937142651" cx="28.49521909515808" cy="14.82158787688231"></circle><circle class="pearl" r="2.190433937142651" cx="17.504603283401977" cy="28.993209871734443"></circle><circle class="pearl" r="2.190433937142651" cx="14.13811847195522" cy="12.373399584276378"></circle><circle class="pearl" r="2.190433937142651" cx="31.11803529924844" cy="22.444175683247455"></circle><circle class="pearl" r="2.190433937142651" cx="10.013176726772668" cy="26.767604068489224"></circle><circle class="pearl" r="2.190433937142651" cx="25.1625299271706" cy="4.328500666167248"></circle><circle class="pearl" r="2.190433937142651" cx="27.782608687955303" cy="34.772930101052836"></circle><circle class="pearl" r="2.190433937142651" cx="8.036930275650786" cy="7.623092000895575"></circle><circle class="pearl" r="2.190433937142651" cx="36.040664285033515" cy="16.500106031740792"></circle><circle class="pearl" r="2.190433937142651" cx="11.3070075503718" cy="34.36126950601293"></circle><circle class="pearl" r="2.190433937142651" cx="16.81383473400994" cy="3.9061454691506903"></circle><circle class="pearl" r="2.190433937142651" cx="33.74247113697989" cy="29.87303346303284"></circle><circle class="pearl" r="2.190433937142651" cx="3.788525504185259" cy="22.343736665541265"></circle><circle class="pearl" r="2.190433937142651" cx="32.18050534208177" cy="7.787706818962306"></circle><circle class="pearl" r="2.190433937142651" cx="20.00567962395882" cy="36.34927596497569"></circle></g><g class="bobaCup bright" cupRadius="16.664653451858452" width="33.329306903716905" height="33.329306903716905" pearlRadius="2.7380424214283132" pearlCount="14" transform="translate(186.33740917214527,3.3353465481415476)"><circle class="pool" r="16.664653451858452" cx="16.664653451858452" cy="16.664653451858452" style="stroke-width: 1; fill: rgb(127, 205, 187);"></circle><circle class="pearl" r="2.1904339371426507" cx="20.939425706815317" cy="12.53964997219964"></circle><circle class="pearl" r="2.1904339371426507" cx="13.266681551617655" cy="21.985825881093533"></circle><circle class="pearl" r="2.1904339371426507" cx="12.959058198109673" cy="12.360513763675712"></circle><circle class="pearl" r="2.1904339371426507" cx="21.016568572733917" cy="20.500277022942058"></circle><circle class="pearl" r="2.1904339371426507" cx="6.612410286187305" cy="17.599288474712388"></circle><circle class="pearl" r="2.1904339371426507" cx="26.471282919908138" cy="6.841672915431679"></circle><circle class="pearl" r="2.1904339371426507" cx="15.719710962053602" cy="29.65177138016524"></circle><circle class="pearl" r="2.1904339371426507" cx="11.181276494042473" cy="4.578691775118933"></circle><circle class="pearl" r="2.1904339371426507" cx="28.735256948891493" cy="22.191909611775714"></circle><circle class="pearl" r="2.1904339371426507" cx="6.503756377989473" cy="25.989342148633444"></circle><circle class="pearl" r="2.1904339371426507" cx="19.129411714751456" cy="3.8340041230228428"></circle><circle class="pearl" r="2.1904339371426507" cx="23.570620141774157" cy="28.18028439125775"></circle><circle class="pearl" r="2.1904339371426507" cx="5.151850716288647" cy="9.752479046842115"></circle><circle class="pearl" r="2.1904339371426507" cx="29.49997255352252" cy="14.231325903781006"></circle></g><g class="bobaCup bright" cupRadius="16.64612126277892" width="33.29224252555784" height="33.29224252555784" pearlRadius="2.738042421428314" pearlCount="14" transform="translate(3.3538787372210805,170.9088993556869)"><circle class="pool" r="16.64612126277892" cx="16.64612126277892" cy="16.64612126277892" style="stroke-width: 1; fill: rgb(65, 182, 196);"></circle><circle class="pearl" r="2.1904339371426516" cx="20.848048158924602" cy="12.474747164859549"></circle><circle class="pearl" r="2.1904339371426516" cx="13.22951959815151" cy="21.872674403520083"></circle><circle class="pearl" r="2.1904339371426516" cx="12.866617581369484" cy="12.379736759260458"></circle><circle class="pearl" r="2.1904339371426516" cx="20.987363716134805" cy="20.43391753621937"></circle><circle class="pearl" r="2.1904339371426516" cx="6.478995574318838" cy="17.6409527215744"></circle><circle class="pearl" r="2.1904339371426516" cx="26.440859322517763" cy="6.837406931175218"></circle><circle class="pearl" r="2.1904339371426516" cx="15.637797713178264" cy="29.610952094017616"></circle><circle class="pearl" r="2.1904339371426516" cx="11.15248565048692" cy="4.583368718800585"></circle><circle class="pearl" r="2.1904339371426516" cx="28.685283393135553" cy="22.206773249627776"></circle><circle class="pearl" r="2.1904339371426516" cx="6.667639408705574" cy="26.203219248588194"></circle><circle class="pearl" r="2.1904339371426516" cx="19.100126025253143" cy="3.83260403753938"></circle><circle class="pearl" r="2.1904339371426516" cx="23.49351002086832" cy="28.16795946234947"></circle><circle class="pearl" r="2.1904339371426516" cx="5.135988889556593" cy="9.772853443414553"></circle><circle class="pearl" r="2.1904339371426516" cx="29.465558011180885" cy="14.23216529216645"></circle></g><g class="bobaCup bright" cupRadius="16.385179570926113" width="32.770359141852225" height="32.770359141852225" pearlRadius="2.7380424214283146" pearlCount="13" transform="translate(49.03044357163124,177.96672820278494)"><circle class="pool" r="16.385179570926113" cx="16.385179570926113" cy="16.385179570926113" style="stroke-width: 1; fill: rgb(127, 205, 187);"></circle><circle class="pearl" r="2.1904339371426516" cx="21.48264857863504" cy="15.96210291911379"></circle><circle class="pearl" r="2.1904339371426516" cx="15.856463611244486" cy="21.547440843852325"></circle><circle class="pearl" r="2.1904339371426516" cx="16.1754452500894" cy="10.130637097241925"></circle><circle class="pearl" r="2.1904339371426516" cx="23.72314107577056" cy="23.63597376677221"></circle><circle class="pearl" r="2.1904339371426516" cx="10.519052133747609" cy="15.76958238850637"></circle><circle class="pearl" r="2.1904339371426516" cx="27.82216218276039" cy="9.994933719247767"></circle><circle class="pearl" r="2.1904339371426516" cx="10.136559820864187" cy="27.88136562414022"></circle><circle class="pearl" r="2.1904339371426516" cx="10.325491066384133" cy="4.812424721232159"></circle><circle class="pearl" r="2.1904339371426516" cx="29.052793947103705" cy="17.863681308814655"></circle><circle class="pearl" r="2.1904339371426516" cx="4.822330687150807" cy="21.659968552605108"></circle><circle class="pearl" r="2.1904339371426516" cx="21.93680735232374" cy="4.619887148612938"></circle><circle class="pearl" r="2.1904339371426516" cx="18.030231552267338" cy="29.036846153366778"></circle><circle class="pearl" r="2.1904339371426516" cx="4.81891015233714" cy="10.30922332126704"></circle></g><g class="bobaCup bright" cupRadius="16.04107128172891" width="32.08214256345782" height="32.08214256345782" pearlRadius="2.738042421428314" pearlCount="13" transform="translate(151.5139015809502,193.04974426871044)"><circle class="pool" r="16.04107128172891" cx="16.04107128172891" cy="16.04107128172891" style="stroke-width: 1; fill: rgb(127, 205, 187);"></circle><circle class="pearl" r="2.1904339371426516" cx="20.9007210580293" cy="17.07544549014404"></circle><circle class="pearl" r="2.1904339371426516" cx="14.335657114711339" cy="21.175270043778355"></circle><circle class="pearl" r="2.1904339371426516" cx="16.44593915474686" cy="10.736600404291144"></circle><circle class="pearl" r="2.1904339371426516" cx="24.54965696419575" cy="24.609231943809846"></circle><circle class="pearl" r="2.1904339371426516" cx="9.693722124308279" cy="14.823036214109695"></circle><circle class="pearl" r="2.1904339371426516" cx="27.2441847416485" cy="9.984710699897906"></circle><circle class="pearl" r="2.1904339371426516" cx="8.784320680482024" cy="26.69613494437115"></circle><circle class="pearl" r="2.1904339371426516" cx="12.401685823989697" cy="4.069027746518865"></circle><circle class="pearl" r="2.1904339371426516" cx="28.331830864957254" cy="17.825754342278163"></circle><circle class="pearl" r="2.1904339371426516" cx="4.28420408125387" cy="20.504492059145516"></circle><circle class="pearl" r="2.1904339371426516" cx="21.4568005739784" cy="4.5925943957714495"></circle><circle class="pearl" r="2.1904339371426516" cx="17.572073708834886" cy="28.358190720021238"></circle><circle class="pearl" r="2.1904339371426516" cx="5.826498673564107" cy="7.9745020465892"></circle></g><g class="bobaCup bright" cupRadius="15.769435044908098" width="31.538870089816196" height="31.538870089816196" pearlRadius="2.738042421428314" pearlCount="12" transform="translate(150.6976452989745,156.09241253395925)"><circle class="pool" r="15.769435044908098" cx="15.769435044908098" cy="15.769435044908098" style="stroke-width: 1; fill: rgb(29, 145, 192);"></circle><circle class="pearl" r="2.1904339371426516" cx="17.73722624057583" cy="11.52479583055336"></circle><circle class="pearl" r="2.1904339371426516" cx="11.545990209001811" cy="17.858890779866524"></circle><circle class="pearl" r="2.1904339371426516" cx="14.261045104360145" cy="4.32581546032362"></circle><circle class="pearl" r="2.1904339371426516" cx="19.39928809654369" cy="19.34324266174451"></circle><circle class="pearl" r="2.1904339371426516" cx="4.396954545483509" cy="14.281466329022228"></circle><circle class="pearl" r="2.1904339371426516" cx="27.36344938821512" cy="11.735447191661182"></circle><circle class="pearl" r="2.1904339371426516" cx="11.988589726496956" cy="27.428195488682864"></circle><circle class="pearl" r="2.1904339371426516" cx="6.594635981524041" cy="6.594475298210275"></circle><circle class="pearl" r="2.1904339371426516" cx="27.38264555524353" cy="19.73016836714111"></circle><circle class="pearl" r="2.1904339371426516" cx="5.374915584034616" cy="22.939249507652555"></circle><circle class="pearl" r="2.1904339371426516" cx="22.689949956482653" cy="5.250417450364248"></circle><circle class="pearl" r="2.1904339371426516" cx="19.982487212677345" cy="27.314937435458052"></circle></g><g class="bobaCup bright" cupRadius="15.02754860091015" width="30.0550972018203" height="30.0550972018203" pearlRadius="2.7380424214283137" pearlCount="11" transform="translate(167.56945624601332,129.94960362360317)"><circle class="pool" r="15.02754860091015" cx="15.02754860091015" cy="15.02754860091015" style="stroke-width: 1; fill: rgb(29, 145, 192);"></circle><circle class="pearl" r="2.190433937142651" cx="19.24363555761022" cy="15.000751748936679"></circle><circle class="pearl" r="2.190433937142651" cx="11.653956386116032" cy="17.3382049267597"></circle><circle class="pearl" r="2.190433937142651" cx="13.75860973476072" cy="9.290931517191929"></circle><circle class="pearl" r="2.190433937142651" cx="20.634013435536723" cy="25.319377829145967"></circle><circle class="pearl" r="2.190433937142651" cx="4.337463866319688" cy="14.081916096762386"></circle><circle class="pearl" r="2.190433937142651" cx="25.628944704520254" cy="10.262644457699741"></circle><circle class="pearl" r="2.190433937142651" cx="12.746078417948707" cy="26.230178891224103"></circle><circle class="pearl" r="2.190433937142651" cx="6.404070817650972" cy="6.371247498866138"></circle><circle class="pearl" r="2.190433937142651" cx="25.763278765231465" cy="19.37003357231204"></circle><circle class="pearl" r="2.190433937142651" cx="5.709348177698981" cy="22.619270162384822"></circle><circle class="pearl" r="2.190433937142651" cx="20.12682162357641" cy="4.542337774986475"></circle></g><g class="bobaCup bright" cupRadius="14.781899585582952" width="29.563799171165904" height="29.563799171165904" pearlRadius="2.7380424214283137" pearlCount="11" transform="translate(275.7591720993156,93.36092534184776)"><circle class="pool" r="14.781899585582952" cx="14.781899585582952" cy="14.781899585582952" style="stroke-width: 1; fill: rgb(65, 182, 196);"></circle><circle class="pearl" r="2.190433937142651" cx="18.71364663158834" cy="14.981942589735077"></circle><circle class="pearl" r="2.190433937142651" cx="11.068906856328745" cy="16.607683843457277"></circle><circle class="pearl" r="2.190433937142651" cx="13.724014002060166" cy="8.921034815484226"></circle><circle class="pearl" r="2.190433937142651" cx="20.721459920312135" cy="24.66728282779471"></circle><circle class="pearl" r="2.190433937142651" cx="3.688635395122345" cy="13.723887134950798"></circle><circle class="pearl" r="2.190433937142651" cx="25.349962160367987" cy="10.74077528205851"></circle><circle class="pearl" r="2.190433937142651" cx="12.962650256078676" cy="25.80069874989691"></circle><circle class="pearl" r="2.190433937142651" cx="6.37307258605993" cy="6.27547743169068"></circle><circle class="pearl" r="2.190433937142651" cx="25.389276088601058" cy="18.682046685669523"></circle><circle class="pearl" r="2.190433937142651" cx="5.8783753061895805" cy="22.585451652880618"></circle><circle class="pearl" r="2.190433937142651" cx="20.381602795625987" cy="4.752422548160444"></circle></g><g class="bobaCup bright" cupRadius="14.369767379970277" width="28.739534759940554" height="28.739534759940554" pearlRadius="2.7380424214283132" pearlCount="10" transform="translate(36.499560923991176,164.1435907816546)"><circle class="pool" r="14.369767379970277" cx="14.369767379970277" cy="14.369767379970277" style="stroke-width: 1; fill: rgb(65, 182, 196);"></circle><circle class="pearl" r="2.1904339371426507" cx="17.929647164360997" cy="12.517718255226645"></circle><circle class="pearl" r="2.1904339371426507" cx="11.067286664629027" cy="16.311325544611584"></circle><circle class="pearl" r="2.1904339371426507" cx="14.595005917307557" cy="5.2554534078211095"></circle><circle class="pearl" r="2.1904339371426507" cx="21.526088313420768" cy="23.18007481711526"></circle><circle class="pearl" r="2.1904339371426507" cx="3.690038704386116" cy="13.307523162687268"></circle><circle class="pearl" r="2.1904339371426507" cx="22.485823210510897" cy="6.162166430563873"></circle><circle class="pearl" r="2.1904339371426507" cx="13.776917417515211" cy="25.07657679027816"></circle><circle class="pearl" r="2.1904339371426507" cx="6.630569927631498" cy="5.912846851469102"></circle><circle class="pearl" r="2.1904339371426507" cx="24.990705121170283" cy="16.046045315865836"></circle><circle class="pearl" r="2.1904339371426507" cx="6.249082626637414" cy="22.57419888220912"></circle></g><g class="bobaCup bright" cupRadius="13.768703116917571" width="27.537406233835142" height="27.537406233835142" pearlRadius="2.738042421428314" pearlCount="9" transform="translate(240.73696444355525,267.43822654855785)"><circle class="pool" r="13.768703116917571" cx="13.768703116917571" cy="13.768703116917571" style="stroke-width: 1; fill: rgb(29, 145, 192);"></circle><circle class="pearl" r="2.1904339371426516" cx="17.124820567998903" cy="12.137147402539505"></circle><circle class="pearl" r="2.1904339371426516" cx="10.60947682454519" cy="16.087910497159672"></circle><circle class="pearl" r="2.1904339371426516" cx="13.961328952277228" cy="3.652070723969772"></circle><circle class="pearl" r="2.1904339371426516" cx="19.09614477426851" cy="22.814260875680436"></circle><circle class="pearl" r="2.1904339371426516" cx="3.668017006805377" cy="13.078828692264835"></circle><circle class="pearl" r="2.1904339371426516" cx="21.376047665337122" cy="5.943124918484964"></circle><circle class="pearl" r="2.1904339371426516" cx="11.211491923616316" cy="23.647128288547822"></circle><circle class="pearl" r="2.1904339371426516" cx="6.339412598870567" cy="5.8270655884956035"></circle><circle class="pearl" r="2.1904339371426516" cx="23.62925789830437" cy="16.41871293943601"></circle></g><g class="bobaCup bright" cupRadius="13.681775845033544" width="27.363551690067087" height="27.363551690067087" pearlRadius="2.7380424214283146" pearlCount="9" transform="translate(267.41303701038015,170.21501918864126)"><circle class="pool" r="13.681775845033544" cx="13.681775845033544" cy="13.681775845033544" style="stroke-width: 1; fill: rgb(65, 182, 196);"></circle><circle class="pearl" r="2.1904339371426516" cx="17.01468284551363" cy="12.002159743705803"></circle><circle class="pearl" r="2.1904339371426516" cx="10.609421735671097" cy="15.965622448754184"></circle><circle class="pearl" r="2.1904339371426516" cx="13.785845297723084" cy="3.651119032733013"></circle><circle class="pearl" r="2.1904339371426516" cx="18.944816366990636" cy="22.66004286659651"></circle><circle class="pearl" r="2.1904339371426516" cx="3.6605513183091327" cy="13.163282980845636"></circle><circle class="pearl" r="2.1904339371426516" cx="21.190231616293953" cy="5.895100671661575"></circle><circle class="pearl" r="2.1904339371426516" cx="11.071439774678813" cy="23.46150815131117"></circle><circle class="pearl" r="2.1904339371426516" cx="6.181332573154489" cy="5.889844617619885"></circle><circle class="pearl" r="2.1904339371426516" cx="23.46169420308462" cy="16.291154477091126"></circle></g><g class="bobaCup bright" cupRadius="13.444967889033828" width="26.889935778067656" height="26.889935778067656" pearlRadius="2.7380424214283146" pearlCount="9" transform="translate(81.33676261041603,36.403655754683854)"><circle class="pool" r="13.444967889033828" cx="13.444967889033828" cy="13.444967889033828" style="stroke-width: 1; fill: rgb(127, 205, 187);"></circle><circle class="pearl" r="2.1904339371426516" cx="15.900226138823028" cy="11.324308847680452"></circle><circle class="pearl" r="2.1904339371426516" cx="10.214614797808695" cy="16.27635058581147"></circle><circle class="pearl" r="2.1904339371426516" cx="13.562125240785292" cy="3.6512336836999912"></circle><circle class="pearl" r="2.1904339371426516" cx="20.194172046825816" cy="21.422460549996014"></circle><circle class="pearl" r="2.1904339371426516" cx="3.6546690692325887" cy="13.119256617629595"></circle><circle class="pearl" r="2.1904339371426516" cx="20.804747966601926" cy="5.84398907982492"></circle><circle class="pearl" r="2.1904339371426516" cx="12.542126658053219" cy="23.208865014717727"></circle><circle class="pearl" r="2.1904339371426516" cx="6.052530503587513" cy="5.865418144991719"></circle><circle class="pearl" r="2.1904339371426516" cx="23.217697862404847" cy="14.205274190744525"></circle></g><g class="bobaCup bright" cupRadius="12.701473429169159" width="25.402946858338318" height="25.402946858338318" pearlRadius="2.738042421428314" pearlCount="8" transform="translate(215.52644438775522,27.43233086171811)"><circle class="pool" r="12.701473429169159" cx="12.701473429169159" cy="12.701473429169159" style="stroke-width: 1; fill: rgb(29, 145, 192);"></circle><circle class="pearl" r="2.1904339371426516" cx="14.180822896369618" cy="12.857854338990007"></circle><circle class="pearl" r="2.1904339371426516" cx="6.732597642517231" cy="19.447000130342662"></circle><circle class="pearl" r="2.1904339371426516" cx="15.140637039318557" cy="3.8871291426879044"></circle><circle class="pearl" r="2.1904339371426516" cx="20.979357864761898" cy="17.064470846810188"></circle><circle class="pearl" r="2.1904339371426516" cx="3.6667182937348035" cy="12.0642403884062"></circle><circle class="pearl" r="2.1904339371426516" cx="21.223034603414956" cy="9.073399602903908"></circle><circle class="pearl" r="2.1904339371426516" cx="14.421436116682976" cy="21.63523094576394"></circle><circle class="pearl" r="2.1904339371426516" cx="7.21060103582589" cy="4.89891120631143"></circle></g><g class="bobaCup bright" cupRadius="12.420661344767964" width="24.84132268953593" height="24.84132268953593" pearlRadius="2.7380424214283137" pearlCount="8" transform="translate(79.55769579465012,62.43254874707593)"><circle class="pool" r="12.420661344767964" cx="12.420661344767964" cy="12.420661344767964" style="stroke-width: 1; fill: rgb(65, 182, 196);"></circle><circle class="pearl" r="2.190433937142651" cx="13.577006295007937" cy="12.73109668292346"></circle><circle class="pearl" r="2.190433937142651" cx="5.708272284724586" cy="19.22061567069176"></circle><circle class="pearl" r="2.190433937142651" cx="15.197557339966368" cy="3.965118556384681"></circle><circle class="pearl" r="2.190433937142651" cx="20.16428720457397" cy="17.364509754014883"></circle><circle class="pearl" r="2.190433937142651" cx="3.6716876933911475" cy="11.69931154971471"></circle><circle class="pearl" r="2.190433937142651" cx="20.824690925285953" cy="9.428043268037783"></circle><circle class="pearl" r="2.190433937142651" cx="13.298844795966128" cy="21.15951527070279"></circle><circle class="pearl" r="2.190433937142651" cx="7.316674026630936" cy="4.747862961326755"></circle></g><g class="bobaCup bright" cupRadius="12.187941157263706" width="24.375882314527413" height="24.375882314527413" pearlRadius="2.7380424214283137" pearlCount="7" transform="translate(132.00628668700526,80.07949371223162)"><circle class="pool" r="12.187941157263706" cx="12.187941157263706" cy="12.187941157263706" style="stroke-width: 1; fill: rgb(127, 205, 187);"></circle><circle class="pearl" r="2.190433937142651" cx="13.799907709210343" cy="12.484287169230184"></circle><circle class="pearl" r="2.190433937142651" cx="5.683835002137223" cy="14.805245957154368"></circle><circle class="pearl" r="2.190433937142651" cx="12.207852979340606" cy="3.6507394938663413"></circle><circle class="pearl" r="2.190433937142651" cx="18.851344147609502" cy="18.681377073107793"></circle><circle class="pearl" r="2.190433937142651" cx="4.8815167593422455" cy="6.850636074717707"></circle><circle class="pearl" r="2.190433937142651" cx="19.515244968877372" cy="6.893714872158866"></circle><circle class="pearl" r="2.190433937142651" cx="11.109496059553491" cy="20.677352434708087"></circle></g><g class="bobaCup bright" cupRadius="11.404008487609005" width="22.80801697521801" height="22.80801697521801" pearlRadius="2.7380424214283137" pearlCount="7" transform="translate(99.2625483285251,151.99144949023196)"><circle class="pool" r="11.404008487609005" cx="11.404008487609005" cy="11.404008487609005" style="stroke-width: 1; fill: rgb(65, 182, 196);"></circle><circle class="pearl" r="2.190433937142651" cx="11.436529409435472" cy="11.418137332372499"></circle><circle class="pearl" r="2.190433937142651" cx="4.0106352999461965" cy="14.246427164438286"></circle><circle class="pearl" r="2.190433937142651" cx="12.32722599618998" cy="3.688154438155374"></circle><circle class="pearl" r="2.190433937142651" cx="17.84791172591687" cy="16.709658879374867"></circle><circle class="pearl" r="2.190433937142651" cx="4.851316758545185" cy="6.310705748936335"></circle><circle class="pearl" r="2.190433937142651" cx="18.714404242741658" cy="8.256742974413816"></circle><circle class="pearl" r="2.190433937142651" cx="10.191854082762637" cy="19.092689621008166"></circle></g><g class="bobaCup bright" cupRadius="11.31506910373637" width="22.63013820747274" height="22.63013820747274" pearlRadius="2.7380424214283137" pearlCount="6" transform="translate(89.77630741522103,69.94180989181555)"><circle class="pool" r="11.31506910373637" cx="11.31506910373637" cy="11.31506910373637" style="stroke-width: 1; fill: rgb(29, 145, 192);"></circle><circle class="pearl" r="2.190433937142651" cx="11.84697472679253" cy="11.41638055414386"></circle><circle class="pearl" r="2.190433937142651" cx="6.3298293495344184" cy="17.202366658004472"></circle><circle class="pearl" r="2.190433937142651" cx="9.354870013399454" cy="3.8218070331170573"></circle><circle class="pearl" r="2.190433937142651" cx="17.27925558718906" cy="17.279920138459683"></circle><circle class="pearl" r="2.190433937142651" cx="3.787905079442094" cy="9.558474277215616"></circle><circle class="pearl" r="2.190433937142651" cx="17.2785812040903" cy="5.34979980676639"></circle></g><g class="bobaCup bright" cupRadius="11.060540368584014" width="22.12108073716803" height="22.12108073716803" pearlRadius="2.738042421428314" pearlCount="6" transform="translate(67.4762220673931,269.0147359641127)"><circle class="pool" r="11.060540368584014" cx="11.060540368584014" cy="11.060540368584014" style="stroke-width: 1; fill: rgb(127, 205, 187);"></circle><circle class="pearl" r="2.1904339371426516" cx="11.483373736054885" cy="11.202252464966563"></circle><circle class="pearl" r="2.1904339371426516" cx="6.47914740924949" cy="17.47691164623649"></circle><circle class="pearl" r="2.1904339371426516" cx="8.561010093220483" cy="3.93685402411502"></circle><circle class="pearl" r="2.1904339371426516" cx="16.792607434744188" cy="16.869149061143435"></circle><circle class="pearl" r="2.1904339371426516" cx="3.696317109085389" cy="10.057292089224745"></circle><circle class="pearl" r="2.1904339371426516" cx="16.837980807361856" cy="5.279575772515699"></circle></g><g class="bobaCup bright" cupRadius="10.68135141889785" width="21.3627028377957" height="21.3627028377957" pearlRadius="2.738042421428314" pearlCount="6" transform="translate(50.93802177972533,235.31770643844683)"><circle class="pool" r="10.68135141889785" cx="10.68135141889785" cy="10.68135141889785" style="stroke-width: 1; fill: rgb(29, 145, 192);"></circle><circle class="pearl" r="2.1904339371426516" cx="11.005498795887311" cy="10.969028439033307"></circle><circle class="pearl" r="2.1904339371426516" cx="5.296360057308375" cy="16.255222282729846"></circle><circle class="pearl" r="2.1904339371426516" cx="8.798421341848886" cy="3.817996349351905"></circle><circle class="pearl" r="2.1904339371426516" cx="16.047543216530606" cy="16.266171148107322"></circle><circle class="pearl" r="2.1904339371426516" cx="3.796428502073488" cy="8.923105579145869"></circle><circle class="pearl" r="2.1904339371426516" cx="16.165785221883223" cy="5.16625477172064"></circle></g><g class="bobaCup bright" cupRadius="10.448872130075387" width="20.897744260150773" height="20.897744260150773" pearlRadius="2.7380424214283137" pearlCount="5" transform="translate(264.3215763010869,146.11959640921808)"><circle class="pool" r="10.448872130075387" cx="10.448872130075387" cy="10.448872130075387" style="stroke-width: 1; fill: rgb(65, 182, 196);"></circle><circle class="pearl" r="2.190433937142651" cx="16.556693363995446" cy="8.098845161732635"></circle><circle class="pearl" r="2.190433937142651" cx="7.390160565560817" cy="15.939890630533089"></circle><circle class="pearl" r="2.190433937142651" cx="9.903726102857076" cy="3.6649537931841376"></circle><circle class="pearl" r="2.190433937142651" cx="15.384957720261276" cy="16.007599907781785"></circle><circle class="pearl" r="2.190433937142651" cx="3.780693551257169" cy="8.80594964860405"></circle></g><g class="bobaCup bright" cupRadius="10.444057865361101" width="20.888115730722202" height="20.888115730722202" pearlRadius="2.7380424214283137" pearlCount="5" transform="translate(98.60015252283077,266.8463282432987)"><circle class="pool" r="10.444057865361101" cx="10.444057865361101" cy="10.444057865361101" style="stroke-width: 1; fill: rgb(29, 145, 192);"></circle><circle class="pearl" r="2.190433937142651" cx="16.562111908202326" cy="8.090765880932633"></circle><circle class="pearl" r="2.190433937142651" cx="7.3842745452816905" cy="15.94146897476193"></circle><circle class="pearl" r="2.190433937142651" cx="9.90393667326195" cy="3.664698937359473"></circle><circle class="pearl" r="2.190433937142651" cx="15.37915960983725" cy="15.997850673316844"></circle><circle class="pearl" r="2.190433937142651" cx="3.780168250654839" cy="8.804818228117945"></circle></g><g class="bobaCup bright" cupRadius="10.41806207828004" width="20.83612415656008" height="20.83612415656008" pearlRadius="2.7380424214283146" pearlCount="5" transform="translate(84.91380494209942,69.39793302699648)"><circle class="pool" r="10.41806207828004" cx="10.41806207828004" cy="10.41806207828004" style="stroke-width: 1; fill: rgb(127, 205, 187);"></circle><circle class="pearl" r="2.1904339371426516" cx="16.590994006554844" cy="8.047633929893506"></circle><circle class="pearl" r="2.1904339371426516" cx="7.352371194664224" cy="15.949861519822187"></circle><circle class="pearl" r="2.1904339371426516" cx="9.905229477722644" cy="3.6633530625518924"></circle><circle class="pearl" r="2.1904339371426516" cx="15.347453829460735" cy="15.945416776502142"></circle><circle class="pearl" r="2.1904339371426516" cx="3.7773653739812305" cy="8.798588944132758"></circle></g><g class="bobaCup bright" cupRadius="10.307293425896482" width="20.614586851792964" height="20.614586851792964" pearlRadius="2.7380424214283137" pearlCount="5" transform="translate(56.06294446942244,37.04753661608037)"><circle class="pool" r="10.307293425896482" cx="10.307293425896482" cy="10.307293425896482" style="stroke-width: 1; fill: rgb(29, 145, 192);"></circle><circle class="pearl" r="2.190433937142651" cx="16.670596664952622" cy="7.866070029074664"></circle><circle class="pearl" r="2.190433937142651" cx="7.216140001522091" cy="16.022204766235472"></circle><circle class="pearl" r="2.190433937142651" cx="9.871929359768668" cy="3.6599218841979955"></circle><circle class="pearl" r="2.190433937142651" cx="15.205707972939285" cy="15.725519016943263"></circle><circle class="pearl" r="2.190433937142651" cx="3.759604103775306" cy="8.813078175870098"></circle></g><g class="bobaCup bright" cupRadius="10.228505934532093" width="20.457011869064186" height="20.457011869064186" pearlRadius="2.738042421428314" pearlCount="5" transform="translate(74.16036049553423,70.4020088397745)"><circle class="pool" r="10.228505934532093" cx="10.228505934532093" cy="10.228505934532093" style="stroke-width: 1; fill: rgb(29, 145, 192);"></circle><circle class="pearl" r="2.1904339371426516" cx="16.488984556284652" cy="7.700579603544705"></circle><circle class="pearl" r="2.1904339371426516" cx="7.137831194175156" cy="16.31940609795681"></circle><circle class="pearl" r="2.1904339371426516" cx="9.585545203880836" cy="3.670951387121637"></circle><circle class="pearl" r="2.1904339371426516" cx="15.097986186775799" cy="15.572808871891088"></circle><circle class="pearl" r="2.1904339371426516" cx="3.7136997009793906" cy="9.095216736025591"></circle></g><g class="bobaCup bright" cupRadius="10.133518504442772" width="20.267037008885545" height="20.267037008885545" pearlRadius="2.738042421428314" pearlCount="5" transform="translate(74.46015729690788,198.39272492417788)"><circle class="pool" r="10.133518504442772" cx="10.133518504442772" cy="10.133518504442772" style="stroke-width: 1; fill: rgb(29, 145, 192);"></circle><circle class="pearl" r="2.1904339371426516" cx="16.230153081906277" cy="7.362740079338981"></circle><circle class="pearl" r="2.1904339371426516" cx="7.335606047918851" cy="16.222399126414704"></circle><circle class="pearl" r="2.1904339371426516" cx="9.265493365211489" cy="3.6879686762098474"></circle><circle class="pearl" r="2.1904339371426516" cx="15.226146830529839" cy="15.243693289900829"></circle><circle class="pearl" r="2.1904339371426516" cx="3.690061961181247" cy="9.241480380924825"></circle></g><g class="bobaCup bright" cupRadius="10.119079848833161" width="20.238159697666323" height="20.238159697666323" pearlRadius="2.738042421428315" pearlCount="5" transform="translate(14.637462893655032,235.50021585584247)"><circle class="pool" r="10.119079848833161" cx="10.119079848833161" cy="10.119079848833161" style="stroke-width: 1; fill: rgb(29, 145, 192);"></circle><circle class="pearl" r="2.190433937142652" cx="16.200507418912714" cy="7.347614925839369"></circle><circle class="pearl" r="2.190433937142652" cx="7.315490612130137" cy="16.19130187254568"></circle><circle class="pearl" r="2.190433937142652" cx="9.252157461012883" cy="3.687927132890879"></circle><circle class="pearl" r="2.190433937142652" cx="15.199174735863652" cy="15.219837233611338"></circle><circle class="pearl" r="2.190433937142652" cx="3.690425950806288" cy="9.223572324088"></circle></g><g class="bobaCup bright" cupRadius="10.090473557910864" width="20.180947115821727" height="20.180947115821727" pearlRadius="2.738042421428314" pearlCount="5" transform="translate(291.7545538355061,193.89048568742317)"><circle class="pool" r="10.090473557910864" cx="10.090473557910864" cy="10.090473557910864" style="stroke-width: 1; fill: rgb(29, 145, 192);"></circle><circle class="pearl" r="2.1904339371426516" cx="16.141785852874897" cy="7.3177198142543896"></circle><circle class="pearl" r="2.1904339371426516" cx="7.2754800858555635" cy="16.129614537634154"></circle><circle class="pearl" r="2.1904339371426516" cx="9.22593306782917" cy="3.6878278802939524"></circle><circle class="pearl" r="2.1904339371426516" cx="15.145720919446056" cy="15.17256950395858"></circle><circle class="pearl" r="2.1904339371426516" cx="3.691171810973295" cy="9.187891365226672"></circle></g><g class="bobaCup bright" cupRadius="9.928073108647427" width="19.856146217294853" height="19.856146217294853" pearlRadius="2.738042421428314" pearlCount="5" transform="translate(256.7845177872007,195.89413577517075)"><circle class="pool" r="9.928073108647427" cx="9.928073108647427" cy="9.928073108647427" style="stroke-width: 1; fill: rgb(29, 145, 192);"></circle><circle class="pearl" r="2.1904339371426516" cx="15.808775918895137" cy="7.149844659225881"></circle><circle class="pearl" r="2.1904339371426516" cx="7.044285617112118" cy="15.777371214489893"></circle><circle class="pearl" r="2.1904339371426516" cx="9.0821115725318" cy="3.686830671585565"></circle><circle class="pearl" r="2.1904339371426516" cx="14.841854107602465" cy="14.904133286709236"></circle><circle class="pearl" r="2.1904339371426516" cx="3.6960748983476006" cy="8.980205706354548"></circle></g><g class="bobaCup bright" cupRadius="9.894888688273943" width="19.789777376547885" height="19.789777376547885" pearlRadius="2.7380424214283137" pearlCount="5" transform="translate(26.656408612900698,43.88714283247386)"><circle class="pool" r="9.894888688273943" cx="9.894888688273943" cy="9.894888688273943" style="stroke-width: 1; fill: rgb(127, 205, 187);"></circle><circle class="pearl" r="2.190433937142651" cx="15.74083740907454" cy="7.116032081799128"></circle><circle class="pearl" r="2.190433937142651" cx="6.996065931265988" cy="15.704907966334378"></circle><circle class="pearl" r="2.190433937142651" cx="9.053969827695067" cy="3.686520801369202"></circle><circle class="pearl" r="2.190433937142651" cx="14.779657593952972" cy="14.84927178626518"></circle><circle class="pearl" r="2.190433937142651" cx="3.6972448343136524" cy="8.936510912527833"></circle></g><g class="bobaCup bright" cupRadius="9.626464442905258" width="19.252928885810515" height="19.252928885810515" pearlRadius="2.7380424214283137" pearlCount="5" transform="translate(111.13972507115167,266.2707969316048)"><circle class="pool" r="9.626464442905258" cx="9.626464442905258" cy="9.626464442905258" style="stroke-width: 1; fill: rgb(65, 182, 196);"></circle><circle class="pearl" r="2.190433937142651" cx="15.194093099617174" cy="6.853234162236417"></circle><circle class="pearl" r="2.190433937142651" cx="6.588513100543784" cy="15.110272910702815"></circle><circle class="pearl" r="2.190433937142651" cx="8.849757366674698" cy="3.682108527026694"></circle><circle class="pearl" r="2.190433937142651" cx="14.274352002559663" cy="14.40580401975437"></circle><circle class="pearl" r="2.190433937142651" cx="3.71001588917216" cy="8.559674042497642"></circle></g><g class="bobaCup bright" cupRadius="9.493947114667113" width="18.987894229334227" height="18.987894229334227" pearlRadius="2.7380424214283137" pearlCount="5" transform="translate(24.569415888530706,169.94477211162203)"><circle class="pool" r="9.493947114667113" cx="9.493947114667113" cy="9.493947114667113" style="stroke-width: 1; fill: rgb(127, 205, 187);"></circle><circle class="pearl" r="2.190433937142651" cx="14.927704448520938" cy="6.735823707888506"></circle><circle class="pearl" r="2.190433937142651" cx="6.37012831463091" cy="14.80853413843177"></circle><circle class="pearl" r="2.190433937142651" cx="8.773028122372796" cy="3.6781341434106523"></circle><circle class="pearl" r="2.190433937142651" cx="14.022422834611707" cy="14.187559657741865"></circle><circle class="pearl" r="2.190433937142651" cx="3.7199143521931184" cy="8.349828971573542"></circle></g><g class="bobaCup bright" cupRadius="9.217385504218992" width="18.434771008437984" height="18.434771008437984" pearlRadius="2.738042421428314" pearlCount="4" transform="translate(131.42144390221415,217.78286018620383)"><circle class="pool" r="9.217385504218992" cx="9.217385504218992" cy="9.217385504218992" style="stroke-width: 1; fill: rgb(127, 205, 187);"></circle><circle class="pearl" r="2.1904339371426516" cx="14.21919953639398" cy="6.040312246519819"></circle><circle class="pearl" r="2.1904339371426516" cx="5.271383706734004" cy="12.101719041615342"></circle><circle class="pearl" r="2.1904339371426516" cx="6.470845038144224" cy="4.069432070836861"></circle><circle class="pearl" r="2.1904339371426516" cx="13.050025667692388" cy="13.949446115800118"></circle></g><g class="bobaCup bright" cupRadius="9.132942179403459" width="18.265884358806918" height="18.265884358806918" pearlRadius="2.7380424214283146" pearlCount="4" transform="translate(223.28168119835703,221.82806407069154)"><circle class="pool" r="9.132942179403459" cx="9.132942179403459" cy="9.132942179403459" style="stroke-width: 1; fill: rgb(65, 182, 196);"></circle><circle class="pearl" r="2.1904339371426516" cx="14.012627040986356" cy="5.870616219637587"></circle><circle class="pearl" r="2.1904339371426516" cx="5.1202420455362425" cy="12.052033239706285"></circle><circle class="pearl" r="2.1904339371426516" cx="6.2090000767421305" cy="4.1314289668796045"></circle><circle class="pearl" r="2.1904339371426516" cx="12.92386900979133" cy="13.79122049247215"></circle></g><g class="bobaCup bright" cupRadius="9.058083227591954" width="18.116166455183908" height="18.116166455183908" pearlRadius="2.738042421428315" pearlCount="4" transform="translate(251.47935823919852,198.82723816164622)"><circle class="pool" r="9.058083227591954" cx="9.058083227591954" cy="9.058083227591954" style="stroke-width: 1; fill: rgb(127, 205, 187);"></circle><circle class="pearl" r="2.190433937142652" cx="13.826811039993766" cy="5.717167795162838"></circle><circle class="pearl" r="2.190433937142652" cx="4.969885899516994" cy="12.121303498768802"></circle><circle class="pearl" r="2.190433937142652" cx="5.978908495910131" cy="4.1901472465365135"></circle><circle class="pearl" r="2.190433937142652" cx="12.817788443605462" cy="13.648324047399159"></circle></g><g class="bobaCup bright" cupRadius="8.625050393058412" width="17.250100786116825" height="17.250100786116825" pearlRadius="2.7380424214283132" pearlCount="4" transform="translate(62.14710948522071,158.9649599063024)"><circle class="pool" r="8.625050393058412" cx="8.625050393058412" cy="8.625050393058412" style="stroke-width: 1; fill: rgb(127, 205, 187);"></circle><circle class="pearl" r="2.1904339371426507" cx="12.617952965172098" cy="4.630629847153768"></circle><circle class="pearl" r="2.1904339371426507" cx="4.632147554991056" cy="12.619470800060874"></circle><circle class="pearl" r="2.1904339371426507" cx="4.632147941404829" cy="4.6306297842399164"></circle><circle class="pearl" r="2.1904339371426507" cx="12.617952578758253" cy="12.619471140779108"></circle></g><g class="bobaCup bright" cupRadius="8.575195432305312" width="17.150390864610625" height="17.150390864610625" pearlRadius="2.738042421428314" pearlCount="4" transform="translate(263.2641382121802,24.58166562924523)"><circle class="pool" r="8.575195432305312" cx="8.575195432305312" cy="8.575195432305312" style="stroke-width: 1; fill: rgb(65, 182, 196);"></circle><circle class="pearl" r="2.1904339371426516" cx="12.521064743854875" cy="4.612503390552488"></circle><circle class="pearl" r="2.1904339371426516" cx="4.629292671675289" cy="12.537870138026264"></circle><circle class="pearl" r="2.1904339371426516" cx="4.629341330662488" cy="4.6124955076043825"></circle><circle class="pearl" r="2.1904339371426516" cx="12.521016083696207" cy="12.53791269337405"></circle></g><g class="bobaCup bright" cupRadius="8.282722363631976" width="16.56544472726395" height="16.56544472726395" pearlRadius="2.7380424214283137" pearlCount="3" transform="translate(311.27906376998254,157.27106236386737)"><circle class="pool" r="8.282722363631976" cx="8.282722363631976" cy="8.282722363631976" style="stroke-width: 1; fill: rgb(127, 205, 187);"></circle><circle class="pearl" r="2.190433937142651" cx="12.569820182896446" cy="9.91636415079579"></circle><circle class="pearl" r="2.190433937142651" cx="4.545768116452747" cy="11.226240404216709"></circle><circle class="pearl" r="2.190433937142651" cx="7.564515303817344" cy="3.681920377296322"></circle></g><g class="bobaCup bright" cupRadius="8.21404269019103" width="16.42808538038206" height="16.42808538038206" pearlRadius="2.7380424214283146" pearlCount="3" transform="translate(55.900135007657376,171.1411631638388)"><circle class="pool" r="8.21404269019103" cx="8.21404269019103" cy="8.21404269019103" style="stroke-width: 1; fill: rgb(29, 145, 192);"></circle><circle class="pearl" r="2.1904339371426516" cx="12.526801613200956" cy="9.871779256577941"></circle><circle class="pearl" r="2.1904339371426516" cx="4.486862856657895" cy="11.138949074502925"></circle><circle class="pearl" r="2.1904339371426516" cx="7.462481846389648" cy="3.6851782999181664"></circle></g><g class="bobaCup bright" cupRadius="8.066220860772326" width="16.13244172154465" height="16.13244172154465" pearlRadius="2.7380424214283146" pearlCount="3" transform="translate(306.48696327984965,278.8528190415912)"><circle class="pool" r="8.066220860772326" cx="8.066220860772326" cy="8.066220860772326" style="stroke-width: 1; fill: rgb(65, 182, 196);"></circle><circle class="pearl" r="2.1904339371426516" cx="12.272534405697272" cy="9.891294041411859"></circle><circle class="pearl" r="2.1904339371426516" cx="4.288504278771094" cy="11.133612880725847"></circle><circle class="pearl" r="2.1904339371426516" cx="7.219760752695415" cy="3.6952594620227215"></circle></g><g class="bobaCup bright" cupRadius="8.056330870680075" width="16.11266174136015" height="16.11266174136015" pearlRadius="2.738042421428314" pearlCount="3" transform="translate(258.54316723756045,126.3708017410063)"><circle class="pool" r="8.056330870680075" cx="8.056330870680075" cy="8.056330870680075" style="stroke-width: 1; fill: rgb(29, 145, 192);"></circle><circle class="pearl" r="2.1904339371426516" cx="12.24894573234709" cy="9.89657941370162"></circle><circle class="pearl" r="2.1904339371426516" cx="4.274233699995006" cy="11.136127465555695"></circle><circle class="pearl" r="2.1904339371426516" cx="7.201500781766922" cy="3.6962031696081987"></circle></g><g class="bobaCup bright" cupRadius="8.0536770600207" width="16.1073541200414" height="16.1073541200414" pearlRadius="2.738042421428314" pearlCount="3" transform="translate(181.27991081163557,87.26707951031821)"><circle class="pool" r="8.0536770600207" cx="8.0536770600207" cy="8.0536770600207" style="stroke-width: 1; fill: rgb(29, 145, 192);"></circle><circle class="pearl" r="2.1904339371426516" cx="12.242607925447235" cy="9.898002918856392"></circle><circle class="pearl" r="2.1904339371426516" cx="4.270405904746117" cy="11.13680569355773"></circle><circle class="pearl" r="2.1904339371426516" cx="7.196598192469685" cy="3.6964586053687403"></circle></g><g class="bobaCup bright" cupRadius="7.948656216129924" width="15.897312432259849" height="15.897312432259849" pearlRadius="2.7380424214283132" pearlCount="3" transform="translate(139.84430222547937,32.40938774570957)"><circle class="pool" r="7.948656216129924" cx="7.948656216129924" cy="7.948656216129924" style="stroke-width: 1; fill: rgb(29, 145, 192);"></circle><circle class="pearl" r="2.1904339371426507" cx="12.113930952114977" cy="9.394792952498648"></circle><circle class="pearl" r="2.1904339371426507" cx="4.468887439335239" cy="11.444424777399902"></circle><circle class="pearl" r="2.1904339371426507" cx="6.4654925319937995" cy="3.790323091448034"></circle></g><g class="bobaCup bright" cupRadius="7.81616171432733" width="15.63232342865466" height="15.63232342865466" pearlRadius="2.7380424214283137" pearlCount="3" transform="translate(81.62145918631407,146.09502128186523)"><circle class="pool" r="7.81616171432733" cx="7.81616171432733" cy="7.81616171432733" style="stroke-width: 1; fill: rgb(127, 205, 187);"></circle><circle class="pearl" r="2.190433937142651" cx="11.870220009032003" cy="9.13097182347041"></circle><circle class="pearl" r="2.190433937142651" cx="4.480486724719453" cy="11.234077414731246"></circle><circle class="pearl" r="2.190433937142651" cx="6.1047776513237455" cy="3.8403819085179993"></circle></g><g class="bobaCup bright" cupRadius="7.786597563206204" width="15.573195126412408" height="15.573195126412408" pearlRadius="2.738042421428314" pearlCount="3" transform="translate(294.63528754013464,276.33042137916)"><circle class="pool" r="7.786597563206204" cx="7.786597563206204" cy="7.786597563206204" style="stroke-width: 1; fill: rgb(127, 205, 187);"></circle><circle class="pearl" r="2.1904339371426516" cx="11.8191542759898" cy="9.050840796965282"></circle><circle class="pearl" r="2.1904339371426516" cx="4.4846544295861275" cy="11.187701980973905"></circle><circle class="pearl" r="2.1904339371426516" cx="6.004187717968904" cy="3.8574714031066972"></circle></g><g class="bobaCup bright" cupRadius="7.640596175241511" width="15.281192350483021" height="15.281192350483021" pearlRadius="2.7380424214283137" pearlCount="3" transform="translate(184.8035987168337,78.7399519216825)"><circle class="pool" r="7.640596175241511" cx="7.640596175241511" cy="7.640596175241511" style="stroke-width: 1; fill: rgb(65, 182, 196);"></circle><circle class="pearl" r="2.190433937142651" cx="11.592552189305849" cy="8.40084498103844"></circle><circle class="pearl" r="2.190433937142651" cx="4.5241655237936715" cy="10.966015857178466"></circle><circle class="pearl" r="2.190433937142651" cx="5.267584933114384" cy="4.028570092576976"></circle></g><g class="bobaCup bright" cupRadius="7.631303343050479" width="15.262606686100957" height="15.262606686100957" pearlRadius="2.7380424214283137" pearlCount="3" transform="translate(77.0487715369319,71.10601152835325)"><circle class="pool" r="7.631303343050479" cx="7.631303343050479" cy="7.631303343050479" style="stroke-width: 1; fill: rgb(127, 205, 187);"></circle><circle class="pearl" r="2.190433937142651" cx="11.578866340764627" cy="8.340413445289576"></circle><circle class="pearl" r="2.190433937142651" cx="4.528102816850201" cy="10.952447669721945"></circle><circle class="pearl" r="2.190433937142651" cx="5.202613332923962" cy="4.047508236005497"></circle></g><g class="bobaCup bright" cupRadius="7.263669235212601" width="14.527338470425201" height="14.527338470425201" pearlRadius="2.7380424214283137" pearlCount="3" transform="translate(296.3220983617273,70.85091075460961)"><circle class="pool" r="7.263669235212601" cx="7.263669235212601" cy="7.263669235212601" style="stroke-width: 1; fill: rgb(65, 182, 196);"></circle><circle class="pearl" r="2.190433937142651" cx="10.202175465654067" cy="10.255691816337285"></circle><circle class="pearl" r="2.190433937142651" cx="4.328636651110632" cy="10.257227343914472"></circle><circle class="pearl" r="2.190433937142651" cx="6.8436474895563615" cy="3.6628772778553067"></circle></g><g class="bobaCup bright" cupRadius="7.063152773233727" width="14.126305546467455" height="14.126305546467455" pearlRadius="2.738042421428314" pearlCount="2" transform="translate(114.70804662139865,134.75843800605176)"><circle class="pool" r="7.063152773233727" cx="7.063152773233727" cy="7.063152773233727" style="stroke-width: 1; fill: rgb(29, 145, 192);"></circle><circle class="pearl" r="2.1904339371426516" cx="9.885861274528398" cy="4.239276105690916"></circle><circle class="pearl" r="2.1904339371426516" cx="4.240444271939058" cy="9.88702944077654"></circle></g><g class="bobaCup bright" cupRadius="6.268433492998239" width="12.536866985996477" height="12.536866985996477" pearlRadius="2.738042421428314" pearlCount="2" transform="translate(311.69713828444753,45.47170352601049)"><circle class="pool" r="6.268433492998239" cx="6.268433492998239" cy="6.268433492998239" style="stroke-width: 1; fill: rgb(29, 145, 192);"></circle><circle class="pearl" r="2.1904339371426516" cx="8.333494551411928" cy="4.000644976107848"></circle><circle class="pearl" r="2.1904339371426516" cx="4.20337243458455" cy="8.536222009888629"></circle></g><g class="bobaCup bright" cupRadius="5.596105579116739" width="11.192211158233478" height="11.192211158233478" pearlRadius="2.7380424214283137" pearlCount="2" transform="translate(117.54240214080681,89.55133668276875)"><circle class="pool" r="5.596105579116739" cx="5.596105579116739" cy="5.596105579116739" style="stroke-width: 1; fill: rgb(29, 145, 192);"></circle><circle class="pearl" r="2.190433937142651" cx="7.192465841667836" cy="3.8832449717839532"></circle><circle class="pearl" r="2.190433937142651" cx="3.999745316565641" cy="7.308966186449524"></circle></g><g class="bobaCup bright" cupRadius="5.551053339434436" width="11.102106678868871" height="11.102106678868871" pearlRadius="2.7380424214283137" pearlCount="2" transform="translate(253.31990126592152,76.93580339921893)"><circle class="pool" r="5.551053339434436" cx="5.551053339434436" cy="5.551053339434436" style="stroke-width: 1; fill: rgb(29, 145, 192);"></circle><circle class="pearl" r="2.190433937142651" cx="7.115973757336171" cy="3.8758759622036756"></circle><circle class="pearl" r="2.190433937142651" cx="3.9861329215327013" cy="7.226230716665196"></circle></g><g class="bobaCup bright" cupRadius="5.3532067543234065" width="10.706413508646813" height="10.706413508646813" pearlRadius="2.7380424214283137" pearlCount="1" transform="translate(119.50653300935257,157.13535146750218)"><circle class="pool" r="5.3532067543234065" cx="5.3532067543234065" cy="5.3532067543234065" style="stroke-width: 1; fill: rgb(127, 205, 187);"></circle><circle class="pearl" r="2.190433937142651" cx="7.034298057693692" cy="5.3532067543234065"></circle></g><g class="bobaCup bright" cupRadius="5.160727290513083" width="10.321454581026167" height="10.321454581026167" pearlRadius="2.738042421428314" pearlCount="1" transform="translate(111.89773680245466,175.96655347858177)"><circle class="pool" r="5.160727290513083" cx="5.160727290513083" cy="5.160727290513083" style="stroke-width: 1; fill: rgb(29, 145, 192);"></circle><circle class="pearl" r="2.1904339371426516" cx="6.670731352455082" cy="5.160727290513083"></circle></g><g class="bobaCup bright" cupRadius="4.714515649407583" width="9.429031298815167" height="9.429031298815167" pearlRadius="2.7380424214283137" pearlCount="1" transform="translate(115.03308734571601,295.2854843505924)"><circle class="pool" r="4.714515649407583" cx="4.714515649407583" cy="4.714515649407583" style="stroke-width: 1; fill: rgb(127, 205, 187);"></circle><circle class="pearl" r="2.190433937142651" cx="5.778308070244082" cy="4.714515649407583"></circle></g><g class="bobaCup bright" cupRadius="3.7061193782164765" width="7.412238756432953" height="7.412238756432953" pearlRadius="2.7380424214283146" pearlCount="1" transform="translate(91.91067265592264,292.2232990024793)"><circle class="pool" r="3.7061193782164765" cx="3.7061193782164765" cy="3.7061193782164765" style="stroke-width: 1; fill: rgb(29, 145, 192);"></circle><circle class="pearl" r="2.1904339371426516" cx="3.7615155278618673" cy="3.7061193782164765"></circle></g><g class="bobaCup bright" cupRadius="2.9226245206597543" width="5.845249041319509" height="5.845249041319509" pearlRadius="2.738042421428313" pearlCount="0" transform="translate(122.153819882388,246.2173427331443)"><circle class="pool" r="2.9226245206597543" cx="2.9226245206597543" cy="2.9226245206597543" style="stroke-width: 1; fill: rgb(29, 145, 192);"></circle></g><g class="bobaCup bright" cupRadius="2.87942941124974" width="5.75885882249948" height="5.75885882249948" pearlRadius="2.738042421428314" pearlCount="0" transform="translate(317.12057058875024,234.47949912891033)"><circle class="pool" r="2.87942941124974" cx="2.87942941124974" cy="2.87942941124974" style="stroke-width: 1; fill: rgb(29, 145, 192);"></circle></g><g class="bobaCup bright" cupRadius="2.839308320083383" width="5.678616640166766" height="5.678616640166766" pearlRadius="2.738042421428314" pearlCount="0" transform="translate(99.63774420367051,145.8549729884373)"><circle class="pool" r="2.839308320083383" cx="2.839308320083383" cy="2.839308320083383" style="stroke-width: 1; fill: rgb(65, 182, 196);"></circle></g><g class="bobaCup bright" cupRadius="2.2785294647886265" width="4.557058929577253" height="4.557058929577253" pearlRadius="2.7380424214283146" pearlCount="0" transform="translate(61.35186621707099,273.49421218123393)"><circle class="pool" r="2.2785294647886265" cx="2.2785294647886265" cy="2.2785294647886265" style="stroke-width: 1; fill: rgb(65, 182, 196);"></circle></g><g class="bobaCup bright" cupRadius="0" width="0" height="0" pearlRadius="NaN" pearlCount="0" transform="translate(20,300)"><circle class="pool" r="0" cx="0" cy="0" style="stroke-width: 1; fill: rgb(29, 145, 192);"></circle></g><g class="bobaCup bright" cupRadius="0" width="0" height="0" pearlRadius="NaN" pearlCount="0" transform="translate(142.28112340222754,177.69299069611503)"><circle class="pool" r="0" cx="0" cy="0" style="stroke-width: 1; fill: rgb(65, 182, 196);"></circle></g></g><g id="legendDividerGroup" transform="translate(410,0)" height="400"><rect class="legendDivider" height="400" width="90"></rect></g><g id="legend" transform="translate(410,30)" width="90" height="320"><rect class="legendBorder" transform="translate(0,0)" width="90" height="324.94771951100137"></rect><text id="rTitle" text-anchor="middle" alignment-baseline="hanging" transform="translate(45,10)" x="0" y="0" style="fill: black; font-size: 0.8rem;">Population</text><text id="bobaValue" text-anchor="middle" alignment-baseline="hanging" transform="translate(45,25)" x="0" y="0" style="fill: black; font-size: 0.7rem;">(1 Pearl =   75)</text><g class="bright" cupRadius="8.94427190999916" width="17.88854381999832" height="17.88854381999832" pearlRadius="2.7380424214283137" pearlCount="4" transform="translate(36.05572809000084,50)"><circle class="pool" r="8.94427190999916" cx="8.94427190999916" cy="8.94427190999916" style="stroke-width: 1; fill: rgb(29, 145, 192);"></circle><circle class="pearl" r="2.190433937142651" cx="13.542613460651712" cy="5.486970900805415"></circle><circle class="pearl" r="2.190433937142651" cx="4.749399498236599" cy="12.229516637519533"></circle><circle class="pearl" r="2.190433937142651" cx="5.6385452023940825" cy="4.284028231246733"></circle><circle class="pearl" r="2.190433937142651" cx="12.653467756495177" cy="13.432459307079196"></circle></g><text id="0" class="legendSampleValue" text-anchor="middle" transform="translate(45,8)" x="0" y="72.88854381999832" style="fill: black; font-size: 0.7rem;"> 300</text><g class="bright" cupRadius="12.64911064067352" width="25.29822128134704" height="25.29822128134704" pearlRadius="2.738042421428314" pearlCount="8" transform="translate(32.35088935932648,92.88854381999832)"><circle class="pool" r="12.64911064067352" cx="12.64911064067352" cy="12.64911064067352" style="stroke-width: 1; fill: rgb(29, 145, 192);"></circle><circle class="pearl" r="2.1904339371426516" cx="14.071403428550028" cy="12.846878791771143"></circle><circle class="pearl" r="2.1904339371426516" cx="6.4405819117747525" cy="19.577951382570923"></circle><circle class="pearl" r="2.1904339371426516" cx="15.102737084551542" cy="3.89097746448665"></circle><circle class="pearl" r="2.1904339371426516" cx="20.833946229646866" cy="17.1122426661066"></circle><circle class="pearl" r="2.1904339371426516" cx="3.6634707295578814" cy="12.08137249507582"></circle><circle class="pearl" r="2.1904339371426516" cx="21.1462151053254" cy="9.123450087562196"></circle><circle class="pearl" r="2.1904339371426516" cx="14.187116834584872" cy="21.55364674624167"></circle><circle class="pearl" r="2.1904339371426516" cx="7.171845845081949" cy="4.898098459274188"></circle></g><text id="1" class="legendSampleValue" text-anchor="middle" transform="translate(45,8)" x="0" y="123.18676510134536" style="fill: black; font-size: 0.7rem;"> 600</text><g class="bright" cupRadius="15.49193338482967" width="30.98386676965934" height="30.98386676965934" pearlRadius="2.738042421428314" pearlCount="12" transform="translate(29.50806661517033,143.18676510134537)"><circle class="pool" r="15.49193338482967" cx="15.49193338482967" cy="15.49193338482967" style="stroke-width: 1; fill: rgb(29, 145, 192);"></circle><circle class="pearl" r="2.1904339371426516" cx="17.033011743384762" cy="11.017376109139583"></circle><circle class="pearl" r="2.1904339371426516" cx="11.029309432951335" cy="17.00347040031936"></circle><circle class="pearl" r="2.1904339371426516" cx="13.977981653444436" cy="3.724876288236054"></circle><circle class="pearl" r="2.1904339371426516" cx="18.741808845067865" cy="18.756462357333646"></circle><circle class="pearl" r="2.1904339371426516" cx="3.725529689195627" cy="13.971342248807431"></circle><circle class="pearl" r="2.1904339371426516" cx="26.98661348100194" cy="12.233596672509556"></circle><circle class="pearl" r="2.1904339371426516" cx="12.152198575888582" cy="26.968872613027884"></circle><circle class="pearl" r="2.1904339371426516" cx="6.524197378590721" cy="6.5101702816287865"></circle><circle class="pearl" r="2.1904339371426516" cx="26.508263068801273" cy="20.47967424223927"></circle><circle class="pearl" r="2.1904339371426516" cx="5.419021306595214" cy="22.679550094546492"></circle><circle class="pearl" r="2.1904339371426516" cx="22.760798049576497" cy="5.461881544509552"></circle><circle class="pearl" r="2.1904339371426516" cx="20.400071923945582" cy="26.535092423407907"></circle></g><text id="2" class="legendSampleValue" text-anchor="middle" transform="translate(45,8)" x="0" y="179.1706318710047" style="fill: black; font-size: 0.7rem;"> 900</text><g class="bright" cupRadius="17.88854381999832" width="35.77708763999664" height="35.77708763999664" pearlRadius="2.7380424214283137" pearlCount="16" transform="translate(27.11145618000168,199.17063187100473)"><circle class="pool" r="17.88854381999832" cx="17.88854381999832" cy="17.88854381999832" style="stroke-width: 1; fill: rgb(29, 145, 192);"></circle><circle class="pearl" r="2.190433937142651" cx="19.8046930625516" cy="19.706925044831756"></circle><circle class="pearl" r="2.190433937142651" cx="13.339172784724305" cy="23.858410298028698"></circle><circle class="pearl" r="2.190433937142651" cx="16.092791630714295" cy="11.113543243945612"></circle><circle class="pearl" r="2.190433937142651" cx="20.836129534048155" cy="27.499380517199565"></circle><circle class="pearl" r="2.190433937142651" cx="10.312657514553905" cy="16.56124087753138"></circle><circle class="pearl" r="2.190433937142651" cx="23.678755837700653" cy="13.13675787817294"></circle><circle class="pearl" r="2.190433937142651" cx="14.311679794483911" cy="31.765114841909277"></circle><circle class="pearl" r="2.190433937142651" cx="11.081450997216843" cy="4.99648955196875"></circle><circle class="pearl" r="2.190433937142651" cx="27.674351504393126" cy="20.796258814455655"></circle><circle class="pearl" r="2.190433937142651" cx="4.000488629236898" cy="21.40866477780026"></circle><circle class="pearl" r="2.190433937142651" cx="28.333596734388347" cy="7.01684061165493"></circle><circle class="pearl" r="2.190433937142651" cx="28.522531366621063" cy="28.62247591779055"></circle><circle class="pearl" r="2.190433937142651" cx="5.30391541992303" cy="10.377661215789304"></circle><circle class="pearl" r="2.190433937142651" cx="31.694235049536697" cy="13.980399213320233"></circle><circle class="pearl" r="2.190433937142651" cx="7.311073872078207" cy="28.66408585659018"></circle><circle class="pearl" r="2.190433937142651" cx="18.987039995684725" cy="3.684483203560177"></circle></g><text id="3" class="legendSampleValue" text-anchor="middle" transform="translate(45,8)" x="0" y="239.94771951100137" style="fill: black; font-size: 0.7rem;">1.2k</text><g class="bright" cupRadius="20" width="40" height="40" pearlRadius="2.7380424214283137" pearlCount="20" transform="translate(25,259.94771951100137)"><circle class="pool" r="20" cx="20" cy="20" style="stroke-width: 1; fill: rgb(29, 145, 192);"></circle><circle class="pearl" r="2.190433937142651" cx="22.480421380823074" cy="19.96094551607325"></circle><circle class="pearl" r="2.190433937142651" cx="14.554532211889109" cy="20.25858246523202"></circle><circle class="pearl" r="2.190433937142651" cx="21.718613402750453" cy="11.231225788085391"></circle><circle class="pearl" r="2.190433937142651" cx="25.13767186853209" cy="27.447308990534317"></circle><circle class="pearl" r="2.190433937142651" cx="6.622341466842937" cy="15.212813608895589"></circle><circle class="pearl" r="2.190433937142651" cx="28.49521909515808" cy="14.82158787688231"></circle><circle class="pearl" r="2.190433937142651" cx="17.504603283401977" cy="28.993209871734443"></circle><circle class="pearl" r="2.190433937142651" cx="14.13811847195522" cy="12.373399584276378"></circle><circle class="pearl" r="2.190433937142651" cx="31.11803529924844" cy="22.444175683247455"></circle><circle class="pearl" r="2.190433937142651" cx="10.013176726772668" cy="26.767604068489224"></circle><circle class="pearl" r="2.190433937142651" cx="25.1625299271706" cy="4.328500666167248"></circle><circle class="pearl" r="2.190433937142651" cx="27.782608687955303" cy="34.772930101052836"></circle><circle class="pearl" r="2.190433937142651" cx="8.036930275650786" cy="7.623092000895575"></circle><circle class="pearl" r="2.190433937142651" cx="36.040664285033515" cy="16.500106031740792"></circle><circle class="pearl" r="2.190433937142651" cx="11.3070075503718" cy="34.36126950601293"></circle><circle class="pearl" r="2.190433937142651" cx="16.81383473400994" cy="3.9061454691506903"></circle><circle class="pearl" r="2.190433937142651" cx="33.74247113697989" cy="29.87303346303284"></circle><circle class="pearl" r="2.190433937142651" cx="3.788525504185259" cy="22.343736665541265"></circle><circle class="pearl" r="2.190433937142651" cx="32.18050534208177" cy="7.787706818962306"></circle><circle class="pearl" r="2.190433937142651" cx="20.00567962395882" cy="36.34927596497569"></circle></g><text id="4" class="legendSampleValue" text-anchor="middle" transform="translate(45,8)" x="0" y="304.94771951100137" style="fill: black; font-size: 0.7rem;">1.5k</text></g></svg>