<?xml version="1.0" standalone="no"?>
<?xml-stylesheet xmlns="http://www.w3.org/2000/svg" type="text/css" href="style.css"?>
<svg id="syntheticVisC" class="default" xTitle="Percent Cat Owners" yTitle="Percent Dog Owners" rTitle="Population" chartTitle="Towns in Vizzyland" width="500" height="400" xmlns="http://www.w3.org/2000/svg"><rect class="background" width="500" height="400"></rect><text id="chartTitle" text-anchor="middle" transform="translate(250,20)" x="0" y="0" style="fill: black; font-size: 1.2rem;">Towns in Vizzyland</text><g id="yAxis" transform="translate(50,30)" fill="none" font-size="10" font-family="sans-serif" text-anchor="end"><path class="domain" stroke="currentColor" d="M-6,300H0V20H-6"></path><g class="tick" opacity="1" transform="translate(0,300)"><line stroke="currentColor" x2="-6"></line><text fill="currentColor" x="-9" dy="0.32em">0</text></g><g class="tick" opacity="1" transform="translate(0,272)"><line stroke="currentColor" x2="-6"></line><text fill="currentColor" x="-9" dy="0.32em">10</text></g><g class="tick" opacity="1" transform="translate(0,244)"><line stroke="currentColor" x2="-6"></line><text fill="currentColor" x="-9" dy="0.32em">20</text></g><g class="tick" opacity="1" transform="translate(0,216)"><line stroke="currentColor" x2="-6"></line><text fill="currentColor" x="-9" dy="0.32em">30</text></g><g class="tick" opacity="1" transform="translate(0,188)"><line stroke="currentColor" x2="-6"></line><text fill="currentColor" x="-9" dy="0.32em">40</text></g><g class="tick" opacity="1" transform="translate(0,160)"><line stroke="currentColor" x2="-6"></line><text fill="currentColor" x="-9" dy="0.32em">50</text></g><g class="tick" opacity="1" transform="translate(0,132)"><line stroke="currentColor" x2="-6"></line><text fill="currentColor" x="-9" dy="0.32em">60</text></g><g class="tick" opacity="1" transform="translate(0,104.00000000000001)"><line stroke="currentColor" x2="-6"></line><text fill="currentColor" x="-9" dy="0.32em">70</text></g><g class="tick" opacity="1" transform="translate(0,75.99999999999999)"><line stroke="currentColor" x2="-6"></line><text fill="currentColor" x="-9" dy="0.32em">80</text></g><g class="tick" opacity="1" transform="translate(0,47.99999999999999)"><line stroke="currentColor" x2="-6"></line><text fill="currentColor" x="-9" dy="0.32em">90</text></g><g class="tick" opacity="1" transform="translate(0,20)"><line stroke="currentColor" x2="-6"></line><text fill="currentColor" x="-9" dy="0.32em">100</text></g></g><g id="xAxis" transform="translate(60,360)" fill="none" font-size="10" font-family="sans-serif" text-anchor="middle"><path class="domain" stroke="currentColor" d="M20,6V0H320V6"></path><g class="tick" opacity="1" transform="translate(20,0)"><line stroke="currentColor" y2="6"></line><text fill="currentColor" y="9" dy="0.71em">0</text></g><g class="tick" opacity="1" transform="translate(50,0)"><line stroke="currentColor" y2="6"></line><text fill="currentColor" y="9" dy="0.71em">10</text></g><g class="tick" opacity="1" transform="translate(80,0)"><line stroke="currentColor" y2="6"></line><text fill="currentColor" y="9" dy="0.71em">20</text></g><g class="tick" opacity="1" transform="translate(110,0)"><line stroke="currentColor" y2="6"></line><text fill="currentColor" y="9" dy="0.71em">30</text></g><g class="tick" opacity="1" transform="translate(140,0)"><line stroke="currentColor" y2="6"></line><text fill="currentColor" y="9" dy="0.71em">40</text></g><g class="tick" opacity="1" transform="translate(170,0)"><line stroke="currentColor" y2="6"></line><text fill="currentColor" y="9" dy="0.71em">50</text></g><g class="tick" opacity="1" transform="translate(200,0)"><line stroke="currentColor" y2="6"></line><text fill="currentColor" y="9" dy="0.71em">60</text></g><g class="tick" opacity="1" transform="translate(230,0)"><line stroke="currentColor" y2="6"></line><text fill="currentColor" y="9" dy="0.71em">70</text></g><g class="tick" opacity="1" transform="translate(260,0)"><line stroke="currentColor" y2="6"></line><text fill="currentColor" y="9" dy="0.71em">80</text></g><g class="tick" opacity="1" transform="translate(290,0)"><line stroke="currentColor" y2="6"></line><text fill="currentColor" y="9" dy="0.71em">90</text></g><g class="tick" opacity="1" transform="translate(320,0)"><line stroke="currentColor" y2="6"></line><text fill="currentColor" y="9" dy="0.71em">100</text></g></g><g id="labels"><text id="xTitle" text-anchor="middle" transform="translate(250,350)" x="0" y="40" style="fill: black; font-size: 0.8rem;">Percent Cat Owners</text><g id="group-yTitle" transform="translate(60,190)"><text id="yTitle" text-anchor="middle" transform="rotate(-90)" y="-45" style="fill: black; font-size: 0.8rem;">Percent Dog Owners</text></g></g><g id="quadrant_lines" transform="translate(60,30)"><line id="verticalQuadrantLine" x1="170" y1="10" x2="170" y2="310" class="quadrantLine"></line><line id="horizontalQuadrantLine" x1="10" y1="160" x2="330" y2="160" class="quadrantLine"></line></g><g id="chart" transform="translate(60,30)"><g class="bobaCup bright" cupRadius="20" width="40" height="40" pearlRadius="2.7380424214283137" pearlCount="20" transform="translate(224.98598404090492,26.047127344589526)"><circle class="pool" r="20" cx="20" cy="20" style="stroke-width: 1; fill: rgb(29, 145, 192);"></circle><circle class="pearl" r="2.190433937142651" cx="22.480421380823074" cy="19.96094551607325"></circle><circle class="pearl" r="2.190433937142651" cx="14.554532211889109" cy="20.25858246523202"></circle><circle class="pearl" r="2.190433937142651" cx="21.718613402750453" cy="11.231225788085391"></circle><circle class="pearl" r="2.190433937142651" cx="25.13767186853209" cy="27.447308990534317"></circle><circle class="pearl" r="2.190433937142651" cx="6.622341466842937" cy="15.212813608895589"></circle><circle class="pearl" r="2.190433937142651" cx="28.49521909515808" cy="14.82158787688231"></circle><circle class="pearl" r="2.190433937142651" cx="17.504603283401977" cy="28.993209871734443"></circle><circle class="pearl" r="2.190433937142651" cx="14.13811847195522" cy="12.373399584276378"></circle><circle class="pearl" r="2.190433937142651" cx="31.11803529924844" cy="22.444175683247455"></circle><circle class="pearl" r="2.190433937142651" cx="10.013176726772668" cy="26.767604068489224"></circle><circle class="pearl" r="2.190433937142651" cx="25.1625299271706" cy="4.328500666167248"></circle><circle class="pearl" r="2.190433937142651" cx="27.782608687955303" cy="34.772930101052836"></circle><circle class="pearl" r="2.190433937142651" cx="8.036930275650786" cy="7.623092000895575"></circle><circle class="pearl" r="2.190433937142651" cx="36.040664285033515" cy="16.500106031740792"></circle><circle class="pearl" r="2.190433937142651" cx="11.3070075503718" cy="34.36126950601293"></circle><circle class="pearl" r="2.190433937142651" cx="16.81383473400994" cy="3.9061454691506903"></circle><circle class="pearl" r="2.190433937142651" cx="33.74247113697989" cy="29.87303346303284"></circle><circle class="pearl" r="2.190433937142651" cx="3.788525504185259" cy="22.343736665541265"></circle><circle class="pearl" r="2.190433937142651" cx="32.18050534208177" cy="7.787706818962306"></circle><circle class="pearl" r="2.190433937142651" cx="20.00567962395882" cy="36.34927596497569"></circle></g><g class="bobaCup bright" cupRadius="19.892041558065102" width="39.784083116130205" height="39.784083116130205" pearlRadius="2.7380424214283132" pearlCount="20" transform="translate(196.67848963653051,48.274992876970316)"><circle class="pool" r="19.892041558065102" cx="19.892041558065102" cy="19.892041558065102" style="stroke-width: 1; fill: rgb(127, 205, 187);"></circle><circle class="pearl" r="2.1904339371426507" cx="22.029945871404532" cy="19.868166716973192"></circle><circle class="pearl" r="2.1904339371426507" cx="14.205459916556809" cy="20.812964855752764"></circle><circle class="pearl" r="2.1904339371426507" cx="21.068177615500773" cy="11.039562463411125"></circle><circle class="pearl" r="2.1904339371426507" cx="25.242975649427727" cy="27.103028242526022"></circle><circle class="pearl" r="2.1904339371426507" cx="5.667779240003131" cy="14.838400663573838"></circle><circle class="pearl" r="2.1904339371426507" cx="27.943328166586934" cy="14.67958960431608"></circle><circle class="pearl" r="2.1904339371426507" cx="17.47376257603813" cy="28.563734934441126"></circle><circle class="pearl" r="2.1904339371426507" cx="13.524345466635324" cy="13.00589950789135"></circle><circle class="pearl" r="2.1904339371426507" cx="31.280011880433765" cy="22.016074126910674"></circle><circle class="pearl" r="2.1904339371426507" cx="9.667304717548198" cy="27.253143957170565"></circle><circle class="pearl" r="2.1904339371426507" cx="24.981884402157785" cy="4.312922947187075"></circle><circle class="pearl" r="2.1904339371426507" cx="27.63619739680495" cy="34.56401921372778"></circle><circle class="pearl" r="2.1904339371426507" cx="8.047810720666526" cy="7.561290723890731"></circle><circle class="pearl" r="2.1904339371426507" cx="35.65490323237394" cy="15.55544859048535"></circle><circle class="pearl" r="2.1904339371426507" cx="11.980297397917619" cy="34.49228054226958"></circle><circle class="pearl" r="2.1904339371426507" cx="16.573111978562977" cy="3.9295543458619653"></circle><circle class="pearl" r="2.1904339371426507" cx="33.613745788600774" cy="29.58183420423988"></circle><circle class="pearl" r="2.1904339371426507" cx="3.802368341771273" cy="22.343585061116553"></circle><circle class="pearl" r="2.1904339371426507" cx="32.02086952269427" cy="7.780101932680496"></circle><circle class="pearl" r="2.1904339371426507" cx="19.864714532034235" cy="36.13334111706988"></circle></g><g class="bobaCup bright" cupRadius="18.997792298802572" width="37.995584597605145" height="37.995584597605145" pearlRadius="2.7380424214283132" pearlCount="18" transform="translate(36.50200467969148,43.41689330719439)"><circle class="pool" r="18.997792298802572" cx="18.997792298802572" cy="18.997792298802572" style="stroke-width: 1; fill: rgb(29, 145, 192);"></circle><circle class="pearl" r="2.1904339371426507" cx="19.667075461329137" cy="18.516462888710652"></circle><circle class="pearl" r="2.1904339371426507" cx="13.735636191719053" cy="23.868824176951847"></circle><circle class="pearl" r="2.1904339371426507" cx="18.52566637690284" cy="10.69197022847169"></circle><circle class="pearl" r="2.1904339371426507" cx="21.332029843189098" cy="26.244909497746267"></circle><circle class="pearl" r="2.1904339371426507" cx="11.90102619066768" cy="15.985150007478719"></circle><circle class="pearl" r="2.1904339371426507" cx="26.497310227718803" cy="14.374784696755844"></circle><circle class="pearl" r="2.1904339371426507" cx="16.3741762735441" cy="32.55231623193594"></circle><circle class="pearl" r="2.1904339371426507" cx="13.631547324017566" cy="4.424368713351416"></circle><circle class="pearl" r="2.1904339371426507" cx="28.219814624040563" cy="22.163907024851298"></circle><circle class="pearl" r="2.1904339371426507" cx="5.745114324124132" cy="23.697876735915436"></circle><circle class="pearl" r="2.1904339371426507" cx="30.278025078562294" cy="7.3621666937614725"></circle><circle class="pearl" r="2.1904339371426507" cx="24.274698797880383" cy="33.59728468617512"></circle><circle class="pearl" r="2.1904339371426507" cx="6.823011098472398" cy="8.487344078138099"></circle><circle class="pearl" r="2.1904339371426507" cx="34.223617252456044" cy="16.85488750563109"></circle><circle class="pearl" r="2.1904339371426507" cx="8.499448031998574" cy="31.180605626670985"></circle><circle class="pearl" r="2.1904339371426507" cx="22.992802492117185" cy="4.075524228615271"></circle><circle class="pearl" r="2.1904339371426507" cx="31.10875338677054" cy="29.603706674008944"></circle><circle class="pearl" r="2.1904339371426507" cx="3.8984442662884105" cy="15.939861636955007"></circle></g><g class="bobaCup bright" cupRadius="18.92226847900818" width="37.84453695801636" height="37.84453695801636" pearlRadius="2.7380424214283137" pearlCount="18" transform="translate(90.42495761052439,82.25923814135965)"><circle class="pool" r="18.92226847900818" cx="18.92226847900818" cy="18.92226847900818" style="stroke-width: 1; fill: rgb(65, 182, 196);"></circle><circle class="pearl" r="2.190433937142651" cx="19.360665194024772" cy="18.490388427797967"></circle><circle class="pearl" r="2.190433937142651" cx="13.67319835946839" cy="24.107123221173165"></circle><circle class="pearl" r="2.190433937142651" cx="18.580234652621176" cy="10.64565775538907"></circle><circle class="pearl" r="2.190433937142651" cx="21.37022075736713" cy="26.089885535835315"></circle><circle class="pearl" r="2.190433937142651" cx="11.867481028250888" cy="15.801736492267276"></circle><circle class="pearl" r="2.190433937142651" cx="26.10604861368747" cy="14.229135024384615"></circle><circle class="pearl" r="2.190433937142651" cx="16.37071745181376" cy="32.3802339688128"></circle><circle class="pearl" r="2.190433937142651" cx="13.675208390977563" cy="4.39276605374695"></circle><circle class="pearl" r="2.190433937142651" cx="28.229058480546684" cy="21.91538356293581"></circle><circle class="pearl" r="2.190433937142651" cx="5.697027894750851" cy="23.59323051870044"></circle><circle class="pearl" r="2.190433937142651" cx="30.346467297069626" cy="7.488565110685698"></circle><circle class="pearl" r="2.190433937142651" cx="24.27232470529651" cy="33.42172824585673"></circle><circle class="pearl" r="2.190433937142651" cx="6.846311708700815" cy="8.399731683893464"></circle><circle class="pearl" r="2.190433937142651" cx="34.02743245998799" cy="16.41848346941331"></circle><circle class="pearl" r="2.190433937142651" cx="8.488233165735865" cy="31.057081398222916"></circle><circle class="pearl" r="2.190433937142651" cx="23.15796940264933" cy="4.130890903247561"></circle><circle class="pearl" r="2.190433937142651" cx="31.041474922974718" cy="29.37987635628509"></circle><circle class="pearl" r="2.190433937142651" cx="3.904338240098774" cy="15.834612069561826"></circle></g><g class="bobaCup bright" cupRadius="18.78167544718019" width="37.56335089436038" height="37.56335089436038" pearlRadius="2.738042421428313" pearlCount="18" transform="translate(257.27245920254853,117.21562304396053)"><circle class="pool" r="18.78167544718019" cx="18.78167544718019" cy="18.78167544718019" style="stroke-width: 1; fill: rgb(29, 145, 192);"></circle><circle class="pearl" r="2.1904339371426502" cx="18.864197202954095" cy="18.437720763552154"></circle><circle class="pearl" r="2.1904339371426502" cx="13.673123728275543" cy="24.50980083378594"></circle><circle class="pearl" r="2.1904339371426502" cx="18.44943524691513" cy="10.622894893684752"></circle><circle class="pearl" r="2.1904339371426502" cx="21.50909331655164" cy="25.772176619014463"></circle><circle class="pearl" r="2.1904339371426502" cx="11.779554833584676" cy="14.842353039524662"></circle><circle class="pearl" r="2.1904339371426502" cx="25.59912670967631" cy="13.986170153858149"></circle><circle class="pearl" r="2.1904339371426502" cx="16.422456734813466" cy="32.01821667863896"></circle><circle class="pearl" r="2.1904339371426502" cx="13.651386198542548" cy="4.364984227952599"></circle><circle class="pearl" r="2.1904339371426502" cx="28.236165430209777" cy="21.495538891533073"></circle><circle class="pearl" r="2.1904339371426502" cx="5.748663628879181" cy="23.431459535670776"></circle><circle class="pearl" r="2.1904339371426502" cx="30.110596398870296" cy="7.45218229969154"></circle><circle class="pearl" r="2.1904339371426502" cx="24.256015687159035" cy="33.097112953172285"></circle><circle class="pearl" r="2.1904339371426502" cx="6.850742397723534" cy="8.295335750383696"></circle><circle class="pearl" r="2.1904339371426502" cx="33.64623042827898" cy="15.629564183005781"></circle><circle class="pearl" r="2.1904339371426502" cx="8.524921119379615" cy="30.864684238138214"></circle><circle class="pearl" r="2.1904339371426502" cx="22.971453158982577" cy="4.124010015661737"></circle><circle class="pearl" r="2.1904339371426502" cx="30.89067848498114" cy="28.99844404650917"></circle><circle class="pearl" r="2.1904339371426502" cx="3.9017201179175616" cy="15.72140016716809"></circle></g><g class="bobaCup bright" cupRadius="18.689243429731107" width="37.378486859462214" height="37.378486859462214" pearlRadius="2.7380424214283137" pearlCount="17" transform="translate(169.2439173342454,36.98160131841878)"><circle class="pool" r="18.689243429731107" cx="18.689243429731107" cy="18.689243429731107" style="stroke-width: 1; fill: rgb(65, 182, 196);"></circle><circle class="pearl" r="2.190433937142651" cx="19.176463332504344" cy="18.1772811446613"></circle><circle class="pearl" r="2.190433937142651" cx="13.403289531600247" cy="24.716079779484456"></circle><circle class="pearl" r="2.190433937142651" cx="15.946894426913623" cy="10.967206771436967"></circle><circle class="pearl" r="2.190433937142651" cx="21.232541526025432" cy="25.78697692151734"></circle><circle class="pearl" r="2.190433937142651" cx="10.955114024366145" cy="17.163938911526166"></circle><circle class="pearl" r="2.190433937142651" cx="25.397688694185007" cy="13.218553430814934"></circle><circle class="pearl" r="2.190433937142651" cx="16.355280584789643" cy="32.147800617162424"></circle><circle class="pearl" r="2.190433937142651" cx="9.81202962861045" cy="5.893602467243419"></circle><circle class="pearl" r="2.190433937142651" cx="27.47686953171666" cy="20.833573641249014"></circle><circle class="pearl" r="2.190433937142651" cx="5.0696946187288585" cy="22.569728066396948"></circle><circle class="pearl" r="2.190433937142651" cx="26.838216246112896" cy="5.520868525119841"></circle><circle class="pearl" r="2.190433937142651" cx="25.2638731445803" cy="32.53314977964408"></circle><circle class="pearl" r="2.190433937142651" cx="4.871317722318814" cy="12.04589154027695"></circle><circle class="pearl" r="2.190433937142651" cx="33.38528413070415" cy="15.12777276590052"></circle><circle class="pearl" r="2.190433937142651" cx="7.58054927897431" cy="30.067982408461024"></circle><circle class="pearl" r="2.190433937142651" cx="19.0464840307342" cy="3.654137826571386"></circle><circle class="pearl" r="2.190433937142651" cx="31.393170561887818" cy="27.73431012678169"></circle></g><g class="bobaCup bright" cupRadius="18.611065698803944" width="37.22213139760789" height="37.22213139760789" pearlRadius="2.7380424214283137" pearlCount="17" transform="translate(141.14705767559786,11.065474190469484)"><circle class="pool" r="18.611065698803944" cx="18.611065698803944" cy="18.611065698803944" style="stroke-width: 1; fill: rgb(29, 145, 192);"></circle><circle class="pearl" r="2.190433937142651" cx="18.731223031334306" cy="18.23357853573472"></circle><circle class="pearl" r="2.190433937142651" cx="13.352398573359586" cy="24.61497177133517"></circle><circle class="pearl" r="2.190433937142651" cx="15.956544468543543" cy="10.826694838404398"></circle><circle class="pearl" r="2.190433937142651" cx="21.15794709025887" cy="25.673931598743717"></circle><circle class="pearl" r="2.190433937142651" cx="10.918025437154895" cy="17.091586242404112"></circle><circle class="pearl" r="2.190433937142651" cx="24.835803909915853" cy="13.245329030973844"></circle><circle class="pearl" r="2.190433937142651" cx="16.294464751416907" cy="32.07412300199822"></circle><circle class="pearl" r="2.190433937142651" cx="9.716088532812575" cy="5.913971101692944"></circle><circle class="pearl" r="2.190433937142651" cx="27.3758403732803" cy="20.692760340641605"></circle><circle class="pearl" r="2.190433937142651" cx="4.847152877962211" cy="22.315434015873084"></circle><circle class="pearl" r="2.190433937142651" cx="27.617649526411835" cy="5.975192775893017"></circle><circle class="pearl" r="2.190433937142651" cx="25.178171932612234" cy="32.37427029134987"></circle><circle class="pearl" r="2.190433937142651" cx="4.849454725249881" cy="12.039735233920936"></circle><circle class="pearl" r="2.190433937142651" cx="33.21038772589763" cy="14.963105363029376"></circle><circle class="pearl" r="2.190433937142651" cx="7.439725857291926" cy="29.84566855301126"></circle><circle class="pearl" r="2.190433937142651" cx="19.48887010672538" cy="3.6714358950458568"></circle><circle class="pearl" r="2.190433937142651" cx="31.256398600804797" cy="27.60052180217558"></circle></g><g class="bobaCup bright" cupRadius="18.585592833823238" width="37.171185667646476" height="37.171185667646476" pearlRadius="2.7380424214283132" pearlCount="17" transform="translate(209.79179050821708,231.1327761748575)"><circle class="pool" r="18.585592833823238" cx="18.585592833823238" cy="18.585592833823238" style="stroke-width: 1; fill: rgb(29, 145, 192);"></circle><circle class="pearl" r="2.1904339371426507" cx="18.617876898745138" cy="18.266768082605072"></circle><circle class="pearl" r="2.1904339371426507" cx="13.347186204614436" cy="24.584844634347103"></circle><circle class="pearl" r="2.1904339371426507" cx="15.995701995179289" cy="10.80774442310866"></circle><circle class="pearl" r="2.1904339371426507" cx="21.13784743114334" cy="25.65274088513467"></circle><circle class="pearl" r="2.1904339371426507" cx="10.830794429841836" cy="17.102742688873"></circle><circle class="pearl" r="2.1904339371426507" cx="24.65550932575162" cy="13.233615668385944"></circle><circle class="pearl" r="2.1904339371426507" cx="16.26976004907221" cy="32.04725427572126"></circle><circle class="pearl" r="2.1904339371426507" cx="9.785796693085125" cy="5.865981647175057"></circle><circle class="pearl" r="2.1904339371426507" cx="27.321783675291922" cy="20.63198191143284"></circle><circle class="pearl" r="2.1904339371426507" cx="4.745423186558044" cy="22.31194523272554"></circle><circle class="pearl" r="2.1904339371426507" cx="28.064206342950047" cy="6.249441854805759"></circle><circle class="pearl" r="2.1904339371426507" cx="25.20239814537695" cy="32.3027177291176"></circle><circle class="pearl" r="2.1904339371426507" cx="4.882209770402507" cy="11.932829814527288"></circle><circle class="pearl" r="2.1904339371426507" cx="33.15403996013913" cy="14.913251269607123"></circle><circle class="pearl" r="2.1904339371426507" cx="7.4362956873179575" cy="29.804887565012354"></circle><circle class="pearl" r="2.1904339371426507" cx="19.577251887668346" cy="3.677197729197867"></circle><circle class="pearl" r="2.1904339371426507" cx="31.235533436560413" cy="27.51378524009118"></circle></g><g class="bobaCup bright" cupRadius="18.531118409186714" width="37.06223681837343" height="37.06223681837343" pearlRadius="2.738042421428313" pearlCount="17" transform="translate(242.550018692567,110.18999237273522)"><circle class="pool" r="18.531118409186714" cx="18.531118409186714" cy="18.531118409186714" style="stroke-width: 1; fill: rgb(65, 182, 196);"></circle><circle class="pearl" r="2.1904339371426502" cx="18.36707683672782" cy="18.33710726398851"></circle><circle class="pearl" r="2.1904339371426502" cx="13.352568477710182" cy="24.535544568692064"></circle><circle class="pearl" r="2.1904339371426502" cx="16.11215940596071" cy="10.78108906862952"></circle><circle class="pearl" r="2.1904339371426502" cx="21.120135225937453" cy="25.61223422310127"></circle><circle class="pearl" r="2.1904339371426502" cx="10.58851541662706" cy="17.162433161669558"></circle><circle class="pearl" r="2.1904339371426502" cx="24.171426821665904" cy="13.049015209673387"></circle><circle class="pearl" r="2.1904339371426502" cx="16.2039573835222" cy="32.00506856351392"></circle><circle class="pearl" r="2.1904339371426502" cx="10.010965857008443" cy="5.725555605274378"></circle><circle class="pearl" r="2.1904339371426502" cx="27.130293853066917" cy="20.38032245519247"></circle><circle class="pearl" r="2.1904339371426502" cx="4.4710291650444" cy="22.329820214244204"></circle><circle class="pearl" r="2.1904339371426502" cx="29.18356974549687" cy="7.018476904861517"></circle><circle class="pearl" r="2.1904339371426502" cx="25.439125745885104" cy="32.07579526701723"></circle><circle class="pearl" r="2.1904339371426502" cx="4.978218681085361" cy="11.643614749663056"></circle><circle class="pearl" r="2.1904339371426502" cx="33.035322256682896" cy="14.816152412306185"></circle><circle class="pearl" r="2.1904339371426502" cx="7.429356493231802" cy="29.71795670051343"></circle><circle class="pearl" r="2.1904339371426502" cx="19.76809888158706" cy="3.6920544890045996"></circle><circle class="pearl" r="2.1904339371426502" cx="31.307957448180122" cy="27.10652204053784"></circle></g><g class="bobaCup bright" cupRadius="18.301840147143487" width="36.603680294286974" height="36.603680294286974" pearlRadius="2.738042421428313" pearlCount="17" transform="translate(83.77309456609899,99.02993750255328)"><circle class="pool" r="18.301840147143487" cx="18.301840147143487" cy="18.301840147143487" style="stroke-width: 1; fill: rgb(127, 205, 187);"></circle><circle class="pearl" r="2.1904339371426502" cx="18.273286226779994" cy="18.292983593953274"></circle><circle class="pearl" r="2.1904339371426502" cx="13.219733496217643" cy="24.29288777569102"></circle><circle class="pearl" r="2.1904339371426502" cx="15.686700603536252" cy="10.858618831792525"></circle><circle class="pearl" r="2.1904339371426502" cx="20.860104467204007" cy="25.7198889214016"></circle><circle class="pearl" r="2.1904339371426502" cx="10.514084590230942" cy="16.983322445109735"></circle><circle class="pearl" r="2.1904339371426502" cx="23.321248387646765" cy="12.299742994754702"></circle><circle class="pearl" r="2.1904339371426502" cx="15.653726163272218" cy="31.946979186767987"></circle><circle class="pearl" r="2.1904339371426502" cx="9.916632927800897" cy="5.6846301123808995"></circle><circle class="pearl" r="2.1904339371426502" cx="26.03154662940746" cy="19.657658967438447"></circle><circle class="pearl" r="2.1904339371426502" cx="4.3643181528944135" cy="22.112834918022237"></circle><circle class="pearl" r="2.1904339371426502" cx="29.153926051072556" cy="7.215210007306213"></circle><circle class="pearl" r="2.1904339371426502" cx="26.715081481126774" cy="30.904569568017333"></circle><circle class="pearl" r="2.1904339371426502" cx="4.977740923301964" cy="11.459855385346511"></circle><circle class="pearl" r="2.1904339371426502" cx="32.57087412794821" cy="14.5816715584076"></circle><circle class="pearl" r="2.1904339371426502" cx="7.445957666704979" cy="29.385673862793748"></circle><circle class="pearl" r="2.1904339371426502" cx="19.893833922471522" cy="3.7200948486360184"></circle><circle class="pearl" r="2.1904339371426502" cx="31.637880210350087" cy="25.114125053157572"></circle></g><g class="bobaCup bright" cupRadius="18.218836531027755" width="36.43767306205551" height="36.43767306205551" pearlRadius="2.7380424214283137" pearlCount="17" transform="translate(54.984895794703824,33.136584319241145)"><circle class="pool" r="18.218836531027755" cx="18.218836531027755" cy="18.218836531027755" style="stroke-width: 1; fill: rgb(65, 182, 196);"></circle><circle class="pearl" r="2.190433937142651" cx="18.192138740948934" cy="18.216456295215462"></circle><circle class="pearl" r="2.190433937142651" cx="13.241009650968357" cy="24.27058777843787"></circle><circle class="pearl" r="2.190433937142651" cx="15.480224392280881" cy="10.8555057440703"></circle><circle class="pearl" r="2.190433937142651" cx="20.858795736239895" cy="25.592807705298238"></circle><circle class="pearl" r="2.190433937142651" cx="10.434548332231781" cy="17.037420042271062"></circle><circle class="pearl" r="2.190433937142651" cx="23.097759956787417" cy="12.128601222813021"></circle><circle class="pearl" r="2.190433937142651" cx="15.539609005773158" cy="31.971605216733742"></circle><circle class="pearl" r="2.190433937142651" cx="9.713533668719123" cy="5.757892317502229"></circle><circle class="pearl" r="2.190433937142651" cx="25.950708966780915" cy="19.405607437878782"></circle><circle class="pearl" r="2.190433937142651" cx="4.195828045843533" cy="22.066818903724972"></circle><circle class="pearl" r="2.190433937142651" cx="28.993202651107797" cy="7.178098319198067"></circle><circle class="pearl" r="2.190433937142651" cx="26.792907241667557" cy="30.643290315269315"></circle><circle class="pearl" r="2.190433937142651" cx="4.917454022416649" cy="11.544099411132617"></circle><circle class="pearl" r="2.190433937142651" cx="32.4086563831562" cy="14.52546041559955"></circle><circle class="pearl" r="2.190433937142651" cx="7.442769384085702" cy="29.258327099025717"></circle><circle class="pearl" r="2.190433937142651" cx="19.86510842409299" cy="3.7252550498995767"></circle><circle class="pearl" r="2.190433937142651" cx="31.5510353929884" cy="24.814771780197567"></circle></g><g class="bobaCup bright" cupRadius="17.869951094923024" width="35.73990218984605" height="35.73990218984605" pearlRadius="2.7380424214283132" pearlCount="16" transform="translate(47.77373319932384,249.38840733426707)"><circle class="pool" r="17.869951094923024" cx="17.869951094923024" cy="17.869951094923024" style="stroke-width: 1; fill: rgb(127, 205, 187);"></circle><circle class="pearl" r="2.1904339371426507" cx="19.779296500817733" cy="19.680638055699145"></circle><circle class="pearl" r="2.1904339371426507" cx="13.326525743197507" cy="23.83053532916623"></circle><circle class="pearl" r="2.1904339371426507" cx="16.078903965958617" cy="11.09746053560722"></circle><circle class="pearl" r="2.1904339371426507" cx="20.81357588021849" cy="27.466449449049165"></circle><circle class="pearl" r="2.1904339371426507" cx="10.305278801589656" cy="16.54019465020222"></circle><circle class="pearl" r="2.1904339371426507" cx="23.646466525869773" cy="13.12354260192509"></circle><circle class="pearl" r="2.1904339371426507" cx="14.300915981250611" cy="31.729143357076442"></circle><circle class="pearl" r="2.1904339371426507" cx="11.081448730721203" cy="4.990357091626872"></circle><circle class="pearl" r="2.1904339371426507" cx="27.64782531972968" cy="20.769409149187"></circle><circle class="pearl" r="2.1904339371426507" cx="4.000418173247364" cy="21.387873289156676"></circle><circle class="pearl" r="2.1904339371426507" cx="28.294322940257064" cy="7.006280648071509"></circle><circle class="pearl" r="2.1904339371426507" cx="28.48871940608429" cy="28.592011580330865"></circle><circle class="pearl" r="2.1904339371426507" cx="5.308437506199875" cy="10.3534007215862"></circle><circle class="pearl" r="2.1904339371426507" cx="31.65519133340003" cy="13.955576290346315"></circle><circle class="pearl" r="2.1904339371426507" cx="7.31199530117511" cy="28.636742270444113"></circle><circle class="pearl" r="2.1904339371426507" cx="19.01996937527786" cy="3.6877662575114227"></circle></g><g class="bobaCup bright" cupRadius="17.18270745336762" width="34.36541490673524" height="34.36541490673524" pearlRadius="2.7380424214283132" pearlCount="15" transform="translate(294.42003929294486,122.04695665276228)"><circle class="pool" r="17.18270745336762" cx="17.18270745336762" cy="17.18270745336762" style="stroke-width: 1; fill: rgb(127, 205, 187);"></circle><circle class="pearl" r="2.1904339371426507" cx="18.409999295162045" cy="17.420457949718006"></circle><circle class="pearl" r="2.1904339371426507" cx="12.749827264093003" cy="22.720329648629864"></circle><circle class="pearl" r="2.1904339371426507" cx="16.0992953704236" cy="9.85085858966129"></circle><circle class="pearl" r="2.1904339371426507" cx="19.860619924756993" cy="25.28182047339431"></circle><circle class="pearl" r="2.1904339371426507" cx="10.666520087485525" cy="15.543826405826586"></circle><circle class="pearl" r="2.1904339371426507" cx="23.49419027357717" cy="11.46342450538826"></circle><circle class="pearl" r="2.1904339371426507" cx="14.215457825676523" cy="30.456548180035742"></circle><circle class="pearl" r="2.1904339371426507" cx="10.232020520455992" cy="5.11931643427375"></circle><circle class="pearl" r="2.1904339371426507" cx="25.8296875384743" cy="20.03865326510246"></circle><circle class="pearl" r="2.1904339371426507" cx="4.175469906605932" cy="20.29131587404253"></circle><circle class="pearl" r="2.1904339371426507" cx="21.50351783718662" cy="4.202855434669082"></circle><circle class="pearl" r="2.1904339371426507" cx="27.18895722110831" cy="27.50053465115089"></circle><circle class="pearl" r="2.1904339371426507" cx="5.091403540465836" cy="10.295471657698451"></circle><circle class="pearl" r="2.1904339371426507" cx="30.429814282510275" cy="14.066816767120546"></circle><circle class="pearl" r="2.1904339371426507" cx="7.221479639414073" cy="27.532676202928666"></circle></g><g class="bobaCup bright" cupRadius="16.923242266260377" width="33.846484532520755" height="33.846484532520755" pearlRadius="2.7380424214283132" pearlCount="14" transform="translate(303.0767577337396,102.7622236436656)"><circle class="pool" r="16.923242266260377" cx="16.923242266260377" cy="16.923242266260377" style="stroke-width: 1; fill: rgb(29, 145, 192);"></circle><circle class="pearl" r="2.1904339371426507" cx="22.07471461469894" cy="13.267634639935471"></circle><circle class="pearl" r="2.1904339371426507" cx="13.243078352464178" cy="22.71625798804549"></circle><circle class="pearl" r="2.1904339371426507" cx="14.173547681443905" cy="12.061907800705335"></circle><circle class="pearl" r="2.1904339371426507" cx="21.084894389205456" cy="21.192892490986225"></circle><circle class="pearl" r="2.1904339371426507" cx="7.780623183740206" cy="16.915482704376878"></circle><circle class="pearl" r="2.1904339371426507" cx="26.952194700100517" cy="6.960180358705266"></circle><circle class="pearl" r="2.1904339371426507" cx="16.045086669681588" cy="30.17296197717283"></circle><circle class="pearl" r="2.1904339371426507" cx="11.723377794817315" cy="4.469384212439613"></circle><circle class="pearl" r="2.1904339371426507" cx="29.318600832737427" cy="22.300917212663016"></circle><circle class="pearl" r="2.1904339371426507" cx="5.464940261861721" cy="24.546462406858797"></circle><circle class="pearl" r="2.1904339371426507" cx="19.67292495264899" cy="3.8756010861021926"></circle><circle class="pearl" r="2.1904339371426507" cx="24.30545657943128" cy="28.50075073532761"></circle><circle class="pearl" r="2.1904339371426507" cx="5.466965608130304" cy="9.296009266951065"></circle><circle class="pearl" r="2.1904339371426507" cx="29.99720229250246" cy="14.338460103540747"></circle></g><g class="bobaCup bright" cupRadius="16.63609971484566" width="33.27219942969132" height="33.27219942969132" pearlRadius="2.738042421428314" pearlCount="14" transform="translate(268.85356902975224,43.94070092953022)"><circle class="pool" r="16.63609971484566" cx="16.63609971484566" cy="16.63609971484566" style="stroke-width: 1; fill: rgb(65, 182, 196);"></circle><circle class="pearl" r="2.1904339371426516" cx="20.798926131317355" cy="12.440096270482286"></circle><circle class="pearl" r="2.1904339371426516" cx="13.205130234501365" cy="21.809231278093065"></circle><circle class="pearl" r="2.1904339371426516" cx="12.817124519888234" cy="12.389733519497618"></circle><circle class="pearl" r="2.1904339371426516" cx="20.970008938026393" cy="20.39895330399541"></circle><circle class="pearl" r="2.1904339371426516" cx="6.40294551571558" cy="17.66320758517056"></circle><circle class="pearl" r="2.1904339371426516" cx="26.42414881000268" cy="6.834911977569414"></circle><circle class="pearl" r="2.1904339371426516" cx="15.592676174184703" cy="29.588721963529526"></circle><circle class="pearl" r="2.1904339371426516" cx="11.136578088492048" cy="4.58602437762536"></circle><circle class="pearl" r="2.1904339371426516" cx="28.65836631037956" cy="22.214379350700206"></circle><circle class="pearl" r="2.1904339371426516" cx="6.756902495387262" cy="26.316030829904356"></circle><circle class="pearl" r="2.1904339371426516" cx="19.08382701270132" cy="3.831779801643457"></circle><circle class="pearl" r="2.1904339371426516" cx="23.450988526005602" cy="28.16157838970927"></circle><circle class="pearl" r="2.1904339371426516" cx="5.12745490124575" cy="9.783846488038247"></circle><circle class="pearl" r="2.1904339371426516" cx="29.446768353000504" cy="14.231439337083918"></circle></g><g class="bobaCup bright" cupRadius="16.54845110165436" width="33.09690220330872" height="33.09690220330872" pearlRadius="2.7380424214283132" pearlCount="14" transform="translate(152.510590537254,93.30358647016807)"><circle class="pool" r="16.54845110165436" cx="16.54845110165436" cy="16.54845110165436" style="stroke-width: 1; fill: rgb(29, 145, 192);"></circle><circle class="pearl" r="2.1904339371426507" cx="20.513619200954054" cy="12.254896862747387"></circle><circle class="pearl" r="2.1904339371426507" cx="12.914418912479286" cy="21.222971698546857"></circle><circle class="pearl" r="2.1904339371426507" cx="12.554312659918725" cy="12.551174422994746"></circle><circle class="pearl" r="2.1904339371426507" cx="20.77311137355441" cy="20.215452543631162"></circle><circle class="pearl" r="2.1904339371426507" cx="5.709638714548191" cy="17.812604324978327"></circle><circle class="pearl" r="2.1904339371426507" cx="26.271436495114266" cy="6.808327123927751"></circle><circle class="pearl" r="2.1904339371426507" cx="15.17973075449623" cy="29.389478491956968"></circle><circle class="pearl" r="2.1904339371426507" cx="10.994862138775797" cy="4.610432126467029"></circle><circle class="pearl" r="2.1904339371426507" cx="28.424142878320165" cy="22.273979107786225"></circle><circle class="pearl" r="2.1904339371426507" cx="6.838357749433555" cy="26.297926414709544"></circle><circle class="pearl" r="2.1904339371426507" cx="18.9372695403174" cy="3.824047450382685"></circle><circle class="pearl" r="2.1904339371426507" cx="23.06398524663335" cy="28.109534099480534"></circle><circle class="pearl" r="2.1904339371426507" cx="5.061855084640578" cy="9.861688064048543"></circle><circle class="pearl" r="2.1904339371426507" cx="29.281242356187345" cy="14.21785309990359"></circle></g><g class="bobaCup bright" cupRadius="16.278410581921023" width="32.556821163842045" height="32.556821163842045" pearlRadius="2.7380424214283137" pearlCount="13" transform="translate(32.33760073049078,93.47176029878808)"><circle class="pool" r="16.278410581921023" cx="16.278410581921023" cy="16.278410581921023" style="stroke-width: 1; fill: rgb(65, 182, 196);"></circle><circle class="pearl" r="2.190433937142651" cx="21.258129818853515" cy="16.207015138853325"></circle><circle class="pearl" r="2.190433937142651" cx="15.424438899860146" cy="21.539030519572474"></circle><circle class="pearl" r="2.190433937142651" cx="16.090070004611835" cy="10.311959280225185"></circle><circle class="pearl" r="2.190433937142651" cx="23.916964082098836" cy="23.740180628713695"></circle><circle class="pearl" r="2.190433937142651" cx="10.21149030215666" cy="15.722524745956466"></circle><circle class="pearl" r="2.190433937142651" cx="27.575772783395802" cy="9.833149295545676"></circle><circle class="pearl" r="2.190433937142651" cx="9.99972646338775" cy="27.646501448120414"></circle><circle class="pearl" r="2.190433937142651" cx="10.621999216182623" cy="4.665069425959928"></circle><circle class="pearl" r="2.190433937142651" cx="28.845323176492894" cy="17.683735946919686"></circle><circle class="pearl" r="2.190433937142651" cx="4.727942667542323" cy="21.52966740531143"></circle><circle class="pearl" r="2.190433937142651" cx="21.61432776625921" cy="4.550101367731518"></circle><circle class="pearl" r="2.190433937142651" cx="17.99278681855726" cy="28.8155706366225"></circle><circle class="pearl" r="2.190433937142651" cx="4.964889802510809" cy="9.870754821567308"></circle></g><g class="bobaCup bright" cupRadius="16.02844317079439" width="32.05688634158878" height="32.05688634158878" pearlRadius="2.738042421428313" pearlCount="13" transform="translate(25.904230925830362,16.50006829489265)"><circle class="pool" r="16.02844317079439" cx="16.02844317079439" cy="16.02844317079439" style="stroke-width: 1; fill: rgb(29, 145, 192);"></circle><circle class="pearl" r="2.1904339371426502" cx="20.879790169662158" cy="17.126686088140023"></circle><circle class="pearl" r="2.1904339371426502" cx="14.27394470986311" cy="21.14628676026845"></circle><circle class="pearl" r="2.1904339371426502" cx="16.480376757702572" cy="10.753369331698648"></circle><circle class="pearl" r="2.1904339371426502" cx="24.558227431946776" cy="24.686915274839397"></circle><circle class="pearl" r="2.1904339371426502" cx="9.680363488578708" cy="14.752103993387664"></circle><circle class="pearl" r="2.1904339371426502" cx="27.243440392295856" cy="10.035001256528433"></circle><circle class="pearl" r="2.1904339371426502" cx="8.702256261577666" cy="26.63387566003892"></circle><circle class="pearl" r="2.1904339371426502" cx="12.514536214705455" cy="4.040641904281703"></circle><circle class="pearl" r="2.1904339371426502" cx="28.29883624200807" cy="17.88021158183104"></circle><circle class="pearl" r="2.1904339371426502" cx="4.263410070176199" cy="20.4176853922315"></circle><circle class="pearl" r="2.1904339371426502" cx="21.48909664990328" cy="4.609585978514955"></circle><circle class="pearl" r="2.1904339371426502" cx="17.520437871065052" cy="28.3365714765208"></circle><circle class="pearl" r="2.1904339371426502" cx="5.887694048065859" cy="7.861051857607323"></circle></g><g class="bobaCup bright" cupRadius="15.937648172937521" width="31.875296345875043" height="31.875296345875043" pearlRadius="2.738042421428314" pearlCount="13" transform="translate(80.72152898172405,82.92444619715266)"><circle class="pool" r="15.937648172937521" cx="15.937648172937521" cy="15.937648172937521" style="stroke-width: 1; fill: rgb(29, 145, 192);"></circle><circle class="pearl" r="2.1904339371426516" cx="20.687621379725194" cy="17.586569476091906"></circle><circle class="pearl" r="2.1904339371426516" cx="13.769916034225536" cy="20.934075948130662"></circle><circle class="pearl" r="2.1904339371426516" cx="16.788602437094507" cy="10.89998505340681"></circle><circle class="pearl" r="2.1904339371426516" cx="24.51857019632795" cy="25.230533128886044"></circle><circle class="pearl" r="2.1904339371426516" cx="9.640703594038001" cy="14.165479994918652"></circle><circle class="pearl" r="2.1904339371426516" cx="27.242459812140257" cy="10.429417413143572"></circle><circle class="pearl" r="2.1904339371426516" cx="7.954837222073041" cy="26.081248364059658"></circle><circle class="pearl" r="2.1904339371426516" cx="13.429321627917075" cy="3.8493457891053873"></circle><circle class="pearl" r="2.1904339371426516" cx="28.047534628932556" cy="18.30657443922343"></circle><circle class="pearl" r="2.1904339371426516" cx="4.084100966963639" cy="19.629020218239045"></circle><circle class="pearl" r="2.1904339371426516" cx="21.761736824418985" cy="4.7529873261291105"></circle><circle class="pearl" r="2.1904339371426516" cx="17.11153549194462" cy="28.181282995153296"></circle><circle class="pearl" r="2.1904339371426516" cx="6.404277361659805" cy="6.982856515240395"></circle></g><g class="bobaCup bright" cupRadius="15.88409340834373" width="31.76818681668746" height="31.76818681668746" pearlRadius="2.7380424214283132" pearlCount="13" transform="translate(183.36575948708116,52.78547857242539)"><circle class="pool" r="15.88409340834373" cx="15.88409340834373" cy="15.88409340834373" style="stroke-width: 1; fill: rgb(127, 205, 187);"></circle><circle class="pearl" r="2.1904339371426507" cx="20.536099678330718" cy="17.913456543186793"></circle><circle class="pearl" r="2.1904339371426507" cx="13.425341423581685" cy="20.775719137264737"></circle><circle class="pearl" r="2.1904339371426507" cx="17.000125231618505" cy="11.005824122899515"></circle><circle class="pearl" r="2.1904339371426507" cx="24.414164013540432" cy="25.520608738637776"></circle><circle class="pearl" r="2.1904339371426507" cx="9.675441233996215" cy="13.802788867753069"></circle><circle class="pearl" r="2.1904339371426507" cx="27.23730370540452" cy="10.670035280224274"></circle><circle class="pearl" r="2.1904339371426507" cx="7.423370682863759" cy="25.676606187800456"></circle><circle class="pearl" r="2.1904339371426507" cx="13.964530317866336" cy="3.7671376400977623"></circle><circle class="pearl" r="2.1904339371426507" cx="27.88919832540113" cy="18.56727593652473"></circle><circle class="pearl" r="2.1904339371426507" cx="3.97039316658885" cy="19.054762965606837"></circle><circle class="pearl" r="2.1904339371426507" cx="21.931649513969113" cy="4.847015965803366"></circle><circle class="pearl" r="2.1904339371426507" cx="16.856765023059673" cy="28.087654563967178"></circle><circle class="pearl" r="2.1904339371426507" cx="6.693572912641325" cy="6.579556839324387"></circle></g><g class="bobaCup bright" cupRadius="15.77903693679161" width="31.55807387358322" height="31.55807387358322" pearlRadius="2.7380424214283137" pearlCount="12" transform="translate(163.99900888079668,61.306234016257974)"><circle class="pool" r="15.77903693679161" cx="15.77903693679161" cy="15.77903693679161" style="stroke-width: 1; fill: rgb(29, 145, 192);"></circle><circle class="pearl" r="2.190433937142651" cx="17.769807814125667" cy="11.544242202097559"></circle><circle class="pearl" r="2.190433937142651" cx="11.567310455559069" cy="17.897791148180186"></circle><circle class="pearl" r="2.190433937142651" cx="14.271820712313307" cy="4.355912078512023"></circle><circle class="pearl" r="2.190433937142651" cx="19.423709747039805" cy="19.36422189794844"></circle><circle class="pearl" r="2.190433937142651" cx="4.431967975206918" cy="14.293317268295198"></circle><circle class="pearl" r="2.190433937142651" cx="27.376520073912133" cy="11.720686375058945"></circle><circle class="pearl" r="2.190433937142651" cx="11.987188007819727" cy="27.444967662413283"></circle><circle class="pearl" r="2.190433937142651" cx="6.597368368238252" cy="6.59718563996549"></circle><circle class="pearl" r="2.190433937142651" cx="27.408484739296075" cy="19.715327057414505"></circle><circle class="pearl" r="2.190433937142651" cx="5.3758321540082505" cy="22.952955956706795"></circle><circle class="pearl" r="2.190433937142651" cx="22.69048610035388" cy="5.244913422724679"></circle><circle class="pearl" r="2.190433937142651" cx="19.981126372741304" cy="27.337536272997262"></circle></g><g class="bobaCup bright" cupRadius="15.680442169141646" width="31.36088433828329" height="31.36088433828329" pearlRadius="2.738042421428314" pearlCount="12" transform="translate(223.62774221011662,136.17005593793928)"><circle class="pool" r="15.680442169141646" cx="15.680442169141646" cy="15.680442169141646" style="stroke-width: 1; fill: rgb(127, 205, 187);"></circle><circle class="pearl" r="2.1904339371426516" cx="17.45189553251045" cy="11.34899039111519"></circle><circle class="pearl" r="2.1904339371426516" cx="11.356555956283778" cy="17.513766465993385"></circle><circle class="pearl" r="2.1904339371426516" cx="14.16136999350783" cy="4.062788577644137"></circle><circle class="pearl" r="2.1904339371426516" cx="19.180370117905525" cy="19.154216420490023"></circle><circle class="pearl" r="2.1904339371426516" cx="4.0940169741611365" cy="14.171529225494947"></circle><circle class="pearl" r="2.1904339371426516" cx="27.238470893154922" cy="11.863358116549021"></circle><circle class="pearl" r="2.1904339371426516" cx="11.990727924971294" cy="27.26987233271731"></circle><circle class="pearl" r="2.1904339371426516" cx="6.569367892761477" cy="6.569324145366769"></circle><circle class="pearl" r="2.1904339371426516" cx="27.14349545709761" cy="19.85776499940878"></circle><circle class="pearl" r="2.1904339371426516" cx="5.361294464627662" cy="22.802167573335524"></circle><circle class="pearl" r="2.1904339371426516" cx="22.676730330876126" cy="5.298053890360929"></circle><circle class="pearl" r="2.1904339371426516" cx="19.98402395970848" cy="27.108029535318803"></circle></g><g class="bobaCup bright" cupRadius="15.637511718529847" width="31.275023437059694" height="31.275023437059694" pearlRadius="2.7380424214283132" pearlCount="12" transform="translate(261.49988106803653,82.43331123270971)"><circle class="pool" r="15.637511718529847" cx="15.637511718529847" cy="15.637511718529847" style="stroke-width: 1; fill: rgb(127, 205, 187);"></circle><circle class="pearl" r="2.1904339371426507" cx="17.322198112111472" cy="11.26436479913759"></circle><circle class="pearl" r="2.1904339371426507" cx="11.267995225269491" cy="17.358622634454264"></circle><circle class="pearl" r="2.1904339371426507" cx="14.112497706006938" cy="3.942069102070501"></circle><circle class="pearl" r="2.1904339371426507" cx="19.07840837154135" cy="19.0637002264682"></circle><circle class="pearl" r="2.1904339371426507" cx="3.9592285573299866" cy="14.11837545369468"></circle><circle class="pearl" r="2.1904339371426507" cx="27.176937966586753" cy="11.92387042932909"></circle><circle class="pearl" r="2.1904339371426507" cx="11.998248636486469" cy="27.194928973490416"></circle><circle class="pearl" r="2.1904339371426507" cx="6.557201694253327" cy="6.557180685564629"></circle><circle class="pearl" r="2.1904339371426507" cx="27.027185841692553" cy="19.91749071954346"></circle><circle class="pearl" r="2.1904339371426507" cx="5.35810005496561" cy="22.742658770778124"></circle><circle class="pearl" r="2.1904339371426507" cx="22.669382786795204" cy="5.3209674252679315"></circle><circle class="pearl" r="2.1904339371426507" cx="19.991010012722537" cy="27.006070275371126"></circle></g><g class="bobaCup bright" cupRadius="15.237004252530866" width="30.474008505061732" height="30.474008505061732" pearlRadius="2.7380424214283137" pearlCount="12" transform="translate(246.81408295657673,149.29973380524092)"><circle class="pool" r="15.237004252530866" cx="15.237004252530866" cy="15.237004252530866" style="stroke-width: 1; fill: rgb(65, 182, 196);"></circle><circle class="pearl" r="2.190433937142651" cx="16.966115540348408" cy="10.736912379091367"></circle><circle class="pearl" r="2.190433937142651" cx="10.841711793186924" cy="16.63192370763782"></circle><circle class="pearl" r="2.190433937142651" cx="13.848190869402195" cy="3.7141486027197512"></circle><circle class="pearl" r="2.190433937142651" cx="18.324693539056863" cy="18.37070532525083"></circle><circle class="pearl" r="2.190433937142651" cx="3.7167611889303735" cy="13.819936733519349"></circle><circle class="pearl" r="2.190433937142651" cx="26.665083303850576" cy="13.047022427125924"></circle><circle class="pearl" r="2.190433937142651" cx="12.267118462019486" cy="26.53104856925677"></circle><circle class="pearl" r="2.190433937142651" cx="6.472981596295185" cy="6.423450307008325"></circle><circle class="pearl" r="2.190433937142651" cx="25.723823873620333" cy="20.919977133484593"></circle><circle class="pearl" r="2.190433937142651" cx="5.4895092359104485" cy="22.493315053885865"></circle><circle class="pearl" r="2.190433937142651" cx="23.264782092650226" cy="5.937010066945611"></circle><circle class="pearl" r="2.190433937142651" cx="20.161582546066096" cy="26.005532988693783"></circle></g><g class="bobaCup bright" cupRadius="14.979667402469165" width="29.95933480493833" height="29.95933480493833" pearlRadius="2.7380424214283132" pearlCount="11" transform="translate(209.8815618492437,90.70498951260375)"><circle class="pool" r="14.979667402469165" cx="14.979667402469165" cy="14.979667402469165" style="stroke-width: 1; fill: rgb(29, 145, 192);"></circle><circle class="pearl" r="2.1904339371426507" cx="19.088041159173397" cy="15.028375209830196"></circle><circle class="pearl" r="2.1904339371426507" cx="11.394778370282554" cy="16.99796834061419"></circle><circle class="pearl" r="2.1904339371426507" cx="13.76618249243519" cy="9.18394508480343"></circle><circle class="pearl" r="2.1904339371426507" cx="20.644820271150962" cy="25.19604475271641"></circle><circle class="pearl" r="2.1904339371426507" cx="3.9814614317416304" cy="13.969916188619079"></circle><circle class="pearl" r="2.1904339371426507" cx="25.61108591371644" cy="10.461829112718691"></circle><circle class="pearl" r="2.1904339371426507" cx="12.765741896303512" cy="26.144104292565256"></circle><circle class="pearl" r="2.1904339371426507" cx="6.393039467535501" cy="6.356016667549722"></circle><circle class="pearl" r="2.1904339371426507" cx="25.69930528020496" cy="19.2085156100713"></circle><circle class="pearl" r="2.1904339371426507" cx="5.712873818987929" cy="22.564401735255185"></circle><circle class="pearl" r="2.1904339371426507" cx="20.24904017116438" cy="4.608117416146359"></circle></g><g class="bobaCup bright" cupRadius="14.910509320737651" width="29.821018641475302" height="29.821018641475302" pearlRadius="2.7380424214283132" pearlCount="11" transform="translate(13.51882918491979,146.02177371261692)"><circle class="pool" r="14.910509320737651" cx="14.910509320737651" cy="14.910509320737651" style="stroke-width: 1; fill: rgb(127, 205, 187);"></circle><circle class="pearl" r="2.1904339371426507" cx="18.88277471239367" cy="15.05443728221984"></circle><circle class="pearl" r="2.1904339371426507" cx="11.13816030191037" cy="16.641314255407075"></circle><circle class="pearl" r="2.1904339371426507" cx="13.807559659383893" cy="8.995736364598075"></circle><circle class="pearl" r="2.1904339371426507" cx="20.617828672004116" cy="25.03475592975473"></circle><circle class="pearl" r="2.1904339371426507" cx="3.6905805629573605" cy="13.821015078151524"></circle><circle class="pearl" r="2.1904339371426507" cx="25.592498763115255" cy="10.799957569958789"></circle><circle class="pearl" r="2.1904339371426507" cx="12.748164227230648" cy="26.012668925714404"></circle><circle class="pearl" r="2.1904339371426507" cx="6.382687858495978" cy="6.3301430920308315"></circle><circle class="pearl" r="2.1904339371426507" cx="25.595749018471228" cy="19.009711094183626"></circle><circle class="pearl" r="2.1904339371426507" cx="5.698195867608674" cy="22.45143602300993"></circle><circle class="pearl" r="2.1904339371426507" cx="20.492713231846107" cy="4.735087472006463"></circle></g><g class="bobaCup bright" cupRadius="14.789073638414244" width="29.57814727682849" height="29.57814727682849" pearlRadius="2.7380424214283137" pearlCount="11" transform="translate(135.4959210661471,257.05438840232034)"><circle class="pool" r="14.789073638414244" cx="14.789073638414244" cy="14.789073638414244" style="stroke-width: 1; fill: rgb(127, 205, 187);"></circle><circle class="pearl" r="2.190433937142651" cx="18.720737068835067" cy="14.984514765221256"></circle><circle class="pearl" r="2.190433937142651" cx="11.071992730864476" cy="16.61006364190783"></circle><circle class="pearl" r="2.190433937142651" cx="13.733313514456645" cy="8.915636482767628"></circle><circle class="pearl" r="2.190433937142651" cx="20.716576373920766" cy="24.687572173583018"></circle><circle class="pearl" r="2.190433937142651" cx="3.6887547431008763" cy="13.729141875598561"></circle><circle class="pearl" r="2.190433937142651" cx="25.366945559710583" cy="10.75623603399619"></circle><circle class="pearl" r="2.190433937142651" cx="12.951868194719705" cy="25.81286489040088"></circle><circle class="pearl" r="2.190433937142651" cx="6.3733743795490465" cy="6.278682400507559"></circle><circle class="pearl" r="2.190433937142651" cx="25.40112994214112" cy="18.699293465419043"></circle><circle class="pearl" r="2.190433937142651" cx="5.869242354440946" cy="22.579956664720644"></circle><circle class="pearl" r="2.190433937142651" cx="20.402266128503406" cy="4.757371308932921"></circle></g><g class="bobaCup bright" cupRadius="14.735901215636515" width="29.47180243127303" height="29.47180243127303" pearlRadius="2.738042421428313" pearlCount="11" transform="translate(213.29531800784832,8.446230564524045)"><circle class="pool" r="14.735901215636515" cx="14.735901215636515" cy="14.735901215636515" style="stroke-width: 1; fill: rgb(127, 205, 187);"></circle><circle class="pearl" r="2.1904339371426502" cx="18.668712767869017" cy="14.968365660889658"></circle><circle class="pearl" r="2.1904339371426502" cx="11.048313874347507" cy="16.592539554452376"></circle><circle class="pearl" r="2.1904339371426502" cx="13.662099526979121" cy="8.962696416444631"></circle><circle class="pearl" r="2.1904339371426502" cx="20.756343392949823" cy="24.53512447865508"></circle><circle class="pearl" r="2.1904339371426502" cx="3.6879582362035035" cy="13.689002776113263"></circle><circle class="pearl" r="2.1904339371426502" cx="25.239656216469346" cy="10.63742214525829"></circle><circle class="pearl" r="2.1904339371426502" cx="13.035293121262066" cy="25.722620275469023"></circle><circle class="pearl" r="2.1904339371426502" cx="6.371568023653632" cy="6.254653669000005"></circle><circle class="pearl" r="2.1904339371426502" cx="25.31430124380989" cy="18.567198121564275"></circle><circle class="pearl" r="2.1904339371426502" cx="5.93937107488458" cy="22.623401972966082"></circle><circle class="pearl" r="2.1904339371426502" cx="20.241078789267927" cy="4.717688694860341"></circle></g><g class="bobaCup bright" cupRadius="14.73041248477347" width="29.46082496954694" height="29.46082496954694" pearlRadius="2.738042421428314" pearlCount="11" transform="translate(46.289652766925485,212.3557355787796)"><circle class="pool" r="14.73041248477347" cx="14.73041248477347" cy="14.73041248477347" style="stroke-width: 1; fill: rgb(29, 145, 192);"></circle><circle class="pearl" r="2.1904339371426516" cx="18.663399688735023" cy="14.96702865291967"></circle><circle class="pearl" r="2.1904339371426516" cx="11.045754262896383" cy="16.590822841718147"></circle><circle class="pearl" r="2.1904339371426516" cx="13.654466653183986" cy="8.968388578592645"></circle><circle class="pearl" r="2.1904339371426516" cx="20.761017718544334" cy="24.519066194363827"></circle><circle class="pearl" r="2.1904339371426516" cx="3.6878861568664605" cy="13.684721592288327"></circle><circle class="pearl" r="2.1904339371426516" cx="25.22632178709816" cy="10.624582482524056"></circle><circle class="pearl" r="2.1904339371426516" cx="13.044502751498078" cy="25.713306729090537"></circle><circle class="pearl" r="2.1904339371426516" cx="6.371433483488008" cy="6.252140617804331"></circle><circle class="pearl" r="2.1904339371426516" cx="25.305483182368935" cy="18.552956028255103"></circle><circle class="pearl" r="2.1904339371426516" cx="5.9470309868432985" cy="22.628392708980748"></circle><circle class="pearl" r="2.1904339371426516" cx="20.223434200453255" cy="4.7132256901317735"></circle></g><g class="bobaCup bright" cupRadius="14.136731429707638" width="28.273462859415275" height="28.273462859415275" pearlRadius="2.7380424214283137" pearlCount="10" transform="translate(136.03574759599326,209.04102835467665)"><circle class="pool" r="14.136731429707638" cx="14.136731429707638" cy="14.136731429707638" style="stroke-width: 1; fill: rgb(65, 182, 196);"></circle><circle class="pearl" r="2.190433937142651" cx="17.493817140766186" cy="12.058908759673644"></circle><circle class="pearl" r="2.190433937142651" cx="11.101750958726482" cy="16.176645862098557"></circle><circle class="pearl" r="2.190433937142651" cx="14.304800978153503" cy="4.660117927705908"></circle><circle class="pearl" r="2.190433937142651" cx="21.452553861283615" cy="22.58253322551167"></circle><circle class="pearl" r="2.190433937142651" cx="3.672292406710529" cy="13.356109800755378"></circle><circle class="pearl" r="2.190433937142651" cx="21.996794047089935" cy="6.037280567376364"></circle><circle class="pearl" r="2.190433937142651" cx="13.744998495264198" cy="24.617311071847237"></circle><circle class="pearl" r="2.190433937142651" cx="6.427385931126655" cy="5.9378484412269135"></circle><circle class="pearl" r="2.190433937142651" cx="24.571735699502057" cy="15.336504890605001"></circle><circle class="pearl" r="2.190433937142651" cx="6.269518870720145" cy="22.231396320198147"></circle></g><g class="bobaCup bright" cupRadius="13.322508368105437" width="26.645016736210874" height="26.645016736210874" pearlRadius="2.7380424214283137" pearlCount="9" transform="translate(212.6858949532221,157.01429005764703)"><circle class="pool" r="13.322508368105437" cx="13.322508368105437" cy="13.322508368105437" style="stroke-width: 1; fill: rgb(29, 145, 192);"></circle><circle class="pearl" r="2.190433937142651" cx="15.372353441041685" cy="11.268665056079342"></circle><circle class="pearl" r="2.190433937142651" cx="9.937911573880271" cy="16.698865392613353"></circle><circle class="pearl" r="2.190433937142651" cx="13.393244619207406" cy="3.6509110180003184"></circle><circle class="pearl" r="2.190433937142651" cx="20.716063413924683" cy="20.75440996412713"></circle><circle class="pearl" r="2.190433937142651" cx="3.652027067158727" cy="13.1361240849859"></circle><circle class="pearl" r="2.190433937142651" cx="20.604651738115695" cy="5.817084539701385"></circle><circle class="pearl" r="2.190433937142651" cx="13.484106042207134" cy="22.993313408091392"></circle><circle class="pearl" r="2.190433937142651" cx="6.018657288531056" cy="5.831284342015893"></circle><circle class="pearl" r="2.190433937142651" cx="22.99421358365164" cy="13.276361108013106"></circle></g><g class="bobaCup bright" cupRadius="13.001467388666093" width="26.002934777332186" height="26.002934777332186" pearlRadius="2.7380424214283137" pearlCount="8" transform="translate(46.41710858840856,29.92926882618839)"><circle class="pool" r="13.001467388666093" cx="13.001467388666093" cy="13.001467388666093" style="stroke-width: 1; fill: rgb(127, 205, 187);"></circle><circle class="pearl" r="2.190433937142651" cx="19.546420528268918" cy="12.996327084357452"></circle><circle class="pearl" r="2.190433937142651" cx="11.723371623320316" cy="14.342853098903422"></circle><circle class="pearl" r="2.190433937142651" cx="12.216407953302243" cy="3.674446747769954"></circle><circle class="pearl" r="2.190433937142651" cx="19.959168091639537" cy="20.33384732752409"></circle><circle class="pearl" r="2.190433937142651" cx="3.803970187313677" cy="14.991790488729066"></circle><circle class="pearl" r="2.190433937142651" cx="19.959554801293553" cy="5.669332436563842"></circle><circle class="pearl" r="2.190433937142651" cx="12.139281584674478" cy="22.323592339964502"></circle><circle class="pearl" r="2.190433937142651" cx="5.067679443596134" cy="7.099158084136747"></circle></g><g class="bobaCup bright" cupRadius="12.817612337967304" width="25.63522467593461" height="25.63522467593461" pearlRadius="2.7380424214283132" pearlCount="8" transform="translate(230.1258782399778,222.43687537957135)"><circle class="pool" r="12.817612337967304" cx="12.817612337967304" cy="12.817612337967304" style="stroke-width: 1; fill: rgb(127, 205, 187);"></circle><circle class="pearl" r="2.1904339371426507" cx="14.421093200165831" cy="12.810387057249375"></circle><circle class="pearl" r="2.1904339371426507" cx="7.547525674770151" cy="19.15822040788255"></circle><circle class="pearl" r="2.1904339371426507" cx="15.064181729825762" cy="3.849139395071032"></circle><circle class="pearl" r="2.1904339371426507" cx="21.351197108579107" cy="16.796786200398994"></circle><circle class="pearl" r="2.1904339371426507" cx="3.6671576852198084" cy="12.168743401084347"></circle><circle class="pearl" r="2.1904339371426507" cx="21.339204588028537" cy="8.801902944216334"></circle><circle class="pearl" r="2.1904339371426507" cx="15.099976376054837" cy="21.77966043230763"></circle><circle class="pearl" r="2.1904339371426507" cx="7.1488348637376795" cy="4.972416812733695"></circle></g><g class="bobaCup bright" cupRadius="12.739195403810227" width="25.478390807620453" height="25.478390807620453" pearlRadius="2.7380424214283132" pearlCount="8" transform="translate(148.20223496712626,265.03728492339275)"><circle class="pool" r="12.739195403810227" cx="12.739195403810227" cy="12.739195403810227" style="stroke-width: 1; fill: rgb(29, 145, 192);"></circle><circle class="pearl" r="2.1904339371426507" cx="14.258596288267317" cy="12.85839105336235"></circle><circle class="pearl" r="2.1904339371426507" cx="6.965387174013125" cy="19.350375826310202"></circle><circle class="pearl" r="2.1904339371426507" cx="15.149147253719587" cy="3.880752728230145"></circle><circle class="pearl" r="2.1904339371426507" cx="21.09009252154372" cy="17.01098760376888"></circle><circle class="pearl" r="2.1904339371426507" cx="3.668403318538597" cy="12.068264963209321"></circle><circle class="pearl" r="2.1904339371426507" cx="21.272173128815144" cy="9.018371488292203"></circle><circle class="pearl" r="2.1904339371426507" cx="14.609295396427555" cy="21.68965567339011"></circle><circle class="pearl" r="2.1904339371426507" cx="7.221265875537088" cy="4.907778010638736"></circle></g><g class="bobaCup bright" cupRadius="12.436036414116638" width="24.872072828233275" height="24.872072828233275" pearlRadius="2.7380424214283137" pearlCount="8" transform="translate(61.386817135975754,250.94595347510614)"><circle class="pool" r="12.436036414116638" cx="12.436036414116638" cy="12.436036414116638" style="stroke-width: 1; fill: rgb(29, 145, 192);"></circle><circle class="pearl" r="2.190433937142651" cx="13.60324627106428" cy="12.744148866771503"></circle><circle class="pearl" r="2.190433937142651" cx="5.707713894618344" cy="19.244026192739465"></circle><circle class="pearl" r="2.190433937142651" cx="15.2239027499975" cy="3.9672380767802125"></circle><circle class="pearl" r="2.190433937142651" cx="20.193738321723696" cy="17.386070515560156"></circle><circle class="pearl" r="2.190433937142651" cx="3.6723569231936857" cy="11.702819657997379"></circle><circle class="pearl" r="2.190433937142651" cx="20.856638191399593" cy="9.446368490035779"></circle><circle class="pearl" r="2.190433937142651" cx="13.314947122762515" cy="21.190252430034523"></circle><circle class="pearl" r="2.190433937142651" cx="7.335153695284907" cy="4.744978601688967"></circle></g><g class="bobaCup bright" cupRadius="11.842075100863482" width="23.684150201726965" height="23.684150201726965" pearlRadius="2.7380424214283137" pearlCount="7" transform="translate(68.7380852006054,238.43336324091666)"><circle class="pool" r="11.842075100863482" cx="11.842075100863482" cy="11.842075100863482" style="stroke-width: 1; fill: rgb(65, 182, 196);"></circle><circle class="pearl" r="2.190433937142651" cx="12.80335982900743" cy="12.196880858979993"></circle><circle class="pearl" r="2.190433937142651" cx="4.375884825450221" cy="14.900670745641918"></circle><circle class="pearl" r="2.190433937142651" cx="12.024890364922578" cy="3.652134442907011"></circle><circle class="pearl" r="2.190433937142651" cx="18.311205814358868" cy="17.99214005058008"></circle><circle class="pearl" r="2.190433937142651" cx="4.725195763905626" cy="6.9132336867677315"></circle><circle class="pearl" r="2.190433937142651" cx="19.132849281216235" cy="7.312353570238912"></circle><circle class="pearl" r="2.190433937142651" cx="10.563148799894233" cy="19.964163355161727"></circle></g><g class="bobaCup bright" cupRadius="11.829640369209917" width="23.659280738419834" height="23.659280738419834" pearlRadius="2.7380424214283137" pearlCount="7" transform="translate(77.68663533882584,262.6155719685992)"><circle class="pool" r="11.829640369209917" cx="11.829640369209917" cy="11.829640369209917" style="stroke-width: 1; fill: rgb(65, 182, 196);"></circle><circle class="pearl" r="2.190433937142651" cx="12.769603652913228" cy="12.186058292189808"></circle><circle class="pearl" r="2.190433937142651" cx="4.331847711790139" cy="14.90353508513515"></circle><circle class="pearl" r="2.190433937142651" cx="12.01632448707212" cy="3.652196355770135"></circle><circle class="pearl" r="2.190433937142651" cx="18.29108559907446" cy="17.9684057445163"></circle><circle class="pearl" r="2.190433937142651" cx="4.718650861973634" cy="6.917824996376524"></circle><circle class="pearl" r="2.190433937142651" cx="19.117528462746435" cy="7.325511862084451"></circle><circle class="pearl" r="2.190433937142651" cx="10.542492572942418" cy="19.938323665434403"></circle></g><g class="bobaCup bright" cupRadius="11.649508495406725" width="23.29901699081345" height="23.29901699081345" pearlRadius="2.7380424214283137" pearlCount="7" transform="translate(58.73717466069371,282.4702519967169)"><circle class="pool" r="11.649508495406725" cx="11.649508495406725" cy="11.649508495406725" style="stroke-width: 1; fill: rgb(65, 182, 196);"></circle><circle class="pearl" r="2.190433937142651" cx="12.067018178334667" cy="11.760266731292573"></circle><circle class="pearl" r="2.190433937142651" cx="4.067476757522005" cy="14.737592698940677"></circle><circle class="pearl" r="2.190433937142651" cx="12.084088508714508" cy="3.6588319629273"></circle><circle class="pearl" r="2.190433937142651" cx="18.119140283053138" cy="17.41921061339122"></circle><circle class="pearl" r="2.190433937142651" cx="4.721828834443054" cy="6.770119139018347"></circle><circle class="pearl" r="2.190433937142651" cx="18.966469230166744" cy="7.722555902741114"></circle><circle class="pearl" r="2.190433937142651" cx="10.423650190394868" cy="19.583616711469908"></circle></g><g class="bobaCup bright" cupRadius="11.640255040282108" width="23.280510080564216" height="23.280510080564216" pearlRadius="2.738042421428314" pearlCount="7" transform="translate(117.12389993624393,230.29787366940198)"><circle class="pool" r="11.640255040282108" cx="11.640255040282108" cy="11.640255040282108" style="stroke-width: 1; fill: rgb(29, 145, 192);"></circle><circle class="pearl" r="2.1904339371426516" cx="12.03009806396924" cy="11.734994497614483"></circle><circle class="pearl" r="2.1904339371426516" cx="4.065952296854201" cy="14.721542000427355"></circle><circle class="pearl" r="2.1904339371426516" cx="12.094984100596285" cy="3.6596086640079055"></circle><circle class="pearl" r="2.1904339371426516" cx="18.11397482784231" cy="17.384050911996518"></circle><circle class="pearl" r="2.1904339371426516" cx="4.725714722295734" cy="6.754485541564721"></circle><circle class="pearl" r="2.1904339371426516" cx="18.960917317830944" cy="7.751265778415373"></circle><circle class="pearl" r="2.1904339371426516" cx="10.423411940223751" cy="19.566009266993067"></circle></g><g class="bobaCup bright" cupRadius="11.567691575286112" width="23.135383150572224" height="23.135383150572224" pearlRadius="2.7380424214283137" pearlCount="7" transform="translate(88.51658516178921,252.26116613263588)"><circle class="pool" r="11.567691575286112" cx="11.567691575286112" cy="11.567691575286112" style="stroke-width: 1; fill: rgb(127, 205, 187);"></circle><circle class="pearl" r="2.190433937142651" cx="11.807979316193054" cy="11.607394713628038"></circle><circle class="pearl" r="2.190433937142651" cx="4.0489061398309865" cy="14.57660576236236"></circle><circle class="pearl" r="2.190433937142651" cx="12.173554592514094" cy="3.666600297672435"></circle><circle class="pearl" r="2.190433937142651" cx="18.045458943764178" cy="17.155639911342224"></circle><circle class="pearl" r="2.190433937142651" cx="4.763855742372632" cy="6.616562086888917"></circle><circle class="pearl" r="2.190433937142651" cx="18.89952759949915" cy="7.935215747420068"></circle><circle class="pearl" r="2.190433937142651" cx="10.373991484370972" cy="19.422904574327905"></circle></g><g class="bobaCup bright" cupRadius="11.422849786714044" width="22.84569957342809" height="22.84569957342809" pearlRadius="2.738042421428313" pearlCount="7" transform="translate(44.94569848858173,192.2296884105542)"><circle class="pool" r="11.422849786714044" cx="11.422849786714044" cy="11.422849786714044" style="stroke-width: 1; fill: rgb(65, 182, 196);"></circle><circle class="pearl" r="2.1904339371426502" cx="11.457352790426372" cy="11.438618545418452"></circle><circle class="pearl" r="2.1904339371426502" cx="3.9966709944843264" cy="14.2127850675785"></circle><circle class="pearl" r="2.1904339371426502" cx="12.37234622326062" cy="3.690253913774424"></circle><circle class="pearl" r="2.1904339371426502" cx="17.870122089483036" cy="16.762511152275437"></circle><circle class="pearl" r="2.1904339371426502" cx="4.874667670879724" cy="6.278549345867691"></circle><circle class="pearl" r="2.1904339371426502" cx="18.75841156002554" cy="8.29506477056556"></circle><circle class="pearl" r="2.1904339371426502" cx="10.148901928609996" cy="19.123714733577497"></circle></g><g class="bobaCup bright" cupRadius="11.305129863255063" width="22.610259726510126" height="22.610259726510126" pearlRadius="2.7380424214283137" pearlCount="6" transform="translate(142.42387023244314,236.88251466456714)"><circle class="pool" r="11.305129863255063" cx="11.305129863255063" cy="11.305129863255063" style="stroke-width: 1; fill: rgb(29, 145, 192);"></circle><circle class="pearl" r="2.190433937142651" cx="11.806108913015743" cy="11.422488348978336"></circle><circle class="pearl" r="2.190433937142651" cx="6.298729537637603" cy="17.217559432641945"></circle><circle class="pearl" r="2.190433937142651" cx="9.324313361491717" cy="3.8256092844604055"></circle><circle class="pearl" r="2.190433937142651" cx="17.261900948169096" cy="17.262884113816327"></circle><circle class="pearl" r="2.190433937142651" cx="3.782280562539613" cy="9.585467641237388"></circle><circle class="pearl" r="2.190433937142651" cx="17.261345083905194" cy="5.347031027163011"></circle></g><g class="bobaCup bright" cupRadius="11.103998100441641" width="22.207996200883283" height="22.207996200883283" pearlRadius="2.7380424214283132" pearlCount="6" transform="translate(83.56424444077108,27.280145985315066)"><circle class="pool" r="11.103998100441641" cx="11.103998100441641" cy="11.103998100441641" style="stroke-width: 1; fill: rgb(127, 205, 187);"></circle><circle class="pearl" r="2.1904339371426507" cx="11.502727582956206" cy="11.264643182095282"></circle><circle class="pearl" r="2.1904339371426507" cx="6.311539631555827" cy="17.46981697174795"></circle><circle class="pearl" r="2.1904339371426507" cx="8.71824422092685" cy="3.9100474177790785"></circle><circle class="pearl" r="2.1904339371426507" cx="16.878137964679954" cy="16.93789835637565"></circle><circle class="pearl" r="2.1904339371426507" cx="3.7093451091935323" cy="9.964507873513712"></circle><circle class="pearl" r="2.1904339371426507" cx="16.91642753220812" cy="5.294736913185759"></circle></g><g class="bobaCup bright" cupRadius="11.0040651439839" width="22.0081302879678" height="22.0081302879678" pearlRadius="2.7380424214283132" pearlCount="6" transform="translate(37.92423882701842,80.91952794242405)"><circle class="pool" r="11.0040651439839" cx="11.0040651439839" cy="11.0040651439839" style="stroke-width: 1; fill: rgb(29, 145, 192);"></circle><circle class="pearl" r="2.1904339371426507" cx="11.419220283372484" cy="11.17340338433931"></circle><circle class="pearl" r="2.1904339371426507" cx="6.376436288192061" cy="17.33705369340822"></circle><circle class="pearl" r="2.1904339371426507" cx="8.603474111754922" cy="3.9157654938651723"></circle><circle class="pearl" r="2.1904339371426507" cx="16.679342993873274" cy="16.780996502827247"></circle><circle class="pearl" r="2.1904339371426507" cx="3.7035003359346677" cy="9.927617266928014"></circle><circle class="pearl" r="2.1904339371426507" cx="16.73338499473051" cy="5.2598778492513025"></circle></g><g class="bobaCup bright" cupRadius="10.943074370016255" width="21.88614874003251" height="21.88614874003251" pearlRadius="2.7380424214283137" pearlCount="6" transform="translate(36.57680106871669,91.05348850139899)"><circle class="pool" r="10.943074370016255" cx="10.943074370016255" cy="10.943074370016255" style="stroke-width: 1; fill: rgb(127, 205, 187);"></circle><circle class="pearl" r="2.190433937142651" cx="11.329132017193437" cy="11.166073583804215"></circle><circle class="pearl" r="2.190433937142651" cx="5.981367938882285" cy="17.04593232780695"></circle><circle class="pearl" r="2.190433937142651" cx="8.874643414453933" cy="3.8479858540154943"></circle><circle class="pearl" r="2.190433937142651" cx="16.556762061717553" cy="16.68582691816105"></circle><circle class="pearl" r="2.190433937142651" cx="3.7411245446632737" cy="9.539377731729639"></circle><circle class="pearl" r="2.190433937142651" cx="16.629788090986825" cy="5.244350356988951"></circle></g><g class="bobaCup bright" cupRadius="10.434615984691968" width="20.869231969383936" height="20.869231969383936" pearlRadius="2.738042421428314" pearlCount="5" transform="translate(9.565384015308032,247.36649507453222)"><circle class="pool" r="10.434615984691968" cx="10.434615984691968" cy="10.434615984691968" style="stroke-width: 1; fill: rgb(65, 182, 196);"></circle><circle class="pearl" r="2.1904339371426516" cx="16.572675185403956" cy="8.075003739038245"></circle><circle class="pearl" r="2.1904339371426516" cx="7.372710308431837" cy="15.944542512339162"></circle><circle class="pearl" r="2.1904339371426516" cx="9.904376086539012" cy="3.6642041312100493"></circle><circle class="pearl" r="2.1904339371426516" cx="15.367720932150187" cy="15.978765584243757"></circle><circle class="pearl" r="2.1904339371426516" cx="3.7791437237779406" cy="8.802578828097227"></circle></g><g class="bobaCup bright" cupRadius="10.244559615161343" width="20.489119230322686" height="20.489119230322686" pearlRadius="2.7380424214283132" pearlCount="5" transform="translate(135.51588339055155,223.82004335094996)"><circle class="pool" r="10.244559615161343" cx="10.244559615161343" cy="10.244559615161343" style="stroke-width: 1; fill: rgb(127, 205, 187);"></circle><circle class="pearl" r="2.1904339371426507" cx="16.526011782904792" cy="7.734003181730907"></circle><circle class="pearl" r="2.1904339371426507" cx="7.152260462097165" cy="16.259676184015216"></circle><circle class="pearl" r="2.1904339371426507" cx="9.64360531707168" cy="3.668364654942498"></circle><circle class="pearl" r="2.1904339371426507" cx="15.12038627034437" cy="15.60368189787409"></circle><circle class="pearl" r="2.1904339371426507" cx="3.721979486731434" cy="9.038367045532825"></circle></g><g class="bobaCup bright" cupRadius="9.741009613044001" width="19.482019226088003" height="19.482019226088003" pearlRadius="2.7380424214283137" pearlCount="5" transform="translate(98.64297488367858,141.49815372934472)"><circle class="pool" r="9.741009613044001" cx="9.741009613044001" cy="9.741009613044001" style="stroke-width: 1; fill: rgb(29, 145, 192);"></circle><circle class="pearl" r="2.190433937142651" cx="15.426618530445662" cy="6.96249016170096"></circle><circle class="pearl" r="2.190433937142651" cx="6.766861948173909" cy="15.36615367270874"></circle><circle class="pearl" r="2.190433937142651" cx="8.930866960700023" cy="3.6844707577796694"></circle><circle class="pearl" r="2.190433937142651" cx="14.490570186989924" cy="14.594928801167114"></circle><circle class="pearl" r="2.190433937142651" cx="3.7036982557094937" cy="8.726487980099337"></circle></g><g class="bobaCup bright" cupRadius="9.657726298295747" width="19.315452596591495" height="19.315452596591495" pearlRadius="2.7380424214283132" pearlCount="5" transform="translate(59.60301387783648,10.342273701704253)"><circle class="pool" r="9.657726298295747" cx="9.657726298295747" cy="9.657726298295747" style="stroke-width: 1; fill: rgb(127, 205, 187);"></circle><circle class="pearl" r="2.1904339371426507" cx="15.257393887449378" cy="6.882488115337839"></circle><circle class="pearl" r="2.1904339371426507" cx="6.637992027504083" cy="15.180491075199985"></circle><circle class="pearl" r="2.1904339371426507" cx="8.870775376038143" cy="3.682838611254712"></circle><circle class="pearl" r="2.1904339371426507" cx="14.333476022024737" cy="14.457390148068566"></circle><circle class="pearl" r="2.1904339371426507" cx="3.7081266789761473" cy="8.606308936321257"></circle></g><g class="bobaCup bright" cupRadius="9.242862267179198" width="18.485724534358397" height="18.485724534358397" pearlRadius="2.7380424214283132" pearlCount="4" transform="translate(205.07725818663187,262.35931919173225)"><circle class="pool" r="9.242862267179198" cx="9.242862267179198" cy="9.242862267179198" style="stroke-width: 1; fill: rgb(65, 182, 196);"></circle><circle class="pearl" r="2.1904339371426507" cx="14.292027256526548" cy="6.121572808354693"></circle><circle class="pearl" r="2.1904339371426507" cx="5.289843782165943" cy="12.060987649564876"></circle><circle class="pearl" r="2.1904339371426507" cx="6.571259864709062" cy="4.04524986167984"></circle><circle class="pearl" r="2.1904339371426507" cx="13.041643078148223" cy="14.018275000023554"></circle></g><g class="bobaCup bright" cupRadius="9.020513350107818" width="18.041026700215635" height="18.041026700215635" pearlRadius="2.7380424214283132" pearlCount="4" transform="translate(103.38881571145139,287.76006900108047)"><circle class="pool" r="9.020513350107818" cx="9.020513350107818" cy="9.020513350107818" style="stroke-width: 1; fill: rgb(127, 205, 187);"></circle><circle class="pearl" r="2.1904339371426507" cx="13.732823027370724" cy="5.639782406153349"></circle><circle class="pearl" r="2.1904339371426507" cx="4.897422192261721" cy="12.157131767271535"></circle><circle class="pearl" r="2.1904339371426507" cx="5.864673417659705" cy="4.220772957063857"></circle><circle class="pearl" r="2.1904339371426507" cx="12.765571801975648" cy="13.576141216363634"></circle></g><g class="bobaCup bright" cupRadius="8.737482043589853" width="17.474964087179707" height="17.474964087179707" pearlRadius="2.7380424214283137" pearlCount="4" transform="translate(31.338996624075758,157.574500111908)"><circle class="pool" r="8.737482043589853" cx="8.737482043589853" cy="8.737482043589853" style="stroke-width: 1; fill: rgb(29, 145, 192);"></circle><circle class="pearl" r="2.190433937142651" cx="12.990766590489688" cy="5.013203113736405"></circle><circle class="pearl" r="2.190433937142651" cx="4.484197496690017" cy="12.461760973443303"></circle><circle class="pearl" r="2.190433937142651" cx="5.013203113736404" cy="4.484197496690017"></circle><circle class="pearl" r="2.190433937142651" cx="12.461760973443303" cy="12.990766590489688"></circle></g><g class="bobaCup bright" cupRadius="8.727400574976695" width="17.45480114995339" height="17.45480114995339" pearlRadius="2.738042421428314" pearlCount="4" transform="translate(32.87848551724488,152.63741960139583)"><circle class="pool" r="8.727400574976695" cx="8.727400574976695" cy="8.727400574976695" style="stroke-width: 1; fill: rgb(65, 182, 196);"></circle><circle class="pearl" r="2.1904339371426516" cx="12.956570492237557" cy="4.9757602928635185"></circle><circle class="pearl" r="2.1904339371426516" cx="4.498230657715833" cy="12.479040857089872"></circle><circle class="pearl" r="2.1904339371426516" cx="4.975760292863518" cy="4.498230657715833"></circle><circle class="pearl" r="2.1904339371426516" cx="12.47904085708987" cy="12.956570492237557"></circle></g><g class="bobaCup bright" cupRadius="8.455881762152556" width="16.911763524305112" height="16.911763524305112" pearlRadius="2.7380424214283132" pearlCount="4" transform="translate(23.818014738118116,247.61536319107125)"><circle class="pool" r="8.455881762152556" cx="8.455881762152556" cy="8.455881762152556" style="stroke-width: 1; fill: rgb(127, 205, 187);"></circle><circle class="pearl" r="2.1904339371426507" cx="12.289392228487042" cy="4.5696205884571635"></circle><circle class="pearl" r="2.1904339371426507" cx="4.62202283452236" cy="12.341965689037583"></circle><circle class="pearl" r="2.1904339371426507" cx="4.62253130608727" cy="4.569539205121906"></circle><circle class="pearl" r="2.1904339371426507" cx="12.28888362893656" cy="12.34240160148996"></circle></g><g class="bobaCup bright" cupRadius="6.8642499833415185" width="13.728499966683037" height="13.728499966683037" pearlRadius="2.7380424214283137" pearlCount="2" transform="translate(218.32230246974947,264.3224619092087)"><circle class="pool" r="6.8642499833415185" cx="6.8642499833415185" cy="6.8642499833415185" style="stroke-width: 1; fill: rgb(29, 145, 192);"></circle><circle class="pearl" r="2.190433937142651" cx="9.49714728057922" cy="4.175747734300812"></circle><circle class="pearl" r="2.190433937142651" cx="4.231352686103817" cy="9.552752232382225"></circle></g><g class="bobaCup bright" cupRadius="6.627683927161616" width="13.255367854323232" height="13.255367854323232" pearlRadius="2.7380424214283132" pearlCount="2" transform="translate(98.73215381685068,293.3723160728384)"><circle class="pool" r="6.627683927161616" cx="6.627683927161616" cy="6.627683927161616" style="stroke-width: 1; fill: rgb(29, 145, 192);"></circle><circle class="pearl" r="2.1904339371426507" cx="9.035027323191606" cy="4.1033855353699655"></circle><circle class="pearl" r="2.1904339371426507" cx="4.220340531131625" cy="9.151982318953266"></circle></g><g class="bobaCup bright" cupRadius="6.625150712254204" width="13.250301424508407" height="13.250301424508407" pearlRadius="2.7380424214283137" pearlCount="2" transform="translate(267.77536555325895,250.87944765998589)"><circle class="pool" r="6.625150712254204" cx="6.625150712254204" cy="6.625150712254204" style="stroke-width: 1; fill: rgb(29, 145, 192);"></circle><circle class="pearl" r="2.190433937142651" cx="9.030079774999788" cy="4.1026302097513225"></circle><circle class="pearl" r="2.190433937142651" cx="4.220221649508621" cy="9.147671214757086"></circle></g><g class="bobaCup bright" cupRadius="4.086272625729079" width="8.172545251458159" height="8.172545251458159" pearlRadius="2.7380424214283132" pearlCount="1" transform="translate(179.98914159642817,139.29798329149267)"><circle class="pool" r="4.086272625729079" cx="4.086272625729079" cy="4.086272625729079" style="stroke-width: 1; fill: rgb(65, 182, 196);"></circle><circle class="pearl" r="2.1904339371426507" cx="4.521822022887075" cy="4.086272625729079"></circle></g><g class="bobaCup bright" cupRadius="3.370980175231706" width="6.741960350463412" height="6.741960350463412" pearlRadius="2.7380424214283137" pearlCount="1" transform="translate(86.97426955716692,53.48721107558566)"><circle class="pool" r="3.370980175231706" cx="3.370980175231706" cy="3.370980175231706" style="stroke-width: 1; fill: rgb(65, 182, 196);"></circle><circle class="pearl" r="2.190433937142651" cx="3.662350614065824" cy="3.662350614065824"></circle></g><g class="bobaCup bright" cupRadius="0" width="0" height="0" pearlRadius="NaN" pearlCount="0" transform="translate(20,300)"><circle class="pool" r="0" cx="0" cy="0" style="stroke-width: 1; fill: rgb(29, 145, 192);"></circle></g><g class="bobaCup bright" cupRadius="0" width="0" height="0" pearlRadius="NaN" pearlCount="0" transform="translate(27.49561462205964,96.6012200169791)"><circle class="pool" r="0" cx="0" cy="0" style="stroke-width: 1; fill: rgb(65, 182, 196);"></circle></g></g><g id="legendDividerGroup" transform="translate(410,0)" height="400"><rect class="legendDivider" height="400" width="90"></rect></g><g id="legend" transform="translate(410,30)" width="90" height="320"><rect class="legendBorder" transform="translate(0,0)" width="90" height="324.9477195110013"></rect><text id="rTitle" text-anchor="middle" alignment-baseline="hanging" transform="translate(45,10)" x="0" y="0" style="fill: black; font-size: 0.8rem;">Population</text><text id="bobaValue" text-anchor="middle" alignment-baseline="hanging" transform="translate(45,25)" x="0" y="0" style="fill: black; font-size: 0.7rem;">(1 Pearl =   75)</text><g class="bright" cupRadius="8.944271909999157" width="17.888543819998315" height="17.888543819998315" pearlRadius="2.7380424214283137" pearlCount="4" transform="translate(36.05572809000084,50)"><circle class="pool" r="8.944271909999157" cx="8.944271909999157" cy="8.944271909999157" style="stroke-width: 1; fill: rgb(65, 182, 196);"></circle><circle class="pearl" r="2.190433937142651" cx="13.542613460651705" cy="5.486970900805408"></circle><circle class="pearl" r="2.190433937142651" cx="4.749399498236599" cy="12.229516637519536"></circle><circle class="pearl" r="2.190433937142651" cx="5.638545202394075" cy="4.284028231246737"></circle><circle class="pearl" r="2.190433937142651" cx="12.653467756495177" cy="13.432459307079188"></circle></g><text id="0" class="legendSampleValue" text-anchor="middle" transform="translate(45,8)" x="0" y="72.88854381999832" style="fill: black; font-size: 0.7rem;"> 300</text><g class="bright" cupRadius="12.649110640673516" width="25.298221281347033" height="25.298221281347033" pearlRadius="2.738042421428314" pearlCount="8" transform="translate(32.35088935932649,92.88854381999832)"><circle class="pool" r="12.649110640673516" cx="12.649110640673516" cy="12.649110640673516" style="stroke-width: 1; fill: rgb(65, 182, 196);"></circle><circle class="pearl" r="2.1904339371426516" cx="14.071403428550017" cy="12.84687879177114"></circle><circle class="pearl" r="2.1904339371426516" cx="6.440581911774734" cy="19.57795138257093"></circle><circle class="pearl" r="2.1904339371426516" cx="15.102737084551539" cy="3.89097746448665"></circle><circle class="pearl" r="2.1904339371426516" cx="20.833946229646855" cy="17.1122426661066"></circle><circle class="pearl" r="2.1904339371426516" cx="3.6634707295578797" cy="12.081372495075822"></circle><circle class="pearl" r="2.1904339371426516" cx="21.146215105325396" cy="9.123450087562196"></circle><circle class="pearl" r="2.1904339371426516" cx="14.187116834584858" cy="21.553646746241665"></circle><circle class="pearl" r="2.1904339371426516" cx="7.171845845081945" cy="4.898098459274188"></circle></g><text id="1" class="legendSampleValue" text-anchor="middle" transform="translate(45,8)" x="0" y="123.18676510134534" style="fill: black; font-size: 0.7rem;"> 600</text><g class="bright" cupRadius="15.491933384829666" width="30.983866769659333" height="30.983866769659333" pearlRadius="2.7380424214283137" pearlCount="12" transform="translate(29.508066615170335,143.18676510134534)"><circle class="pool" r="15.491933384829666" cx="15.491933384829666" cy="15.491933384829666" style="stroke-width: 1; fill: rgb(65, 182, 196);"></circle><circle class="pearl" r="2.190433937142651" cx="17.03301174338476" cy="11.017376109139578"></circle><circle class="pearl" r="2.190433937142651" cx="11.029309432951331" cy="17.003470400319355"></circle><circle class="pearl" r="2.190433937142651" cx="13.977981653444434" cy="3.7248762882360538"></circle><circle class="pearl" r="2.190433937142651" cx="18.741808845067855" cy="18.756462357333636"></circle><circle class="pearl" r="2.190433937142651" cx="3.7255296891956267" cy="13.971342248807426"></circle><circle class="pearl" r="2.190433937142651" cx="26.986613481001935" cy="12.233596672509563"></circle><circle class="pearl" r="2.190433937142651" cx="12.152198575888583" cy="26.968872613027877"></circle><circle class="pearl" r="2.190433937142651" cx="6.524197378590721" cy="6.5101702816287865"></circle><circle class="pearl" r="2.190433937142651" cx="26.508263068801245" cy="20.47967424223933"></circle><circle class="pearl" r="2.190433937142651" cx="5.419021306595214" cy="22.67955009454649"></circle><circle class="pearl" r="2.190433937142651" cx="22.7607980495765" cy="5.461881544509557"></circle><circle class="pearl" r="2.190433937142651" cx="20.400071923945603" cy="26.53509242340789"></circle></g><text id="2" class="legendSampleValue" text-anchor="middle" transform="translate(45,8)" x="0" y="179.17063187100467" style="fill: black; font-size: 0.7rem;"> 900</text><g class="bright" cupRadius="17.888543819998315" width="35.77708763999663" height="35.77708763999663" pearlRadius="2.7380424214283137" pearlCount="16" transform="translate(27.111456180001685,199.17063187100467)"><circle class="pool" r="17.888543819998315" cx="17.888543819998315" cy="17.888543819998315" style="stroke-width: 1; fill: rgb(65, 182, 196);"></circle><circle class="pearl" r="2.190433937142651" cx="19.804693062551593" cy="19.706925044831753"></circle><circle class="pearl" r="2.190433937142651" cx="13.339172784724301" cy="23.858410298028687"></circle><circle class="pearl" r="2.190433937142651" cx="16.092791630714295" cy="11.11354324394561"></circle><circle class="pearl" r="2.190433937142651" cx="20.83612953404815" cy="27.499380517199562"></circle><circle class="pearl" r="2.190433937142651" cx="10.312657514553903" cy="16.56124087753137"></circle><circle class="pearl" r="2.190433937142651" cx="23.67875583770065" cy="13.13675787817294"></circle><circle class="pearl" r="2.190433937142651" cx="14.311679794483904" cy="31.76511484190927"></circle><circle class="pearl" r="2.190433937142651" cx="11.081450997216848" cy="4.996489551968747"></circle><circle class="pearl" r="2.190433937142651" cx="27.67435150439312" cy="20.796258814455644"></circle><circle class="pearl" r="2.190433937142651" cx="4.000488629236898" cy="21.40866477780025"></circle><circle class="pearl" r="2.190433937142651" cx="28.33359673438834" cy="7.016840611654928"></circle><circle class="pearl" r="2.190433937142651" cx="28.522531366621056" cy="28.622475917790542"></circle><circle class="pearl" r="2.190433937142651" cx="5.303915419923033" cy="10.377661215789297"></circle><circle class="pearl" r="2.190433937142651" cx="31.694235049536683" cy="13.980399213320226"></circle><circle class="pearl" r="2.190433937142651" cx="7.3110738720782" cy="28.664085856590173"></circle><circle class="pearl" r="2.190433937142651" cx="18.987039995684736" cy="3.6844832035601804"></circle></g><text id="3" class="legendSampleValue" text-anchor="middle" transform="translate(45,8)" x="0" y="239.9477195110013" style="fill: black; font-size: 0.7rem;">1.2k</text><g class="bright" cupRadius="20" width="40" height="40" pearlRadius="2.7380424214283137" pearlCount="20" transform="translate(25,259.9477195110013)"><circle class="pool" r="20" cx="20" cy="20" style="stroke-width: 1; fill: rgb(65, 182, 196);"></circle><circle class="pearl" r="2.190433937142651" cx="22.480421380823074" cy="19.96094551607325"></circle><circle class="pearl" r="2.190433937142651" cx="14.554532211889109" cy="20.25858246523202"></circle><circle class="pearl" r="2.190433937142651" cx="21.718613402750453" cy="11.231225788085391"></circle><circle class="pearl" r="2.190433937142651" cx="25.13767186853209" cy="27.447308990534317"></circle><circle class="pearl" r="2.190433937142651" cx="6.622341466842937" cy="15.212813608895589"></circle><circle class="pearl" r="2.190433937142651" cx="28.49521909515808" cy="14.82158787688231"></circle><circle class="pearl" r="2.190433937142651" cx="17.504603283401977" cy="28.993209871734443"></circle><circle class="pearl" r="2.190433937142651" cx="14.13811847195522" cy="12.373399584276378"></circle><circle class="pearl" r="2.190433937142651" cx="31.11803529924844" cy="22.444175683247455"></circle><circle class="pearl" r="2.190433937142651" cx="10.013176726772668" cy="26.767604068489224"></circle><circle class="pearl" r="2.190433937142651" cx="25.1625299271706" cy="4.328500666167248"></circle><circle class="pearl" r="2.190433937142651" cx="27.782608687955303" cy="34.772930101052836"></circle><circle class="pearl" r="2.190433937142651" cx="8.036930275650786" cy="7.623092000895575"></circle><circle class="pearl" r="2.190433937142651" cx="36.040664285033515" cy="16.500106031740792"></circle><circle class="pearl" r="2.190433937142651" cx="11.3070075503718" cy="34.36126950601293"></circle><circle class="pearl" r="2.190433937142651" cx="16.81383473400994" cy="3.9061454691506903"></circle><circle class="pearl" r="2.190433937142651" cx="33.74247113697989" cy="29.87303346303284"></circle><circle class="pearl" r="2.190433937142651" cx="3.788525504185259" cy="22.343736665541265"></circle><circle class="pearl" r="2.190433937142651" cx="32.18050534208177" cy="7.787706818962306"></circle><circle class="pearl" r="2.190433937142651" cx="20.00567962395882" cy="36.34927596497569"></circle></g><text id="4" class="legendSampleValue" text-anchor="middle" transform="translate(45,8)" x="0" y="304.9477195110013" style="fill: black; font-size: 0.7rem;">1.5k</text></g></svg>