<?xml version="1.0" standalone="no"?>
<?xml-stylesheet xmlns="http://www.w3.org/2000/svg" type="text/css" href="style.css"?>
<svg id="syntheticVisC" class="default" xTitle="Percent Cat Owners" yTitle="Percent Dog Owners" rTitle="Population" chartTitle="Towns in Vizzyland" width="500" height="400" xmlns="http://www.w3.org/2000/svg"><rect class="background" width="500" height="400"></rect><text id="chartTitle" text-anchor="middle" transform="translate(250,20)" x="0" y="0" style="fill: black; font-size: 1.2rem;">Towns in Vizzyland</text><g id="yAxis" transform="translate(50,30)" fill="none" font-size="10" font-family="sans-serif" text-anchor="end"><path class="domain" stroke="currentColor" d="M-6,300H0V20H-6"></path><g class="tick" opacity="1" transform="translate(0,300)"><line stroke="currentColor" x2="-6"></line><text fill="currentColor" x="-9" dy="0.32em">0</text></g><g class="tick" opacity="1" transform="translate(0,272)"><line stroke="currentColor" x2="-6"></line><text fill="currentColor" x="-9" dy="0.32em">10</text></g><g class="tick" opacity="1" transform="translate(0,244)"><line stroke="currentColor" x2="-6"></line><text fill="currentColor" x="-9" dy="0.32em">20</text></g><g class="tick" opacity="1" transform="translate(0,216)"><line stroke="currentColor" x2="-6"></line><text fill="currentColor" x="-9" dy="0.32em">30</text></g><g class="tick" opacity="1" transform="translate(0,188)"><line stroke="currentColor" x2="-6"></line><text fill="currentColor" x="-9" dy="0.32em">40</text></g><g class="tick" opacity="1" transform="translate(0,160)"><line stroke="currentColor" x2="-6"></line><text fill="currentColor" x="-9" dy="0.32em">50</text></g><g class="tick" opacity="1" transform="translate(0,132)"><line stroke="currentColor" x2="-6"></line><text fill="currentColor" x="-9" dy="0.32em">60</text></g><g class="tick" opacity="1" transform="translate(0,104.00000000000001)"><line stroke="currentColor" x2="-6"></line><text fill="currentColor" x="-9" dy="0.32em">70</text></g><g class="tick" opacity="1" transform="translate(0,75.99999999999999)"><line stroke="currentColor" x2="-6"></line><text fill="currentColor" x="-9" dy="0.32em">80</text></g><g class="tick" opacity="1" transform="translate(0,47.99999999999999)"><line stroke="currentColor" x2="-6"></line><text fill="currentColor" x="-9" dy="0.32em">90</text></g><g class="tick" opacity="1" transform="translate(0,20)"><line stroke="currentColor" x2="-6"></line><text fill="currentColor" x="-9" dy="0.32em">100</text></g></g><g id="xAxis" transform="translate(60,360)" fill="none" font-size="10" font-family="sans-serif" text-anchor="middle"><path class="domain" stroke="currentColor" d="M20,6V0H320V6"></path><g class="tick" opacity="1" transform="translate(20,0)"><line stroke="currentColor" y2="6"></line><text fill="currentColor" y="9" dy="0.71em">0</text></g><g class="tick" opacity="1" transform="translate(50,0)"><line stroke="currentColor" y2="6"></line><text fill="currentColor" y="9" dy="0.71em">10</text></g><g class="tick" opacity="1" transform="translate(80,0)"><line stroke="currentColor" y2="6"></line><text fill="currentColor" y="9" dy="0.71em">20</text></g><g class="tick" opacity="1" transform="translate(110,0)"><line stroke="currentColor" y2="6"></line><text fill="currentColor" y="9" dy="0.71em">30</text></g><g class="tick" opacity="1" transform="translate(140,0)"><line stroke="currentColor" y2="6"></line><text fill="currentColor" y="9" dy="0.71em">40</text></g><g class="tick" opacity="1" transform="translate(170,0)"><line stroke="currentColor" y2="6"></line><text fill="currentColor" y="9" dy="0.71em">50</text></g><g class="tick" opacity="1" transform="translate(200,0)"><line stroke="currentColor" y2="6"></line><text fill="currentColor" y="9" dy="0.71em">60</text></g><g class="tick" opacity="1" transform="translate(230,0)"><line stroke="currentColor" y2="6"></line><text fill="currentColor" y="9" dy="0.71em">70</text></g><g class="tick" opacity="1" transform="translate(260,0)"><line stroke="currentColor" y2="6"></line><text fill="currentColor" y="9" dy="0.71em">80</text></g><g class="tick" opacity="1" transform="translate(290,0)"><line stroke="currentColor" y2="6"></line><text fill="currentColor" y="9" dy="0.71em">90</text></g><g class="tick" opacity="1" transform="translate(320,0)"><line stroke="currentColor" y2="6"></line><text fill="currentColor" y="9" dy="0.71em">100</text></g></g><g id="labels"><text id="xTitle" text-anchor="middle" transform="translate(250,350)" x="0" y="40" style="fill: black; font-size: 0.8rem;">Percent Cat Owners</text><g id="group-yTitle" transform="translate(60,190)"><text id="yTitle" text-anchor="middle" transform="rotate(-90)" y="-45" style="fill: black; font-size: 0.8rem;">Percent Dog Owners</text></g></g><g id="quadrant_lines" transform="translate(60,30)"><line id="verticalQuadrantLine" x1="170" y1="10" x2="170" y2="310" class="quadrantLine"></line><line id="horizontalQuadrantLine" x1="10" y1="160" x2="330" y2="160" class="quadrantLine"></line></g><g id="chart" transform="translate(60,30)"><g class="bobaCup bright" cupRadius="20" width="40" height="40" pearlRadius="2.7380424214283137" pearlCount="20" transform="translate(257.92288679286213,8.198804297985028)"><circle class="pool" r="20" cx="20" cy="20" style="stroke-width: 1; fill: rgb(127, 205, 187);"></circle><circle class="pearl" r="2.190433937142651" cx="22.480421380823074" cy="19.96094551607325"></circle><circle class="pearl" r="2.190433937142651" cx="14.554532211889109" cy="20.25858246523202"></circle><circle class="pearl" r="2.190433937142651" cx="21.718613402750453" cy="11.231225788085391"></circle><circle class="pearl" r="2.190433937142651" cx="25.13767186853209" cy="27.447308990534317"></circle><circle class="pearl" r="2.190433937142651" cx="6.622341466842937" cy="15.212813608895589"></circle><circle class="pearl" r="2.190433937142651" cx="28.49521909515808" cy="14.82158787688231"></circle><circle class="pearl" r="2.190433937142651" cx="17.504603283401977" cy="28.993209871734443"></circle><circle class="pearl" r="2.190433937142651" cx="14.13811847195522" cy="12.373399584276378"></circle><circle class="pearl" r="2.190433937142651" cx="31.11803529924844" cy="22.444175683247455"></circle><circle class="pearl" r="2.190433937142651" cx="10.013176726772668" cy="26.767604068489224"></circle><circle class="pearl" r="2.190433937142651" cx="25.1625299271706" cy="4.328500666167248"></circle><circle class="pearl" r="2.190433937142651" cx="27.782608687955303" cy="34.772930101052836"></circle><circle class="pearl" r="2.190433937142651" cx="8.036930275650786" cy="7.623092000895575"></circle><circle class="pearl" r="2.190433937142651" cx="36.040664285033515" cy="16.500106031740792"></circle><circle class="pearl" r="2.190433937142651" cx="11.3070075503718" cy="34.36126950601293"></circle><circle class="pearl" r="2.190433937142651" cx="16.81383473400994" cy="3.9061454691506903"></circle><circle class="pearl" r="2.190433937142651" cx="33.74247113697989" cy="29.87303346303284"></circle><circle class="pearl" r="2.190433937142651" cx="3.788525504185259" cy="22.343736665541265"></circle><circle class="pearl" r="2.190433937142651" cx="32.18050534208177" cy="7.787706818962306"></circle><circle class="pearl" r="2.190433937142651" cx="20.00567962395882" cy="36.34927596497569"></circle></g><g class="bobaCup bright" cupRadius="18.224706651301748" width="36.449413302603496" height="36.449413302603496" pearlRadius="2.7380424214283137" pearlCount="17" transform="translate(288.0797403303546,231.96137874624458)"><circle class="pool" r="18.224706651301748" cx="18.224706651301748" cy="18.224706651301748" style="stroke-width: 1; fill: rgb(127, 205, 187);"></circle><circle class="pearl" r="2.190433937142651" cx="18.19798648557313" cy="18.22189789869574"></circle><circle class="pearl" r="2.190433937142651" cx="13.240164206436924" cy="24.272633885668224"></circle><circle class="pearl" r="2.190433937142651" cx="15.493587837590871" cy="10.856157802712026"></circle><circle class="pearl" r="2.190433937142651" cx="20.85985646964037" cy="25.601643577607145"></circle><circle class="pearl" r="2.190433937142651" cx="10.440213025791387" cy="17.034231182981795"></circle><circle class="pearl" r="2.190433937142651" cx="23.112645548229754" cy="12.139731045534893"></circle><circle class="pearl" r="2.190433937142651" cx="15.548916827126268" cy="31.9702017484108"></circle><circle class="pearl" r="2.190433937142651" cx="9.726505094263063" cy="5.753379674581094"></circle><circle class="pearl" r="2.190433937142651" cx="25.956723381015223" cy="19.422038688151787"></circle><circle class="pearl" r="2.190433937142651" cx="4.207217386490655" cy="22.070140319784326"></circle><circle class="pearl" r="2.190433937142651" cx="29.00456911507383" cy="7.180720022643264"></circle><circle class="pearl" r="2.190433937142651" cx="26.789346397155267" cy="30.660837638199528"></circle><circle class="pearl" r="2.190433937142651" cx="4.921153741280602" cy="11.539465208962941"></circle><circle class="pearl" r="2.190433937142651" cx="32.420269730337125" cy="14.530116342087403"></circle><circle class="pearl" r="2.190433937142651" cx="7.442961174257624" cy="29.267311738474536"></circle><circle class="pearl" r="2.190433937142651" cx="19.865860402633444" cy="3.724767443187716"></circle><circle class="pearl" r="2.190433937142651" cx="31.558065165384196" cy="24.83385938708151"></circle></g><g class="bobaCup bright" cupRadius="18.108871265543772" width="36.217742531087545" height="36.217742531087545" pearlRadius="2.7380424214283132" pearlCount="16" transform="translate(222.75282038426988,90.91143810461342)"><circle class="pool" r="18.108871265543772" cx="18.108871265543772" cy="18.108871265543772" style="stroke-width: 1; fill: rgb(29, 145, 192);"></circle><circle class="pearl" r="2.1904339371426507" cx="19.888289201279413" cy="19.847043774221547"></circle><circle class="pearl" r="2.1904339371426507" cx="13.556665632019898" cy="24.29318611384069"></circle><circle class="pearl" r="2.1904339371426507" cx="16.594410163427174" cy="11.43573285015776"></circle><circle class="pearl" r="2.1904339371426507" cx="21.092210353047253" cy="27.70304124623449"></circle><circle class="pearl" r="2.1904339371426507" cx="10.776205620310146" cy="16.896203550570476"></circle><circle class="pearl" r="2.1904339371426507" cx="24.243494462994747" cy="13.460457858172294"></circle><circle class="pearl" r="2.1904339371426507" cx="14.556869039271005" cy="32.2152451729516"></circle><circle class="pearl" r="2.1904339371426507" cx="10.685079106035333" cy="6.060888663126875"></circle><circle class="pearl" r="2.1904339371426507" cx="27.742487267030725" cy="21.117592407840803"></circle><circle class="pearl" r="2.1904339371426507" cx="4.364262827418356" cy="21.680537986946792"></circle><circle class="pearl" r="2.1904339371426507" cx="28.807558286838674" cy="7.149005370728594"></circle><circle class="pearl" r="2.1904339371426507" cx="28.93325537559367" cy="28.975858846536855"></circle><circle class="pearl" r="2.1904339371426507" cx="4.890515981793583" cy="11.52362953443187"></circle><circle class="pearl" r="2.1904339371426507" cx="32.20920668205615" cy="14.526813827304577"></circle><circle class="pearl" r="2.1904339371426507" cx="7.365795342487105" cy="29.036129317776865"></circle><circle class="pearl" r="2.1904339371426507" cx="18.30098864261398" cy="3.65174234579355"></circle></g><g class="bobaCup bright" cupRadius="17.140182039550737" width="34.280364079101474" height="34.280364079101474" pearlRadius="2.738042421428314" pearlCount="15" transform="translate(60.64937358457753,242.8484076728452)"><circle class="pool" r="17.140182039550737" cx="17.140182039550737" cy="17.140182039550737" style="stroke-width: 1; fill: rgb(127, 205, 187);"></circle><circle class="pearl" r="2.1904339371426516" cx="18.36879919140737" cy="17.379707599764526"></circle><circle class="pearl" r="2.1904339371426516" cx="12.71186943836589" cy="22.65239351047588"></circle><circle class="pearl" r="2.1904339371426516" cx="16.08054536553415" cy="9.824075565253777"></circle><circle class="pearl" r="2.1904339371426516" cx="19.80273879474149" cy="25.222924657303942"></circle><circle class="pearl" r="2.1904339371426516" cx="10.637364789890901" cy="15.497952493516609"></circle><circle class="pearl" r="2.1904339371426516" cx="23.450860039995895" cy="11.451240846607798"></circle><circle class="pearl" r="2.1904339371426516" cx="14.176622183867991" cy="30.371495220451205"></circle><circle class="pearl" r="2.1904339371426516" cx="10.234573992430194" cy="5.103380994085409"></circle><circle class="pearl" r="2.1904339371426516" cx="25.773518682025454" cy="20.00063656285211"></circle><circle class="pearl" r="2.1904339371426516" cx="4.135144666258988" cy="20.23309586103653"></circle><circle class="pearl" r="2.1904339371426516" cx="21.50890099602643" cy="4.216825051462209"></circle><circle class="pearl" r="2.1904339371426516" cx="27.101284258850097" cy="27.438017264296864"></circle><circle class="pearl" r="2.1904339371426516" cx="5.105074337105636" cy="10.230728490064093"></circle><circle class="pearl" r="2.1904339371426516" cx="30.34813762225753" cy="14.046512844709758"></circle><circle class="pearl" r="2.1904339371426516" cx="7.215771526694292" cy="27.464147226870796"></circle></g><g class="bobaCup bright" cupRadius="16.905258688514618" width="33.810517377029235" height="33.810517377029235" pearlRadius="2.7380424214283137" pearlCount="14" transform="translate(15.650718402556205,84.29290274578862)"><circle class="pool" r="16.905258688514618" cx="16.905258688514618" cy="16.905258688514618" style="stroke-width: 1; fill: rgb(127, 205, 187);"></circle><circle class="pearl" r="2.190433937142651" cx="22.022047642417753" cy="13.223373155237782"></circle><circle class="pearl" r="2.190433937142651" cx="13.260341337706597" cy="22.68624545437377"></circle><circle class="pearl" r="2.190433937142651" cx="14.114751937555846" cy="12.074718225079225"></circle><circle class="pearl" r="2.190433937142651" cx="21.097378740740016" cy="21.14908660441659"></circle><circle class="pearl" r="2.190433937142651" cx="7.729168216022909" cy="16.95192254947477"></circle><circle class="pearl" r="2.190433937142651" cx="26.90730557492095" cy="6.935823423005418"></circle><circle class="pearl" r="2.190433937142651" cx="16.071435668902062" cy="30.139218178240707"></circle><circle class="pearl" r="2.190433937142651" cx="11.68236050517237" cy="4.477763548994069"></circle><circle class="pearl" r="2.190433937142651" cx="29.283547728518894" cy="22.277272930813275"></circle><circle class="pearl" r="2.190433937142651" cx="5.508418120899156" cy="24.60971162985282"></circle><circle class="pearl" r="2.190433937142651" cx="19.630419771966857" cy="3.8718197147203597"></circle><circle class="pearl" r="2.190433937142651" cx="24.270648781605928" cy="28.470934511696587"></circle><circle class="pearl" r="2.190433937142651" cx="5.445844743236179" cy="9.324261002652307"></circle><circle class="pearl" r="2.190433937142651" cx="29.960175204765758" cy="14.315013132237183"></circle></g><g class="bobaCup bright" cupRadius="16.729907445393962" width="33.459814890787925" height="33.459814890787925" pearlRadius="2.738042421428314" pearlCount="14" transform="translate(101.13220465566415,280.5050255777417)"><circle class="pool" r="16.729907445393962" cx="16.729907445393962" cy="16.729907445393962" style="stroke-width: 1; fill: rgb(127, 205, 187);"></circle><circle class="pearl" r="2.1904339371426516" cx="21.24410970347529" cy="12.73851306988804"></circle><circle class="pearl" r="2.1904339371426516" cx="13.331404721283388" cy="22.269660487838507"></circle><circle class="pearl" r="2.1904339371426516" cx="13.273164831538159" cy="12.287390413698331"></circle><circle class="pearl" r="2.1904339371426516" cx="21.102878715181173" cy="20.704465920344138"></circle><circle class="pearl" r="2.1904339371426516" cx="7.001022842257006" cy="17.425135600970375"></circle><circle class="pearl" r="2.1904339371426516" cx="26.574651766955757" cy="6.853960264195866"></circle><circle class="pearl" r="2.1904339371426516" cx="15.98881937274294" cy="29.792669538563008"></circle><circle class="pearl" r="2.1904339371426516" cx="11.300339986094771" cy="4.556294974278705"></circle><circle class="pearl" r="2.1904339371426516" cx="28.901603896401372" cy="22.165055889984554"></circle><circle class="pearl" r="2.1904339371426516" cx="6.055391927742276" cy="25.371512504361085"></circle><circle class="pearl" r="2.1904339371426516" cx="19.247556796219666" cy="3.841246015588688"></circle><circle class="pearl" r="2.1904339371426516" cx="23.818713892953696" cy="28.23301628268938"></circle><circle class="pearl" r="2.1904339371426516" cx="5.223098684354085" cy="9.649015756110144"></circle><circle class="pearl" r="2.1904339371426516" cx="29.618017743257138" cy="14.208640161597492"></circle></g><g class="bobaCup bright" cupRadius="15.850942221755815" width="31.70188444351163" height="31.70188444351163" pearlRadius="2.7380424214283137" pearlCount="13" transform="translate(86.26922344409597,174.55103484143436)"><circle class="pool" r="15.850942221755815" cx="15.850942221755815" cy="15.850942221755815" style="stroke-width: 1; fill: rgb(127, 205, 187);"></circle><circle class="pearl" r="2.190433937142651" cx="20.44327247601614" cy="18.059877849988577"></circle><circle class="pearl" r="2.190433937142651" cx="13.289570906008027" cy="20.779743863319275"></circle><circle class="pearl" r="2.190433937142651" cx="17.125285167774503" cy="11.028589768494621"></circle><circle class="pearl" r="2.190433937142651" cx="24.3105452944527" cy="25.604975058472103"></circle><circle class="pearl" r="2.190433937142651" cx="9.787514794320803" cy="13.694845942760585"></circle><circle class="pearl" r="2.190433937142651" cx="27.21845396248013" cy="10.780933570434394"></circle><circle class="pearl" r="2.190433937142651" cx="7.080491576401867" cy="25.40368690108119"></circle><circle class="pearl" r="2.190433937142651" cx="14.051972316451042" cy="3.75313927810212"></circle><circle class="pearl" r="2.190433937142651" cx="27.79524842730562" cy="18.687740816359298"></circle><circle class="pearl" r="2.190433937142651" cx="3.9083441183792775" cy="18.697114942457848"></circle><circle class="pearl" r="2.190433937142651" cx="22.02250097874598" cy="4.901520525482518"></circle><circle class="pearl" r="2.190433937142651" cx="16.701905286066072" cy="28.028302616309194"></circle><circle class="pearl" r="2.190433937142651" cx="6.713606262685428" cy="6.549389168201028"></circle></g><g class="bobaCup bright" cupRadius="15.727177231241786" width="31.454354462483572" height="31.454354462483572" pearlRadius="2.7380424214283137" pearlCount="12" transform="translate(155.07903606869434,85.39093232997536)"><circle class="pool" r="15.727177231241786" cx="15.727177231241786" cy="15.727177231241786" style="stroke-width: 1; fill: rgb(29, 145, 192);"></circle><circle class="pearl" r="2.190433937142651" cx="17.59794828655345" cy="11.440196388623484"></circle><circle class="pearl" r="2.190433937142651" cx="11.454216097051583" cy="17.69232602183091"></circle><circle class="pearl" r="2.190433937142651" cx="14.213596301682266" cy="4.1973082454485695"></circle><circle class="pearl" r="2.190433937142651" cx="19.293830620764886" cy="19.252071571088948"></circle><circle class="pearl" r="2.190433937142651" cx="4.248727379510489" cy="14.229322367220224"></circle><circle class="pearl" r="2.190433937142651" cx="27.304860226598105" cy="11.797832814937815"></circle><circle class="pearl" r="2.190433937142651" cx="11.993390938769496" cy="27.353984679617025"></circle><circle class="pearl" r="2.190433937142651" cx="6.582626825606651" cy="6.582537958434166"></circle><circle class="pearl" r="2.190433937142651" cx="27.269089696639522" cy="19.79263222831586"></circle><circle class="pearl" r="2.190433937142651" cx="5.37028401525269" cy="22.877756592732517"></circle><circle class="pearl" r="2.190433937142651" cx="22.685194747745424" cy="5.273642382802276"></circle><circle class="pearl" r="2.190433937142651" cx="19.98703288288857" cy="27.21573184178915"></circle></g><g class="bobaCup bright" cupRadius="15.202202755798893" width="30.404405511597787" height="30.404405511597787" pearlRadius="2.7380424214283137" pearlCount="12" transform="translate(277.9359915301408,200.41034590424675)"><circle class="pool" r="15.202202755798893" cx="15.202202755798893" cy="15.202202755798893" style="stroke-width: 1; fill: rgb(65, 182, 196);"></circle><circle class="pearl" r="2.190433937142651" cx="16.9451139438264" cy="10.705833401805958"></circle><circle class="pearl" r="2.190433937142651" cx="10.83881696195323" cy="16.518312276191484"></circle><circle class="pearl" r="2.190433937142651" cx="13.82939658541418" cy="3.7128344441258054"></circle><circle class="pearl" r="2.190433937142651" cx="18.273630810346774" cy="18.323264054621138"></circle><circle class="pearl" r="2.190433937142651" cx="3.715362926154965" cy="13.801790928162593"></circle><circle class="pearl" r="2.190433937142651" cx="26.610693284465196" cy="13.12204659765795"></circle><circle class="pearl" r="2.190433937142651" cx="12.133454545674569" cy="26.440729107085023"></circle><circle class="pearl" r="2.190433937142651" cx="6.464668496544341" cy="6.412569731562243"></circle><circle class="pearl" r="2.190433937142651" cx="25.61116918257572" cy="20.984252169607323"></circle><circle class="pearl" r="2.190433937142651" cx="5.41779996884836" cy="22.315876741544493"></circle><circle class="pearl" r="2.190433937142651" cx="23.293313224208433" cy="5.982770584515125"></circle><circle class="pearl" r="2.190433937142651" cx="20.020436557289393" cy="25.969925756367545"></circle></g><g class="bobaCup bright" cupRadius="14.738091337918549" width="29.476182675837098" height="29.476182675837098" pearlRadius="2.7380424214283137" pearlCount="11" transform="translate(79.26626378406843,187.69379612664454)"><circle class="pool" r="14.738091337918549" cx="14.738091337918549" cy="14.738091337918549" style="stroke-width: 1; fill: rgb(65, 182, 196);"></circle><circle class="pearl" r="2.190433937142651" cx="18.670835108168053" cy="14.968913973819427"></circle><circle class="pearl" r="2.190433937142651" cx="11.049327487541866" cy="16.593238747100404"></circle><circle class="pearl" r="2.190433937142651" cx="13.66512687986215" cy="8.96047116299757"></circle><circle class="pearl" r="2.190433937142651" cx="20.754528147830907" cy="24.54150592628547"></circle><circle class="pearl" r="2.190433937142651" cx="3.687987430820124" cy="13.690705156993507"></circle><circle class="pearl" r="2.190433937142651" cx="25.244962639537103" cy="10.642501831684543"></circle><circle class="pearl" r="2.190433937142651" cx="13.031672987491193" cy="25.726339135282128"></circle><circle class="pearl" r="2.190433937142651" cx="6.3716245033847105" cy="6.255654673391913"></circle><circle class="pearl" r="2.190433937142651" cx="25.317831337887913" cy="18.572834169711566"></circle><circle class="pearl" r="2.190433937142651" cx="5.936351364659867" cy="22.621459684755155"></circle><circle class="pearl" r="2.190433937142651" cx="20.248055647774255" cy="4.71944627132156"></circle></g><g class="bobaCup bright" cupRadius="14.472713356598575" width="28.94542671319715" height="28.94542671319715" pearlRadius="2.7380424214283137" pearlCount="10" transform="translate(288.27365553644756,285.52728664340145)"><circle class="pool" r="14.472713356598575" cx="14.472713356598575" cy="14.472713356598575" style="stroke-width: 1; fill: rgb(127, 205, 187);"></circle><circle class="pearl" r="2.190433937142651" cx="18.26977748304558" cy="12.754226984180901"></circle><circle class="pearl" r="2.190433937142651" cx="11.354361974274108" cy="16.595567962160917"></circle><circle class="pearl" r="2.190433937142651" cx="14.718437361147396" cy="5.601494554773859"></circle><circle class="pearl" r="2.190433937142651" cx="21.266480153808352" cy="23.6010419163018"></circle><circle class="pearl" r="2.190433937142651" cx="4.003590352200422" cy="13.410451214754973"></circle><circle class="pearl" r="2.190433937142651" cx="22.685558230030633" cy="6.206699993836965"></circle><circle class="pearl" r="2.190433937142651" cx="13.502445990320732" cy="25.262142936782773"></circle><circle class="pearl" r="2.190433937142651" cx="6.728778271090171" cy="5.89678940396341"></circle><circle class="pearl" r="2.190433937142651" cx="25.120948820291495" cy="16.708605174016064"></circle><circle class="pearl" r="2.190433937142651" cx="6.120337883363092" cy="22.55881584524886"></circle></g><g class="bobaCup bright" cupRadius="13.79653952751815" width="27.5930790550363" height="27.5930790550363" pearlRadius="2.7380424214283132" pearlCount="10" transform="translate(63.16869278516032,239.66776646284737)"><circle class="pool" r="13.79653952751815" cx="13.79653952751815" cy="13.79653952751815" style="stroke-width: 1; fill: rgb(65, 182, 196);"></circle><circle class="pearl" r="2.1904339371426507" cx="16.652543225943106" cy="11.201223545615663"></circle><circle class="pearl" r="2.1904339371426507" cx="11.25575497112778" cy="16.124336115593493"></circle><circle class="pearl" r="2.1904339371426507" cx="13.922362196613925" cy="3.6680516713928832"></circle><circle class="pearl" r="2.1904339371426507" cx="21.328523348397677" cy="21.70495652027753"></circle><circle class="pearl" r="2.1904339371426507" cx="3.656068744770283" cy="13.412520417927167"></circle><circle class="pearl" r="2.1904339371426507" cx="21.292398325977643" cy="5.8646635742161015"></circle><circle class="pearl" r="2.1904339371426507" cx="13.662672455888595" cy="23.941706358725884"></circle><circle class="pearl" r="2.1904339371426507" cx="6.250241398549113" cy="5.897462433872007"></circle><circle class="pearl" r="2.1904339371426507" cx="23.93632889428597" cy="14.2042959403061"></circle><circle class="pearl" r="2.1904339371426507" cx="6.299856938754451" cy="21.727882310574607"></circle></g><g class="bobaCup bright" cupRadius="13.592347452505457" width="27.184694905010915" height="27.184694905010915" pearlRadius="2.738042421428314" pearlCount="9" transform="translate(27.715870023265644,53.5505876111169)"><circle class="pool" r="13.592347452505457" cx="13.592347452505457" cy="13.592347452505457" style="stroke-width: 1; fill: rgb(127, 205, 187);"></circle><circle class="pearl" r="2.1904339371426516" cx="16.820943553822755" cy="11.829308505936055"></circle><circle class="pearl" r="2.1904339371426516" cx="10.563610370259457" cy="15.888132732268671"></circle><circle class="pearl" r="2.1904339371426516" cx="13.649404073349466" cy="3.6508429824375352"></circle><circle class="pearl" r="2.1904339371426516" cx="18.937207289860407" cy="22.438999251861702"></circle><circle class="pearl" r="2.1904339371426516" cx="3.656500760879418" cy="13.196081035525301"></circle><circle class="pearl" r="2.1904339371426516" cx="21.010461952660155" cy="5.853448802707348"></circle><circle class="pearl" r="2.1904339371426516" cx="11.086291633898638" cy="23.30095031111626"></circle><circle class="pearl" r="2.1904339371426516" cx="6.074289838155922" cy="5.9191703381314245"></circle><circle class="pearl" r="2.1904339371426516" cx="23.319339006191537" cy="15.99831014427973"></circle></g><g class="bobaCup bright" cupRadius="13.217248765592695" width="26.43449753118539" height="26.43449753118539" pearlRadius="2.7380424214283132" pearlCount="9" transform="translate(234.91940926841397,120.7952925608567)"><circle class="pool" r="13.217248765592695" cx="13.217248765592695" cy="13.217248765592695" style="stroke-width: 1; fill: rgb(127, 205, 187);"></circle><circle class="pearl" r="2.1904339371426507" cx="15.213150479128194" cy="11.222480379250017"></circle><circle class="pearl" r="2.1904339371426507" cx="9.802050318938115" cy="16.62356900657986"></circle><circle class="pearl" r="2.1904339371426507" cx="13.283013767693715" cy="3.6508868428885455"></circle><circle class="pearl" r="2.1904339371426507" cx="20.514533751424832" cy="20.58674771114816"></circle><circle class="pearl" r="2.1904339371426507" cx="3.6515500818125615" cy="13.069408425075663"></circle><circle class="pearl" r="2.1904339371426507" cx="20.40235207284745" cy="5.774282103255596"></circle><circle class="pearl" r="2.1904339371426507" cx="13.33594192055581" cy="22.783241349451206"></circle><circle class="pearl" r="2.1904339371426507" cx="6.00277546074214" cy="5.793359591683937"></circle><circle class="pearl" r="2.1904339371426507" cx="22.783762943912617" cy="13.199920711958747"></circle></g><g class="bobaCup bright" cupRadius="12.798425264206884" width="25.596850528413768" height="25.596850528413768" pearlRadius="2.7380424214283132" pearlCount="8" transform="translate(229.143166736087,165.1332549754656)"><circle class="pool" r="12.798425264206884" cx="12.798425264206884" cy="12.798425264206884" style="stroke-width: 1; fill: rgb(65, 182, 196);"></circle><circle class="pearl" r="2.1904339371426507" cx="14.380975206802912" cy="12.83268429765217"></circle><circle class="pearl" r="2.1904339371426507" cx="7.387857011943508" cy="19.200260444141872"></circle><circle class="pearl" r="2.1904339371426507" cx="15.106225469719266" cy="3.8605128456982554"></circle><circle class="pearl" r="2.1904339371426507" cx="21.28116259172206" cy="16.87013549178791"></circle><circle class="pearl" r="2.1904339371426507" cx="3.6684703981739366" cy="12.124662185968154"></circle><circle class="pearl" r="2.1904339371426507" cx="21.33011384955966" cy="8.875603366713012"></circle><circle class="pearl" r="2.1904339371426507" cx="14.959961951135309" cy="21.762274893824518"></circle><circle class="pearl" r="2.1904339371426507" cx="7.186222738456723" cy="4.946849937556384"></circle></g><g class="bobaCup bright" cupRadius="12.425173378301755" width="24.85034675660351" height="24.85034675660351" pearlRadius="2.7380424214283132" pearlCount="8" transform="translate(233.60556913104588,181.68741472750176)"><circle class="pool" r="12.425173378301755" cx="12.425173378301755" cy="12.425173378301755" style="stroke-width: 1; fill: rgb(29, 145, 192);"></circle><circle class="pearl" r="2.1904339371426507" cx="13.584633610816972" cy="12.734857631095622"></circle><circle class="pearl" r="2.1904339371426507" cx="5.708079414457058" cy="19.22746799921987"></circle><circle class="pearl" r="2.1904339371426507" cx="15.205481400920634" cy="3.965784271298914"></circle><circle class="pearl" r="2.1904339371426507" cx="20.172853855448786" cy="17.37101268445902"></circle><circle class="pearl" r="2.1904339371426507" cx="3.6718899595904437" cy="11.700223328275678"></circle><circle class="pearl" r="2.1904339371426507" cx="20.83411476244557" cy="9.4336147695343"></circle><circle class="pearl" r="2.1904339371426507" cx="13.3034501518534" cy="21.168544041173416"></circle><circle class="pearl" r="2.1904339371426507" cx="7.322269207137133" cy="4.746938027163522"></circle></g><g class="bobaCup bright" cupRadius="12.165727559366408" width="24.331455118732816" height="24.331455118732816" pearlRadius="2.7380424214283137" pearlCount="7" transform="translate(153.02607323181664,240.04657139521782)"><circle class="pool" r="12.165727559366408" cx="12.165727559366408" cy="12.165727559366408" style="stroke-width: 1; fill: rgb(65, 182, 196);"></circle><circle class="pearl" r="2.190433937142651" cx="13.731596642897614" cy="12.466585617206372"></circle><circle class="pearl" r="2.190433937142651" cx="5.5939978550004215" cy="14.812841186922938"></circle><circle class="pearl" r="2.190433937142651" cx="12.19981389011892" cy="3.6507709807593027"></circle><circle class="pearl" r="2.190433937142651" cx="18.818156639215356" cy="18.63488357527963"></circle><circle class="pearl" r="2.190433937142651" cx="4.873312455755725" cy="6.850405321584264"></circle><circle class="pearl" r="2.190433937142651" cx="19.49367009124778" cy="6.9241795848653425"></circle><circle class="pearl" r="2.190433937142651" cx="11.07656098380199" cy="20.631878648019242"></circle></g><g class="bobaCup bright" cupRadius="11.963557858442968" width="23.927115716885936" height="23.927115716885936" pearlRadius="2.7380424214283132" pearlCount="7" transform="translate(250.63270584562719,192.4317988326834)"><circle class="pool" r="11.963557858442968" cx="11.963557858442968" cy="11.963557858442968" style="stroke-width: 1; fill: rgb(127, 205, 187);"></circle><circle class="pearl" r="2.1904339371426507" cx="13.139780232097404" cy="12.300466821116858"></circle><circle class="pearl" r="2.1904339371426507" cx="4.814002852271105" cy="14.872709572211281"></circle><circle class="pearl" r="2.1904339371426507" cx="12.100703753071523" cy="3.6515093498329465"></circle><circle class="pearl" r="2.1904339371426507" cx="18.505352684166713" cy="18.227685279336193"></circle><circle class="pearl" r="2.1904339371426507" cx="4.7855788647714705" cy="6.877702491416583"></circle><circle class="pearl" r="2.1904339371426507" cx="19.2767710707639" cy="7.176198006458514"></circle><circle class="pearl" r="2.1904339371426507" cx="10.76142999419996" cy="20.215842872762547"></circle></g><g class="bobaCup bright" cupRadius="11.661051450042127" width="23.322102900084253" height="23.322102900084253" pearlRadius="2.738042421428314" pearlCount="7" transform="translate(118.69900186020877,180.99428195937503)"><circle class="pool" r="11.661051450042127" cx="11.661051450042127" cy="11.661051450042127" style="stroke-width: 1; fill: rgb(29, 145, 192);"></circle><circle class="pearl" r="2.1904339371426516" cx="12.113938699655554" cy="11.792228830362374"></circle><circle class="pearl" r="2.1904339371426516" cx="4.069355895859019" cy="14.757523770878423"></circle><circle class="pearl" r="2.1904339371426516" cx="12.070558295092473" cy="3.6579158728619388"></circle><circle class="pearl" r="2.1904339371426516" cx="18.125475101941685" cy="17.463113540974508"></circle><circle class="pearl" r="2.1904339371426516" cx="4.717036298454596" cy="6.789538381546507"></circle><circle class="pearl" r="2.1904339371426516" cx="18.973243576835397" cy="7.686808398636484"></circle><circle class="pearl" r="2.1904339371426516" cx="10.423877767095844" cy="19.605565269447023"></circle></g><g class="bobaCup bright" cupRadius="11.424760310538966" width="22.849520621077932" height="22.849520621077932" pearlRadius="2.7380424214283137" pearlCount="7" transform="translate(275.4178293102565,220.5629813691084)"><circle class="pool" r="11.424760310538966" cx="11.424760310538966" cy="11.424760310538966" style="stroke-width: 1; fill: rgb(127, 205, 187);"></circle><circle class="pearl" r="2.190433937142651" cx="11.45942637157076" cy="11.440670232060851"></circle><circle class="pearl" r="2.190433937142651" cx="3.995495272909885" cy="14.21025993791877"></circle><circle class="pearl" r="2.190433937142651" cx="12.376229910185955" cy="3.6904120086270744"></circle><circle class="pearl" r="2.190433937142651" cx="17.872460681694694" cy="16.767698542799096"></circle><circle class="pearl" r="2.190433937142651" cx="4.876645140973066" cy="6.276086356795825"></circle><circle class="pearl" r="2.190433937142651" cx="18.762692724368474" cy="8.298325387818842"></circle><circle class="pearl" r="2.190433937142651" cx="10.145474421349517" cy="19.12694753554705"></circle></g><g class="bobaCup bright" cupRadius="11.24481841756237" width="22.48963683512474" height="22.48963683512474" pearlRadius="2.7380424214283132" pearlCount="6" transform="translate(28.9759411351544,156.71674520925865)"><circle class="pool" r="11.24481841756237" cx="11.24481841756237" cy="11.24481841756237" style="stroke-width: 1; fill: rgb(29, 145, 192);"></circle><circle class="pearl" r="2.1904339371426507" cx="11.55158252110035" cy="11.4696410099101"></circle><circle class="pearl" r="2.1904339371426507" cx="6.135669139958794" cy="17.350730423732777"></circle><circle class="pearl" r="2.1904339371426507" cx="9.168018109900581" cy="3.844168802633612"></circle><circle class="pearl" r="2.1904339371426507" cx="17.156725165939665" cy="17.159412739519386"></circle><circle class="pearl" r="2.1904339371426507" cx="3.754593714707151" cy="9.71995106818477"></circle><circle class="pearl" r="2.1904339371426507" cx="17.15700124573783" cy="5.330394734027132"></circle></g><g class="bobaCup bright" cupRadius="11.11581938720862" width="22.23163877441724" height="22.23163877441724" pearlRadius="2.7380424214283132" pearlCount="6" transform="translate(204.2209135564308,153.0823057896939)"><circle class="pool" r="11.11581938720862" cx="11.11581938720862" cy="11.11581938720862" style="stroke-width: 1; fill: rgb(65, 182, 196);"></circle><circle class="pearl" r="2.1904339371426507" cx="11.50573077734456" cy="11.283708681373765"></circle><circle class="pearl" r="2.1904339371426507" cx="6.270103375451989" cy="17.469119198517465"></circle><circle class="pearl" r="2.1904339371426507" cx="8.757276803090614" cy="3.9038211553009825"></circle><circle class="pearl" r="2.1904339371426507" cx="16.901422165649183" cy="16.956578716127904"></circle><circle class="pearl" r="2.1904339371426507" cx="3.7127444722775076" cy="9.943220883137245"></circle><circle class="pearl" r="2.1904339371426507" cx="16.936658600857548" cy="5.2976628447829786"></circle></g><g class="bobaCup bright" cupRadius="10.710323942445019" width="21.420647884890037" height="21.420647884890037" pearlRadius="2.7380424214283137" pearlCount="6" transform="translate(151.95841813665515,155.61225690658728)"><circle class="pool" r="10.710323942445019" cx="10.710323942445019" cy="10.710323942445019" style="stroke-width: 1; fill: rgb(29, 145, 192);"></circle><circle class="pearl" r="2.190433937142651" cx="11.029165921165328" cy="10.995624260340113"></circle><circle class="pearl" r="2.190433937142651" cx="5.2961032314036895" cy="16.300664129100678"></circle><circle class="pearl" r="2.190433937142651" cx="8.83090559357198" cy="3.8169101450651244"></circle><circle class="pearl" r="2.190433937142651" cx="16.1051676613222" cy="16.311989605452286"></circle><circle class="pearl" r="2.190433937142651" cx="3.7979694064109957" cy="8.940457537595163"></circle><circle class="pearl" r="2.190433937142651" cx="16.221883941684812" cy="5.177706530111463"></circle></g><g class="bobaCup bright" cupRadius="10.68598082801973" width="21.37196165603946" height="21.37196165603946" pearlRadius="2.7380424214283132" pearlCount="6" transform="translate(14.683165043803164,56.68710829076176)"><circle class="pool" r="10.68598082801973" cx="10.68598082801973" cy="10.68598082801973" style="stroke-width: 1; fill: rgb(29, 145, 192);"></circle><circle class="pearl" r="2.1904339371426507" cx="11.009274854344334" cy="10.973282138598636"></circle><circle class="pearl" r="2.1904339371426507" cx="5.296318332762506" cy="16.26248494269878"></circle><circle class="pearl" r="2.1904339371426507" cx="8.803617552249174" cy="3.8178212853628937"></circle><circle class="pearl" r="2.1904339371426507" cx="16.056751649819983" cy="16.273493742593303"></circle><circle class="pearl" r="2.1904339371426507" cx="3.7966754742385556" cy="8.925871814349648"></circle><circle class="pearl" r="2.1904339371426507" cx="16.17475129497043" cy="5.168084475763227"></circle></g><g class="bobaCup bright" cupRadius="10.492032735676736" width="20.98406547135347" height="20.98406547135347" pearlRadius="2.7380424214283137" pearlCount="6" transform="translate(116.97371519387072,227.38088173926252)"><circle class="pool" r="10.492032735676736" cx="10.492032735676736" cy="10.492032735676736" style="stroke-width: 1; fill: rgb(65, 182, 196);"></circle><circle class="pearl" r="2.190433937142651" cx="10.853065899079901" cy="10.793645296736331"></circle><circle class="pearl" r="2.190433937142651" cx="5.298326074861498" cy="15.957677317144675"></circle><circle class="pearl" r="2.190433937142651" cx="8.583910684256724" cy="3.825691402881688"></circle><circle class="pearl" r="2.190433937142651" cx="15.670652819197915" cy="15.966255805964803"></circle><circle class="pearl" r="2.190433937142651" cx="3.786061048977352" cy="8.812264490196696"></circle><circle class="pearl" r="2.190433937142651" cx="15.798306842313242" cy="5.091446333495417"></circle></g><g class="bobaCup bright" cupRadius="10.364942603701458" width="20.729885207402916" height="20.729885207402916" pearlRadius="2.738042421428314" pearlCount="5" transform="translate(75.92044795772716,85.79968721892962)"><circle class="pool" r="10.364942603701458" cx="10.364942603701458" cy="10.364942603701458" style="stroke-width: 1; fill: rgb(65, 182, 196);"></circle><circle class="pearl" r="2.1904339371426516" cx="16.648023550549777" cy="7.961980447845169"></circle><circle class="pearl" r="2.1904339371426516" cx="7.286680745900801" cy="15.966424135161322"></circle><circle class="pearl" r="2.1904339371426516" cx="9.908511552278968" cy="3.6607778138861105"></circle><circle class="pearl" r="2.1904339371426516" cx="15.280753670971466" cy="15.839285770994639"></circle><circle class="pearl" r="2.1904339371426516" cx="3.7717830344786827" cy="8.78541723097439"></circle></g><g class="bobaCup bright" cupRadius="10.323153806877839" width="20.646307613755678" height="20.646307613755678" pearlRadius="2.7380424214283137" pearlCount="5" transform="translate(83.22442805905389,90.3172728108312)"><circle class="pool" r="10.323153806877839" cx="10.323153806877839" cy="10.323153806877839" style="stroke-width: 1; fill: rgb(29, 145, 192);"></circle><circle class="pearl" r="2.190433937142651" cx="16.691074497444184" cy="7.896826996452232"></circle><circle class="pearl" r="2.190433937142651" cx="7.234670275698459" cy="15.978942411386676"></circle><circle class="pearl" r="2.190433937142651" cx="9.911575609823124" cy="3.6589311844923813"></circle><circle class="pearl" r="2.190433937142651" cx="15.226663365702612" cy="15.756653083671235"></circle><circle class="pearl" r="2.190433937142651" cx="3.767506303264298" cy="8.774767227995977"></circle></g><g class="bobaCup bright" cupRadius="10.288610192064347" width="20.577220384128694" height="20.577220384128694" pearlRadius="2.7380424214283137" pearlCount="5" transform="translate(94.96240796136294,52.82987035430826)"><circle class="pool" r="10.288610192064347" cx="10.288610192064347" cy="10.288610192064347" style="stroke-width: 1; fill: rgb(127, 205, 187);"></circle><circle class="pearl" r="2.190433937142651" cx="16.627562068494566" cy="7.826519417789858"></circle><circle class="pearl" r="2.190433937142651" cx="7.1958405163692705" cy="16.09346878776199"></circle><circle class="pearl" r="2.190433937142651" cx="9.803773015902372" cy="3.6621532335966904"></circle><circle class="pearl" r="2.190433937142651" cx="15.180675692020426" cy="15.689030251961842"></circle><circle class="pearl" r="2.190433937142651" cx="3.7475286481008236" cy="8.880556513119133"></circle></g><g class="bobaCup bright" cupRadius="10.267064913629397" width="20.534129827258795" height="20.534129827258795" pearlRadius="2.7380424214283132" pearlCount="5" transform="translate(253.3467800730548,244.7756018787012)"><circle class="pool" r="10.267064913629397" cx="10.267064913629397" cy="10.267064913629397" style="stroke-width: 1; fill: rgb(65, 182, 196);"></circle><circle class="pearl" r="2.1904339371426507" cx="16.577915314772675" cy="7.781170153093618"></circle><circle class="pearl" r="2.1904339371426507" cx="7.173724494500257" cy="16.175146877081996"></circle><circle class="pearl" r="2.1904339371426507" cx="9.725334348820775" cy="3.6650251031055108"></circle><circle class="pearl" r="2.1904339371426507" cx="15.151349105059417" cy="15.647199334142737"></circle><circle class="pearl" r="2.1904339371426507" cx="3.7345184117093515" cy="8.95800435859654"></circle></g><g class="bobaCup bright" cupRadius="10.122930314779573" width="20.245860629559147" height="20.245860629559147" pearlRadius="2.7380424214283137" pearlCount="5" transform="translate(29.168272205802438,129.0720860842845)"><circle class="pool" r="10.122930314779573" cx="10.122930314779573" cy="10.122930314779573" style="stroke-width: 1; fill: rgb(65, 182, 196);"></circle><circle class="pearl" r="2.190433937142651" cx="16.208412683201797" cy="7.3516456431950274"></circle><circle class="pearl" r="2.190433937142651" cx="7.320860694178982" cy="16.199597486474662"></circle><circle class="pearl" r="2.190433937142651" cx="9.25570648997159" cy="3.6879388440559833"></circle><circle class="pearl" r="2.190433937142651" cx="15.20636821470097" cy="15.22619916271427"></circle><circle class="pearl" r="2.190433937142651" cx="3.6903279952147283" cy="9.228355528530521"></circle></g><g class="bobaCup bright" cupRadius="10.017850241895527" width="20.035700483791054" height="20.035700483791054" pearlRadius="2.7380424214283132" pearlCount="5" transform="translate(24.98668748617907,233.7265892606006)"><circle class="pool" r="10.017850241895527" cx="10.017850241895527" cy="10.017850241895527" style="stroke-width: 1; fill: rgb(29, 145, 192);"></circle><circle class="pearl" r="2.1904339371426507" cx="15.992780504272016" cy="7.242220882406931"></circle><circle class="pearl" r="2.1904339371426507" cx="7.172995510007498" cy="15.972548660680719"></circle><circle class="pearl" r="2.1904339371426507" cx="9.160482240726807" cy="3.6874791627457286"></circle><circle class="pearl" r="2.1904339371426507" cx="15.009928667628795" cy="15.052544473664199"></circle><circle class="pearl" r="2.1904339371426507" cx="3.6932128130178397" cy="9.096165250768152"></circle></g><g class="bobaCup bright" cupRadius="9.981344358586998" width="19.962688717173997" height="19.962688717173997" pearlRadius="2.7380424214283137" pearlCount="5" transform="translate(252.60970000238987,266.8370209497598)"><circle class="pool" r="9.981344358586998" cx="9.981344358586998" cy="9.981344358586998" style="stroke-width: 1; fill: rgb(29, 145, 192);"></circle><circle class="pearl" r="2.190433937142651" cx="15.917927920246651" cy="7.204514562814108"></circle><circle class="pearl" r="2.190433937142651" cx="7.120947607591559" cy="15.893328154263347"></circle><circle class="pearl" r="2.190433937142651" cx="9.12824694520314" cy="3.687246824169227"></circle><circle class="pearl" r="2.190433937142651" cx="14.941615753510302" cy="14.992199675142782"></circle><circle class="pearl" r="2.190433937142651" cx="3.694327166323653" cy="9.049383773148959"></circle></g><g class="bobaCup bright" cupRadius="9.755042490670435" width="19.51008498134087" height="19.51008498134087" pearlRadius="2.7380424214283132" pearlCount="5" transform="translate(244.27945931172738,139.29466661577908)"><circle class="pool" r="9.755042490670435" cx="9.755042490670435" cy="9.755042490670435" style="stroke-width: 1; fill: rgb(29, 145, 192);"></circle><circle class="pearl" r="2.1904339371426507" cx="15.455201913266052" cy="6.976221222777293"></circle><circle class="pearl" r="2.1904339371426507" cx="6.788202346054432" cy="15.397258170274771"></circle><circle class="pearl" r="2.1904339371426507" cx="8.941505237793937" cy="3.6847055335946974"></circle><circle class="pearl" r="2.1904339371426507" cx="14.516989025129547" cy="14.61811507816979"></circle><circle class="pearl" r="2.1904339371426507" cx="3.7030265632108916" cy="8.746227906707798"></circle></g><g class="bobaCup bright" cupRadius="9.485914570323217" width="18.971829140646435" height="18.971829140646435" pearlRadius="2.7380424214283137" pearlCount="4" transform="translate(96.98065605844232,244.77640184162505)"><circle class="pool" r="9.485914570323217" cx="9.485914570323217" cy="9.485914570323217" style="stroke-width: 1; fill: rgb(127, 205, 187);"></circle><circle class="pearl" r="2.190433937142651" cx="14.844486072438757" cy="6.606109763510633"></circle><circle class="pearl" r="2.190433937142651" cx="5.682578059285308" cy="12.419719325512755"></circle><circle class="pearl" r="2.190433937142651" cx="7.3209070260134235" cy="3.90109138471003"></circle><circle class="pearl" r="2.190433937142651" cx="13.409920223887134" cy="14.471437914556127"></circle></g><g class="bobaCup bright" cupRadius="9.17591528052617" width="18.35183056105234" height="18.35183056105234" pearlRadius="2.738042421428313" pearlCount="4" transform="translate(183.6058113441034,55.50595377567613)"><circle class="pool" r="9.17591528052617" cx="9.17591528052617" cy="9.17591528052617" style="stroke-width: 1; fill: rgb(127, 205, 187);"></circle><circle class="pearl" r="2.1904339371426502" cx="14.118453085989911" cy="5.958263025180293"></circle><circle class="pearl" r="2.1904339371426502" cx="5.2034342909298985" cy="12.041235171016147"></circle><circle class="pearl" r="2.1904339371426502" cx="6.342528430381096" cy="4.099133699999831"></circle><circle class="pearl" r="2.1904339371426502" cx="12.985915098965629" cy="13.872725976347665"></circle></g><g class="bobaCup bright" cupRadius="8.804633336087996" width="17.60926667217599" height="17.60926667217599" pearlRadius="2.7380424214283137" pearlCount="4" transform="translate(243.82557225544886,133.98880455486668)"><circle class="pool" r="8.804633336087996" cx="8.804633336087996" cy="8.804633336087996" style="stroke-width: 1; fill: rgb(65, 182, 196);"></circle><circle class="pearl" r="2.190433937142651" cx="13.19437523408303" cy="5.216808266296255"></circle><circle class="pearl" r="2.190433937142651" cx="4.480416152371155" cy="12.363132725682517"></circle><circle class="pearl" r="2.190433937142651" cx="5.240686652023184" cy="4.404278859401513"></circle><circle class="pearl" r="2.190433937142651" cx="12.43410473443108" cy="13.175662132577369"></circle></g><g class="bobaCup bright" cupRadius="8.731853770346424" width="17.463707540692848" height="17.463707540692848" pearlRadius="2.7380424214283137" pearlCount="4" transform="translate(28.81444519836154,265.0284566397372)"><circle class="pool" r="8.731853770346424" cx="8.731853770346424" cy="8.731853770346424" style="stroke-width: 1; fill: rgb(127, 205, 187);"></circle><circle class="pearl" r="2.190433937142651" cx="12.971672190742325" cy="4.992251819251839"></circle><circle class="pearl" r="2.190433937142651" cx="4.492035349950523" cy="12.471455721441009"></circle><circle class="pearl" r="2.190433937142651" cx="4.99225181925184" cy="4.492035349950522"></circle><circle class="pearl" r="2.190433937142651" cx="12.471455721441009" cy="12.971672190742325"></circle></g><g class="bobaCup bright" cupRadius="8.62100108611381" width="17.24200217222762" height="17.24200217222762" pearlRadius="2.7380424214283137" pearlCount="4" transform="translate(156.94508824601132,93.9599739305184)"><circle class="pool" r="8.62100108611381" cx="8.62100108611381" cy="8.62100108611381" style="stroke-width: 1; fill: rgb(65, 182, 196);"></circle><circle class="pearl" r="2.190433937142651" cx="12.610081736244414" cy="4.629153065849258"></circle><circle class="pearl" r="2.190433937142651" cx="4.631919550366417" cy="12.612848644125911"></circle><circle class="pearl" r="2.190433937142651" cx="4.631920837237847" cy="4.629152856412282"></circle><circle class="pearl" r="2.190433937142651" cx="12.610080449372166" cy="12.612849778068028"></circle></g><g class="bobaCup bright" cupRadius="8.141818178804677" width="16.283636357609353" height="16.283636357609353" pearlRadius="2.7380424214283132" pearlCount="3" transform="translate(235.32445047902664,121.02543616084702)"><circle class="pool" r="8.141818178804677" cx="8.141818178804677" cy="8.141818178804677" style="stroke-width: 1; fill: rgb(29, 145, 192);"></circle><circle class="pearl" r="2.1904339371426507" cx="12.451231610338674" cy="9.852206324567334"></circle><circle class="pearl" r="2.1904339371426507" cx="4.398051382912338" cy="11.114949184402073"></circle><circle class="pearl" r="2.1904339371426507" cx="7.359158538560327" cy="3.6884284303592816"></circle></g><g class="bobaCup bright" cupRadius="7.888361724945659" width="15.776723449891318" height="15.776723449891318" pearlRadius="2.7380424214283137" pearlCount="3" transform="translate(12.111638275054341,49.77940747822155)"><circle class="pool" r="7.888361724945659" cx="7.888361724945659" cy="7.888361724945659" style="stroke-width: 1; fill: rgb(65, 182, 196);"></circle><circle class="pearl" r="2.190433937142651" cx="12.000739969264831" cy="9.28854250798646"></circle><circle class="pearl" r="2.190433937142651" cx="4.473132063192579" cy="11.348366803733082"></circle><circle class="pearl" r="2.190433937142651" cx="6.314445033537964" cy="3.809334831287959"></circle></g><g class="bobaCup bright" cupRadius="7.645742452993067" width="15.291484905986135" height="15.291484905986135" pearlRadius="2.738042421428313" pearlCount="3" transform="translate(153.99774942656524,14.237714528215337)"><circle class="pool" r="7.645742452993067" cx="7.645742452993067" cy="7.645742452993067" style="stroke-width: 1; fill: rgb(29, 145, 192);"></circle><circle class="pearl" r="2.1904339371426502" cx="11.600100664333269" cy="8.433215595276248"></circle><circle class="pearl" r="2.1904339371426502" cx="4.522066360161999" cy="10.973559567830202"></circle><circle class="pearl" r="2.1904339371426502" cx="5.302515124798813" cy="4.01864572323157"></circle></g><g class="bobaCup bright" cupRadius="7.605236459269453" width="15.210472918538906" height="15.210472918538906" pearlRadius="2.7380424214283137" pearlCount="3" transform="translate(168.26280566983178,216.2705140303937)"><circle class="pool" r="7.605236459269453" cx="7.605236459269453" cy="7.605236459269453" style="stroke-width: 1; fill: rgb(127, 205, 187);"></circle><circle class="pearl" r="2.190433937142651" cx="11.539448353212329" cy="8.160556897084867"></circle><circle class="pearl" r="2.190433937142651" cx="4.5399260151074845" cy="10.914649255397379"></circle><circle class="pearl" r="2.190433937142651" cx="5.010360116380477" cy="4.107096955453204"></circle></g><g class="bobaCup bright" cupRadius="7.381370595631596" width="14.762741191263192" height="14.762741191263192" pearlRadius="2.7380424214283137" pearlCount="3" transform="translate(23.48674966703475,190.6858693886681)"><circle class="pool" r="7.381370595631596" cx="7.381370595631596" cy="7.381370595631596" style="stroke-width: 1; fill: rgb(127, 205, 187);"></circle><circle class="pearl" r="2.190433937142651" cx="11.112009034108254" cy="7.39285146201371"></circle><circle class="pearl" r="2.190433937142651" cx="4.54979312833245" cy="10.547303506014455"></circle><circle class="pearl" r="2.190433937142651" cx="4.548991763758723" cy="4.215770620098199"></circle></g><g class="bobaCup bright" cupRadius="7.1548118366113345" width="14.309623673222669" height="14.309623673222669" pearlRadius="2.7380424214283137" pearlCount="3" transform="translate(28.500646328399068,258.2102666254992)"><circle class="pool" r="7.1548118366113345" cx="7.1548118366113345" cy="7.1548118366113345" style="stroke-width: 1; fill: rgb(65, 182, 196);"></circle><circle class="pearl" r="2.190433937142651" cx="9.99693877441509" cy="10.070186908151504"></circle><circle class="pearl" r="2.190433937142651" cx="4.320472627188882" cy="10.073552335259098"></circle><circle class="pearl" r="2.190433937142651" cx="6.662739407327994" cy="3.6676644344093416"></circle></g><g class="bobaCup bright" cupRadius="6.401039769885703" width="12.802079539771405" height="12.802079539771405" pearlRadius="2.7380424214283137" pearlCount="2" transform="translate(274.3142500889623,287.59641687860307)"><circle class="pool" r="6.401039769885703" cx="6.401039769885703" cy="6.401039769885703" style="stroke-width: 1; fill: rgb(29, 145, 192);"></circle><circle class="pearl" r="2.190433937142651" cx="8.5924289546515" cy="4.037519606595272"></circle><circle class="pearl" r="2.190433937142651" cx="4.209650585119907" cy="8.764559933176134"></circle></g><g class="bobaCup bright" cupRadius="6.268996240765703" width="12.537992481531406" height="12.537992481531406" pearlRadius="2.7380424214283132" pearlCount="2" transform="translate(253.25564217359727,274.51210995225387)"><circle class="pool" r="6.268996240765703" cx="6.268996240765703" cy="6.268996240765703" style="stroke-width: 1; fill: rgb(127, 205, 187);"></circle><circle class="pearl" r="2.1904339371426507" cx="8.334593418141552" cy="4.000798776545622"></circle><circle class="pearl" r="2.1904339371426507" cx="4.203399063389853" cy="8.537193704985782"></circle></g><g class="bobaCup bright" cupRadius="6.260335668385951" width="12.520671336771901" height="12.520671336771901" pearlRadius="2.7380424214283146" pearlCount="2" transform="translate(105.51499641569488,123.9951422847422)"><circle class="pool" r="6.260335668385951" cx="6.260335668385951" cy="6.260335668385951" style="stroke-width: 1; fill: rgb(127, 205, 187);"></circle><circle class="pearl" r="2.1904339371426516" cx="8.317682049066295" cy="3.998434390803542"></circle><circle class="pearl" r="2.1904339371426516" cx="4.202989287705607" cy="8.52223694596836"></circle></g><g class="bobaCup bright" cupRadius="6.072312227011709" width="12.144624454023418" height="12.144624454023418" pearlRadius="2.738042421428314" pearlCount="2" transform="translate(111.57300849079577,96.25572192542168)"><circle class="pool" r="6.072312227011709" cx="6.072312227011709" cy="6.072312227011709" style="stroke-width: 1; fill: rgb(65, 182, 196);"></circle><circle class="pearl" r="2.1904339371426516" cx="7.990150976630975" cy="3.9615364915305817"></circle><circle class="pearl" r="2.1904339371426516" cx="4.154473477392443" cy="8.183087962492838"></circle></g><g class="bobaCup bright" cupRadius="5.9508802332677675" width="11.901760466535535" height="11.901760466535535" pearlRadius="2.7380424214283132" pearlCount="2" transform="translate(91.62399054412897,281.317781952687)"><circle class="pool" r="5.9508802332677675" cx="5.9508802332677675" cy="5.9508802332677675" style="stroke-width: 1; fill: rgb(65, 182, 196);"></circle><circle class="pearl" r="2.1904339371426507" cx="7.788531381909103" cy="3.9415669066040513"></circle><circle class="pearl" r="2.1904339371426507" cx="4.113229084626431" cy="7.960193559931484"></circle></g><g class="bobaCup bright" cupRadius="5.828465972172538" width="11.656931944345075" height="11.656931944345075" pearlRadius="2.7380424214283137" pearlCount="2" transform="translate(62.69239490067784,246.09238915067823)"><circle class="pool" r="5.828465972172538" cx="5.828465972172538" cy="5.828465972172538" style="stroke-width: 1; fill: rgb(29, 145, 192);"></circle><circle class="pearl" r="2.190433937142651" cx="7.584077188626509" cy="3.921415829560323"></circle><circle class="pearl" r="2.190433937142651" cx="4.072854755718566" cy="7.735516114784751"></circle></g><g class="bobaCup bright" cupRadius="5.6377138486350855" width="11.275427697270171" height="11.275427697270171" pearlRadius="2.7380424214283132" pearlCount="2" transform="translate(269.4659703233758,216.12562822706508)"><circle class="pool" r="5.6377138486350855" cx="5.6377138486350855" cy="5.6377138486350855" style="stroke-width: 1; fill: rgb(29, 145, 192);"></circle><circle class="pearl" r="2.1904339371426507" cx="7.262944156143475" cy="3.890062888003645"></circle><circle class="pearl" r="2.1904339371426507" cx="4.012483541126696" cy="7.385364809266526"></circle></g><g class="bobaCup bright" cupRadius="5.603480513039849" width="11.206961026079698" height="11.206961026079698" pearlRadius="2.738042421428314" pearlCount="2" transform="translate(216.45013005108558,29.091862881427296)"><circle class="pool" r="5.603480513039849" cx="5.603480513039849" cy="5.603480513039849" style="stroke-width: 1; fill: rgb(65, 182, 196);"></circle><circle class="pearl" r="2.1904339371426516" cx="7.204969470583441" cy="3.8844526320264996"></circle><circle class="pearl" r="2.1904339371426516" cx="4.001991555496257" cy="7.322508394053198"></circle></g><g class="bobaCup bright" cupRadius="5.404531203656456" width="10.809062407312911" height="10.809062407312911" pearlRadius="2.738042421428314" pearlCount="1" transform="translate(181.44110825013314,238.39426026778222)"><circle class="pool" r="5.404531203656456" cx="5.404531203656456" cy="5.404531203656456" style="stroke-width: 1; fill: rgb(29, 145, 192);"></circle><circle class="pearl" r="2.1904339371426516" cx="7.118615112630436" cy="5.404531203656456"></circle></g><g class="bobaCup bright" cupRadius="5.093896724311282" width="10.187793448622564" height="10.187793448622564" pearlRadius="2.738042421428314" pearlCount="1" transform="translate(132.2774361252445,102.44358991245356)"><circle class="pool" r="5.093896724311282" cx="5.093896724311282" cy="5.093896724311282" style="stroke-width: 1; fill: rgb(29, 145, 192);"></circle><circle class="pearl" r="2.1904339371426516" cx="6.537070220051479" cy="5.093896724311282"></circle></g><g class="bobaCup bright" cupRadius="4.673989999860392" width="9.347979999720785" height="9.347979999720785" pearlRadius="2.7380424214283137" pearlCount="1" transform="translate(140.1329804679357,15.326010000139608)"><circle class="pool" r="4.673989999860392" cx="4.673989999860392" cy="4.673989999860392" style="stroke-width: 1; fill: rgb(65, 182, 196);"></circle><circle class="pearl" r="2.190433937142651" cx="5.6972567711497" cy="4.673989999860392"></circle></g><g class="bobaCup bright" cupRadius="4.530230524106237" width="9.060461048212474" height="9.060461048212474" pearlRadius="2.7380424214283132" pearlCount="1" transform="translate(238.21062327438977,102.15091853407452)"><circle class="pool" r="4.530230524106237" cx="4.530230524106237" cy="4.530230524106237" style="stroke-width: 1; fill: rgb(65, 182, 196);"></circle><circle class="pearl" r="2.1904339371426507" cx="5.40973781964139" cy="4.530230524106237"></circle></g><g class="bobaCup bright" cupRadius="4.267560916396744" width="8.535121832793488" height="8.535121832793488" pearlRadius="2.738042421428314" pearlCount="1" transform="translate(315.73243908360325,139.01314113342409)"><circle class="pool" r="4.267560916396744" cx="4.267560916396744" cy="4.267560916396744" style="stroke-width: 1; fill: rgb(65, 182, 196);"></circle><circle class="pearl" r="2.1904339371426516" cx="4.884398604222403" cy="4.267560916396744"></circle></g><g class="bobaCup bright" cupRadius="3.95539573593304" width="7.91079147186608" height="7.91079147186608" pearlRadius="2.7380424214283137" pearlCount="1" transform="translate(155.90772316582596,51.670013278071494)"><circle class="pool" r="3.95539573593304" cx="3.95539573593304" cy="3.95539573593304" style="stroke-width: 1; fill: rgb(29, 145, 192);"></circle><circle class="pearl" r="2.190433937142651" cx="4.260068243294995" cy="3.95539573593304"></circle></g><g class="bobaCup bright" cupRadius="3.341156001444478" width="6.682312002888956" height="6.682312002888956" pearlRadius="2.7380424214283137" pearlCount="1" transform="translate(264.08753034945494,102.7553916220286)"><circle class="pool" r="3.341156001444478" cx="3.341156001444478" cy="3.341156001444478" style="stroke-width: 1; fill: rgb(127, 205, 187);"></circle><circle class="pearl" r="2.190433937142651" cx="3.6650952637987007" cy="3.6650952637987007"></circle></g><g class="bobaCup bright" cupRadius="0" width="0" height="0" pearlRadius="NaN" pearlCount="0" transform="translate(20,300)"><circle class="pool" r="0" cx="0" cy="0" style="stroke-width: 1; fill: rgb(29, 145, 192);"></circle></g><g class="bobaCup bright" cupRadius="0" width="0" height="0" pearlRadius="NaN" pearlCount="0" transform="translate(258.88752469921616,123.45997627944709)"><circle class="pool" r="0" cx="0" cy="0" style="stroke-width: 1; fill: rgb(65, 182, 196);"></circle></g></g><g id="legendDividerGroup" transform="translate(410,0)" height="400"><rect class="legendDivider" height="400" width="90"></rect></g><g id="legend" transform="translate(410,30)" width="90" height="320"><rect class="legendBorder" transform="translate(0,0)" width="90" height="324.9477195110013"></rect><text id="rTitle" text-anchor="middle" alignment-baseline="hanging" transform="translate(45,10)" x="0" y="0" style="fill: black; font-size: 0.8rem;">Population</text><text id="bobaValue" text-anchor="middle" alignment-baseline="hanging" transform="translate(45,25)" x="0" y="0" style="fill: black; font-size: 0.7rem;">(1 Pearl =   75)</text><g class="bright" cupRadius="8.944271909999157" width="17.888543819998315" height="17.888543819998315" pearlRadius="2.7380424214283137" pearlCount="4" transform="translate(36.05572809000084,50)"><circle class="pool" r="8.944271909999157" cx="8.944271909999157" cy="8.944271909999157" style="stroke-width: 1; fill: rgb(29, 145, 192);"></circle><circle class="pearl" r="2.190433937142651" cx="13.542613460651705" cy="5.486970900805408"></circle><circle class="pearl" r="2.190433937142651" cx="4.749399498236599" cy="12.229516637519536"></circle><circle class="pearl" r="2.190433937142651" cx="5.638545202394075" cy="4.284028231246737"></circle><circle class="pearl" r="2.190433937142651" cx="12.653467756495177" cy="13.432459307079188"></circle></g><text id="0" class="legendSampleValue" text-anchor="middle" transform="translate(45,8)" x="0" y="72.88854381999832" style="fill: black; font-size: 0.7rem;"> 300</text><g class="bright" cupRadius="12.649110640673516" width="25.298221281347033" height="25.298221281347033" pearlRadius="2.738042421428314" pearlCount="8" transform="translate(32.35088935932649,92.88854381999832)"><circle class="pool" r="12.649110640673516" cx="12.649110640673516" cy="12.649110640673516" style="stroke-width: 1; fill: rgb(29, 145, 192);"></circle><circle class="pearl" r="2.1904339371426516" cx="14.071403428550017" cy="12.84687879177114"></circle><circle class="pearl" r="2.1904339371426516" cx="6.440581911774734" cy="19.57795138257093"></circle><circle class="pearl" r="2.1904339371426516" cx="15.102737084551539" cy="3.89097746448665"></circle><circle class="pearl" r="2.1904339371426516" cx="20.833946229646855" cy="17.1122426661066"></circle><circle class="pearl" r="2.1904339371426516" cx="3.6634707295578797" cy="12.081372495075822"></circle><circle class="pearl" r="2.1904339371426516" cx="21.146215105325396" cy="9.123450087562196"></circle><circle class="pearl" r="2.1904339371426516" cx="14.187116834584858" cy="21.553646746241665"></circle><circle class="pearl" r="2.1904339371426516" cx="7.171845845081945" cy="4.898098459274188"></circle></g><text id="1" class="legendSampleValue" text-anchor="middle" transform="translate(45,8)" x="0" y="123.18676510134534" style="fill: black; font-size: 0.7rem;"> 600</text><g class="bright" cupRadius="15.491933384829666" width="30.983866769659333" height="30.983866769659333" pearlRadius="2.7380424214283137" pearlCount="12" transform="translate(29.508066615170335,143.18676510134534)"><circle class="pool" r="15.491933384829666" cx="15.491933384829666" cy="15.491933384829666" style="stroke-width: 1; fill: rgb(29, 145, 192);"></circle><circle class="pearl" r="2.190433937142651" cx="17.03301174338476" cy="11.017376109139578"></circle><circle class="pearl" r="2.190433937142651" cx="11.029309432951331" cy="17.003470400319355"></circle><circle class="pearl" r="2.190433937142651" cx="13.977981653444434" cy="3.7248762882360538"></circle><circle class="pearl" r="2.190433937142651" cx="18.741808845067855" cy="18.756462357333636"></circle><circle class="pearl" r="2.190433937142651" cx="3.7255296891956267" cy="13.971342248807426"></circle><circle class="pearl" r="2.190433937142651" cx="26.986613481001935" cy="12.233596672509563"></circle><circle class="pearl" r="2.190433937142651" cx="12.152198575888583" cy="26.968872613027877"></circle><circle class="pearl" r="2.190433937142651" cx="6.524197378590721" cy="6.5101702816287865"></circle><circle class="pearl" r="2.190433937142651" cx="26.508263068801245" cy="20.47967424223933"></circle><circle class="pearl" r="2.190433937142651" cx="5.419021306595214" cy="22.67955009454649"></circle><circle class="pearl" r="2.190433937142651" cx="22.7607980495765" cy="5.461881544509557"></circle><circle class="pearl" r="2.190433937142651" cx="20.400071923945603" cy="26.53509242340789"></circle></g><text id="2" class="legendSampleValue" text-anchor="middle" transform="translate(45,8)" x="0" y="179.17063187100467" style="fill: black; font-size: 0.7rem;"> 900</text><g class="bright" cupRadius="17.888543819998315" width="35.77708763999663" height="35.77708763999663" pearlRadius="2.7380424214283137" pearlCount="16" transform="translate(27.111456180001685,199.17063187100467)"><circle class="pool" r="17.888543819998315" cx="17.888543819998315" cy="17.888543819998315" style="stroke-width: 1; fill: rgb(29, 145, 192);"></circle><circle class="pearl" r="2.190433937142651" cx="19.804693062551593" cy="19.706925044831753"></circle><circle class="pearl" r="2.190433937142651" cx="13.339172784724301" cy="23.858410298028687"></circle><circle class="pearl" r="2.190433937142651" cx="16.092791630714295" cy="11.11354324394561"></circle><circle class="pearl" r="2.190433937142651" cx="20.83612953404815" cy="27.499380517199562"></circle><circle class="pearl" r="2.190433937142651" cx="10.312657514553903" cy="16.56124087753137"></circle><circle class="pearl" r="2.190433937142651" cx="23.67875583770065" cy="13.13675787817294"></circle><circle class="pearl" r="2.190433937142651" cx="14.311679794483904" cy="31.76511484190927"></circle><circle class="pearl" r="2.190433937142651" cx="11.081450997216848" cy="4.996489551968747"></circle><circle class="pearl" r="2.190433937142651" cx="27.67435150439312" cy="20.796258814455644"></circle><circle class="pearl" r="2.190433937142651" cx="4.000488629236898" cy="21.40866477780025"></circle><circle class="pearl" r="2.190433937142651" cx="28.33359673438834" cy="7.016840611654928"></circle><circle class="pearl" r="2.190433937142651" cx="28.522531366621056" cy="28.622475917790542"></circle><circle class="pearl" r="2.190433937142651" cx="5.303915419923033" cy="10.377661215789297"></circle><circle class="pearl" r="2.190433937142651" cx="31.694235049536683" cy="13.980399213320226"></circle><circle class="pearl" r="2.190433937142651" cx="7.3110738720782" cy="28.664085856590173"></circle><circle class="pearl" r="2.190433937142651" cx="18.987039995684736" cy="3.6844832035601804"></circle></g><text id="3" class="legendSampleValue" text-anchor="middle" transform="translate(45,8)" x="0" y="239.9477195110013" style="fill: black; font-size: 0.7rem;">1.2k</text><g class="bright" cupRadius="20" width="40" height="40" pearlRadius="2.7380424214283137" pearlCount="20" transform="translate(25,259.9477195110013)"><circle class="pool" r="20" cx="20" cy="20" style="stroke-width: 1; fill: rgb(29, 145, 192);"></circle><circle class="pearl" r="2.190433937142651" cx="22.480421380823074" cy="19.96094551607325"></circle><circle class="pearl" r="2.190433937142651" cx="14.554532211889109" cy="20.25858246523202"></circle><circle class="pearl" r="2.190433937142651" cx="21.718613402750453" cy="11.231225788085391"></circle><circle class="pearl" r="2.190433937142651" cx="25.13767186853209" cy="27.447308990534317"></circle><circle class="pearl" r="2.190433937142651" cx="6.622341466842937" cy="15.212813608895589"></circle><circle class="pearl" r="2.190433937142651" cx="28.49521909515808" cy="14.82158787688231"></circle><circle class="pearl" r="2.190433937142651" cx="17.504603283401977" cy="28.993209871734443"></circle><circle class="pearl" r="2.190433937142651" cx="14.13811847195522" cy="12.373399584276378"></circle><circle class="pearl" r="2.190433937142651" cx="31.11803529924844" cy="22.444175683247455"></circle><circle class="pearl" r="2.190433937142651" cx="10.013176726772668" cy="26.767604068489224"></circle><circle class="pearl" r="2.190433937142651" cx="25.1625299271706" cy="4.328500666167248"></circle><circle class="pearl" r="2.190433937142651" cx="27.782608687955303" cy="34.772930101052836"></circle><circle class="pearl" r="2.190433937142651" cx="8.036930275650786" cy="7.623092000895575"></circle><circle class="pearl" r="2.190433937142651" cx="36.040664285033515" cy="16.500106031740792"></circle><circle class="pearl" r="2.190433937142651" cx="11.3070075503718" cy="34.36126950601293"></circle><circle class="pearl" r="2.190433937142651" cx="16.81383473400994" cy="3.9061454691506903"></circle><circle class="pearl" r="2.190433937142651" cx="33.74247113697989" cy="29.87303346303284"></circle><circle class="pearl" r="2.190433937142651" cx="3.788525504185259" cy="22.343736665541265"></circle><circle class="pearl" r="2.190433937142651" cx="32.18050534208177" cy="7.787706818962306"></circle><circle class="pearl" r="2.190433937142651" cx="20.00567962395882" cy="36.34927596497569"></circle></g><text id="4" class="legendSampleValue" text-anchor="middle" transform="translate(45,8)" x="0" y="304.9477195110013" style="fill: black; font-size: 0.7rem;">1.5k</text></g></svg>