<?xml version="1.0" standalone="no"?>
<?xml-stylesheet xmlns="http://www.w3.org/2000/svg" type="text/css" href="style.css"?>
<svg id="syntheticVisC" class="default" xTitle="Percent Cat Owners" yTitle="Percent Dog Owners" rTitle="Population" chartTitle="Towns in Vizzyland" width="500" height="400" xmlns="http://www.w3.org/2000/svg"><rect class="background" width="500" height="400"></rect><text id="chartTitle" text-anchor="middle" transform="translate(250,20)" x="0" y="0" style="fill: black; font-size: 1.2rem;">Towns in Vizzyland</text><g id="yAxis" transform="translate(50,30)" fill="none" font-size="10" font-family="sans-serif" text-anchor="end"><path class="domain" stroke="currentColor" d="M-6,300H0V20H-6"></path><g class="tick" opacity="1" transform="translate(0,300)"><line stroke="currentColor" x2="-6"></line><text fill="currentColor" x="-9" dy="0.32em">0</text></g><g class="tick" opacity="1" transform="translate(0,272)"><line stroke="currentColor" x2="-6"></line><text fill="currentColor" x="-9" dy="0.32em">10</text></g><g class="tick" opacity="1" transform="translate(0,244)"><line stroke="currentColor" x2="-6"></line><text fill="currentColor" x="-9" dy="0.32em">20</text></g><g class="tick" opacity="1" transform="translate(0,216)"><line stroke="currentColor" x2="-6"></line><text fill="currentColor" x="-9" dy="0.32em">30</text></g><g class="tick" opacity="1" transform="translate(0,188)"><line stroke="currentColor" x2="-6"></line><text fill="currentColor" x="-9" dy="0.32em">40</text></g><g class="tick" opacity="1" transform="translate(0,160)"><line stroke="currentColor" x2="-6"></line><text fill="currentColor" x="-9" dy="0.32em">50</text></g><g class="tick" opacity="1" transform="translate(0,132)"><line stroke="currentColor" x2="-6"></line><text fill="currentColor" x="-9" dy="0.32em">60</text></g><g class="tick" opacity="1" transform="translate(0,104.00000000000001)"><line stroke="currentColor" x2="-6"></line><text fill="currentColor" x="-9" dy="0.32em">70</text></g><g class="tick" opacity="1" transform="translate(0,75.99999999999999)"><line stroke="currentColor" x2="-6"></line><text fill="currentColor" x="-9" dy="0.32em">80</text></g><g class="tick" opacity="1" transform="translate(0,47.99999999999999)"><line stroke="currentColor" x2="-6"></line><text fill="currentColor" x="-9" dy="0.32em">90</text></g><g class="tick" opacity="1" transform="translate(0,20)"><line stroke="currentColor" x2="-6"></line><text fill="currentColor" x="-9" dy="0.32em">100</text></g></g><g id="xAxis" transform="translate(60,360)" fill="none" font-size="10" font-family="sans-serif" text-anchor="middle"><path class="domain" stroke="currentColor" d="M20,6V0H320V6"></path><g class="tick" opacity="1" transform="translate(20,0)"><line stroke="currentColor" y2="6"></line><text fill="currentColor" y="9" dy="0.71em">0</text></g><g class="tick" opacity="1" transform="translate(50,0)"><line stroke="currentColor" y2="6"></line><text fill="currentColor" y="9" dy="0.71em">10</text></g><g class="tick" opacity="1" transform="translate(80,0)"><line stroke="currentColor" y2="6"></line><text fill="currentColor" y="9" dy="0.71em">20</text></g><g class="tick" opacity="1" transform="translate(110,0)"><line stroke="currentColor" y2="6"></line><text fill="currentColor" y="9" dy="0.71em">30</text></g><g class="tick" opacity="1" transform="translate(140,0)"><line stroke="currentColor" y2="6"></line><text fill="currentColor" y="9" dy="0.71em">40</text></g><g class="tick" opacity="1" transform="translate(170,0)"><line stroke="currentColor" y2="6"></line><text fill="currentColor" y="9" dy="0.71em">50</text></g><g class="tick" opacity="1" transform="translate(200,0)"><line stroke="currentColor" y2="6"></line><text fill="currentColor" y="9" dy="0.71em">60</text></g><g class="tick" opacity="1" transform="translate(230,0)"><line stroke="currentColor" y2="6"></line><text fill="currentColor" y="9" dy="0.71em">70</text></g><g class="tick" opacity="1" transform="translate(260,0)"><line stroke="currentColor" y2="6"></line><text fill="currentColor" y="9" dy="0.71em">80</text></g><g class="tick" opacity="1" transform="translate(290,0)"><line stroke="currentColor" y2="6"></line><text fill="currentColor" y="9" dy="0.71em">90</text></g><g class="tick" opacity="1" transform="translate(320,0)"><line stroke="currentColor" y2="6"></line><text fill="currentColor" y="9" dy="0.71em">100</text></g></g><g id="labels"><text id="xTitle" text-anchor="middle" transform="translate(250,350)" x="0" y="40" style="fill: black; font-size: 0.8rem;">Percent Cat Owners</text><g id="group-yTitle" transform="translate(60,190)"><text id="yTitle" text-anchor="middle" transform="rotate(-90)" y="-45" style="fill: black; font-size: 0.8rem;">Percent Dog Owners</text></g></g><g id="quadrant_lines" transform="translate(60,30)"><line id="verticalQuadrantLine" x1="170" y1="10" x2="170" y2="310" class="quadrantLine"></line><line id="horizontalQuadrantLine" x1="10" y1="160" x2="330" y2="160" class="quadrantLine"></line></g><g id="chart" transform="translate(60,30)"><g class="bobaCup bright" cupRadius="20" width="40" height="40" pearlRadius="2.7380424214283137" pearlCount="20" transform="translate(35.678297393561415,41.35544515994411)"><circle class="pool" r="20" cx="20" cy="20" style="stroke-width: 1; fill: rgb(29, 145, 192);"></circle><circle class="pearl" r="2.190433937142651" cx="22.480421380823074" cy="19.96094551607325"></circle><circle class="pearl" r="2.190433937142651" cx="14.554532211889109" cy="20.25858246523202"></circle><circle class="pearl" r="2.190433937142651" cx="21.718613402750453" cy="11.231225788085391"></circle><circle class="pearl" r="2.190433937142651" cx="25.13767186853209" cy="27.447308990534317"></circle><circle class="pearl" r="2.190433937142651" cx="6.622341466842937" cy="15.212813608895589"></circle><circle class="pearl" r="2.190433937142651" cx="28.49521909515808" cy="14.82158787688231"></circle><circle class="pearl" r="2.190433937142651" cx="17.504603283401977" cy="28.993209871734443"></circle><circle class="pearl" r="2.190433937142651" cx="14.13811847195522" cy="12.373399584276378"></circle><circle class="pearl" r="2.190433937142651" cx="31.11803529924844" cy="22.444175683247455"></circle><circle class="pearl" r="2.190433937142651" cx="10.013176726772668" cy="26.767604068489224"></circle><circle class="pearl" r="2.190433937142651" cx="25.1625299271706" cy="4.328500666167248"></circle><circle class="pearl" r="2.190433937142651" cx="27.782608687955303" cy="34.772930101052836"></circle><circle class="pearl" r="2.190433937142651" cx="8.036930275650786" cy="7.623092000895575"></circle><circle class="pearl" r="2.190433937142651" cx="36.040664285033515" cy="16.500106031740792"></circle><circle class="pearl" r="2.190433937142651" cx="11.3070075503718" cy="34.36126950601293"></circle><circle class="pearl" r="2.190433937142651" cx="16.81383473400994" cy="3.9061454691506903"></circle><circle class="pearl" r="2.190433937142651" cx="33.74247113697989" cy="29.87303346303284"></circle><circle class="pearl" r="2.190433937142651" cx="3.788525504185259" cy="22.343736665541265"></circle><circle class="pearl" r="2.190433937142651" cx="32.18050534208177" cy="7.787706818962306"></circle><circle class="pearl" r="2.190433937142651" cx="20.00567962395882" cy="36.34927596497569"></circle></g><g class="bobaCup bright" cupRadius="16.485022460104837" width="32.97004492020967" height="32.97004492020967" pearlRadius="2.738042421428314" pearlCount="14" transform="translate(127.77741514450389,239.0387173264925)"><circle class="pool" r="16.485022460104837" cx="16.485022460104837" cy="16.485022460104837" style="stroke-width: 1; fill: rgb(127, 205, 187);"></circle><circle class="pearl" r="2.1904339371426516" cx="20.419292137465344" cy="12.266274841127526"></circle><circle class="pearl" r="2.1904339371426516" cx="12.665408198047892" cy="20.809311406836535"></circle><circle class="pearl" r="2.1904339371426516" cx="12.46329626650637" cy="12.735283637795083"></circle><circle class="pearl" r="2.1904339371426516" cx="20.589009426930943" cy="20.237704723862468"></circle><circle class="pearl" r="2.1904339371426516" cx="5.230396792853058" cy="17.921327109885578"></circle><circle class="pearl" r="2.1904339371426516" cx="26.16572331876505" cy="6.792582780455984"></circle><circle class="pearl" r="2.1904339371426516" cx="14.88700196334356" cy="29.24168464183273"></circle><circle class="pearl" r="2.1904339371426516" cx="10.885882874183766" cy="4.630727100891754"></circle><circle class="pearl" r="2.1904339371426516" cx="28.25715007187186" cy="22.30667492884969"></circle><circle class="pearl" r="2.1904339371426516" cx="6.812664725707494" cy="26.183511244533054"></circle><circle class="pearl" r="2.1904339371426516" cx="18.826163979058176" cy="3.8178100993192285"></circle><circle class="pearl" r="2.1904339371426516" cx="22.78921202793101" cy="28.066277415705123"></circle><circle class="pearl" r="2.1904339371426516" cx="5.003406103636005" cy="9.94527749617888"></circle><circle class="pearl" r="2.1904339371426516" cx="29.1604934465937" cy="14.202184760594891"></circle></g><g class="bobaCup bright" cupRadius="16.437486567306685" width="32.87497313461337" height="32.87497313461337" pearlRadius="2.7380424214283137" pearlCount="14" transform="translate(265.430356625654,91.10520825366626)"><circle class="pool" r="16.437486567306685" cx="16.437486567306685" cy="16.437486567306685" style="stroke-width: 1; fill: rgb(65, 182, 196);"></circle><circle class="pearl" r="2.190433937142651" cx="20.412560800847416" cy="12.316120383158294"></circle><circle class="pearl" r="2.190433937142651" cx="12.520036843783005" cy="20.620992130980504"></circle><circle class="pearl" r="2.190433937142651" cx="12.461143944310905" cy="12.648847881654103"></circle><circle class="pearl" r="2.190433937142651" cx="20.455111913981" cy="20.287262483096992"></circle><circle class="pearl" r="2.190433937142651" cx="4.984008448088338" cy="17.982702067707393"></circle><circle class="pearl" r="2.190433937142651" cx="26.08033810559583" cy="6.776321167253265"></circle><circle class="pearl" r="2.190433937142651" cx="14.678568446885722" cy="29.129871112229676"></circle><circle class="pearl" r="2.190433937142651" cx="10.796806834273642" cy="4.648854343018414"></circle><circle class="pearl" r="2.190433937142651" cx="28.129880876987993" cy="22.33491896265972"></circle><circle class="pearl" r="2.190433937142651" cx="6.806779487086866" cy="26.107440715858413"></circle><circle class="pearl" r="2.190433937142651" cx="18.735445158903467" cy="3.8121429810206173"></circle><circle class="pearl" r="2.190433937142651" cx="22.591989072850406" cy="28.02858290070535"></circle><circle class="pearl" r="2.190433937142651" cx="4.962513892353975" cy="10.002870177457856"></circle><circle class="pearl" r="2.190433937142651" cx="29.069961640976526" cy="14.190618146529483"></circle></g><g class="bobaCup bright" cupRadius="15.842652704358764" width="31.68530540871753" height="31.68530540871753" pearlRadius="2.7380424214283146" pearlCount="13" transform="translate(225.94160408137103,56.53697333042316)"><circle class="pool" r="15.842652704358764" cx="15.842652704358764" cy="15.842652704358764" style="stroke-width: 1; fill: rgb(65, 182, 196);"></circle><circle class="pearl" r="2.1904339371426516" cx="20.42219866887616" cy="18.086753046937208"></circle><circle class="pearl" r="2.1904339371426516" cx="13.263260008912358" cy="20.78869967327612"></circle><circle class="pearl" r="2.1904339371426516" cx="17.159132173415262" cy="11.02718368916575"></circle><circle class="pearl" r="2.1904339371426516" cx="24.270880212250617" cy="25.60664623709655"></circle><circle class="pearl" r="2.1904339371426516" cx="9.823876646358569" cy="13.673441539519596"></circle><circle class="pearl" r="2.1904339371426516" cx="27.213494235970675" cy="10.808545348873142"></circle><circle class="pearl" r="2.1904339371426516" cx="6.994955586836385" cy="25.3337672630803"></circle><circle class="pearl" r="2.1904339371426516" cx="14.060341052849099" cy="3.751298246429287"></circle><circle class="pearl" r="2.1904339371426516" cx="27.77268772252896" cy="18.711383637633908"></circle><circle class="pearl" r="2.1904339371426516" cx="3.8933415880981608" cy="18.60463987865878"></circle><circle class="pearl" r="2.1904339371426516" cx="22.056672334826562" cy="4.92026354253476"></circle><circle class="pearl" r="2.1904339371426516" cx="16.658942689958906" cy="28.01353860287507"></circle><circle class="pearl" r="2.1904339371426516" cx="6.713299839179286" cy="6.545613154211462"></circle></g><g class="bobaCup bright" cupRadius="15.650297759694569" width="31.300595519389137" height="31.300595519389137" pearlRadius="2.738042421428314" pearlCount="12" transform="translate(30.484803514821735,108.18724904068128)"><circle class="pool" r="15.650297759694569" cx="15.650297759694569" cy="15.650297759694569" style="stroke-width: 1; fill: rgb(29, 145, 192);"></circle><circle class="pearl" r="2.1904339371426516" cx="17.360351973619352" cy="11.289602735087026"></circle><circle class="pearl" r="2.1904339371426516" cx="11.294241676043809" cy="17.404044444155886"></circle><circle class="pearl" r="2.1904339371426516" cx="14.127123601871657" cy="3.9776990482337915"></circle><circle class="pearl" r="2.1904339371426516" cx="19.108551776101923" cy="19.09066006606887"></circle><circle class="pearl" r="2.1904339371426516" cx="3.998703005096546" cy="14.134212206475343"></circle><circle class="pearl" r="2.1904339371426516" cx="27.19532695102286" cy="11.905844747541384"></circle><circle class="pearl" r="2.1904339371426516" cx="11.995312710545111" cy="27.21709417979142"></circle><circle class="pearl" r="2.1904339371426516" cx="6.560824129969387" cy="6.560797713078072"></circle><circle class="pearl" r="2.1904339371426516" cx="27.061913240053894" cy="19.89974155677642"></circle><circle class="pearl" r="2.1904339371426516" cx="5.358697135503739" cy="22.75968771606966"></circle><circle class="pearl" r="2.1904339371426516" cx="22.67155911724034" cy="5.314108930340382"></circle><circle class="pearl" r="2.1904339371426516" cx="19.988253962692873" cy="27.036660550295196"></circle></g><g class="bobaCup bright" cupRadius="15.615631083681489" width="31.231262167362978" height="31.231262167362978" pearlRadius="2.7380424214283137" pearlCount="12" transform="translate(97.40279239764752,202.9482985313106)"><circle class="pool" r="15.615631083681489" cx="15.615631083681489" cy="15.615631083681489" style="stroke-width: 1; fill: rgb(65, 182, 196);"></circle><circle class="pearl" r="2.190433937142651" cx="17.258038879298326" cy="11.22129237648108"></circle><circle class="pearl" r="2.190433937142651" cx="11.22343442175433" cy="17.281936890115677"></circle><circle class="pearl" r="2.190433937142651" cx="14.087417037306416" cy="3.881943022990783"></circle><circle class="pearl" r="2.190433937142651" cx="19.027220345641325" cy="19.017805596338356"></circle><circle class="pearl" r="2.190433937142651" cx="3.8928425360177257" cy="14.091241519061311"></circle><circle class="pearl" r="2.190433937142651" cx="27.14536349789468" cy="11.954797760638968"></circle><circle class="pearl" r="2.190433937142651" cx="12.003266303179021" cy="27.156970086230473"></circle><circle class="pearl" r="2.190433937142651" cx="6.551004366497036" cy="6.550990510152953"></circle><circle class="pearl" r="2.190433937142651" cx="26.967564871271616" cy="19.94786106338804"></circle><circle class="pearl" r="2.190433937142651" cx="5.357084858494828" cy="22.71352918131583"></circle><circle class="pearl" r="2.190433937142651" cx="22.66575244199623" cy="5.332807636166336"></circle><circle class="pearl" r="2.190433937142651" cx="19.995694165289827" cy="26.953669696662597"></circle></g><g class="bobaCup bright" cupRadius="15.322680280337494" width="30.645360560674987" height="30.645360560674987" pearlRadius="2.7380424214283137" pearlCount="12" transform="translate(4.677319719662506,88.92989253873085)"><circle class="pool" r="15.322680280337494" cx="15.322680280337494" cy="15.322680280337494" style="stroke-width: 1; fill: rgb(65, 182, 196);"></circle><circle class="pearl" r="2.190433937142651" cx="17.012206610659106" cy="10.810326229395542"></circle><circle class="pearl" r="2.190433937142651" cx="10.869024024241616" cy="16.831884977373573"></circle><circle class="pearl" r="2.190433937142651" cx="13.889530861565271" cy="3.717892579512725"></circle><circle class="pearl" r="2.190433937142651" cx="18.44791743721046" cy="18.483134695338332"></circle><circle class="pearl" r="2.190433937142651" cx="3.7200658294330857" cy="13.86658254689488"></circle><circle class="pearl" r="2.190433937142651" cx="26.801901039774368" cy="12.90001111324404"></circle><circle class="pearl" r="2.190433937142651" cx="12.490336767862942" cy="26.730587839483693"></circle><circle class="pearl" r="2.190433937142651" cx="6.491901574280085" cy="6.451347830303465"></circle><circle class="pearl" r="2.190433937142651" cx="25.974782998633263" cy="20.819379372254"></circle><circle class="pearl" r="2.190433937142651" cx="5.590516325367753" cy="22.784775268078015"></circle><circle class="pearl" r="2.190433937142651" cx="23.201120429164792" cy="5.831306575968631"></circle><circle class="pearl" r="2.190433937142651" cx="20.427582674910624" cy="26.119257924778122"></circle></g><g class="bobaCup bright" cupRadius="15.318347620781378" width="30.636695241562755" height="30.636695241562755" pearlRadius="2.7380424214283132" pearlCount="12" transform="translate(248.60018802483944,202.56090378675987)"><circle class="pool" r="15.318347620781378" cx="15.318347620781378" cy="15.318347620781378" style="stroke-width: 1; fill: rgb(127, 205, 187);"></circle><circle class="pearl" r="2.1904339371426507" cx="17.01140242192398" cy="10.806523144492472"></circle><circle class="pearl" r="2.1904339371426507" cx="10.866451904067764" cy="16.82623420201128"></circle><circle class="pearl" r="2.1904339371426507" cx="13.887655061857286" cy="3.7176809902957553"></circle><circle class="pearl" r="2.1904339371426507" cx="18.441931049245827" cy="18.47796664182395"></circle><circle class="pearl" r="2.1904339371426507" cx="3.719897252288244" cy="13.864222991425953"></circle><circle class="pearl" r="2.1904339371426507" cx="26.795188417402432" cy="12.908247935122915"></circle><circle class="pearl" r="2.1904339371426507" cx="12.48431794483709" cy="26.721529188872374"></circle><circle class="pearl" r="2.1904339371426507" cx="6.490989720762523" cy="6.449904489882944"></circle><circle class="pearl" r="2.1904339371426507" cx="25.962509989306135" cy="20.823619602894556"></circle><circle class="pearl" r="2.1904339371426507" cx="5.590140861082394" cy="22.77864293665637"></circle><circle class="pearl" r="2.1904339371426507" cx="23.206863250940042" cy="5.838073363104855"></circle><circle class="pearl" r="2.1904339371426507" cx="20.416743395172922" cy="26.112628177559916"></circle></g><g class="bobaCup bright" cupRadius="15.23606797248015" width="30.4721359449603" height="30.4721359449603" pearlRadius="2.7380424214283137" pearlCount="12" transform="translate(228.50706617215744,244.14632501935375)"><circle class="pool" r="15.23606797248015" cx="15.23606797248015" cy="15.23606797248015" style="stroke-width: 1; fill: rgb(29, 145, 192);"></circle><circle class="pearl" r="2.190433937142651" cx="16.965476908024257" cy="10.736101796560778"></circle><circle class="pearl" r="2.190433937142651" cx="10.84157622265385" cy="16.629074358848186"></circle><circle class="pearl" r="2.190433937142651" cx="13.847694579354417" cy="3.714112248957905"></circle><circle class="pearl" r="2.190433937142651" cx="18.323317234707098" cy="18.369430999048692"></circle><circle class="pearl" r="2.190433937142651" cx="3.716724623151407" cy="13.819435598107045"></circle><circle class="pearl" r="2.190433937142651" cx="26.66359333166388" cy="13.048789575040676"></circle><circle class="pearl" r="2.190433937142651" cx="12.263868817825932" cy="26.528697762797034"></circle><circle class="pearl" r="2.190433937142651" cx="6.472764355981644" cy="6.423153008809791"></circle><circle class="pearl" r="2.190433937142651" cx="25.72091713592324" cy="20.92143167343737"></circle><circle class="pearl" r="2.190433937142651" cx="5.487778693491721" cy="22.488945407284845"></circle><circle class="pearl" r="2.190433937142651" cx="23.26535935789083" cy="5.938113773985362"></circle><circle class="pearl" r="2.190433937142651" cx="20.158103155483904" cy="26.00447567886172"></circle></g><g class="bobaCup bright" cupRadius="15.213396016766179" width="30.426792033532358" height="30.426792033532358" pearlRadius="2.7380424214283137" pearlCount="12" transform="translate(295.75359830580544,51.156768876655605)"><circle class="pool" r="15.213396016766179" cx="15.213396016766179" cy="15.213396016766179" style="stroke-width: 1; fill: rgb(65, 182, 196);"></circle><circle class="pearl" r="2.190433937142651" cx="16.950900693701048" cy="10.716111697764173"></circle><circle class="pearl" r="2.190433937142651" cx="10.839303701220672" cy="16.556288443572814"></circle><circle class="pearl" r="2.190433937142651" cx="13.835497710169937" cy="3.7132508009332845"></circle><circle class="pearl" r="2.190433937142651" cx="18.289963665642137" cy="18.338519711071456"></circle><circle class="pearl" r="2.190433937142651" cx="3.7158245844465583" cy="13.807484486908335"></circle><circle class="pearl" r="2.190433937142651" cx="26.62792162843257" cy="13.095449902088003"></circle><circle class="pearl" r="2.190433937142651" cx="12.179203144394451" cy="26.470425535547918"></circle><circle class="pearl" r="2.190433937142651" cx="6.467401745306557" cy="6.416026918938309"></circle><circle class="pearl" r="2.190433937142651" cx="25.648531806634406" cy="20.96109069164314"></circle><circle class="pearl" r="2.190433937142651" cx="5.44228184312365" cy="22.375916460820548"></circle><circle class="pearl" r="2.190433937142651" cx="23.281958854139912" cy="5.966611265021509"></circle><circle class="pearl" r="2.190433937142651" cx="20.068540449405376" cy="25.980543327951292"></circle></g><g class="bobaCup bright" cupRadius="15.115713557323662" width="30.231427114647325" height="30.231427114647325" pearlRadius="2.738042421428314" pearlCount="11" transform="translate(217.7540811842388,78.38647960601799)"><circle class="pool" r="15.115713557323662" cx="15.115713557323662" cy="15.115713557323662" style="stroke-width: 1; fill: rgb(127, 205, 187);"></circle><circle class="pearl" r="2.1904339371426516" cx="19.438325931218575" cy="14.95877441055859"></circle><circle class="pearl" r="2.1904339371426516" cx="12.07162180868973" cy="17.92377849804119"></circle><circle class="pearl" r="2.1904339371426516" cx="13.805025755294722" cy="9.343067106421392"></circle><circle class="pearl" r="2.1904339371426516" cx="20.374555728072334" cy="25.127400741750765"></circle><circle class="pearl" r="2.1904339371426516" cx="4.953866778240602" cy="14.249733675768672"></circle><circle class="pearl" r="2.1904339371426516" cx="25.733105284024745" cy="10.125153271123619"></circle><circle class="pearl" r="2.1904339371426516" cx="12.513239672970553" cy="26.354984486854804"></circle><circle class="pearl" r="2.1904339371426516" cx="6.420929427999127" cy="6.401748140744617"></circle><circle class="pearl" r="2.1904339371426516" cx="25.93873470450721" cy="19.474098589921127"></circle><circle class="pearl" r="2.1904339371426516" cx="5.589845308192224" cy="22.522617996885145"></circle><circle class="pearl" r="2.1904339371426516" cx="20.127739252366815" cy="4.505847920799255"></circle></g><g class="bobaCup bright" cupRadius="14.863095476862426" width="29.726190953724853" height="29.726190953724853" pearlRadius="2.7380424214283137" pearlCount="11" transform="translate(42.043103693371904,83.81816867318118)"><circle class="pool" r="14.863095476862426" cx="14.863095476862426" cy="14.863095476862426" style="stroke-width: 1; fill: rgb(29, 145, 192);"></circle><circle class="pearl" r="2.190433937142651" cx="18.79929430503208" cy="15.027678600804187"></circle><circle class="pearl" r="2.190433937142651" cx="11.105348572057327" cy="16.621679880922375"></circle><circle class="pearl" r="2.190433937142651" cx="13.810650036563317" cy="8.908942491479978"></circle><circle class="pearl" r="2.190433937142651" cx="20.6585684161907" cy="24.899011739555878"></circle><circle class="pearl" r="2.190433937142651" cx="3.690350030319502" cy="13.77848329168191"></circle><circle class="pearl" r="2.190433937142651" cx="25.536053316673627" cy="10.895253770645398"></circle><circle class="pearl" r="2.190433937142651" cx="12.82255784651954" cy="25.934729849351132"></circle><circle class="pearl" r="2.190433937142651" cx="6.3786562987375" cy="6.310298762932202"></circle><circle class="pearl" r="2.190433937142651" cx="25.527309485901657" cy="18.8623677903722"></circle><circle class="pearl" r="2.190433937142651" cx="5.7625799646628675" cy="22.49968619066909"></circle><circle class="pearl" r="2.190433937142651" cx="20.56193104004969" cy="4.786660209295993"></circle></g><g class="bobaCup bright" cupRadius="14.778012056004751" width="29.556024112009503" height="29.556024112009503" pearlRadius="2.7380424214283137" pearlCount="11" transform="translate(34.64422096092913,277.7349951727003)"><circle class="pool" r="14.778012056004751" cx="14.778012056004751" cy="14.778012056004751" style="stroke-width: 1; fill: rgb(127, 205, 187);"></circle><circle class="pearl" r="2.190433937142651" cx="18.709815617871346" cy="14.980608137151071"></circle><circle class="pearl" r="2.190433937142651" cx="11.06722082253948" cy="16.606389170589573"></circle><circle class="pearl" r="2.190433937142651" cx="13.71892758366242" cy="8.924104147026288"></circle><circle class="pearl" r="2.190433937142651" cx="20.724166571730343" cy="24.656253562495177"></circle><circle class="pearl" r="2.190433937142651" cx="3.688572473358253" cy="13.721016017119108"></circle><circle class="pearl" r="2.190433937142651" cx="25.340732403824543" cy="10.732315326370314"></circle><circle class="pearl" r="2.190433937142651" cx="12.968547720327937" cy="25.794104403602045"></circle><circle class="pearl" r="2.190433937142651" cx="6.372917622059827" cy="6.2737351659460625"></circle><circle class="pearl" r="2.190433937142651" cx="25.38287221958669" cy="18.67262146861504"></circle><circle class="pearl" r="2.190433937142651" cx="5.88336029271583" cy="22.588467013370252"></circle><circle class="pearl" r="2.190433937142651" cx="20.37024452522744" cy="4.749679164448494"></circle></g><g class="bobaCup bright" cupRadius="14.604024127444443" width="29.208048254888887" height="29.208048254888887" pearlRadius="2.7380424214283137" pearlCount="11" transform="translate(114.87606845271536,169.27776512803607)"><circle class="pool" r="14.604024127444443" cx="14.604024127444443" cy="14.604024127444443" style="stroke-width: 1; fill: rgb(29, 145, 192);"></circle><circle class="pearl" r="2.190433937142651" cx="18.54305617227038" cy="14.949323116892094"></circle><circle class="pearl" r="2.190433937142651" cx="10.978279650489405" cy="16.569581652373195"></circle><circle class="pearl" r="2.190433937142651" cx="13.460189440907255" cy="9.143461137276118"></circle><circle class="pearl" r="2.190433937142651" cx="20.921147931308884" cy="24.12036084259765"></circle><circle class="pearl" r="2.190433937142651" cx="3.6866585482179755" cy="13.580154407654328"></circle><circle class="pearl" r="2.190433937142651" cx="24.90374436135029" cy="10.28399543364922"></circle><circle class="pearl" r="2.190433937142651" cx="13.314580789934537" cy="25.500288786210405"></circle><circle class="pearl" r="2.190433937142651" cx="6.371183834666509" cy="6.192497921163355"></circle><circle class="pearl" r="2.190433937142651" cx="25.11410340735782" cy="18.174625341621077"></circle><circle class="pearl" r="2.190433937142651" cx="6.164912089411535" cy="22.796301218788326"></circle><circle class="pearl" r="2.190433937142651" cx="19.752084260683493" cy="4.58818240429726"></circle></g><g class="bobaCup bright" cupRadius="14.512761747064333" width="29.025523494128667" height="29.025523494128667" pearlRadius="2.738042421428314" pearlCount="11" transform="translate(60.325807864357145,28.07140137883384)"><circle class="pool" r="14.512761747064333" cx="14.512761747064333" cy="14.512761747064333" style="stroke-width: 1; fill: rgb(127, 205, 187);"></circle><circle class="pearl" r="2.1904339371426516" cx="18.451336120285244" cy="14.894724574829457"></circle><circle class="pearl" r="2.1904339371426516" cx="10.944418913159335" cy="16.5908122417738"></circle><circle class="pearl" r="2.1904339371426516" cx="13.323141001743968" cy="9.205673107915139"></circle><circle class="pearl" r="2.1904339371426516" cx="21.028198879405185" cy="23.83005041321203"></circle><circle class="pearl" r="2.1904339371426516" cx="3.684928839163691" cy="13.51693760089661"></circle><circle class="pearl" r="2.1904339371426516" cx="24.663253562455072" cy="10.024252324396763"></circle><circle class="pearl" r="2.1904339371426516" cx="13.471507505907645" cy="25.33739838042162"></circle><circle class="pearl" r="2.1904339371426516" cx="6.369458844012913" cy="6.150705473946058"></circle><circle class="pearl" r="2.1904339371426516" cx="24.980907618574797" cy="17.871003677273684"></circle><circle class="pearl" r="2.1904339371426516" cx="6.281535868998567" cy="22.814744240266634"></circle><circle class="pearl" r="2.1904339371426516" cx="19.433659946517583" cy="4.510462803322376"></circle></g><g class="bobaCup bright" cupRadius="14.456299013093599" width="28.912598026187197" height="28.912598026187197" pearlRadius="2.7380424214283137" pearlCount="10" transform="translate(277.979595524415,10.455509413356324)"><circle class="pool" r="14.456299013093599" cx="14.456299013093599" cy="14.456299013093599" style="stroke-width: 1; fill: rgb(65, 182, 196);"></circle><circle class="pearl" r="2.190433937142651" cx="18.18055347383812" cy="12.716906846440708"></circle><circle class="pearl" r="2.190433937142651" cx="11.237933438296267" cy="16.51847988377581"></circle><circle class="pearl" r="2.190433937142651" cx="14.68339802950084" cy="5.537802068176949"></circle><circle class="pearl" r="2.190433937142651" cx="21.38076060417396" cy="23.49558811034883"></circle><circle class="pearl" r="2.190433937142651" cx="3.867083928148642" cy="13.384714200575223"></circle><circle class="pearl" r="2.190433937142651" cx="22.659835150558262" cy="6.203805197634852"></circle><circle class="pearl" r="2.190433937142651" cx="13.632949019583" cy="25.238409045672487"></circle><circle class="pearl" r="2.190433937142651" cx="6.696900772922081" cy="5.909632352577997"></circle><circle class="pearl" r="2.190433937142651" cx="25.111954897391136" cy="16.532858146575553"></circle><circle class="pearl" r="2.190433937142651" cx="6.2013753606998865" cy="22.656308372950704"></circle></g><g class="bobaCup bright" cupRadius="14.043021519194877" width="28.086043038389754" height="28.086043038389754" pearlRadius="2.738042421428314" pearlCount="10" transform="translate(209.48231763187573,39.190685122435454)"><circle class="pool" r="14.043021519194877" cx="14.043021519194877" cy="14.043021519194877" style="stroke-width: 1; fill: rgb(65, 182, 196);"></circle><circle class="pearl" r="2.1904339371426516" cx="17.297091914659003" cy="11.855146684859605"></circle><circle class="pearl" r="2.1904339371426516" cx="11.12832684577801" cy="16.141233042758852"></circle><circle class="pearl" r="2.1904339371426516" cx="14.188196601636927" cy="4.391407235659884"></circle><circle class="pearl" r="2.1904339371426516" cx="21.421012699679164" cy="22.341009498501673"></circle><circle class="pearl" r="2.1904339371426516" cx="3.666555985021303" cy="13.376366583789494"></circle><circle class="pearl" r="2.1904339371426516" cx="21.80043670928886" cy="5.987807666221848"></circle><circle class="pearl" r="2.1904339371426516" cx="13.728129340238256" cy="24.431788890506763"></circle><circle class="pearl" r="2.1904339371426516" cx="6.359022456456389" cy="5.939485443479519"></circle><circle class="pearl" r="2.1904339371426516" cx="24.399854862302004" cy="15.04042428628794"></circle><circle class="pearl" r="2.1904339371426516" cx="6.2792185277574415" cy="22.093999726685023"></circle></g><g class="bobaCup bright" cupRadius="13.507042994217944" width="27.014085988435887" height="27.014085988435887" pearlRadius="2.7380424214283146" pearlCount="9" transform="translate(80.31698625425038,45.18563181933625)"><circle class="pool" r="13.507042994217944" cx="13.507042994217944" cy="13.507042994217944" style="stroke-width: 1; fill: rgb(65, 182, 196);"></circle><circle class="pearl" r="2.1904339371426516" cx="16.402661173995956" cy="11.571824776509393"></circle><circle class="pearl" r="2.1904339371426516" cx="10.402017654382805" cy="15.988670474689256"></circle><circle class="pearl" r="2.1904339371426516" cx="13.593596568689843" cy="3.651000550489898"></circle><circle class="pearl" r="2.1904339371426516" cx="19.392135984383366" cy="22.013864375672267"></circle><circle class="pearl" r="2.1904339371426516" cx="3.6556452903092174" cy="13.142432555060592"></circle><circle class="pearl" r="2.1904339371426516" cx="20.87194431788218" cy="5.835291275131126"></circle><circle class="pearl" r="2.1904339371426516" cx="11.610822943432234" cy="23.22959759745198"></circle><circle class="pearl" r="2.1904339371426516" cx="6.061681929272884" cy="5.888036454056675"></circle><circle class="pearl" r="2.1904339371426516" cx="23.252661479840718" cy="15.23280054503486"></circle></g><g class="bobaCup bright" cupRadius="13.477220218120898" width="26.954440436241796" height="26.954440436241796" pearlRadius="2.738042421428314" pearlCount="9" transform="translate(281.80444996052995,118.19118306919069)"><circle class="pool" r="13.477220218120898" cx="13.477220218120898" cy="13.477220218120898" style="stroke-width: 1; fill: rgb(29, 145, 192);"></circle><circle class="pearl" r="2.1904339371426516" cx="16.168027551240268" cy="11.45148421389962"></circle><circle class="pearl" r="2.1904339371426516" cx="10.31110076549789" cy="16.11084023307611"></circle><circle class="pearl" r="2.1904339371426516" cx="13.579461453805811" cy="3.6511110467007915"></circle><circle class="pearl" r="2.1904339371426516" cx="19.75178735972571" cy="21.753997649504516"></circle><circle class="pearl" r="2.1904339371426516" cx="3.6552956788658997" cy="13.126183280153462"></circle><circle class="pearl" r="2.1904339371426516" cx="20.83695831564206" cy="5.83769455910663"></circle><circle class="pearl" r="2.1904339371426516" cx="12.024738971576358" cy="23.22521942999775"></circle><circle class="pearl" r="2.1904339371426516" cx="6.058193949603625" cy="5.876565129580014"></circle><circle class="pearl" r="2.1904339371426516" cx="23.242299979280023" cy="14.7624030644399"></circle></g><g class="bobaCup bright" cupRadius="13.387033838842147" width="26.774067677684293" height="26.774067677684293" pearlRadius="2.738042421428314" pearlCount="9" transform="translate(236.13388850414051,164.61156696484966)"><circle class="pool" r="13.387033838842147" cx="13.387033838842147" cy="13.387033838842147" style="stroke-width: 1; fill: rgb(65, 182, 196);"></circle><circle class="pearl" r="2.1904339371426516" cx="15.49430340079657" cy="11.285421038734452"></circle><circle class="pearl" r="2.1904339371426516" cx="10.030434137789722" cy="16.687062938889245"></circle><circle class="pearl" r="2.1904339371426516" cx="13.481334705784551" cy="3.6510553695042725"></circle><circle class="pearl" r="2.1904339371426516" cx="20.835543824558737" cy="20.859816082692287"></circle><circle class="pearl" r="2.1904339371426516" cx="3.652884172561571" cy="13.14650818330825"></circle><circle class="pearl" r="2.1904339371426516" cx="20.730497972820014" cy="5.844624819678222"></circle><circle class="pearl" r="2.1904339371426516" cx="13.5135105637752" cy="23.122746978489264"></circle><circle class="pearl" r="2.1904339371426516" cx="6.0350046678322045" cy="5.850248762570567"></circle><circle class="pearl" r="2.1904339371426516" cx="23.123227984229242" cy="13.331192768640273"></circle></g><g class="bobaCup bright" cupRadius="13.302427239092347" width="26.604854478184695" height="26.604854478184695" pearlRadius="2.7380424214283146" pearlCount="9" transform="translate(87.35591554008323,77.21576099530706)"><circle class="pool" r="13.302427239092347" cx="13.302427239092347" cy="13.302427239092347" style="stroke-width: 1; fill: rgb(127, 205, 187);"></circle><circle class="pearl" r="2.1904339371426516" cx="15.341875852147057" cy="11.259838483036994"></circle><circle class="pearl" r="2.1904339371426516" cx="9.912299138592182" cy="16.684791760466013"></circle><circle class="pearl" r="2.1904339371426516" cx="13.371935467814628" cy="3.6509048280172474"></circle><circle class="pearl" r="2.1904339371426516" cx="20.677614256247065" cy="20.72243961902256"></circle><circle class="pearl" r="2.1904339371426516" cx="3.6519194570201536" cy="13.124034266003013"></circle><circle class="pearl" r="2.1904339371426516" cx="20.56602375010209" cy="5.808881259833197"></circle><circle class="pearl" r="2.1904339371426516" cx="13.456273231602472" cy="22.95324158562643"></circle><circle class="pearl" r="2.1904339371426516" cx="6.015466125643132" cy="5.82414475365533"></circle><circle class="pearl" r="2.1904339371426516" cx="22.95406883756669" cy="13.261678502538837"></circle></g><g class="bobaCup bright" cupRadius="12.636163420308746" width="25.27232684061749" height="25.27232684061749" pearlRadius="2.738042421428314" pearlCount="8" transform="translate(234.20477348431928,149.04745101105476)"><circle class="pool" r="12.636163420308746" cx="12.636163420308746" cy="12.636163420308746" style="stroke-width: 1; fill: rgb(127, 205, 187);"></circle><circle class="pearl" r="2.1904339371426516" cx="14.044273782630071" cy="12.842798533565025"></circle><circle class="pearl" r="2.1904339371426516" cx="6.372228409412943" cy="19.60921754859098"></circle><circle class="pearl" r="2.1904339371426516" cx="15.090697939694532" cy="3.89140818784847"></circle><circle class="pearl" r="2.1904339371426516" cx="20.798823296046365" cy="17.121317332448495"></circle><circle class="pearl" r="2.1904339371426516" cx="3.6626232217353274" cy="12.087894410779166"></circle><circle class="pearl" r="2.1904339371426516" cx="21.126332571447303" cy="9.133113576378861"></circle><circle class="pearl" r="2.1904339371426516" cx="14.131947753514382" cy="21.532760830554754"></circle><circle class="pearl" r="2.1904339371426516" cx="7.1598217870771785" cy="4.8990726224354475"></circle></g><g class="bobaCup bright" cupRadius="12.485151111499695" width="24.97030222299939" height="24.97030222299939" pearlRadius="2.7380424214283137" pearlCount="8" transform="translate(57.82774996298432,109.93330623453362)"><circle class="pool" r="12.485151111499695" cx="12.485151111499695" cy="12.485151111499695" style="stroke-width: 1; fill: rgb(127, 205, 187);"></circle><circle class="pearl" r="2.190433937142651" cx="13.693386418843698" cy="12.781934097824507"></circle><circle class="pearl" r="2.190433937142651" cx="5.71146626665039" cy="19.32233481899745"></circle><circle class="pearl" r="2.190433937142651" cx="15.270974095512097" cy="3.9654927281931016"></circle><circle class="pearl" r="2.190433937142651" cx="20.302412861210758" cy="17.421173681836777"></circle><circle class="pearl" r="2.190433937142651" cx="3.6731856453560496" cy="11.736559917581614"></circle><circle class="pearl" r="2.190433937142651" cx="20.949377561324685" cy="9.467371701583696"></circle><circle class="pearl" r="2.190433937142651" cx="13.389448585360094" cy="21.286786870516135"></circle><circle class="pearl" r="2.190433937142651" cx="7.361271320839" cy="4.7505832077439045"></circle></g><g class="bobaCup bright" cupRadius="12.329349090008384" width="24.658698180016767" height="24.658698180016767" pearlRadius="2.7380424214283137" pearlCount="8" transform="translate(222.69930194276006,31.734960631926924)"><circle class="pool" r="12.329349090008384" cx="12.329349090008384" cy="12.329349090008384" style="stroke-width: 1; fill: rgb(127, 205, 187);"></circle><circle class="pearl" r="2.190433937142651" cx="13.425066008462672" cy="12.648280606602665"></circle><circle class="pearl" r="2.190433937142651" cx="5.716055537108678" cy="19.084258824715686"></circle><circle class="pearl" r="2.190433937142651" cx="15.011701055320414" cy="3.946044027210146"></circle><circle class="pearl" r="2.190433937142651" cx="20.00095357971983" cy="17.209691703299136"></circle><circle class="pearl" r="2.190433937142651" cx="3.6669722624631422" cy="11.696564773389632"></circle><circle class="pearl" r="2.190433937142651" cx="20.627456469364738" cy="9.2898925454355"></circle><circle class="pearl" r="2.190433937142651" cx="13.221548101601545" cy="20.975651107691075"></circle><circle class="pearl" r="2.190433937142651" cx="7.180537901645882" cy="4.777278366627854"></circle></g><g class="bobaCup bright" cupRadius="12.28082476352924" width="24.56164952705848" height="24.56164952705848" pearlRadius="2.738042421428314" pearlCount="8" transform="translate(56.11718664690818,90.1046927552248)"><circle class="pool" r="12.28082476352924" cx="12.28082476352924" cy="12.28082476352924" style="stroke-width: 1; fill: rgb(127, 205, 187);"></circle><circle class="pearl" r="2.1904339371426516" cx="13.346527093185879" cy="12.601412270752187"></circle><circle class="pearl" r="2.1904339371426516" cx="5.7227545644146804" cy="19.013278897210935"></circle><circle class="pearl" r="2.1904339371426516" cx="14.896326615817173" cy="3.932472738848873"></circle><circle class="pearl" r="2.1904339371426516" cx="19.920589327695176" cy="17.11234028917638"></circle><circle class="pearl" r="2.1904339371426516" cx="3.664209012389794" cy="11.705454248654194"></circle><circle class="pearl" r="2.1904339371426516" cx="20.518253548660272" cy="9.200159482843365"></circle><circle class="pearl" r="2.1904339371426516" cx="13.190821090530862" cy="20.87716500165729"></circle><circle class="pearl" r="2.1904339371426516" cx="7.09316463299935" cy="4.800203093903001"></circle></g><g class="bobaCup bright" cupRadius="12.173675346325759" width="24.347350692651517" height="24.347350692651517" pearlRadius="2.7380424214283137" pearlCount="7" transform="translate(265.43144643630393,271.2558195114161)"><circle class="pool" r="12.173675346325759" cx="12.173675346325759" cy="12.173675346325759" style="stroke-width: 1; fill: rgb(29, 145, 192);"></circle><circle class="pearl" r="2.190433937142651" cx="13.755941887078587" cy="12.472899741675988"></circle><circle class="pearl" r="2.190433937142651" cx="5.626065052782287" cy="14.81019747141388"></circle><circle class="pearl" r="2.190433937142651" cx="12.202717366018678" cy="3.6507578705376194"></circle><circle class="pearl" r="2.190433937142651" cx="18.830113041741168" cy="18.651391388634615"></circle><circle class="pearl" r="2.190433937142651" cx="4.876261419951458" cy="6.8504559938808525"></circle><circle class="pearl" r="2.190433937142651" cx="19.50142375917257" cy="6.9133016090022785"></circle><circle class="pearl" r="2.190433937142651" cx="11.088462814353456" cy="20.648160783925736"></circle></g><g class="bobaCup bright" cupRadius="12.148315692149328" width="24.296631384298657" height="24.296631384298657" pearlRadius="2.7380424214283146" pearlCount="7" transform="translate(237.5842164807942,11.404050887270312)"><circle class="pool" r="12.148315692149328" cx="12.148315692149328" cy="12.148315692149328" style="stroke-width: 1; fill: rgb(65, 182, 196);"></circle><circle class="pearl" r="2.1904339371426516" cx="13.67854017909343" cy="12.452619858696092"></circle><circle class="pearl" r="2.1904339371426516" cx="5.524379782526336" cy="14.818552740269649"></circle><circle class="pearl" r="2.1904339371426516" cx="12.19312863504233" cy="3.6508058822793563"></circle><circle class="pearl" r="2.1904339371426516" cx="18.79200653981369" cy="18.598634520170705"></circle><circle class="pearl" r="2.1904339371426516" cx="4.866684390488188" cy="6.850655965304605"></circle><circle class="pearl" r="2.1904339371426516" cx="19.4764383537283" cy="6.947689087935491"></circle><circle class="pearl" r="2.1904339371426516" cx="11.050552495874918" cy="20.59620767859467"></circle></g><g class="bobaCup bright" cupRadius="12.02209080593721" width="24.04418161187442" height="24.04418161187442" pearlRadius="2.7380424214283137" pearlCount="7" transform="translate(212.20303315448038,270.1068760566045)"><circle class="pool" r="12.02209080593721" cx="12.02209080593721" cy="12.02209080593721" style="stroke-width: 1; fill: rgb(127, 205, 187);"></circle><circle class="pearl" r="2.190433937142651" cx="13.30624016769955" cy="12.34934223017623"></circle><circle class="pearl" r="2.190433937142651" cx="5.033721029410468" cy="14.85689416117191"></circle><circle class="pearl" r="2.190433937142651" cx="12.133663356006153" cy="3.6512409713742073"></circle><circle class="pearl" r="2.190433937142651" cx="18.597836169855025" cy="18.342692634326504"></circle><circle class="pearl" r="2.190433937142651" cx="4.813072335137814" cy="6.864894128559669"></circle><circle class="pearl" r="2.190433937142651" cx="19.34296358902532" cy="7.1073427652799825"></circle><circle class="pearl" r="2.190433937142651" cx="10.855430781989357" cy="20.336716370223023"></circle></g><g class="bobaCup bright" cupRadius="11.850557358423874" width="23.701114716847748" height="23.701114716847748" pearlRadius="2.7380424214283137" pearlCount="7" transform="translate(220.14235214771026,20.889482998410504)"><circle class="pool" r="11.850557358423874" cx="11.850557358423874" cy="11.850557358423874" style="stroke-width: 1; fill: rgb(29, 145, 192);"></circle><circle class="pearl" r="2.190433937142651" cx="12.826432730106474" cy="12.204200020498329"></circle><circle class="pearl" r="2.190433937142651" cx="4.40602797133385" cy="14.898749575160492"></circle><circle class="pearl" r="2.190433937142651" cx="12.030624399844575" cy="3.652091350347238"></circle><circle class="pearl" r="2.190433937142651" cx="18.324934849365718" cy="18.00832035524447"></circle><circle class="pearl" r="2.190433937142651" cx="4.729610782248477" cy="6.9102295026224905"></circle><circle class="pearl" r="2.190433937142651" cx="19.143228566347215" cy="7.303269385071288"></circle><circle class="pearl" r="2.190433937142651" cx="10.577245444151707" cy="19.981785855872836"></circle></g><g class="bobaCup bright" cupRadius="11.688430388658123" width="23.376860777316246" height="23.376860777316246" pearlRadius="2.738042421428315" pearlCount="7" transform="translate(163.04114804257088,17.604777355957754)"><circle class="pool" r="11.688430388658123" cx="11.688430388658123" cy="11.688430388658123" style="stroke-width: 1; fill: rgb(65, 182, 196);"></circle><circle class="pearl" r="2.190433937142652" cx="12.2294134855032" cy="11.8700869991889"></circle><circle class="pearl" r="2.190433937142652" cx="4.0738681733012445" cy="14.804958716354088"></circle><circle class="pearl" r="2.190433937142652" cx="12.038309086092319" cy="3.6559609950223653"></circle><circle class="pearl" r="2.190433937142652" cx="18.14040763809348" cy="17.56676756869425"></circle><circle class="pearl" r="2.190433937142652" cx="4.7056721108936586" cy="6.835753188912967"></circle><circle class="pearl" r="2.190433937142652" cx="18.988491431452218" cy="7.60190022328217"></circle><circle class="pearl" r="2.190433937142652" cx="10.42468626037974" cy="19.657619196275114"></circle></g><g class="bobaCup bright" cupRadius="11.295637309962302" width="22.591274619924604" height="22.591274619924604" pearlRadius="2.738042421428314" pearlCount="6" transform="translate(84.35356594091535,65.48033958190473)"><circle class="pool" r="11.295637309962302" cx="11.295637309962302" cy="11.295637309962302" style="stroke-width: 1; fill: rgb(127, 205, 187);"></circle><circle class="pearl" r="2.1904339371426516" cx="11.766357360541262" cy="11.428832350994128"></circle><circle class="pearl" r="2.1904339371426516" cx="6.268459342564254" cy="17.232751010955752"></circle><circle class="pearl" r="2.1904339371426516" cx="9.294771068602634" cy="3.829348506408945"></circle><circle class="pearl" r="2.1904339371426516" cx="17.24538369372878" cy="17.246577489731987"></circle><circle class="pearl" r="2.1904339371426516" cx="3.776936058051233" cy="9.611778939131089"></circle><circle class="pearl" r="2.1904339371426516" cx="17.24501456881859" cy="5.3444684088531105"></circle></g><g class="bobaCup bright" cupRadius="11.19162803244901" width="22.38325606489802" height="22.38325606489802" pearlRadius="2.7380424214283137" pearlCount="6" transform="translate(258.58812640652394,213.07954315846018)"><circle class="pool" r="11.19162803244901" cx="11.19162803244901" cy="11.19162803244901" style="stroke-width: 1; fill: rgb(65, 182, 196);"></circle><circle class="pearl" r="2.190433937142651" cx="11.524389046596555" cy="11.405001709990195"></circle><circle class="pearl" r="2.190433937142651" cx="6.143125188993815" cy="17.38435548397068"></circle><circle class="pearl" r="2.190433937142651" cx="9.039842476766124" cy="3.859530269168639"></circle><circle class="pearl" r="2.190433937142651" cx="17.05091416620325" cy="17.07617113573745"></circle><circle class="pearl" r="2.190433937142651" cx="3.7408568239991506" cy="9.774109326578959"></circle><circle class="pearl" r="2.190433937142651" cx="17.06632355540781" cy="5.316570950241017"></circle></g><g class="bobaCup bright" cupRadius="11.159421884924601" width="22.318843769849202" height="22.318843769849202" pearlRadius="2.7380424214283146" pearlCount="6" transform="translate(161.8293534240347,77.62000575313115)"><circle class="pool" r="11.159421884924601" cx="11.159421884924601" cy="11.159421884924601" style="stroke-width: 1; fill: rgb(127, 205, 187);"></circle><circle class="pearl" r="2.1904339371426516" cx="11.51639436348884" cy="11.355055074639676"></circle><circle class="pearl" r="2.1904339371426516" cx="6.1666734264032055" cy="17.4421209565761"></circle><circle class="pearl" r="2.1904339371426516" cx="8.916751680883568" cy="3.878396526849511"></circle><circle class="pearl" r="2.1904339371426516" cx="16.9871820228848" cy="17.02552105567023"></circle><circle class="pearl" r="2.1904339371426516" cx="3.7276053554457116" cy="9.851748639432548"></circle><circle class="pearl" r="2.1904339371426516" cx="17.011229311538177" cy="5.308387108664084"></circle></g><g class="bobaCup bright" cupRadius="11.128673105693665" width="22.25734621138733" height="22.25734621138733" pearlRadius="2.738042421428314" pearlCount="6" transform="translate(74.87732697421954,101.13602345721377)"><circle class="pool" r="11.128673105693665" cx="11.128673105693665" cy="11.128673105693665" style="stroke-width: 1; fill: rgb(29, 145, 192);"></circle><circle class="pearl" r="2.1904339371426516" cx="11.509579594525729" cy="11.303578212829745"></circle><circle class="pearl" r="2.1904339371426516" cx="6.228059583978218" cy="17.469513929070065"></circle><circle class="pearl" r="2.1904339371426516" cx="8.796952989390114" cy="3.897739916576548"></circle><circle class="pearl" r="2.1904339371426516" cx="16.926780237848117" cy="16.9768613293601"></circle><circle class="pearl" r="2.1904339371426516" cx="3.7162529258548855" cy="9.92276140977774"></circle><circle class="pearl" r="2.1904339371426516" cx="16.958722803217984" cy="5.300954013526825"></circle></g><g class="bobaCup bright" cupRadius="11.047137361119441" width="22.094274722238882" height="22.094274722238882" pearlRadius="2.7380424214283146" pearlCount="6" transform="translate(108.08682166792433,288.95286263888056)"><circle class="pool" r="11.047137361119441" cx="11.047137361119441" cy="11.047137361119441" style="stroke-width: 1; fill: rgb(127, 205, 187);"></circle><circle class="pearl" r="2.1904339371426516" cx="11.468014761514814" cy="11.194098202573786"></circle><circle class="pearl" r="2.1904339371426516" cx="6.519796127528016" cy="17.473240281195753"></circle><circle class="pearl" r="2.1904339371426516" cx="8.52358183056214" cy="3.94281938290593"></circle><circle class="pearl" r="2.1904339371426516" cx="16.76594368202861" cy="16.84810700416508"></circle><circle class="pearl" r="2.1904339371426516" cx="3.693452698057496" cy="10.076441306730786"></circle><circle class="pearl" r="2.1904339371426516" cx="16.812969513099503" cy="5.274781290935052"></circle></g><g class="bobaCup bright" cupRadius="10.954404969339288" width="21.908809938678576" height="21.908809938678576" pearlRadius="2.7380424214283146" pearlCount="6" transform="translate(294.43921568713864,105.5982785296257)"><circle class="pool" r="10.954404969339288" cx="10.954404969339288" cy="10.954404969339288" style="stroke-width: 1; fill: rgb(65, 182, 196);"></circle><circle class="pearl" r="2.1904339371426516" cx="11.343312484360675" cy="11.174830716136775"></circle><circle class="pearl" r="2.1904339371426516" cx="6.013870704944159" cy="17.080701195316863"></circle><circle class="pearl" r="2.1904339371426516" cx="8.87861527620004" cy="3.849195631082792"></circle><circle class="pearl" r="2.1904339371426516" cx="16.57878155960751" cy="16.703967704669946"></circle><circle class="pearl" r="2.1904339371426516" cx="3.7390410628186848" cy="9.566190791022358"></circle><circle class="pearl" r="2.1904339371426516" cx="16.650007656723105" cy="5.247826329329265"></circle></g><g class="bobaCup bright" cupRadius="10.79241907176447" width="21.58483814352894" height="21.58483814352894" pearlRadius="2.7380424214283146" pearlCount="6" transform="translate(192.00567324543152,164.3918517390232)"><circle class="pool" r="10.79241907176447" cx="10.79241907176447" cy="10.79241907176447" style="stroke-width: 1; fill: rgb(29, 145, 192);"></circle><circle class="pearl" r="2.1904339371426516" cx="11.123948970405406" cy="11.05931051297584"></circle><circle class="pearl" r="2.1904339371426516" cx="5.460030321801474" cy="16.52476248687942"></circle><circle class="pearl" r="2.1904339371426516" cx="8.86510655788501" cy="3.8242075188036013"></circle><circle class="pearl" r="2.1904339371426516" cx="16.265567203265864" cy="16.443360154015846"></circle><circle class="pearl" r="2.1904339371426516" cx="3.7832470980117465" cy="9.106315962207024"></circle><circle class="pearl" r="2.1904339371426516" cx="16.36942354565238" cy="5.2033733357553436"></circle></g><g class="bobaCup bright" cupRadius="10.731729601922337" width="21.463459203844675" height="21.463459203844675" pearlRadius="2.7380424214283137" pearlCount="6" transform="translate(36.98220815108791,155.02814799578263)"><circle class="pool" r="10.731729601922337" cx="10.731729601922337" cy="10.731729601922337" style="stroke-width: 1; fill: rgb(127, 205, 187);"></circle><circle class="pearl" r="2.190433937142651" cx="11.046704727114875" cy="11.01523575659729"></circle><circle class="pearl" r="2.190433937142651" cx="5.295919860059369" cy="16.334221636114993"></circle><circle class="pearl" r="2.190433937142651" cx="8.854852417045384" cy="3.8161217604547524"></circle><circle class="pearl" r="2.190433937142651" cx="16.1477342632271" cy="16.345827675324717"></circle><circle class="pearl" r="2.190433937142651" cx="3.799100743474071" cy="8.953337392380444"></circle><circle class="pearl" r="2.190433937142651" cx="16.26330980483865" cy="5.18616875987661"></circle></g><g class="bobaCup bright" cupRadius="10.66104540595812" width="21.32209081191624" height="21.32209081191624" pearlRadius="2.7380424214283146" pearlCount="6" transform="translate(94.01720585788841,83.08743174150842)"><circle class="pool" r="10.66104540595812" cx="10.66104540595812" cy="10.66104540595812" style="stroke-width: 1; fill: rgb(29, 145, 192);"></circle><circle class="pearl" r="2.1904339371426516" cx="10.98896155385346" cy="10.95035187163182"></circle><circle class="pearl" r="2.1904339371426516" cx="5.296546265568936" cy="16.22335849125579"></circle><circle class="pearl" r="2.1904339371426516" cx="8.775603186849102" cy="3.8187711225547565"></circle><circle class="pearl" r="2.1904339371426516" cx="16.007148294372033" cy="16.234045560836538"></circle><circle class="pearl" r="2.1904339371426516" cx="3.795341743364987" cy="8.911001237744408"></circle><circle class="pearl" r="2.1904339371426516" cx="16.12644684594926" cy="5.15822963326617"></circle></g><g class="bobaCup bright" cupRadius="10.573358858973446" width="21.146717717946892" height="21.146717717946892" pearlRadius="2.738042421428314" pearlCount="6" transform="translate(191.11118407362406,15.507977616338966)"><circle class="pool" r="10.573358858973446" cx="10.573358858973446" cy="10.573358858973446" style="stroke-width: 1; fill: rgb(127, 205, 187);"></circle><circle class="pearl" r="2.1904339371426516" cx="10.91805093883502" cy="10.869340934032893"></circle><circle class="pearl" r="2.1904339371426516" cx="5.29741473417109" cy="16.085622651706917"></circle><circle class="pearl" r="2.1904339371426516" cx="8.676561286455115" cy="3.822251646246191"></circle><circle class="pearl" r="2.1904339371426516" cx="15.832634666203926" cy="16.09519991440236"></circle><circle class="pearl" r="2.1904339371426516" cx="3.7905813225614478" cy="8.859305374472548"></circle><circle class="pearl" r="2.1904339371426516" cx="15.956369327950068" cy="5.123581230365277"></circle></g><g class="bobaCup bright" cupRadius="10.526698468358306" width="21.053396936716613" height="21.053396936716613" pearlRadius="2.738042421428314" pearlCount="6" transform="translate(308.6112612804285,67.34259473042225)"><circle class="pool" r="10.526698468358306" cx="10.526698468358306" cy="10.526698468358306" style="stroke-width: 1; fill: rgb(127, 205, 187);"></circle><circle class="pearl" r="2.1904339371426516" cx="10.8806693103297" cy="10.825980310955234"></circle><circle class="pearl" r="2.1904339371426516" cx="5.297924043952813" cy="16.01223807873949"></circle><circle class="pearl" r="2.1904339371426516" cx="8.623501843364872" cy="3.8241988532757927"></circle><circle class="pearl" r="2.1904339371426516" cx="15.739714628150885" cy="16.02123866745723"></circle><circle class="pearl" r="2.1904339371426516" cx="3.7880008423194504" cy="8.832202983108157"></circle><circle class="pearl" r="2.1904339371426516" cx="15.865721978640774" cy="5.105144772122246"></circle></g><g class="bobaCup bright" cupRadius="10.308682847907228" width="20.617365695814456" height="20.617365695814456" pearlRadius="2.7380424214283137" pearlCount="5" transform="translate(43.56070954902916,74.53326710231892)"><circle class="pool" r="10.308682847907228" cx="10.308682847907228" cy="10.308682847907228" style="stroke-width: 1; fill: rgb(65, 182, 196);"></circle><circle class="pearl" r="2.190433937142651" cx="16.673795588089018" cy="7.869016496585224"></circle><circle class="pearl" r="2.190433937142651" cx="7.217692908673525" cy="16.016900916179367"></circle><circle class="pearl" r="2.190433937142651" cx="9.876995200525911" cy="3.6597658966547932"></circle><circle class="pearl" r="2.190433937142651" cx="15.207555515737674" cy="15.728240135567187"></circle><circle class="pearl" r="2.190433937142651" cx="3.7605299197637407" cy="8.80806057740219"></circle></g><g class="bobaCup bright" cupRadius="10.048349065819103" width="20.096698131638206" height="20.096698131638206" pearlRadius="2.738042421428314" pearlCount="5" transform="translate(234.1609776861827,20.8481775288474)"><circle class="pool" r="10.048349065819103" cx="10.048349065819103" cy="10.048349065819103" style="stroke-width: 1; fill: rgb(29, 145, 192);"></circle><circle class="pearl" r="2.1904339371426516" cx="16.055342730810583" cy="7.2738539131212585"></circle><circle class="pearl" r="2.1904339371426516" cx="7.216199189553107" cy="16.038592906319156"></circle><circle class="pearl" r="2.1904339371426516" cx="9.18776454104922" cy="3.687643164427062"></circle><circle class="pearl" r="2.1904339371426516" cx="15.066972056598164" cy="15.102954218473592"></circle><circle class="pearl" r="2.1904339371426516" cx="3.6923286697684436" cy="9.134893549858036"></circle></g><g class="bobaCup bright" cupRadius="9.826401516319185" width="19.65280303263837" height="19.65280303263837" pearlRadius="2.738042421428314" pearlCount="5" transform="translate(93.64926082784606,92.34177547166563)"><circle class="pool" r="9.826401516319185" cx="9.826401516319185" cy="9.826401516319185" style="stroke-width: 1; fill: rgb(65, 182, 196);"></circle><circle class="pearl" r="2.1904339371426516" cx="15.60079574545357" cy="7.046954148878037"></circle><circle class="pearl" r="2.1904339371426516" cx="6.895284834456742" cy="15.554735903373867"></circle><circle class="pearl" r="2.1904339371426516" cx="8.997540910725872" cy="3.6857429804805375"></circle><circle class="pearl" r="2.1904339371426516" cx="14.651146207421881" cy="14.736052428263008"></circle><circle class="pearl" r="2.1904339371426516" cx="3.6998869106140977" cy="8.844674929168487"></circle></g><g class="bobaCup bright" cupRadius="9.789327951987044" width="19.578655903974088" height="19.578655903974088" pearlRadius="2.7380424214283137" pearlCount="5" transform="translate(74.48331768784136,263.15611661873294)"><circle class="pool" r="9.789327951987044" cx="9.789327951987044" cy="9.789327951987044" style="stroke-width: 1; fill: rgb(29, 145, 192);"></circle><circle class="pearl" r="2.190433937142651" cx="15.525107231470631" cy="7.010027245363491"></circle><circle class="pearl" r="2.190433937142651" cx="6.839939123898408" cy="15.47305957050268"></circle><circle class="pearl" r="2.190433937142651" cx="8.968042272706755" cy="3.6852353655586487"></circle><circle class="pearl" r="2.190433937142651" cx="14.58148345803227" cy="14.67477408428476"></circle><circle class="pearl" r="2.190433937142651" cx="3.701463398426098" cy="8.793913585372028"></circle></g><g class="bobaCup bright" cupRadius="9.245462411163789" width="18.490924822327578" height="18.490924822327578" pearlRadius="2.738042421428314" pearlCount="4" transform="translate(238.5906233668476,10.754537588836211)"><circle class="pool" r="9.245462411163789" cx="9.245462411163789" cy="9.245462411163789" style="stroke-width: 1; fill: rgb(127, 205, 187);"></circle><circle class="pearl" r="2.1904339371426516" cx="14.298294104978947" cy="6.126695521951197"></circle><circle class="pearl" r="2.1904339371426516" cx="5.294150358224366" cy="12.064927457525062"></circle><circle class="pearl" r="2.1904339371426516" cx="6.579386962523554" cy="4.043467588288735"></circle><circle class="pearl" r="2.1904339371426516" cx="13.045737847133374" cy="14.0230534747278"></circle></g><g class="bobaCup bright" cupRadius="8.919736667755119" width="17.839473335510238" height="17.839473335510238" pearlRadius="2.7380424214283146" pearlCount="4" transform="translate(76.72530841916407,175.02248348683466)"><circle class="pool" r="8.919736667755119" cx="8.919736667755119" cy="8.919736667755119" style="stroke-width: 1; fill: rgb(65, 182, 196);"></circle><circle class="pearl" r="2.1904339371426516" cx="13.481934803530049" cy="5.439848036611304"></circle><circle class="pearl" r="2.1904339371426516" cx="4.700092935848926" cy="12.252309073112698"></circle><circle class="pearl" r="2.1904339371426516" cx="5.567880267711707" cy="4.3044596001985065"></circle><circle class="pearl" r="2.1904339371426516" cx="12.614147471667916" cy="13.387697509526198"></circle></g><g class="bobaCup bright" cupRadius="8.902057637616167" width="17.804115275232334" height="17.804115275232334" pearlRadius="2.7380424214283137" pearlCount="4" transform="translate(98.8228421011489,280.14833048633415)"><circle class="pool" r="8.902057637616167" cx="8.902057637616167" cy="8.902057637616167" style="stroke-width: 1; fill: rgb(65, 182, 196);"></circle><circle class="pearl" r="2.190433937142651" cx="13.43811062658688" cy="5.405870378996804"></circle><circle class="pearl" r="2.190433937142651" cx="4.6649853114297395" cy="12.26888581074393"></circle><circle class="pearl" r="2.190433937142651" cx="5.517198904794108" cy="4.319351353385278"></circle><circle class="pearl" r="2.190433937142651" cx="12.585897033222997" cy="13.355404836356005"></circle></g><g class="bobaCup bright" cupRadius="8.90130461453738" width="17.80260922907476" height="17.80260922907476" pearlRadius="2.7380424214283137" pearlCount="4" transform="translate(275.86999316137064,242.67151617876408)"><circle class="pool" r="8.90130461453738" cx="8.90130461453738" cy="8.90130461453738" style="stroke-width: 1; fill: rgb(65, 182, 196);"></circle><circle class="pearl" r="2.190433937142651" cx="13.436226464434494" cy="5.404386186816504"></circle><circle class="pearl" r="2.190433937142651" cx="4.663553636120078" cy="12.26961199749127"></circle><circle class="pearl" r="2.190433937142651" cx="5.515022777217174" cy="4.319997767907104"></circle><circle class="pearl" r="2.190433937142651" cx="12.584757323337875" cy="13.35400041640121"></circle></g><g class="bobaCup bright" cupRadius="8.718964596066424" width="17.43792919213285" height="17.43792919213285" pearlRadius="2.7380424214283132" pearlCount="4" transform="translate(116.46908276190854,128.2940119144512)"><circle class="pool" r="8.718964596066424" cx="8.718964596066424" cy="8.718964596066424" style="stroke-width: 1; fill: rgb(29, 145, 192);"></circle><circle class="pearl" r="2.1904339371426507" cx="12.927977250456092" cy="4.9447235495037"></circle><circle class="pearl" r="2.1904339371426507" cx="4.509951941676754" cy="12.493205642629148"></circle><circle class="pearl" r="2.1904339371426507" cx="4.9447235495037" cy="4.509951941676754"></circle><circle class="pearl" r="2.1904339371426507" cx="12.493205642629148" cy="12.927977250456092"></circle></g><g class="bobaCup bright" cupRadius="7.878168767615007" width="15.756337535230013" height="15.756337535230013" pearlRadius="2.7380424214283132" pearlCount="3" transform="translate(114.0153934932947,207.75474903420013)"><circle class="pool" r="7.878168767615007" cx="7.878168767615007" cy="7.878168767615007" style="stroke-width: 1; fill: rgb(29, 145, 192);"></circle><circle class="pearl" r="2.1904339371426507" cx="11.981911310442708" cy="9.268781485530813"></circle><circle class="pearl" r="2.1904339371426507" cx="4.473985991927584" cy="11.33216810651534"></circle><circle class="pearl" r="2.1904339371426507" cx="6.287196782039796" cy="3.813041344952656"></circle></g><g class="bobaCup bright" cupRadius="6.963685520563576" width="13.927371041127152" height="13.927371041127152" pearlRadius="2.7380424214283137" pearlCount="2" transform="translate(229.5427533598079,206.84676448007417)"><circle class="pool" r="6.963685520563576" cx="6.963685520563576" cy="6.963685520563576" style="stroke-width: 1; fill: rgb(29, 145, 192);"></circle><circle class="pearl" r="2.190433937142651" cx="9.691452018884043" cy="4.207209207997574"></circle><circle class="pearl" r="2.190433937142651" cx="4.235919022243108" cy="9.720161833129577"></circle></g><g class="bobaCup bright" cupRadius="6.913155405433749" width="13.826310810867499" height="13.826310810867499" pearlRadius="2.7380424214283137" pearlCount="2" transform="translate(248.3729143820466,277.5040387832808)"><circle class="pool" r="6.913155405433749" cx="6.913155405433749" cy="6.913155405433749" style="stroke-width: 1; fill: rgb(127, 205, 187);"></circle><circle class="pearl" r="2.190433937142651" cx="9.592707149504562" cy="4.19114608740248"></circle><circle class="pearl" r="2.190433937142651" cx="4.233603661362936" cy="9.635164723465019"></circle></g><g class="bobaCup bright" cupRadius="6.6355584082609465" width="13.271116816521893" height="13.271116816521893" pearlRadius="2.7380424214283132" pearlCount="2" transform="translate(282.9397104402075,108.08938250105207)"><circle class="pool" r="6.6355584082609465" cx="6.6355584082609465" cy="6.6355584082609465" style="stroke-width: 1; fill: rgb(29, 145, 192);"></circle><circle class="pearl" r="2.1904339371426507" cx="9.050406854008838" cy="4.105736161430079"></circle><circle class="pearl" r="2.1904339371426507" cx="4.220709962513053" cy="9.165380655091813"></circle></g><g class="bobaCup bright" cupRadius="6.316550583646393" width="12.633101167292786" height="12.633101167292786" pearlRadius="2.738042421428314" pearlCount="2" transform="translate(313.6834494163536,194.49348268710057)"><circle class="pool" r="6.316550583646393" cx="6.316550583646393" cy="6.316550583646393" style="stroke-width: 1; fill: rgb(65, 182, 196);"></circle><circle class="pearl" r="2.1904339371426516" cx="8.427450999891798" cy="4.013878922874209"></circle><circle class="pearl" r="2.1904339371426516" cx="4.205650167400988" cy="8.619222244418577"></circle></g><g class="bobaCup bright" cupRadius="6.3046577785794975" width="12.609315557158995" height="12.609315557158995" pearlRadius="2.7380424214283137" pearlCount="2" transform="translate(37.34289555212895,58.15295133772898)"><circle class="pool" r="6.3046577785794975" cx="6.3046577785794975" cy="6.3046577785794975" style="stroke-width: 1; fill: rgb(127, 205, 187);"></circle><circle class="pearl" r="2.190433937142651" cx="8.404228490043456" cy="4.010592320194108"></circle><circle class="pearl" r="2.190433937142651" cx="4.205087067115538" cy="8.598723236964886"></circle></g><g class="bobaCup bright" cupRadius="5.574571941982133" width="11.149143883964266" height="11.149143883964266" pearlRadius="2.7380424214283137" pearlCount="2" transform="translate(91.91978893987238,75.36871725124698)"><circle class="pool" r="5.574571941982133" cx="5.574571941982133" cy="5.574571941982133" style="stroke-width: 1; fill: rgb(29, 145, 192);"></circle><circle class="pearl" r="2.190433937142651" cx="7.1559284590037215" cy="3.879720935505331"></circle><circle class="pearl" r="2.190433937142651" cx="3.9932154249605434" cy="7.269422948458935"></circle></g><g class="bobaCup bright" cupRadius="4.071790780613133" width="8.143581561226267" height="8.143581561226267" pearlRadius="2.738042421428314" pearlCount="1" transform="translate(110.58358765434309,208.55635807590994)"><circle class="pool" r="4.071790780613133" cx="4.071790780613133" cy="4.071790780613133" style="stroke-width: 1; fill: rgb(127, 205, 187);"></circle><circle class="pearl" r="2.1904339371426516" cx="4.492858332655182" cy="4.071790780613133"></circle></g><g class="bobaCup bright" cupRadius="3.7492313887748745" width="7.498462777549749" height="7.498462777549749" pearlRadius="2.7380424214283137" pearlCount="1" transform="translate(261.9123362351973,40.13967258858487)"><circle class="pool" r="3.7492313887748745" cx="3.7492313887748745" cy="3.7492313887748745" style="stroke-width: 1; fill: rgb(29, 145, 192);"></circle><circle class="pearl" r="2.190433937142651" cx="3.847739548978664" cy="3.7492313887748745"></circle></g><g class="bobaCup bright" cupRadius="0" width="0" height="0" pearlRadius="NaN" pearlCount="0" transform="translate(20,300)"><circle class="pool" r="0" cx="0" cy="0" style="stroke-width: 1; fill: rgb(65, 182, 196);"></circle></g><g class="bobaCup bright" cupRadius="0" width="0" height="0" pearlRadius="NaN" pearlCount="0" transform="translate(177.18043326536846,67.59038148653251)"><circle class="pool" r="0" cx="0" cy="0" style="stroke-width: 1; fill: rgb(29, 145, 192);"></circle></g></g><g id="legendDividerGroup" transform="translate(410,0)" height="400"><rect class="legendDivider" height="400" width="90"></rect></g><g id="legend" transform="translate(410,30)" width="90" height="320"><rect class="legendBorder" transform="translate(0,0)" width="90" height="324.94771951100137"></rect><text id="rTitle" text-anchor="middle" alignment-baseline="hanging" transform="translate(45,10)" x="0" y="0" style="fill: black; font-size: 0.8rem;">Population</text><text id="bobaValue" text-anchor="middle" alignment-baseline="hanging" transform="translate(45,25)" x="0" y="0" style="fill: black; font-size: 0.7rem;">(1 Pearl =   75)</text><g class="bright" cupRadius="8.94427190999916" width="17.88854381999832" height="17.88854381999832" pearlRadius="2.7380424214283137" pearlCount="4" transform="translate(36.05572809000084,50)"><circle class="pool" r="8.94427190999916" cx="8.94427190999916" cy="8.94427190999916" style="stroke-width: 1; fill: rgb(127, 205, 187);"></circle><circle class="pearl" r="2.190433937142651" cx="13.542613460651712" cy="5.486970900805415"></circle><circle class="pearl" r="2.190433937142651" cx="4.749399498236599" cy="12.229516637519533"></circle><circle class="pearl" r="2.190433937142651" cx="5.6385452023940825" cy="4.284028231246733"></circle><circle class="pearl" r="2.190433937142651" cx="12.653467756495177" cy="13.432459307079196"></circle></g><text id="0" class="legendSampleValue" text-anchor="middle" transform="translate(45,8)" x="0" y="72.88854381999832" style="fill: black; font-size: 0.7rem;"> 300</text><g class="bright" cupRadius="12.64911064067352" width="25.29822128134704" height="25.29822128134704" pearlRadius="2.738042421428314" pearlCount="8" transform="translate(32.35088935932648,92.88854381999832)"><circle class="pool" r="12.64911064067352" cx="12.64911064067352" cy="12.64911064067352" style="stroke-width: 1; fill: rgb(127, 205, 187);"></circle><circle class="pearl" r="2.1904339371426516" cx="14.071403428550028" cy="12.846878791771143"></circle><circle class="pearl" r="2.1904339371426516" cx="6.4405819117747525" cy="19.577951382570923"></circle><circle class="pearl" r="2.1904339371426516" cx="15.102737084551542" cy="3.89097746448665"></circle><circle class="pearl" r="2.1904339371426516" cx="20.833946229646866" cy="17.1122426661066"></circle><circle class="pearl" r="2.1904339371426516" cx="3.6634707295578814" cy="12.08137249507582"></circle><circle class="pearl" r="2.1904339371426516" cx="21.1462151053254" cy="9.123450087562196"></circle><circle class="pearl" r="2.1904339371426516" cx="14.187116834584872" cy="21.55364674624167"></circle><circle class="pearl" r="2.1904339371426516" cx="7.171845845081949" cy="4.898098459274188"></circle></g><text id="1" class="legendSampleValue" text-anchor="middle" transform="translate(45,8)" x="0" y="123.18676510134536" style="fill: black; font-size: 0.7rem;"> 600</text><g class="bright" cupRadius="15.49193338482967" width="30.98386676965934" height="30.98386676965934" pearlRadius="2.738042421428314" pearlCount="12" transform="translate(29.50806661517033,143.18676510134537)"><circle class="pool" r="15.49193338482967" cx="15.49193338482967" cy="15.49193338482967" style="stroke-width: 1; fill: rgb(127, 205, 187);"></circle><circle class="pearl" r="2.1904339371426516" cx="17.033011743384762" cy="11.017376109139583"></circle><circle class="pearl" r="2.1904339371426516" cx="11.029309432951335" cy="17.00347040031936"></circle><circle class="pearl" r="2.1904339371426516" cx="13.977981653444436" cy="3.724876288236054"></circle><circle class="pearl" r="2.1904339371426516" cx="18.741808845067865" cy="18.756462357333646"></circle><circle class="pearl" r="2.1904339371426516" cx="3.725529689195627" cy="13.971342248807431"></circle><circle class="pearl" r="2.1904339371426516" cx="26.98661348100194" cy="12.233596672509556"></circle><circle class="pearl" r="2.1904339371426516" cx="12.152198575888582" cy="26.968872613027884"></circle><circle class="pearl" r="2.1904339371426516" cx="6.524197378590721" cy="6.5101702816287865"></circle><circle class="pearl" r="2.1904339371426516" cx="26.508263068801273" cy="20.47967424223927"></circle><circle class="pearl" r="2.1904339371426516" cx="5.419021306595214" cy="22.679550094546492"></circle><circle class="pearl" r="2.1904339371426516" cx="22.760798049576497" cy="5.461881544509552"></circle><circle class="pearl" r="2.1904339371426516" cx="20.400071923945582" cy="26.535092423407907"></circle></g><text id="2" class="legendSampleValue" text-anchor="middle" transform="translate(45,8)" x="0" y="179.1706318710047" style="fill: black; font-size: 0.7rem;"> 900</text><g class="bright" cupRadius="17.88854381999832" width="35.77708763999664" height="35.77708763999664" pearlRadius="2.7380424214283137" pearlCount="16" transform="translate(27.11145618000168,199.17063187100473)"><circle class="pool" r="17.88854381999832" cx="17.88854381999832" cy="17.88854381999832" style="stroke-width: 1; fill: rgb(127, 205, 187);"></circle><circle class="pearl" r="2.190433937142651" cx="19.8046930625516" cy="19.706925044831756"></circle><circle class="pearl" r="2.190433937142651" cx="13.339172784724305" cy="23.858410298028698"></circle><circle class="pearl" r="2.190433937142651" cx="16.092791630714295" cy="11.113543243945612"></circle><circle class="pearl" r="2.190433937142651" cx="20.836129534048155" cy="27.499380517199565"></circle><circle class="pearl" r="2.190433937142651" cx="10.312657514553905" cy="16.56124087753138"></circle><circle class="pearl" r="2.190433937142651" cx="23.678755837700653" cy="13.13675787817294"></circle><circle class="pearl" r="2.190433937142651" cx="14.311679794483911" cy="31.765114841909277"></circle><circle class="pearl" r="2.190433937142651" cx="11.081450997216843" cy="4.99648955196875"></circle><circle class="pearl" r="2.190433937142651" cx="27.674351504393126" cy="20.796258814455655"></circle><circle class="pearl" r="2.190433937142651" cx="4.000488629236898" cy="21.40866477780026"></circle><circle class="pearl" r="2.190433937142651" cx="28.333596734388347" cy="7.01684061165493"></circle><circle class="pearl" r="2.190433937142651" cx="28.522531366621063" cy="28.62247591779055"></circle><circle class="pearl" r="2.190433937142651" cx="5.30391541992303" cy="10.377661215789304"></circle><circle class="pearl" r="2.190433937142651" cx="31.694235049536697" cy="13.980399213320233"></circle><circle class="pearl" r="2.190433937142651" cx="7.311073872078207" cy="28.66408585659018"></circle><circle class="pearl" r="2.190433937142651" cx="18.987039995684725" cy="3.684483203560177"></circle></g><text id="3" class="legendSampleValue" text-anchor="middle" transform="translate(45,8)" x="0" y="239.94771951100137" style="fill: black; font-size: 0.7rem;">1.2k</text><g class="bright" cupRadius="20" width="40" height="40" pearlRadius="2.7380424214283137" pearlCount="20" transform="translate(25,259.94771951100137)"><circle class="pool" r="20" cx="20" cy="20" style="stroke-width: 1; fill: rgb(127, 205, 187);"></circle><circle class="pearl" r="2.190433937142651" cx="22.480421380823074" cy="19.96094551607325"></circle><circle class="pearl" r="2.190433937142651" cx="14.554532211889109" cy="20.25858246523202"></circle><circle class="pearl" r="2.190433937142651" cx="21.718613402750453" cy="11.231225788085391"></circle><circle class="pearl" r="2.190433937142651" cx="25.13767186853209" cy="27.447308990534317"></circle><circle class="pearl" r="2.190433937142651" cx="6.622341466842937" cy="15.212813608895589"></circle><circle class="pearl" r="2.190433937142651" cx="28.49521909515808" cy="14.82158787688231"></circle><circle class="pearl" r="2.190433937142651" cx="17.504603283401977" cy="28.993209871734443"></circle><circle class="pearl" r="2.190433937142651" cx="14.13811847195522" cy="12.373399584276378"></circle><circle class="pearl" r="2.190433937142651" cx="31.11803529924844" cy="22.444175683247455"></circle><circle class="pearl" r="2.190433937142651" cx="10.013176726772668" cy="26.767604068489224"></circle><circle class="pearl" r="2.190433937142651" cx="25.1625299271706" cy="4.328500666167248"></circle><circle class="pearl" r="2.190433937142651" cx="27.782608687955303" cy="34.772930101052836"></circle><circle class="pearl" r="2.190433937142651" cx="8.036930275650786" cy="7.623092000895575"></circle><circle class="pearl" r="2.190433937142651" cx="36.040664285033515" cy="16.500106031740792"></circle><circle class="pearl" r="2.190433937142651" cx="11.3070075503718" cy="34.36126950601293"></circle><circle class="pearl" r="2.190433937142651" cx="16.81383473400994" cy="3.9061454691506903"></circle><circle class="pearl" r="2.190433937142651" cx="33.74247113697989" cy="29.87303346303284"></circle><circle class="pearl" r="2.190433937142651" cx="3.788525504185259" cy="22.343736665541265"></circle><circle class="pearl" r="2.190433937142651" cx="32.18050534208177" cy="7.787706818962306"></circle><circle class="pearl" r="2.190433937142651" cx="20.00567962395882" cy="36.34927596497569"></circle></g><text id="4" class="legendSampleValue" text-anchor="middle" transform="translate(45,8)" x="0" y="304.94771951100137" style="fill: black; font-size: 0.7rem;">1.5k</text></g></svg>