<?xml version="1.0" standalone="no"?>
<?xml-stylesheet xmlns="http://www.w3.org/2000/svg" type="text/css" href="style.css"?>
<svg id="syntheticVisC" class="default" xTitle="Percent Cat Owners" yTitle="Percent Dog Owners" rTitle="Population" chartTitle="Towns in Vizzyland" width="500" height="400" xmlns="http://www.w3.org/2000/svg"><rect class="background" width="500" height="400"></rect><text id="chartTitle" text-anchor="middle" transform="translate(250,20)" x="0" y="0" style="fill: black; font-size: 1.2rem;">Towns in Vizzyland</text><g id="yAxis" transform="translate(50,30)" fill="none" font-size="10" font-family="sans-serif" text-anchor="end"><path class="domain" stroke="currentColor" d="M-6,300H0V20H-6"></path><g class="tick" opacity="1" transform="translate(0,300)"><line stroke="currentColor" x2="-6"></line><text fill="currentColor" x="-9" dy="0.32em">0</text></g><g class="tick" opacity="1" transform="translate(0,272)"><line stroke="currentColor" x2="-6"></line><text fill="currentColor" x="-9" dy="0.32em">10</text></g><g class="tick" opacity="1" transform="translate(0,244)"><line stroke="currentColor" x2="-6"></line><text fill="currentColor" x="-9" dy="0.32em">20</text></g><g class="tick" opacity="1" transform="translate(0,216)"><line stroke="currentColor" x2="-6"></line><text fill="currentColor" x="-9" dy="0.32em">30</text></g><g class="tick" opacity="1" transform="translate(0,188)"><line stroke="currentColor" x2="-6"></line><text fill="currentColor" x="-9" dy="0.32em">40</text></g><g class="tick" opacity="1" transform="translate(0,160)"><line stroke="currentColor" x2="-6"></line><text fill="currentColor" x="-9" dy="0.32em">50</text></g><g class="tick" opacity="1" transform="translate(0,132)"><line stroke="currentColor" x2="-6"></line><text fill="currentColor" x="-9" dy="0.32em">60</text></g><g class="tick" opacity="1" transform="translate(0,104.00000000000001)"><line stroke="currentColor" x2="-6"></line><text fill="currentColor" x="-9" dy="0.32em">70</text></g><g class="tick" opacity="1" transform="translate(0,75.99999999999999)"><line stroke="currentColor" x2="-6"></line><text fill="currentColor" x="-9" dy="0.32em">80</text></g><g class="tick" opacity="1" transform="translate(0,47.99999999999999)"><line stroke="currentColor" x2="-6"></line><text fill="currentColor" x="-9" dy="0.32em">90</text></g><g class="tick" opacity="1" transform="translate(0,20)"><line stroke="currentColor" x2="-6"></line><text fill="currentColor" x="-9" dy="0.32em">100</text></g></g><g id="xAxis" transform="translate(60,360)" fill="none" font-size="10" font-family="sans-serif" text-anchor="middle"><path class="domain" stroke="currentColor" d="M20,6V0H320V6"></path><g class="tick" opacity="1" transform="translate(20,0)"><line stroke="currentColor" y2="6"></line><text fill="currentColor" y="9" dy="0.71em">0</text></g><g class="tick" opacity="1" transform="translate(50,0)"><line stroke="currentColor" y2="6"></line><text fill="currentColor" y="9" dy="0.71em">10</text></g><g class="tick" opacity="1" transform="translate(80,0)"><line stroke="currentColor" y2="6"></line><text fill="currentColor" y="9" dy="0.71em">20</text></g><g class="tick" opacity="1" transform="translate(110,0)"><line stroke="currentColor" y2="6"></line><text fill="currentColor" y="9" dy="0.71em">30</text></g><g class="tick" opacity="1" transform="translate(140,0)"><line stroke="currentColor" y2="6"></line><text fill="currentColor" y="9" dy="0.71em">40</text></g><g class="tick" opacity="1" transform="translate(170,0)"><line stroke="currentColor" y2="6"></line><text fill="currentColor" y="9" dy="0.71em">50</text></g><g class="tick" opacity="1" transform="translate(200,0)"><line stroke="currentColor" y2="6"></line><text fill="currentColor" y="9" dy="0.71em">60</text></g><g class="tick" opacity="1" transform="translate(230,0)"><line stroke="currentColor" y2="6"></line><text fill="currentColor" y="9" dy="0.71em">70</text></g><g class="tick" opacity="1" transform="translate(260,0)"><line stroke="currentColor" y2="6"></line><text fill="currentColor" y="9" dy="0.71em">80</text></g><g class="tick" opacity="1" transform="translate(290,0)"><line stroke="currentColor" y2="6"></line><text fill="currentColor" y="9" dy="0.71em">90</text></g><g class="tick" opacity="1" transform="translate(320,0)"><line stroke="currentColor" y2="6"></line><text fill="currentColor" y="9" dy="0.71em">100</text></g></g><g id="labels"><text id="xTitle" text-anchor="middle" transform="translate(250,350)" x="0" y="40" style="fill: black; font-size: 0.8rem;">Percent Cat Owners</text><g id="group-yTitle" transform="translate(60,190)"><text id="yTitle" text-anchor="middle" transform="rotate(-90)" y="-45" style="fill: black; font-size: 0.8rem;">Percent Dog Owners</text></g></g><g id="quadrant_lines" transform="translate(60,30)"><line id="verticalQuadrantLine" x1="170" y1="10" x2="170" y2="310" class="quadrantLine"></line><line id="horizontalQuadrantLine" x1="10" y1="160" x2="330" y2="160" class="quadrantLine"></line></g><g id="chart" transform="translate(60,30)"><g class="bobaCup bright" cupRadius="20" width="40" height="40" pearlRadius="2.7380424214283137" pearlCount="20" transform="translate(291.8413040937042,182.55445295152407)"><circle class="pool" r="20" cx="20" cy="20" style="stroke-width: 1; fill: rgb(29, 145, 192);"></circle><circle class="pearl" r="2.190433937142651" cx="22.480421380823074" cy="19.96094551607325"></circle><circle class="pearl" r="2.190433937142651" cx="14.554532211889109" cy="20.25858246523202"></circle><circle class="pearl" r="2.190433937142651" cx="21.718613402750453" cy="11.231225788085391"></circle><circle class="pearl" r="2.190433937142651" cx="25.13767186853209" cy="27.447308990534317"></circle><circle class="pearl" r="2.190433937142651" cx="6.622341466842937" cy="15.212813608895589"></circle><circle class="pearl" r="2.190433937142651" cx="28.49521909515808" cy="14.82158787688231"></circle><circle class="pearl" r="2.190433937142651" cx="17.504603283401977" cy="28.993209871734443"></circle><circle class="pearl" r="2.190433937142651" cx="14.13811847195522" cy="12.373399584276378"></circle><circle class="pearl" r="2.190433937142651" cx="31.11803529924844" cy="22.444175683247455"></circle><circle class="pearl" r="2.190433937142651" cx="10.013176726772668" cy="26.767604068489224"></circle><circle class="pearl" r="2.190433937142651" cx="25.1625299271706" cy="4.328500666167248"></circle><circle class="pearl" r="2.190433937142651" cx="27.782608687955303" cy="34.772930101052836"></circle><circle class="pearl" r="2.190433937142651" cx="8.036930275650786" cy="7.623092000895575"></circle><circle class="pearl" r="2.190433937142651" cx="36.040664285033515" cy="16.500106031740792"></circle><circle class="pearl" r="2.190433937142651" cx="11.3070075503718" cy="34.36126950601293"></circle><circle class="pearl" r="2.190433937142651" cx="16.81383473400994" cy="3.9061454691506903"></circle><circle class="pearl" r="2.190433937142651" cx="33.74247113697989" cy="29.87303346303284"></circle><circle class="pearl" r="2.190433937142651" cx="3.788525504185259" cy="22.343736665541265"></circle><circle class="pearl" r="2.190433937142651" cx="32.18050534208177" cy="7.787706818962306"></circle><circle class="pearl" r="2.190433937142651" cx="20.00567962395882" cy="36.34927596497569"></circle></g><g class="bobaCup bright" cupRadius="17.886792100922356" width="35.77358420184471" height="35.77358420184471" pearlRadius="2.7380424214283132" pearlCount="16" transform="translate(152.2653423460556,271.9470615058784)"><circle class="pool" r="17.886792100922356" cx="17.886792100922356" cy="17.886792100922356" style="stroke-width: 1; fill: rgb(65, 182, 196);"></circle><circle class="pearl" r="2.1904339371426507" cx="19.80233371566147" cy="19.704489084098253"></circle><circle class="pearl" r="2.1904339371426507" cx="13.3379616017055" cy="23.855763465013602"></circle><circle class="pearl" r="2.1904339371426507" cx="16.091492960593257" cy="11.112066247918587"></circle><circle class="pearl" r="2.1904339371426507" cx="20.83401551225307" cy="27.496316091191787"></circle><circle class="pearl" r="2.1904339371426507" cx="10.311923281323276" cy="16.559223688415045"></circle><circle class="pearl" r="2.1904339371426507" cx="23.6757212659454" cy="13.135528891205217"></circle><circle class="pearl" r="2.1904339371426507" cx="14.310656812929292" cy="31.761724011705954"></circle><circle class="pearl" r="2.1904339371426507" cx="11.081581676527737" cy="4.99585753042961"></circle><circle class="pearl" r="2.1904339371426507" cx="27.67188992973467" cy="20.79373714156295"></circle><circle class="pearl" r="2.1904339371426507" cx="4.00048118019919" cy="21.40670188784953"></circle><circle class="pearl" r="2.1904339371426507" cx="28.329898215968587" cy="7.0158464745889715"></circle><circle class="pearl" r="2.1904339371426507" cx="28.51934143254766" cy="28.619608991952315"></circle><circle class="pearl" r="2.1904339371426507" cx="5.304397521428402" cy="10.375253118057381"></circle><circle class="pearl" r="2.1904339371426507" cx="31.690556033754586" cy="13.978057063339815"></circle><circle class="pearl" r="2.1904339371426507" cx="7.311158610550831" cy="28.661508482254003"></circle><circle class="pearl" r="2.1904339371426507" cx="18.99004109339444" cy="3.6847795917352704"></circle></g><g class="bobaCup bright" cupRadius="17.132437449250645" width="34.26487489850129" height="34.26487489850129" pearlRadius="2.7380424214283137" pearlCount="15" transform="translate(19.71504581299574,33.605569178983345)"><circle class="pool" r="17.132437449250645" cx="17.132437449250645" cy="17.132437449250645" style="stroke-width: 1; fill: rgb(29, 145, 192);"></circle><circle class="pearl" r="2.190433937142651" cx="18.36123307372139" cy="17.372308645747424"></circle><circle class="pearl" r="2.190433937142651" cx="12.70490601028142" cy="22.63997496618605"></circle><circle class="pearl" r="2.190433937142651" cx="16.077252949354442" cy="9.81920263403559"></circle><circle class="pearl" r="2.190433937142651" cx="19.792170338980757" cy="25.212195016217237"></circle><circle class="pearl" r="2.190433937142651" cx="10.632031653907443" cy="15.489495024907347"></circle><circle class="pearl" r="2.190433937142651" cx="23.44301542843506" cy="11.449187708647694"></circle><circle class="pearl" r="2.190433937142651" cx="14.169524113386682" cy="30.356001094993555"></circle><circle class="pearl" r="2.190433937142651" cx="10.235338289000788" cy="5.100353654646105"></circle><circle class="pearl" r="2.190433937142651" cx="25.763204433463258" cy="19.99372478726199"></circle><circle class="pearl" r="2.190433937142651" cx="4.127871921203921" cy="20.22246845321601"></circle><circle class="pearl" r="2.190433937142651" cx="21.51016590818515" cy="4.219468260600234"></circle><circle class="pearl" r="2.190433937142651" cx="27.085317753424217" cy="27.426626791336997"></circle><circle class="pearl" r="2.190433937142651" cx="5.107710663784427" cy="10.218633878863074"></circle><circle class="pearl" r="2.190433937142651" cx="30.333291238515155" cy="14.04297714614894"></circle><circle class="pearl" r="2.190433937142651" cx="7.214736622749827" cy="27.451668525132778"></circle></g><g class="bobaCup bright" cupRadius="17.07278667217803" width="34.14557334435606" height="34.14557334435606" pearlRadius="2.7380424214283132" pearlCount="15" transform="translate(123.0388492652388,249.57253598719774)"><circle class="pool" r="17.07278667217803" cx="17.07278667217803" cy="17.07278667217803" style="stroke-width: 1; fill: rgb(65, 182, 196);"></circle><circle class="pearl" r="2.1904339371426507" cx="18.30214333036101" cy="17.315618721509658"></circle><circle class="pearl" r="2.1904339371426507" cx="12.650572744584489" cy="22.543632378019993"></circle><circle class="pearl" r="2.1904339371426507" cx="16.053741485033242" cy="9.781699097337384"></circle><circle class="pearl" r="2.1904339371426507" cx="19.710378655483897" cy="25.129508009164443"></circle><circle class="pearl" r="2.1904339371426507" cx="10.590767330632064" cy="15.422790127844712"></circle><circle class="pearl" r="2.1904339371426507" cx="23.38336932431274" cy="11.435715294772503"></circle><circle class="pearl" r="2.1904339371426507" cx="14.11448022822166" cy="30.23659488927459"></circle><circle class="pearl" r="2.1904339371426507" cx="10.24547884843641" cy="5.075254003251264"></circle><circle class="pearl" r="2.1904339371426507" cx="25.682601206104586" cy="19.94069314302322"></circle><circle class="pearl" r="2.1904339371426507" cx="4.072968351046143" cy="20.14018802205312"></circle><circle class="pearl" r="2.1904339371426507" cx="21.524077396859948" cy="4.241214683211587"></circle><circle class="pearl" r="2.1904339371426507" cx="26.96232410026506" cy="27.338855251066217"></circle><circle class="pearl" r="2.1904339371426507" cx="5.13006041216937" cy="10.12121290785589"></circle><circle class="pearl" r="2.1904339371426507" cx="30.219352924293343" cy="14.018099968811933"></circle><circle class="pearl" r="2.1904339371426507" cx="7.206816693046657" cy="27.355572733250323"></circle></g><g class="bobaCup bright" cupRadius="16.31359017807315" width="32.6271803561463" height="32.6271803561463" pearlRadius="2.7380424214283137" pearlCount="13" transform="translate(165.9988892172563,277.59422013101437)"><circle class="pool" r="16.31359017807315" cx="16.31359017807315" cy="16.31359017807315" style="stroke-width: 1; fill: rgb(127, 205, 187);"></circle><circle class="pearl" r="2.190433937142651" cx="21.353403039803666" cy="16.067658930839897"></circle><circle class="pearl" r="2.190433937142651" cx="15.623872386451376" cy="21.51902048038595"></circle><circle class="pearl" r="2.190433937142651" cx="16.11170482380603" cy="10.222747800729932"></circle><circle class="pearl" r="2.190433937142651" cx="23.789824925846553" cy="23.678996342038598"></circle><circle class="pearl" r="2.190433937142651" cx="10.340780243084156" cy="15.74537102284305"></circle><circle class="pearl" r="2.190433937142651" cx="27.66903150763488" cy="9.914508232015326"></circle><circle class="pearl" r="2.190433937142651" cx="10.046213904315154" cy="27.72451424125804"></circle><circle class="pearl" r="2.190433937142651" cx="10.463206233872086" cy="4.735845584714177"></circle><circle class="pearl" r="2.190433937142651" cx="28.91111860683098" cy="17.772199988211916"></circle><circle class="pearl" r="2.190433937142651" cx="4.760423805147526" cy="21.571198188239226"></circle><circle class="pearl" r="2.190433937142651" cx="21.750434336656532" cy="4.583352770409498"></circle><circle class="pearl" r="2.190433937142651" cx="17.975056367546877" cy="28.891630137106976"></circle><circle class="pearl" r="2.190433937142651" cx="4.892394505024548" cy="10.070955708466272"></circle></g><g class="bobaCup bright" cupRadius="14.765864443890466" width="29.531728887780933" height="29.531728887780933" pearlRadius="2.7380424214283137" pearlCount="11" transform="translate(114.87396229041723,206.84437119602168)"><circle class="pool" r="14.765864443890466" cx="14.765864443890466" cy="14.765864443890466" style="stroke-width: 1; fill: rgb(127, 205, 187);"></circle><circle class="pearl" r="2.190433937142651" cx="18.697889360388068" cy="14.976683883506853"></circle><circle class="pearl" r="2.190433937142651" cx="11.061886921306556" cy="16.60234908754399"></circle><circle class="pearl" r="2.190433937142651" cx="13.702835875704098" cy="8.934295691301827"></circle><circle class="pearl" r="2.190433937142651" cx="20.732924401196723" cy="24.621619225565464"></circle><circle class="pearl" r="2.190433937142651" cx="3.688383153520922" cy="13.711945840009921"></circle><circle class="pearl" r="2.190433937142651" cx="25.311772175208347" cy="10.705516901613969"></circle><circle class="pearl" r="2.190433937142651" cx="12.987266802051114" cy="25.77349525674546"></circle><circle class="pearl" r="2.190433937142651" cx="6.372469573513165" cy="6.268267816396158"></circle><circle class="pearl" r="2.190433937142651" cx="25.362950080978855" cy="18.642808511449864"></circle><circle class="pearl" r="2.190433937142651" cx="5.899133058230937" cy="22.598110785523588"></circle><circle class="pearl" r="2.190433937142651" cx="20.334066899769084" cy="4.740847320082231"></circle></g><g class="bobaCup bright" cupRadius="14.487397446808801" width="28.974794893617602" height="28.974794893617602" pearlRadius="2.7380424214283137" pearlCount="10" transform="translate(152.74747961106655,261.06152017815293)"><circle class="pool" r="14.487397446808801" cx="14.487397446808801" cy="14.487397446808801" style="stroke-width: 1; fill: rgb(29, 145, 192);"></circle><circle class="pearl" r="2.190433937142651" cx="18.348343437799162" cy="12.788570645449056"></circle><circle class="pearl" r="2.190433937142651" cx="11.455728521804426" cy="16.66610031434329"></circle><circle class="pearl" r="2.190433937142651" cx="14.749720899286226" cy="5.658880317465419"></circle><circle class="pearl" r="2.190433937142651" cx="21.16119641981536" cy="23.695332470547665"></circle><circle class="pearl" r="2.190433937142651" cx="4.125099666470597" cy="13.431527674462714"></circle><circle class="pearl" r="2.190433937142651" cx="22.709206306940835" cy="6.209728334026565"></circle><circle class="pearl" r="2.190433937142651" cx="13.381592396411573" cy="25.281807653838722"></circle><circle class="pearl" r="2.190433937142651" cx="6.757831926604806" cy="5.885018959868187"></circle><circle class="pearl" r="2.190433937142651" cx="25.127440199634638" cy="16.866198078797684"></circle><circle class="pearl" r="2.190433937142651" cx="6.044505009740609" cy="22.46418532875768"></circle></g><g class="bobaCup bright" cupRadius="14.485206499188084" width="28.97041299837617" height="28.97041299837617" pearlRadius="2.7380424214283137" pearlCount="10" transform="translate(252.51115967550007,118.56622588217382)"><circle class="pool" r="14.485206499188084" cx="14.485206499188084" cy="14.485206499188084" style="stroke-width: 1; fill: rgb(29, 145, 192);"></circle><circle class="pearl" r="2.190433937142651" cx="18.336733163580984" cy="12.7834163316599"></circle><circle class="pearl" r="2.190433937142651" cx="11.440734230816897" cy="16.65538116665725"></circle><circle class="pearl" r="2.190433937142651" cx="14.74507313108213" cy="5.650335480568056"></circle><circle class="pearl" r="2.190433937142651" cx="21.176980014602233" cy="23.68132625021796"></circle><circle class="pearl" r="2.190433937142651" cx="4.1069373261160855" cy="13.42845706685172"></circle><circle class="pearl" r="2.190433937142651" cx="22.705640602764568" cy="6.209250790482564"></circle><circle class="pearl" r="2.190433937142651" cx="13.399745243153061" cy="25.27896253384306"></circle><circle class="pearl" r="2.190433937142651" cx="6.753478854560988" cy="5.886783024685119"></circle><circle class="pearl" r="2.190433937142651" cx="25.126547097784798" cy="16.842772804572206"></circle><circle class="pearl" r="2.190433937142651" cx="6.0559230759732525" cy="22.478619200714807"></circle></g><g class="bobaCup bright" cupRadius="14.449802938745208" width="28.899605877490416" height="28.899605877490416" pearlRadius="2.7380424214283137" pearlCount="10" transform="translate(59.12771735894367,168.35879860678585)"><circle class="pool" r="14.449802938745208" cx="14.449802938745208" cy="14.449802938745208" style="stroke-width: 1; fill: rgb(65, 182, 196);"></circle><circle class="pearl" r="2.190433937142651" cx="18.145215579427493" cy="12.702594448263934"></circle><circle class="pearl" r="2.190433937142651" cx="11.19154817187738" cy="16.487892413959756"></circle><circle class="pearl" r="2.190433937142651" cx="14.66959744417553" cy="5.5130389725387445"></circle><circle class="pearl" r="2.190433937142651" cx="21.42412521839861" cy="23.454340818033565"></circle><circle class="pearl" r="2.190433937142651" cx="3.8130157581177717" cy="13.373854457927903"></circle><circle class="pearl" r="2.190433937142651" cx="22.649831581894496" cy="6.2027812036645305"></circle><circle class="pearl" r="2.190433937142651" cx="13.681983009856094" cy="25.22846838486753"></circle><circle class="pearl" r="2.190433937142651" cx="6.684524711616528" cy="5.914581024494957"></circle><circle class="pearl" r="2.190433937142651" cx="25.107759670728225" cy="16.464370573501398"></circle><circle class="pearl" r="2.190433937142651" cx="6.230118884383085" cy="22.68325401952497"></circle></g><g class="bobaCup bright" cupRadius="13.713206664025943" width="27.426413328051886" height="27.426413328051886" pearlRadius="2.7380424214283137" pearlCount="9" transform="translate(62.141511234980925,219.7508612954612)"><circle class="pool" r="13.713206664025943" cx="13.713206664025943" cy="13.713206664025943" style="stroke-width: 1; fill: rgb(127, 205, 187);"></circle><circle class="pearl" r="2.190433937142651" cx="17.058863865238614" cy="12.05232085559482"></circle><circle class="pearl" r="2.190433937142651" cx="10.613117309963872" cy="16.008108873364122"></circle><circle class="pearl" r="2.190433937142651" cx="13.844595708402318" cy="3.6513526757021886"></circle><circle class="pearl" r="2.190433937142651" cx="18.99351100549152" cy="22.718328846638787"></circle><circle class="pearl" r="2.190433937142651" cx="3.6627419193341897" cy="13.139198709722779"></circle><circle class="pearl" r="2.190433937142651" cx="21.25641124451428" cy="5.911764085764448"></circle><circle class="pearl" r="2.190433937142651" cx="11.11580712600473" cy="23.527458468858104"></circle><circle class="pearl" r="2.190433937142651" cx="6.233257729489292" cy="5.870349034265297"></circle><circle class="pearl" r="2.190433937142651" cx="23.52086428297361" cy="16.344560303015953"></circle></g><g class="bobaCup bright" cupRadius="13.182123725528596" width="26.364247451057192" height="26.364247451057192" pearlRadius="2.7380424214283132" pearlCount="9" transform="translate(34.441668571192324,115.97844017824669)"><circle class="pool" r="13.182123725528596" cx="13.182123725528596" cy="13.182123725528596" style="stroke-width: 1; fill: rgb(29, 145, 192);"></circle><circle class="pearl" r="2.1904339371426507" cx="15.159698235732986" cy="11.207538348202295"></circle><circle class="pearl" r="2.1904339371426507" cx="9.755510978979153" cy="16.59922852616455"></circle><circle class="pearl" r="2.1904339371426507" cx="13.246457214336617" cy="3.650880214748466"></circle><circle class="pearl" r="2.1904339371426507" cx="20.447337449416107" cy="20.53072117877148"></circle><circle class="pearl" r="2.1904339371426507" cx="3.6514223736715516" cy="13.04635942378093"></circle><circle class="pearl" r="2.1904339371426507" cx="20.334959371100453" cy="5.760117925419327"></circle><circle class="pearl" r="2.1904339371426507" cx="13.286560945168247" cy="22.713110506751303"></circle><circle class="pearl" r="2.1904339371426507" cx="5.997701588340498" cy="5.780586349597743"></circle><circle class="pearl" r="2.1904339371426507" cx="22.713522149595594" cy="13.174731148563998"></circle></g><g class="bobaCup bright" cupRadius="13.135389237593637" width="26.270778475187274" height="26.270778475187274" pearlRadius="2.7380424214283132" pearlCount="9" transform="translate(277.3958714254299,10.16658270685346)"><circle class="pool" r="13.135389237593637" cx="13.135389237593637" cy="13.135389237593637" style="stroke-width: 1; fill: rgb(65, 182, 196);"></circle><circle class="pearl" r="2.1904339371426507" cx="15.088121577659578" cy="11.188173397009363"></circle><circle class="pearl" r="2.1904339371426507" cx="9.692473628861372" cy="16.56797042304327"></circle><circle class="pearl" r="2.1904339371426507" cx="13.19785043094755" cy="3.6508717366456933"></circle><circle class="pearl" r="2.1904339371426507" cx="20.357983585894264" cy="20.456109911398695"></circle><circle class="pearl" r="2.1904339371426507" cx="3.6512719603780086" cy="13.015325460227654"></circle><circle class="pearl" r="2.1904339371426507" cx="20.2453930563123" cy="5.741371811857948"></circle><circle class="pearl" r="2.1904339371426507" cx="13.22126347391411" cy="22.619774536881284"></circle><circle class="pearl" r="2.1904339371426507" cx="5.991078256341585" cy="5.763532413098557"></circle><circle class="pearl" r="2.1904339371426507" cx="22.62005382617268" cy="13.141497932606669"></circle></g><g class="bobaCup bright" cupRadius="12.315105078211893" width="24.630210156423786" height="24.630210156423786" pearlRadius="2.7380424214283137" pearlCount="8" transform="translate(276.0949260655132,231.51408884837886)"><circle class="pool" r="12.315105078211893" cx="12.315105078211893" cy="12.315105078211893" style="stroke-width: 1; fill: rgb(65, 182, 196);"></circle><circle class="pearl" r="2.190433937142651" cx="13.40187609837666" cy="12.634827707372109"></circle><circle class="pearl" r="2.190433937142651" cx="5.717818512477532" cy="19.06330597942372"></circle><circle class="pearl" r="2.190433937142651" cx="14.979145503360916" cy="3.942322091848327"></circle><circle class="pearl" r="2.190433937142651" cx="19.976861542378305" cy="17.182303069746865"></circle><circle class="pearl" r="2.190433937142651" cx="3.666176693527083" cy="11.698352875190277"></circle><circle class="pearl" r="2.190433937142651" cx="20.595754592049026" cy="9.264833357673123"></circle><circle class="pearl" r="2.190433937142651" cx="13.211712217631174" cy="20.94680460433146"></circle><circle class="pearl" r="2.190433937142651" cx="7.156079282707319" cy="4.783419535470834"></circle></g><g class="bobaCup bright" cupRadius="12.28741581745574" width="24.57483163491148" height="24.57483163491148" pearlRadius="2.7380424214283137" pearlCount="8" transform="translate(47.23741462290049,196.5105528070301)"><circle class="pool" r="12.28741581745574" cx="12.28741581745574" cy="12.28741581745574" style="stroke-width: 1; fill: rgb(127, 205, 187);"></circle><circle class="pearl" r="2.190433937142651" cx="13.357068192320318" cy="12.607838054919856"></circle><circle class="pearl" r="2.190433937142651" cx="5.72173073016455" cy="19.02285486402669"></circle><circle class="pearl" r="2.190433937142651" cx="14.912730709187771" cy="3.934460060386149"></circle><circle class="pearl" r="2.190433937142651" cx="19.93122653187004" cy="17.126226671561586"></circle><circle class="pearl" r="2.190433937142651" cx="3.664591684639676" cy="11.70378696377555"></circle><circle class="pearl" r="2.190433937142651" cx="20.5332859493238" cy="9.213061594628325"></circle><circle class="pearl" r="2.190433937142651" cx="13.194539207825745" cy="20.890578283867494"></circle><circle class="pearl" r="2.190433937142651" cx="7.105697690782212" cy="4.7967574114733935"></circle></g><g class="bobaCup bright" cupRadius="11.891611762947624" width="23.78322352589525" height="23.78322352589525" pearlRadius="2.7380424214283132" pearlCount="7" transform="translate(173.62429527363372,190.35512415484973)"><circle class="pool" r="11.891611762947624" cx="11.891611762947624" cy="11.891611762947624" style="stroke-width: 1; fill: rgb(65, 182, 196);"></circle><circle class="pearl" r="2.1904339371426507" cx="12.939158047543648" cy="12.239214880994252"></circle><circle class="pearl" r="2.1904339371426507" cx="4.55200765895011" cy="14.890445682033471"></circle><circle class="pearl" r="2.1904339371426507" cx="12.056503492638768" cy="3.6518664962005465"></circle><circle class="pearl" r="2.1904339371426507" cx="18.39106303121442" cy="18.087125301341047"></circle><circle class="pearl" r="2.1904339371426507" cx="4.750087775856346" cy="6.8978325971552215"></circle><circle class="pearl" r="2.1904339371426507" cx="19.19234398437914" cy="7.2573854146471195"></circle><circle class="pearl" r="2.1904339371426507" cx="10.64500612428564" cy="20.066978534978194"></circle></g><g class="bobaCup bright" cupRadius="11.88965949124288" width="23.77931898248576" height="23.77931898248576" pearlRadius="2.7380424214283137" pearlCount="7" transform="translate(25.129343462271656,263.9528261774642)"><circle class="pool" r="11.88965949124288" cx="11.88965949124288" cy="11.88965949124288" style="stroke-width: 1; fill: rgb(127, 205, 187);"></circle><circle class="pearl" r="2.190433937142651" cx="12.933760732215168" cy="12.237561990783819"></circle><circle class="pearl" r="2.190433937142651" cx="4.545046116031789" cy="14.890821009640181"></circle><circle class="pearl" r="2.190433937142651" cx="12.055327503610329" cy="3.6518774762023813"></circle><circle class="pearl" r="2.190433937142651" cx="18.387929337078795" cy="18.08336132401951"></circle><circle class="pearl" r="2.190433937142651" cx="4.749139860470814" cy="6.898359022589712"></circle><circle class="pearl" r="2.190433937142651" cx="19.190043862953342" cy="7.259622218740891"></circle><circle class="pearl" r="2.190433937142651" cx="10.641799788289296" cy="20.062930891368413"></circle></g><g class="bobaCup bright" cupRadius="11.684035667817568" width="23.368071335635136" height="23.368071335635136" pearlRadius="2.7380424214283132" pearlCount="7" transform="translate(113.52152535376152,288.31596433218243)"><circle class="pool" r="11.684035667817568" cx="11.684035667817568" cy="11.684035667817568" style="stroke-width: 1; fill: rgb(65, 182, 196);"></circle><circle class="pearl" r="2.1904339371426507" cx="12.21047578291448" cy="11.85738255260748"></circle><circle class="pearl" r="2.1904339371426507" cx="4.073153337228386" cy="14.79738269581231"></circle><circle class="pearl" r="2.1904339371426507" cx="12.043450277234157" cy="3.656252543889157"></circle><circle class="pearl" r="2.1904339371426507" cx="18.13804942229149" cy="17.550122948988516"></circle><circle class="pearl" r="2.1904339371426507" cx="4.707472460090831" cy="6.8283717083045685"></circle><circle class="pearl" r="2.1904339371426507" cx="18.986099917673688" cy="7.61548114080907"></circle><circle class="pearl" r="2.1904339371426507" cx="10.424578305813872" cy="19.64926942264341"></circle></g><g class="bobaCup bright" cupRadius="11.405964573116847" width="22.811929146233695" height="22.811929146233695" pearlRadius="2.738042421428314" pearlCount="7" transform="translate(234.1784792685252,283.06942773854075)"><circle class="pool" r="11.405964573116847" cx="11.405964573116847" cy="11.405964573116847" style="stroke-width: 1; fill: rgb(29, 145, 192);"></circle><circle class="pearl" r="2.1904339371426516" cx="11.438720827772439" cy="11.420281225272177"></circle><circle class="pearl" r="2.1904339371426516" cx="4.0090168247579" cy="14.242334405965597"></circle><circle class="pearl" r="2.1904339371426516" cx="12.332379715202508" cy="3.6884081241065005"></circle><circle class="pearl" r="2.1904339371426516" cx="17.850079440508043" cy="16.715415736797066"></circle><circle class="pearl" r="2.1904339371426516" cx="4.854001305040473" cy="6.306825813059007"></circle><circle class="pearl" r="2.1904339371426516" cx="18.719096395902774" cy="8.261141802907062"></circle><circle class="pearl" r="2.1904339371426516" cx="10.18676405882878" cy="19.095857639490067"></circle></g><g class="bobaCup bright" cupRadius="10.855460744321038" width="21.710921488642075" height="21.710921488642075" pearlRadius="2.738042421428314" pearlCount="6" transform="translate(138.56714788773317,65.7372534339261)"><circle class="pool" r="10.855460744321038" cx="10.855460744321038" cy="10.855460744321038" style="stroke-width: 1; fill: rgb(29, 145, 192);"></circle><circle class="pearl" r="2.1904339371426516" cx="11.214391718062345" cy="11.101443521337066"></circle><circle class="pearl" r="2.1904339371426516" cx="5.701860461368235" cy="16.758869192414444"></circle><circle class="pearl" r="2.1904339371426516" cx="8.857418447558587" cy="3.8361860838649986"></circle><circle class="pearl" r="2.1904339371426516" cx="16.386961222736232" cy="16.545162047257474"></circle><circle class="pearl" r="2.1904339371426516" cx="3.7615744190564837" cy="9.308077951629143"></circle><circle class="pearl" r="2.1904339371426516" cx="16.47607247503694" cy="5.219109528050311"></circle></g><g class="bobaCup bright" cupRadius="10.809375510998514" width="21.618751021997028" height="21.618751021997028" pearlRadius="2.7380424214283137" pearlCount="6" transform="translate(96.26238481731116,133.56333527022574)"><circle class="pool" r="10.809375510998514" cx="10.809375510998514" cy="10.809375510998514" style="stroke-width: 1; fill: rgb(65, 182, 196);"></circle><circle class="pearl" r="2.190433937142651" cx="11.149128290498538" cy="11.070201651589837"></circle><circle class="pearl" r="2.190433937142651" cx="5.529257737621736" cy="16.590669841626788"></circle><circle class="pearl" r="2.190433937142651" cx="8.860921997191939" cy="3.827783477016988"></circle><circle class="pearl" r="2.190433937142651" cx="16.29812866817536" cy="16.47080497218481"></circle><circle class="pearl" r="2.190433937142651" cx="3.7766420528505176" cy="9.164276073039908"></circle><circle class="pearl" r="2.190433937142651" cx="16.39768952453491" cy="5.20735074646576"></circle></g><g class="bobaCup bright" cupRadius="10.714870082926923" width="21.429740165853847" height="21.429740165853847" pearlRadius="2.7380424214283132" pearlCount="6" transform="translate(170.71679323494521,45.445191501187004)"><circle class="pool" r="10.714870082926923" cx="10.714870082926923" cy="10.714870082926923" style="stroke-width: 1; fill: rgb(65, 182, 196);"></circle><circle class="pearl" r="2.1904339371426507" cx="11.032887102431408" cy="10.999792039277493"></circle><circle class="pearl" r="2.1904339371426507" cx="5.296063843816371" cy="16.307792230341384"></circle><circle class="pearl" r="2.1904339371426507" cx="8.835995174864008" cy="3.816741716473362"></circle><circle class="pearl" r="2.1904339371426507" cx="16.114208515762616" cy="16.319177128844725"></circle><circle class="pearl" r="2.1904339371426507" cx="3.7982101802404395" cy="8.943188776592338"></circle><circle class="pearl" r="2.1904339371426507" cx="16.23068347510224" cy="5.179503636521944"></circle></g><g class="bobaCup bright" cupRadius="10.713472762747983" width="21.426945525495967" height="21.426945525495967" pearlRadius="2.7380424214283132" pearlCount="6" transform="translate(219.7047596344544,138.17188696087962)"><circle class="pool" r="10.713472762747983" cx="10.713472762747983" cy="10.713472762747983" style="stroke-width: 1; fill: rgb(127, 205, 187);"></circle><circle class="pearl" r="2.1904339371426507" cx="11.031743130366714" cy="10.99851116884363"></circle><circle class="pearl" r="2.1904339371426507" cx="5.296075924391839" cy="16.305601374053577"></circle><circle class="pearl" r="2.1904339371426507" cx="8.834431037108983" cy="3.8167934280596887"></circle><circle class="pearl" r="2.1904339371426507" cx="16.111429713791534" cy="16.316967998900083"></circle><circle class="pearl" r="2.1904339371426507" cx="3.798136203920609" cy="8.942349049603092"></circle><circle class="pearl" r="2.1904339371426507" cx="16.22797890133843" cy="5.178951264824778"></circle></g><g class="bobaCup bright" cupRadius="10.614617901078645" width="21.22923580215729" height="21.22923580215729" pearlRadius="2.7380424214283137" pearlCount="6" transform="translate(60.2091292852902,83.72646497766581)"><circle class="pool" r="10.614617901078645" cx="10.614617901078645" cy="10.614617901078645" style="stroke-width: 1; fill: rgb(127, 205, 187);"></circle><circle class="pearl" r="2.190433937142651" cx="10.951312459679473" cy="10.907533629918875"></circle><circle class="pearl" r="2.190433937142651" cx="5.29699249399129" cy="16.15045949379948"></circle><circle class="pearl" r="2.190433937142651" cx="8.72326860848811" cy="3.8205859367638535"></circle><circle class="pearl" r="2.190433937142651" cx="15.914764762965834" cy="16.160554741702605"></circle><circle class="pearl" r="2.190433937142651" cx="3.7928352336764757" cy="8.883510323628688"></circle><circle class="pearl" r="2.190433937142651" cx="16.036438202627426" cy="5.139883453258221"></circle></g><g class="bobaCup bright" cupRadius="10.5956095360603" width="21.1912190721206" height="21.1912190721206" pearlRadius="2.7380424214283137" pearlCount="6" transform="translate(284.2922396096233,194.8287189760854)"><circle class="pool" r="10.5956095360603" cx="10.5956095360603" cy="10.5956095360603" style="stroke-width: 1; fill: rgb(127, 205, 187);"></circle><circle class="pearl" r="2.190433937142651" cx="10.935965093751708" cy="10.889954842886008"></circle><circle class="pearl" r="2.190433937142651" cx="5.297183890445421" cy="16.120594842449474"></circle><circle class="pearl" r="2.190433937142651" cx="8.70177401034473" cy="3.82134698803727"></circle><circle class="pearl" r="2.190433937142651" cx="15.876930547121876" cy="16.130450515460954"></circle><circle class="pearl" r="2.190433937142651" cx="3.791800004551691" cy="8.87233178448558"></circle><circle class="pearl" r="2.190433937142651" cx="15.999559491136054" cy="5.132372795238897"></circle></g><g class="bobaCup bright" cupRadius="10.415595700048168" width="20.831191400096337" height="20.831191400096337" pearlRadius="2.738042421428313" pearlCount="5" transform="translate(193.82812252626664,158.9749124796369)"><circle class="pool" r="10.415595700048168" cx="10.415595700048168" cy="10.415595700048168" style="stroke-width: 1; fill: rgb(65, 182, 196);"></circle><circle class="pearl" r="2.1904339371426502" cx="16.593701667974454" cy="8.043584886089764"></circle><circle class="pearl" r="2.1904339371426502" cx="7.349333957864914" cy="15.950646465070308"></circle><circle class="pearl" r="2.1904339371426502" cx="9.905365520791925" cy="3.663228092188089"></circle><circle class="pearl" r="2.1904339371426502" cx="15.344411339173853" cy="15.940460201010927"></circle><circle class="pearl" r="2.1904339371426502" cx="3.777102331902086" cy="8.7979877090003"></circle></g><g class="bobaCup bright" cupRadius="10.353970057162435" width="20.70794011432487" height="20.70794011432487" pearlRadius="2.7380424214283137" pearlCount="5" transform="translate(89.64646120371623,183.25398891879422)"><circle class="pool" r="10.353970057162435" cx="10.353970057162435" cy="10.353970057162435" style="stroke-width: 1; fill: rgb(29, 145, 192);"></circle><circle class="pearl" r="2.190433937142651" cx="16.659476596005987" cy="7.944691342221898"></circle><circle class="pearl" r="2.190433937142651" cx="7.27304103972833" cy="15.96975615033182"></circle><circle class="pearl" r="2.190433937142651" cx="9.909279512996354" cy="3.660277098024059"></circle><circle class="pearl" r="2.190433937142651" cx="15.266675446087742" cy="15.817522537951941"></circle><circle class="pearl" r="2.190433937142651" cx="3.7706510981613874" cy="8.782640541239664"></circle></g><g class="bobaCup bright" cupRadius="10.288613937705733" width="20.577227875411467" height="20.577227875411467" pearlRadius="2.7380424214283137" pearlCount="5" transform="translate(293.08704046328904,157.53794057548748)"><circle class="pool" r="10.288613937705733" cx="10.288613937705733" cy="10.288613937705733" style="stroke-width: 1; fill: rgb(65, 182, 196);"></circle><circle class="pearl" r="2.190433937142651" cx="16.627570698116166" cy="7.826527327349613"></circle><circle class="pearl" r="2.190433937142651" cx="7.19584448102814" cy="16.09345453357334"></circle><circle class="pearl" r="2.190433937142651" cx="9.803786671764914" cy="3.6621527619103666"></circle><circle class="pearl" r="2.190433937142651" cx="15.180680748068287" cy="15.689037547082965"></circle><circle class="pearl" r="2.190433937142651" cx="3.747530995956623" cy="8.880543007043544"></circle></g><g class="bobaCup bright" cupRadius="10.280315651562663" width="20.560631303125326" height="20.560631303125326" pearlRadius="2.7380424214283137" pearlCount="5" transform="translate(119.80958349970729,252.87974111865242)"><circle class="pool" r="10.280315651562663" cx="10.280315651562663" cy="10.280315651562663" style="stroke-width: 1; fill: rgb(29, 145, 192);"></circle><circle class="pearl" r="2.190433937142651" cx="16.60845032662257" cy="7.80902351284139"></circle><circle class="pearl" r="2.190433937142651" cx="7.18716558623606" cy="16.124993155080205"></circle><circle class="pearl" r="2.190433937142651" cx="9.773544810043385" cy="3.6632215263846994"></circle><circle class="pearl" r="2.190433937142651" cx="15.169444799029943" cy="15.672894147204374"></circle><circle class="pearl" r="2.190433937142651" cx="3.7424020910677367" cy="8.910435993981412"></circle></g><g class="bobaCup bright" cupRadius="10.260523276790174" width="20.521046553580348" height="20.521046553580348" pearlRadius="2.7380424214283137" pearlCount="5" transform="translate(241.0545672217314,254.27844662057922)"><circle class="pool" r="10.260523276790174" cx="10.260523276790174" cy="10.260523276790174" style="stroke-width: 1; fill: rgb(127, 205, 187);"></circle><circle class="pearl" r="2.190433937142651" cx="16.562836210041127" cy="7.767451060624781"></circle><circle class="pearl" r="2.190433937142651" cx="7.167295989874016" cy="16.199803669353344"></circle><circle class="pearl" r="2.190433937142651" cx="9.701564536473178" cy="3.66595963577209"></circle><circle class="pearl" r="2.190433937142651" cx="15.14236558581562" cy="15.634541240262333"></circle><circle class="pearl" r="2.190433937142651" cx="3.7307643037527676" cy="8.981414189852824"></circle></g><g class="bobaCup bright" cupRadius="10.18473226430672" width="20.36946452861344" height="20.36946452861344" pearlRadius="2.7380424214283137" pearlCount="5" transform="translate(199.30966369886383,155.8709730213685)"><circle class="pool" r="10.18473226430672" cx="10.18473226430672" cy="10.18473226430672" style="stroke-width: 1; fill: rgb(29, 145, 192);"></circle><circle class="pearl" r="2.190433937142651" cx="16.351047441784136" cy="7.472808919191853"></circle><circle class="pearl" r="2.190433937142651" cx="7.329191758017715" cy="16.310238355496555"></circle><circle class="pearl" r="2.190433937142651" cx="9.37525974322329" cy="3.6829422309696422"></circle><circle class="pearl" r="2.190433937142651" cx="15.263656308616815" cy="15.361993055189856"></circle><circle class="pearl" r="2.190433937142651" cx="3.6950431542171938" cy="9.235622735564172"></circle></g><g class="bobaCup bright" cupRadius="9.89110217548918" width="19.78220435097836" height="19.78220435097836" pearlRadius="2.7380424214283137" pearlCount="5" transform="translate(115.55217616695163,144.2229630823368)"><circle class="pool" r="9.89110217548918" cx="9.89110217548918" cy="9.89110217548918" style="stroke-width: 1; fill: rgb(65, 182, 196);"></circle><circle class="pearl" r="2.190433937142651" cx="15.733088404042473" cy="7.1121870259050475"></circle><circle class="pearl" r="2.190433937142651" cx="6.990539644506583" cy="15.696627634945852"></circle><circle class="pearl" r="2.190433937142651" cx="9.050790083607762" cy="3.686482800466788"></circle><circle class="pearl" r="2.190433937142651" cx="14.772557881672164" cy="14.843011824970045"></circle><circle class="pearl" r="2.190433937142651" cx="3.6973826269390546" cy="8.931493581346336"></circle></g><g class="bobaCup bright" cupRadius="9.742930995942785" width="19.48586199188557" height="19.48586199188557" pearlRadius="2.738042421428314" pearlCount="5" transform="translate(217.29611720413004,67.70192112548354)"><circle class="pool" r="9.742930995942785" cx="9.742930995942785" cy="9.742930995942785" style="stroke-width: 1; fill: rgb(127, 205, 187);"></circle><circle class="pearl" r="2.1904339371426516" cx="15.430531123457758" cy="6.964366386494184"></circle><circle class="pearl" r="2.1904339371426516" cx="6.769789763101717" cy="15.370415331404903"></circle><circle class="pearl" r="2.1904339371426516" cx="8.932315545027029" cy="3.684503541656007"></circle><circle class="pearl" r="2.1904339371426516" cx="14.494188237556777" cy="14.598103311975645"></circle><circle class="pearl" r="2.1904339371426516" cx="3.7036051371158973" cy="8.729198745533262"></circle></g><g class="bobaCup bright" cupRadius="9.72516639648066" width="19.45033279296132" height="19.45033279296132" pearlRadius="2.7380424214283132" pearlCount="5" transform="translate(191.1225622071601,105.14605971377458)"><circle class="pool" r="9.72516639648066" cx="9.72516639648066" cy="9.72516639648066" style="stroke-width: 1; fill: rgb(29, 145, 192);"></circle><circle class="pearl" r="2.1904339371426507" cx="15.39436953611727" cy="6.94706741868603"></circle><circle class="pearl" r="2.1904339371426507" cx="6.742646866259572" cy="15.330978086068011"></circle><circle class="pearl" r="2.1904339371426507" cx="8.919022087841592" cy="3.684192519132396"></circle><circle class="pearl" r="2.1904339371426507" cx="14.46072691546063" cy="14.568754676814507"></circle><circle class="pearl" r="2.1904339371426507" cx="3.7044804659905646" cy="8.704036474646928"></circle></g><g class="bobaCup bright" cupRadius="9.684327121063866" width="19.368654242127732" height="19.368654242127732" pearlRadius="2.7380424214283137" pearlCount="5" transform="translate(196.37454226458593,246.81656187015835)"><circle class="pool" r="9.684327121063866" cx="9.684327121063866" cy="9.684327121063866" style="stroke-width: 1; fill: rgb(127, 205, 187);"></circle><circle class="pearl" r="2.190433937142651" cx="15.311359314793425" cy="6.907738186463682"></circle><circle class="pearl" r="2.190433937142651" cx="6.679593196407034" cy="15.240001984569265"></circle><circle class="pearl" r="2.190433937142651" cx="8.889360275397085" cy="3.6834069920474075"></circle><circle class="pearl" r="2.190433937142651" cx="14.383713193655705" cy="14.501305016676547"></circle><circle class="pearl" r="2.190433937142651" cx="3.7066231771292717" cy="8.645297780030882"></circle></g><g class="bobaCup bright" cupRadius="9.302320754299222" width="18.604641508598444" height="18.604641508598444" pearlRadius="2.7380424214283132" pearlCount="4" transform="translate(18.79910546203221,28.635032751278352)"><circle class="pool" r="9.302320754299222" cx="9.302320754299222" cy="9.302320754299222" style="stroke-width: 1; fill: rgb(127, 205, 187);"></circle><circle class="pearl" r="2.1904339371426507" cx="14.434662829073492" cy="6.237857458216687"></circle><circle class="pearl" r="2.1904339371426507" cx="5.389668056908576" cy="12.15092895175184"></circle><circle class="pearl" r="2.1904339371426507" cx="6.757536383209729" cy="4.005572612671645"></circle><circle class="pearl" r="2.1904339371426507" cx="13.136729989054396" cy="14.126883788521287"></circle></g><g class="bobaCup bright" cupRadius="9.283156215182114" width="18.566312430364228" height="18.566312430364228" pearlRadius="2.738042421428314" pearlCount="4" transform="translate(43.513961822224246,169.70901651605138)"><circle class="pool" r="9.283156215182114" cx="9.283156215182114" cy="9.283156215182114" style="stroke-width: 1; fill: rgb(29, 145, 192);"></circle><circle class="pearl" r="2.1904339371426516" cx="14.388815840998138" cy="6.200503360436739"></circle><circle class="pearl" r="2.1904339371426516" cx="5.357297818131738" cy="12.121917045143991"></circle><circle class="pearl" r="2.1904339371426516" cx="6.697352548613132" cy="4.018128846443249"></circle><circle class="pearl" r="2.1904339371426516" cx="13.105860337515876" cy="14.091979221993089"></circle></g><g class="bobaCup bright" cupRadius="8.919585117126216" width="17.839170234252432" height="17.839170234252432" pearlRadius="2.7380424214283132" pearlCount="4" transform="translate(239.82286101129975,78.94476484090893)"><circle class="pool" r="8.919585117126216" cx="8.919585117126216" cy="8.919585117126216" style="stroke-width: 1; fill: rgb(65, 182, 196);"></circle><circle class="pearl" r="2.1904339371426507" cx="13.481559717137227" cy="5.439557381882944"></circle><circle class="pearl" r="2.1904339371426507" cx="4.699789673108424" cy="12.252450379529986"></circle><circle class="pearl" r="2.1904339371426507" cx="5.567445284474685" cy="4.304586525794911"></circle><circle class="pearl" r="2.1904339371426507" cx="12.613904105771612" cy="13.38742123561872"></circle></g><g class="bobaCup bright" cupRadius="8.812926619020514" width="17.625853238041028" height="17.625853238041028" pearlRadius="2.7380424214283132" pearlCount="4" transform="translate(128.35781522235945,280.80865145884405)"><circle class="pool" r="8.812926619020514" cx="8.812926619020514" cy="8.812926619020514" style="stroke-width: 1; fill: rgb(29, 145, 192);"></circle><circle class="pearl" r="2.1904339371426507" cx="13.215189185325325" cy="5.232829500258598"></circle><circle class="pearl" r="2.1904339371426507" cx="4.495831658234312" cy="12.355014680222235"></circle><circle class="pearl" r="2.1904339371426507" cx="5.263924636548379" cy="4.396911936846686"></circle><circle class="pearl" r="2.1904339371426507" cx="12.447096207011354" cy="13.190932243634276"></circle></g><g class="bobaCup bright" cupRadius="8.545450309924155" width="17.09090061984831" height="17.09090061984831" pearlRadius="2.7380424214283132" pearlCount="4" transform="translate(97.49851442705368,157.21903731519797)"><circle class="pool" r="8.545450309924155" cx="8.545450309924155" cy="8.545450309924155" style="stroke-width: 1; fill: rgb(127, 205, 187);"></circle><circle class="pearl" r="2.1904339371426507" cx="12.463281302444422" cy="4.601746548035031"></circle><circle class="pearl" r="2.1904339371426507" cx="4.6275390610099025" cy="12.489112668417633"></circle><circle class="pearl" r="2.1904339371426507" cx="4.627655898689076" cy="4.601727676506491"></circle><circle class="pearl" r="2.1904339371426507" cx="12.463164458010407" cy="12.489214348658717"></circle></g><g class="bobaCup bright" cupRadius="8.254076323593692" width="16.508152647187384" height="16.508152647187384" pearlRadius="2.7380424214283137" pearlCount="3" transform="translate(102.57010980554934,18.707602183968042)"><circle class="pool" r="8.254076323593692" cx="8.254076323593692" cy="8.254076323593692" style="stroke-width: 1; fill: rgb(29, 145, 192);"></circle><circle class="pearl" r="2.190433937142651" cx="12.551894801008086" cy="9.897843924474023"></circle><circle class="pearl" r="2.190433937142651" cx="4.521180803511411" cy="11.1898350346058"></circle><circle class="pearl" r="2.190433937142651" cx="7.52195816190448" cy="3.683255965159063"></circle></g><g class="bobaCup bright" cupRadius="8.217784131324388" width="16.435568262648776" height="16.435568262648776" pearlRadius="2.738042421428314" pearlCount="3" transform="translate(55.4083289402592,269.5825972151565)"><circle class="pool" r="8.217784131324388" cx="8.217784131324388" cy="8.217784131324388" style="stroke-width: 1; fill: rgb(65, 182, 196);"></circle><circle class="pearl" r="2.1904339371426516" cx="12.529148854946774" cy="9.874224187888302"></circle><circle class="pearl" r="2.1904339371426516" cx="4.49006798850015" cy="11.143705151176711"></circle><circle class="pearl" r="2.1904339371426516" cx="7.468040390260714" cy="3.6849958671569945"></circle></g><g class="bobaCup bright" cupRadius="7.866678889694701" width="15.733357779389403" height="15.733357779389403" pearlRadius="2.7380424214283132" pearlCount="3" transform="translate(203.54915021902218,79.94227127331479)"><circle class="pool" r="7.866678889694701" cx="7.866678889694701" cy="7.866678889694701" style="stroke-width: 1; fill: rgb(29, 145, 192);"></circle><circle class="pearl" r="2.1904339371426507" cx="11.960823062301248" cy="9.245687842437327"></circle><circle class="pearl" r="2.1904339371426507" cx="4.475009650487602" cy="11.31392836643776"></circle><circle class="pearl" r="2.1904339371426507" cx="6.255705237289993" cy="3.81744103753128"></circle></g><g class="bobaCup bright" cupRadius="7.857342824541444" width="15.714685649082888" height="15.714685649082888" pearlRadius="2.7380424214283137" pearlCount="3" transform="translate(71.87744999881484,180.01694314858534)"><circle class="pool" r="7.857342824541444" cx="7.857342824541444" cy="7.857342824541444" style="stroke-width: 1; fill: rgb(127, 205, 187);"></circle><circle class="pearl" r="2.190433937142651" cx="11.943805278661586" cy="9.226208769011837"></circle><circle class="pearl" r="2.190433937142651" cx="4.47589447033023" cy="11.299125732039272"></circle><circle class="pearl" r="2.190433937142651" cx="6.229439971314535" cy="3.821209181618914"></circle></g><g class="bobaCup bright" cupRadius="7.834340195707661" width="15.668680391415322" height="15.668680391415322" pearlRadius="2.7380424214283132" pearlCount="3" transform="translate(128.55901536273853,176.69022928413665)"><circle class="pool" r="7.834340195707661" cx="7.834340195707661" cy="7.834340195707661" style="stroke-width: 1; fill: rgb(65, 182, 196);"></circle><circle class="pearl" r="2.1904339371426507" cx="11.902379981483538" cy="9.175080226597373"></circle><circle class="pearl" r="2.1904339371426507" cx="4.478306741145223" cy="11.262735962741782"></circle><circle class="pearl" r="2.1904339371426507" cx="6.161760574560579" cy="3.831347744100637"></circle></g><g class="bobaCup bright" cupRadius="7.672081309713076" width="15.344162619426152" height="15.344162619426152" pearlRadius="2.7380424214283137" pearlCount="3" transform="translate(99.35204530046157,151.68368729974418)"><circle class="pool" r="7.672081309713076" cx="7.672081309713076" cy="7.672081309713076" style="stroke-width: 1; fill: rgb(65, 182, 196);"></circle><circle class="pearl" r="2.190433937142651" cx="11.638641208534004" cy="8.587411512425541"></circle><circle class="pearl" r="2.190433937142651" cx="4.5121826284965625" cy="11.012486169461848"></circle><circle class="pearl" r="2.190433937142651" cx="5.470337224548531" cy="3.9734403068494686"></circle></g><g class="bobaCup bright" cupRadius="7.360974167841503" width="14.721948335683006" height="14.721948335683006" pearlRadius="2.7380424214283132" pearlCount="3" transform="translate(187.5633972028933,26.425617545068377)"><circle class="pool" r="7.360974167841503" cx="7.360974167841503" cy="7.360974167841503" style="stroke-width: 1; fill: rgb(127, 205, 187);"></circle><circle class="pearl" r="2.1904339371426507" cx="11.070901010528601" cy="7.430048244866204"></circle><circle class="pearl" r="2.1904339371426507" cx="4.550006662789895" cy="10.513368047271268"></circle><circle class="pearl" r="2.1904339371426507" cx="4.545292910966872" cy="4.210529867280931"></circle></g><g class="bobaCup bright" cupRadius="7.2637154078319375" width="14.527430815663875" height="14.527430815663875" pearlRadius="2.7380424214283132" pearlCount="3" transform="translate(88.93185426303025,236.41866723385525)"><circle class="pool" r="7.2637154078319375" cx="7.2637154078319375" cy="7.2637154078319375" style="stroke-width: 1; fill: rgb(65, 182, 196);"></circle><circle class="pearl" r="2.1904339371426507" cx="10.202262769033752" cy="10.25577028273149"></circle><circle class="pearl" r="2.1904339371426507" cx="4.328640295913166" cy="10.257305207209647"></circle><circle class="pearl" r="2.1904339371426507" cx="6.843722608902206" cy="3.662875523885676"></circle></g><g class="bobaCup bright" cupRadius="7.2359141286076145" width="14.471828257215229" height="14.471828257215229" pearlRadius="2.7380424214283137" pearlCount="3" transform="translate(68.05941154234753,169.7194629487728)"><circle class="pool" r="7.2359141286076145" cx="7.2359141286076145" cy="7.2359141286076145" style="stroke-width: 1; fill: rgb(127, 205, 187);"></circle><circle class="pearl" r="2.190433937142651" cx="10.14973244605849" cy="10.20849189647864"></circle><circle class="pearl" r="2.190433937142651" cx="4.32647127623981" cy="10.21041508985752"></circle><circle class="pearl" r="2.190433937142651" cx="6.798260656106968" cy="3.6639707641127135"></circle></g><g class="bobaCup bright" cupRadius="7.11189246053967" width="14.22378492107934" height="14.22378492107934" pearlRadius="2.7380424214283137" pearlCount="3" transform="translate(251.88342979561995,15.17716109332522)"><circle class="pool" r="7.11189246053967" cx="7.11189246053967" cy="7.11189246053967" style="stroke-width: 1; fill: rgb(127, 205, 187);"></circle><circle class="pearl" r="2.190433937142651" cx="9.916380261630188" cy="9.99675356267808"></circle><circle class="pearl" r="2.190433937142651" cx="4.317530986333127" cy="10.001089592473843"></circle><circle class="pearl" r="2.190433937142651" cx="6.589034993579316" cy="3.6699691844888873"></circle></g><g class="bobaCup bright" cupRadius="7.091990690382909" width="14.183981380765818" height="14.183981380765818" pearlRadius="2.738042421428314" pearlCount="3" transform="translate(124.1795613561124,252.11216573062583)"><circle class="pool" r="7.091990690382909" cx="7.091990690382909" cy="7.091990690382909" style="stroke-width: 1; fill: rgb(127, 205, 187);"></circle><circle class="pearl" r="2.1904339371426516" cx="9.879103204614267" cy="9.962642760435022"></circle><circle class="pearl" r="2.1904339371426516" cx="4.316230616795417" cy="9.967482901586656"></circle><circle class="pearl" r="2.1904339371426516" cx="6.5543298651617805" cy="3.6711332760213"></circle></g><g class="bobaCup bright" cupRadius="7.086457660647477" width="14.172915321294955" height="14.172915321294955" pearlRadius="2.738042421428314" pearlCount="3" transform="translate(171.43365706998162,12.913542339352523)"><circle class="pool" r="7.086457660647477" cx="7.086457660647477" cy="7.086457660647477" style="stroke-width: 1; fill: rgb(29, 145, 192);"></circle><circle class="pearl" r="2.1904339371426516" cx="9.868748790209697" cy="9.953152498036923"></circle><circle class="pearl" r="2.1904339371426516" cx="4.31587680817152" cy="9.958139196888443"></circle><circle class="pearl" r="2.1904339371426516" cx="6.544618029944252" cy="3.6714684700248186"></circle></g><g class="bobaCup bright" cupRadius="7.083922136912131" width="14.167844273824262" height="14.167844273824262" pearlRadius="2.738042421428314" pearlCount="3" transform="translate(110.21542689920865,260.4828134289527)"><circle class="pool" r="7.083922136912131" cx="7.083922136912131" cy="7.083922136912131" style="stroke-width: 1; fill: rgb(29, 145, 192);"></circle><circle class="pearl" r="2.1904339371426516" cx="9.864005227756417" cy="9.948802552657925"></circle><circle class="pearl" r="2.1904339371426516" cx="4.3157158311168065" cy="9.953857363619065"></circle><circle class="pearl" r="2.1904339371426516" cx="6.540158130566923" cy="3.671623806176099"></circle></g><g class="bobaCup bright" cupRadius="6.990298414105536" width="13.980596828211072" height="13.980596828211072" pearlRadius="2.7380424214283132" pearlCount="2" transform="translate(91.9954324546589,141.4992531898564)"><circle class="pool" r="6.990298414105536" cx="6.990298414105536" cy="6.990298414105536" style="stroke-width: 1; fill: rgb(127, 205, 187);"></circle><circle class="pearl" r="2.1904339371426507" cx="9.743462759697078" cy="4.215731143064181"></circle><circle class="pearl" r="2.1904339371426507" cx="4.237134068513993" cy="9.76486568514689"></circle></g><g class="bobaCup bright" cupRadius="6.5677152475630205" width="13.135430495126041" height="13.135430495126041" pearlRadius="2.7380424214283132" pearlCount="2" transform="translate(313.432284752437,127.9450113927346)"><circle class="pool" r="6.5677152475630205" cx="6.5677152475630205" cy="6.5677152475630205" style="stroke-width: 1; fill: rgb(29, 145, 192);"></circle><circle class="pearl" r="2.1904339371426507" cx="8.91790864959265" cy="4.085619014733974"></circle><circle class="pearl" r="2.1904339371426507" cx="4.217521845533391" cy="9.049811480392066"></circle></g><g class="bobaCup bright" cupRadius="6.398491368339652" width="12.796982736679304" height="12.796982736679304" pearlRadius="2.738042421428314" pearlCount="2" transform="translate(239.123520214205,119.0201156617366)"><circle class="pool" r="6.398491368339652" cx="6.398491368339652" cy="6.398491368339652" style="stroke-width: 1; fill: rgb(127, 205, 187);"></circle><circle class="pearl" r="2.1904339371426516" cx="8.587452774486135" cy="4.036799129470197"></circle><circle class="pearl" r="2.1904339371426516" cx="4.209529962193169" cy="8.760183607209107"></circle></g><g class="bobaCup bright" cupRadius="5.561949975697579" width="11.123899951395158" height="11.123899951395158" pearlRadius="2.7380424214283132" pearlCount="2" transform="translate(205.04593470857714,59.47762276251988)"><circle class="pool" r="5.561949975697579" cx="5.561949975697579" cy="5.561949975697579" style="stroke-width: 1; fill: rgb(65, 182, 196);"></circle><circle class="pearl" r="2.1904339371426507" cx="7.134491995343416" cy="3.8776568848362203"></circle><circle class="pearl" r="2.1904339371426507" cx="3.9894079560517417" cy="7.246243066558937"></circle></g><g class="bobaCup bright" cupRadius="4.729011713864451" width="9.458023427728902" height="9.458023427728902" pearlRadius="2.7380424214283132" pearlCount="1" transform="translate(15.270988286135548,274.19921720154065)"><circle class="pool" r="4.729011713864451" cx="4.729011713864451" cy="4.729011713864451" style="stroke-width: 1; fill: rgb(65, 182, 196);"></circle><circle class="pearl" r="2.1904339371426507" cx="5.807300199157818" cy="4.729011713864451"></circle></g><g class="bobaCup bright" cupRadius="4.420038783630113" width="8.840077567260225" height="8.840077567260225" pearlRadius="2.738042421428314" pearlCount="1" transform="translate(73.36848169188322,180.7186367682047)"><circle class="pool" r="4.420038783630113" cx="4.420038783630113" cy="4.420038783630113" style="stroke-width: 1; fill: rgb(65, 182, 196);"></circle><circle class="pearl" r="2.1904339371426516" cx="5.1893543386891405" cy="4.420038783630113"></circle></g><g class="bobaCup bright" cupRadius="3.077950225740415" width="6.15590045148083" height="6.15590045148083" pearlRadius="2.7380424214283132" pearlCount="0" transform="translate(273.9569423675392,125.73812714413305)"><circle class="pool" r="3.077950225740415" cx="3.077950225740415" cy="3.077950225740415" style="stroke-width: 1; fill: rgb(65, 182, 196);"></circle></g><g class="bobaCup bright" cupRadius="0" width="0" height="0" pearlRadius="NaN" pearlCount="0" transform="translate(20,300)"><circle class="pool" r="0" cx="0" cy="0" style="stroke-width: 1; fill: rgb(29, 145, 192);"></circle></g><g class="bobaCup bright" cupRadius="0" width="0" height="0" pearlRadius="NaN" pearlCount="0" transform="translate(243.7865637239549,100.90907605062463)"><circle class="pool" r="0" cx="0" cy="0" style="stroke-width: 1; fill: rgb(29, 145, 192);"></circle></g></g><g id="legendDividerGroup" transform="translate(410,0)" height="400"><rect class="legendDivider" height="400" width="90"></rect></g><g id="legend" transform="translate(410,30)" width="90" height="320"><rect class="legendBorder" transform="translate(0,0)" width="90" height="324.9477195110013"></rect><text id="rTitle" text-anchor="middle" alignment-baseline="hanging" transform="translate(45,10)" x="0" y="0" style="fill: black; font-size: 0.8rem;">Population</text><text id="bobaValue" text-anchor="middle" alignment-baseline="hanging" transform="translate(45,25)" x="0" y="0" style="fill: black; font-size: 0.7rem;">(1 Pearl =   75)</text><g class="bright" cupRadius="8.944271909999157" width="17.888543819998315" height="17.888543819998315" pearlRadius="2.7380424214283137" pearlCount="4" transform="translate(36.05572809000084,50)"><circle class="pool" r="8.944271909999157" cx="8.944271909999157" cy="8.944271909999157" style="stroke-width: 1; fill: rgb(65, 182, 196);"></circle><circle class="pearl" r="2.190433937142651" cx="13.542613460651705" cy="5.486970900805408"></circle><circle class="pearl" r="2.190433937142651" cx="4.749399498236599" cy="12.229516637519536"></circle><circle class="pearl" r="2.190433937142651" cx="5.638545202394075" cy="4.284028231246737"></circle><circle class="pearl" r="2.190433937142651" cx="12.653467756495177" cy="13.432459307079188"></circle></g><text id="0" class="legendSampleValue" text-anchor="middle" transform="translate(45,8)" x="0" y="72.88854381999832" style="fill: black; font-size: 0.7rem;"> 300</text><g class="bright" cupRadius="12.649110640673516" width="25.298221281347033" height="25.298221281347033" pearlRadius="2.738042421428314" pearlCount="8" transform="translate(32.35088935932649,92.88854381999832)"><circle class="pool" r="12.649110640673516" cx="12.649110640673516" cy="12.649110640673516" style="stroke-width: 1; fill: rgb(65, 182, 196);"></circle><circle class="pearl" r="2.1904339371426516" cx="14.071403428550017" cy="12.84687879177114"></circle><circle class="pearl" r="2.1904339371426516" cx="6.440581911774734" cy="19.57795138257093"></circle><circle class="pearl" r="2.1904339371426516" cx="15.102737084551539" cy="3.89097746448665"></circle><circle class="pearl" r="2.1904339371426516" cx="20.833946229646855" cy="17.1122426661066"></circle><circle class="pearl" r="2.1904339371426516" cx="3.6634707295578797" cy="12.081372495075822"></circle><circle class="pearl" r="2.1904339371426516" cx="21.146215105325396" cy="9.123450087562196"></circle><circle class="pearl" r="2.1904339371426516" cx="14.187116834584858" cy="21.553646746241665"></circle><circle class="pearl" r="2.1904339371426516" cx="7.171845845081945" cy="4.898098459274188"></circle></g><text id="1" class="legendSampleValue" text-anchor="middle" transform="translate(45,8)" x="0" y="123.18676510134534" style="fill: black; font-size: 0.7rem;"> 600</text><g class="bright" cupRadius="15.491933384829666" width="30.983866769659333" height="30.983866769659333" pearlRadius="2.7380424214283137" pearlCount="12" transform="translate(29.508066615170335,143.18676510134534)"><circle class="pool" r="15.491933384829666" cx="15.491933384829666" cy="15.491933384829666" style="stroke-width: 1; fill: rgb(65, 182, 196);"></circle><circle class="pearl" r="2.190433937142651" cx="17.03301174338476" cy="11.017376109139578"></circle><circle class="pearl" r="2.190433937142651" cx="11.029309432951331" cy="17.003470400319355"></circle><circle class="pearl" r="2.190433937142651" cx="13.977981653444434" cy="3.7248762882360538"></circle><circle class="pearl" r="2.190433937142651" cx="18.741808845067855" cy="18.756462357333636"></circle><circle class="pearl" r="2.190433937142651" cx="3.7255296891956267" cy="13.971342248807426"></circle><circle class="pearl" r="2.190433937142651" cx="26.986613481001935" cy="12.233596672509563"></circle><circle class="pearl" r="2.190433937142651" cx="12.152198575888583" cy="26.968872613027877"></circle><circle class="pearl" r="2.190433937142651" cx="6.524197378590721" cy="6.5101702816287865"></circle><circle class="pearl" r="2.190433937142651" cx="26.508263068801245" cy="20.47967424223933"></circle><circle class="pearl" r="2.190433937142651" cx="5.419021306595214" cy="22.67955009454649"></circle><circle class="pearl" r="2.190433937142651" cx="22.7607980495765" cy="5.461881544509557"></circle><circle class="pearl" r="2.190433937142651" cx="20.400071923945603" cy="26.53509242340789"></circle></g><text id="2" class="legendSampleValue" text-anchor="middle" transform="translate(45,8)" x="0" y="179.17063187100467" style="fill: black; font-size: 0.7rem;"> 900</text><g class="bright" cupRadius="17.888543819998315" width="35.77708763999663" height="35.77708763999663" pearlRadius="2.7380424214283137" pearlCount="16" transform="translate(27.111456180001685,199.17063187100467)"><circle class="pool" r="17.888543819998315" cx="17.888543819998315" cy="17.888543819998315" style="stroke-width: 1; fill: rgb(65, 182, 196);"></circle><circle class="pearl" r="2.190433937142651" cx="19.804693062551593" cy="19.706925044831753"></circle><circle class="pearl" r="2.190433937142651" cx="13.339172784724301" cy="23.858410298028687"></circle><circle class="pearl" r="2.190433937142651" cx="16.092791630714295" cy="11.11354324394561"></circle><circle class="pearl" r="2.190433937142651" cx="20.83612953404815" cy="27.499380517199562"></circle><circle class="pearl" r="2.190433937142651" cx="10.312657514553903" cy="16.56124087753137"></circle><circle class="pearl" r="2.190433937142651" cx="23.67875583770065" cy="13.13675787817294"></circle><circle class="pearl" r="2.190433937142651" cx="14.311679794483904" cy="31.76511484190927"></circle><circle class="pearl" r="2.190433937142651" cx="11.081450997216848" cy="4.996489551968747"></circle><circle class="pearl" r="2.190433937142651" cx="27.67435150439312" cy="20.796258814455644"></circle><circle class="pearl" r="2.190433937142651" cx="4.000488629236898" cy="21.40866477780025"></circle><circle class="pearl" r="2.190433937142651" cx="28.33359673438834" cy="7.016840611654928"></circle><circle class="pearl" r="2.190433937142651" cx="28.522531366621056" cy="28.622475917790542"></circle><circle class="pearl" r="2.190433937142651" cx="5.303915419923033" cy="10.377661215789297"></circle><circle class="pearl" r="2.190433937142651" cx="31.694235049536683" cy="13.980399213320226"></circle><circle class="pearl" r="2.190433937142651" cx="7.3110738720782" cy="28.664085856590173"></circle><circle class="pearl" r="2.190433937142651" cx="18.987039995684736" cy="3.6844832035601804"></circle></g><text id="3" class="legendSampleValue" text-anchor="middle" transform="translate(45,8)" x="0" y="239.9477195110013" style="fill: black; font-size: 0.7rem;">1.2k</text><g class="bright" cupRadius="20" width="40" height="40" pearlRadius="2.7380424214283137" pearlCount="20" transform="translate(25,259.9477195110013)"><circle class="pool" r="20" cx="20" cy="20" style="stroke-width: 1; fill: rgb(65, 182, 196);"></circle><circle class="pearl" r="2.190433937142651" cx="22.480421380823074" cy="19.96094551607325"></circle><circle class="pearl" r="2.190433937142651" cx="14.554532211889109" cy="20.25858246523202"></circle><circle class="pearl" r="2.190433937142651" cx="21.718613402750453" cy="11.231225788085391"></circle><circle class="pearl" r="2.190433937142651" cx="25.13767186853209" cy="27.447308990534317"></circle><circle class="pearl" r="2.190433937142651" cx="6.622341466842937" cy="15.212813608895589"></circle><circle class="pearl" r="2.190433937142651" cx="28.49521909515808" cy="14.82158787688231"></circle><circle class="pearl" r="2.190433937142651" cx="17.504603283401977" cy="28.993209871734443"></circle><circle class="pearl" r="2.190433937142651" cx="14.13811847195522" cy="12.373399584276378"></circle><circle class="pearl" r="2.190433937142651" cx="31.11803529924844" cy="22.444175683247455"></circle><circle class="pearl" r="2.190433937142651" cx="10.013176726772668" cy="26.767604068489224"></circle><circle class="pearl" r="2.190433937142651" cx="25.1625299271706" cy="4.328500666167248"></circle><circle class="pearl" r="2.190433937142651" cx="27.782608687955303" cy="34.772930101052836"></circle><circle class="pearl" r="2.190433937142651" cx="8.036930275650786" cy="7.623092000895575"></circle><circle class="pearl" r="2.190433937142651" cx="36.040664285033515" cy="16.500106031740792"></circle><circle class="pearl" r="2.190433937142651" cx="11.3070075503718" cy="34.36126950601293"></circle><circle class="pearl" r="2.190433937142651" cx="16.81383473400994" cy="3.9061454691506903"></circle><circle class="pearl" r="2.190433937142651" cx="33.74247113697989" cy="29.87303346303284"></circle><circle class="pearl" r="2.190433937142651" cx="3.788525504185259" cy="22.343736665541265"></circle><circle class="pearl" r="2.190433937142651" cx="32.18050534208177" cy="7.787706818962306"></circle><circle class="pearl" r="2.190433937142651" cx="20.00567962395882" cy="36.34927596497569"></circle></g><text id="4" class="legendSampleValue" text-anchor="middle" transform="translate(45,8)" x="0" y="304.9477195110013" style="fill: black; font-size: 0.7rem;">1.5k</text></g></svg>