<?xml version="1.0" standalone="no"?>
<?xml-stylesheet xmlns="http://www.w3.org/2000/svg" type="text/css" href="style.css"?>
<svg id="syntheticVisC" class="default" xTitle="Percent Cat Owners" yTitle="Percent Dog Owners" rTitle="Population" chartTitle="Towns in Vizzyland" width="500" height="400" xmlns="http://www.w3.org/2000/svg"><rect class="background" width="500" height="400"></rect><text id="chartTitle" text-anchor="middle" transform="translate(250,20)" x="0" y="0" style="fill: black; font-size: 1.2rem;">Towns in Vizzyland</text><g id="yAxis" transform="translate(50,30)" fill="none" font-size="10" font-family="sans-serif" text-anchor="end"><path class="domain" stroke="currentColor" d="M-6,300H0V20H-6"></path><g class="tick" opacity="1" transform="translate(0,300)"><line stroke="currentColor" x2="-6"></line><text fill="currentColor" x="-9" dy="0.32em">0</text></g><g class="tick" opacity="1" transform="translate(0,272)"><line stroke="currentColor" x2="-6"></line><text fill="currentColor" x="-9" dy="0.32em">10</text></g><g class="tick" opacity="1" transform="translate(0,244)"><line stroke="currentColor" x2="-6"></line><text fill="currentColor" x="-9" dy="0.32em">20</text></g><g class="tick" opacity="1" transform="translate(0,216)"><line stroke="currentColor" x2="-6"></line><text fill="currentColor" x="-9" dy="0.32em">30</text></g><g class="tick" opacity="1" transform="translate(0,188)"><line stroke="currentColor" x2="-6"></line><text fill="currentColor" x="-9" dy="0.32em">40</text></g><g class="tick" opacity="1" transform="translate(0,160)"><line stroke="currentColor" x2="-6"></line><text fill="currentColor" x="-9" dy="0.32em">50</text></g><g class="tick" opacity="1" transform="translate(0,132)"><line stroke="currentColor" x2="-6"></line><text fill="currentColor" x="-9" dy="0.32em">60</text></g><g class="tick" opacity="1" transform="translate(0,104.00000000000001)"><line stroke="currentColor" x2="-6"></line><text fill="currentColor" x="-9" dy="0.32em">70</text></g><g class="tick" opacity="1" transform="translate(0,75.99999999999999)"><line stroke="currentColor" x2="-6"></line><text fill="currentColor" x="-9" dy="0.32em">80</text></g><g class="tick" opacity="1" transform="translate(0,47.99999999999999)"><line stroke="currentColor" x2="-6"></line><text fill="currentColor" x="-9" dy="0.32em">90</text></g><g class="tick" opacity="1" transform="translate(0,20)"><line stroke="currentColor" x2="-6"></line><text fill="currentColor" x="-9" dy="0.32em">100</text></g></g><g id="xAxis" transform="translate(60,360)" fill="none" font-size="10" font-family="sans-serif" text-anchor="middle"><path class="domain" stroke="currentColor" d="M20,6V0H320V6"></path><g class="tick" opacity="1" transform="translate(20,0)"><line stroke="currentColor" y2="6"></line><text fill="currentColor" y="9" dy="0.71em">0</text></g><g class="tick" opacity="1" transform="translate(50,0)"><line stroke="currentColor" y2="6"></line><text fill="currentColor" y="9" dy="0.71em">10</text></g><g class="tick" opacity="1" transform="translate(80,0)"><line stroke="currentColor" y2="6"></line><text fill="currentColor" y="9" dy="0.71em">20</text></g><g class="tick" opacity="1" transform="translate(110,0)"><line stroke="currentColor" y2="6"></line><text fill="currentColor" y="9" dy="0.71em">30</text></g><g class="tick" opacity="1" transform="translate(140,0)"><line stroke="currentColor" y2="6"></line><text fill="currentColor" y="9" dy="0.71em">40</text></g><g class="tick" opacity="1" transform="translate(170,0)"><line stroke="currentColor" y2="6"></line><text fill="currentColor" y="9" dy="0.71em">50</text></g><g class="tick" opacity="1" transform="translate(200,0)"><line stroke="currentColor" y2="6"></line><text fill="currentColor" y="9" dy="0.71em">60</text></g><g class="tick" opacity="1" transform="translate(230,0)"><line stroke="currentColor" y2="6"></line><text fill="currentColor" y="9" dy="0.71em">70</text></g><g class="tick" opacity="1" transform="translate(260,0)"><line stroke="currentColor" y2="6"></line><text fill="currentColor" y="9" dy="0.71em">80</text></g><g class="tick" opacity="1" transform="translate(290,0)"><line stroke="currentColor" y2="6"></line><text fill="currentColor" y="9" dy="0.71em">90</text></g><g class="tick" opacity="1" transform="translate(320,0)"><line stroke="currentColor" y2="6"></line><text fill="currentColor" y="9" dy="0.71em">100</text></g></g><g id="labels"><text id="xTitle" text-anchor="middle" transform="translate(250,350)" x="0" y="40" style="fill: black; font-size: 0.8rem;">Percent Cat Owners</text><g id="group-yTitle" transform="translate(60,190)"><text id="yTitle" text-anchor="middle" transform="rotate(-90)" y="-45" style="fill: black; font-size: 0.8rem;">Percent Dog Owners</text></g></g><g id="quadrant_lines" transform="translate(60,30)"><line id="verticalQuadrantLine" x1="170" y1="10" x2="170" y2="310" class="quadrantLine"></line><line id="horizontalQuadrantLine" x1="10" y1="160" x2="330" y2="160" class="quadrantLine"></line></g><g id="chart" transform="translate(60,30)"><g class="bobaCup bright" cupRadius="20" width="40" height="40" pearlRadius="2.7380424214283137" pearlCount="20" transform="translate(233.25390759746062,1.9157689099376825)"><circle class="pool" r="20" cx="20" cy="20" style="stroke-width: 1; fill: rgb(65, 182, 196);"></circle><circle class="pearl" r="2.190433937142651" cx="22.480421380823074" cy="19.96094551607325"></circle><circle class="pearl" r="2.190433937142651" cx="14.554532211889109" cy="20.25858246523202"></circle><circle class="pearl" r="2.190433937142651" cx="21.718613402750453" cy="11.231225788085391"></circle><circle class="pearl" r="2.190433937142651" cx="25.13767186853209" cy="27.447308990534317"></circle><circle class="pearl" r="2.190433937142651" cx="6.622341466842937" cy="15.212813608895589"></circle><circle class="pearl" r="2.190433937142651" cx="28.49521909515808" cy="14.82158787688231"></circle><circle class="pearl" r="2.190433937142651" cx="17.504603283401977" cy="28.993209871734443"></circle><circle class="pearl" r="2.190433937142651" cx="14.13811847195522" cy="12.373399584276378"></circle><circle class="pearl" r="2.190433937142651" cx="31.11803529924844" cy="22.444175683247455"></circle><circle class="pearl" r="2.190433937142651" cx="10.013176726772668" cy="26.767604068489224"></circle><circle class="pearl" r="2.190433937142651" cx="25.1625299271706" cy="4.328500666167248"></circle><circle class="pearl" r="2.190433937142651" cx="27.782608687955303" cy="34.772930101052836"></circle><circle class="pearl" r="2.190433937142651" cx="8.036930275650786" cy="7.623092000895575"></circle><circle class="pearl" r="2.190433937142651" cx="36.040664285033515" cy="16.500106031740792"></circle><circle class="pearl" r="2.190433937142651" cx="11.3070075503718" cy="34.36126950601293"></circle><circle class="pearl" r="2.190433937142651" cx="16.81383473400994" cy="3.9061454691506903"></circle><circle class="pearl" r="2.190433937142651" cx="33.74247113697989" cy="29.87303346303284"></circle><circle class="pearl" r="2.190433937142651" cx="3.788525504185259" cy="22.343736665541265"></circle><circle class="pearl" r="2.190433937142651" cx="32.18050534208177" cy="7.787706818962306"></circle><circle class="pearl" r="2.190433937142651" cx="20.00567962395882" cy="36.34927596497569"></circle></g><g class="bobaCup bright" cupRadius="19.791200497230406" width="39.58240099446081" height="39.58240099446081" pearlRadius="2.7380424214283137" pearlCount="20" transform="translate(109.57572188394066,98.42676850412552)"><circle class="pool" r="19.791200497230406" cx="19.791200497230406" cy="19.791200497230406" style="stroke-width: 1; fill: rgb(29, 145, 192);"></circle><circle class="pearl" r="2.190433937142651" cx="21.762176900026407" cy="19.703681242445626"></circle><circle class="pearl" r="2.190433937142651" cx="14.037453685004529" cy="21.101840664411124"></circle><circle class="pearl" r="2.190433937142651" cx="20.58503482349795" cy="10.94164600400288"></circle><circle class="pearl" r="2.190433937142651" cx="25.004641291818505" cy="26.910111109811588"></circle><circle class="pearl" r="2.190433937142651" cx="5.071434298730583" cy="14.514717559449576"></circle><circle class="pearl" r="2.190433937142651" cx="27.58470320467649" cy="14.45871477785475"></circle><circle class="pearl" r="2.190433937142651" cx="17.19895479994343" cy="28.402714370377875"></circle><circle class="pearl" r="2.190433937142651" cx="13.090034798221781" cy="13.345868492688888"></circle><circle class="pearl" r="2.190433937142651" cx="30.987582278319984" cy="21.702567583639244"></circle><circle class="pearl" r="2.190433937142651" cx="9.314376599345946" cy="27.381821043682145"></circle><circle class="pearl" r="2.190433937142651" cx="24.723553141075758" cy="4.275194361657881"></circle><circle class="pearl" r="2.190433937142651" cx="27.716330354224635" cy="34.27563466724155"></circle><circle class="pearl" r="2.190433937142651" cx="8.045110901843824" cy="7.513301803653796"></circle><circle class="pearl" r="2.190433937142651" cx="35.39514362336506" cy="15.21414459954509"></circle><circle class="pearl" r="2.190433937142651" cx="12.060721641469184" cy="34.35945950648484"></circle><circle class="pearl" r="2.190433937142651" cx="16.3688619576867" cy="3.9488681407392328"></circle><circle class="pearl" r="2.190433937142651" cx="33.558789080208555" cy="29.187690839758183"></circle><circle class="pearl" r="2.190433937142651" cx="3.7901084068267963" cy="22.135933273152784"></circle><circle class="pearl" r="2.190433937142651" cx="31.80346903049981" cy="7.713064205601089"></circle><circle class="pearl" r="2.190433937142651" cx="19.983564414772474" cy="35.93074288700818"></circle></g><g class="bobaCup bright" cupRadius="19.065374892969967" width="38.13074978593993" height="38.13074978593993" pearlRadius="2.7380424214283132" pearlCount="18" transform="translate(0.9346251070300333,261.9215487174308)"><circle class="pool" r="19.065374892969967" cx="19.065374892969967" cy="19.065374892969967" style="stroke-width: 1; fill: rgb(29, 145, 192);"></circle><circle class="pearl" r="2.1904339371426507" cx="20.042260347609435" cy="18.56277657574121"></circle><circle class="pearl" r="2.1904339371426507" cx="13.861617649378273" cy="23.639998935203113"></circle><circle class="pearl" r="2.1904339371426507" cx="18.468792781002907" cy="10.778856065562433"></circle><circle class="pearl" r="2.1904339371426507" cx="21.336763171458262" cy="26.393093610616216"></circle><circle class="pearl" r="2.1904339371426507" cx="11.892469597374582" cy="15.894099401105125"></circle><circle class="pearl" r="2.1904339371426507" cx="26.88878364512949" cy="14.448773389828359"></circle><circle class="pearl" r="2.1904339371426507" cx="16.361609085940458" cy="32.67638788678532"></circle><circle class="pearl" r="2.1904339371426507" cx="13.637123292986205" cy="4.439812821273843"></circle><circle class="pearl" r="2.1904339371426507" cx="28.205165772922665" cy="22.31772643488098"></circle><circle class="pearl" r="2.1904339371426507" cx="5.87258639114993" cy="23.73184635132104"></circle><circle class="pearl" r="2.1904339371426507" cx="30.054145220418725" cy="7.136128721697184"></circle><circle class="pearl" r="2.1904339371426507" cx="24.393891067930902" cy="33.72026378698766"></circle><circle class="pearl" r="2.1904339371426507" cx="6.817684040419375" cy="8.542592489314478"></circle><circle class="pearl" r="2.1904339371426507" cx="34.393374233771866" cy="17.249718140094554"></circle><circle class="pearl" r="2.1904339371426507" cx="8.490227277824252" cy="31.278282167135874"></circle><circle class="pearl" r="2.1904339371426507" cx="22.697781673228516" cy="3.999951595286741"></circle><circle class="pearl" r="2.1904339371426507" cx="31.23611697616401" cy="29.7035023220856"></circle><circle class="pearl" r="2.1904339371426507" cx="3.9000059398110656" cy="15.992396725437814"></circle></g><g class="bobaCup bright" cupRadius="17.559538404197752" width="35.119076808395505" height="35.119076808395505" pearlRadius="2.7380424214283137" pearlCount="15" transform="translate(129.811143313014,51.559617911480444)"><circle class="pool" r="17.559538404197752" cx="17.559538404197752" cy="17.559538404197752" style="stroke-width: 1; fill: rgb(65, 182, 196);"></circle><circle class="pearl" r="2.190433937142651" cx="18.788892896227043" cy="17.674247085796402"></circle><circle class="pearl" r="2.190433937142651" cx="13.159034742851146" cy="23.252908079325465"></circle><circle class="pearl" r="2.190433937142651" cx="16.41619655614734" cy="9.871223035469667"></circle><circle class="pearl" r="2.190433937142651" cx="20.392570724290252" cy="26.07296506901874"></circle><circle class="pearl" r="2.190433937142651" cx="11.105011671017182" cy="15.773171507844264"></circle><circle class="pearl" r="2.190433937142651" cx="24.018911304829306" cy="11.725249107128265"></circle><circle class="pearl" r="2.190433937142651" cx="14.397887309117651" cy="31.181375823124032"></circle><circle class="pearl" r="2.190433937142651" cx="10.058817856863342" cy="5.333341898787339"></circle><circle class="pearl" r="2.190433937142651" cx="26.16600976999019" cy="20.527010121418375"></circle><circle class="pearl" r="2.190433937142651" cx="4.6715726271285964" cy="20.584052955855856"></circle><circle class="pearl" r="2.190433937142651" cx="21.945960781008417" cy="4.2074181146772105"></circle><circle class="pearl" r="2.190433937142651" cx="27.909626830300514" cy="28.093774059611825"></circle><circle class="pearl" r="2.190433937142651" cx="4.913590497464547" cy="11.020738906106704"></circle><circle class="pearl" r="2.190433937142651" cx="31.2168433858758" cy="14.5981960663861"></circle><circle class="pearl" r="2.190433937142651" cx="7.203892314110854" cy="28.089717228224156"></circle></g><g class="bobaCup bright" cupRadius="17.17305346631435" width="34.3461069326287" height="34.3461069326287" pearlRadius="2.7380424214283132" pearlCount="15" transform="translate(268.9729806127474,66.40313603257698)"><circle class="pool" r="17.17305346631435" cx="17.17305346631435" cy="17.17305346631435" style="stroke-width: 1; fill: rgb(65, 182, 196);"></circle><circle class="pearl" r="2.1904339371426507" cx="18.40069900147892" cy="17.41118720294371"></circle><circle class="pearl" r="2.1904339371426507" cx="12.741257429971437" cy="22.704953484094442"></circle><circle class="pearl" r="2.1904339371426507" cx="16.094914070515966" cy="9.844779662281107"></circle><circle class="pearl" r="2.1904339371426507" cx="19.84750638165493" cy="25.268453034219284"></circle><circle class="pearl" r="2.1904339371426507" cx="10.659913085128196" cy="15.533517386637795"></circle><circle class="pearl" r="2.1904339371426507" cx="23.484299775626592" cy="11.460501945071387"></circle><circle class="pearl" r="2.1904339371426507" cx="14.206667369106533" cy="30.43724433386517"></circle><circle class="pearl" r="2.1904339371426507" cx="10.232317783182053" cy="5.115818408278439"></circle><circle class="pearl" r="2.1904339371426507" cx="25.817012880446427" cy="20.030007225938096"></circle><circle class="pearl" r="2.1904339371426507" cx="4.166240476287961" cy="20.2781291693132"></circle><circle class="pearl" r="2.1904339371426507" cx="21.50445724787967" cy="4.205933674868276"></circle><circle class="pearl" r="2.1904339371426507" cx="27.169055848549743" cy="27.486344765494074"></circle><circle class="pearl" r="2.1904339371426507" cx="5.094372153865408" cy="10.281058244186735"></circle><circle class="pearl" r="2.1904339371426507" cx="30.41124423632503" cy="14.062048917073033"></circle><circle class="pearl" r="2.1904339371426507" cx="7.220181133399747" cy="27.517118470567453"></circle></g><g class="bobaCup bright" cupRadius="17.072495155733257" width="34.144990311466515" height="34.144990311466515" pearlRadius="2.7380424214283137" pearlCount="15" transform="translate(154.6899107848847,196.95940005215635)"><circle class="pool" r="17.072495155733257" cx="17.072495155733257" cy="17.072495155733257" style="stroke-width: 1; fill: rgb(65, 182, 196);"></circle><circle class="pearl" r="2.190433937142651" cx="18.301850672600217" cy="17.315343085185198"></circle><circle class="pearl" r="2.190433937142651" cx="12.650303940045202" cy="22.54315830086751"></circle><circle class="pearl" r="2.190433937142651" cx="16.053635226242328" cy="9.781516053942191"></circle><circle class="pearl" r="2.190433937142651" cx="19.709977107458116" cy="25.129103697895363"></circle><circle class="pearl" r="2.190433937142651" cx="10.590564762415212" cy="15.422456807676609"></circle><circle class="pearl" r="2.190433937142651" cx="23.383081403946534" cy="11.435660465718765"></circle><circle class="pearl" r="2.190433937142651" cx="14.114209505466414" cy="30.236011037331888"></circle><circle class="pearl" r="2.190433937142651" cx="10.245548462558583" cy="5.075122982911658"></circle><circle class="pearl" r="2.190433937142651" cx="25.682201800741634" cy="19.940434869961038"></circle><circle class="pearl" r="2.190433937142651" cx="4.072705252326848" cy="20.13978397344373"></circle><circle class="pearl" r="2.190433937142651" cx="21.52416485765866" cy="4.2413274822417115"></circle><circle class="pearl" r="2.190433937142651" cx="26.961722979302507" cy="27.338426119031684"></circle><circle class="pearl" r="2.190433937142651" cx="5.130179306669966" cy="10.120716738241603"></circle><circle class="pearl" r="2.190433937142651" cx="30.21879802338105" cy="14.017989440322413"></circle><circle class="pearl" r="2.190433937142651" cx="7.206778253330086" cy="27.355103217423373"></circle></g><g class="bobaCup bright" cupRadius="16.379713407826443" width="32.75942681565289" height="32.75942681565289" pearlRadius="2.7380424214283137" pearlCount="13" transform="translate(18.546224599749088,76.89698657314574)"><circle class="pool" r="16.379713407826443" cx="16.379713407826443" cy="16.379713407826443" style="stroke-width: 1; fill: rgb(29, 145, 192);"></circle><circle class="pearl" r="2.190433937142651" cx="21.4743265832734" cy="15.965510385386148"></circle><circle class="pearl" r="2.190433937142651" cx="15.843312006744855" cy="21.54371249916288"></circle><circle class="pearl" r="2.190433937142651" cx="16.170311957905533" cy="10.134686540935222"></circle><circle class="pearl" r="2.190433937142651" cx="23.723347403675348" cy="23.63683334143182"></circle><circle class="pearl" r="2.190433937142651" cx="10.508445234650493" cy="15.767872064616837"></circle><circle class="pearl" r="2.190433937142651" cx="27.811386661930385" cy="9.9909476692881"></circle><circle class="pearl" r="2.190433937142651" cx="10.129773981031205" cy="27.86944157556187"></circle><circle class="pearl" r="2.190433937142651" cx="10.330604539414317" cy="4.808633417966831"></circle><circle class="pearl" r="2.190433937142651" cx="29.04177930543891" cy="17.858876092319584"></circle><circle class="pearl" r="2.190433937142651" cx="4.817973734129173" cy="21.652813782099305"></circle><circle class="pearl" r="2.190433937142651" cx="21.92534119308491" cy="4.618070698946568"></circle><circle class="pearl" r="2.190433937142651" cx="18.02414841562832" cy="29.02594832572076"></circle><circle class="pearl" r="2.190433937142651" cx="4.822323673224032" cy="10.296267721220568"></circle></g><g class="bobaCup bright" cupRadius="15.031880251069019" width="30.063760502138038" height="30.063760502138038" pearlRadius="2.7380424214283132" pearlCount="11" transform="translate(218.96801489857847,40.87573439321347)"><circle class="pool" r="15.031880251069019" cx="15.031880251069019" cy="15.031880251069019" style="stroke-width: 1; fill: rgb(65, 182, 196);"></circle><circle class="pearl" r="2.1904339371426507" cx="19.25650612496" cy="14.999056070870026"></circle><circle class="pearl" r="2.1904339371426507" cx="11.676575112100164" cy="17.3685168811267"></circle><circle class="pearl" r="2.1904339371426507" cx="13.759125817409227" cy="9.298611875850725"></circle><circle class="pearl" r="2.1904339371426507" cx="20.631707508454614" cy="25.33104442598332"></circle><circle class="pearl" r="2.1904339371426507" cx="4.369319952840277" cy="14.091531916833608"></circle><circle class="pearl" r="2.1904339371426507" cx="25.631733447936288" cy="10.248733229993931"></circle><circle class="pearl" r="2.1904339371426507" cx="12.742569812040648" cy="26.237686953684236"></circle><circle class="pearl" r="2.1904339371426507" cx="6.404897298140827" cy="6.372746087599967"></circle><circle class="pearl" r="2.1904339371426507" cx="25.768901620331473" cy="19.385066356669217"></circle><circle class="pearl" r="2.1904339371426507" cx="5.707817884134175" cy="22.622161051746335"></circle><circle class="pearl" r="2.1904339371426507" cx="20.119600597555408" cy="4.537903922617791"></circle></g><g class="bobaCup bright" cupRadius="14.920607521539658" width="29.841215043079316" height="29.841215043079316" pearlRadius="2.738042421428314" pearlCount="11" transform="translate(200.63201502073576,140.97455267432133)"><circle class="pool" r="14.920607521539658" cx="14.920607521539658" cy="14.920607521539658" style="stroke-width: 1; fill: rgb(65, 182, 196);"></circle><circle class="pearl" r="2.1904339371426516" cx="18.900738641164377" cy="15.058640889901877"></circle><circle class="pearl" r="2.1904339371426516" cx="11.144752138869798" cy="16.652954672885652"></circle><circle class="pearl" r="2.1904339371426516" cx="13.803013837708695" cy="9.018350163028643"></circle><circle class="pearl" r="2.1904339371426516" cx="20.62161254613473" cy="25.058396559394115"></circle><circle class="pearl" r="2.1904339371426516" cx="3.6904606259004553" cy="13.832382747785866"></circle><circle class="pearl" r="2.1904339371426516" cx="25.600649316657364" cy="10.76684986760223"></circle><circle class="pearl" r="2.1904339371426516" cx="12.747123173659855" cy="26.03133729060222"></circle><circle class="pearl" r="2.1904339371426516" cx="6.383267809488498" cy="6.334568128695713"></circle><circle class="pearl" r="2.1904339371426516" cx="25.61254237070216" cy="19.033111391087907"></circle><circle class="pearl" r="2.1904339371426516" cx="5.693540633177527" cy="22.456325836076303"></circle><circle class="pearl" r="2.1904339371426516" cx="20.466738682663213" cy="4.719798056742832"></circle></g><g class="bobaCup bright" cupRadius="14.891627300062822" width="29.783254600125645" height="29.783254600125645" pearlRadius="2.7380424214283132" pearlCount="11" transform="translate(138.64404410458474,255.3182534733899)"><circle class="pool" r="14.891627300062822" cx="14.891627300062822" cy="14.891627300062822" style="stroke-width: 1; fill: rgb(29, 145, 192);"></circle><circle class="pearl" r="2.1904339371426507" cx="18.84962854007422" cy="15.044930136830654"></circle><circle class="pearl" r="2.1904339371426507" cx="11.126186770985793" cy="16.62806303690799"></circle><circle class="pearl" r="2.1904339371426507" cx="13.81085390313828" cy="8.959560584289417"></circle><circle class="pearl" r="2.1904339371426507" cx="20.622484350616716" cy="24.98564274161905"></circle><circle class="pearl" r="2.1904339371426507" cx="3.690552788780912" cy="13.803202962557533"></circle><circle class="pearl" r="2.1904339371426507" cx="25.573207836413957" cy="10.848654082989437"></circle><circle class="pearl" r="2.1904339371426507" cx="12.76382632887326" cy="25.979731252478057"></circle><circle class="pearl" r="2.1904339371426507" cx="6.381096691161914" cy="6.32222645402087"></circle><circle class="pearl" r="2.1904339371426507" cx="25.567013986365232" cy="18.95649363869435"></circle><circle class="pearl" r="2.1904339371426507" cx="5.715586979283132" cy="22.45698918783942"></circle><circle class="pearl" r="2.1904339371426507" cx="20.526995265359872" cy="4.758186007717881"></circle></g><g class="bobaCup bright" cupRadius="14.856223339440673" width="29.712446678881346" height="29.712446678881346" pearlRadius="2.7380424214283146" pearlCount="11" transform="translate(197.78636921745138,202.4113487597714)"><circle class="pool" r="14.856223339440673" cx="14.856223339440673" cy="14.856223339440673" style="stroke-width: 1; fill: rgb(29, 145, 192);"></circle><circle class="pearl" r="2.1904339371426516" cx="18.79085289472414" cy="15.021842343081572"></circle><circle class="pearl" r="2.1904339371426516" cx="11.10119084764729" cy="16.622521378536426"></circle><circle class="pearl" r="2.1904339371426516" cx="13.807847689442449" cy="8.900500226831284"></circle><circle class="pearl" r="2.1904339371426516" cx="20.666628158678108" cy="24.878340625843943"></circle><circle class="pearl" r="2.1904339371426516" cx="3.6902068327802935" cy="13.773820674183987"></circle><circle class="pearl" r="2.1904339371426516" cx="25.521697200927214" cy="10.887108477161256"></circle><circle class="pearl" r="2.1904339371426516" cx="12.839639011844048" cy="25.924221507819578"></circle><circle class="pearl" r="2.1904339371426516" cx="6.377932770284777" cy="6.307521953043069"></circle><circle class="pearl" r="2.1904339371426516" cx="25.514755779096543" cy="18.85029070650604"></circle><circle class="pearl" r="2.1904339371426516" cx="5.775746821318099" cy="22.512849549536675"></circle><circle class="pearl" r="2.1904339371426516" cx="20.558483141443812" cy="4.788652028900825"></circle></g><g class="bobaCup bright" cupRadius="14.806137016634215" width="29.61227403326843" height="29.61227403326843" pearlRadius="2.7380424214283137" pearlCount="11" transform="translate(127.98328410867666,192.3528481201516)"><circle class="pool" r="14.806137016634215" cx="14.806137016634215" cy="14.806137016634215" style="stroke-width: 1; fill: rgb(65, 182, 196);"></circle><circle class="pearl" r="2.190433937142651" cx="18.737743076806463" cy="14.991319363184367"></circle><circle class="pearl" r="2.190433937142651" cx="11.07922913883114" cy="16.61545453844837"></circle><circle class="pearl" r="2.190433937142651" cx="13.754961185329014" cy="8.904354426714125"></circle><circle class="pearl" r="2.190433937142651" cx="20.70519187140791" cy="24.73565108995579"></circle><circle class="pearl" r="2.190433937142651" cx="3.689059248280735" cy="13.741361420285493"></circle><circle class="pearl" r="2.190433937142651" cx="25.407123410237975" cy="10.792352493200644"></circle><circle class="pearl" r="2.190433937142651" cx="12.926300230541743" cy="25.841730787671967"></circle><circle class="pearl" r="2.190433937142651" cx="6.374184580718909" cy="6.2862451632216505"></circle><circle class="pearl" r="2.190433937142651" cx="25.42946519893188" cy="18.739729480937275"></circle><circle class="pearl" r="2.190433937142651" cx="5.847570779741799" cy="22.566775684391988"></circle><circle class="pearl" r="2.190433937142651" cx="20.449818276555284" cy="4.768523779740928"></circle></g><g class="bobaCup bright" cupRadius="14.766793824773623" width="29.533587649547247" height="29.533587649547247" pearlRadius="2.738042421428314" pearlCount="11" transform="translate(113.62654302409581,204.8254071765531)"><circle class="pool" r="14.766793824773623" cx="14.766793824773623" cy="14.766793824773623" style="stroke-width: 1; fill: rgb(127, 205, 187);"></circle><circle class="pearl" r="2.1904339371426516" cx="18.69879927157735" cy="14.97697134292886"></circle><circle class="pearl" r="2.1904339371426516" cx="11.062296861441748" cy="16.602665393942747"></circle><circle class="pearl" r="2.1904339371426516" cx="13.704071492381809" cy="8.933493208282236"></circle><circle class="pearl" r="2.1904339371426516" cx="20.732258941539822" cy="24.624269062468056"></circle><circle class="pearl" r="2.1904339371426516" cx="3.6883972081217995" cy="13.712645614874706"></circle><circle class="pearl" r="2.1904339371426516" cx="25.313989422215766" cy="10.707569653418766"></circle><circle class="pearl" r="2.1904339371426516" cx="12.985841764232529" cy="25.775074983316518"></circle><circle class="pearl" r="2.1904339371426516" cx="6.3725023215359755" cy="6.268687067619966"></circle><circle class="pearl" r="2.1904339371426516" cx="25.364474235916962" cy="18.645091593530577"></circle><circle class="pearl" r="2.1904339371426516" cx="5.8979288463911566" cy="22.597381988614316"></circle><circle class="pearl" r="2.1904339371426516" cx="20.33685330090958" cy="4.741529436514968"></circle></g><g class="bobaCup bright" cupRadius="14.71232262688173" width="29.42464525376346" height="29.42464525376346" pearlRadius="2.7380424214283137" pearlCount="11" transform="translate(155.50119807584346,24.61889057565557)"><circle class="pool" r="14.71232262688173" cx="14.71232262688173" cy="14.71232262688173" style="stroke-width: 1; fill: rgb(29, 145, 192);"></circle><circle class="pearl" r="2.190433937142651" cx="18.64595306459715" cy="14.962993939097506"></circle><circle class="pearl" r="2.190433937142651" cx="11.037162618462874" cy="16.585336306322137"></circle><circle class="pearl" r="2.190433937142651" cx="13.628984933774209" cy="8.988106987146395"></circle><circle class="pearl" r="2.190433937142651" cx="20.777186859167198" cy="24.465697984989294"></circle><circle class="pearl" r="2.190433937142651" cx="3.687660730127689" cy="13.670445234458708"></circle><circle class="pearl" r="2.190433937142651" cx="25.182125144734893" cy="10.581561229508829"></circle><circle class="pearl" r="2.190433937142651" cx="13.07568644624177" cy="25.68260685640588"></circle><circle class="pearl" r="2.190433937142651" cx="6.37105219200585" cy="6.2438196173746725"></circle><circle class="pearl" r="2.190433937142651" cx="25.276599983697093" cy="18.505236471792948"></circle><circle class="pearl" r="2.190433937142651" cx="5.97288714118616" cy="22.64556938421496"></circle><circle class="pearl" r="2.190433937142651" cx="20.164081962915212" cy="4.698099561397067"></circle></g><g class="bobaCup bright" cupRadius="14.585714990944254" width="29.171429981888508" height="29.171429981888508" pearlRadius="2.7380424214283137" pearlCount="11" transform="translate(60.94283156700385,247.80898572324122)"><circle class="pool" r="14.585714990944254" cx="14.585714990944254" cy="14.585714990944254" style="stroke-width: 1; fill: rgb(127, 205, 187);"></circle><circle class="pearl" r="2.190433937142651" cx="18.522705770057815" cy="14.943009924819767"></circle><circle class="pearl" r="2.190433937142651" cx="10.964650836828001" cy="16.58760624259623"></circle><circle class="pearl" r="2.190433937142651" cx="13.429694598802206" cy="9.16514087775222"></circle><circle class="pearl" r="2.190433937142651" cx="20.96935112742737" cy="24.049574160377418"></circle><circle class="pearl" r="2.190433937142651" cx="3.686290683716079" cy="13.567732435332092"></circle><circle class="pearl" r="2.190433937142651" cx="24.852293550035103" cy="10.220879054944156"></circle><circle class="pearl" r="2.190433937142651" cx="13.385731950070271" cy="25.471260970759165"></circle><circle class="pearl" r="2.190433937142651" cx="6.370962642352657" cy="6.184014162572902"></circle><circle class="pearl" r="2.190433937142651" cx="25.090395702155366" cy="18.102477863054713"></circle><circle class="pearl" r="2.190433937142651" cx="6.223032046483674" cy="22.85742303214231"></circle><circle class="pearl" r="2.190433937142651" cx="19.676325379735445" cy="4.567906196412524"></circle></g><g class="bobaCup bright" cupRadius="14.146420239052643" width="28.292840478105287" height="28.292840478105287" pearlRadius="2.7380424214283132" pearlCount="10" transform="translate(10.744445458783128,139.72346283828313)"><circle class="pool" r="14.146420239052643" cx="14.146420239052643" cy="14.146420239052643" style="stroke-width: 1; fill: rgb(127, 205, 187);"></circle><circle class="pearl" r="2.1904339371426507" cx="17.51313586710778" cy="12.078997953345569"></circle><circle class="pearl" r="2.1904339371426507" cx="11.099383472854493" cy="16.18091786031875"></circle><circle class="pearl" r="2.1904339371426507" cx="14.317242771986482" cy="4.687060464170813"></circle><circle class="pearl" r="2.1904339371426507" cx="21.455827999464272" cy="22.607417110116973"></circle><circle class="pearl" r="2.1904339371426507" cx="3.672957697259739" cy="13.353588665434584"></circle><circle class="pearl" r="2.1904339371426507" cx="22.01711578408198" cy="6.042427085790705"></circle><circle class="pearl" r="2.1904339371426507" cx="13.746647060535214" cy="24.63646739209855"></circle><circle class="pearl" r="2.1904339371426507" cx="6.435337656899855" cy="5.937109277491806"></circle><circle class="pearl" r="2.1904339371426507" cx="24.589406190750456" cy="15.366488729704908"></circle><circle class="pearl" r="2.1904339371426507" cx="6.268555563222132" cy="22.245609934804875"></circle></g><g class="bobaCup bright" cupRadius="13.985250061784111" width="27.970500123568222" height="27.970500123568222" pearlRadius="2.7380424214283132" pearlCount="10" transform="translate(162.15902651897665,195.33841215161212)"><circle class="pool" r="13.985250061784111" cx="13.985250061784111" cy="13.985250061784111" style="stroke-width: 1; fill: rgb(127, 205, 187);"></circle><circle class="pearl" r="2.1904339371426507" cx="17.165170674385546" cy="11.719320327220448"></circle><circle class="pearl" r="2.1904339371426507" cx="11.149144378116628" cy="16.125923677161083"></circle><circle class="pearl" r="2.1904339371426507" cx="14.119855583247313" cy="4.222265734140493"></circle><circle class="pearl" r="2.1904339371426507" cx="21.401337954725612" cy="22.191544150177652"></circle><circle class="pearl" r="2.1904339371426507" cx="3.663561032390649" cy="13.38615492400166"></circle><circle class="pearl" r="2.1904339371426507" cx="21.679739579327336" cy="5.957700714539459"></circle><circle class="pearl" r="2.1904339371426507" cx="13.716431588547527" cy="24.317193099668764"></circle><circle class="pearl" r="2.1904339371426507" cx="6.324172844515358" cy="5.9357546957443175"></circle><circle class="pearl" r="2.1904339371426507" cx="24.292890671681807" cy="14.852024682755212"></circle><circle class="pearl" r="2.1904339371426507" cx="6.285323531028957" cy="22.009215296362928"></circle></g><g class="bobaCup bright" cupRadius="13.963031003650405" width="27.92606200730081" height="27.92606200730081" pearlRadius="2.7380424214283137" pearlCount="10" transform="translate(148.89049243702829,221.32644493034687)"><circle class="pool" r="13.963031003650405" cx="13.963031003650405" cy="13.963031003650405" style="stroke-width: 1; fill: rgb(29, 145, 192);"></circle><circle class="pearl" r="2.190433937142651" cx="17.11182456064601" cy="11.66457480295368"></circle><circle class="pearl" r="2.190433937142651" cx="11.158443755710278" cy="16.12174840820793"></circle><circle class="pearl" r="2.190433937142651" cx="14.094199451754902" cy="4.158034484728987"></circle><circle class="pearl" r="2.190433937142651" cx="21.39360533290426" cy="22.134016617134943"></circle><circle class="pearl" r="2.190433937142651" cx="3.6624887600211533" cy="13.38994590255883"></circle><circle class="pearl" r="2.190433937142651" cx="21.633446310706855" cy="5.946236765931733"></circle><circle class="pearl" r="2.190433937142651" cx="13.711519388555452" cy="24.27307339578848"></circle><circle class="pearl" r="2.190433937142651" cx="6.3118579882450065" cy="5.933609271766816"></circle><circle class="pearl" r="2.190433937142651" cx="24.25151674430741" cy="14.778315077512783"></circle><circle class="pearl" r="2.190433937142651" cx="6.287622034345526" cy="21.97654079584912"></circle></g><g class="bobaCup bright" cupRadius="13.786158370199718" width="27.572316740399437" height="27.572316740399437" pearlRadius="2.738042421428314" pearlCount="10" transform="translate(232.31555382075342,44.757693019819314)"><circle class="pool" r="13.786158370199718" cx="13.786158370199718" cy="13.786158370199718" style="stroke-width: 1; fill: rgb(29, 145, 192);"></circle><circle class="pearl" r="2.1904339371426516" cx="16.62265985299223" cy="11.170998533271643"></circle><circle class="pearl" r="2.1904339371426516" cx="11.258708180237033" cy="16.118750397087297"></circle><circle class="pearl" r="2.1904339371426516" cx="13.915101817405489" cy="3.6513262528425714"></circle><circle class="pearl" r="2.1904339371426516" cx="21.324908698022845" cy="21.677766193152603"></circle><circle class="pearl" r="2.1904339371426516" cx="3.65590304375251" cy="13.408279190628168"></circle><circle class="pearl" r="2.1904339371426516" cx="21.27207071944419" cy="5.860212003949638"></circle><circle class="pearl" r="2.1904339371426516" cx="13.660161629093512" cy="23.921017734666126"></circle><circle class="pearl" r="2.1904339371426516" cx="6.249014486304706" cy="5.893501475007584"></circle><circle class="pearl" r="2.1904339371426516" cx="23.916312564868257" cy="14.167707913342161"></circle><circle class="pearl" r="2.1904339371426516" cx="6.299801017841055" cy="21.71181696847821"></circle></g><g class="bobaCup bright" cupRadius="13.580819257205727" width="27.161638514411454" height="27.161638514411454" pearlRadius="2.7380424214283137" pearlCount="9" transform="translate(33.17904041714498,6.419180742794273)"><circle class="pool" r="13.580819257205727" cx="13.580819257205727" cy="13.580819257205727" style="stroke-width: 1; fill: rgb(127, 205, 187);"></circle><circle class="pearl" r="2.190433937142651" cx="16.784384159324382" cy="11.802664051527746"></circle><circle class="pearl" r="2.190433937142651" cx="10.550284871753" cy="15.88537233130215"></circle><circle class="pearl" r="2.190433937142651" cx="13.640243745348753" cy="3.6508532386473114"></circle><circle class="pearl" r="2.190433937142651" cx="18.95660612500599" cy="22.40164634320565"></circle><circle class="pearl" r="2.190433937142651" cx="3.6563530505942605" cy="13.189816065661251"></circle><circle class="pearl" r="2.190433937142651" cx="20.98939132704429" cy="5.849463959299417"></circle><circle class="pearl" r="2.190433937142651" cx="11.110279443643053" cy="23.28431201934303"></circle><circle class="pearl" r="2.190433937142651" cx="6.072097513125362" cy="5.91528208461669"></circle><circle class="pearl" r="2.190433937142651" cx="23.30470916307515" cy="15.938439922397936"></circle></g><g class="bobaCup bright" cupRadius="13.538535263525171" width="27.077070527050342" height="27.077070527050342" pearlRadius="2.7380424214283137" pearlCount="9" transform="translate(286.75564343294303,251.3252865601962)"><circle class="pool" r="13.538535263525171" cx="13.538535263525171" cy="13.538535263525171" style="stroke-width: 1; fill: rgb(29, 145, 192);"></circle><circle class="pearl" r="2.190433937142651" cx="16.592747470995107" cy="11.680640680232141"></circle><circle class="pearl" r="2.190433937142651" cx="10.476541317262404" cy="15.920265308307371"></circle><circle class="pearl" r="2.190433937142651" cx="13.611467371374303" cy="3.650919672678297"></circle><circle class="pearl" r="2.190433937142651" cx="19.14780618602181" cy="22.209663227033477"></circle><circle class="pearl" r="2.190433937142651" cx="3.655931332585066" cy="13.163044817106929"></circle><circle class="pearl" r="2.190433937142651" cx="20.918320905981556" cy="5.8388972223784865"></circle><circle class="pearl" r="2.190433937142651" cx="11.330839100102402" cy="23.245132676898823"></circle><circle class="pearl" r="2.190433937142651" cx="6.065617155116698" cy="5.899996690422274"></circle><circle class="pearl" r="2.190433937142651" cx="23.26942518748311" cy="15.593861640959352"></circle></g><g class="bobaCup bright" cupRadius="13.343837784174182" width="26.687675568348364" height="26.687675568348364" pearlRadius="2.738042421428314" pearlCount="9" transform="translate(294.3957730326987,76.32283878616623)"><circle class="pool" r="13.343837784174182" cx="13.343837784174182" cy="13.343837784174182" style="stroke-width: 1; fill: rgb(29, 145, 192);"></circle><circle class="pearl" r="2.1904339371426516" cx="15.405500998563106" cy="11.27758208297779"></circle><circle class="pearl" r="2.1904339371426516" cx="9.965295822632124" cy="16.711833904408678"></circle><circle class="pearl" r="2.1904339371426516" cx="13.416675605181908" cy="3.65092202399166"></circle><circle class="pearl" r="2.1904339371426516" cx="20.75684162280412" cy="20.78840098267709"></circle><circle class="pearl" r="2.1904339371426516" cx="3.6521678458782803" cy="13.147492702504946"></circle><circle class="pearl" r="2.1904339371426516" cx="20.645688276406627" cy="5.825810581321017"></circle><circle class="pearl" r="2.1904339371426516" cx="13.51188197201902" cy="23.03589417460626"></circle><circle class="pearl" r="2.1904339371426516" cx="6.022391303578335" cy="5.838646516742475"></circle><circle class="pearl" r="2.1904339371426516" cx="23.03685167079619" cy="13.29200525603903"></circle></g><g class="bobaCup bright" cupRadius="13.138131260508901" width="26.276262521017802" height="26.276262521017802" pearlRadius="2.7380424214283137" pearlCount="9" transform="translate(218.3825541662764,247.87651402973844)"><circle class="pool" r="13.138131260508901" cx="13.138131260508901" cy="13.138131260508901" style="stroke-width: 1; fill: rgb(127, 205, 187);"></circle><circle class="pearl" r="2.190433937142651" cx="15.092336519838003" cy="11.189292418080035"></circle><circle class="pearl" r="2.190433937142651" cx="9.696209406301286" cy="16.569766642269855"></circle><circle class="pearl" r="2.190433937142651" cx="13.200701283040628" cy="3.650872223502004"></circle><circle class="pearl" r="2.190433937142651" cx="20.363224598222114" cy="20.460489608217717"></circle><circle class="pearl" r="2.190433937142651" cx="3.651280186487403" cy="13.017158279144292"></circle><circle class="pearl" r="2.190433937142651" cx="20.250644786920514" cy="5.742468457668036"></circle><circle class="pearl" r="2.190433937142651" cx="13.225081233443396" cy="22.625251565812313"></circle><circle class="pearl" r="2.190433937142651" cx="5.991462603208262" cy="5.764535003455583"></circle><circle class="pearl" r="2.190433937142651" cx="22.625538220551075" cy="13.143438369901675"></circle></g><g class="bobaCup bright" cupRadius="13.013396932080447" width="26.026793864160894" height="26.026793864160894" pearlRadius="2.7380424214283137" pearlCount="8" transform="translate(214.72957032372875,79.11283014407925)"><circle class="pool" r="13.013396932080447" cx="13.013396932080447" cy="13.013396932080447" style="stroke-width: 1; fill: rgb(127, 205, 187);"></circle><circle class="pearl" r="2.190433937142651" cx="19.535015131150434" cy="13.00754302617101"></circle><circle class="pearl" r="2.190433937142651" cx="11.718599225611467" cy="14.370744457138265"></circle><circle class="pearl" r="2.190433937142651" cx="12.243333962223051" cy="3.6735273052682498"></circle><circle class="pearl" r="2.190433937142651" cx="19.982978231311062" cy="20.352370524864156"></circle><circle class="pearl" r="2.190433937142651" cx="3.7979229652180972" cy="14.965183149908007"></circle><circle class="pearl" r="2.190433937142651" cx="19.982952947129018" cy="5.674407304303507"></circle><circle class="pearl" r="2.190433937142651" cx="12.167742086353714" cy="22.348564800918876"></circle><circle class="pearl" r="2.190433937142651" cx="5.083703599752145" cy="7.076861579879804"></circle></g><g class="bobaCup bright" cupRadius="12.92093694904957" width="25.84187389809914" height="25.84187389809914" pearlRadius="2.738042421428314" pearlCount="8" transform="translate(164.0278105882207,284.74156362701564)"><circle class="pool" r="12.92093694904957" cx="12.92093694904957" cy="12.92093694904957" style="stroke-width: 1; fill: rgb(127, 205, 187);"></circle><circle class="pearl" r="2.1904339371426516" cx="19.579081398983146" cy="12.924016312228071"></circle><circle class="pearl" r="2.1904339371426516" cx="11.72231437383693" cy="14.163984756032402"></circle><circle class="pearl" r="2.1904339371426516" cx="12.165945619360086" cy="3.6727997731737525"></circle><circle class="pearl" r="2.1904339371426516" cx="19.79926921884524" cy="20.20818230827403"></circle><circle class="pearl" r="2.1904339371426516" cx="3.802950682704742" cy="14.898478219354338"></circle><circle class="pearl" r="2.1904339371426516" cx="19.809531007079926" cy="5.6401514279107925"></circle><circle class="pearl" r="2.1904339371426516" cx="11.951911110985028" cy="22.154762628627257"></circle><circle class="pearl" r="2.1904339371426516" cx="5.09000020254941" cy="6.994547166208639"></circle></g><g class="bobaCup bright" cupRadius="12.649283002028692" width="25.298566004057385" height="25.298566004057385" pearlRadius="2.7380424214283132" pearlCount="8" transform="translate(160.57782150559493,273.0635143422011)"><circle class="pool" r="12.649283002028692" cx="12.649283002028692" cy="12.649283002028692" style="stroke-width: 1; fill: rgb(65, 182, 196);"></circle><circle class="pearl" r="2.1904339371426507" cx="14.071764739195977" cy="12.846932414781257"></circle><circle class="pearl" r="2.1904339371426507" cx="6.4414981347530205" cy="19.577529300575428"></circle><circle class="pearl" r="2.1904339371426507" cx="15.102895657621412" cy="3.8909714010198675"></circle><circle class="pearl" r="2.1904339371426507" cx="20.834414133133084" cy="17.112119772734413"></circle><circle class="pearl" r="2.1904339371426507" cx="3.6634821488716733" cy="12.081286877642471"></circle><circle class="pearl" r="2.1904339371426507" cx="21.146479025667947" cy="9.123319544023289"></circle><circle class="pearl" r="2.1904339371426507" cx="14.187853717782415" cy="21.55392359208258"></circle><circle class="pearl" r="2.1904339371426507" cx="7.1720044386370745" cy="4.898086216653762"></circle></g><g class="bobaCup bright" cupRadius="12.266527276218177" width="24.533054552436354" height="24.533054552436354" pearlRadius="2.7380424214283137" pearlCount="8" transform="translate(307.7334727237818,22.659486429871187)"><circle class="pool" r="12.266527276218177" cx="12.266527276218177" cy="12.266527276218177" style="stroke-width: 1; fill: rgb(65, 182, 196);"></circle><circle class="pearl" r="2.190433937142651" cx="13.324043607120322" cy="12.588003565000575"></circle><circle class="pearl" r="2.190433937142651" cx="5.725074451240783" cy="18.992561072691082"></circle><circle class="pearl" r="2.190433937142651" cx="14.860112722950612" cy="3.9280467802418197"></circle><circle class="pearl" r="2.190433937142651" cx="19.897749356317792" cy="17.081649441892456"></circle><circle class="pearl" r="2.190433937142651" cx="3.663378497622464" cy="11.709470501572634"></circle><circle class="pearl" r="2.190433937142651" cx="20.48546767467603" cy="9.171567373506871"></circle><circle class="pearl" r="2.190433937142651" cx="13.183146072174237" cy="20.84803611710623"></circle><circle class="pearl" r="2.190433937142651" cx="7.065401487083087" cy="4.8079759135390105"></circle></g><g class="bobaCup bright" cupRadius="12.15935470604533" width="24.31870941209066" height="24.31870941209066" pearlRadius="2.7380424214283137" pearlCount="7" transform="translate(269.2893204549699,18.239313990310414)"><circle class="pool" r="12.15935470604533" cx="12.15935470604533" cy="12.15935470604533" style="stroke-width: 1; fill: rgb(65, 182, 196);"></circle><circle class="pearl" r="2.190433937142651" cx="13.712124364112318" cy="12.461468304791534"></circle><circle class="pearl" r="2.190433937142651" cx="5.568457746495087" cy="14.814973000061904"></circle><circle class="pearl" r="2.190433937142651" cx="12.197386896837179" cy="3.65078270751175"></circle><circle class="pearl" r="2.190433937142651" cx="18.80862351054036" cy="18.621557967023833"></circle><circle class="pearl" r="2.190433937142651" cx="4.870896419444817" cy="6.850473972260219"></circle><circle class="pearl" r="2.190433937142651" cx="19.48738574259463" cy="6.9328011902447235"></circle><circle class="pearl" r="2.190433937142651" cx="11.067096140633383" cy="20.61882875471589"></circle></g><g class="bobaCup bright" cupRadius="12.097218742542896" width="24.194437485085793" height="24.194437485085793" pearlRadius="2.738042421428314" pearlCount="7" transform="translate(276.2797289710999,271.24623490766317)"><circle class="pool" r="12.097218742542896" cx="12.097218742542896" cy="12.097218742542896" style="stroke-width: 1; fill: rgb(127, 205, 187);"></circle><circle class="pearl" r="2.1904339371426516" cx="13.525555768975446" cy="12.411055447231183"></circle><circle class="pearl" r="2.1904339371426516" cx="5.322133611574903" cy="14.835473758582005"></circle><circle class="pearl" r="2.1904339371426516" cx="12.170575774265366" cy="3.6509456476116893"></circle><circle class="pearl" r="2.1904339371426516" cx="18.714345757855728" cy="18.49362028357392"></circle><circle class="pearl" r="2.1904339371426516" cx="4.845727545518448" cy="6.854660023437523"></circle><circle class="pearl" r="2.1904339371426516" cx="19.423781913528146" cy="7.0137273628859305"></circle><circle class="pearl" r="2.1904339371426516" cx="10.97291516812764" cy="20.491355113713446"></circle></g><g class="bobaCup bright" cupRadius="12.090106296778487" width="24.180212593556973" height="24.180212593556973" pearlRadius="2.738042421428314" pearlCount="7" transform="translate(249.5306137525756,78.67879897877705)"><circle class="pool" r="12.090106296778487" cx="12.090106296778487" cy="12.090106296778487" style="stroke-width: 1; fill: rgb(127, 205, 187);"></circle><circle class="pearl" r="2.1904339371426516" cx="13.504529710985821" cy="12.40526967852538"></circle><circle class="pearl" r="2.1904339371426516" cx="5.294344904015737" cy="14.837642965008618"></circle><circle class="pearl" r="2.1904339371426516" cx="12.167292800489685" cy="3.650969620824308"></circle><circle class="pearl" r="2.1904339371426516" cx="18.703382064255056" cy="18.47923729219058"></circle><circle class="pearl" r="2.1904339371426516" cx="4.842739887795579" cy="6.855384478072062"></circle><circle class="pearl" r="2.1904339371426516" cx="19.41631216170521" cy="7.022789655426359"></circle><circle class="pearl" r="2.1904339371426516" cx="10.961887649495262" cy="20.476732982176227"></circle></g><g class="bobaCup bright" cupRadius="11.884658663470445" width="23.76931732694089" height="23.76931732694089" pearlRadius="2.7380424214283137" pearlCount="7" transform="translate(119.14527243334649,220.58449689184576)"><circle class="pool" r="11.884658663470445" cx="11.884658663470445" cy="11.884658663470445" style="stroke-width: 1; fill: rgb(65, 182, 196);"></circle><circle class="pearl" r="2.190433937142651" cx="12.919948241674739" cy="12.233324435181382"></circle><circle class="pearl" r="2.190433937142651" cx="4.527240145245622" cy="14.891775800846329"></circle><circle class="pearl" r="2.190433937142651" cx="12.052304407819038" cy="3.6519056981155753"></circle><circle class="pearl" r="2.190433937142651" cx="18.379899881436696" cy="18.0737229705207"></circle><circle class="pearl" r="2.190433937142651" cx="4.746707053645954" cy="6.899720672023279"></circle><circle class="pearl" r="2.190433937142651" cx="19.184142162573526" cy="7.265342245600531"></circle><circle class="pearl" r="2.190433937142651" cx="10.633583185239583" cy="20.052561484274666"></circle></g><g class="bobaCup bright" cupRadius="11.832750841928629" width="23.665501683857258" height="23.665501683857258" pearlRadius="2.7380424214283132" pearlCount="7" transform="translate(94.80537811259661,72.45273965324557)"><circle class="pool" r="11.832750841928629" cx="11.832750841928629" cy="11.832750841928629" style="stroke-width: 1; fill: rgb(29, 145, 192);"></circle><circle class="pearl" r="2.1904339371426507" cx="12.778040346036525" cy="12.188777145491226"></circle><circle class="pearl" r="2.1904339371426507" cx="4.342847205446628" cy="14.902811073042217"></circle><circle class="pearl" r="2.1904339371426507" cx="12.018486819009897" cy="3.652181045898371"></circle><circle class="pearl" r="2.1904339371426507" cx="18.296117222556592" cy="17.974345412091537"></circle><circle class="pearl" r="2.1904339371426507" cx="4.720296998426911" cy="6.916653629467403"></circle><circle class="pearl" r="2.1904339371426507" cx="19.121373337419026" cy="7.3222400486125965"></circle><circle class="pearl" r="2.1904339371426507" cx="10.547657669575466" cy="19.94478783473135"></circle></g><g class="bobaCup bright" cupRadius="11.81989385478701" width="23.63978770957402" height="23.63978770957402" pearlRadius="2.7380424214283137" pearlCount="7" transform="translate(18.978009582874066,63.24029009248123)"><circle class="pool" r="11.81989385478701" cx="11.81989385478701" cy="11.81989385478701" style="stroke-width: 1; fill: rgb(127, 205, 187);"></circle><circle class="pearl" r="2.190433937142651" cx="12.743167172474925" cy="12.177451394022569"></circle><circle class="pearl" r="2.190433937142651" cx="4.2976041453544" cy="14.905836174868886"></circle><circle class="pearl" r="2.190433937142651" cx="12.00947211214884" cy="3.652243641011328"></circle><circle class="pearl" r="2.190433937142651" cx="18.27542142504878" cy="17.949623500499126"></circle><circle class="pearl" r="2.190433937142651" cx="4.713458216722964" cy="6.9215855900485685"></circle><circle class="pearl" r="2.190433937142651" cx="19.105430762786046" cy="7.335687686054464"></circle><circle class="pearl" r="2.190433937142651" cx="10.526457117323597" cy="19.91808173085076"></circle></g><g class="bobaCup bright" cupRadius="11.685612200427647" width="23.371224400855294" height="23.371224400855294" pearlRadius="2.7380424214283137" pearlCount="7" transform="translate(250.86387033535797,253.76572292105308)"><circle class="pool" r="11.685612200427647" cx="11.685612200427647" cy="11.685612200427647" style="stroke-width: 1; fill: rgb(29, 145, 192);"></circle><circle class="pearl" r="2.190433937142651" cx="12.217251893947392" cy="11.861930157965412"></circle><circle class="pearl" r="2.190433937142651" cx="4.073411543819553" cy="14.800107031928226"></circle><circle class="pearl" r="2.190433937142651" cx="12.041600244793548" cy="3.6561468598423232"></circle><circle class="pearl" r="2.190433937142651" cx="18.13890021767443" cy="17.55608826657165"></circle><circle class="pearl" r="2.190433937142651" cx="4.706823465142888" cy="6.83102592464379"></circle><circle class="pearl" r="2.190433937142651" cx="18.986958599381477" cy="7.610602584165403"></circle><circle class="pearl" r="2.190433937142651" cx="10.424622707182564" cy="19.652265525825577"></circle></g><g class="bobaCup bright" cupRadius="11.48237717167933" width="22.96475434335866" height="22.96475434335866" pearlRadius="2.7380424214283132" pearlCount="7" transform="translate(117.57236658742121,104.76212924784842)"><circle class="pool" r="11.48237717167933" cx="11.48237717167933" cy="11.48237717167933" style="stroke-width: 1; fill: rgb(127, 205, 187);"></circle><circle class="pearl" r="2.1904339371426507" cx="11.574444736855918" cy="11.507255397035443"></circle><circle class="pearl" r="2.1904339371426507" cx="4.008028322808271" cy="14.324516644755867"></circle><circle class="pearl" r="2.1904339371426507" cx="12.324356493970843" cy="3.681635151927991"></circle><circle class="pearl" r="2.1904339371426507" cx="17.941942160367017" cy="16.925451457104902"></circle><circle class="pearl" r="2.1904339371426507" cx="4.846703515002411" cy="6.379924366227546"></circle><circle class="pearl" r="2.1904339371426507" cx="18.83367904048507" cy="8.19597651603901"></circle><circle class="pearl" r="2.1904339371426507" cx="10.214760156521152" cy="19.24384622222728"></circle></g><g class="bobaCup bright" cupRadius="11.472060374433855" width="22.94412074886771" height="22.94412074886771" pearlRadius="2.7380424214283146" pearlCount="7" transform="translate(198.7023889081291,227.07734940655186)"><circle class="pool" r="11.472060374433855" cx="11.472060374433855" cy="11.472060374433855" style="stroke-width: 1; fill: rgb(29, 145, 192);"></circle><circle class="pearl" r="2.1904339371426516" cx="11.544381477291545" cy="11.494310455866756"></circle><circle class="pearl" r="2.1904339371426516" cx="4.001929947370699" cy="14.288935097353205"></circle><circle class="pearl" r="2.1904339371426516" cx="12.347986818513938" cy="3.6842119220992915"></circle><circle class="pearl" r="2.1904339371426516" cx="17.929342670060702" cy="16.8975920126643"></circle><circle class="pearl" r="2.1904339371426516" cx="4.859387730239722" cy="6.346548264062706"></circle><circle class="pearl" r="2.1904339371426516" cx="18.8270619501078" cy="8.234439215638233"></circle><circle class="pearl" r="2.1904339371426516" cx="10.191084278291072" cy="19.221655978060678"></circle></g><g class="bobaCup bright" cupRadius="11.239370681173185" width="22.47874136234637" height="22.47874136234637" pearlRadius="2.7380424214283132" pearlCount="6" transform="translate(182.35795033764077,209.63154044760472)"><circle class="pool" r="11.239370681173185" cx="11.239370681173185" cy="11.239370681173185" style="stroke-width: 1; fill: rgb(127, 205, 187);"></circle><circle class="pearl" r="2.1904339371426507" cx="11.547535285509868" cy="11.464446069518889"></circle><circle class="pearl" r="2.1904339371426507" cx="6.134857974683093" cy="17.35051539648696"></circle><circle class="pearl" r="2.1904339371426507" cx="9.159123528405088" cy="3.8449128296435164"></circle><circle class="pearl" r="2.1904339371426507" cx="17.145863506650514" cy="17.15090638087842"></circle><circle class="pearl" r="2.1904339371426507" cx="3.7537157298162525" cy="9.721301400001028"></circle><circle class="pearl" r="2.1904339371426507" cx="17.147696956557926" cy="5.328967724382335"></circle></g><g class="bobaCup bright" cupRadius="11.092483736741546" width="22.18496747348309" height="22.18496747348309" pearlRadius="2.738042421428314" pearlCount="6" transform="translate(137.58572407365364,49.077696669457595)"><circle class="pool" r="11.092483736741546" cx="11.092483736741546" cy="11.092483736741546" style="stroke-width: 1; fill: rgb(127, 205, 187);"></circle><circle class="pearl" r="2.1904339371426516" cx="11.500334340733222" cy="11.24524246899972"></circle><circle class="pearl" r="2.1904339371426516" cx="6.354604871074479" cy="17.471501247797836"></circle><circle class="pearl" r="2.1904339371426516" cx="8.677610235521525" cy="3.916777201859628"></circle><circle class="pearl" r="2.1904339371426516" cx="16.855503155478477" cy="16.91967180914478"></circle><circle class="pearl" r="2.1904339371426516" cx="3.7058744344496195" cy="9.98772763106537"></circle><circle class="pearl" r="2.1904339371426516" cx="16.896604590831892" cy="5.291697684624316"></circle></g><g class="bobaCup bright" cupRadius="10.891964528498704" width="21.78392905699741" height="21.78392905699741" pearlRadius="2.738042421428314" pearlCount="6" transform="translate(117.87077154586382,282.23342213563274)"><circle class="pool" r="10.891964528498704" cx="10.891964528498704" cy="10.891964528498704" style="stroke-width: 1; fill: rgb(127, 205, 187);"></circle><circle class="pearl" r="2.1904339371426516" cx="11.263436062353737" cy="11.127642707304979"></circle><circle class="pearl" r="2.1904339371426516" cx="5.825012314351546" cy="16.88286390971811"></circle><circle class="pearl" r="2.1904339371426516" cx="8.861360417483274" cy="3.8416813448484963"></circle><circle class="pearl" r="2.1904339371426516" cx="16.457591459598707" cy="16.603863163160607"></circle><circle class="pearl" r="2.1904339371426516" cx="3.7519879090575174" cy="9.410179091877758"></circle><circle class="pearl" r="2.1904339371426516" cx="16.539483943971586" cy="5.2292342761138215"></circle></g><g class="bobaCup bright" cupRadius="10.357292382645904" width="20.714584765291807" height="20.714584765291807" pearlRadius="2.7380424214283137" pearlCount="5" transform="translate(135.09932400884787,289.6427076173541)"><circle class="pool" r="10.357292382645904" cx="10.357292382645904" cy="10.357292382645904" style="stroke-width: 1; fill: rgb(65, 182, 196);"></circle><circle class="pearl" r="2.190433937142651" cx="16.656019773172563" cy="7.949911123626425"></circle><circle class="pearl" r="2.190433937142651" cx="7.277174129304361" cy="15.968751017318338"></circle><circle class="pearl" r="2.190433937142651" cx="9.909042889020405" cy="3.6604275883452164"></circle><circle class="pearl" r="2.190433937142651" cx="15.270949453814138" cy="15.824106084988411"></circle><circle class="pearl" r="2.190433937142651" cx="3.770992936600015" cy="8.783484179911913"></circle></g><g class="bobaCup bright" cupRadius="9.808170709441379" width="19.616341418882758" height="19.616341418882758" pearlRadius="2.738042421428314" pearlCount="5" transform="translate(92.49331820431789,180.46199437849205)"><circle class="pool" r="9.808170709441379" cx="9.808170709441379" cy="9.808170709441379" style="stroke-width: 1; fill: rgb(29, 145, 192);"></circle><circle class="pearl" r="2.1904339371426516" cx="15.563564341440948" cy="7.028750217534421"></circle><circle class="pearl" r="2.1904339371426516" cx="6.868143059886417" cy="15.514607845286204"></circle><circle class="pearl" r="2.1904339371426516" cx="8.982935796752894" cy="3.6855014868507987"></circle><circle class="pearl" r="2.1904339371426516" cx="14.616899105023098" cy="14.7059177465418"></circle><circle class="pearl" r="2.1904339371426516" cx="3.7006481689822945" cy="8.81981238537637"></circle></g><g class="bobaCup bright" cupRadius="9.573764020215933" width="19.147528040431865" height="19.147528040431865" pearlRadius="2.738042421428314" pearlCount="5" transform="translate(236.83415784103124,261.5338156434517)"><circle class="pool" r="9.573764020215933" cx="9.573764020215933" cy="9.573764020215933" style="stroke-width: 1; fill: rgb(29, 145, 192);"></circle><circle class="pearl" r="2.1904339371426516" cx="15.087729679049698" cy="6.805111800839289"></circle><circle class="pearl" r="2.1904339371426516" cx="6.5034930816050815" cy="14.991138380351245"></circle><circle class="pearl" r="2.1904339371426516" cx="8.816605375925134" cy="3.6807108315527555"></circle><circle class="pearl" r="2.1904339371426516" cx="14.174444825761267" cy="14.318914399570819"></circle><circle class="pearl" r="2.1904339371426516" cx="3.71354443010959" cy="8.478810041900228"></circle></g><g class="bobaCup bright" cupRadius="9.307642138939098" width="18.615284277878196" height="18.615284277878196" pearlRadius="2.738042421428314" pearlCount="4" transform="translate(208.56944211036617,235.94534311850094)"><circle class="pool" r="9.307642138939098" cx="9.307642138939098" cy="9.307642138939098" style="stroke-width: 1; fill: rgb(65, 182, 196);"></circle><circle class="pearl" r="2.1904339371426516" cx="14.447377664550597" cy="6.248224371198054"></circle><circle class="pearl" r="2.1904339371426516" cx="5.398666277421066" cy="12.158989822324054"></circle><circle class="pearl" r="2.1904339371426516" cx="6.77428236732595" cy="4.002122268189632"></circle><circle class="pearl" r="2.1904339371426516" cx="13.14531349913909" cy="14.136569888896286"></circle></g><g class="bobaCup bright" cupRadius="8.972983993123673" width="17.945967986247346" height="17.945967986247346" pearlRadius="2.7380424214283137" pearlCount="4" transform="translate(235.62734409394616,256.15390294164496)"><circle class="pool" r="8.972983993123673" cx="8.972983993123673" cy="8.972983993123673" style="stroke-width: 1; fill: rgb(65, 182, 196);"></circle><circle class="pearl" r="2.190433937142651" cx="13.613594646334437" cy="5.542499449845563"></circle><circle class="pearl" r="2.190433937142651" cx="4.8073177461102174" cy="12.202958674840998"></circle><circle class="pearl" r="2.190433937142651" cx="5.721984894112952" cy="4.260367781071466"></circle><circle class="pearl" r="2.190433937142651" cx="12.698927498333148" cy="13.485090343616516"></circle></g><g class="bobaCup bright" cupRadius="8.892131810207463" width="17.784263620414926" height="17.784263620414926" pearlRadius="2.7380424214283137" pearlCount="4" transform="translate(297.9729469852408,244.37099763717566)"><circle class="pool" r="8.892131810207463" cx="8.892131810207463" cy="8.892131810207463" style="stroke-width: 1; fill: rgb(65, 182, 196);"></circle><circle class="pearl" r="2.190433937142651" cx="13.41328067158604" cy="5.386348777045654"></circle><circle class="pearl" r="2.190433937142651" cx="4.646101251211284" cy="12.278454672864692"></circle><circle class="pearl" r="2.190433937142651" cx="5.4885716136938285" cy="4.327881751006304"></circle><circle class="pearl" r="2.190433937142651" cx="12.570810309103905" cy="13.336921698904515"></circle></g><g class="bobaCup bright" cupRadius="8.83461002227646" width="17.66922004455292" height="17.66922004455292" pearlRadius="2.7380424214283137" pearlCount="4" transform="translate(125.60330032066942,200.07598719442672)"><circle class="pool" r="8.83461002227646" cx="8.83461002227646" cy="8.83461002227646" style="stroke-width: 1; fill: rgb(127, 205, 187);"></circle><circle class="pearl" r="2.190433937142651" cx="13.26948056699904" cy="5.274623002780131"></circle><circle class="pearl" r="2.190433937142651" cx="4.536650523845579" cy="12.33394523253083"></circle><circle class="pearl" r="2.190433937142651" cx="5.324854017409269" cy="4.377809150852135"></circle><circle class="pearl" r="2.190433937142651" cx="12.481277073435496" cy="13.230759084459013"></circle></g><g class="bobaCup bright" cupRadius="8.674626190292061" width="17.349252380584122" height="17.349252380584122" pearlRadius="2.738042421428314" pearlCount="4" transform="translate(285.71286614945114,89.88448054191531)"><circle class="pool" r="8.674626190292061" cx="8.674626190292061" cy="8.674626190292061" style="stroke-width: 1; fill: rgb(127, 205, 187);"></circle><circle class="pearl" r="2.1904339371426516" cx="12.778015373858711" cy="4.785811429824232"></circle><circle class="pearl" r="2.1904339371426516" cx="4.57123700672541" cy="12.563440950759889"></circle><circle class="pearl" r="2.1904339371426516" cx="4.785811429824233" cy="4.57123700672541"></circle><circle class="pearl" r="2.1904339371426516" cx="12.56344095075989" cy="12.778015373858711"></circle></g><g class="bobaCup bright" cupRadius="7.433551517968381" width="14.867103035936761" height="14.867103035936761" pearlRadius="2.7380424214283137" pearlCount="3" transform="translate(268.77556840733405,35.50551327577719)"><circle class="pool" r="7.433551517968381" cx="7.433551517968381" cy="7.433551517968381" style="stroke-width: 1; fill: rgb(29, 145, 192);"></circle><circle class="pearl" r="2.190433937142651" cx="11.21637935040366" cy="7.436157990904204"></circle><circle class="pearl" r="2.190433937142651" cx="4.553885754410635" cy="10.635945336441175"></circle><circle class="pearl" r="2.190433937142651" cx="4.55369357078457" cy="4.231238457832666"></circle></g><g class="bobaCup bright" cupRadius="7.063872025639016" width="14.127744051278032" height="14.127744051278032" pearlRadius="2.738042421428314" pearlCount="2" transform="translate(157.11018794176255,292.6449592706322)"><circle class="pool" r="7.063872025639016" cx="7.063872025639016" cy="7.063872025639016" style="stroke-width: 1; fill: rgb(29, 145, 192);"></circle><circle class="pearl" r="2.1904339371426516" cx="9.887267219148802" cy="4.239510113775939"></circle><circle class="pearl" r="2.1904339371426516" cx="4.2404768321292305" cy="9.888233937502093"></circle></g><g class="bobaCup bright" cupRadius="6.780277229539521" width="13.560554459079041" height="13.560554459079041" pearlRadius="2.7380424214283137" pearlCount="2" transform="translate(260.9349775995634,195.28666282054996)"><circle class="pool" r="6.780277229539521" cx="6.780277229539521" cy="6.780277229539521" style="stroke-width: 1; fill: rgb(127, 205, 187);"></circle><circle class="pearl" r="2.190433937142651" cx="9.333088564953536" cy="4.149653978637129"></circle><circle class="pearl" r="2.190433937142651" cx="4.227465894125505" cy="9.410900480441912"></circle></g><g class="bobaCup bright" cupRadius="6.731522967935054" width="13.463045935870108" height="13.463045935870108" pearlRadius="2.7380424214283132" pearlCount="2" transform="translate(222.03250396946316,136.24774831129395)"><circle class="pool" r="6.731522967935054" cx="6.731522967935054" cy="6.731522967935054" style="stroke-width: 1; fill: rgb(127, 205, 187);"></circle><circle class="pearl" r="2.1904339371426507" cx="9.237848460096973" cy="4.134707961715056"></circle><circle class="pearl" r="2.1904339371426507" cx="4.225197475773134" cy="9.328337974155051"></circle></g><g class="bobaCup bright" cupRadius="6.408385313086658" width="12.816770626173316" height="12.816770626173316" pearlRadius="2.7380424214283137" pearlCount="2" transform="translate(284.6611403484801,24.890685811962253)"><circle class="pool" r="6.408385313086658" cx="6.408385313086658" cy="6.408385313086658" style="stroke-width: 1; fill: rgb(127, 205, 187);"></circle><circle class="pearl" r="2.190433937142651" cx="8.606772382753629" cy="4.039598876169544"></circle><circle class="pearl" r="2.190433937142651" cx="4.209998243419685" cy="8.77717175000377"></circle></g><g class="bobaCup bright" cupRadius="6.080008446547338" width="12.160016893094676" height="12.160016893094676" pearlRadius="2.7380424214283132" pearlCount="2" transform="translate(214.08338415629802,178.48095229328456)"><circle class="pool" r="6.080008446547338" cx="6.080008446547338" cy="6.080008446547338" style="stroke-width: 1; fill: rgb(29, 145, 192);"></circle><circle class="pearl" r="2.1904339371426507" cx="8.002890517942252" cy="3.962800741967871"></circle><circle class="pearl" r="2.1904339371426507" cx="4.157126375152426" cy="8.197216151126806"></circle></g><g class="bobaCup bright" cupRadius="5.5249816567251395" width="11.049963313450279" height="11.049963313450279" pearlRadius="2.7380424214283137" pearlCount="2" transform="translate(117.34024527579166,77.55854899926987)"><circle class="pool" r="5.5249816567251395" cx="5.5249816567251395" cy="5.5249816567251395" style="stroke-width: 1; fill: rgb(65, 182, 196);"></circle><circle class="pearl" r="2.190433937142651" cx="7.071620995037643" cy="3.871618812810831"></circle><circle class="pearl" r="2.190433937142651" cx="3.9783423184126363" cy="7.178344500639447"></circle></g><g class="bobaCup bright" cupRadius="4.874440442920889" width="9.748880885841778" height="9.748880885841778" pearlRadius="2.7380424214283137" pearlCount="1" transform="translate(228.89085432648668,213.6875255555643)"><circle class="pool" r="4.874440442920889" cx="4.874440442920889" cy="4.874440442920889" style="stroke-width: 1; fill: rgb(127, 205, 187);"></circle><circle class="pearl" r="2.190433937142651" cx="6.0981576572706935" cy="4.874440442920889"></circle></g><g class="bobaCup bright" cupRadius="4.556423654307529" width="9.112847308615057" height="9.112847308615057" pearlRadius="2.738042421428314" pearlCount="1" transform="translate(87.26540536001407,41.18131823673957)"><circle class="pool" r="4.556423654307529" cx="4.556423654307529" cy="4.556423654307529" style="stroke-width: 1; fill: rgb(65, 182, 196);"></circle><circle class="pearl" r="2.1904339371426516" cx="5.4621240800439725" cy="4.556423654307529"></circle></g><g class="bobaCup bright" cupRadius="4.5210857060524265" width="9.042171412104853" height="9.042171412104853" pearlRadius="2.7380424214283137" pearlCount="1" transform="translate(86.50220217252607,177.0398205654929)"><circle class="pool" r="4.5210857060524265" cx="4.5210857060524265" cy="4.5210857060524265" style="stroke-width: 1; fill: rgb(65, 182, 196);"></circle><circle class="pearl" r="2.190433937142651" cx="5.391448183533768" cy="4.5210857060524265"></circle></g><g class="bobaCup bright" cupRadius="3.697919658438607" width="7.395839316877214" height="7.395839316877214" pearlRadius="2.7380424214283137" pearlCount="1" transform="translate(273.35394863822177,252.7206987628506)"><circle class="pool" r="3.697919658438607" cx="3.697919658438607" cy="3.697919658438607" style="stroke-width: 1; fill: rgb(65, 182, 196);"></circle><circle class="pearl" r="2.190433937142651" cx="3.745116088306129" cy="3.697919658438607"></circle></g><g class="bobaCup bright" cupRadius="3.448501186731722" width="6.897002373463444" height="6.897002373463444" pearlRadius="2.738042421428314" pearlCount="1" transform="translate(252.755493742311,234.35168707049357)"><circle class="pool" r="3.448501186731722" cx="3.448501186731722" cy="3.448501186731722" style="stroke-width: 1; fill: rgb(127, 205, 187);"></circle><circle class="pearl" r="2.1904339371426516" cx="3.656657541488384" cy="3.656657541488384"></circle></g><g class="bobaCup bright" cupRadius="0" width="0" height="0" pearlRadius="NaN" pearlCount="0" transform="translate(20,300)"><circle class="pool" r="0" cx="0" cy="0" style="stroke-width: 1; fill: rgb(65, 182, 196);"></circle></g><g class="bobaCup bright" cupRadius="0" width="0" height="0" pearlRadius="NaN" pearlCount="0" transform="translate(211.17392279425454,84.07370206912964)"><circle class="pool" r="0" cx="0" cy="0" style="stroke-width: 1; fill: rgb(29, 145, 192);"></circle></g></g><g id="legendDividerGroup" transform="translate(410,0)" height="400"><rect class="legendDivider" height="400" width="90"></rect></g><g id="legend" transform="translate(410,30)" width="90" height="320"><rect class="legendBorder" transform="translate(0,0)" width="90" height="324.9477195110013"></rect><text id="rTitle" text-anchor="middle" alignment-baseline="hanging" transform="translate(45,10)" x="0" y="0" style="fill: black; font-size: 0.8rem;">Population</text><text id="bobaValue" text-anchor="middle" alignment-baseline="hanging" transform="translate(45,25)" x="0" y="0" style="fill: black; font-size: 0.7rem;">(1 Pearl =   75)</text><g class="bright" cupRadius="8.94427190999916" width="17.88854381999832" height="17.88854381999832" pearlRadius="2.7380424214283137" pearlCount="4" transform="translate(36.05572809000084,50)"><circle class="pool" r="8.94427190999916" cx="8.94427190999916" cy="8.94427190999916" style="stroke-width: 1; fill: rgb(65, 182, 196);"></circle><circle class="pearl" r="2.190433937142651" cx="13.542613460651712" cy="5.486970900805415"></circle><circle class="pearl" r="2.190433937142651" cx="4.749399498236599" cy="12.229516637519533"></circle><circle class="pearl" r="2.190433937142651" cx="5.6385452023940825" cy="4.284028231246733"></circle><circle class="pearl" r="2.190433937142651" cx="12.653467756495177" cy="13.432459307079196"></circle></g><text id="0" class="legendSampleValue" text-anchor="middle" transform="translate(45,8)" x="0" y="72.88854381999832" style="fill: black; font-size: 0.7rem;"> 300</text><g class="bright" cupRadius="12.649110640673518" width="25.298221281347036" height="25.298221281347036" pearlRadius="2.7380424214283137" pearlCount="8" transform="translate(32.35088935932648,92.88854381999832)"><circle class="pool" r="12.649110640673518" cx="12.649110640673518" cy="12.649110640673518" style="stroke-width: 1; fill: rgb(65, 182, 196);"></circle><circle class="pearl" r="2.190433937142651" cx="14.071403428550026" cy="12.846878791771143"></circle><circle class="pearl" r="2.190433937142651" cx="6.440581911774749" cy="19.57795138257092"></circle><circle class="pearl" r="2.190433937142651" cx="15.10273708455154" cy="3.8909774644866477"></circle><circle class="pearl" r="2.190433937142651" cx="20.833946229646862" cy="17.112242666106596"></circle><circle class="pearl" r="2.190433937142651" cx="3.6634707295578792" cy="12.081372495075817"></circle><circle class="pearl" r="2.190433937142651" cx="21.1462151053254" cy="9.123450087562194"></circle><circle class="pearl" r="2.190433937142651" cx="14.187116834584868" cy="21.553646746241665"></circle><circle class="pearl" r="2.190433937142651" cx="7.171845845081948" cy="4.898098459274186"></circle></g><text id="1" class="legendSampleValue" text-anchor="middle" transform="translate(45,8)" x="0" y="123.18676510134536" style="fill: black; font-size: 0.7rem;"> 600</text><g class="bright" cupRadius="15.491933384829668" width="30.983866769659336" height="30.983866769659336" pearlRadius="2.738042421428314" pearlCount="12" transform="translate(29.508066615170332,143.18676510134537)"><circle class="pool" r="15.491933384829668" cx="15.491933384829668" cy="15.491933384829668" style="stroke-width: 1; fill: rgb(65, 182, 196);"></circle><circle class="pearl" r="2.1904339371426516" cx="17.033011743384765" cy="11.01737610913958"></circle><circle class="pearl" r="2.1904339371426516" cx="11.029309432951333" cy="17.00347040031935"></circle><circle class="pearl" r="2.1904339371426516" cx="13.977981653444434" cy="3.724876288236054"></circle><circle class="pearl" r="2.1904339371426516" cx="18.741808845067855" cy="18.756462357333643"></circle><circle class="pearl" r="2.1904339371426516" cx="3.725529689195627" cy="13.971342248807428"></circle><circle class="pearl" r="2.1904339371426516" cx="26.98661348100194" cy="12.233596672509572"></circle><circle class="pearl" r="2.1904339371426516" cx="12.152198575888569" cy="26.968872613027877"></circle><circle class="pearl" r="2.1904339371426516" cx="6.524197378590721" cy="6.5101702816287865"></circle><circle class="pearl" r="2.1904339371426516" cx="26.508263068801252" cy="20.479674242239334"></circle><circle class="pearl" r="2.1904339371426516" cx="5.419021306595209" cy="22.679550094546478"></circle><circle class="pearl" r="2.1904339371426516" cx="22.76079804957651" cy="5.461881544509561"></circle><circle class="pearl" r="2.1904339371426516" cx="20.400071923945557" cy="26.535092423407907"></circle></g><text id="2" class="legendSampleValue" text-anchor="middle" transform="translate(45,8)" x="0" y="179.1706318710047" style="fill: black; font-size: 0.7rem;"> 900</text><g class="bright" cupRadius="17.88854381999832" width="35.77708763999664" height="35.77708763999664" pearlRadius="2.7380424214283137" pearlCount="16" transform="translate(27.11145618000168,199.1706318710047)"><circle class="pool" r="17.88854381999832" cx="17.88854381999832" cy="17.88854381999832" style="stroke-width: 1; fill: rgb(65, 182, 196);"></circle><circle class="pearl" r="2.190433937142651" cx="19.8046930625516" cy="19.706925044831756"></circle><circle class="pearl" r="2.190433937142651" cx="13.339172784724305" cy="23.858410298028698"></circle><circle class="pearl" r="2.190433937142651" cx="16.092791630714295" cy="11.113543243945612"></circle><circle class="pearl" r="2.190433937142651" cx="20.836129534048155" cy="27.499380517199565"></circle><circle class="pearl" r="2.190433937142651" cx="10.312657514553905" cy="16.56124087753138"></circle><circle class="pearl" r="2.190433937142651" cx="23.678755837700653" cy="13.13675787817294"></circle><circle class="pearl" r="2.190433937142651" cx="14.311679794483911" cy="31.765114841909277"></circle><circle class="pearl" r="2.190433937142651" cx="11.081450997216843" cy="4.99648955196875"></circle><circle class="pearl" r="2.190433937142651" cx="27.674351504393126" cy="20.796258814455655"></circle><circle class="pearl" r="2.190433937142651" cx="4.000488629236898" cy="21.40866477780026"></circle><circle class="pearl" r="2.190433937142651" cx="28.333596734388347" cy="7.01684061165493"></circle><circle class="pearl" r="2.190433937142651" cx="28.522531366621063" cy="28.62247591779055"></circle><circle class="pearl" r="2.190433937142651" cx="5.30391541992303" cy="10.377661215789304"></circle><circle class="pearl" r="2.190433937142651" cx="31.694235049536697" cy="13.980399213320233"></circle><circle class="pearl" r="2.190433937142651" cx="7.311073872078207" cy="28.66408585659018"></circle><circle class="pearl" r="2.190433937142651" cx="18.987039995684725" cy="3.684483203560177"></circle></g><text id="3" class="legendSampleValue" text-anchor="middle" transform="translate(45,8)" x="0" y="239.94771951100134" style="fill: black; font-size: 0.7rem;">1.2k</text><g class="bright" cupRadius="20" width="40" height="40" pearlRadius="2.7380424214283137" pearlCount="20" transform="translate(25,259.9477195110013)"><circle class="pool" r="20" cx="20" cy="20" style="stroke-width: 1; fill: rgb(65, 182, 196);"></circle><circle class="pearl" r="2.190433937142651" cx="22.480421380823074" cy="19.96094551607325"></circle><circle class="pearl" r="2.190433937142651" cx="14.554532211889109" cy="20.25858246523202"></circle><circle class="pearl" r="2.190433937142651" cx="21.718613402750453" cy="11.231225788085391"></circle><circle class="pearl" r="2.190433937142651" cx="25.13767186853209" cy="27.447308990534317"></circle><circle class="pearl" r="2.190433937142651" cx="6.622341466842937" cy="15.212813608895589"></circle><circle class="pearl" r="2.190433937142651" cx="28.49521909515808" cy="14.82158787688231"></circle><circle class="pearl" r="2.190433937142651" cx="17.504603283401977" cy="28.993209871734443"></circle><circle class="pearl" r="2.190433937142651" cx="14.13811847195522" cy="12.373399584276378"></circle><circle class="pearl" r="2.190433937142651" cx="31.11803529924844" cy="22.444175683247455"></circle><circle class="pearl" r="2.190433937142651" cx="10.013176726772668" cy="26.767604068489224"></circle><circle class="pearl" r="2.190433937142651" cx="25.1625299271706" cy="4.328500666167248"></circle><circle class="pearl" r="2.190433937142651" cx="27.782608687955303" cy="34.772930101052836"></circle><circle class="pearl" r="2.190433937142651" cx="8.036930275650786" cy="7.623092000895575"></circle><circle class="pearl" r="2.190433937142651" cx="36.040664285033515" cy="16.500106031740792"></circle><circle class="pearl" r="2.190433937142651" cx="11.3070075503718" cy="34.36126950601293"></circle><circle class="pearl" r="2.190433937142651" cx="16.81383473400994" cy="3.9061454691506903"></circle><circle class="pearl" r="2.190433937142651" cx="33.74247113697989" cy="29.87303346303284"></circle><circle class="pearl" r="2.190433937142651" cx="3.788525504185259" cy="22.343736665541265"></circle><circle class="pearl" r="2.190433937142651" cx="32.18050534208177" cy="7.787706818962306"></circle><circle class="pearl" r="2.190433937142651" cx="20.00567962395882" cy="36.34927596497569"></circle></g><text id="4" class="legendSampleValue" text-anchor="middle" transform="translate(45,8)" x="0" y="304.9477195110013" style="fill: black; font-size: 0.7rem;">1.5k</text></g></svg>