<?xml version="1.0" standalone="no"?>
<?xml-stylesheet xmlns="http://www.w3.org/2000/svg" type="text/css" href="style.css"?>
<svg id="syntheticVisB" class="default" xTitle="Percent Cat Owners" yTitle="Percent Dog Owners" rTitle="Population" chartTitle="Towns in Vizzyland" width="500" height="400" xmlns="http://www.w3.org/2000/svg"><text id="chartTitle" text-anchor="middle" transform="translate(250,20)" x="0" y="0" style="fill: black; font-size: 1.2rem;">Towns in Vizzyland</text><g id="yAxis" transform="translate(50,30)" fill="none" font-size="10" font-family="sans-serif" text-anchor="end"><path class="domain" stroke="currentColor" d="M-6,300H0V20H-6"></path><g class="tick" opacity="1" transform="translate(0,300)"><line stroke="currentColor" x2="-6"></line><text fill="currentColor" x="-9" dy="0.32em">0</text></g><g class="tick" opacity="1" transform="translate(0,272)"><line stroke="currentColor" x2="-6"></line><text fill="currentColor" x="-9" dy="0.32em">10</text></g><g class="tick" opacity="1" transform="translate(0,244)"><line stroke="currentColor" x2="-6"></line><text fill="currentColor" x="-9" dy="0.32em">20</text></g><g class="tick" opacity="1" transform="translate(0,216)"><line stroke="currentColor" x2="-6"></line><text fill="currentColor" x="-9" dy="0.32em">30</text></g><g class="tick" opacity="1" transform="translate(0,188)"><line stroke="currentColor" x2="-6"></line><text fill="currentColor" x="-9" dy="0.32em">40</text></g><g class="tick" opacity="1" transform="translate(0,160)"><line stroke="currentColor" x2="-6"></line><text fill="currentColor" x="-9" dy="0.32em">50</text></g><g class="tick" opacity="1" transform="translate(0,132)"><line stroke="currentColor" x2="-6"></line><text fill="currentColor" x="-9" dy="0.32em">60</text></g><g class="tick" opacity="1" transform="translate(0,104.00000000000001)"><line stroke="currentColor" x2="-6"></line><text fill="currentColor" x="-9" dy="0.32em">70</text></g><g class="tick" opacity="1" transform="translate(0,75.99999999999999)"><line stroke="currentColor" x2="-6"></line><text fill="currentColor" x="-9" dy="0.32em">80</text></g><g class="tick" opacity="1" transform="translate(0,47.99999999999999)"><line stroke="currentColor" x2="-6"></line><text fill="currentColor" x="-9" dy="0.32em">90</text></g><g class="tick" opacity="1" transform="translate(0,20)"><line stroke="currentColor" x2="-6"></line><text fill="currentColor" x="-9" dy="0.32em">100</text></g></g><g id="xAxis" transform="translate(60,360)" fill="none" font-size="10" font-family="sans-serif" text-anchor="middle"><path class="domain" stroke="currentColor" d="M20,6V0H320V6"></path><g class="tick" opacity="1" transform="translate(20,0)"><line stroke="currentColor" y2="6"></line><text fill="currentColor" y="9" dy="0.71em">0</text></g><g class="tick" opacity="1" transform="translate(50,0)"><line stroke="currentColor" y2="6"></line><text fill="currentColor" y="9" dy="0.71em">10</text></g><g class="tick" opacity="1" transform="translate(80,0)"><line stroke="currentColor" y2="6"></line><text fill="currentColor" y="9" dy="0.71em">20</text></g><g class="tick" opacity="1" transform="translate(110,0)"><line stroke="currentColor" y2="6"></line><text fill="currentColor" y="9" dy="0.71em">30</text></g><g class="tick" opacity="1" transform="translate(140,0)"><line stroke="currentColor" y2="6"></line><text fill="currentColor" y="9" dy="0.71em">40</text></g><g class="tick" opacity="1" transform="translate(170,0)"><line stroke="currentColor" y2="6"></line><text fill="currentColor" y="9" dy="0.71em">50</text></g><g class="tick" opacity="1" transform="translate(200,0)"><line stroke="currentColor" y2="6"></line><text fill="currentColor" y="9" dy="0.71em">60</text></g><g class="tick" opacity="1" transform="translate(230,0)"><line stroke="currentColor" y2="6"></line><text fill="currentColor" y="9" dy="0.71em">70</text></g><g class="tick" opacity="1" transform="translate(260,0)"><line stroke="currentColor" y2="6"></line><text fill="currentColor" y="9" dy="0.71em">80</text></g><g class="tick" opacity="1" transform="translate(290,0)"><line stroke="currentColor" y2="6"></line><text fill="currentColor" y="9" dy="0.71em">90</text></g><g class="tick" opacity="1" transform="translate(320,0)"><line stroke="currentColor" y2="6"></line><text fill="currentColor" y="9" dy="0.71em">100</text></g></g><g id="labels"><text id="xTitle" text-anchor="middle" transform="translate(250,350)" x="0" y="40" style="fill: black; font-size: 0.8rem;">Percent Cat Owners</text><g id="group-yTitle" transform="translate(60,190)"><text id="yTitle" text-anchor="middle" transform="rotate(-90)" y="-45" style="fill: black; font-size: 0.8rem;">Percent Dog Owners</text></g></g><g id="quadrant_lines" transform="translate(60,30)"><line id="verticalQuadrantLine" x1="170" y1="10" x2="170" y2="310" class="quadrantLine"></line><line id="horizontalQuadrantLine" x1="10" y1="160" x2="330" y2="160" class="quadrantLine"></line></g><g id="chart" transform="translate(60,30)"><g class="bobaCup bright" cupRadius="20" width="40" height="40" pearlRadius="2.7380424214283137" pearlCount="20" transform="translate(80.04843613061158,141.37570435018526)"><circle class="pool" r="20" cx="20" cy="20" style="stroke-width: 1; fill: rgb(65, 182, 196);"></circle><circle class="pearl" r="2.190433937142651" cx="20.803317911356498" cy="19.852362298934615"></circle><circle class="pearl" r="2.190433937142651" cx="12.399118369231148" cy="22.318129073543428"></circle><circle class="pearl" r="2.190433937142651" cx="20.14107886386132" cy="11.690576671380018"></circle><circle class="pearl" r="2.190433937142651" cx="25.351645945468196" cy="26.426489948513225"></circle><circle class="pearl" r="2.190433937142651" cx="5.45555413244983" cy="14.383463400696877"></circle><circle class="pearl" r="2.190433937142651" cx="27.007002384921414" cy="14.812215198670392"></circle><circle class="pearl" r="2.190433937142651" cx="17.669394065840073" cy="27.98572181627974"></circle><circle class="pearl" r="2.190433937142651" cx="13.075316060454844" cy="14.529673081448232"></circle><circle class="pearl" r="2.190433937142651" cx="31.363412690087696" cy="21.539471699750266"></circle><circle class="pearl" r="2.190433937142651" cx="6.986823167406808" cy="29.380119115938808"></circle><circle class="pearl" r="2.190433937142651" cx="24.195863946736896" cy="5.095807587217031"></circle><circle class="pearl" r="2.190433937142651" cx="27.929986347293504" cy="33.70997709935047"></circle><circle class="pearl" r="2.190433937142651" cx="8.960309851298339" cy="7.973635910317352"></circle><circle class="pearl" r="2.190433937142651" cx="34.68553340637696" cy="14.890285786129768"></circle><circle class="pearl" r="2.190433937142651" cx="12.548559824642552" cy="33.90934248556552"></circle><circle class="pearl" r="2.190433937142651" cx="16.437930987710008" cy="4.970487855189916"></circle><circle class="pearl" r="2.190433937142651" cx="33.26719371328966" cy="28.885282914155283"></circle><circle class="pearl" r="2.190433937142651" cx="4.745924110358729" cy="21.949095191008542"></circle><circle class="pearl" r="2.190433937142651" cx="31.34694409707199" cy="8.181149473979769"></circle><circle class="pearl" r="2.190433937142651" cx="20.521343379892976" cy="35.34248064375117"></circle></g><g class="bobaCup bright" cupRadius="18.536732765154717" width="37.073465530309434" height="37.073465530309434" pearlRadius="2.738042421428313" pearlCount="17" transform="translate(122.92638875931962,137.75002686675708)"><circle class="pool" r="18.536732765154717" cx="18.536732765154717" cy="18.536732765154717" style="stroke-width: 1; fill: rgb(65, 182, 196);"></circle><circle class="pearl" r="2.1904339371426502" cx="18.489674532990588" cy="18.579078379671415"></circle><circle class="pearl" r="2.1904339371426502" cx="13.576547025729207" cy="24.385953740248862"></circle><circle class="pearl" r="2.1904339371426502" cx="15.981921283656543" cy="11.276071511284817"></circle><circle class="pearl" r="2.1904339371426502" cx="20.874227582338044" cy="25.937852877906742"></circle><circle class="pearl" r="2.1904339371426502" cx="11.075080163437928" cy="17.358719583115242"></circle><circle class="pearl" r="2.1904339371426502" cx="23.305258873224542" cy="12.666544111070149"></circle><circle class="pearl" r="2.1904339371426502" cx="15.718378963257825" cy="32.20723611817729"></circle><circle class="pearl" r="2.1904339371426502" cx="10.261436786898914" cy="6.600414724137552"></circle><circle class="pearl" r="2.1904339371426502" cx="25.885793688853216" cy="19.74378724684162"></circle><circle class="pearl" r="2.1904339371426502" cx="5.074574798275181" cy="22.47805188522757"></circle><circle class="pearl" r="2.1904339371426502" cx="28.80118363706055" cy="7.7520580427498675"></circle><circle class="pearl" r="2.1904339371426502" cx="27.067216172643327" cy="30.343266733374417"></circle><circle class="pearl" r="2.1904339371426502" cx="5.8527270966504386" cy="11.970330731189625"></circle><circle class="pearl" r="2.1904339371426502" cx="32.016125185479325" cy="14.675467666197099"></circle><circle class="pearl" r="2.1904339371426502" cx="8.297689803822216" cy="29.338273475655722"></circle><circle class="pearl" r="2.1904339371426502" cx="21.511716189963416" cy="4.891010021109315"></circle><circle class="pearl" r="2.1904339371426502" cx="31.309210522194135" cy="24.86464940665544"></circle></g><g class="bobaCup bright" cupRadius="16.646543690719867" width="33.29308738143973" height="33.29308738143973" pearlRadius="2.738042421428314" pearlCount="13" transform="translate(189.58328179934244,209.0788945872639)"><circle class="pool" r="16.646543690719867" cx="16.646543690719867" cy="16.646543690719867" style="stroke-width: 1; fill: rgb(65, 182, 196);"></circle><circle class="pearl" r="2.1904339371426516" cx="20.949210845082366" cy="15.344792015242273"></circle><circle class="pearl" r="2.1904339371426516" cx="14.973869239489897" cy="20.656849423949474"></circle><circle class="pearl" r="2.1904339371426516" cx="13.348569451754253" cy="12.828710009155825"></circle><circle class="pearl" r="2.1904339371426516" cx="25.826658220306367" cy="25.88224959532482"></circle><circle class="pearl" r="2.1904339371426516" cx="4.7637649137358835" cy="14.70986398582494"></circle><circle class="pearl" r="2.1904339371426516" cx="27.58395934176546" cy="10.805538373411197"></circle><circle class="pearl" r="2.1904339371426516" cx="11.045614995790938" cy="27.67182169337376"></circle><circle class="pearl" r="2.1904339371426516" cx="14.497961022535522" cy="4.789965220799363"></circle><circle class="pearl" r="2.1904339371426516" cx="28.526222412717022" cy="18.60950782684032"></circle><circle class="pearl" r="2.1904339371426516" cx="5.676578203347384" cy="22.399934072628493"></circle><circle class="pearl" r="2.1904339371426516" cx="22.29686951137428" cy="5.639002808365646"></circle><circle class="pearl" r="2.1904339371426516" cx="18.870978005999866" cy="28.493072015787956"></circle><circle class="pearl" r="2.1904339371426516" cx="7.462000978423191" cy="7.413766207545249"></circle></g><g class="bobaCup bright" cupRadius="16.13522494346237" width="32.27044988692474" height="32.27044988692474" pearlRadius="2.7380424214283132" pearlCount="13" transform="translate(66.49328108030392,123.66157691014419)"><circle class="pool" r="16.13522494346237" cx="16.13522494346237" cy="16.13522494346237" style="stroke-width: 1; fill: rgb(127, 205, 187);"></circle><circle class="pearl" r="2.1904339371426507" cx="20.423030400720098" cy="15.016144333574148"></circle><circle class="pearl" r="2.1904339371426507" cx="14.594578010222431" cy="20.265498481321348"></circle><circle class="pearl" r="2.1904339371426507" cx="12.885259382708558" cy="12.60009554935714"></circle><circle class="pearl" r="2.1904339371426507" cx="24.76479620628897" cy="25.118135999113793"></circle><circle class="pearl" r="2.1904339371426507" cx="4.836948132578489" cy="13.690867826019051"></circle><circle class="pearl" r="2.1904339371426507" cx="26.715017853258423" cy="10.80823121950621"></circle><circle class="pearl" r="2.1904339371426507" cx="10.0184012190087" cy="26.41534065649436"></circle><circle class="pearl" r="2.1904339371426507" cx="14.550845392733557" cy="4.728699795821462"></circle><circle class="pearl" r="2.1904339371426507" cx="27.44840061753889" cy="18.480308268672083"></circle><circle class="pearl" r="2.1904339371426507" cx="5.413836971624984" cy="21.038660598022005"></circle><circle class="pearl" r="2.1904339371426507" cx="22.266235692276847" cy="5.860929204740596"></circle><circle class="pearl" r="2.1904339371426507" cx="17.708250136424244" cy="27.542866380025696"></circle><circle class="pearl" r="2.1904339371426507" cx="7.558714140355952" cy="7.118872902601111"></circle></g><g class="bobaCup bright" cupRadius="15.822345936917815" width="31.64469187383563" height="31.64469187383563" pearlRadius="2.7380424214283137" pearlCount="12" transform="translate(180.7258873556303,132.28542297667465)"><circle class="pool" r="15.822345936917815" cx="15.822345936917815" cy="15.822345936917815" style="stroke-width: 1; fill: rgb(127, 205, 187);"></circle><circle class="pearl" r="2.190433937142651" cx="16.870989244350103" cy="11.678352368929394"></circle><circle class="pearl" r="2.190433937142651" cx="11.418777476928879" cy="17.492617327164314"></circle><circle class="pearl" r="2.190433937142651" cx="14.609827004308963" cy="4.697251317099397"></circle><circle class="pearl" r="2.190433937142651" cx="18.647246275769735" cy="18.965257265968553"></circle><circle class="pearl" r="2.190433937142651" cx="4.706269441447411" cy="14.497711115744478"></circle><circle class="pearl" r="2.190433937142651" cx="26.632550477711575" cy="12.459855274033727"></circle><circle class="pearl" r="2.190433937142651" cx="14.183266501319794" cy="26.908841317468845"></circle><circle class="pearl" r="2.190433937142651" cx="7.2618942553652115" cy="7.166480648693813"></circle><circle class="pearl" r="2.190433937142651" cx="26.37007710899928" cy="20.221620283760128"></circle><circle class="pearl" r="2.190433937142651" cx="6.906673547619249" cy="23.96479893874391"></circle><circle class="pearl" r="2.190433937142651" cx="22.355603721346593" cy="6.062546146885431"></circle><circle class="pearl" r="2.190433937142651" cx="21.98983363587933" cy="25.74244033916821"></circle></g><g class="bobaCup bright" cupRadius="15.76822937040417" width="31.53645874080834" height="31.53645874080834" pearlRadius="2.7380424214283132" pearlCount="12" transform="translate(175.0167269160969,209.74037457651963)"><circle class="pool" r="15.76822937040417" cx="15.76822937040417" cy="15.76822937040417" style="stroke-width: 1; fill: rgb(127, 205, 187);"></circle><circle class="pearl" r="2.1904339371426507" cx="16.835322778053545" cy="11.652163921572502"></circle><circle class="pearl" r="2.1904339371426507" cx="11.368741770019295" cy="17.431966021453047"></circle><circle class="pearl" r="2.1904339371426507" cx="14.597244688773534" cy="4.694263338037119"></circle><circle class="pearl" r="2.1904339371426507" cx="18.54475398201077" cy="18.929515369599073"></circle><circle class="pearl" r="2.1904339371426507" cx="4.705475413487718" cy="14.45533477492462"></circle><circle class="pearl" r="2.1904339371426507" cx="26.522422218159026" cy="12.402873793495367"></circle><circle class="pearl" r="2.1904339371426507" cx="14.208388189984442" cy="26.8083937193267"></circle><circle class="pearl" r="2.1904339371426507" cx="7.252609907562548" cy="7.147883213211736"></circle><circle class="pearl" r="2.1904339371426507" cx="26.27311887226905" cy="20.12075280431283"></circle><circle class="pearl" r="2.1904339371426507" cx="6.9362401263580304" cy="23.944629669949723"></circle><circle class="pearl" r="2.1904339371426507" cx="22.2895969557438" cy="6.062462000832606"></circle><circle class="pearl" r="2.1904339371426507" cx="21.9878344317286" cy="25.607280824650765"></circle></g><g class="bobaCup bright" cupRadius="15.644652093779845" width="31.28930418755969" height="31.28930418755969" pearlRadius="2.7380424214283137" pearlCount="12" transform="translate(105.23723888633927,177.18432418258078)"><circle class="pool" r="15.644652093779845" cx="15.644652093779845" cy="15.644652093779845" style="stroke-width: 1; fill: rgb(29, 145, 192);"></circle><circle class="pearl" r="2.190433937142651" cx="17.603813892687675" cy="11.230617842897656"></circle><circle class="pearl" r="2.190433937142651" cx="11.587788338711686" cy="16.365155339656102"></circle><circle class="pearl" r="2.190433937142651" cx="14.458834673874767" cy="4.695728653850399"></circle><circle class="pearl" r="2.190433937142651" cx="18.47383928742827" cy="18.594141336803567"></circle><circle class="pearl" r="2.190433937142651" cx="4.698543435682401" cy="14.42236970643644"></circle><circle class="pearl" r="2.190433937142651" cx="26.569420891824226" cy="14.175234772441858"></circle><circle class="pearl" r="2.190433937142651" cx="12.347704839646894" cy="26.28723713840051"></circle><circle class="pearl" r="2.190433937142651" cx="7.205167761929324" cy="7.122287478270497"></circle><circle class="pearl" r="2.190433937142651" cx="25.35735212778169" cy="21.84523362421623"></circle><circle class="pearl" r="2.190433937142651" cx="6.002863185974848" cy="22.006981538798584"></circle><circle class="pearl" r="2.190433937142651" cx="23.965781175485102" cy="7.04720752672692"></circle><circle class="pearl" r="2.190433937142651" cx="20.0028659661021" cy="26.01927781218859"></circle></g><g class="bobaCup bright" cupRadius="15.623235906853667" width="31.246471813707334" height="31.246471813707334" pearlRadius="2.7380424214283137" pearlCount="12" transform="translate(282.59864910219494,194.68082164822206)"><circle class="pool" r="15.623235906853667" cx="15.623235906853667" cy="15.623235906853667" style="stroke-width: 1; fill: rgb(29, 145, 192);"></circle><circle class="pearl" r="2.190433937142651" cx="17.633987362439466" cy="11.207024291442702"></circle><circle class="pearl" r="2.190433937142651" cx="11.58586210660923" cy="16.264825067116657"></circle><circle class="pearl" r="2.190433937142651" cx="14.51361853976317" cy="4.690177517991426"></circle><circle class="pearl" r="2.190433937142651" cx="18.456332638451205" cy="18.556732992305747"></circle><circle class="pearl" r="2.190433937142651" cx="4.710915324947603" cy="14.253138262752842"></circle><circle class="pearl" r="2.190433937142651" cx="26.543764440811536" cy="14.34980795477288"></circle><circle class="pearl" r="2.190433937142651" cx="12.063635456237542" cy="26.18483481637758"></circle><circle class="pearl" r="2.190433937142651" cx="7.236223481884162" cy="7.09277850603465"></circle><circle class="pearl" r="2.190433937142651" cx="25.202608861247295" cy="22.072256206463116"></circle><circle class="pearl" r="2.190433937142651" cx="5.9196654513958205" cy="21.790873463799507"></circle><circle class="pearl" r="2.190433937142651" cx="23.96580718883766" cy="7.06460621386884"></circle><circle class="pearl" r="2.190433937142651" cx="19.680660721009026" cy="26.059686173628823"></circle></g><g class="bobaCup bright" cupRadius="15.569777172557401" width="31.139554345114803" height="31.139554345114803" pearlRadius="2.7380424214283137" pearlCount="12" transform="translate(264.11477744435257,233.4951192771377)"><circle class="pool" r="15.569777172557401" cx="15.569777172557401" cy="15.569777172557401" style="stroke-width: 1; fill: rgb(29, 145, 192);"></circle><circle class="pearl" r="2.190433937142651" cx="17.618507090692155" cy="11.170646169680609"></circle><circle class="pearl" r="2.190433937142651" cx="11.553814348317426" cy="16.149682884233467"></circle><circle class="pearl" r="2.190433937142651" cx="14.532405158352633" cy="4.685320308601902"></circle><circle class="pearl" r="2.190433937142651" cx="18.365644044124885" cy="18.491659126495577"></circle><circle class="pearl" r="2.190433937142651" cx="4.716940360453238" cy="14.135347924296179"></circle><circle class="pearl" r="2.190433937142651" cx="26.443692377141037" cy="14.385056647325822"></circle><circle class="pearl" r="2.190433937142651" cx="11.909980223386787" cy="26.052587817273515"></circle><circle class="pearl" r="2.190433937142651" cx="7.243098242673799" cy="7.06434673823286"></circle><circle class="pearl" r="2.190433937142651" cx="25.043512145792217" cy="22.120932926203288"></circle><circle class="pearl" r="2.190433937142651" cx="5.880769976596829" cy="21.63526087584527"></circle><circle class="pearl" r="2.190433937142651" cx="23.87782169640469" cy="7.052571277957272"></circle><circle class="pearl" r="2.190433937142651" cx="19.48877384773894" cy="25.987545118055657"></circle></g><g class="bobaCup bright" cupRadius="14.010981865748903" width="28.021963731497806" height="28.021963731497806" pearlRadius="2.7380424214283132" pearlCount="9" transform="translate(10.470643121945255,250.62016111131467)"><circle class="pool" r="14.010981865748903" cx="14.010981865748903" cy="14.010981865748903" style="stroke-width: 1; fill: rgb(65, 182, 196);"></circle><circle class="pearl" r="2.1904339371426507" cx="18.096397665371576" cy="12.337049645455322"></circle><circle class="pearl" r="2.1904339371426507" cx="11.93895204422491" cy="15.601553032687477"></circle><circle class="pearl" r="2.1904339371426507" cx="14.011855460677298" cy="4.650723255805723"></circle><circle class="pearl" r="2.1904339371426507" cx="17.056005139233356" cy="23.036348944947893"></circle><circle class="pearl" r="2.1904339371426507" cx="4.651422331598977" cy="14.150945257202428"></circle><circle class="pearl" r="2.1904339371426507" cx="20.956821037260564" cy="6.493593858559573"></circle><circle class="pearl" r="2.1904339371426507" cx="8.81517762970771" cy="22.372223561165317"></circle><circle class="pearl" r="2.1904339371426507" cx="6.750672661049438" cy="6.67857014997004"></circle><circle class="pearl" r="2.1904339371426507" cx="22.771739415757732" cy="18.06558371650146"></circle></g><g class="bobaCup bright" cupRadius="13.970366682691932" width="27.940733365383863" height="27.940733365383863" pearlRadius="2.7380424214283137" pearlCount="9" transform="translate(130.0014432401481,116.9647119817027)"><circle class="pool" r="13.970366682691932" cx="13.970366682691932" cy="13.970366682691932" style="stroke-width: 1; fill: rgb(127, 205, 187);"></circle><circle class="pearl" r="2.190433937142651" cx="15.878207885408932" cy="12.084289827653588"></circle><circle class="pearl" r="2.190433937142651" cx="10.489455290574195" cy="17.440122441554497"></circle><circle class="pearl" r="2.190433937142651" cx="14.039291861512254" cy="4.650893256648832"></circle><circle class="pearl" r="2.190433937142651" cx="21.179680897176066" cy="21.286135580291564"></circle><circle class="pearl" r="2.190433937142651" cx="4.651378719992065" cy="13.835035676089918"></circle><circle class="pearl" r="2.190433937142651" cx="21.105327803514793" cy="6.610116801093509"></circle><circle class="pearl" r="2.190433937142651" cx="14.069267569589735" cy="23.289660056238386"></circle><circle class="pearl" r="2.190433937142651" cx="6.833004619716528" cy="6.611543373992415"></circle><circle class="pearl" r="2.190433937142651" cx="23.28988705659939" cy="14.029009127014222"></circle></g><g class="bobaCup bright" cupRadius="13.719742711018167" width="27.439485422036334" height="27.439485422036334" pearlRadius="2.7380424214283137" pearlCount="9" transform="translate(93.82556670766569,125.54195831627823)"><circle class="pool" r="13.719742711018167" cx="13.719742711018167" cy="13.719742711018167" style="stroke-width: 1; fill: rgb(29, 145, 192);"></circle><circle class="pearl" r="2.190433937142651" cx="15.465061694928869" cy="12.012236293428447"></circle><circle class="pearl" r="2.190433937142651" cx="10.083742039030207" cy="17.34236382596337"></circle><circle class="pearl" r="2.190433937142651" cx="13.779766979363508" cy="4.650854533148262"></circle><circle class="pearl" r="2.190433937142651" cx="20.704620666961127" cy="20.877610422822578"></circle><circle class="pearl" r="2.190433937142651" cx="4.650883631580381" cy="13.653400037676573"></circle><circle class="pearl" r="2.190433937142651" cx="20.6341725454007" cy="6.52048703150942"></circle><circle class="pearl" r="2.190433937142651" cx="13.74014220687563" cy="22.788747027741298"></circle><circle class="pearl" r="2.190433937142651" cx="6.8011658335754515" cy="6.522907792551056"></circle><circle class="pearl" r="2.190433937142651" cx="22.78795314622265" cy="13.86873662183836"></circle></g><g class="bobaCup bright" cupRadius="13.50659073585444" width="27.01318147170888" height="27.01318147170888" pearlRadius="2.7380424214283132" pearlCount="9" transform="translate(190.06876208537773,262.9640107252265)"><circle class="pool" r="13.50659073585444" cx="13.50659073585444" cy="13.50659073585444" style="stroke-width: 1; fill: rgb(127, 205, 187);"></circle><circle class="pearl" r="2.1904339371426507" cx="15.080280934574802" cy="11.984905741084894"></circle><circle class="pearl" r="2.1904339371426507" cx="9.658685809347629" cy="17.336779115239164"></circle><circle class="pearl" r="2.1904339371426507" cx="13.560329125800186" cy="4.650830132897979"></circle><circle class="pearl" r="2.1904339371426507" cx="20.29963209221823" cy="20.52988063202329"></circle><circle class="pearl" r="2.1904339371426507" cx="4.650753319431238" cy="13.478080229711416"></circle><circle class="pearl" r="2.1904339371426507" cx="20.238845546919766" cy="6.44814070305661"></circle><circle class="pearl" r="2.1904339371426507" cx="13.47494224856545" cy="22.362421163902102"></circle><circle class="pearl" r="2.1904339371426507" cx="6.78272071568751" cy="6.443323813423631"></circle><circle class="pearl" r="2.1904339371426507" cx="22.360209971396277" cy="13.75302108671549"></circle></g><g class="bobaCup bright" cupRadius="13.420807279272495" width="26.84161455854499" height="26.84161455854499" pearlRadius="2.7380424214283137" pearlCount="9" transform="translate(112.40477964106991,80.1886084772937)"><circle class="pool" r="13.420807279272495" cx="13.420807279272495" cy="13.420807279272495" style="stroke-width: 1; fill: rgb(29, 145, 192);"></circle><circle class="pearl" r="2.190433937142651" cx="14.911995124124616" cy="11.987229435747983"></circle><circle class="pearl" r="2.190433937142651" cx="9.454959748141532" cy="17.36516697395251"></circle><circle class="pearl" r="2.190433937142651" cx="13.472595258714325" cy="4.650823148223562"></circle><circle class="pearl" r="2.190433937142651" cx="20.135656257885724" cy="20.390276442473176"></circle><circle class="pearl" r="2.190433937142651" cx="4.650739278368581" cy="13.400051503677235"></circle><circle class="pearl" r="2.190433937142651" cx="20.081898225514625" cy="6.420438909488311"></circle><circle class="pearl" r="2.190433937142651" cx="13.371351169837022" cy="22.19080020598214"></circle><circle class="pearl" r="2.190433937142651" cx="6.778864231045231" cy="6.409512647649782"></circle><circle class="pearl" r="2.190433937142651" cx="22.187664616667046" cy="13.71508569029661"></circle></g><g class="bobaCup bright" cupRadius="13.26809571668117" width="26.53619143336234" height="26.53619143336234" pearlRadius="2.7380424214283137" pearlCount="8" transform="translate(198.40555989853198,239.20359010138586)"><circle class="pool" r="13.26809571668117" cx="13.26809571668117" cy="13.26809571668117" style="stroke-width: 1; fill: rgb(29, 145, 192);"></circle><circle class="pearl" r="2.190433937142651" cx="14.293818150778357" cy="12.568089545070862"></circle><circle class="pearl" r="2.190433937142651" cx="8.461989510242638" cy="20.984413649173884"></circle><circle class="pearl" r="2.190433937142651" cx="13.905375346247583" cy="4.666036647909825"></circle><circle class="pearl" r="2.190433937142651" cx="21.642310829155672" cy="15.796602224280841"></circle><circle class="pearl" r="2.190433937142651" cx="4.686447739778643" cy="14.241089153229444"></circle><circle class="pearl" r="2.190433937142651" cx="20.74049976814877" cy="7.876236213782841"></circle><circle class="pearl" r="2.190433937142651" cx="16.34032473144166" cy="21.52488087772103"></circle><circle class="pearl" r="2.190433937142651" cx="6.536092343222817" cy="6.48542511285242"></circle></g><g class="bobaCup bright" cupRadius="13.08961039838791" width="26.17922079677582" height="26.17922079677582" pearlRadius="2.7380424214283137" pearlCount="8" transform="translate(110.66365689175115,120.55595943510325)"><circle class="pool" r="13.08961039838791" cx="13.08961039838791" cy="13.08961039838791" style="stroke-width: 1; fill: rgb(29, 145, 192);"></circle><circle class="pearl" r="2.190433937142651" cx="13.916736661566775" cy="12.936461599777994"></circle><circle class="pearl" r="2.190433937142651" cx="7.802220136943059" cy="20.41308462120216"></circle><circle class="pearl" r="2.190433937142651" cx="13.98597970966485" cy="4.681450732952104"></circle><circle class="pearl" r="2.190433937142651" cx="21.182144619742463" cy="16.08081248893607"></circle><circle class="pearl" r="2.190433937142651" cx="4.671436432673827" cy="13.82569905255272"></circle><circle class="pearl" r="2.190433937142651" cx="20.56981757306067" cy="8.172453909802357"></circle><circle class="pearl" r="2.190433937142651" cx="15.546448291618098" cy="21.29586379529037"></circle><circle class="pearl" r="2.190433937142651" cx="6.5945247897247565" cy="6.375837891655925"></circle></g><g class="bobaCup bright" cupRadius="13.00324055871949" width="26.00648111743898" height="26.00648111743898" pearlRadius="2.7380424214283132" pearlCount="8" transform="translate(56.44130603582007,178.80001125552513)"><circle class="pool" r="13.00324055871949" cx="13.00324055871949" cy="13.00324055871949" style="stroke-width: 1; fill: rgb(127, 205, 187);"></circle><circle class="pearl" r="2.1904339371426507" cx="13.771342419288255" cy="12.949405080459755"></circle><circle class="pearl" r="2.1904339371426507" cx="7.405707977607066" cy="20.08929261262325"></circle><circle class="pearl" r="2.1904339371426507" cx="14.062784084316837" cy="4.693962531685222"></circle><circle class="pearl" r="2.1904339371426507" cx="20.933920756123566" cy="16.288442662211466"></circle><circle class="pearl" r="2.1904339371426507" cx="4.663688014982154" cy="13.583757903253163"></circle><circle class="pearl" r="2.1904339371426507" cx="20.507059158685827" cy="8.382485429277793"></circle><circle class="pearl" r="2.1904339371426507" cx="15.083268238627152" cy="21.18831687200576"></circle><circle class="pearl" r="2.1904339371426507" cx="6.6329439809924535" cy="6.318021544154067"></circle></g><g class="bobaCup bright" cupRadius="12.969261547283622" width="25.938523094567245" height="25.938523094567245" pearlRadius="2.738042421428314" pearlCount="8" transform="translate(91.25710415899026,152.96167826021113)"><circle class="pool" r="12.969261547283622" cx="12.969261547283622" cy="12.969261547283622" style="stroke-width: 1; fill: rgb(127, 205, 187);"></circle><circle class="pearl" r="2.1904339371426516" cx="13.733357384277975" cy="12.95394882324674"></circle><circle class="pearl" r="2.1904339371426516" cx="7.148607262118722" cy="19.908263456714778"></circle><circle class="pearl" r="2.1904339371426516" cx="14.147914246410028" cy="4.704392536367909"></circle><circle class="pearl" r="2.1904339371426516" cx="20.80588962725496" cy="16.471803820960474"></circle><circle class="pearl" r="2.1904339371426516" cx="4.659116768870888" cy="13.435786559895842"></circle><circle class="pearl" r="2.1904339371426516" cx="20.516482587441143" cy="8.56336768804909"></circle><circle class="pearl" r="2.1904339371426516" cx="14.793509305428568" cy="21.158860168212755"></circle><circle class="pearl" r="2.1904339371426516" cx="6.660616671248871" cy="6.288491277205464"></circle></g><g class="bobaCup bright" cupRadius="12.772330067403875" width="25.54466013480775" height="25.54466013480775" pearlRadius="2.7380424214283137" pearlCount="8" transform="translate(207.24664010409575,62.81186834704884)"><circle class="pool" r="12.772330067403875" cx="12.772330067403875" cy="12.772330067403875" style="stroke-width: 1; fill: rgb(65, 182, 196);"></circle><circle class="pearl" r="2.190433937142651" cx="13.37628469287382" cy="12.856496859728553"></circle><circle class="pearl" r="2.190433937142651" cx="6.7003140833902055" cy="19.358289500570265"></circle><circle class="pearl" r="2.190433937142651" cx="14.10247990643456" cy="4.720175009679538"></circle><circle class="pearl" r="2.190433937142651" cx="20.32894400281037" cy="16.529101915105155"></circle><circle class="pearl" r="2.190433937142651" cx="4.654906027319441" cy="13.099179691288803"></circle><circle class="pearl" r="2.190433937142651" cx="20.209429076644682" cy="8.647167173920835"></circle><circle class="pearl" r="2.190433937142651" cx="14.189404421571114" cy="20.815082155918752"></circle><circle class="pearl" r="2.190433937142651" cx="6.696280103743529" cy="6.188551429411753"></circle></g><g class="bobaCup bright" cupRadius="12.599233664959872" width="25.198467329919744" height="25.198467329919744" pearlRadius="2.738042421428314" pearlCount="7" transform="translate(12.595175826281594,151.57437639673714)"><circle class="pool" r="12.599233664959872" cx="12.599233664959872" cy="12.599233664959872" style="stroke-width: 1; fill: rgb(65, 182, 196);"></circle><circle class="pearl" r="2.1904339371426516" cx="12.98626580815128" cy="12.65482039410788"></circle><circle class="pearl" r="2.1904339371426516" cx="5.033159429932303" cy="15.67990707797652"></circle><circle class="pearl" r="2.1904339371426516" cx="13.023626117970071" cy="4.657872872603916"></circle><circle class="pearl" r="2.1904339371426516" cx="19.12940353153181" cy="18.406842341449806"></circle><circle class="pearl" r="2.1904339371426516" cx="5.638407941202427" cy="7.709180508609077"></circle><circle class="pearl" r="2.1904339371426516" cx="19.924586812516306" cy="8.685886813808228"></circle><circle class="pearl" r="2.1904339371426516" cx="11.412896565098453" cy="20.49176731926217"></circle></g><g class="bobaCup bright" cupRadius="12.400251768963884" width="24.800503537927767" height="24.800503537927767" pearlRadius="2.7380424214283137" pearlCount="7" transform="translate(130.58395511181664,28.095455668744748)"><circle class="pool" r="12.400251768963884" cx="12.400251768963884" cy="12.400251768963884" style="stroke-width: 1; fill: rgb(29, 145, 192);"></circle><circle class="pearl" r="2.190433937142651" cx="12.450605545103482" cy="12.423547418960192"></circle><circle class="pearl" r="2.190433937142651" cx="4.953587309776083" cy="15.124119435674524"></circle><circle class="pearl" r="2.190433937142651" cx="13.324031167747899" cy="4.68518041909909"></circle><circle class="pearl" r="2.190433937142651" cx="18.874931195320176" cy="17.876715929298246"></circle><circle class="pearl" r="2.190433937142651" cx="5.800182552142749" cy="7.186240521910683"></circle><circle class="pearl" r="2.190433937142651" cx="19.74088544270496" cy="9.242150507911223"></circle><circle class="pearl" r="2.190433937142651" cx="11.064534139494969" cy="20.077630679327967"></circle></g><g class="bobaCup bright" cupRadius="12.286213970533314" width="24.57242794106663" height="24.57242794106663" pearlRadius="2.7380424214283137" pearlCount="7" transform="translate(140.77284411526995,169.05712807086093)"><circle class="pool" r="12.286213970533314" cx="12.286213970533314" cy="12.286213970533314" style="stroke-width: 1; fill: rgb(65, 182, 196);"></circle><circle class="pearl" r="2.190433937142651" cx="12.322769958084297" cy="12.300373059927788"></circle><circle class="pearl" r="2.190433937142651" cx="5.011182672030932" cy="15.240436827684526"></circle><circle class="pearl" r="2.190433937142651" cx="13.122142509302817" cy="4.679193638081486"></circle><circle class="pearl" r="2.190433937142651" cx="18.76344007844615" cy="17.493881134857"></circle><circle class="pearl" r="2.190433937142651" cx="5.705376274454309" cy="7.305943603816143"></circle><circle class="pearl" r="2.190433937142651" cx="19.494885423880827" cy="9.075947391538849"></circle><circle class="pearl" r="2.190433937142651" cx="11.223782307393714" cy="19.875682435350303"></circle></g><g class="bobaCup bright" cupRadius="12.236646574827645" width="24.47329314965529" height="24.47329314965529" pearlRadius="2.7380424214283137" pearlCount="7" transform="translate(168.58216758287915,273.6334298282795)"><circle class="pool" r="12.236646574827645" cx="12.236646574827645" cy="12.236646574827645" style="stroke-width: 1; fill: rgb(29, 145, 192);"></circle><circle class="pearl" r="2.190433937142651" cx="12.264733948059282" cy="12.247212426421422"></circle><circle class="pearl" r="2.190433937142651" cx="5.036083626156417" cy="15.283371922204141"></circle><circle class="pearl" r="2.190433937142651" cx="13.037371126109708" cy="4.676949679987118"></circle><circle class="pearl" r="2.190433937142651" cx="18.743471041252985" cy="17.261051895969757"></circle><circle class="pearl" r="2.190433937142651" cx="5.667633786954131" cy="7.352688843792598"></circle><circle class="pearl" r="2.190433937142651" cx="19.38900219204264" cy="9.008202807716572"></circle><circle class="pearl" r="2.190433937142651" cx="11.277710818806538" cy="19.78493812668311"></circle></g><g class="bobaCup bright" cupRadius="12.234102330062292" width="24.468204660124584" height="24.468204660124584" pearlRadius="2.7380424214283132" pearlCount="7" transform="translate(154.41277836923658,250.1695037965747)"><circle class="pool" r="12.234102330062292" cx="12.234102330062292" cy="12.234102330062292" style="stroke-width: 1; fill: rgb(29, 145, 192);"></circle><circle class="pearl" r="2.1904339371426507" cx="12.261660185446722" cy="12.244447122505605"></circle><circle class="pearl" r="2.1904339371426507" cx="5.037606703172375" cy="15.286423612831348"></circle><circle class="pearl" r="2.1904339371426507" cx="13.032408499154869" cy="4.676796762680103"></circle><circle class="pearl" r="2.1904339371426507" cx="18.742791097618518" cy="17.248160937929327"></circle><circle class="pearl" r="2.1904339371426507" cx="5.665377327967614" cy="7.3558607183904705"></circle><circle class="pearl" r="2.1904339371426507" cx="19.38342957059469" cy="9.004231009243718"></circle><circle class="pearl" r="2.1904339371426507" cx="11.281346935502835" cy="19.780326136736274"></circle></g><g class="bobaCup bright" cupRadius="11.971302291407262" width="23.942604582814525" height="23.942604582814525" pearlRadius="2.738042421428314" pearlCount="7" transform="translate(232.06609137984478,232.6231346074114)"><circle class="pool" r="11.971302291407262" cx="11.971302291407262" cy="11.971302291407262" style="stroke-width: 1; fill: rgb(65, 182, 196);"></circle><circle class="pearl" r="2.1904339371426516" cx="11.975953630899642" cy="11.97192239595997"></circle><circle class="pearl" r="2.1904339371426516" cx="5.075606468014193" cy="15.132359967042428"></circle><circle class="pearl" r="2.1904339371426516" cx="12.760500047791187" cy="4.676765143847094"></circle><circle class="pearl" r="2.1904339371426516" cx="18.331139687002672" cy="16.67019932090335"></circle><circle class="pearl" r="2.1904339371426516" cx="5.611509010967952" cy="7.27230189163474"></circle><circle class="pearl" r="2.1904339371426516" cx="18.849221967012998" cy="8.746016049811598"></circle><circle class="pearl" r="2.1904339371426516" cx="11.119403342296339" cy="19.26153156809121"></circle></g><g class="bobaCup bright" cupRadius="11.962072138817572" width="23.924144277635143" height="23.924144277635143" pearlRadius="2.7380424214283137" pearlCount="7" transform="translate(210.2884503037886,223.9529270693955)"><circle class="pool" r="11.962072138817572" cx="11.962072138817572" cy="11.962072138817572" style="stroke-width: 1; fill: rgb(65, 182, 196);"></circle><circle class="pearl" r="2.190433937142651" cx="11.966839862994723" cy="11.96282479838382"></circle><circle class="pearl" r="2.190433937142651" cx="5.065077081734005" cy="15.083189286480055"></circle><circle class="pearl" r="2.190433937142651" cx="12.789898065496663" cy="4.679402132880984"></circle><circle class="pearl" r="2.190433937142651" cx="18.297218657071756" cy="16.69512989887765"></circle><circle class="pearl" r="2.190433937142651" cx="5.626913495198805" cy="7.229042522961997"></circle><circle class="pearl" r="2.190433937142651" cx="18.84104422480809" cy="8.775020867241945"></circle><circle class="pearl" r="2.190433937142651" cx="11.069838523555457" cy="19.24009943283149"></circle></g><g class="bobaCup bright" cupRadius="11.744745095307156" width="23.489490190614312" height="23.489490190614312" pearlRadius="2.7380424214283137" pearlCount="6" transform="translate(308.25525490469283,42.130326682063156)"><circle class="pool" r="11.744745095307156" cx="11.744745095307156" cy="11.744745095307156" style="stroke-width: 1; fill: rgb(127, 205, 187);"></circle><circle class="pearl" r="2.190433937142651" cx="12.18565128585028" cy="12.017000777257456"></circle><circle class="pearl" r="2.190433937142651" cx="6.735495151563573" cy="17.7169429506398"></circle><circle class="pearl" r="2.190433937142651" cx="9.752358594527589" cy="4.820951773056223"></circle><circle class="pearl" r="2.190433937142651" cx="17.302196731445907" cy="17.440700979655357"></circle><circle class="pearl" r="2.190433937142651" cx="4.738524581633817" cy="10.311322637031141"></circle><circle class="pearl" r="2.190433937142651" cx="17.381282986671497" cy="6.09165941877157"></circle></g><g class="bobaCup bright" cupRadius="11.6533152461669" width="23.3066304923338" height="23.3066304923338" pearlRadius="2.7380424214283137" pearlCount="6" transform="translate(180.868687631649,248.8838812731278)"><circle class="pool" r="11.6533152461669" cx="11.6533152461669" cy="11.6533152461669" style="stroke-width: 1; fill: rgb(65, 182, 196);"></circle><circle class="pearl" r="2.190433937142651" cx="12.052933321075452" cy="11.959935150135017"></circle><circle class="pearl" r="2.190433937142651" cx="6.397561461756235" cy="17.403400081597326"></circle><circle class="pearl" r="2.190433937142651" cx="9.751036442187415" cy="4.807034883433149"></circle><circle class="pearl" r="2.190433937142651" cx="17.12844531239538" cy="17.289608445327755"></circle><circle class="pearl" r="2.190433937142651" cx="4.762946075096501" cy="10.039951539656967"></circle><circle class="pearl" r="2.190433937142651" cx="17.224812823141594" cy="6.068894558978371"></circle></g><g class="bobaCup bright" cupRadius="11.521558445898542" width="23.043116891797084" height="23.043116891797084" pearlRadius="2.738042421428314" pearlCount="6" transform="translate(93.25171283575025,149.09536446961593)"><circle class="pool" r="11.521558445898542" cx="11.521558445898542" cy="11.521558445898542" style="stroke-width: 1; fill: rgb(29, 145, 192);"></circle><circle class="pearl" r="2.1904339371426516" cx="11.900414231922964" cy="11.860986477796025"></circle><circle class="pearl" r="2.1904339371426516" cx="6.150900851540751" cy="17.064085240083838"></circle><circle class="pearl" r="2.1904339371426516" cx="9.688410298472201" cy="4.797490384435186"></circle><circle class="pearl" r="2.1904339371426516" cx="16.875255679909746" cy="17.073003366735545"></circle><circle class="pearl" r="2.1904339371426516" cx="4.781496268973173" cy="9.790571193436813"></circle><circle class="pearl" r="2.1904339371426516" cx="16.98802154499489" cy="6.03008811447118"></circle></g><g class="bobaCup bright" cupRadius="11.438802228789378" width="22.877604457578755" height="22.877604457578755" pearlRadius="2.738042421428314" pearlCount="6" transform="translate(261.490388357776,206.46767439018674)"><circle class="pool" r="11.438802228789378" cx="11.438802228789378" cy="11.438802228789378" style="stroke-width: 1; fill: rgb(65, 182, 196);"></circle><circle class="pearl" r="2.1904339371426516" cx="11.833119861829845" cy="11.785164423766298"></circle><circle class="pearl" r="2.1904339371426516" cx="6.1479205051006485" cy="16.92971432275348"></circle><circle class="pearl" r="2.1904339371426516" cx="9.60004287590205" cy="4.799478492377268"></circle><circle class="pearl" r="2.1904339371426516" cx="16.71399252910909" cy="16.93788509318232"></circle><circle class="pearl" r="2.1904339371426516" cx="4.778215639346534" cy="9.735726590346232"></circle><circle class="pearl" r="2.1904339371426516" cx="16.830078163989132" cy="6.000901159672852"></circle></g><g class="bobaCup bright" cupRadius="11.37008665074099" width="22.74017330148198" height="22.74017330148198" pearlRadius="2.7380424214283137" pearlCount="6" transform="translate(225.0510807363669,233.36798988138978)"><circle class="pool" r="11.37008665074099" cx="11.37008665074099" cy="11.37008665074099" style="stroke-width: 1; fill: rgb(29, 145, 192);"></circle><circle class="pearl" r="2.190433937142651" cx="11.77775364596865" cy="11.721891300742232"></circle><circle class="pearl" r="2.190433937142651" cx="6.145450791852616" cy="16.817979693094166"></circle><circle class="pearl" r="2.190433937142651" cx="9.526300422348003" cy="4.801214396882825"></circle><circle class="pearl" r="2.190433937142651" cx="16.580043450547244" cy="16.82556056004086"></circle><circle class="pearl" r="2.190433937142651" cx="4.77544532156654" cy="9.690608633987265"></circle><circle class="pearl" r="2.190433937142651" cx="16.698790201520655" cy="5.97671763992744"></circle></g><g class="bobaCup bright" cupRadius="11.368436681523548" width="22.736873363047096" height="22.736873363047096" pearlRadius="2.7380424214283137" pearlCount="6" transform="translate(170.76251532636104,233.2204156188035)"><circle class="pool" r="11.368436681523548" cx="11.368436681523548" cy="11.368436681523548" style="stroke-width: 1; fill: rgb(29, 145, 192);"></circle><circle class="pearl" r="2.190433937142651" cx="11.776430236694027" cy="11.72036829044124"></circle><circle class="pearl" r="2.190433937142651" cx="6.145391588562587" cy="16.815294972242445"></circle><circle class="pearl" r="2.190433937142651" cx="9.52452539729786" cy="4.801257086584558"></circle><circle class="pearl" r="2.190433937142651" cx="16.576826538729428" cy="16.822862025693244"></circle><circle class="pearl" r="2.190433937142651" cx="4.775378251684362" cy="9.689530311350715"></circle><circle class="pearl" r="2.190433937142651" cx="16.69563608164172" cy="5.97613749982437"></circle></g><g class="bobaCup bright" cupRadius="11.09445432929073" width="22.18890865858146" height="22.18890865858146" pearlRadius="2.738042421428314" pearlCount="6" transform="translate(115.50529003547851,121.65913460642838)"><circle class="pool" r="11.09445432929073" cx="11.09445432929073" cy="11.09445432929073" style="stroke-width: 1; fill: rgb(127, 205, 187);"></circle><circle class="pearl" r="2.1904339371426516" cx="11.561154165770095" cy="11.464684490152148"></circle><circle class="pearl" r="2.1904339371426516" cx="6.135701566837254" cy="16.368331239041485"></circle><circle class="pearl" r="2.1904339371426516" cx="9.226507902695046" cy="4.809104541825105"></circle><circle class="pearl" r="2.1904339371426516" cx="16.04215089873512" cy="16.373847692251996"></circle><circle class="pearl" r="2.1904339371426516" cx="4.763825211081915" cy="9.514322214374575"></circle><circle class="pearl" r="2.1904339371426516" cx="16.170595384339773" cy="5.88010235014224"></circle></g><g class="bobaCup bright" cupRadius="11.076189143351646" width="22.152378286703293" height="22.152378286703293" pearlRadius="2.738042421428314" pearlCount="6" transform="translate(218.3242715709377,247.79054849429042)"><circle class="pool" r="11.076189143351646" cx="11.076189143351646" cy="11.076189143351646" style="stroke-width: 1; fill: rgb(127, 205, 187);"></circle><circle class="pearl" r="2.1904339371426516" cx="11.547159019825184" cy="11.447416987529738"></circle><circle class="pearl" r="2.1904339371426516" cx="6.135071043087631" cy="16.33845324749436"></circle><circle class="pearl" r="2.1904339371426516" cx="9.206378563499657" cy="4.809688625256436"></circle><circle class="pearl" r="2.1904339371426516" cx="16.006462953425494" cy="16.343851171313037"></circle><circle class="pearl" r="2.1904339371426516" cx="4.763021617821666" cy="9.502955063045077"></circle><circle class="pearl" r="2.1904339371426516" cx="16.135488634762762" cy="5.873717225397513"></circle></g><g class="bobaCup bright" cupRadius="10.93970131444884" width="21.87940262889768" height="21.87940262889768" pearlRadius="2.7380424214283132" pearlCount="5" transform="translate(166.14274522670775,235.02934915996968)"><circle class="pool" r="10.93970131444884" cx="10.93970131444884" cy="10.93970131444884" style="stroke-width: 1;"></circle><circle class="pearl" r="2.1904339371426507" cx="16.883845994000925" cy="8.214662074589082"></circle><circle class="pearl" r="2.1904339371426507" cx="8.144350598992968" cy="16.865512453379903"></circle><circle class="pearl" r="2.1904339371426507" cx="10.10925580145006" cy="4.682288813240345"></circle><circle class="pearl" r="2.1904339371426507" cx="15.964887989634565" cy="16.006208335742656"></circle><circle class="pearl" r="2.1904339371426507" cx="4.687348826465013" cy="10.045271457822672"></circle></g><g class="bobaCup bright" cupRadius="10.77377399813969" width="21.54754799627938" height="21.54754799627938" pearlRadius="2.7380424214283137" pearlCount="5" transform="translate(295.73228996572794,220.17855260536768)"><circle class="pool" r="10.77377399813969" cx="10.77377399813969" cy="10.77377399813969" style="stroke-width: 1; fill: rgb(127, 205, 187);"></circle><circle class="pearl" r="2.190433937142651" cx="16.543868669307912" cy="8.038676108947469"></circle><circle class="pearl" r="2.190433937142651" cx="7.909238555174856" cy="16.50903376873576"></circle><circle class="pearl" r="2.190433937142651" cx="9.961347710400586" cy="4.681398526150431"></circle><circle class="pearl" r="2.190433937142651" cx="15.65671931314984" cy="15.726750640639718"></circle><circle class="pearl" r="2.190433937142651" cx="4.691692809888345" cy="9.835096463931166"></circle></g><g class="bobaCup bright" cupRadius="10.711756973704809" width="21.423513947409617" height="21.423513947409617" pearlRadius="2.7380424214283137" pearlCount="5" transform="translate(204.63532382315117,208.748740143552)"><circle class="pool" r="10.711756973704809" cx="10.711756973704809" cy="10.711756973704809" style="stroke-width: 1; fill: rgb(127, 205, 187);"></circle><circle class="pearl" r="2.190433937142651" cx="16.4169890175837" cy="7.973887755000376"></circle><circle class="pearl" r="2.190433937142651" cx="7.819190698890399" cy="16.374849615582445"></circle><circle class="pearl" r="2.190433937142651" cx="9.908718439109329" cy="4.680866720424552"></circle><circle class="pearl" r="2.190433937142651" cx="15.541359310101637" cy="15.622240715803478"></circle><circle class="pearl" r="2.190433937142651" cx="4.693633913095301" cy="9.753917570907499"></circle></g><g class="bobaCup bright" cupRadius="10.631447981403358" width="21.262895962806716" height="21.262895962806716" pearlRadius="2.7380424214283132" pearlCount="5" transform="translate(76.70080425109677,104.09474246076577)"><circle class="pool" r="10.631447981403358" cx="10.631447981403358" cy="10.631447981403358" style="stroke-width: 1; fill: rgb(65, 182, 196);"></circle><circle class="pearl" r="2.1904339371426507" cx="16.252940826277264" cy="7.891144508839795"></circle><circle class="pearl" r="2.1904339371426507" cx="7.700390365365891" cy="16.20014682224277"></circle><circle class="pearl" r="2.1904339371426507" cx="9.843329217603344" cy="4.679975447047222"></circle><circle class="pearl" r="2.1904339371426507" cx="15.391770669081659" cy="15.486881394212677"></circle><circle class="pearl" r="2.1904339371426507" cx="4.6964867102621755" cy="9.64606995554881"></circle></g><g class="bobaCup bright" cupRadius="10.558510140508446" width="21.11702028101689" height="21.11702028101689" pearlRadius="2.738042421428314" pearlCount="5" transform="translate(175.74312327067162,227.01555071281476)"><circle class="pool" r="10.558510140508446" cx="10.558510140508446" cy="10.558510140508446" style="stroke-width: 1; fill: rgb(65, 182, 196);"></circle><circle class="pearl" r="2.1904339371426516" cx="16.10429928058969" cy="7.817475317099642"></circle><circle class="pearl" r="2.1904339371426516" cx="7.589940935528932" cy="16.04039433858066"></circle><circle class="pearl" r="2.1904339371426516" cx="9.787234195106894" cy="4.678930913629134"></circle><circle class="pearl" r="2.1904339371426516" cx="15.255656021535529" cy="15.3639466482981"></circle><circle class="pearl" r="2.1904339371426516" cx="4.699490550579828" cy="9.544881867316734"></circle></g><g class="bobaCup bright" cupRadius="10.549705028732587" width="21.099410057465175" height="21.099410057465175" pearlRadius="2.7380424214283137" pearlCount="5" transform="translate(147.20349317144863,167.19363616983335)"><circle class="pool" r="10.549705028732587" cx="10.549705028732587" cy="10.549705028732587" style="stroke-width: 1; fill: rgb(127, 205, 187);"></circle><circle class="pearl" r="2.190433937142651" cx="16.086383818169878" cy="7.808698586429961"></circle><circle class="pearl" r="2.190433937142651" cx="7.576418749324384" cy="16.021029265667114"></circle><circle class="pearl" r="2.190433937142651" cx="9.78070980140345" cy="4.6787875804125125"></circle><circle class="pearl" r="2.190433937142651" cx="15.239204186437526" cy="15.34910739949352"></circle><circle class="pearl" r="2.190433937142651" cx="4.699884735230405" cy="9.53242338911119"></circle></g><g class="bobaCup bright" cupRadius="10.502770568530975" width="21.00554113706195" height="21.00554113706195" pearlRadius="2.7380424214283137" pearlCount="5" transform="translate(162.90910273868676,220.75360217423125)"><circle class="pool" r="10.502770568530975" cx="10.502770568530975" cy="10.502770568530975" style="stroke-width: 1; fill: rgb(127, 205, 187);"></circle><circle class="pearl" r="2.190433937142651" cx="15.991014302229733" cy="7.762416840779559"></circle><circle class="pearl" r="2.190433937142651" cx="7.503569602569894" cy="15.917482411578927"></circle><circle class="pearl" r="2.190433937142651" cx="9.74695787532292" cy="4.67795386886991"></circle><circle class="pearl" r="2.190433937142651" cx="15.151424756862678" cy="15.27001972537845"></circle><circle class="pearl" r="2.190433937142651" cx="4.702118648166929" cy="9.465009945158881"></circle></g><g class="bobaCup bright" cupRadius="10.49990101942592" width="20.99980203885184" height="20.99980203885184" pearlRadius="2.738042421428314" pearlCount="5" transform="translate(278.6653957783758,21.723157961271625)"><circle class="pool" r="10.49990101942592" cx="10.49990101942592" cy="10.49990101942592" style="stroke-width: 1; fill: rgb(65, 182, 196);"></circle><circle class="pearl" r="2.1904339371426516" cx="15.985191007879646" cy="7.759616822113567"></circle><circle class="pearl" r="2.1904339371426516" cx="7.4990711081587484" cy="15.911132931948725"></circle><circle class="pearl" r="2.1904339371426516" cx="9.744953922585708" cy="4.677898895983137"></circle><circle class="pearl" r="2.1904339371426516" cx="15.146052954824022" cy="15.265185098144794"></circle><circle class="pearl" r="2.1904339371426516" cx="4.702263004042365" cy="9.46082992774445"></circle></g><g class="bobaCup bright" cupRadius="10.42944830536336" width="20.85889661072672" height="20.85889661072672" pearlRadius="2.7380424214283137" pearlCount="5" transform="translate(43.205284652745235,9.57055169463664)"><circle class="pool" r="10.42944830536336" cx="10.42944830536336" cy="10.42944830536336" style="stroke-width: 1; fill: rgb(65, 182, 196);"></circle><circle class="pearl" r="2.190433937142651" cx="15.84254695020756" cy="7.692135525570964"></circle><circle class="pearl" r="2.190433937142651" cx="7.386809007609186" cy="15.754482594796041"></circle><circle class="pearl" r="2.190433937142651" cx="9.698217840526393" cy="4.676388858313958"></circle><circle class="pearl" r="2.190433937142651" cx="15.013952941126735" cy="15.14652680392713"></circle><circle class="pearl" r="2.190433937142651" cx="4.706133848896442" cy="9.355793768904816"></circle></g><g class="bobaCup bright" cupRadius="10.291796679531473" width="20.583593359062945" height="20.583593359062945" pearlRadius="2.7380424214283132" pearlCount="5" transform="translate(291.67866276618474,169.567138947138)"><circle class="pool" r="10.291796679531473" cx="10.291796679531473" cy="10.291796679531473" style="stroke-width: 1; fill: rgb(65, 182, 196);"></circle><circle class="pearl" r="2.1904339371426507" cx="15.566426419338509" cy="7.569950367572862"></circle><circle class="pearl" r="2.1904339371426507" cx="7.154685672125919" cy="15.44309433545303"></circle><circle class="pearl" r="2.1904339371426507" cx="9.62472691602523" cy="4.67236427036119"></circle><circle class="pearl" r="2.1904339371426507" cx="14.754252134412734" cy="14.915100095628578"></circle><circle class="pearl" r="2.1904339371426507" cx="4.716141936220466" cy="9.133231847931713"></circle></g><g class="bobaCup bright" cupRadius="10.261881178229944" width="20.523762356459887" height="20.523762356459887" pearlRadius="2.738042421428314" pearlCount="5" transform="translate(200.04557887056873,237.0631590441113)"><circle class="pool" r="10.261881178229944" cx="10.261881178229944" cy="10.261881178229944" style="stroke-width: 1; fill: rgb(127, 205, 187);"></circle><circle class="pearl" r="2.1904339371426516" cx="15.50707633731222" cy="7.5458170072255015"></circle><circle class="pearl" r="2.1904339371426516" cx="7.10127946479346" cy="15.374190374327554"></circle><circle class="pearl" r="2.1904339371426516" cx="9.613000158282661" cy="4.671258853698051"></circle><circle class="pearl" r="2.1904339371426516" cx="14.69741576269644" cy="14.864926817861242"></circle><circle class="pearl" r="2.1904339371426516" cx="4.718922559682282" cy="9.08075641097133"></circle></g><g class="bobaCup bright" cupRadius="10.112586534718668" width="20.225173069437336" height="20.225173069437336" pearlRadius="2.7380424214283137" pearlCount="5" transform="translate(257.83809863467127,159.2388113518501)"><circle class="pool" r="10.112586534718668" cx="10.112586534718668" cy="10.112586534718668" style="stroke-width: 1; fill: rgb(127, 205, 187);"></circle><circle class="pearl" r="2.190433937142651" cx="15.217022820063622" cy="7.4477658502772695"></circle><circle class="pearl" r="2.190433937142651" cx="6.810174173443933" cy="15.020026258214951"></circle><circle class="pearl" r="2.190433937142651" cx="9.591324372995198" cy="4.664166622362959"></circle><circle class="pearl" r="2.190433937142651" cx="14.410178348724738" cy="14.615830261646238"></circle><circle class="pearl" r="2.190433937142651" cx="4.738426129236375" cy="8.783634110490457"></circle></g><g class="bobaCup bright" cupRadius="9.80956524559566" width="19.61913049119132" height="19.61913049119132" pearlRadius="2.738042421428314" pearlCount="4" transform="translate(271.2221798242506,189.1406224547229)"><circle class="pool" r="9.80956524559566" cx="9.80956524559566" cy="9.80956524559566" style="stroke-width: 1; fill: rgb(127, 205, 187);"></circle><circle class="pearl" r="2.1904339371426516" cx="14.310225173126543" cy="6.276895343409571"></circle><circle class="pearl" r="2.1904339371426516" cx="5.601879598800136" cy="13.227476753512972"></circle><circle class="pearl" r="2.1904339371426516" cx="6.378769636678412" cy="5.270227984842839"></circle><circle class="pearl" r="2.1904339371426516" cx="13.533335135248368" cy="14.234144112079822"></circle></g><g class="bobaCup bright" cupRadius="9.455729987180282" width="18.911459974360564" height="18.911459974360564" pearlRadius="2.7380424214283132" pearlCount="4" transform="translate(193.3284293942187,139.47163302986084)"><circle class="pool" r="9.455729987180282" cx="9.455729987180282" cy="9.455729987180282" style="stroke-width: 1; fill: rgb(29, 145, 192);"></circle><circle class="pearl" r="2.1904339371426507" cx="13.386660243535047" cy="5.506533628328756"></circle><circle class="pearl" r="2.1904339371426507" cx="5.524749786338428" cy="13.404903516771459"></circle><circle class="pearl" r="2.1904339371426507" cx="5.524821075903929" cy="5.506523871756232"></circle><circle class="pearl" r="2.1904339371426507" cx="13.386588951279123" cy="13.4049589325939"></circle></g><g class="bobaCup bright" cupRadius="9.44943796441743" width="18.89887592883486" height="18.89887592883486" pearlRadius="2.7380424214283137" pearlCount="4" transform="translate(219.0385336349641,14.495768727560785)"><circle class="pool" r="9.44943796441743" cx="9.44943796441743" cy="9.44943796441743" style="stroke-width: 1; fill: rgb(127, 205, 187);"></circle><circle class="pearl" r="2.190433937142651" cx="13.37453091581165" cy="5.504492332086018"></circle><circle class="pearl" r="2.190433937142651" cx="5.524285836833812" cy="13.394356574516639"></circle><circle class="pearl" r="2.190433937142651" cx="5.524370310283135" cy="5.5044807804881675"></circle><circle class="pearl" r="2.190433937142651" cx="13.374446438583806" cy="13.394422171601445"></circle></g><g class="bobaCup bright" cupRadius="9.316282177761652" width="18.632564355523304" height="18.632564355523304" pearlRadius="2.7380424214283137" pearlCount="4" transform="translate(10.683717822238348,95.19142665293191)"><circle class="pool" r="9.316282177761652" cx="9.316282177761652" cy="9.316282177761652" style="stroke-width: 1; fill: rgb(127, 205, 187);"></circle><circle class="pearl" r="2.190433937142651" cx="13.118010464638171" cy="5.461714367900113"></circle><circle class="pearl" r="2.190433937142651" cx="5.514106575035573" cy="13.170650030520264"></circle><circle class="pearl" r="2.190433937142651" cx="5.514746246638092" cy="5.461628390582293"></circle><circle class="pearl" r="2.190433937142651" cx="13.117370575122184" cy="13.171135979065173"></circle></g><g class="bobaCup bright" cupRadius="9.244004509273864" width="18.48800901854773" height="18.48800901854773" pearlRadius="2.7380424214283137" pearlCount="4" transform="translate(301.2655282808197,290.75599549072615)"><circle class="pool" r="9.244004509273864" cx="9.244004509273864" cy="9.244004509273864" style="stroke-width: 1; fill: rgb(29, 145, 192);"></circle><circle class="pearl" r="2.190433937142651" cx="12.978908746750374" cy="5.4388357266875484"></circle><circle class="pearl" r="2.190433937142651" cx="5.508280292584031" cy="13.048811065660825"></circle><circle class="pearl" r="2.190433937142651" cx="5.509454083110464" cy="5.438679459723643"></circle><circle class="pearl" r="2.190433937142651" cx="12.97773422002096" cy="13.049691974050159"></circle></g><g class="bobaCup bright" cupRadius="9.205775332796096" width="18.41155066559219" height="18.41155066559219" pearlRadius="2.738042421428314" pearlCount="4" transform="translate(138.68639006990242,140.99522592504331)"><circle class="pool" r="9.205775332796096" cx="9.205775332796096" cy="9.205775332796096" style="stroke-width: 1; fill: rgb(29, 145, 192);"></circle><circle class="pearl" r="2.1904339371426516" cx="12.905376012498618" cy="5.426833426341846"></circle><circle class="pearl" r="2.1904339371426516" cx="5.505108803905596" cy="12.984249380351997"></circle><circle class="pearl" r="2.1904339371426516" cx="5.506635410130796" cy="5.426631224898545"></circle><circle class="pearl" r="2.1904339371426516" cx="12.903848158705184" cy="12.985387616658063"></circle></g><g class="bobaCup bright" cupRadius="9.135681562770872" width="18.271363125541743" height="18.271363125541743" pearlRadius="2.7380424214283146" pearlCount="4" transform="translate(233.55022966731912,236.30571753240264)"><circle class="pool" r="9.135681562770872" cx="9.135681562770872" cy="9.135681562770872" style="stroke-width: 1; fill: rgb(127, 205, 187);"></circle><circle class="pearl" r="2.1904339371426516" cx="12.770628672634789" cy="5.405006511529478"></circle><circle class="pearl" r="2.1904339371426516" cx="5.499126402537054" cy="12.865659031810246"></circle><circle class="pearl" r="2.1904339371426516" cx="5.501432048607696" cy="5.40470400420118"></circle><circle class="pearl" r="2.1904339371426516" cx="12.768320170911448" cy="12.867357415548643"></circle></g><g class="bobaCup bright" cupRadius="9.049541450823613" width="18.099082901647225" height="18.099082901647225" pearlRadius="2.7380424214283137" pearlCount="4" transform="translate(88.04306409709491,131.733855914487)"><circle class="pool" r="9.049541450823613" cx="9.049541450823613" cy="9.049541450823613" style="stroke-width: 1; fill: rgb(65, 182, 196);"></circle><circle class="pearl" r="2.190433937142651" cx="12.605173230624093" cy="5.378505062784301"></circle><circle class="pearl" r="2.190433937142651" cx="5.491465789809759" cy="12.719533219214963"></circle><circle class="pearl" r="2.190433937142651" cx="5.494974671156122" cy="5.378050101587958"></circle><circle class="pearl" r="2.190433937142651" cx="12.60165770551406" cy="12.722079036581167"></circle></g><g class="bobaCup bright" cupRadius="8.809114848203368" width="17.618229696406736" height="17.618229696406736" pearlRadius="2.7380424214283132" pearlCount="3" transform="translate(181.91134712463233,179.71140539361414)"><circle class="pool" r="8.809114848203368" cx="8.809114848203368" cy="8.809114848203368" style="stroke-width: 1; fill: rgb(65, 182, 196);"></circle><circle class="pearl" r="2.1904339371426507" cx="12.89968631070679" cy="10.234674834868914"></circle><circle class="pearl" r="2.1904339371426507" cx="4.997300743619254" cy="11.895358706317175"></circle><circle class="pearl" r="2.1904339371426507" cx="8.346338643941785" cy="3.6628873213361617"></circle></g><g class="bobaCup bright" cupRadius="8.547479755321266" width="17.094959510642532" height="17.094959510642532" pearlRadius="2.7380424214283146" pearlCount="3" transform="translate(307.08975406490845,197.8051498256632)"><circle class="pool" r="8.547479755321266" cx="8.547479755321266" cy="8.547479755321266" style="stroke-width: 1; fill: rgb(127, 205, 187);"></circle><circle class="pearl" r="2.1904339371426516" cx="12.736483011646465" cy="10.08108713181881"></circle><circle class="pearl" r="2.1904339371426516" cx="4.77177568218073" cy="11.563011542296673"></circle><circle class="pearl" r="2.1904339371426516" cx="7.958092085468916" cy="3.671067923260739"></circle></g><g class="bobaCup bright" cupRadius="8.399315024095893" width="16.798630048191786" height="16.798630048191786" pearlRadius="2.738042421428314" pearlCount="3" transform="translate(127.79695585849436,237.794987397102)"><circle class="pool" r="8.399315024095893" cx="8.399315024095893" cy="8.399315024095893" style="stroke-width: 1; fill: rgb(65, 182, 196);"></circle><circle class="pearl" r="2.1904339371426516" cx="12.643202575697293" cy="9.990197536179968"></circle><circle class="pearl" r="2.1904339371426516" cx="4.645296795534867" cy="11.374535444083767"></circle><circle class="pearl" r="2.1904339371426516" cx="7.7378482006571385" cy="3.6768098122449193"></circle></g><g class="bobaCup bright" cupRadius="8.38609256483181" width="16.77218512966362" height="16.77218512966362" pearlRadius="2.738042421428314" pearlCount="3" transform="translate(104.87710196018996,248.74191128675545)"><circle class="pool" r="8.38609256483181" cx="8.38609256483181" cy="8.38609256483181" style="stroke-width: 1; fill: rgb(127, 205, 187);"></circle><circle class="pearl" r="2.1904339371426516" cx="12.6348463005924" cy="9.981948221444336"></circle><circle class="pearl" r="2.1904339371426516" cx="4.634051399883338" cy="11.35770786050422"></circle><circle class="pearl" r="2.1904339371426516" cx="7.71818327646964" cy="3.6773633180043483"></circle></g><g class="bobaCup bright" cupRadius="8.238523266404108" width="16.477046532808217" height="16.477046532808217" pearlRadius="2.7380424214283137" pearlCount="3" transform="translate(298.39907638004934,215.82039974827185)"><circle class="pool" r="8.238523266404108" cx="8.238523266404108" cy="8.238523266404108" style="stroke-width: 1; fill: rgb(65, 182, 196);"></circle><circle class="pearl" r="2.190433937142651" cx="12.542151960858043" cy="9.88774302773493"></circle><circle class="pearl" r="2.190433937142651" cx="4.507842288902605" cy="11.170066997236"></circle><circle class="pearl" r="2.190433937142651" cx="7.498851770147667" cy="3.6839950248063733"></circle></g><g class="bobaCup bright" cupRadius="8.155677257812805" width="16.31135451562561" height="16.31135451562561" pearlRadius="2.7380424214283137" pearlCount="3" transform="translate(215.90451760460198,172.79553045107954)"><circle class="pool" r="8.155677257812805" cx="8.155677257812805" cy="8.155677257812805" style="stroke-width: 1; fill: rgb(29, 145, 192);"></circle><circle class="pearl" r="2.190433937142651" cx="12.483695370176076" cy="9.845280213560109"></circle><circle class="pearl" r="2.190433937142651" cx="4.418216244839523" cy="11.111633576149947"></circle><circle class="pearl" r="2.190433937142651" cx="7.384674530649791" cy="3.6872486631752484"></circle></g><g class="bobaCup bright" cupRadius="7.861084978974669" width="15.722169957949339" height="15.722169957949339" pearlRadius="2.7380424214283137" pearlCount="3" transform="translate(173.70518495622827,119.03610795180884)"><circle class="pool" r="7.861084978974669" cx="7.861084978974669" cy="7.861084978974669" style="stroke-width: 1; fill: rgb(127, 205, 187);"></circle><circle class="pearl" r="2.190433937142651" cx="11.950699594610512" cy="9.233610790826395"></circle><circle class="pearl" r="2.190433937142651" cx="4.475564163280141" cy="11.305071459275416"></circle><circle class="pearl" r="2.190433937142651" cx="6.239582811835357" cy="3.8197741612987093"></circle></g><g class="bobaCup bright" cupRadius="7.124902492156323" width="14.249804984312647" height="14.249804984312647" pearlRadius="2.738042421428314" pearlCount="2" transform="translate(143.2492262826255,217.77264760313307)"><circle class="pool" r="7.124902492156323" cx="7.124902492156323" cy="7.124902492156323" style="stroke-width: 1; fill: rgb(65, 182, 196);"></circle><circle class="pearl" r="2.1904339371426516" cx="10.123927877872033" cy="4.5665673128793305"></circle><circle class="pearl" r="2.1904339371426516" cx="4.254503288046182" cy="9.995302167792708"></circle></g><g class="bobaCup bright" cupRadius="6.849680618445615" width="13.69936123689123" height="13.69936123689123" pearlRadius="2.7380424214283137" pearlCount="2" transform="translate(158.27751379731134,116.2637812502919)"><circle class="pool" r="6.849680618445615" cx="6.849680618445615" cy="6.849680618445615" style="stroke-width: 1; fill: rgb(29, 145, 192);"></circle><circle class="pearl" r="2.190433937142651" cx="9.468680984730288" cy="4.17118891496468"></circle><circle class="pearl" r="2.190433937142651" cx="4.230680252160943" cy="9.52817232192655"></circle></g><g class="bobaCup bright" cupRadius="6.676927304471093" width="13.353854608942186" height="13.353854608942186" pearlRadius="2.7380424214283137" pearlCount="2" transform="translate(18.45008393643044,210.26185302369353)"><circle class="pool" r="6.676927304471093" cx="6.676927304471093" cy="6.676927304471093" style="stroke-width: 1; fill: rgb(29, 145, 192);"></circle><circle class="pearl" r="2.190433937142651" cx="9.13120670704609" cy="4.118152095705413"></circle><circle class="pearl" r="2.190433937142651" cx="4.222647901896097" cy="9.235702513236774"></circle></g><g class="bobaCup bright" cupRadius="6.652884281107591" width="13.305768562215182" height="13.305768562215182" pearlRadius="2.7380424214283137" pearlCount="2" transform="translate(22.713584761736655,24.65826888233501)"><circle class="pool" r="6.652884281107591" cx="6.652884281107591" cy="6.652884281107591" style="stroke-width: 1; fill: rgb(29, 145, 192);"></circle><circle class="pearl" r="2.190433937142651" cx="9.0842463627035" cy="4.110922495406912"></circle><circle class="pearl" r="2.190433937142651" cx="4.221522199511681" cy="9.19484606680827"></circle></g><g class="bobaCup bright" cupRadius="6.51615263828174" width="13.03230527656348" height="13.03230527656348" pearlRadius="2.738042421428314" pearlCount="2" transform="translate(118.94101939248067,120.01485770972442)"><circle class="pool" r="6.51615263828174" cx="6.51615263828174" cy="6.51615263828174" style="stroke-width: 1; fill: rgb(65, 182, 196);"></circle><circle class="pearl" r="2.1904339371426516" cx="8.817213586365042" cy="4.07053567632933"></circle><circle class="pearl" r="2.1904339371426516" cx="4.215091690198438" cy="8.961769600234152"></circle></g><g class="bobaCup bright" cupRadius="6.26487714462308" width="12.52975428924616" height="12.52975428924616" pearlRadius="2.7380424214283137" pearlCount="1" transform="translate(307.91329614672276,21.842622402576637)"><circle class="pool" r="6.26487714462308" cx="6.26487714462308" cy="6.26487714462308" style="stroke-width: 1; fill: rgb(29, 145, 192);"></circle><circle class="pearl" r="2.190433937142651" cx="8.532012370891444" cy="6.26487714462308"></circle></g><g class="bobaCup bright" cupRadius="5.188752748966986" width="10.377505497933972" height="10.377505497933972" pearlRadius="2.738042421428314" pearlCount="1" transform="translate(130.47055975055576,147.66089790476633)"><circle class="pool" r="5.188752748966986" cx="5.188752748966986" cy="5.188752748966986" style="stroke-width: 1; fill: rgb(127, 205, 187);"></circle><circle class="pearl" r="2.1904339371426516" cx="6.726782269362888" cy="5.188752748966986"></circle></g><g class="bobaCup bright" cupRadius="4.2355143602226235" width="8.471028720445247" height="8.471028720445247" pearlRadius="2.738042421428314" pearlCount="0" transform="translate(73.81564440762381,100.93507291303432)"><circle class="pool" r="4.2355143602226235" cx="4.2355143602226235" cy="4.2355143602226235" style="stroke-width: 1; fill: rgb(127, 205, 187);"></circle></g><g class="bobaCup bright" cupRadius="0" width="0" height="0" pearlRadius="NaN" pearlCount="0" transform="translate(38.61439027923285,277.34796408232603)"><circle class="pool" r="0" cx="0" cy="0" style="stroke-width: 1; fill: rgb(127, 205, 187);"></circle></g></g><g id="legendDividerGroup" transform="translate(410,0)" height="400"><rect class="legendDivider" height="400" width="90"></rect></g><g id="legend" transform="translate(410,14.272970433843966)" width="90" height="320"><rect class="legendBorder" transform="translate(0,0)" width="90" height="351.45405913231207"></rect><text id="rTitle" text-anchor="middle" alignment-baseline="hanging" transform="translate(45,0)" x="0" y="0" style="fill: black; font-size: 0.8rem;">Population</text><text id="bobaValue" text-anchor="middle" alignment-baseline="hanging" transform="translate(45,15)" x="0" y="0" style="fill: black; font-size: 0.7rem;">(1 Pearl =   75)</text><g class="bright" cupRadius="4.2355143602226235" width="8.471028720445247" height="8.471028720445247" pearlRadius="2.738042421428314" pearlCount="0" transform="translate(40.76448563977738,40)"><circle class="pool" r="4.2355143602226235" cx="4.2355143602226235" cy="4.2355143602226235" style="stroke-width: 1; fill: rgb(65, 182, 196);"></circle></g><text id="0" class="legendSampleValue" text-anchor="middle" transform="translate(45,8)" x="0" y="53.47102872044525" style="fill: black; font-size: 0.7rem;">  67</text><g class="bright" cupRadius="9.713478548724018" width="19.426957097448035" height="19.426957097448035" pearlRadius="2.7380424214283137" pearlCount="4" transform="translate(35.28652145127598,73.47102872044525)"><circle class="pool" r="9.713478548724018" cx="9.713478548724018" cy="9.713478548724018" style="stroke-width: 1; fill: rgb(65, 182, 196);"></circle><circle class="pearl" r="2.190433937142651" cx="14.070566326671372" cy="6.078783735212581"></circle><circle class="pearl" r="2.190433937142651" cx="5.446392450859797" cy="13.311688349399542"></circle><circle class="pearl" r="2.190433937142651" cx="6.109306570208432" cy="5.344134711812458"></circle><circle class="pearl" r="2.190433937142651" cx="13.407652207322752" cy="14.046337372799687"></circle></g><text id="1" class="legendSampleValue" text-anchor="middle" transform="translate(45,8)" x="0" y="97.89798581789329" style="fill: black; font-size: 0.7rem;"> 350</text><g class="bright" cupRadius="13.067660430903123" width="26.135320861806246" height="26.135320861806246" pearlRadius="2.7380424214283137" pearlCount="8" transform="translate(31.932339569096875,117.8979858178933)"><circle class="pool" r="13.067660430903123" cx="13.067660430903123" cy="13.067660430903123" style="stroke-width: 1; fill: rgb(65, 182, 196);"></circle><circle class="pearl" r="2.190433937142651" cx="13.875070935394001" cy="12.942174893565655"></circle><circle class="pearl" r="2.190433937142651" cx="7.72185836671373" cy="20.34112058853923"></circle><circle class="pearl" r="2.190433937142651" cx="13.994284645779599" cy="4.683617965308633"></circle><circle class="pearl" r="2.190433937142651" cx="21.124843698435424" cy="16.112797804435647"></circle><circle class="pearl" r="2.190433937142651" cx="4.669871245978092" cy="13.774818781082875"></circle><circle class="pearl" r="2.190433937142651" cx="20.54648375113918" cy="8.205783256630633"></circle><circle class="pearl" r="2.190433937142651" cx="15.45060000542074" cy="21.265491522627727"></circle><circle class="pearl" r="2.190433937142651" cx="6.601726934694897" cy="6.36252820248623"></circle></g><text id="2" class="legendSampleValue" text-anchor="middle" transform="translate(45,8)" x="0" y="149.03330667969954" style="fill: black; font-size: 0.7rem;"> 640</text><g class="bright" cupRadius="15.721826635549089" width="31.443653271098178" height="31.443653271098178" pearlRadius="2.7380424214283132" pearlCount="12" transform="translate(29.27817336445091,169.03330667969954)"><circle class="pool" r="15.721826635549089" cx="15.721826635549089" cy="15.721826635549089" style="stroke-width: 1; fill: rgb(65, 182, 196);"></circle><circle class="pearl" r="2.1904339371426507" cx="16.886621793505974" cy="11.599861560623964"></circle><circle class="pearl" r="2.1904339371426507" cx="11.350209312426102" cy="17.294326836086764"></circle><circle class="pearl" r="2.1904339371426507" cx="14.57775580853664" cy="4.6924052633507065"></circle><circle class="pearl" r="2.1904339371426507" cx="18.455465686849603" cy="18.882514244542943"></circle><circle class="pearl" r="2.1904339371426507" cx="4.70440865210153" cy="14.423680373179645"></circle><circle class="pearl" r="2.1904339371426507" cx="26.463705057006592" cy="12.521256811002536"></circle><circle class="pearl" r="2.1904339371426507" cx="14.071591147051523" cy="26.70608199956853"></circle><circle class="pearl" r="2.1904339371426507" cx="7.242423827016707" cy="7.133382187528341"></circle><circle class="pearl" r="2.1904339371426507" cx="26.141501592722353" cy="20.200546461724223"></circle><circle class="pearl" r="2.1904339371426507" cx="6.864186257912809" cy="23.765454264968117"></circle><circle class="pearl" r="2.1904339371426507" cx="22.413819886591035" cy="6.146058410277106"></circle><circle class="pearl" r="2.1904339371426507" cx="21.827334176179146" cy="25.558981458285942"></circle></g><text id="3" class="legendSampleValue" text-anchor="middle" transform="translate(45,8)" x="0" y="205.47695995079772" style="fill: black; font-size: 0.7rem;"> 930</text><g class="bright" cupRadius="17.98854959075718" width="35.97709918151436" height="35.97709918151436" pearlRadius="2.7380424214283132" pearlCount="16" transform="translate(27.01145040924282,225.47695995079772)"><circle class="pool" r="17.98854959075718" cx="17.98854959075718" cy="17.98854959075718" style="stroke-width: 1; fill: rgb(65, 182, 196);"></circle><circle class="pearl" r="2.1904339371426507" cx="18.71297481776105" cy="18.77247423615338"></circle><circle class="pearl" r="2.1904339371426507" cx="13.544433101713823" cy="23.596237269869572"></circle><circle class="pearl" r="2.1904339371426507" cx="16.49325346082967" cy="11.317138076009526"></circle><circle class="pearl" r="2.1904339371426507" cx="20.694879983861856" cy="26.23932985435826"></circle><circle class="pearl" r="2.1904339371426507" cx="11.069982925318993" cy="16.69423895712508"></circle><circle class="pearl" r="2.1904339371426507" cx="23.422492111731817" cy="13.511555551280393"></circle><circle class="pearl" r="2.1904339371426507" cx="15.00741641829334" cy="31.0776336155687"></circle><circle class="pearl" r="2.1904339371426507" cx="11.418470168177416" cy="5.893468187716073"></circle><circle class="pearl" r="2.1904339371426507" cx="26.32869217557934" cy="20.769398537118693"></circle><circle class="pearl" r="2.1904339371426507" cx="5.023680984737335" cy="21.632563956291932"></circle><circle class="pearl" r="2.1904339371426507" cx="27.795787995054287" cy="7.55928637170802"></circle><circle class="pearl" r="2.1904339371426507" cx="28.051859550464254" cy="28.248148593244377"></circle><circle class="pearl" r="2.1904339371426507" cx="6.150931322025005" cy="10.796713173857972"></circle><circle class="pearl" r="2.1904339371426507" cx="31.050607375223095" cy="14.850826664282245"></circle><circle class="pearl" r="2.1904339371426507" cx="8.219765260231203" cy="28.442751687483156"></circle><circle class="pearl" r="2.1904339371426507" cx="20.7429941305813" cy="4.862857217296358"></circle></g><text id="4" class="legendSampleValue" text-anchor="middle" transform="translate(45,8)" x="0" y="266.45405913231207" style="fill: black; font-size: 0.7rem;">1.2k</text><g class="bright" cupRadius="20" width="40" height="40" pearlRadius="2.7380424214283137" pearlCount="20" transform="translate(25,286.45405913231207)"><circle class="pool" r="20" cx="20" cy="20" style="stroke-width: 1; fill: rgb(65, 182, 196);"></circle><circle class="pearl" r="2.190433937142651" cx="20.803317911356498" cy="19.852362298934615"></circle><circle class="pearl" r="2.190433937142651" cx="12.399118369231148" cy="22.318129073543428"></circle><circle class="pearl" r="2.190433937142651" cx="20.14107886386132" cy="11.690576671380018"></circle><circle class="pearl" r="2.190433937142651" cx="25.351645945468196" cy="26.426489948513225"></circle><circle class="pearl" r="2.190433937142651" cx="5.45555413244983" cy="14.383463400696877"></circle><circle class="pearl" r="2.190433937142651" cx="27.007002384921414" cy="14.812215198670392"></circle><circle class="pearl" r="2.190433937142651" cx="17.669394065840073" cy="27.98572181627974"></circle><circle class="pearl" r="2.190433937142651" cx="13.075316060454844" cy="14.529673081448232"></circle><circle class="pearl" r="2.190433937142651" cx="31.363412690087696" cy="21.539471699750266"></circle><circle class="pearl" r="2.190433937142651" cx="6.986823167406808" cy="29.380119115938808"></circle><circle class="pearl" r="2.190433937142651" cx="24.195863946736896" cy="5.095807587217031"></circle><circle class="pearl" r="2.190433937142651" cx="27.929986347293504" cy="33.70997709935047"></circle><circle class="pearl" r="2.190433937142651" cx="8.960309851298339" cy="7.973635910317352"></circle><circle class="pearl" r="2.190433937142651" cx="34.68553340637696" cy="14.890285786129768"></circle><circle class="pearl" r="2.190433937142651" cx="12.548559824642552" cy="33.90934248556552"></circle><circle class="pearl" r="2.190433937142651" cx="16.437930987710008" cy="4.970487855189916"></circle><circle class="pearl" r="2.190433937142651" cx="33.26719371328966" cy="28.885282914155283"></circle><circle class="pearl" r="2.190433937142651" cx="4.745924110358729" cy="21.949095191008542"></circle><circle class="pearl" r="2.190433937142651" cx="31.34694409707199" cy="8.181149473979769"></circle><circle class="pearl" r="2.190433937142651" cx="20.521343379892976" cy="35.34248064375117"></circle></g><text id="5" class="legendSampleValue" text-anchor="middle" transform="translate(45,8)" x="0" y="331.45405913231207" style="fill: black; font-size: 0.7rem;">1.5k</text><text id="coloringDisclaimer" transform="translate(45,8)" text-anchor="middle" x="0" y="346.45405913231207" style="font-size: 0.7rem; opacity: 0.6;">(note: coloring</text><text id="coloringDisclaimer" transform="translate(45,8)" text-anchor="middle" x="0" y="361.45405913231207" style="font-size: 0.7rem; opacity: 0.6;">is random)</text></g></svg>