<?xml version="1.0" standalone="no"?>
<?xml-stylesheet xmlns="http://www.w3.org/2000/svg" type="text/css" href="style.css"?>
<svg id="syntheticVisB" class="default" xTitle="Percent Cat Owners" yTitle="Percent Dog Owners" rTitle="Population" chartTitle="Towns in Vizzyland" width="500" height="400" xmlns="http://www.w3.org/2000/svg"><text id="chartTitle" text-anchor="middle" transform="translate(250,20)" x="0" y="0" style="fill: black; font-size: 1.2rem;">Towns in Vizzyland</text><g id="yAxis" transform="translate(50,30)" fill="none" font-size="10" font-family="sans-serif" text-anchor="end"><path class="domain" stroke="currentColor" d="M-6,300H0V20H-6"></path><g class="tick" opacity="1" transform="translate(0,300)"><line stroke="currentColor" x2="-6"></line><text fill="currentColor" x="-9" dy="0.32em">0</text></g><g class="tick" opacity="1" transform="translate(0,272)"><line stroke="currentColor" x2="-6"></line><text fill="currentColor" x="-9" dy="0.32em">10</text></g><g class="tick" opacity="1" transform="translate(0,244)"><line stroke="currentColor" x2="-6"></line><text fill="currentColor" x="-9" dy="0.32em">20</text></g><g class="tick" opacity="1" transform="translate(0,216)"><line stroke="currentColor" x2="-6"></line><text fill="currentColor" x="-9" dy="0.32em">30</text></g><g class="tick" opacity="1" transform="translate(0,188)"><line stroke="currentColor" x2="-6"></line><text fill="currentColor" x="-9" dy="0.32em">40</text></g><g class="tick" opacity="1" transform="translate(0,160)"><line stroke="currentColor" x2="-6"></line><text fill="currentColor" x="-9" dy="0.32em">50</text></g><g class="tick" opacity="1" transform="translate(0,132)"><line stroke="currentColor" x2="-6"></line><text fill="currentColor" x="-9" dy="0.32em">60</text></g><g class="tick" opacity="1" transform="translate(0,104.00000000000001)"><line stroke="currentColor" x2="-6"></line><text fill="currentColor" x="-9" dy="0.32em">70</text></g><g class="tick" opacity="1" transform="translate(0,75.99999999999999)"><line stroke="currentColor" x2="-6"></line><text fill="currentColor" x="-9" dy="0.32em">80</text></g><g class="tick" opacity="1" transform="translate(0,47.99999999999999)"><line stroke="currentColor" x2="-6"></line><text fill="currentColor" x="-9" dy="0.32em">90</text></g><g class="tick" opacity="1" transform="translate(0,20)"><line stroke="currentColor" x2="-6"></line><text fill="currentColor" x="-9" dy="0.32em">100</text></g></g><g id="xAxis" transform="translate(60,360)" fill="none" font-size="10" font-family="sans-serif" text-anchor="middle"><path class="domain" stroke="currentColor" d="M20,6V0H320V6"></path><g class="tick" opacity="1" transform="translate(20,0)"><line stroke="currentColor" y2="6"></line><text fill="currentColor" y="9" dy="0.71em">0</text></g><g class="tick" opacity="1" transform="translate(50.00000000000001,0)"><line stroke="currentColor" y2="6"></line><text fill="currentColor" y="9" dy="0.71em">10</text></g><g class="tick" opacity="1" transform="translate(80.00000000000001,0)"><line stroke="currentColor" y2="6"></line><text fill="currentColor" y="9" dy="0.71em">20</text></g><g class="tick" opacity="1" transform="translate(110.00000000000001,0)"><line stroke="currentColor" y2="6"></line><text fill="currentColor" y="9" dy="0.71em">30</text></g><g class="tick" opacity="1" transform="translate(140.00000000000003,0)"><line stroke="currentColor" y2="6"></line><text fill="currentColor" y="9" dy="0.71em">40</text></g><g class="tick" opacity="1" transform="translate(170.00000000000003,0)"><line stroke="currentColor" y2="6"></line><text fill="currentColor" y="9" dy="0.71em">50</text></g><g class="tick" opacity="1" transform="translate(200.00000000000003,0)"><line stroke="currentColor" y2="6"></line><text fill="currentColor" y="9" dy="0.71em">60</text></g><g class="tick" opacity="1" transform="translate(230.00000000000003,0)"><line stroke="currentColor" y2="6"></line><text fill="currentColor" y="9" dy="0.71em">70</text></g><g class="tick" opacity="1" transform="translate(260.00000000000006,0)"><line stroke="currentColor" y2="6"></line><text fill="currentColor" y="9" dy="0.71em">80</text></g><g class="tick" opacity="1" transform="translate(290.00000000000006,0)"><line stroke="currentColor" y2="6"></line><text fill="currentColor" y="9" dy="0.71em">90</text></g></g><g id="labels"><text id="xTitle" text-anchor="middle" transform="translate(250,350)" x="0" y="40" style="fill: black; font-size: 0.8rem;">Percent Cat Owners</text><g id="group-yTitle" transform="translate(60,190)"><text id="yTitle" text-anchor="middle" transform="rotate(-90)" y="-45" style="fill: black; font-size: 0.8rem;">Percent Dog Owners</text></g></g><g id="quadrant_lines" transform="translate(60,30)"><line id="verticalQuadrantLine" x1="170" y1="10" x2="170" y2="310" class="quadrantLine"></line><line id="horizontalQuadrantLine" x1="10" y1="160" x2="330" y2="160" class="quadrantLine"></line></g><g id="chart" transform="translate(60,30)"><g class="bobaCup bright" cupRadius="20" width="40" height="40" pearlRadius="2.7380424214283137" pearlCount="20" transform="translate(194.81735149185414,188.72749867936903)"><circle class="pool" r="20" cx="20" cy="20" style="stroke-width: 1; fill: rgb(127, 205, 187);"></circle><circle class="pearl" r="2.190433937142651" cx="20.803317911356498" cy="19.852362298934615"></circle><circle class="pearl" r="2.190433937142651" cx="12.399118369231148" cy="22.318129073543428"></circle><circle class="pearl" r="2.190433937142651" cx="20.14107886386132" cy="11.690576671380018"></circle><circle class="pearl" r="2.190433937142651" cx="25.351645945468196" cy="26.426489948513225"></circle><circle class="pearl" r="2.190433937142651" cx="5.45555413244983" cy="14.383463400696877"></circle><circle class="pearl" r="2.190433937142651" cx="27.007002384921414" cy="14.812215198670392"></circle><circle class="pearl" r="2.190433937142651" cx="17.669394065840073" cy="27.98572181627974"></circle><circle class="pearl" r="2.190433937142651" cx="13.075316060454844" cy="14.529673081448232"></circle><circle class="pearl" r="2.190433937142651" cx="31.363412690087696" cy="21.539471699750266"></circle><circle class="pearl" r="2.190433937142651" cx="6.986823167406808" cy="29.380119115938808"></circle><circle class="pearl" r="2.190433937142651" cx="24.195863946736896" cy="5.095807587217031"></circle><circle class="pearl" r="2.190433937142651" cx="27.929986347293504" cy="33.70997709935047"></circle><circle class="pearl" r="2.190433937142651" cx="8.960309851298339" cy="7.973635910317352"></circle><circle class="pearl" r="2.190433937142651" cx="34.68553340637696" cy="14.890285786129768"></circle><circle class="pearl" r="2.190433937142651" cx="12.548559824642552" cy="33.90934248556552"></circle><circle class="pearl" r="2.190433937142651" cx="16.437930987710008" cy="4.970487855189916"></circle><circle class="pearl" r="2.190433937142651" cx="33.26719371328966" cy="28.885282914155283"></circle><circle class="pearl" r="2.190433937142651" cx="4.745924110358729" cy="21.949095191008542"></circle><circle class="pearl" r="2.190433937142651" cx="31.34694409707199" cy="8.181149473979769"></circle><circle class="pearl" r="2.190433937142651" cx="20.521343379892976" cy="35.34248064375117"></circle></g><g class="bobaCup bright" cupRadius="17.646394693899477" width="35.292789387798955" height="35.292789387798955" pearlRadius="2.738042421428313" pearlCount="15" transform="translate(87.62097570886729,248.8674632726965)"><circle class="pool" r="17.646394693899477" cx="17.646394693899477" cy="17.646394693899477" style="stroke-width: 1; fill: rgb(65, 182, 196);"></circle><circle class="pearl" r="2.1904339371426502" cx="23.505585542557323" cy="17.648965824921785"></circle><circle class="pearl" r="2.1904339371426502" cx="12.922700523050269" cy="22.09375499770773"></circle><circle class="pearl" r="2.1904339371426502" cx="17.859167487125777" cy="11.929880856707998"></circle><circle class="pearl" r="2.1904339371426502" cx="20.165224916410335" cy="24.63179593334499"></circle><circle class="pearl" r="2.1904339371426502" cx="10.50312583939269" cy="14.844505629594185"></circle><circle class="pearl" r="2.1904339371426502" cx="25.486004737235294" cy="10.156386218672901"></circle><circle class="pearl" r="2.1904339371426502" cx="14.988802990788754" cy="30.440798350290873"></circle><circle class="pearl" r="2.1904339371426502" cx="13.971086455454763" cy="5.037704402732873"></circle><circle class="pearl" r="2.1904339371426502" cx="30.111528369275003" cy="21.940889790707363"></circle><circle class="pearl" r="2.1904339371426502" cx="4.854781875921953" cy="20.322242023654056"></circle><circle class="pearl" r="2.1904339371426502" cx="21.57986296721907" cy="5.0947031781484196"></circle><circle class="pearl" r="2.1904339371426502" cx="27.03594308685415" cy="27.936609410090963"></circle><circle class="pearl" r="2.1904339371426502" cx="7.739215826682276" cy="7.694273932827702"></circle><circle class="pearl" r="2.1904339371426502" cx="30.3324067808208" cy="14.355064523065517"></circle><circle class="pearl" r="2.1904339371426502" cx="7.819743881076498" cy="27.652826015094494"></circle></g><g class="bobaCup bright" cupRadius="16.65213611763383" width="33.30427223526766" height="33.30427223526766" pearlRadius="2.738042421428314" pearlCount="13" transform="translate(235.79885105429722,207.15767166689866)"><circle class="pool" r="16.65213611763383" cx="16.65213611763383" cy="16.65213611763383" style="stroke-width: 1; fill: rgb(29, 145, 192);"></circle><circle class="pearl" r="2.1904339371426516" cx="20.9545327150581" cy="15.353859592754866"></circle><circle class="pearl" r="2.1904339371426516" cx="14.976841017757328" cy="20.663239528927157"></circle><circle class="pearl" r="2.1904339371426516" cx="13.357129029766561" cy="12.833942039789425"></circle><circle class="pearl" r="2.1904339371426516" cx="25.85933459021069" cy="25.87661139455388"></circle><circle class="pearl" r="2.1904339371426516" cx="4.755333211250516" cy="14.788533130620172"></circle><circle class="pearl" r="2.1904339371426516" cx="27.569759057134046" cy="10.742801563616366"></circle><circle class="pearl" r="2.1904339371426516" cx="11.117072228468817" cy="27.706721068881013"></circle><circle class="pearl" r="2.1904339371426516" cx="14.431494382532259" cy="4.799454013833959"></circle><circle class="pearl" r="2.1904339371426516" cx="28.545666784465578" cy="18.544568500746436"></circle><circle class="pearl" r="2.1904339371426516" cx="5.705071813598716" cy="22.483316218426438"></circle><circle class="pearl" r="2.1904339371426516" cx="22.23177545942648" cy="5.613332199228026"></circle><circle class="pearl" r="2.1904339371426516" cx="18.94576894741857" cy="28.494832356302968"></circle><circle class="pearl" r="2.1904339371426516" cx="7.433235038750638" cy="7.436542873014221"></circle></g><g class="bobaCup bright" cupRadius="16.638426048988233" width="33.276852097976466" height="33.276852097976466" pearlRadius="2.7380424214283137" pearlCount="13" transform="translate(108.3843553782576,177.01610210421674)"><circle class="pool" r="16.638426048988233" cx="16.638426048988233" cy="16.638426048988233" style="stroke-width: 1; fill: rgb(127, 205, 187);"></circle><circle class="pearl" r="2.190433937142651" cx="20.9416734049551" cy="15.33138775235281"></circle><circle class="pearl" r="2.190433937142651" cx="14.970080603938488" cy="20.647649078130645"></circle><circle class="pearl" r="2.190433937142651" cx="13.336271408760938" cy="12.821281235305172"></circle><circle class="pearl" r="2.190433937142651" cx="25.79087492476135" cy="25.88266237285952"></circle><circle class="pearl" r="2.190433937142651" cx="4.772382344426884" cy="14.630035782074643"></circle><circle class="pearl" r="2.190433937142651" cx="27.59563530247213" cy="10.87390828743495"></circle><circle class="pearl" r="2.190433937142651" cx="10.965909117048424" cy="27.6293067357612"></circle><circle class="pearl" r="2.190433937142651" cx="14.569107578888959" cy="4.779905125964849"></circle><circle class="pearl" r="2.190433937142651" cx="28.500663474018406" cy="18.67787495500841"></circle><circle class="pearl" r="2.190433937142651" cx="5.64554771736478" cy="22.30543157338374"></circle><circle class="pearl" r="2.190433937142651" cx="22.37277914323096" cy="5.67010910288152"></circle><circle class="pearl" r="2.190433937142651" cx="18.785660646668926" cy="28.486993864888515"></circle><circle class="pearl" r="2.190433937142651" cx="7.480373771485899" cy="7.397882241389274"></circle></g><g class="bobaCup bright" cupRadius="16.49950217803883" width="32.99900435607766" height="32.99900435607766" pearlRadius="2.7380424214283137" pearlCount="13" transform="translate(24.545089905621005,278.4216842982551)"><circle class="pool" r="16.49950217803883" cx="16.49950217803883" cy="16.49950217803883" style="stroke-width: 1; fill: rgb(65, 182, 196);"></circle><circle class="pearl" r="2.190433937142651" cx="20.760659198467735" cy="15.227351255645406"></circle><circle class="pearl" r="2.190433937142651" cx="14.84755259689099" cy="20.607057536050036"></circle><circle class="pearl" r="2.190433937142651" cx="13.155426285701738" cy="12.765160033036528"></circle><circle class="pearl" r="2.190433937142651" cx="25.46397554905924" cy="25.700558232410938"></circle><circle class="pearl" r="2.190433937142651" cx="4.8004819295787975" cy="14.281516524706841"></circle><circle class="pearl" r="2.190433937142651" cx="27.41362999554337" cy="11.025108692310317"></circle><circle class="pearl" r="2.190433937142651" cx="10.623213883950436" cy="27.266392513436326"></circle><circle class="pearl" r="2.190433937142651" cx="14.711969115090879" cy="4.747838456169561"></circle><circle class="pearl" r="2.190433937142651" cx="28.187426911381376" cy="18.797796088696003"></circle><circle class="pearl" r="2.190433937142651" cx="5.541908938843223" cy="21.848710452648376"></circle><circle class="pearl" r="2.190433937142651" cx="22.50936810117694" cy="5.784188711709975"></circle><circle class="pearl" r="2.190433937142651" cx="18.394893428855855" cy="28.23905241056151"></circle><circle class="pearl" r="2.190433937142651" cx="7.519425891398823" cy="7.308556359517583"></circle></g><g class="bobaCup bright" cupRadius="16.496284948269086" width="32.99256989653817" height="32.99256989653817" pearlRadius="2.7380424214283132" pearlCount="13" transform="translate(222.53596755106045,205.41985314583866)"><circle class="pool" r="16.496284948269086" cx="16.496284948269086" cy="16.496284948269086" style="stroke-width: 1; fill: rgb(29, 145, 192);"></circle><circle class="pearl" r="2.1904339371426507" cx="20.756869305555753" cy="15.228964545999295"></circle><circle class="pearl" r="2.1904339371426507" cx="14.843439796472303" cy="20.608357366920565"></circle><circle class="pearl" r="2.1904339371426507" cx="13.15167695761279" cy="12.766525589146486"></circle><circle class="pearl" r="2.1904339371426507" cx="25.457547817981528" cy="25.695586444383597"></circle><circle class="pearl" r="2.1904339371426507" cx="4.800655546189428" cy="14.27723723158817"></circle><circle class="pearl" r="2.1904339371426507" cx="27.407912599908993" cy="11.024479745624763"></circle><circle class="pearl" r="2.1904339371426507" cx="10.61925672749067" cy="27.259450144967705"></circle><circle class="pearl" r="2.1904339371426507" cx="14.711011563088904" cy="4.747611357607563"></circle><circle class="pearl" r="2.1904339371426507" cx="28.180715671355163" cy="18.796320267595416"></circle><circle class="pearl" r="2.1904339371426507" cx="5.5410766834960254" cy="21.842528425659413"></circle><circle class="pearl" r="2.1904339371426507" cx="22.50779287087906" cy="5.785068533979744"></circle><circle class="pearl" r="2.1904339371426507" cx="18.39007139915651" cy="28.232782044479276"></circle><circle class="pearl" r="2.1904339371426507" cx="7.519296707757822" cy="7.307170778076713"></circle></g><g class="bobaCup bright" cupRadius="15.993094078662494" width="31.98618815732499" height="31.98618815732499" pearlRadius="2.7380424214283137" pearlCount="12" transform="translate(215.738611019207,270.5410779516044)"><circle class="pool" r="15.993094078662494" cx="15.993094078662494" cy="15.993094078662494" style="stroke-width: 1; fill: rgb(65, 182, 196);"></circle><circle class="pearl" r="2.190433937142651" cx="17.18411301014501" cy="11.741229787993085"></circle><circle class="pearl" r="2.190433937142651" cx="11.536356407109887" cy="17.78112230072933"></circle><circle class="pearl" r="2.190433937142651" cx="14.66606931274514" cy="4.705873165042863"></circle><circle class="pearl" r="2.190433937142651" cx="18.950814273780022" cy="19.128800299665663"></circle><circle class="pearl" r="2.190433937142651" cx="4.709531264074565" cy="14.622843552759594"></circle><circle class="pearl" r="2.190433937142651" cx="26.994479587300308" cy="12.708196776228489"></circle><circle class="pearl" r="2.190433937142651" cx="14.186383241795996" cy="27.23308682392023"></circle><circle class="pearl" r="2.190433937142651" cx="7.293483873201083" cy="7.223838153673727"></circle><circle class="pearl" r="2.190433937142651" cx="26.67484976985656" cy="20.542176226074947"></circle><circle class="pearl" r="2.190433937142651" cx="6.913118859513602" cy="24.193519576569877"></circle><circle class="pearl" r="2.190433937142651" cx="22.768280185957703" cy="6.156722656460314"></circle><circle class="pearl" r="2.190433937142651" cx="22.032504039678606" cy="26.15130685278008"></circle></g><g class="bobaCup bright" cupRadius="15.766572666650404" width="31.53314533330081" height="31.53314533330081" pearlRadius="2.738042421428314" pearlCount="12" transform="translate(238.8719824371324,209.72160127958364)"><circle class="pool" r="15.766572666650404" cx="15.766572666650404" cy="15.766572666650404" style="stroke-width: 1; fill: rgb(65, 182, 196);"></circle><circle class="pearl" r="2.1904339371426516" cx="16.83544971913619" cy="11.650956592073893"></circle><circle class="pearl" r="2.1904339371426516" cx="11.367540234432125" cy="17.42886111562846"></circle><circle class="pearl" r="2.1904339371426516" cx="14.596757466041101" cy="4.694180871499533"></circle><circle class="pearl" r="2.1904339371426516" cx="18.54155813508348" cy="18.92824859725502"></circle><circle class="pearl" r="2.1904339371426516" cx="4.705448024131822" cy="14.454074998651416"></circle><circle class="pearl" r="2.1904339371426516" cx="26.51957396949249" cy="12.403525802108115"></circle><circle class="pearl" r="2.1904339371426516" cx="14.206890191288089" cy="26.805087922748207"></circle><circle class="pearl" r="2.1904339371426516" cx="7.25230038234189" cy="7.147330517669689"></circle><circle class="pearl" r="2.1904339371426516" cx="26.269468237774117" cy="20.120036910939554"></circle><circle class="pearl" r="2.1904339371426516" cx="6.93573184652036" cy="23.941671715196353"></circle><circle class="pearl" r="2.1904339371426516" cx="22.290180464124074" cy="6.063642877348013"></circle><circle class="pearl" r="2.1904339371426516" cx="21.985518623687955" cy="25.604104158238474"></circle></g><g class="bobaCup bright" cupRadius="15.42846423864998" width="30.85692847729996" height="30.85692847729996" pearlRadius="2.7380424214283137" pearlCount="11" transform="translate(229.3939155151328,227.49094034934137)"><circle class="pool" r="15.42846423864998" cx="15.42846423864998" cy="15.42846423864998" style="stroke-width: 1; fill: rgb(65, 182, 196);"></circle><circle class="pearl" r="2.190433937142651" cx="19.34024417922202" cy="15.746277728396823"></circle><circle class="pearl" r="2.190433937142651" cx="11.889829399208844" cy="17.641147793995763"></circle><circle class="pearl" r="2.190433937142651" cx="14.092431831299326" cy="10.207890941659553"></circle><circle class="pearl" r="2.190433937142651" cx="22.008986865582795" cy="24.732461742495094"></circle><circle class="pearl" r="2.190433937142651" cx="4.683077587316227" cy="14.429810480234229"></circle><circle class="pearl" r="2.190433937142651" cx="25.497966594852937" cy="10.807591215436183"></circle><circle class="pearl" r="2.190433937142651" cx="14.408167997864892" cy="26.17243179438311"></circle><circle class="pearl" r="2.190433937142651" cx="7.208458558580512" cy="7.022809126236648"></circle><circle class="pearl" r="2.190433937142651" cx="25.86462854333252" cy="18.656982989138776"></circle><circle class="pearl" r="2.190433937142651" cx="7.1401116041041615" cy="23.79083900282139"></circle><circle class="pearl" r="2.190433937142651" cx="20.118667396149974" cy="5.380905149049379"></circle></g><g class="bobaCup bright" cupRadius="15.015707788759178" width="30.031415577518356" height="30.031415577518356" pearlRadius="2.7380424214283137" pearlCount="11" transform="translate(4.984292211240822,180.28648025853875)"><circle class="pool" r="15.015707788759178" cx="15.015707788759178" cy="15.015707788759178" style="stroke-width: 1; fill: rgb(127, 205, 187);"></circle><circle class="pearl" r="2.190433937142651" cx="18.94473710450145" cy="15.548383194644044"></circle><circle class="pearl" r="2.190433937142651" cx="11.820094808437027" cy="17.46652772787972"></circle><circle class="pearl" r="2.190433937142651" cx="13.67635843400174" cy="10.247631036540303"></circle><circle class="pearl" r="2.190433937142651" cx="21.632555283446976" cy="23.844183706630243"></circle><circle class="pearl" r="2.190433937142651" cx="4.676240693052433" cy="14.140679538169298"></circle><circle class="pearl" r="2.190433937142651" cx="24.62592952200112" cy="10.314970698308072"></circle><circle class="pearl" r="2.190433937142651" cx="14.178562586773786" cy="25.35733822157815"></circle><circle class="pearl" r="2.190433937142651" cx="7.171214938219782" cy="6.862704516219763"></circle><circle class="pearl" r="2.190433937142651" cx="25.077659397207764" cy="18.01715402974554"></circle><circle class="pearl" r="2.190433937142651" cx="7.144961342162407" cy="23.15258913535335"></circle><circle class="pearl" r="2.190433937142651" cx="19.327735289618808" cy="5.283180368425013"></circle></g><g class="bobaCup bright" cupRadius="14.882735572686014" width="29.76547114537203" height="29.76547114537203" pearlRadius="2.7380424214283137" pearlCount="11" transform="translate(86.4090323109983,26.471988098883905)"><circle class="pool" r="14.882735572686014" cx="14.882735572686014" cy="14.882735572686014" style="stroke-width: 1; fill: rgb(127, 205, 187);"></circle><circle class="pearl" r="2.190433937142651" cx="18.822605185831122" cy="15.496033902637915"></circle><circle class="pearl" r="2.190433937142651" cx="11.805632858510423" cy="17.436662068080146"></circle><circle class="pearl" r="2.190433937142651" cx="13.531675719844692" cy="10.29062392873805"></circle><circle class="pearl" r="2.190433937142651" cx="21.516749433469535" cy="23.55438744097457"></circle><circle class="pearl" r="2.190433937142651" cx="4.674048099361302" cy="14.049829984471854"></circle><circle class="pearl" r="2.190433937142651" cx="24.339880368807236" cy="10.14312821296115"></circle><circle class="pearl" r="2.190433937142651" cx="14.102736192986729" cy="25.09429410346004"></circle><circle class="pearl" r="2.190433937142651" cx="7.159010164629198" cy="6.811828247454995"></circle><circle class="pearl" r="2.190433937142651" cx="24.827571383372113" cy="17.792284413666625"></circle><circle class="pearl" r="2.190433937142651" cx="7.151033551506039" cy="22.948796606741045"></circle><circle class="pearl" r="2.190433937142651" cx="19.03758710897014" cy="5.242446701411577"></circle></g><g class="bobaCup bright" cupRadius="14.785495569417048" width="29.570991138834096" height="29.570991138834096" pearlRadius="2.7380424214283137" pearlCount="10" transform="translate(35.78175095109589,214.73190568228813)"><circle class="pool" r="14.785495569417048" cx="14.785495569417048" cy="14.785495569417048" style="stroke-width: 1; fill: rgb(29, 145, 192);"></circle><circle class="pearl" r="2.190433937142651" cx="17.692355314137135" cy="12.202544119561981"></circle><circle class="pearl" r="2.190433937142651" cx="12.174313422724648" cy="17.145983849506894"></circle><circle class="pearl" r="2.190433937142651" cx="14.918466416497484" cy="4.704436782476015"></circle><circle class="pearl" r="2.190433937142651" cx="22.24490206080937" cy="22.900669646927714"></circle><circle class="pearl" r="2.190433937142651" cx="4.659113084292409" cy="14.28747352220188"></circle><circle class="pearl" r="2.190433937142651" cx="22.473145323135345" cy="6.806455518440643"></circle><circle class="pearl" r="2.190433937142651" cx="14.518217239893863" cy="24.917851909319456"></circle><circle class="pearl" r="2.190433937142651" cx="7.192132448750708" cy="6.749544066169889"></circle><circle class="pearl" r="2.190433937142651" cx="24.90697001630537" cy="15.412436611623443"></circle><circle class="pearl" r="2.190433937142651" cx="7.092619380337634" cy="22.761352842816645"></circle></g><g class="bobaCup bright" cupRadius="14.538399882491255" width="29.07679976498251" height="29.07679976498251" pearlRadius="2.7380424214283137" pearlCount="10" transform="translate(233.13870138613473,233.28096585592704)"><circle class="pool" r="14.538399882491255" cx="14.538399882491255" cy="14.538399882491255" style="stroke-width: 1; fill: rgb(127, 205, 187);"></circle><circle class="pearl" r="2.190433937142651" cx="17.27936636439525" cy="11.872247163030915"></circle><circle class="pearl" r="2.190433937142651" cx="12.180450214512163" cy="16.838841657325254"></circle><circle class="pearl" r="2.190433937142651" cx="14.475372444228139" cy="4.6508598487174275"></circle><circle class="pearl" r="2.190433937142651" cx="22.201523144629387" cy="22.24249810194196"></circle><circle class="pearl" r="2.190433937142651" cx="4.6512971387516675" cy="14.409221161213441"></circle><circle class="pearl" r="2.190433937142651" cx="22.003703329035712" cy="6.713774795514867"></circle><circle class="pearl" r="2.190433937142651" cx="14.602691013462346" cy="24.425934382881376"></circle><circle class="pearl" r="2.190433937142651" cx="6.875361671105161" cy="6.834248910405405"></circle><circle class="pearl" r="2.190433937142651" cx="24.425274342914733" cy="14.691123738393596"></circle><circle class="pearl" r="2.190433937142651" cx="7.072153890002644" cy="22.362460897459997"></circle></g><g class="bobaCup bright" cupRadius="14.155818908985482" width="28.311637817970965" height="28.311637817970965" pearlRadius="2.738042421428314" pearlCount="10" transform="translate(59.25429069496309,258.5750662498451)"><circle class="pool" r="14.155818908985482" cx="14.155818908985482" cy="14.155818908985482" style="stroke-width: 1; fill: rgb(65, 182, 196);"></circle><circle class="pearl" r="2.1904339371426516" cx="16.842229711629315" cy="11.566711825280395"></circle><circle class="pearl" r="2.1904339371426516" cx="12.058231913523192" cy="16.218515118283197"></circle><circle class="pearl" r="2.1904339371426516" cx="14.226968257259353" cy="4.650902033547453"></circle><circle class="pearl" r="2.1904339371426516" cx="21.526897832619664" cy="21.590392717953314"></circle><circle class="pearl" r="2.1904339371426516" cx="4.6509235690885475" cy="14.231131112740043"></circle><circle class="pearl" r="2.1904339371426516" cx="21.280555628526248" cy="6.574398594366009"></circle><circle class="pearl" r="2.1904339371426516" cx="14.144313957221803" cy="23.66090991415157"></circle><circle class="pearl" r="2.1904339371426516" cx="6.7883690677690485" cy="6.719032393148877"></circle><circle class="pearl" r="2.1904339371426516" cx="23.66091258877778" cy="14.148292895150687"></circle><circle class="pearl" r="2.1904339371426516" cx="7.025382338950976" cy="21.73391750856716"></circle></g><g class="bobaCup bright" cupRadius="13.937416512022246" width="27.87483302404449" height="27.87483302404449" pearlRadius="2.7380424214283137" pearlCount="9" transform="translate(136.28922108601984,234.17809946603847)"><circle class="pool" r="13.937416512022246" cx="13.937416512022246" cy="13.937416512022246" style="stroke-width: 1; fill: rgb(65, 182, 196);"></circle><circle class="pearl" r="2.190433937142651" cx="15.825504383284146" cy="12.07315302045424"></circle><circle class="pearl" r="2.190433937142651" cx="10.439955544757854" cy="17.423455571954207"></circle><circle class="pearl" r="2.190433937142651" cx="14.005118755613749" cy="4.650887664383937"></circle><circle class="pearl" r="2.190433937142651" cx="21.117188232710696" cy="21.232506653347443"></circle><circle class="pearl" r="2.190433937142651" cx="4.651285420635478" cy="13.812233870004748"></circle><circle class="pearl" r="2.190433937142651" cx="21.043123204104806" cy="6.598122583154252"></circle><circle class="pearl" r="2.190433937142651" cx="14.025003287490359" cy="23.223834582381638"></circle><circle class="pearl" r="2.190433937142651" cx="6.828413327106356" cy="6.600076813395873"></circle><circle class="pearl" r="2.190433937142651" cx="23.223936067473076" cy="14.00700536759144"></circle></g><g class="bobaCup bright" cupRadius="13.730696082395902" width="27.461392164791803" height="27.461392164791803" pearlRadius="2.7380424214283137" pearlCount="9" transform="translate(121.52906721725302,193.3547487450855)"><circle class="pool" r="13.730696082395902" cx="13.730696082395902" cy="13.730696082395902" style="stroke-width: 1; fill: rgb(65, 182, 196);"></circle><circle class="pearl" r="2.190433937142651" cx="15.483842311126505" cy="12.014640403281469"></circle><circle class="pearl" r="2.190433937142651" cx="10.10319704000334" cy="17.344940190643747"></circle><circle class="pearl" r="2.190433937142651" cx="13.791084930394469" cy="4.6508560270314145"></circle><circle class="pearl" r="2.190433937142651" cx="20.725386724511853" cy="20.8954845959466"></circle><circle class="pearl" r="2.190433937142651" cx="4.650896035028298" cy="13.661808666795707"></circle><circle class="pearl" r="2.190433937142651" cx="20.654646465901223" cy="6.524314858619496"></circle><circle class="pearl" r="2.190433937142651" cx="13.754137313862747" cy="22.810648926611236"></circle><circle class="pearl" r="2.190433937142651" cx="6.802373769726087" cy="6.526868925613531"></circle><circle class="pearl" r="2.190433937142651" cx="22.80990742723399" cy="13.875304232323938"></circle></g><g class="bobaCup bright" cupRadius="13.706551166748298" width="27.413102333496596" height="27.413102333496596" pearlRadius="2.7380424214283137" pearlCount="9" transform="translate(123.95034194328692,235.58462515355063)"><circle class="pool" r="13.706551166748298" cx="13.706551166748298" cy="13.706551166748298" style="stroke-width: 1; fill: rgb(29, 145, 192);"></circle><circle class="pearl" r="2.190433937142651" cx="15.442335265470781" cy="12.009451115828382"></circle><circle class="pearl" r="2.190433937142651" cx="10.060052841304676" cy="17.3395125285762"></circle><circle class="pearl" r="2.190433937142651" cx="13.766140583690335" cy="4.6508527620820015"></circle><circle class="pearl" r="2.190433937142651" cx="20.679608422376923" cy="20.856082909846858"></circle><circle class="pearl" r="2.190433937142651" cx="4.650869610064184" cy="13.643204900697834"></circle><circle class="pearl" r="2.190433937142651" cx="20.60953247895288" cy="6.515889599188338"></circle><circle class="pearl" r="2.190433937142651" cx="13.723336574191153" cy="22.762368826993256"></circle><circle class="pearl" r="2.190433937142651" cx="6.799739066258862" cy="6.518123602495521"></circle><circle class="pearl" r="2.190433937142651" cx="22.761510091336913" cy="13.8608936536041"></circle></g><g class="bobaCup bright" cupRadius="13.528898612483859" width="27.057797224967718" height="27.057797224967718" pearlRadius="2.738042421428314" pearlCount="9" transform="translate(48.736004411418506,159.02095608248658)"><circle class="pool" r="13.528898612483859" cx="13.528898612483859" cy="13.528898612483859" style="stroke-width: 1; fill: rgb(29, 145, 192);"></circle><circle class="pearl" r="2.1904339371426516" cx="15.122582034146445" cy="11.985739196876514"></circle><circle class="pearl" r="2.1904339371426516" cx="9.70808816456603" cy="17.332709167427645"></circle><circle class="pearl" r="2.1904339371426516" cx="13.58320666755083" cy="4.650832231410535"></circle><circle class="pearl" r="2.1904339371426516" cx="20.34214435524793" cy="20.56623681922252"></circle><circle class="pearl" r="2.1904339371426516" cx="4.650759426979008" cy="13.497602480596898"></circle><circle class="pearl" r="2.1904339371426516" cx="20.279894373451977" cy="6.455494841475906"></circle><circle class="pearl" r="2.1904339371426516" cx="13.502109896470317" cy="22.407047474059905"></circle><circle class="pearl" r="2.1904339371426516" cx="6.78411362116853" cy="6.451920741189074"></circle><circle class="pearl" r="2.1904339371426516" cx="22.405033864341522" cy="13.763839705782862"></circle></g><g class="bobaCup bright" cupRadius="13.448319731151688" width="26.896639462303376" height="26.896639462303376" pearlRadius="2.738042421428314" pearlCount="9" transform="translate(45.06106611729227,240.81967593361662)"><circle class="pool" r="13.448319731151688" cx="13.448319731151688" cy="13.448319731151688" style="stroke-width: 1; fill: rgb(65, 182, 196);"></circle><circle class="pearl" r="2.1904339371426516" cx="14.967003005308477" cy="11.985469959160755"></circle><circle class="pearl" r="2.1904339371426516" cx="9.522840966275838" cy="17.353724150956435"></circle><circle class="pearl" r="2.1904339371426516" cx="13.500689987365838" cy="4.650825198712658"></circle><circle class="pearl" r="2.1904339371426516" cx="20.188346118703052" cy="20.43500806556982"></circle><circle class="pearl" r="2.1904339371426516" cx="4.65074241404268" cy="13.425603561924573"></circle><circle class="pearl" r="2.1904339371426516" cx="20.132067471566142" cy="6.429217779635948"></circle><circle class="pearl" r="2.1904339371426516" cx="13.404455121565361" cy="22.245844696576345"></circle><circle class="pearl" r="2.1904339371426516" cx="6.779824494618005" cy="6.420495324352551"></circle><circle class="pearl" r="2.1904339371426516" cx="22.243037347663698" cy="13.726571546338905"></circle></g><g class="bobaCup bright" cupRadius="13.442295200423622" width="26.884590400847244" height="26.884590400847244" pearlRadius="2.7380424214283137" pearlCount="9" transform="translate(210.67636431318238,250.84482246472353)"><circle class="pool" r="13.442295200423622" cx="13.442295200423622" cy="13.442295200423622" style="stroke-width: 1; fill: rgb(127, 205, 187);"></circle><circle class="pearl" r="2.190433937142651" cx="14.955045517152387" cy="11.985769479647816"></circle><circle class="pearl" r="2.190433937142651" cx="9.508193021704516" cy="17.356032017790344"></circle><circle class="pearl" r="2.190433937142651" cx="13.494534369454916" cy="4.650824734342377"></circle><circle class="pearl" r="2.190433937142651" cx="20.176817363637273" cy="20.42520904236991"></circle><circle class="pearl" r="2.190433937142651" cx="4.650741632185401" cy="13.420051700382164"></circle><circle class="pearl" r="2.190433937142651" cx="20.121067479682022" cy="6.427286514659391"></circle><circle class="pearl" r="2.190433937142651" cx="13.397198999672588" cy="22.233791527714946"></circle><circle class="pearl" r="2.190433937142651" cx="6.779590742055978" cy="6.418102174229542"></circle><circle class="pearl" r="2.190433937142651" cx="22.230915096306166" cy="13.723998303943796"></circle></g><g class="bobaCup bright" cupRadius="13.24256255511015" width="26.4851251102203" height="26.4851251102203" pearlRadius="2.738042421428314" pearlCount="8" transform="translate(210.28476634278545,257.42410432559154)"><circle class="pool" r="13.24256255511015" cx="13.24256255511015" cy="13.24256255511015" style="stroke-width: 1; fill: rgb(127, 205, 187);"></circle><circle class="pearl" r="2.1904339371426516" cx="14.285666927343954" cy="12.705760626055858"></circle><circle class="pearl" r="2.1904339371426516" cx="8.251605257955836" cy="20.85788222080564"></circle><circle class="pearl" r="2.1904339371426516" cx="13.987110161633154" cy="4.67167045545351"></circle><circle class="pearl" r="2.1904339371426516" cx="21.55110090456161" cy="15.967081297639544"></circle><circle class="pearl" r="2.1904339371426516" cx="4.680003419121057" cy="14.122694465910143"></circle><circle class="pearl" r="2.1904339371426516" cx="20.771706869140043" cy="8.04484289446082"></circle><circle class="pearl" r="2.1904339371426516" cx="16.097078335962276" cy="21.52308840320879"></circle><circle class="pearl" r="2.1904339371426516" cx="6.55866704316276" cy="6.461269171929176"></circle></g><g class="bobaCup bright" cupRadius="12.859935335511715" width="25.71987067102343" height="25.71987067102343" pearlRadius="2.738042421428314" pearlCount="8" transform="translate(297.9605901688231,173.61374163348185)"><circle class="pool" r="12.859935335511715" cx="12.859935335511715" cy="12.859935335511715" style="stroke-width: 1; fill: rgb(127, 205, 187);"></circle><circle class="pearl" r="2.1904339371426516" cx="13.556329378614823" cy="12.921533858398066"></circle><circle class="pearl" r="2.1904339371426516" cx="6.7057753365604125" cy="19.50099015740064"></circle><circle class="pearl" r="2.1904339371426516" cx="14.215016436269494" cy="4.722316527528104"></circle><circle class="pearl" r="2.1904339371426516" cx="20.489985561126478" cy="16.675762926022976"></circle><circle class="pearl" r="2.1904339371426516" cx="4.654084577796505" cy="13.153945826292842"></circle><circle class="pearl" r="2.1904339371426516" cx="20.402718042118327" cy="8.77381861638473"></circle><circle class="pearl" r="2.1904339371426516" cx="14.267639615802185" cy="20.99186854028009"></circle><circle class="pearl" r="2.1904339371426516" cx="6.703329461144245" cy="6.220213889879451"></circle></g><g class="bobaCup bright" cupRadius="12.82704055359236" width="25.65408110718472" height="25.65408110718472" pearlRadius="2.7380424214283137" pearlCount="8" transform="translate(158.99576204309682,217.83948153424683)"><circle class="pool" r="12.82704055359236" cx="12.82704055359236" cy="12.82704055359236" style="stroke-width: 1; fill: rgb(29, 145, 192);"></circle><circle class="pearl" r="2.190433937142651" cx="13.488191589570032" cy="12.898668284761872"></circle><circle class="pearl" r="2.190433937142651" cx="6.703679847218417" cy="19.44740525046745"></circle><circle class="pearl" r="2.190433937142651" cx="14.173358851637115" cy="4.721573269167299"></circle><circle class="pearl" r="2.190433937142651" cx="20.42917996338549" cy="16.6218167695083"></circle><circle class="pearl" r="2.190433937142651" cx="4.654376982084296" cy="13.133178331494442"></circle><circle class="pearl" r="2.190433937142651" cx="20.33057213376267" cy="8.727399178095022"></circle><circle class="pearl" r="2.190433937142651" cx="14.237579489038998" cy="20.925566294081847"></circle><circle class="pearl" r="2.190433937142651" cx="6.700702238249303" cy="6.208294042665379"></circle></g><g class="bobaCup bright" cupRadius="12.765885785766383" width="25.531771571532765" height="25.531771571532765" pearlRadius="2.7380424214283132" pearlCount="8" transform="translate(216.7480415586379,252.62507500370447)"><circle class="pool" r="12.765885785766383" cx="12.765885785766383" cy="12.765885785766383" style="stroke-width: 1; fill: rgb(65, 182, 196);"></circle><circle class="pearl" r="2.1904339371426507" cx="13.363204935662905" cy="12.851195985602558"></circle><circle class="pearl" r="2.1904339371426507" cx="6.6999286315806055" cy="19.34779375824586"></circle><circle class="pearl" r="2.1904339371426507" cx="14.09398541955753" cy="4.719995636827856"></circle><circle class="pearl" r="2.1904339371426507" cx="20.317218218134457" cy="16.517908912370856"></circle><circle class="pearl" r="2.1904339371426507" cx="4.6549721372955775" cy="13.095224689870802"></circle><circle class="pearl" r="2.1904339371426507" cx="20.19505396766287" cy="8.637440145268737"></circle><circle class="pearl" r="2.1904339371426507" cx="14.183895734109045" cy="20.8020490027198"></circle><circle class="pearl" r="2.1904339371426507" cx="6.6957543789075205" cy="6.186233036717758"></circle></g><g class="bobaCup bright" cupRadius="12.696553824605179" width="25.393107649210357" height="25.393107649210357" pearlRadius="2.738042421428314" pearlCount="8" transform="translate(277.458593156867,77.80095432119973)"><circle class="pool" r="12.696553824605179" cx="12.696553824605179" cy="12.696553824605179" style="stroke-width: 1; fill: rgb(65, 182, 196);"></circle><circle class="pearl" r="2.1904339371426516" cx="13.222623580055341" cy="12.791765143710917"></circle><circle class="pearl" r="2.1904339371426516" cx="6.6959469034754875" cy="19.23489649087924"></circle><circle class="pearl" r="2.1904339371426516" cx="14.00041116253911" cy="4.717849708145444"></circle><circle class="pearl" r="2.1904339371426516" cx="20.192254416799774" cy="16.393426474214905"></circle><circle class="pearl" r="2.1904339371426516" cx="4.655739425367372" cy="13.053417472245929"></circle><circle class="pearl" r="2.1904339371426516" cx="20.038789720582674" cy="8.528651419557363"></circle><circle class="pearl" r="2.1904339371426516" cx="14.127104394188104" cy="20.6615352568512"></circle><circle class="pearl" r="2.1904339371426516" cx="6.690024817215859" cy="6.161389144543929"></circle></g><g class="bobaCup bright" cupRadius="12.66733192250465" width="25.3346638450093" height="25.3346638450093" pearlRadius="2.7380424214283137" pearlCount="8" transform="translate(145.7781081815362,14.772856910148713)"><circle class="pool" r="12.66733192250465" cx="12.66733192250465" cy="12.66733192250465" style="stroke-width: 1; fill: rgb(29, 145, 192);"></circle><circle class="pearl" r="2.190433937142651" cx="13.163120000000728" cy="12.76588400768494"></circle><circle class="pearl" r="2.190433937142651" cx="6.694371182857495" cy="19.187331053635244"></circle><circle class="pearl" r="2.190433937142651" cx="13.959620107289402" cy="4.716813574057577"></circle><circle class="pearl" r="2.190433937142651" cx="20.140309306902694" cy="16.338460016428545"></circle><circle class="pearl" r="2.190433937142651" cx="4.656096676524536" cy="13.03625687916441"></circle><circle class="pearl" r="2.190433937142651" cx="19.971924103293656" cy="8.480240868130215"></circle><circle class="pearl" r="2.190433937142651" cx="14.104691486363016" cy="20.60212797281476"></circle><circle class="pearl" r="2.190433937142651" cx="6.6875639964380404" cy="6.150975246942766"></circle></g><g class="bobaCup bright" cupRadius="12.54261159368937" width="25.08522318737874" height="25.08522318737874" pearlRadius="2.7380424214283137" pearlCount="7" transform="translate(237.35556556264288,227.1654845978466)"><circle class="pool" r="12.54261159368937" cx="12.54261159368937" cy="12.54261159368937" style="stroke-width: 1; fill: rgb(127, 205, 187);"></circle><circle class="pearl" r="2.190433937142651" cx="12.840835366502237" cy="12.591144702980138"></circle><circle class="pearl" r="2.190433937142651" cx="5.019739036848085" cy="15.56265650122654"></circle><circle class="pearl" r="2.190433937142651" cx="13.071233419742953" cy="4.66186784687522"></circle><circle class="pearl" r="2.190433937142651" cx="19.061205797412743" cy="18.249051261888283"></circle><circle class="pearl" r="2.190433937142651" cx="5.666310923715557" cy="7.598440719566411"></circle><circle class="pearl" r="2.190433937142651" cx="19.863036773195066" cy="8.799790280568512"></circle><circle class="pearl" r="2.190433937142651" cx="11.354922514005544" cy="20.378140814918858"></circle></g><g class="bobaCup bright" cupRadius="12.368584377960882" width="24.737168755921765" height="24.737168755921765" pearlRadius="2.7380424214283137" pearlCount="7" transform="translate(245.07086366492177,252.12078411139453)"><circle class="pool" r="12.368584377960882" cx="12.368584377960882" cy="12.368584377960882" style="stroke-width: 1; fill: rgb(65, 182, 196);"></circle><circle class="pearl" r="2.190433937142651" cx="12.41650849629981" cy="12.389787369955055"></circle><circle class="pearl" r="2.190433937142651" cx="4.965713510703635" cy="15.142164895586133"></circle><circle class="pearl" r="2.190433937142651" cx="13.279373808331101" cy="4.684302858731346"></circle><circle class="pearl" r="2.190433937142651" cx="18.83318081498341" cy="17.7936694691282"></circle><circle class="pearl" r="2.190433937142651" cx="5.7796497218597676" cy="7.206029763212092"></circle><circle class="pearl" r="2.190433937142651" cx="19.675274936096187" cy="9.205969155044578"></circle><circle class="pearl" r="2.190433937142651" cx="11.096212423318324" cy="20.02082620354553"></circle></g><g class="bobaCup bright" cupRadius="12.319239325392283" width="24.638478650784567" height="24.638478650784567" pearlRadius="2.7380424214283137" pearlCount="7" transform="translate(233.17632593103832,214.26249538692906)"><circle class="pool" r="12.319239325392283" cx="12.319239325392283" cy="12.319239325392283" style="stroke-width: 1;"></circle><circle class="pearl" r="2.190433937142651" cx="12.35988634719477" cy="12.335149786960166"></circle><circle class="pearl" r="2.190433937142651" cx="4.998101881916401" cy="15.224098978695148"></circle><circle class="pearl" r="2.190433937142651" cx="13.170014719298184" cy="4.6801359162350735"></circle><circle class="pearl" r="2.190433937142651" cx="18.781576013078723" cy="17.635587400336394"></circle><circle class="pearl" r="2.190433937142651" cx="5.725874420767639" cy="7.285936273794983"></circle><circle class="pearl" r="2.190433937142651" cx="19.56356580352733" cy="9.114329025355463"></circle><circle class="pearl" r="2.190433937142651" cx="11.200371576625548" cy="19.9368408609062"></circle></g><g class="bobaCup bright" cupRadius="12.201568903894422" width="24.403137807788845" height="24.403137807788845" pearlRadius="2.7380424214283137" pearlCount="7" transform="translate(271.45217253480985,21.657811249418597)"><circle class="pool" r="12.201568903894422" cx="12.201568903894422" cy="12.201568903894422" style="stroke-width: 1; fill: rgb(65, 182, 196);"></circle><circle class="pearl" r="2.190433937142651" cx="12.221375170515019" cy="12.208761747731687"></circle><circle class="pearl" r="2.190433937142651" cx="5.0597359250045635" cy="15.334283670731278"></circle><circle class="pearl" r="2.190433937142651" cx="12.962463835777996" cy="4.6744712018097605"></circle><circle class="pearl" r="2.190433937142651" cx="18.737532337509908" cy="17.07356287336323"></circle><circle class="pearl" r="2.190433937142651" cx="5.633270195227604" cy="7.404504125484814"></circle><circle class="pearl" r="2.190433937142651" cx="19.310684680491843" cy="8.948190615253404"></circle><circle class="pearl" r="2.190433937142651" cx="11.336911657568542" cy="19.72173929752132"></circle></g><g class="bobaCup bright" cupRadius="12.095862395598797" width="24.191724791197593" height="24.191724791197593" pearlRadius="2.7380424214283137" pearlCount="7" transform="translate(202.06512465520424,63.75883439621653)"><circle class="pool" r="12.095862395598797" cx="12.095862395598797" cy="12.095862395598797" style="stroke-width: 1; fill: rgb(65, 182, 196);"></circle><circle class="pearl" r="2.190433937142651" cx="12.10388397391633" cy="12.097797209718848"></circle><circle class="pearl" r="2.190433937142651" cx="5.127624500002399" cy="15.458841653391772"></circle><circle class="pearl" r="2.190433937142651" cx="12.700328345638132" cy="4.665836143756669"></circle><circle class="pearl" r="2.190433937142651" cx="18.656116301331057" cy="16.637214483621552"></circle><circle class="pearl" r="2.190433937142651" cx="5.538494500689094" cy="7.547392272468138"></circle><circle class="pearl" r="2.190433937142651" cx="19.049557177461438" cy="8.68303809124581"></circle><circle class="pearl" r="2.190433937142651" cx="11.451400403272999" cy="19.523821041872687"></circle></g><g class="bobaCup bright" cupRadius="11.856825437266341" width="23.713650874532682" height="23.713650874532682" pearlRadius="2.738042421428314" pearlCount="7" transform="translate(180.8140445528997,97.62638257255757)"><circle class="pool" r="11.856825437266341" cx="11.856825437266341" cy="11.856825437266341" style="stroke-width: 1; fill: rgb(29, 145, 192);"></circle><circle class="pearl" r="2.1904339371426516" cx="11.873092676247705" cy="11.867501080527802"></circle><circle class="pearl" r="2.1904339371426516" cx="4.897061601181546" cy="14.261175572181106"></circle><circle class="pearl" r="2.1904339371426516" cx="13.368390477739016" cy="4.747468709551967"></circle><circle class="pearl" r="2.1904339371426516" cx="17.796514461009068" cy="17.188567908152166"></circle><circle class="pearl" r="2.1904339371426516" cx="5.922753162817894" cy="6.513941046877226"></circle><circle class="pearl" r="2.1904339371426516" cx="18.796516349747346" cy="9.357503631514652"></circle><circle class="pearl" r="2.1904339371426516" cx="10.264759050422935" cy="18.955554709543524"></circle></g><g class="bobaCup bright" cupRadius="11.833614365720202" width="23.667228731440403" height="23.667228731440403" pearlRadius="2.7380424214283137" pearlCount="7" transform="translate(82.28986484430311,127.60972345142949)"><circle class="pool" r="11.833614365720202" cx="11.833614365720202" cy="11.833614365720202" style="stroke-width: 1; fill: rgb(29, 145, 192);"></circle><circle class="pearl" r="2.190433937142651" cx="11.858670759957626" cy="11.851634501585634"></circle><circle class="pearl" r="2.190433937142651" cx="4.842755377975715" cy="13.956817713811134"></circle><circle class="pearl" r="2.190433937142651" cx="13.595073359768826" cy="4.7825560560440135"></circle><circle class="pearl" r="2.190433937142651" cx="17.630460247655034" cy="17.390837470633493"></circle><circle class="pearl" r="2.190433937142651" cx="6.051493449095572" cy="6.248796374179652"></circle><circle class="pearl" r="2.190433937142651" cx="18.803997714117276" cy="9.601057337707962"></circle><circle class="pearl" r="2.190433937142651" cx="9.992164961646791" cy="18.872351905243477"></circle></g><g class="bobaCup bright" cupRadius="11.604814381876263" width="23.209628763752526" height="23.209628763752526" pearlRadius="2.7380424214283137" pearlCount="6" transform="translate(248.2426558966919,204.67616255818632)"><circle class="pool" r="11.604814381876263" cx="11.604814381876263" cy="11.604814381876263" style="stroke-width: 1; fill: rgb(65, 182, 196);"></circle><circle class="pearl" r="2.190433937142651" cx="11.974098455178533" cy="11.934325293155167"></circle><circle class="pearl" r="2.190433937142651" cx="6.182301004434942" cy="17.21411383891714"></circle><circle class="pearl" r="2.190433937142651" cx="9.767252805714715" cy="4.797130902199607"></circle><circle class="pearl" r="2.190433937142651" cx="17.037012469798146" cy="17.20898953268369"></circle><circle class="pearl" r="2.190433937142651" cx="4.78174966773353" cy="9.865875888588711"></circle><circle class="pearl" r="2.190433937142651" cx="17.14497399180876" cy="6.058560198769182"></circle></g><g class="bobaCup bright" cupRadius="11.443647845488465" width="22.88729569097693" height="22.88729569097693" pearlRadius="2.7380424214283137" pearlCount="6" transform="translate(65.26902236157073,215.98465739251466)"><circle class="pool" r="11.443647845488465" cx="11.443647845488465" cy="11.443647845488465" style="stroke-width: 1; fill: rgb(127, 205, 187);"></circle><circle class="pearl" r="2.190433937142651" cx="11.837042104459933" cy="11.789615145965767"></circle><circle class="pearl" r="2.190433937142651" cx="6.148094897090859" cy="16.937587991434558"></circle><circle class="pearl" r="2.190433937142651" cx="9.605229999959779" cy="4.799359084831984"></circle><circle class="pearl" r="2.190433937142651" cx="16.72343653025629" cy="16.94580142380076"></circle><circle class="pearl" r="2.190433937142651" cx="4.778409357158127" cy="9.738923107246482"></circle><circle class="pearl" r="2.190433937142651" cx="16.839331180999995" cy="6.002608227339659"></circle></g><g class="bobaCup bright" cupRadius="11.429824053455107" width="22.859648106910214" height="22.859648106910214" pearlRadius="2.7380424214283137" pearlCount="6" transform="translate(223.9362084090007,9.45625084484682)"><circle class="pool" r="11.429824053455107" cx="11.429824053455107" cy="11.429824053455107" style="stroke-width: 1; fill: rgb(127, 205, 187);"></circle><circle class="pearl" r="2.190433937142651" cx="11.825858681361334" cy="11.77691414529652"></circle><circle class="pearl" r="2.190433937142651" cx="6.147597447726314" cy="16.915123712519577"></circle><circle class="pearl" r="2.190433937142651" cx="9.590427528838275" cy="4.799700757134168"></circle><circle class="pearl" r="2.190433937142651" cx="16.69649370248729" cy="16.923215803575072"></circle><circle class="pearl" r="2.190433937142651" cx="4.777856154634991" cy="9.729809003011974"></circle><circle class="pearl" r="2.190433937142651" cx="16.812932059120243" cy="5.997738839321112"></circle></g><g class="bobaCup bright" cupRadius="11.376308023209202" width="22.752616046418403" height="22.752616046418403" pearlRadius="2.7380424214283132" pearlCount="6" transform="translate(261.305899500791,189.2913636880083)"><circle class="pool" r="11.376308023209202" cx="11.376308023209202" cy="11.376308023209202" style="stroke-width: 1; fill: rgb(29, 145, 192);"></circle><circle class="pearl" r="2.1904339371426507" cx="11.782746290129172" cy="11.727632354005994"></circle><circle class="pearl" r="2.1904339371426507" cx="6.145674073115944" cy="16.828101942313037"></circle><circle class="pearl" r="2.1904339371426507" cx="9.532991448547024" cy="4.80105386695941"></circle><circle class="pearl" r="2.1904339371426507" cx="16.59217287694079" cy="16.835735044092456"></circle><circle class="pearl" r="2.1904339371426507" cx="4.775697977002131" cy="9.694676738175552"></circle><circle class="pearl" r="2.1904339371426507" cx="16.71068239078443" cy="5.9789053396765555"></circle></g><g class="bobaCup bright" cupRadius="11.373810404211351" width="22.747620808422703" height="22.747620808422703" pearlRadius="2.7380424214283137" pearlCount="6" transform="translate(234.303198998445,226.52324171972595)"><circle class="pool" r="11.373810404211351" cx="11.373810404211351" cy="11.373810404211351" style="stroke-width: 1; fill: rgb(29, 145, 192);"></circle><circle class="pearl" r="2.190433937142651" cx="11.780741461302528" cy="11.725327867702894"></circle><circle class="pearl" r="2.190433937142651" cx="6.145584425845776" cy="16.824038429363338"></circle><circle class="pearl" r="2.190433937142651" cx="9.53030563996159" cy="4.801118230368836"></circle><circle class="pearl" r="2.190433937142651" cx="16.587303472022136" cy="16.831650532657687"></circle><circle class="pearl" r="2.190433937142651" cx="4.775596591623787" cy="9.693043152330448"></circle><circle class="pearl" r="2.190433937142651" cx="16.705908316457773" cy="5.978027027739879"></circle></g><g class="bobaCup bright" cupRadius="11.15245752694589" width="22.30491505389178" height="22.30491505389178" pearlRadius="2.738042421428314" pearlCount="6" transform="translate(185.35701204485346,116.77533179173996)"><circle class="pool" r="11.15245752694589" cx="11.15245752694589" cy="11.15245752694589" style="stroke-width: 1; fill: rgb(65, 182, 196);"></circle><circle class="pearl" r="2.1904339371426516" cx="11.605919202045763" cy="11.519318285466662"></circle><circle class="pearl" r="2.1904339371426516" cx="6.137720401679481" cy="16.463145867766304"></circle><circle class="pearl" r="2.1904339371426516" cx="9.290193430139205" cy="4.807305104888835"></circle><circle class="pearl" r="2.1904339371426516" cx="16.155440477989377" cy="16.469054423759573"></circle><circle class="pearl" r="2.1904339371426516" cx="4.76634678592734" cy="9.550706978937757"></circle><circle class="pearl" r="2.1904339371426516" cx="16.281985195620276" cy="5.90039050293483"></circle></g><g class="bobaCup bright" cupRadius="11.118175946813624" width="22.236351893627248" height="22.236351893627248" pearlRadius="2.7380424214283137" pearlCount="6" transform="translate(79.56010311271515,259.14514116253133)"><circle class="pool" r="11.118175946813624" cx="11.118175946813624" cy="11.118175946813624" style="stroke-width: 1; fill: rgb(29, 145, 192);"></circle><circle class="pearl" r="2.190433937142651" cx="11.57940365320948" cy="11.487064420746545"></circle><circle class="pearl" r="2.190433937142651" cx="6.136524321302588" cy="16.40711988904601"></circle><circle class="pearl" r="2.190433937142651" cx="9.252596273028496" cy="4.8083586383005645"></circle><circle class="pearl" r="2.190433937142651" cx="16.0884904610549" cy="16.412793839281452"></circle><circle class="pearl" r="2.190433937142651" cx="4.76486193309082" cy="9.529150851192371"></circle><circle class="pearl" r="2.190433937142651" cx="16.216167806065652" cy="5.888397397271156"></circle></g><g class="bobaCup bright" cupRadius="10.912871420628038" width="21.825742841256076" height="21.825742841256076" pearlRadius="2.7380424214283137" pearlCount="5" transform="translate(124.68514411005042,129.4156006354552)"><circle class="pool" r="10.912871420628038" cx="10.912871420628038" cy="10.912871420628038" style="stroke-width: 1; fill: rgb(29, 145, 192);"></circle><circle class="pearl" r="2.190433937142651" cx="16.828838778898838" cy="8.186002761321657"></circle><circle class="pearl" r="2.190433937142651" cx="8.106833117518388" cy="16.808091093696508"></circle><circle class="pearl" r="2.190433937142651" cx="10.084742680061218" cy="4.682190078455168"></circle><circle class="pearl" r="2.190433937142651" cx="15.915095771415846" cy="15.961040612717454"></circle><circle class="pearl" r="2.190433937142651" cx="4.687980915267522" cy="10.01187832771413"></circle></g><g class="bobaCup bright" cupRadius="10.802507751261121" width="21.605015502522242" height="21.605015502522242" pearlRadius="2.738042421428314" pearlCount="5" transform="translate(65.9675723084671,218.35196078783997)"><circle class="pool" r="10.802507751261121" cx="10.802507751261121" cy="10.802507751261121" style="stroke-width: 1; fill: rgb(65, 182, 196);"></circle><circle class="pearl" r="2.1904339371426516" cx="16.602698282675963" cy="8.068906592095164"></circle><circle class="pearl" r="2.1904339371426516" cx="7.950520485944896" cy="16.57101397378337"></circle><circle class="pearl" r="2.1904339371426516" cx="9.986275111928308" cy="4.681604454810815"></circle><circle class="pearl" r="2.1904339371426516" cx="15.710129945119906" cy="15.775163249436755"></circle><circle class="pearl" r="2.1904339371426516" cx="4.69085909883986" cy="9.87217167688697"></circle></g><g class="bobaCup bright" cupRadius="10.775842353240533" width="21.551684706481065" height="21.551684706481065" pearlRadius="2.7380424214283137" pearlCount="5" transform="translate(215.04983463561675,258.8973743502536)"><circle class="pool" r="10.775842353240533" cx="10.775842353240533" cy="10.775842353240533" style="stroke-width: 1; fill: rgb(29, 145, 192);"></circle><circle class="pearl" r="2.190433937142651" cx="16.54810260319814" cy="8.040848051928299"></circle><circle class="pearl" r="2.190433937142651" cx="7.9122190300678215" cy="16.513499166084653"></circle><circle class="pearl" r="2.190433937142651" cx="9.96313118789422" cy="4.681414164376221"></circle><circle class="pearl" r="2.190433937142651" cx="15.660564742257538" cy="15.730235761344321"></circle><circle class="pearl" r="2.190433937142651" cx="4.691631488611069" cy="9.83777602481116"></circle></g><g class="bobaCup bright" cupRadius="10.737852144603902" width="21.475704289207805" height="21.475704289207805" pearlRadius="2.7380424214283132" pearlCount="5" transform="translate(77.50125817996276,242.07613676537892)"><circle class="pool" r="10.737852144603902" cx="10.737852144603902" cy="10.737852144603902" style="stroke-width: 1; fill: rgb(29, 145, 192);"></circle><circle class="pearl" r="2.1904339371426507" cx="16.470359261260537" cy="8.001066388042581"></circle><circle class="pearl" r="2.1904339371426507" cx="7.857245942199437" cy="16.431382228188486"></circle><circle class="pearl" r="2.1904339371426507" cx="9.930657486118776" cy="4.6811057625392545"></circle><circle class="pearl" r="2.1904339371426507" cx="15.589914517562566" cy="15.66621861225622"></circle><circle class="pearl" r="2.1904339371426507" cx="4.692792118641424" cy="9.788278950261278"></circle></g><g class="bobaCup bright" cupRadius="10.532919655149644" width="21.06583931029929" height="21.06583931029929" pearlRadius="2.7380424214283137" pearlCount="5" transform="translate(88.21050345077839,255.36763232564593)"><circle class="pool" r="10.532919655149644" cx="10.532919655149644" cy="10.532919655149644" style="stroke-width: 1; fill: rgb(127, 205, 187);"></circle><circle class="pearl" r="2.190433937142651" cx="16.052250994668253" cy="7.792046337406621"></circle><circle class="pearl" r="2.190433937142651" cx="7.550518133689426" cy="15.984061483419769"></circle><circle class="pearl" r="2.190433937142651" cx="9.768435227113583" cy="4.678503188260793"></circle><circle class="pearl" r="2.190433937142651" cx="15.207828256207389" cy="15.320820586571056"></circle><circle class="pearl" r="2.190433937142651" cx="4.700657201680945" cy="9.50851365556423"></circle></g><g class="bobaCup bright" cupRadius="10.318601784309088" width="20.637203568618176" height="20.637203568618176" pearlRadius="2.738042421428314" pearlCount="5" transform="translate(157.7261252419334,106.05833958163208)"><circle class="pool" r="10.318601784309088" cx="10.318601784309088" cy="10.318601784309088" style="stroke-width: 1; fill: rgb(127, 205, 187);"></circle><circle class="pearl" r="2.1904339371426516" cx="15.619842409666969" cy="7.592439970836156"></circle><circle class="pearl" r="2.1904339371426516" cx="7.201514661571614" cy="15.504407956518083"></circle><circle class="pearl" r="2.1904339371426516" cx="9.636722062501402" cy="4.673278061349009"></circle><circle class="pearl" r="2.1904339371426516" cx="14.805038184979793" cy="14.960102789250858"></circle><circle class="pearl" r="2.1904339371426516" cx="4.713866412072324" cy="9.178815984141794"></circle></g><g class="bobaCup bright" cupRadius="9.841542093636328" width="19.683084187272655" height="19.683084187272655" pearlRadius="2.738042421428314" pearlCount="4" transform="translate(228.52941631539326,250.99603042215304)"><circle class="pool" r="9.841542093636328" cx="9.841542093636328" cy="9.841542093636328" style="stroke-width: 1; fill: rgb(127, 205, 187);"></circle><circle class="pearl" r="2.1904339371426516" cx="14.388967561289231" cy="6.34154047321261"></circle><circle class="pearl" r="2.1904339371426516" cx="5.658432582503336" cy="13.200406882861266"></circle><circle class="pearl" r="2.1904339371426516" cx="6.4692237477572885" cy="5.246540918199722"></circle><circle class="pearl" r="2.1904339371426516" cx="13.578176396035461" cy="14.295406437874338"></circle></g><g class="bobaCup bright" cupRadius="9.820769592220168" width="19.641539184440337" height="19.641539184440337" pearlRadius="2.7380424214283137" pearlCount="4" transform="translate(263.064868508483,154.92972106414874)"><circle class="pool" r="9.820769592220168" cx="9.820769592220168" cy="9.820769592220168" style="stroke-width: 1; fill: rgb(65, 182, 196);"></circle><circle class="pearl" r="2.190433937142651" cx="14.337828678105051" cy="6.299508054329991"></circle><circle class="pearl" r="2.190433937142651" cx="5.621625151596393" cy="13.217981411618316"></circle><circle class="pearl" r="2.190433937142651" cx="6.4103617554496966" cy="5.261898162481321"></circle><circle class="pearl" r="2.190433937142651" cx="13.549092074251872" cy="14.255591303467124"></circle></g><g class="bobaCup bright" cupRadius="9.747948873757078" width="19.495897747514157" height="19.495897747514157" pearlRadius="2.738042421428314" pearlCount="4" transform="translate(300.7181132751445,251.95799949868626)"><circle class="pool" r="9.747948873757078" cx="9.747948873757078" cy="9.747948873757078" style="stroke-width: 1; fill: rgb(127, 205, 187);"></circle><circle class="pearl" r="2.1904339371426516" cx="14.156948939083737" cy="6.150182749703355"></circle><circle class="pearl" r="2.1904339371426516" cx="5.500202290189155" cy="13.281150590406432"></circle><circle class="pearl" r="2.1904339371426516" cx="6.205373706400832" cy="5.317225718132926"></circle><circle class="pearl" r="2.1904339371426516" cx="13.45177752287209" cy="14.114107621976903"></circle></g><g class="bobaCup bright" cupRadius="9.680436395206076" width="19.360872790412152" height="19.360872790412152" pearlRadius="2.7380424214283137" pearlCount="4" transform="translate(172.56937378663284,277.3588164681661)"><circle class="pool" r="9.680436395206076" cx="9.680436395206076" cy="9.680436395206076" style="stroke-width: 1; fill: rgb(29, 145, 192);"></circle><circle class="pearl" r="2.190433937142651" cx="13.988425845573357" cy="6.012696500139986"></circle><circle class="pearl" r="2.190433937142651" cx="5.3918936093824765" cy="13.34020665125716"></circle><circle class="pearl" r="2.190433937142651" cx="6.019234187218535" cy="5.369773168888745"></circle><circle class="pearl" r="2.190433937142651" cx="13.361085267737305" cy="13.983129982508412"></circle></g><g class="bobaCup bright" cupRadius="9.651155399460505" width="19.30231079892101" height="19.30231079892101" pearlRadius="2.7380424214283137" pearlCount="4" transform="translate(204.0593633836245,10.348844600539495)"><circle class="pool" r="9.651155399460505" cx="9.651155399460505" cy="9.651155399460505" style="stroke-width: 1; fill: rgb(29, 145, 192);"></circle><circle class="pearl" r="2.190433937142651" cx="13.903708067899533" cy="5.926040790988114"></circle><circle class="pearl" r="2.190433937142651" cx="5.398602731021477" cy="13.376270007932897"></circle><circle class="pearl" r="2.190433937142651" cx="5.926040790988114" cy="5.398602731021477"></circle><circle class="pearl" r="2.190433937142651" cx="13.376270007932897" cy="13.903708067899533"></circle></g><g class="bobaCup bright" cupRadius="9.645648155105645" width="19.29129631021129" height="19.29129631021129" pearlRadius="2.7380424214283132" pearlCount="4" transform="translate(194.46129734333684,40.75469250654418)"><circle class="pool" r="9.645648155105645" cx="9.645648155105645" cy="9.645648155105645" style="stroke-width: 1; fill: rgb(127, 205, 187);"></circle><circle class="pearl" r="2.1904339371426507" cx="13.886775480914462" cy="5.907530707690866"></circle><circle class="pearl" r="2.1904339371426507" cx="5.404520829296827" cy="13.383765602520423"></circle><circle class="pearl" r="2.1904339371426507" cx="5.907530707690866" cy="5.404520829296829"></circle><circle class="pearl" r="2.1904339371426507" cx="13.383765602520425" cy="13.886775480914462"></circle></g><g class="bobaCup bright" cupRadius="9.491003287635637" width="18.982006575271274" height="18.982006575271274" pearlRadius="2.738042421428314" pearlCount="4" transform="translate(22.856624568990412,28.05986983071815)"><circle class="pool" r="9.491003287635637" cx="9.491003287635637" cy="9.491003287635637" style="stroke-width: 1; fill: rgb(127, 205, 187);"></circle><circle class="pearl" r="2.1904339371426516" cx="13.454670600517293" cy="5.518010099330295"></circle><circle class="pearl" r="2.1904339371426516" cx="5.527323173694661" cy="13.46399059225497"></circle><circle class="pearl" r="2.1904339371426516" cx="5.527341437513542" cy="5.518007588516815"></circle><circle class="pearl" r="2.1904339371426516" cx="13.454652336522077" cy="13.46400487048868"></circle></g><g class="bobaCup bright" cupRadius="9.464306891639074" width="18.92861378327815" height="18.92861378327815" pearlRadius="2.7380424214283132" pearlCount="4" transform="translate(143.587417448008,156.1154696553122)"><circle class="pool" r="9.464306891639074" cx="9.464306891639074" cy="9.464306891639074" style="stroke-width: 1; fill: rgb(65, 182, 196);"></circle><circle class="pearl" r="2.1904339371426507" cx="13.403195337059795" cy="5.509319065703505"></circle><circle class="pearl" r="2.1904339371426507" cx="5.52537980710417" cy="13.419277032102482"></circle><circle class="pearl" r="2.1904339371426507" cx="5.525434953650838" cy="5.509311510166273"></circle><circle class="pearl" r="2.1904339371426507" cx="13.403140188903766" cy="13.419319959021163"></circle></g><g class="bobaCup bright" cupRadius="9.170254912005309" width="18.340509824010617" height="18.340509824010617" pearlRadius="2.7380424214283137" pearlCount="4" transform="translate(56.458890909802506,235.6324105980742)"><circle class="pool" r="9.170254912005309" cx="9.170254912005309" cy="9.170254912005309" style="stroke-width: 1; fill: rgb(127, 205, 187);"></circle><circle class="pearl" r="2.190433937142651" cx="12.837079576879272" cy="5.415743341462841"></circle><circle class="pearl" r="2.190433937142651" cx="5.5021046711743615" cy="12.924188069143835"></circle><circle class="pearl" r="2.190433937142651" cx="5.504004293940035" cy="5.415492934076207"></circle><circle class="pearl" r="2.190433937142651" cx="12.835178019023626" cy="12.925595790422744"></circle></g><g class="bobaCup bright" cupRadius="8.47437393757881" width="16.94874787515762" height="16.94874787515762" pearlRadius="2.7380424214283137" pearlCount="3" transform="translate(186.49239082783745,239.6137590699331)"><circle class="pool" r="8.47437393757881" cx="8.47437393757881" cy="8.47437393757881" style="stroke-width: 1; fill: rgb(65, 182, 196);"></circle><circle class="pearl" r="2.190433937142651" cx="12.69053845028997" cy="10.036596356721775"></circle><circle class="pearl" r="2.190433937142651" cx="4.709261470013283" cy="11.470036350795173"></circle><circle class="pearl" r="2.190433937142651" cx="7.84944929898767" cy="3.6737965070799117"></circle></g><g class="bobaCup bright" cupRadius="8.465411501444443" width="16.930823002888886" height="16.930823002888886" pearlRadius="2.7380424214283137" pearlCount="3" transform="translate(44.15032000749906,238.83761314178525)"><circle class="pool" r="8.465411501444443" cx="8.465411501444443" cy="8.465411501444443" style="stroke-width: 1; fill: rgb(29, 145, 192);"></circle><circle class="pearl" r="2.190433937142651" cx="12.68489510876237" cy="10.031094446237523"></circle><circle class="pearl" r="2.190433937142651" cx="4.70161213796606" cy="11.45863516733584"></circle><circle class="pearl" r="2.190433937142651" cx="7.836126322450031" cy="3.6741449140843443"></circle></g><g class="bobaCup bright" cupRadius="8.027510654368863" width="16.055021308737725" height="16.055021308737725" pearlRadius="2.7380424214283137" pearlCount="3" transform="translate(227.93595801660788,232.98821702343304)"><circle class="pool" r="8.027510654368863" cx="8.027510654368863" cy="8.027510654368863" style="stroke-width: 1; fill: rgb(127, 205, 187);"></circle><circle class="pearl" r="2.190433937142651" cx="12.18311172524853" cy="9.898934774607328"></circle><circle class="pearl" r="2.190433937142651" cx="4.301968114354052" cy="11.19478560567851"></circle><circle class="pearl" r="2.190433937142651" cx="7.136378623033848" cy="3.700338733921358"></circle></g><g class="bobaCup bright" cupRadius="8.013152108830973" width="16.026304217661945" height="16.026304217661945" pearlRadius="2.738042421428314" pearlCount="3" transform="translate(82.17265947401594,103.56707901282442)"><circle class="pool" r="8.013152108830973" cx="8.013152108830973" cy="8.013152108830973" style="stroke-width: 1; fill: rgb(127, 205, 187);"></circle><circle class="pearl" r="2.1904339371426516" cx="12.187657547702075" cy="9.73837760757113"></circle><circle class="pearl" r="2.1904339371426516" cx="4.466938339453293" cy="11.536602770727416"></circle><circle class="pearl" r="2.1904339371426516" cx="6.949642192313807" cy="3.721611593561017"></circle></g><g class="bobaCup bright" cupRadius="7.867742190363085" width="15.73548438072617" height="15.73548438072617" pearlRadius="2.7380424214283137" pearlCount="3" transform="translate(47.20262284488267,201.42805889995824)"><circle class="pool" r="7.867742190363085" cx="7.867742190363085" cy="7.867742190363085" style="stroke-width: 1; fill: rgb(127, 205, 187);"></circle><circle class="pearl" r="2.190433937142651" cx="11.962849936943021" cy="9.247405076147249"></circle><circle class="pearl" r="2.190433937142651" cx="4.474940540225598" cy="11.31562897621339"></circle><circle class="pearl" r="2.190433937142651" cx="6.258221093745582" cy="3.8171143028271723"></circle></g><g class="bobaCup bright" cupRadius="7.8423480898105735" width="15.684696179621147" height="15.684696179621147" pearlRadius="2.7380424214283137" pearlCount="3" transform="translate(30.601440855136882,99.34541716522985)"><circle class="pool" r="7.8423480898105735" cx="7.8423480898105735" cy="7.8423480898105735" style="stroke-width: 1; fill: rgb(65, 182, 196);"></circle><circle class="pearl" r="2.190433937142651" cx="11.916816850536197" cy="9.192841440501908"></circle><circle class="pearl" r="2.190433937142651" cx="4.477463368885502" cy="11.275407352016613"></circle><circle class="pearl" r="2.190433937142651" cx="6.185284121476206" cy="3.8277883773152617"></circle></g><g class="bobaCup bright" cupRadius="7.813250445468664" width="15.626500890937328" height="15.626500890937328" pearlRadius="2.7380424214283137" pearlCount="3" transform="translate(235.93144835907316,248.67462196928085)"><circle class="pool" r="7.813250445468664" cx="7.813250445468664" cy="7.813250445468664" style="stroke-width: 1; fill: rgb(29, 145, 192);"></circle><circle class="pearl" r="2.190433937142651" cx="11.865259835254646" cy="9.12275139381286"></circle><circle class="pearl" r="2.190433937142651" cx="4.4809132201053306" cy="11.229521708198252"></circle><circle class="pearl" r="2.190433937142651" cx="6.094557633259928" cy="3.842098737983772"></circle></g><g class="bobaCup bright" cupRadius="7.556458338426124" width="15.112916676852247" height="15.112916676852247" pearlRadius="2.7380424214283137" pearlCount="2" transform="translate(67.87855139408703,208.91465938763824)"><circle class="pool" r="7.556458338426124" cx="7.556458338426124" cy="7.556458338426124" style="stroke-width: 1; fill: rgb(29, 145, 192);"></circle><circle class="pearl" r="2.190433937142651" cx="11.275492964565519" cy="6.7406099066027805"></circle><circle class="pearl" r="2.190433937142651" cx="4.360058679286005" cy="10.752857997566243"></circle></g><g class="bobaCup bright" cupRadius="7.231041173497701" width="14.462082346995402" height="14.462082346995402" pearlRadius="2.738042421428314" pearlCount="2" transform="translate(157.81440456053394,41.225353362057945)"><circle class="pool" r="7.231041173497701" cx="7.231041173497701" cy="7.231041173497701" style="stroke-width: 1; fill: rgb(65, 182, 196);"></circle><circle class="pearl" r="2.1904339371426516" cx="10.512612052146281" cy="5.174039748163603"></circle><circle class="pearl" r="2.1904339371426516" cx="4.280208940578172" cy="10.181874245222946"></circle></g><g class="bobaCup bright" cupRadius="7.038058590362336" width="14.076117180724673" height="14.076117180724673" pearlRadius="2.7380424214283132" pearlCount="2" transform="translate(76.86345855478591,214.8769369471876)"><circle class="pool" r="7.038058590362336" cx="7.038058590362336" cy="7.038058590362336" style="stroke-width: 1; fill: rgb(29, 145, 192);"></circle><circle class="pearl" r="2.1904339371426507" cx="9.836810388355605" cy="4.231130768078898"></circle><circle class="pearl" r="2.1904339371426507" cx="4.239306792369067" cy="9.844986412645774"></circle></g><g class="bobaCup bright" cupRadius="6.67657893799278" width="13.35315787598556" height="13.35315787598556" pearlRadius="2.738042421428314" pearlCount="2" transform="translate(243.88267876409347,54.592798272149686)"><circle class="pool" r="6.67657893799278" cx="6.67657893799278" cy="6.67657893799278" style="stroke-width: 1; fill: rgb(127, 205, 187);"></circle><circle class="pearl" r="2.1904339371426516" cx="9.130526272461996" cy="4.118047074775461"></circle><circle class="pearl" r="2.1904339371426516" cx="4.222631603523565" cy="9.2351108012101"></circle></g><g class="bobaCup bright" cupRadius="6.47752118008699" width="12.95504236017398" height="12.95504236017398" pearlRadius="2.738042421428314" pearlCount="2" transform="translate(69.89424751640907,293.52247881991303)"><circle class="pool" r="6.47752118008699" cx="6.47752118008699" cy="6.47752118008699" style="stroke-width: 1; fill: rgb(29, 145, 192);"></circle><circle class="pearl" r="2.1904339371426516" cx="8.741774656644047" cy="4.059353502374224"></circle><circle class="pearl" r="2.1904339371426516" cx="4.213267703529933" cy="8.895688857799758"></circle></g><g class="bobaCup bright" cupRadius="4.930895763566411" width="9.861791527132821" height="9.861791527132821" pearlRadius="2.7380424214283137" pearlCount="1" transform="translate(315.0691042364336,116.33382299413952)"><circle class="pool" r="4.930895763566411" cx="4.930895763566411" cy="4.930895763566411" style="stroke-width: 1; fill: rgb(127, 205, 187);"></circle><circle class="pearl" r="2.190433937142651" cx="6.211068298561736" cy="4.930895763566411"></circle></g><g class="bobaCup bright" cupRadius="3.1769825318230396" width="6.353965063646079" height="6.353965063646079" pearlRadius="2.738042421428314" pearlCount="0" transform="translate(230.14541197500276,218.07449976013416)"><circle class="pool" r="3.1769825318230396" cx="3.1769825318230396" cy="3.1769825318230396" style="stroke-width: 1; fill: rgb(65, 182, 196);"></circle></g><g class="bobaCup bright" cupRadius="0" width="0" height="0" pearlRadius="NaN" pearlCount="0" transform="translate(153.82039556926088,145.19024045181408)"><circle class="pool" r="0" cx="0" cy="0" style="stroke-width: 1; fill: rgb(127, 205, 187);"></circle></g></g><g id="legendDividerGroup" transform="translate(410,0)" height="400"><rect class="legendDivider" height="400" width="90"></rect></g><g id="legend" transform="translate(410,15.985372119435226)" width="90" height="320"><rect class="legendBorder" transform="translate(0,0)" width="90" height="348.02925576112955"></rect><text id="rTitle" text-anchor="middle" alignment-baseline="hanging" transform="translate(45,0)" x="0" y="0" style="fill: black; font-size: 0.8rem;">Population</text><text id="bobaValue" text-anchor="middle" alignment-baseline="hanging" transform="translate(45,15)" x="0" y="0" style="fill: black; font-size: 0.7rem;">(1 Pearl =   75)</text><g class="bright" cupRadius="3.1769825318230396" width="6.353965063646079" height="6.353965063646079" pearlRadius="2.738042421428314" pearlCount="0" transform="translate(41.82301746817696,40)"><circle class="pool" r="3.1769825318230396" cx="3.1769825318230396" cy="3.1769825318230396" style="stroke-width: 1; fill: rgb(127, 205, 187);"></circle></g><text id="0" class="legendSampleValue" text-anchor="middle" transform="translate(45,8)" x="0" y="51.35396506364608" style="fill: black; font-size: 0.7rem;">  38</text><g class="bright" cupRadius="9.384805507095338" width="18.769611014190676" height="18.769611014190676" pearlRadius="2.738042421428314" pearlCount="4" transform="translate(35.61519449290466,71.35396506364609)"><circle class="pool" r="9.384805507095338" cx="9.384805507095338" cy="9.384805507095338" style="stroke-width: 1; fill: rgb(127, 205, 187);"></circle><circle class="pearl" r="2.1904339371426516" cx="13.249977977636533" cy="5.48362741613651"></circle><circle class="pearl" r="2.1904339371426516" cx="5.519432204020783" cy="13.285892825647327"></circle><circle class="pearl" r="2.1904339371426516" cx="5.519719132024912" cy="5.483588504394227"></circle><circle class="pearl" r="2.1904339371426516" cx="13.249691005919725" cy="13.286113293843595"></circle></g><text id="1" class="legendSampleValue" text-anchor="middle" transform="translate(45,8)" x="0" y="95.12357607783676" style="fill: black; font-size: 0.7rem;"> 330</text><g class="bright" cupRadius="12.886269080090841" width="25.772538160181682" height="25.772538160181682" pearlRadius="2.7380424214283137" pearlCount="8" transform="translate(32.11373091990916,115.12357607783676)"><circle class="pool" r="12.886269080090841" cx="12.886269080090841" cy="12.886269080090841" style="stroke-width: 1; fill: rgb(127, 205, 187);"></circle><circle class="pearl" r="2.190433937142651" cx="13.611124033115663" cy="12.938995774479796"></circle><circle class="pearl" r="2.190433937142651" cx="6.707486205011442" cy="19.54388671068786"></circle><circle class="pearl" r="2.190433937142651" cx="14.247914491264119" cy="4.722865238169142"></circle><circle class="pearl" r="2.190433937142651" cx="20.53892016800299" cy="16.718097786205714"></circle><circle class="pearl" r="2.190433937142651" cx="4.653863166315514" cy="13.170723480882618"></circle><circle class="pearl" r="2.190433937142651" cx="20.460150841740973" cy="8.810123396045222"></circle><circle class="pearl" r="2.190433937142651" cx="14.292221774509704" cy="21.044887279772873"></circle><circle class="pearl" r="2.190433937142651" cx="6.705417981137915" cy="6.22978175534341"></circle></g><text id="2" class="legendSampleValue" text-anchor="middle" transform="translate(45,8)" x="0" y="145.89611423801844" style="fill: black; font-size: 0.7rem;"> 620</text><g class="bright" cupRadius="15.621692840502385" width="31.24338568100477" height="31.24338568100477" pearlRadius="2.7380424214283137" pearlCount="12" transform="translate(29.378307159497616,165.89611423801844)"><circle class="pool" r="15.621692840502385" cx="15.621692840502385" cy="15.621692840502385" style="stroke-width: 1; fill: rgb(127, 205, 187);"></circle><circle class="pearl" r="2.190433937142651" cx="17.63451147283791" cy="11.20591803444521"></circle><circle class="pearl" r="2.190433937142651" cx="11.585276450815437" cy="16.260244108410543"></circle><circle class="pearl" r="2.190433937142651" cx="14.516059198347808" cy="4.689898254152178"></circle><circle class="pearl" r="2.190433937142651" cx="18.454302204944195" cy="18.55467579233845"></circle><circle class="pearl" r="2.190433937142651" cx="4.711433031847918" cy="14.245795272301141"></circle><circle class="pearl" r="2.190433937142651" cx="26.541300081859475" cy="14.355953428052196"></circle><circle class="pearl" r="2.190433937142651" cx="12.052126078102283" cy="26.179371248256267"></circle><circle class="pearl" r="2.190433937142651" cx="7.23734013593776" cy="7.091372220862382"></circle><circle class="pearl" r="2.190433937142651" cx="25.19504616710773" cy="22.08024789217483"></circle><circle class="pearl" r="2.190433937142651" cx="5.916461791621559" cy="21.78155192872134"></circle><circle class="pearl" r="2.190433937142651" cx="23.9644294327771" cy="7.064992650596876"></circle><circle class="pearl" r="2.190433937142651" cx="19.667394887731483" cy="26.059693287181297"></circle></g><text id="3" class="legendSampleValue" text-anchor="middle" transform="translate(45,8)" x="0" y="202.13949991902322" style="fill: black; font-size: 0.7rem;"> 920</text><g class="bright" cupRadius="17.944877921053177" width="35.889755842106354" height="35.889755842106354" pearlRadius="2.738042421428314" pearlCount="16" transform="translate(27.055122078946823,222.1394999190232)"><circle class="pool" r="17.944877921053177" cx="17.944877921053177" cy="17.944877921053177" style="stroke-width: 1; fill: rgb(127, 205, 187);"></circle><circle class="pearl" r="2.1904339371426516" cx="18.67134795034771" cy="18.731369800213116"></circle><circle class="pearl" r="2.1904339371426516" cx="13.513181348184947" cy="23.533902869702253"></circle><circle class="pearl" r="2.1904339371426516" cx="16.43703272206869" cy="11.29787452855208"></circle><circle class="pearl" r="2.1904339371426516" cx="20.649610428338534" cy="26.168262790144922"></circle><circle class="pearl" r="2.1904339371426516" cx="11.038320546823899" cy="16.656232623133487"></circle><circle class="pearl" r="2.1904339371426516" cx="23.335557091302178" cy="13.471567452202596"></circle><circle class="pearl" r="2.1904339371426516" cx="14.991539402050137" cy="30.994336476680655"></circle><circle class="pearl" r="2.1904339371426516" cx="11.397041475100638" cy="5.887983680979687"></circle><circle class="pearl" r="2.1904339371426516" cx="26.283994053065783" cy="20.710743762839318"></circle><circle class="pearl" r="2.1904339371426516" cx="5.027276568403632" cy="21.601736547029958"></circle><circle class="pearl" r="2.1904339371426516" cx="27.71021792584605" cy="7.540476500778151"></circle><circle class="pearl" r="2.1904339371426516" cx="27.97028815770496" cy="28.177359763579492"></circle><circle class="pearl" r="2.1904339371426516" cx="6.155579961096734" cy="10.751523562878702"></circle><circle class="pearl" r="2.1904339371426516" cx="30.956689513637794" cy="14.774151301969802"></circle><circle class="pearl" r="2.1904339371426516" cx="8.226264539503847" cy="28.37948523382165"></circle><circle class="pearl" r="2.1904339371426516" cx="20.677058539337008" cy="4.859935594856491"></circle></g><text id="4" class="legendSampleValue" text-anchor="middle" transform="translate(45,8)" x="0" y="263.02925576112955" style="fill: black; font-size: 0.7rem;">1.2k</text><g class="bright" cupRadius="20" width="40" height="40" pearlRadius="2.7380424214283137" pearlCount="20" transform="translate(25,283.02925576112955)"><circle class="pool" r="20" cx="20" cy="20" style="stroke-width: 1; fill: rgb(127, 205, 187);"></circle><circle class="pearl" r="2.190433937142651" cx="20.803317911356498" cy="19.852362298934615"></circle><circle class="pearl" r="2.190433937142651" cx="12.399118369231148" cy="22.318129073543428"></circle><circle class="pearl" r="2.190433937142651" cx="20.14107886386132" cy="11.690576671380018"></circle><circle class="pearl" r="2.190433937142651" cx="25.351645945468196" cy="26.426489948513225"></circle><circle class="pearl" r="2.190433937142651" cx="5.45555413244983" cy="14.383463400696877"></circle><circle class="pearl" r="2.190433937142651" cx="27.007002384921414" cy="14.812215198670392"></circle><circle class="pearl" r="2.190433937142651" cx="17.669394065840073" cy="27.98572181627974"></circle><circle class="pearl" r="2.190433937142651" cx="13.075316060454844" cy="14.529673081448232"></circle><circle class="pearl" r="2.190433937142651" cx="31.363412690087696" cy="21.539471699750266"></circle><circle class="pearl" r="2.190433937142651" cx="6.986823167406808" cy="29.380119115938808"></circle><circle class="pearl" r="2.190433937142651" cx="24.195863946736896" cy="5.095807587217031"></circle><circle class="pearl" r="2.190433937142651" cx="27.929986347293504" cy="33.70997709935047"></circle><circle class="pearl" r="2.190433937142651" cx="8.960309851298339" cy="7.973635910317352"></circle><circle class="pearl" r="2.190433937142651" cx="34.68553340637696" cy="14.890285786129768"></circle><circle class="pearl" r="2.190433937142651" cx="12.548559824642552" cy="33.90934248556552"></circle><circle class="pearl" r="2.190433937142651" cx="16.437930987710008" cy="4.970487855189916"></circle><circle class="pearl" r="2.190433937142651" cx="33.26719371328966" cy="28.885282914155283"></circle><circle class="pearl" r="2.190433937142651" cx="4.745924110358729" cy="21.949095191008542"></circle><circle class="pearl" r="2.190433937142651" cx="31.34694409707199" cy="8.181149473979769"></circle><circle class="pearl" r="2.190433937142651" cx="20.521343379892976" cy="35.34248064375117"></circle></g><text id="5" class="legendSampleValue" text-anchor="middle" transform="translate(45,8)" x="0" y="328.02925576112955" style="fill: black; font-size: 0.7rem;">1.5k</text><text id="coloringDisclaimer" transform="translate(45,8)" text-anchor="middle" x="0" y="343.02925576112955" style="font-size: 0.7rem; opacity: 0.6;">(note: coloring</text><text id="coloringDisclaimer" transform="translate(45,8)" text-anchor="middle" x="0" y="358.02925576112955" style="font-size: 0.7rem; opacity: 0.6;">is random)</text></g></svg>