<?xml version="1.0" standalone="no"?>
<?xml-stylesheet xmlns="http://www.w3.org/2000/svg" type="text/css" href="style.css"?>
<svg id="syntheticVisB" class="default" xTitle="Percent Cat Owners" yTitle="Percent Dog Owners" rTitle="Population" chartTitle="Towns in Vizzyland" width="500" height="400" xmlns="http://www.w3.org/2000/svg"><text id="chartTitle" text-anchor="middle" transform="translate(250,20)" x="0" y="0" style="fill: black; font-size: 1.2rem;">Towns in Vizzyland</text><g id="yAxis" transform="translate(50,30)" fill="none" font-size="10" font-family="sans-serif" text-anchor="end"><path class="domain" stroke="currentColor" d="M-6,300H0V20H-6"></path><g class="tick" opacity="1" transform="translate(0,300)"><line stroke="currentColor" x2="-6"></line><text fill="currentColor" x="-9" dy="0.32em">0</text></g><g class="tick" opacity="1" transform="translate(0,272)"><line stroke="currentColor" x2="-6"></line><text fill="currentColor" x="-9" dy="0.32em">10</text></g><g class="tick" opacity="1" transform="translate(0,244)"><line stroke="currentColor" x2="-6"></line><text fill="currentColor" x="-9" dy="0.32em">20</text></g><g class="tick" opacity="1" transform="translate(0,216)"><line stroke="currentColor" x2="-6"></line><text fill="currentColor" x="-9" dy="0.32em">30</text></g><g class="tick" opacity="1" transform="translate(0,188)"><line stroke="currentColor" x2="-6"></line><text fill="currentColor" x="-9" dy="0.32em">40</text></g><g class="tick" opacity="1" transform="translate(0,160)"><line stroke="currentColor" x2="-6"></line><text fill="currentColor" x="-9" dy="0.32em">50</text></g><g class="tick" opacity="1" transform="translate(0,132)"><line stroke="currentColor" x2="-6"></line><text fill="currentColor" x="-9" dy="0.32em">60</text></g><g class="tick" opacity="1" transform="translate(0,104.00000000000001)"><line stroke="currentColor" x2="-6"></line><text fill="currentColor" x="-9" dy="0.32em">70</text></g><g class="tick" opacity="1" transform="translate(0,75.99999999999999)"><line stroke="currentColor" x2="-6"></line><text fill="currentColor" x="-9" dy="0.32em">80</text></g><g class="tick" opacity="1" transform="translate(0,47.99999999999999)"><line stroke="currentColor" x2="-6"></line><text fill="currentColor" x="-9" dy="0.32em">90</text></g><g class="tick" opacity="1" transform="translate(0,20)"><line stroke="currentColor" x2="-6"></line><text fill="currentColor" x="-9" dy="0.32em">100</text></g></g><g id="xAxis" transform="translate(60,360)" fill="none" font-size="10" font-family="sans-serif" text-anchor="middle"><path class="domain" stroke="currentColor" d="M20,6V0H320V6"></path><g class="tick" opacity="1" transform="translate(20,0)"><line stroke="currentColor" y2="6"></line><text fill="currentColor" y="9" dy="0.71em">0</text></g><g class="tick" opacity="1" transform="translate(50,0)"><line stroke="currentColor" y2="6"></line><text fill="currentColor" y="9" dy="0.71em">10</text></g><g class="tick" opacity="1" transform="translate(80,0)"><line stroke="currentColor" y2="6"></line><text fill="currentColor" y="9" dy="0.71em">20</text></g><g class="tick" opacity="1" transform="translate(110,0)"><line stroke="currentColor" y2="6"></line><text fill="currentColor" y="9" dy="0.71em">30</text></g><g class="tick" opacity="1" transform="translate(140,0)"><line stroke="currentColor" y2="6"></line><text fill="currentColor" y="9" dy="0.71em">40</text></g><g class="tick" opacity="1" transform="translate(170,0)"><line stroke="currentColor" y2="6"></line><text fill="currentColor" y="9" dy="0.71em">50</text></g><g class="tick" opacity="1" transform="translate(200,0)"><line stroke="currentColor" y2="6"></line><text fill="currentColor" y="9" dy="0.71em">60</text></g><g class="tick" opacity="1" transform="translate(230,0)"><line stroke="currentColor" y2="6"></line><text fill="currentColor" y="9" dy="0.71em">70</text></g><g class="tick" opacity="1" transform="translate(260,0)"><line stroke="currentColor" y2="6"></line><text fill="currentColor" y="9" dy="0.71em">80</text></g><g class="tick" opacity="1" transform="translate(290,0)"><line stroke="currentColor" y2="6"></line><text fill="currentColor" y="9" dy="0.71em">90</text></g><g class="tick" opacity="1" transform="translate(320,0)"><line stroke="currentColor" y2="6"></line><text fill="currentColor" y="9" dy="0.71em">100</text></g></g><g id="labels"><text id="xTitle" text-anchor="middle" transform="translate(250,350)" x="0" y="40" style="fill: black; font-size: 0.8rem;">Percent Cat Owners</text><g id="group-yTitle" transform="translate(60,190)"><text id="yTitle" text-anchor="middle" transform="rotate(-90)" y="-45" style="fill: black; font-size: 0.8rem;">Percent Dog Owners</text></g></g><g id="quadrant_lines" transform="translate(60,30)"><line id="verticalQuadrantLine" x1="170" y1="10" x2="170" y2="310" class="quadrantLine"></line><line id="horizontalQuadrantLine" x1="10" y1="160" x2="330" y2="160" class="quadrantLine"></line></g><g id="chart" transform="translate(60,30)"><g class="bobaCup bright" cupRadius="20" width="40" height="40" pearlRadius="2.7380424214283137" pearlCount="20" transform="translate(176.4634641743944,223.56647245317387)"><circle class="pool" r="20" cx="20" cy="20" style="stroke-width: 1; fill: rgb(29, 145, 192);"></circle><circle class="pearl" r="2.190433937142651" cx="20.803317911356498" cy="19.852362298934615"></circle><circle class="pearl" r="2.190433937142651" cx="12.399118369231148" cy="22.318129073543428"></circle><circle class="pearl" r="2.190433937142651" cx="20.14107886386132" cy="11.690576671380018"></circle><circle class="pearl" r="2.190433937142651" cx="25.351645945468196" cy="26.426489948513225"></circle><circle class="pearl" r="2.190433937142651" cx="5.45555413244983" cy="14.383463400696877"></circle><circle class="pearl" r="2.190433937142651" cx="27.007002384921414" cy="14.812215198670392"></circle><circle class="pearl" r="2.190433937142651" cx="17.669394065840073" cy="27.98572181627974"></circle><circle class="pearl" r="2.190433937142651" cx="13.075316060454844" cy="14.529673081448232"></circle><circle class="pearl" r="2.190433937142651" cx="31.363412690087696" cy="21.539471699750266"></circle><circle class="pearl" r="2.190433937142651" cx="6.986823167406808" cy="29.380119115938808"></circle><circle class="pearl" r="2.190433937142651" cx="24.195863946736896" cy="5.095807587217031"></circle><circle class="pearl" r="2.190433937142651" cx="27.929986347293504" cy="33.70997709935047"></circle><circle class="pearl" r="2.190433937142651" cx="8.960309851298339" cy="7.973635910317352"></circle><circle class="pearl" r="2.190433937142651" cx="34.68553340637696" cy="14.890285786129768"></circle><circle class="pearl" r="2.190433937142651" cx="12.548559824642552" cy="33.90934248556552"></circle><circle class="pearl" r="2.190433937142651" cx="16.437930987710008" cy="4.970487855189916"></circle><circle class="pearl" r="2.190433937142651" cx="33.26719371328966" cy="28.885282914155283"></circle><circle class="pearl" r="2.190433937142651" cx="4.745924110358729" cy="21.949095191008542"></circle><circle class="pearl" r="2.190433937142651" cx="31.34694409707199" cy="8.181149473979769"></circle><circle class="pearl" r="2.190433937142651" cx="20.521343379892976" cy="35.34248064375117"></circle></g><g class="bobaCup bright" cupRadius="17.41570624890118" width="34.83141249780236" height="34.83141249780236" pearlRadius="2.738042421428314" pearlCount="15" transform="translate(55.186840877036566,81.11479642196659)"><circle class="pool" r="17.41570624890118" cx="17.41570624890118" cy="17.41570624890118" style="stroke-width: 1; fill: rgb(127, 205, 187);"></circle><circle class="pearl" r="2.1904339371426516" cx="23.22996543407179" cy="17.358526825847072"></circle><circle class="pearl" r="2.1904339371426516" cx="12.706258777113673" cy="21.782384732054883"></circle><circle class="pearl" r="2.1904339371426516" cx="17.820419781345464" cy="11.752949232274522"></circle><circle class="pearl" r="2.1904339371426516" cx="19.893981173157833" cy="24.190454030828786"></circle><circle class="pearl" r="2.1904339371426516" cx="10.462823099787585" cy="14.605755054466371"></circle><circle class="pearl" r="2.1904339371426516" cx="25.397142800860394" cy="9.88184658481608"></circle><circle class="pearl" r="2.1904339371426516" cx="14.85780169162222" cy="29.991821047776316"></circle><circle class="pearl" r="2.1904339371426516" cx="13.788679095318221" cy="5.032595552745057"></circle><circle class="pearl" r="2.1904339371426516" cx="29.637256129271417" cy="21.732328109258077"></circle><circle class="pearl" r="2.1904339371426516" cx="4.845539900422555" cy="20.013356402997434"></circle><circle class="pearl" r="2.1904339371426516" cx="21.34416470983598" cy="5.099578317969353"></circle><circle class="pearl" r="2.1904339371426516" cx="26.578947269893195" cy="27.5751767442226"></circle><circle class="pearl" r="2.1904339371426516" cx="7.72453801661548" cy="7.596181295718365"></circle><circle class="pearl" r="2.1904339371426516" cx="29.88392801951824" cy="14.214371173844706"></circle><circle class="pearl" r="2.1904339371426516" cx="7.803842599342461" cy="27.288030267044793"></circle></g><g class="bobaCup bright" cupRadius="17.34400643679962" width="34.68801287359924" height="34.68801287359924" pearlRadius="2.7380424214283146" pearlCount="15" transform="translate(268.32307399619816,48.88794711624155)"><circle class="pool" r="17.34400643679962" cx="17.34400643679962" cy="17.34400643679962" style="stroke-width: 1; fill: rgb(65, 182, 196);"></circle><circle class="pearl" r="2.1904339371426516" cx="23.146475897861784" cy="17.294653045643855"></circle><circle class="pearl" r="2.1904339371426516" cx="12.633643806710559" cy="21.67990565276832"></circle><circle class="pearl" r="2.1904339371426516" cx="17.78831649400834" cy="11.729990737017696"></circle><circle class="pearl" r="2.1904339371426516" cx="19.802774004656175" cy="24.062116959319823"></circle><circle class="pearl" r="2.1904339371426516" cx="10.427490947612007" cy="14.531045095042721"></circle><circle class="pearl" r="2.1904339371426516" cx="25.344447341105322" cy="9.833982333673447"></circle><circle class="pearl" r="2.1904339371426516" cx="14.812878822297563" cy="29.851603413856235"></circle><circle class="pearl" r="2.1904339371426516" cx="13.759281175040561" cy="5.025218650687546"></circle><circle class="pearl" r="2.1904339371426516" cx="29.487502746728797" cy="21.67629790580338"></circle><circle class="pearl" r="2.1904339371426516" cx="4.843867426932872" cy="19.925185190368186"></circle><circle class="pearl" r="2.1904339371426516" cx="21.300721095684953" cy="5.108079068289336"></circle><circle class="pearl" r="2.1904339371426516" cx="26.430585337226027" cy="27.46652398898048"></circle><circle class="pearl" r="2.1904339371426516" cx="7.726548214029029" cy="7.561467504202532"></circle><circle class="pearl" r="2.1904339371426516" cx="29.746081845395206" cy="14.179102343467077"></circle><circle class="pearl" r="2.1904339371426516" cx="7.8013015262272" cy="27.17607790640346"></circle></g><g class="bobaCup bright" cupRadius="17.152800286462096" width="34.30560057292419" height="34.30560057292419" pearlRadius="2.738042421428314" pearlCount="14" transform="translate(2.847199713537904,278.17828555815544)"><circle class="pool" r="17.152800286462096" cx="17.152800286462096" cy="17.152800286462096" style="stroke-width: 1; fill: rgb(65, 182, 196);"></circle><circle class="pearl" r="2.1904339371426516" cx="21.23153663567411" cy="13.061992511469754"></circle><circle class="pearl" r="2.1904339371426516" cx="13.083612491174392" cy="21.238995933399668"></circle><circle class="pearl" r="2.1904339371426516" cx="13.357418359615096" cy="13.357019392075275"></circle><circle class="pearl" r="2.1904339371426516" cx="20.96530602797777" cy="20.935423895972015"></circle><circle class="pearl" r="2.1904339371426516" cx="5.356774006550947" cy="19.18615407474809"></circle><circle class="pearl" r="2.1904339371426516" cx="26.665302483553045" cy="7.530091565512629"></circle><circle class="pearl" r="2.1904339371426516" cx="15.064206121906581" cy="29.527244665965792"></circle><circle class="pearl" r="2.1904339371426516" cx="11.295369952930171" cy="5.681827960437371"></circle><circle class="pearl" r="2.1904339371426516" cx="28.680567342280067" cy="22.851485203632297"></circle><circle class="pearl" r="2.1904339371426516" cx="7.632142592327529" cy="26.770070425508283"></circle><circle class="pearl" r="2.1904339371426516" cx="19.234742994650436" cy="4.777541245951742"></circle><circle class="pearl" r="2.1904339371426516" cx="23.27835818393037" cy="28.523815356590628"></circle><circle class="pearl" r="2.1904339371426516" cx="5.718225783848958" cy="11.196143962112513"></circle><circle class="pearl" r="2.1904339371426516" cx="29.50717592048169" cy="14.906654623159861"></circle></g><g class="bobaCup bright" cupRadius="15.32688421752593" width="30.65376843505186" height="30.65376843505186" pearlRadius="2.7380424214283146" pearlCount="11" transform="translate(200.01777514082156,242.7900399518189)"><circle class="pool" r="15.32688421752593" cx="15.32688421752593" cy="15.32688421752593" style="stroke-width: 1; fill: rgb(127, 205, 187);"></circle><circle class="pearl" r="2.1904339371426516" cx="19.241313269360358" cy="15.69131827464544"></circle><circle class="pearl" r="2.1904339371426516" cx="11.870683593188417" cy="17.590365540315837"></circle><circle class="pearl" r="2.1904339371426516" cx="13.991631466840673" cy="10.208640093943549"></circle><circle class="pearl" r="2.1904339371426516" cx="21.91739129237" cy="24.513740123827954"></circle><circle class="pearl" r="2.1904339371426516" cx="4.681362709205872" cy="14.358237343492164"></circle><circle class="pearl" r="2.1904339371426516" cx="25.283563374926207" cy="10.686067979862178"></circle><circle class="pearl" r="2.1904339371426516" cx="14.353918860968664" cy="25.972131642443454"></circle><circle class="pearl" r="2.1904339371426516" cx="7.199428107488459" cy="6.9830764042756135"></circle><circle class="pearl" r="2.1904339371426516" cx="25.67076667954618" cy="18.50102662156696"></circle><circle class="pearl" r="2.1904339371426516" cx="7.140000682899523" cy="23.633333435438235"></circle><circle class="pearl" r="2.1904339371426516" cx="19.931024449495656" cy="5.358603631137421"></circle></g><g class="bobaCup bright" cupRadius="15.31761194274952" width="30.63522388549904" height="30.63522388549904" pearlRadius="2.7380424214283137" pearlCount="11" transform="translate(105.6326347887333,192.16723313942282)"><circle class="pool" r="15.31761194274952" cx="15.31761194274952" cy="15.31761194274952" style="stroke-width: 1; fill: rgb(65, 182, 196);"></circle><circle class="pearl" r="2.190433937142651" cx="19.232320648794875" cy="15.686566002442504"></circle><circle class="pearl" r="2.190433937142651" cx="11.86896696719641" cy="17.58587218124929"></circle><circle class="pearl" r="2.190433937142651" cx="13.98249468969837" cy="10.208875835785651"></circle><circle class="pearl" r="2.190433937142651" cx="21.908829436448585" cy="24.493858287422537"></circle><circle class="pearl" r="2.190433937142651" cx="4.681208022571495" cy="14.351703475740035"></circle><circle class="pearl" r="2.190433937142651" cx="25.264066675225926" cy="10.675238497821574"></circle><circle class="pearl" r="2.190433937142651" cx="14.348792571655274" cy="25.953831660852085"></circle><circle class="pearl" r="2.190433937142651" cx="7.198593704730699" cy="6.979463839315638"></circle><circle class="pearl" r="2.190433937142651" cx="25.65301897246326" cy="18.487018119051747"></circle><circle class="pearl" r="2.190433937142651" cx="7.140002060540883" cy="23.618951570845955"></circle><circle class="pearl" r="2.190433937142651" cx="19.913979300449764" cy="5.356605542637681"></circle></g><g class="bobaCup bright" cupRadius="15.171721198947164" width="30.34344239789433" height="30.34344239789433" pearlRadius="2.738042421428314" pearlCount="11" transform="translate(96.96589950140256,99.55050417887227)"><circle class="pool" r="15.171721198947164" cx="15.171721198947164" cy="15.171721198947164" style="stroke-width: 1; fill: rgb(65, 182, 196);"></circle><circle class="pearl" r="2.1904339371426516" cx="19.09193041737862" cy="15.616044196004658"></circle><circle class="pearl" r="2.1904339371426516" cx="11.8433299783581" cy="17.520798562977262"></circle><circle class="pearl" r="2.1904339371426516" cx="13.837370328626024" cy="10.219087421539433"></circle><circle class="pearl" r="2.1904339371426516" cx="21.77385854533598" cy="24.180899382831473"></circle><circle class="pearl" r="2.1904339371426516" cx="4.678796706435049" cy="14.249193238224889"></circle><circle class="pearl" r="2.1904339371426516" cx="24.9569837085462" cy="10.504447915119476"></circle><circle class="pearl" r="2.1904339371426516" cx="14.266938560868086" cy="25.665716274669936"></circle><circle class="pearl" r="2.1904339371426516" cx="7.185396054536259" cy="6.922842308602608"></circle><circle class="pearl" r="2.1904339371426516" cx="25.37405640525012" cy="18.264903907550064"></circle><circle class="pearl" r="2.1904339371426516" cx="7.141032673459787" cy="23.393028344221076"></circle><circle class="pearl" r="2.1904339371426516" cx="19.640258951018676" cy="5.3237101897685815"></circle></g><g class="bobaCup bright" cupRadius="14.368624565271604" width="28.73724913054321" height="28.73724913054321" pearlRadius="2.7380424214283146" pearlCount="10" transform="translate(51.62322071657316,153.87181924548187)"><circle class="pool" r="14.368624565271604" cx="14.368624565271604" cy="14.368624565271604" style="stroke-width: 1; fill: rgb(127, 205, 187);"></circle><circle class="pearl" r="2.1904339371426516" cx="17.102914307459304" cy="11.751517643761625"></circle><circle class="pearl" r="2.1904339371426516" cx="12.112616786911117" cy="16.538920049019275"></circle><circle class="pearl" r="2.1904339371426516" cx="14.403954533353243" cy="4.650766663783885"></circle><circle class="pearl" r="2.1904339371426516" cx="21.89491853899175" cy="21.957683643542026"></circle><circle class="pearl" r="2.1904339371426516" cx="4.650875758855549" cy="14.30241823990066"></circle><circle class="pearl" r="2.1904339371426516" cx="21.678680165999477" cy="6.649203938090904"></circle><circle class="pearl" r="2.1904339371426516" cx="14.334389485580816" cy="24.086485117193472"></circle><circle class="pearl" r="2.1904339371426516" cx="6.842118991403866" cy="6.779695603348695"></circle><circle class="pearl" r="2.1904339371426516" cx="24.086137290009706" cy="14.47430090018079"></circle><circle class="pearl" r="2.1904339371426516" cx="7.056684242500048" cy="22.086931234552413"></circle></g><g class="bobaCup bright" cupRadius="14.305403432409204" width="28.610806864818407" height="28.610806864818407" pearlRadius="2.7380424214283137" pearlCount="10" transform="translate(66.76701861520151,61.96592047978395)"><circle class="pool" r="14.305403432409204" cx="14.305403432409204" cy="14.305403432409204" style="stroke-width: 1; fill: rgb(29, 145, 192);"></circle><circle class="pearl" r="2.190433937142651" cx="17.030063101258207" cy="11.706244712606924"></circle><circle class="pearl" r="2.190433937142651" cx="12.091428914504524" cy="16.44216156886127"></circle><circle class="pearl" r="2.190433937142651" cx="14.373611427226933" cy="4.6508858369526145"></circle><circle class="pearl" r="2.190433937142651" cx="21.784551505907938" cy="21.849224535573736"></circle><circle class="pearl" r="2.190433937142651" cx="4.650770546413677" cy="14.268609419082566"></circle><circle class="pearl" r="2.190433937142651" cx="21.559162451904655" cy="6.626181508990625"></circle><circle class="pearl" r="2.190433937142651" cx="14.274225678028884" cy="23.960049661199815"></circle><circle class="pearl" r="2.190433937142651" cx="6.8285144507852085" cy="6.7601970727752665"></circle><circle class="pearl" r="2.190433937142651" cx="23.959878459096675" cy="14.382020935191878"></circle><circle class="pearl" r="2.190433937142651" cx="7.048452886480632" cy="21.98274721119706"></circle></g><g class="bobaCup bright" cupRadius="14.078422709465796" width="28.156845418931592" height="28.156845418931592" pearlRadius="2.7380424214283137" pearlCount="9" transform="translate(282.5992113003219,139.97842236804232)"><circle class="pool" r="14.078422709465796" cx="14.078422709465796" cy="14.078422709465796" style="stroke-width: 1; fill: rgb(127, 205, 187);"></circle><circle class="pearl" r="2.190433937142651" cx="19.965710627037787" cy="14.051246770745028"></circle><circle class="pearl" r="2.190433937142651" cx="12.308046696940066" cy="15.821115915935993"></circle><circle class="pearl" r="2.190433937142651" cx="14.079817397442948" cy="4.650723297653915"></circle><circle class="pearl" r="2.190433937142651" cx="14.08610888896174" cy="23.506120092207862"></circle><circle class="pearl" r="2.190433937142651" cx="4.650733695217241" cy="14.095589760124527"></circle><circle class="pearl" r="2.190433937142651" cx="21.327896303098367" cy="6.660711134731761"></circle><circle class="pearl" r="2.190433937142651" cx="6.806739359633031" cy="21.482765106853254"></circle><circle class="pearl" r="2.190433937142651" cx="6.802140577991969" cy="6.676855519631053"></circle><circle class="pearl" r="2.190433937142651" cx="21.34165620628724" cy="21.487858068452883"></circle></g><g class="bobaCup bright" cupRadius="13.953758514749591" width="27.907517029499182" height="27.907517029499182" pearlRadius="2.738042421428314" pearlCount="9" transform="translate(218.6146676300012,242.99491149084136)"><circle class="pool" r="13.953758514749591" cx="13.953758514749591" cy="13.953758514749591" style="stroke-width: 1; fill: rgb(127, 205, 187);"></circle><circle class="pearl" r="2.1904339371426516" cx="15.851662847107422" cy="12.078660459469253"></circle><circle class="pearl" r="2.1904339371426516" cx="10.46456314649883" cy="17.4316702444432"></circle><circle class="pearl" r="2.1904339371426516" cx="14.02206121941508" cy="4.650890398133512"></circle><circle class="pearl" r="2.1904339371426516" cx="21.148174205617824" cy="21.259111547014907"></circle><circle class="pearl" r="2.1904339371426516" cx="4.651330597513356" cy="13.823567154811304"></circle><circle class="pearl" r="2.1904339371426516" cx="21.073972747148165" cy="6.604068168251878"></circle><circle class="pearl" r="2.1904339371426516" cx="14.046936089649623" cy="23.25648269631635"></circle><circle class="pearl" r="2.1904339371426516" cx="6.8306821473779475" cy="6.605766822441094"></circle><circle class="pearl" r="2.1904339371426516" cx="23.256646293700374" cy="14.017918772786315"></circle></g><g class="bobaCup bright" cupRadius="13.47060593434902" width="26.94121186869804" height="26.94121186869804" pearlRadius="2.738042421428314" pearlCount="9" transform="translate(265.20842787944116,146.6384758527582)"><circle class="pool" r="13.47060593434902" cx="13.47060593434902" cy="13.47060593434902" style="stroke-width: 1; fill: rgb(29, 145, 192);"></circle><circle class="pearl" r="2.1904339371426516" cx="15.010824766309756" cy="11.98476520678559"></circle><circle class="pearl" r="2.1904339371426516" cx="9.576015309212561" cy="17.346116585586863"></circle><circle class="pearl" r="2.1904339371426516" cx="13.523478275133163" cy="4.650826991356528"></circle><circle class="pearl" r="2.1904339371426516" cx="20.23095368764979" cy="20.471274145986282"></circle><circle class="pearl" r="2.1904339371426516" cx="4.650745824619516" cy="13.445932782592322"></circle><circle class="pearl" r="2.1904339371426516" cx="20.17282552827705" cy="6.436403970464388"></circle><circle class="pearl" r="2.1904339371426516" cx="13.431342334136206" cy="22.29043141799517"></circle><circle class="pearl" r="2.1904339371426516" cx="6.780799265871517" cy="6.429292942615577"></circle><circle class="pearl" r="2.1904339371426516" cx="22.287866893360277" cy="13.736361765049095"></circle></g><g class="bobaCup bright" cupRadius="13.384868602566808" width="26.769737205133616" height="26.769737205133616" pearlRadius="2.7380424214283132" pearlCount="8" transform="translate(212.44341718985353,229.19667399632957)"><circle class="pool" r="13.384868602566808" cx="13.384868602566808" cy="13.384868602566808" style="stroke-width: 1; fill: rgb(65, 182, 196);"></circle><circle class="pearl" r="2.1904339371426507" cx="22.10051661256715" cy="14.088308309058641"></circle><circle class="pearl" r="2.1904339371426507" cx="12.67042687697813" cy="14.06552065912667"></circle><circle class="pearl" r="2.1904339371426507" cx="12.497466435435209" cy="4.680172522791604"></circle><circle class="pearl" r="2.1904339371426507" cx="18.618271423792443" cy="21.053487987088612"></circle><circle class="pearl" r="2.1904339371426507" cx="4.986356522894268" cy="16.363486634149016"></circle><circle class="pearl" r="2.1904339371426507" cx="20.193021849615487" cy="6.511540595887362"></circle><circle class="pearl" r="2.1904339371426507" cx="10.676965959745278" cy="21.84223336519333"></circle><circle class="pearl" r="2.1904339371426507" cx="5.608968104955969" cy="8.411566854646093"></circle></g><g class="bobaCup bright" cupRadius="13.246618706766217" width="26.493237413532434" height="26.493237413532434" pearlRadius="2.7380424214283137" pearlCount="8" transform="translate(290.54584102962224,173.96170120963725)"><circle class="pool" r="13.246618706766217" cx="13.246618706766217" cy="13.246618706766217" style="stroke-width: 1; fill: rgb(127, 205, 187);"></circle><circle class="pearl" r="2.190433937142651" cx="14.293039289202673" cy="12.67933799352221"></circle><circle class="pearl" r="2.190433937142651" cx="8.26981595108193" cy="20.872065137069267"></circle><circle class="pearl" r="2.190433937142651" cx="13.983305017462335" cy="4.671223818441414"></circle><circle class="pearl" r="2.190433937142651" cx="21.562270709820815" cy="15.956973022189331"></circle><circle class="pearl" r="2.190433937142651" cx="4.680463750984789" cy="14.133770453895915"></circle><circle class="pearl" r="2.190433937142651" cx="20.774043928263456" cy="8.03455505687214"></circle><circle class="pearl" r="2.190433937142651" cx="16.118755728153154" cy="21.527397173389982"></circle><circle class="pearl" r="2.190433937142651" cx="6.556955407000794" cy="6.463999812483623"></circle></g><g class="bobaCup bright" cupRadius="13.14670383127105" width="26.2934076625421" height="26.2934076625421" pearlRadius="2.7380424214283137" pearlCount="8" transform="translate(79.20938380797918,6.853296168728949)"><circle class="pool" r="13.14670383127105" cx="13.14670383127105" cy="13.14670383127105" style="stroke-width: 1; fill: rgb(127, 205, 187);"></circle><circle class="pearl" r="2.190433937142651" cx="14.036280437593476" cy="12.909967538746297"></circle><circle class="pearl" r="2.190433937142651" cx="7.975272945010092" cy="20.58283810230602"></circle><circle class="pearl" r="2.190433937142651" cx="13.984283035281582" cy="4.677431529958522"></circle><circle class="pearl" r="2.190433937142651" cx="21.321601952049438" cy="16.03448128638562"></circle><circle class="pearl" r="2.190433937142651" cx="4.674643800320601" cy="13.939408789485807"></circle><circle class="pearl" r="2.190433937142651" cx="20.644271402635855" cy="8.121283225257066"></circle><circle class="pearl" r="2.190433937142651" cx="15.757039225642139" cy="21.380931931907636"></circle><circle class="pearl" r="2.190433937142651" cx="6.580356962941874" cy="6.408006072279138"></circle></g><g class="bobaCup bright" cupRadius="12.845101849296494" width="25.69020369859299" height="25.69020369859299" pearlRadius="2.7380424214283137" pearlCount="8" transform="translate(304.7924877252932,62.386913934277814)"><circle class="pool" r="12.845101849296494" cx="12.845101849296494" cy="12.845101849296494" style="stroke-width: 1; fill: rgb(29, 145, 192);"></circle><circle class="pearl" r="2.190433937142651" cx="13.525476886086434" cy="12.911533197705685"></circle><circle class="pearl" r="2.190433937142651" cx="6.704824265781724" cy="19.47682661378907"></circle><circle class="pearl" r="2.190433937142651" cx="14.196313860646116" cy="4.7219898034018595"></circle><circle class="pearl" r="2.190433937142651" cx="20.46251931169986" cy="16.65159176853404"></circle><circle class="pearl" r="2.190433937142651" cx="4.654214177978201" cy="13.144553038378294"></circle><circle class="pearl" r="2.190433937142651" cx="20.37024389185385" cy="8.753042903224413"></circle><circle class="pearl" r="2.190433937142651" cx="14.253990008858299" cy="20.961981201971692"></circle><circle class="pearl" r="2.190433937142651" cx="6.702147445707148" cy="6.214834309578542"></circle></g><g class="bobaCup bright" cupRadius="12.589106270107376" width="25.17821254021475" height="25.17821254021475" pearlRadius="2.7380424214283132" pearlCount="7" transform="translate(128.75262583704557,49.87125018126463)"><circle class="pool" r="12.589106270107376" cx="12.589106270107376" cy="12.589106270107376" style="stroke-width: 1; fill: rgb(65, 182, 196);"></circle><circle class="pearl" r="2.1904339371426507" cx="12.95808377196367" cy="12.641618891558617"></circle><circle class="pearl" r="2.1904339371426507" cx="5.0314843996603225" cy="15.661874830109364"></circle><circle class="pearl" r="2.1904339371426507" cx="13.031785960592167" cy="4.6585087662716615"></circle><circle class="pearl" r="2.1904339371426507" cx="19.119374679566967" cy="18.374520919926777"></circle><circle class="pearl" r="2.1904339371426507" cx="5.642401307447062" cy="7.69163181593326"></circle><circle class="pearl" r="2.1904339371426507" cx="19.914252700101922" cy="8.707850983334302"></circle><circle class="pearl" r="2.1904339371426507" cx="11.407482711604773" cy="20.471912570206516"></circle></g><g class="bobaCup bright" cupRadius="12.41704765340134" width="24.83409530680268" height="24.83409530680268" pearlRadius="2.738042421428314" pearlCount="7" transform="translate(145.16073189672397,271.2134437853082)"><circle class="pool" r="12.41704765340134" cx="12.41704765340134" cy="12.41704765340134" style="stroke-width: 1; fill: rgb(127, 205, 187);"></circle><circle class="pearl" r="2.1904339371426516" cx="12.470540890046534" cy="12.440738226168147"></circle><circle class="pearl" r="2.1904339371426516" cx="4.957527216046389" cy="15.16023389912693"></circle><circle class="pearl" r="2.1904339371426516" cx="13.30987863061411" cy="4.682863725559461"></circle><circle class="pearl" r="2.1904339371426516" cx="18.897114367343306" cy="17.920554506535083"></circle><circle class="pearl" r="2.1904339371426516" cx="5.79168347749885" cy="7.217727960065286"></circle><circle class="pearl" r="2.1904339371426516" cx="19.765064922853174" cy="9.221222425397704"></circle><circle class="pearl" r="2.1904339371426516" cx="11.094364304212469" cy="20.112723947955136"></circle></g><g class="bobaCup bright" cupRadius="12.366298240728673" width="24.732596481457346" height="24.732596481457346" pearlRadius="2.738042421428314" pearlCount="7" transform="translate(200.36406290190274,237.44712433713352)"><circle class="pool" r="12.366298240728673" cx="12.366298240728673" cy="12.366298240728673" style="stroke-width: 1; fill: rgb(65, 182, 196);"></circle><circle class="pearl" r="2.1904339371426516" cx="12.413946383173695" cy="12.387271932156942"></circle><circle class="pearl" r="2.1904339371426516" cx="4.967092605826792" cy="15.145605090266919"></circle><circle class="pearl" r="2.1904339371426516" cx="13.274592108653296" cy="4.684125036257777"></circle><circle class="pearl" r="2.1904339371426516" cx="18.830265377852978" cy="17.787459578797037"></circle><circle class="pearl" r="2.1904339371426516" cx="5.777285503753818" cy="7.20939339349112"></circle><circle class="pearl" r="2.1904339371426516" cx="19.670164691313413" cy="9.2019471569091"></circle><circle class="pearl" r="2.1904339371426516" cx="11.100717374172584" cy="20.016942304001866"></circle></g><g class="bobaCup bright" cupRadius="12.104326162706812" width="24.208652325413624" height="24.208652325413624" pearlRadius="2.738042421428314" pearlCount="7" transform="translate(307.8956738372932,283.96789150418374)"><circle class="pool" r="12.104326162706812" cx="12.104326162706812" cy="12.104326162706812" style="stroke-width: 1; fill: rgb(65, 182, 196);"></circle><circle class="pearl" r="2.1904339371426516" cx="12.113473418773387" cy="12.10719158667928"></circle><circle class="pearl" r="2.1904339371426516" cx="5.123261921963463" cy="15.453390527852443"></circle><circle class="pearl" r="2.1904339371426516" cx="12.72133780477416" cy="4.666459378925673"></circle><circle class="pearl" r="2.1904339371426516" cx="18.667316727897866" cy="16.66144529706981"></circle><circle class="pearl" r="2.1904339371426516" cx="5.544530274009389" cy="7.53935376689258"></circle><circle class="pearl" r="2.1904339371426516" cx="19.07126838461149" cy="8.7065973133119"></circle><circle class="pearl" r="2.1904339371426516" cx="11.44853253796251" cy="19.540151100379607"></circle></g><g class="bobaCup bright" cupRadius="11.94586214550262" width="23.89172429100524" height="23.89172429100524" pearlRadius="2.738042421428314" pearlCount="7" transform="translate(145.20269399035286,209.30883268028063)"><circle class="pool" r="11.94586214550262" cx="11.94586214550262" cy="11.94586214550262" style="stroke-width: 1; fill: rgb(29, 145, 192);"></circle><circle class="pearl" r="2.1904339371426516" cx="11.95081368567016" cy="11.946937759394821"></circle><circle class="pearl" r="2.1904339371426516" cx="5.0405161249672314" cy="14.972557688369161"></circle><circle class="pearl" r="2.1904339371426516" cx="12.86618503361388" cy="4.686227353385535"></circle><circle class="pearl" r="2.1904339371426516" cx="18.22761044422525" cy="16.76091029731426"></circle><circle class="pearl" r="2.1904339371426516" cx="5.6638671866607595" cy="7.131374069500907"></circle><circle class="pearl" r="2.1904339371426516" cx="18.832952392058527" cy="8.850303615522852"></circle><circle class="pearl" r="2.1904339371426516" cx="10.958132168924926" cy="19.200096367200825"></circle></g><g class="bobaCup bright" cupRadius="11.827444075963246" width="23.654888151926492" height="23.654888151926492" pearlRadius="2.7380424214283137" pearlCount="6" transform="translate(83.95404127390141,68.66336153684482)"><circle class="pool" r="11.827444075963246" cx="11.827444075963246" cy="11.827444075963246" style="stroke-width: 1; fill: rgb(65, 182, 196);"></circle><circle class="pearl" r="2.190433937142651" cx="12.294099813537676" cy="12.075780240673092"></circle><circle class="pearl" r="2.190433937142651" cx="6.986768264273902" cy="17.968212452178026"></circle><circle class="pearl" r="2.190433937142651" cx="9.778019179227327" cy="4.829635596088108"></circle><circle class="pearl" r="2.190433937142651" cx="17.460271341639146" cy="17.576705961088056"></circle><circle class="pearl" r="2.190433937142651" cx="4.72403856904767" cy="10.512571063218353"></circle><circle class="pearl" r="2.190433937142651" cx="17.527326031251924" cy="6.1147808374661174"></circle></g><g class="bobaCup bright" cupRadius="11.682919138711865" width="23.36583827742373" height="23.36583827742373" pearlRadius="2.7380424214283137" pearlCount="6" transform="translate(86.78468889805706,67.20428699021997)"><circle class="pool" r="11.682919138711865" cx="11.682919138711865" cy="11.682919138711865" style="stroke-width: 1; fill: rgb(127, 205, 187);"></circle><circle class="pearl" r="2.190433937142651" cx="12.097831374764334" cy="11.977295361104126"></circle><circle class="pearl" r="2.190433937142651" cx="6.515537676682767" cy="17.510209482739263"></circle><circle class="pearl" r="2.190433937142651" cx="9.747523985371052" cy="4.812147446826451"></circle><circle class="pearl" r="2.190433937142651" cx="17.18454271075522" cy="17.338637472252163"></circle><circle class="pearl" r="2.190433937142651" cx="4.753737992360495" cy="10.134883522412359"></circle><circle class="pearl" r="2.190433937142651" cx="17.274742904168985" cy="6.075859635242416"></circle></g><g class="bobaCup bright" cupRadius="11.654647744207775" width="23.30929548841555" height="23.30929548841555" pearlRadius="2.7380424214283137" pearlCount="6" transform="translate(91.32332395190652,219.67138609285618)"><circle class="pool" r="11.654647744207775" cx="11.654647744207775" cy="11.654647744207775" style="stroke-width: 1; fill: rgb(127, 205, 187);"></circle><circle class="pearl" r="2.190433937142651" cx="12.055001436458367" cy="11.96069038148551"></circle><circle class="pearl" r="2.190433937142651" cx="6.403073572434109" cy="17.408336212600968"></circle><circle class="pearl" r="2.190433937142651" cx="9.750783589153393" cy="4.8072791606273135"></circle><circle class="pearl" r="2.190433937142651" cx="17.130966189583557" cy="17.291817901865205"></circle><circle class="pearl" r="2.190433937142651" cx="4.762498943615954" cy="10.04439330470575"></circle><circle class="pearl" r="2.190433937142651" cx="17.227042500128125" cy="6.0691983127579885"></circle></g><g class="bobaCup bright" cupRadius="11.441151578745274" width="22.882303157490547" height="22.882303157490547" pearlRadius="2.7380424214283132" pearlCount="6" transform="translate(204.64597841522567,87.53828783218295)"><circle class="pool" r="11.441151578745274" cx="11.441151578745274" cy="11.441151578745274" style="stroke-width: 1; fill: rgb(29, 145, 192);"></circle><circle class="pearl" r="2.1904339371426507" cx="11.835021234589217" cy="11.787322490900698"></circle><circle class="pearl" r="2.1904339371426507" cx="6.148005054491139" cy="16.9335318851186"></circle><circle class="pearl" r="2.1904339371426507" cx="9.602558009908291" cy="4.799420550758275"></circle><circle class="pearl" r="2.1904339371426507" cx="16.71857138704132" cy="16.941723322483387"></circle><circle class="pearl" r="2.1904339371426507" cx="4.7783095876699795" cy="9.737276152361858"></circle><circle class="pearl" r="2.1904339371426507" cx="16.834564478947573" cy="6.001728785788379"></circle></g><g class="bobaCup bright" cupRadius="11.427129608919502" width="22.854259217839004" height="22.854259217839004" pearlRadius="2.738042421428314" pearlCount="6" transform="translate(234.40435310173007,279.2269831034214)"><circle class="pool" r="11.427129608919502" cx="11.427129608919502" cy="11.427129608919502" style="stroke-width: 1; fill: rgb(127, 205, 187);"></circle><circle class="pearl" r="2.1904339371426516" cx="11.823681086668339" cy="11.77443718608291"></circle><circle class="pearl" r="2.1904339371426516" cx="6.147500512243639" cy="16.910744429800804"></circle><circle class="pearl" r="2.1904339371426516" cx="9.587540737220472" cy="4.799767721560407"></circle><circle class="pearl" r="2.1904339371426516" cx="16.691241977602814" cy="16.918813001506937"></circle><circle class="pearl" r="2.1904339371426516" cx="4.7777481277139024" cy="9.72803436523021"></circle><circle class="pearl" r="2.1904339371426516" cx="16.807785899100484" cy="5.99678994779584"></circle></g><g class="bobaCup bright" cupRadius="11.375510578179615" width="22.75102115635923" height="22.75102115635923" pearlRadius="2.738042421428314" pearlCount="6" transform="translate(187.02884501477246,262.16070092354397)"><circle class="pool" r="11.375510578179615" cx="11.375510578179615" cy="11.375510578179615" style="stroke-width: 1; fill: rgb(127, 205, 187);"></circle><circle class="pearl" r="2.1904339371426516" cx="11.782106112529823" cy="11.726896617122952"></circle><circle class="pearl" r="2.1904339371426516" cx="6.145645449018938" cy="16.826804556338356"></circle><circle class="pearl" r="2.1904339371426516" cx="9.53213396982319" cy="4.801074405029908"></circle><circle class="pearl" r="2.1904339371426516" cx="16.59061817022539" cy="16.83443094954136"></circle><circle class="pearl" r="2.1904339371426516" cx="4.775665613030851" cy="9.69415510335116"></circle><circle class="pearl" r="2.1904339371426516" cx="16.709158134503657" cy="5.9786249041711965"></circle></g><g class="bobaCup bright" cupRadius="11.280452364801734" width="22.560904729603468" height="22.560904729603468" pearlRadius="2.738042421428314" pearlCount="6" transform="translate(77.1024576222879,76.28997100950657)"><circle class="pool" r="11.280452364801734" cx="11.280452364801734" cy="11.280452364801734" style="stroke-width: 1; fill: rgb(127, 205, 187);"></circle><circle class="pearl" r="2.1904339371426516" cx="11.70629360617112" cy="11.638885135868316"></circle><circle class="pearl" r="2.1904339371426516" cx="6.142244632946069" cy="16.67201109098873"></circle><circle class="pearl" r="2.1904339371426516" cx="9.429557420002267" cy="4.803606521114638"></circle><circle class="pearl" r="2.1904339371426516" cx="16.405240415098998" cy="16.678866064051437"></circle><circle class="pearl" r="2.1904339371426516" cx="4.771761795656142" cy="9.632396162516239"></circle><circle class="pearl" r="2.1904339371426516" cx="16.5273200167538" cy="5.945236208544767"></circle></g><g class="bobaCup bright" cupRadius="11.189170666425252" width="22.378341332850503" height="22.378341332850503" pearlRadius="2.738042421428314" pearlCount="6" transform="translate(217.21228651014005,245.3633045274019)"><circle class="pool" r="11.189170666425252" cx="11.189170666425252" cy="11.189170666425252" style="stroke-width: 1; fill: rgb(65, 182, 196);"></circle><circle class="pearl" r="2.1904339371426516" cx="11.634494465320566" cy="11.553748183335045"></circle><circle class="pearl" r="2.1904339371426516" cx="6.139009560806667" cy="16.52310632084504"></circle><circle class="pearl" r="2.1904339371426516" cx="9.330325592868547" cy="4.8062075121546854"></circle><circle class="pearl" r="2.1904339371426516" cx="16.227116909159854" cy="16.529275124172635"></circle><circle class="pearl" r="2.1904339371426516" cx="4.767920139537857" cy="9.573950136333481"></circle><circle class="pearl" r="2.1904339371426516" cx="16.352418172272564" cy="5.913242123338744"></circle></g><g class="bobaCup bright" cupRadius="10.9277325688913" width="21.8554651377826" height="21.8554651377826" pearlRadius="2.7380424214283137" pearlCount="5" transform="translate(274.84955781403715,94.08939866787121)"><circle class="pool" r="10.9277325688913" cx="10.9277325688913" cy="10.9277325688913" style="stroke-width: 1; fill: rgb(29, 145, 192);"></circle><circle class="pearl" r="2.190433937142651" cx="16.859306277425144" cy="8.20186928689286"></circle><circle class="pearl" r="2.190433937142651" cx="8.127635655820844" cy="16.83990649851602"></circle><circle class="pearl" r="2.190433937142651" cx="10.098295278038513" cy="4.682246691642579"></circle><circle class="pearl" r="2.190433937142651" cx="15.94267731733433" cy="15.986060183078806"></circle><circle class="pearl" r="2.190433937142651" cx="4.687627854274174" cy="10.030399961059352"></circle></g><g class="bobaCup bright" cupRadius="10.71143904372224" width="21.42287808744448" height="21.42287808744448" pearlRadius="2.738042421428315" pearlCount="5" transform="translate(305.60930717774426,220.41303167318222)"><circle class="pool" r="10.71143904372224" cx="10.71143904372224" cy="10.71143904372224" style="stroke-width: 1; fill: rgb(29, 145, 192);"></circle><circle class="pearl" r="2.190433937142652" cx="16.416338955235176" cy="7.9735574232109565"></circle><circle class="pearl" r="2.190433937142652" cx="7.818725501204708" cy="16.374160183950202"></circle><circle class="pearl" r="2.190433937142652" cx="9.908453090946434" cy="4.680863664585463"></circle><circle class="pearl" r="2.190433937142652" cx="15.540767597631131" cy="15.621704890857572"></circle><circle class="pearl" r="2.190433937142652" cx="4.693644406767401" cy="9.753497009812367"></circle></g><g class="bobaCup bright" cupRadius="10.588072660650036" width="21.176145321300073" height="21.176145321300073" pearlRadius="2.7380424214283137" pearlCount="5" transform="translate(71.51445871805755,80.58474711726102)"><circle class="pool" r="10.588072660650036" cx="10.588072660650036" cy="10.588072660650036" style="stroke-width: 1; fill: rgb(29, 145, 192);"></circle><circle class="pearl" r="2.190433937142651" cx="16.164497253353833" cy="7.847136669241775"></circle><circle class="pearl" r="2.190433937142651" cx="7.6350319588096935" cy="16.105281044775754"></circle><circle class="pearl" r="2.190433937142651" cx="9.809546143373671" cy="4.679384015016087"></circle><circle class="pearl" r="2.190433937142651" cx="15.310858716882635" cy="15.41377146437889"></circle><circle class="pearl" r="2.190433937142651" cx="4.698219225569661" cy="9.586311079788105"></circle></g><g class="bobaCup bright" cupRadius="10.570463030566092" width="21.140926061132184" height="21.140926061132184" pearlRadius="2.7380424214283137" pearlCount="5" transform="translate(158.36719431965156,240.9177311421134)"><circle class="pool" r="10.570463030566092" cx="10.570463030566092" cy="10.570463030566092" style="stroke-width: 1; fill: rgb(127, 205, 187);"></circle><circle class="pearl" r="2.190433937142651" cx="16.12863022639323" cy="7.829433117705834"></circle><circle class="pearl" r="2.190433937142651" cx="7.608228614781829" cy="16.066653418780543"></circle><circle class="pearl" r="2.190433937142651" cx="9.796181596129976" cy="4.679119244511817"></circle><circle class="pearl" r="2.190433937142651" cx="15.277981888181138" cy="15.384091596268252"></circle><circle class="pearl" r="2.190433937142651" cx="4.698967075687229" cy="9.561705311387508"></circle></g><g class="bobaCup bright" cupRadius="10.54297922269642" width="21.08595844539284" height="21.08595844539284" pearlRadius="2.7380424214283137" pearlCount="5" transform="translate(73.2336197044315,81.34129990453113)"><circle class="pool" r="10.54297922269642" cx="10.54297922269642" cy="10.54297922269642" style="stroke-width: 1; fill: rgb(65, 182, 196);"></circle><circle class="pearl" r="2.190433937142651" cx="16.0727037912033" cy="7.802013418243749"></circle><circle class="pearl" r="2.190433937142651" cx="7.56606016958771" cy="16.0062247424183"></circle><circle class="pearl" r="2.190433937142651" cx="9.775765351988797" cy="4.678675405805272"></circle><circle class="pearl" r="2.190433937142651" cx="15.226634184669049" cy="15.337772765980521"></circle><circle class="pearl" r="2.190433937142651" cx="4.700190886586624" cy="9.522868477670663"></circle></g><g class="bobaCup bright" cupRadius="10.501569657898385" width="21.00313931579677" height="21.00313931579677" pearlRadius="2.7380424214283137" pearlCount="5" transform="translate(161.97191635267,248.3288993392064)"><circle class="pool" r="10.501569657898385" cx="10.501569657898385" cy="10.501569657898385" style="stroke-width: 1; fill: rgb(65, 182, 196);"></circle><circle class="pearl" r="2.190433937142651" cx="15.988577130990357" cy="7.761244585895024"></circle><circle class="pearl" r="2.190433937142651" cx="7.501687629864474" cy="15.914825418652104"></circle><circle class="pearl" r="2.190433937142651" cx="9.746118337887841" cy="4.677930921042348"></circle><circle class="pearl" r="2.190433937142651" cx="15.149176724318298" cy="15.26799641410803"></circle><circle class="pearl" r="2.190433937142651" cx="4.70217894584408" cy="9.463261462977957"></circle></g><g class="bobaCup bright" cupRadius="10.380253768944893" width="20.760507537889787" height="20.760507537889787" pearlRadius="2.738042421428314" pearlCount="5" transform="translate(227.4828329807099,102.58553834499119)"><circle class="pool" r="10.380253768944893" cx="10.380253768944893" cy="10.380253768944893" style="stroke-width: 1; fill: rgb(65, 182, 196);"></circle><circle class="pearl" r="2.1904339371426516" cx="15.743397804938635" cy="7.646733929000124"></circle><circle class="pearl" r="2.1904339371426516" cx="7.306062937103035" cy="15.644116716161182"></circle><circle class="pearl" r="2.1904339371426516" cx="9.668830506511787" cy="4.675131051898417"></circle><circle class="pearl" r="2.1904339371426516" cx="14.921425822300026" cy="15.063737774495031"></circle><circle class="pearl" r="2.1904339371426516" cx="4.7092748324436435" cy="9.279284776086449"></circle></g><g class="bobaCup bright" cupRadius="10.320782856068448" width="20.641565712136895" height="20.641565712136895" pearlRadius="2.7380424214283146" pearlCount="5" transform="translate(96.52106642491977,82.58023912172528)"><circle class="pool" r="10.320782856068448" cx="10.320782856068448" cy="10.320782856068448" style="stroke-width: 1; fill: rgb(65, 182, 196);"></circle><circle class="pearl" r="2.1904339371426516" cx="15.624197646927964" cy="7.594302514631412"></circle><circle class="pearl" r="2.1904339371426516" cx="7.205285649778862" cy="15.509380534944082"></circle><circle class="pearl" r="2.1904339371426516" cx="9.637754826514035" cy="4.6733493819592224"></circle><circle class="pearl" r="2.1904339371426516" cx="14.80916520527878" cy="14.963766242697432"></circle><circle class="pearl" r="2.1904339371426516" cx="4.713689402013025" cy="9.18247021547023"></circle></g><g class="bobaCup bright" cupRadius="10.315068471178513" width="20.630136942357026" height="20.630136942357026" pearlRadius="2.7380424214283146" pearlCount="5" transform="translate(180.622643470911,231.58687874118803)"><circle class="pool" r="10.315068471178513" cx="10.315068471178513" cy="10.315068471178513" style="stroke-width: 1; fill: rgb(127, 205, 187);"></circle><circle class="pearl" r="2.1904339371426516" cx="15.612789703025687" cy="7.58943269524031"></circle><circle class="pearl" r="2.1904339371426516" cx="7.1953934984716525" cy="15.4963473596621"></circle><circle class="pearl" r="2.1904339371426516" cx="9.635066524288007" cy="4.67316157342493"></circle><circle class="pearl" r="2.1904339371426516" cx="14.798350815919324" cy="14.954168544610344"></circle><circle class="pearl" r="2.1904339371426516" cx="4.714155671019962" cy="9.172879213851392"></circle></g><g class="bobaCup bright" cupRadius="9.960101850791048" width="19.920203701582096" height="19.920203701582096" pearlRadius="2.7380424214283146" pearlCount="4" transform="translate(300.0332668555051,104.0040374597353)"><circle class="pool" r="9.960101850791048" cx="9.960101850791048" cy="9.960101850791048" style="stroke-width: 1; fill: rgb(65, 182, 196);"></circle><circle class="pearl" r="2.1904339371426516" cx="14.67905535942592" cy="6.581820228665264"></circle><circle class="pearl" r="2.1904339371426516" cx="5.8773676130486185" cy="13.101985745248601"></circle><circle class="pearl" r="2.1904339371426516" cx="6.811121302576524" cy="5.161616097383916"></circle><circle class="pearl" r="2.1904339371426516" cx="13.745301669899026" cy="14.522189876530788"></circle></g><g class="bobaCup bright" cupRadius="9.689564662960622" width="19.379129325921244" height="19.379129325921244" pearlRadius="2.738042421428314" pearlCount="4" transform="translate(147.21800821414294,58.191619195526755)"><circle class="pool" r="9.689564662960622" cx="9.689564662960622" cy="9.689564662960622" style="stroke-width: 1; fill: rgb(29, 145, 192);"></circle><circle class="pearl" r="2.1904339371426516" cx="14.011101422757324" cy="6.0308471200462055"></circle><circle class="pearl" r="2.1904339371426516" cx="5.4070170857870625" cy="13.332350889384122"></circle><circle class="pearl" r="2.1904339371426516" cx="6.043986492787874" cy="5.3626811301027395"></circle><circle class="pearl" r="2.1904339371426516" cx="13.37413201575652" cy="14.000516879327602"></circle></g><g class="bobaCup bright" cupRadius="9.598584906363419" width="19.197169812726838" height="19.197169812726838" pearlRadius="2.7380424214283137" pearlCount="4" transform="translate(92.05973951468083,91.46425589634012)"><circle class="pool" r="9.598584906363419" cx="9.598584906363419" cy="9.598584906363419" style="stroke-width: 1; fill: rgb(29, 145, 192);"></circle><circle class="pearl" r="2.190433937142651" cx="13.742340696002909" cy="5.752811771749054"></circle><circle class="pearl" r="2.190433937142651" cx="5.4548291167239285" cy="13.444358040977782"></circle><circle class="pearl" r="2.190433937142651" cx="5.7528117717490534" cy="5.4548291167239285"></circle><circle class="pearl" r="2.190433937142651" cx="13.444358040977782" cy="13.742340696002909"></circle></g><g class="bobaCup bright" cupRadius="9.543077087612971" width="19.086154175225943" height="19.086154175225943" pearlRadius="2.7380424214283146" pearlCount="4" transform="translate(194.6910155317738,112.16335283472692)"><circle class="pool" r="9.543077087612971" cx="9.543077087612971" cy="9.543077087612971" style="stroke-width: 1; fill: rgb(127, 205, 187);"></circle><circle class="pearl" r="2.1904339371426516" cx="13.572602051897537" cy="5.577776139317891"></circle><circle class="pearl" r="2.1904339371426516" cx="5.513552123328405" cy="13.508378035908052"></circle><circle class="pearl" r="2.1904339371426516" cx="5.577776139317891" cy="5.513552123328405"></circle><circle class="pearl" r="2.1904339371426516" cx="13.508378035908054" cy="13.572602051897537"></circle></g><g class="bobaCup bright" cupRadius="9.273795693913073" width="18.547591387826145" height="18.547591387826145" pearlRadius="2.7380424214283146" pearlCount="4" transform="translate(33.04295629169704,53.43575800175941)"><circle class="pool" r="9.273795693913073" cx="9.273795693913073" cy="9.273795693913073" style="stroke-width: 1; fill: rgb(65, 182, 196);"></circle><circle class="pearl" r="2.1904339371426516" cx="13.036231084942802" cy="5.448236335125027"></circle><circle class="pearl" r="2.1904339371426516" cx="5.510708305525864" cy="13.099065615398313"></circle><circle class="pearl" r="2.1904339371426516" cx="5.511641232770141" cy="5.448111642100389"></circle><circle class="pearl" r="2.1904339371426516" cx="13.035297693282448" cy="13.099769303213495"></circle></g><g class="bobaCup bright" cupRadius="9.122587215657854" width="18.245174431315707" height="18.245174431315707" pearlRadius="2.738042421428314" pearlCount="4" transform="translate(182.7367931508679,239.75857936010513)"><circle class="pool" r="9.122587215657854" cx="9.122587215657854" cy="9.122587215657854" style="stroke-width: 1; fill: rgb(65, 182, 196);"></circle><circle class="pearl" r="2.1904339371426516" cx="12.745467399983276" cy="5.400954940709854"></circle><circle class="pearl" r="2.1904339371426516" cx="5.4979842046718534" cy="12.843473779715385"></circle><circle class="pearl" r="2.1904339371426516" cx="5.50045492208597" cy="5.400631353570573"></circle><circle class="pearl" r="2.1904339371426516" cx="12.742993401190486" cy="12.84528960382459"></circle></g><g class="bobaCup bright" cupRadius="9.102457236663577" width="18.204914473327154" height="18.204914473327154" pearlRadius="2.7380424214283137" pearlCount="4" transform="translate(220.6670775853923,217.24183583097258)"><circle class="pool" r="9.102457236663577" cx="9.102457236663577" cy="9.102457236663577" style="stroke-width: 1; fill: rgb(127, 205, 187);"></circle><circle class="pearl" r="2.190433937142651" cx="12.706793850260613" cy="5.394742493868662"></circle><circle class="pearl" r="2.190433937142651" cx="5.49621286932026" cy="12.80934905715366"></circle><circle class="pearl" r="2.190433937142651" cx="5.49894965801121" cy="5.394385045086848"></circle><circle class="pearl" r="2.190433937142651" cx="12.704053031210403" cy="12.811353346195858"></circle></g><g class="bobaCup bright" cupRadius="8.769141789849765" width="17.53828357969953" height="17.53828357969953" pearlRadius="2.738042421428314" pearlCount="3" transform="translate(140.82939085743072,181.79980100629655)"><circle class="pool" r="8.769141789849765" cx="8.769141789849765" cy="8.769141789849765" style="stroke-width: 1; fill: rgb(127, 205, 187);"></circle><circle class="pearl" r="2.1904339371426516" cx="12.8748710600236" cy="10.211777803377728"></circle><circle class="pearl" r="2.1904339371426516" cx="4.962658419921547" cy="11.84462749384539"></circle><circle class="pearl" r="2.1904339371426516" cx="8.287088657218332" cy="3.6639828522533677"></circle></g><g class="bobaCup bright" cupRadius="8.764224307549792" width="17.528448615099585" height="17.528448615099585" pearlRadius="2.738042421428314" pearlCount="3" transform="translate(34.717828747713966,71.96001086030452)"><circle class="pool" r="8.764224307549792" cx="8.764224307549792" cy="8.764224307549792" style="stroke-width: 1; fill: rgb(29, 145, 192);"></circle><circle class="pearl" r="2.1904339371426516" cx="12.87181540778055" cy="10.208946891432356"></circle><circle class="pearl" r="2.1904339371426516" cx="4.958401442908028" cy="11.838385317957128"></circle><circle class="pearl" r="2.1904339371426516" cx="8.279797892222717" cy="3.6641213602001153"></circle></g><g class="bobaCup bright" cupRadius="8.711025727887815" width="17.42205145577563" height="17.42205145577563" pearlRadius="2.7380424214283132" pearlCount="3" transform="translate(115.70782110270278,53.89749313360103)"><circle class="pool" r="8.711025727887815" cx="8.711025727887815" cy="8.711025727887815" style="stroke-width: 1; fill: rgb(29, 145, 192);"></circle><circle class="pearl" r="2.1904339371426507" cx="12.838717651441824" cy="10.178123340243639"></circle><circle class="pearl" r="2.1904339371426507" cx="4.912413977183599" cy="11.770839307087524"></circle><circle class="pearl" r="2.1904339371426507" cx="8.200899864917625" cy="3.6656727817780252"></circle></g><g class="bobaCup bright" cupRadius="8.705462628089123" width="17.410925256178245" height="17.410925256178245" pearlRadius="2.7380424214283137" pearlCount="3" transform="translate(217.41030096506108,224.4534048768704)"><circle class="pool" r="8.705462628089123" cx="8.705462628089123" cy="8.705462628089123" style="stroke-width: 1; fill: rgb(29, 145, 192);"></circle><circle class="pearl" r="2.190433937142651" cx="12.835252175547597" cy="10.174879094683423"></circle><circle class="pearl" r="2.190433937142651" cx="4.907611862276892" cy="11.763774154292907"></circle><circle class="pearl" r="2.190433937142651" cx="8.192646778130147" cy="3.6658406694373635"></circle></g><g class="bobaCup bright" cupRadius="8.68998660007721" width="17.37997320015442" height="17.37997320015442" pearlRadius="2.7380424214283132" pearlCount="3" transform="translate(243.39028588741695,141.2039370548255)"><circle class="pool" r="8.68998660007721" cx="8.68998660007721" cy="8.68998660007721" style="stroke-width: 1; fill: rgb(127, 205, 187);"></circle><circle class="pearl" r="2.1904339371426507" cx="12.825607149410104" cy="10.165833012801055"></circle><circle class="pearl" r="2.1904339371426507" cx="4.894259657983637" cy="11.744117900860994"></circle><circle class="pearl" r="2.1904339371426507" cx="8.169685014764985" cy="3.6663134018158745"></circle></g><g class="bobaCup bright" cupRadius="8.430742598501643" width="16.861485197003287" height="16.861485197003287" pearlRadius="2.7380424214283137" pearlCount="3" transform="translate(92.23334166959957,87.37963113713458)"><circle class="pool" r="8.430742598501643" cx="8.430742598501643" cy="8.430742598501643" style="stroke-width: 1; fill: rgb(127, 205, 187);"></circle><circle class="pearl" r="2.190433937142651" cx="12.663042853703638" cy="10.00971379538768"></circle><circle class="pearl" r="2.190433937142651" cx="4.672052376384406" cy="11.414527049671264"></circle><circle class="pearl" r="2.190433937142651" cx="7.784582471213172" cy="3.6755216295365116"></circle></g><g class="bobaCup bright" cupRadius="8.105723014680594" width="16.211446029361188" height="16.211446029361188" pearlRadius="2.738042421428314" pearlCount="3" transform="translate(26.035675136872996,146.35285241741005)"><circle class="pool" r="8.105723014680594" cx="8.105723014680594" cy="8.105723014680594" style="stroke-width: 1; fill: rgb(29, 145, 192);"></circle><circle class="pearl" r="2.1904339371426516" cx="12.366256335258146" cy="9.870592812789067"></circle><circle class="pearl" r="2.1904339371426516" cx="4.3456565197641455" cy="11.123737999310391"></circle><circle class="pearl" r="2.1904339371426516" cx="7.292650070002662" cy="3.6916053906771276"></circle></g><g class="bobaCup bright" cupRadius="7.933982136201529" width="15.867964272403057" height="15.867964272403057" pearlRadius="2.7380424214283146" pearlCount="3" transform="translate(114.79023291820292,55.209190456165764)"><circle class="pool" r="7.933982136201529" cx="7.933982136201529" cy="7.933982136201529" style="stroke-width: 1; fill: rgb(127, 205, 187);"></circle><circle class="pearl" r="2.1904339371426516" cx="12.086657739194418" cy="9.367522931962494"></circle><circle class="pearl" r="2.1904339371426516" cx="4.469981588303169" cy="11.421099809592661"></circle><circle class="pearl" r="2.1904339371426516" cx="6.427394388812683" cy="3.7950798348140165"></circle></g><g class="bobaCup bright" cupRadius="7.932578802368528" width="15.865157604737057" height="15.865157604737057" pearlRadius="2.738042421428314" pearlCount="3" transform="translate(120.35656100215722,158.8350477396836)"><circle class="pool" r="7.932578802368528" cx="7.932578802368528" cy="7.932578802368528" style="stroke-width: 1; fill: rgb(65, 182, 196);"></circle><circle class="pearl" r="2.1904339371426516" cx="12.084026999834393" cy="9.36503386083252"></circle><circle class="pearl" r="2.1904339371426516" cx="4.470079963416373" cy="11.418865329012963"></circle><circle class="pearl" r="2.1904339371426516" cx="6.4238638820891305" cy="3.795517638372441"></circle></g><g class="bobaCup bright" cupRadius="7.612686711994959" width="15.225373423989918" height="15.225373423989918" pearlRadius="2.7380424214283137" pearlCount="2" transform="translate(252.5400447441727,106.38673659733597)"><circle class="pool" r="7.612686711994959" cx="7.612686711994959" cy="7.612686711994959" style="stroke-width: 1; fill: rgb(29, 145, 192);"></circle><circle class="pearl" r="2.190433937142651" cx="11.287921723845729" cy="6.836511114277961"></circle><circle class="pearl" r="2.190433937142651" cx="4.374003059442418" cy="10.851370364547499"></circle></g><g class="bobaCup bright" cupRadius="7.605470673405729" width="15.210941346811458" height="15.210941346811458" pearlRadius="2.738042421428314" pearlCount="2" transform="translate(153.52748431054994,245.17652556908504)"><circle class="pool" r="7.605470673405729" cx="7.605470673405729" cy="7.605470673405729" style="stroke-width: 1; fill: rgb(29, 145, 192);"></circle><circle class="pearl" r="2.1904339371426516" cx="11.28632504121408" cy="6.824206958723491"></circle><circle class="pearl" r="2.1904339371426516" cx="4.372211224683076" cy="10.838730122128382"></circle></g><g class="bobaCup bright" cupRadius="7.577222576173471" width="15.154445152346941" height="15.154445152346941" pearlRadius="2.7380424214283146" pearlCount="2" transform="translate(298.14316441671946,198.21722207755033)"><circle class="pool" r="7.577222576173471" cx="7.577222576173471" cy="7.577222576173471" style="stroke-width: 1; fill: rgb(65, 182, 196);"></circle><circle class="pearl" r="2.1904339371426516" cx="11.280058292839128" cy="6.775995395928742"></circle><circle class="pearl" r="2.1904339371426516" cx="4.365203327199879" cy="10.789241825147062"></circle></g><g class="bobaCup bright" cupRadius="7.516265383973159" width="15.032530767946318" height="15.032530767946318" pearlRadius="2.738042421428314" pearlCount="2" transform="translate(67.6344180835821,68.43672029946937)"><circle class="pool" r="7.516265383973159" cx="7.516265383973159" cy="7.516265383973159" style="stroke-width: 1; fill: rgb(127, 205, 187);"></circle><circle class="pearl" r="2.1904339371426516" cx="11.266619817385127" cy="6.672009465488489"></circle><circle class="pearl" r="2.1904339371426516" cx="4.3501164414984075" cy="10.682414326447912"></circle></g><g class="bobaCup bright" cupRadius="7.420247317699491" width="14.840494635398983" height="14.840494635398983" pearlRadius="2.7380424214283146" pearlCount="2" transform="translate(86.88941186393582,224.66854419221778)"><circle class="pool" r="7.420247317699491" cx="7.420247317699491" cy="7.420247317699491" style="stroke-width: 1; fill: rgb(29, 145, 192);"></circle><circle class="pearl" r="2.1904339371426516" cx="11.099400662624404" cy="6.265699928831857"></circle><circle class="pearl" r="2.1904339371426516" cx="4.326454220673554" cy="10.514041457229784"></circle></g><g class="bobaCup bright" cupRadius="7.330273216883635" width="14.66054643376727" height="14.66054643376727" pearlRadius="2.738042421428314" pearlCount="2" transform="translate(96.8230221744996,80.51218818937303)"><circle class="pool" r="7.330273216883635" cx="7.330273216883635" cy="7.330273216883635" style="stroke-width: 1; fill: rgb(127, 205, 187);"></circle><circle class="pearl" r="2.1904339371426516" cx="10.836629219907522" cy="5.746252286834582"></circle><circle class="pearl" r="2.1904339371426516" cx="4.304397890020102" cy="10.356149717249433"></circle></g><g class="bobaCup bright" cupRadius="7.21294032079849" width="14.42588064159698" height="14.42588064159698" pearlRadius="2.738042421428314" pearlCount="2" transform="translate(21.979242398617195,292.7870596792015)"><circle class="pool" r="7.21294032079849" cx="7.21294032079849" cy="7.21294032079849" style="stroke-width: 1; fill: rgb(29, 145, 192);"></circle><circle class="pearl" r="2.1904339371426516" cx="10.44947126137649" cy="5.069989532530321"></circle><circle class="pearl" r="2.1904339371426516" cx="4.275812676618251" cy="10.15006873545624"></circle></g><g class="bobaCup bright" cupRadius="6.821040168953373" width="13.642080337906746" height="13.642080337906746" pearlRadius="2.738042421428314" pearlCount="2" transform="translate(208.92345648795413,264.74287784204563)"><circle class="pool" r="6.821040168953373" cx="6.821040168953373" cy="6.821040168953373" style="stroke-width: 1; fill: rgb(65, 182, 196);"></circle><circle class="pearl" r="2.1904339371426516" cx="9.41272435298399" cy="4.162265630132746"></circle><circle class="pearl" r="2.1904339371426516" cx="4.229355984922757" cy="9.479814707774"></circle></g><g class="bobaCup bright" cupRadius="6.735549261522252" width="13.471098523044503" height="13.471098523044503" pearlRadius="2.738042421428314" pearlCount="2" transform="translate(75.4279664681544,112.9900194729865)"><circle class="pool" r="6.735549261522252" cx="6.735549261522252" cy="6.735549261522252" style="stroke-width: 1; fill: rgb(127, 205, 187);"></circle><circle class="pearl" r="2.1904339371426516" cx="9.245713404996312" cy="4.135936512946982"></circle><circle class="pearl" r="2.1904339371426516" cx="4.225385118048189" cy="9.335162010097521"></circle></g><g class="bobaCup bright" cupRadius="6.47752527858526" width="12.95505055717052" height="12.95505055717052" pearlRadius="2.7380424214283137" pearlCount="2" transform="translate(94.31991069880696,78.68542249439881)"><circle class="pool" r="6.47752527858526" cx="6.47752527858526" cy="6.47752527858526" style="stroke-width: 1; fill: rgb(29, 145, 192);"></circle><circle class="pearl" r="2.190433937142651" cx="8.741782660001654" cy="4.0593546832859335"></circle><circle class="pearl" r="2.190433937142651" cx="4.213267897168865" cy="8.895695873884584"></circle></g><g class="bobaCup bright" cupRadius="6.095377318555136" width="12.190754637110272" height="12.190754637110272" pearlRadius="2.7380424214283132" pearlCount="1" transform="translate(95.49418659527137,113.94046547263571)"><circle class="pool" r="6.095377318555136" cx="6.095377318555136" cy="6.095377318555136" style="stroke-width: 1; fill: rgb(29, 145, 192);"></circle><circle class="pearl" r="2.1904339371426507" cx="8.25355392989388" cy="6.095377318555136"></circle></g><g class="bobaCup bright" cupRadius="5.443334558182123" width="10.886669116364246" height="10.886669116364246" pearlRadius="2.738042421428314" pearlCount="1" transform="translate(298.44697492954947,152.25723522113478)"><circle class="pool" r="5.443334558182123" cx="5.443334558182123" cy="5.443334558182123" style="stroke-width: 1; fill: rgb(65, 182, 196);"></circle><circle class="pearl" r="2.1904339371426516" cx="7.182362208172362" cy="5.443334558182123"></circle></g><g class="bobaCup bright" cupRadius="3.8343458389856266" width="7.668691677971253" height="7.668691677971253" pearlRadius="2.738042421428314" pearlCount="0" transform="translate(182.51780923956235,258.18685472028335)"><circle class="pool" r="3.8343458389856266" cx="3.8343458389856266" cy="3.8343458389856266" style="stroke-width: 1; fill: rgb(29, 145, 192);"></circle></g><g class="bobaCup bright" cupRadius="3.751090096460854" width="7.502180192921708" height="7.502180192921708" pearlRadius="2.738042421428314" pearlCount="0" transform="translate(208.01902991200993,253.42406366138826)"><circle class="pool" r="3.751090096460854" cx="3.751090096460854" cy="3.751090096460854" style="stroke-width: 1; fill: rgb(29, 145, 192);"></circle></g><g class="bobaCup bright" cupRadius="3.370119501528574" width="6.740239003057148" height="6.740239003057148" pearlRadius="2.738042421428314" pearlCount="0" transform="translate(82.85353064494414,62.4369012213008)"><circle class="pool" r="3.370119501528574" cx="3.370119501528574" cy="3.370119501528574" style="stroke-width: 1; fill: rgb(65, 182, 196);"></circle></g><g class="bobaCup bright" cupRadius="0" width="0" height="0" pearlRadius="NaN" pearlCount="0" transform="translate(94.80188427035063,84.00959095686734)"><circle class="pool" r="0" cx="0" cy="0" style="stroke-width: 1; fill: rgb(29, 145, 192);"></circle></g></g><g id="legendDividerGroup" transform="translate(410,0)" height="400"><rect class="legendDivider" height="400" width="90"></rect></g><g id="legend" transform="translate(410,15.685863844314781)" width="90" height="320"><rect class="legendBorder" transform="translate(0,0)" width="90" height="348.62827231137044"></rect><text id="rTitle" text-anchor="middle" alignment-baseline="hanging" transform="translate(45,0)" x="0" y="0" style="fill: black; font-size: 0.8rem;">Population</text><text id="bobaValue" text-anchor="middle" alignment-baseline="hanging" transform="translate(45,15)" x="0" y="0" style="fill: black; font-size: 0.7rem;">(1 Pearl =   75)</text><g class="bright" cupRadius="3.370119501528574" width="6.740239003057148" height="6.740239003057148" pearlRadius="2.738042421428314" pearlCount="0" transform="translate(41.62988049847142,40)"><circle class="pool" r="3.370119501528574" cx="3.370119501528574" cy="3.370119501528574" style="stroke-width: 1; fill: rgb(127, 205, 187);"></circle></g><text id="0" class="legendSampleValue" text-anchor="middle" transform="translate(45,8)" x="0" y="51.74023900305715" style="fill: black; font-size: 0.7rem;">  43</text><g class="bright" cupRadius="9.438546729431739" width="18.877093458863477" height="18.877093458863477" pearlRadius="2.738042421428314" pearlCount="4" transform="translate(35.561453270568265,71.74023900305716)"><circle class="pool" r="9.438546729431739" cx="9.438546729431739" cy="9.438546729431739" style="stroke-width: 1; fill: rgb(127, 205, 187);"></circle><circle class="pearl" r="2.1904339371426516" cx="13.353537206227916" cy="5.5009631440690185"></circle><circle class="pearl" r="2.1904339371426516" cx="5.523479208922394" cy="13.376095193903403"></circle><circle class="pearl" r="2.1904339371426516" cx="5.523589203438785" cy="5.500948123480219"></circle><circle class="pearl" r="2.1904339371426516" cx="13.353427205302111" cy="13.376180458004175"></circle></g><text id="1" class="legendSampleValue" text-anchor="middle" transform="translate(45,8)" x="0" y="95.61733246192063" style="fill: black; font-size: 0.7rem;"> 330</text><g class="bright" cupRadius="12.915673550874144" width="25.83134710174829" height="25.83134710174829" pearlRadius="2.7380424214283137" pearlCount="8" transform="translate(32.084326449125854,115.61733246192063)"><circle class="pool" r="12.915673550874144" cx="12.915673550874144" cy="12.915673550874144" style="stroke-width: 1; fill: rgb(127, 205, 187);"></circle><circle class="pearl" r="2.190433937142651" cx="13.666525270728748" cy="12.952392202251986"></circle><circle class="pearl" r="2.190433937142651" cx="6.78504639962518" cy="19.632889185840238"></circle><circle class="pearl" r="2.190433937142651" cx="14.254839241445396" cy="4.720336740431447"></circle><circle class="pearl" r="2.190433937142651" cx="20.610868376346772" cy="16.709475163450566"></circle><circle class="pearl" r="2.190433937142651" cx="4.654402235082232" cy="13.223926951650412"></circle><circle class="pearl" r="2.190433937142651" cx="20.50690284249293" cy="8.798730295719071"></circle><circle class="pearl" r="2.190433937142651" cx="14.3865742720018" cy="21.096593800101846"></circle><circle class="pearl" r="2.190433937142651" cx="6.699089961984281" cy="6.245234659101966"></circle></g><text id="2" class="legendSampleValue" text-anchor="middle" transform="translate(45,8)" x="0" y="146.44867956366892" style="fill: black; font-size: 0.7rem;"> 630</text><g class="bright" cupRadius="15.637873326697378" width="31.275746653394755" height="31.275746653394755" pearlRadius="2.7380424214283137" pearlCount="12" transform="translate(29.362126673302622,166.44867956366892)"><circle class="pool" r="15.637873326697378" cx="15.637873326697378" cy="15.637873326697378" style="stroke-width: 1; fill: rgb(127, 205, 187);"></circle><circle class="pearl" r="2.190433937142651" cx="17.620618767561673" cy="11.219666419527433"></circle><circle class="pearl" r="2.190433937142651" cx="11.589169535429852" cy="16.32140584778464"></circle><circle class="pearl" r="2.190433937142651" cx="14.479048498188359" cy="4.693718960408528"></circle><circle class="pearl" r="2.190433937142651" cx="18.47183868840213" cy="18.57891868588428"></circle><circle class="pearl" r="2.190433937142651" cx="4.703711999017031" cy="14.351616917520376"></circle><circle class="pearl" r="2.190433937142651" cx="26.563742562585322" cy="14.254815345992462"></circle><circle class="pearl" r="2.190433937142651" cx="12.224519130237233" cy="26.24795267568889"></circle><circle class="pearl" r="2.190433937142651" cx="7.218975271283483" cy="7.11038583778555"></circle><circle class="pearl" r="2.190433937142651" cx="25.29503326632773" cy="21.948781456826612"></circle><circle class="pearl" r="2.190433937142651" cx="5.965944123550855" cy="21.915190389109235"></circle><circle class="pearl" r="2.190433937142651" cx="23.970821512946152" cy="7.055869825409399"></circle><circle class="pearl" r="2.190433937142651" cx="19.86327657262236" cy="26.04334648337446"></circle></g><text id="3" class="legendSampleValue" text-anchor="middle" transform="translate(45,8)" x="0" y="202.72442621706367" style="fill: black; font-size: 0.7rem;"> 920</text><g class="bright" cupRadius="17.95192304715338" width="35.90384609430676" height="35.90384609430676" pearlRadius="2.7380424214283132" pearlCount="16" transform="translate(27.04807695284662,222.72442621706367)"><circle class="pool" r="17.95192304715338" cx="17.95192304715338" cy="17.95192304715338" style="stroke-width: 1; fill: rgb(127, 205, 187);"></circle><circle class="pearl" r="2.1904339371426507" cx="18.678080227419763" cy="18.73800576536179"></circle><circle class="pearl" r="2.1904339371426507" cx="13.518221778176665" cy="23.543946367410857"></circle><circle class="pearl" r="2.1904339371426507" cx="16.446164594234407" cy="11.300961838477631"></circle><circle class="pearl" r="2.1904339371426507" cx="20.65689033810647" cy="26.179765417022036"></circle><circle class="pearl" r="2.1904339371426507" cx="11.043496824376358" cy="16.66234778009096"></circle><circle class="pearl" r="2.1904339371426507" cx="23.349642419843683" cy="13.478047680473694"></circle><circle class="pearl" r="2.1904339371426507" cx="14.994044703712742" cy="31.007766306648847"></circle><circle class="pearl" r="2.1904339371426507" cx="11.400463859072925" cy="5.888881780619452"></circle><circle class="pearl" r="2.1904339371426507" cx="26.29119093907752" cy="20.720256301491098"></circle><circle class="pearl" r="2.1904339371426507" cx="5.026680536570235" cy="21.606641836197678"></circle><circle class="pearl" r="2.1904339371426507" cx="27.72402280593838" cy="7.543509268735291"></circle><circle class="pearl" r="2.1904339371426507" cx="27.983426281951512" cy="28.188794786915874"></circle><circle class="pearl" r="2.1904339371426507" cx="6.154811106762483" cy="10.758852816328845"></circle><circle class="pearl" r="2.1904339371426507" cx="30.971866626732787" cy="14.786630699479158"></circle><circle class="pearl" r="2.1904339371426507" cx="8.225190105623359" cy="28.38967911157506"></circle><circle class="pearl" r="2.1904339371426507" cx="20.687705374151605" cy="4.860407517602623"></circle></g><text id="4" class="legendSampleValue" text-anchor="middle" transform="translate(45,8)" x="0" y="263.62827231137044" style="fill: black; font-size: 0.7rem;">1.2k</text><g class="bright" cupRadius="20" width="40" height="40" pearlRadius="2.7380424214283137" pearlCount="20" transform="translate(25,283.62827231137044)"><circle class="pool" r="20" cx="20" cy="20" style="stroke-width: 1; fill: rgb(127, 205, 187);"></circle><circle class="pearl" r="2.190433937142651" cx="20.803317911356498" cy="19.852362298934615"></circle><circle class="pearl" r="2.190433937142651" cx="12.399118369231148" cy="22.318129073543428"></circle><circle class="pearl" r="2.190433937142651" cx="20.14107886386132" cy="11.690576671380018"></circle><circle class="pearl" r="2.190433937142651" cx="25.351645945468196" cy="26.426489948513225"></circle><circle class="pearl" r="2.190433937142651" cx="5.45555413244983" cy="14.383463400696877"></circle><circle class="pearl" r="2.190433937142651" cx="27.007002384921414" cy="14.812215198670392"></circle><circle class="pearl" r="2.190433937142651" cx="17.669394065840073" cy="27.98572181627974"></circle><circle class="pearl" r="2.190433937142651" cx="13.075316060454844" cy="14.529673081448232"></circle><circle class="pearl" r="2.190433937142651" cx="31.363412690087696" cy="21.539471699750266"></circle><circle class="pearl" r="2.190433937142651" cx="6.986823167406808" cy="29.380119115938808"></circle><circle class="pearl" r="2.190433937142651" cx="24.195863946736896" cy="5.095807587217031"></circle><circle class="pearl" r="2.190433937142651" cx="27.929986347293504" cy="33.70997709935047"></circle><circle class="pearl" r="2.190433937142651" cx="8.960309851298339" cy="7.973635910317352"></circle><circle class="pearl" r="2.190433937142651" cx="34.68553340637696" cy="14.890285786129768"></circle><circle class="pearl" r="2.190433937142651" cx="12.548559824642552" cy="33.90934248556552"></circle><circle class="pearl" r="2.190433937142651" cx="16.437930987710008" cy="4.970487855189916"></circle><circle class="pearl" r="2.190433937142651" cx="33.26719371328966" cy="28.885282914155283"></circle><circle class="pearl" r="2.190433937142651" cx="4.745924110358729" cy="21.949095191008542"></circle><circle class="pearl" r="2.190433937142651" cx="31.34694409707199" cy="8.181149473979769"></circle><circle class="pearl" r="2.190433937142651" cx="20.521343379892976" cy="35.34248064375117"></circle></g><text id="5" class="legendSampleValue" text-anchor="middle" transform="translate(45,8)" x="0" y="328.62827231137044" style="fill: black; font-size: 0.7rem;">1.5k</text><text id="coloringDisclaimer" transform="translate(45,8)" text-anchor="middle" x="0" y="343.62827231137044" style="font-size: 0.7rem; opacity: 0.6;">(note: coloring</text><text id="coloringDisclaimer" transform="translate(45,8)" text-anchor="middle" x="0" y="358.62827231137044" style="font-size: 0.7rem; opacity: 0.6;">is random)</text></g></svg>