<?xml version="1.0" standalone="no"?>
<?xml-stylesheet xmlns="http://www.w3.org/2000/svg" type="text/css" href="style.css"?>
<svg id="syntheticVisB" class="default" xTitle="Percent Cat Owners" yTitle="Percent Dog Owners" rTitle="Population" chartTitle="Towns in Vizzyland" width="500" height="400" xmlns="http://www.w3.org/2000/svg"><text id="chartTitle" text-anchor="middle" transform="translate(250,20)" x="0" y="0" style="fill: black; font-size: 1.2rem;">Towns in Vizzyland</text><g id="yAxis" transform="translate(50,30)" fill="none" font-size="10" font-family="sans-serif" text-anchor="end"><path class="domain" stroke="currentColor" d="M-6,300H0V20H-6"></path><g class="tick" opacity="1" transform="translate(0,300)"><line stroke="currentColor" x2="-6"></line><text fill="currentColor" x="-9" dy="0.32em">0</text></g><g class="tick" opacity="1" transform="translate(0,272)"><line stroke="currentColor" x2="-6"></line><text fill="currentColor" x="-9" dy="0.32em">10</text></g><g class="tick" opacity="1" transform="translate(0,244)"><line stroke="currentColor" x2="-6"></line><text fill="currentColor" x="-9" dy="0.32em">20</text></g><g class="tick" opacity="1" transform="translate(0,216)"><line stroke="currentColor" x2="-6"></line><text fill="currentColor" x="-9" dy="0.32em">30</text></g><g class="tick" opacity="1" transform="translate(0,188)"><line stroke="currentColor" x2="-6"></line><text fill="currentColor" x="-9" dy="0.32em">40</text></g><g class="tick" opacity="1" transform="translate(0,160)"><line stroke="currentColor" x2="-6"></line><text fill="currentColor" x="-9" dy="0.32em">50</text></g><g class="tick" opacity="1" transform="translate(0,132)"><line stroke="currentColor" x2="-6"></line><text fill="currentColor" x="-9" dy="0.32em">60</text></g><g class="tick" opacity="1" transform="translate(0,104.00000000000001)"><line stroke="currentColor" x2="-6"></line><text fill="currentColor" x="-9" dy="0.32em">70</text></g><g class="tick" opacity="1" transform="translate(0,75.99999999999999)"><line stroke="currentColor" x2="-6"></line><text fill="currentColor" x="-9" dy="0.32em">80</text></g><g class="tick" opacity="1" transform="translate(0,47.99999999999999)"><line stroke="currentColor" x2="-6"></line><text fill="currentColor" x="-9" dy="0.32em">90</text></g><g class="tick" opacity="1" transform="translate(0,20)"><line stroke="currentColor" x2="-6"></line><text fill="currentColor" x="-9" dy="0.32em">100</text></g></g><g id="xAxis" transform="translate(60,360)" fill="none" font-size="10" font-family="sans-serif" text-anchor="middle"><path class="domain" stroke="currentColor" d="M20,6V0H320V6"></path><g class="tick" opacity="1" transform="translate(20,0)"><line stroke="currentColor" y2="6"></line><text fill="currentColor" y="9" dy="0.71em">0</text></g><g class="tick" opacity="1" transform="translate(50,0)"><line stroke="currentColor" y2="6"></line><text fill="currentColor" y="9" dy="0.71em">10</text></g><g class="tick" opacity="1" transform="translate(80,0)"><line stroke="currentColor" y2="6"></line><text fill="currentColor" y="9" dy="0.71em">20</text></g><g class="tick" opacity="1" transform="translate(110,0)"><line stroke="currentColor" y2="6"></line><text fill="currentColor" y="9" dy="0.71em">30</text></g><g class="tick" opacity="1" transform="translate(140,0)"><line stroke="currentColor" y2="6"></line><text fill="currentColor" y="9" dy="0.71em">40</text></g><g class="tick" opacity="1" transform="translate(170,0)"><line stroke="currentColor" y2="6"></line><text fill="currentColor" y="9" dy="0.71em">50</text></g><g class="tick" opacity="1" transform="translate(200,0)"><line stroke="currentColor" y2="6"></line><text fill="currentColor" y="9" dy="0.71em">60</text></g><g class="tick" opacity="1" transform="translate(230,0)"><line stroke="currentColor" y2="6"></line><text fill="currentColor" y="9" dy="0.71em">70</text></g><g class="tick" opacity="1" transform="translate(260,0)"><line stroke="currentColor" y2="6"></line><text fill="currentColor" y="9" dy="0.71em">80</text></g><g class="tick" opacity="1" transform="translate(290,0)"><line stroke="currentColor" y2="6"></line><text fill="currentColor" y="9" dy="0.71em">90</text></g><g class="tick" opacity="1" transform="translate(320,0)"><line stroke="currentColor" y2="6"></line><text fill="currentColor" y="9" dy="0.71em">100</text></g></g><g id="labels"><text id="xTitle" text-anchor="middle" transform="translate(250,350)" x="0" y="40" style="fill: black; font-size: 0.8rem;">Percent Cat Owners</text><g id="group-yTitle" transform="translate(60,190)"><text id="yTitle" text-anchor="middle" transform="rotate(-90)" y="-45" style="fill: black; font-size: 0.8rem;">Percent Dog Owners</text></g></g><g id="quadrant_lines" transform="translate(60,30)"><line id="verticalQuadrantLine" x1="170" y1="10" x2="170" y2="310" class="quadrantLine"></line><line id="horizontalQuadrantLine" x1="10" y1="160" x2="330" y2="160" class="quadrantLine"></line></g><g id="chart" transform="translate(60,30)"><g class="bobaCup bright" cupRadius="20" width="40" height="40" pearlRadius="2.7380424214283137" pearlCount="20" transform="translate(222.25560093107717,193.2875696292855)"><circle class="pool" r="20" cx="20" cy="20" style="stroke-width: 1; fill: rgb(127, 205, 187);"></circle><circle class="pearl" r="2.190433937142651" cx="20.803317911356498" cy="19.852362298934615"></circle><circle class="pearl" r="2.190433937142651" cx="12.399118369231148" cy="22.318129073543428"></circle><circle class="pearl" r="2.190433937142651" cx="20.14107886386132" cy="11.690576671380018"></circle><circle class="pearl" r="2.190433937142651" cx="25.351645945468196" cy="26.426489948513225"></circle><circle class="pearl" r="2.190433937142651" cx="5.45555413244983" cy="14.383463400696877"></circle><circle class="pearl" r="2.190433937142651" cx="27.007002384921414" cy="14.812215198670392"></circle><circle class="pearl" r="2.190433937142651" cx="17.669394065840073" cy="27.98572181627974"></circle><circle class="pearl" r="2.190433937142651" cx="13.075316060454844" cy="14.529673081448232"></circle><circle class="pearl" r="2.190433937142651" cx="31.363412690087696" cy="21.539471699750266"></circle><circle class="pearl" r="2.190433937142651" cx="6.986823167406808" cy="29.380119115938808"></circle><circle class="pearl" r="2.190433937142651" cx="24.195863946736896" cy="5.095807587217031"></circle><circle class="pearl" r="2.190433937142651" cx="27.929986347293504" cy="33.70997709935047"></circle><circle class="pearl" r="2.190433937142651" cx="8.960309851298339" cy="7.973635910317352"></circle><circle class="pearl" r="2.190433937142651" cx="34.68553340637696" cy="14.890285786129768"></circle><circle class="pearl" r="2.190433937142651" cx="12.548559824642552" cy="33.90934248556552"></circle><circle class="pearl" r="2.190433937142651" cx="16.437930987710008" cy="4.970487855189916"></circle><circle class="pearl" r="2.190433937142651" cx="33.26719371328966" cy="28.885282914155283"></circle><circle class="pearl" r="2.190433937142651" cx="4.745924110358729" cy="21.949095191008542"></circle><circle class="pearl" r="2.190433937142651" cx="31.34694409707199" cy="8.181149473979769"></circle><circle class="pearl" r="2.190433937142651" cx="20.521343379892976" cy="35.34248064375117"></circle></g><g class="bobaCup bright" cupRadius="18.582905398676004" width="37.16581079735201" height="37.16581079735201" pearlRadius="2.7380424214283137" pearlCount="17" transform="translate(170.7684380721434,94.6139269122552)"><circle class="pool" r="18.582905398676004" cx="18.582905398676004" cy="18.582905398676004" style="stroke-width: 1; fill: rgb(127, 205, 187);"></circle><circle class="pearl" r="2.190433937142651" cx="18.53853325665545" cy="18.61608973910449"></circle><circle class="pearl" r="2.190433937142651" cx="13.657508084666814" cy="24.48021695904196"></circle><circle class="pearl" r="2.190433937142651" cx="15.983448086349362" cy="11.31912044629629"></circle><circle class="pearl" r="2.190433937142651" cx="20.99658748535891" cy="25.95210940903096"></circle><circle class="pearl" r="2.190433937142651" cx="11.11050060956739" cy="17.433913149810266"></circle><circle class="pearl" r="2.190433937142651" cx="23.34012879159582" cy="12.676669400055784"></circle><circle class="pearl" r="2.190433937142651" cx="15.78004757275881" cy="32.302494118023404"></circle><circle class="pearl" r="2.190433937142651" cx="10.228837159623046" cy="6.634414280977914"></circle><circle class="pearl" r="2.190433937142651" cx="25.957168826473392" cy="19.762944450735827"></circle><circle class="pearl" r="2.190433937142651" cx="5.07155666946667" cy="22.515273038730516"></circle><circle class="pearl" r="2.190433937142651" cx="28.896580209615966" cy="7.775540616424912"></circle><circle class="pearl" r="2.190433937142651" cx="27.163840539051876" cy="30.41526213632495"></circle><circle class="pearl" r="2.190433937142651" cx="5.828028411786299" cy="12.073723100130888"></circle><circle class="pearl" r="2.190433937142651" cx="32.109273139764895" cy="14.720556769040435"></circle><circle class="pearl" r="2.190433937142651" cx="8.290064241478182" cy="29.404150175786565"></circle><circle class="pearl" r="2.190433937142651" cx="21.590284623659617" cy="4.895688632436364"></circle><circle class="pearl" r="2.190433937142651" cx="31.413196402949566" cy="24.88675457574429"></circle></g><g class="bobaCup bright" cupRadius="18.439403955388087" width="36.878807910776175" height="36.878807910776175" pearlRadius="2.7380424214283137" pearlCount="17" transform="translate(286.10207163284383,77.23409671023961)"><circle class="pool" r="18.439403955388087" cx="18.439403955388087" cy="18.439403955388087" style="stroke-width: 1; fill: rgb(127, 205, 187);"></circle><circle class="pearl" r="2.190433937142651" cx="18.383324494592358" cy="18.49442196546907"></circle><circle class="pearl" r="2.190433937142651" cx="13.37133371404178" cy="24.150157674701006"></circle><circle class="pearl" r="2.190433937142651" cx="16.005203217312122" cy="11.180118975016237"></circle><circle class="pearl" r="2.190433937142651" cx="20.579044217754934" cy="25.90173359207269"></circle><circle class="pearl" r="2.190433937142651" cx="10.982097066903528" cy="17.166093359063407"></circle><circle class="pearl" r="2.190433937142651" cx="23.2485326640957" cy="12.650977882766291"></circle><circle class="pearl" r="2.190433937142651" cx="15.458748819963867" cy="31.985584672094376"></circle><circle class="pearl" r="2.190433937142651" cx="10.395954924960032" cy="6.497522026091772"></circle><circle class="pearl" r="2.190433937142651" cx="25.744257628759016" cy="19.71533609407331"></circle><circle class="pearl" r="2.190433937142651" cx="5.078446827092375" cy="22.387946591860516"></circle><circle class="pearl" r="2.190433937142651" cx="28.599783066994416" cy="7.702524559170099"></circle><circle class="pearl" r="2.190433937142651" cx="26.798741229681394" cy="30.224407013312298"></circle><circle class="pearl" r="2.190433937142651" cx="5.9368774211882105" cy="11.673486367508398"></circle><circle class="pearl" r="2.190433937142651" cx="31.820092601786968" cy="14.581969053128034"></circle><circle class="pearl" r="2.190433937142651" cx="8.31015492216389" cy="29.19679327355382"></circle><circle class="pearl" r="2.190433937142651" cx="21.358724246232416" cy="4.883282666870375"></circle><circle class="pearl" r="2.190433937142651" cx="31.069464347277687" cy="24.872609664270694"></circle></g><g class="bobaCup bright" cupRadius="17.901047103513985" width="35.80209420702797" height="35.80209420702797" pearlRadius="2.7380424214283137" pearlCount="16" transform="translate(301.2971848779447,149.43349763417714)"><circle class="pool" r="17.901047103513985" cx="17.901047103513985" cy="17.901047103513985" style="stroke-width: 1; fill: rgb(29, 145, 192);"></circle><circle class="pearl" r="2.190433937142651" cx="18.629329737213947" cy="18.690022287497403"></circle><circle class="pearl" r="2.190433937142651" cx="13.481866523099905" cy="23.471559750503065"></circle><circle class="pearl" r="2.190433937142651" cx="16.37959191117491" cy="11.278793178944742"></circle><circle class="pearl" r="2.190433937142651" cx="20.604551069158084" cy="26.096347703923566"></circle><circle class="pearl" r="2.190433937142651" cx="11.005548813168645" cy="16.61840734001214"></circle><circle class="pearl" r="2.190433937142651" cx="23.247325435513464" cy="13.430957691771805"></circle><circle class="pearl" r="2.190433937142651" cx="14.976488768424721" cy="30.910857444087586"></circle><circle class="pearl" r="2.190433937142651" cx="11.375778320521048" cy="5.882386578870786"></circle><circle class="pearl" r="2.190433937142651" cx="26.23937320698784" cy="20.651063148277657"></circle><circle class="pearl" r="2.190433937142651" cx="5.031134932638302" cy="21.571853908819772"></circle><circle class="pearl" r="2.190433937142651" cx="27.62432379753101" cy="7.521621372949243"></circle><circle class="pearl" r="2.190433937142651" cx="27.88875715675135" cy="28.106068060095243"></circle><circle class="pearl" r="2.190433937142651" cx="6.160418726589903" cy="10.705834810102662"></circle><circle class="pearl" r="2.190433937142651" cx="30.8620052897337" cy="14.695401279949094"></circle><circle class="pearl" r="2.190433937142651" cx="8.23318745717256" cy="28.316178555672746"></circle><circle class="pearl" r="2.190433937142651" cx="20.610736717303382" cy="4.856995125851217"></circle></g><g class="bobaCup bright" cupRadius="17.602286849486593" width="35.204573698973185" height="35.204573698973185" pearlRadius="2.7380424214283137" pearlCount="15" transform="translate(247.15721120933839,81.98189759697827)"><circle class="pool" r="17.602286849486593" cx="17.602286849486593" cy="17.602286849486593" style="stroke-width: 1; fill: rgb(29, 145, 192);"></circle><circle class="pearl" r="2.190433937142651" cx="23.446951883049348" cy="17.55570070060106"></circle><circle class="pearl" r="2.190433937142651" cx="12.887064450537457" cy="22.040507556048816"></circle><circle class="pearl" r="2.190433937142651" cx="17.88261328079625" cy="11.8591601659495"></circle><circle class="pearl" r="2.190433937142651" cx="20.123120578272495" cy="24.535260109688036"></circle><circle class="pearl" r="2.190433937142651" cx="10.52585225709665" cy="14.797965417330657"></circle><circle class="pearl" r="2.190433937142651" cx="25.507935315656617" cy="10.055739803093724"></circle><circle class="pearl" r="2.190433937142651" cx="14.969450247646025" cy="30.355835331033607"></circle><circle class="pearl" r="2.190433937142651" cx="13.906918860144616" cy="5.042990968394982"></circle><circle class="pearl" r="2.190433937142651" cx="30.023884244938795" cy="21.889053794651428"></circle><circle class="pearl" r="2.190433937142651" cx="4.851210869900374" cy="20.251416263196788"></circle><circle class="pearl" r="2.190433937142651" cx="21.503291596208282" cy="5.088434222602832"></circle><circle class="pearl" r="2.190433937142651" cx="26.963131490820267" cy="27.858444244722197"></circle><circle class="pearl" r="2.190433937142651" cx="7.729470144045218" cy="7.6801588597007715"></circle><circle class="pearl" r="2.190433937142651" cx="30.24497616714495" cy="14.319241793822153"></circle><circle class="pearl" r="2.190433937142651" cx="7.813127457873911" cy="27.58074202358768"></circle></g><g class="bobaCup bright" cupRadius="17.56232265181967" width="35.12464530363934" height="35.12464530363934" pearlRadius="2.738042421428314" pearlCount="15" transform="translate(181.42861995362054,232.20948051869362)"><circle class="pool" r="17.56232265181967" cx="17.56232265181967" cy="17.56232265181967" style="stroke-width: 1; fill: rgb(127, 205, 187);"></circle><circle class="pearl" r="2.1904339371426516" cx="23.402220963911812" cy="17.48975379052959"></circle><circle class="pearl" r="2.1904339371426516" cx="12.850039116670834" cy="21.98952678176141"></circle><circle class="pearl" r="2.1904339371426516" cx="17.887216332625005" cy="11.800943374613967"></circle><circle class="pearl" r="2.1904339371426516" cx="20.078410868750503" cy="24.44965937426427"></circle><circle class="pearl" r="2.1904339371426516" cx="10.532995769224568" cy="14.756769240495501"></circle><circle class="pearl" r="2.1904339371426516" cx="25.508274353642182" cy="9.982418973960483"></circle><circle class="pearl" r="2.1904339371426516" cx="14.950318566211457" cy="30.27859719440593"></circle><circle class="pearl" r="2.1904339371426516" cx="13.852221969434831" cy="5.047081594828882"></circle><circle class="pearl" r="2.1904339371426516" cx="29.942720827133908" cy="21.84905574973207"></circle><circle class="pearl" r="2.1904339371426516" cx="4.848994918120354" cy="20.193845235096248"></circle><circle class="pearl" r="2.1904339371426516" cx="21.43685707621399" cy="5.0834469381854355"></circle><circle class="pearl" r="2.1904339371426516" cx="26.88232411257427" cy="27.79691936264359"></circle><circle class="pearl" r="2.1904339371426516" cx="7.722151605551781" cy="7.666355167145719"></circle><circle class="pearl" r="2.1904339371426516" cx="30.166389661021658" cy="14.290107686835043"></circle><circle class="pearl" r="2.1904339371426516" cx="7.809245444228177" cy="27.516826635085362"></circle></g><g class="bobaCup bright" cupRadius="17.27615444960058" width="34.55230889920116" height="34.55230889920116" pearlRadius="2.738042421428314" pearlCount="14" transform="translate(176.35047650229444,95.1194217673684)"><circle class="pool" r="17.27615444960058" cx="17.27615444960058" cy="17.27615444960058" style="stroke-width: 1; fill: rgb(29, 145, 192);"></circle><circle class="pearl" r="2.1904339371426516" cx="21.359333488767735" cy="13.187892036506508"></circle><circle class="pearl" r="2.1904339371426516" cx="13.211788979689256" cy="21.34454417130115"></circle><circle class="pearl" r="2.1904339371426516" cx="13.417680986660185" cy="13.389420866818838"></circle><circle class="pearl" r="2.1904339371426516" cx="21.165922607157402" cy="21.129608430046957"></circle><circle class="pearl" r="2.1904339371426516" cx="5.548985968477297" cy="19.06624157265094"></circle><circle class="pearl" r="2.1904339371426516" cx="26.917594054668726" cy="7.591322059072791"></circle><circle class="pearl" r="2.1904339371426516" cx="15.09029866816768" cy="29.762745685939986"></circle><circle class="pearl" r="2.1904339371426516" cx="11.540983933461796" cy="5.630456852810461"></circle><circle class="pearl" r="2.1904339371426516" cx="28.933696267707806" cy="22.977558113063147"></circle><circle class="pearl" r="2.1904339371426516" cx="7.628592458563011" cy="26.95686730383505"></circle><circle class="pearl" r="2.1904339371426516" cx="19.486000722541473" cy="4.7926402566689745"></circle><circle class="pearl" r="2.1904339371426516" cx="23.49240967203097" cy="28.744478450194773"></circle><circle class="pearl" r="2.1904339371426516" cx="5.798580595277631" cy="11.083937902001033"></circle><circle class="pearl" r="2.1904339371426516" cx="29.75477059979401" cy="15.028656949365892"></circle></g><g class="bobaCup bright" cupRadius="17.194310310330405" width="34.38862062066081" height="34.38862062066081" pearlRadius="2.7380424214283132" pearlCount="14" transform="translate(133.5842834970317,150.18861633017903)"><circle class="pool" r="17.194310310330405" cx="17.194310310330405" cy="17.194310310330405" style="stroke-width: 1; fill: rgb(65, 182, 196);"></circle><circle class="pearl" r="2.1904339371426507" cx="21.274305666780627" cy="13.10434162399039"></circle><circle class="pearl" r="2.1904339371426507" cx="13.126571784842627" cy="21.274528580491776"></circle><circle class="pearl" r="2.1904339371426507" cx="13.377368105910985" cy="13.368180505749264"></circle><circle class="pearl" r="2.1904339371426507" cx="21.032533927936242" cy="21.000980452037954"></circle><circle class="pearl" r="2.1904339371426507" cx="5.423940353495311" cy="19.13294259715684"></circle><circle class="pearl" r="2.1904339371426507" cx="26.75073051364427" cy="7.551008915107496"></circle><circle class="pearl" r="2.1904339371426507" cx="15.07279373118359" cy="29.60651398344707"></circle><circle class="pearl" r="2.1904339371426507" cx="11.380333364510111" cy="5.663501500141854"></circle><circle class="pearl" r="2.1904339371426507" cx="28.765149581626776" cy="22.89564498835347"></circle><circle class="pearl" r="2.1904339371426507" cx="7.630961509128684" cy="26.83297708814126"></circle><circle class="pearl" r="2.1904339371426507" cx="19.321585333515493" cy="4.782823599281495"></circle><circle class="pearl" r="2.1904339371426507" cx="23.348457398650854" cy="28.598828614145287"></circle><circle class="pearl" r="2.1904339371426507" cx="5.746288555976597" cy="11.15488012009846"></circle><circle class="pearl" r="2.1904339371426507" cx="29.59072285167201" cy="14.949434124413273"></circle></g><g class="bobaCup bright" cupRadius="16.94788625318212" width="33.89577250636424" height="33.89577250636424" pearlRadius="2.7380424214283137" pearlCount="14" transform="translate(110.28228622397694,21.556432041847707)"><circle class="pool" r="16.94788625318212" cx="16.94788625318212" cy="16.94788625318212" style="stroke-width: 1; fill: rgb(65, 182, 196);"></circle><circle class="pearl" r="2.190433937142651" cx="21.06344718264455" cy="12.88667623616528"></circle><circle class="pearl" r="2.190433937142651" cx="12.82797794352983" cy="21.011589730538986"></circle><circle class="pearl" r="2.190433937142651" cx="13.28995604245094" cy="13.253748260346907"></circle><circle class="pearl" r="2.190433937142651" cx="20.60949406330357" cy="20.637816317590786"></circle><circle class="pearl" r="2.190433937142651" cx="4.803649317977126" cy="19.219485149988948"></circle><circle class="pearl" r="2.190433937142651" cx="26.240709153206584" cy="7.425596711012455"></circle><circle class="pearl" r="2.190433937142651" cx="15.057535945380705" cy="29.139295436054507"></circle><circle class="pearl" r="2.190433937142651" cx="10.925463069644977" cy="5.756852399623906"></circle><circle class="pearl" r="2.190433937142651" cx="28.272584348518958" cy="22.60622187193321"></circle><circle class="pearl" r="2.190433937142651" cx="7.654769019934392" cy="26.469982805442"></circle><circle class="pearl" r="2.190433937142651" cx="18.84411674110204" cy="4.757138097474382"></circle><circle class="pearl" r="2.190433937142651" cx="22.97053847636775" cy="28.138833032831652"></circle><circle class="pearl" r="2.190433937142651" cx="5.616718751401965" cy="11.30784927334656"></circle><circle class="pearl" r="2.190433937142651" cx="29.09182455130276" cy="14.67408048868504"></circle></g><g class="bobaCup bright" cupRadius="16.572111282668725" width="33.14422256533745" height="33.14422256533745" pearlRadius="2.7380424214283132" pearlCount="13" transform="translate(195.65444917537428,82.70957545010776)"><circle class="pool" r="16.572111282668725" cx="16.572111282668725" cy="16.572111282668725" style="stroke-width: 1; fill: rgb(127, 205, 187);"></circle><circle class="pearl" r="2.1904339371426507" cx="20.865915546043496" cy="15.222751337920776"></circle><circle class="pearl" r="2.1904339371426507" cx="14.938625339295204" cy="20.586190464904746"></circle><circle class="pearl" r="2.1904339371426507" cx="13.241230566249943" cy="12.765356907525701"></circle><circle class="pearl" r="2.1904339371426507" cx="25.61216382617267" cy="25.810676098336767"></circle><circle class="pearl" r="2.1904339371426507" cx="4.794937083644753" cy="14.390584644378043"></circle><circle class="pearl" r="2.1904339371426507" cx="27.53872050505004" cy="11.028303973464597"></circle><circle class="pearl" r="2.1904339371426507" cx="10.724708994702127" cy="27.42760483472595"></circle><circle class="pearl" r="2.1904339371426507" cx="14.721578846735085" cy="4.754367610258604"></circle><circle class="pearl" r="2.1904339371426507" cx="28.34037879461678" cy="18.819691187344585"></circle><circle class="pearl" r="2.1904339371426507" cx="5.565620016750228" cy="22.002259221602014"></circle><circle class="pearl" r="2.1904339371426507" cx="22.531569052833117" cy="5.759337641165973"></circle><circle class="pearl" r="2.1904339371426507" cx="18.51653835007508" cy="28.379032956837936"></circle><circle class="pearl" r="2.1904339371426507" cx="7.518663409691206" cy="7.342274220803586"></circle></g><g class="bobaCup bright" cupRadius="15.37931549390022" width="30.75863098780044" height="30.75863098780044" pearlRadius="2.7380424214283132" pearlCount="11" transform="translate(193.70084752913132,236.41376671777655)"><circle class="pool" r="15.37931549390022" cx="15.37931549390022" cy="15.37931549390022" style="stroke-width: 1; fill: rgb(29, 145, 192);"></circle><circle class="pearl" r="2.1904339371426507" cx="19.292289461477505" cy="15.71895723968218"></circle><circle class="pearl" r="2.1904339371426507" cx="11.880510149476068" cy="17.61630811588669"></circle><circle class="pearl" r="2.1904339371426507" cx="14.043392705486907" cy="10.20793080348265"></circle><circle class="pearl" r="2.1904339371426507" cx="21.965339128940677" cy="24.626348837510413"></circle><circle class="pearl" r="2.1904339371426507" cx="4.682242494397038" cy="14.395193549002787"></circle><circle class="pearl" r="2.1904339371426507" cx="25.393968640021175" cy="10.747892294758957"></circle><circle class="pearl" r="2.1904339371426507" cx="14.38246785367722" cy="26.075567206440535"></circle><circle class="pearl" r="2.1904339371426507" cx="7.204120727552707" cy="7.003545119309952"></circle><circle class="pearl" r="2.1904339371426507" cx="25.77101593276792" cy="18.580695707213987"></circle><circle class="pearl" r="2.1904339371426507" cx="7.140058205536293" cy="23.714661123804408"></circle><circle class="pearl" r="2.1904339371426507" cx="20.027393650676093" cy="5.369932498114593"></circle></g><g class="bobaCup bright" cupRadius="15.3665139755452" width="30.7330279510904" height="30.7330279510904" pearlRadius="2.7380424214283137" pearlCount="11" transform="translate(4.6334860244548,223.35253601931055)"><circle class="pool" r="15.3665139755452" cx="15.3665139755452" cy="15.3665139755452" style="stroke-width: 1; fill: rgb(29, 145, 192);"></circle><circle class="pearl" r="2.190433937142651" cx="19.279825092124547" cy="15.712073900664203"></circle><circle class="pearl" r="2.190433937142651" cx="11.878097122954049" cy="17.609909468112615"></circle><circle class="pearl" r="2.190433937142651" cx="14.030716232919707" cy="10.208027860364888"></circle><circle class="pearl" r="2.190433937142651" cx="21.953741833770074" cy="24.5988084630347"></circle><circle class="pearl" r="2.190433937142651" cx="4.682026743350908" cy="14.386171237183703"></circle><circle class="pearl" r="2.190433937142651" cx="25.366970683977954" cy="10.732651848316756"></circle><circle class="pearl" r="2.190433937142651" cx="14.3755901938401" cy="26.050321121898453"></circle><circle class="pearl" r="2.190433937142651" cx="7.202980432049429" cy="6.998540193860407"></circle><circle class="pearl" r="2.190433937142651" cx="25.746568388899487" cy="18.56111492709177"></circle><circle class="pearl" r="2.190433937142651" cx="7.140040307260339" cy="23.69480776467009"></circle><circle class="pearl" r="2.190433937142651" cx="20.003805390837144" cy="5.367142320796054"></circle></g><g class="bobaCup bright" cupRadius="15.280300513747939" width="30.560601027495878" height="30.560601027495878" pearlRadius="2.7380424214283132" pearlCount="11" transform="translate(93.00485002432117,154.2794229050547)"><circle class="pool" r="15.280300513747939" cx="15.280300513747939" cy="15.280300513747939" style="stroke-width: 1; fill: rgb(127, 205, 187);"></circle><circle class="pearl" r="2.1904339371426507" cx="19.196210420568466" cy="15.66780110910187"></circle><circle class="pearl" r="2.1904339371426507" cx="11.862145113864099" cy="17.568157905406345"></circle><circle class="pearl" r="2.1904339371426507" cx="13.945688499452162" cy="10.21024970086548"></circle><circle class="pearl" r="2.1904339371426507" cx="21.87426547232496" cy="24.413887565909214"></circle><circle class="pearl" r="2.1904339371426507" cx="4.680587733184097" cy="14.325426008000552"></circle><circle class="pearl" r="2.1904339371426507" cx="25.185632916659717" cy="10.631770827532993"></circle><circle class="pearl" r="2.1904339371426507" cx="14.328018566719281" cy="25.880175400785593"></circle><circle class="pearl" r="2.1904339371426507" cx="7.195227642266164" cy="6.9649456747893135"></circle><circle class="pearl" r="2.1904339371426507" cx="25.581592226839685" cy="18.430670805433817"></circle><circle class="pearl" r="2.1904339371426507" cx="7.1400676358843365" cy="23.561096626870388"></circle><circle class="pearl" r="2.1904339371426507" cx="19.845140523297836" cy="5.348506144947229"></circle></g><g class="bobaCup bright" cupRadius="15.140053598150125" width="30.28010719630025" height="30.28010719630025" pearlRadius="2.7380424214283137" pearlCount="11" transform="translate(135.9262522436477,186.02123872338868)"><circle class="pool" r="15.140053598150125" cx="15.140053598150125" cy="15.140053598150125" style="stroke-width: 1; fill: rgb(127, 205, 187);"></circle><circle class="pearl" r="2.190433937142651" cx="19.06177494215162" cy="15.601693707311012"></circle><circle class="pearl" r="2.190433937142651" cx="11.838199655953497" cy="17.508349570556675"></circle><circle class="pearl" r="2.190433937142651" cx="13.805283984508328" cy="10.2232363940037"></circle><circle class="pearl" r="2.190433937142651" cx="21.74481531281719" cy="24.11277874535111"></circle><circle class="pearl" r="2.190433937142651" cx="4.678277082454196" cy="14.227050622038885"></circle><circle class="pearl" r="2.190433937142651" cx="24.89008009694135" cy="10.466764580259959"></circle><circle class="pearl" r="2.190433937142651" cx="14.249039911653599" cy="25.603142514942444"></circle><circle class="pearl" r="2.190433937142651" cx="7.182523118637194" cy="6.910600910900756"></circle><circle class="pearl" r="2.190433937142651" cx="25.31368897338651" cy="18.21570230055065"></circle><circle class="pearl" r="2.190433937142651" cx="7.1415706868543545" cy="23.344115240302006"></circle><circle class="pearl" r="2.190433937142651" cx="19.578791525154816" cy="5.316011593038535"></circle></g><g class="bobaCup bright" cupRadius="15.007806985446138" width="30.015613970892275" height="30.015613970892275" pearlRadius="2.738042421428314" pearlCount="11" transform="translate(185.46273590895927,141.1241535135992)"><circle class="pool" r="15.007806985446138" cx="15.007806985446138" cy="15.007806985446138" style="stroke-width: 1; fill: rgb(127, 205, 187);"></circle><circle class="pearl" r="2.1904339371426516" cx="18.93738382989188" cy="15.545151425359215"></circle><circle class="pearl" r="2.1904339371426516" cx="11.819073530465836" cy="17.46428810313633"></circle><circle class="pearl" r="2.1904339371426516" cx="13.667984021519636" cy="10.249658580598462"></circle><circle class="pearl" r="2.1904339371426516" cx="21.625535497923636" cy="23.827048116425093"></circle><circle class="pearl" r="2.1904339371426516" cx="4.676111197903317" cy="14.135229803762869"></circle><circle class="pearl" r="2.1904339371426516" cx="24.609052451192625" cy="10.305078112908644"></circle><circle class="pearl" r="2.1904339371426516" cx="14.174072422875964" cy="25.341714456080883"></circle><circle class="pearl" r="2.1904339371426516" cx="7.170494083145165" cy="6.8596710076725955"></circle><circle class="pearl" r="2.1904339371426516" cx="25.06272494847722" cy="18.004202763086244"></circle><circle class="pearl" r="2.1904339371426516" cx="7.145249027101247" cy="23.140450014010664"></circle><circle class="pearl" r="2.1904339371426516" cx="19.311191154598685" cy="5.2809380927650285"></circle></g><g class="bobaCup bright" cupRadius="14.881610957522877" width="29.763221915045754" height="29.763221915045754" pearlRadius="2.7380424214283132" pearlCount="11" transform="translate(55.21625456042689,72.94742644084138)"><circle class="pool" r="14.881610957522877" cx="14.881610957522877" cy="14.881610957522877" style="stroke-width: 1; fill: rgb(127, 205, 187);"></circle><circle class="pearl" r="2.1904339371426507" cx="18.821588575976236" cy="15.495606804131635"></circle><circle class="pearl" r="2.1904339371426507" cx="11.805539085875026" cy="17.43648636445376"></circle><circle class="pearl" r="2.1904339371426507" cx="13.530413899418456" cy="10.29107413023992"></circle><circle class="pearl" r="2.1904339371426507" cx="21.515793283195638" cy="23.551922582175326"></circle><circle class="pearl" r="2.1904339371426507" cx="4.6740293721957675" cy="14.049071019529089"></circle><circle class="pearl" r="2.1904339371426507" cx="24.337440336742354" cy="10.141619584671835"></circle><circle class="pearl" r="2.1904339371426507" cx="14.102091630517002" cy="25.092068513461793"></circle><circle class="pearl" r="2.1904339371426507" cx="7.158906028134569" cy="6.811399736743689"></circle><circle class="pearl" r="2.1904339371426507" cx="24.82546887579352" cy="17.790312702170656"></circle><circle class="pearl" r="2.1904339371426507" cx="7.151096211619497" cy="22.947077663615215"></circle><circle class="pearl" r="2.1904339371426507" cx="19.035015822188285" cy="5.242072721682658"></circle></g><g class="bobaCup bright" cupRadius="14.458313252834573" width="28.916626505669146" height="28.916626505669146" pearlRadius="2.7380424214283137" pearlCount="10" transform="translate(197.24658449380732,155.21109796635596)"><circle class="pool" r="14.458313252834573" cx="14.458313252834573" cy="14.458313252834573" style="stroke-width: 1; fill: rgb(29, 145, 192);"></circle><circle class="pearl" r="2.190433937142651" cx="17.19529466589226" cy="11.814408776119526"></circle><circle class="pearl" r="2.190433937142651" cx="12.148769396369849" cy="16.69814289181265"></circle><circle class="pearl" r="2.190433937142651" cx="14.44110750981961" cy="4.650733466200203"></circle><circle class="pearl" r="2.190433937142651" cx="22.056896666000693" cy="22.108173434421257"></circle><circle class="pearl" r="2.190433937142651" cx="4.6510620418276485" cy="14.359332337498538"></circle><circle class="pearl" r="2.190433937142651" cx="21.85041793550477" cy="6.683272501772969"></circle><circle class="pearl" r="2.190433937142651" cx="14.476818535786784" cy="24.265891434581185"></circle><circle class="pearl" r="2.190433937142651" cx="6.8597154589638425" cy="6.80846195482054"></circle><circle class="pearl" r="2.190433937142651" cx="24.265319392609964" cy="14.58825027120773"></circle><circle class="pearl" r="2.190433937142651" cx="7.064860613883118" cy="22.232552003789767"></circle></g><g class="bobaCup bright" cupRadius="14.431014786549055" width="28.86202957309811" height="28.86202957309811" pearlRadius="2.738042421428314" pearlCount="10" transform="translate(107.21616962198915,80.22965155335056)"><circle class="pool" r="14.431014786549055" cx="14.431014786549055" cy="14.431014786549055" style="stroke-width: 1; fill: rgb(65, 182, 196);"></circle><circle class="pearl" r="2.1904339371426516" cx="17.166958179165242" cy="11.795034696246502"></circle><circle class="pearl" r="2.1904339371426516" cx="12.137853848156233" cy="16.649878753506385"></circle><circle class="pearl" r="2.1904339371426516" cx="14.429648023066214" cy="4.650723293294268"></circle><circle class="pearl" r="2.1904339371426516" cx="22.00759960071188" cy="22.062374049290046"></circle><circle class="pearl" r="2.1904339371426516" cx="4.650996885378877" cy="14.342142878775608"></circle><circle class="pearl" r="2.1904339371426516" cx="21.798155533113427" cy="6.672893387601089"></circle><circle class="pearl" r="2.1904339371426516" cx="14.43364814848021" cy="24.211306104259958"></circle><circle class="pearl" r="2.1904339371426516" cx="6.854365760804519" cy="6.799695134952287"></circle><circle class="pearl" r="2.1904339371426516" cx="24.210787293856644" cy="14.553409992275313"></circle><circle class="pearl" r="2.1904339371426516" cx="7.062372462967465" cy="22.188244575164955"></circle></g><g class="bobaCup bright" cupRadius="14.393867706487619" width="28.787735412975238" height="28.787735412975238" pearlRadius="2.7380424214283137" pearlCount="10" transform="translate(45.34405441665462,284.14898131196344)"><circle class="pool" r="14.393867706487619" cx="14.393867706487619" cy="14.393867706487619" style="stroke-width: 1; fill: rgb(29, 145, 192);"></circle><circle class="pearl" r="2.190433937142651" cx="17.128698307004257" cy="11.768988829562007"></circle><circle class="pearl" r="2.190433937142651" cx="12.122881181949381" cy="16.583928238052586"></circle><circle class="pearl" r="2.190433937142651" cx="14.414261243914908" cy="4.6507376755767815"></circle><circle class="pearl" r="2.190433937142651" cx="21.94051269420552" cy="22.000043636399457"></circle><circle class="pearl" r="2.190433937142651" cx="4.650920176318072" cy="14.318570689003161"></circle><circle class="pearl" r="2.190433937142651" cx="21.72702546260344" cy="6.658783538050404"></circle><circle class="pearl" r="2.190433937142651" cx="14.37465539285121" cy="24.136999362514747"></circle><circle class="pearl" r="2.190433937142651" cx="6.8470765769993776" cy="6.787781758125879"></circle><circle class="pearl" r="2.190433937142651" cx="24.136573727451808" cy="14.506215338814867"></circle><circle class="pearl" r="2.190433937142651" cx="7.058985796191212" cy="22.12793090780194"></circle></g><g class="bobaCup bright" cupRadius="14.255161865709" width="28.510323731418" height="28.510323731418" pearlRadius="2.7380424214283137" pearlCount="10" transform="translate(6.045589787460981,178.2828435406786)"><circle class="pool" r="14.255161865709" cx="14.255161865709" cy="14.255161865709" style="stroke-width: 1; fill: rgb(127, 205, 187);"></circle><circle class="pearl" r="2.190433937142651" cx="16.96735643884794" cy="11.659723482629223"></circle><circle class="pearl" r="2.190433937142651" cx="12.079876261404026" cy="16.367043913121897"></circle><circle class="pearl" r="2.190433937142651" cx="14.32459287778332" cy="4.650892314480917"></circle><circle class="pearl" r="2.190433937142651" cx="21.69783121236225" cy="21.762411856961695"></circle><circle class="pearl" r="2.190433937142651" cx="4.650723229644964" cy="14.255336841921416"></circle><circle class="pearl" r="2.190433937142651" cx="21.465575187268808" cy="6.608748047396491"></circle><circle class="pearl" r="2.190433937142651" cx="14.230520575766871" cy="23.859579205522156"></circle><circle class="pearl" r="2.190433937142651" cx="6.815224880666548" cy="6.746239644014624"></circle><circle class="pearl" r="2.190433937142651" cx="23.859516718516147" cy="14.304036310708982"></circle><circle class="pearl" r="2.190433937142651" cx="7.040754011529913" cy="21.89923262203751"></circle></g><g class="bobaCup bright" cupRadius="13.832329088757167" width="27.664658177514333" height="27.664658177514333" pearlRadius="2.7380424214283137" pearlCount="9" transform="translate(141.45152311561543,58.01517939756333)"><circle class="pool" r="13.832329088757167" cx="13.832329088757167" cy="13.832329088757167" style="stroke-width: 1; fill: rgb(65, 182, 196);"></circle><circle class="pearl" r="2.190433937142651" cx="15.65458494345969" cy="12.040547869026124"></circle><circle class="pearl" r="2.190433937142651" cx="10.27532837565126" cy="17.37704780386366"></circle><circle class="pearl" r="2.190433937142651" cx="13.89622887086745" cy="4.650870824970514"></circle><circle class="pearl" r="2.190433937142651" cx="20.91800973268176" cy="21.061271589152955"></circle><circle class="pearl" r="2.190433937142651" cx="4.651047779228243" cy="13.737574259547928"></circle><circle class="pearl" r="2.190433937142651" cx="20.84518668487487" cy="6.560252463424309"></circle><circle class="pearl" r="2.190433937142651" cx="13.885739815852874" cy="23.01383183122591"></circle><circle class="pearl" r="2.190433937142651" cx="6.814482376485731" cy="6.5631884111110885"></circle><circle class="pearl" r="2.190433937142651" cx="23.013528323355533" cy="13.93839035664526"></circle></g><g class="bobaCup bright" cupRadius="13.647776827299275" width="27.29555365459855" height="27.29555365459855" pearlRadius="2.738042421428314" pearlCount="9" transform="translate(196.56354893988183,270.2512588654843)"><circle class="pool" r="13.647776827299275" cx="13.647776827299275" cy="13.647776827299275" style="stroke-width: 1; fill: rgb(65, 182, 196);"></circle><circle class="pearl" r="2.1904339371426516" cx="15.339538602157958" cy="11.998603192981369"></circle><circle class="pearl" r="2.1904339371426516" cx="9.950816225963337" cy="17.33037753398652"></circle><circle class="pearl" r="2.1904339371426516" cx="13.70549111134389" cy="4.650845261394341"></circle><circle class="pearl" r="2.1904339371426516" cx="20.568114907130813" cy="20.760162592042864"></circle><circle class="pearl" r="2.1904339371426516" cx="4.650818350007178" cy="13.596822110005556"></circle><circle class="pearl" r="2.1904339371426516" cx="20.499996985444145" cy="6.495581296848076"></circle><circle class="pearl" r="2.1904339371426516" cx="13.649112124753678" cy="22.644830360704763"></circle><circle class="pearl" r="2.1904339371426516" cx="6.793782811736438" cy="6.496611293371542"></circle><circle class="pearl" r="2.1904339371426516" cx="22.64365485767617" cy="13.826903617719855"></circle></g><g class="bobaCup bright" cupRadius="13.647268282977238" width="27.294536565954477" height="27.294536565954477" pearlRadius="2.7380424214283137" pearlCount="9" transform="translate(226.6048829958144,155.69748074829388)"><circle class="pool" r="13.647268282977238" cx="13.647268282977238" cy="13.647268282977238" style="stroke-width: 1; fill: rgb(127, 205, 187);"></circle><circle class="pearl" r="2.190433937142651" cx="15.338637502848039" cy="11.998521104695838"></circle><circle class="pearl" r="2.190433937142651" cx="9.949843080443378" cy="17.330325434186843"></circle><circle class="pearl" r="2.190433937142651" cx="13.704966826580357" cy="4.650845199383916"></circle><circle class="pearl" r="2.190433937142651" cx="20.56714974220863" cy="20.75933265674524"></circle><circle class="pearl" r="2.190433937142651" cx="4.6508179803410865" cy="13.59641362072167"></circle><circle class="pearl" r="2.190433937142651" cx="20.49905109801937" cy="6.495406886007618"></circle><circle class="pearl" r="2.190433937142651" cx="13.648474520115029" cy="22.643813284075726"></circle><circle class="pearl" r="2.190433937142651" cx="6.793734320820672" cy="6.496423657355262"></circle><circle class="pearl" r="2.190433937142651" cx="22.64263481322406" cy="13.826616775698811"></circle></g><g class="bobaCup bright" cupRadius="13.48711757809932" width="26.97423515619864" height="26.97423515619864" pearlRadius="2.7380424214283137" pearlCount="9" transform="translate(152.36929599278832,251.57926681442657)"><circle class="pool" r="13.48711757809932" cx="13.48711757809932" cy="13.48711757809932" style="stroke-width: 1; fill: rgb(127, 205, 187);"></circle><circle class="pearl" r="2.190433937142651" cx="15.042888193498678" cy="11.984639264479407"></circle><circle class="pearl" r="2.190433937142651" cx="9.614421808273821" cy="17.341393420125403"></circle><circle class="pearl" r="2.190433937142651" cx="13.540378986830664" cy="4.650828395175573"></circle><circle class="pearl" r="2.190433937142651" cx="20.262483711445373" cy="20.49815898120311"></circle><circle class="pearl" r="2.190433937142651" cx="4.650748932760397" cy="13.460786034538089"></circle><circle class="pearl" r="2.190433937142651" cx="20.203087775610353" cy="6.441769463197021"></circle><circle class="pearl" r="2.190433937142651" cx="13.451316599377272" cy="22.323464411457856"></circle><circle class="pearl" r="2.190433937142651" cx="6.781629296767349" cy="6.435756912149939"></circle><circle class="pearl" r="2.190433937142651" cx="22.32106763833079" cy="13.743879841157295"></circle></g><g class="bobaCup bright" cupRadius="13.020508686872185" width="26.04101737374437" height="26.04101737374437" pearlRadius="2.738042421428314" pearlCount="8" transform="translate(192.32859811422938,54.331608602776576)"><circle class="pool" r="13.020508686872185" cx="13.020508686872185" cy="13.020508686872185" style="stroke-width: 1; fill: rgb(29, 145, 192);"></circle><circle class="pearl" r="2.1904339371426516" cx="13.796099383087666" cy="12.94784737887115"></circle><circle class="pearl" r="2.1904339371426516" cx="7.506161815556111" cy="20.164938066373647"></circle><circle class="pearl" r="2.1904339371426516" cx="14.035840166630567" cy="4.690371063746042"></circle><circle class="pearl" r="2.1904339371426516" cx="20.98968816429969" cy="16.22545832080459"></circle><circle class="pearl" r="2.1904339371426516" cx="4.665619320376765" cy="13.643154245726878"></circle><circle class="pearl" r="2.1904339371426516" cx="20.512136911921136" cy="8.31976963416085"></circle><circle class="pearl" r="2.1904339371426516" cx="15.198504471448747" cy="21.206840448729427"></circle><circle class="pearl" r="2.1904339371426516" cx="6.622614330120221" cy="6.331011711904214"></circle></g><g class="bobaCup bright" cupRadius="12.99312337169063" width="25.98624674338126" height="25.98624674338126" pearlRadius="2.7380424214283137" pearlCount="8" transform="translate(307.0068766283094,225.8011501147431)"><circle class="pool" r="12.99312337169063" cx="12.99312337169063" cy="12.99312337169063" style="stroke-width: 1; fill: rgb(127, 205, 187);"></circle><circle class="pearl" r="2.190433937142651" cx="13.758287320017141" cy="12.950252771245955"></circle><circle class="pearl" r="2.190433937142651" cx="7.339319682022179" cy="20.040936752057632"></circle><circle class="pearl" r="2.190433937142651" cx="14.082649751239613" cy="4.696484427979666"></circle><circle class="pearl" r="2.190433937142651" cx="20.898958686506855" cy="16.332897690182875"></circle><circle class="pearl" r="2.190433937142651" cx="4.662449815361203" cy="13.545022334316894"></circle><circle class="pearl" r="2.190433937142651" cx="20.506588070264353" cy="8.42652868581389"></circle><circle class="pearl" r="2.190433937142651" cx="15.007753293691096" cy="21.17838554469093"></circle><circle class="pearl" r="2.190433937142651" cx="6.639930719955286" cy="6.309906505047284"></circle></g><g class="bobaCup bright" cupRadius="12.709136918456815" width="25.41827383691363" height="25.41827383691363" pearlRadius="2.7380424214283137" pearlCount="8" transform="translate(258.8486515365358,127.66703591624629)"><circle class="pool" r="12.709136918456815" cx="12.709136918456815" cy="12.709136918456815" style="stroke-width: 1; fill: rgb(127, 205, 187);"></circle><circle class="pearl" r="2.190433937142651" cx="13.248112107739288" cy="12.802915638728344"></circle><circle class="pearl" r="2.190433937142651" cx="6.696645368056508" cy="19.255382322888455"></circle><circle class="pearl" r="2.190433937142651" cx="14.017713098441556" cy="4.718270468777046"></circle><circle class="pearl" r="2.190433937142651" cx="20.21476195227714" cy="16.416610200293835"></circle><circle class="pearl" r="2.190433937142651" cx="4.655592106318933" cy="13.060896441288431"></circle><circle class="pearl" r="2.190433937142651" cx="20.067386174610053" cy="8.548999772494428"></circle><circle class="pearl" r="2.190433937142651" cx="14.137051068943531" cy="20.68708038082828"></circle><circle class="pearl" r="2.190433937142651" cx="6.6910754747865315" cy="6.165884192422176"></circle></g><g class="bobaCup bright" cupRadius="12.481521043355237" width="24.963042086710473" height="24.963042086710473" pearlRadius="2.7380424214283132" pearlCount="7" transform="translate(214.18570908004776,7.518478956644763)"><circle class="pool" r="12.481521043355237" cx="12.481521043355237" cy="12.481521043355237" style="stroke-width: 1; fill: rgb(65, 182, 196);"></circle><circle class="pearl" r="2.1904339371426507" cx="12.669788114472475" cy="12.52150498597332"></circle><circle class="pearl" r="2.1904339371426507" cx="4.9941818477982745" cy="15.38940827357761"></circle><circle class="pearl" r="2.1904339371426507" cx="13.164322639782695" cy="4.669413552718276"></circle><circle class="pearl" r="2.1904339371426507" cx="18.982039471037044" cy="18.088496795003337"></circle><circle class="pearl" r="2.1904339371426507" cx="5.716545261777939" cy="7.434721694716852"></circle><circle class="pearl" r="2.1904339371426507" cx="19.80942610134644" cy="8.974266856945386"></circle><circle class="pearl" r="2.1904339371426507" cx="11.24745431195227" cy="20.251162014684407"></circle></g><g class="bobaCup bright" cupRadius="12.416510662659949" width="24.833021325319898" height="24.833021325319898" pearlRadius="2.738042421428314" pearlCount="7" transform="translate(201.1531042866637,46.21311942305245)"><circle class="pool" r="12.416510662659949" cx="12.416510662659949" cy="12.416510662659949" style="stroke-width: 1; fill: rgb(127, 205, 187);"></circle><circle class="pearl" r="2.1904339371426516" cx="12.468855776415257" cy="12.440011206940952"></circle><circle class="pearl" r="2.1904339371426516" cx="4.95718690040516" cy="15.158134071506868"></circle><circle class="pearl" r="2.1904339371426516" cx="13.311288630507825" cy="4.683005638158409"></circle><circle class="pearl" r="2.1904339371426516" cx="18.896392577029122" cy="17.91917966850612"></circle><circle class="pearl" r="2.1904339371426516" cx="5.792405860455075" cy="7.2157424585984655"></circle><circle class="pearl" r="2.1904339371426516" cx="19.764731821493317" cy="9.223538595146143"></circle><circle class="pearl" r="2.1904339371426516" cx="11.092903403547949" cy="20.111547874805918"></circle></g><g class="bobaCup bright" cupRadius="12.132116422273718" width="24.264232844547436" height="24.264232844547436" pearlRadius="2.7380424214283137" pearlCount="7" transform="translate(150.12754617433671,14.921391511549949)"><circle class="pool" r="12.132116422273718" cx="12.132116422273718" cy="12.132116422273718" style="stroke-width: 1; fill: rgb(127, 205, 187);"></circle><circle class="pearl" r="2.190433937142651" cx="12.13960728720895" cy="12.134433208667163"></circle><circle class="pearl" r="2.190433937142651" cx="5.120879970454501" cy="15.476805540346515"></circle><circle class="pearl" r="2.190433937142651" cx="12.751894544834155" cy="4.66656448219668"></circle><circle class="pearl" r="2.190433937142651" cx="18.71864585815165" cy="16.705124342553006"></circle><circle class="pearl" r="2.190433937142651" cx="5.548276582372168" cy="7.552504916467317"></circle><circle class="pearl" r="2.190433937142651" cx="19.13142106943764" cy="8.74610115677344"></circle><circle class="pearl" r="2.190433937142651" cx="11.478858979673733" cy="19.595909428257418"></circle></g><g class="bobaCup bright" cupRadius="12.120488532186787" width="24.240977064373574" height="24.240977064373574" pearlRadius="2.738042421428314" pearlCount="7" transform="translate(205.73029605099552,144.1205468553361)"><circle class="pool" r="12.120488532186787" cx="12.120488532186787" cy="12.120488532186787" style="stroke-width: 1; fill: rgb(127, 205, 187);"></circle><circle class="pearl" r="2.1904339371426516" cx="12.128683549646667" cy="12.122974975632365"></circle><circle class="pearl" r="2.1904339371426516" cx="5.128821747000755" cy="15.491096344798622"></circle><circle class="pearl" r="2.1904339371426516" cx="12.71622685221629" cy="4.665372751712699"></circle><circle class="pearl" r="2.1904339371426516" cx="18.706522058839052" cy="16.663784679568533"></circle><circle class="pearl" r="2.1904339371426516" cx="5.537292121591111" cy="7.570181751362578"></circle><circle class="pearl" r="2.1904339371426516" cx="19.099195134982086" cy="8.70543303392661"></circle><circle class="pearl" r="2.1904339371426516" cx="11.48904165877758" cy="19.573794265285162"></circle></g><g class="bobaCup bright" cupRadius="12.086574158183547" width="24.173148316367094" height="24.173148316367094" pearlRadius="2.7380424214283137" pearlCount="7" transform="translate(200.94109945212554,155.29363445234605)"><circle class="pool" r="12.086574158183547" cx="12.086574158183547" cy="12.086574158183547" style="stroke-width: 1; fill: rgb(65, 182, 196);"></circle><circle class="pearl" r="2.190433937142651" cx="12.090276451398223" cy="12.086085627941104"></circle><circle class="pearl" r="2.190433937142651" cx="5.132185192990521" cy="15.46394678367483"></circle><circle class="pearl" r="2.190433937142651" cx="12.679650093649709" cy="4.665282815191141"></circle><circle class="pearl" r="2.190433937142651" cx="18.6419014700605" cy="16.615338467152885"></circle><circle class="pearl" r="2.190433937142651" cx="5.53220365258281" cy="7.55544303122488"></circle><circle class="pearl" r="2.190433937142651" cx="19.02718808817008" cy="8.66222345215011"></circle><circle class="pearl" r="2.190433937142651" cx="11.45206105788653" cy="19.505758468894683"></circle></g><g class="bobaCup bright" cupRadius="11.855085776254299" width="23.710171552508598" height="23.710171552508598" pearlRadius="2.7380424214283132" pearlCount="7" transform="translate(228.08024767848272,89.99936854625453)"><circle class="pool" r="11.855085776254299" cx="11.855085776254299" cy="11.855085776254299" style="stroke-width: 1; fill: rgb(127, 205, 187);"></circle><circle class="pearl" r="2.1904339371426507" cx="11.872609463355815" cy="11.866708932834252"></circle><circle class="pearl" r="2.1904339371426507" cx="4.893040245428717" cy="14.239757766933064"></circle><circle class="pearl" r="2.1904339371426507" cx="13.384002383366294" cy="4.749726631396549"></circle><circle class="pearl" r="2.1904339371426507" cx="17.785172171494004" cy="17.202003249623413"></circle><circle class="pearl" r="2.1904339371426507" cx="5.931595202945087" cy="6.495136034468353"></circle><circle class="pearl" r="2.1904339371426507" cx="18.796842802513314" cy="9.373662736198208"></circle><circle class="pearl" r="2.1904339371426507" cx="10.245544656281654" cy="18.949678045594037"></circle></g><g class="bobaCup bright" cupRadius="11.847439024384627" width="23.694878048769255" height="23.694878048769255" pearlRadius="2.7380424214283146" pearlCount="7" transform="translate(123.15914941140188,61.43798571100601)"><circle class="pool" r="11.847439024384627" cx="11.847439024384627" cy="11.847439024384627" style="stroke-width: 1; fill: rgb(29, 145, 192);"></circle><circle class="pearl" r="2.1904339371426516" cx="11.870680890446486" cy="11.863482464665656"></circle><circle class="pearl" r="2.1904339371426516" cx="4.875138848122309" cy="14.142463722989561"></circle><circle class="pearl" r="2.1904339371426516" cx="13.455109023167891" cy="4.760308590061292"></circle><circle class="pearl" r="2.1904339371426516" cx="17.733882095108065" cy="17.263151149075483"></circle><circle class="pearl" r="2.1904339371426516" cx="5.972275878480569" cy="6.409835924842487"></circle><circle class="pearl" r="2.1904339371426516" cx="18.79854146876104" cy="9.447553091460298"></circle><circle class="pearl" r="2.1904339371426516" cx="10.158727065663" cy="18.923184290504615"></circle></g><g class="bobaCup bright" cupRadius="11.821072341275343" width="23.642144682550686" height="23.642144682550686" pearlRadius="2.738042421428314" pearlCount="6" transform="translate(223.44137913704137,112.32557888189999)"><circle class="pool" r="11.821072341275343" cx="11.821072341275343" cy="11.821072341275343" style="stroke-width: 1; fill: rgb(127, 205, 187);"></circle><circle class="pearl" r="2.1904339371426516" cx="12.28602459420861" cy="12.071063450961562"></circle><circle class="pearl" r="2.1904339371426516" cx="6.968821271990579" cy="17.949653861076936"></circle><circle class="pearl" r="2.1904339371426516" cx="9.775423701323362" cy="4.829069388254442"></circle><circle class="pearl" r="2.1904339371426516" cx="17.448071776304122" cy="17.566243910933544"></circle><circle class="pearl" r="2.1904339371426516" cx="4.724977225376055" cy="10.498192875987888"></circle><circle class="pearl" r="2.1904339371426516" cx="17.515960987465046" cy="6.112934889001043"></circle></g><g class="bobaCup bright" cupRadius="11.805937600336065" width="23.61187520067213" height="23.61187520067213" pearlRadius="2.7380424214283137" pearlCount="6" transform="translate(169.62431426105496,84.44507219729324)"><circle class="pool" r="11.805937600336065" cx="11.805937600336065" cy="11.805937600336065" style="stroke-width: 1; fill: rgb(29, 145, 192);"></circle><circle class="pearl" r="2.190433937142651" cx="12.266676644816403" cy="12.059974745252175"></circle><circle class="pearl" r="2.190433937142651" cx="6.925329771602656" cy="17.905090177798048"></circle><circle class="pearl" r="2.190433937142651" cx="9.769632976615883" cy="4.827661469441836"></circle><circle class="pearl" r="2.190433937142651" cx="17.419105975591545" cy="17.5413832233705"></circle><circle class="pearl" r="2.190433937142651" cx="4.727311392986643" cy="10.463356342795148"></circle><circle class="pearl" r="2.190433937142651" cx="17.489033669093498" cy="6.108589429061539"></circle></g><g class="bobaCup bright" cupRadius="11.68102606188932" width="23.36205212377864" height="23.36205212377864" pearlRadius="2.7380424214283132" pearlCount="6" transform="translate(189.68722454948207,184.9969126737516)"><circle class="pool" r="11.68102606188932" cx="11.68102606188932" cy="11.68102606188932" style="stroke-width: 1; fill: rgb(29, 145, 192);"></circle><circle class="pearl" r="2.1904339371426507" cx="12.095022664135602" cy="11.976150145044791"></circle><circle class="pearl" r="2.1904339371426507" cx="6.508263589957377" cy="17.503549620609654"></circle><circle class="pearl" r="2.1904339371426507" cx="9.747622643217671" cy="4.811839521751003"></circle><circle class="pearl" r="2.1904339371426507" cx="17.180950087018235" cy="17.335505673454243"></circle><circle class="pearl" r="2.1904339371426507" cx="4.75428401175408" cy="10.129037795539672"></circle><circle class="pearl" r="2.1904339371426507" cx="17.271526514674083" cy="6.075401278329045"></circle></g><g class="bobaCup bright" cupRadius="11.52401431648261" width="23.04802863296522" height="23.04802863296522" pearlRadius="2.7380424214283146" pearlCount="6" transform="translate(148.40378408316744,256.18125699608134)"><circle class="pool" r="11.52401431648261" cx="11.52401431648261" cy="11.52401431648261" style="stroke-width: 1; fill: rgb(65, 182, 196);"></circle><circle class="pearl" r="2.1904339371426516" cx="11.90242097685132" cy="11.863230584206898"></circle><circle class="pearl" r="2.1904339371426516" cx="6.150989323966125" cy="17.06806957477868"></circle><circle class="pearl" r="2.1904339371426516" cx="9.69102572324371" cy="4.79743299680712"></circle><circle class="pearl" r="2.1904339371426516" cx="16.88004050433285" cy="17.07701048044475"></circle><circle class="pearl" r="2.1904339371426516" cx="4.781592752243502" cy="9.792206678042902"></circle><circle class="pearl" r="2.1904339371426516" cx="16.992706004176537" cy="6.030955351441517"></circle></g><g class="bobaCup bright" cupRadius="11.201703896723023" width="22.403407793446046" height="22.403407793446046" pearlRadius="2.7380424214283137" pearlCount="6" transform="translate(157.17579565903014,116.92825751607617)"><circle class="pool" r="11.201703896723023" cx="11.201703896723023" cy="11.201703896723023" style="stroke-width: 1; fill: rgb(127, 205, 187);"></circle><circle class="pearl" r="2.190433937142651" cx="11.644290508759338" cy="11.565476428065047"></circle><circle class="pearl" r="2.190433937142651" cx="6.139451406726524" cy="16.543566415463992"></circle><circle class="pearl" r="2.190433937142651" cx="9.34399594161005" cy="4.805839808689502"></circle><circle class="pearl" r="2.190433937142651" cx="16.251581026546003" cy="16.54982615968498"></circle><circle class="pearl" r="2.190433937142651" cx="4.768453416445789" cy="9.581920883039093"></circle><circle class="pearl" r="2.190433937142651" cx="16.376450763633958" cy="5.9176314528479335"></circle></g><g class="bobaCup bright" cupRadius="11.055740675907963" width="22.111481351815925" height="22.111481351815925" pearlRadius="2.7380424214283137" pearlCount="6" transform="translate(159.80074748807158,138.978589742017)"><circle class="pool" r="11.055740675907963" cx="11.055740675907963" cy="11.055740675907963" style="stroke-width: 1; fill: rgb(29, 145, 192);"></circle><circle class="pearl" r="2.190433937142651" cx="11.531551029010952" cy="11.4280479070891"></circle><circle class="pearl" r="2.190433937142651" cx="6.134368455363539" cy="16.304992061434607"></circle><circle class="pearl" r="2.190433937142651" cx="9.18379873840403" cy="4.81035288836234"></circle><circle class="pearl" r="2.190433937142651" cx="15.96650119165773" cy="16.310260152585393"></circle><circle class="pearl" r="2.190433937142651" cx="4.76211630372188" cy="9.49028307931625"></circle><circle class="pearl" r="2.190433937142651" cx="16.09616753659795" cy="5.866570665476871"></circle></g><g class="bobaCup bright" cupRadius="10.851012627542227" width="21.702025255084454" height="21.702025255084454" pearlRadius="2.738042421428314" pearlCount="5" transform="translate(183.1575451834417,134.53055277133376)"><circle class="pool" r="10.851012627542227" cx="10.851012627542227" cy="10.851012627542227" style="stroke-width: 1; fill: rgb(29, 145, 192);"></circle><circle class="pearl" r="2.1904339371426516" cx="16.702056610341852" cy="8.120195811778142"></circle><circle class="pearl" r="2.1904339371426516" cx="8.019636529076077" cy="16.675392473982644"></circle><circle class="pearl" r="2.1904339371426516" cx="10.029050916231583" cy="4.681899721114773"></circle><circle class="pearl" r="2.1904339371426516" cx="15.800244653622713" cy="15.856871475208063"></circle><circle class="pearl" r="2.1904339371426516" cx="4.689534924715694" cy="9.934068756759846"></circle></g><g class="bobaCup bright" cupRadius="10.774426216843434" width="21.548852433686868" height="21.548852433686868" pearlRadius="2.7380424214283132" pearlCount="5" transform="translate(196.74641581461194,82.86169183865917)"><circle class="pool" r="10.774426216843434" cx="10.774426216843434" cy="10.774426216843434" style="stroke-width: 1; fill: rgb(29, 145, 192);"></circle><circle class="pearl" r="2.1904339371426507" cx="16.545203749961022" cy="8.039360920305608"></circle><circle class="pearl" r="2.1904339371426507" cx="7.910178545837923" cy="16.510441917375296"></circle><circle class="pearl" r="2.1904339371426507" cx="9.961909911596445" cy="4.681403471318197"></circle><circle class="pearl" r="2.1904339371426507" cx="15.657931913186896" cy="15.727849614390887"></circle><circle class="pearl" r="2.1904339371426507" cx="4.691673450864312" cy="9.83594159969856"></circle></g><g class="bobaCup bright" cupRadius="10.72043978582071" width="21.44087957164142" height="21.44087957164142" pearlRadius="2.738042421428314" pearlCount="5" transform="translate(141.75715431312364,252.49278542868723)"><circle class="pool" r="10.72043978582071" cx="10.72043978582071" cy="10.72043978582071" style="stroke-width: 1; fill: rgb(29, 145, 192);"></circle><circle class="pearl" r="2.1904339371426516" cx="16.43474417003716" cy="7.982916856682111"></circle><circle class="pearl" r="2.1904339371426516" cx="7.8318808199748835" cy="16.393672015417746"></circle><circle class="pearl" r="2.1904339371426516" cx="9.915983599219933" cy="4.680948823588725"></circle><circle class="pearl" r="2.1904339371426516" cx="15.557517907030157" cy="15.636874152414688"></circle><circle class="pearl" r="2.1904339371426516" cx="4.693349575010725" cy="9.7653851511633"></circle></g><g class="bobaCup bright" cupRadius="10.25130838055491" width="20.50261676110982" height="20.50261676110982" pearlRadius="2.7380424214283137" pearlCount="5" transform="translate(204.05328371186948,42.96715104921861)"><circle class="pool" r="10.25130838055491" cx="10.25130838055491" cy="10.25130838055491" style="stroke-width: 1; fill: rgb(29, 145, 192);"></circle><circle class="pearl" r="2.190433937142651" cx="15.48617549031102" cy="7.53756057060511"></circle><circle class="pearl" r="2.190433937142651" cx="7.082088603186778" cy="15.34970662604363"></circle><circle class="pearl" r="2.190433937142651" cx="9.609318524102724" cy="4.670845336877413"></circle><circle class="pearl" r="2.190433937142651" cx="14.677284292565592" cy="14.847209440854687"></circle><circle class="pearl" r="2.190433937142651" cx="4.719973386660099" cy="9.061764826266142"></circle></g><g class="bobaCup bright" cupRadius="10.24852423087924" width="20.49704846175848" height="20.49704846175848" pearlRadius="2.7380424214283137" pearlCount="5" transform="translate(186.43337990270342,191.66056487162533)"><circle class="pool" r="10.24852423087924" cx="10.24852423087924" cy="10.24852423087924" style="stroke-width: 1; fill: rgb(127, 205, 187);"></circle><circle class="pearl" r="2.190433937142651" cx="15.48067863605873" cy="7.535411887604158"></circle><circle class="pearl" r="2.190433937142651" cx="7.077005928961414" cy="15.343247147637737"></circle><circle class="pearl" r="2.190433937142651" cx="9.608391937911868" cy="4.670734392615085"></circle><circle class="pearl" r="2.190433937142651" cx="14.671978920111723" cy="14.842545321283456"></circle><circle class="pearl" r="2.190433937142651" cx="4.720256470584754" cy="9.056722502607117"></circle></g><g class="bobaCup bright" cupRadius="10.160280417752332" width="20.320560835504665" height="20.320560835504665" pearlRadius="2.738042421428314" pearlCount="5" transform="translate(142.06010996128265,61.48481298309052)"><circle class="pool" r="10.160280417752332" cx="10.160280417752332" cy="10.160280417752332" style="stroke-width: 1; fill: rgb(127, 205, 187);"></circle><circle class="pearl" r="2.1904339371426516" cx="15.308280889728007" cy="7.473961001207697"></circle><circle class="pearl" r="2.1904339371426516" cx="6.9085789671946225" cy="15.135446023143668"></circle><circle class="pearl" r="2.1904339371426516" cx="9.589992781562312" cy="4.6667407268516286"></circle><circle class="pearl" r="2.1904339371426516" cx="14.50275613165223" cy="14.69510033270581"></circle><circle class="pearl" r="2.1904339371426516" cx="4.730897317116762" cy="8.886406578139697"></circle></g><g class="bobaCup bright" cupRadius="10.079794780573927" width="20.159589561147854" height="20.159589561147854" pearlRadius="2.7380424214283137" pearlCount="5" transform="translate(168.08188926804823,152.47405921575148)"><circle class="pool" r="10.079794780573927" cx="10.079794780573927" cy="10.079794780573927" style="stroke-width: 1; fill: rgb(65, 182, 196);"></circle><circle class="pearl" r="2.190433937142651" cx="15.155355384259842" cy="7.43372871320874"></circle><circle class="pearl" r="2.190433937142651" cx="6.738564590414305" cy="14.938984466159905"></circle><circle class="pearl" r="2.190433937142651" cx="9.598447147331754" cy="4.662222856813733"></circle><circle class="pearl" r="2.190433937142651" cx="14.345902277484171" cy="14.561573380269376"></circle><circle class="pearl" r="2.190433937142651" cx="4.744625859874805" cy="8.707125555440273"></circle></g><g class="bobaCup bright" cupRadius="9.897183096992165" width="19.79436619398433" height="19.79436619398433" pearlRadius="2.738042421428314" pearlCount="4" transform="translate(64.98308204689172,77.69016828688041)"><circle class="pool" r="9.897183096992165" cx="9.897183096992165" cy="9.897183096992165" style="stroke-width: 1; fill: rgb(29, 145, 192);"></circle><circle class="pearl" r="2.1904339371426516" cx="14.525563845278114" cy="6.454442525577667"></circle><circle class="pearl" r="2.1904339371426516" cx="5.75896375725083" cy="13.153705031027686"></circle><circle class="pearl" r="2.1904339371426516" cx="6.628546267783242" cy="5.20605177016974"></circle><circle class="pearl" r="2.1904339371426516" cx="13.655981334746132" cy="14.40209578643601"></circle></g><g class="bobaCup bright" cupRadius="9.836555429127312" width="19.673110858254624" height="19.673110858254624" pearlRadius="2.738042421428314" pearlCount="4" transform="translate(219.53213169937095,80.60729044255353)"><circle class="pool" r="9.836555429127312" cx="9.836555429127312" cy="9.836555429127312" style="stroke-width: 1; fill: rgb(65, 182, 196);"></circle><circle class="pearl" r="2.1904339371426516" cx="14.376697722280543" cy="6.331442924246303"></circle><circle class="pearl" r="2.1904339371426516" cx="5.649562918343478" cy="13.204619798207828"></circle><circle class="pearl" r="2.1904339371426516" cx="6.455061859711687" cy="5.250216140301713"></circle><circle class="pearl" r="2.1904339371426516" cx="13.5711987809125" cy="14.28584658215259"></circle></g><g class="bobaCup bright" cupRadius="9.65251964125961" width="19.30503928251922" height="19.30503928251922" pearlRadius="2.7380424214283137" pearlCount="4" transform="translate(217.6078743608876,103.49225131175336)"><circle class="pool" r="9.65251964125961" cx="9.65251964125961" cy="9.65251964125961" style="stroke-width: 1; fill: rgb(29, 145, 192);"></circle><circle class="pearl" r="2.190433937142651" cx="13.907903576914958" cy="5.930639658748467"></circle><circle class="pearl" r="2.190433937142651" cx="5.397135705604262" cy="13.374399623770755"></circle><circle class="pearl" r="2.190433937142651" cx="5.930639658748467" cy="5.397135705604262"></circle><circle class="pearl" r="2.190433937142651" cx="13.374399623770755" cy="13.907903576914958"></circle></g><g class="bobaCup bright" cupRadius="9.167155006185952" width="18.334310012371905" height="18.334310012371905" pearlRadius="2.738042421428314" pearlCount="4" transform="translate(69.87172747320506,290.83284499381404)"><circle class="pool" r="9.167155006185952" cx="9.167155006185952" cy="9.167155006185952" style="stroke-width: 1; fill: rgb(127, 205, 187);"></circle><circle class="pearl" r="2.1904339371426516" cx="12.831120479643413" cy="5.414778335508439"></circle><circle class="pearl" r="2.1904339371426516" cx="5.501839834976083" cy="12.918943045274016"></circle><circle class="pearl" r="2.1904339371426516" cx="5.503774116643282" cy="5.414523466239066"></circle><circle class="pearl" r="2.1904339371426516" cx="12.829184191321172" cy="12.920375682393033"></circle></g><g class="bobaCup bright" cupRadius="9.121772238136257" width="18.243544476272515" height="18.243544476272515" pearlRadius="2.738042421428313" pearlCount="4" transform="translate(171.10516376932316,89.54993347200619)"><circle class="pool" r="9.121772238136257" cx="9.121772238136257" cy="9.121772238136257" style="stroke-width: 1; fill: rgb(65, 182, 196);"></circle><circle class="pearl" r="2.1904339371426502" cx="12.743901507928362" cy="5.400703047078872"></circle><circle class="pearl" r="2.1904339371426502" cx="5.497912855030709" cy="12.842092668268142"></circle><circle class="pearl" r="2.1904339371426502" cx="5.500394053887527" cy="5.400378123341881"></circle><circle class="pearl" r="2.1904339371426502" cx="12.74141699965462" cy="12.843915935824425"></circle></g><g class="bobaCup bright" cupRadius="9.080838795406951" width="18.161677590813902" height="18.161677590813902" pearlRadius="2.738042421428314" pearlCount="4" transform="translate(198.77642766649788,184.24258382332354)"><circle class="pool" r="9.080838795406951" cx="9.080838795406951" cy="9.080838795406951" style="stroke-width: 1; fill: rgb(65, 182, 196);"></circle><circle class="pearl" r="2.1904339371426516" cx="12.665270144440317" cy="5.388092414023506"></circle><circle class="pearl" r="2.1904339371426516" cx="5.4942894996506055" cy="12.772674968918519"></circle><circle class="pearl" r="2.1904339371426516" cx="5.497328869355293" cy="5.387696622495506"></circle><circle class="pearl" r="2.1904339371426516" cx="12.662225798286094" cy="12.774892398110403"></circle></g><g class="bobaCup bright" cupRadius="8.796490833560366" width="17.592981667120732" height="17.592981667120732" pearlRadius="2.738042421428314" pearlCount="3" transform="translate(195.3083802365711,175.41515928497702)"><circle class="pool" r="8.796490833560366" cx="8.796490833560366" cy="8.796490833560366" style="stroke-width: 1; fill: rgb(29, 145, 192);"></circle><circle class="pearl" r="2.1904339371426516" cx="12.891853816968272" cy="10.22746572917219"></circle><circle class="pearl" r="2.1904339371426516" cx="4.9863528467645715" cy="11.879339066812493"></circle><circle class="pearl" r="2.1904339371426516" cx="8.32762963414035" cy="3.6632274865161425"></circle></g><g class="bobaCup bright" cupRadius="8.63992362724376" width="17.27984725448752" height="17.27984725448752" pearlRadius="2.7380424214283137" pearlCount="3" transform="translate(200.89554611705125,38.43231778759997)"><circle class="pool" r="8.63992362724376" cx="8.63992362724376" cy="8.63992362724376" style="stroke-width: 1; fill: rgb(65, 182, 196);"></circle><circle class="pearl" r="2.190433937142651" cx="12.794362022718902" cy="10.136359384258924"></circle><circle class="pearl" r="2.190433937142651" cx="4.851135456003934" cy="11.680516238364893"></circle><circle class="pearl" r="2.190433937142651" cx="8.095382871913218" cy="3.667900445860008"></circle></g><g class="bobaCup bright" cupRadius="8.603783807152071" width="17.207567614304143" height="17.207567614304143" pearlRadius="2.7380424214283146" pearlCount="3" transform="translate(208.37688037416163,74.68885853283447)"><circle class="pool" r="8.603783807152071" cx="8.603783807152071" cy="8.603783807152071" style="stroke-width: 1; fill: rgb(29, 145, 192);"></circle><circle class="pearl" r="2.1904339371426516" cx="12.77176354492641" cy="10.11488242929059"></circle><circle class="pearl" r="2.1904339371426516" cx="4.820069112800056" cy="11.634588260099981"></circle><circle class="pearl" r="2.1904339371426516" cx="8.041723658208923" cy="3.6691017343304386"></circle></g><g class="bobaCup bright" cupRadius="7.208932831147504" width="14.417865662295007" height="14.417865662295007" pearlRadius="2.738042421428314" pearlCount="2" transform="translate(142.6125264843732,245.3665785603054)"><circle class="pool" r="7.208932831147504" cx="7.208932831147504" cy="7.208932831147504" style="stroke-width: 1; fill: rgb(127, 205, 187);"></circle><circle class="pearl" r="2.1904339371426516" cx="10.43531970589782" cy="5.046973259187133"></circle><circle class="pearl" r="2.1904339371426516" cx="4.274840035131902" cy="10.143026382743177"></circle></g><g class="bobaCup bright" cupRadius="7.020122178678014" width="14.040244357356029" height="14.040244357356029" pearlRadius="2.7380424214283132" pearlCount="2" transform="translate(267.53247156260613,149.46018417331038)"><circle class="pool" r="7.020122178678014" cx="7.020122178678014" cy="7.020122178678014" style="stroke-width: 1; fill: rgb(29, 145, 192);"></circle><circle class="pearl" r="2.1904339371426507" cx="9.801752341459071" cy="4.225331537814515"></circle><circle class="pearl" r="2.1904339371426507" cx="4.238492015896957" cy="9.814912819541512"></circle></g><g class="bobaCup bright" cupRadius="6.141107000911971" width="12.282214001823942" height="12.282214001823942" pearlRadius="2.7380424214283132" pearlCount="1" transform="translate(235.2615186894649,154.8633174448928)"><circle class="pool" r="6.141107000911971" cx="6.141107000911971" cy="6.141107000911971" style="stroke-width: 1; fill: rgb(29, 145, 192);"></circle><circle class="pearl" r="2.1904339371426507" cx="8.328679765428918" cy="6.141107000911971"></circle></g><g class="bobaCup bright" cupRadius="6.01401458232501" width="12.02802916465002" height="12.02802916465002" pearlRadius="2.7380424214283132" pearlCount="1" transform="translate(263.6209021840001,76.60698868487236)"><circle class="pool" r="6.01401458232501" cx="6.01401458232501" cy="6.01401458232501" style="stroke-width: 1; fill: rgb(65, 182, 196);"></circle><circle class="pearl" r="2.1904339371426507" cx="8.119889245914466" cy="6.01401458232501"></circle></g><g class="bobaCup bright" cupRadius="5.75159440284035" width="11.5031888056807" height="11.5031888056807" pearlRadius="2.7380424214283137" pearlCount="1" transform="translate(191.9206345621947,130.10396757451315)"><circle class="pool" r="5.75159440284035" cx="5.75159440284035" cy="5.75159440284035" style="stroke-width: 1; fill: rgb(65, 182, 196);"></circle><circle class="pearl" r="2.190433937142651" cx="7.688778986035448" cy="5.75159440284035"></circle></g><g class="bobaCup bright" cupRadius="5.579539618638149" width="11.159079237276298" height="11.159079237276298" pearlRadius="2.7380424214283132" pearlCount="1" transform="translate(136.13437153709535,161.02499771992635)"><circle class="pool" r="5.579539618638149" cx="5.579539618638149" cy="5.579539618638149" style="stroke-width: 1; fill: rgb(29, 145, 192);"></circle><circle class="pearl" r="2.1904339371426507" cx="7.406123197610553" cy="5.579539618638149"></circle></g><g class="bobaCup bright" cupRadius="5.5251877156503415" width="11.050375431300683" height="11.050375431300683" pearlRadius="2.7380424214283137" pearlCount="1" transform="translate(217.57712722187517,180.68364739310448)"><circle class="pool" r="5.5251877156503415" cx="5.5251877156503415" cy="5.5251877156503415" style="stroke-width: 1; fill: rgb(65, 182, 196);"></circle><circle class="pearl" r="2.190433937142651" cx="7.31683256810177" cy="5.5251877156503415"></circle></g><g class="bobaCup bright" cupRadius="5.164598407315056" width="10.329196814630112" height="10.329196814630112" pearlRadius="2.7380424214283137" pearlCount="1" transform="translate(175.09619090020874,66.09632947274498)"><circle class="pool" r="5.164598407315056" cx="5.164598407315056" cy="5.164598407315056" style="stroke-width: 1; fill: rgb(65, 182, 196);"></circle><circle class="pearl" r="2.190433937142651" cx="6.678473586059027" cy="5.164598407315056"></circle></g><g class="bobaCup bright" cupRadius="5.127879330863209" width="10.255758661726418" height="10.255758661726418" pearlRadius="2.7380424214283137" pearlCount="1" transform="translate(241.40337084867085,176.97770369643135)"><circle class="pool" r="5.127879330863209" cx="5.127879330863209" cy="5.127879330863209" style="stroke-width: 1; fill: rgb(65, 182, 196);"></circle><circle class="pearl" r="2.190433937142651" cx="6.605035433155333" cy="5.127879330863209"></circle></g><g class="bobaCup bright" cupRadius="4.783421304211858" width="9.566842608423716" height="9.566842608423716" pearlRadius="2.738042421428314" pearlCount="1" transform="translate(240.47249062045137,52.86754372965626)"><circle class="pool" r="4.783421304211858" cx="4.783421304211858" cy="4.783421304211858" style="stroke-width: 1; fill: rgb(65, 182, 196);"></circle><circle class="pearl" r="2.1904339371426516" cx="5.916119379852631" cy="4.783421304211858"></circle></g><g class="bobaCup bright" cupRadius="4.393859616289718" width="8.787719232579436" height="8.787719232579436" pearlRadius="2.738042421428314" pearlCount="0" transform="translate(104.13397053177128,135.12211067169414)"><circle class="pool" r="4.393859616289718" cx="4.393859616289718" cy="4.393859616289718" style="stroke-width: 1; fill: rgb(65, 182, 196);"></circle></g><g class="bobaCup bright" cupRadius="4.247585323060007" width="8.495170646120014" height="8.495170646120014" pearlRadius="2.7380424214283137" pearlCount="0" transform="translate(218.78453307602663,89.63179489941722)"><circle class="pool" r="4.247585323060007" cx="4.247585323060007" cy="4.247585323060007" style="stroke-width: 1; fill: rgb(127, 205, 187);"></circle></g><g class="bobaCup bright" cupRadius="4.093967011932059" width="8.187934023864118" height="8.187934023864118" pearlRadius="2.7380424214283137" pearlCount="0" transform="translate(234.7344869373848,126.05997552930545)"><circle class="pool" r="4.093967011932059" cx="4.093967011932059" cy="4.093967011932059" style="stroke-width: 1; fill: rgb(29, 145, 192);"></circle></g><g class="bobaCup bright" cupRadius="0" width="0" height="0" pearlRadius="NaN" pearlCount="0" transform="translate(267.4818321152953,42.794442928106086)"><circle class="pool" r="0" cx="0" cy="0" style="stroke-width: 1; fill: rgb(29, 145, 192);"></circle></g></g><g id="legendDividerGroup" transform="translate(410,0)" height="400"><rect class="legendDivider" height="400" width="90"></rect></g><g id="legend" transform="translate(410,14.511847836042563)" width="90" height="320"><rect class="legendBorder" transform="translate(0,0)" width="90" height="350.9763043279149"></rect><text id="rTitle" text-anchor="middle" alignment-baseline="hanging" transform="translate(45,0)" x="0" y="0" style="fill: black; font-size: 0.8rem;">Population</text><text id="bobaValue" text-anchor="middle" alignment-baseline="hanging" transform="translate(45,15)" x="0" y="0" style="fill: black; font-size: 0.7rem;">(1 Pearl =   75)</text><g class="bright" cupRadius="4.093967011932059" width="8.187934023864118" height="8.187934023864118" pearlRadius="2.7380424214283137" pearlCount="0" transform="translate(40.90603298806794,40)"><circle class="pool" r="4.093967011932059" cx="4.093967011932059" cy="4.093967011932059" style="stroke-width: 1; fill: rgb(65, 182, 196);"></circle></g><text id="0" class="legendSampleValue" text-anchor="middle" transform="translate(45,8)" x="0" y="53.187934023864116" style="fill: black; font-size: 0.7rem;">  63</text><g class="bright" cupRadius="9.66480484623618" width="19.32960969247236" height="19.32960969247236" pearlRadius="2.7380424214283137" pearlCount="4" transform="translate(35.33519515376382,73.18793402386412)"><circle class="pool" r="9.66480484623618" cx="9.66480484623618" cy="9.66480484623618" style="stroke-width: 1; fill: rgb(65, 182, 196);"></circle><circle class="pearl" r="2.190433937142651" cx="13.945702801856502" cy="5.972299499194193"></circle><circle class="pearl" r="2.190433937142651" cx="5.38390689061586" cy="13.357310193278167"></circle><circle class="pearl" r="2.190433937142651" cx="5.972299499194192" cy="5.38390689061586"></circle><circle class="pearl" r="2.190433937142651" cx="13.357310193278167" cy="13.945702801856502"></circle></g><text id="1" class="legendSampleValue" text-anchor="middle" transform="translate(45,8)" x="0" y="97.51754371633648" style="fill: black; font-size: 0.7rem;"> 350</text><g class="bright" cupRadius="13.040565154044234" width="26.08113030808847" height="26.08113030808847" pearlRadius="2.738042421428314" pearlCount="8" transform="translate(31.959434845955766,117.51754371633646)"><circle class="pool" r="13.040565154044234" cx="13.040565154044234" cy="13.040565154044234" style="stroke-width: 1; fill: rgb(65, 182, 196);"></circle><circle class="pearl" r="2.1904339371426516" cx="13.827805454087272" cy="12.946206677138438"></circle><circle class="pearl" r="2.1904339371426516" cx="7.606489353018566" cy="20.244257125118384"></circle><circle class="pearl" r="2.1904339371426516" cx="14.013460481968226" cy="4.6870654447471605"></circle><circle class="pearl" r="2.1904339371426516" cx="21.049635017014324" cy="16.16882000559311"></circle><circle class="pearl" r="2.1904339371426516" cx="4.667590870137694" cy="13.703620687432526"></circle><circle class="pearl" r="2.1904339371426516" cx="20.52367944636273" cy="8.262874649885878"></circle><circle class="pearl" r="2.1904339371426516" cx="15.31491550685613" cy="21.23054556700063"></circle><circle class="pearl" r="2.1904339371426516" cx="6.612654186595634" cy="6.344998234226432"></circle></g><text id="2" class="legendSampleValue" text-anchor="middle" transform="translate(45,8)" x="0" y="148.59867402442495" style="fill: black; font-size: 0.7rem;"> 640</text><g class="bright" cupRadius="15.706821013747982" width="31.413642027495964" height="31.413642027495964" pearlRadius="2.738042421428314" pearlCount="12" transform="translate(29.293178986252016,168.59867402442495)"><circle class="pool" r="15.706821013747982" cx="15.706821013747982" cy="15.706821013747982" style="stroke-width: 1; fill: rgb(65, 182, 196);"></circle><circle class="pearl" r="2.1904339371426516" cx="16.940689950924867" cy="11.567052886112435"></circle><circle class="pearl" r="2.1904339371426516" cx="11.357452126312547" cy="17.209286341241224"></circle><circle class="pearl" r="2.1904339371426516" cx="14.566040599069447" cy="4.692205228962187"></circle><circle class="pearl" r="2.1904339371426516" cx="18.429009216347165" cy="18.8559451295865"></circle><circle class="pearl" r="2.1904339371426516" cx="4.703717338175569" cy="14.417662523480653"></circle><circle class="pearl" r="2.1904339371426516" cx="26.460990045446852" cy="12.641935892346194"></circle><circle class="pearl" r="2.1904339371426516" cx="13.94876359534631" cy="26.66421940411356"></circle><circle class="pearl" r="2.1904339371426516" cx="7.237636031014647" cy="7.129652041134506"></circle><circle class="pearl" r="2.1904339371426516" cx="26.073586583585065" cy="20.308913640760228"></circle><circle class="pearl" r="2.1904339371426516" cx="6.794711481150863" cy="23.628550234726042"></circle><circle class="pearl" r="2.1904339371426516" cx="22.54175411115073" cy="6.215835862072227"></circle><circle class="pearl" r="2.1904339371426516" cx="21.695463793444397" cy="25.57644158327979"></circle></g><text id="3" class="legendSampleValue" text-anchor="middle" transform="translate(45,8)" x="0" y="205.01231605192092" style="fill: black; font-size: 0.7rem;"> 930</text><g class="bright" cupRadius="17.981994137996978" width="35.963988275993955" height="35.963988275993955" pearlRadius="2.738042421428314" pearlCount="16" transform="translate(27.018005862003022,225.0123160519209)"><circle class="pool" r="17.981994137996978" cx="17.981994137996978" cy="17.981994137996978" style="stroke-width: 1; fill: rgb(65, 182, 196);"></circle><circle class="pearl" r="2.1904339371426516" cx="18.706742165327316" cy="18.766308417743247"></circle><circle class="pearl" r="2.1904339371426516" cx="13.539741372603798" cy="23.586869319391226"></circle><circle class="pearl" r="2.1904339371426516" cx="16.48487106142926" cy="11.314226952262878"></circle><circle class="pearl" r="2.1904339371426516" cx="20.6880635894804" cy="26.22869729363863"></circle><circle class="pearl" r="2.1904339371426516" cx="11.065294124244323" cy="16.688519955537014"></circle><circle class="pearl" r="2.1904339371426516" cx="23.4094981949593" cy="13.505579714816061"></circle><circle class="pearl" r="2.1904339371426516" cx="15.004981661838347" cy="31.065122997896502"></circle><circle class="pearl" r="2.1904339371426516" cx="11.41521822062339" cy="5.89265860830918"></circle><circle class="pearl" r="2.1904339371426516" cx="26.32197003424511" cy="20.760640017534254"></circle><circle class="pearl" r="2.1904339371426516" cx="5.024205989757956" cy="21.62787404162885"></circle><circle class="pearl" r="2.1904339371426516" cx="27.78294394445579" cy="7.556461330329071"></circle><circle class="pearl" r="2.1904339371426516" cx="28.039595851693694" cy="28.237536737848604"></circle><circle class="pearl" r="2.1904339371426516" cx="6.151610204413533" cy="10.789969396066764"></circle><circle class="pearl" r="2.1904339371426516" cx="31.036533567684685" cy="14.83941758665821"></circle><circle class="pearl" r="2.1904339371426516" cx="8.220716852508627" cy="28.433243592978425"></circle><circle class="pearl" r="2.1904339371426516" cx="20.733106275941278" cy="4.862419249107759"></circle></g><text id="4" class="legendSampleValue" text-anchor="middle" transform="translate(45,8)" x="0" y="265.9763043279149" style="fill: black; font-size: 0.7rem;">1.2k</text><g class="bright" cupRadius="20" width="40" height="40" pearlRadius="2.7380424214283137" pearlCount="20" transform="translate(25,285.9763043279149)"><circle class="pool" r="20" cx="20" cy="20" style="stroke-width: 1; fill: rgb(65, 182, 196);"></circle><circle class="pearl" r="2.190433937142651" cx="20.803317911356498" cy="19.852362298934615"></circle><circle class="pearl" r="2.190433937142651" cx="12.399118369231148" cy="22.318129073543428"></circle><circle class="pearl" r="2.190433937142651" cx="20.14107886386132" cy="11.690576671380018"></circle><circle class="pearl" r="2.190433937142651" cx="25.351645945468196" cy="26.426489948513225"></circle><circle class="pearl" r="2.190433937142651" cx="5.45555413244983" cy="14.383463400696877"></circle><circle class="pearl" r="2.190433937142651" cx="27.007002384921414" cy="14.812215198670392"></circle><circle class="pearl" r="2.190433937142651" cx="17.669394065840073" cy="27.98572181627974"></circle><circle class="pearl" r="2.190433937142651" cx="13.075316060454844" cy="14.529673081448232"></circle><circle class="pearl" r="2.190433937142651" cx="31.363412690087696" cy="21.539471699750266"></circle><circle class="pearl" r="2.190433937142651" cx="6.986823167406808" cy="29.380119115938808"></circle><circle class="pearl" r="2.190433937142651" cx="24.195863946736896" cy="5.095807587217031"></circle><circle class="pearl" r="2.190433937142651" cx="27.929986347293504" cy="33.70997709935047"></circle><circle class="pearl" r="2.190433937142651" cx="8.960309851298339" cy="7.973635910317352"></circle><circle class="pearl" r="2.190433937142651" cx="34.68553340637696" cy="14.890285786129768"></circle><circle class="pearl" r="2.190433937142651" cx="12.548559824642552" cy="33.90934248556552"></circle><circle class="pearl" r="2.190433937142651" cx="16.437930987710008" cy="4.970487855189916"></circle><circle class="pearl" r="2.190433937142651" cx="33.26719371328966" cy="28.885282914155283"></circle><circle class="pearl" r="2.190433937142651" cx="4.745924110358729" cy="21.949095191008542"></circle><circle class="pearl" r="2.190433937142651" cx="31.34694409707199" cy="8.181149473979769"></circle><circle class="pearl" r="2.190433937142651" cx="20.521343379892976" cy="35.34248064375117"></circle></g><text id="5" class="legendSampleValue" text-anchor="middle" transform="translate(45,8)" x="0" y="330.9763043279149" style="fill: black; font-size: 0.7rem;">1.5k</text><text id="coloringDisclaimer" transform="translate(45,8)" text-anchor="middle" x="0" y="345.9763043279149" style="font-size: 0.7rem; opacity: 0.6;">(note: coloring</text><text id="coloringDisclaimer" transform="translate(45,8)" text-anchor="middle" x="0" y="360.9763043279149" style="font-size: 0.7rem; opacity: 0.6;">is random)</text></g></svg>