<?xml version="1.0" standalone="no"?>
<?xml-stylesheet xmlns="http://www.w3.org/2000/svg" type="text/css" href="style.css"?>
<svg id="syntheticVisB" class="default" xTitle="Percent Cat Owners" yTitle="Percent Dog Owners" rTitle="Population" chartTitle="Towns in Vizzyland" width="500" height="400" xmlns="http://www.w3.org/2000/svg"><text id="chartTitle" text-anchor="middle" transform="translate(250,20)" x="0" y="0" style="fill: black; font-size: 1.2rem;">Towns in Vizzyland</text><g id="yAxis" transform="translate(50,30)" fill="none" font-size="10" font-family="sans-serif" text-anchor="end"><path class="domain" stroke="currentColor" d="M-6,300H0V20H-6"></path><g class="tick" opacity="1" transform="translate(0,300)"><line stroke="currentColor" x2="-6"></line><text fill="currentColor" x="-9" dy="0.32em">0</text></g><g class="tick" opacity="1" transform="translate(0,272)"><line stroke="currentColor" x2="-6"></line><text fill="currentColor" x="-9" dy="0.32em">10</text></g><g class="tick" opacity="1" transform="translate(0,243.99999999999997)"><line stroke="currentColor" x2="-6"></line><text fill="currentColor" x="-9" dy="0.32em">20</text></g><g class="tick" opacity="1" transform="translate(0,216)"><line stroke="currentColor" x2="-6"></line><text fill="currentColor" x="-9" dy="0.32em">30</text></g><g class="tick" opacity="1" transform="translate(0,187.99999999999997)"><line stroke="currentColor" x2="-6"></line><text fill="currentColor" x="-9" dy="0.32em">40</text></g><g class="tick" opacity="1" transform="translate(0,159.99999999999997)"><line stroke="currentColor" x2="-6"></line><text fill="currentColor" x="-9" dy="0.32em">50</text></g><g class="tick" opacity="1" transform="translate(0,131.99999999999997)"><line stroke="currentColor" x2="-6"></line><text fill="currentColor" x="-9" dy="0.32em">60</text></g><g class="tick" opacity="1" transform="translate(0,103.99999999999999)"><line stroke="currentColor" x2="-6"></line><text fill="currentColor" x="-9" dy="0.32em">70</text></g><g class="tick" opacity="1" transform="translate(0,75.99999999999996)"><line stroke="currentColor" x2="-6"></line><text fill="currentColor" x="-9" dy="0.32em">80</text></g><g class="tick" opacity="1" transform="translate(0,47.999999999999964)"><line stroke="currentColor" x2="-6"></line><text fill="currentColor" x="-9" dy="0.32em">90</text></g></g><g id="xAxis" transform="translate(60,360)" fill="none" font-size="10" font-family="sans-serif" text-anchor="middle"><path class="domain" stroke="currentColor" d="M20,6V0H320V6"></path><g class="tick" opacity="1" transform="translate(20,0)"><line stroke="currentColor" y2="6"></line><text fill="currentColor" y="9" dy="0.71em">0</text></g><g class="tick" opacity="1" transform="translate(49.99999999999999,0)"><line stroke="currentColor" y2="6"></line><text fill="currentColor" y="9" dy="0.71em">10</text></g><g class="tick" opacity="1" transform="translate(79.99999999999999,0)"><line stroke="currentColor" y2="6"></line><text fill="currentColor" y="9" dy="0.71em">20</text></g><g class="tick" opacity="1" transform="translate(109.99999999999997,0)"><line stroke="currentColor" y2="6"></line><text fill="currentColor" y="9" dy="0.71em">30</text></g><g class="tick" opacity="1" transform="translate(139.99999999999997,0)"><line stroke="currentColor" y2="6"></line><text fill="currentColor" y="9" dy="0.71em">40</text></g><g class="tick" opacity="1" transform="translate(169.99999999999994,0)"><line stroke="currentColor" y2="6"></line><text fill="currentColor" y="9" dy="0.71em">50</text></g><g class="tick" opacity="1" transform="translate(199.99999999999994,0)"><line stroke="currentColor" y2="6"></line><text fill="currentColor" y="9" dy="0.71em">60</text></g><g class="tick" opacity="1" transform="translate(229.99999999999994,0)"><line stroke="currentColor" y2="6"></line><text fill="currentColor" y="9" dy="0.71em">70</text></g><g class="tick" opacity="1" transform="translate(259.99999999999994,0)"><line stroke="currentColor" y2="6"></line><text fill="currentColor" y="9" dy="0.71em">80</text></g><g class="tick" opacity="1" transform="translate(289.9999999999999,0)"><line stroke="currentColor" y2="6"></line><text fill="currentColor" y="9" dy="0.71em">90</text></g><g class="tick" opacity="1" transform="translate(319.9999999999999,0)"><line stroke="currentColor" y2="6"></line><text fill="currentColor" y="9" dy="0.71em">100</text></g></g><g id="labels"><text id="xTitle" text-anchor="middle" transform="translate(250,350)" x="0" y="40" style="fill: black; font-size: 0.8rem;">Percent Cat Owners</text><g id="group-yTitle" transform="translate(60,190)"><text id="yTitle" text-anchor="middle" transform="rotate(-90)" y="-45" style="fill: black; font-size: 0.8rem;">Percent Dog Owners</text></g></g><g id="quadrant_lines" transform="translate(60,30)"><line id="verticalQuadrantLine" x1="170" y1="10" x2="170" y2="310" class="quadrantLine"></line><line id="horizontalQuadrantLine" x1="10" y1="160" x2="330" y2="160" class="quadrantLine"></line></g><g id="chart" transform="translate(60,30)"><g class="bobaCup bright" cupRadius="20" width="40" height="40" pearlRadius="2.7380424214283137" pearlCount="20" transform="translate(238.9884572685333,85.64081071236824)"><circle class="pool" r="20" cx="20" cy="20" style="stroke-width: 1; fill: rgb(29, 145, 192);"></circle><circle class="pearl" r="2.190433937142651" cx="20.803317911356498" cy="19.852362298934615"></circle><circle class="pearl" r="2.190433937142651" cx="12.399118369231148" cy="22.318129073543428"></circle><circle class="pearl" r="2.190433937142651" cx="20.14107886386132" cy="11.690576671380018"></circle><circle class="pearl" r="2.190433937142651" cx="25.351645945468196" cy="26.426489948513225"></circle><circle class="pearl" r="2.190433937142651" cx="5.45555413244983" cy="14.383463400696877"></circle><circle class="pearl" r="2.190433937142651" cx="27.007002384921414" cy="14.812215198670392"></circle><circle class="pearl" r="2.190433937142651" cx="17.669394065840073" cy="27.98572181627974"></circle><circle class="pearl" r="2.190433937142651" cx="13.075316060454844" cy="14.529673081448232"></circle><circle class="pearl" r="2.190433937142651" cx="31.363412690087696" cy="21.539471699750266"></circle><circle class="pearl" r="2.190433937142651" cx="6.986823167406808" cy="29.380119115938808"></circle><circle class="pearl" r="2.190433937142651" cx="24.195863946736896" cy="5.095807587217031"></circle><circle class="pearl" r="2.190433937142651" cx="27.929986347293504" cy="33.70997709935047"></circle><circle class="pearl" r="2.190433937142651" cx="8.960309851298339" cy="7.973635910317352"></circle><circle class="pearl" r="2.190433937142651" cx="34.68553340637696" cy="14.890285786129768"></circle><circle class="pearl" r="2.190433937142651" cx="12.548559824642552" cy="33.90934248556552"></circle><circle class="pearl" r="2.190433937142651" cx="16.437930987710008" cy="4.970487855189916"></circle><circle class="pearl" r="2.190433937142651" cx="33.26719371328966" cy="28.885282914155283"></circle><circle class="pearl" r="2.190433937142651" cx="4.745924110358729" cy="21.949095191008542"></circle><circle class="pearl" r="2.190433937142651" cx="31.34694409707199" cy="8.181149473979769"></circle><circle class="pearl" r="2.190433937142651" cx="20.521343379892976" cy="35.34248064375117"></circle></g><g class="bobaCup bright" cupRadius="17.78744381741992" width="35.57488763483984" height="35.57488763483984" pearlRadius="2.7380424214283137" pearlCount="15" transform="translate(276.44647898187304,20.592809920483774)"><circle class="pool" r="17.78744381741992" cx="17.78744381741992" cy="17.78744381741992" style="stroke-width: 1; fill: rgb(65, 182, 196);"></circle><circle class="pearl" r="2.190433937142651" cx="23.714751446512135" cy="17.81060918403595"></circle><circle class="pearl" r="2.190433937142651" cx="13.14277878673902" cy="22.491068828447787"></circle><circle class="pearl" r="2.190433937142651" cx="17.690109722800475" cy="11.848468276745198"></circle><circle class="pearl" r="2.190433937142651" cx="20.41529379509082" cy="24.914707832877887"></circle><circle class="pearl" r="2.190433937142651" cx="10.596677263329601" cy="15.272642667217422"></circle><circle class="pearl" r="2.190433937142651" cx="25.308925063772726" cy="10.15365315953323"></circle><circle class="pearl" r="2.190433937142651" cx="15.142188689056091" cy="30.72637046779"></circle><circle class="pearl" r="2.190433937142651" cx="13.51181077949944" cy="5.172243390335829"></circle><circle class="pearl" r="2.190433937142651" cx="30.443044633362813" cy="21.89649548710568"></circle><circle class="pearl" r="2.190433937142651" cx="4.886479046379247" cy="20.673861306653716"></circle><circle class="pearl" r="2.190433937142651" cx="21.151226116525336" cy="4.971681245976875"></circle><circle class="pearl" r="2.190433937142651" cx="27.374277933447512" cy="28.11956975680216"></circle><circle class="pearl" r="2.190433937142651" cx="7.397404834300865" cy="8.291727433214668"></circle><circle class="pearl" r="2.190433937142651" cx="30.56380946732529" cy="14.225178978928477"></circle><circle class="pearl" r="2.190433937142651" cx="7.884485523617453" cy="27.912531043408645"></circle></g><g class="bobaCup bright" cupRadius="17.408892411652737" width="34.81778482330547" height="34.81778482330547" pearlRadius="2.7380424214283137" pearlCount="15" transform="translate(239.86685380508152,109.09767180685384)"><circle class="pool" r="17.408892411652737" cx="17.408892411652737" cy="17.408892411652737" style="stroke-width: 1; fill: rgb(127, 205, 187);"></circle><circle class="pearl" r="2.190433937142651" cx="23.22200864032756" cy="17.35244643813459"></circle><circle class="pearl" r="2.190433937142651" cx="12.699428594368445" cy="21.772680532579926"></circle><circle class="pearl" r="2.190433937142651" cx="17.817351731142814" cy="11.750751997255717"></circle><circle class="pearl" r="2.190433937142651" cx="19.885345394341915" cy="24.178305095400642"></circle><circle class="pearl" r="2.190433937142651" cx="10.459495147235423" cy="14.598680379424678"></circle><circle class="pearl" r="2.190433937142651" cx="25.39208540410297" cy="9.877256684907167"></circle><circle class="pearl" r="2.190433937142651" cx="14.853523054197963" cy="29.97849503503583"></circle><circle class="pearl" r="2.190433937142651" cx="13.785834293253638" cy="5.031903378407716"></circle><circle class="pearl" r="2.190433937142651" cx="29.62303606116181" cy="21.726970709360533"></circle><circle class="pearl" r="2.190433937142651" cx="4.845380399976776" cy="20.004974092558985"></circle><circle class="pearl" r="2.190433937142651" cx="21.3399782538807" cy="5.100367452242871"></circle><circle class="pearl" r="2.190433937142651" cx="26.56484785392072" cy="27.564857365781503"></circle><circle class="pearl" r="2.190433937142651" cx="7.724703805187229" cy="7.592894310395701"></circle><circle class="pearl" r="2.190433937142651" cx="29.870819361831007" cy="14.210965136017794"></circle><circle class="pearl" r="2.190433937142651" cx="7.803597907030802" cy="27.277392732568725"></circle></g><g class="bobaCup bright" cupRadius="15.96880550011749" width="31.93761100023498" height="31.93761100023498" pearlRadius="2.7380424214283137" pearlCount="12" transform="translate(287.5376616044626,130.31660040930484)"><circle class="pool" r="15.96880550011749" cx="15.96880550011749" cy="15.96880550011749" style="stroke-width: 1; fill: rgb(29, 145, 192);"></circle><circle class="pearl" r="2.190433937142651" cx="17.143208108766444" cy="11.727439792582928"></circle><circle class="pearl" r="2.190433937142651" cx="11.528621829137327" cy="17.711231904717618"></circle><circle class="pearl" r="2.190433937142651" cx="14.655523148394499" cy="4.704817340628924"></circle><circle class="pearl" r="2.190433937142651" cx="18.909280257092263" cy="19.098664360406577"></circle><circle class="pearl" r="2.190433937142651" cx="4.708996933979259" cy="14.605820866995545"></circle><circle class="pearl" r="2.190433937142651" cx="26.95120865932451" cy="12.711796374502622"></circle><circle class="pearl" r="2.190433937142651" cx="14.136997787555677" cy="27.18147502356455"></circle><circle class="pearl" r="2.190433937142651" cx="7.288639673234821" cy="7.215892269936013"></circle><circle class="pearl" r="2.190433937142651" cx="26.618464869564683" cy="20.540571182525337"></circle><circle class="pearl" r="2.190433937142651" cx="6.878668240350281" cy="24.104621509627915"></circle><circle class="pearl" r="2.190433937142651" cx="22.739028612845697" cy="6.156927714193866"></circle><circle class="pearl" r="2.190433937142651" cx="21.981782093792376" cy="26.111555886100245"></circle></g><g class="bobaCup bright" cupRadius="15.938467139765262" width="31.876934279530523" height="31.876934279530523" pearlRadius="2.7380424214283132" pearlCount="12" transform="translate(75.13223620883741,94.47174904008311)"><circle class="pool" r="15.938467139765262" cx="15.938467139765262" cy="15.938467139765262" style="stroke-width: 1; fill: rgb(127, 205, 187);"></circle><circle class="pearl" r="2.1904339371426507" cx="17.07492454009876" cy="11.714925573012826"></circle><circle class="pearl" r="2.1904339371426507" cx="11.518401926165831" cy="17.624125023214003"></circle><circle class="pearl" r="2.1904339371426507" cx="14.642621740547412" cy="4.703488637953046"></circle><circle class="pearl" r="2.1904339371426507" cx="18.856343592266047" cy="19.062094091343685"></circle><circle class="pearl" r="2.1904339371426507" cx="4.708358936016915" cy="14.584241241463115"></circle><circle class="pearl" r="2.1904339371426507" cx="26.891927453564694" cy="12.691285170520212"></circle><circle class="pearl" r="2.1904339371426507" cx="14.089514777152273" cy="27.11860332962642"></circle><circle class="pearl" r="2.1904339371426507" cx="7.282558681014458" cy="7.205992562165233"></circle><circle class="pearl" r="2.1904339371426507" cx="26.55439336407805" cy="20.517129526111045"></circle><circle class="pearl" r="2.1904339371426507" cx="6.840086478453782" cy="24.000531204915898"></circle><circle class="pearl" r="2.1904339371426507" cx="22.67069669139502" cy="6.1423284243174985"></circle><circle class="pearl" r="2.1904339371426507" cx="21.935890547767315" cy="26.05478989983138"></circle></g><g class="bobaCup bright" cupRadius="15.664314882270725" width="31.32862976454145" height="31.32862976454145" pearlRadius="2.7380424214283137" pearlCount="12" transform="translate(245.72317712068207,118.60635251621949)"><circle class="pool" r="15.664314882270725" cx="15.664314882270725" cy="15.664314882270725" style="stroke-width: 1; fill: rgb(29, 145, 192);"></circle><circle class="pearl" r="2.190433937142651" cx="17.337771742059736" cy="11.360994898923861"></circle><circle class="pearl" r="2.190433937142651" cx="11.483064850821656" cy="16.703966354060082"></circle><circle class="pearl" r="2.190433937142651" cx="14.493779304869484" cy="4.69451932326737"></circle><circle class="pearl" r="2.190433937142651" cx="18.4171731655565" cy="18.69441387733537"></circle><circle class="pearl" r="2.190433937142651" cx="4.697881438033994" cy="14.449745745538516"></circle><circle class="pearl" r="2.190433937142651" cx="26.534099122290524" cy="13.546625422424762"></circle><circle class="pearl" r="2.190433937142651" cx="13.044338410216232" cy="26.457246791548613"></circle><circle class="pearl" r="2.190433937142651" cx="7.210090685607868" cy="7.1280424725818055"></circle><circle class="pearl" r="2.190433937142651" cx="25.673486994518885" cy="21.18321235614667"></circle><circle class="pearl" r="2.190433937142651" cx="6.311879252161379" cy="22.68445040158144"></circle><circle class="pearl" r="2.190433937142651" cx="23.484531655951482" cy="6.742456545657895"></circle><circle class="pearl" r="2.190433937142651" cx="20.746679579808987" cy="25.83048504645053"></circle></g><g class="bobaCup bright" cupRadius="14.83573858771666" width="29.67147717543332" height="29.67147717543332" pearlRadius="2.7380424214283132" pearlCount="11" transform="translate(227.18365430766224,79.89353273693115)"><circle class="pool" r="14.83573858771666" cx="14.83573858771666" cy="14.83573858771666" style="stroke-width: 1; fill: rgb(127, 205, 187);"></circle><circle class="pearl" r="2.1904339371426507" cx="18.78038803787734" cy="15.478344321546984"></circle><circle class="pearl" r="2.1904339371426507" cx="11.802207632149216" cy="17.43053045015557"></circle><circle class="pearl" r="2.1904339371426507" cx="13.478322232063933" cy="10.31078646915958"></circle><circle class="pearl" r="2.1904339371426507" cx="21.477136917671356" cy="23.451174097301095"></circle><circle class="pearl" r="2.1904339371426507" cx="4.673261524055401" cy="14.018281221689085"></circle><circle class="pearl" r="2.1904339371426507" cx="24.23757263385504" cy="10.079188000991538"></circle><circle class="pearl" r="2.1904339371426507" cx="14.075709315956704" cy="25.001273150812576"></circle><circle class="pearl" r="2.1904339371426507" cx="7.154637537372229" cy="6.793951186098664"></circle><circle class="pearl" r="2.1904339371426507" cx="24.739904158470996" cy="17.70877730697135"></circle><circle class="pearl" r="2.1904339371426507" cx="7.1538077662499875" cy="22.877023801360917"></circle><circle class="pearl" r="2.1904339371426507" cx="18.928263934956636" cy="5.226364491049623"></circle></g><g class="bobaCup bright" cupRadius="14.571950394373602" width="29.143900788747203" height="29.143900788747203" pearlRadius="2.738042421428314" pearlCount="10" transform="translate(273.1575020048556,269.5960587395165)"><circle class="pool" r="14.571950394373602" cx="14.571950394373602" cy="14.571950394373602" style="stroke-width: 1; fill: rgb(65, 182, 196);"></circle><circle class="pearl" r="2.1904339371426516" cx="17.314954360830683" cy="11.896870617251833"></circle><circle class="pearl" r="2.1904339371426516" cx="12.193599325117116" cy="16.897418229070666"></circle><circle class="pearl" r="2.1904339371426516" cx="14.489981131987456" cy="4.650953774686936"></circle><circle class="pearl" r="2.1904339371426516" cx="22.262117964986004" cy="22.29874957668856"></circle><circle class="pearl" r="2.1904339371426516" cx="4.6514154434230015" cy="14.429917434088514"></circle><circle class="pearl" r="2.1904339371426516" cx="22.06790411462001" cy="6.726577587781984"></circle><circle class="pearl" r="2.1904339371426516" cx="14.65511490028525" cy="24.49294024152019"></circle><circle class="pearl" r="2.1904339371426516" cx="6.881890437035436" cy="6.845084352467616"></circle><circle class="pearl" r="2.1904339371426516" cx="24.49227118529617" cy="14.734475709519335"></circle><circle class="pearl" r="2.1904339371426516" cx="7.07520527326367" cy="22.4168484342789"></circle></g><g class="bobaCup bright" cupRadius="13.86369384281728" width="27.72738768563456" height="27.72738768563456" pearlRadius="2.738042421428314" pearlCount="9" transform="translate(99.83345673402017,190.6982225078112)"><circle class="pool" r="13.86369384281728" cx="13.86369384281728" cy="13.86369384281728" style="stroke-width: 1; fill: rgb(127, 205, 187);"></circle><circle class="pearl" r="2.1904339371426516" cx="15.706134830717499" cy="12.049720969147083"></circle><circle class="pearl" r="2.1904339371426516" cx="10.32573328127313" cy="17.38963306588441"></circle><circle class="pearl" r="2.1904339371426516" cx="13.92871467558211" cy="4.650875703517155"></circle><circle class="pearl" r="2.1904339371426516" cx="20.977449493212408" cy="21.112402849182498"></circle><circle class="pearl" r="2.1904339371426516" cx="4.65110944208527" cy="13.760211754143066"></circle><circle class="pearl" r="2.1904339371426516" cx="20.90417511175286" cy="6.571484832229631"></circle><circle class="pearl" r="2.1904339371426516" cx="13.92697526113861" cy="23.076520030952764"></circle><circle class="pearl" r="2.1904339371426516" cx="6.818507934149817" cy="6.574259514652223"></circle><circle class="pearl" r="2.1904339371426516" cx="23.076339945759027" cy="13.958550289299462"></circle></g><g class="bobaCup bright" cupRadius="13.4643919579974" width="26.9287839159948" height="26.9287839159948" pearlRadius="2.738042421428314" pearlCount="9" transform="translate(280.13221088468373,227.54495823103278)"><circle class="pool" r="13.4643919579974" cx="13.4643919579974" cy="13.4643919579974" style="stroke-width: 1; fill: rgb(29, 145, 192);"></circle><circle class="pearl" r="2.1904339371426516" cx="14.998670190126653" cy="11.984898900783499"></circle><circle class="pearl" r="2.1904339371426516" cx="9.561346182638072" cy="17.34809297880519"></circle><circle class="pearl" r="2.1904339371426516" cx="13.517121612041443" cy="4.650826479690226"></circle><circle class="pearl" r="2.1904339371426516" cx="20.219079680736662" cy="20.461159642359473"></circle><circle class="pearl" r="2.1904339371426516" cx="4.65074478752156" cy="13.440297231313345"></circle><circle class="pearl" r="2.1904339371426516" cx="20.161450793680267" cy="6.434393729826736"></circle><circle class="pearl" r="2.1904339371426516" cx="13.42383770140867" cy="22.277999613315703"></circle><circle class="pearl" r="2.1904339371426516" cx="6.780510354429614" cy="6.426848526876245"></circle><circle class="pearl" r="2.1904339371426516" cx="22.275369337603326" cy="13.733589904482233"></circle></g><g class="bobaCup bright" cupRadius="13.354868754724148" width="26.709737509448296" height="26.709737509448296" pearlRadius="2.738042421428314" pearlCount="8" transform="translate(94.87080813008595,207.00222427083312)"><circle class="pool" r="13.354868754724148" cx="13.354868754724148" cy="13.354868754724148" style="stroke-width: 1; fill: rgb(65, 182, 196);"></circle><circle class="pearl" r="2.1904339371426516" cx="22.041688220486332" cy="14.03492340895752"></circle><circle class="pearl" r="2.1904339371426516" cx="12.663476258887703" cy="14.004358413901523"></circle><circle class="pearl" r="2.1904339371426516" cx="12.458448721738383" cy="4.6808424329145915"></circle><circle class="pearl" r="2.1904339371426516" cx="18.617056177862633" cy="20.978586571661832"></circle><circle class="pearl" r="2.1904339371426516" cx="4.989257223680218" cy="16.342769168316476"></circle><circle class="pearl" r="2.1904339371426516" cx="20.13255603407495" cy="6.498399684596404"></circle><circle class="pearl" r="2.1904339371426516" cx="10.68133111293425" cy="21.788667524829204"></circle><circle class="pearl" r="2.1904339371426516" cx="5.6061383251677075" cy="8.39441832801336"></circle></g><g class="bobaCup bright" cupRadius="13.226275204013472" width="26.452550408026944" height="26.452550408026944" pearlRadius="2.7380424214283132" pearlCount="8" transform="translate(222.21456329280332,64.1461611719275)"><circle class="pool" r="13.226275204013472" cx="13.226275204013472" cy="13.226275204013472" style="stroke-width: 1; fill: rgb(127, 205, 187);"></circle><circle class="pearl" r="2.1904339371426507" cx="14.244550881080848" cy="12.781878016763933"></circle><circle class="pearl" r="2.1904339371426507" cx="8.192048179423471" cy="20.806288422492063"></circle><circle class="pearl" r="2.1904339371426507" cx="13.994282025705958" cy="4.673039886219173"></circle><circle class="pearl" r="2.1904339371426507" cx="21.509278709456066" cy="15.9926932024659"></circle><circle class="pearl" r="2.1904339371426507" cx="4.678638010726938" cy="14.08513371799816"></circle><circle class="pearl" r="2.1904339371426507" cx="20.75602074823927" cy="8.0716136004529"></circle><circle class="pearl" r="2.1904339371426507" cx="16.025153822890765" cy="21.502293028356426"></circle><circle class="pearl" r="2.1904339371426507" cx="6.563876888633989" cy="6.451290381897707"></circle></g><g class="bobaCup bright" cupRadius="13.200083397149218" width="26.400166794298435" height="26.400166794298435" pearlRadius="2.7380424214283137" pearlCount="8" transform="translate(173.72781006406342,172.94387919497404)"><circle class="pool" r="13.200083397149218" cx="13.200083397149218" cy="13.200083397149218" style="stroke-width: 1; fill: rgb(127, 205, 187);"></circle><circle class="pearl" r="2.190433937142651" cx="14.16735268799127" cy="12.847251256021911"></circle><circle class="pearl" r="2.190433937142651" cx="8.116149557962224" cy="20.731142403147256"></circle><circle class="pearl" r="2.190433937142651" cx="13.9939159005351" cy="4.674614776469527"></circle><circle class="pearl" r="2.190433937142651" cx="21.446490134358772" cy="16.011887148739554"></circle><circle class="pearl" r="2.190433937142651" cx="4.677145529007364" cy="14.034861811248726"></circle><circle class="pearl" r="2.190433937142651" cx="20.72158314723467" cy="8.093304622857136"></circle><circle class="pearl" r="2.190433937142651" cx="15.931686733071011" cy="21.463714388084245"></circle><circle class="pearl" r="2.190433937142651" cx="6.569831348971906" cy="6.436694331313216"></circle></g><g class="bobaCup bright" cupRadius="13.193138048996394" width="26.386276097992788" height="26.386276097992788" pearlRadius="2.7380424214283137" pearlCount="8" transform="translate(114.6342661591479,286.8068619510036)"><circle class="pool" r="13.193138048996394" cx="13.193138048996394" cy="13.193138048996394" style="stroke-width: 1; fill: rgb(29, 145, 192);"></circle><circle class="pearl" r="2.190433937142651" cx="14.148859083074253" cy="12.85893803563988"></circle><circle class="pearl" r="2.190433937142651" cx="8.097783148838095" cy="20.711895089578515"></circle><circle class="pearl" r="2.190433937142651" cx="13.992735557264595" cy="4.674976153736848"></circle><circle class="pearl" r="2.190433937142651" cx="21.430245275126726" cy="16.014966844431562"></circle><circle class="pearl" r="2.190433937142651" cx="4.676812692879684" cy="14.0224287991845"></circle><circle class="pearl" r="2.190433937142651" cx="20.711606281073912" cy="8.097093428513414"></circle><circle class="pearl" r="2.190433937142651" cx="15.90888228895335" cy="21.453016076874096"></circle><circle class="pearl" r="2.190433937142651" cx="6.571198428245447" cy="6.432953897389284"></circle></g><g class="bobaCup bright" cupRadius="12.888354194621252" width="25.776708389242504" height="25.776708389242504" pearlRadius="2.7380424214283146" pearlCount="8" transform="translate(34.34064960237731,97.40678250211315)"><circle class="pool" r="12.888354194621252" cx="12.888354194621252" cy="12.888354194621252" style="stroke-width: 1; fill: rgb(29, 145, 192);"></circle><circle class="pearl" r="2.1904339371426516" cx="13.615500101120979" cy="12.940298049529739"></circle><circle class="pearl" r="2.1904339371426516" cx="6.707622688007766" cy="19.547283122025902"></circle><circle class="pearl" r="2.1904339371426516" cx="14.250505220564163" cy="4.722907229701074"></circle><circle class="pearl" r="2.1904339371426516" cx="20.54280298206879" cy="16.72142287417859"></circle><circle class="pearl" r="2.1904339371426516" cx="4.65384607979252" cy="13.17205663218244"></circle><circle class="pearl" r="2.1904339371426516" cx="20.46468816956838" cy="8.8129712693117"></circle><circle class="pearl" r="2.1904339371426516" cx="14.294184629137757" cy="21.049083445585747"></circle><circle class="pearl" r="2.1904339371426516" cx="6.705582896251287" cy="6.230540253511026"></circle></g><g class="bobaCup bright" cupRadius="12.82684329834677" width="25.65368659669354" height="25.65368659669354" pearlRadius="2.7380424214283137" pearlCount="8" transform="translate(270.664134797552,112.20797966641143)"><circle class="pool" r="12.82684329834677" cx="12.82684329834677" cy="12.82684329834677" style="stroke-width: 1; fill: rgb(127, 205, 187);"></circle><circle class="pearl" r="2.190433937142651" cx="13.487780141262936" cy="12.898534847335078"></circle><circle class="pearl" r="2.190433937142651" cx="6.703667432793562" cy="19.447083929173434"></circle><circle class="pearl" r="2.190433937142651" cx="14.173107019418579" cy="4.721568604619916"></circle><circle class="pearl" r="2.190433937142651" cx="20.4288164887833" cy="16.621489456288433"></circle><circle class="pearl" r="2.190433937142651" cx="4.654378791080598" cy="13.133054486608087"></circle><circle class="pearl" r="2.190433937142651" cx="20.330138047075966" cy="8.727116965064875"></circle><circle class="pearl" r="2.190433937142651" cx="14.23740155717841" cy="20.925168442057643"></circle><circle class="pearl" r="2.190433937142651" cx="6.700686417428555" cy="6.208222674203009"></circle></g><g class="bobaCup bright" cupRadius="12.658929014701055" width="25.31785802940211" height="25.31785802940211" pearlRadius="2.7380424214283132" pearlCount="8" transform="translate(231.28749832968884,91.10687016371199)"><circle class="pool" r="12.658929014701055" cx="12.658929014701055" cy="12.658929014701055" style="stroke-width: 1; fill: rgb(29, 145, 192);"></circle><circle class="pearl" r="2.1904339371426507" cx="13.14614635714688" cy="12.75800407597076"></circle><circle class="pearl" r="2.1904339371426507" cx="6.693930577850645" cy="19.17365595383984"></circle><circle class="pearl" r="2.1904339371426507" cx="13.947725389248872" cy="4.716499829988456"></circle><circle class="pearl" r="2.1904339371426507" cx="20.125459176017092" cy="16.322350104953887"></circle><circle class="pearl" r="2.1904339371426507" cx="4.6562034929787925" cy="13.031378370909339"></circle><circle class="pearl" r="2.1904339371426507" cx="19.95257257234392" cy="8.466008090616125"></circle><circle class="pearl" r="2.1904339371426507" cx="14.098431748378015" cy="20.585022381714754"></circle><circle class="pearl" r="2.1904339371426507" cx="6.686850710429147" cy="6.147987290099382"></circle></g><g class="bobaCup bright" cupRadius="12.392898444687997" width="24.785796889375995" height="24.785796889375995" pearlRadius="2.7380424214283137" pearlCount="7" transform="translate(203.61911323865488,103.25567541036911)"><circle class="pool" r="12.392898444687997" cx="12.392898444687997" cy="12.392898444687997" style="stroke-width: 1; fill: rgb(127, 205, 187);"></circle><circle class="pearl" r="2.190433937142651" cx="12.44295696180749" cy="12.415943678346519"></circle><circle class="pearl" r="2.190433937142651" cx="4.954872778742997" cy="15.12164944572974"></circle><circle class="pearl" r="2.190433937142651" cx="13.3185282111893" cy="4.685339373695079"></circle><circle class="pearl" r="2.190433937142651" cx="18.865245908779496" cy="17.857441447207133"></circle><circle class="pearl" r="2.190433937142651" cx="5.798190765641289" cy="7.184807089657382"></circle><circle class="pearl" r="2.190433937142651" cx="19.726825069137426" cy="9.238203568658685"></circle><circle class="pearl" r="2.190433937142651" cx="11.064992485836191" cy="20.06372534687546"></circle></g><g class="bobaCup bright" cupRadius="12.213291436662253" width="24.426582873324506" height="24.426582873324506" pearlRadius="2.7380424214283137" pearlCount="7" transform="translate(76.42365505729359,210.5581389176144)"><circle class="pool" r="12.213291436662253" cx="12.213291436662253" cy="12.213291436662253" style="stroke-width: 1; fill: rgb(29, 145, 192);"></circle><circle class="pearl" r="2.190433937142651" cx="12.23612421191602" cy="12.22169602921856"></circle><circle class="pearl" r="2.190433937142651" cx="5.051087319394998" cy="15.314780633611408"></circle><circle class="pearl" r="2.190433937142651" cx="12.989338408765487" cy="4.675403636328651"></circle><circle class="pearl" r="2.190433937142651" cx="18.738523757661287" cy="17.138989891793297"></circle><circle class="pearl" r="2.190433937142651" cx="5.6456721765687075" cy="7.384908733948082"></circle><circle class="pearl" r="2.190433937142651" cx="19.337285311966195" cy="8.969755581987533"></circle><circle class="pearl" r="2.190433937142651" cx="11.314569474037281" cy="19.74274827862966"></circle></g><g class="bobaCup bright" cupRadius="11.765181337374743" width="23.530362674749487" height="23.530362674749487" pearlRadius="2.7380424214283137" pearlCount="6" transform="translate(93.83166234132042,163.75527266631298)"><circle class="pool" r="11.765181337374743" cx="11.765181337374743" cy="11.765181337374743" style="stroke-width: 1; fill: rgb(65, 182, 196);"></circle><circle class="pearl" r="2.190433937142651" cx="12.2132636175764" cy="12.030993796889687"></circle><circle class="pearl" r="2.190433937142651" cx="6.801600351400833" cy="17.781339363274864"></circle><circle class="pearl" r="2.190433937142651" cx="9.756931466548576" cy="4.823388688982897"></circle><circle class="pearl" r="2.190433937142651" cx="17.34119907670242" cy="17.474357629166487"></circle><circle class="pearl" r="2.190433937142651" cx="4.734425960615013" cy="10.364271099526007"></circle><circle class="pearl" r="2.190433937142651" cx="17.417048831286056" cy="6.09718925188761"></circle></g><g class="bobaCup bright" cupRadius="11.487696263451287" width="22.975392526902574" height="22.975392526902574" pearlRadius="2.7380424214283137" pearlCount="6" transform="translate(95.79213611655823,226.37323462811)"><circle class="pool" r="11.487696263451287" cx="11.487696263451287" cy="11.487696263451287" style="stroke-width: 1; fill: rgb(127, 205, 187);"></circle><circle class="pearl" r="2.190433937142651" cx="11.872800847743287" cy="11.830009602553078"></circle><circle class="pearl" r="2.190433937142651" cx="6.149681006018199" cy="17.009129077368158"></circle><circle class="pearl" r="2.190433937142651" cx="9.652307982243894" cy="4.798290952251792"></circle><circle class="pearl" r="2.190433937142651" cx="16.80927669028207" cy="17.017736621276075"></circle><circle class="pearl" r="2.190433937142651" cx="4.780160908670547" cy="9.768066246550195"></circle><circle class="pearl" r="2.190433937142651" cx="16.92341568365694" cy="6.018136895863718"></circle></g><g class="bobaCup bright" cupRadius="11.405715978650807" width="22.811431957301615" height="22.811431957301615" pearlRadius="2.738042421428314" pearlCount="6" transform="translate(250.08383062844374,279.0010881383586)"><circle class="pool" r="11.405715978650807" cx="11.405715978650807" cy="11.405715978650807" style="stroke-width: 1; fill: rgb(29, 145, 192);"></circle><circle class="pearl" r="2.1904339371426516" cx="11.806400973890035" cy="11.754735958823632"></circle><circle class="pearl" r="2.1904339371426516" cx="6.146730461365497" cy="16.875932840537413"></circle><circle class="pearl" r="2.1904339371426516" cx="9.564579752416531" cy="4.800304240809213"></circle><circle class="pearl" r="2.1904339371426516" cx="16.649502384233845" cy="16.883816034068484"></circle><circle class="pearl" r="2.1904339371426516" cx="4.776887242672522" cy="9.71395226445169"></circle><circle class="pearl" r="2.1904339371426516" cx="16.76688045409307" cy="5.989251295351654"></circle></g><g class="bobaCup bright" cupRadius="11.288814435812643" width="22.577628871625286" height="22.577628871625286" pearlRadius="2.738042421428314" pearlCount="6" transform="translate(92.75795981300381,207.1883021306648)"><circle class="pool" r="11.288814435812643" cx="11.288814435812643" cy="11.288814435812643" style="stroke-width: 1; fill: rgb(127, 205, 187);"></circle><circle class="pearl" r="2.1904339371426516" cx="11.712921640575855" cy="11.64665277260854"></circle><circle class="pearl" r="2.1904339371426516" cx="6.14254271644049" cy="16.685639104942883"></circle><circle class="pearl" r="2.1904339371426516" cx="9.438610715382557" cy="4.803376855598746"></circle><circle class="pearl" r="2.1904339371426516" cx="16.421552070451433" cy="16.692559653667484"></circle><circle class="pearl" r="2.1904339371426516" cx="4.772108998132717" cy="9.637794039086101"></circle><circle class="pearl" r="2.1904339371426516" cx="16.543327643434186" cy="5.948170274624571"></circle></g><g class="bobaCup bright" cupRadius="11.272677336141827" width="22.545354672283654" height="22.545354672283654" pearlRadius="2.738042421428314" pearlCount="6" transform="translate(219.49006660000597,99.65285711413786)"><circle class="pool" r="11.272677336141827" cx="11.272677336141827" cy="11.272677336141827" style="stroke-width: 1; fill: rgb(29, 145, 192);"></circle><circle class="pearl" r="2.1904339371426516" cx="11.700138265341545" cy="11.63165822294923"></circle><circle class="pearl" r="2.1904339371426516" cx="6.141967701428351" cy="16.65933787870473"></circle><circle class="pearl" r="2.1904339371426516" cx="9.4211343055563" cy="4.803821313200931"></circle><circle class="pearl" r="2.1904339371426516" cx="16.390073071674887" cy="16.666132282549203"></circle><circle class="pearl" r="2.1904339371426516" cx="4.771438282341647" cy="9.627383569869586"></circle><circle class="pearl" r="2.1904339371426516" cx="16.51243405030217" cy="5.942508625553506"></circle></g><g class="bobaCup bright" cupRadius="11.225633916021952" width="22.451267832043904" height="22.451267832043904" pearlRadius="2.7380424214283146" pearlCount="6" transform="translate(193.66694380146623,265.0549960860592)"><circle class="pool" r="11.225633916021952" cx="11.225633916021952" cy="11.225633916021952" style="stroke-width: 1; fill: rgb(29, 145, 192);"></circle><circle class="pearl" r="2.1904339371426516" cx="11.663050524616617" cy="11.587834473998017"></circle><circle class="pearl" r="2.1904339371426516" cx="6.140297269579816" cy="16.582618117671586"></circle><circle class="pearl" r="2.1904339371426516" cx="9.370055889784336" cy="4.8051473188745115"></circle><circle class="pearl" r="2.1904339371426516" cx="16.298284318759524" cy="16.58905442059893"></circle><circle class="pearl" r="2.1904339371426516" cx="4.769466359902359" cy="9.597188671779575"></circle><circle class="pearl" r="2.1904339371426516" cx="16.422320412298742" cy="5.926015126553819"></circle></g><g class="bobaCup bright" cupRadius="11.204116330504178" width="22.408232661008356" height="22.408232661008356" pearlRadius="2.738042421428314" pearlCount="6" transform="translate(242.05881282081862,189.27369550378992)"><circle class="pool" r="11.204116330504178" cx="11.204116330504178" cy="11.204116330504178" style="stroke-width: 1; fill: rgb(127, 205, 187);"></circle><circle class="pearl" r="2.1904339371426516" cx="11.646178422172191" cy="11.567732456841007"></circle><circle class="pearl" r="2.1904339371426516" cx="6.13953654973022" cy="16.54750408749084"></circle><circle class="pearl" r="2.1904339371426516" cx="9.346625533225462" cy="4.805769431435776"></circle><circle class="pearl" r="2.1904339371426516" cx="16.256289673138582" cy="16.553781457564323"></circle><circle class="pearl" r="2.1904339371426516" cx="4.7685558439688815" cy="9.583457163486802"></circle><circle class="pearl" r="2.1904339371426516" cx="16.381075944539603" cy="5.918476446642396"></circle></g><g class="bobaCup bright" cupRadius="11.137466339254473" width="22.274932678508947" height="22.274932678508947" pearlRadius="2.7380424214283132" pearlCount="6" transform="translate(80.72773759909043,182.39340024113346)"><circle class="pool" r="11.137466339254473" cx="11.137466339254473" cy="11.137466339254473" style="stroke-width: 1; fill: rgb(127, 205, 187);"></circle><circle class="pearl" r="2.1904339371426507" cx="11.594303776606889" cy="11.505226478401925"></circle><circle class="pearl" r="2.1904339371426507" cx="6.137196385866342" cy="16.43865030736033"></circle><circle class="pearl" r="2.1904339371426507" cx="9.27376730256128" cy="4.807762328475747"></circle><circle class="pearl" r="2.1904339371426507" cx="16.126166085898195" cy="16.444455262370806"></circle><circle class="pearl" r="2.1904339371426507" cx="4.765699374938598" cy="9.541262591064022"></circle><circle class="pearl" r="2.1904339371426507" cx="16.253209535865533" cy="5.8951451423539885"></circle></g><g class="bobaCup bright" cupRadius="11.130888516143356" width="22.261777032286712" height="22.261777032286712" pearlRadius="2.7380424214283132" pearlCount="6" transform="translate(93.10610235949781,187.4839279509652)"><circle class="pool" r="11.130888516143356" cx="11.130888516143356" cy="11.130888516143356" style="stroke-width: 1; fill: rgb(65, 182, 196);"></circle><circle class="pearl" r="2.1904339371426507" cx="11.589217069233705" cy="11.49903710334239"></circle><circle class="pearl" r="2.1904339371426507" cx="6.136966929396654" cy="16.427900021884266"></circle><circle class="pearl" r="2.1904339371426507" cx="9.266552565213045" cy="4.807964647195729"></circle><circle class="pearl" r="2.1904339371426507" cx="16.113319841983493" cy="16.433660012647426"></circle><circle class="pearl" r="2.1904339371426507" cx="4.765414373198495" cy="9.537127357557406"></circle><circle class="pearl" r="2.1904339371426507" cx="16.24058044503487" cy="5.892843997890117"></circle></g><g class="bobaCup bright" cupRadius="11.0372642802775" width="22.074528560555" height="22.074528560555" pearlRadius="2.7380424214283137" pearlCount="6" transform="translate(73.40692792400228,174.52460654100403)"><circle class="pool" r="11.0372642802775" cx="11.0372642802775" cy="11.0372642802775" style="stroke-width: 1; fill: rgb(29, 145, 192);"></circle><circle class="pearl" r="2.190433937142651" cx="11.517504204147325" cy="11.410511805042905"></circle><circle class="pearl" r="2.190433937142651" cx="6.133736823944988" cy="16.274747222579006"></circle><circle class="pearl" r="2.190433937142651" cx="9.163355157544194" cy="4.810962759753524"></circle><circle class="pearl" r="2.190433937142651" cx="15.930385874343859" cy="16.27990063570876"></circle><circle class="pearl" r="2.190433937142651" cx="4.761293018277211" cy="9.478883613557466"></circle><circle class="pearl" r="2.190433937142651" cx="16.06062182620368" cy="5.860114811337892"></circle></g><g class="bobaCup bright" cupRadius="10.9274700959811" width="21.8549401919622" height="21.8549401919622" pearlRadius="2.7380424214283137" pearlCount="5" transform="translate(300.42595866979383,111.37474275861283)"><circle class="pool" r="10.9274700959811" cx="10.9274700959811" cy="10.9274700959811" style="stroke-width: 1; fill: rgb(127, 205, 187);"></circle><circle class="pearl" r="2.190433937142651" cx="16.858768144782076" cy="8.2015888836378"></circle><circle class="pearl" r="2.190433937142651" cx="8.127268714778648" cy="16.839344792318123"></circle><circle class="pearl" r="2.190433937142651" cx="10.098055366855093" cy="4.682245733559007"></circle><circle class="pearl" r="2.190433937142651" cx="15.942190213651667" cy="15.98561831778937"></circle><circle class="pearl" r="2.190433937142651" cx="4.687634025867078" cy="10.030073383047208"></circle></g><g class="bobaCup bright" cupRadius="10.924834697465048" width="21.849669394930096" height="21.849669394930096" pearlRadius="2.7380424214283132" pearlCount="5" transform="translate(114.14134007089547,188.95540040085677)"><circle class="pool" r="10.924834697465048" cx="10.924834697465048" cy="10.924834697465048" style="stroke-width: 1; fill: rgb(29, 145, 192);"></circle><circle class="pearl" r="2.1904339371426507" cx="16.853364992513836" cy="8.19877379390607"></circle><circle class="pearl" r="2.1904339371426507" cx="8.123583464822588" cy="16.833704486551195"></circle><circle class="pearl" r="2.1904339371426507" cx="10.095647588449198" cy="4.6822360311696185"></circle><circle class="pearl" r="2.1904339371426507" cx="15.937299311584091" cy="15.981181658149868"></circle><circle class="pearl" r="2.1904339371426507" cx="4.6876961191446265" cy="10.026793250220276"></circle></g><g class="bobaCup bright" cupRadius="10.839227656680212" width="21.678455313360423" height="21.678455313360423" pearlRadius="2.7380424214283137" pearlCount="5" transform="translate(158.25752303926484,17.839260309916835)"><circle class="pool" r="10.839227656680212" cx="10.839227656680212" cy="10.839227656680212" style="stroke-width: 1; fill: rgb(29, 145, 192);"></circle><circle class="pearl" r="2.190433937142651" cx="16.677911008910957" cy="8.10770687587468"></circle><circle class="pearl" r="2.190433937142651" cx="8.002906820067452" cy="16.650059776389682"></circle><circle class="pearl" r="2.190433937142651" cx="10.018581567971491" cy="4.6818337416213165"></circle><circle class="pearl" r="2.190433937142651" cx="15.778354979195147" cy="15.837021282285608"></circle><circle class="pearl" r="2.190433937142651" cx="4.689847578335925" cy="9.919105516257074"></circle></g><g class="bobaCup bright" cupRadius="10.824577462538198" width="21.649154925076395" height="21.649154925076395" pearlRadius="2.7380424214283132" pearlCount="5" transform="translate(254.02686581574446,113.51327870114373)"><circle class="pool" r="10.824577462538198" cx="10.824577462538198" cy="10.824577462538198" style="stroke-width: 1; fill: rgb(65, 182, 196);"></circle><circle class="pearl" r="2.1904339371426507" cx="16.64789932720399" cy="8.092205484323964"></circle><circle class="pearl" r="2.1904339371426507" cx="7.982054122736369" cy="16.618543712605135"></circle><circle class="pearl" r="2.1904339371426507" cx="10.005633992218977" cy="4.681746650159128"></circle><circle class="pearl" r="2.1904339371426507" cx="15.751138994835543" cy="15.812343156561667"></circle><circle class="pearl" r="2.1904339371426507" cx="4.690244212089223" cy="9.900437869815665"></circle></g><g class="bobaCup bright" cupRadius="10.786536611597047" width="21.573073223194093" height="21.573073223194093" pearlRadius="2.738042421428314" pearlCount="5" transform="translate(186.62593078378757,94.59445146403695)"><circle class="pool" r="10.786536611597047" cx="10.786536611597047" cy="10.786536611597047" style="stroke-width: 1; fill: rgb(65, 182, 196);"></circle><circle class="pearl" r="2.1904339371426516" cx="16.569995906114325" cy="8.052088376906767"></circle><circle class="pearl" r="2.1904339371426516" cx="7.92760715746666" cy="16.53657751118641"></circle><circle class="pearl" r="2.1904339371426516" cx="9.972379792975106" cy="4.68149298010581"></circle><circle class="pearl" r="2.1904339371426516" cx="15.680445333336007" cy="15.748254774088423"></circle><circle class="pearl" r="2.1904339371426516" cx="4.691317714855877" cy="9.851603505560565"></circle></g><g class="bobaCup bright" cupRadius="10.701429749977606" width="21.402859499955213" height="21.402859499955213" pearlRadius="2.738042421428314" pearlCount="5" transform="translate(241.04726167120288,65.99012986038103)"><circle class="pool" r="10.701429749977606" cx="10.701429749977606" cy="10.701429749977606" style="stroke-width: 1; fill: rgb(29, 145, 192);"></circle><circle class="pearl" r="2.1904339371426516" cx="16.395875494944736" cy="7.963167965076807"></circle><circle class="pearl" r="2.1904339371426516" cx="7.804060175448437" cy="16.352446580362507"></circle><circle class="pearl" r="2.1904339371426516" cx="9.900123934653394" cy="4.680765642122683"></circle><circle class="pearl" r="2.1904339371426516" cx="15.522137081999507" cy="15.604835446258651"></circle><circle class="pearl" r="2.1904339371426516" cx="4.693977805497706" cy="9.740232229035424"></circle></g><g class="bobaCup bright" cupRadius="10.601931852657291" width="21.203863705314582" height="21.203863705314582" pearlRadius="2.7380424214283137" pearlCount="5" transform="translate(232.23833225971913,204.4785119354477)"><circle class="pool" r="10.601931852657291" cx="10.601931852657291" cy="10.601931852657291" style="stroke-width: 1; fill: rgb(65, 182, 196);"></circle><circle class="pearl" r="2.190433937142651" cx="16.19274221909284" cy="7.861138421780065"></circle><circle class="pearl" r="2.190433937142651" cx="7.6560147793033" cy="16.135634558094992"></circle><circle class="pearl" r="2.190433937142651" cx="9.820210938751233" cy="4.6795821399708935"></circle><circle class="pearl" r="2.190433937142651" cx="15.336721784445388" cy="15.437130999386742"></circle><circle class="pearl" r="2.190433937142651" cx="4.697649294131949" cy="9.605532413300665"></circle></g><g class="bobaCup bright" cupRadius="10.542449769336928" width="21.084899538673856" height="21.084899538673856" pearlRadius="2.738042421428314" pearlCount="5" transform="translate(118.24624050250917,245.49313579082462)"><circle class="pool" r="10.542449769336928" cx="10.542449769336928" cy="10.542449769336928" style="stroke-width: 1; fill: rgb(29, 145, 192);"></circle><circle class="pearl" r="2.1904339371426516" cx="16.0716270824617" cy="7.801487876100775"></circle><circle class="pearl" r="2.1904339371426516" cx="7.565243639515055" cy="16.005058869901642"></circle><circle class="pearl" r="2.1904339371426516" cx="9.77537759333277" cy="4.678666475213165"></circle><circle class="pearl" r="2.1904339371426516" cx="15.22564455691245" cy="15.336880521544437"></circle><circle class="pearl" r="2.1904339371426516" cx="4.700215176027838" cy="9.522114879589502"></circle></g><g class="bobaCup bright" cupRadius="10.39950857605678" width="20.79901715211356" height="20.79901715211356" pearlRadius="2.738042421428314" pearlCount="5" transform="translate(131.2284293027661,213.9450297486519)"><circle class="pool" r="10.39950857605678" cx="10.39950857605678" cy="10.39950857605678" style="stroke-width: 1; fill: rgb(29, 145, 192);"></circle><circle class="pearl" r="2.1904339371426516" cx="15.782153186668747" cy="7.66431051611199"></circle><circle class="pearl" r="2.1904339371426516" cx="7.33792400315915" cy="15.687420994619249"></circle><circle class="pearl" r="2.1904339371426516" cx="9.67997492612569" cy="4.675645068275648"></circle><circle class="pearl" r="2.1904339371426516" cx="14.957673187760445" cy="15.096133313411158"></circle><circle class="pearl" r="2.1904339371426516" cx="4.707996473589713" cy="9.309578770562556"></circle></g><g class="bobaCup bright" cupRadius="10.21177398551373" width="20.42354797102746" height="20.42354797102746" pearlRadius="2.738042421428314" pearlCount="5" transform="translate(102.41413398512658,224.08046390800573)"><circle class="pool" r="10.21177398551373" cx="10.21177398551373" cy="10.21177398551373" style="stroke-width: 1; fill: rgb(29, 145, 192);"></circle><circle class="pearl" r="2.1904339371426516" cx="15.408420272967543" cy="7.508139108893275"></circle><circle class="pearl" r="2.1904339371426516" cx="7.00869212980753" cy="15.257472496783624"></circle><circle class="pearl" r="2.1904339371426516" cx="9.59797676730116" cy="4.669186618104259"></circle><circle class="pearl" r="2.1904339371426516" cx="14.601773342429539" cy="14.781041731856543"></circle><circle class="pearl" r="2.1904339371426516" cx="4.724265620040155" cy="8.988422818951301"></circle></g><g class="bobaCup bright" cupRadius="9.992758335656735" width="19.98551667131347" height="19.98551667131347" pearlRadius="2.7380424214283137" pearlCount="4" transform="translate(10.007241664343265,281.1131988611499)"><circle class="pool" r="9.992758335656735" cx="9.992758335656735" cy="9.992758335656735" style="stroke-width: 1; fill: rgb(127, 205, 187);"></circle><circle class="pearl" r="2.190433937142651" cx="14.758263445480335" cy="6.647633071328057"></circle><circle class="pearl" r="2.190433937142651" cx="5.941016028455279" cy="13.07571228857025"></circle><circle class="pearl" r="2.190433937142651" cx="6.9067725275409515" cy="5.139171450024625"></circle><circle class="pearl" r="2.190433937142651" cx="13.792506946396122" cy="14.58417390987482"></circle></g><g class="bobaCup bright" cupRadius="9.778691586573471" width="19.557383173146942" height="19.557383173146942" pearlRadius="2.7380424214283137" pearlCount="4" transform="translate(219.01906435631548,102.971351619979)"><circle class="pool" r="9.778691586573471" cx="9.778691586573471" cy="9.778691586573471" style="stroke-width: 1; fill: rgb(127, 205, 187);"></circle><circle class="pearl" r="2.190433937142651" cx="14.233865731169846" cy="6.21422217659605"></circle><circle class="pearl" r="2.190433937142651" cx="5.548879519454651" cy="13.253936886557005"></circle><circle class="pearl" r="2.190433937142651" cx="6.291978942610125" cy="5.293461439401611"></circle><circle class="pearl" r="2.190433937142651" cx="13.490766308014429" cy="14.174697623751516"></circle></g><g class="bobaCup bright" cupRadius="9.766763219249762" width="19.533526438499525" height="19.533526438499525" pearlRadius="2.7380424214283146" pearlCount="4" transform="translate(85.81291567333348,240.2112051613408)"><circle class="pool" r="9.766763219249762" cx="9.766763219249762" cy="9.766763219249762" style="stroke-width: 1; fill: rgb(65, 182, 196);"></circle><circle class="pearl" r="2.1904339371426516" cx="14.204040093194148" cy="6.189345446949632"></circle><circle class="pearl" r="2.1904339371426516" cx="5.529894355643745" cy="13.264488283014774"></circle><circle class="pearl" r="2.1904339371426516" cx="6.258277557407059" cy="5.302652815683937"></circle><circle class="pearl" r="2.1904339371426516" cx="13.475656891430878" cy="14.151180914280527"></circle></g><g class="bobaCup bright" cupRadius="9.561255974561142" width="19.122511949122284" height="19.122511949122284" pearlRadius="2.7380424214283132" pearlCount="4" transform="translate(310.43874402543884,283.1286358980781)"><circle class="pool" r="9.561255974561142" cx="9.561255974561142" cy="9.561255974561142" style="stroke-width: 1; fill: rgb(127, 205, 187);"></circle><circle class="pearl" r="2.1904339371426507" cx="13.628118734940369" cy="5.6342583508875075"></circle><circle class="pearl" r="2.1904339371426507" cx="5.4943932141819145" cy="13.488253598234776"></circle><circle class="pearl" r="2.1904339371426507" cx="5.6342583508875075" cy="5.4943932141819145"></circle><circle class="pearl" r="2.1904339371426507" cx="13.488253598234776" cy="13.628118734940369"></circle></g><g class="bobaCup bright" cupRadius="9.255429490155322" width="18.510858980310644" height="18.510858980310644" pearlRadius="2.7380424214283137" pearlCount="4" transform="translate(87.66435474407362,113.54725341680466)"><circle class="pool" r="9.255429490155322" cx="9.255429490155322" cy="9.255429490155322" style="stroke-width: 1; fill: rgb(29, 145, 192);"></circle><circle class="pearl" r="2.190433937142651" cx="13.000889943770556" cy="5.442435979749305"></circle><circle class="pearl" r="2.190433937142651" cx="5.509215896314368" cy="13.068089672286959"></circle><circle class="pearl" r="2.190433937142651" cx="5.51029382973109" cy="5.442292256014634"></circle><circle class="pearl" r="2.190433937142651" cx="12.999811389817925" cy="13.06890021238167"></circle></g><g class="bobaCup bright" cupRadius="9.132355198446415" width="18.26471039689283" height="18.26471039689283" pearlRadius="2.7380424214283132" pearlCount="4" transform="translate(278.25268403652336,63.05082897086976)"><circle class="pool" r="9.132355198446415" cx="9.132355198446415" cy="9.132355198446415" style="stroke-width: 1; fill: rgb(65, 182, 196);"></circle><circle class="pearl" r="2.1904339371426507" cx="12.764236604498425" cy="5.403976510763889"></circle><circle class="pearl" r="2.1904339371426507" cx="5.498836994514506" cy="12.860024234044314"></circle><circle class="pearl" r="2.1904339371426507" cx="5.50118398030668" cy="5.403668718980492"></circle><circle class="pearl" r="2.1904339371426507" cx="12.761886659232626" cy="12.861752067210116"></circle></g><g class="bobaCup bright" cupRadius="9.076892881026563" width="18.153785762053126" height="18.153785762053126" pearlRadius="2.738042421428314" pearlCount="4" transform="translate(115.55391122620382,41.06013953919941)"><circle class="pool" r="9.076892881026563" cx="9.076892881026563" cy="9.076892881026563" style="stroke-width: 1; fill: rgb(127, 205, 187);"></circle><circle class="pearl" r="2.1904339371426516" cx="12.65769207998898" cy="5.386881041850872"></circle><circle class="pearl" r="2.1904339371426516" cx="5.493936060370151" cy="12.765978091199283"></circle><circle class="pearl" r="2.1904339371426516" cx="5.497032561997926" cy="5.386478029582735"></circle><circle class="pearl" r="2.1904339371426516" cx="12.654590411989705" cy="12.768235628613358"></circle></g><g class="bobaCup bright" cupRadius="8.912174722696768" width="17.824349445393537" height="17.824349445393537" pearlRadius="2.7380424214283137" pearlCount="3" transform="translate(219.4999448117797,92.50738912038011)"><circle class="pool" r="8.912174722696768" cx="8.912174722696768" cy="8.912174722696768" style="stroke-width: 1; fill: rgb(65, 182, 196);"></circle><circle class="pearl" r="2.190433937142651" cx="12.963477451001912" cy="10.29276758983469"></circle><circle class="pearl" r="2.190433937142651" cx="5.086935242791859" cy="12.026069208757184"></circle><circle class="pearl" r="2.190433937142651" cx="8.498968804373291" cy="3.6603073644252984"></circle></g><g class="bobaCup bright" cupRadius="8.86514819469751" width="17.73029638939502" height="17.73029638939502" pearlRadius="2.7380424214283137" pearlCount="3" transform="translate(97.18510620413012,271.6432578910402)"><circle class="pool" r="8.86514819469751" cx="8.86514819469751" cy="8.86514819469751" style="stroke-width: 1; fill: rgb(65, 182, 196);"></circle><circle class="pearl" r="2.190433937142651" cx="12.934402557901185" cy="10.266427714253162"></circle><circle class="pearl" r="2.190433937142651" cx="5.04597743189762" cy="11.966441589158268"></circle><circle class="pearl" r="2.190433937142651" cx="8.429347334383996" cy="3.661441451548308"></circle></g><g class="bobaCup bright" cupRadius="8.57756353022096" width="17.15512706044192" height="17.15512706044192" pearlRadius="2.7380424214283137" pearlCount="3" transform="translate(117.03323543610743,235.15340255671543)"><circle class="pool" r="8.57756353022096" cx="8.57756353022096" cy="8.57756353022096" style="stroke-width: 1; fill: rgb(127, 205, 187);"></circle><circle class="pearl" r="2.190433937142651" cx="12.755344912252932" cy="10.099195118266685"></circle><circle class="pearl" r="2.190433937142651" cx="4.797563272663456" cy="11.601259064602306"></circle><circle class="pearl" r="2.190433937142651" cx="8.00278205686377" cy="3.670002913717614"></circle></g><g class="bobaCup bright" cupRadius="8.505669526656392" width="17.011339053312785" height="17.011339053312785" pearlRadius="2.738042421428314" pearlCount="3" transform="translate(144.13597709316315,97.16200411675749)"><circle class="pool" r="8.505669526656392" cx="8.505669526656392" cy="8.505669526656392" style="stroke-width: 1; fill: rgb(29, 145, 192);"></circle><circle class="pearl" r="2.1904339371426516" cx="12.710225710819387" cy="10.055726786258692"></circle><circle class="pearl" r="2.1904339371426516" cx="4.735996827326931" cy="11.509842918857576"></circle><circle class="pearl" r="2.1904339371426516" cx="7.895964855148196" cy="3.6726038428232877"></circle></g><g class="bobaCup bright" cupRadius="8.48482098153984" width="16.96964196307968" height="16.96964196307968" pearlRadius="2.7380424214283137" pearlCount="3" transform="translate(245.30782707520115,217.2442847596301)"><circle class="pool" r="8.48482098153984" cx="8.48482098153984" cy="8.48482098153984" style="stroke-width: 1; fill: rgb(29, 145, 192);"></circle><circle class="pearl" r="2.190433937142651" cx="12.697113612514675" cy="10.042996529541234"></circle><circle class="pearl" r="2.190433937142651" cx="4.718181903929131" cy="11.483325352167435"></circle><circle class="pearl" r="2.190433937142651" cx="7.8649781768414115" cy="3.6733942477052555"></circle></g><g class="bobaCup bright" cupRadius="8.289178498973007" width="16.578356997946013" height="16.578356997946013" pearlRadius="2.7380424214283137" pearlCount="3" transform="translate(96.31225202520774,244.97578874869063)"><circle class="pool" r="8.289178498973007" cx="8.289178498973007" cy="8.289178498973007" style="stroke-width: 1; fill: rgb(127, 205, 187);"></circle><circle class="pearl" r="2.190433937142651" cx="12.57385672370582" cy="9.920523154499534"></circle><circle class="pearl" r="2.190433937142651" cx="4.551313121129785" cy="11.234444587099247"></circle><circle class="pearl" r="2.190433937142651" cx="7.574106473956381" cy="3.681623929669101"></circle></g><g class="bobaCup bright" cupRadius="7.756017632458702" width="15.512035264917404" height="15.512035264917404" pearlRadius="2.738042421428314" pearlCount="3" transform="translate(287.59259566536605,78.24041058907903)"><circle class="pool" r="7.756017632458702" cx="7.756017632458702" cy="7.756017632458702" style="stroke-width: 1; fill: rgb(127, 205, 187);"></circle><circle class="pearl" r="2.1904339371426516" cx="11.768433030899686" cy="8.952728081233131"></circle><circle class="pearl" r="2.1904339371426516" cx="4.490081668614415" cy="11.140169796890593"></circle><circle class="pearl" r="2.1904339371426516" cx="5.885790579208934" cy="3.8795860011705208"></circle></g><g class="bobaCup bright" cupRadius="7.699675126620592" width="15.399350253241185" height="15.399350253241185" pearlRadius="2.7380424214283137" pearlCount="2" transform="translate(157.1040273040011,231.99193463489925)"><circle class="pool" r="7.699675126620592" cx="7.699675126620592" cy="7.699675126620592" style="stroke-width: 1; fill: rgb(65, 182, 196);"></circle><circle class="pearl" r="2.190433937142651" cx="11.307267393568223" cy="6.984866100345361"></circle><circle class="pearl" r="2.190433937142651" cx="4.395655344982958" cy="11.003694908258227"></circle></g><g class="bobaCup bright" cupRadius="7.6763858389533945" width="15.352771677906789" height="15.352771677906789" pearlRadius="2.7380424214283137" pearlCount="2" transform="translate(160.80594685433474,202.16589135740276)"><circle class="pool" r="7.6763858389533945" cx="7.6763858389533945" cy="7.6763858389533945" style="stroke-width: 1; fill: rgb(65, 182, 196);"></circle><circle class="pearl" r="2.190433937142651" cx="11.302075016186564" cy="6.945149683728707"></circle><circle class="pearl" r="2.190433937142651" cx="4.389849102201919" cy="10.96292257570487"></circle></g><g class="bobaCup bright" cupRadius="7.4434015066948405" width="14.886803013389681" height="14.886803013389681" pearlRadius="2.738042421428314" pearlCount="2" transform="translate(31.593418292666634,235.96988391101627)"><circle class="pool" r="7.4434015066948405" cx="7.4434015066948405" cy="7.4434015066948405" style="stroke-width: 1; fill: rgb(65, 182, 196);"></circle><circle class="pearl" r="2.1904339371426516" cx="11.16247027397067" cy="6.399183173290475"></circle><circle class="pearl" r="2.1904339371426516" cx="4.332148648166864" cy="10.554655181379824"></circle></g><g class="bobaCup bright" cupRadius="7.3190656414229585" width="14.638131282845917" height="14.638131282845917" pearlRadius="2.738042421428314" pearlCount="2" transform="translate(230.53535402831434,93.63018432206454)"><circle class="pool" r="7.3190656414229585" cx="7.3190656414229585" cy="7.3190656414229585" style="stroke-width: 1; fill: rgb(65, 182, 196);"></circle><circle class="pearl" r="2.1904339371426516" cx="10.801869880476081" cy="5.681534654812625"></circle><circle class="pearl" r="2.1904339371426516" cx="4.301658599097667" cy="10.336473830601811"></circle></g><g class="bobaCup bright" cupRadius="7.315038362650183" width="14.630076725300366" height="14.630076725300366" pearlRadius="2.738042421428313" pearlCount="2" transform="translate(50.17347256896309,240.0046601424345)"><circle class="pool" r="7.315038362650183" cx="7.315038362650183" cy="7.315038362650183" style="stroke-width: 1; fill: rgb(29, 145, 192);"></circle><circle class="pearl" r="2.1904339371426502" cx="10.78926738707567" cy="5.658282001695748"></circle><circle class="pearl" r="2.1904339371426502" cx="4.300674723226086" cy="10.329403137726297"></circle></g><g class="bobaCup bright" cupRadius="6.927069601435631" width="13.854139202871263" height="13.854139202871263" pearlRadius="2.7380424214283132" pearlCount="2" transform="translate(96.02810980723572,212.92673115982944)"><circle class="pool" r="6.927069601435631" cx="6.927069601435631" cy="6.927069601435631" style="stroke-width: 1; fill: rgb(29, 145, 192);"></circle><circle class="pearl" r="2.1904339371426507" cx="9.6198969006788" cy="4.1955538498693885"></circle><circle class="pearl" r="2.1904339371426507" cx="4.234242302192465" cy="9.658585353001875"></circle></g><g class="bobaCup bright" cupRadius="6.886240067277401" width="13.772480134554803" height="13.772480134554803" pearlRadius="2.7380424214283137" pearlCount="2" transform="translate(183.19417311038404,229.59082200541496)"><circle class="pool" r="6.886240067277401" cx="6.886240067277401" cy="6.886240067277401" style="stroke-width: 1; fill: rgb(127, 205, 187);"></circle><circle class="pearl" r="2.190433937142651" cx="9.540114111647432" cy="4.182653355280925"></circle><circle class="pearl" r="2.190433937142651" cx="4.232366022907372" cy="9.589826779273878"></circle></g><g class="bobaCup bright" cupRadius="6.6636637158361385" width="13.327327431672277" height="13.327327431672277" pearlRadius="2.7380424214283137" pearlCount="2" transform="translate(275.80008906472034,117.85095526952195)"><circle class="pool" r="6.6636637158361385" cx="6.6636637158361385" cy="6.6636637158361385" style="stroke-width: 1; fill: rgb(29, 145, 192);"></circle><circle class="pearl" r="2.190433937142651" cx="9.10530032494372" cy="4.114159143203728"></circle><circle class="pearl" r="2.190433937142651" cx="4.222027106728556" cy="9.213168288468548"></circle></g><g class="bobaCup bright" cupRadius="6.587003758288233" width="13.174007516576467" height="13.174007516576467" pearlRadius="2.7380424214283137" pearlCount="2" transform="translate(22.929717564848296,20.184275623468466)"><circle class="pool" r="6.587003758288233" cx="6.587003758288233" cy="6.587003758288233" style="stroke-width: 1; fill: rgb(65, 182, 196);"></circle><circle class="pearl" r="2.190433937142651" cx="8.955578092303313" cy="4.091307367605494"></circle><circle class="pearl" r="2.190433937142651" cx="4.218429424273153" cy="9.082700148970972"></circle></g><g class="bobaCup bright" cupRadius="6.539693185084876" width="13.079386370169752" height="13.079386370169752" pearlRadius="2.738042421428314" pearlCount="2" transform="translate(132.78930728377392,291.0349213652559)"><circle class="pool" r="6.539693185084876" cx="6.539693185084876" cy="6.539693185084876" style="stroke-width: 1; fill: rgb(127, 205, 187);"></circle><circle class="pearl" r="2.1904339371426516" cx="8.863184530869102" cy="4.077399570794215"></circle><circle class="pearl" r="2.1904339371426516" cx="4.21620183930065" cy="9.001986799375537"></circle></g><g class="bobaCup bright" cupRadius="6.282717257586442" width="12.565434515172884" height="12.565434515172884" pearlRadius="2.738042421428314" pearlCount="1" transform="translate(96.76409158649703,119.66600997098296)"><circle class="pool" r="6.282717257586442" cx="6.282717257586442" cy="6.282717257586442" style="stroke-width: 1; fill: rgb(65, 182, 196);"></circle><circle class="pearl" r="2.1904339371426516" cx="8.561320542812556" cy="6.282717257586442"></circle></g><g class="bobaCup bright" cupRadius="6.197056931538554" width="12.394113863077107" height="12.394113863077107" pearlRadius="2.7380424214283137" pearlCount="1" transform="translate(297.6281553756941,97.00016176421866)"><circle class="pool" r="6.197056931538554" cx="6.197056931538554" cy="6.197056931538554" style="stroke-width: 1; fill: rgb(65, 182, 196);"></circle><circle class="pearl" r="2.190433937142651" cx="8.420595673649112" cy="6.197056931538554"></circle></g><g class="bobaCup bright" cupRadius="6.031343083341454" width="12.062686166682909" height="12.062686166682909" pearlRadius="2.7380424214283137" pearlCount="1" transform="translate(273.01907848515634,38.42449135335272)"><circle class="pool" r="6.031343083341454" cx="6.031343083341454" cy="6.031343083341454" style="stroke-width: 1; fill: rgb(127, 205, 187);"></circle><circle class="pearl" r="2.190433937142651" cx="8.148356929273206" cy="6.031343083341454"></circle></g><g class="bobaCup bright" cupRadius="5.608801018344055" width="11.21760203668811" height="11.21760203668811" pearlRadius="2.7380424214283137" pearlCount="1" transform="translate(67.82812953211842,14.391198981655945)"><circle class="pool" r="5.608801018344055" cx="5.608801018344055" cy="5.608801018344055" style="stroke-width: 1; fill: rgb(29, 145, 192);"></circle><circle class="pearl" r="2.190433937142651" cx="7.4541945374610545" cy="5.608801018344055"></circle></g><g class="bobaCup bright" cupRadius="5.094163387792473" width="10.188326775584946" height="10.188326775584946" pearlRadius="2.7380424214283132" pearlCount="1" transform="translate(111.87575323787969,27.132405350576168)"><circle class="pool" r="5.094163387792473" cx="5.094163387792473" cy="5.094163387792473" style="stroke-width: 1; fill: rgb(65, 182, 196);"></circle><circle class="pearl" r="2.1904339371426507" cx="6.537603547013862" cy="5.094163387792473"></circle></g><g class="bobaCup bright" cupRadius="2.209588977163649" width="4.419177954327298" height="4.419177954327298" pearlRadius="2.7380424214283137" pearlCount="0" transform="translate(67.23571325985635,224.63117155032367)"><circle class="pool" r="2.209588977163649" cx="2.209588977163649" cy="2.209588977163649" style="stroke-width: 1; fill: rgb(127, 205, 187);"></circle></g><g class="bobaCup bright" cupRadius="0" width="0" height="0" pearlRadius="NaN" pearlCount="0" transform="translate(299.3062032006279,191.05422308438872)"><circle class="pool" r="0" cx="0" cy="0" style="stroke-width: 1; fill: rgb(65, 182, 196);"></circle></g></g><g id="legendDividerGroup" transform="translate(410,0)" height="400"><rect class="legendDivider" height="400" width="90"></rect></g><g id="legend" transform="translate(410,17.39536817512746)" width="90" height="320"><rect class="legendBorder" transform="translate(0,0)" width="90" height="345.2092636497451"></rect><text id="rTitle" text-anchor="middle" alignment-baseline="hanging" transform="translate(45,0)" x="0" y="0" style="fill: black; font-size: 0.8rem;">Population</text><text id="bobaValue" text-anchor="middle" alignment-baseline="hanging" transform="translate(45,15)" x="0" y="0" style="fill: black; font-size: 0.7rem;">(1 Pearl =   75)</text><g class="bright" cupRadius="2.209588977163649" width="4.419177954327298" height="4.419177954327298" pearlRadius="2.7380424214283137" pearlCount="0" transform="translate(42.79041102283635,40)"><circle class="pool" r="2.209588977163649" cx="2.209588977163649" cy="2.209588977163649" style="stroke-width: 1; fill: rgb(127, 205, 187);"></circle></g><text id="0" class="legendSampleValue" text-anchor="middle" transform="translate(45,8)" x="0" y="49.419177954327296" style="fill: black; font-size: 0.7rem;">  18</text><g class="bright" cupRadius="9.160012377633693" width="18.320024755267386" height="18.320024755267386" pearlRadius="2.7380424214283137" pearlCount="4" transform="translate(35.83998762236631,69.4191779543273)"><circle class="pool" r="9.160012377633693" cx="9.160012377633693" cy="9.160012377633693" style="stroke-width: 1; fill: rgb(127, 205, 187);"></circle><circle class="pearl" r="2.190433937142651" cx="12.817390606322466" cy="5.4125565624646494"></circle><circle class="pearl" r="2.190433937142651" cx="5.501227972392407" cy="12.90685566766582"></circle><circle class="pearl" r="2.190433937142651" cx="5.50324341436027" cy="5.4122912557525655"></circle><circle class="pearl" r="2.190433937142651" cx="12.815372984997136" cy="12.90834657168677"></circle></g><text id="1" class="legendSampleValue" text-anchor="middle" transform="translate(45,8)" x="0" y="92.73920270959468" style="fill: black; font-size: 0.7rem;"> 310</text><g class="bright" cupRadius="12.764378953509718" width="25.528757907019436" height="25.528757907019436" pearlRadius="2.7380424214283137" pearlCount="8" transform="translate(32.23562104649028,112.73920270959468)"><circle class="pool" r="12.764378953509718" cx="12.764378953509718" cy="12.764378953509718" style="stroke-width: 1; fill: rgb(127, 205, 187);"></circle><circle class="pearl" r="2.190433937142651" cx="13.36015521605706" cy="12.849935234043713"></circle><circle class="pearl" r="2.190433937142651" cx="6.699838855749913" cy="19.345339635709333"></circle><circle class="pearl" r="2.190433937142651" cx="14.09199453456586" cy="4.719953229124842"></circle><circle class="pearl" r="2.190433937142651" cx="20.31447900696304" cy="16.515283019146835"></circle><circle class="pearl" r="2.190433937142651" cx="4.654987716226126" cy="13.094301500614403"></circle><circle class="pearl" r="2.190433937142651" cx="20.191689304953524" cy="8.635156882848644"></circle><circle class="pearl" r="2.190433937142651" cx="14.18261296376302" cy="20.799000905932434"></circle><circle class="pearl" r="2.190433937142651" cx="6.6956312955956125" cy="6.1856911586404415"></circle></g><text id="2" class="legendSampleValue" text-anchor="middle" transform="translate(45,8)" x="0" y="143.26796061661412" style="fill: black; font-size: 0.7rem;"> 610</text><g class="bright" cupRadius="15.55483569116695" width="31.1096713823339" height="31.1096713823339" pearlRadius="2.7380424214283132" pearlCount="12" transform="translate(29.44516430883305,163.26796061661412)"><circle class="pool" r="15.55483569116695" cx="15.55483569116695" cy="15.55483569116695" style="stroke-width: 1; fill: rgb(127, 205, 187);"></circle><circle class="pearl" r="2.1904339371426507" cx="17.61156989038949" cy="11.161131159254627"></circle><circle class="pearl" r="2.1904339371426507" cx="11.542966948090346" cy="16.120321362460736"></circle><circle class="pearl" r="2.1904339371426507" cx="14.530265501136366" cy="4.684503243499322"></circle><circle class="pearl" r="2.1904339371426507" cx="18.33598104733095" cy="18.475102194857996"></circle><circle class="pearl" r="2.1904339371426507" cx="4.717223949425624" cy="14.118036043826066"></circle><circle class="pearl" r="2.1904339371426507" cx="26.413941436620494" cy="14.37241504871042"></circle><circle class="pearl" r="2.1904339371426507" cx="11.896801781200226" cy="26.022700402371683"></circle><circle class="pearl" r="2.1904339371426507" cx="7.241290303367452" cy="7.058776938424169"></circle><circle class="pearl" r="2.1904339371426507" cx="25.01211241124191" cy="22.105961611816344"></circle><circle class="pearl" r="2.1904339371426507" cx="5.8781288996547145" cy="21.611044274002957"></circle><circle class="pearl" r="2.1904339371426507" cx="23.848014921203042" cy="7.045920184662546"></circle><circle class="pearl" r="2.1904339371426507" cx="19.467965966104938" cy="25.95869066427807"></circle></g><text id="3" class="legendSampleValue" text-anchor="middle" transform="translate(45,8)" x="0" y="199.377631998948" style="fill: black; font-size: 0.7rem;"> 910</text><g class="bright" cupRadius="17.915815825398536" width="35.83163165079707" height="35.83163165079707" pearlRadius="2.7380424214283132" pearlCount="16" transform="translate(27.084184174601464,219.377631998948)"><circle class="pool" r="17.915815825398536" cx="17.915815825398536" cy="17.915815825398536" style="stroke-width: 1; fill: rgb(127, 205, 187);"></circle><circle class="pearl" r="2.1904339371426507" cx="18.643514278362627" cy="18.70396701063138"></circle><circle class="pearl" r="2.1904339371426507" cx="13.492409287681708" cy="23.492538415828896"></circle><circle class="pearl" r="2.1904339371426507" cx="16.39907030383136" cy="11.285198258914596"></circle><circle class="pearl" r="2.1904339371426507" cx="20.619688450826555" cy="26.12064854787582"></circle><circle class="pearl" r="2.1904339371426507" cx="11.016702689111172" cy="16.631109233861338"></circle><circle class="pearl" r="2.1904339371426507" cx="23.277173382740294" cy="13.444699139167662"></circle><circle class="pearl" r="2.1904339371426507" cx="14.981454820901666" cy="30.938971123763434"></circle><circle class="pearl" r="2.1904339371426507" cx="11.38293805046022" cy="5.884274079832635"></circle><circle class="pearl" r="2.1904339371426507" cx="26.254378395916785" cy="20.67127067919474"></circle><circle class="pearl" r="2.1904339371426507" cx="5.029805289448521" cy="21.581798035107994"></circle><circle class="pearl" r="2.1904339371426507" cx="27.653267013917844" cy="7.527971933369183"></circle><circle class="pearl" r="2.1904339371426507" cx="27.916188103442632" cy="28.13011903441335"></circle><circle class="pearl" r="2.1904339371426507" cx="6.158777782478416" cy="10.721246571624274"></circle><circle class="pearl" r="2.1904339371426507" cx="30.893960472129034" cy="14.722154270887696"></circle><circle class="pearl" r="2.1904339371426507" cx="8.230807980954658" cy="28.33748722219011"></circle><circle class="pearl" r="2.1904339371426507" cx="20.633099325057355" cy="4.8579866830929275"></circle></g><text id="4" class="legendSampleValue" text-anchor="middle" transform="translate(45,8)" x="0" y="260.2092636497451" style="fill: black; font-size: 0.7rem;">1.2k</text><g class="bright" cupRadius="20" width="40" height="40" pearlRadius="2.7380424214283137" pearlCount="20" transform="translate(25,280.2092636497451)"><circle class="pool" r="20" cx="20" cy="20" style="stroke-width: 1; fill: rgb(127, 205, 187);"></circle><circle class="pearl" r="2.190433937142651" cx="20.803317911356498" cy="19.852362298934615"></circle><circle class="pearl" r="2.190433937142651" cx="12.399118369231148" cy="22.318129073543428"></circle><circle class="pearl" r="2.190433937142651" cx="20.14107886386132" cy="11.690576671380018"></circle><circle class="pearl" r="2.190433937142651" cx="25.351645945468196" cy="26.426489948513225"></circle><circle class="pearl" r="2.190433937142651" cx="5.45555413244983" cy="14.383463400696877"></circle><circle class="pearl" r="2.190433937142651" cx="27.007002384921414" cy="14.812215198670392"></circle><circle class="pearl" r="2.190433937142651" cx="17.669394065840073" cy="27.98572181627974"></circle><circle class="pearl" r="2.190433937142651" cx="13.075316060454844" cy="14.529673081448232"></circle><circle class="pearl" r="2.190433937142651" cx="31.363412690087696" cy="21.539471699750266"></circle><circle class="pearl" r="2.190433937142651" cx="6.986823167406808" cy="29.380119115938808"></circle><circle class="pearl" r="2.190433937142651" cx="24.195863946736896" cy="5.095807587217031"></circle><circle class="pearl" r="2.190433937142651" cx="27.929986347293504" cy="33.70997709935047"></circle><circle class="pearl" r="2.190433937142651" cx="8.960309851298339" cy="7.973635910317352"></circle><circle class="pearl" r="2.190433937142651" cx="34.68553340637696" cy="14.890285786129768"></circle><circle class="pearl" r="2.190433937142651" cx="12.548559824642552" cy="33.90934248556552"></circle><circle class="pearl" r="2.190433937142651" cx="16.437930987710008" cy="4.970487855189916"></circle><circle class="pearl" r="2.190433937142651" cx="33.26719371328966" cy="28.885282914155283"></circle><circle class="pearl" r="2.190433937142651" cx="4.745924110358729" cy="21.949095191008542"></circle><circle class="pearl" r="2.190433937142651" cx="31.34694409707199" cy="8.181149473979769"></circle><circle class="pearl" r="2.190433937142651" cx="20.521343379892976" cy="35.34248064375117"></circle></g><text id="5" class="legendSampleValue" text-anchor="middle" transform="translate(45,8)" x="0" y="325.2092636497451" style="fill: black; font-size: 0.7rem;">1.5k</text><text id="coloringDisclaimer" transform="translate(45,8)" text-anchor="middle" x="0" y="340.2092636497451" style="font-size: 0.7rem; opacity: 0.6;">(note: coloring</text><text id="coloringDisclaimer" transform="translate(45,8)" text-anchor="middle" x="0" y="355.2092636497451" style="font-size: 0.7rem; opacity: 0.6;">is random)</text></g></svg>