<?xml version="1.0" standalone="no"?>
<?xml-stylesheet xmlns="http://www.w3.org/2000/svg" type="text/css" href="style.css"?>
<svg id="syntheticVisB" class="default" xTitle="Percent Cat Owners" yTitle="Percent Dog Owners" rTitle="Population" chartTitle="Towns in Vizzyland" width="500" height="400" xmlns="http://www.w3.org/2000/svg"><text id="chartTitle" text-anchor="middle" transform="translate(250,20)" x="0" y="0" style="fill: black; font-size: 1.2rem;">Towns in Vizzyland</text><g id="yAxis" transform="translate(50,30)" fill="none" font-size="10" font-family="sans-serif" text-anchor="end"><path class="domain" stroke="currentColor" d="M-6,300H0V20H-6"></path><g class="tick" opacity="1" transform="translate(0,300)"><line stroke="currentColor" x2="-6"></line><text fill="currentColor" x="-9" dy="0.32em">0</text></g><g class="tick" opacity="1" transform="translate(0,272)"><line stroke="currentColor" x2="-6"></line><text fill="currentColor" x="-9" dy="0.32em">10</text></g><g class="tick" opacity="1" transform="translate(0,244)"><line stroke="currentColor" x2="-6"></line><text fill="currentColor" x="-9" dy="0.32em">20</text></g><g class="tick" opacity="1" transform="translate(0,216)"><line stroke="currentColor" x2="-6"></line><text fill="currentColor" x="-9" dy="0.32em">30</text></g><g class="tick" opacity="1" transform="translate(0,188)"><line stroke="currentColor" x2="-6"></line><text fill="currentColor" x="-9" dy="0.32em">40</text></g><g class="tick" opacity="1" transform="translate(0,160)"><line stroke="currentColor" x2="-6"></line><text fill="currentColor" x="-9" dy="0.32em">50</text></g><g class="tick" opacity="1" transform="translate(0,132)"><line stroke="currentColor" x2="-6"></line><text fill="currentColor" x="-9" dy="0.32em">60</text></g><g class="tick" opacity="1" transform="translate(0,104.00000000000001)"><line stroke="currentColor" x2="-6"></line><text fill="currentColor" x="-9" dy="0.32em">70</text></g><g class="tick" opacity="1" transform="translate(0,75.99999999999999)"><line stroke="currentColor" x2="-6"></line><text fill="currentColor" x="-9" dy="0.32em">80</text></g><g class="tick" opacity="1" transform="translate(0,47.99999999999999)"><line stroke="currentColor" x2="-6"></line><text fill="currentColor" x="-9" dy="0.32em">90</text></g><g class="tick" opacity="1" transform="translate(0,20)"><line stroke="currentColor" x2="-6"></line><text fill="currentColor" x="-9" dy="0.32em">100</text></g></g><g id="xAxis" transform="translate(60,360)" fill="none" font-size="10" font-family="sans-serif" text-anchor="middle"><path class="domain" stroke="currentColor" d="M20,6V0H320V6"></path><g class="tick" opacity="1" transform="translate(20,0)"><line stroke="currentColor" y2="6"></line><text fill="currentColor" y="9" dy="0.71em">0</text></g><g class="tick" opacity="1" transform="translate(50,0)"><line stroke="currentColor" y2="6"></line><text fill="currentColor" y="9" dy="0.71em">10</text></g><g class="tick" opacity="1" transform="translate(80,0)"><line stroke="currentColor" y2="6"></line><text fill="currentColor" y="9" dy="0.71em">20</text></g><g class="tick" opacity="1" transform="translate(110,0)"><line stroke="currentColor" y2="6"></line><text fill="currentColor" y="9" dy="0.71em">30</text></g><g class="tick" opacity="1" transform="translate(140,0)"><line stroke="currentColor" y2="6"></line><text fill="currentColor" y="9" dy="0.71em">40</text></g><g class="tick" opacity="1" transform="translate(170,0)"><line stroke="currentColor" y2="6"></line><text fill="currentColor" y="9" dy="0.71em">50</text></g><g class="tick" opacity="1" transform="translate(200,0)"><line stroke="currentColor" y2="6"></line><text fill="currentColor" y="9" dy="0.71em">60</text></g><g class="tick" opacity="1" transform="translate(230,0)"><line stroke="currentColor" y2="6"></line><text fill="currentColor" y="9" dy="0.71em">70</text></g><g class="tick" opacity="1" transform="translate(260,0)"><line stroke="currentColor" y2="6"></line><text fill="currentColor" y="9" dy="0.71em">80</text></g><g class="tick" opacity="1" transform="translate(290,0)"><line stroke="currentColor" y2="6"></line><text fill="currentColor" y="9" dy="0.71em">90</text></g><g class="tick" opacity="1" transform="translate(320,0)"><line stroke="currentColor" y2="6"></line><text fill="currentColor" y="9" dy="0.71em">100</text></g></g><g id="labels"><text id="xTitle" text-anchor="middle" transform="translate(250,350)" x="0" y="40" style="fill: black; font-size: 0.8rem;">Percent Cat Owners</text><g id="group-yTitle" transform="translate(60,190)"><text id="yTitle" text-anchor="middle" transform="rotate(-90)" y="-45" style="fill: black; font-size: 0.8rem;">Percent Dog Owners</text></g></g><g id="quadrant_lines" transform="translate(60,30)"><line id="verticalQuadrantLine" x1="170" y1="10" x2="170" y2="310" class="quadrantLine"></line><line id="horizontalQuadrantLine" x1="10" y1="160" x2="330" y2="160" class="quadrantLine"></line></g><g id="chart" transform="translate(60,30)"><g class="bobaCup bright" cupRadius="20" width="40" height="40" pearlRadius="2.7380424214283137" pearlCount="20" transform="translate(136.95493535125257,241.67957461570364)"><circle class="pool" r="20" cx="20" cy="20" style="stroke-width: 1; fill: rgb(65, 182, 196);"></circle><circle class="pearl" r="2.190433937142651" cx="20.803317911356498" cy="19.852362298934615"></circle><circle class="pearl" r="2.190433937142651" cx="12.399118369231148" cy="22.318129073543428"></circle><circle class="pearl" r="2.190433937142651" cx="20.14107886386132" cy="11.690576671380018"></circle><circle class="pearl" r="2.190433937142651" cx="25.351645945468196" cy="26.426489948513225"></circle><circle class="pearl" r="2.190433937142651" cx="5.45555413244983" cy="14.383463400696877"></circle><circle class="pearl" r="2.190433937142651" cx="27.007002384921414" cy="14.812215198670392"></circle><circle class="pearl" r="2.190433937142651" cx="17.669394065840073" cy="27.98572181627974"></circle><circle class="pearl" r="2.190433937142651" cx="13.075316060454844" cy="14.529673081448232"></circle><circle class="pearl" r="2.190433937142651" cx="31.363412690087696" cy="21.539471699750266"></circle><circle class="pearl" r="2.190433937142651" cx="6.986823167406808" cy="29.380119115938808"></circle><circle class="pearl" r="2.190433937142651" cx="24.195863946736896" cy="5.095807587217031"></circle><circle class="pearl" r="2.190433937142651" cx="27.929986347293504" cy="33.70997709935047"></circle><circle class="pearl" r="2.190433937142651" cx="8.960309851298339" cy="7.973635910317352"></circle><circle class="pearl" r="2.190433937142651" cx="34.68553340637696" cy="14.890285786129768"></circle><circle class="pearl" r="2.190433937142651" cx="12.548559824642552" cy="33.90934248556552"></circle><circle class="pearl" r="2.190433937142651" cx="16.437930987710008" cy="4.970487855189916"></circle><circle class="pearl" r="2.190433937142651" cx="33.26719371328966" cy="28.885282914155283"></circle><circle class="pearl" r="2.190433937142651" cx="4.745924110358729" cy="21.949095191008542"></circle><circle class="pearl" r="2.190433937142651" cx="31.34694409707199" cy="8.181149473979769"></circle><circle class="pearl" r="2.190433937142651" cx="20.521343379892976" cy="35.34248064375117"></circle></g><g class="bobaCup bright" cupRadius="18.143841646078357" width="36.287683292156714" height="36.287683292156714" pearlRadius="2.738042421428314" pearlCount="16" transform="translate(236.78833088555186,173.29705964131898)"><circle class="pool" r="18.143841646078357" cx="18.143841646078357" cy="18.143841646078357" style="stroke-width: 1; fill: rgb(127, 205, 187);"></circle><circle class="pearl" r="2.1904339371426516" cx="18.859330998583562" cy="18.918227587694798"></circle><circle class="pearl" r="2.1904339371426516" cx="13.655708027069746" cy="23.819305818682356"></circle><circle class="pearl" r="2.1904339371426516" cx="16.686568997202613" cy="11.38780515367871"></circle><circle class="pearl" r="2.1904339371426516" cx="20.858465433162575" cy="26.48792860219092"></circle><circle class="pearl" r="2.1904339371426516" cx="11.17533964716313" cy="16.831209946686922"></circle><circle class="pearl" r="2.1904339371426516" cx="23.72515169452923" cy="13.650689137018967"></circle><circle class="pearl" r="2.1904339371426516" cx="15.069948630230837" cy="31.374677952544793"></circle><circle class="pearl" r="2.1904339371426516" cx="11.498056579112799" cy="5.911658415106849"></circle><circle class="pearl" r="2.1904339371426516" cx="26.48934205664172" cy="20.972562310748174"></circle><circle class="pearl" r="2.1904339371426516" cx="5.012598132540305" cy="21.749482845711515"></circle><circle class="pearl" r="2.1904339371426516" cx="28.09992428604404" cy="7.626328057400663"></circle><circle class="pearl" r="2.1904339371426516" cx="28.344168435342542" cy="28.49819499412583"></circle><circle class="pearl" r="2.1904339371426516" cx="6.136302248923048" cy="10.9534817127861"></circle><circle class="pearl" r="2.1904339371426516" cx="31.38177880202833" cy="15.111545597663197"></circle><circle class="pearl" r="2.1904339371426516" cx="8.199446839967349" cy="28.66902042095207"></circle><circle class="pearl" r="2.1904339371426516" cx="20.976181049057935" cy="4.873157474997576"></circle></g><g class="bobaCup bright" cupRadius="18.09328793597565" width="36.1865758719513" height="36.1865758719513" pearlRadius="2.7380424214283132" pearlCount="16" transform="translate(97.39794420190377,160.53243884032096)"><circle class="pool" r="18.09328793597565" cx="18.09328793597565" cy="18.09328793597565" style="stroke-width: 1; fill: rgb(65, 182, 196);"></circle><circle class="pearl" r="2.1904339371426507" cx="18.811944169883038" cy="18.870820870467995"></circle><circle class="pearl" r="2.1904339371426507" cx="13.619479687440753" cy="23.746476529723893"></circle><circle class="pearl" r="2.1904339371426507" cx="16.62462588813422" cy="11.364424501873705"></circle><circle class="pearl" r="2.1904339371426507" cx="20.80480072769967" cy="26.407646025160325"></circle><circle class="pearl" r="2.1904339371426507" cx="11.142201811265133" cy="16.7863720432876"></circle><circle class="pearl" r="2.1904339371426507" cx="23.627605480137518" cy="13.60585191617702"></circle><circle class="pearl" r="2.1904339371426507" cx="15.048646339749192" cy="31.277845077632833"></circle><circle class="pearl" r="2.1904339371426507" cx="11.47146150314321" cy="5.906004066687333"></circle><circle class="pearl" r="2.1904339371426507" cx="26.43677066438668" cy="20.90725026384156"></circle><circle class="pearl" r="2.1904339371426507" cx="5.015942663749487" cy="21.710283314070907"></circle><circle class="pearl" r="2.1904339371426507" cx="28.000944020695247" cy="7.604479492759766"></circle><circle class="pearl" r="2.1904339371426507" cx="28.248666752150452" cy="28.4170546631296"></circle><circle class="pearl" r="2.1904339371426507" cx="6.140702771535895" cy="10.903210138017007"></circle><circle class="pearl" r="2.1904339371426507" cx="31.274392639453367" cy="15.028490889526081"></circle><circle class="pearl" r="2.1904339371426507" cx="8.205623289050386" cy="28.595160398046684"></circle><circle class="pearl" r="2.1904339371426507" cx="20.900493263307634" cy="4.869821208514575"></circle></g><g class="bobaCup bright" cupRadius="17.992453416180318" width="35.984906832360636" height="35.984906832360636" pearlRadius="2.738042421428314" pearlCount="16" transform="translate(103.58366593619294,204.0897507039555)"><circle class="pool" r="17.992453416180318" cx="17.992453416180318" cy="17.992453416180318" style="stroke-width: 1; fill: rgb(127, 205, 187);"></circle><circle class="pearl" r="2.1904339371426516" cx="18.716684280917633" cy="18.77614521036062"></circle><circle class="pearl" r="2.1904339371426516" cx="13.547227697687617" cy="23.601818311613357"></circle><circle class="pearl" r="2.1904339371426516" cx="16.49823514753987" cy="11.318874004644922"></circle><circle class="pearl" r="2.1904339371426516" cx="20.69894313206552" cy="26.245655782450736"></circle><circle class="pearl" r="2.1904339371426516" cx="11.072765618020966" cy="16.697648157269963"></circle><circle class="pearl" r="2.1904339371426516" cx="23.430220367467047" cy="13.515109540916223"></circle><circle class="pearl" r="2.1904339371426516" cx="15.00887521124637" cy="31.085085029026963"></circle><circle class="pearl" r="2.1904339371426516" cx="11.420407971182946" cy="5.8939498386475435"></circle><circle class="pearl" r="2.1904339371426516" cx="26.332697972163174" cy="20.774606175168326"></circle><circle class="pearl" r="2.1904339371426516" cx="5.023370801616558" cy="21.635367357471"></circle><circle class="pearl" r="2.1904339371426516" cx="27.80343652632315" cy="7.560968903644305"></circle><circle class="pearl" r="2.1904339371426516" cx="28.059166052663226" cy="28.25446557143115"></circle><circle class="pearl" r="2.1904339371426516" cx="6.150528273141845" cy="10.800726945862959"></circle><circle class="pearl" r="2.1904339371426516" cx="31.058984234018794" cy="14.857602703881122"></circle><circle class="pearl" r="2.1904339371426516" cx="8.219202540591686" cy="28.448415702844695"></circle><circle class="pearl" r="2.1904339371426516" cx="20.748880779721986" cy="4.86311792373089"></circle></g><g class="bobaCup bright" cupRadius="17.801507540868972" width="35.603015081737944" height="35.603015081737944" pearlRadius="2.7380424214283137" pearlCount="15" transform="translate(302.19849245913105,99.11448994249757)"><circle class="pool" r="17.801507540868972" cx="17.801507540868972" cy="17.801507540868972" style="stroke-width: 1; fill: rgb(127, 205, 187);"></circle><circle class="pearl" r="2.190433937142651" cx="23.70142842355145" cy="17.82298602680904"></circle><circle class="pearl" r="2.190433937142651" cx="13.170075533497135" cy="22.539023565042548"></circle><circle class="pearl" r="2.190433937142651" cx="17.66785364035665" cy="11.835847146686222"></circle><circle class="pearl" r="2.190433937142651" cx="20.441705800535175" cy="24.955794382918796"></circle><circle class="pearl" r="2.190433937142651" cx="10.615543689921369" cy="15.324153768812362"></circle><circle class="pearl" r="2.190433937142651" cx="25.278711639823193" cy="10.148729674109838"></circle><circle class="pearl" r="2.190433937142651" cx="15.150767876636985" cy="30.753830922475398"></circle><circle class="pearl" r="2.190433937142651" cx="13.449593335857118" cy="5.190871799769365"></circle><circle class="pearl" r="2.190433937142651" cx="30.48164107841772" cy="21.867841821256306"></circle><circle class="pearl" r="2.190433937142651" cx="4.889266522489137" cy="20.705979539001945"></circle><circle class="pearl" r="2.190433937142651" cx="21.094207140216227" cy="4.957894540932465"></circle><circle class="pearl" r="2.190433937142651" cx="27.41140544778298" cy="28.135561018885962"></circle><circle class="pearl" r="2.190433937142651" cx="7.350595978702959" cy="8.376312721937442"></circle><circle class="pearl" r="2.190433937142651" cx="30.581151496902844" cy="14.185436394242888"></circle><circle class="pearl" r="2.190433937142651" cx="7.890384668019459" cy="27.93805296228508"></circle></g><g class="bobaCup bright" cupRadius="17.006458938714623" width="34.012917877429246" height="34.012917877429246" pearlRadius="2.7380424214283132" pearlCount="14" transform="translate(25.664342455851106,110.8044663154424)"><circle class="pool" r="17.006458938714623" cx="17.006458938714623" cy="17.006458938714623" style="stroke-width: 1; fill: rgb(65, 182, 196);"></circle><circle class="pearl" r="2.1904339371426507" cx="21.096927629513356" cy="12.925029667129783"></circle><circle class="pearl" r="2.1904339371426507" cx="12.9118584260206" cy="21.089002176042605"></circle><circle class="pearl" r="2.1904339371426507" cx="13.297884442003514" cy="13.294342027152123"></circle><circle class="pearl" r="2.1904339371426507" cx="20.71708760314677" cy="20.71446037346337"></circle><circle class="pearl" r="2.1904339371426507" cx="4.80096455858834" cy="19.262023959375146"></circle><circle class="pearl" r="2.1904339371426507" cx="26.366356973656398" cy="7.458169722411957"></circle><circle class="pearl" r="2.1904339371426507" cx="15.106749434029911" cy="29.25575788267329"></circle><circle class="pearl" r="2.1904339371426507" cx="10.968520498149465" cy="5.758661952431367"></circle><circle class="pearl" r="2.1904339371426507" cx="28.382099310465268" cy="22.696389991413707"></circle><circle class="pearl" r="2.1904339371426507" cx="7.648847185595055" cy="26.55625499332699"></circle><circle class="pearl" r="2.1904339371426507" cx="18.890349627312048" cy="4.755389318371647"></circle><circle class="pearl" r="2.1904339371426507" cx="23.029623908963462" cy="28.25985874083447"></circle><circle class="pearl" r="2.1904339371426507" cx="5.622838711564994" cy="11.339054278892556"></circle><circle class="pearl" r="2.1904339371426507" cx="29.212961025425667" cy="14.758437518888305"></circle></g><g class="bobaCup bright" cupRadius="16.791916053349677" width="33.583832106699354" height="33.583832106699354" pearlRadius="2.7380424214283132" pearlCount="14" transform="translate(174.11125019188404,196.72107723484996)"><circle class="pool" r="16.791916053349677" cx="16.791916053349677" cy="16.791916053349677" style="stroke-width: 1; fill: rgb(127, 205, 187);"></circle><circle class="pearl" r="2.1904339371426507" cx="20.948790792319134" cy="12.765822821928694"></circle><circle class="pearl" r="2.1904339371426507" cx="12.628822422436205" cy="20.817676925155734"></circle><circle class="pearl" r="2.1904339371426507" cx="13.243515743240527" cy="13.149881242026458"></circle><circle class="pearl" r="2.1904339371426507" cx="20.347107358428143" cy="20.424952749520155"></circle><circle class="pearl" r="2.1904339371426507" cx="4.8260348154145545" cy="19.212019511144103"></circle><circle class="pearl" r="2.1904339371426507" cx="25.88120371817328" cy="7.323386663994127"></circle><circle class="pearl" r="2.1904339371426507" cx="15.111609128994154" cy="28.848826211428705"></circle><circle class="pearl" r="2.1904339371426507" cx="10.622347686946616" cy="5.825185234765018"></circle><circle class="pearl" r="2.1904339371426507" cx="28.02206333956533" cy="22.2477749623868"></circle><circle class="pearl" r="2.1904339371426507" cx="7.695640878336747" cy="26.255944777370107"></circle><circle class="pearl" r="2.1904339371426507" cx="18.507665274153247" cy="4.738608350613954"></circle><circle class="pearl" r="2.1904339371426507" cx="22.980744762149836" cy="27.751024468837844"></circle><circle class="pearl" r="2.1904339371426507" cx="5.549904873507644" cy="11.370713440793645"></circle><circle class="pearl" r="2.1904339371426507" cx="28.753098374908515" cy="14.339766234047149"></circle></g><g class="bobaCup bright" cupRadius="16.530470712800877" width="33.060941425601754" height="33.060941425601754" pearlRadius="2.7380424214283137" pearlCount="13" transform="translate(193.24627746986442,118.03732547575311)"><circle class="pool" r="16.530470712800877" cx="16.530470712800877" cy="16.530470712800877" style="stroke-width: 1; fill: rgb(127, 205, 187);"></circle><circle class="pearl" r="2.190433937142651" cx="20.797309806268753" cy="15.211590571513323"></circle><circle class="pearl" r="2.190433937142651" cx="14.887725653386202" cy="20.59476818288763"></circle><circle class="pearl" r="2.190433937142651" cx="13.191826329380799" cy="12.751356602536355"></circle><circle class="pearl" r="2.190433937142651" cx="25.526200338095332" cy="25.74817603599323"></circle><circle class="pearl" r="2.190433937142651" cx="4.7986537422296855" cy="14.323926217383915"></circle><circle class="pearl" r="2.190433937142651" cx="27.46820965182908" cy="11.029897175787369"></circle><circle class="pearl" r="2.190433937142651" cx="10.662575787973584" cy="27.33368779529459"></circle><circle class="pearl" r="2.190433937142651" cx="14.719870005457581" cy="4.750180976087822"></circle><circle class="pearl" r="2.190433937142651" cx="28.252196054589984" cy="18.81068776336381"></circle><circle class="pearl" r="2.190433937142651" cx="5.55042229612382" cy="21.909637912365717"></circle><circle class="pearl" r="2.190433937142651" cx="22.523079375853186" cy="5.775185262993322"></circle><circle class="pearl" r="2.190433937142651" cx="18.4426634123853" cy="28.2992475090912"></circle><circle class="pearl" r="2.190433937142651" cx="7.520356968906846" cy="7.322106225766024"></circle></g><g class="bobaCup bright" cupRadius="15.962105511863564" width="31.92421102372713" height="31.92421102372713" pearlRadius="2.7380424214283137" pearlCount="12" transform="translate(174.7828455965677,225.09643916857902)"><circle class="pool" r="15.962105511863564" cx="15.962105511863564" cy="15.962105511863564" style="stroke-width: 1; fill: rgb(29, 145, 192);"></circle><circle class="pearl" r="2.190433937142651" cx="17.128698350010644" cy="11.724598813939453"></circle><circle class="pearl" r="2.190433937142651" cx="11.526164586615257" cy="17.69284285540227"></circle><circle class="pearl" r="2.190433937142651" cx="14.652696864444422" cy="4.704520805084355"></circle><circle class="pearl" r="2.190433937142651" cx="18.897677799608587" cy="19.090627787958194"></circle><circle class="pearl" r="2.190433937142651" cx="4.708854601525239" cy="14.601069523814063"></circle><circle class="pearl" r="2.190433937142651" cx="26.9381527980708" cy="12.707438762360619"></circle><circle class="pearl" r="2.190433937142651" cx="14.127130415437858" cy="27.1676642802602"></circle><circle class="pearl" r="2.190433937142651" cx="7.287310858931178" cy="7.213696302051899"></circle><circle class="pearl" r="2.190433937142651" cx="26.604346707355234" cy="20.53529384126966"></circle><circle class="pearl" r="2.190433937142651" cx="6.870825450767315" cy="24.08282949181987"></circle><circle class="pearl" r="2.190433937142651" cx="22.72457958160536" cy="6.153999021956913"></circle><circle class="pearl" r="2.190433937142651" cx="21.971993554140358" cy="26.09887896431201"></circle></g><g class="bobaCup bright" cupRadius="15.900321425358445" width="31.80064285071689" height="31.80064285071689" pearlRadius="2.7380424214283137" pearlCount="12" transform="translate(164.4746357234839,83.20150269542529)"><circle class="pool" r="15.900321425358445" cx="15.900321425358445" cy="15.900321425358445" style="stroke-width: 1; fill: rgb(29, 145, 192);"></circle><circle class="pearl" r="2.190433937142651" cx="16.984183535603336" cy="11.701419851341349"></circle><circle class="pearl" r="2.190433937142651" cx="11.503422659405674" cy="17.52017865006708"></circle><circle class="pearl" r="2.190433937142651" cx="14.627252359919789" cy="4.70176969939814"></circle><circle class="pearl" r="2.190433937142651" cx="18.788427376091725" cy="19.018567542095614"></circle><circle class="pearl" r="2.190433937142651" cx="4.707576713139662" cy="14.55691343115992"></circle><circle class="pearl" r="2.190433937142651" cx="26.814036983128535" cy="12.649403601735198"></circle><circle class="pearl" r="2.190433937142651" cx="14.045245858307533" cy="27.04133388575593"></circle><circle class="pearl" r="2.190433937142651" cx="7.274876018855183" cy="7.193578091398123"></circle><circle class="pearl" r="2.190433937142651" cx="26.478782298469916" cy="20.47111709206376"></circle><circle class="pearl" r="2.190433937142651" cx="6.80056188600072" cy="23.88433326644471"></circle><circle class="pearl" r="2.190433937142651" cx="22.56978817272868" cy="6.1171112075180645"></circle><circle class="pearl" r="2.190433937142651" cx="21.893455027552463" cy="25.97721073432941"></circle></g><g class="bobaCup bright" cupRadius="15.460105388073407" width="30.920210776146813" height="30.920210776146813" pearlRadius="2.738042421428314" pearlCount="11" transform="translate(251.71903757043086,146.86655430929457)"><circle class="pool" r="15.460105388073407" cx="15.460105388073407" cy="15.460105388073407" style="stroke-width: 1; fill: rgb(29, 145, 192);"></circle><circle class="pearl" r="2.1904339371426516" cx="19.371156339946673" cy="15.765098988763613"></circle><circle class="pearl" r="2.1904339371426516" cx="11.895720480395118" cy="17.656700055924432"></circle><circle class="pearl" r="2.1904339371426516" cx="14.125124316345703" cy="10.207397016486174"></circle><circle class="pearl" r="2.1904339371426516" cx="22.03508635955494" cy="24.80168303659156"></circle><circle class="pearl" r="2.1904339371426516" cx="4.683627621759799" cy="14.451974407612479"></circle><circle class="pearl" r="2.1904339371426516" cx="25.565775506686496" cy="10.848845907897186"></circle><circle class="pearl" r="2.1904339371426516" cx="14.423258462797708" cy="26.234679792413093"></circle><circle class="pearl" r="2.1904339371426516" cx="7.211174508999747" cy="7.035278992915421"></circle><circle class="pearl" r="2.1904339371426516" cx="25.924266911613405" cy="18.70896942658538"></circle><circle class="pearl" r="2.1904339371426516" cx="7.139903968811659" cy="23.839697080994096"></circle><circle class="pearl" r="2.1904339371426516" cx="20.18012278233066" cy="5.388862225966738"></circle></g><g class="bobaCup bright" cupRadius="15.300290666609884" width="30.60058133321977" height="30.60058133321977" pearlRadius="2.7380424214283137" pearlCount="11" transform="translate(288.75264951554857,129.88846374585967)"><circle class="pool" r="15.300290666609884" cx="15.300290666609884" cy="15.300290666609884" style="stroke-width: 1; fill: rgb(29, 145, 192);"></circle><circle class="pearl" r="2.190433937142651" cx="19.215541477142466" cy="15.677785513159405"></circle><circle class="pearl" r="2.190433937142651" cx="11.865781891438766" cy="17.577571802049242"></circle><circle class="pearl" r="2.190433937142651" cx="13.965419935224991" cy="10.209424723761403"></circle><circle class="pearl" r="2.190433937142651" cx="21.8927998732889" cy="24.456729233375373"></circle><circle class="pearl" r="2.190433937142651" cx="4.680919656367932" cy="14.33950118887899"></circle><circle class="pearl" r="2.190433937142651" cx="25.227653689678295" cy="10.655046246505698"></circle><circle class="pearl" r="2.190433937142651" cx="14.339173924204498" cy="25.919641081941688"></circle><circle class="pearl" r="2.190433937142651" cx="7.197032523658843" cy="6.972720403683438"></circle><circle class="pearl" r="2.190433937142651" cx="25.619860200167565" cy="18.46086483895652"></circle><circle class="pearl" r="2.190433937142651" cx="7.1400194545131" cy="23.592089148577823"></circle><circle class="pearl" r="2.190433937142651" cx="19.8820822781522" cy="5.352860583506578"></circle></g><g class="bobaCup bright" cupRadius="15.243689847624955" width="30.48737969524991" height="30.48737969524991" pearlRadius="2.738042421428314" pearlCount="11" transform="translate(108.15719947431883,215.56411691494844)"><circle class="pool" r="15.243689847624955" cx="15.243689847624955" cy="15.243689847624955" style="stroke-width: 1; fill: rgb(29, 145, 192);"></circle><circle class="pearl" r="2.1904339371426516" cx="19.160907820481537" cy="15.649893150306669"></circle><circle class="pearl" r="2.1904339371426516" cx="11.855612125560649" cy="17.551442255244606"></circle><circle class="pearl" r="2.1904339371426516" cx="13.909411305542955" cy="10.212367629805483"></circle><circle class="pearl" r="2.1904339371426516" cx="21.8403229303969" cy="24.33540134299791"></circle><circle class="pearl" r="2.1904339371426516" cx="4.679981812932297" cy="14.299676338184044"></circle><circle class="pearl" r="2.1904339371426516" cx="25.108633992150292" cy="10.589070541579817"></circle><circle class="pearl" r="2.1904339371426516" cx="14.307497104681747" cy="25.807881121562406"></circle><circle class="pearl" r="2.1904339371426516" cx="7.191916933456813" cy="6.950726077923392"></circle><circle class="pearl" r="2.1904339371426516" cx="25.51154101976775" cy="18.375177995606453"></circle><circle class="pearl" r="2.1904339371426516" cx="7.140252606472297" cy="23.50437185044849"></circle><circle class="pearl" r="2.1904339371426516" cx="19.776938718083446" cy="5.340384944813618"></circle></g><g class="bobaCup bright" cupRadius="15.022700994523255" width="30.04540198904651" height="30.04540198904651" pearlRadius="2.738042421428314" pearlCount="11" transform="translate(52.898894106530385,36.56457347324612)"><circle class="pool" r="15.022700994523255" cx="15.022700994523255" cy="15.022700994523255" style="stroke-width: 1; fill: rgb(29, 145, 192);"></circle><circle class="pearl" r="2.1904339371426516" cx="18.951254930351308" cy="15.551257359836601"></circle><circle class="pearl" r="2.1904339371426516" cx="11.82101373678213" cy="17.4685563039741"></circle><circle class="pearl" r="2.1904339371426516" cx="13.683748908029969" cy="10.245889122756127"></circle><circle class="pearl" r="2.1904339371426516" cx="21.63878369273624" cy="23.859342034083166"></circle><circle class="pearl" r="2.1904339371426516" cx="4.67635526264738" cy="14.145507876419646"></circle><circle class="pearl" r="2.1904339371426516" cx="24.64085606280528" cy="10.32369500171538"></circle><circle class="pearl" r="2.1904339371426516" cx="14.182537060776834" cy="25.371166735202532"></circle><circle class="pearl" r="2.1904339371426516" cx="7.171852761178117" cy="6.865390525924758"></circle><circle class="pearl" r="2.1904339371426516" cx="25.09088599264867" cy="18.02857620566163"></circle><circle class="pearl" r="2.1904339371426516" cx="7.144714601479073" cy="23.16333717618925"></circle><circle class="pearl" r="2.1904339371426516" cx="19.342309649179807" cy="5.28514683344598"></circle></g><g class="bobaCup bright" cupRadius="14.667759917642307" width="29.335519835284614" height="29.335519835284614" pearlRadius="2.7380424214283137" pearlCount="10" transform="translate(162.2361323937835,217.45244509395772)"><circle class="pool" r="14.667759917642307" cx="14.667759917642307" cy="14.667759917642307" style="stroke-width: 1; fill: rgb(65, 182, 196);"></circle><circle class="pearl" r="2.190433937142651" cx="17.427462985448766" cy="11.973870369397863"></circle><circle class="pearl" r="2.190433937142651" cx="12.225589282669624" cy="17.054012312485497"></circle><circle class="pearl" r="2.190433937142651" cx="14.539711977165306" cy="4.651282161481033"></circle><circle class="pearl" r="2.190433937142651" cx="22.429107871005034" cy="22.463106709299556"></circle><circle class="pearl" r="2.190433937142651" cx="4.651922156255422" cy="14.480223975920914"></circle><circle class="pearl" r="2.190433937142651" cx="22.250105276492235" cy="6.762559450175683"></circle><circle class="pearl" r="2.190433937142651" cx="14.776961711039329" cy="24.68439009621026"></circle><circle class="pearl" r="2.190433937142651" cx="6.902061715854668" cy="6.8751269895992735"></circle><circle class="pearl" r="2.190433937142651" cx="24.683233660310503" cy="14.881879983040424"></circle><circle class="pearl" r="2.190433937142651" cx="7.083274565464031" cy="22.571667824400823"></circle></g><g class="bobaCup bright" cupRadius="14.327722802440768" width="28.655445604881535" height="28.655445604881535" pearlRadius="2.7380424214283137" pearlCount="10" transform="translate(225.58986091946576,68.83444213853679)"><circle class="pool" r="14.327722802440768" cx="14.327722802440768" cy="14.327722802440768" style="stroke-width: 1; fill: rgb(127, 205, 187);"></circle><circle class="pearl" r="2.190433937142651" cx="17.05631581814231" cy="11.722716962746912"></circle><circle class="pearl" r="2.190433937142651" cx="12.09852269055672" cy="16.475644268354348"></circle><circle class="pearl" r="2.190433937142651" cx="14.385572578174793" cy="4.650840016501661"></circle><circle class="pearl" r="2.190433937142651" cx="21.823309163169395" cy="21.88764352955196"></circle><circle class="pearl" r="2.190433937142651" cx="4.6508036421708425" cy="14.279719874744716"></circle><circle class="pearl" r="2.190433937142651" cx="21.60122749783697" cy="6.6342259199788955"></circle><circle class="pearl" r="2.190433937142651" cx="14.293757530494572" cy="24.004682117249917"></circle><circle class="pearl" r="2.190433937142651" cx="6.8334707308813964" cy="6.766983113264889"></circle><circle class="pearl" r="2.190433937142651" cx="24.00445466792058" cy="14.415308369380606"></circle><circle class="pearl" r="2.190433937142651" cx="7.051494566470094" cy="22.019614505951306"></circle></g><g class="bobaCup bright" cupRadius="14.187856312928766" width="28.37571262585753" height="28.37571262585753" pearlRadius="2.7380424214283132" pearlCount="10" transform="translate(205.2041778795083,205.4479556826581)"><circle class="pool" r="14.187856312928766" cx="14.187856312928766" cy="14.187856312928766" style="stroke-width: 1; fill: rgb(127, 205, 187);"></circle><circle class="pearl" r="2.1904339371426507" cx="16.882762840778547" cy="11.596870137374584"></circle><circle class="pearl" r="2.1904339371426507" cx="12.065027212915641" cy="16.266411088661382"></circle><circle class="pearl" r="2.1904339371426507" cx="14.258555670082783" cy="4.6508993802750895"></circle><circle class="pearl" r="2.1904339371426507" cx="21.581943042532433" cy="21.645921140617133"></circle><circle class="pearl" r="2.1904339371426507" cx="4.650814080617491" cy="14.238630157634452"></circle><circle class="pearl" r="2.1904339371426507" cx="21.340218160177724" cy="6.58545803054069"></circle><circle class="pearl" r="2.1904339371426507" cx="14.172084594040829" cy="23.72498063108569"></circle><circle class="pearl" r="2.1904339371426507" cx="6.797115757241175" cy="6.727748818761325"></circle><circle class="pearl" r="2.1904339371426507" cx="23.724985212112564" cy="14.19875389403075"></circle><circle class="pearl" r="2.1904339371426507" cx="7.0303621114648545" cy="21.787257308720594"></circle></g><g class="bobaCup bright" cupRadius="13.919744980457269" width="27.839489960914538" height="27.839489960914538" pearlRadius="2.7380424214283137" pearlCount="9" transform="translate(227.67577276613585,248.70565224422802)"><circle class="pool" r="13.919744980457269" cx="13.919744980457269" cy="13.919744980457269" style="stroke-width: 1; fill: rgb(127, 205, 187);"></circle><circle class="pearl" r="2.190433937142651" cx="15.797104662447314" cy="12.067313731127939"></circle><circle class="pearl" r="2.190433937142651" cx="10.413079870951583" cy="17.414842876043537"></circle><circle class="pearl" r="2.190433937142651" cx="13.986799889313927" cy="4.650884739679727"></circle><circle class="pearl" r="2.190433937142651" cx="21.083687254989133" cy="21.20372876161795"></circle><circle class="pearl" r="2.190433937142651" cx="4.651239111802038" cy="13.79990483737642"></circle><circle class="pearl" r="2.190433937142651" cx="21.009781772808278" cy="6.591708732184587"></circle><circle class="pearl" r="2.190433937142651" cx="14.001367362332747" cy="23.18852742226623"></circle><circle class="pearl" r="2.190433937142651" cx="6.825987069577563" cy="6.593911983518579"></circle><circle class="pearl" r="2.190433937142651" cx="23.1885618661733" cy="13.995265359940232"></circle></g><g class="bobaCup bright" cupRadius="13.5601076305565" width="27.120215261113" height="27.120215261113" pearlRadius="2.7380424214283132" pearlCount="9" transform="translate(183.43201892335736,222.65243407739914)"><circle class="pool" r="13.5601076305565" cx="13.5601076305565" cy="13.5601076305565" style="stroke-width: 1; fill: rgb(65, 182, 196);"></circle><circle class="pearl" r="2.1904339371426507" cx="15.180858552407104" cy="11.987800390496838"></circle><circle class="pearl" r="2.1904339371426507" cx="9.775005000771113" cy="17.329074627979086"></circle><circle class="pearl" r="2.1904339371426507" cx="13.615252236800806" cy="4.65083535674342"></circle><circle class="pearl" r="2.1904339371426507" cx="20.40155156089116" cy="20.617123889194875"></circle><circle class="pearl" r="2.1904339371426507" cx="4.650770208525496" cy="13.524413033353387"></circle><circle class="pearl" r="2.1904339371426507" cx="20.33746684987879" cy="6.465877859453905"></circle><circle class="pearl" r="2.1904339371426507" cx="13.540322608196966" cy="22.46947759875832"></circle><circle class="pearl" r="2.1904339371426507" cx="6.786302698152585" cy="6.4638275948896355"></circle><circle class="pearl" r="2.1904339371426507" cx="22.467716197883096" cy="13.779556632893277"></circle></g><g class="bobaCup bright" cupRadius="13.490755851692244" width="26.981511703384488" height="26.981511703384488" pearlRadius="2.738042421428314" pearlCount="9" transform="translate(136.3423796630789,244.38236697721914)"><circle class="pool" r="13.490755851692244" cx="13.490755851692244" cy="13.490755851692244" style="stroke-width: 1; fill: rgb(65, 182, 196);"></circle><circle class="pearl" r="2.1904339371426516" cx="15.04990857552428" cy="11.984655448363053"></circle><circle class="pearl" r="2.1904339371426516" cx="9.62277521127149" cy="17.340453910857043"></circle><circle class="pearl" r="2.1904339371426516" cx="13.544104904478788" cy="4.650828713118855"></circle><circle class="pearl" r="2.1904339371426516" cx="20.269427254681894" cy="20.50408455460101"></circle><circle class="pearl" r="2.1904339371426516" cx="4.650749690525846" cy="13.464035394326086"></circle><circle class="pearl" r="2.1904339371426516" cx="20.209763116811896" cy="6.442956317912612"></circle><circle class="pearl" r="2.1904339371426516" cx="13.45572478596779" cy="22.330742992645913"></circle><circle class="pearl" r="2.1904339371426516" cx="6.7818241149391" cy="6.437175239301451"></circle><circle class="pearl" r="2.1904339371426516" cx="22.32838187189194" cy="13.745565571195398"></circle></g><g class="bobaCup bright" cupRadius="13.481795800490657" width="26.963591600981314" height="26.963591600981314" pearlRadius="2.7380424214283132" pearlCount="9" transform="translate(178.07376348872435,158.6142928218838)"><circle class="pool" r="13.481795800490657" cx="13.481795800490657" cy="13.481795800490657" style="stroke-width: 1; fill: rgb(29, 145, 192);"></circle><circle class="pearl" r="2.1904339371426507" cx="15.032590546758733" cy="11.984643928196421"></circle><circle class="pearl" r="2.1904339371426507" cx="9.602132687217182" cy="17.342832937439898"></circle><circle class="pearl" r="2.1904339371426507" cx="13.534930247717108" cy="4.650827935706817"></circle><circle class="pearl" r="2.1904339371426507" cx="20.25232472058839" cy="20.489492539833222"></circle><circle class="pearl" r="2.1904339371426507" cx="4.650747872911572" cy="13.456017916076316"></circle><circle class="pearl" r="2.1904339371426507" cx="20.193328241677374" cy="6.440036388620244"></circle><circle class="pearl" r="2.1904339371426507" cx="13.444873293896984" cy="22.31281781260093"></circle><circle class="pearl" r="2.1904339371426507" cx="6.781352016907948" cy="6.433678440816453"></circle><circle class="pearl" r="2.1904339371426507" cx="22.31036805068577" cy="13.741432859171988"></circle></g><g class="bobaCup bright" cupRadius="13.452859185765638" width="26.905718371531275" height="26.905718371531275" pearlRadius="2.7380424214283137" pearlCount="9" transform="translate(183.61781878104455,236.35605643674876)"><circle class="pool" r="13.452859185765638" cx="13.452859185765638" cy="13.452859185765638" style="stroke-width: 1; fill: rgb(29, 145, 192);"></circle><circle class="pearl" r="2.190433937142651" cx="14.97598117161231" cy="11.985275318904321"></circle><circle class="pearl" r="2.190433937142651" cx="9.533800069799515" cy="17.352056779716424"></circle><circle class="pearl" r="2.190433937142651" cx="13.505329529922662" cy="4.650825554309"></circle><circle class="pearl" r="2.190433937142651" cx="20.197029833827575" cy="20.442392936396462"></circle><circle class="pearl" r="2.190433937142651" cx="4.650743041016824" cy="13.429770927000359"></circle><circle class="pearl" r="2.190433937142651" cx="20.14036103435087" cy="6.430676208202451"></circle><circle class="pearl" r="2.190433937142651" cx="13.409925742608333" cy="22.25492663390909"></circle><circle class="pearl" r="2.190433937142651" cx="6.780009109641409" cy="6.422294294715334"></circle><circle class="pearl" r="2.190433937142651" cx="22.252170347398998" cy="13.728531408444294"></circle></g><g class="bobaCup bright" cupRadius="13.274196040776783" width="26.548392081553565" height="26.548392081553565" pearlRadius="2.7380424214283137" pearlCount="8" transform="translate(188.93089370710305,248.05912789289644)"><circle class="pool" r="13.274196040776783" cx="13.274196040776783" cy="13.274196040776783" style="stroke-width: 1; fill: rgb(127, 205, 187);"></circle><circle class="pearl" r="2.190433937142651" cx="14.292904361874767" cy="12.56006114710002"></circle><circle class="pearl" r="2.190433937142651" cx="8.548468859957179" cy="21.027979378024302"></circle><circle class="pearl" r="2.190433937142651" cx="13.863573109581813" cy="4.66381391573044"></circle><circle class="pearl" r="2.190433937142651" cx="21.671360609986635" cy="15.714873107800054"></circle><circle class="pearl" r="2.190433937142651" cx="4.689468590191652" cy="14.287668215331795"></circle><circle class="pearl" r="2.190433937142651" cx="20.714569907411565" cy="7.796089473423587"></circle><circle class="pearl" r="2.190433937142651" cx="16.43895608140869" cy="21.51488756832124"></circle><circle class="pearl" r="2.190433937142651" cx="6.526216669715456" cy="6.493862671784159"></circle></g><g class="bobaCup bright" cupRadius="13.241453236763983" width="26.482906473527965" height="26.482906473527965" pearlRadius="2.7380424214283132" pearlCount="8" transform="translate(14.98287667917384,103.68816918938666)"><circle class="pool" r="13.241453236763983" cx="13.241453236763983" cy="13.241453236763983" style="stroke-width: 1; fill: rgb(127, 205, 187);"></circle><circle class="pearl" r="2.1904339371426507" cx="14.283020280821122" cy="12.713349539684462"></circle><circle class="pearl" r="2.1904339371426507" cx="8.247089835104244" cy="20.854188657104675"></circle><circle class="pearl" r="2.1904339371426507" cx="13.987872509285586" cy="4.671777753835641"></circle><circle class="pearl" r="2.1904339371426507" cx="21.54815127103927" cy="15.969331173649008"></circle><circle class="pearl" r="2.1904339371426507" cx="4.6798939052529756" cy="14.119902651333755"></circle><circle class="pearl" r="2.1904339371426507" cx="20.770851719185462" cy="8.04715646753574"></circle><circle class="pearl" r="2.1904339371426507" cx="16.09166750544147" cy="21.521791930712432"></circle><circle class="pearl" r="2.1904339371426507" cx="6.559078022900892" cy="6.460556049901585"></circle></g><g class="bobaCup bright" cupRadius="13.081386735052398" width="26.162773470104796" height="26.162773470104796" pearlRadius="2.7380424214283137" pearlCount="8" transform="translate(265.7797493778066,245.98829938172352)"><circle class="pool" r="13.081386735052398" cx="13.081386735052398" cy="13.081386735052398" style="stroke-width: 1; fill: rgb(65, 182, 196);"></circle><circle class="pearl" r="2.190433937142651" cx="13.900640375935241" cy="12.939282980361506"></circle><circle class="pearl" r="2.190433937142651" cx="7.773227101123774" cy="20.386671210256665"></circle><circle class="pearl" r="2.190433937142651" cx="13.988475306794944" cy="4.682210759605894"></circle><circle class="pearl" r="2.190433937142651" cx="21.160980300336437" cy="16.09165470320656"></circle><circle class="pearl" r="2.190433937142651" cx="4.670875225492269" cy="13.807214557224636"></circle><circle class="pearl" r="2.190433937142651" cx="20.560656217950662" cy="8.183840846374547"></circle><circle class="pearl" r="2.190433937142651" cx="15.511736666033778" cy="21.284304162925057"></circle><circle class="pearl" r="2.190433937142651" cx="6.597082130596117" cy="6.370927247522491"></circle></g><g class="bobaCup bright" cupRadius="12.883515280107076" width="25.767030560214153" height="25.767030560214153" pearlRadius="2.738042421428314" pearlCount="8" transform="translate(135.3819566533933,9.854307182913132)"><circle class="pool" r="12.883515280107076" cx="12.883515280107076" cy="12.883515280107076" style="stroke-width: 1; fill: rgb(29, 145, 192);"></circle><circle class="pearl" r="2.1904339371426516" cx="13.605347644589608" cy="12.937269337095145"></circle><circle class="pearl" r="2.1904339371426516" cx="6.70730608247845" cy="19.53940100028274"></circle><circle class="pearl" r="2.1904339371426516" cx="14.244490897255426" cy="4.722809574235283"></circle><circle class="pearl" r="2.1904339371426516" cx="20.533793349119517" cy="16.71370235773147"></circle><circle class="pearl" r="2.1904339371426516" cx="4.653885821924456" cy="13.168963414781532"></circle><circle class="pearl" r="2.1904339371426516" cx="20.45415688193107" cy="8.806358469885671"></circle><circle class="pearl" r="2.1904339371426516" cx="14.289631894814748" cy="21.039345141208308"></circle><circle class="pearl" r="2.1904339371426516" cx="6.705200116310321" cy="6.228780193795407"></circle></g><g class="bobaCup bright" cupRadius="12.825222727074268" width="25.650445454148535" height="25.650445454148535" pearlRadius="2.7380424214283137" pearlCount="8" transform="translate(167.42938897948557,227.52625294955786)"><circle class="pool" r="12.825222727074268" cx="12.825222727074268" cy="12.825222727074268" style="stroke-width: 1; fill: rgb(127, 205, 187);"></circle><circle class="pearl" r="2.190433937142651" cx="13.4843986201593" cy="12.897440085853113"></circle><circle class="pearl" r="2.190433937142651" cx="6.703565513266861" cy="19.444444083801816"></circle><circle class="pearl" r="2.190433937142651" cx="14.171037097820411" cy="4.721530183899652"></circle><circle class="pearl" r="2.190433937142651" cx="20.4258308700004" cy="16.618798563251836"></circle><circle class="pearl" r="2.190433937142651" cx="4.654393678982384" cy="13.132037354921367"></circle><circle class="pearl" r="2.190433937142651" cx="20.32657106586983" cy="8.724796575969796"></circle><circle class="pearl" r="2.190433937142651" cx="14.2359408445592" cy="20.921899719413407"></circle><circle class="pearl" r="2.190433937142651" cx="6.700556407966182" cy="6.207636389492791"></circle></g><g class="bobaCup bright" cupRadius="12.672080301705883" width="25.344160603411765" height="25.344160603411765" pearlRadius="2.738042421428313" pearlCount="8" transform="translate(144.02244169684627,209.68377658360072)"><circle class="pool" r="12.672080301705883" cx="12.672080301705883" cy="12.672080301705883" style="stroke-width: 1; fill: rgb(29, 145, 192);"></circle><circle class="pearl" r="2.1904339371426502" cx="13.17274035776163" cy="12.770245452742067"></circle><circle class="pearl" r="2.1904339371426502" cx="6.694622705479421" cy="19.195059228561927"></circle><circle class="pearl" r="2.1904339371426502" cx="13.966308104129205" cy="4.716987667417602"></circle><circle class="pearl" r="2.1904339371426502" cx="20.14871854248031" cy="16.347501769335974"></circle><circle class="pearl" r="2.1904339371426502" cx="4.656037143094265" cy="13.039025073327975"></circle><circle class="pearl" r="2.1904339371426502" cx="19.98283414195637" cy="8.488220181561104"></circle><circle class="pearl" r="2.1904339371426502" cx="14.108266402019742" cy="20.611789498518267"></circle><circle class="pearl" r="2.1904339371426502" cx="6.68796591075631" cy="6.152665029393798"></circle></g><g class="bobaCup bright" cupRadius="12.656674658349637" width="25.313349316699274" height="25.313349316699274" pearlRadius="2.738042421428314" pearlCount="8" transform="translate(301.09904071502893,62.534409232355635)"><circle class="pool" r="12.656674658349637" cx="12.656674658349637" cy="12.656674658349637" style="stroke-width: 1; fill: rgb(29, 145, 192);"></circle><circle class="pearl" r="2.1904339371426516" cx="13.141664939023057" cy="12.755730570406739"></circle><circle class="pearl" r="2.1904339371426516" cx="6.6938134254493935" cy="19.169987408065495"></circle><circle class="pearl" r="2.1904339371426516" cx="13.944520407453851" cy="4.716414337816065"></circle><circle class="pearl" r="2.1904339371426516" cx="20.12148238929362" cy="16.31800269286686"></circle><circle class="pearl" r="2.1904339371426516" cx="4.656232480895497" cy="13.030074278998224"></circle><circle class="pearl" r="2.1904339371426516" cx="19.94737050443189" cy="8.462163496031039"></circle><circle class="pearl" r="2.1904339371426516" cx="14.096767827855345" cy="20.58043134230189"></circle><circle class="pearl" r="2.1904339371426516" cx="6.686658869772648" cy="6.147186200243297"></circle></g><g class="bobaCup bright" cupRadius="12.620110580711337" width="25.240221161422674" height="25.240221161422674" pearlRadius="2.7380424214283132" pearlCount="7" transform="translate(137.36404345030118,158.3517135747059)"><circle class="pool" r="12.620110580711337" cx="12.620110580711337" cy="12.620110580711337" style="stroke-width: 1; fill: rgb(29, 145, 192);"></circle><circle class="pearl" r="2.1904339371426507" cx="13.073480340135529" cy="12.712841048942414"></circle><circle class="pearl" r="2.1904339371426507" cx="5.036476723656407" cy="15.716511357544789"></circle><circle class="pearl" r="2.1904339371426507" cx="12.999655985734245" cy="4.656431867259635"></circle><circle class="pearl" r="2.1904339371426507" cx="19.141287976599596" cy="18.490019226217434"></circle><circle class="pearl" r="2.1904339371426507" cx="5.63034778528709" cy="7.7450437919840684"></circle><circle class="pearl" r="2.1904339371426507" cx="19.938246382862822" cy="8.61841037054153"></circle><circle class="pearl" r="2.1904339371426507" cx="11.413336843116843" cy="20.531667726962112"></circle></g><g class="bobaCup bright" cupRadius="12.505587404253898" width="25.011174808507796" height="25.011174808507796" pearlRadius="2.7380424214283137" pearlCount="7" transform="translate(141.37389155669473,7.494412595746102)"><circle class="pool" r="12.505587404253898" cx="12.505587404253898" cy="12.505587404253898" style="stroke-width: 1; fill: rgb(65, 182, 196);"></circle><circle class="pearl" r="2.190433937142651" cx="12.739573758659779" cy="12.549572470146911"></circle><circle class="pearl" r="2.190433937142651" cx="5.005581041569776" cy="15.463540535327617"></circle><circle class="pearl" r="2.190433937142651" cx="13.121754314321041" cy="4.665912133802943"></circle><circle class="pearl" r="2.190433937142651" cx="19.013698196203375" cy="18.150951841374553"></circle><circle class="pearl" r="2.190433937142651" cx="5.694077154129438" cy="7.50489545160327"></circle><circle class="pearl" r="2.190433937142651" cx="19.828723200218942" cy="8.897760303911033"></circle><circle class="pearl" r="2.190433937142651" cx="11.294879142301195" cy="20.301707222410496"></circle></g><g class="bobaCup bright" cupRadius="12.470164683210047" width="24.940329366420094" height="24.940329366420094" pearlRadius="2.738042421428314" pearlCount="7" transform="translate(136.78097652995854,211.6561722404159)"><circle class="pool" r="12.470164683210047" cx="12.470164683210047" cy="12.470164683210047" style="stroke-width: 1; fill: rgb(65, 182, 196);"></circle><circle class="pearl" r="2.1904339371426516" cx="12.635876343676857" cy="12.50790854466332"></circle><circle class="pearl" r="2.1904339371426516" cx="4.988286999811018" cy="15.352004778919927"></circle><circle class="pearl" r="2.1904339371426516" cx="13.186873774975734" cy="4.671336301214607"></circle><circle class="pearl" r="2.1904339371426516" cx="18.967010468259343" cy="18.059146013734416"></circle><circle class="pearl" r="2.1904339371426516" cx="5.728291896182808" cy="7.399290670601142"></circle><circle class="pearl" r="2.1904339371426516" cx="19.800985836213318" cy="9.013634420252252"></circle><circle class="pearl" r="2.1904339371426516" cx="11.2229936077987" cy="20.2270831135134"></circle></g><g class="bobaCup bright" cupRadius="12.463417565406445" width="24.92683513081289" height="24.92683513081289" pearlRadius="2.7380424214283137" pearlCount="7" transform="translate(109.97488586064611,42.163383435402054)"><circle class="pool" r="12.463417565406445" cx="12.463417565406445" cy="12.463417565406445" style="stroke-width: 1; fill: rgb(127, 205, 187);"></circle><circle class="pearl" r="2.190433937142651" cx="12.615485568750165" cy="12.499711596328439"></circle><circle class="pearl" r="2.190433937142651" cx="4.984685476191316" cy="15.32926667230473"></circle><circle class="pearl" r="2.190433937142651" cx="13.20083716015037" cy="4.672557705360164"></circle><circle class="pearl" r="2.190433937142651" cx="18.95814273886823" cy="18.04156755687359"></circle><circle class="pearl" r="2.190433937142651" cx="5.735531730333593" cy="7.377748171271396"></circle><circle class="pearl" r="2.190433937142651" cx="19.796097110146835" cy="9.037802966203445"></circle><circle class="pearl" r="2.190433937142651" cx="11.208034758702278" cy="20.212726248823067"></circle></g><g class="bobaCup bright" cupRadius="12.371623838394667" width="24.743247676789334" height="24.743247676789334" pearlRadius="2.7380424214283137" pearlCount="7" transform="translate(142.14723476480722,216.0667515103606)"><circle class="pool" r="12.371623838394667" cx="12.371623838394667" cy="12.371623838394667" style="stroke-width: 1; fill: rgb(127, 205, 187);"></circle><circle class="pearl" r="2.190433937142651" cx="12.419895252008953" cy="12.393118231392098"></circle><circle class="pearl" r="2.190433937142651" cx="4.963967762641877" cy="15.137950816860673"></circle><circle class="pearl" r="2.190433937142651" cx="13.285468846727392" cy="4.684520528248303"></circle><circle class="pearl" r="2.190433937142651" cx="18.83714706377986" cy="17.801738125740716"></circle><circle class="pearl" r="2.190433937142651" cx="5.782646732928582" cy="7.201883728894005"></circle><circle class="pearl" r="2.190433937142651" cx="19.68200637427707" cy="9.211081908552128"></circle><circle class="pearl" r="2.190433937142651" cx="11.09059730317184" cy="20.02602342167679"></circle></g><g class="bobaCup bright" cupRadius="11.934171949235946" width="23.868343898471892" height="23.868343898471892" pearlRadius="2.738042421428314" pearlCount="7" transform="translate(154.33856789693775,224.86914175384993)"><circle class="pool" r="11.934171949235946" cx="11.934171949235946" cy="11.934171949235946" style="stroke-width: 1; fill: rgb(65, 182, 196);"></circle><circle class="pearl" r="2.1904339371426516" cx="11.939251320444633" cy="11.935469227713286"></circle><circle class="pearl" r="2.1904339371426516" cx="5.025219163492174" cy="14.900373317653793"></circle><circle class="pearl" r="2.1904339371426516" cx="12.913289669577686" cy="4.690956023614133"></circle><circle class="pearl" r="2.1904339371426516" cx="18.18018273628833" cy="16.800962257712833"></circle><circle class="pearl" r="2.1904339371426516" cx="5.687761797786582" cy="7.068275915412967"></circle><circle class="pearl" r="2.1904339371426516" cx="18.824700389306685" cy="8.897072998756649"></circle><circle class="pearl" r="2.1904339371426516" cx="10.885581927041509" cy="19.1714644961963"></circle></g><g class="bobaCup bright" cupRadius="11.918908513188287" width="23.837817026376573" height="23.837817026376573" pearlRadius="2.7380424214283137" pearlCount="7" transform="translate(256.00055252862956,93.74683427659107)"><circle class="pool" r="11.918908513188287" cx="11.918908513188287" cy="11.918908513188287" style="stroke-width: 1; fill: rgb(29, 145, 192);"></circle><circle class="pearl" r="2.190433937142651" cx="11.924138339383413" cy="11.920531661754161"></circle><circle class="pearl" r="2.190433937142651" cx="5.004023577339046" cy="14.799375130395669"></circle><circle class="pearl" r="2.190433937142651" cx="12.981477636778441" cy="4.698181661699856"></circle><circle class="pearl" r="2.190433937142651" cx="18.11514872659861" cy="16.858925136042014"></circle><circle class="pearl" r="2.190433937142651" cx="5.722007862254749" cy="6.9803422926589604"></circle><circle class="pearl" r="2.190433937142651" cx="18.815254295487286" cy="8.964999678448127"></circle><circle class="pearl" r="2.190433937142651" cx="10.784262116616116" cy="19.132963314588853"></circle></g><g class="bobaCup bright" cupRadius="11.810633586259785" width="23.62126717251957" height="23.62126717251957" pearlRadius="2.738042421428314" pearlCount="6" transform="translate(66.4833389644203,255.5011389210508)"><circle class="pool" r="11.810633586259785" cx="11.810633586259785" cy="11.810633586259785" style="stroke-width: 1; fill: rgb(127, 205, 187);"></circle><circle class="pearl" r="2.1904339371426516" cx="12.272705796532989" cy="12.06339760337663"></circle><circle class="pearl" r="2.1904339371426516" cx="6.938957171947368" cy="17.918991853017182"></circle><circle class="pearl" r="2.1904339371426516" cx="9.771371892425105" cy="4.828108022986598"></circle><circle class="pearl" r="2.1904339371426516" cx="17.428091606977997" cy="17.54909854033109"></circle><circle class="pearl" r="2.1904339371426516" cx="4.726570889202073" cy="10.474270990048726"></circle><circle class="pearl" r="2.1904339371426516" cx="17.49737812315791" cy="6.109931681983365"></circle></g><g class="bobaCup bright" cupRadius="11.75678389572674" width="23.51356779145348" height="23.51356779145348" pearlRadius="2.7380424214283132" pearlCount="6" transform="translate(302.51532958509273,11.750117868630179)"><circle class="pool" r="11.75678389572674" cx="11.75678389572674" cy="11.75678389572674" style="stroke-width: 1; fill: rgb(65, 182, 196);"></circle><circle class="pearl" r="2.1904339371426507" cx="12.20199087513697" cy="12.025197228389734"></circle><circle class="pearl" r="2.1904339371426507" cx="6.774790316234891" cy="17.755084450804635"></circle><circle class="pearl" r="2.1904339371426507" cx="9.754895294927609" cy="4.822412838932249"></circle><circle class="pearl" r="2.1904339371426507" cx="17.325167031332672" cy="17.460532011744863"></circle><circle class="pearl" r="2.1904339371426507" cx="4.736062716674561" cy="10.342799097159483"></circle><circle class="pearl" r="2.1904339371426507" cx="17.40232342472901" cy="6.094900712856901"></circle></g><g class="bobaCup bright" cupRadius="11.36570555824207" width="22.73141111648414" height="22.73141111648414" pearlRadius="2.7380424214283132" pearlCount="6" transform="translate(161.09279599435746,265.5395543328766)"><circle class="pool" r="11.36570555824207" cx="11.36570555824207" cy="11.36570555824207" style="stroke-width: 1; fill: rgb(127, 205, 187);"></circle><circle class="pearl" r="2.1904339371426507" cx="11.774240291456211" cy="11.717846922299783"></circle><circle class="pearl" r="2.1904339371426507" cx="6.145293604301407" cy="16.81085088407521"></circle><circle class="pearl" r="2.1904339371426507" cx="9.521586812743344" cy="4.8013278559630495"></circle><circle class="pearl" r="2.1904339371426507" cx="16.571501658889037" cy="16.81839510927885"></circle><circle class="pearl" r="2.1904339371426507" cx="4.7752671753221305" cy="9.687745945797468"></circle><circle class="pearl" r="2.1904339371426507" cx="16.690415022491077" cy="5.975177273281997"></circle></g><g class="bobaCup bright" cupRadius="11.233539712009142" width="22.467079424018284" height="22.467079424018284" pearlRadius="2.7380424214283137" pearlCount="6" transform="translate(164.6795571387711,35.77236269063633)"><circle class="pool" r="11.233539712009142" cx="11.233539712009142" cy="11.233539712009142" style="stroke-width: 1; fill: rgb(127, 205, 187);"></circle><circle class="pearl" r="2.190433937142651" cx="11.669264215513085" cy="11.595211025654624"></circle><circle class="pearl" r="2.190433937142651" cx="6.140577323218816" cy="16.595515848127558"></circle><circle class="pearl" r="2.190433937142651" cx="9.378653692296268" cy="4.804921249163712"></circle><circle class="pearl" r="2.190433937142651" cx="16.313711889046015" cy="16.60201131700362"></circle><circle class="pearl" r="2.190433937142651" cx="4.769799520514718" cy="9.60224656076006"></circle><circle class="pearl" r="2.190433937142651" cx="16.437469804245783" cy="5.928785751796136"></circle></g><g class="bobaCup bright" cupRadius="11.143302482710546" width="22.28660496542109" height="22.28660496542109" pearlRadius="2.7380424214283132" pearlCount="6" transform="translate(15.74905386489641,157.8849929423212)"><circle class="pool" r="11.143302482710546" cx="11.143302482710546" cy="11.143302482710546" style="stroke-width: 1; fill: rgb(29, 145, 192);"></circle><circle class="pearl" r="2.1904339371426507" cx="11.59882200982472" cy="11.510714804060507"></circle><circle class="pearl" r="2.1904339371426507" cx="6.13740021322901" cy="16.448187356590193"></circle><circle class="pearl" r="2.1904339371426507" cx="9.280164806469873" cy="4.807583693023148"></circle><circle class="pearl" r="2.1904339371426507" cx="16.137563216646356" cy="16.454032458499253"></circle><circle class="pearl" r="2.1904339371426507" cx="4.765951763995344" cy="9.544936055895816"></circle><circle class="pearl" r="2.1904339371426507" cx="16.26441313792648" cy="5.897187030257428"></circle></g><g class="bobaCup bright" cupRadius="11.005099025532974" width="22.01019805106595" height="22.01019805106595" pearlRadius="2.738042421428314" pearlCount="6" transform="translate(147.01035341461093,196.3862267932336)"><circle class="pool" r="11.005099025532974" cx="11.005099025532974" cy="11.005099025532974" style="stroke-width: 1; fill: rgb(127, 205, 187);"></circle><circle class="pearl" r="2.1904339371426516" cx="11.493181009692243" cy="11.379901646111334"></circle><circle class="pearl" r="2.1904339371426516" cx="6.132645048336972" cy="16.222070401168775"></circle><circle class="pearl" r="2.1904339371426516" cx="9.127668433051944" cy="4.81204713045809"></circle><circle class="pearl" r="2.1904339371426516" cx="15.867495458837194" cy="16.227030226606292"></circle><circle class="pearl" r="2.1904339371426516" cx="4.7598474233851285" cy="9.459156901737138"></circle><circle class="pearl" r="2.1904339371426516" cx="15.998701497374466" cy="5.848878850830776"></circle></g><g class="bobaCup bright" cupRadius="10.84195508109876" width="21.68391016219752" height="21.68391016219752" pearlRadius="2.7380424214283137" pearlCount="5" transform="translate(216.77454537510533,289.1580449189012)"><circle class="pool" r="10.84195508109876" cx="10.84195508109876" cy="10.84195508109876" style="stroke-width: 1; fill: rgb(29, 145, 192);"></circle><circle class="pearl" r="2.190433937142651" cx="16.68349881726024" cy="8.11059572697765"></circle><circle class="pearl" r="2.190433937142651" cx="8.006782120878372" cy="16.65592412063563"></circle><circle class="pearl" r="2.190433937142651" cx="10.021000289860948" cy="4.681849330756762"></circle><circle class="pearl" r="2.190433937142651" cx="15.783421233684884" cy="15.841615380834149"></circle><circle class="pearl" r="2.190433937142651" cx="4.689774719493267" cy="9.92257267866046"></circle></g><g class="bobaCup bright" cupRadius="10.813906761071564" width="21.62781352214313" height="21.62781352214313" pearlRadius="2.7380424214283137" pearlCount="5" transform="translate(20.057894980197176,233.01916274499297)"><circle class="pool" r="10.813906761071564" cx="10.813906761071564" cy="10.813906761071564" style="stroke-width: 1; fill: rgb(29, 145, 192);"></circle><circle class="pearl" r="2.190433937142651" cx="16.6260430745435" cy="8.080932256867655"></circle><circle class="pearl" r="2.190433937142651" cx="7.966825970223208" cy="16.59557110234908"></circle><circle class="pearl" r="2.190433937142651" cx="9.99625163397671" cy="4.68167958030269"></circle><circle class="pearl" r="2.190433937142651" cx="15.731312618414808" cy="15.794367212158743"></circle><circle class="pearl" r="2.190433937142651" cx="4.690538843614224" cy="9.886793275989396"></circle></g><g class="bobaCup bright" cupRadius="10.444779854509944" width="20.88955970901989" height="20.88955970901989" pearlRadius="2.7380424214283137" pearlCount="5" transform="translate(148.81931103212054,244.9702526591709)"><circle class="pool" r="10.444779854509944" cx="10.444779854509944" cy="10.444779854509944" style="stroke-width: 1; fill: rgb(127, 205, 187);"></circle><circle class="pearl" r="2.190433937142651" cx="15.873529679609472" cy="7.706596301585702"></circle><circle class="pearl" r="2.190433937142651" cx="7.411554128645882" cy="15.788703588445"></circle><circle class="pearl" r="2.190433937142651" cx="9.707957607635757" cy="4.67674503877997"></circle><circle class="pearl" r="2.190433937142651" cx="15.04273738088369" cy="15.172340733111117"></circle><circle class="pearl" r="2.190433937142651" cx="4.70523396158077" cy="9.379071736883445"></circle></g><g class="bobaCup bright" cupRadius="10.216204879586304" width="20.432409759172607" height="20.432409759172607" pearlRadius="2.7380424214283137" pearlCount="5" transform="translate(152.67690486247935,195.81530883033355)"><circle class="pool" r="10.216204879586304" cx="10.216204879586304" cy="10.216204879586304" style="stroke-width: 1; fill: rgb(127, 205, 187);"></circle><circle class="pearl" r="2.190433937142651" cx="15.41710091331704" cy="7.511313005161989"></circle><circle class="pearl" r="2.190433937142651" cx="7.017055497282435" cy="15.267867201558332"></circle><circle class="pearl" r="2.190433937142651" cx="9.599043214084045" cy="4.669381657156663"></circle><circle class="pearl" r="2.190433937142651" cx="14.610256264987655" cy="14.788450509475897"></circle><circle class="pearl" r="2.190433937142651" cx="4.723753614920666" cy="8.99683892080488"></circle></g><g class="bobaCup bright" cupRadius="10.097030579195232" width="20.194061158390465" height="20.194061158390465" pearlRadius="2.738042421428314" pearlCount="5" transform="translate(220.75484633229027,162.2237769935657)"><circle class="pool" r="10.097030579195232" cx="10.097030579195232" cy="10.097030579195232" style="stroke-width: 1; fill: rgb(65, 182, 196);"></circle><circle class="pearl" r="2.1904339371426516" cx="15.187644843272903" cy="7.440647630236397"></circle><circle class="pearl" r="2.1904339371426516" cx="6.77665081245761" cy="14.981772977526855"></circle><circle class="pearl" r="2.1904339371426516" cx="9.59399321190698" cy="4.663261756883669"></circle><circle class="pearl" r="2.1904339371426516" cx="14.379758495855452" cy="14.590063040113169"></circle><circle class="pearl" r="2.1904339371426516" cx="4.74124798445275" cy="8.748005848067123"></circle></g><g class="bobaCup bright" cupRadius="10.086739246862997" width="20.173478493725995" height="20.173478493725995" pearlRadius="2.7380424214283132" pearlCount="5" transform="translate(146.8538397351771,193.69901213641873)"><circle class="pool" r="10.086739246862997" cx="10.086739246862997" cy="10.086739246862997" style="stroke-width: 1; fill: rgb(65, 182, 196);"></circle><circle class="pearl" r="2.1904339371426507" cx="15.168330337608065" cy="7.436387077010828"></circle><circle class="pearl" r="2.1904339371426507" cx="6.75403470702884" cy="14.956278046428277"></circle><circle class="pearl" r="2.1904339371426507" cx="9.59645347888398" cy="4.6626459262395725"></circle><circle class="pearl" r="2.1904339371426507" cx="14.35956345359006" cy="14.573044087232795"></circle><circle class="pearl" r="2.1904339371426507" cx="4.743231176248785" cy="8.723783131431809"></circle></g><g class="bobaCup bright" cupRadius="10.046172350043944" width="20.09234470008789" height="20.09234470008789" pearlRadius="2.7380424214283137" pearlCount="5" transform="translate(233.11074493999257,223.23088146359908)"><circle class="pool" r="10.046172350043944" cx="10.046172350043944" cy="10.046172350043944" style="stroke-width: 1; fill: rgb(65, 182, 196);"></circle><circle class="pearl" r="2.190433937142651" cx="15.093274234204078" cy="7.423622642284865"></circle><circle class="pearl" r="2.190433937142651" cx="6.661047466568606" cy="14.854122834529228"></circle><circle class="pearl" r="2.190433937142651" cx="9.61231835053049" cy="4.660095810068601"></circle><circle class="pearl" r="2.190433937142651" cx="14.27933074368974" cy="14.50620918313037"></circle><circle class="pearl" r="2.190433937142651" cx="4.752105360427905" cy="8.62254093600549"></circle></g><g class="bobaCup bright" cupRadius="9.817688024104429" width="19.635376048208858" height="19.635376048208858" pearlRadius="2.7380424214283146" pearlCount="4" transform="translate(143.09158202421247,193.59714824795063)"><circle class="pool" r="9.817688024104429" cx="9.817688024104429" cy="9.817688024104429" style="stroke-width: 1; fill: rgb(29, 145, 192);"></circle><circle class="pearl" r="2.1904339371426516" cx="14.330239137638447" cy="6.2932871572957385"></circle><circle class="pearl" r="2.1904339371426516" cx="5.616182703090136" cy="13.220590810245858"></circle><circle class="pearl" r="2.1904339371426516" cx="6.401663240792076" cy="5.264185439580786"></circle><circle class="pearl" r="2.1904339371426516" cx="13.544758599936626" cy="14.249692527960942"></circle></g><g class="bobaCup bright" cupRadius="9.793869280199134" width="19.587738560398268" height="19.587738560398268" pearlRadius="2.7380424214283137" pearlCount="4" transform="translate(174.06353175631924,265.26608207049566)"><circle class="pool" r="9.793869280199134" cx="9.793869280199134" cy="9.793869280199134" style="stroke-width: 1; fill: rgb(29, 145, 192);"></circle><circle class="pearl" r="2.190433937142651" cx="14.271516384510068" cy="6.245245526771936"></circle><circle class="pearl" r="2.190433937142651" cx="5.574417011783175" cy="13.24081401332075"></circle><circle class="pearl" r="2.190433937142651" cx="6.334675379303974" cy="5.281958988125728"></circle><circle class="pearl" r="2.190433937142651" cx="13.511258016989347" cy="14.204100551967048"></circle></g><g class="bobaCup bright" cupRadius="9.753803319803442" width="19.507606639606884" height="19.507606639606884" pearlRadius="2.7380424214283132" pearlCount="4" transform="translate(145.97975626315827,218.9694911915693)"><circle class="pool" r="9.753803319803442" cx="9.753803319803442" cy="9.753803319803442" style="stroke-width: 1; fill: rgb(65, 182, 196);"></circle><circle class="pearl" r="2.1904339371426507" cx="14.171606350571672" cy="6.162353656355276"></circle><circle class="pearl" r="2.1904339371426507" cx="5.509418326303042" cy="13.275965565229964"></circle><circle class="pearl" r="2.1904339371426507" cx="6.221799758512811" cy="5.312682398564273"></circle><circle class="pearl" r="2.1904339371426507" cx="13.459224918361938" cy="14.125636823021015"></circle></g><g class="bobaCup bright" cupRadius="9.68413976638662" width="19.36827953277324" height="19.36827953277324" pearlRadius="2.7380424214283137" pearlCount="4" transform="translate(273.2795518682674,72.77901211763425)"><circle class="pool" r="9.68413976638662" cx="9.68413976638662" cy="9.68413976638662" style="stroke-width: 1; fill: rgb(65, 182, 196);"></circle><circle class="pearl" r="2.190433937142651" cx="13.997626917137982" cy="6.020057986437052"></circle><circle class="pearl" r="2.190433937142651" cx="5.398021592663716" cy="13.337018633299753"></circle><circle class="pearl" r="2.190433937142651" cx="6.029268095667374" cy="5.366893543321254"></circle><circle class="pearl" r="2.190433937142651" cx="13.366380414134333" cy="13.990183076415565"></circle></g><g class="bobaCup bright" cupRadius="9.549579349713602" width="19.099158699427203" height="19.099158699427203" pearlRadius="2.7380424214283137" pearlCount="4" transform="translate(88.06935694195138,204.00870771776454)"><circle class="pool" r="9.549579349713602" cx="9.549579349713602" cy="9.549579349713602" style="stroke-width: 1; fill: rgb(65, 182, 196);"></circle><circle class="pearl" r="2.190433937142651" cx="13.59245121192416" cy="5.597887287569367"></circle><circle class="pearl" r="2.190433937142651" cx="5.506707487503041" cy="13.501271411857836"></circle><circle class="pearl" r="2.190433937142651" cx="5.597887287569366" cy="5.506707487503043"></circle><circle class="pearl" r="2.190433937142651" cx="13.501271411857838" cy="13.59245121192416"></circle></g><g class="bobaCup bright" cupRadius="9.44170006634158" width="18.88340013268316" height="18.88340013268316" pearlRadius="2.7380424214283137" pearlCount="4" transform="translate(47.962154510068714,266.4192230311079)"><circle class="pool" r="9.44170006634158" cx="9.44170006634158" cy="9.44170006634158" style="stroke-width: 1; fill: rgb(65, 182, 196);"></circle><circle class="pearl" r="2.190433937142651" cx="13.359615293214144" cy="5.501984399384991"></circle><circle class="pearl" r="2.190433937142651" cx="5.523713215877281" cy="13.381383066951013"></circle><circle class="pearl" r="2.190433937142651" cx="5.523815468001388" cy="5.501970430433207"></circle><circle class="pearl" r="2.190433937142651" cx="13.359513035551895" cy="13.381462370092986"></circle></g><g class="bobaCup bright" cupRadius="9.084548825410087" width="18.169097650820174" height="18.169097650820174" pearlRadius="2.738042421428313" pearlCount="4" transform="translate(132.98271081115655,196.63183383168482)"><circle class="pool" r="9.084548825410087" cx="9.084548825410087" cy="9.084548825410087" style="stroke-width: 1; fill: rgb(29, 145, 192);"></circle><circle class="pearl" r="2.1904339371426502" cx="12.67239549786166" cy="5.389232057896921"></circle><circle class="pearl" r="2.1904339371426502" cx="5.494621139228178" cy="12.778970686604934"></circle><circle class="pearl" r="2.1904339371426502" cx="5.497607330607481" cy="5.388842992752467"></circle><circle class="pearl" r="2.1904339371426502" cx="12.66940450358853" cy="12.781150744926359"></circle></g><g class="bobaCup bright" cupRadius="8.862523071184814" width="17.725046142369628" height="17.725046142369628" pearlRadius="2.7380424214283137" pearlCount="3" transform="translate(140.28053359022954,211.64454473778517)"><circle class="pool" r="8.862523071184814" cx="8.862523071184814" cy="8.862523071184814" style="stroke-width: 1; fill: rgb(127, 205, 187);"></circle><circle class="pearl" r="2.190433937142651" cx="12.932777905132326" cy="10.264949059653562"></circle><circle class="pearl" r="2.190433937142651" cx="5.0436939232848355" cy="11.963112240529602"></circle><circle class="pearl" r="2.190433937142651" cx="8.42545969472803" cy="3.661506877910986"></circle></g><g class="bobaCup bright" cupRadius="8.834889499173977" width="17.669778998347955" height="17.669778998347955" pearlRadius="2.7380424214283137" pearlCount="3" transform="translate(11.165110500826023,183.36373859315032)"><circle class="pool" r="8.834889499173977" cx="8.834889499173977" cy="8.834889499173977" style="stroke-width: 1; fill: rgb(65, 182, 196);"></circle><circle class="pearl" r="2.190433937142651" cx="12.915665296840345" cy="10.24933055037503"></circle><circle class="pearl" r="2.190433937142651" cx="5.019674547549091" cy="11.928060560401745"></circle><circle class="pearl" r="2.190433937142651" cx="8.384528557415624" cy="3.6622093319598985"></circle></g><g class="bobaCup bright" cupRadius="8.734054532182556" width="17.468109064365112" height="17.468109064365112" pearlRadius="2.7380424214283137" pearlCount="3" transform="translate(181.17412984198532,226.21662045595798)"><circle class="pool" r="8.734054532182556" cx="8.734054532182556" cy="8.734054532182556" style="stroke-width: 1; fill: rgb(127, 205, 187);"></circle><circle class="pearl" r="2.190433937142651" cx="12.853054377585098" cy="10.191510876996178"></circle><circle class="pearl" r="2.190433937142651" cx="4.9323065051947035" cy="11.800082553628119"></circle><circle class="pearl" r="2.190433937142651" cx="8.23505900298472" cy="3.6649892293166992"></circle></g><g class="bobaCup bright" cupRadius="8.41412139522367" width="16.82824279044734" height="16.82824279044734" pearlRadius="2.7380424214283137" pearlCount="3" transform="translate(127.39508388347366,265.6075013219152)"><circle class="pool" r="8.41412139522367" cx="8.41412139522367" cy="8.41412139522367" style="stroke-width: 1; fill: rgb(65, 182, 196);"></circle><circle class="pearl" r="2.190433937142651" cx="12.652553565512356" cy="9.99940811964879"></circle><circle class="pearl" r="2.190433937142651" cx="4.6578972891731505" cy="11.393377404285747"></circle><circle class="pearl" r="2.190433937142651" cx="7.759867038159388" cy="3.676198124518301"></circle></g><g class="bobaCup bright" cupRadius="8.403759069243627" width="16.807518138487254" height="16.807518138487254" pearlRadius="2.7380424214283132" pearlCount="3" transform="translate(159.52597264067393,198.43134120316296)"><circle class="pool" r="8.403759069243627" cx="8.403759069243627" cy="8.403759069243627" style="stroke-width: 1; fill: rgb(65, 182, 196);"></circle><circle class="pearl" r="2.1904339371426507" cx="12.646009915580738" cy="9.992965024362448"></circle><circle class="pearl" r="2.1904339371426507" cx="4.64907786824852" cy="11.380190903387064"></circle><circle class="pearl" r="2.1904339371426507" cx="7.744457221097541" cy="3.676625318435934"></circle></g><g class="bobaCup bright" cupRadius="8.029535555398184" width="16.059071110796367" height="16.059071110796367" pearlRadius="2.7380424214283137" pearlCount="3" transform="translate(184.3696410584783,280.7443875401556)"><circle class="pool" r="8.029535555398184" cx="8.029535555398184" cy="8.029535555398184" style="stroke-width: 1; fill: rgb(29, 145, 192);"></circle><circle class="pearl" r="2.190433937142651" cx="12.183955593357311" cy="9.914523572426857"></circle><circle class="pearl" r="2.190433937142651" cx="4.286427619216271" cy="11.16078162406333"></circle><circle class="pearl" r="2.190433937142651" cx="7.155931328467802" cy="3.6983882707315985"></circle></g><g class="bobaCup bright" cupRadius="7.679578294935634" width="15.359156589871269" height="15.359156589871269" pearlRadius="2.7380424214283137" pearlCount="2" transform="translate(174.47268548028876,185.9232579564036)"><circle class="pool" r="7.679578294935634" cx="7.679578294935634" cy="7.679578294935634" style="stroke-width: 1; fill: rgb(65, 182, 196);"></circle><circle class="pearl" r="2.190433937142651" cx="11.302784753657441" cy="6.9505915214815035"></circle><circle class="pearl" r="2.190433937142651" cx="4.3906446135703545" cy="10.968511976300913"></circle></g><g class="bobaCup bright" cupRadius="7.26593777149796" width="14.53187554299592" height="14.53187554299592" pearlRadius="2.7380424214283137" pearlCount="2" transform="translate(37.0148941968889,97.48240051214282)"><circle class="pool" r="7.26593777149796" cx="7.26593777149796" cy="7.26593777149796" style="stroke-width: 1; fill: rgb(29, 145, 192);"></circle><circle class="pearl" r="2.190433937142651" cx="10.630781722498458" cy="5.374993867465172"></circle><circle class="pearl" r="2.190433937142651" cx="4.2886985922906975" cy="10.243177923111922"></circle></g><g class="bobaCup bright" cupRadius="7.108433220260358" width="14.216866440520716" height="14.216866440520716" pearlRadius="2.738042421428314" pearlCount="2" transform="translate(201.48654843696218,278.49083122787323)"><circle class="pool" r="7.108433220260358" cx="7.108433220260358" cy="7.108433220260358" style="stroke-width: 1; fill: rgb(65, 182, 196);"></circle><circle class="pearl" r="2.1904339371426516" cx="10.05956155978657" cy="4.47302457647998"></circle><circle class="pearl" r="2.1904339371426516" cx="4.2505306274258245" cy="9.966336238200183"></circle></g><g class="bobaCup bright" cupRadius="7.101334580136975" width="14.20266916027395" height="14.20266916027395" pearlRadius="2.738042421428314" pearlCount="2" transform="translate(162.06376075166833,237.72317711665474)"><circle class="pool" r="7.101334580136975" cx="7.101334580136975" cy="7.101334580136975" style="stroke-width: 1; fill: rgb(127, 205, 187);"></circle><circle class="pearl" r="2.1904339371426516" cx="10.031475350859534" cy="4.432780319521305"></circle><circle class="pearl" r="2.1904339371426516" cx="4.248819673440135" cy="9.953849892948291"></circle></g><g class="bobaCup bright" cupRadius="6.073402328883227" width="12.146804657766454" height="12.146804657766454" pearlRadius="2.7380424214283137" pearlCount="1" transform="translate(150.0630743729609,207.43369723651637)"><circle class="pool" r="6.073402328883227" cx="6.073402328883227" cy="6.073402328883227" style="stroke-width: 1; fill: rgb(65, 182, 196);"></circle><circle class="pearl" r="2.190433937142651" cx="8.21745288184605" cy="6.073402328883227"></circle></g><g class="bobaCup bright" cupRadius="4.402924671825627" width="8.805849343651253" height="8.805849343651253" pearlRadius="2.7380424214283137" pearlCount="0" transform="translate(140.07520169210628,182.78885402184503)"><circle class="pool" r="4.402924671825627" cx="4.402924671825627" cy="4.402924671825627" style="stroke-width: 1; fill: rgb(127, 205, 187);"></circle></g><g class="bobaCup bright" cupRadius="3.437152928242658" width="6.874305856485316" height="6.874305856485316" pearlRadius="2.7380424214283137" pearlCount="0" transform="translate(150.88381052186,249.63529458186557)"><circle class="pool" r="3.437152928242658" cx="3.437152928242658" cy="3.437152928242658" style="stroke-width: 1; fill: rgb(29, 145, 192);"></circle></g><g class="bobaCup bright" cupRadius="0" width="0" height="0" pearlRadius="NaN" pearlCount="0" transform="translate(204.7325555709339,99.78883799248221)"><circle class="pool" r="0" cx="0" cy="0" style="stroke-width: 1; fill: rgb(65, 182, 196);"></circle></g></g><g id="legendDividerGroup" transform="translate(410,0)" height="400"><rect class="legendDivider" height="400" width="90"></rect></g><g id="legend" transform="translate(410,15.580540465429408)" width="90" height="320"><rect class="legendBorder" transform="translate(0,0)" width="90" height="348.8389190691412"></rect><text id="rTitle" text-anchor="middle" alignment-baseline="hanging" transform="translate(45,0)" x="0" y="0" style="fill: black; font-size: 0.8rem;">Population</text><text id="bobaValue" text-anchor="middle" alignment-baseline="hanging" transform="translate(45,15)" x="0" y="0" style="fill: black; font-size: 0.7rem;">(1 Pearl =   75)</text><g class="bright" cupRadius="3.437152928242658" width="6.874305856485316" height="6.874305856485316" pearlRadius="2.7380424214283137" pearlCount="0" transform="translate(41.56284707175734,40)"><circle class="pool" r="3.437152928242658" cx="3.437152928242658" cy="3.437152928242658" style="stroke-width: 1; fill: rgb(29, 145, 192);"></circle></g><text id="0" class="legendSampleValue" text-anchor="middle" transform="translate(45,8)" x="0" y="51.874305856485314" style="fill: black; font-size: 0.7rem;">  44</text><g class="bright" cupRadius="9.457865308921548" width="18.915730617843096" height="18.915730617843096" pearlRadius="2.7380424214283137" pearlCount="4" transform="translate(35.54213469107845,71.87430585648531)"><circle class="pool" r="9.457865308921548" cx="9.457865308921548" cy="9.457865308921548" style="stroke-width: 1; fill: rgb(29, 145, 192);"></circle><circle class="pearl" r="2.190433937142651" cx="13.390776728960557" cy="5.507226786942407"></circle><circle class="pearl" r="2.190433937142651" cx="5.524906896648963" cy="13.408482343881257"></circle><circle class="pearl" r="2.190433937142651" cx="5.524973970418035" cy="5.507217604831622"></circle><circle class="pearl" r="2.190433937142651" cx="13.390709652810063" cy="13.408534500676712"></circle></g><text id="1" class="legendSampleValue" text-anchor="middle" transform="translate(45,8)" x="0" y="95.79003647432842" style="fill: black; font-size: 0.7rem;"> 340</text><g class="bright" cupRadius="12.92626829952389" width="25.85253659904778" height="25.85253659904778" pearlRadius="2.7380424214283137" pearlCount="8" transform="translate(32.07373170047611,115.79003647432842)"><circle class="pool" r="12.92626829952389" cx="12.92626829952389" cy="12.92626829952389" style="stroke-width: 1; fill: rgb(29, 145, 192);"></circle><circle class="pearl" r="2.190433937142651" cx="13.693264812402802" cy="12.960273720199952"></circle><circle class="pearl" r="2.190433937142651" cx="6.7752336032670035" cy="19.64450211708154"></circle><circle class="pearl" r="2.190433937142651" cx="14.27858037223687" cy="4.721655507233017"></circle><circle class="pearl" r="2.190433937142651" cx="20.62468619585866" cy="16.74557787436006"></circle><circle class="pearl" r="2.190433937142651" cx="4.65412888729343" cy="13.222972391595347"></circle><circle class="pearl" r="2.190433937142651" cx="20.536549408812807" cy="8.832836392400665"></circle><circle class="pearl" r="2.190433937142651" cx="14.379628641119705" cy="21.119849484534445"></circle><circle class="pearl" r="2.190433937142651" cx="6.701467304204378" cy="6.248255291429144"></circle></g><text id="2" class="legendSampleValue" text-anchor="middle" transform="translate(45,8)" x="0" y="146.64257307337618" style="fill: black; font-size: 0.7rem;"> 630</text><g class="bright" cupRadius="15.643708259260361" width="31.287416518520722" height="31.287416518520722" pearlRadius="2.7380424214283132" pearlCount="12" transform="translate(29.35629174073964,166.64257307337618)"><circle class="pool" r="15.643708259260361" cx="15.643708259260361" cy="15.643708259260361" style="stroke-width: 1; fill: rgb(29, 145, 192);"></circle><circle class="pearl" r="2.1904339371426507" cx="17.6066001634361" cy="11.228762419858423"></circle><circle class="pearl" r="2.1904339371426507" cx="11.58811368439595" cy="16.35835995340627"></circle><circle class="pearl" r="2.1904339371426507" cx="14.460949976249363" cy="4.695499122287331"></circle><circle class="pearl" r="2.1904339371426507" cx="18.473752067469242" cy="18.591785795619366"></circle><circle class="pearl" r="2.1904339371426507" cx="4.699237832165424" cy="14.412634360940228"></circle><circle class="pearl" r="2.1904339371426507" cx="26.5686953054414" cy="14.186705329327804"></circle><circle class="pearl" r="2.1904339371426507" cx="12.33025638376009" cy="26.281760153948646"></circle><circle class="pearl" r="2.1904339371426507" cx="7.20706695147038" cy="7.1206434394171785"></circle><circle class="pearl" r="2.1904339371426507" cx="25.348522535358036" cy="21.860150252305857"></circle><circle class="pearl" r="2.1904339371426507" cx="5.997559994573021" cy="21.993910902177003"></circle><circle class="pearl" r="2.1904339371426507" cx="23.966509539653945" cy="7.048428809742869"></circle><circle class="pearl" r="2.1904339371426507" cx="19.982925106966675" cy="26.022848810824893"></circle></g><text id="3" class="legendSampleValue" text-anchor="middle" transform="translate(45,8)" x="0" y="202.9299895918969" style="fill: black; font-size: 0.7rem;"> 920</text><g class="bright" cupRadius="17.954464738622132" width="35.908929477244264" height="35.908929477244264" pearlRadius="2.7380424214283137" pearlCount="16" transform="translate(27.045535261377868,222.9299895918969)"><circle class="pool" r="17.954464738622132" cx="17.954464738622132" cy="17.954464738622132" style="stroke-width: 1; fill: rgb(29, 145, 192);"></circle><circle class="pearl" r="2.190433937142651" cx="18.680507707786898" cy="18.740399201671345"></circle><circle class="pearl" r="2.190433937142651" cx="13.520040754467056" cy="23.547571369170868"></circle><circle class="pearl" r="2.190433937142651" cx="16.449452409045545" cy="11.302076920286261"></circle><circle class="pearl" r="2.190433937142651" cx="20.65951927562667" cy="26.1839115046733"></circle><circle class="pearl" r="2.190433937142651" cx="11.045358370970122" cy="16.664556434695513"></circle><circle class="pearl" r="2.190433937142651" cx="23.354717608350445" cy="13.480382448822654"></circle><circle class="pearl" r="2.190433937142651" cx="14.99495429315559" cy="31.012612224289157"></circle><circle class="pearl" r="2.190433937142651" cx="11.401698380048837" cy="5.889205881166216"></circle><circle class="pearl" r="2.190433937142651" cx="26.293789132368342" cy="20.723682816831236"></circle><circle class="pearl" r="2.190433937142651" cx="5.026467099440858" cy="21.608418310313105"></circle><circle class="pearl" r="2.190433937142651" cx="27.7290031233015" cy="7.544603535742519"></circle><circle class="pearl" r="2.190433937142651" cx="27.988168378845263" cy="28.192918630046588"></circle><circle class="pearl" r="2.190433937142651" cx="6.1545341117451144" cy="10.761496521074111"></circle><circle class="pearl" r="2.190433937142651" cx="30.9773393369632" cy="14.791120953480922"></circle><circle class="pearl" r="2.190433937142651" cx="8.224805013502415" cy="28.393357995694704"></circle><circle class="pearl" r="2.190433937142651" cx="20.691545519830097" cy="4.860577719358314"></circle></g><text id="4" class="legendSampleValue" text-anchor="middle" transform="translate(45,8)" x="0" y="263.8389190691412" style="fill: black; font-size: 0.7rem;">1.2k</text><g class="bright" cupRadius="20" width="40" height="40" pearlRadius="2.7380424214283137" pearlCount="20" transform="translate(25,283.8389190691412)"><circle class="pool" r="20" cx="20" cy="20" style="stroke-width: 1; fill: rgb(29, 145, 192);"></circle><circle class="pearl" r="2.190433937142651" cx="20.803317911356498" cy="19.852362298934615"></circle><circle class="pearl" r="2.190433937142651" cx="12.399118369231148" cy="22.318129073543428"></circle><circle class="pearl" r="2.190433937142651" cx="20.14107886386132" cy="11.690576671380018"></circle><circle class="pearl" r="2.190433937142651" cx="25.351645945468196" cy="26.426489948513225"></circle><circle class="pearl" r="2.190433937142651" cx="5.45555413244983" cy="14.383463400696877"></circle><circle class="pearl" r="2.190433937142651" cx="27.007002384921414" cy="14.812215198670392"></circle><circle class="pearl" r="2.190433937142651" cx="17.669394065840073" cy="27.98572181627974"></circle><circle class="pearl" r="2.190433937142651" cx="13.075316060454844" cy="14.529673081448232"></circle><circle class="pearl" r="2.190433937142651" cx="31.363412690087696" cy="21.539471699750266"></circle><circle class="pearl" r="2.190433937142651" cx="6.986823167406808" cy="29.380119115938808"></circle><circle class="pearl" r="2.190433937142651" cx="24.195863946736896" cy="5.095807587217031"></circle><circle class="pearl" r="2.190433937142651" cx="27.929986347293504" cy="33.70997709935047"></circle><circle class="pearl" r="2.190433937142651" cx="8.960309851298339" cy="7.973635910317352"></circle><circle class="pearl" r="2.190433937142651" cx="34.68553340637696" cy="14.890285786129768"></circle><circle class="pearl" r="2.190433937142651" cx="12.548559824642552" cy="33.90934248556552"></circle><circle class="pearl" r="2.190433937142651" cx="16.437930987710008" cy="4.970487855189916"></circle><circle class="pearl" r="2.190433937142651" cx="33.26719371328966" cy="28.885282914155283"></circle><circle class="pearl" r="2.190433937142651" cx="4.745924110358729" cy="21.949095191008542"></circle><circle class="pearl" r="2.190433937142651" cx="31.34694409707199" cy="8.181149473979769"></circle><circle class="pearl" r="2.190433937142651" cx="20.521343379892976" cy="35.34248064375117"></circle></g><text id="5" class="legendSampleValue" text-anchor="middle" transform="translate(45,8)" x="0" y="328.8389190691412" style="fill: black; font-size: 0.7rem;">1.5k</text><text id="coloringDisclaimer" transform="translate(45,8)" text-anchor="middle" x="0" y="343.8389190691412" style="font-size: 0.7rem; opacity: 0.6;">(note: coloring</text><text id="coloringDisclaimer" transform="translate(45,8)" text-anchor="middle" x="0" y="358.8389190691412" style="font-size: 0.7rem; opacity: 0.6;">is random)</text></g></svg>