<?xml version="1.0" standalone="no"?>
<?xml-stylesheet xmlns="http://www.w3.org/2000/svg" type="text/css" href="style.css"?>
<svg id="syntheticVisB" class="default" xTitle="Percent Cat Owners" yTitle="Percent Dog Owners" rTitle="Population" chartTitle="Towns in Vizzyland" width="500" height="400" xmlns="http://www.w3.org/2000/svg"><text id="chartTitle" text-anchor="middle" transform="translate(250,20)" x="0" y="0" style="fill: black; font-size: 1.2rem;">Towns in Vizzyland</text><g id="yAxis" transform="translate(50,30)" fill="none" font-size="10" font-family="sans-serif" text-anchor="end"><path class="domain" stroke="currentColor" d="M-6,280H0V40H-6"></path><g class="tick" opacity="1" transform="translate(0,280)"><line stroke="currentColor" x2="-6"></line><text fill="currentColor" x="-9" dy="0.32em">0</text></g><g class="tick" opacity="1" transform="translate(0,254.53585130361125)"><line stroke="currentColor" x2="-6"></line><text fill="currentColor" x="-9" dy="0.32em">10</text></g><g class="tick" opacity="1" transform="translate(0,229.0717026072225)"><line stroke="currentColor" x2="-6"></line><text fill="currentColor" x="-9" dy="0.32em">20</text></g><g class="tick" opacity="1" transform="translate(0,203.60755391083376)"><line stroke="currentColor" x2="-6"></line><text fill="currentColor" x="-9" dy="0.32em">30</text></g><g class="tick" opacity="1" transform="translate(0,178.14340521444504)"><line stroke="currentColor" x2="-6"></line><text fill="currentColor" x="-9" dy="0.32em">40</text></g><g class="tick" opacity="1" transform="translate(0,152.67925651805626)"><line stroke="currentColor" x2="-6"></line><text fill="currentColor" x="-9" dy="0.32em">50</text></g><g class="tick" opacity="1" transform="translate(0,127.21510782166752)"><line stroke="currentColor" x2="-6"></line><text fill="currentColor" x="-9" dy="0.32em">60</text></g><g class="tick" opacity="1" transform="translate(0,101.75095912527878)"><line stroke="currentColor" x2="-6"></line><text fill="currentColor" x="-9" dy="0.32em">70</text></g><g class="tick" opacity="1" transform="translate(0,76.28681042889005)"><line stroke="currentColor" x2="-6"></line><text fill="currentColor" x="-9" dy="0.32em">80</text></g><g class="tick" opacity="1" transform="translate(0,50.8226617325013)"><line stroke="currentColor" x2="-6"></line><text fill="currentColor" x="-9" dy="0.32em">90</text></g></g><g id="xAxis" transform="translate(60,360)" fill="none" font-size="10" font-family="sans-serif" text-anchor="middle"><path class="domain" stroke="currentColor" d="M40,6V0H270V6"></path><g class="tick" opacity="1" transform="translate(40,0)"><line stroke="currentColor" y2="6"></line><text fill="currentColor" y="9" dy="0.71em">0</text></g><g class="tick" opacity="1" transform="translate(63,0)"><line stroke="currentColor" y2="6"></line><text fill="currentColor" y="9" dy="0.71em">10</text></g><g class="tick" opacity="1" transform="translate(86,0)"><line stroke="currentColor" y2="6"></line><text fill="currentColor" y="9" dy="0.71em">20</text></g><g class="tick" opacity="1" transform="translate(109,0)"><line stroke="currentColor" y2="6"></line><text fill="currentColor" y="9" dy="0.71em">30</text></g><g class="tick" opacity="1" transform="translate(132,0)"><line stroke="currentColor" y2="6"></line><text fill="currentColor" y="9" dy="0.71em">40</text></g><g class="tick" opacity="1" transform="translate(155,0)"><line stroke="currentColor" y2="6"></line><text fill="currentColor" y="9" dy="0.71em">50</text></g><g class="tick" opacity="1" transform="translate(178,0)"><line stroke="currentColor" y2="6"></line><text fill="currentColor" y="9" dy="0.71em">60</text></g><g class="tick" opacity="1" transform="translate(201,0)"><line stroke="currentColor" y2="6"></line><text fill="currentColor" y="9" dy="0.71em">70</text></g><g class="tick" opacity="1" transform="translate(224,0)"><line stroke="currentColor" y2="6"></line><text fill="currentColor" y="9" dy="0.71em">80</text></g><g class="tick" opacity="1" transform="translate(247,0)"><line stroke="currentColor" y2="6"></line><text fill="currentColor" y="9" dy="0.71em">90</text></g><g class="tick" opacity="1" transform="translate(270,0)"><line stroke="currentColor" y2="6"></line><text fill="currentColor" y="9" dy="0.71em">100</text></g></g><g id="labels"><text id="xTitle" text-anchor="middle" transform="translate(250,350)" x="0" y="40" style="fill: black; font-size: 0.8rem;">Percent Cat Owners</text><g id="group-yTitle" transform="translate(60,190)"><text id="yTitle" text-anchor="middle" transform="rotate(-90)" y="-45" style="fill: black; font-size: 0.8rem;">Percent Dog Owners</text></g></g><g id="quadrant_lines" transform="translate(60,30)"><line id="verticalQuadrantLine" x1="155" y1="20" x2="155" y2="300" class="quadrantLine"></line><line id="horizontalQuadrantLine" x1="20" y1="160" x2="290" y2="160" class="quadrantLine"></line></g><g id="chart" transform="translate(60,30)"><g class="bobaCup bright" cupRadius="40" width="80" height="80" pearlRadius="5.476084842856627" pearlCount="20" transform="translate(0,183.2079695470639)"><circle class="pool" r="40" cx="40" cy="40" style="stroke-width: 1; fill: rgb(127, 205, 187);"></circle><circle class="pearl" r="4.380867874285302" cx="43.744254273596496" cy="39.680254153566786"></circle><circle class="pearl" r="4.380867874285302" cx="28.437209747743065" cy="43.05253710643598"></circle><circle class="pearl" r="4.380867874285302" cx="40.43982566312289" cy="22.428744625985598"></circle><circle class="pearl" r="4.380867874285302" cx="50.20908333634776" cy="54.02865153787438"></circle><circle class="pearl" r="4.380867874285302" cx="10.051659708083633" cy="28.29727323861887"></circle><circle class="pearl" r="4.380867874285302" cx="54.568634257838156" cy="28.474978999778322"></circle><circle class="pearl" r="4.380867874285302" cx="34.86985197188746" cy="57.27414673053024"></circle><circle class="pearl" r="4.380867874285302" cx="25.86891319552522" cy="27.890168941053528"></circle><circle class="pearl" r="4.380867874285302" cx="61.15160097422234" cy="42.80174300536202"></circle><circle class="pearl" r="4.380867874285302" cx="18.26225020160879" cy="55.044406095846384"></circle><circle class="pearl" r="4.380867874285302" cx="49.201230962870156" cy="9.37411224623171"></circle><circle class="pearl" r="4.380867874285302" cx="57.24604509085917" cy="67.789742616149"></circle><circle class="pearl" r="4.380867874285302" cx="17.173546293154654" cy="15.45402629711672"></circle><circle class="pearl" r="4.380867874285302" cx="70.48058796122504" cy="30.204398621188155"></circle><circle class="pearl" r="4.380867874285302" cx="24.105511537462792" cy="68.4050275837443"></circle><circle class="pearl" r="4.380867874285302" cx="32.2176809243996" cy="9.065805646706231"></circle><circle class="pearl" r="4.380867874285302" cx="67.91435300458772" cy="56.98281099664498"></circle><circle class="pearl" r="4.380867874285302" cx="8.454573921718996" cy="43.49667687179387"></circle><circle class="pearl" r="4.380867874285302" cx="63.49047240097863" cy="15.925564903447587"></circle><circle class="pearl" r="4.380867874285302" cx="41.816739339723085" cy="71.65727547151195"></circle></g><g class="bobaCup bright" cupRadius="37.476365980457985" width="74.95273196091597" height="74.95273196091597" pearlRadius="5.476084842856627" pearlCount="17" transform="translate(206.71395349618643,149.97482359750776)"><circle class="pool" r="37.476365980457985" cx="37.476365980457985" cy="37.476365980457985" style="stroke-width: 1; fill: rgb(127, 205, 187);"></circle><circle class="pearl" r="4.380867874285302" cx="37.17762132248236" cy="37.08773787426274"></circle><circle class="pearl" r="4.380867874285302" cx="27.50286525457005" cy="49.702042692642934"></circle><circle class="pearl" r="4.380867874285302" cx="32.685043913117354" cy="21.930570043747178"></circle><circle class="pearl" r="4.380867874285302" cx="42.88334875225257" cy="51.61256274124507"></circle><circle class="pearl" r="4.380867874285302" cx="21.563355124610794" cy="35.27392030803034"></circle><circle class="pearl" r="4.380867874285302" cx="47.74479791897157" cy="25.526121119450234"></circle><circle class="pearl" r="4.380867874285302" cx="32.780312426846194" cy="64.81475946535244"></circle><circle class="pearl" r="4.380867874285302" cx="20.58091658348102" cy="12.326029274733948"></circle><circle class="pearl" r="4.380867874285302" cx="53.787992831353684" cy="40.048239482489585"></circle><circle class="pearl" r="4.380867874285302" cx="9.118683646431307" cy="45.260085102685096"></circle><circle class="pearl" r="4.380867874285302" cx="59.208278291647325" cy="15.245829298603013"></circle><circle class="pearl" r="4.380867874285302" cx="53.12721613006902" cy="63.22677551819001"></circle><circle class="pearl" r="4.380867874285302" cx="10.835893311313932" cy="23.92866156704161"></circle><circle class="pearl" r="4.380867874285302" cx="65.80183506896614" cy="29.54244735766963"></circle><circle class="pearl" r="4.380867874285302" cx="15.651294823873535" cy="59.640379902428"></circle><circle class="pearl" r="4.380867874285302" cx="42.333534850770974" cy="8.617539057732628"></circle><circle class="pearl" r="4.380867874285302" cx="63.58797495645004" cy="52.31616459288062"></circle></g><g class="bobaCup bright" cupRadius="34.397275315379986" width="68.79455063075997" height="68.79455063075997" pearlRadius="5.4760848428566264" pearlCount="14" transform="translate(166.50199317191056,214.95284281303003)"><circle class="pool" r="34.397275315379986" cx="34.397275315379986" cy="34.397275315379986" style="stroke-width: 1; fill: rgb(29, 145, 192);"></circle><circle class="pearl" r="4.380867874285301" cx="43.549464619352" cy="26.549169322846012"></circle><circle class="pearl" r="4.380867874285301" cx="27.202895742439598" cy="44.6582994710363"></circle><circle class="pearl" r="4.380867874285301" cx="27.60966482495381" cy="25.45847932851045"></circle><circle class="pearl" r="4.380867874285301" cx="42.96780429449234" cy="42.49846652733637"></circle><circle class="pearl" r="4.380867874285301" cx="14.116404580473333" cy="35.5240717856893"></circle><circle class="pearl" r="4.380867874285301" cx="54.48240236772113" cy="14.971133302289749"></circle><circle class="pearl" r="4.380867874285301" cx="30.580725622875573" cy="60.280715834308005"></circle><circle class="pearl" r="4.380867874285301" cx="23.9970768556244" cy="9.911400730391447"></circle><circle class="pearl" r="4.380867874285301" cx="58.54469515864013" cy="45.80970822605529"></circle><circle class="pearl" r="4.380867874285301" cx="12.814666754277512" cy="51.43006148760021"></circle><circle class="pearl" r="4.380867874285301" cx="39.914417674467444" cy="8.746789731596825"></circle><circle class="pearl" r="4.380867874285301" cx="47.96128632898504" cy="57.70579808227931"></circle><circle class="pearl" r="4.380867874285301" cx="11.565436530472267" cy="19.772259104817756"></circle><circle class="pearl" r="4.380867874285301" cx="60.19833235919808" cy="29.9037461801632"></circle></g><g class="bobaCup bright" cupRadius="31.799327599010997" width="63.598655198021994" height="63.598655198021994" pearlRadius="5.476084842856628" pearlCount="12" transform="translate(66.31480059681176,30.068256442724095)"><circle class="pool" r="31.799327599010997" cx="31.799327599010997" cy="31.799327599010997" style="stroke-width: 1; fill: rgb(29, 145, 192);"></circle><circle class="pearl" r="4.380867874285303" cx="35.0338453451954" cy="22.788507342833128"></circle><circle class="pearl" r="4.380867874285303" cx="22.814856696874386" cy="35.08466972021775"></circle><circle class="pearl" r="4.380867874285303" cx="28.772791465166698" cy="8.445801069594527"></circle><circle class="pearl" r="4.380867874285303" cx="38.200593994832225" cy="38.191595253516695"></circle><circle class="pearl" r="4.380867874285303" cx="8.44491661542786" cy="28.78205640773588"></circle><circle class="pearl" r="4.380867874285303" cx="54.74150778806444" cy="25.880456951466975"></circle><circle class="pearl" r="4.380867874285303" cx="25.970723574754718" cy="54.75847312087085"></circle><circle class="pearl" r="4.380867874285303" cx="13.876578233511108" cy="13.833450421441238"></circle><circle class="pearl" r="4.380867874285303" cx="53.67983935730478" cy="41.81165170637492"></circle><circle class="pearl" r="4.380867874285303" cx="12.108229710883723" cy="46.886232411706885"></circle><circle class="pearl" r="4.380867874285303" cx="46.808400546949" cy="12.066420755377742"></circle><circle class="pearl" r="4.380867874285303" cx="43.07131063519575" cy="53.23236674665415"></circle></g><g class="bobaCup bright" cupRadius="31.369263868460298" width="62.738527736920595" height="62.738527736920595" pearlRadius="5.476084842856628" pearlCount="12" transform="translate(71.51261190358747,17.925342497739198)"><circle class="pool" r="31.369263868460298" cx="31.369263868460298" cy="31.369263868460298" style="stroke-width: 1; fill: rgb(65, 182, 196);"></circle><circle class="pearl" r="4.380867874285303" cx="34.57408187263656" cy="22.47459835770655"></circle><circle class="pearl" r="4.380867874285303" cx="22.4902296138141" cy="34.58474336158988"></circle><circle class="pearl" r="4.380867874285303" cx="28.562701089944483" cy="8.427248273209198"></circle><circle class="pearl" r="4.380867874285303" cx="37.52002162602147" cy="37.626389940178015"></circle><circle class="pearl" r="4.380867874285303" cx="8.429617305632885" cy="28.53645209096843"></circle><circle class="pearl" r="4.380867874285303" cx="54.003355121082514" cy="26.170877363319075"></circle><circle class="pearl" r="4.380867874285303" cx="26.307728936169624" cy="54.026040547962936"></circle><circle class="pearl" r="4.380867874285303" cx="13.78870346815404" cy="13.690821725759083"></circle><circle class="pearl" r="4.380867874285303" cx="52.61208348163907" cy="41.91284286305086"></circle><circle class="pearl" r="4.380867874285303" cx="12.329405358034105" cy="46.74729229604198"></circle><circle class="pearl" r="4.380867874285303" cx="46.67078006342979" cy="12.286512002770827"></circle><circle class="pearl" r="4.380867874285303" cx="42.06490604054617" cy="52.557374108152125"></circle></g><g class="bobaCup bright" cupRadius="30.807119789595557" width="61.614239579191114" height="61.614239579191114" pearlRadius="5.476084842856627" pearlCount="11" transform="translate(33.945954622541734,9.192880210404443)"><circle class="pool" r="30.807119789595557" cx="30.807119789595557" cy="30.807119789595557" style="stroke-width: 1; fill: rgb(65, 182, 196);"></circle><circle class="pearl" r="4.380867874285302" cx="38.78557657875859" cy="31.006866371833688"></circle><circle class="pearl" r="4.380867874285302" cx="23.271202995130167" cy="34.36217795190194"></circle><circle class="pearl" r="4.380867874285302" cx="28.427750795408084" cy="19.045819588968364"></circle><circle class="pearl" r="4.380867874285302" cx="42.11448038816051" cy="51.162648504730576"></circle><circle class="pearl" r="4.380867874285302" cx="8.379616117475951" cy="28.61389073547629"></circle><circle class="pearl" r="4.380867874285302" cx="52.101698721243004" cy="22.254113831652415"></circle><circle class="pearl" r="4.380867874285302" cx="26.33665599404726" cy="52.98670978437185"></circle><circle class="pearl" r="4.380867874285302" cx="13.61559069835101" cy="13.544334256799466"></circle><circle class="pearl" r="4.380867874285302" cx="52.17000075682131" cy="39.12014019077246"></circle><circle class="pearl" r="4.380867874285302" cx="12.208890781402353" cy="45.82331403414781"></circle><circle class="pearl" r="4.380867874285302" cx="41.66216332792408" cy="10.277217691536872"></circle></g><g class="bobaCup bright" cupRadius="28.99378223292009" width="57.98756446584018" height="57.98756446584018" pearlRadius="5.4760848428566264" pearlCount="10" transform="translate(161.09246113694604,119.32133293144298)"><circle class="pool" r="28.99378223292009" cx="28.99378223292009" cy="28.99378223292009" style="stroke-width: 1; fill: rgb(65, 182, 196);"></circle><circle class="pearl" r="4.380867874285301" cx="35.40708398660605" cy="24.485352132212682"></circle><circle class="pearl" r="4.380867874285301" cx="23.19967359478924" cy="33.310315844433106"></circle><circle class="pearl" r="4.380867874285301" cx="29.401801907626545" cy="9.566360598668531"></circle><circle class="pearl" r="4.380867874285301" cx="43.73401987756768" cy="45.65961040376458"></circle><circle class="pearl" r="4.380867874285301" cx="8.338155120628093" cy="27.53525610549902"></circle><circle class="pearl" r="4.380867874285301" cx="44.613527685898205" cy="12.868543279344697"></circle><circle class="pearl" r="4.380867874285301" cx="28.297665972362367" cy="49.67776022189876"></circle><circle class="pearl" r="4.380867874285301" cx="13.735375320461939" cy="12.64121427731718"></circle><circle class="pearl" r="4.380867874285301" cx="49.61704501640305" cy="30.993933106051465"></circle><circle class="pearl" r="4.380867874285301" cx="13.365429618809857" cy="45.11351516455901"></circle></g><g class="bobaCup bright" cupRadius="27.54436418163371" width="55.08872836326742" height="55.08872836326742" pearlRadius="5.4760848428566264" pearlCount="9" transform="translate(189.58249964719766,252.4556358183663)"><circle class="pool" r="27.54436418163371" cx="27.54436418163371" cy="27.54436418163371" style="stroke-width: 1; fill: rgb(127, 205, 187);"></circle><circle class="pearl" r="4.380867874285301" cx="33.047274878525194" cy="23.242135765832998"></circle><circle class="pearl" r="4.380867874285301" cx="21.63162557180662" cy="32.269537014332236"></circle><circle class="pearl" r="4.380867874285301" cx="27.79241681986708" cy="8.30256340721054"></circle><circle class="pearl" r="4.380867874285301" cx="39.017117058241496" cy="44.28424236203326"></circle><circle class="pearl" r="4.380867874285301" cx="8.306400473710577" cy="27.021979332347275"></circle><circle class="pearl" r="4.380867874285301" cx="42.00192099742414" cy="12.400746145611057"></circle><circle class="pearl" r="4.380867874285301" cx="23.484100802951485" cy="46.486380416781564"></circle><circle class="pearl" r="4.380867874285301" cx="12.87666802095133" cy="12.531637106171951"></circle><circle class="pearl" r="4.380867874285301" cx="46.60621804012859" cy="30.69742523507423"></circle></g><g class="bobaCup bright" cupRadius="25.538999426295153" width="51.077998852590305" height="51.077998852590305" pearlRadius="5.476084842856627" pearlCount="8" transform="translate(153.5851908177214,220.82258448073625)"><circle class="pool" r="25.538999426295153" cx="25.538999426295153" cy="25.538999426295153" style="stroke-width: 1; fill: rgb(127, 205, 187);"></circle><circle class="pearl" r="4.380867874285302" cx="27.569027822231902" cy="25.895745002111788"></circle><circle class="pearl" r="4.380867874285302" cx="12.325141271074703" cy="39.092402416129694"></circle><circle class="pearl" r="4.380867874285302" cx="30.583542357644752" cy="8.804610001444587"></circle><circle class="pearl" r="4.380867874285302" cx="40.924309112923204" cy="35.08772054914022"></circle><circle class="pearl" r="4.380867874285302" cx="8.322797172429468" cy="24.494922820914454"></circle><circle class="pearl" r="4.380867874285302" cx="41.98599458838972" cy="19.2338325676359"></circle><circle class="pearl" r="4.380867874285302" cx="27.416470221482406" cy="42.70744882896213"></circle><circle class="pearl" r="4.380867874285302" cx="14.970312100644463" cy="10.590857932057741"></circle></g><g class="bobaCup bright" cupRadius="19.58202253952997" width="39.16404507905994" height="39.16404507905994" pearlRadius="5.476084842856627" pearlCount="4" transform="translate(192.29663405008662,167.36405658943144)"><circle class="pool" r="19.58202253952997" cx="19.58202253952997" cy="19.58202253952997" style="stroke-width: 1; fill: rgb(29, 145, 192);"></circle><circle class="pearl" r="4.380867874285302" cx="29.86038064134386" cy="13.397649548704198"></circle><circle class="pearl" r="4.380867874285302" cx="11.885832290202655" cy="25.59347725073032"></circle><circle class="pearl" r="4.380867874285302" cx="14.49430950392878" cy="8.973926886773405"></circle><circle class="pearl" r="4.380867874285302" cx="27.46235502145059" cy="29.20698025927298"></circle></g><g class="bobaCup bright" cupRadius="19.523014383740723" width="39.046028767481445" height="39.046028767481445" pearlRadius="5.476084842856626" pearlCount="4" transform="translate(183.7794275833747,220.55281337072842)"><circle class="pool" r="19.523014383740723" cx="19.523014383740723" cy="19.523014383740723" style="stroke-width: 1; fill: rgb(65, 182, 196);"></circle><circle class="pearl" r="4.3808678742853004" cx="29.721923007795763" cy="13.287234360570578"></circle><circle class="pearl" r="4.3808678742853004" cx="11.780659588162617" cy="25.504909998048728"></circle><circle class="pearl" r="4.3808678742853004" cx="14.314712033818058" cy="9.008997060801963"></circle><circle class="pearl" r="4.3808678742853004" cx="27.36094827690943" cy="29.102140705848793"></circle></g><g class="bobaCup bright" cupRadius="15.622570743121107" width="31.245141486242215" height="31.245141486242215" pearlRadius="5.4760848428566264" pearlCount="3" transform="translate(202.44141777020567,205.6340721269224)"><circle class="pool" r="15.622570743121107" cx="15.622570743121107" cy="15.622570743121107" style="stroke-width: 1; fill: rgb(29, 145, 192);"></circle><circle class="pearl" r="4.380867874285301" cx="23.724761319148485" cy="18.22884831356353"></circle><circle class="pearl" r="4.380867874285301" cx="8.962759126706977" cy="22.453060666309092"></circle><circle class="pearl" r="4.380867874285301" cx="12.170054558801414" cy="7.687716841553023"></circle></g><g class="bobaCup bright" cupRadius="14.558411994247933" width="29.116823988495867" height="29.116823988495867" pearlRadius="5.476084842856627" pearlCount="2" transform="translate(255.44158800575207,225.39889569983401)"><circle class="pool" r="14.558411994247933" cx="14.558411994247933" cy="14.558411994247933" style="stroke-width: 1; fill: rgb(29, 145, 192);"></circle><circle class="pearl" r="4.380867874285302" cx="21.348994346250727" cy="10.902993572713887"></circle><circle class="pearl" r="4.380867874285302" cx="8.583862618293475" cy="20.532963411033897"></circle></g><g class="bobaCup bright" cupRadius="13.830081256140623" width="27.660162512281246" height="27.660162512281246" pearlRadius="5.476084842856627" pearlCount="2" transform="translate(63.299735214081956,49.18427469109816)"><circle class="pool" r="13.830081256140623" cx="13.830081256140623" cy="13.830081256140623" style="stroke-width: 1; fill: rgb(127, 205, 187);"></circle><circle class="pearl" r="4.380867874285302" cx="19.192782037501175" cy="8.383485201546055"></circle><circle class="pearl" r="4.380867874285302" cx="8.467380474780072" cy="19.27667731073519"></circle></g><g class="bobaCup bright" cupRadius="9.521674390375004" width="19.04334878075001" height="19.04334878075001" pearlRadius="5.476084842856628" pearlCount="1" transform="translate(85.82043604014564,36.048081207307376)"><circle class="pool" r="9.521674390375004" cx="9.521674390375004" cy="9.521674390375004" style="stroke-width: 1; fill: rgb(127, 205, 187);"></circle><circle class="pearl" r="4.380867874285303" cx="11.741902323607839" cy="9.521674390375004"></circle></g></g><g id="legendDividerGroup" transform="translate(390,0)" height="400"><rect class="legendDivider" height="400" width="110"></rect></g><g id="legend" transform="translate(390,13.247252043841854)" width="110" height="320"><rect class="legendBorder" transform="translate(0,0)" width="110" height="353.5054959123163"></rect><text id="rTitle" text-anchor="middle" alignment-baseline="hanging" transform="translate(55,0)" x="0" y="0" style="fill: black; font-size: 0.8rem;">Population</text><text id="bobaValue" text-anchor="middle" alignment-baseline="hanging" transform="translate(55,15)" x="0" y="0" style="fill: black; font-size: 0.7rem;">(1 Pearl =   75)</text><g class="bright" cupRadius="9.521674390375004" width="19.04334878075001" height="19.04334878075001" pearlRadius="5.476084842856628" pearlCount="1" transform="translate(45.478325609624996,40)"><circle class="pool" r="9.521674390375004" cx="9.521674390375004" cy="9.521674390375004" style="stroke-width: 1; fill: rgb(29, 145, 192);"></circle><circle class="pearl" r="4.380867874285303" cx="11.741902323607839" cy="9.521674390375004"></circle></g><text id="0" class="legendSampleValue" text-anchor="middle" transform="translate(55,8)" x="0" y="64.04334878075001" style="fill: black; font-size: 0.7rem;">  85</text><g class="bright" cupRadius="24.264041908584325" width="48.52808381716865" height="48.52808381716865" pearlRadius="5.476084842856627" pearlCount="7" transform="translate(30.735958091415675,84.04334878075002)"><circle class="pool" r="24.264041908584325" cx="24.264041908584325" cy="24.264041908584325" style="stroke-width: 1; fill: rgb(29, 145, 192);"></circle><circle class="pearl" r="4.380867874285302" cx="25.11947434988699" cy="24.458597645955578"></circle><circle class="pearl" r="4.380867874285302" cx="9.100881368451912" cy="30.44109203020298"></circle><circle class="pearl" r="4.380867874285302" cx="25.089444965744857" cy="8.315489612432373"></circle><circle class="pearl" r="4.380867874285302" cx="37.25642620174438" cy="35.896604039044654"></circle><circle class="pearl" r="4.380867874285302" cx="10.351792257401556" cy="14.502103835203306"></circle><circle class="pearl" r="4.380867874285302" cx="38.90218960634682" cy="16.357162008788197"></circle><circle class="pearl" r="4.380867874285302" cx="21.832780857446444" cy="40.10452369760254"></circle></g><text id="1" class="legendSampleValue" text-anchor="middle" transform="translate(55,8)" x="0" y="137.57143259791866" style="fill: black; font-size: 0.7rem;"> 550</text><g class="bright" cupRadius="32.967031657198824" width="65.93406331439765" height="65.93406331439765" pearlRadius="5.4760848428566264" pearlCount="13" transform="translate(22.032968342801176,157.57143259791866)"><circle class="pool" r="32.967031657198824" cx="32.967031657198824" cy="32.967031657198824" style="stroke-width: 1; fill: rgb(29, 145, 192);"></circle><circle class="pearl" r="4.380867874285301" cx="42.68382151136881" cy="35.440536943327146"></circle><circle class="pearl" r="4.380867874285301" cx="29.50063306740971" cy="43.37835683282163"></circle><circle class="pearl" r="4.380867874285301" cx="33.71828534468003" cy="22.753219945089484"></circle><circle class="pearl" r="4.380867874285301" cx="50.941885608306016" cy="49.09899058743049"></circle><circle class="pearl" r="4.380867874285301" cx="20.128029638324225" cy="30.557684594929167"></circle><circle class="pearl" r="4.380867874285301" cx="54.73768064278018" cy="19.45798831688502"></circle><circle class="pearl" r="4.380867874285301" cx="18.41583347639156" cy="54.24746830086044"></circle><circle class="pearl" r="4.380867874285301" cx="26.009630900730624" cy="9.04395715590555"></circle><circle class="pearl" r="4.380867874285301" cx="57.57055861869801" cy="34.98888739024607"></circle><circle class="pearl" r="4.380867874285301" cx="9.57598991440849" cy="42.04510237645898"></circle><circle class="pearl" r="4.380867874285301" cx="42.43508708796876" cy="9.690303647684162"></circle><circle class="pearl" r="4.380867874285301" cx="37.26997173444567" cy="57.350595265503664"></circle><circle class="pearl" r="4.380867874285301" cx="12.581046052021764" cy="16.72337388080597"></circle></g><text id="2" class="legendSampleValue" text-anchor="middle" transform="translate(55,8)" x="0" y="228.5054959123163" style="fill: black; font-size: 0.7rem;">1.0k</text><g class="bright" cupRadius="39.99999999999999" width="79.99999999999999" height="79.99999999999999" pearlRadius="5.4760848428566264" pearlCount="19" transform="translate(15.000000000000007,248.5054959123163)"><circle class="pool" r="39.99999999999999" cx="39.99999999999999" cy="39.99999999999999" style="stroke-width: 1; fill: rgb(29, 145, 192);"></circle><circle class="pearl" r="4.380867874285301" cx="40.60298050443854" cy="39.85103044537889"></circle><circle class="pearl" r="4.380867874285301" cx="32.44059618960738" cy="54.00771111678133"></circle><circle class="pearl" r="4.380867874285301" cx="44.18254292104656" cy="23.161066528461124"></circle><circle class="pearl" r="4.380867874285301" cx="48.36222166107501" cy="54.711152268523016"></circle><circle class="pearl" r="4.380867874285301" cx="23.47610154055014" cy="40.882252819062465"></circle><circle class="pearl" r="4.380867874285301" cx="55.52325629191525" cy="34.132170987535886"></circle><circle class="pearl" r="4.380867874285301" cx="33.2355426633345" cy="69.9418510505684"></circle><circle class="pearl" r="4.380867874285301" cx="28.703553048737096" cy="25.82240917261862"></circle><circle class="pearl" r="4.380867874285301" cx="62.96382770922642" cy="48.25573900618731"></circle><circle class="pearl" r="4.380867874285301" cx="11.002454672313007" cy="50.78097185814565"></circle><circle class="pearl" r="4.380867874285301" cx="53.59158417454617" cy="10.681387450991926"></circle><circle class="pearl" r="4.380867874285301" cx="49.1551317898641" cy="70.6367553748662"></circle><circle class="pearl" r="4.380867874285301" cx="16.28013153250666" cy="16.093251228523485"></circle><circle class="pearl" r="4.380867874285301" cx="71.38534243003733" cy="35.004122917400174"></circle><circle class="pearl" r="4.380867874285301" cx="18.024016239727555" cy="65.12094331032122"></circle><circle class="pearl" r="4.380867874285301" cx="34.979044358192176" cy="8.617822574701718"></circle><circle class="pearl" r="4.380867874285301" cx="63.67471655594548" cy="63.93995233378563"></circle><circle class="pearl" r="4.380867874285301" cx="8.617235843336003" cy="34.9836838258465"></circle><circle class="pearl" r="4.380867874285301" cx="66.26276039180652" cy="19.86754846266635"></circle></g><text id="3" class="legendSampleValue" text-anchor="middle" transform="translate(55,8)" x="0" y="333.5054959123163" style="fill: black; font-size: 0.7rem;">1.5k</text><text id="coloringDisclaimer" transform="translate(55,8)" text-anchor="middle" x="0" y="348.5054959123163" style="font-size: 0.7rem; opacity: 0.6;">(note: coloring</text><text id="coloringDisclaimer" transform="translate(55,8)" text-anchor="middle" x="0" y="363.5054959123163" style="font-size: 0.7rem; opacity: 0.6;">is random)</text></g></svg>