<?xml version="1.0" standalone="no"?>
<?xml-stylesheet xmlns="http://www.w3.org/2000/svg" type="text/css" href="style.css"?>
<svg id="syntheticVisC" class="default" xTitle="Percent Cat Owners" yTitle="Percent Dog Owners" rTitle="Population" chartTitle="Towns in Vizzyland" width="500" height="400" xmlns="http://www.w3.org/2000/svg"><text id="chartTitle" text-anchor="middle" transform="translate(250,20)" x="0" y="0" style="fill: black; font-size: 1.2rem;">Towns in Vizzyland</text><g id="yAxis" transform="translate(50,30)" fill="none" font-size="10" font-family="sans-serif" text-anchor="end"><path class="domain" stroke="currentColor" d="M-6,280H0V40H-6"></path><g class="tick" opacity="1" transform="translate(0,280)"><line stroke="currentColor" x2="-6"></line><text fill="currentColor" x="-9" dy="0.32em">0</text></g><g class="tick" opacity="1" transform="translate(0,256)"><line stroke="currentColor" x2="-6"></line><text fill="currentColor" x="-9" dy="0.32em">10</text></g><g class="tick" opacity="1" transform="translate(0,232)"><line stroke="currentColor" x2="-6"></line><text fill="currentColor" x="-9" dy="0.32em">20</text></g><g class="tick" opacity="1" transform="translate(0,208)"><line stroke="currentColor" x2="-6"></line><text fill="currentColor" x="-9" dy="0.32em">30</text></g><g class="tick" opacity="1" transform="translate(0,184)"><line stroke="currentColor" x2="-6"></line><text fill="currentColor" x="-9" dy="0.32em">40</text></g><g class="tick" opacity="1" transform="translate(0,160)"><line stroke="currentColor" x2="-6"></line><text fill="currentColor" x="-9" dy="0.32em">50</text></g><g class="tick" opacity="1" transform="translate(0,136)"><line stroke="currentColor" x2="-6"></line><text fill="currentColor" x="-9" dy="0.32em">60</text></g><g class="tick" opacity="1" transform="translate(0,112.00000000000001)"><line stroke="currentColor" x2="-6"></line><text fill="currentColor" x="-9" dy="0.32em">70</text></g><g class="tick" opacity="1" transform="translate(0,87.99999999999999)"><line stroke="currentColor" x2="-6"></line><text fill="currentColor" x="-9" dy="0.32em">80</text></g><g class="tick" opacity="1" transform="translate(0,63.99999999999999)"><line stroke="currentColor" x2="-6"></line><text fill="currentColor" x="-9" dy="0.32em">90</text></g><g class="tick" opacity="1" transform="translate(0,40)"><line stroke="currentColor" x2="-6"></line><text fill="currentColor" x="-9" dy="0.32em">100</text></g></g><g id="xAxis" transform="translate(60,360)" fill="none" font-size="10" font-family="sans-serif" text-anchor="middle"><path class="domain" stroke="currentColor" d="M40,6V0H270V6"></path><g class="tick" opacity="1" transform="translate(40,0)"><line stroke="currentColor" y2="6"></line><text fill="currentColor" y="9" dy="0.71em">0</text></g><g class="tick" opacity="1" transform="translate(63,0)"><line stroke="currentColor" y2="6"></line><text fill="currentColor" y="9" dy="0.71em">10</text></g><g class="tick" opacity="1" transform="translate(86,0)"><line stroke="currentColor" y2="6"></line><text fill="currentColor" y="9" dy="0.71em">20</text></g><g class="tick" opacity="1" transform="translate(109,0)"><line stroke="currentColor" y2="6"></line><text fill="currentColor" y="9" dy="0.71em">30</text></g><g class="tick" opacity="1" transform="translate(132,0)"><line stroke="currentColor" y2="6"></line><text fill="currentColor" y="9" dy="0.71em">40</text></g><g class="tick" opacity="1" transform="translate(155,0)"><line stroke="currentColor" y2="6"></line><text fill="currentColor" y="9" dy="0.71em">50</text></g><g class="tick" opacity="1" transform="translate(178,0)"><line stroke="currentColor" y2="6"></line><text fill="currentColor" y="9" dy="0.71em">60</text></g><g class="tick" opacity="1" transform="translate(201,0)"><line stroke="currentColor" y2="6"></line><text fill="currentColor" y="9" dy="0.71em">70</text></g><g class="tick" opacity="1" transform="translate(224,0)"><line stroke="currentColor" y2="6"></line><text fill="currentColor" y="9" dy="0.71em">80</text></g><g class="tick" opacity="1" transform="translate(247,0)"><line stroke="currentColor" y2="6"></line><text fill="currentColor" y="9" dy="0.71em">90</text></g><g class="tick" opacity="1" transform="translate(270,0)"><line stroke="currentColor" y2="6"></line><text fill="currentColor" y="9" dy="0.71em">100</text></g></g><g id="labels"><text id="xTitle" text-anchor="middle" transform="translate(250,350)" x="0" y="40" style="fill: black; font-size: 0.8rem;">Percent Cat Owners</text><g id="group-yTitle" transform="translate(60,190)"><text id="yTitle" text-anchor="middle" transform="rotate(-90)" y="-45" style="fill: black; font-size: 0.8rem;">Percent Dog Owners</text></g></g><g id="quadrant_lines" transform="translate(60,30)"><line id="verticalQuadrantLine" x1="155" y1="20" x2="155" y2="300" class="quadrantLine"></line><line id="horizontalQuadrantLine" x1="20" y1="160" x2="290" y2="160" class="quadrantLine"></line></g><g id="fireworkChart" transform="translate(60,30)"><path class="link" d="M270,232.44398620497367L276.00859792932897,224.4049226161978" style="stroke: rgb(127, 205, 187);"></path><path class="link" d="M240.5109972422623,222.70662733476786L239.54192653824896,217.4773129420191" style="stroke: rgb(65, 182, 196);"></path><path class="link" d="M104.20757416156991,180.7349264685503L112.65384429815592,183.8176737734864" style="stroke: rgb(65, 182, 196);"></path><path class="link" d="M104.20757416156991,180.7349264685503L99.90553671844118,184.75734510485444" style="stroke: rgb(65, 182, 196);"></path><path class="link" d="M104.20757416156991,180.7349264685503L105.4681972944438,173.22044888239714" style="stroke: rgb(65, 182, 196);"></path><path class="link" d="M79.37399485877694,110.78853761502194L66.30845497909976,114.11513421603904" style="stroke: rgb(29, 145, 192);"></path><path class="link" d="M79.37399485877694,110.78853761502194L77.70931121909535,108.34778857783463" style="stroke: rgb(29, 145, 192);"></path><path class="link" d="M79.37399485877694,110.78853761502194L89.08040861479981,102.61548680471077" style="stroke: rgb(29, 145, 192);"></path><path class="link" d="M79.37399485877694,110.78853761502194L88.39650108026161,115.40358292645882" style="stroke: rgb(29, 145, 192);"></path><path class="link" d="M79.37399485877694,110.78853761502194L76.99745841899261,121.14339697181136" style="stroke: rgb(29, 145, 192);"></path><path class="link" d="M86.89218679719163,40L85.43627747986268,42.84436047239064" style="stroke: rgb(65, 182, 196);"></path><path class="link" d="M86.89218679719163,40L78.08386577913588,19.836483763121326" style="stroke: rgb(65, 182, 196);"></path><path class="link" d="M86.89218679719163,40L85.31380846136994,30.193501459724153" style="stroke: rgb(65, 182, 196);"></path><path class="link" d="M86.89218679719163,40L96.02174554553031,23.402892672156696" style="stroke: rgb(65, 182, 196);"></path><path class="link" d="M86.89218679719163,40L96.5949211173714,36.24137651956672" style="stroke: rgb(65, 182, 196);"></path><path class="link" d="M86.89218679719163,40L72.72993765340081,32.143771491412224" style="stroke: rgb(65, 182, 196);"></path><path class="link" d="M86.89218679719163,40L72.87000467159174,44.93372522174525" style="stroke: rgb(65, 182, 196);"></path><path class="link" d="M45.77411516350939,77.35014586699268L46.409992551541215,93.51668697475137" style="stroke: rgb(65, 182, 196);"></path><path class="link" d="M45.77411516350939,77.35014586699268L49.614602161470536,68.06945869609608" style="stroke: rgb(65, 182, 196);"></path><path class="link" d="M45.77411516350939,77.35014586699268L59.74376084513769,75.8496087892557" style="stroke: rgb(65, 182, 196);"></path><path class="link" d="M45.77411516350939,77.35014586699268L58.12808351054002,88.47671997833511" style="stroke: rgb(65, 182, 196);"></path><path class="link" d="M45.77411516350939,77.35014586699268L36.22090145155975,85.84840395123408" style="stroke: rgb(65, 182, 196);"></path><path class="link" d="M45.77411516350939,77.35014586699268L26.181923807026784,78.04083529808977" style="stroke: rgb(65, 182, 196);"></path><path class="link" d="M45.77411516350939,77.35014586699268L37.87584946606113,72.93780404935463" style="stroke: rgb(65, 182, 196);"></path><path class="link" d="M45.77411516350939,77.35014586699268L47.9316807727271,80.78169090237394" style="stroke: rgb(65, 182, 196);"></path><path class="link" d="M116.19992785175785,60.90092826158329L118.38755390060001,44.719328139393596" style="stroke: rgb(29, 145, 192);"></path><path class="link" d="M116.19992785175785,60.90092826158329L133.2254146003524,74.99798723491277" style="stroke: rgb(29, 145, 192);"></path><path class="link" d="M116.19992785175785,60.90092826158329L136.45791111640003,62.62783719629836" style="stroke: rgb(29, 145, 192);"></path><path class="link" d="M116.19992785175785,60.90092826158329L133.5916432302739,42.76704942388121" style="stroke: rgb(29, 145, 192);"></path><path class="link" d="M116.19992785175785,60.90092826158329L111.97113071615779,69.41792115007901" style="stroke: rgb(29, 145, 192);"></path><path class="link" d="M116.19992785175785,60.90092826158329L127.28699629899207,53.84394400259158" style="stroke: rgb(29, 145, 192);"></path><path class="link" d="M116.19992785175785,60.90092826158329L115.05483518812008,57.09640753542366" style="stroke: rgb(29, 145, 192);"></path><path class="link" d="M116.19992785175785,60.90092826158329L124.19599416533062,66.12495125216579" style="stroke: rgb(29, 145, 192);"></path><path class="link" d="M116.19992785175785,60.90092826158329L120.94846187910827,78.53595055740169" style="stroke: rgb(29, 145, 192);"></path><path class="link" d="M97.10979117351097,60.39727999238491L90.77863691012689,64.08509339156097" style="stroke: rgb(127, 205, 187);"></path><path class="link" d="M97.10979117351097,60.39727999238491L102.91441311113118,60.55495355223381" style="stroke: rgb(127, 205, 187);"></path><path class="link" d="M97.10979117351097,60.39727999238491L94.05050662586581,51.73137285976052" style="stroke: rgb(127, 205, 187);"></path><path class="link" d="M97.10979117351097,60.39727999238491L81.66770608224056,55.06971579695116" style="stroke: rgb(127, 205, 187);"></path><path class="link" d="M97.10979117351097,60.39727999238491L97.04944262240922,85.10573116332034" style="stroke: rgb(127, 205, 187);"></path><path class="link" d="M97.10979117351097,60.39727999238491L106.1298233830964,48.045717999882" style="stroke: rgb(127, 205, 187);"></path><path class="link" d="M97.10979117351097,60.39727999238491L87.7222597126138,76.37641932802941" style="stroke: rgb(127, 205, 187);"></path><path class="link" d="M97.10979117351097,60.39727999238491L99.9549583703213,72.8480796235631" style="stroke: rgb(127, 205, 187);"></path><path class="link" d="M97.10979117351097,60.39727999238491L78.54365799825159,67.47792663017995" style="stroke: rgb(127, 205, 187);"></path><path class="link" d="M40,51.24690970269381L41.85766970480042,47.14447997452571" style="stroke: rgb(127, 205, 187);"></path><path class="link" d="M40,51.24690970269381L39.95718271643041,59.774537486319446" style="stroke: rgb(127, 205, 187);"></path><path class="link" d="M40,51.24690970269381L29.93378896413841,51.813356720572735" style="stroke: rgb(127, 205, 187);"></path><path class="link" d="M40,51.24690970269381L28.032584216213756,64.44961194484367" style="stroke: rgb(127, 205, 187);"></path><path class="link" d="M40,51.24690970269381L19.970473434758965,43.9900467055961" style="stroke: rgb(127, 205, 187);"></path><path class="link" d="M40,51.24690970269381L31.848727315690088,39.166641197647756" style="stroke: rgb(127, 205, 187);"></path><path class="link" d="M40,51.24690970269381L43.72262764326178,34.521724354081584" style="stroke: rgb(127, 205, 187);"></path><path class="link" d="M40,51.24690970269381L53.70793247275759,42.521711221332104" style="stroke: rgb(127, 205, 187);"></path><path class="link" d="M40,51.24690970269381L51.83346815211321,55.161876753440225" style="stroke: rgb(127, 205, 187);"></path><path class="link" d="M241.75589378834303,280L256.40599099422104,284.585873342775" style="stroke: rgb(127, 205, 187);"></path><path class="link" d="M241.75589378834303,280L236.35211514199025,293.50741429215844" style="stroke: rgb(127, 205, 187);"></path><path class="link" d="M241.75589378834303,280L243.78472379941903,283.23588159996643" style="stroke: rgb(127, 205, 187);"></path><path class="link" d="M241.75589378834303,280L268.9175966320964,285.5941912037022" style="stroke: rgb(127, 205, 187);"></path><path class="link" d="M241.75589378834303,280L249.06765339440832,295.05752056219876" style="stroke: rgb(127, 205, 187);"></path><path class="link" d="M241.75589378834303,280L228.90033033821177,303.7552532189381" style="stroke: rgb(127, 205, 187);"></path><path class="link" d="M241.75589378834303,280L241.59104110367116,305.2776428953549" style="stroke: rgb(127, 205, 187);"></path><path class="link" d="M241.75589378834303,280L219.21378503413413,295.5180732109406" style="stroke: rgb(127, 205, 187);"></path><path class="link" d="M241.75589378834303,280L254.2828840103988,306.5618616700265" style="stroke: rgb(127, 205, 187);"></path><path class="link" d="M241.75589378834303,280L261.74228333294764,296.22666753749763" style="stroke: rgb(127, 205, 187);"></path><path class="link" d="M257.3489324908355,256.4892757167684L263.4577841629018,226.85292708536528" style="stroke: rgb(65, 182, 196);"></path><path class="link" d="M257.3489324908355,256.4892757167684L285.9616545939643,266.85037914725615" style="stroke: rgb(65, 182, 196);"></path><path class="link" d="M257.3489324908355,256.4892757167684L273.66183481890596,263.4692052503015" style="stroke: rgb(65, 182, 196);"></path><path class="link" d="M257.3489324908355,256.4892757167684L276.86425882896725,275.86515627240925" style="stroke: rgb(65, 182, 196);"></path><path class="link" d="M257.3489324908355,256.4892757167684L270.48943094327484,251.22566592140143" style="stroke: rgb(65, 182, 196);"></path><path class="link" d="M257.3489324908355,256.4892757167684L267.09527897718516,239.0470536866437" style="stroke: rgb(65, 182, 196);"></path><path class="link" d="M257.3489324908355,256.4892757167684L261.400281414927,260.3469042217337" style="stroke: rgb(65, 182, 196);"></path><path class="link" d="M257.3489324908355,256.4892757167684L282.77613624208504,254.4929162747082" style="stroke: rgb(65, 182, 196);"></path><path class="link" d="M257.3489324908355,256.4892757167684L264.50779623761133,272.73265600665593" style="stroke: rgb(65, 182, 196);"></path><path class="link" d="M257.3489324908355,256.4892757167684L254.59076646779047,236.06049033034657" style="stroke: rgb(65, 182, 196);"></path><path class="link" d="M257.3489324908355,256.4892757167684L258.1429649619851,248.22538782104596" style="stroke: rgb(65, 182, 196);"></path><path class="link" d="M257.3489324908355,256.4892757167684L279.4002312991168,242.17819527216685" style="stroke: rgb(65, 182, 196);"></path><path class="link" d="M59.158154619117276,181.09887048190888L42.25504290329474,174.42911749714233" style="stroke: rgb(29, 145, 192);"></path><path class="link" d="M59.158154619117276,181.09887048190888L64.13670141831355,177.04794008636614" style="stroke: rgb(29, 145, 192);"></path><path class="link" d="M59.158154619117276,181.09887048190888L72.80775434848078,197.2720366042388" style="stroke: rgb(29, 145, 192);"></path><path class="link" d="M59.158154619117276,181.09887048190888L50.84135315452437,194.72311751514755" style="stroke: rgb(29, 145, 192);"></path><path class="link" d="M59.158154619117276,181.09887048190888L61.092915623040746,202.31732594560603" style="stroke: rgb(29, 145, 192);"></path><path class="link" d="M59.158154619117276,181.09887048190888L74.37943534826228,184.63643337210598" style="stroke: rgb(29, 145, 192);"></path><path class="link" d="M59.158154619117276,181.09887048190888L46.80291148965332,159.18591479189314" style="stroke: rgb(29, 145, 192);"></path><path class="link" d="M59.158154619117276,181.09887048190888L52.4518324856109,182.09253621336083" style="stroke: rgb(29, 145, 192);"></path><path class="link" d="M59.158154619117276,181.09887048190888L40.621459159331565,187.10837988700507" style="stroke: rgb(29, 145, 192);"></path><path class="link" d="M59.158154619117276,181.09887048190888L54.043229261484015,169.48958202868025" style="stroke: rgb(29, 145, 192);"></path><path class="link" d="M59.158154619117276,181.09887048190888L62.59804249440358,189.670487639691" style="stroke: rgb(29, 145, 192);"></path><path class="link" d="M59.158154619117276,181.09887048190888L65.65242043024334,164.35128222972762" style="stroke: rgb(29, 145, 192);"></path><path class="link" d="M59.158154619117276,181.09887048190888L75.84940550725796,171.98537824598017" style="stroke: rgb(29, 145, 192);"></path><path class="link" d="M168.17091973291332,190.4310143178899L170.74156317436217,202.38742911647753" style="stroke: rgb(127, 205, 187);"></path><path class="link" d="M168.17091973291332,190.4310143178899L160.51120115939804,210.0370072709308" style="stroke: rgb(127, 205, 187);"></path><path class="link" d="M168.17091973291332,190.4310143178899L179.43996715613636,182.33398004771888" style="stroke: rgb(127, 205, 187);"></path><path class="link" d="M168.17091973291332,190.4310143178899L148.83498867404947,204.91187767838127" style="stroke: rgb(127, 205, 187);"></path><path class="link" d="M168.17091973291332,190.4310143178899L191.7030080274762,185.84047091353514" style="stroke: rgb(127, 205, 187);"></path><path class="link" d="M168.17091973291332,190.4310143178899L157.66415943921427,184.74619456695854" style="stroke: rgb(127, 205, 187);"></path><path class="link" d="M168.17091973291332,190.4310143178899L182.49558608244106,207.3441946174312" style="stroke: rgb(127, 205, 187);"></path><path class="link" d="M168.17091973291332,190.4310143178899L192.92260453491116,198.52953086079955" style="stroke: rgb(127, 205, 187);"></path><path class="link" d="M168.17091973291332,190.4310143178899L156.32318285811004,172.0385840735281" style="stroke: rgb(127, 205, 187);"></path><path class="link" d="M168.17091973291332,190.4310143178899L169.27453280127767,189.822671533174" style="stroke: rgb(127, 205, 187);"></path><path class="link" d="M168.17091973291332,190.4310143178899L147.4442362206244,192.26043206095173" style="stroke: rgb(127, 205, 187);"></path><path class="link" d="M168.17091973291332,190.4310143178899L178.28987301405482,169.6963957045587" style="stroke: rgb(127, 205, 187);"></path><path class="link" d="M168.17091973291332,190.4310143178899L172.26197787557405,215.0535053437806" style="stroke: rgb(127, 205, 187);"></path><path class="link" d="M168.17091973291332,190.4310143178899L145.98799689955445,179.58816972641512" style="stroke: rgb(127, 205, 187);"></path><path class="link" d="M168.17091973291332,190.4310143178899L167.89255864036562,177.0986451482949" style="stroke: rgb(127, 205, 187);"></path><path class="link" d="M168.17091973291332,190.4310143178899L180.90257529068805,194.7800921604993" style="stroke: rgb(127, 205, 187);"></path><path class="link" d="M168.17091973291332,190.4310143178899L159.09577765269412,197.37325434850376" style="stroke: rgb(127, 205, 187);"></path><path class="link" d="M168.17091973291332,190.4310143178899L166.63833703560093,164.5037587372914" style="stroke: rgb(127, 205, 187);"></path><path class="link" d="M237.4997076476104,262.8155920457294L217.26623703840394,262.05839780657874" style="stroke: rgb(29, 145, 192);"></path><path class="link" d="M237.4997076476104,262.8155920457294L233.84163847599746,275.75964298199335" style="stroke: rgb(29, 145, 192);"></path><path class="link" d="M237.4997076476104,262.8155920457294L237.53448952203132,254.29092490336015" style="stroke: rgb(29, 145, 192);"></path><path class="link" d="M237.4997076476104,262.8155920457294L241.82912231035442,266.0580546395092" style="stroke: rgb(29, 145, 192);"></path><path class="link" d="M237.4997076476104,262.8155920457294L221.12103196789158,240.4775315551694" style="stroke: rgb(29, 145, 192);"></path><path class="link" d="M237.4997076476104,262.8155920457294L252.02527211406323,272.95819360861844" style="stroke: rgb(29, 145, 192);"></path><path class="link" d="M237.4997076476104,262.8155920457294L226.57931479890703,285.49697608506017" style="stroke: rgb(29, 145, 192);"></path><path class="link" d="M237.4997076476104,262.8155920457294L209.228590064511,271.9842387532597" style="stroke: rgb(29, 145, 192);"></path><path class="link" d="M237.4997076476104,262.8155920457294L204.62504638153538,259.99170181175685" style="stroke: rgb(29, 145, 192);"></path><path class="link" d="M237.4997076476104,262.8155920457294L221.66570848388886,273.8708040879941" style="stroke: rgb(29, 145, 192);"></path><path class="link" d="M237.4997076476104,262.8155920457294L229.43007518672394,230.76635735363448" style="stroke: rgb(29, 145, 192);"></path><path class="link" d="M237.4997076476104,262.8155920457294L229.4467849401439,263.90132235925364" style="stroke: rgb(29, 145, 192);"></path><path class="link" d="M237.4997076476104,262.8155920457294L214.00185870926214,283.8508058632828" style="stroke: rgb(29, 145, 192);"></path><path class="link" d="M237.4997076476104,262.8155920457294L249.73583002321098,256.98596685061796" style="stroke: rgb(29, 145, 192);"></path><path class="link" d="M237.4997076476104,262.8155920457294L208.52755099299839,238.54153687147195" style="stroke: rgb(29, 145, 192);"></path><path class="link" d="M237.4997076476104,262.8155920457294L225.1666417240758,252.1571219541859" style="stroke: rgb(29, 145, 192);"></path><path class="link" d="M237.4997076476104,262.8155920457294L233.71832188344456,242.5825079112198" style="stroke: rgb(29, 145, 192);"></path><path class="link" d="M237.4997076476104,262.8155920457294L245.95667502888364,244.99365690591554" style="stroke: rgb(29, 145, 192);"></path><path class="link" d="M237.4997076476104,262.8155920457294L242.0573687361961,232.9916743954829" style="stroke: rgb(29, 145, 192);"></path><path class="link" d="M237.4997076476104,262.8155920457294L212.8432079043936,250.31485870093778" style="stroke: rgb(29, 145, 192);"></path><circle class="fireworkPearl" r="0" cx="237.4997076476104" cy="262.8155920457294" style="fill: rgb(29, 145, 192);"></circle><circle class="fireworkPearl" r="4.380867874285302" cx="212.8432079043936" cy="250.31485870093778" style="fill: rgb(29, 145, 192);"></circle><circle class="fireworkPearl" r="4.380867874285302" cx="242.0573687361961" cy="232.9916743954829" style="fill: rgb(29, 145, 192);"></circle><circle class="fireworkPearl" r="4.380867874285302" cx="245.95667502888364" cy="244.99365690591554" style="fill: rgb(29, 145, 192);"></circle><circle class="fireworkPearl" r="4.380867874285302" cx="233.71832188344456" cy="242.5825079112198" style="fill: rgb(29, 145, 192);"></circle><circle class="fireworkPearl" r="4.380867874285302" cx="225.1666417240758" cy="252.1571219541859" style="fill: rgb(29, 145, 192);"></circle><circle class="fireworkPearl" r="4.380867874285302" cx="208.52755099299839" cy="238.54153687147195" style="fill: rgb(29, 145, 192);"></circle><circle class="fireworkPearl" r="4.380867874285302" cx="249.73583002321098" cy="256.98596685061796" style="fill: rgb(29, 145, 192);"></circle><circle class="fireworkPearl" r="4.380867874285302" cx="214.00185870926214" cy="283.8508058632828" style="fill: rgb(29, 145, 192);"></circle><circle class="fireworkPearl" r="4.380867874285302" cx="229.4467849401439" cy="263.90132235925364" style="fill: rgb(29, 145, 192);"></circle><circle class="fireworkPearl" r="4.380867874285302" cx="229.43007518672394" cy="230.76635735363448" style="fill: rgb(29, 145, 192);"></circle><circle class="fireworkPearl" r="4.380867874285302" cx="221.66570848388886" cy="273.8708040879941" style="fill: rgb(29, 145, 192);"></circle><circle class="fireworkPearl" r="4.380867874285302" cx="204.62504638153538" cy="259.99170181175685" style="fill: rgb(29, 145, 192);"></circle><circle class="fireworkPearl" r="4.380867874285302" cx="209.228590064511" cy="271.9842387532597" style="fill: rgb(29, 145, 192);"></circle><circle class="fireworkPearl" r="4.380867874285302" cx="226.57931479890703" cy="285.49697608506017" style="fill: rgb(29, 145, 192);"></circle><circle class="fireworkPearl" r="4.380867874285302" cx="252.02527211406323" cy="272.95819360861844" style="fill: rgb(29, 145, 192);"></circle><circle class="fireworkPearl" r="4.380867874285302" cx="221.12103196789158" cy="240.4775315551694" style="fill: rgb(29, 145, 192);"></circle><circle class="fireworkPearl" r="4.380867874285302" cx="241.82912231035442" cy="266.0580546395092" style="fill: rgb(29, 145, 192);"></circle><circle class="fireworkPearl" r="4.380867874285302" cx="237.53448952203132" cy="254.29092490336015" style="fill: rgb(29, 145, 192);"></circle><circle class="fireworkPearl" r="4.380867874285302" cx="233.84163847599746" cy="275.75964298199335" style="fill: rgb(29, 145, 192);"></circle><circle class="fireworkPearl" r="4.380867874285302" cx="217.26623703840394" cy="262.05839780657874" style="fill: rgb(29, 145, 192);"></circle><circle class="fireworkPearl" r="0" cx="168.17091973291332" cy="190.4310143178899" style="fill: rgb(127, 205, 187);"></circle><circle class="fireworkPearl" r="4.380867874285303" cx="166.63833703560093" cy="164.5037587372914" style="fill: rgb(127, 205, 187);"></circle><circle class="fireworkPearl" r="4.380867874285303" cx="159.09577765269412" cy="197.37325434850376" style="fill: rgb(127, 205, 187);"></circle><circle class="fireworkPearl" r="4.380867874285303" cx="180.90257529068805" cy="194.7800921604993" style="fill: rgb(127, 205, 187);"></circle><circle class="fireworkPearl" r="4.380867874285303" cx="167.89255864036562" cy="177.0986451482949" style="fill: rgb(127, 205, 187);"></circle><circle class="fireworkPearl" r="4.380867874285303" cx="145.98799689955445" cy="179.58816972641512" style="fill: rgb(127, 205, 187);"></circle><circle class="fireworkPearl" r="4.380867874285303" cx="172.26197787557405" cy="215.0535053437806" style="fill: rgb(127, 205, 187);"></circle><circle class="fireworkPearl" r="4.380867874285303" cx="178.28987301405482" cy="169.6963957045587" style="fill: rgb(127, 205, 187);"></circle><circle class="fireworkPearl" r="4.380867874285303" cx="147.4442362206244" cy="192.26043206095173" style="fill: rgb(127, 205, 187);"></circle><circle class="fireworkPearl" r="4.380867874285303" cx="169.27453280127767" cy="189.822671533174" style="fill: rgb(127, 205, 187);"></circle><circle class="fireworkPearl" r="4.380867874285303" cx="156.32318285811004" cy="172.0385840735281" style="fill: rgb(127, 205, 187);"></circle><circle class="fireworkPearl" r="4.380867874285303" cx="192.92260453491116" cy="198.52953086079955" style="fill: rgb(127, 205, 187);"></circle><circle class="fireworkPearl" r="4.380867874285303" cx="182.49558608244106" cy="207.3441946174312" style="fill: rgb(127, 205, 187);"></circle><circle class="fireworkPearl" r="4.380867874285303" cx="157.66415943921427" cy="184.74619456695854" style="fill: rgb(127, 205, 187);"></circle><circle class="fireworkPearl" r="4.380867874285303" cx="191.7030080274762" cy="185.84047091353514" style="fill: rgb(127, 205, 187);"></circle><circle class="fireworkPearl" r="4.380867874285303" cx="148.83498867404947" cy="204.91187767838127" style="fill: rgb(127, 205, 187);"></circle><circle class="fireworkPearl" r="4.380867874285303" cx="179.43996715613636" cy="182.33398004771888" style="fill: rgb(127, 205, 187);"></circle><circle class="fireworkPearl" r="4.380867874285303" cx="160.51120115939804" cy="210.0370072709308" style="fill: rgb(127, 205, 187);"></circle><circle class="fireworkPearl" r="4.380867874285303" cx="170.74156317436217" cy="202.38742911647753" style="fill: rgb(127, 205, 187);"></circle><circle class="fireworkPearl" r="0" cx="59.158154619117276" cy="181.09887048190888" style="fill: rgb(29, 145, 192);"></circle><circle class="fireworkPearl" r="4.380867874285302" cx="75.84940550725796" cy="171.98537824598017" style="fill: rgb(29, 145, 192);"></circle><circle class="fireworkPearl" r="4.380867874285302" cx="65.65242043024334" cy="164.35128222972762" style="fill: rgb(29, 145, 192);"></circle><circle class="fireworkPearl" r="4.380867874285302" cx="62.59804249440358" cy="189.670487639691" style="fill: rgb(29, 145, 192);"></circle><circle class="fireworkPearl" r="4.380867874285302" cx="54.043229261484015" cy="169.48958202868025" style="fill: rgb(29, 145, 192);"></circle><circle class="fireworkPearl" r="4.380867874285302" cx="40.621459159331565" cy="187.10837988700507" style="fill: rgb(29, 145, 192);"></circle><circle class="fireworkPearl" r="4.380867874285302" cx="52.4518324856109" cy="182.09253621336083" style="fill: rgb(29, 145, 192);"></circle><circle class="fireworkPearl" r="4.380867874285302" cx="46.80291148965332" cy="159.18591479189314" style="fill: rgb(29, 145, 192);"></circle><circle class="fireworkPearl" r="4.380867874285302" cx="74.37943534826228" cy="184.63643337210598" style="fill: rgb(29, 145, 192);"></circle><circle class="fireworkPearl" r="4.380867874285302" cx="61.092915623040746" cy="202.31732594560603" style="fill: rgb(29, 145, 192);"></circle><circle class="fireworkPearl" r="4.380867874285302" cx="50.84135315452437" cy="194.72311751514755" style="fill: rgb(29, 145, 192);"></circle><circle class="fireworkPearl" r="4.380867874285302" cx="72.80775434848078" cy="197.2720366042388" style="fill: rgb(29, 145, 192);"></circle><circle class="fireworkPearl" r="4.380867874285302" cx="64.13670141831355" cy="177.04794008636614" style="fill: rgb(29, 145, 192);"></circle><circle class="fireworkPearl" r="4.380867874285302" cx="42.25504290329474" cy="174.42911749714233" style="fill: rgb(29, 145, 192);"></circle><circle class="fireworkPearl" r="0" cx="257.3489324908355" cy="256.4892757167684" style="fill: rgb(65, 182, 196);"></circle><circle class="fireworkPearl" r="4.380867874285303" cx="279.4002312991168" cy="242.17819527216685" style="fill: rgb(65, 182, 196);"></circle><circle class="fireworkPearl" r="4.380867874285303" cx="258.1429649619851" cy="248.22538782104596" style="fill: rgb(65, 182, 196);"></circle><circle class="fireworkPearl" r="4.380867874285303" cx="254.59076646779047" cy="236.06049033034657" style="fill: rgb(65, 182, 196);"></circle><circle class="fireworkPearl" r="4.380867874285303" cx="264.50779623761133" cy="272.73265600665593" style="fill: rgb(65, 182, 196);"></circle><circle class="fireworkPearl" r="4.380867874285303" cx="282.77613624208504" cy="254.4929162747082" style="fill: rgb(65, 182, 196);"></circle><circle class="fireworkPearl" r="4.380867874285303" cx="261.400281414927" cy="260.3469042217337" style="fill: rgb(65, 182, 196);"></circle><circle class="fireworkPearl" r="4.380867874285303" cx="267.09527897718516" cy="239.0470536866437" style="fill: rgb(65, 182, 196);"></circle><circle class="fireworkPearl" r="4.380867874285303" cx="270.48943094327484" cy="251.22566592140143" style="fill: rgb(65, 182, 196);"></circle><circle class="fireworkPearl" r="4.380867874285303" cx="276.86425882896725" cy="275.86515627240925" style="fill: rgb(65, 182, 196);"></circle><circle class="fireworkPearl" r="4.380867874285303" cx="273.66183481890596" cy="263.4692052503015" style="fill: rgb(65, 182, 196);"></circle><circle class="fireworkPearl" r="4.380867874285303" cx="285.9616545939643" cy="266.85037914725615" style="fill: rgb(65, 182, 196);"></circle><circle class="fireworkPearl" r="4.380867874285303" cx="263.4577841629018" cy="226.85292708536528" style="fill: rgb(65, 182, 196);"></circle><circle class="fireworkPearl" r="0" cx="241.75589378834303" cy="280" style="fill: rgb(127, 205, 187);"></circle><circle class="fireworkPearl" r="4.380867874285302" cx="261.74228333294764" cy="296.22666753749763" style="fill: rgb(127, 205, 187);"></circle><circle class="fireworkPearl" r="4.380867874285302" cx="254.2828840103988" cy="306.5618616700265" style="fill: rgb(127, 205, 187);"></circle><circle class="fireworkPearl" r="4.380867874285302" cx="219.21378503413413" cy="295.5180732109406" style="fill: rgb(127, 205, 187);"></circle><circle class="fireworkPearl" r="4.380867874285302" cx="241.59104110367116" cy="305.2776428953549" style="fill: rgb(127, 205, 187);"></circle><circle class="fireworkPearl" r="4.380867874285302" cx="228.90033033821177" cy="303.7552532189381" style="fill: rgb(127, 205, 187);"></circle><circle class="fireworkPearl" r="4.380867874285302" cx="249.06765339440832" cy="295.05752056219876" style="fill: rgb(127, 205, 187);"></circle><circle class="fireworkPearl" r="4.380867874285302" cx="268.9175966320964" cy="285.5941912037022" style="fill: rgb(127, 205, 187);"></circle><circle class="fireworkPearl" r="4.380867874285302" cx="243.78472379941903" cy="283.23588159996643" style="fill: rgb(127, 205, 187);"></circle><circle class="fireworkPearl" r="4.380867874285302" cx="236.35211514199025" cy="293.50741429215844" style="fill: rgb(127, 205, 187);"></circle><circle class="fireworkPearl" r="4.380867874285302" cx="256.40599099422104" cy="284.585873342775" style="fill: rgb(127, 205, 187);"></circle><circle class="fireworkPearl" r="0" cx="40" cy="51.24690970269381" style="fill: rgb(127, 205, 187);"></circle><circle class="fireworkPearl" r="4.380867874285302" cx="51.83346815211321" cy="55.161876753440225" style="fill: rgb(127, 205, 187);"></circle><circle class="fireworkPearl" r="4.380867874285302" cx="53.70793247275759" cy="42.521711221332104" style="fill: rgb(127, 205, 187);"></circle><circle class="fireworkPearl" r="4.380867874285302" cx="43.72262764326178" cy="34.521724354081584" style="fill: rgb(127, 205, 187);"></circle><circle class="fireworkPearl" r="4.380867874285302" cx="31.848727315690088" cy="39.166641197647756" style="fill: rgb(127, 205, 187);"></circle><circle class="fireworkPearl" r="4.380867874285302" cx="19.970473434758965" cy="43.9900467055961" style="fill: rgb(127, 205, 187);"></circle><circle class="fireworkPearl" r="4.380867874285302" cx="28.032584216213756" cy="64.44961194484367" style="fill: rgb(127, 205, 187);"></circle><circle class="fireworkPearl" r="4.380867874285302" cx="29.93378896413841" cy="51.813356720572735" style="fill: rgb(127, 205, 187);"></circle><circle class="fireworkPearl" r="4.380867874285302" cx="39.95718271643041" cy="59.774537486319446" style="fill: rgb(127, 205, 187);"></circle><circle class="fireworkPearl" r="4.380867874285302" cx="41.85766970480042" cy="47.14447997452571" style="fill: rgb(127, 205, 187);"></circle><circle class="fireworkPearl" r="0" cx="97.10979117351097" cy="60.39727999238491" style="fill: rgb(127, 205, 187);"></circle><circle class="fireworkPearl" r="4.380867874285302" cx="78.54365799825159" cy="67.47792663017995" style="fill: rgb(127, 205, 187);"></circle><circle class="fireworkPearl" r="4.380867874285302" cx="99.9549583703213" cy="72.8480796235631" style="fill: rgb(127, 205, 187);"></circle><circle class="fireworkPearl" r="4.380867874285302" cx="87.7222597126138" cy="76.37641932802941" style="fill: rgb(127, 205, 187);"></circle><circle class="fireworkPearl" r="4.380867874285302" cx="106.1298233830964" cy="48.045717999882" style="fill: rgb(127, 205, 187);"></circle><circle class="fireworkPearl" r="4.380867874285302" cx="97.04944262240922" cy="85.10573116332034" style="fill: rgb(127, 205, 187);"></circle><circle class="fireworkPearl" r="4.380867874285302" cx="81.66770608224056" cy="55.06971579695116" style="fill: rgb(127, 205, 187);"></circle><circle class="fireworkPearl" r="4.380867874285302" cx="94.05050662586581" cy="51.73137285976052" style="fill: rgb(127, 205, 187);"></circle><circle class="fireworkPearl" r="4.380867874285302" cx="102.91441311113118" cy="60.55495355223381" style="fill: rgb(127, 205, 187);"></circle><circle class="fireworkPearl" r="4.380867874285302" cx="90.77863691012689" cy="64.08509339156097" style="fill: rgb(127, 205, 187);"></circle><circle class="fireworkPearl" r="0" cx="116.19992785175785" cy="60.90092826158329" style="fill: rgb(29, 145, 192);"></circle><circle class="fireworkPearl" r="4.380867874285302" cx="120.94846187910827" cy="78.53595055740169" style="fill: rgb(29, 145, 192);"></circle><circle class="fireworkPearl" r="4.380867874285302" cx="124.19599416533062" cy="66.12495125216579" style="fill: rgb(29, 145, 192);"></circle><circle class="fireworkPearl" r="4.380867874285302" cx="115.05483518812008" cy="57.09640753542366" style="fill: rgb(29, 145, 192);"></circle><circle class="fireworkPearl" r="4.380867874285302" cx="127.28699629899207" cy="53.84394400259158" style="fill: rgb(29, 145, 192);"></circle><circle class="fireworkPearl" r="4.380867874285302" cx="111.97113071615779" cy="69.41792115007901" style="fill: rgb(29, 145, 192);"></circle><circle class="fireworkPearl" r="4.380867874285302" cx="133.5916432302739" cy="42.76704942388121" style="fill: rgb(29, 145, 192);"></circle><circle class="fireworkPearl" r="4.380867874285302" cx="136.45791111640003" cy="62.62783719629836" style="fill: rgb(29, 145, 192);"></circle><circle class="fireworkPearl" r="4.380867874285302" cx="133.2254146003524" cy="74.99798723491277" style="fill: rgb(29, 145, 192);"></circle><circle class="fireworkPearl" r="4.380867874285302" cx="118.38755390060001" cy="44.719328139393596" style="fill: rgb(29, 145, 192);"></circle><circle class="fireworkPearl" r="0" cx="45.77411516350939" cy="77.35014586699268" style="fill: rgb(65, 182, 196);"></circle><circle class="fireworkPearl" r="4.380867874285302" cx="47.9316807727271" cy="80.78169090237394" style="fill: rgb(65, 182, 196);"></circle><circle class="fireworkPearl" r="4.380867874285302" cx="37.87584946606113" cy="72.93780404935463" style="fill: rgb(65, 182, 196);"></circle><circle class="fireworkPearl" r="4.380867874285302" cx="26.181923807026784" cy="78.04083529808977" style="fill: rgb(65, 182, 196);"></circle><circle class="fireworkPearl" r="4.380867874285302" cx="36.22090145155975" cy="85.84840395123408" style="fill: rgb(65, 182, 196);"></circle><circle class="fireworkPearl" r="4.380867874285302" cx="58.12808351054002" cy="88.47671997833511" style="fill: rgb(65, 182, 196);"></circle><circle class="fireworkPearl" r="4.380867874285302" cx="59.74376084513769" cy="75.8496087892557" style="fill: rgb(65, 182, 196);"></circle><circle class="fireworkPearl" r="4.380867874285302" cx="49.614602161470536" cy="68.06945869609608" style="fill: rgb(65, 182, 196);"></circle><circle class="fireworkPearl" r="4.380867874285302" cx="46.409992551541215" cy="93.51668697475137" style="fill: rgb(65, 182, 196);"></circle><circle class="fireworkPearl" r="0" cx="86.89218679719163" cy="40" style="fill: rgb(65, 182, 196);"></circle><circle class="fireworkPearl" r="4.380867874285303" cx="72.87000467159174" cy="44.93372522174525" style="fill: rgb(65, 182, 196);"></circle><circle class="fireworkPearl" r="4.380867874285303" cx="72.72993765340081" cy="32.143771491412224" style="fill: rgb(65, 182, 196);"></circle><circle class="fireworkPearl" r="4.380867874285303" cx="96.5949211173714" cy="36.24137651956672" style="fill: rgb(65, 182, 196);"></circle><circle class="fireworkPearl" r="4.380867874285303" cx="96.02174554553031" cy="23.402892672156696" style="fill: rgb(65, 182, 196);"></circle><circle class="fireworkPearl" r="4.380867874285303" cx="85.31380846136994" cy="30.193501459724153" style="fill: rgb(65, 182, 196);"></circle><circle class="fireworkPearl" r="4.380867874285303" cx="78.08386577913588" cy="19.836483763121326" style="fill: rgb(65, 182, 196);"></circle><circle class="fireworkPearl" r="4.380867874285303" cx="85.43627747986268" cy="42.84436047239064" style="fill: rgb(65, 182, 196);"></circle><circle class="fireworkPearl" r="0" cx="79.37399485877694" cy="110.78853761502194" style="fill: rgb(29, 145, 192);"></circle><circle class="fireworkPearl" r="4.380867874285302" cx="76.99745841899261" cy="121.14339697181136" style="fill: rgb(29, 145, 192);"></circle><circle class="fireworkPearl" r="4.380867874285302" cx="88.39650108026161" cy="115.40358292645882" style="fill: rgb(29, 145, 192);"></circle><circle class="fireworkPearl" r="4.380867874285302" cx="89.08040861479981" cy="102.61548680471077" style="fill: rgb(29, 145, 192);"></circle><circle class="fireworkPearl" r="4.380867874285302" cx="77.70931121909535" cy="108.34778857783463" style="fill: rgb(29, 145, 192);"></circle><circle class="fireworkPearl" r="4.380867874285302" cx="66.30845497909976" cy="114.11513421603904" style="fill: rgb(29, 145, 192);"></circle><circle class="fireworkPearl" r="0" cx="104.20757416156991" cy="180.7349264685503" style="fill: rgb(65, 182, 196);"></circle><circle class="fireworkPearl" r="4.380867874285303" cx="105.4681972944438" cy="173.22044888239714" style="fill: rgb(65, 182, 196);"></circle><circle class="fireworkPearl" r="4.380867874285303" cx="99.90553671844118" cy="184.75734510485444" style="fill: rgb(65, 182, 196);"></circle><circle class="fireworkPearl" r="4.380867874285303" cx="112.65384429815592" cy="183.8176737734864" style="fill: rgb(65, 182, 196);"></circle><circle class="fireworkPearl" r="0" cx="240.5109972422623" cy="222.70662733476786" style="fill: rgb(65, 182, 196);"></circle><circle class="fireworkPearl" r="4.380867874285302" cx="239.54192653824896" cy="217.4773129420191" style="fill: rgb(65, 182, 196);"></circle><circle class="fractional-fireworkPearl" r="0" cx="270" cy="232.44398620497367" style="stroke: rgb(127, 205, 187);"></circle><circle class="fractional-fireworkPearl" r="4.380867874285302" cx="276.00859792932897" cy="224.4049226161978" style="stroke: rgb(127, 205, 187);"></circle></g><g id="legendDividerGroup" transform="translate(390,0)" height="400"><rect class="legendDivider" height="400" width="110"></rect></g><g id="fireworkLegend" transform="translate(390,15.899895490457908)" width="110" height="320"><rect class="legendBorder" transform="translate(0,0)" width="110" height="348.2002090190842"></rect><text id="rTitle" text-anchor="middle" alignment-baseline="hanging" transform="translate(55,0)" x="0" y="0" style="fill: black; font-size: 0.8rem;">Population</text><text id="bobaValue" text-anchor="middle" alignment-baseline="hanging" transform="translate(55,15)" x="0" y="0" style="fill: black; font-size: 0.7rem;">(1 Pearl =   75)</text><g class="" cupRadius="8.94427190999916" width="17.88854381999832" height="17.88854381999832" pearlRadius="5.476084842856627" pearlCount="1" transform="translate(46.05572809000084,38.57652791288761)"><path class="link" d="M8.94427190999916,8.94427190999916L8.738076112960377,9.158560713375284" style="stroke: rgb(127, 205, 187);"></path><circle class="fractional-fireworkPearl" r="0" cx="8.94427190999916" cy="8.94427190999916" style="stroke: rgb(127, 205, 187);"></circle><circle class="fractional-fireworkPearl" r="4.380867874285302" cx="8.738076112960377" cy="9.158560713375284" style="stroke: rgb(127, 205, 187);"></circle></g><text id="0" class="legendSampleValue" text-anchor="middle" transform="translate(55,8)" x="0" y="60.04159964577355" style="fill: black; font-size: 0.7rem;">&lt;   75</text><g class="" cupRadius="23.788586088371787" width="47.577172176743574" height="47.577172176743574" pearlRadius="5.476084842856627" pearlCount="7" transform="translate(31.211413911628213,80.04159964577354)"><path class="link" d="M23.788586088371787,23.788586088371787L15.794503239627176,13.57226102405416" style="stroke: rgb(127, 205, 187);"></path><path class="link" d="M23.788586088371787,23.788586088371787L19.46140752212082,36.255378782696745" style="stroke: rgb(127, 205, 187);"></path><path class="link" d="M23.788586088371787,23.788586088371787L37.26810920305024,21.737609895023006" style="stroke: rgb(127, 205, 187);"></path><path class="link" d="M23.788586088371787,23.788586088371787L10.442593590261586,25.19072174346737" style="stroke: rgb(127, 205, 187);"></path><path class="link" d="M23.788586088371787,23.788586088371787L31.918632830361652,33.35576211143274" style="stroke: rgb(127, 205, 187);"></path><path class="link" d="M23.788586088371787,23.788586088371787L28.530283014973033,12.398588290304648" style="stroke: rgb(127, 205, 187);"></path><path class="link" d="M23.788586088371787,23.788586088371787L23.17958170029401,24.016358945940397" style="stroke: rgb(127, 205, 187);"></path><circle class="fireworkPearl" r="0" cx="23.788586088371787" cy="23.788586088371787" style="fill: rgb(127, 205, 187);"></circle><circle class="fireworkPearl" r="4.380867874285302" cx="23.17958170029401" cy="24.016358945940397" style="fill: rgb(127, 205, 187);"></circle><circle class="fireworkPearl" r="4.380867874285302" cx="28.530283014973033" cy="12.398588290304648" style="fill: rgb(127, 205, 187);"></circle><circle class="fireworkPearl" r="4.380867874285302" cx="31.918632830361652" cy="33.35576211143274" style="fill: rgb(127, 205, 187);"></circle><circle class="fireworkPearl" r="4.380867874285302" cx="10.442593590261586" cy="25.19072174346737" style="fill: rgb(127, 205, 187);"></circle><circle class="fireworkPearl" r="4.380867874285302" cx="37.26810920305024" cy="21.737609895023006" style="fill: rgb(127, 205, 187);"></circle><circle class="fireworkPearl" r="4.380867874285302" cx="19.46140752212082" cy="36.255378782696745" style="fill: rgb(127, 205, 187);"></circle><circle class="fireworkPearl" r="4.380867874285302" cx="15.794503239627176" cy="13.57226102405416" style="fill: rgb(127, 205, 187);"></circle></g><text id="1" class="legendSampleValue" text-anchor="middle" transform="translate(55,8)" x="0" y="132.61877182251712" style="fill: black; font-size: 0.7rem;"> 530</text><g class="" cupRadius="32.79071859828353" width="65.58143719656707" height="65.58143719656707" pearlRadius="5.476084842856627" pearlCount="13" transform="translate(22.209281401716467,152.6187718225171)"><path class="link" d="M32.79071859828353,32.79071859828353L52.908336703074944,30.98342330819562" style="stroke: rgb(127, 205, 187);"></path><path class="link" d="M32.79071859828353,32.79071859828353L14.442664227253061,19.967710981066435" style="stroke: rgb(127, 205, 187);"></path><path class="link" d="M32.79071859828353,32.79071859828353L38.90866627512354,48.65462753020812" style="stroke: rgb(127, 205, 187);"></path><path class="link" d="M32.79071859828353,32.79071859828353L38.49316124603396,11.288885409814391" style="stroke: rgb(127, 205, 187);"></path><path class="link" d="M32.79071859828353,32.79071859828353L16.31843609876571,44.63907405128656" style="stroke: rgb(127, 205, 187);"></path><path class="link" d="M32.79071859828353,32.79071859828353L50.645322140394434,43.57162911646101" style="stroke: rgb(127, 205, 187);"></path><path class="link" d="M32.79071859828353,32.79071859828353L26.46515613197594,15.620507754924946" style="stroke: rgb(127, 205, 187);"></path><path class="link" d="M32.79071859828353,32.79071859828353L26.880874604836222,52.99909174432856" style="stroke: rgb(127, 205, 187);"></path><path class="link" d="M32.79071859828353,32.79071859828353L42.637817712147175,23.379740864117814" style="stroke: rgb(127, 205, 187);"></path><path class="link" d="M32.79071859828353,32.79071859828353L18.582635401153457,32.060771578535224" style="stroke: rgb(127, 205, 187);"></path><path class="link" d="M32.79071859828353,32.79071859828353L40.37275403999835,35.952770045917774" style="stroke: rgb(127, 205, 187);"></path><path class="link" d="M32.79071859828353,32.79071859828353L30.604427855737118,27.71624007604473" style="stroke: rgb(127, 205, 187);"></path><path class="link" d="M32.79071859828353,32.79071859828353L28.35383738683853,40.30183198302936" style="stroke: rgb(127, 205, 187);"></path><circle class="fireworkPearl" r="0" cx="32.79071859828353" cy="32.79071859828353" style="fill: rgb(127, 205, 187);"></circle><circle class="fireworkPearl" r="4.380867874285302" cx="28.35383738683853" cy="40.30183198302936" style="fill: rgb(127, 205, 187);"></circle><circle class="fireworkPearl" r="4.380867874285302" cx="30.604427855737118" cy="27.71624007604473" style="fill: rgb(127, 205, 187);"></circle><circle class="fireworkPearl" r="4.380867874285302" cx="40.37275403999835" cy="35.952770045917774" style="fill: rgb(127, 205, 187);"></circle><circle class="fireworkPearl" r="4.380867874285302" cx="18.582635401153457" cy="32.060771578535224" style="fill: rgb(127, 205, 187);"></circle><circle class="fireworkPearl" r="4.380867874285302" cx="42.637817712147175" cy="23.379740864117814" style="fill: rgb(127, 205, 187);"></circle><circle class="fireworkPearl" r="4.380867874285302" cx="26.880874604836222" cy="52.99909174432856" style="fill: rgb(127, 205, 187);"></circle><circle class="fireworkPearl" r="4.380867874285302" cx="26.46515613197594" cy="15.620507754924946" style="fill: rgb(127, 205, 187);"></circle><circle class="fireworkPearl" r="4.380867874285302" cx="50.645322140394434" cy="43.57162911646101" style="fill: rgb(127, 205, 187);"></circle><circle class="fireworkPearl" r="4.380867874285302" cx="16.31843609876571" cy="44.63907405128656" style="fill: rgb(127, 205, 187);"></circle><circle class="fireworkPearl" r="4.380867874285302" cx="38.49316124603396" cy="11.288885409814391" style="fill: rgb(127, 205, 187);"></circle><circle class="fireworkPearl" r="4.380867874285302" cx="38.90866627512354" cy="48.65462753020812" style="fill: rgb(127, 205, 187);"></circle><circle class="fireworkPearl" r="4.380867874285302" cx="14.442664227253061" cy="19.967710981066435" style="fill: rgb(127, 205, 187);"></circle><circle class="fireworkPearl" r="4.380867874285302" cx="52.908336703074944" cy="30.98342330819562" style="fill: rgb(127, 205, 187);"></circle></g><text id="2" class="legendSampleValue" text-anchor="middle" transform="translate(55,8)" x="0" y="223.20020901908418" style="fill: black; font-size: 0.7rem;">1.0k</text><g class="" cupRadius="40" width="80" height="80" pearlRadius="5.476084842856627" pearlCount="20" transform="translate(15,243.20020901908418)"><path class="link" d="M40,40L25.425027674916183,16.263442207899466" style="stroke: rgb(127, 205, 187);"></path><path class="link" d="M40,40L41.515861316067344,70.52479907695337" style="stroke: rgb(127, 205, 187);"></path><path class="link" d="M40,40L59.06971921970406,21.602919171747843" style="stroke: rgb(127, 205, 187);"></path><path class="link" d="M40,40L14.560647825128665,39.29597609426523" style="stroke: rgb(127, 205, 187);"></path><path class="link" d="M40,40L60.57379429362364,57.39578067335398" style="stroke: rgb(127, 205, 187);"></path><path class="link" d="M40,40L38.294371914838926,13.863961990424544" style="stroke: rgb(127, 205, 187);"></path><path class="link" d="M40,40L22.60218609174795,61.65413222330635" style="stroke: rgb(127, 205, 187);"></path><path class="link" d="M40,40L67.36098029977207,33.53208733163045" style="stroke: rgb(127, 205, 187);"></path><path class="link" d="M40,40L18.951921637057474,27.288007262972428" style="stroke: rgb(127, 205, 187);"></path><path class="link" d="M40,40L47.961201594127296,59.48442910483396" style="stroke: rgb(127, 205, 187);"></path><path class="link" d="M40,40L46.457907812769925,23.70426514272581" style="stroke: rgb(127, 205, 187);"></path><path class="link" d="M40,40L23.00554487656268,48.88159911988176" style="stroke: rgb(127, 205, 187);"></path><path class="link" d="M40,40L61.00190939221505,44.61977057481227" style="stroke: rgb(127, 205, 187);"></path><path class="link" d="M40,40L33.86174656715077,25.874926758385403" style="stroke: rgb(127, 205, 187);"></path><path class="link" d="M40,40L35.182086312474915,59.4160892639974" style="stroke: rgb(127, 205, 187);"></path><path class="link" d="M40,40L54.565981633757694,33.57675316332617" style="stroke: rgb(127, 205, 187);"></path><path class="link" d="M40,40L27.399627412808663,36.89162472541311" style="stroke: rgb(127, 205, 187);"></path><path class="link" d="M40,40L48.38383587430125,46.71017179308868" style="stroke: rgb(127, 205, 187);"></path><path class="link" d="M40,40L41.978387885061274,35.69296183812537" style="stroke: rgb(127, 205, 187);"></path><path class="link" d="M40,40L35.589292985966054,46.69451643864023" style="stroke: rgb(127, 205, 187);"></path><circle class="fireworkPearl" r="0" cx="40" cy="40" style="fill: rgb(127, 205, 187);"></circle><circle class="fireworkPearl" r="4.380867874285302" cx="35.589292985966054" cy="46.69451643864023" style="fill: rgb(127, 205, 187);"></circle><circle class="fireworkPearl" r="4.380867874285302" cx="41.978387885061274" cy="35.69296183812537" style="fill: rgb(127, 205, 187);"></circle><circle class="fireworkPearl" r="4.380867874285302" cx="48.38383587430125" cy="46.71017179308868" style="fill: rgb(127, 205, 187);"></circle><circle class="fireworkPearl" r="4.380867874285302" cx="27.399627412808663" cy="36.89162472541311" style="fill: rgb(127, 205, 187);"></circle><circle class="fireworkPearl" r="4.380867874285302" cx="54.565981633757694" cy="33.57675316332617" style="fill: rgb(127, 205, 187);"></circle><circle class="fireworkPearl" r="4.380867874285302" cx="35.182086312474915" cy="59.4160892639974" style="fill: rgb(127, 205, 187);"></circle><circle class="fireworkPearl" r="4.380867874285302" cx="33.86174656715077" cy="25.874926758385403" style="fill: rgb(127, 205, 187);"></circle><circle class="fireworkPearl" r="4.380867874285302" cx="61.00190939221505" cy="44.61977057481227" style="fill: rgb(127, 205, 187);"></circle><circle class="fireworkPearl" r="4.380867874285302" cx="23.00554487656268" cy="48.88159911988176" style="fill: rgb(127, 205, 187);"></circle><circle class="fireworkPearl" r="4.380867874285302" cx="46.457907812769925" cy="23.70426514272581" style="fill: rgb(127, 205, 187);"></circle><circle class="fireworkPearl" r="4.380867874285302" cx="47.961201594127296" cy="59.48442910483396" style="fill: rgb(127, 205, 187);"></circle><circle class="fireworkPearl" r="4.380867874285302" cx="18.951921637057474" cy="27.288007262972428" style="fill: rgb(127, 205, 187);"></circle><circle class="fireworkPearl" r="4.380867874285302" cx="67.36098029977207" cy="33.53208733163045" style="fill: rgb(127, 205, 187);"></circle><circle class="fireworkPearl" r="4.380867874285302" cx="22.60218609174795" cy="61.65413222330635" style="fill: rgb(127, 205, 187);"></circle><circle class="fireworkPearl" r="4.380867874285302" cx="38.294371914838926" cy="13.863961990424544" style="fill: rgb(127, 205, 187);"></circle><circle class="fireworkPearl" r="4.380867874285302" cx="60.57379429362364" cy="57.39578067335398" style="fill: rgb(127, 205, 187);"></circle><circle class="fireworkPearl" r="4.380867874285302" cx="14.560647825128665" cy="39.29597609426523" style="fill: rgb(127, 205, 187);"></circle><circle class="fireworkPearl" r="4.380867874285302" cx="59.06971921970406" cy="21.602919171747843" style="fill: rgb(127, 205, 187);"></circle><circle class="fireworkPearl" r="4.380867874285302" cx="41.515861316067344" cy="70.52479907695337" style="fill: rgb(127, 205, 187);"></circle><circle class="fireworkPearl" r="4.380867874285302" cx="25.425027674916183" cy="16.263442207899466" style="fill: rgb(127, 205, 187);"></circle></g><text id="3" class="legendSampleValue" text-anchor="middle" transform="translate(55,8)" x="0" y="328.2002090190842" style="fill: black; font-size: 0.7rem;">1.5k</text><text id="coloringDisclaimer" transform="translate(55,8)" text-anchor="middle" x="0" y="343.2002090190842" style="font-size: 0.7rem; opacity: 0.6;">(note: coloring</text><text id="coloringDisclaimer" transform="translate(55,8)" text-anchor="middle" x="0" y="358.2002090190842" style="font-size: 0.7rem; opacity: 0.6;">is random)</text></g></svg>