<?xml version="1.0" standalone="no"?>
<?xml-stylesheet xmlns="http://www.w3.org/2000/svg" type="text/css" href="style.css"?>
<svg id="syntheticVisC" class="default" xTitle="Percent Cat Owners" yTitle="Percent Dog Owners" rTitle="Population" chartTitle="Towns in Vizzyland" width="500" height="400" xmlns="http://www.w3.org/2000/svg"><text id="chartTitle" text-anchor="middle" transform="translate(250,20)" x="0" y="0" style="fill: black; font-size: 1.2rem;">Towns in Vizzyland</text><g id="yAxis" transform="translate(50,30)" fill="none" font-size="10" font-family="sans-serif" text-anchor="end"><path class="domain" stroke="currentColor" d="M-6,280H0V40H-6"></path><g class="tick" opacity="1" transform="translate(0,280)"><line stroke="currentColor" x2="-6"></line><text fill="currentColor" x="-9" dy="0.32em">0</text></g><g class="tick" opacity="1" transform="translate(0,256)"><line stroke="currentColor" x2="-6"></line><text fill="currentColor" x="-9" dy="0.32em">10</text></g><g class="tick" opacity="1" transform="translate(0,232)"><line stroke="currentColor" x2="-6"></line><text fill="currentColor" x="-9" dy="0.32em">20</text></g><g class="tick" opacity="1" transform="translate(0,208)"><line stroke="currentColor" x2="-6"></line><text fill="currentColor" x="-9" dy="0.32em">30</text></g><g class="tick" opacity="1" transform="translate(0,184)"><line stroke="currentColor" x2="-6"></line><text fill="currentColor" x="-9" dy="0.32em">40</text></g><g class="tick" opacity="1" transform="translate(0,160)"><line stroke="currentColor" x2="-6"></line><text fill="currentColor" x="-9" dy="0.32em">50</text></g><g class="tick" opacity="1" transform="translate(0,136)"><line stroke="currentColor" x2="-6"></line><text fill="currentColor" x="-9" dy="0.32em">60</text></g><g class="tick" opacity="1" transform="translate(0,112.00000000000001)"><line stroke="currentColor" x2="-6"></line><text fill="currentColor" x="-9" dy="0.32em">70</text></g><g class="tick" opacity="1" transform="translate(0,87.99999999999999)"><line stroke="currentColor" x2="-6"></line><text fill="currentColor" x="-9" dy="0.32em">80</text></g><g class="tick" opacity="1" transform="translate(0,63.99999999999999)"><line stroke="currentColor" x2="-6"></line><text fill="currentColor" x="-9" dy="0.32em">90</text></g><g class="tick" opacity="1" transform="translate(0,40)"><line stroke="currentColor" x2="-6"></line><text fill="currentColor" x="-9" dy="0.32em">100</text></g></g><g id="xAxis" transform="translate(60,360)" fill="none" font-size="10" font-family="sans-serif" text-anchor="middle"><path class="domain" stroke="currentColor" d="M40,6V0H270V6"></path><g class="tick" opacity="1" transform="translate(40,0)"><line stroke="currentColor" y2="6"></line><text fill="currentColor" y="9" dy="0.71em">0</text></g><g class="tick" opacity="1" transform="translate(70.71648302265815,0)"><line stroke="currentColor" y2="6"></line><text fill="currentColor" y="9" dy="0.71em">10</text></g><g class="tick" opacity="1" transform="translate(101.4329660453163,0)"><line stroke="currentColor" y2="6"></line><text fill="currentColor" y="9" dy="0.71em">20</text></g><g class="tick" opacity="1" transform="translate(132.14944906797444,0)"><line stroke="currentColor" y2="6"></line><text fill="currentColor" y="9" dy="0.71em">30</text></g><g class="tick" opacity="1" transform="translate(162.8659320906326,0)"><line stroke="currentColor" y2="6"></line><text fill="currentColor" y="9" dy="0.71em">40</text></g><g class="tick" opacity="1" transform="translate(193.58241511329075,0)"><line stroke="currentColor" y2="6"></line><text fill="currentColor" y="9" dy="0.71em">50</text></g><g class="tick" opacity="1" transform="translate(224.2988981359489,0)"><line stroke="currentColor" y2="6"></line><text fill="currentColor" y="9" dy="0.71em">60</text></g><g class="tick" opacity="1" transform="translate(255.01538115860706,0)"><line stroke="currentColor" y2="6"></line><text fill="currentColor" y="9" dy="0.71em">70</text></g></g><g id="labels"><text id="xTitle" text-anchor="middle" transform="translate(250,350)" x="0" y="40" style="fill: black; font-size: 0.8rem;">Percent Cat Owners</text><g id="group-yTitle" transform="translate(60,190)"><text id="yTitle" text-anchor="middle" transform="rotate(-90)" y="-45" style="fill: black; font-size: 0.8rem;">Percent Dog Owners</text></g></g><g id="quadrant_lines" transform="translate(60,30)"><line id="verticalQuadrantLine" x1="155" y1="20" x2="155" y2="300" class="quadrantLine"></line><line id="horizontalQuadrantLine" x1="20" y1="160" x2="290" y2="160" class="quadrantLine"></line></g><g id="fireworkChart" transform="translate(60,30)"><path class="link" d="M243.38871805180014,240.9236183459223L235.73856463389447,241.96300678257091" style="stroke: rgb(127, 205, 187);"></path><path class="link" d="M241.07260159810255,193.7503275149123L251.6125602913895,200.19099415514063" style="stroke: rgb(65, 182, 196);"></path><path class="link" d="M247.2031041578853,230.58225192284337L251.09156925137955,221.7970215907763" style="stroke: rgb(65, 182, 196);"></path><path class="link" d="M247.2031041578853,230.58225192284337L242.12476639080242,230.90338424513232" style="stroke: rgb(65, 182, 196);"></path><path class="link" d="M270,279.179917983281L270.47241014299493,276.2810505277241" style="stroke: rgb(127, 205, 187);"></path><path class="link" d="M270,279.179917983281L265.24748037075983,287.9479699970224" style="stroke: rgb(127, 205, 187);"></path><path class="link" d="M270,279.179917983281L283.17529356514046,275.0087088633891" style="stroke: rgb(127, 205, 187);"></path><path class="link" d="M270,279.179917983281L277.9759393270072,286.70084448694854" style="stroke: rgb(127, 205, 187);"></path><path class="link" d="M199.3320787097812,202.79838705983727L192.87456492114057,220.40166222376268" style="stroke: rgb(127, 205, 187);"></path><path class="link" d="M199.3320787097812,202.79838705983727L184.08090727170176,211.11399995810396" style="stroke: rgb(127, 205, 187);"></path><path class="link" d="M199.3320787097812,202.79838705983727L187.7586020774711,198.87921124628593" style="stroke: rgb(127, 205, 187);"></path><path class="link" d="M199.3320787097812,202.79838705983727L196.56886456376762,208.1593948679813" style="stroke: rgb(127, 205, 187);"></path><path class="link" d="M258.6419628255093,246.8071226267174L265.0895446459506,257.33308881067074" style="stroke: rgb(29, 145, 192);"></path><path class="link" d="M258.6419628255093,246.8071226267174L273.53767951396685,247.74076002808" style="stroke: rgb(29, 145, 192);"></path><path class="link" d="M258.6419628255093,246.8071226267174L256.95223743326443,233.17000517471112" style="stroke: rgb(29, 145, 192);"></path><path class="link" d="M258.6419628255093,246.8071226267174L248.48809860768142,242.73490461147256" style="stroke: rgb(29, 145, 192);"></path><path class="link" d="M258.6419628255093,246.8071226267174L261.01109581796965,245.25138734055585" style="stroke: rgb(29, 145, 192);"></path><path class="link" d="M258.6419628255093,246.8071226267174L269.4866177255836,235.62786924303379" style="stroke: rgb(29, 145, 192);"></path><path class="link" d="M258.6419628255093,246.8071226267174L252.55372218483546,254.84153213986647" style="stroke: rgb(29, 145, 192);"></path><path class="link" d="M212.54201271316418,199.5461688897006L205.4701025218028,217.34202541145825" style="stroke: rgb(65, 182, 196);"></path><path class="link" d="M212.54201271316418,199.5461688897006L200.26154451750176,196.04608746176334" style="stroke: rgb(65, 182, 196);"></path><path class="link" d="M212.54201271316418,199.5461688897006L215.44936385684625,225.27506327604485" style="stroke: rgb(65, 182, 196);"></path><path class="link" d="M212.54201271316418,199.5461688897006L218.84362922374993,212.97294504776139" style="stroke: rgb(65, 182, 196);"></path><path class="link" d="M212.54201271316418,199.5461688897006L209.02842020538097,205.11119545115406" style="stroke: rgb(65, 182, 196);"></path><path class="link" d="M212.54201271316418,199.5461688897006L216.9646801452992,195.2146030732559" style="stroke: rgb(65, 182, 196);"></path><path class="link" d="M212.54201271316418,199.5461688897006L227.0883150214391,203.42668612875522" style="stroke: rgb(65, 182, 196);"></path><path class="link" d="M244.72235162736519,276.1333557977706L241.396930258228,279.61470412581" style="stroke: rgb(65, 182, 196);"></path><path class="link" d="M244.72235162736519,276.1333557977706L252.7600187881231,285.4550557977448" style="stroke: rgb(65, 182, 196);"></path><path class="link" d="M244.72235162736519,276.1333557977706L246.70021989759653,267.994649861484" style="stroke: rgb(65, 182, 196);"></path><path class="link" d="M244.72235162736519,276.1333557977706L230.74104050008452,286.5799320889841" style="stroke: rgb(65, 182, 196);"></path><path class="link" d="M244.72235162736519,276.1333557977706L258.0366725871414,273.82867921229416" style="stroke: rgb(65, 182, 196);"></path><path class="link" d="M244.72235162736519,276.1333557977706L242.1013040687798,292.41148088538785" style="stroke: rgb(65, 182, 196);"></path><path class="link" d="M244.72235162736519,276.1333557977706L235.33549684288917,262.3169170067132" style="stroke: rgb(65, 182, 196);"></path><path class="link" d="M244.72235162736519,276.1333557977706L229.9814972748305,273.86932251094385" style="stroke: rgb(65, 182, 196);"></path><path class="link" d="M205.3925173540378,172.74214178123987L204.33891295392115,162.40258898852423" style="stroke: rgb(29, 145, 192);"></path><path class="link" d="M205.3925173540378,172.74214178123987L191.81116482323372,164.7628706974485" style="stroke: rgb(29, 145, 192);"></path><path class="link" d="M205.3925173540378,172.74214178123987L197.90567649303057,151.35028726422468" style="stroke: rgb(29, 145, 192);"></path><path class="link" d="M205.3925173540378,172.74214178123987L198.1159777850245,175.88627576809083" style="stroke: rgb(29, 145, 192);"></path><path class="link" d="M205.3925173540378,172.74214178123987L185.29826208830826,175.8974831096215" style="stroke: rgb(29, 145, 192);"></path><path class="link" d="M205.3925173540378,172.74214178123987L206.5465945354734,185.19483885661893" style="stroke: rgb(29, 145, 192);"></path><path class="link" d="M205.3925173540378,172.74214178123987L210.615601370787,173.2666786831937" style="stroke: rgb(29, 145, 192);"></path><path class="link" d="M205.3925173540378,172.74214178123987L185.41376992066077,153.84982040107846" style="stroke: rgb(29, 145, 192);"></path><path class="link" d="M205.3925173540378,172.74214178123987L191.77829426401354,186.8592334451738" style="stroke: rgb(29, 145, 192);"></path><path class="link" d="M205.3925173540378,172.74214178123987L179.10635201637837,164.89344633407399" style="stroke: rgb(29, 145, 192);"></path><path class="link" d="M150.02004322237053,280L149.93272665437908,284.45421831531183" style="stroke: rgb(29, 145, 192);"></path><path class="link" d="M150.02004322237053,280L150.2227879390496,262.3296877759881" style="stroke: rgb(29, 145, 192);"></path><path class="link" d="M150.02004322237053,280L156.4263920238055,273.47513033222793" style="stroke: rgb(29, 145, 192);"></path><path class="link" d="M150.02004322237053,280L169.15219014989552,273.5442945778769" style="stroke: rgb(29, 145, 192);"></path><path class="link" d="M150.02004322237053,280L156.22071880466837,295.5568333569295" style="stroke: rgb(29, 145, 192);"></path><path class="link" d="M150.02004322237053,280L143.4082682306099,295.42878433842407" style="stroke: rgb(29, 145, 192);"></path><path class="link" d="M150.02004322237053,280L162.75413071853256,284.60534736804306" style="stroke: rgb(29, 145, 192);"></path><path class="link" d="M150.02004322237053,280L137.18200071040513,284.25097032845554" style="stroke: rgb(29, 145, 192);"></path><path class="link" d="M150.02004322237053,280L143.67672451265113,273.30920657304347" style="stroke: rgb(29, 145, 192);"></path><path class="link" d="M150.02004322237053,280L130.9893695261815,273.07259173478093" style="stroke: rgb(29, 145, 192);"></path><path class="link" d="M40,40L51.37120517596089,45.48477496243927" style="stroke: rgb(29, 145, 192);"></path><path class="link" d="M40,40L36.42440848646957,24.952123755655336" style="stroke: rgb(29, 145, 192);"></path><path class="link" d="M40,40L33.739854245081546,58.6578424693481" style="stroke: rgb(29, 145, 192);"></path><path class="link" d="M40,40L26.13920475599715,48.38681061059444" style="stroke: rgb(29, 145, 192);"></path><path class="link" d="M40,40L56.581190695226404,33.811001639163514" style="stroke: rgb(29, 145, 192);"></path><path class="link" d="M40,40L38.776357627824666,46.91611180221214" style="stroke: rgb(29, 145, 192);"></path><path class="link" d="M40,40L18.659709044130153,38.10873421483138" style="stroke: rgb(29, 145, 192);"></path><path class="link" d="M40,40L23.74768716440572,26.432483588499288" style="stroke: rgb(29, 145, 192);"></path><path class="link" d="M40,40L46.42363127172197,57.27175176500113" style="stroke: rgb(29, 145, 192);"></path><path class="link" d="M40,40L31.378453403426306,36.66971440613043" style="stroke: rgb(29, 145, 192);"></path><path class="link" d="M40,40L49.04940041641466,23.525250109585592" style="stroke: rgb(29, 145, 192);"></path><path class="link" d="M40,40L63.9729685082885,44.27365292109442" style="stroke: rgb(29, 145, 192);"></path><path class="link" d="M40,40L43.940159538282515,35.22145544703746" style="stroke: rgb(29, 145, 192);"></path><path class="link" d="M230.39772762536467,169.32910813163255L230.48886918820367,179.15043087187271" style="stroke: rgb(127, 205, 187);"></path><path class="link" d="M230.39772762536467,169.32910813163255L254.18198589233398,174.87509151893343" style="stroke: rgb(127, 205, 187);"></path><path class="link" d="M230.39772762536467,169.32910813163255L216.64805868573524,159.50150695982734" style="stroke: rgb(127, 205, 187);"></path><path class="link" d="M230.39772762536467,169.32910813163255L241.84808141829686,173.98965540802612" style="stroke: rgb(127, 205, 187);"></path><path class="link" d="M230.39772762536467,169.32910813163255L240.95712298275805,186.93460369836643" style="stroke: rgb(127, 205, 187);"></path><path class="link" d="M230.39772762536467,169.32910813163255L218.86898808188883,182.73570368514882" style="stroke: rgb(127, 205, 187);"></path><path class="link" d="M230.39772762536467,169.32910813163255L210.21961159672162,148.52114326959597" style="stroke: rgb(127, 205, 187);"></path><path class="link" d="M230.39772762536467,169.32910813163255L240.05445908071508,153.2310184222744" style="stroke: rgb(127, 205, 187);"></path><path class="link" d="M230.39772762536467,169.32910813163255L227.4598831169505,153.2199417595521" style="stroke: rgb(127, 205, 187);"></path><path class="link" d="M230.39772762536467,169.32910813163255L253.58822605643405,187.62071708081982" style="stroke: rgb(127, 205, 187);"></path><path class="link" d="M230.39772762536467,169.32910813163255L238.88793214887312,199.20698563153036" style="stroke: rgb(127, 205, 187);"></path><path class="link" d="M230.39772762536467,169.32910813163255L259.78530465243955,163.56989642848393" style="stroke: rgb(127, 205, 187);"></path><path class="link" d="M230.39772762536467,169.32910813163255L233.6588165846795,142.08920588085985" style="stroke: rgb(127, 205, 187);"></path><path class="link" d="M230.39772762536467,169.32910813163255L221.02614488040913,142.14948907559491" style="stroke: rgb(127, 205, 187);"></path><path class="link" d="M230.39772762536467,169.32910813163255L246.3419619325447,142.0943689414264" style="stroke: rgb(127, 205, 187);"></path><path class="link" d="M230.39772762536467,169.32910813163255L253.50302285729563,152.59570059546627" style="stroke: rgb(127, 205, 187);"></path><path class="link" d="M230.39772762536467,169.32910813163255L247.17690305898157,163.32540329282193" style="stroke: rgb(127, 205, 187);"></path><path class="link" d="M230.39772762536467,169.32910813163255L222.56769521253975,170.05675359323104" style="stroke: rgb(127, 205, 187);"></path><path class="link" d="M230.39772762536467,169.32910813163255L233.74945622652442,164.26768561895614" style="stroke: rgb(127, 205, 187);"></path><path class="link" d="M230.39772762536467,169.32910813163255L228.9102827803061,191.21798552116536" style="stroke: rgb(127, 205, 187);"></path><circle class="fireworkPearl" r="0" cx="230.39772762536467" cy="169.32910813163255" style="fill: rgb(127, 205, 187);"></circle><circle class="fireworkPearl" r="4.380867874285302" cx="228.9102827803061" cy="191.21798552116536" style="fill: rgb(127, 205, 187);"></circle><circle class="fireworkPearl" r="4.380867874285302" cx="233.74945622652442" cy="164.26768561895614" style="fill: rgb(127, 205, 187);"></circle><circle class="fireworkPearl" r="4.380867874285302" cx="222.56769521253975" cy="170.05675359323104" style="fill: rgb(127, 205, 187);"></circle><circle class="fireworkPearl" r="4.380867874285302" cx="247.17690305898157" cy="163.32540329282193" style="fill: rgb(127, 205, 187);"></circle><circle class="fireworkPearl" r="4.380867874285302" cx="253.50302285729563" cy="152.59570059546627" style="fill: rgb(127, 205, 187);"></circle><circle class="fireworkPearl" r="4.380867874285302" cx="246.3419619325447" cy="142.0943689414264" style="fill: rgb(127, 205, 187);"></circle><circle class="fireworkPearl" r="4.380867874285302" cx="221.02614488040913" cy="142.14948907559491" style="fill: rgb(127, 205, 187);"></circle><circle class="fireworkPearl" r="4.380867874285302" cx="233.6588165846795" cy="142.08920588085985" style="fill: rgb(127, 205, 187);"></circle><circle class="fireworkPearl" r="4.380867874285302" cx="259.78530465243955" cy="163.56989642848393" style="fill: rgb(127, 205, 187);"></circle><circle class="fireworkPearl" r="4.380867874285302" cx="238.88793214887312" cy="199.20698563153036" style="fill: rgb(127, 205, 187);"></circle><circle class="fireworkPearl" r="4.380867874285302" cx="253.58822605643405" cy="187.62071708081982" style="fill: rgb(127, 205, 187);"></circle><circle class="fireworkPearl" r="4.380867874285302" cx="227.4598831169505" cy="153.2199417595521" style="fill: rgb(127, 205, 187);"></circle><circle class="fireworkPearl" r="4.380867874285302" cx="240.05445908071508" cy="153.2310184222744" style="fill: rgb(127, 205, 187);"></circle><circle class="fireworkPearl" r="4.380867874285302" cx="210.21961159672162" cy="148.52114326959597" style="fill: rgb(127, 205, 187);"></circle><circle class="fireworkPearl" r="4.380867874285302" cx="218.86898808188883" cy="182.73570368514882" style="fill: rgb(127, 205, 187);"></circle><circle class="fireworkPearl" r="4.380867874285302" cx="240.95712298275805" cy="186.93460369836643" style="fill: rgb(127, 205, 187);"></circle><circle class="fireworkPearl" r="4.380867874285302" cx="241.84808141829686" cy="173.98965540802612" style="fill: rgb(127, 205, 187);"></circle><circle class="fireworkPearl" r="4.380867874285302" cx="216.64805868573524" cy="159.50150695982734" style="fill: rgb(127, 205, 187);"></circle><circle class="fireworkPearl" r="4.380867874285302" cx="254.18198589233398" cy="174.87509151893343" style="fill: rgb(127, 205, 187);"></circle><circle class="fireworkPearl" r="4.380867874285302" cx="230.48886918820367" cy="179.15043087187271" style="fill: rgb(127, 205, 187);"></circle><circle class="fireworkPearl" r="0" cx="40" cy="40" style="fill: rgb(29, 145, 192);"></circle><circle class="fireworkPearl" r="4.380867874285302" cx="43.940159538282515" cy="35.22145544703746" style="fill: rgb(29, 145, 192);"></circle><circle class="fireworkPearl" r="4.380867874285302" cx="63.9729685082885" cy="44.27365292109442" style="fill: rgb(29, 145, 192);"></circle><circle class="fireworkPearl" r="4.380867874285302" cx="49.04940041641466" cy="23.525250109585592" style="fill: rgb(29, 145, 192);"></circle><circle class="fireworkPearl" r="4.380867874285302" cx="31.378453403426306" cy="36.66971440613043" style="fill: rgb(29, 145, 192);"></circle><circle class="fireworkPearl" r="4.380867874285302" cx="46.42363127172197" cy="57.27175176500113" style="fill: rgb(29, 145, 192);"></circle><circle class="fireworkPearl" r="4.380867874285302" cx="23.74768716440572" cy="26.432483588499288" style="fill: rgb(29, 145, 192);"></circle><circle class="fireworkPearl" r="4.380867874285302" cx="18.659709044130153" cy="38.10873421483138" style="fill: rgb(29, 145, 192);"></circle><circle class="fireworkPearl" r="4.380867874285302" cx="38.776357627824666" cy="46.91611180221214" style="fill: rgb(29, 145, 192);"></circle><circle class="fireworkPearl" r="4.380867874285302" cx="56.581190695226404" cy="33.811001639163514" style="fill: rgb(29, 145, 192);"></circle><circle class="fireworkPearl" r="4.380867874285302" cx="26.13920475599715" cy="48.38681061059444" style="fill: rgb(29, 145, 192);"></circle><circle class="fireworkPearl" r="4.380867874285302" cx="33.739854245081546" cy="58.6578424693481" style="fill: rgb(29, 145, 192);"></circle><circle class="fireworkPearl" r="4.380867874285302" cx="36.42440848646957" cy="24.952123755655336" style="fill: rgb(29, 145, 192);"></circle><circle class="fireworkPearl" r="4.380867874285302" cx="51.37120517596089" cy="45.48477496243927" style="fill: rgb(29, 145, 192);"></circle><circle class="fireworkPearl" r="0" cx="150.02004322237053" cy="280" style="fill: rgb(29, 145, 192);"></circle><circle class="fireworkPearl" r="4.380867874285302" cx="130.9893695261815" cy="273.07259173478093" style="fill: rgb(29, 145, 192);"></circle><circle class="fireworkPearl" r="4.380867874285302" cx="143.67672451265113" cy="273.30920657304347" style="fill: rgb(29, 145, 192);"></circle><circle class="fireworkPearl" r="4.380867874285302" cx="137.18200071040513" cy="284.25097032845554" style="fill: rgb(29, 145, 192);"></circle><circle class="fireworkPearl" r="4.380867874285302" cx="162.75413071853256" cy="284.60534736804306" style="fill: rgb(29, 145, 192);"></circle><circle class="fireworkPearl" r="4.380867874285302" cx="143.4082682306099" cy="295.42878433842407" style="fill: rgb(29, 145, 192);"></circle><circle class="fireworkPearl" r="4.380867874285302" cx="156.22071880466837" cy="295.5568333569295" style="fill: rgb(29, 145, 192);"></circle><circle class="fireworkPearl" r="4.380867874285302" cx="169.15219014989552" cy="273.5442945778769" style="fill: rgb(29, 145, 192);"></circle><circle class="fireworkPearl" r="4.380867874285302" cx="156.4263920238055" cy="273.47513033222793" style="fill: rgb(29, 145, 192);"></circle><circle class="fireworkPearl" r="4.380867874285302" cx="150.2227879390496" cy="262.3296877759881" style="fill: rgb(29, 145, 192);"></circle><circle class="fireworkPearl" r="4.380867874285302" cx="149.93272665437908" cy="284.45421831531183" style="fill: rgb(29, 145, 192);"></circle><circle class="fireworkPearl" r="0" cx="205.3925173540378" cy="172.74214178123987" style="fill: rgb(29, 145, 192);"></circle><circle class="fireworkPearl" r="4.380867874285302" cx="179.10635201637837" cy="164.89344633407399" style="fill: rgb(29, 145, 192);"></circle><circle class="fireworkPearl" r="4.380867874285302" cx="191.77829426401354" cy="186.8592334451738" style="fill: rgb(29, 145, 192);"></circle><circle class="fireworkPearl" r="4.380867874285302" cx="185.41376992066077" cy="153.84982040107846" style="fill: rgb(29, 145, 192);"></circle><circle class="fireworkPearl" r="4.380867874285302" cx="210.615601370787" cy="173.2666786831937" style="fill: rgb(29, 145, 192);"></circle><circle class="fireworkPearl" r="4.380867874285302" cx="206.5465945354734" cy="185.19483885661893" style="fill: rgb(29, 145, 192);"></circle><circle class="fireworkPearl" r="4.380867874285302" cx="185.29826208830826" cy="175.8974831096215" style="fill: rgb(29, 145, 192);"></circle><circle class="fireworkPearl" r="4.380867874285302" cx="198.1159777850245" cy="175.88627576809083" style="fill: rgb(29, 145, 192);"></circle><circle class="fireworkPearl" r="4.380867874285302" cx="197.90567649303057" cy="151.35028726422468" style="fill: rgb(29, 145, 192);"></circle><circle class="fireworkPearl" r="4.380867874285302" cx="191.81116482323372" cy="164.7628706974485" style="fill: rgb(29, 145, 192);"></circle><circle class="fireworkPearl" r="4.380867874285302" cx="204.33891295392115" cy="162.40258898852423" style="fill: rgb(29, 145, 192);"></circle><circle class="fireworkPearl" r="0" cx="244.72235162736519" cy="276.1333557977706" style="fill: rgb(65, 182, 196);"></circle><circle class="fireworkPearl" r="4.380867874285302" cx="229.9814972748305" cy="273.86932251094385" style="fill: rgb(65, 182, 196);"></circle><circle class="fireworkPearl" r="4.380867874285302" cx="235.33549684288917" cy="262.3169170067132" style="fill: rgb(65, 182, 196);"></circle><circle class="fireworkPearl" r="4.380867874285302" cx="242.1013040687798" cy="292.41148088538785" style="fill: rgb(65, 182, 196);"></circle><circle class="fireworkPearl" r="4.380867874285302" cx="258.0366725871414" cy="273.82867921229416" style="fill: rgb(65, 182, 196);"></circle><circle class="fireworkPearl" r="4.380867874285302" cx="230.74104050008452" cy="286.5799320889841" style="fill: rgb(65, 182, 196);"></circle><circle class="fireworkPearl" r="4.380867874285302" cx="246.70021989759653" cy="267.994649861484" style="fill: rgb(65, 182, 196);"></circle><circle class="fireworkPearl" r="4.380867874285302" cx="252.7600187881231" cy="285.4550557977448" style="fill: rgb(65, 182, 196);"></circle><circle class="fireworkPearl" r="4.380867874285302" cx="241.396930258228" cy="279.61470412581" style="fill: rgb(65, 182, 196);"></circle><circle class="fireworkPearl" r="0" cx="212.54201271316418" cy="199.5461688897006" style="fill: rgb(65, 182, 196);"></circle><circle class="fireworkPearl" r="4.380867874285303" cx="227.0883150214391" cy="203.42668612875522" style="fill: rgb(65, 182, 196);"></circle><circle class="fireworkPearl" r="4.380867874285303" cx="216.9646801452992" cy="195.2146030732559" style="fill: rgb(65, 182, 196);"></circle><circle class="fireworkPearl" r="4.380867874285303" cx="209.02842020538097" cy="205.11119545115406" style="fill: rgb(65, 182, 196);"></circle><circle class="fireworkPearl" r="4.380867874285303" cx="218.84362922374993" cy="212.97294504776139" style="fill: rgb(65, 182, 196);"></circle><circle class="fireworkPearl" r="4.380867874285303" cx="215.44936385684625" cy="225.27506327604485" style="fill: rgb(65, 182, 196);"></circle><circle class="fireworkPearl" r="4.380867874285303" cx="200.26154451750176" cy="196.04608746176334" style="fill: rgb(65, 182, 196);"></circle><circle class="fireworkPearl" r="4.380867874285303" cx="205.4701025218028" cy="217.34202541145825" style="fill: rgb(65, 182, 196);"></circle><circle class="fireworkPearl" r="0" cx="258.6419628255093" cy="246.8071226267174" style="fill: rgb(29, 145, 192);"></circle><circle class="fireworkPearl" r="4.380867874285303" cx="252.55372218483546" cy="254.84153213986647" style="fill: rgb(29, 145, 192);"></circle><circle class="fireworkPearl" r="4.380867874285303" cx="269.4866177255836" cy="235.62786924303379" style="fill: rgb(29, 145, 192);"></circle><circle class="fireworkPearl" r="4.380867874285303" cx="261.01109581796965" cy="245.25138734055585" style="fill: rgb(29, 145, 192);"></circle><circle class="fireworkPearl" r="4.380867874285303" cx="248.48809860768142" cy="242.73490461147256" style="fill: rgb(29, 145, 192);"></circle><circle class="fireworkPearl" r="4.380867874285303" cx="256.95223743326443" cy="233.17000517471112" style="fill: rgb(29, 145, 192);"></circle><circle class="fireworkPearl" r="4.380867874285303" cx="273.53767951396685" cy="247.74076002808" style="fill: rgb(29, 145, 192);"></circle><circle class="fireworkPearl" r="4.380867874285303" cx="265.0895446459506" cy="257.33308881067074" style="fill: rgb(29, 145, 192);"></circle><circle class="fireworkPearl" r="0" cx="199.3320787097812" cy="202.79838705983727" style="fill: rgb(127, 205, 187);"></circle><circle class="fireworkPearl" r="4.380867874285302" cx="196.56886456376762" cy="208.1593948679813" style="fill: rgb(127, 205, 187);"></circle><circle class="fireworkPearl" r="4.380867874285302" cx="187.7586020774711" cy="198.87921124628593" style="fill: rgb(127, 205, 187);"></circle><circle class="fireworkPearl" r="4.380867874285302" cx="184.08090727170176" cy="211.11399995810396" style="fill: rgb(127, 205, 187);"></circle><circle class="fireworkPearl" r="4.380867874285302" cx="192.87456492114057" cy="220.40166222376268" style="fill: rgb(127, 205, 187);"></circle><circle class="fireworkPearl" r="0" cx="270" cy="279.179917983281" style="fill: rgb(127, 205, 187);"></circle><circle class="fireworkPearl" r="4.380867874285302" cx="277.9759393270072" cy="286.70084448694854" style="fill: rgb(127, 205, 187);"></circle><circle class="fireworkPearl" r="4.380867874285302" cx="283.17529356514046" cy="275.0087088633891" style="fill: rgb(127, 205, 187);"></circle><circle class="fireworkPearl" r="4.380867874285302" cx="265.24748037075983" cy="287.9479699970224" style="fill: rgb(127, 205, 187);"></circle><circle class="fireworkPearl" r="4.380867874285302" cx="270.47241014299493" cy="276.2810505277241" style="fill: rgb(127, 205, 187);"></circle><circle class="fireworkPearl" r="0" cx="247.2031041578853" cy="230.58225192284337" style="fill: rgb(65, 182, 196);"></circle><circle class="fireworkPearl" r="4.380867874285302" cx="242.12476639080242" cy="230.90338424513232" style="fill: rgb(65, 182, 196);"></circle><circle class="fireworkPearl" r="4.380867874285302" cx="251.09156925137955" cy="221.7970215907763" style="fill: rgb(65, 182, 196);"></circle><circle class="fireworkPearl" r="0" cx="241.07260159810255" cy="193.7503275149123" style="fill: rgb(65, 182, 196);"></circle><circle class="fireworkPearl" r="4.380867874285302" cx="251.6125602913895" cy="200.19099415514063" style="fill: rgb(65, 182, 196);"></circle><circle class="fractional-fireworkPearl" r="0" cx="243.38871805180014" cy="240.9236183459223" style="stroke: rgb(127, 205, 187);"></circle><circle class="fractional-fireworkPearl" r="4.380867874285302" cx="235.73856463389447" cy="241.96300678257091" style="stroke: rgb(127, 205, 187);"></circle></g><g id="legendDividerGroup" transform="translate(390,0)" height="400"><rect class="legendDivider" height="400" width="110"></rect></g><g id="fireworkLegend" transform="translate(390,16.99738369208967)" width="110" height="320"><rect class="legendBorder" transform="translate(0,0)" width="110" height="346.00523261582066"></rect><text id="rTitle" text-anchor="middle" alignment-baseline="hanging" transform="translate(55,0)" x="0" y="0" style="fill: black; font-size: 0.8rem;">Population</text><text id="bobaValue" text-anchor="middle" alignment-baseline="hanging" transform="translate(55,15)" x="0" y="0" style="fill: black; font-size: 0.7rem;">(1 Pearl =   75)</text><g class="" cupRadius="8.94427190999916" width="17.88854381999832" height="17.88854381999832" pearlRadius="5.476084842856627" pearlCount="1" transform="translate(46.05572809000084,37.71508007355858)"><path class="link" d="M8.94427190999916,8.94427190999916L8.738076112960377,9.158560713375284" style="stroke: rgb(65, 182, 196);"></path><circle class="fractional-fireworkPearl" r="0" cx="8.94427190999916" cy="8.94427190999916" style="stroke: rgb(65, 182, 196);"></circle><circle class="fractional-fireworkPearl" r="4.380867874285302" cx="8.738076112960377" cy="9.158560713375284" style="stroke: rgb(65, 182, 196);"></circle></g><text id="0" class="legendSampleValue" text-anchor="middle" transform="translate(55,8)" x="0" y="58.318703967115475" style="fill: black; font-size: 0.7rem;">&lt;   75</text><g class="" cupRadius="23.6159367615052" width="47.2318735230104" height="47.2318735230104" pearlRadius="5.476084842856627" pearlCount="6" transform="translate(31.3840632384948,78.31870396711548)"><path class="link" d="M23.6159367615052,23.6159367615052L19.967732659509878,36.80021088372096" style="stroke: rgb(65, 182, 196);"></path><path class="link" d="M23.6159367615052,23.6159367615052L33.629501389509954,18.227545311869456" style="stroke: rgb(65, 182, 196);"></path><path class="link" d="M23.6159367615052,23.6159367615052L10.297820650602002,19.95567887944778" style="stroke: rgb(65, 182, 196);"></path><path class="link" d="M23.6159367615052,23.6159367615052L33.056153785680614,31.217969794885885" style="stroke: rgb(65, 182, 196);"></path><path class="link" d="M23.6159367615052,23.6159367615052L22.554247883569477,11.45400268839509" style="stroke: rgb(65, 182, 196);"></path><path class="link" d="M23.6159367615052,23.6159367615052L22.34349540068606,24.23821616563625" style="stroke: rgb(65, 182, 196);"></path><circle class="fireworkPearl" r="0" cx="23.6159367615052" cy="23.6159367615052" style="fill: rgb(65, 182, 196);"></circle><circle class="fireworkPearl" r="4.380867874285302" cx="22.34349540068606" cy="24.23821616563625" style="fill: rgb(65, 182, 196);"></circle><circle class="fireworkPearl" r="4.380867874285302" cx="22.554247883569477" cy="11.45400268839509" style="fill: rgb(65, 182, 196);"></circle><circle class="fireworkPearl" r="4.380867874285302" cx="33.056153785680614" cy="31.217969794885885" style="fill: rgb(65, 182, 196);"></circle><circle class="fireworkPearl" r="4.380867874285302" cx="10.297820650602002" cy="19.95567887944778" style="fill: rgb(65, 182, 196);"></circle><circle class="fireworkPearl" r="4.380867874285302" cx="33.629501389509954" cy="18.227545311869456" style="fill: rgb(65, 182, 196);"></circle><circle class="fireworkPearl" r="4.380867874285302" cx="19.967732659509878" cy="36.80021088372096" style="fill: rgb(65, 182, 196);"></circle></g><text id="1" class="legendSampleValue" text-anchor="middle" transform="translate(55,8)" x="0" y="130.55057749012587" style="fill: black; font-size: 0.7rem;"> 520</text><g class="" cupRadius="32.7273275628474" width="65.4546551256948" height="65.4546551256948" pearlRadius="5.476084842856628" pearlCount="13" transform="translate(22.2726724371526,150.55057749012587)"><path class="link" d="M32.7273275628474,32.7273275628474L52.9152677969698,30.997313286090538" style="stroke: rgb(65, 182, 196);"></path><path class="link" d="M32.7273275628474,32.7273275628474L14.445729136336787,19.760404629440963" style="stroke: rgb(65, 182, 196);"></path><path class="link" d="M32.7273275628474,32.7273275628474L38.815389361951844,48.671619970224825" style="stroke: rgb(65, 182, 196);"></path><path class="link" d="M32.7273275628474,32.7273275628474L38.57177459201115,11.293948515517958" style="stroke: rgb(65, 182, 196);"></path><path class="link" d="M32.7273275628474,32.7273275628474L16.12433054477798,44.44072261245489" style="stroke: rgb(65, 182, 196);"></path><path class="link" d="M32.7273275628474,32.7273275628474L50.54176835966276,43.565101866985536" style="stroke: rgb(65, 182, 196);"></path><path class="link" d="M32.7273275628474,32.7273275628474L26.506072816222257,15.519387042241485" style="stroke: rgb(65, 182, 196);"></path><path class="link" d="M32.7273275628474,32.7273275628474L26.74970276049305,52.909649718701715" style="stroke: rgb(65, 182, 196);"></path><path class="link" d="M32.7273275628474,32.7273275628474L42.62955651515631,23.41417677661572" style="stroke: rgb(65, 182, 196);"></path><path class="link" d="M32.7273275628474,32.7273275628474L18.49914441913597,31.88280539324613" style="stroke: rgb(65, 182, 196);"></path><path class="link" d="M32.7273275628474,32.7273275628474L40.25387044096011,35.96678259755433" style="stroke: rgb(65, 182, 196);"></path><path class="link" d="M32.7273275628474,32.7273275628474L30.558639959818475,27.64443387129806" style="stroke: rgb(65, 182, 196);"></path><path class="link" d="M32.7273275628474,32.7273275628474L28.197263220624652,40.20959136681313" style="stroke: rgb(65, 182, 196);"></path><circle class="fireworkPearl" r="0" cx="32.7273275628474" cy="32.7273275628474" style="fill: rgb(65, 182, 196);"></circle><circle class="fireworkPearl" r="4.380867874285303" cx="28.197263220624652" cy="40.20959136681313" style="fill: rgb(65, 182, 196);"></circle><circle class="fireworkPearl" r="4.380867874285303" cx="30.558639959818475" cy="27.64443387129806" style="fill: rgb(65, 182, 196);"></circle><circle class="fireworkPearl" r="4.380867874285303" cx="40.25387044096011" cy="35.96678259755433" style="fill: rgb(65, 182, 196);"></circle><circle class="fireworkPearl" r="4.380867874285303" cx="18.49914441913597" cy="31.88280539324613" style="fill: rgb(65, 182, 196);"></circle><circle class="fireworkPearl" r="4.380867874285303" cx="42.62955651515631" cy="23.41417677661572" style="fill: rgb(65, 182, 196);"></circle><circle class="fireworkPearl" r="4.380867874285303" cx="26.74970276049305" cy="52.909649718701715" style="fill: rgb(65, 182, 196);"></circle><circle class="fireworkPearl" r="4.380867874285303" cx="26.506072816222257" cy="15.519387042241485" style="fill: rgb(65, 182, 196);"></circle><circle class="fireworkPearl" r="4.380867874285303" cx="50.54176835966276" cy="43.565101866985536" style="fill: rgb(65, 182, 196);"></circle><circle class="fireworkPearl" r="4.380867874285303" cx="16.12433054477798" cy="44.44072261245489" style="fill: rgb(65, 182, 196);"></circle><circle class="fireworkPearl" r="4.380867874285303" cx="38.57177459201115" cy="11.293948515517958" style="fill: rgb(65, 182, 196);"></circle><circle class="fireworkPearl" r="4.380867874285303" cx="38.815389361951844" cy="48.671619970224825" style="fill: rgb(65, 182, 196);"></circle><circle class="fireworkPearl" r="4.380867874285303" cx="14.445729136336787" cy="19.760404629440963" style="fill: rgb(65, 182, 196);"></circle><circle class="fireworkPearl" r="4.380867874285303" cx="52.9152677969698" cy="30.997313286090538" style="fill: rgb(65, 182, 196);"></circle></g><text id="2" class="legendSampleValue" text-anchor="middle" transform="translate(55,8)" x="0" y="221.00523261582066" style="fill: black; font-size: 0.7rem;">1.0k</text><g class="" cupRadius="40" width="80" height="80" pearlRadius="5.476084842856627" pearlCount="20" transform="translate(15,241.00523261582066)"><path class="link" d="M40,40L25.425027674916183,16.263442207899466" style="stroke: rgb(65, 182, 196);"></path><path class="link" d="M40,40L41.515861316067344,70.52479907695337" style="stroke: rgb(65, 182, 196);"></path><path class="link" d="M40,40L59.06971921970406,21.602919171747843" style="stroke: rgb(65, 182, 196);"></path><path class="link" d="M40,40L14.560647825128665,39.29597609426523" style="stroke: rgb(65, 182, 196);"></path><path class="link" d="M40,40L60.57379429362364,57.39578067335398" style="stroke: rgb(65, 182, 196);"></path><path class="link" d="M40,40L38.294371914838926,13.863961990424544" style="stroke: rgb(65, 182, 196);"></path><path class="link" d="M40,40L22.60218609174795,61.65413222330635" style="stroke: rgb(65, 182, 196);"></path><path class="link" d="M40,40L67.36098029977207,33.53208733163045" style="stroke: rgb(65, 182, 196);"></path><path class="link" d="M40,40L18.951921637057474,27.288007262972428" style="stroke: rgb(65, 182, 196);"></path><path class="link" d="M40,40L47.961201594127296,59.48442910483396" style="stroke: rgb(65, 182, 196);"></path><path class="link" d="M40,40L46.457907812769925,23.70426514272581" style="stroke: rgb(65, 182, 196);"></path><path class="link" d="M40,40L23.00554487656268,48.88159911988176" style="stroke: rgb(65, 182, 196);"></path><path class="link" d="M40,40L61.00190939221505,44.61977057481227" style="stroke: rgb(65, 182, 196);"></path><path class="link" d="M40,40L33.86174656715077,25.874926758385403" style="stroke: rgb(65, 182, 196);"></path><path class="link" d="M40,40L35.182086312474915,59.4160892639974" style="stroke: rgb(65, 182, 196);"></path><path class="link" d="M40,40L54.565981633757694,33.57675316332617" style="stroke: rgb(65, 182, 196);"></path><path class="link" d="M40,40L27.399627412808663,36.89162472541311" style="stroke: rgb(65, 182, 196);"></path><path class="link" d="M40,40L48.38383587430125,46.71017179308868" style="stroke: rgb(65, 182, 196);"></path><path class="link" d="M40,40L41.978387885061274,35.69296183812537" style="stroke: rgb(65, 182, 196);"></path><path class="link" d="M40,40L35.589292985966054,46.69451643864023" style="stroke: rgb(65, 182, 196);"></path><circle class="fireworkPearl" r="0" cx="40" cy="40" style="fill: rgb(65, 182, 196);"></circle><circle class="fireworkPearl" r="4.380867874285302" cx="35.589292985966054" cy="46.69451643864023" style="fill: rgb(65, 182, 196);"></circle><circle class="fireworkPearl" r="4.380867874285302" cx="41.978387885061274" cy="35.69296183812537" style="fill: rgb(65, 182, 196);"></circle><circle class="fireworkPearl" r="4.380867874285302" cx="48.38383587430125" cy="46.71017179308868" style="fill: rgb(65, 182, 196);"></circle><circle class="fireworkPearl" r="4.380867874285302" cx="27.399627412808663" cy="36.89162472541311" style="fill: rgb(65, 182, 196);"></circle><circle class="fireworkPearl" r="4.380867874285302" cx="54.565981633757694" cy="33.57675316332617" style="fill: rgb(65, 182, 196);"></circle><circle class="fireworkPearl" r="4.380867874285302" cx="35.182086312474915" cy="59.4160892639974" style="fill: rgb(65, 182, 196);"></circle><circle class="fireworkPearl" r="4.380867874285302" cx="33.86174656715077" cy="25.874926758385403" style="fill: rgb(65, 182, 196);"></circle><circle class="fireworkPearl" r="4.380867874285302" cx="61.00190939221505" cy="44.61977057481227" style="fill: rgb(65, 182, 196);"></circle><circle class="fireworkPearl" r="4.380867874285302" cx="23.00554487656268" cy="48.88159911988176" style="fill: rgb(65, 182, 196);"></circle><circle class="fireworkPearl" r="4.380867874285302" cx="46.457907812769925" cy="23.70426514272581" style="fill: rgb(65, 182, 196);"></circle><circle class="fireworkPearl" r="4.380867874285302" cx="47.961201594127296" cy="59.48442910483396" style="fill: rgb(65, 182, 196);"></circle><circle class="fireworkPearl" r="4.380867874285302" cx="18.951921637057474" cy="27.288007262972428" style="fill: rgb(65, 182, 196);"></circle><circle class="fireworkPearl" r="4.380867874285302" cx="67.36098029977207" cy="33.53208733163045" style="fill: rgb(65, 182, 196);"></circle><circle class="fireworkPearl" r="4.380867874285302" cx="22.60218609174795" cy="61.65413222330635" style="fill: rgb(65, 182, 196);"></circle><circle class="fireworkPearl" r="4.380867874285302" cx="38.294371914838926" cy="13.863961990424544" style="fill: rgb(65, 182, 196);"></circle><circle class="fireworkPearl" r="4.380867874285302" cx="60.57379429362364" cy="57.39578067335398" style="fill: rgb(65, 182, 196);"></circle><circle class="fireworkPearl" r="4.380867874285302" cx="14.560647825128665" cy="39.29597609426523" style="fill: rgb(65, 182, 196);"></circle><circle class="fireworkPearl" r="4.380867874285302" cx="59.06971921970406" cy="21.602919171747843" style="fill: rgb(65, 182, 196);"></circle><circle class="fireworkPearl" r="4.380867874285302" cx="41.515861316067344" cy="70.52479907695337" style="fill: rgb(65, 182, 196);"></circle><circle class="fireworkPearl" r="4.380867874285302" cx="25.425027674916183" cy="16.263442207899466" style="fill: rgb(65, 182, 196);"></circle></g><text id="3" class="legendSampleValue" text-anchor="middle" transform="translate(55,8)" x="0" y="326.00523261582066" style="fill: black; font-size: 0.7rem;">1.5k</text><text id="coloringDisclaimer" transform="translate(55,8)" text-anchor="middle" x="0" y="341.00523261582066" style="font-size: 0.7rem; opacity: 0.6;">(note: coloring</text><text id="coloringDisclaimer" transform="translate(55,8)" text-anchor="middle" x="0" y="356.00523261582066" style="font-size: 0.7rem; opacity: 0.6;">is random)</text></g></svg>