<?xml version="1.0" standalone="no"?>
<?xml-stylesheet xmlns="http://www.w3.org/2000/svg" type="text/css" href="style.css"?>
<svg id="syntheticVisC" class="default" xTitle="Percent Cat Owners" yTitle="Percent Dog Owners" rTitle="Population" chartTitle="Towns in Vizzyland" width="500" height="400" xmlns="http://www.w3.org/2000/svg"><text id="chartTitle" text-anchor="middle" transform="translate(250,20)" x="0" y="0" style="fill: black; font-size: 1.2rem;">Towns in Vizzyland</text><g id="yAxis" transform="translate(50,30)" fill="none" font-size="10" font-family="sans-serif" text-anchor="end"><path class="domain" stroke="currentColor" d="M-6,280H0V40H-6"></path><g class="tick" opacity="1" transform="translate(0,280)"><line stroke="currentColor" x2="-6"></line><text fill="currentColor" x="-9" dy="0.32em">0</text></g><g class="tick" opacity="1" transform="translate(0,256)"><line stroke="currentColor" x2="-6"></line><text fill="currentColor" x="-9" dy="0.32em">10</text></g><g class="tick" opacity="1" transform="translate(0,232)"><line stroke="currentColor" x2="-6"></line><text fill="currentColor" x="-9" dy="0.32em">20</text></g><g class="tick" opacity="1" transform="translate(0,208)"><line stroke="currentColor" x2="-6"></line><text fill="currentColor" x="-9" dy="0.32em">30</text></g><g class="tick" opacity="1" transform="translate(0,184)"><line stroke="currentColor" x2="-6"></line><text fill="currentColor" x="-9" dy="0.32em">40</text></g><g class="tick" opacity="1" transform="translate(0,160)"><line stroke="currentColor" x2="-6"></line><text fill="currentColor" x="-9" dy="0.32em">50</text></g><g class="tick" opacity="1" transform="translate(0,136)"><line stroke="currentColor" x2="-6"></line><text fill="currentColor" x="-9" dy="0.32em">60</text></g><g class="tick" opacity="1" transform="translate(0,112.00000000000001)"><line stroke="currentColor" x2="-6"></line><text fill="currentColor" x="-9" dy="0.32em">70</text></g><g class="tick" opacity="1" transform="translate(0,87.99999999999999)"><line stroke="currentColor" x2="-6"></line><text fill="currentColor" x="-9" dy="0.32em">80</text></g><g class="tick" opacity="1" transform="translate(0,63.99999999999999)"><line stroke="currentColor" x2="-6"></line><text fill="currentColor" x="-9" dy="0.32em">90</text></g><g class="tick" opacity="1" transform="translate(0,40)"><line stroke="currentColor" x2="-6"></line><text fill="currentColor" x="-9" dy="0.32em">100</text></g></g><g id="xAxis" transform="translate(60,360)" fill="none" font-size="10" font-family="sans-serif" text-anchor="middle"><path class="domain" stroke="currentColor" d="M40,6V0H270V6"></path><g class="tick" opacity="1" transform="translate(40,0)"><line stroke="currentColor" y2="6"></line><text fill="currentColor" y="9" dy="0.71em">0</text></g><g class="tick" opacity="1" transform="translate(63,0)"><line stroke="currentColor" y2="6"></line><text fill="currentColor" y="9" dy="0.71em">10</text></g><g class="tick" opacity="1" transform="translate(86,0)"><line stroke="currentColor" y2="6"></line><text fill="currentColor" y="9" dy="0.71em">20</text></g><g class="tick" opacity="1" transform="translate(109,0)"><line stroke="currentColor" y2="6"></line><text fill="currentColor" y="9" dy="0.71em">30</text></g><g class="tick" opacity="1" transform="translate(132,0)"><line stroke="currentColor" y2="6"></line><text fill="currentColor" y="9" dy="0.71em">40</text></g><g class="tick" opacity="1" transform="translate(155,0)"><line stroke="currentColor" y2="6"></line><text fill="currentColor" y="9" dy="0.71em">50</text></g><g class="tick" opacity="1" transform="translate(178,0)"><line stroke="currentColor" y2="6"></line><text fill="currentColor" y="9" dy="0.71em">60</text></g><g class="tick" opacity="1" transform="translate(201,0)"><line stroke="currentColor" y2="6"></line><text fill="currentColor" y="9" dy="0.71em">70</text></g><g class="tick" opacity="1" transform="translate(224,0)"><line stroke="currentColor" y2="6"></line><text fill="currentColor" y="9" dy="0.71em">80</text></g><g class="tick" opacity="1" transform="translate(247,0)"><line stroke="currentColor" y2="6"></line><text fill="currentColor" y="9" dy="0.71em">90</text></g><g class="tick" opacity="1" transform="translate(270,0)"><line stroke="currentColor" y2="6"></line><text fill="currentColor" y="9" dy="0.71em">100</text></g></g><g id="labels"><text id="xTitle" text-anchor="middle" transform="translate(250,350)" x="0" y="40" style="fill: black; font-size: 0.8rem;">Percent Cat Owners</text><g id="group-yTitle" transform="translate(60,190)"><text id="yTitle" text-anchor="middle" transform="rotate(-90)" y="-45" style="fill: black; font-size: 0.8rem;">Percent Dog Owners</text></g></g><g id="quadrant_lines" transform="translate(60,30)"><line id="verticalQuadrantLine" x1="155" y1="20" x2="155" y2="300" class="quadrantLine"></line><line id="horizontalQuadrantLine" x1="20" y1="160" x2="290" y2="160" class="quadrantLine"></line></g><g id="fireworkChart" transform="translate(60,30)"><path class="link" d="M222.40883162695474,82.25817851829063L215.1373125953731,74.33785036315005" style="stroke: rgb(29, 145, 192);"></path><path class="link" d="M222.40883162695474,82.25817851829063L217.85485315813017,86.8303744289841" style="stroke: rgb(29, 145, 192);"></path><path class="link" d="M222.40883162695474,82.25817851829063L227.33375508251675,78.21439028988652" style="stroke: rgb(29, 145, 192);"></path><path class="link" d="M208.86019826854104,162.44898697598734L214.16989673096035,159.1279919443863" style="stroke: rgb(65, 182, 196);"></path><path class="link" d="M208.86019826854104,162.44898697598734L207.58086131870462,148.16711349368595" style="stroke: rgb(65, 182, 196);"></path><path class="link" d="M208.86019826854104,162.44898697598734L226.944657305313,159.2134916657532" style="stroke: rgb(65, 182, 196);"></path><path class="link" d="M208.86019826854104,162.44898697598734L220.67693244908003,170.3467351795345" style="stroke: rgb(65, 182, 196);"></path><path class="link" d="M40,169.03365840169502L14.771392548705418,162.169655961234" style="stroke: rgb(65, 182, 196);"></path><path class="link" d="M40,169.03365840169502L16.535861610450972,174.82322637578332" style="stroke: rgb(65, 182, 196);"></path><path class="link" d="M40,169.03365840169502L18.372734908467145,187.4274123086483" style="stroke: rgb(65, 182, 196);"></path><path class="link" d="M40,169.03365840169502L28.449931574815434,179.54116651240608" style="stroke: rgb(65, 182, 196);"></path><path class="link" d="M65.50078336932549,240.9569547107711L44.14966022914828,236.64797990107394" style="stroke: rgb(127, 205, 187);"></path><path class="link" d="M65.50078336932549,240.9569547107711L43.4001105282192,223.88485403528773" style="stroke: rgb(127, 205, 187);"></path><path class="link" d="M65.50078336932549,240.9569547107711L54.86008429593584,229.59274361984862" style="stroke: rgb(127, 205, 187);"></path><path class="link" d="M65.50078336932549,240.9569547107711L44.59932228122826,249.32590078265963" style="stroke: rgb(127, 205, 187);"></path><path class="link" d="M65.50078336932549,240.9569547107711L55.763379802062275,242.30624424925296" style="stroke: rgb(127, 205, 187);"></path><path class="link" d="M270,208.72550975424323L260.86283490326525,209.5744006751181" style="stroke: rgb(65, 182, 196);"></path><path class="link" d="M270,208.72550975424323L263.35624728401814,197.03471544026206" style="stroke: rgb(65, 182, 196);"></path><path class="link" d="M270,208.72550975424323L270.4933699939162,217.96317943060748" style="stroke: rgb(65, 182, 196);"></path><path class="link" d="M270,208.72550975424323L282.5618132454002,213.7873444472324" style="stroke: rgb(65, 182, 196);"></path><path class="link" d="M270,208.72550975424323L272.9777585200493,205.3895188723245" style="stroke: rgb(65, 182, 196);"></path><path class="link" d="M72.17284680838473,40L84.40526591843185,46.43911593041354" style="stroke: rgb(65, 182, 196);"></path><path class="link" d="M72.17284680838473,40L80.91430670248847,24.398814620852267" style="stroke: rgb(65, 182, 196);"></path><path class="link" d="M72.17284680838473,40L68.21138404138667,25.8256934670874" style="stroke: rgb(65, 182, 196);"></path><path class="link" d="M72.17284680838473,40L76.5598403829114,36.39371349062777" style="stroke: rgb(65, 182, 196);"></path><path class="link" d="M72.17284680838473,40L63.91990577462362,37.89432017470049" style="stroke: rgb(65, 182, 196);"></path><path class="link" d="M72.17284680838473,40L71.70555543553571,48.229163219805116" style="stroke: rgb(65, 182, 196);"></path><path class="link" d="M72.17284680838473,40L89.09884342076536,34.491245876655064" style="stroke: rgb(65, 182, 196);"></path><path class="link" d="M202.98729089987106,167.71350035001626L214.4369887053548,181.39183140088141" style="stroke: rgb(29, 145, 192);"></path><path class="link" d="M202.98729089987106,167.71350035001626L201.40309522431298,159.37937177184827" style="stroke: rgb(29, 145, 192);"></path><path class="link" d="M202.98729089987106,167.71350035001626L189.0437433282076,181.59472938006132" style="stroke: rgb(29, 145, 192);"></path><path class="link" d="M202.98729089987106,167.71350035001626L188.70540323838665,159.45712293872919" style="stroke: rgb(29, 145, 192);"></path><path class="link" d="M202.98729089987106,167.71350035001626L201.74924676720974,181.43731630139337" style="stroke: rgb(29, 145, 192);"></path><path class="link" d="M202.98729089987106,167.71350035001626L207.92688271963195,170.2982882261503" style="stroke: rgb(29, 145, 192);"></path><path class="link" d="M202.98729089987106,167.71350035001626L182.55503605448814,170.62186388292034" style="stroke: rgb(29, 145, 192);"></path><path class="link" d="M202.98729089987106,167.71350035001626L195.24944029001875,170.4627232181719" style="stroke: rgb(29, 145, 192);"></path><path class="link" d="M94.87485793821621,223.1894644268252L108.0151725378022,215.73009432431397" style="stroke: rgb(65, 182, 196);"></path><path class="link" d="M94.87485793821621,223.1894644268252L96.03522521810713,211.40071179808936" style="stroke: rgb(65, 182, 196);"></path><path class="link" d="M94.87485793821621,223.1894644268252L111.44226696528693,240.7171132804819" style="stroke: rgb(65, 182, 196);"></path><path class="link" d="M94.87485793821621,223.1894644268252L94.7510885336733,198.76639011179344" style="stroke: rgb(65, 182, 196);"></path><path class="link" d="M94.87485793821621,223.1894644268252L109.55035744632862,228.21624274044115" style="stroke: rgb(65, 182, 196);"></path><path class="link" d="M94.87485793821621,223.1894644268252L106.78237375340959,203.08821214530448" style="stroke: rgb(65, 182, 196);"></path><path class="link" d="M94.87485793821621,223.1894644268252L119.75813399979013,220.45971280681078" style="stroke: rgb(65, 182, 196);"></path><path class="link" d="M94.87485793821621,223.1894644268252L84.39965788320238,206.3855789266821" style="stroke: rgb(65, 182, 196);"></path><path class="link" d="M75.02389718550917,254.19172508254596L67.09518313738943,260.25401141782476" style="stroke: rgb(65, 182, 196);"></path><path class="link" d="M75.02389718550917,254.19172508254596L68.09136443969656,272.99321723354853" style="stroke: rgb(65, 182, 196);"></path><path class="link" d="M75.02389718550917,254.19172508254596L90.90571534177779,256.9664459042127" style="stroke: rgb(65, 182, 196);"></path><path class="link" d="M75.02389718550917,254.19172508254596L89.66435672531942,269.6749216992033" style="stroke: rgb(65, 182, 196);"></path><path class="link" d="M75.02389718550917,254.19172508254596L79.887581991735,277.78772152853963" style="stroke: rgb(65, 182, 196);"></path><path class="link" d="M75.02389718550917,254.19172508254596L56.55956084167213,267.57105964372556" style="stroke: rgb(65, 182, 196);"></path><path class="link" d="M75.02389718550917,254.19172508254596L55.76179745098342,254.8707216108951" style="stroke: rgb(65, 182, 196);"></path><path class="link" d="M75.02389718550917,254.19172508254596L67.40776656353971,247.4678606119714" style="stroke: rgb(65, 182, 196);"></path><path class="link" d="M75.02389718550917,254.19172508254596L78.16565314582235,265.0733020031627" style="stroke: rgb(65, 182, 196);"></path><path class="link" d="M75.02389718550917,254.19172508254596L79.07912467622073,252.3829076977791" style="stroke: rgb(65, 182, 196);"></path><path class="link" d="M163.2565591990488,115.3105517665746L181.55085401742815,123.03194112922979" style="stroke: rgb(127, 205, 187);"></path><path class="link" d="M163.2565591990488,115.3105517665746L177.8377276164352,110.79548298760373" style="stroke: rgb(127, 205, 187);"></path><path class="link" d="M163.2565591990488,115.3105517665746L153.21922939422865,104.48826881269001" style="stroke: rgb(127, 205, 187);"></path><path class="link" d="M163.2565591990488,115.3105517665746L144.59773923545046,113.92719362462744" style="stroke: rgb(127, 205, 187);"></path><path class="link" d="M163.2565591990488,115.3105517665746L165.4423436007005,107.99176911253842" style="stroke: rgb(127, 205, 187);"></path><path class="link" d="M163.2565591990488,115.3105517665746L156.8541969971172,117.3943292026743" style="stroke: rgb(127, 205, 187);"></path><path class="link" d="M163.2565591990488,115.3105517665746L169.17844469140948,120.25999630620241" style="stroke: rgb(127, 205, 187);"></path><path class="link" d="M163.2565591990488,115.3105517665746L148.1689822579663,126.61766043921338" style="stroke: rgb(127, 205, 187);"></path><path class="link" d="M163.2565591990488,115.3105517665746L160.60108885354396,129.6560208083976" style="stroke: rgb(127, 205, 187);"></path><path class="link" d="M163.2565591990488,115.3105517665746L173.90691746299004,98.58428681612006" style="stroke: rgb(127, 205, 187);"></path><path class="link" d="M261.3216606936832,280L255.9404205410372,272.63676914484864" style="stroke: rgb(127, 205, 187);"></path><path class="link" d="M261.3216606936832,280L268.5816966299774,274.43804735183477" style="stroke: rgb(127, 205, 187);"></path><path class="link" d="M261.3216606936832,280L265.47561982899094,296.27317510340293" style="stroke: rgb(127, 205, 187);"></path><path class="link" d="M261.3216606936832,280L263.8302134619282,262.5229772148412" style="stroke: rgb(127, 205, 187);"></path><path class="link" d="M261.3216606936832,280L252.8197941467039,294.4691422539508" style="stroke: rgb(127, 205, 187);"></path><path class="link" d="M261.3216606936832,280L281.1539648333074,276.13298601778496" style="stroke: rgb(127, 205, 187);"></path><path class="link" d="M261.3216606936832,280L243.3955723185951,270.7511322565824" style="stroke: rgb(127, 205, 187);"></path><path class="link" d="M261.3216606936832,280L248.0699810881985,282.6597782940738" style="stroke: rgb(127, 205, 187);"></path><path class="link" d="M261.3216606936832,280L273.33768868519746,286.2614555331156" style="stroke: rgb(127, 205, 187);"></path><path class="link" d="M261.3216606936832,280L260.70649768679056,284.44262204241335" style="stroke: rgb(127, 205, 187);"></path><path class="link" d="M114.16710527689541,270.0248601470355L117.6232251016875,287.5520663617412" style="stroke: rgb(65, 182, 196);"></path><path class="link" d="M114.16710527689541,270.0248601470355L113.15034222361616,275.6009783799185" style="stroke: rgb(65, 182, 196);"></path><path class="link" d="M114.16710527689541,270.0248601470355L104.87608618649914,286.30977350297417" style="stroke: rgb(65, 182, 196);"></path><path class="link" d="M114.16710527689541,270.0248601470355L128.46449091946837,255.44983979803524" style="stroke: rgb(65, 182, 196);"></path><path class="link" d="M114.16710527689541,270.0248601470355L120.70000953158589,265.45431352894514" style="stroke: rgb(65, 182, 196);"></path><path class="link" d="M114.16710527689541,270.0248601470355L130.2127333495815,289.0476162617884" style="stroke: rgb(65, 182, 196);"></path><path class="link" d="M114.16710527689541,270.0248601470355L133.34588210822025,267.30408250711554" style="stroke: rgb(65, 182, 196);"></path><path class="link" d="M114.16710527689541,270.0248601470355L115.76660062619682,253.69542374294815" style="stroke: rgb(65, 182, 196);"></path><path class="link" d="M114.16710527689541,270.0248601470355L100.8044477388902,274.31494426825986" style="stroke: rgb(65, 182, 196);"></path><path class="link" d="M114.16710527689541,270.0248601470355L107.99434686601899,263.7946073926979" style="stroke: rgb(65, 182, 196);"></path><path class="link" d="M114.16710527689541,270.0248601470355L125.55840893251066,277.28353262087086" style="stroke: rgb(65, 182, 196);"></path><path class="link" d="M51.46501014916393,55.13831967470668L35.80886290348663,73.80098719112497" style="stroke: rgb(127, 205, 187);"></path><path class="link" d="M51.46501014916393,55.13831967470668L46.38408772368472,50.821025162373715" style="stroke: rgb(127, 205, 187);"></path><path class="link" d="M51.46501014916393,55.13831967470668L38.76686091346854,40.55831448191648" style="stroke: rgb(127, 205, 187);"></path><path class="link" d="M51.46501014916393,55.13831967470668L41.22088099450207,62.35985366802277" style="stroke: rgb(127, 205, 187);"></path><path class="link" d="M51.46501014916393,55.13831967470668L48.620753277087225,72.78693844033124" style="stroke: rgb(127, 205, 187);"></path><path class="link" d="M51.46501014916393,55.13831967470668L33.55226878211067,52.20923283277454" style="stroke: rgb(127, 205, 187);"></path><path class="link" d="M51.46501014916393,55.13831967470668L51.43206695934242,39.19886184348307" style="stroke: rgb(127, 205, 187);"></path><path class="link" d="M51.46501014916393,55.13831967470668L61.3051639494757,71.49282366291759" style="stroke: rgb(127, 205, 187);"></path><path class="link" d="M51.46501014916393,55.13831967470668L53.91893573068219,61.09244178745292" style="stroke: rgb(127, 205, 187);"></path><path class="link" d="M51.46501014916393,55.13831967470668L66.5653089186074,59.83314806153101" style="stroke: rgb(127, 205, 187);"></path><path class="link" d="M51.46501014916393,55.13831967470668L59.05187449090363,49.50647684115385" style="stroke: rgb(127, 205, 187);"></path><path class="link" d="M84.60545050213936,233.09975918951855L77.80791423731677,239.72610430869452" style="stroke: rgb(127, 205, 187);"></path><path class="link" d="M84.60545050213936,233.09975918951855L101.28032824759947,248.97770330064225" style="stroke: rgb(127, 205, 187);"></path><path class="link" d="M84.60545050213936,233.09975918951855L97.59728226886179,223.94998136129288" style="stroke: rgb(127, 205, 187);"></path><path class="link" d="M84.60545050213936,233.09975918951855L64.52926106452512,221.61223044528072" style="stroke: rgb(127, 205, 187);"></path><path class="link" d="M84.60545050213936,233.09975918951855L66.19246574076861,234.8614668857074" style="stroke: rgb(127, 205, 187);"></path><path class="link" d="M84.60545050213936,233.09975918951855L85.82187493598641,219.11242114397612" style="stroke: rgb(127, 205, 187);"></path><path class="link" d="M84.60545050213936,233.09975918951855L74.33696413927888,213.92271622368582" style="stroke: rgb(127, 205, 187);"></path><path class="link" d="M84.60545050213936,233.09975918951855L76.09787400222332,227.00507959358194" style="stroke: rgb(127, 205, 187);"></path><path class="link" d="M84.60545050213936,233.09975918951855L99.3732211500791,236.40792469452296" style="stroke: rgb(127, 205, 187);"></path><path class="link" d="M84.60545050213936,233.09975918951855L89.44604026335783,244.33479788018482" style="stroke: rgb(127, 205, 187);"></path><path class="link" d="M84.60545050213936,233.09975918951855L87.65875790505042,231.753761677237" style="stroke: rgb(127, 205, 187);"></path><path class="link" d="M234.84953092474476,128.02052361444305L250.6022080390546,136.91416094189088" style="stroke: rgb(127, 205, 187);"></path><path class="link" d="M234.84953092474476,128.02052361444305L220.20370341874155,113.68864769103035" style="stroke: rgb(127, 205, 187);"></path><path class="link" d="M234.84953092474476,128.02052361444305L227.13235740244545,146.51704113522536" style="stroke: rgb(127, 205, 187);"></path><path class="link" d="M234.84953092474476,128.02052361444305L216.94056710480993,138.86067399669798" style="stroke: rgb(127, 205, 187);"></path><path class="link" d="M234.84953092474476,128.02052361444305L218.52742763706274,126.27928791749774" style="stroke: rgb(127, 205, 187);"></path><path class="link" d="M234.84953092474476,128.02052361444305L238.84306072466865,141.673320644549" style="stroke: rgb(127, 205, 187);"></path><path class="link" d="M234.84953092474476,128.02052361444305L230.3932173481501,121.48386501701182" style="stroke: rgb(127, 205, 187);"></path><path class="link" d="M234.84953092474476,128.02052361444305L232.04281314150128,108.81539292220094" style="stroke: rgb(127, 205, 187);"></path><path class="link" d="M234.84953092474476,128.02052361444305L240.48599768760508,129.05917788265472" style="stroke: rgb(127, 205, 187);"></path><path class="link" d="M234.84953092474476,128.02052361444305L248.78828087075928,149.60493900554755" style="stroke: rgb(127, 205, 187);"></path><path class="link" d="M234.84953092474476,128.02052361444305L228.69237838717433,133.97154267430673" style="stroke: rgb(127, 205, 187);"></path><path class="link" d="M250.7661730478136,109.92849522732394L242.21447648727823,116.54716405496815" style="stroke: rgb(65, 182, 196);"></path><path class="link" d="M250.7661730478136,109.92849522732394L275.79694116687125,115.11192363820675" style="stroke: rgb(65, 182, 196);"></path><path class="link" d="M250.7661730478136,109.92849522732394L257.5735676042428,86.89377298624014" style="stroke: rgb(65, 182, 196);"></path><path class="link" d="M250.7661730478136,109.92849522732394L265.74371240109497,107.24242920627294" style="stroke: rgb(65, 182, 196);"></path><path class="link" d="M250.7661730478136,109.92849522732394L263.9129204369972,119.94573491850542" style="stroke: rgb(65, 182, 196);"></path><path class="link" d="M250.7661730478136,109.92849522732394L245.66391780993376,91.5236319763289" style="stroke: rgb(65, 182, 196);"></path><path class="link" d="M250.7661730478136,109.92849522732394L253.939076082178,111.91714192188324" style="stroke: rgb(65, 182, 196);"></path><path class="link" d="M250.7661730478136,109.92849522732394L243.87552798056134,104.0102075005293" style="stroke: rgb(65, 182, 196);"></path><path class="link" d="M250.7661730478136,109.92849522732394L267.57769872355493,94.75445986941699" style="stroke: rgb(65, 182, 196);"></path><path class="link" d="M250.7661730478136,109.92849522732394L252.1779893886221,124.47180945024802" style="stroke: rgb(65, 182, 196);"></path><path class="link" d="M250.7661730478136,109.92849522732394L233.7768380994292,96.25289560775289" style="stroke: rgb(65, 182, 196);"></path><path class="link" d="M250.7661730478136,109.92849522732394L255.70103353394057,99.4231718646414" style="stroke: rgb(65, 182, 196);"></path><path class="link" d="M44.439202833268865,170.15308192971568L36.505993937430176,159.2020780689249" style="stroke: rgb(127, 205, 187);"></path><path class="link" d="M44.439202833268865,170.15308192971568L46.6857343997688,151.49706828404385" style="stroke: rgb(127, 205, 187);"></path><path class="link" d="M44.439202833268865,170.15308192971568L60.058357127068774,168.86072408352095" style="stroke: rgb(127, 205, 187);"></path><path class="link" d="M44.439202833268865,170.15308192971568L48.33441100291627,164.17532233172977" style="stroke: rgb(127, 205, 187);"></path><path class="link" d="M44.439202833268865,170.15308192971568L62.70777436026366,181.33392995626625" style="stroke: rgb(127, 205, 187);"></path><path class="link" d="M44.439202833268865,170.15308192971568L45.0945390765192,139.02932174371725" style="stroke: rgb(127, 205, 187);"></path><path class="link" d="M44.439202833268865,170.15308192971568L58.51581935905892,156.22355127045356" style="stroke: rgb(127, 205, 187);"></path><path class="link" d="M44.439202833268865,170.15308192971568L26.60359051603009,166.95426884299496" style="stroke: rgb(127, 205, 187);"></path><path class="link" d="M44.439202833268865,170.15308192971568L49.929057515572815,176.6583221835369" style="stroke: rgb(127, 205, 187);"></path><path class="link" d="M44.439202833268865,170.15308192971568L52.24572500867384,188.8465688114664" style="stroke: rgb(127, 205, 187);"></path><path class="link" d="M44.439202833268865,170.15308192971568L30.278586421772786,192.17849562644537" style="stroke: rgb(127, 205, 187);"></path><path class="link" d="M44.439202833268865,170.15308192971568L40.15295107096662,184.33075951675093" style="stroke: rgb(127, 205, 187);"></path><path class="link" d="M44.439202833268865,170.15308192971568L38.30886537467023,171.76257573747583" style="stroke: rgb(127, 205, 187);"></path><path class="link" d="M44.439202833268865,170.15308192971568L56.938019036374186,143.77869179849998" style="stroke: rgb(127, 205, 187);"></path><path class="link" d="M44.439202833268865,170.15308192971568L62.81212069669581,195.634940501011" style="stroke: rgb(127, 205, 187);"></path><path class="link" d="M44.439202833268865,170.15308192971568L42.41745770785055,196.78950187757712" style="stroke: rgb(127, 205, 187);"></path><path class="link" d="M44.439202833268865,170.15308192971568L72.1121886718123,172.34014640902473" style="stroke: rgb(127, 205, 187);"></path><path class="link" d="M44.439202833268865,170.15308192971568L34.85806003210105,146.6944142508904" style="stroke: rgb(127, 205, 187);"></path><path class="link" d="M44.439202833268865,170.15308192971568L24.764917907847337,154.3533231393881" style="stroke: rgb(127, 205, 187);"></path><path class="link" d="M44.439202833268865,170.15308192971568L70.64868174897829,159.63179747166933" style="stroke: rgb(127, 205, 187);"></path><circle class="fireworkPearl" r="0" cx="44.439202833268865" cy="170.15308192971568" style="fill: rgb(127, 205, 187);"></circle><circle class="fireworkPearl" r="4.380867874285302" cx="70.64868174897829" cy="159.63179747166933" style="fill: rgb(127, 205, 187);"></circle><circle class="fireworkPearl" r="4.380867874285302" cx="24.764917907847337" cy="154.3533231393881" style="fill: rgb(127, 205, 187);"></circle><circle class="fireworkPearl" r="4.380867874285302" cx="34.85806003210105" cy="146.6944142508904" style="fill: rgb(127, 205, 187);"></circle><circle class="fireworkPearl" r="4.380867874285302" cx="72.1121886718123" cy="172.34014640902473" style="fill: rgb(127, 205, 187);"></circle><circle class="fireworkPearl" r="4.380867874285302" cx="42.41745770785055" cy="196.78950187757712" style="fill: rgb(127, 205, 187);"></circle><circle class="fireworkPearl" r="4.380867874285302" cx="62.81212069669581" cy="195.634940501011" style="fill: rgb(127, 205, 187);"></circle><circle class="fireworkPearl" r="4.380867874285302" cx="56.938019036374186" cy="143.77869179849998" style="fill: rgb(127, 205, 187);"></circle><circle class="fireworkPearl" r="4.380867874285302" cx="38.30886537467023" cy="171.76257573747583" style="fill: rgb(127, 205, 187);"></circle><circle class="fireworkPearl" r="4.380867874285302" cx="40.15295107096662" cy="184.33075951675093" style="fill: rgb(127, 205, 187);"></circle><circle class="fireworkPearl" r="4.380867874285302" cx="30.278586421772786" cy="192.17849562644537" style="fill: rgb(127, 205, 187);"></circle><circle class="fireworkPearl" r="4.380867874285302" cx="52.24572500867384" cy="188.8465688114664" style="fill: rgb(127, 205, 187);"></circle><circle class="fireworkPearl" r="4.380867874285302" cx="49.929057515572815" cy="176.6583221835369" style="fill: rgb(127, 205, 187);"></circle><circle class="fireworkPearl" r="4.380867874285302" cx="26.60359051603009" cy="166.95426884299496" style="fill: rgb(127, 205, 187);"></circle><circle class="fireworkPearl" r="4.380867874285302" cx="58.51581935905892" cy="156.22355127045356" style="fill: rgb(127, 205, 187);"></circle><circle class="fireworkPearl" r="4.380867874285302" cx="45.0945390765192" cy="139.02932174371725" style="fill: rgb(127, 205, 187);"></circle><circle class="fireworkPearl" r="4.380867874285302" cx="62.70777436026366" cy="181.33392995626625" style="fill: rgb(127, 205, 187);"></circle><circle class="fireworkPearl" r="4.380867874285302" cx="48.33441100291627" cy="164.17532233172977" style="fill: rgb(127, 205, 187);"></circle><circle class="fireworkPearl" r="4.380867874285302" cx="60.058357127068774" cy="168.86072408352095" style="fill: rgb(127, 205, 187);"></circle><circle class="fireworkPearl" r="4.380867874285302" cx="46.6857343997688" cy="151.49706828404385" style="fill: rgb(127, 205, 187);"></circle><circle class="fireworkPearl" r="4.380867874285302" cx="36.505993937430176" cy="159.2020780689249" style="fill: rgb(127, 205, 187);"></circle><circle class="fireworkPearl" r="0" cx="250.7661730478136" cy="109.92849522732394" style="fill: rgb(65, 182, 196);"></circle><circle class="fireworkPearl" r="4.380867874285302" cx="255.70103353394057" cy="99.4231718646414" style="fill: rgb(65, 182, 196);"></circle><circle class="fireworkPearl" r="4.380867874285302" cx="233.7768380994292" cy="96.25289560775289" style="fill: rgb(65, 182, 196);"></circle><circle class="fireworkPearl" r="4.380867874285302" cx="252.1779893886221" cy="124.47180945024802" style="fill: rgb(65, 182, 196);"></circle><circle class="fireworkPearl" r="4.380867874285302" cx="267.57769872355493" cy="94.75445986941699" style="fill: rgb(65, 182, 196);"></circle><circle class="fireworkPearl" r="4.380867874285302" cx="243.87552798056134" cy="104.0102075005293" style="fill: rgb(65, 182, 196);"></circle><circle class="fireworkPearl" r="4.380867874285302" cx="253.939076082178" cy="111.91714192188324" style="fill: rgb(65, 182, 196);"></circle><circle class="fireworkPearl" r="4.380867874285302" cx="245.66391780993376" cy="91.5236319763289" style="fill: rgb(65, 182, 196);"></circle><circle class="fireworkPearl" r="4.380867874285302" cx="263.9129204369972" cy="119.94573491850542" style="fill: rgb(65, 182, 196);"></circle><circle class="fireworkPearl" r="4.380867874285302" cx="265.74371240109497" cy="107.24242920627294" style="fill: rgb(65, 182, 196);"></circle><circle class="fireworkPearl" r="4.380867874285302" cx="257.5735676042428" cy="86.89377298624014" style="fill: rgb(65, 182, 196);"></circle><circle class="fireworkPearl" r="4.380867874285302" cx="275.79694116687125" cy="115.11192363820675" style="fill: rgb(65, 182, 196);"></circle><circle class="fireworkPearl" r="4.380867874285302" cx="242.21447648727823" cy="116.54716405496815" style="fill: rgb(65, 182, 196);"></circle><circle class="fireworkPearl" r="0" cx="234.84953092474476" cy="128.02052361444305" style="fill: rgb(127, 205, 187);"></circle><circle class="fireworkPearl" r="4.380867874285302" cx="228.69237838717433" cy="133.97154267430673" style="fill: rgb(127, 205, 187);"></circle><circle class="fireworkPearl" r="4.380867874285302" cx="248.78828087075928" cy="149.60493900554755" style="fill: rgb(127, 205, 187);"></circle><circle class="fireworkPearl" r="4.380867874285302" cx="240.48599768760508" cy="129.05917788265472" style="fill: rgb(127, 205, 187);"></circle><circle class="fireworkPearl" r="4.380867874285302" cx="232.04281314150128" cy="108.81539292220094" style="fill: rgb(127, 205, 187);"></circle><circle class="fireworkPearl" r="4.380867874285302" cx="230.3932173481501" cy="121.48386501701182" style="fill: rgb(127, 205, 187);"></circle><circle class="fireworkPearl" r="4.380867874285302" cx="238.84306072466865" cy="141.673320644549" style="fill: rgb(127, 205, 187);"></circle><circle class="fireworkPearl" r="4.380867874285302" cx="218.52742763706274" cy="126.27928791749774" style="fill: rgb(127, 205, 187);"></circle><circle class="fireworkPearl" r="4.380867874285302" cx="216.94056710480993" cy="138.86067399669798" style="fill: rgb(127, 205, 187);"></circle><circle class="fireworkPearl" r="4.380867874285302" cx="227.13235740244545" cy="146.51704113522536" style="fill: rgb(127, 205, 187);"></circle><circle class="fireworkPearl" r="4.380867874285302" cx="220.20370341874155" cy="113.68864769103035" style="fill: rgb(127, 205, 187);"></circle><circle class="fireworkPearl" r="4.380867874285302" cx="250.6022080390546" cy="136.91416094189088" style="fill: rgb(127, 205, 187);"></circle><circle class="fireworkPearl" r="0" cx="84.60545050213936" cy="233.09975918951855" style="fill: rgb(127, 205, 187);"></circle><circle class="fireworkPearl" r="4.380867874285302" cx="87.65875790505042" cy="231.753761677237" style="fill: rgb(127, 205, 187);"></circle><circle class="fireworkPearl" r="4.380867874285302" cx="89.44604026335783" cy="244.33479788018482" style="fill: rgb(127, 205, 187);"></circle><circle class="fireworkPearl" r="4.380867874285302" cx="99.3732211500791" cy="236.40792469452296" style="fill: rgb(127, 205, 187);"></circle><circle class="fireworkPearl" r="4.380867874285302" cx="76.09787400222332" cy="227.00507959358194" style="fill: rgb(127, 205, 187);"></circle><circle class="fireworkPearl" r="4.380867874285302" cx="74.33696413927888" cy="213.92271622368582" style="fill: rgb(127, 205, 187);"></circle><circle class="fireworkPearl" r="4.380867874285302" cx="85.82187493598641" cy="219.11242114397612" style="fill: rgb(127, 205, 187);"></circle><circle class="fireworkPearl" r="4.380867874285302" cx="66.19246574076861" cy="234.8614668857074" style="fill: rgb(127, 205, 187);"></circle><circle class="fireworkPearl" r="4.380867874285302" cx="64.52926106452512" cy="221.61223044528072" style="fill: rgb(127, 205, 187);"></circle><circle class="fireworkPearl" r="4.380867874285302" cx="97.59728226886179" cy="223.94998136129288" style="fill: rgb(127, 205, 187);"></circle><circle class="fireworkPearl" r="4.380867874285302" cx="101.28032824759947" cy="248.97770330064225" style="fill: rgb(127, 205, 187);"></circle><circle class="fireworkPearl" r="4.380867874285302" cx="77.80791423731677" cy="239.72610430869452" style="fill: rgb(127, 205, 187);"></circle><circle class="fireworkPearl" r="0" cx="51.46501014916393" cy="55.13831967470668" style="fill: rgb(127, 205, 187);"></circle><circle class="fireworkPearl" r="4.380867874285302" cx="59.05187449090363" cy="49.50647684115385" style="fill: rgb(127, 205, 187);"></circle><circle class="fireworkPearl" r="4.380867874285302" cx="66.5653089186074" cy="59.83314806153101" style="fill: rgb(127, 205, 187);"></circle><circle class="fireworkPearl" r="4.380867874285302" cx="53.91893573068219" cy="61.09244178745292" style="fill: rgb(127, 205, 187);"></circle><circle class="fireworkPearl" r="4.380867874285302" cx="61.3051639494757" cy="71.49282366291759" style="fill: rgb(127, 205, 187);"></circle><circle class="fireworkPearl" r="4.380867874285302" cx="51.43206695934242" cy="39.19886184348307" style="fill: rgb(127, 205, 187);"></circle><circle class="fireworkPearl" r="4.380867874285302" cx="33.55226878211067" cy="52.20923283277454" style="fill: rgb(127, 205, 187);"></circle><circle class="fireworkPearl" r="4.380867874285302" cx="48.620753277087225" cy="72.78693844033124" style="fill: rgb(127, 205, 187);"></circle><circle class="fireworkPearl" r="4.380867874285302" cx="41.22088099450207" cy="62.35985366802277" style="fill: rgb(127, 205, 187);"></circle><circle class="fireworkPearl" r="4.380867874285302" cx="38.76686091346854" cy="40.55831448191648" style="fill: rgb(127, 205, 187);"></circle><circle class="fireworkPearl" r="4.380867874285302" cx="46.38408772368472" cy="50.821025162373715" style="fill: rgb(127, 205, 187);"></circle><circle class="fireworkPearl" r="4.380867874285302" cx="35.80886290348663" cy="73.80098719112497" style="fill: rgb(127, 205, 187);"></circle><circle class="fireworkPearl" r="0" cx="114.16710527689541" cy="270.0248601470355" style="fill: rgb(65, 182, 196);"></circle><circle class="fireworkPearl" r="4.380867874285302" cx="125.55840893251066" cy="277.28353262087086" style="fill: rgb(65, 182, 196);"></circle><circle class="fireworkPearl" r="4.380867874285302" cx="107.99434686601899" cy="263.7946073926979" style="fill: rgb(65, 182, 196);"></circle><circle class="fireworkPearl" r="4.380867874285302" cx="100.8044477388902" cy="274.31494426825986" style="fill: rgb(65, 182, 196);"></circle><circle class="fireworkPearl" r="4.380867874285302" cx="115.76660062619682" cy="253.69542374294815" style="fill: rgb(65, 182, 196);"></circle><circle class="fireworkPearl" r="4.380867874285302" cx="133.34588210822025" cy="267.30408250711554" style="fill: rgb(65, 182, 196);"></circle><circle class="fireworkPearl" r="4.380867874285302" cx="130.2127333495815" cy="289.0476162617884" style="fill: rgb(65, 182, 196);"></circle><circle class="fireworkPearl" r="4.380867874285302" cx="120.70000953158589" cy="265.45431352894514" style="fill: rgb(65, 182, 196);"></circle><circle class="fireworkPearl" r="4.380867874285302" cx="128.46449091946837" cy="255.44983979803524" style="fill: rgb(65, 182, 196);"></circle><circle class="fireworkPearl" r="4.380867874285302" cx="104.87608618649914" cy="286.30977350297417" style="fill: rgb(65, 182, 196);"></circle><circle class="fireworkPearl" r="4.380867874285302" cx="113.15034222361616" cy="275.6009783799185" style="fill: rgb(65, 182, 196);"></circle><circle class="fireworkPearl" r="4.380867874285302" cx="117.6232251016875" cy="287.5520663617412" style="fill: rgb(65, 182, 196);"></circle><circle class="fireworkPearl" r="0" cx="261.3216606936832" cy="280" style="fill: rgb(127, 205, 187);"></circle><circle class="fireworkPearl" r="4.380867874285301" cx="260.70649768679056" cy="284.44262204241335" style="fill: rgb(127, 205, 187);"></circle><circle class="fireworkPearl" r="4.380867874285301" cx="273.33768868519746" cy="286.2614555331156" style="fill: rgb(127, 205, 187);"></circle><circle class="fireworkPearl" r="4.380867874285301" cx="248.0699810881985" cy="282.6597782940738" style="fill: rgb(127, 205, 187);"></circle><circle class="fireworkPearl" r="4.380867874285301" cx="243.3955723185951" cy="270.7511322565824" style="fill: rgb(127, 205, 187);"></circle><circle class="fireworkPearl" r="4.380867874285301" cx="281.1539648333074" cy="276.13298601778496" style="fill: rgb(127, 205, 187);"></circle><circle class="fireworkPearl" r="4.380867874285301" cx="252.8197941467039" cy="294.4691422539508" style="fill: rgb(127, 205, 187);"></circle><circle class="fireworkPearl" r="4.380867874285301" cx="263.8302134619282" cy="262.5229772148412" style="fill: rgb(127, 205, 187);"></circle><circle class="fireworkPearl" r="4.380867874285301" cx="265.47561982899094" cy="296.27317510340293" style="fill: rgb(127, 205, 187);"></circle><circle class="fireworkPearl" r="4.380867874285301" cx="268.5816966299774" cy="274.43804735183477" style="fill: rgb(127, 205, 187);"></circle><circle class="fireworkPearl" r="4.380867874285301" cx="255.9404205410372" cy="272.63676914484864" style="fill: rgb(127, 205, 187);"></circle><circle class="fireworkPearl" r="0" cx="163.2565591990488" cy="115.3105517665746" style="fill: rgb(127, 205, 187);"></circle><circle class="fireworkPearl" r="4.380867874285301" cx="173.90691746299004" cy="98.58428681612006" style="fill: rgb(127, 205, 187);"></circle><circle class="fireworkPearl" r="4.380867874285301" cx="160.60108885354396" cy="129.6560208083976" style="fill: rgb(127, 205, 187);"></circle><circle class="fireworkPearl" r="4.380867874285301" cx="148.1689822579663" cy="126.61766043921338" style="fill: rgb(127, 205, 187);"></circle><circle class="fireworkPearl" r="4.380867874285301" cx="169.17844469140948" cy="120.25999630620241" style="fill: rgb(127, 205, 187);"></circle><circle class="fireworkPearl" r="4.380867874285301" cx="156.8541969971172" cy="117.3943292026743" style="fill: rgb(127, 205, 187);"></circle><circle class="fireworkPearl" r="4.380867874285301" cx="165.4423436007005" cy="107.99176911253842" style="fill: rgb(127, 205, 187);"></circle><circle class="fireworkPearl" r="4.380867874285301" cx="144.59773923545046" cy="113.92719362462744" style="fill: rgb(127, 205, 187);"></circle><circle class="fireworkPearl" r="4.380867874285301" cx="153.21922939422865" cy="104.48826881269001" style="fill: rgb(127, 205, 187);"></circle><circle class="fireworkPearl" r="4.380867874285301" cx="177.8377276164352" cy="110.79548298760373" style="fill: rgb(127, 205, 187);"></circle><circle class="fireworkPearl" r="4.380867874285301" cx="181.55085401742815" cy="123.03194112922979" style="fill: rgb(127, 205, 187);"></circle><circle class="fireworkPearl" r="0" cx="75.02389718550917" cy="254.19172508254596" style="fill: rgb(65, 182, 196);"></circle><circle class="fireworkPearl" r="4.380867874285301" cx="79.07912467622073" cy="252.3829076977791" style="fill: rgb(65, 182, 196);"></circle><circle class="fireworkPearl" r="4.380867874285301" cx="78.16565314582235" cy="265.0733020031627" style="fill: rgb(65, 182, 196);"></circle><circle class="fireworkPearl" r="4.380867874285301" cx="67.40776656353971" cy="247.4678606119714" style="fill: rgb(65, 182, 196);"></circle><circle class="fireworkPearl" r="4.380867874285301" cx="55.76179745098342" cy="254.8707216108951" style="fill: rgb(65, 182, 196);"></circle><circle class="fireworkPearl" r="4.380867874285301" cx="56.55956084167213" cy="267.57105964372556" style="fill: rgb(65, 182, 196);"></circle><circle class="fireworkPearl" r="4.380867874285301" cx="79.887581991735" cy="277.78772152853963" style="fill: rgb(65, 182, 196);"></circle><circle class="fireworkPearl" r="4.380867874285301" cx="89.66435672531942" cy="269.6749216992033" style="fill: rgb(65, 182, 196);"></circle><circle class="fireworkPearl" r="4.380867874285301" cx="90.90571534177779" cy="256.9664459042127" style="fill: rgb(65, 182, 196);"></circle><circle class="fireworkPearl" r="4.380867874285301" cx="68.09136443969656" cy="272.99321723354853" style="fill: rgb(65, 182, 196);"></circle><circle class="fireworkPearl" r="4.380867874285301" cx="67.09518313738943" cy="260.25401141782476" style="fill: rgb(65, 182, 196);"></circle><circle class="fireworkPearl" r="0" cx="94.87485793821621" cy="223.1894644268252" style="fill: rgb(65, 182, 196);"></circle><circle class="fireworkPearl" r="4.380867874285302" cx="84.39965788320238" cy="206.3855789266821" style="fill: rgb(65, 182, 196);"></circle><circle class="fireworkPearl" r="4.380867874285302" cx="119.75813399979013" cy="220.45971280681078" style="fill: rgb(65, 182, 196);"></circle><circle class="fireworkPearl" r="4.380867874285302" cx="106.78237375340959" cy="203.08821214530448" style="fill: rgb(65, 182, 196);"></circle><circle class="fireworkPearl" r="4.380867874285302" cx="109.55035744632862" cy="228.21624274044115" style="fill: rgb(65, 182, 196);"></circle><circle class="fireworkPearl" r="4.380867874285302" cx="94.7510885336733" cy="198.76639011179344" style="fill: rgb(65, 182, 196);"></circle><circle class="fireworkPearl" r="4.380867874285302" cx="111.44226696528693" cy="240.7171132804819" style="fill: rgb(65, 182, 196);"></circle><circle class="fireworkPearl" r="4.380867874285302" cx="96.03522521810713" cy="211.40071179808936" style="fill: rgb(65, 182, 196);"></circle><circle class="fireworkPearl" r="4.380867874285302" cx="108.0151725378022" cy="215.73009432431397" style="fill: rgb(65, 182, 196);"></circle><circle class="fireworkPearl" r="0" cx="202.98729089987106" cy="167.71350035001626" style="fill: rgb(29, 145, 192);"></circle><circle class="fireworkPearl" r="4.380867874285302" cx="195.24944029001875" cy="170.4627232181719" style="fill: rgb(29, 145, 192);"></circle><circle class="fireworkPearl" r="4.380867874285302" cx="182.55503605448814" cy="170.62186388292034" style="fill: rgb(29, 145, 192);"></circle><circle class="fireworkPearl" r="4.380867874285302" cx="207.92688271963195" cy="170.2982882261503" style="fill: rgb(29, 145, 192);"></circle><circle class="fireworkPearl" r="4.380867874285302" cx="201.74924676720974" cy="181.43731630139337" style="fill: rgb(29, 145, 192);"></circle><circle class="fireworkPearl" r="4.380867874285302" cx="188.70540323838665" cy="159.45712293872919" style="fill: rgb(29, 145, 192);"></circle><circle class="fireworkPearl" r="4.380867874285302" cx="189.0437433282076" cy="181.59472938006132" style="fill: rgb(29, 145, 192);"></circle><circle class="fireworkPearl" r="4.380867874285302" cx="201.40309522431298" cy="159.37937177184827" style="fill: rgb(29, 145, 192);"></circle><circle class="fireworkPearl" r="4.380867874285302" cx="214.4369887053548" cy="181.39183140088141" style="fill: rgb(29, 145, 192);"></circle><circle class="fireworkPearl" r="0" cx="72.17284680838473" cy="40" style="fill: rgb(65, 182, 196);"></circle><circle class="fireworkPearl" r="4.380867874285303" cx="89.09884342076536" cy="34.491245876655064" style="fill: rgb(65, 182, 196);"></circle><circle class="fireworkPearl" r="4.380867874285303" cx="71.70555543553571" cy="48.229163219805116" style="fill: rgb(65, 182, 196);"></circle><circle class="fireworkPearl" r="4.380867874285303" cx="63.91990577462362" cy="37.89432017470049" style="fill: rgb(65, 182, 196);"></circle><circle class="fireworkPearl" r="4.380867874285303" cx="76.5598403829114" cy="36.39371349062777" style="fill: rgb(65, 182, 196);"></circle><circle class="fireworkPearl" r="4.380867874285303" cx="68.21138404138667" cy="25.8256934670874" style="fill: rgb(65, 182, 196);"></circle><circle class="fireworkPearl" r="4.380867874285303" cx="80.91430670248847" cy="24.398814620852267" style="fill: rgb(65, 182, 196);"></circle><circle class="fireworkPearl" r="4.380867874285303" cx="84.40526591843185" cy="46.43911593041354" style="fill: rgb(65, 182, 196);"></circle><circle class="fireworkPearl" r="0" cx="270" cy="208.72550975424323" style="fill: rgb(65, 182, 196);"></circle><circle class="fireworkPearl" r="4.380867874285302" cx="272.9777585200493" cy="205.3895188723245" style="fill: rgb(65, 182, 196);"></circle><circle class="fireworkPearl" r="4.380867874285302" cx="282.5618132454002" cy="213.7873444472324" style="fill: rgb(65, 182, 196);"></circle><circle class="fireworkPearl" r="4.380867874285302" cx="270.4933699939162" cy="217.96317943060748" style="fill: rgb(65, 182, 196);"></circle><circle class="fireworkPearl" r="4.380867874285302" cx="263.35624728401814" cy="197.03471544026206" style="fill: rgb(65, 182, 196);"></circle><circle class="fireworkPearl" r="4.380867874285302" cx="260.86283490326525" cy="209.5744006751181" style="fill: rgb(65, 182, 196);"></circle><circle class="fireworkPearl" r="0" cx="65.50078336932549" cy="240.9569547107711" style="fill: rgb(127, 205, 187);"></circle><circle class="fireworkPearl" r="4.380867874285302" cx="55.763379802062275" cy="242.30624424925296" style="fill: rgb(127, 205, 187);"></circle><circle class="fireworkPearl" r="4.380867874285302" cx="44.59932228122826" cy="249.32590078265963" style="fill: rgb(127, 205, 187);"></circle><circle class="fireworkPearl" r="4.380867874285302" cx="54.86008429593584" cy="229.59274361984862" style="fill: rgb(127, 205, 187);"></circle><circle class="fireworkPearl" r="4.380867874285302" cx="43.4001105282192" cy="223.88485403528773" style="fill: rgb(127, 205, 187);"></circle><circle class="fireworkPearl" r="4.380867874285302" cx="44.14966022914828" cy="236.64797990107394" style="fill: rgb(127, 205, 187);"></circle><circle class="fireworkPearl" r="0" cx="40" cy="169.03365840169502" style="fill: rgb(65, 182, 196);"></circle><circle class="fireworkPearl" r="4.380867874285301" cx="28.449931574815434" cy="179.54116651240608" style="fill: rgb(65, 182, 196);"></circle><circle class="fireworkPearl" r="4.380867874285301" cx="18.372734908467145" cy="187.4274123086483" style="fill: rgb(65, 182, 196);"></circle><circle class="fireworkPearl" r="4.380867874285301" cx="16.535861610450972" cy="174.82322637578332" style="fill: rgb(65, 182, 196);"></circle><circle class="fireworkPearl" r="4.380867874285301" cx="14.771392548705418" cy="162.169655961234" style="fill: rgb(65, 182, 196);"></circle><circle class="fireworkPearl" r="0" cx="208.86019826854104" cy="162.44898697598734" style="fill: rgb(65, 182, 196);"></circle><circle class="fireworkPearl" r="4.380867874285301" cx="220.67693244908003" cy="170.3467351795345" style="fill: rgb(65, 182, 196);"></circle><circle class="fireworkPearl" r="4.380867874285301" cx="226.944657305313" cy="159.2134916657532" style="fill: rgb(65, 182, 196);"></circle><circle class="fireworkPearl" r="4.380867874285301" cx="207.58086131870462" cy="148.16711349368595" style="fill: rgb(65, 182, 196);"></circle><circle class="fireworkPearl" r="4.380867874285301" cx="214.16989673096035" cy="159.1279919443863" style="fill: rgb(65, 182, 196);"></circle><circle class="fireworkPearl" r="0" cx="222.40883162695474" cy="82.25817851829063" style="fill: rgb(29, 145, 192);"></circle><circle class="fireworkPearl" r="4.380867874285302" cx="227.33375508251675" cy="78.21439028988652" style="fill: rgb(29, 145, 192);"></circle><circle class="fireworkPearl" r="4.380867874285302" cx="217.85485315813017" cy="86.8303744289841" style="fill: rgb(29, 145, 192);"></circle><circle class="fireworkPearl" r="4.380867874285302" cx="215.1373125953731" cy="74.33785036315005" style="fill: rgb(29, 145, 192);"></circle></g><g id="legendDividerGroup" transform="translate(390,0)" height="400"><rect class="legendDivider" height="400" width="110"></rect></g><g id="fireworkLegend" transform="translate(390,1.8249264492100394)" width="110" height="320"><rect class="legendBorder" transform="translate(0,0)" width="110" height="376.3501471015799"></rect><text id="rTitle" text-anchor="middle" alignment-baseline="hanging" transform="translate(55,0)" x="0" y="0" style="fill: black; font-size: 0.8rem;">Population</text><text id="bobaValue" text-anchor="middle" alignment-baseline="hanging" transform="translate(55,15)" x="0" y="0" style="fill: black; font-size: 0.7rem;">(1 Pearl =   75)</text><g class="" cupRadius="17.211331265983883" width="34.42266253196777" height="34.42266253196777" pearlRadius="5.4760848428566264" pearlCount="3" transform="translate(37.78866873401611,40)"><path class="link" d="M17.211331265983883,17.211331265983883L23.116077484833625,21.68885867743414" style="stroke: rgb(127, 205, 187);"></path><path class="link" d="M17.211331265983883,17.211331265983883L18.084555103774733,9.928089094232103" style="stroke: rgb(127, 205, 187);"></path><path class="link" d="M17.211331265983883,17.211331265983883L10.414454686883593,20.166215106263316" style="stroke: rgb(127, 205, 187);"></path><circle class="fireworkPearl" r="0" cx="17.211331265983883" cy="17.211331265983883" style="fill: rgb(127, 205, 187);"></circle><circle class="fireworkPearl" r="4.380867874285301" cx="10.414454686883593" cy="20.166215106263316" style="fill: rgb(127, 205, 187);"></circle><circle class="fireworkPearl" r="4.380867874285301" cx="18.084555103774733" cy="9.928089094232103" style="fill: rgb(127, 205, 187);"></circle><circle class="fireworkPearl" r="4.380867874285301" cx="23.116077484833625" cy="21.68885867743414" style="fill: rgb(127, 205, 187);"></circle></g><text id="0" class="legendSampleValue" text-anchor="middle" transform="translate(55,8)" x="0" y="79.42266253196777" style="fill: black; font-size: 0.7rem;"> 280</text><g class="" cupRadius="26.95318254018959" width="53.90636508037918" height="53.90636508037918" pearlRadius="5.476084842856627" pearlCount="9" transform="translate(28.04681745981041,99.42266253196777)"><path class="link" d="M26.95318254018959,26.95318254018959L12.80280581578867,33.1244660004631" style="stroke: rgb(127, 205, 187);"></path><path class="link" d="M26.95318254018959,26.95318254018959L39.57433174172109,29.282072104720704" style="stroke: rgb(127, 205, 187);"></path><path class="link" d="M26.95318254018959,26.95318254018959L21.343720877922383,9.025101091600055" style="stroke: rgb(127, 205, 187);"></path><path class="link" d="M26.95318254018959,26.95318254018959L21.124019674302208,42.83919877927556" style="stroke: rgb(127, 205, 187);"></path><path class="link" d="M26.95318254018959,26.95318254018959L42.29221467021857,16.783750123452826" style="stroke: rgb(127, 205, 187);"></path><path class="link" d="M26.95318254018959,26.95318254018959L17.08548325994036,21.079131022534284" style="stroke: rgb(127, 205, 187);"></path><path class="link" d="M26.95318254018959,26.95318254018959L33.72158739507944,40.64785507851712" style="stroke: rgb(127, 205, 187);"></path><path class="link" d="M26.95318254018959,26.95318254018959L29.656880061039683,18.7436058279615" style="stroke: rgb(127, 205, 187);"></path><path class="link" d="M26.95318254018959,26.95318254018959L25.515861591086924,30.83221730977739" style="stroke: rgb(127, 205, 187);"></path><circle class="fireworkPearl" r="0" cx="26.95318254018959" cy="26.95318254018959" style="fill: rgb(127, 205, 187);"></circle><circle class="fireworkPearl" r="4.380867874285302" cx="25.515861591086924" cy="30.83221730977739" style="fill: rgb(127, 205, 187);"></circle><circle class="fireworkPearl" r="4.380867874285302" cx="29.656880061039683" cy="18.7436058279615" style="fill: rgb(127, 205, 187);"></circle><circle class="fireworkPearl" r="4.380867874285302" cx="33.72158739507944" cy="40.64785507851712" style="fill: rgb(127, 205, 187);"></circle><circle class="fireworkPearl" r="4.380867874285302" cx="17.08548325994036" cy="21.079131022534284" style="fill: rgb(127, 205, 187);"></circle><circle class="fireworkPearl" r="4.380867874285302" cx="42.29221467021857" cy="16.783750123452826" style="fill: rgb(127, 205, 187);"></circle><circle class="fireworkPearl" r="4.380867874285302" cx="21.124019674302208" cy="42.83919877927556" style="fill: rgb(127, 205, 187);"></circle><circle class="fireworkPearl" r="4.380867874285302" cx="21.343720877922383" cy="9.025101091600055" style="fill: rgb(127, 205, 187);"></circle><circle class="fireworkPearl" r="4.380867874285302" cx="39.57433174172109" cy="29.282072104720704" style="fill: rgb(127, 205, 187);"></circle><circle class="fireworkPearl" r="4.380867874285302" cx="12.80280581578867" cy="33.1244660004631" style="fill: rgb(127, 205, 187);"></circle></g><text id="1" class="legendSampleValue" text-anchor="middle" transform="translate(55,8)" x="0" y="158.32902761234695" style="fill: black; font-size: 0.7rem;"> 680</text><g class="" cupRadius="34.01055974461649" width="68.02111948923297" height="68.02111948923297" pearlRadius="5.4760848428566264" pearlCount="14" transform="translate(20.989440255383514,178.32902761234692)"><path class="link" d="M34.01055974461649,34.01055974461649L20.758238776412114,51.28741811661924" style="stroke: rgb(127, 205, 187);"></path><path class="link" d="M34.01055974461649,34.01055974461649L58.3563144745478,27.90356605418411" style="stroke: rgb(127, 205, 187);"></path><path class="link" d="M34.01055974461649,34.01055974461649L15.757211465287916,17.117964891953342" style="stroke: rgb(127, 205, 187);"></path><path class="link" d="M34.01055974461649,34.01055974461649L46.316775868576315,50.471726454228566" style="stroke: rgb(127, 205, 187);"></path><path class="link" d="M34.01055974461649,34.01055974461649L41.31369944501148,16.283124236642024" style="stroke: rgb(127, 205, 187);"></path><path class="link" d="M34.01055974461649,34.01055974461649L14.010693124966798,40.420029516287464" style="stroke: rgb(127, 205, 187);"></path><path class="link" d="M34.01055974461649,34.01055974461649L52.34390787314182,39.19155155677361" style="stroke: rgb(127, 205, 187);"></path><path class="link" d="M34.01055974461649,34.01055974461649L28.5350393310903,16.695939916014076" style="stroke: rgb(127, 205, 187);"></path><path class="link" d="M34.01055974461649,34.01055974461649L33.53790840577785,50.886345783850004" style="stroke: rgb(127, 205, 187);"></path><path class="link" d="M34.01055974461649,34.01055974461649L45.57710373339562,28.334556310572953" style="stroke: rgb(127, 205, 187);"></path><path class="link" d="M34.01055974461649,34.01055974461649L20.05536763062642,29.158279306960985" style="stroke: rgb(127, 205, 187);"></path><path class="link" d="M34.01055974461649,34.01055974461649L39.557446166407004,39.60711908003511" style="stroke: rgb(127, 205, 187);"></path><path class="link" d="M34.01055974461649,34.01055974461649L32.817119489426304,28.744698993601077" style="stroke: rgb(127, 205, 187);"></path><path class="link" d="M34.01055974461649,34.01055974461649L26.792277805957106,40.02005925355412" style="stroke: rgb(127, 205, 187);"></path><circle class="fireworkPearl" r="0" cx="34.01055974461649" cy="34.01055974461649" style="fill: rgb(127, 205, 187);"></circle><circle class="fireworkPearl" r="4.380867874285301" cx="26.792277805957106" cy="40.02005925355412" style="fill: rgb(127, 205, 187);"></circle><circle class="fireworkPearl" r="4.380867874285301" cx="32.817119489426304" cy="28.744698993601077" style="fill: rgb(127, 205, 187);"></circle><circle class="fireworkPearl" r="4.380867874285301" cx="39.557446166407004" cy="39.60711908003511" style="fill: rgb(127, 205, 187);"></circle><circle class="fireworkPearl" r="4.380867874285301" cx="20.05536763062642" cy="29.158279306960985" style="fill: rgb(127, 205, 187);"></circle><circle class="fireworkPearl" r="4.380867874285301" cx="45.57710373339562" cy="28.334556310572953" style="fill: rgb(127, 205, 187);"></circle><circle class="fireworkPearl" r="4.380867874285301" cx="33.53790840577785" cy="50.886345783850004" style="fill: rgb(127, 205, 187);"></circle><circle class="fireworkPearl" r="4.380867874285301" cx="28.5350393310903" cy="16.695939916014076" style="fill: rgb(127, 205, 187);"></circle><circle class="fireworkPearl" r="4.380867874285301" cx="52.34390787314182" cy="39.19155155677361" style="fill: rgb(127, 205, 187);"></circle><circle class="fireworkPearl" r="4.380867874285301" cx="14.010693124966798" cy="40.420029516287464" style="fill: rgb(127, 205, 187);"></circle><circle class="fireworkPearl" r="4.380867874285301" cx="41.31369944501148" cy="16.283124236642024" style="fill: rgb(127, 205, 187);"></circle><circle class="fireworkPearl" r="4.380867874285301" cx="46.316775868576315" cy="50.471726454228566" style="fill: rgb(127, 205, 187);"></circle><circle class="fireworkPearl" r="4.380867874285301" cx="15.757211465287916" cy="17.117964891953342" style="fill: rgb(127, 205, 187);"></circle><circle class="fireworkPearl" r="4.380867874285301" cx="58.3563144745478" cy="27.90356605418411" style="fill: rgb(127, 205, 187);"></circle><circle class="fireworkPearl" r="4.380867874285301" cx="20.758238776412114" cy="51.28741811661924" style="fill: rgb(127, 205, 187);"></circle></g><text id="2" class="legendSampleValue" text-anchor="middle" transform="translate(55,8)" x="0" y="251.35014710157992" style="fill: black; font-size: 0.7rem;">1.1k</text><g class="" cupRadius="40" width="80" height="80" pearlRadius="5.476084842856627" pearlCount="20" transform="translate(15,271.3501471015799)"><path class="link" d="M40,40L25.425027674916183,16.263442207899466" style="stroke: rgb(127, 205, 187);"></path><path class="link" d="M40,40L41.515861316067344,70.52479907695337" style="stroke: rgb(127, 205, 187);"></path><path class="link" d="M40,40L59.06971921970406,21.602919171747843" style="stroke: rgb(127, 205, 187);"></path><path class="link" d="M40,40L14.560647825128665,39.29597609426523" style="stroke: rgb(127, 205, 187);"></path><path class="link" d="M40,40L60.57379429362364,57.39578067335398" style="stroke: rgb(127, 205, 187);"></path><path class="link" d="M40,40L38.294371914838926,13.863961990424544" style="stroke: rgb(127, 205, 187);"></path><path class="link" d="M40,40L22.60218609174795,61.65413222330635" style="stroke: rgb(127, 205, 187);"></path><path class="link" d="M40,40L67.36098029977207,33.53208733163045" style="stroke: rgb(127, 205, 187);"></path><path class="link" d="M40,40L18.951921637057474,27.288007262972428" style="stroke: rgb(127, 205, 187);"></path><path class="link" d="M40,40L47.961201594127296,59.48442910483396" style="stroke: rgb(127, 205, 187);"></path><path class="link" d="M40,40L46.457907812769925,23.70426514272581" style="stroke: rgb(127, 205, 187);"></path><path class="link" d="M40,40L23.00554487656268,48.88159911988176" style="stroke: rgb(127, 205, 187);"></path><path class="link" d="M40,40L61.00190939221505,44.61977057481227" style="stroke: rgb(127, 205, 187);"></path><path class="link" d="M40,40L33.86174656715077,25.874926758385403" style="stroke: rgb(127, 205, 187);"></path><path class="link" d="M40,40L35.182086312474915,59.4160892639974" style="stroke: rgb(127, 205, 187);"></path><path class="link" d="M40,40L54.565981633757694,33.57675316332617" style="stroke: rgb(127, 205, 187);"></path><path class="link" d="M40,40L27.399627412808663,36.89162472541311" style="stroke: rgb(127, 205, 187);"></path><path class="link" d="M40,40L48.38383587430125,46.71017179308868" style="stroke: rgb(127, 205, 187);"></path><path class="link" d="M40,40L41.978387885061274,35.69296183812537" style="stroke: rgb(127, 205, 187);"></path><path class="link" d="M40,40L35.589292985966054,46.69451643864023" style="stroke: rgb(127, 205, 187);"></path><circle class="fireworkPearl" r="0" cx="40" cy="40" style="fill: rgb(127, 205, 187);"></circle><circle class="fireworkPearl" r="4.380867874285302" cx="35.589292985966054" cy="46.69451643864023" style="fill: rgb(127, 205, 187);"></circle><circle class="fireworkPearl" r="4.380867874285302" cx="41.978387885061274" cy="35.69296183812537" style="fill: rgb(127, 205, 187);"></circle><circle class="fireworkPearl" r="4.380867874285302" cx="48.38383587430125" cy="46.71017179308868" style="fill: rgb(127, 205, 187);"></circle><circle class="fireworkPearl" r="4.380867874285302" cx="27.399627412808663" cy="36.89162472541311" style="fill: rgb(127, 205, 187);"></circle><circle class="fireworkPearl" r="4.380867874285302" cx="54.565981633757694" cy="33.57675316332617" style="fill: rgb(127, 205, 187);"></circle><circle class="fireworkPearl" r="4.380867874285302" cx="35.182086312474915" cy="59.4160892639974" style="fill: rgb(127, 205, 187);"></circle><circle class="fireworkPearl" r="4.380867874285302" cx="33.86174656715077" cy="25.874926758385403" style="fill: rgb(127, 205, 187);"></circle><circle class="fireworkPearl" r="4.380867874285302" cx="61.00190939221505" cy="44.61977057481227" style="fill: rgb(127, 205, 187);"></circle><circle class="fireworkPearl" r="4.380867874285302" cx="23.00554487656268" cy="48.88159911988176" style="fill: rgb(127, 205, 187);"></circle><circle class="fireworkPearl" r="4.380867874285302" cx="46.457907812769925" cy="23.70426514272581" style="fill: rgb(127, 205, 187);"></circle><circle class="fireworkPearl" r="4.380867874285302" cx="47.961201594127296" cy="59.48442910483396" style="fill: rgb(127, 205, 187);"></circle><circle class="fireworkPearl" r="4.380867874285302" cx="18.951921637057474" cy="27.288007262972428" style="fill: rgb(127, 205, 187);"></circle><circle class="fireworkPearl" r="4.380867874285302" cx="67.36098029977207" cy="33.53208733163045" style="fill: rgb(127, 205, 187);"></circle><circle class="fireworkPearl" r="4.380867874285302" cx="22.60218609174795" cy="61.65413222330635" style="fill: rgb(127, 205, 187);"></circle><circle class="fireworkPearl" r="4.380867874285302" cx="38.294371914838926" cy="13.863961990424544" style="fill: rgb(127, 205, 187);"></circle><circle class="fireworkPearl" r="4.380867874285302" cx="60.57379429362364" cy="57.39578067335398" style="fill: rgb(127, 205, 187);"></circle><circle class="fireworkPearl" r="4.380867874285302" cx="14.560647825128665" cy="39.29597609426523" style="fill: rgb(127, 205, 187);"></circle><circle class="fireworkPearl" r="4.380867874285302" cx="59.06971921970406" cy="21.602919171747843" style="fill: rgb(127, 205, 187);"></circle><circle class="fireworkPearl" r="4.380867874285302" cx="41.515861316067344" cy="70.52479907695337" style="fill: rgb(127, 205, 187);"></circle><circle class="fireworkPearl" r="4.380867874285302" cx="25.425027674916183" cy="16.263442207899466" style="fill: rgb(127, 205, 187);"></circle></g><text id="3" class="legendSampleValue" text-anchor="middle" transform="translate(55,8)" x="0" y="356.3501471015799" style="fill: black; font-size: 0.7rem;">1.5k</text><text id="coloringDisclaimer" transform="translate(55,8)" text-anchor="middle" x="0" y="371.3501471015799" style="font-size: 0.7rem; opacity: 0.6;">(note: coloring</text><text id="coloringDisclaimer" transform="translate(55,8)" text-anchor="middle" x="0" y="386.3501471015799" style="font-size: 0.7rem; opacity: 0.6;">is random)</text></g></svg>