<?xml version="1.0" standalone="no"?>
<?xml-stylesheet xmlns="http://www.w3.org/2000/svg" type="text/css" href="style.css"?>
<svg id="syntheticVisC" class="default" xTitle="Percent Cat Owners" yTitle="Percent Dog Owners" rTitle="Population" chartTitle="Towns in Vizzyland" width="500" height="400" xmlns="http://www.w3.org/2000/svg"><text id="chartTitle" text-anchor="middle" transform="translate(250,20)" x="0" y="0" style="fill: black; font-size: 1.2rem;">Towns in Vizzyland</text><g id="yAxis" transform="translate(50,30)" fill="none" font-size="10" font-family="sans-serif" text-anchor="end"><path class="domain" stroke="currentColor" d="M-6,280H0V40H-6"></path><g class="tick" opacity="1" transform="translate(0,280)"><line stroke="currentColor" x2="-6"></line><text fill="currentColor" x="-9" dy="0.32em">0</text></g><g class="tick" opacity="1" transform="translate(0,256)"><line stroke="currentColor" x2="-6"></line><text fill="currentColor" x="-9" dy="0.32em">10</text></g><g class="tick" opacity="1" transform="translate(0,232)"><line stroke="currentColor" x2="-6"></line><text fill="currentColor" x="-9" dy="0.32em">20</text></g><g class="tick" opacity="1" transform="translate(0,208)"><line stroke="currentColor" x2="-6"></line><text fill="currentColor" x="-9" dy="0.32em">30</text></g><g class="tick" opacity="1" transform="translate(0,184)"><line stroke="currentColor" x2="-6"></line><text fill="currentColor" x="-9" dy="0.32em">40</text></g><g class="tick" opacity="1" transform="translate(0,160)"><line stroke="currentColor" x2="-6"></line><text fill="currentColor" x="-9" dy="0.32em">50</text></g><g class="tick" opacity="1" transform="translate(0,136)"><line stroke="currentColor" x2="-6"></line><text fill="currentColor" x="-9" dy="0.32em">60</text></g><g class="tick" opacity="1" transform="translate(0,112.00000000000001)"><line stroke="currentColor" x2="-6"></line><text fill="currentColor" x="-9" dy="0.32em">70</text></g><g class="tick" opacity="1" transform="translate(0,87.99999999999999)"><line stroke="currentColor" x2="-6"></line><text fill="currentColor" x="-9" dy="0.32em">80</text></g><g class="tick" opacity="1" transform="translate(0,63.99999999999999)"><line stroke="currentColor" x2="-6"></line><text fill="currentColor" x="-9" dy="0.32em">90</text></g><g class="tick" opacity="1" transform="translate(0,40)"><line stroke="currentColor" x2="-6"></line><text fill="currentColor" x="-9" dy="0.32em">100</text></g></g><g id="xAxis" transform="translate(60,360)" fill="none" font-size="10" font-family="sans-serif" text-anchor="middle"><path class="domain" stroke="currentColor" d="M40,6V0H270V6"></path><g class="tick" opacity="1" transform="translate(40,0)"><line stroke="currentColor" y2="6"></line><text fill="currentColor" y="9" dy="0.71em">0</text></g><g class="tick" opacity="1" transform="translate(63,0)"><line stroke="currentColor" y2="6"></line><text fill="currentColor" y="9" dy="0.71em">10</text></g><g class="tick" opacity="1" transform="translate(86,0)"><line stroke="currentColor" y2="6"></line><text fill="currentColor" y="9" dy="0.71em">20</text></g><g class="tick" opacity="1" transform="translate(108.99999999999999,0)"><line stroke="currentColor" y2="6"></line><text fill="currentColor" y="9" dy="0.71em">30</text></g><g class="tick" opacity="1" transform="translate(132,0)"><line stroke="currentColor" y2="6"></line><text fill="currentColor" y="9" dy="0.71em">40</text></g><g class="tick" opacity="1" transform="translate(154.99999999999997,0)"><line stroke="currentColor" y2="6"></line><text fill="currentColor" y="9" dy="0.71em">50</text></g><g class="tick" opacity="1" transform="translate(177.99999999999997,0)"><line stroke="currentColor" y2="6"></line><text fill="currentColor" y="9" dy="0.71em">60</text></g><g class="tick" opacity="1" transform="translate(201,0)"><line stroke="currentColor" y2="6"></line><text fill="currentColor" y="9" dy="0.71em">70</text></g><g class="tick" opacity="1" transform="translate(223.99999999999997,0)"><line stroke="currentColor" y2="6"></line><text fill="currentColor" y="9" dy="0.71em">80</text></g><g class="tick" opacity="1" transform="translate(246.99999999999997,0)"><line stroke="currentColor" y2="6"></line><text fill="currentColor" y="9" dy="0.71em">90</text></g><g class="tick" opacity="1" transform="translate(269.99999999999994,0)"><line stroke="currentColor" y2="6"></line><text fill="currentColor" y="9" dy="0.71em">100</text></g></g><g id="labels"><text id="xTitle" text-anchor="middle" transform="translate(250,350)" x="0" y="40" style="fill: black; font-size: 0.8rem;">Percent Cat Owners</text><g id="group-yTitle" transform="translate(60,190)"><text id="yTitle" text-anchor="middle" transform="rotate(-90)" y="-45" style="fill: black; font-size: 0.8rem;">Percent Dog Owners</text></g></g><g id="quadrant_lines" transform="translate(60,30)"><line id="verticalQuadrantLine" x1="155" y1="20" x2="155" y2="300" class="quadrantLine"></line><line id="horizontalQuadrantLine" x1="20" y1="160" x2="290" y2="160" class="quadrantLine"></line></g><g id="fireworkChart" transform="translate(60,30)"><path class="link" d="M186.35603388179786,249.09341298669995L190.11902912726129,253.48818205879567" style="stroke: rgb(65, 182, 196);"></path><path class="link" d="M186.35603388179786,249.09341298669995L192.3981624244883,240.90738458146194" style="stroke: rgb(65, 182, 196);"></path><path class="link" d="M102.27883779872545,210.12889644024756L108.26568128341874,211.76767663484654" style="stroke: rgb(65, 182, 196);"></path><path class="link" d="M102.27883779872545,210.12889644024756L95.71906480963601,209.31893195535747" style="stroke: rgb(65, 182, 196);"></path><path class="link" d="M179.34673900823748,248.8258437271341L177.74684351042532,256.6848151706224" style="stroke: rgb(29, 145, 192);"></path><path class="link" d="M179.34673900823748,248.8258437271341L168.02190552956066,248.39974323586455" style="stroke: rgb(29, 145, 192);"></path><path class="link" d="M179.34673900823748,248.8258437271341L180.04134915190153,244.08322750815262" style="stroke: rgb(29, 145, 192);"></path><path class="link" d="M147.69528044359575,160.5428324656208L162.1271818148317,153.3013298911841" style="stroke: rgb(65, 182, 196);"></path><path class="link" d="M147.69528044359575,160.5428324656208L140.20550032987603,164.5699352739227" style="stroke: rgb(65, 182, 196);"></path><path class="link" d="M147.69528044359575,160.5428324656208L137.58589433194024,152.05686617447344" style="stroke: rgb(65, 182, 196);"></path><path class="link" d="M147.69528044359575,160.5428324656208L152.4137599600183,168.30349498760717" style="stroke: rgb(65, 182, 196);"></path><path class="link" d="M147.69528044359575,160.5428324656208L147.2314553213929,143.51194967859524" style="stroke: rgb(65, 182, 196);"></path><path class="link" d="M147.69528044359575,160.5428324656208L149.69101722724562,155.93941077560717" style="stroke: rgb(65, 182, 196);"></path><path class="link" d="M270,242.27996108588871L276.7450902316624,254.4806839636576" style="stroke: rgb(29, 145, 192);"></path><path class="link" d="M270,242.27996108588871L263.9652642008029,254.7865518118475" style="stroke: rgb(29, 145, 192);"></path><path class="link" d="M270,242.27996108588871L283.1933834587715,265.463232303196" style="stroke: rgb(29, 145, 192);"></path><path class="link" d="M270,242.27996108588871L270.4183658251992,265.77396939647775" style="stroke: rgb(29, 145, 192);"></path><path class="link" d="M270,242.27996108588871L289.45060327919725,253.13387454732526" style="stroke: rgb(29, 145, 192);"></path><path class="link" d="M270,242.27996108588871L282.56501570939736,242.33390530583068" style="stroke: rgb(29, 145, 192);"></path><path class="link" d="M270,242.27996108588871L294.51168773782643,237.82690537425142" style="stroke: rgb(29, 145, 192);"></path><path class="link" d="M40,90.84559541116509L16.738495470158956,99.20579010383216" style="stroke: rgb(127, 205, 187);"></path><path class="link" d="M40,90.84559541116509L19.248609850230725,86.68085165228862" style="stroke: rgb(127, 205, 187);"></path><path class="link" d="M40,90.84559541116509L21.84773257404199,74.22396199463451" style="stroke: rgb(127, 205, 187);"></path><path class="link" d="M40,90.84559541116509L31.427987739943124,82.74675829897267" style="stroke: rgb(127, 205, 187);"></path><path class="link" d="M40,90.84559541116509L46.00248163008415,66.2360154187586" style="stroke: rgb(127, 205, 187);"></path><path class="link" d="M40,90.84559541116509L33.94688296922685,70.2247860139131" style="stroke: rgb(127, 205, 187);"></path><path class="link" d="M40,90.84559541116509L28.87675235916036,95.1997122443934" style="stroke: rgb(127, 205, 187);"></path><path class="link" d="M105.53429121745039,159.15888754419603L107.45167429541665,149.06010575796606" style="stroke: rgb(29, 145, 192);"></path><path class="link" d="M105.53429121745039,159.15888754419603L93.37483861906765,170.3248385799755" style="stroke: rgb(29, 145, 192);"></path><path class="link" d="M105.53429121745039,159.15888754419603L113.16631406226357,160.45378251610012" style="stroke: rgb(29, 145, 192);"></path><path class="link" d="M105.53429121745039,159.15888754419603L100.33925609025502,159.68863279236646" style="stroke: rgb(29, 145, 192);"></path><path class="link" d="M105.53429121745039,159.15888754419603L118.82995195343152,171.76900307489888" style="stroke: rgb(29, 145, 192);"></path><path class="link" d="M105.53429121745039,159.15888754419603L100.27774683531565,182.16490877975687" style="stroke: rgb(29, 145, 192);"></path><path class="link" d="M105.53429121745039,159.15888754419603L106.14040087666739,171.00976899337078" style="stroke: rgb(29, 145, 192);"></path><path class="link" d="M105.53429121745039,159.15888754419603L120.2279543682241,149.63707934415766" style="stroke: rgb(29, 145, 192);"></path><path class="link" d="M105.53429121745039,159.15888754419603L125.84906068668163,161.08934159916842" style="stroke: rgb(29, 145, 192);"></path><path class="link" d="M242.19952660355602,40L245.3828682421302,31.440071640260935" style="stroke: rgb(65, 182, 196);"></path><path class="link" d="M242.19952660355602,40L256.5187262816438,54.213545758949394" style="stroke: rgb(65, 182, 196);"></path><path class="link" d="M242.19952660355602,40L239.9166674547291,19.90294807510362" style="stroke: rgb(65, 182, 196);"></path><path class="link" d="M242.19952660355602,40L231.0434217242896,52.490537103441504" style="stroke: rgb(65, 182, 196);"></path><path class="link" d="M242.19952660355602,40L258.0986369505178,32.28812533320119" style="stroke: rgb(65, 182, 196);"></path><path class="link" d="M242.19952660355602,40L232.62959632300618,30.457514941489915" style="stroke: rgb(65, 182, 196);"></path><path class="link" d="M242.19952660355602,40L225.47804944317303,40.99622999796462" style="stroke: rgb(65, 182, 196);"></path><path class="link" d="M242.19952660355602,40L250.87854934819316,42.848859123604406" style="stroke: rgb(65, 182, 196);"></path><path class="link" d="M242.19952660355602,40L243.74611738655227,53.41523959208339" style="stroke: rgb(65, 182, 196);"></path><path class="link" d="M242.19952660355602,40L238.18909672200357,41.935392932566195" style="stroke: rgb(65, 182, 196);"></path><path class="link" d="M42.30687560852376,92.30365994775342L47.88767181981471,112.02973111606616" style="stroke: rgb(29, 145, 192);"></path><path class="link" d="M42.30687560852376,92.30365994775342L26.336961163792374,107.66868311098068" style="stroke: rgb(29, 145, 192);"></path><path class="link" d="M42.30687560852376,92.30365994775342L65.05897584096184,83.04356499952466" style="stroke: rgb(29, 145, 192);"></path><path class="link" d="M42.30687560852376,92.30365994775342L40.97826054034176,91.19346280445875" style="stroke: rgb(29, 145, 192);"></path><path class="link" d="M42.30687560852376,92.30365994775342L59.99470147999577,107.95321306954648" style="stroke: rgb(29, 145, 192);"></path><path class="link" d="M42.30687560852376,92.30365994775342L62.527678651725324,95.50964780809863" style="stroke: rgb(29, 145, 192);"></path><path class="link" d="M42.30687560852376,92.30365994775342L55.508450974528,74.6654377805094" style="stroke: rgb(29, 145, 192);"></path><path class="link" d="M42.30687560852376,92.30365994775342L43.50160571841174,78.74201755380028" style="stroke: rgb(29, 145, 192);"></path><path class="link" d="M42.30687560852376,92.30365994775342L52.98056911921801,87.20542381197616" style="stroke: rgb(29, 145, 192);"></path><path class="link" d="M42.30687560852376,92.30365994775342L50.37185652094125,99.59858813416335" style="stroke: rgb(29, 145, 192);"></path><path class="link" d="M42.30687560852376,92.30365994775342L35.86125714292405,116.04527265545255" style="stroke: rgb(29, 145, 192);"></path><path class="link" d="M42.30687560852376,92.30365994775342L38.37014755749814,103.57975023470945" style="stroke: rgb(29, 145, 192);"></path><path class="link" d="M160.34250159587418,194.02920850187016L148.74764637854372,180.43751053781097" style="stroke: rgb(127, 205, 187);"></path><path class="link" d="M160.34250159587418,194.02920850187016L150.8086085091653,214.00166109398984" style="stroke: rgb(127, 205, 187);"></path><path class="link" d="M160.34250159587418,194.02920850187016L163.1932582162656,210.87325455442289" style="stroke: rgb(127, 205, 187);"></path><path class="link" d="M160.34250159587418,194.02920850187016L145.23764340764725,192.68880335605743" style="stroke: rgb(127, 205, 187);"></path><path class="link" d="M160.34250159587418,194.02920850187016L157.69565740178228,189.591941494381" style="stroke: rgb(127, 205, 187);"></path><path class="link" d="M160.34250159587418,194.02920850187016L175.5090768704454,207.66316943385405" style="stroke: rgb(127, 205, 187);"></path><path class="link" d="M160.34250159587418,194.02920850187016L166.55787866632784,198.5591841988618" style="stroke: rgb(127, 205, 187);"></path><path class="link" d="M160.34250159587418,194.02920850187016L178.92060235760658,195.3371664954488" style="stroke: rgb(127, 205, 187);"></path><path class="link" d="M160.34250159587418,194.02920850187016L169.9758662171054,186.23802266376578" style="stroke: rgb(127, 205, 187);"></path><path class="link" d="M160.34250159587418,194.02920850187016L161.14657689725328,177.23763708885423" style="stroke: rgb(127, 205, 187);"></path><path class="link" d="M160.34250159587418,194.02920850187016L141.89300966966204,204.9202211240534" style="stroke: rgb(127, 205, 187);"></path><path class="link" d="M160.34250159587418,194.02920850187016L182.14901202622588,182.93517891597583" style="stroke: rgb(127, 205, 187);"></path><path class="link" d="M160.34250159587418,194.02920850187016L154.24634283385052,201.75573104048468" style="stroke: rgb(127, 205, 187);"></path><path class="link" d="M82.32424381776283,143.02966721987437L61.393312435458434,152.27972492169303" style="stroke: rgb(127, 205, 187);"></path><path class="link" d="M82.32424381776283,143.02966721987437L87.16674915859525,124.45017879106686" style="stroke: rgb(127, 205, 187);"></path><path class="link" d="M82.32424381776283,143.02966721987437L82.38675296170403,145.80484487583422" style="stroke: rgb(127, 205, 187);"></path><path class="link" d="M82.32424381776283,143.02966721987437L69.9945107400442,142.8877650500315" style="stroke: rgb(127, 205, 187);"></path><path class="link" d="M82.32424381776283,143.02966721987437L103.39206207734158,137.16588394060724" style="stroke: rgb(127, 205, 187);"></path><path class="link" d="M82.32424381776283,143.02966721987437L90.84155419186611,136.52283995684502" style="stroke: rgb(127, 205, 187);"></path><path class="link" d="M82.32424381776283,143.02966721987437L65.33365528032672,164.3834250446722" style="stroke: rgb(127, 205, 187);"></path><path class="link" d="M82.32424381776283,143.02966721987437L77.78497854132135,167.15213514947268" style="stroke: rgb(127, 205, 187);"></path><path class="link" d="M82.32424381776283,143.02966721987437L94.8534013066503,148.43506475435785" style="stroke: rgb(127, 205, 187);"></path><path class="link" d="M82.32424381776283,143.02966721987437L66.17531137850838,130.76096402503117" style="stroke: rgb(127, 205, 187);"></path><path class="link" d="M82.32424381776283,143.02966721987437L73.92485675076449,155.06432139721827" style="stroke: rgb(127, 205, 187);"></path><path class="link" d="M82.32424381776283,143.02966721987437L57.48834529934635,140.14175943024142" style="stroke: rgb(127, 205, 187);"></path><path class="link" d="M82.32424381776283,143.02966721987437L78.47551288359092,133.66057901798828" style="stroke: rgb(127, 205, 187);"></path><path class="link" d="M82.32424381776283,143.02966721987437L86.42530349442454,157.8722822259689" style="stroke: rgb(127, 205, 187);"></path><path class="link" d="M82.32424381776283,143.02966721987437L74.80987647377898,121.43297661702746" style="stroke: rgb(127, 205, 187);"></path><path class="link" d="M82.32424381776283,143.02966721987437L87.81857627671673,112.01097207530674" style="stroke: rgb(127, 205, 187);"></path><path class="link" d="M82.32424381776283,143.02966721987437L99.78365206329886,125.03589860966821" style="stroke: rgb(127, 205, 187);"></path><path class="link" d="M237.52996400108125,280L224.62727819283015,302.15919591226833" style="stroke: rgb(65, 182, 196);"></path><path class="link" d="M237.52996400108125,280L252.51814684375248,283.552943822767" style="stroke: rgb(65, 182, 196);"></path><path class="link" d="M237.52996400108125,280L223.0094657164368,268.66468509479" style="stroke: rgb(65, 182, 196);"></path><path class="link" d="M237.52996400108125,280L260.8917289391436,273.9810295826599" style="stroke: rgb(65, 182, 196);"></path><path class="link" d="M237.52996400108125,280L235.6317581014992,270.3376137345209" style="stroke: rgb(65, 182, 196);"></path><path class="link" d="M237.52996400108125,280L249.96228718148788,305.1915512525361" style="stroke: rgb(65, 182, 196);"></path><path class="link" d="M237.52996400108125,280L240.01978767365884,282.1270357229212" style="stroke: rgb(65, 182, 196);"></path><path class="link" d="M237.52996400108125,280L210.6199400880256,266.5165917954904" style="stroke: rgb(65, 182, 196);"></path><path class="link" d="M237.52996400108125,280L232.33813004996102,292.0450938477862" style="stroke: rgb(65, 182, 196);"></path><path class="link" d="M237.52996400108125,280L219.6418693227062,290.35065429635546" style="stroke: rgb(65, 182, 196);"></path><path class="link" d="M237.52996400108125,280L242.7437386663438,259.9888264663" style="stroke: rgb(65, 182, 196);"></path><path class="link" d="M237.52996400108125,280L237.3134277303299,303.79866495997044" style="stroke: rgb(65, 182, 196);"></path><path class="link" d="M237.52996400108125,280L214.98844306902683,278.5789908377209" style="stroke: rgb(65, 182, 196);"></path><path class="link" d="M237.52996400108125,280L248.3542577625214,271.44553874327545" style="stroke: rgb(65, 182, 196);"></path><path class="link" d="M237.52996400108125,280L245.00139021267452,293.6558017606005" style="stroke: rgb(65, 182, 196);"></path><path class="link" d="M237.52996400108125,280L227.58708644370233,280.3867427065714" style="stroke: rgb(65, 182, 196);"></path><path class="link" d="M237.52996400108125,280L230.12804613339466,258.2858202444209" style="stroke: rgb(65, 182, 196);"></path><path class="link" d="M237.52996400108125,280L257.71360270552333,295.0167551355735" style="stroke: rgb(65, 182, 196);"></path><path class="link" d="M261.5587760927063,229.52834901459858L285.2530013790505,228.9575675648472" style="stroke: rgb(127, 205, 187);"></path><path class="link" d="M261.5587760927063,229.52834901459858L254.12869007610595,215.23042761561337" style="stroke: rgb(127, 205, 187);"></path><path class="link" d="M261.5587760927063,229.52834901459858L263.7188659163483,223.6546940354254" style="stroke: rgb(127, 205, 187);"></path><path class="link" d="M261.5587760927063,229.52834901459858L239.46398596690452,231.74909087115844" style="stroke: rgb(127, 205, 187);"></path><path class="link" d="M261.5587760927063,229.52834901459858L249.4210999030671,239.68804329540143" style="stroke: rgb(127, 205, 187);"></path><path class="link" d="M261.5587760927063,229.52834901459858L251.92852092832223,251.84437324750417" style="stroke: rgb(127, 205, 187);"></path><path class="link" d="M261.5587760927063,229.52834901459858L237.51446473252165,244.54172547746168" style="stroke: rgb(127, 205, 187);"></path><path class="link" d="M261.5587760927063,229.52834901459858L242.0565841611324,219.31068271204694" style="stroke: rgb(127, 205, 187);"></path><path class="link" d="M261.5587760927063,229.52834901459858L261.1848238762558,235.9547236397668" style="stroke: rgb(127, 205, 187);"></path><path class="link" d="M261.5587760927063,229.52834901459858L244.58414885666764,206.77379861116208" style="stroke: rgb(127, 205, 187);"></path><path class="link" d="M261.5587760927063,229.52834901459858L251.50269484078217,227.51359421296016" style="stroke: rgb(127, 205, 187);"></path><path class="link" d="M261.5587760927063,229.52834901459858L273.0827116456186,232.2601774063993" style="stroke: rgb(127, 205, 187);"></path><path class="link" d="M261.5587760927063,229.52834901459858L287.85334195631015,216.50419264858488" style="stroke: rgb(127, 205, 187);"></path><path class="link" d="M261.5587760927063,229.52834901459858L230.04613758072685,223.34885907285317" style="stroke: rgb(127, 205, 187);"></path><path class="link" d="M261.5587760927063,229.52834901459858L266.2962300880215,211.41743221999394" style="stroke: rgb(127, 205, 187);"></path><path class="link" d="M261.5587760927063,229.52834901459858L256.7908801967225,202.90412682449553" style="stroke: rgb(127, 205, 187);"></path><path class="link" d="M261.5587760927063,229.52834901459858L278.36311930685997,207.68253433670833" style="stroke: rgb(127, 205, 187);"></path><path class="link" d="M261.5587760927063,229.52834901459858L275.7571878836761,219.96786389505422" style="stroke: rgb(127, 205, 187);"></path><path class="link" d="M261.5587760927063,229.52834901459858L270.1698827025521,244.15052772977782" style="stroke: rgb(127, 205, 187);"></path><path class="link" d="M261.5587760927063,229.52834901459858L268.9388214094454,199.1044069900434" style="stroke: rgb(127, 205, 187);"></path><circle class="fireworkPearl" r="0" cx="261.5587760927063" cy="229.52834901459858" style="fill: rgb(127, 205, 187);"></circle><circle class="fireworkPearl" r="4.380867874285302" cx="268.9388214094454" cy="199.1044069900434" style="fill: rgb(127, 205, 187);"></circle><circle class="fireworkPearl" r="4.380867874285302" cx="270.1698827025521" cy="244.15052772977782" style="fill: rgb(127, 205, 187);"></circle><circle class="fireworkPearl" r="4.380867874285302" cx="275.7571878836761" cy="219.96786389505422" style="fill: rgb(127, 205, 187);"></circle><circle class="fireworkPearl" r="4.380867874285302" cx="278.36311930685997" cy="207.68253433670833" style="fill: rgb(127, 205, 187);"></circle><circle class="fireworkPearl" r="4.380867874285302" cx="256.7908801967225" cy="202.90412682449553" style="fill: rgb(127, 205, 187);"></circle><circle class="fireworkPearl" r="4.380867874285302" cx="266.2962300880215" cy="211.41743221999394" style="fill: rgb(127, 205, 187);"></circle><circle class="fireworkPearl" r="4.380867874285302" cx="230.04613758072685" cy="223.34885907285317" style="fill: rgb(127, 205, 187);"></circle><circle class="fireworkPearl" r="4.380867874285302" cx="287.85334195631015" cy="216.50419264858488" style="fill: rgb(127, 205, 187);"></circle><circle class="fireworkPearl" r="4.380867874285302" cx="273.0827116456186" cy="232.2601774063993" style="fill: rgb(127, 205, 187);"></circle><circle class="fireworkPearl" r="4.380867874285302" cx="251.50269484078217" cy="227.51359421296016" style="fill: rgb(127, 205, 187);"></circle><circle class="fireworkPearl" r="4.380867874285302" cx="244.58414885666764" cy="206.77379861116208" style="fill: rgb(127, 205, 187);"></circle><circle class="fireworkPearl" r="4.380867874285302" cx="261.1848238762558" cy="235.9547236397668" style="fill: rgb(127, 205, 187);"></circle><circle class="fireworkPearl" r="4.380867874285302" cx="242.0565841611324" cy="219.31068271204694" style="fill: rgb(127, 205, 187);"></circle><circle class="fireworkPearl" r="4.380867874285302" cx="237.51446473252165" cy="244.54172547746168" style="fill: rgb(127, 205, 187);"></circle><circle class="fireworkPearl" r="4.380867874285302" cx="251.92852092832223" cy="251.84437324750417" style="fill: rgb(127, 205, 187);"></circle><circle class="fireworkPearl" r="4.380867874285302" cx="249.4210999030671" cy="239.68804329540143" style="fill: rgb(127, 205, 187);"></circle><circle class="fireworkPearl" r="4.380867874285302" cx="239.46398596690452" cy="231.74909087115844" style="fill: rgb(127, 205, 187);"></circle><circle class="fireworkPearl" r="4.380867874285302" cx="263.7188659163483" cy="223.6546940354254" style="fill: rgb(127, 205, 187);"></circle><circle class="fireworkPearl" r="4.380867874285302" cx="254.12869007610595" cy="215.23042761561337" style="fill: rgb(127, 205, 187);"></circle><circle class="fireworkPearl" r="4.380867874285302" cx="285.2530013790505" cy="228.9575675648472" style="fill: rgb(127, 205, 187);"></circle><circle class="fireworkPearl" r="0" cx="237.52996400108125" cy="280" style="fill: rgb(65, 182, 196);"></circle><circle class="fireworkPearl" r="4.380867874285303" cx="257.71360270552333" cy="295.0167551355735" style="fill: rgb(65, 182, 196);"></circle><circle class="fireworkPearl" r="4.380867874285303" cx="230.12804613339466" cy="258.2858202444209" style="fill: rgb(65, 182, 196);"></circle><circle class="fireworkPearl" r="4.380867874285303" cx="227.58708644370233" cy="280.3867427065714" style="fill: rgb(65, 182, 196);"></circle><circle class="fireworkPearl" r="4.380867874285303" cx="245.00139021267452" cy="293.6558017606005" style="fill: rgb(65, 182, 196);"></circle><circle class="fireworkPearl" r="4.380867874285303" cx="248.3542577625214" cy="271.44553874327545" style="fill: rgb(65, 182, 196);"></circle><circle class="fireworkPearl" r="4.380867874285303" cx="214.98844306902683" cy="278.5789908377209" style="fill: rgb(65, 182, 196);"></circle><circle class="fireworkPearl" r="4.380867874285303" cx="237.3134277303299" cy="303.79866495997044" style="fill: rgb(65, 182, 196);"></circle><circle class="fireworkPearl" r="4.380867874285303" cx="242.7437386663438" cy="259.9888264663" style="fill: rgb(65, 182, 196);"></circle><circle class="fireworkPearl" r="4.380867874285303" cx="219.6418693227062" cy="290.35065429635546" style="fill: rgb(65, 182, 196);"></circle><circle class="fireworkPearl" r="4.380867874285303" cx="232.33813004996102" cy="292.0450938477862" style="fill: rgb(65, 182, 196);"></circle><circle class="fireworkPearl" r="4.380867874285303" cx="210.6199400880256" cy="266.5165917954904" style="fill: rgb(65, 182, 196);"></circle><circle class="fireworkPearl" r="4.380867874285303" cx="240.01978767365884" cy="282.1270357229212" style="fill: rgb(65, 182, 196);"></circle><circle class="fireworkPearl" r="4.380867874285303" cx="249.96228718148788" cy="305.1915512525361" style="fill: rgb(65, 182, 196);"></circle><circle class="fireworkPearl" r="4.380867874285303" cx="235.6317581014992" cy="270.3376137345209" style="fill: rgb(65, 182, 196);"></circle><circle class="fireworkPearl" r="4.380867874285303" cx="260.8917289391436" cy="273.9810295826599" style="fill: rgb(65, 182, 196);"></circle><circle class="fireworkPearl" r="4.380867874285303" cx="223.0094657164368" cy="268.66468509479" style="fill: rgb(65, 182, 196);"></circle><circle class="fireworkPearl" r="4.380867874285303" cx="252.51814684375248" cy="283.552943822767" style="fill: rgb(65, 182, 196);"></circle><circle class="fireworkPearl" r="4.380867874285303" cx="224.62727819283015" cy="302.15919591226833" style="fill: rgb(65, 182, 196);"></circle><circle class="fireworkPearl" r="0" cx="82.32424381776283" cy="143.02966721987437" style="fill: rgb(127, 205, 187);"></circle><circle class="fireworkPearl" r="4.380867874285301" cx="99.78365206329886" cy="125.03589860966821" style="fill: rgb(127, 205, 187);"></circle><circle class="fireworkPearl" r="4.380867874285301" cx="87.81857627671673" cy="112.01097207530674" style="fill: rgb(127, 205, 187);"></circle><circle class="fireworkPearl" r="4.380867874285301" cx="74.80987647377898" cy="121.43297661702746" style="fill: rgb(127, 205, 187);"></circle><circle class="fireworkPearl" r="4.380867874285301" cx="86.42530349442454" cy="157.8722822259689" style="fill: rgb(127, 205, 187);"></circle><circle class="fireworkPearl" r="4.380867874285301" cx="78.47551288359092" cy="133.66057901798828" style="fill: rgb(127, 205, 187);"></circle><circle class="fireworkPearl" r="4.380867874285301" cx="57.48834529934635" cy="140.14175943024142" style="fill: rgb(127, 205, 187);"></circle><circle class="fireworkPearl" r="4.380867874285301" cx="73.92485675076449" cy="155.06432139721827" style="fill: rgb(127, 205, 187);"></circle><circle class="fireworkPearl" r="4.380867874285301" cx="66.17531137850838" cy="130.76096402503117" style="fill: rgb(127, 205, 187);"></circle><circle class="fireworkPearl" r="4.380867874285301" cx="94.8534013066503" cy="148.43506475435785" style="fill: rgb(127, 205, 187);"></circle><circle class="fireworkPearl" r="4.380867874285301" cx="77.78497854132135" cy="167.15213514947268" style="fill: rgb(127, 205, 187);"></circle><circle class="fireworkPearl" r="4.380867874285301" cx="65.33365528032672" cy="164.3834250446722" style="fill: rgb(127, 205, 187);"></circle><circle class="fireworkPearl" r="4.380867874285301" cx="90.84155419186611" cy="136.52283995684502" style="fill: rgb(127, 205, 187);"></circle><circle class="fireworkPearl" r="4.380867874285301" cx="103.39206207734158" cy="137.16588394060724" style="fill: rgb(127, 205, 187);"></circle><circle class="fireworkPearl" r="4.380867874285301" cx="69.9945107400442" cy="142.8877650500315" style="fill: rgb(127, 205, 187);"></circle><circle class="fireworkPearl" r="4.380867874285301" cx="82.38675296170403" cy="145.80484487583422" style="fill: rgb(127, 205, 187);"></circle><circle class="fireworkPearl" r="4.380867874285301" cx="87.16674915859525" cy="124.45017879106686" style="fill: rgb(127, 205, 187);"></circle><circle class="fireworkPearl" r="4.380867874285301" cx="61.393312435458434" cy="152.27972492169303" style="fill: rgb(127, 205, 187);"></circle><circle class="fireworkPearl" r="0" cx="160.34250159587418" cy="194.02920850187016" style="fill: rgb(127, 205, 187);"></circle><circle class="fireworkPearl" r="4.380867874285302" cx="154.24634283385052" cy="201.75573104048468" style="fill: rgb(127, 205, 187);"></circle><circle class="fireworkPearl" r="4.380867874285302" cx="182.14901202622588" cy="182.93517891597583" style="fill: rgb(127, 205, 187);"></circle><circle class="fireworkPearl" r="4.380867874285302" cx="141.89300966966204" cy="204.9202211240534" style="fill: rgb(127, 205, 187);"></circle><circle class="fireworkPearl" r="4.380867874285302" cx="161.14657689725328" cy="177.23763708885423" style="fill: rgb(127, 205, 187);"></circle><circle class="fireworkPearl" r="4.380867874285302" cx="169.9758662171054" cy="186.23802266376578" style="fill: rgb(127, 205, 187);"></circle><circle class="fireworkPearl" r="4.380867874285302" cx="178.92060235760658" cy="195.3371664954488" style="fill: rgb(127, 205, 187);"></circle><circle class="fireworkPearl" r="4.380867874285302" cx="166.55787866632784" cy="198.5591841988618" style="fill: rgb(127, 205, 187);"></circle><circle class="fireworkPearl" r="4.380867874285302" cx="175.5090768704454" cy="207.66316943385405" style="fill: rgb(127, 205, 187);"></circle><circle class="fireworkPearl" r="4.380867874285302" cx="157.69565740178228" cy="189.591941494381" style="fill: rgb(127, 205, 187);"></circle><circle class="fireworkPearl" r="4.380867874285302" cx="145.23764340764725" cy="192.68880335605743" style="fill: rgb(127, 205, 187);"></circle><circle class="fireworkPearl" r="4.380867874285302" cx="163.1932582162656" cy="210.87325455442289" style="fill: rgb(127, 205, 187);"></circle><circle class="fireworkPearl" r="4.380867874285302" cx="150.8086085091653" cy="214.00166109398984" style="fill: rgb(127, 205, 187);"></circle><circle class="fireworkPearl" r="4.380867874285302" cx="148.74764637854372" cy="180.43751053781097" style="fill: rgb(127, 205, 187);"></circle><circle class="fireworkPearl" r="0" cx="42.30687560852376" cy="92.30365994775342" style="fill: rgb(29, 145, 192);"></circle><circle class="fireworkPearl" r="4.380867874285303" cx="38.37014755749814" cy="103.57975023470945" style="fill: rgb(29, 145, 192);"></circle><circle class="fireworkPearl" r="4.380867874285303" cx="35.86125714292405" cy="116.04527265545255" style="fill: rgb(29, 145, 192);"></circle><circle class="fireworkPearl" r="4.380867874285303" cx="50.37185652094125" cy="99.59858813416335" style="fill: rgb(29, 145, 192);"></circle><circle class="fireworkPearl" r="4.380867874285303" cx="52.98056911921801" cy="87.20542381197616" style="fill: rgb(29, 145, 192);"></circle><circle class="fireworkPearl" r="4.380867874285303" cx="43.50160571841174" cy="78.74201755380028" style="fill: rgb(29, 145, 192);"></circle><circle class="fireworkPearl" r="4.380867874285303" cx="55.508450974528" cy="74.6654377805094" style="fill: rgb(29, 145, 192);"></circle><circle class="fireworkPearl" r="4.380867874285303" cx="62.527678651725324" cy="95.50964780809863" style="fill: rgb(29, 145, 192);"></circle><circle class="fireworkPearl" r="4.380867874285303" cx="59.99470147999577" cy="107.95321306954648" style="fill: rgb(29, 145, 192);"></circle><circle class="fireworkPearl" r="4.380867874285303" cx="40.97826054034176" cy="91.19346280445875" style="fill: rgb(29, 145, 192);"></circle><circle class="fireworkPearl" r="4.380867874285303" cx="65.05897584096184" cy="83.04356499952466" style="fill: rgb(29, 145, 192);"></circle><circle class="fireworkPearl" r="4.380867874285303" cx="26.336961163792374" cy="107.66868311098068" style="fill: rgb(29, 145, 192);"></circle><circle class="fireworkPearl" r="4.380867874285303" cx="47.88767181981471" cy="112.02973111606616" style="fill: rgb(29, 145, 192);"></circle><circle class="fireworkPearl" r="0" cx="242.19952660355602" cy="40" style="fill: rgb(65, 182, 196);"></circle><circle class="fireworkPearl" r="4.380867874285302" cx="238.18909672200357" cy="41.935392932566195" style="fill: rgb(65, 182, 196);"></circle><circle class="fireworkPearl" r="4.380867874285302" cx="243.74611738655227" cy="53.41523959208339" style="fill: rgb(65, 182, 196);"></circle><circle class="fireworkPearl" r="4.380867874285302" cx="250.87854934819316" cy="42.848859123604406" style="fill: rgb(65, 182, 196);"></circle><circle class="fireworkPearl" r="4.380867874285302" cx="225.47804944317303" cy="40.99622999796462" style="fill: rgb(65, 182, 196);"></circle><circle class="fireworkPearl" r="4.380867874285302" cx="232.62959632300618" cy="30.457514941489915" style="fill: rgb(65, 182, 196);"></circle><circle class="fireworkPearl" r="4.380867874285302" cx="258.0986369505178" cy="32.28812533320119" style="fill: rgb(65, 182, 196);"></circle><circle class="fireworkPearl" r="4.380867874285302" cx="231.0434217242896" cy="52.490537103441504" style="fill: rgb(65, 182, 196);"></circle><circle class="fireworkPearl" r="4.380867874285302" cx="239.9166674547291" cy="19.90294807510362" style="fill: rgb(65, 182, 196);"></circle><circle class="fireworkPearl" r="4.380867874285302" cx="256.5187262816438" cy="54.213545758949394" style="fill: rgb(65, 182, 196);"></circle><circle class="fireworkPearl" r="4.380867874285302" cx="245.3828682421302" cy="31.440071640260935" style="fill: rgb(65, 182, 196);"></circle><circle class="fireworkPearl" r="0" cx="105.53429121745039" cy="159.15888754419603" style="fill: rgb(29, 145, 192);"></circle><circle class="fireworkPearl" r="4.380867874285302" cx="125.84906068668163" cy="161.08934159916842" style="fill: rgb(29, 145, 192);"></circle><circle class="fireworkPearl" r="4.380867874285302" cx="120.2279543682241" cy="149.63707934415766" style="fill: rgb(29, 145, 192);"></circle><circle class="fireworkPearl" r="4.380867874285302" cx="106.14040087666739" cy="171.00976899337078" style="fill: rgb(29, 145, 192);"></circle><circle class="fireworkPearl" r="4.380867874285302" cx="100.27774683531565" cy="182.16490877975687" style="fill: rgb(29, 145, 192);"></circle><circle class="fireworkPearl" r="4.380867874285302" cx="118.82995195343152" cy="171.76900307489888" style="fill: rgb(29, 145, 192);"></circle><circle class="fireworkPearl" r="4.380867874285302" cx="100.33925609025502" cy="159.68863279236646" style="fill: rgb(29, 145, 192);"></circle><circle class="fireworkPearl" r="4.380867874285302" cx="113.16631406226357" cy="160.45378251610012" style="fill: rgb(29, 145, 192);"></circle><circle class="fireworkPearl" r="4.380867874285302" cx="93.37483861906765" cy="170.3248385799755" style="fill: rgb(29, 145, 192);"></circle><circle class="fireworkPearl" r="4.380867874285302" cx="107.45167429541665" cy="149.06010575796606" style="fill: rgb(29, 145, 192);"></circle><circle class="fireworkPearl" r="0" cx="40" cy="90.84559541116509" style="fill: rgb(127, 205, 187);"></circle><circle class="fireworkPearl" r="4.380867874285303" cx="28.87675235916036" cy="95.1997122443934" style="fill: rgb(127, 205, 187);"></circle><circle class="fireworkPearl" r="4.380867874285303" cx="33.94688296922685" cy="70.2247860139131" style="fill: rgb(127, 205, 187);"></circle><circle class="fireworkPearl" r="4.380867874285303" cx="46.00248163008415" cy="66.2360154187586" style="fill: rgb(127, 205, 187);"></circle><circle class="fireworkPearl" r="4.380867874285303" cx="31.427987739943124" cy="82.74675829897267" style="fill: rgb(127, 205, 187);"></circle><circle class="fireworkPearl" r="4.380867874285303" cx="21.84773257404199" cy="74.22396199463451" style="fill: rgb(127, 205, 187);"></circle><circle class="fireworkPearl" r="4.380867874285303" cx="19.248609850230725" cy="86.68085165228862" style="fill: rgb(127, 205, 187);"></circle><circle class="fireworkPearl" r="4.380867874285303" cx="16.738495470158956" cy="99.20579010383216" style="fill: rgb(127, 205, 187);"></circle><circle class="fireworkPearl" r="0" cx="270" cy="242.27996108588871" style="fill: rgb(29, 145, 192);"></circle><circle class="fireworkPearl" r="4.380867874285303" cx="294.51168773782643" cy="237.82690537425142" style="fill: rgb(29, 145, 192);"></circle><circle class="fireworkPearl" r="4.380867874285303" cx="282.56501570939736" cy="242.33390530583068" style="fill: rgb(29, 145, 192);"></circle><circle class="fireworkPearl" r="4.380867874285303" cx="289.45060327919725" cy="253.13387454732526" style="fill: rgb(29, 145, 192);"></circle><circle class="fireworkPearl" r="4.380867874285303" cx="270.4183658251992" cy="265.77396939647775" style="fill: rgb(29, 145, 192);"></circle><circle class="fireworkPearl" r="4.380867874285303" cx="283.1933834587715" cy="265.463232303196" style="fill: rgb(29, 145, 192);"></circle><circle class="fireworkPearl" r="4.380867874285303" cx="263.9652642008029" cy="254.7865518118475" style="fill: rgb(29, 145, 192);"></circle><circle class="fireworkPearl" r="4.380867874285303" cx="276.7450902316624" cy="254.4806839636576" style="fill: rgb(29, 145, 192);"></circle><circle class="fireworkPearl" r="0" cx="147.69528044359575" cy="160.5428324656208" style="fill: rgb(65, 182, 196);"></circle><circle class="fireworkPearl" r="4.380867874285303" cx="149.69101722724562" cy="155.93941077560717" style="fill: rgb(65, 182, 196);"></circle><circle class="fireworkPearl" r="4.380867874285303" cx="147.2314553213929" cy="143.51194967859524" style="fill: rgb(65, 182, 196);"></circle><circle class="fireworkPearl" r="4.380867874285303" cx="152.4137599600183" cy="168.30349498760717" style="fill: rgb(65, 182, 196);"></circle><circle class="fireworkPearl" r="4.380867874285303" cx="137.58589433194024" cy="152.05686617447344" style="fill: rgb(65, 182, 196);"></circle><circle class="fireworkPearl" r="4.380867874285303" cx="140.20550032987603" cy="164.5699352739227" style="fill: rgb(65, 182, 196);"></circle><circle class="fireworkPearl" r="4.380867874285303" cx="162.1271818148317" cy="153.3013298911841" style="fill: rgb(65, 182, 196);"></circle><circle class="fireworkPearl" r="0" cx="179.34673900823748" cy="248.8258437271341" style="fill: rgb(29, 145, 192);"></circle><circle class="fireworkPearl" r="4.380867874285303" cx="180.04134915190153" cy="244.08322750815262" style="fill: rgb(29, 145, 192);"></circle><circle class="fireworkPearl" r="4.380867874285303" cx="168.02190552956066" cy="248.39974323586455" style="fill: rgb(29, 145, 192);"></circle><circle class="fireworkPearl" r="4.380867874285303" cx="177.74684351042532" cy="256.6848151706224" style="fill: rgb(29, 145, 192);"></circle><circle class="fireworkPearl" r="0" cx="102.27883779872545" cy="210.12889644024756" style="fill: rgb(65, 182, 196);"></circle><circle class="fireworkPearl" r="4.380867874285302" cx="95.71906480963601" cy="209.31893195535747" style="fill: rgb(65, 182, 196);"></circle><circle class="fireworkPearl" r="4.380867874285302" cx="108.26568128341874" cy="211.76767663484654" style="fill: rgb(65, 182, 196);"></circle><circle class="fireworkPearl" r="0" cx="186.35603388179786" cy="249.09341298669995" style="fill: rgb(65, 182, 196);"></circle><circle class="fireworkPearl" r="4.380867874285302" cx="192.3981624244883" cy="240.90738458146194" style="fill: rgb(65, 182, 196);"></circle><circle class="fireworkPearl" r="4.380867874285302" cx="190.11902912726129" cy="253.48818205879567" style="fill: rgb(65, 182, 196);"></circle></g><g id="legendDividerGroup" transform="translate(390,0)" height="400"><rect class="legendDivider" height="400" width="110"></rect></g><g id="fireworkLegend" transform="translate(390,5.624674406319656)" width="110" height="320"><rect class="legendBorder" transform="translate(0,0)" width="110" height="368.7506511873607"></rect><text id="rTitle" text-anchor="middle" alignment-baseline="hanging" transform="translate(55,0)" x="0" y="0" style="fill: black; font-size: 0.8rem;">Population</text><text id="bobaValue" text-anchor="middle" alignment-baseline="hanging" transform="translate(55,15)" x="0" y="0" style="fill: black; font-size: 0.7rem;">(1 Pearl =   75)</text><g class="" cupRadius="14.78480120190174" width="29.56960240380348" height="29.56960240380348" pearlRadius="5.476084842856628" pearlCount="2" transform="translate(40.21519879809826,40)"><path class="link" d="M14.78480120190174,14.78480120190174L17.19499538928027,8.884717503158942" style="stroke: rgb(65, 182, 196);"></path><path class="link" d="M14.78480120190174,14.78480120190174L12.227096979531991,20.6716579701242" style="stroke: rgb(65, 182, 196);"></path><circle class="fireworkPearl" r="0" cx="14.78480120190174" cy="14.78480120190174" style="fill: rgb(65, 182, 196);"></circle><circle class="fireworkPearl" r="4.380867874285303" cx="12.227096979531991" cy="20.6716579701242" style="fill: rgb(65, 182, 196);"></circle><circle class="fireworkPearl" r="4.380867874285303" cx="17.19499538928027" cy="8.884717503158942" style="fill: rgb(65, 182, 196);"></circle></g><text id="0" class="legendSampleValue" text-anchor="middle" transform="translate(55,8)" x="0" y="74.56960240380349" style="fill: black; font-size: 0.7rem;"> 200</text><g class="" cupRadius="25.97028171215006" width="51.94056342430012" height="51.94056342430012" pearlRadius="5.476084842856627" pearlCount="8" transform="translate(29.02971828784994,94.56960240380349)"><path class="link" d="M25.97028171215006,25.97028171215006L37.632099590925364,27.42938569380352" style="stroke: rgb(65, 182, 196);"></path><path class="link" d="M25.97028171215006,25.97028171215006L16.51310331666486,13.22621138460431" style="stroke: rgb(65, 182, 196);"></path><path class="link" d="M25.97028171215006,25.97028171215006L18.990078649586586,41.68095091698531" style="stroke: rgb(65, 182, 196);"></path><path class="link" d="M25.97028171215006,25.97028171215006L40.82610818132366,15.043532818069457" style="stroke: rgb(65, 182, 196);"></path><path class="link" d="M25.97028171215006,25.97028171215006L11.089987646756994,24.81118571972455" style="stroke: rgb(65, 182, 196);"></path><path class="link" d="M25.97028171215006,25.97028171215006L31.785666486782574,38.802547406153195" style="stroke: rgb(65, 182, 196);"></path><path class="link" d="M25.97028171215006,25.97028171215006L28.382192409629464,17.966118539031523" style="stroke: rgb(65, 182, 196);"></path><path class="link" d="M25.97028171215006,25.97028171215006L22.971640823194782,29.53703643920097" style="stroke: rgb(65, 182, 196);"></path><circle class="fireworkPearl" r="0" cx="25.97028171215006" cy="25.97028171215006" style="fill: rgb(65, 182, 196);"></circle><circle class="fireworkPearl" r="4.380867874285302" cx="22.971640823194782" cy="29.53703643920097" style="fill: rgb(65, 182, 196);"></circle><circle class="fireworkPearl" r="4.380867874285302" cx="28.382192409629464" cy="17.966118539031523" style="fill: rgb(65, 182, 196);"></circle><circle class="fireworkPearl" r="4.380867874285302" cx="31.785666486782574" cy="38.802547406153195" style="fill: rgb(65, 182, 196);"></circle><circle class="fireworkPearl" r="4.380867874285302" cx="11.089987646756994" cy="24.81118571972455" style="fill: rgb(65, 182, 196);"></circle><circle class="fireworkPearl" r="4.380867874285302" cx="40.82610818132366" cy="15.043532818069457" style="fill: rgb(65, 182, 196);"></circle><circle class="fireworkPearl" r="4.380867874285302" cx="18.990078649586586" cy="41.68095091698531" style="fill: rgb(65, 182, 196);"></circle><circle class="fireworkPearl" r="4.380867874285302" cx="16.51310331666486" cy="13.22621138460431" style="fill: rgb(65, 182, 196);"></circle><circle class="fireworkPearl" r="4.380867874285302" cx="37.632099590925364" cy="27.42938569380352" style="fill: rgb(65, 182, 196);"></circle></g><text id="1" class="legendSampleValue" text-anchor="middle" transform="translate(55,8)" x="0" y="151.5101658281036" style="fill: black; font-size: 0.7rem;"> 630</text><g class="" cupRadius="33.62024267962855" width="67.2404853592571" height="67.2404853592571" pearlRadius="5.476084842856628" pearlCount="14" transform="translate(21.379757320371453,171.5101658281036)"><path class="link" d="M33.62024267962855,33.62024267962855L20.24728759242521,50.64551792996963" style="stroke: rgb(65, 182, 196);"></path><path class="link" d="M33.62024267962855,33.62024267962855L58.19241222863838,27.844524099870892" style="stroke: rgb(65, 182, 196);"></path><path class="link" d="M33.62024267962855,33.62024267962855L15.231128569941571,16.603137694165458" style="stroke: rgb(65, 182, 196);"></path><path class="link" d="M33.62024267962855,33.62024267962855L45.807829517216256,50.22381670568545" style="stroke: rgb(65, 182, 196);"></path><path class="link" d="M33.62024267962855,33.62024267962855L40.79878876966006,16.12164359620566" style="stroke: rgb(65, 182, 196);"></path><path class="link" d="M33.62024267962855,33.62024267962855L13.669856839256678,39.67515938944612" style="stroke: rgb(65, 182, 196);"></path><path class="link" d="M33.62024267962855,33.62024267962855L52.026616486829056,39.04834284193393" style="stroke: rgb(65, 182, 196);"></path><path class="link" d="M33.62024267962855,33.62024267962855L28.01478394928417,16.366364802654893" style="stroke: rgb(65, 182, 196);"></path><path class="link" d="M33.62024267962855,33.62024267962855L33.02726789338955,50.44039220827443" style="stroke: rgb(65, 182, 196);"></path><path class="link" d="M33.62024267962855,33.62024267962855L45.40770457182042,28.046098305138656" style="stroke: rgb(65, 182, 196);"></path><path class="link" d="M33.62024267962855,33.62024267962855L19.88596526756891,28.508976711127747" style="stroke: rgb(65, 182, 196);"></path><path class="link" d="M33.62024267962855,33.62024267962855L39.23578999558247,39.2415966025216" style="stroke: rgb(65, 182, 196);"></path><path class="link" d="M33.62024267962855,33.62024267962855L32.64808889211271,28.283857144178775" style="stroke: rgb(65, 182, 196);"></path><path class="link" d="M33.62024267962855,33.62024267962855L26.459269478632013,39.470654102969085" style="stroke: rgb(65, 182, 196);"></path><circle class="fireworkPearl" r="0" cx="33.62024267962855" cy="33.62024267962855" style="fill: rgb(65, 182, 196);"></circle><circle class="fireworkPearl" r="4.380867874285303" cx="26.459269478632013" cy="39.470654102969085" style="fill: rgb(65, 182, 196);"></circle><circle class="fireworkPearl" r="4.380867874285303" cx="32.64808889211271" cy="28.283857144178775" style="fill: rgb(65, 182, 196);"></circle><circle class="fireworkPearl" r="4.380867874285303" cx="39.23578999558247" cy="39.2415966025216" style="fill: rgb(65, 182, 196);"></circle><circle class="fireworkPearl" r="4.380867874285303" cx="19.88596526756891" cy="28.508976711127747" style="fill: rgb(65, 182, 196);"></circle><circle class="fireworkPearl" r="4.380867874285303" cx="45.40770457182042" cy="28.046098305138656" style="fill: rgb(65, 182, 196);"></circle><circle class="fireworkPearl" r="4.380867874285303" cx="33.02726789338955" cy="50.44039220827443" style="fill: rgb(65, 182, 196);"></circle><circle class="fireworkPearl" r="4.380867874285303" cx="28.01478394928417" cy="16.366364802654893" style="fill: rgb(65, 182, 196);"></circle><circle class="fireworkPearl" r="4.380867874285303" cx="52.026616486829056" cy="39.04834284193393" style="fill: rgb(65, 182, 196);"></circle><circle class="fireworkPearl" r="4.380867874285303" cx="13.669856839256678" cy="39.67515938944612" style="fill: rgb(65, 182, 196);"></circle><circle class="fireworkPearl" r="4.380867874285303" cx="40.79878876966006" cy="16.12164359620566" style="fill: rgb(65, 182, 196);"></circle><circle class="fireworkPearl" r="4.380867874285303" cx="45.807829517216256" cy="50.22381670568545" style="fill: rgb(65, 182, 196);"></circle><circle class="fireworkPearl" r="4.380867874285303" cx="15.231128569941571" cy="16.603137694165458" style="fill: rgb(65, 182, 196);"></circle><circle class="fireworkPearl" r="4.380867874285303" cx="58.19241222863838" cy="27.844524099870892" style="fill: rgb(65, 182, 196);"></circle><circle class="fireworkPearl" r="4.380867874285303" cx="20.24728759242521" cy="50.64551792996963" style="fill: rgb(65, 182, 196);"></circle></g><text id="2" class="legendSampleValue" text-anchor="middle" transform="translate(55,8)" x="0" y="243.7506511873607" style="fill: black; font-size: 0.7rem;">1.1k</text><g class="" cupRadius="40" width="80" height="80" pearlRadius="5.476084842856627" pearlCount="20" transform="translate(15,263.7506511873607)"><path class="link" d="M40,40L25.425027674916183,16.263442207899466" style="stroke: rgb(65, 182, 196);"></path><path class="link" d="M40,40L41.515861316067344,70.52479907695337" style="stroke: rgb(65, 182, 196);"></path><path class="link" d="M40,40L59.06971921970406,21.602919171747843" style="stroke: rgb(65, 182, 196);"></path><path class="link" d="M40,40L14.560647825128665,39.29597609426523" style="stroke: rgb(65, 182, 196);"></path><path class="link" d="M40,40L60.57379429362364,57.39578067335398" style="stroke: rgb(65, 182, 196);"></path><path class="link" d="M40,40L38.294371914838926,13.863961990424544" style="stroke: rgb(65, 182, 196);"></path><path class="link" d="M40,40L22.60218609174795,61.65413222330635" style="stroke: rgb(65, 182, 196);"></path><path class="link" d="M40,40L67.36098029977207,33.53208733163045" style="stroke: rgb(65, 182, 196);"></path><path class="link" d="M40,40L18.951921637057474,27.288007262972428" style="stroke: rgb(65, 182, 196);"></path><path class="link" d="M40,40L47.961201594127296,59.48442910483396" style="stroke: rgb(65, 182, 196);"></path><path class="link" d="M40,40L46.457907812769925,23.70426514272581" style="stroke: rgb(65, 182, 196);"></path><path class="link" d="M40,40L23.00554487656268,48.88159911988176" style="stroke: rgb(65, 182, 196);"></path><path class="link" d="M40,40L61.00190939221505,44.61977057481227" style="stroke: rgb(65, 182, 196);"></path><path class="link" d="M40,40L33.86174656715077,25.874926758385403" style="stroke: rgb(65, 182, 196);"></path><path class="link" d="M40,40L35.182086312474915,59.4160892639974" style="stroke: rgb(65, 182, 196);"></path><path class="link" d="M40,40L54.565981633757694,33.57675316332617" style="stroke: rgb(65, 182, 196);"></path><path class="link" d="M40,40L27.399627412808663,36.89162472541311" style="stroke: rgb(65, 182, 196);"></path><path class="link" d="M40,40L48.38383587430125,46.71017179308868" style="stroke: rgb(65, 182, 196);"></path><path class="link" d="M40,40L41.978387885061274,35.69296183812537" style="stroke: rgb(65, 182, 196);"></path><path class="link" d="M40,40L35.589292985966054,46.69451643864023" style="stroke: rgb(65, 182, 196);"></path><circle class="fireworkPearl" r="0" cx="40" cy="40" style="fill: rgb(65, 182, 196);"></circle><circle class="fireworkPearl" r="4.380867874285302" cx="35.589292985966054" cy="46.69451643864023" style="fill: rgb(65, 182, 196);"></circle><circle class="fireworkPearl" r="4.380867874285302" cx="41.978387885061274" cy="35.69296183812537" style="fill: rgb(65, 182, 196);"></circle><circle class="fireworkPearl" r="4.380867874285302" cx="48.38383587430125" cy="46.71017179308868" style="fill: rgb(65, 182, 196);"></circle><circle class="fireworkPearl" r="4.380867874285302" cx="27.399627412808663" cy="36.89162472541311" style="fill: rgb(65, 182, 196);"></circle><circle class="fireworkPearl" r="4.380867874285302" cx="54.565981633757694" cy="33.57675316332617" style="fill: rgb(65, 182, 196);"></circle><circle class="fireworkPearl" r="4.380867874285302" cx="35.182086312474915" cy="59.4160892639974" style="fill: rgb(65, 182, 196);"></circle><circle class="fireworkPearl" r="4.380867874285302" cx="33.86174656715077" cy="25.874926758385403" style="fill: rgb(65, 182, 196);"></circle><circle class="fireworkPearl" r="4.380867874285302" cx="61.00190939221505" cy="44.61977057481227" style="fill: rgb(65, 182, 196);"></circle><circle class="fireworkPearl" r="4.380867874285302" cx="23.00554487656268" cy="48.88159911988176" style="fill: rgb(65, 182, 196);"></circle><circle class="fireworkPearl" r="4.380867874285302" cx="46.457907812769925" cy="23.70426514272581" style="fill: rgb(65, 182, 196);"></circle><circle class="fireworkPearl" r="4.380867874285302" cx="47.961201594127296" cy="59.48442910483396" style="fill: rgb(65, 182, 196);"></circle><circle class="fireworkPearl" r="4.380867874285302" cx="18.951921637057474" cy="27.288007262972428" style="fill: rgb(65, 182, 196);"></circle><circle class="fireworkPearl" r="4.380867874285302" cx="67.36098029977207" cy="33.53208733163045" style="fill: rgb(65, 182, 196);"></circle><circle class="fireworkPearl" r="4.380867874285302" cx="22.60218609174795" cy="61.65413222330635" style="fill: rgb(65, 182, 196);"></circle><circle class="fireworkPearl" r="4.380867874285302" cx="38.294371914838926" cy="13.863961990424544" style="fill: rgb(65, 182, 196);"></circle><circle class="fireworkPearl" r="4.380867874285302" cx="60.57379429362364" cy="57.39578067335398" style="fill: rgb(65, 182, 196);"></circle><circle class="fireworkPearl" r="4.380867874285302" cx="14.560647825128665" cy="39.29597609426523" style="fill: rgb(65, 182, 196);"></circle><circle class="fireworkPearl" r="4.380867874285302" cx="59.06971921970406" cy="21.602919171747843" style="fill: rgb(65, 182, 196);"></circle><circle class="fireworkPearl" r="4.380867874285302" cx="41.515861316067344" cy="70.52479907695337" style="fill: rgb(65, 182, 196);"></circle><circle class="fireworkPearl" r="4.380867874285302" cx="25.425027674916183" cy="16.263442207899466" style="fill: rgb(65, 182, 196);"></circle></g><text id="3" class="legendSampleValue" text-anchor="middle" transform="translate(55,8)" x="0" y="348.7506511873607" style="fill: black; font-size: 0.7rem;">1.5k</text><text id="coloringDisclaimer" transform="translate(55,8)" text-anchor="middle" x="0" y="363.7506511873607" style="font-size: 0.7rem; opacity: 0.6;">(note: coloring</text><text id="coloringDisclaimer" transform="translate(55,8)" text-anchor="middle" x="0" y="378.7506511873607" style="font-size: 0.7rem; opacity: 0.6;">is random)</text></g></svg>