<?xml version="1.0" standalone="no"?>
<?xml-stylesheet xmlns="http://www.w3.org/2000/svg" type="text/css" href="style.css"?>
<svg id="syntheticVisC" class="default" xTitle="Percent Cat Owners" yTitle="Percent Dog Owners" rTitle="Population" chartTitle="Towns in Vizzyland" width="500" height="400" xmlns="http://www.w3.org/2000/svg"><text id="chartTitle" text-anchor="middle" transform="translate(250,20)" x="0" y="0" style="fill: black; font-size: 1.2rem;">Towns in Vizzyland</text><g id="yAxis" transform="translate(50,30)" fill="none" font-size="10" font-family="sans-serif" text-anchor="end"><path class="domain" stroke="currentColor" d="M-6,280H0V40H-6"></path><g class="tick" opacity="1" transform="translate(0,280)"><line stroke="currentColor" x2="-6"></line><text fill="currentColor" x="-9" dy="0.32em">0</text></g><g class="tick" opacity="1" transform="translate(0,256)"><line stroke="currentColor" x2="-6"></line><text fill="currentColor" x="-9" dy="0.32em">10</text></g><g class="tick" opacity="1" transform="translate(0,232)"><line stroke="currentColor" x2="-6"></line><text fill="currentColor" x="-9" dy="0.32em">20</text></g><g class="tick" opacity="1" transform="translate(0,208)"><line stroke="currentColor" x2="-6"></line><text fill="currentColor" x="-9" dy="0.32em">30</text></g><g class="tick" opacity="1" transform="translate(0,184)"><line stroke="currentColor" x2="-6"></line><text fill="currentColor" x="-9" dy="0.32em">40</text></g><g class="tick" opacity="1" transform="translate(0,160)"><line stroke="currentColor" x2="-6"></line><text fill="currentColor" x="-9" dy="0.32em">50</text></g><g class="tick" opacity="1" transform="translate(0,136)"><line stroke="currentColor" x2="-6"></line><text fill="currentColor" x="-9" dy="0.32em">60</text></g><g class="tick" opacity="1" transform="translate(0,112.00000000000001)"><line stroke="currentColor" x2="-6"></line><text fill="currentColor" x="-9" dy="0.32em">70</text></g><g class="tick" opacity="1" transform="translate(0,87.99999999999999)"><line stroke="currentColor" x2="-6"></line><text fill="currentColor" x="-9" dy="0.32em">80</text></g><g class="tick" opacity="1" transform="translate(0,63.99999999999999)"><line stroke="currentColor" x2="-6"></line><text fill="currentColor" x="-9" dy="0.32em">90</text></g><g class="tick" opacity="1" transform="translate(0,40)"><line stroke="currentColor" x2="-6"></line><text fill="currentColor" x="-9" dy="0.32em">100</text></g></g><g id="xAxis" transform="translate(60,360)" fill="none" font-size="10" font-family="sans-serif" text-anchor="middle"><path class="domain" stroke="currentColor" d="M40,6V0H270V6"></path><g class="tick" opacity="1" transform="translate(40,0)"><line stroke="currentColor" y2="6"></line><text fill="currentColor" y="9" dy="0.71em">0</text></g><g class="tick" opacity="1" transform="translate(63,0)"><line stroke="currentColor" y2="6"></line><text fill="currentColor" y="9" dy="0.71em">10</text></g><g class="tick" opacity="1" transform="translate(86,0)"><line stroke="currentColor" y2="6"></line><text fill="currentColor" y="9" dy="0.71em">20</text></g><g class="tick" opacity="1" transform="translate(109,0)"><line stroke="currentColor" y2="6"></line><text fill="currentColor" y="9" dy="0.71em">30</text></g><g class="tick" opacity="1" transform="translate(132,0)"><line stroke="currentColor" y2="6"></line><text fill="currentColor" y="9" dy="0.71em">40</text></g><g class="tick" opacity="1" transform="translate(155,0)"><line stroke="currentColor" y2="6"></line><text fill="currentColor" y="9" dy="0.71em">50</text></g><g class="tick" opacity="1" transform="translate(178,0)"><line stroke="currentColor" y2="6"></line><text fill="currentColor" y="9" dy="0.71em">60</text></g><g class="tick" opacity="1" transform="translate(201,0)"><line stroke="currentColor" y2="6"></line><text fill="currentColor" y="9" dy="0.71em">70</text></g><g class="tick" opacity="1" transform="translate(224,0)"><line stroke="currentColor" y2="6"></line><text fill="currentColor" y="9" dy="0.71em">80</text></g><g class="tick" opacity="1" transform="translate(247,0)"><line stroke="currentColor" y2="6"></line><text fill="currentColor" y="9" dy="0.71em">90</text></g><g class="tick" opacity="1" transform="translate(270,0)"><line stroke="currentColor" y2="6"></line><text fill="currentColor" y="9" dy="0.71em">100</text></g></g><g id="labels"><text id="xTitle" text-anchor="middle" transform="translate(250,350)" x="0" y="40" style="fill: black; font-size: 0.8rem;">Percent Cat Owners</text><g id="group-yTitle" transform="translate(60,190)"><text id="yTitle" text-anchor="middle" transform="rotate(-90)" y="-45" style="fill: black; font-size: 0.8rem;">Percent Dog Owners</text></g></g><g id="quadrant_lines" transform="translate(60,30)"><line id="verticalQuadrantLine" x1="155" y1="20" x2="155" y2="300" class="quadrantLine"></line><line id="horizontalQuadrantLine" x1="20" y1="160" x2="290" y2="160" class="quadrantLine"></line></g><g id="fireworkChart" transform="translate(60,30)"><path class="link" d="M72.6195224690913,40L68.72362159138602,29.706391517099533" style="stroke: rgb(29, 145, 192);"></path><path class="link" d="M270,248.73467240087302L269.21606185027633,254.76488204257637" style="stroke: rgb(65, 182, 196);"></path><path class="link" d="M134.2961976454131,233.55408140311002L136.26316241644037,224.0811985894879" style="stroke: rgb(65, 182, 196);"></path><path class="link" d="M139.7307956848982,249.02717754034236L156.12475355198583,243.63255038948094" style="stroke: rgb(29, 145, 192);"></path><path class="link" d="M139.7307956848982,249.02717754034236L146.65201497768788,235.04411514175266" style="stroke: rgb(29, 145, 192);"></path><path class="link" d="M103.73035234090597,265.67772199879727L99.44682371621198,251.34053248965827" style="stroke: rgb(65, 182, 196);"></path><path class="link" d="M103.73035234090597,265.67772199879727L105.81570770192913,271.8315493581829" style="stroke: rgb(65, 182, 196);"></path><path class="link" d="M40,91.26033398986561L32.72157756650826,93.23530984738993" style="stroke: rgb(127, 205, 187);"></path><path class="link" d="M40,91.26033398986561L42.801186713529916,101.09957331776778" style="stroke: rgb(127, 205, 187);"></path><path class="link" d="M97.43736648844511,225.79799313561495L90.26679618949875,216.8636843917381" style="stroke: rgb(127, 205, 187);"></path><path class="link" d="M97.43736648844511,225.79799313561495L93.73706410900532,229.16845848511076" style="stroke: rgb(127, 205, 187);"></path><path class="link" d="M97.43736648844511,225.79799313561495L102.6770540903302,219.9967068309413" style="stroke: rgb(127, 205, 187);"></path><path class="link" d="M50.53608028656348,255.77442148022223L50.74305253784177,247.9427408551681" style="stroke: rgb(29, 145, 192);"></path><path class="link" d="M50.53608028656348,255.77442148022223L39.20300266178917,253.43677497413327" style="stroke: rgb(29, 145, 192);"></path><path class="link" d="M50.53608028656348,255.77442148022223L49.7340579267642,260.716209538133" style="stroke: rgb(29, 145, 192);"></path><path class="link" d="M148.55362308108786,245.6694987160976L165.68413083008812,252.1035994583095" style="stroke: rgb(65, 182, 196);"></path><path class="link" d="M148.55362308108786,245.6694987160976L168.2390704687236,239.5466095125922" style="stroke: rgb(65, 182, 196);"></path><path class="link" d="M148.55362308108786,245.6694987160976L158.75433585904415,231.02184456944218" style="stroke: rgb(65, 182, 196);"></path><path class="link" d="M125.32822917200961,280L136.25109716773895,286.5355507699084" style="stroke: rgb(29, 145, 192);"></path><path class="link" d="M125.32822917200961,280L111.42715138509116,292.43236251012934" style="stroke: rgb(29, 145, 192);"></path><path class="link" d="M125.32822917200961,280L127.55962386101783,277.1659617083846" style="stroke: rgb(29, 145, 192);"></path><path class="link" d="M125.32822917200961,280L115.28074122526922,280.31756793250577" style="stroke: rgb(29, 145, 192);"></path><path class="link" d="M125.32822917200961,280L123.92209552726334,289.5789795830405" style="stroke: rgb(29, 145, 192);"></path><path class="link" d="M125.32822917200961,280L148.09184833791252,282.0643608563838" style="stroke: rgb(29, 145, 192);"></path><path class="link" d="M125.32822917200961,280L132.64434867407178,298.7985587868735" style="stroke: rgb(29, 145, 192);"></path><path class="link" d="M125.32822917200961,280L120.17354432284478,301.7221271266947" style="stroke: rgb(29, 145, 192);"></path><path class="link" d="M264.24127915329393,246.27011981027854L260.0970610737319,263.7163094773623" style="stroke: rgb(127, 205, 187);"></path><path class="link" d="M264.24127915329393,246.27011981027854L256.87756542438086,251.30875496222745" style="stroke: rgb(127, 205, 187);"></path><path class="link" d="M264.24127915329393,246.27011981027854L275.0784825937145,233.46963725025253" style="stroke: rgb(127, 205, 187);"></path><path class="link" d="M264.24127915329393,246.27011981027854L265.99027785904417,242.3776790239521" style="stroke: rgb(127, 205, 187);"></path><path class="link" d="M264.24127915329393,246.27011981027854L281.42895418130877,258.2062495752264" style="stroke: rgb(127, 205, 187);"></path><path class="link" d="M264.24127915329393,246.27011981027854L278.3248731945267,245.81220642286982" style="stroke: rgb(127, 205, 187);"></path><path class="link" d="M264.24127915329393,246.27011981027854L262.7653639031194,230.03393676615403" style="stroke: rgb(127, 205, 187);"></path><path class="link" d="M264.24127915329393,246.27011981027854L244.64762361448055,247.97882339153037" style="stroke: rgb(127, 205, 187);"></path><path class="link" d="M264.24127915329393,246.27011981027854L253.67202058487246,238.94774911458248" style="stroke: rgb(127, 205, 187);"></path><path class="link" d="M47.32809407379892,65.47051721106206L26.541875846174023,75.43922406021953" style="stroke: rgb(65, 182, 196);"></path><path class="link" d="M47.32809407379892,65.47051721106206L48.15501474737636,71.11084469090746" style="stroke: rgb(65, 182, 196);"></path><path class="link" d="M47.32809407379892,65.47051721106206L24.004613109163838,62.91327731418897" style="stroke: rgb(65, 182, 196);"></path><path class="link" d="M47.32809407379892,65.47051721106206L33.56497625722288,54.4754650765583" style="stroke: rgb(65, 182, 196);"></path><path class="link" d="M47.32809407379892,65.47051721106206L36.13678152296278,67.00368116997916" style="stroke: rgb(65, 182, 196);"></path><path class="link" d="M47.32809407379892,65.47051721106206L38.60816190610173,79.61677422462057" style="stroke: rgb(65, 182, 196);"></path><path class="link" d="M47.32809407379892,65.47051721106206L45.67641712745303,58.548339692551146" style="stroke: rgb(65, 182, 196);"></path><path class="link" d="M47.32809407379892,65.47051721106206L43.09349635044399,46.04202759734744" style="stroke: rgb(65, 182, 196);"></path><path class="link" d="M47.32809407379892,65.47051721106206L50.71367070403828,83.62576533568016" style="stroke: rgb(65, 182, 196);"></path><path class="link" d="M63.28268164227343,62.71035770834142L81.84081796887007,70.7682618630181" style="stroke: rgb(127, 205, 187);"></path><path class="link" d="M63.28268164227343,62.71035770834142L60.24026632000056,75.10747229928623" style="stroke: rgb(127, 205, 187);"></path><path class="link" d="M63.28268164227343,62.71035770834142L79.1642210978911,58.28547019877932" style="stroke: rgb(127, 205, 187);"></path><path class="link" d="M63.28268164227343,62.71035770834142L62.83740421961388,87.6259524558081" style="stroke: rgb(127, 205, 187);"></path><path class="link" d="M63.28268164227343,62.71035770834142L69.66682882198886,66.74760848846057" style="stroke: rgb(127, 205, 187);"></path><path class="link" d="M63.28268164227343,62.71035770834142L72.39564325998776,79.24680687639189" style="stroke: rgb(127, 205, 187);"></path><path class="link" d="M63.28268164227343,62.71035770834142L57.653276230942446,62.62005260136715" style="stroke: rgb(127, 205, 187);"></path><path class="link" d="M63.28268164227343,62.71035770834142L67.08034271176042,54.20411586430138" style="stroke: rgb(127, 205, 187);"></path><path class="link" d="M63.28268164227343,62.71035770834142L76.54799070800448,45.826855602661155" style="stroke: rgb(127, 205, 187);"></path><path class="link" d="M63.28268164227343,62.71035770834142L64.41833220346555,41.74482032361204" style="stroke: rgb(127, 205, 187);"></path><path class="link" d="M63.28268164227343,62.71035770834142L55.040343049384,50.17662631981245" style="stroke: rgb(127, 205, 187);"></path><path class="link" d="M82.48945872101532,268.9338336585536L81.2985264470845,265.75929790967285" style="stroke: rgb(127, 205, 187);"></path><path class="link" d="M82.48945872101532,268.9338336585536L60.17595430425946,271.63954843776844" style="stroke: rgb(127, 205, 187);"></path><path class="link" d="M82.48945872101532,268.9338336585536L75.96314540690392,287.10481650560223" style="stroke: rgb(127, 205, 187);"></path><path class="link" d="M82.48945872101532,268.9338336585536L97.01943275039906,281.0677484815027" style="stroke: rgb(127, 205, 187);"></path><path class="link" d="M82.48945872101532,268.9338336585536L69.01035012178045,262.51442287812466" style="stroke: rgb(127, 205, 187);"></path><path class="link" d="M82.48945872101532,268.9338336585536L63.597005956890484,283.9101173786873" style="stroke: rgb(127, 205, 187);"></path><path class="link" d="M82.48945872101532,268.9338336585536L72.51977448421192,274.90376084015816" style="stroke: rgb(127, 205, 187);"></path><path class="link" d="M82.48945872101532,268.9338336585536L62.92558897374319,251.50415129117812" style="stroke: rgb(127, 205, 187);"></path><path class="link" d="M82.48945872101532,268.9338336585536L84.83782375534246,277.9801418223006" style="stroke: rgb(127, 205, 187);"></path><path class="link" d="M82.48945872101532,268.9338336585536L75.71051033158264,251.5800497673492" style="stroke: rgb(127, 205, 187);"></path><path class="link" d="M82.48945872101532,268.9338336585536L87.66206128412449,255.2225050595233" style="stroke: rgb(127, 205, 187);"></path><path class="link" d="M82.48945872101532,268.9338336585536L93.60367381492522,268.566089452533" style="stroke: rgb(127, 205, 187);"></path><path class="link" d="M82.48945872101532,268.9338336585536L88.26063420498681,290.28537659990485" style="stroke: rgb(127, 205, 187);"></path><path class="link" d="M128.39959939711989,254.51896319608576L141.7682779037566,260.16157710970305" style="stroke: rgb(127, 205, 187);"></path><path class="link" d="M128.39959939711989,254.51896319608576L118.21506250149741,268.0344433322148" style="stroke: rgb(127, 205, 187);"></path><path class="link" d="M128.39959939711989,254.51896319608576L153.76122862154006,256.1280318480629" style="stroke: rgb(127, 205, 187);"></path><path class="link" d="M128.39959939711989,254.51896319608576L134.6758156562673,239.13666841670684" style="stroke: rgb(127, 205, 187);"></path><path class="link" d="M128.39959939711989,254.51896319608576L120.71004762882136,255.6374920138494" style="stroke: rgb(127, 205, 187);"></path><path class="link" d="M128.39959939711989,254.51896319608576L139.4702297457617,272.6256897963139" style="stroke: rgb(127, 205, 187);"></path><path class="link" d="M128.39959939711989,254.51896319608576L144.11276738946614,247.6599397877506" style="stroke: rgb(127, 205, 187);"></path><path class="link" d="M128.39959939711989,254.51896319608576L108.65809582472313,259.61098670668156" style="stroke: rgb(127, 205, 187);"></path><path class="link" d="M128.39959939711989,254.51896319608576L111.24451670853884,247.05900187331167" style="stroke: rgb(127, 205, 187);"></path><path class="link" d="M128.39959939711989,254.51896319608576L125.28544950817944,230.66875128300876" style="stroke: rgb(127, 205, 187);"></path><path class="link" d="M128.39959939711989,254.51896319608576L130.03058674828728,264.11438233574705" style="stroke: rgb(127, 205, 187);"></path><path class="link" d="M128.39959939711989,254.51896319608576L122.9596064818566,243.1961640158876" style="stroke: rgb(127, 205, 187);"></path><path class="link" d="M128.39959939711989,254.51896319608576L113.25714749884365,234.64727709890795" style="stroke: rgb(127, 205, 187);"></path><path class="link" d="M128.39959939711989,254.51896319608576L132.38993377076304,251.64030765992197" style="stroke: rgb(127, 205, 187);"></path><path class="link" d="M109.19279902619449,42.034471744356146L115.5992069852977,46.46340560716129" style="stroke: rgb(127, 205, 187);"></path><path class="link" d="M109.19279902619449,42.034471744356146L123.42360492542994,64.91250971802786" style="stroke: rgb(127, 205, 187);"></path><path class="link" d="M109.19279902619449,42.034471744356146L104.7110083520832,26.30043915832561" style="stroke: rgb(127, 205, 187);"></path><path class="link" d="M109.19279902619449,42.034471744356146L136.9811050813086,45.270184228196676" style="stroke: rgb(127, 205, 187);"></path><path class="link" d="M109.19279902619449,42.034471744356146L114.10642490354499,17.703439777769482" style="stroke: rgb(127, 205, 187);"></path><path class="link" d="M109.19279902619449,42.034471744356146L126.68829647757511,52.65120475075257" style="stroke: rgb(127, 205, 187);"></path><path class="link" d="M109.19279902619449,42.034471744356146L94.53579586683658,40.22752031005718" style="stroke: rgb(127, 205, 187);"></path><path class="link" d="M109.19279902619449,42.034471744356146L102.94823651844258,50.11159425196955" style="stroke: rgb(127, 205, 187);"></path><path class="link" d="M109.19279902619449,42.034471744356146L110.7675916268903,70.86825683915212" style="stroke: rgb(127, 205, 187);"></path><path class="link" d="M109.19279902619449,42.034471744356146L100.52438435254726,62.64955718216212" style="stroke: rgb(127, 205, 187);"></path><path class="link" d="M109.19279902619449,42.034471744356146L90.32007797234961,52.31173551950923" style="stroke: rgb(127, 205, 187);"></path><path class="link" d="M109.19279902619449,42.034471744356146L125.9275575823128,39.00344000499797" style="stroke: rgb(127, 205, 187);"></path><path class="link" d="M109.19279902619449,42.034471744356146L98.4003875396414,15.200223658757732" style="stroke: rgb(127, 205, 187);"></path><path class="link" d="M109.19279902619449,42.034471744356146L112.52649752517242,58.48578705461112" style="stroke: rgb(127, 205, 187);"></path><path class="link" d="M109.19279902619449,42.034471744356146L82.9196001587652,35.004918306124935" style="stroke: rgb(127, 205, 187);"></path><path class="link" d="M109.19279902619449,42.034471744356146L135.29024690351886,30.599242241141578" style="stroke: rgb(127, 205, 187);"></path><path class="link" d="M109.19279902619449,42.034471744356146L92.09652764727255,26.38070491943328" style="stroke: rgb(127, 205, 187);"></path><path class="link" d="M109.19279902619449,42.034471744356146L106.83516328010562,38.152370283095614" style="stroke: rgb(127, 205, 187);"></path><path class="link" d="M109.19279902619449,42.034471744356146L116.77323370729474,30.314365759633763" style="stroke: rgb(127, 205, 187);"></path><path class="link" d="M109.19279902619449,42.034471744356146L126.11617339414747,21.796468748648408" style="stroke: rgb(127, 205, 187);"></path><circle class="fireworkPearl" r="0" cx="109.19279902619449" cy="42.034471744356146" style="fill: rgb(127, 205, 187);"></circle><circle class="fireworkPearl" r="4.380867874285302" cx="126.11617339414747" cy="21.796468748648408" style="fill: rgb(127, 205, 187);"></circle><circle class="fireworkPearl" r="4.380867874285302" cx="116.77323370729474" cy="30.314365759633763" style="fill: rgb(127, 205, 187);"></circle><circle class="fireworkPearl" r="4.380867874285302" cx="106.83516328010562" cy="38.152370283095614" style="fill: rgb(127, 205, 187);"></circle><circle class="fireworkPearl" r="4.380867874285302" cx="92.09652764727255" cy="26.38070491943328" style="fill: rgb(127, 205, 187);"></circle><circle class="fireworkPearl" r="4.380867874285302" cx="135.29024690351886" cy="30.599242241141578" style="fill: rgb(127, 205, 187);"></circle><circle class="fireworkPearl" r="4.380867874285302" cx="82.9196001587652" cy="35.004918306124935" style="fill: rgb(127, 205, 187);"></circle><circle class="fireworkPearl" r="4.380867874285302" cx="112.52649752517242" cy="58.48578705461112" style="fill: rgb(127, 205, 187);"></circle><circle class="fireworkPearl" r="4.380867874285302" cx="98.4003875396414" cy="15.200223658757732" style="fill: rgb(127, 205, 187);"></circle><circle class="fireworkPearl" r="4.380867874285302" cx="125.9275575823128" cy="39.00344000499797" style="fill: rgb(127, 205, 187);"></circle><circle class="fireworkPearl" r="4.380867874285302" cx="90.32007797234961" cy="52.31173551950923" style="fill: rgb(127, 205, 187);"></circle><circle class="fireworkPearl" r="4.380867874285302" cx="100.52438435254726" cy="62.64955718216212" style="fill: rgb(127, 205, 187);"></circle><circle class="fireworkPearl" r="4.380867874285302" cx="110.7675916268903" cy="70.86825683915212" style="fill: rgb(127, 205, 187);"></circle><circle class="fireworkPearl" r="4.380867874285302" cx="102.94823651844258" cy="50.11159425196955" style="fill: rgb(127, 205, 187);"></circle><circle class="fireworkPearl" r="4.380867874285302" cx="94.53579586683658" cy="40.22752031005718" style="fill: rgb(127, 205, 187);"></circle><circle class="fireworkPearl" r="4.380867874285302" cx="126.68829647757511" cy="52.65120475075257" style="fill: rgb(127, 205, 187);"></circle><circle class="fireworkPearl" r="4.380867874285302" cx="114.10642490354499" cy="17.703439777769482" style="fill: rgb(127, 205, 187);"></circle><circle class="fireworkPearl" r="4.380867874285302" cx="136.9811050813086" cy="45.270184228196676" style="fill: rgb(127, 205, 187);"></circle><circle class="fireworkPearl" r="4.380867874285302" cx="104.7110083520832" cy="26.30043915832561" style="fill: rgb(127, 205, 187);"></circle><circle class="fireworkPearl" r="4.380867874285302" cx="123.42360492542994" cy="64.91250971802786" style="fill: rgb(127, 205, 187);"></circle><circle class="fireworkPearl" r="4.380867874285302" cx="115.5992069852977" cy="46.46340560716129" style="fill: rgb(127, 205, 187);"></circle><circle class="fireworkPearl" r="0" cx="128.39959939711989" cy="254.51896319608576" style="fill: rgb(127, 205, 187);"></circle><circle class="fireworkPearl" r="4.380867874285301" cx="132.38993377076304" cy="251.64030765992197" style="fill: rgb(127, 205, 187);"></circle><circle class="fireworkPearl" r="4.380867874285301" cx="113.25714749884365" cy="234.64727709890795" style="fill: rgb(127, 205, 187);"></circle><circle class="fireworkPearl" r="4.380867874285301" cx="122.9596064818566" cy="243.1961640158876" style="fill: rgb(127, 205, 187);"></circle><circle class="fireworkPearl" r="4.380867874285301" cx="130.03058674828728" cy="264.11438233574705" style="fill: rgb(127, 205, 187);"></circle><circle class="fireworkPearl" r="4.380867874285301" cx="125.28544950817944" cy="230.66875128300876" style="fill: rgb(127, 205, 187);"></circle><circle class="fireworkPearl" r="4.380867874285301" cx="111.24451670853884" cy="247.05900187331167" style="fill: rgb(127, 205, 187);"></circle><circle class="fireworkPearl" r="4.380867874285301" cx="108.65809582472313" cy="259.61098670668156" style="fill: rgb(127, 205, 187);"></circle><circle class="fireworkPearl" r="4.380867874285301" cx="144.11276738946614" cy="247.6599397877506" style="fill: rgb(127, 205, 187);"></circle><circle class="fireworkPearl" r="4.380867874285301" cx="139.4702297457617" cy="272.6256897963139" style="fill: rgb(127, 205, 187);"></circle><circle class="fireworkPearl" r="4.380867874285301" cx="120.71004762882136" cy="255.6374920138494" style="fill: rgb(127, 205, 187);"></circle><circle class="fireworkPearl" r="4.380867874285301" cx="134.6758156562673" cy="239.13666841670684" style="fill: rgb(127, 205, 187);"></circle><circle class="fireworkPearl" r="4.380867874285301" cx="153.76122862154006" cy="256.1280318480629" style="fill: rgb(127, 205, 187);"></circle><circle class="fireworkPearl" r="4.380867874285301" cx="118.21506250149741" cy="268.0344433322148" style="fill: rgb(127, 205, 187);"></circle><circle class="fireworkPearl" r="4.380867874285301" cx="141.7682779037566" cy="260.16157710970305" style="fill: rgb(127, 205, 187);"></circle><circle class="fireworkPearl" r="0" cx="82.48945872101532" cy="268.9338336585536" style="fill: rgb(127, 205, 187);"></circle><circle class="fireworkPearl" r="4.380867874285302" cx="88.26063420498681" cy="290.28537659990485" style="fill: rgb(127, 205, 187);"></circle><circle class="fireworkPearl" r="4.380867874285302" cx="93.60367381492522" cy="268.566089452533" style="fill: rgb(127, 205, 187);"></circle><circle class="fireworkPearl" r="4.380867874285302" cx="87.66206128412449" cy="255.2225050595233" style="fill: rgb(127, 205, 187);"></circle><circle class="fireworkPearl" r="4.380867874285302" cx="75.71051033158264" cy="251.5800497673492" style="fill: rgb(127, 205, 187);"></circle><circle class="fireworkPearl" r="4.380867874285302" cx="84.83782375534246" cy="277.9801418223006" style="fill: rgb(127, 205, 187);"></circle><circle class="fireworkPearl" r="4.380867874285302" cx="62.92558897374319" cy="251.50415129117812" style="fill: rgb(127, 205, 187);"></circle><circle class="fireworkPearl" r="4.380867874285302" cx="72.51977448421192" cy="274.90376084015816" style="fill: rgb(127, 205, 187);"></circle><circle class="fireworkPearl" r="4.380867874285302" cx="63.597005956890484" cy="283.9101173786873" style="fill: rgb(127, 205, 187);"></circle><circle class="fireworkPearl" r="4.380867874285302" cx="69.01035012178045" cy="262.51442287812466" style="fill: rgb(127, 205, 187);"></circle><circle class="fireworkPearl" r="4.380867874285302" cx="97.01943275039906" cy="281.0677484815027" style="fill: rgb(127, 205, 187);"></circle><circle class="fireworkPearl" r="4.380867874285302" cx="75.96314540690392" cy="287.10481650560223" style="fill: rgb(127, 205, 187);"></circle><circle class="fireworkPearl" r="4.380867874285302" cx="60.17595430425946" cy="271.63954843776844" style="fill: rgb(127, 205, 187);"></circle><circle class="fireworkPearl" r="4.380867874285302" cx="81.2985264470845" cy="265.75929790967285" style="fill: rgb(127, 205, 187);"></circle><circle class="fireworkPearl" r="0" cx="63.28268164227343" cy="62.71035770834142" style="fill: rgb(127, 205, 187);"></circle><circle class="fireworkPearl" r="4.380867874285303" cx="55.040343049384" cy="50.17662631981245" style="fill: rgb(127, 205, 187);"></circle><circle class="fireworkPearl" r="4.380867874285303" cx="64.41833220346555" cy="41.74482032361204" style="fill: rgb(127, 205, 187);"></circle><circle class="fireworkPearl" r="4.380867874285303" cx="76.54799070800448" cy="45.826855602661155" style="fill: rgb(127, 205, 187);"></circle><circle class="fireworkPearl" r="4.380867874285303" cx="67.08034271176042" cy="54.20411586430138" style="fill: rgb(127, 205, 187);"></circle><circle class="fireworkPearl" r="4.380867874285303" cx="57.653276230942446" cy="62.62005260136715" style="fill: rgb(127, 205, 187);"></circle><circle class="fireworkPearl" r="4.380867874285303" cx="72.39564325998776" cy="79.24680687639189" style="fill: rgb(127, 205, 187);"></circle><circle class="fireworkPearl" r="4.380867874285303" cx="69.66682882198886" cy="66.74760848846057" style="fill: rgb(127, 205, 187);"></circle><circle class="fireworkPearl" r="4.380867874285303" cx="62.83740421961388" cy="87.6259524558081" style="fill: rgb(127, 205, 187);"></circle><circle class="fireworkPearl" r="4.380867874285303" cx="79.1642210978911" cy="58.28547019877932" style="fill: rgb(127, 205, 187);"></circle><circle class="fireworkPearl" r="4.380867874285303" cx="60.24026632000056" cy="75.10747229928623" style="fill: rgb(127, 205, 187);"></circle><circle class="fireworkPearl" r="4.380867874285303" cx="81.84081796887007" cy="70.7682618630181" style="fill: rgb(127, 205, 187);"></circle><circle class="fireworkPearl" r="0" cx="47.32809407379892" cy="65.47051721106206" style="fill: rgb(65, 182, 196);"></circle><circle class="fireworkPearl" r="4.380867874285302" cx="50.71367070403828" cy="83.62576533568016" style="fill: rgb(65, 182, 196);"></circle><circle class="fireworkPearl" r="4.380867874285302" cx="43.09349635044399" cy="46.04202759734744" style="fill: rgb(65, 182, 196);"></circle><circle class="fireworkPearl" r="4.380867874285302" cx="45.67641712745303" cy="58.548339692551146" style="fill: rgb(65, 182, 196);"></circle><circle class="fireworkPearl" r="4.380867874285302" cx="38.60816190610173" cy="79.61677422462057" style="fill: rgb(65, 182, 196);"></circle><circle class="fireworkPearl" r="4.380867874285302" cx="36.13678152296278" cy="67.00368116997916" style="fill: rgb(65, 182, 196);"></circle><circle class="fireworkPearl" r="4.380867874285302" cx="33.56497625722288" cy="54.4754650765583" style="fill: rgb(65, 182, 196);"></circle><circle class="fireworkPearl" r="4.380867874285302" cx="24.004613109163838" cy="62.91327731418897" style="fill: rgb(65, 182, 196);"></circle><circle class="fireworkPearl" r="4.380867874285302" cx="48.15501474737636" cy="71.11084469090746" style="fill: rgb(65, 182, 196);"></circle><circle class="fireworkPearl" r="4.380867874285302" cx="26.541875846174023" cy="75.43922406021953" style="fill: rgb(65, 182, 196);"></circle><circle class="fireworkPearl" r="0" cx="264.24127915329393" cy="246.27011981027854" style="fill: rgb(127, 205, 187);"></circle><circle class="fireworkPearl" r="4.380867874285302" cx="253.67202058487246" cy="238.94774911458248" style="fill: rgb(127, 205, 187);"></circle><circle class="fireworkPearl" r="4.380867874285302" cx="244.64762361448055" cy="247.97882339153037" style="fill: rgb(127, 205, 187);"></circle><circle class="fireworkPearl" r="4.380867874285302" cx="262.7653639031194" cy="230.03393676615403" style="fill: rgb(127, 205, 187);"></circle><circle class="fireworkPearl" r="4.380867874285302" cx="278.3248731945267" cy="245.81220642286982" style="fill: rgb(127, 205, 187);"></circle><circle class="fireworkPearl" r="4.380867874285302" cx="281.42895418130877" cy="258.2062495752264" style="fill: rgb(127, 205, 187);"></circle><circle class="fireworkPearl" r="4.380867874285302" cx="265.99027785904417" cy="242.3776790239521" style="fill: rgb(127, 205, 187);"></circle><circle class="fireworkPearl" r="4.380867874285302" cx="275.0784825937145" cy="233.46963725025253" style="fill: rgb(127, 205, 187);"></circle><circle class="fireworkPearl" r="4.380867874285302" cx="256.87756542438086" cy="251.30875496222745" style="fill: rgb(127, 205, 187);"></circle><circle class="fireworkPearl" r="4.380867874285302" cx="260.0970610737319" cy="263.7163094773623" style="fill: rgb(127, 205, 187);"></circle><circle class="fireworkPearl" r="0" cx="125.32822917200961" cy="280" style="fill: rgb(29, 145, 192);"></circle><circle class="fireworkPearl" r="4.380867874285302" cx="120.17354432284478" cy="301.7221271266947" style="fill: rgb(29, 145, 192);"></circle><circle class="fireworkPearl" r="4.380867874285302" cx="132.64434867407178" cy="298.7985587868735" style="fill: rgb(29, 145, 192);"></circle><circle class="fireworkPearl" r="4.380867874285302" cx="148.09184833791252" cy="282.0643608563838" style="fill: rgb(29, 145, 192);"></circle><circle class="fireworkPearl" r="4.380867874285302" cx="123.92209552726334" cy="289.5789795830405" style="fill: rgb(29, 145, 192);"></circle><circle class="fireworkPearl" r="4.380867874285302" cx="115.28074122526922" cy="280.31756793250577" style="fill: rgb(29, 145, 192);"></circle><circle class="fireworkPearl" r="4.380867874285302" cx="127.55962386101783" cy="277.1659617083846" style="fill: rgb(29, 145, 192);"></circle><circle class="fireworkPearl" r="4.380867874285302" cx="111.42715138509116" cy="292.43236251012934" style="fill: rgb(29, 145, 192);"></circle><circle class="fireworkPearl" r="4.380867874285302" cx="136.25109716773895" cy="286.5355507699084" style="fill: rgb(29, 145, 192);"></circle><circle class="fireworkPearl" r="0" cx="148.55362308108786" cy="245.6694987160976" style="fill: rgb(65, 182, 196);"></circle><circle class="fireworkPearl" r="4.380867874285303" cx="158.75433585904415" cy="231.02184456944218" style="fill: rgb(65, 182, 196);"></circle><circle class="fireworkPearl" r="4.380867874285303" cx="168.2390704687236" cy="239.5466095125922" style="fill: rgb(65, 182, 196);"></circle><circle class="fireworkPearl" r="4.380867874285303" cx="165.68413083008812" cy="252.1035994583095" style="fill: rgb(65, 182, 196);"></circle><circle class="fireworkPearl" r="0" cx="50.53608028656348" cy="255.77442148022223" style="fill: rgb(29, 145, 192);"></circle><circle class="fireworkPearl" r="4.380867874285303" cx="49.7340579267642" cy="260.716209538133" style="fill: rgb(29, 145, 192);"></circle><circle class="fireworkPearl" r="4.380867874285303" cx="39.20300266178917" cy="253.43677497413327" style="fill: rgb(29, 145, 192);"></circle><circle class="fireworkPearl" r="4.380867874285303" cx="50.74305253784177" cy="247.9427408551681" style="fill: rgb(29, 145, 192);"></circle><circle class="fireworkPearl" r="0" cx="97.43736648844511" cy="225.79799313561495" style="fill: rgb(127, 205, 187);"></circle><circle class="fireworkPearl" r="4.380867874285303" cx="102.6770540903302" cy="219.9967068309413" style="fill: rgb(127, 205, 187);"></circle><circle class="fireworkPearl" r="4.380867874285303" cx="93.73706410900532" cy="229.16845848511076" style="fill: rgb(127, 205, 187);"></circle><circle class="fireworkPearl" r="4.380867874285303" cx="90.26679618949875" cy="216.8636843917381" style="fill: rgb(127, 205, 187);"></circle><circle class="fireworkPearl" r="0" cx="40" cy="91.26033398986561" style="fill: rgb(127, 205, 187);"></circle><circle class="fireworkPearl" r="4.380867874285302" cx="42.801186713529916" cy="101.09957331776778" style="fill: rgb(127, 205, 187);"></circle><circle class="fireworkPearl" r="4.380867874285302" cx="32.72157756650826" cy="93.23530984738993" style="fill: rgb(127, 205, 187);"></circle><circle class="fireworkPearl" r="0" cx="103.73035234090597" cy="265.67772199879727" style="fill: rgb(65, 182, 196);"></circle><circle class="fireworkPearl" r="4.380867874285302" cx="105.81570770192913" cy="271.8315493581829" style="fill: rgb(65, 182, 196);"></circle><circle class="fireworkPearl" r="4.380867874285302" cx="99.44682371621198" cy="251.34053248965827" style="fill: rgb(65, 182, 196);"></circle><circle class="fireworkPearl" r="0" cx="139.7307956848982" cy="249.02717754034236" style="fill: rgb(29, 145, 192);"></circle><circle class="fireworkPearl" r="4.380867874285302" cx="146.65201497768788" cy="235.04411514175266" style="fill: rgb(29, 145, 192);"></circle><circle class="fireworkPearl" r="4.380867874285302" cx="156.12475355198583" cy="243.63255038948094" style="fill: rgb(29, 145, 192);"></circle><circle class="fireworkPearl" r="0" cx="134.2961976454131" cy="233.55408140311002" style="fill: rgb(65, 182, 196);"></circle><circle class="fireworkPearl" r="4.380867874285302" cx="136.26316241644037" cy="224.0811985894879" style="fill: rgb(65, 182, 196);"></circle><circle class="fireworkPearl" r="0" cx="270" cy="248.73467240087302" style="fill: rgb(65, 182, 196);"></circle><circle class="fireworkPearl" r="4.380867874285302" cx="269.21606185027633" cy="254.76488204257637" style="fill: rgb(65, 182, 196);"></circle><circle class="fractional-fireworkPearl" r="0" cx="72.6195224690913" cy="40" style="stroke: rgb(29, 145, 192);"></circle><circle class="fractional-fireworkPearl" r="4.380867874285302" cx="68.72362159138602" cy="29.706391517099533" style="stroke: rgb(29, 145, 192);"></circle></g><g id="legendDividerGroup" transform="translate(390,0)" height="400"><rect class="legendDivider" height="400" width="110"></rect></g><g id="fireworkLegend" transform="translate(390,21.693301581008086)" width="110" height="320"><rect class="legendBorder" transform="translate(0,0)" width="110" height="336.6133968379838"></rect><text id="rTitle" text-anchor="middle" alignment-baseline="hanging" transform="translate(55,0)" x="0" y="0" style="fill: black; font-size: 0.8rem;">Population</text><text id="bobaValue" text-anchor="middle" alignment-baseline="hanging" transform="translate(55,15)" x="0" y="0" style="fill: black; font-size: 0.7rem;">(1 Pearl =   75)</text><g class="" cupRadius="8.94427190999916" width="17.88854381999832" height="17.88854381999832" pearlRadius="5.476084842856627" pearlCount="1" transform="translate(46.05572809000084,33.7450114970673)"><path class="link" d="M8.94427190999916,8.94427190999916L8.738076112960377,9.158560713375284" style="stroke: rgb(65, 182, 196);"></path><circle class="fractional-fireworkPearl" r="0" cx="8.94427190999916" cy="8.94427190999916" style="stroke: rgb(65, 182, 196);"></circle><circle class="fractional-fireworkPearl" r="4.380867874285302" cx="8.738076112960377" cy="9.158560713375284" style="stroke: rgb(65, 182, 196);"></circle></g><text id="0" class="legendSampleValue" text-anchor="middle" transform="translate(55,8)" x="0" y="50.378566814132924" style="fill: black; font-size: 0.7rem;">&lt;   75</text><g class="" cupRadius="23.08344870926267" width="46.16689741852534" height="46.16689741852534" pearlRadius="5.476084842856627" pearlCount="6" transform="translate(31.91655129073733,70.37856681413292)"><path class="link" d="M23.08344870926267,23.08344870926267L19.43018189946579,36.26269054760732" style="stroke: rgb(65, 182, 196);"></path><path class="link" d="M23.08344870926267,23.08344870926267L33.09981954182595,17.697844037619042" style="stroke: rgb(65, 182, 196);"></path><path class="link" d="M23.08344870926267,23.08344870926267L9.763607009243664,19.42113692986323" style="stroke: rgb(65, 182, 196);"></path><path class="link" d="M23.08344870926267,23.08344870926267L32.518166884647165,30.688217520747482" style="stroke: rgb(65, 182, 196);"></path><path class="link" d="M23.08344870926267,23.08344870926267L22.026505152444365,10.91735328073341" style="stroke: rgb(65, 182, 196);"></path><path class="link" d="M23.08344870926267,23.08344870926267L21.810066288756158,23.70147214774395" style="stroke: rgb(65, 182, 196);"></path><circle class="fireworkPearl" r="0" cx="23.08344870926267" cy="23.08344870926267" style="fill: rgb(65, 182, 196);"></circle><circle class="fireworkPearl" r="4.380867874285302" cx="21.810066288756158" cy="23.70147214774395" style="fill: rgb(65, 182, 196);"></circle><circle class="fireworkPearl" r="4.380867874285302" cx="22.026505152444365" cy="10.91735328073341" style="fill: rgb(65, 182, 196);"></circle><circle class="fireworkPearl" r="4.380867874285302" cx="32.518166884647165" cy="30.688217520747482" style="fill: rgb(65, 182, 196);"></circle><circle class="fireworkPearl" r="4.380867874285302" cx="9.763607009243664" cy="19.42113692986323" style="fill: rgb(65, 182, 196);"></circle><circle class="fireworkPearl" r="4.380867874285302" cx="33.09981954182595" cy="17.697844037619042" style="fill: rgb(65, 182, 196);"></circle><circle class="fireworkPearl" r="4.380867874285302" cx="19.43018189946579" cy="36.26269054760732" style="fill: rgb(65, 182, 196);"></circle></g><text id="1" class="legendSampleValue" text-anchor="middle" transform="translate(55,8)" x="0" y="121.54546423265826" style="fill: black; font-size: 0.7rem;"> 500</text><g class="" cupRadius="32.53396630266279" width="65.06793260532558" height="65.06793260532558" pearlRadius="5.476084842856627" pearlCount="13" transform="translate(22.46603369733721,141.54546423265828)"><path class="link" d="M32.53396630266279,32.53396630266279L52.69728147028594,30.953776251898642" style="stroke: rgb(65, 182, 196);"></path><path class="link" d="M32.53396630266279,32.53396630266279L14.067384555500421,19.618300614176288" style="stroke: rgb(65, 182, 196);"></path><path class="link" d="M32.53396630266279,32.53396630266279L38.494074431812436,48.383689654406396" style="stroke: rgb(65, 182, 196);"></path><path class="link" d="M32.53396630266279,32.53396630266279L38.19273977268677,11.150266790021288" style="stroke: rgb(65, 182, 196);"></path><path class="link" d="M32.53396630266279,32.53396630266279L16.065699407130733,44.186136064543355" style="stroke: rgb(65, 182, 196);"></path><path class="link" d="M32.53396630266279,32.53396630266279L50.32409383639863,43.52174608886203" style="stroke: rgb(65, 182, 196);"></path><path class="link" d="M32.53396630266279,32.53396630266279L26.127600949550164,15.377147415264284" style="stroke: rgb(65, 182, 196);"></path><path class="link" d="M32.53396630266279,32.53396630266279L26.42897869772986,52.62355499530672" style="stroke: rgb(65, 182, 196);"></path><path class="link" d="M32.53396630266279,32.53396630266279L42.57202067711413,23.157834146951533" style="stroke: rgb(65, 182, 196);"></path><path class="link" d="M32.53396630266279,32.53396630266279L18.442242172107164,31.628558605310683" style="stroke: rgb(65, 182, 196);"></path><path class="link" d="M32.53396630266279,32.53396630266279L40.196612653427984,35.711098614977104" style="stroke: rgb(65, 182, 196);"></path><path class="link" d="M32.53396630266279,32.53396630266279L30.501377657018264,27.3896089767346" style="stroke: rgb(65, 182, 196);"></path><path class="link" d="M32.53396630266279,32.53396630266279L28.139780505919532,39.95575171994896" style="stroke: rgb(65, 182, 196);"></path><circle class="fireworkPearl" r="0" cx="32.53396630266279" cy="32.53396630266279" style="fill: rgb(65, 182, 196);"></circle><circle class="fireworkPearl" r="4.380867874285302" cx="28.139780505919532" cy="39.95575171994896" style="fill: rgb(65, 182, 196);"></circle><circle class="fireworkPearl" r="4.380867874285302" cx="30.501377657018264" cy="27.3896089767346" style="fill: rgb(65, 182, 196);"></circle><circle class="fireworkPearl" r="4.380867874285302" cx="40.196612653427984" cy="35.711098614977104" style="fill: rgb(65, 182, 196);"></circle><circle class="fireworkPearl" r="4.380867874285302" cx="18.442242172107164" cy="31.628558605310683" style="fill: rgb(65, 182, 196);"></circle><circle class="fireworkPearl" r="4.380867874285302" cx="42.57202067711413" cy="23.157834146951533" style="fill: rgb(65, 182, 196);"></circle><circle class="fireworkPearl" r="4.380867874285302" cx="26.42897869772986" cy="52.62355499530672" style="fill: rgb(65, 182, 196);"></circle><circle class="fireworkPearl" r="4.380867874285302" cx="26.127600949550164" cy="15.377147415264284" style="fill: rgb(65, 182, 196);"></circle><circle class="fireworkPearl" r="4.380867874285302" cx="50.32409383639863" cy="43.52174608886203" style="fill: rgb(65, 182, 196);"></circle><circle class="fireworkPearl" r="4.380867874285302" cx="16.065699407130733" cy="44.186136064543355" style="fill: rgb(65, 182, 196);"></circle><circle class="fireworkPearl" r="4.380867874285302" cx="38.19273977268677" cy="11.150266790021288" style="fill: rgb(65, 182, 196);"></circle><circle class="fireworkPearl" r="4.380867874285302" cx="38.494074431812436" cy="48.383689654406396" style="fill: rgb(65, 182, 196);"></circle><circle class="fireworkPearl" r="4.380867874285302" cx="14.067384555500421" cy="19.618300614176288" style="fill: rgb(65, 182, 196);"></circle><circle class="fireworkPearl" r="4.380867874285302" cx="52.69728147028594" cy="30.953776251898642" style="fill: rgb(65, 182, 196);"></circle></g><text id="2" class="legendSampleValue" text-anchor="middle" transform="translate(55,8)" x="0" y="211.61339683798386" style="fill: black; font-size: 0.7rem;"> 990</text><g class="" cupRadius="40" width="80" height="80" pearlRadius="5.476084842856627" pearlCount="20" transform="translate(15,231.61339683798383)"><path class="link" d="M40,40L25.425027674916183,16.263442207899466" style="stroke: rgb(65, 182, 196);"></path><path class="link" d="M40,40L41.515861316067344,70.52479907695337" style="stroke: rgb(65, 182, 196);"></path><path class="link" d="M40,40L59.06971921970406,21.602919171747843" style="stroke: rgb(65, 182, 196);"></path><path class="link" d="M40,40L14.560647825128665,39.29597609426523" style="stroke: rgb(65, 182, 196);"></path><path class="link" d="M40,40L60.57379429362364,57.39578067335398" style="stroke: rgb(65, 182, 196);"></path><path class="link" d="M40,40L38.294371914838926,13.863961990424544" style="stroke: rgb(65, 182, 196);"></path><path class="link" d="M40,40L22.60218609174795,61.65413222330635" style="stroke: rgb(65, 182, 196);"></path><path class="link" d="M40,40L67.36098029977207,33.53208733163045" style="stroke: rgb(65, 182, 196);"></path><path class="link" d="M40,40L18.951921637057474,27.288007262972428" style="stroke: rgb(65, 182, 196);"></path><path class="link" d="M40,40L47.961201594127296,59.48442910483396" style="stroke: rgb(65, 182, 196);"></path><path class="link" d="M40,40L46.457907812769925,23.70426514272581" style="stroke: rgb(65, 182, 196);"></path><path class="link" d="M40,40L23.00554487656268,48.88159911988176" style="stroke: rgb(65, 182, 196);"></path><path class="link" d="M40,40L61.00190939221505,44.61977057481227" style="stroke: rgb(65, 182, 196);"></path><path class="link" d="M40,40L33.86174656715077,25.874926758385403" style="stroke: rgb(65, 182, 196);"></path><path class="link" d="M40,40L35.182086312474915,59.4160892639974" style="stroke: rgb(65, 182, 196);"></path><path class="link" d="M40,40L54.565981633757694,33.57675316332617" style="stroke: rgb(65, 182, 196);"></path><path class="link" d="M40,40L27.399627412808663,36.89162472541311" style="stroke: rgb(65, 182, 196);"></path><path class="link" d="M40,40L48.38383587430125,46.71017179308868" style="stroke: rgb(65, 182, 196);"></path><path class="link" d="M40,40L41.978387885061274,35.69296183812537" style="stroke: rgb(65, 182, 196);"></path><path class="link" d="M40,40L35.589292985966054,46.69451643864023" style="stroke: rgb(65, 182, 196);"></path><circle class="fireworkPearl" r="0" cx="40" cy="40" style="fill: rgb(65, 182, 196);"></circle><circle class="fireworkPearl" r="4.380867874285302" cx="35.589292985966054" cy="46.69451643864023" style="fill: rgb(65, 182, 196);"></circle><circle class="fireworkPearl" r="4.380867874285302" cx="41.978387885061274" cy="35.69296183812537" style="fill: rgb(65, 182, 196);"></circle><circle class="fireworkPearl" r="4.380867874285302" cx="48.38383587430125" cy="46.71017179308868" style="fill: rgb(65, 182, 196);"></circle><circle class="fireworkPearl" r="4.380867874285302" cx="27.399627412808663" cy="36.89162472541311" style="fill: rgb(65, 182, 196);"></circle><circle class="fireworkPearl" r="4.380867874285302" cx="54.565981633757694" cy="33.57675316332617" style="fill: rgb(65, 182, 196);"></circle><circle class="fireworkPearl" r="4.380867874285302" cx="35.182086312474915" cy="59.4160892639974" style="fill: rgb(65, 182, 196);"></circle><circle class="fireworkPearl" r="4.380867874285302" cx="33.86174656715077" cy="25.874926758385403" style="fill: rgb(65, 182, 196);"></circle><circle class="fireworkPearl" r="4.380867874285302" cx="61.00190939221505" cy="44.61977057481227" style="fill: rgb(65, 182, 196);"></circle><circle class="fireworkPearl" r="4.380867874285302" cx="23.00554487656268" cy="48.88159911988176" style="fill: rgb(65, 182, 196);"></circle><circle class="fireworkPearl" r="4.380867874285302" cx="46.457907812769925" cy="23.70426514272581" style="fill: rgb(65, 182, 196);"></circle><circle class="fireworkPearl" r="4.380867874285302" cx="47.961201594127296" cy="59.48442910483396" style="fill: rgb(65, 182, 196);"></circle><circle class="fireworkPearl" r="4.380867874285302" cx="18.951921637057474" cy="27.288007262972428" style="fill: rgb(65, 182, 196);"></circle><circle class="fireworkPearl" r="4.380867874285302" cx="67.36098029977207" cy="33.53208733163045" style="fill: rgb(65, 182, 196);"></circle><circle class="fireworkPearl" r="4.380867874285302" cx="22.60218609174795" cy="61.65413222330635" style="fill: rgb(65, 182, 196);"></circle><circle class="fireworkPearl" r="4.380867874285302" cx="38.294371914838926" cy="13.863961990424544" style="fill: rgb(65, 182, 196);"></circle><circle class="fireworkPearl" r="4.380867874285302" cx="60.57379429362364" cy="57.39578067335398" style="fill: rgb(65, 182, 196);"></circle><circle class="fireworkPearl" r="4.380867874285302" cx="14.560647825128665" cy="39.29597609426523" style="fill: rgb(65, 182, 196);"></circle><circle class="fireworkPearl" r="4.380867874285302" cx="59.06971921970406" cy="21.602919171747843" style="fill: rgb(65, 182, 196);"></circle><circle class="fireworkPearl" r="4.380867874285302" cx="41.515861316067344" cy="70.52479907695337" style="fill: rgb(65, 182, 196);"></circle><circle class="fireworkPearl" r="4.380867874285302" cx="25.425027674916183" cy="16.263442207899466" style="fill: rgb(65, 182, 196);"></circle></g><text id="3" class="legendSampleValue" text-anchor="middle" transform="translate(55,8)" x="0" y="316.6133968379838" style="fill: black; font-size: 0.7rem;">1.5k</text><text id="coloringDisclaimer" transform="translate(55,8)" text-anchor="middle" x="0" y="331.6133968379838" style="font-size: 0.7rem; opacity: 0.6;">(note: coloring</text><text id="coloringDisclaimer" transform="translate(55,8)" text-anchor="middle" x="0" y="346.6133968379838" style="font-size: 0.7rem; opacity: 0.6;">is random)</text></g></svg>