<?xml version="1.0" standalone="no"?>
<?xml-stylesheet xmlns="http://www.w3.org/2000/svg" type="text/css" href="style.css"?>
<svg id="syntheticVisC" class="default" xTitle="Percent Cat Owners" yTitle="Percent Dog Owners" rTitle="Population" chartTitle="Towns in Vizzyland" width="500" height="400" xmlns="http://www.w3.org/2000/svg"><text id="chartTitle" text-anchor="middle" transform="translate(250,20)" x="0" y="0" style="fill: black; font-size: 1.2rem;">Towns in Vizzyland</text><g id="yAxis" transform="translate(50,30)" fill="none" font-size="10" font-family="sans-serif" text-anchor="end"><path class="domain" stroke="currentColor" d="M-6,280H0V40H-6"></path><g class="tick" opacity="1" transform="translate(0,280)"><line stroke="currentColor" x2="-6"></line><text fill="currentColor" x="-9" dy="0.32em">0</text></g><g class="tick" opacity="1" transform="translate(0,254.53585130361125)"><line stroke="currentColor" x2="-6"></line><text fill="currentColor" x="-9" dy="0.32em">10</text></g><g class="tick" opacity="1" transform="translate(0,229.0717026072225)"><line stroke="currentColor" x2="-6"></line><text fill="currentColor" x="-9" dy="0.32em">20</text></g><g class="tick" opacity="1" transform="translate(0,203.60755391083376)"><line stroke="currentColor" x2="-6"></line><text fill="currentColor" x="-9" dy="0.32em">30</text></g><g class="tick" opacity="1" transform="translate(0,178.14340521444504)"><line stroke="currentColor" x2="-6"></line><text fill="currentColor" x="-9" dy="0.32em">40</text></g><g class="tick" opacity="1" transform="translate(0,152.67925651805626)"><line stroke="currentColor" x2="-6"></line><text fill="currentColor" x="-9" dy="0.32em">50</text></g><g class="tick" opacity="1" transform="translate(0,127.21510782166752)"><line stroke="currentColor" x2="-6"></line><text fill="currentColor" x="-9" dy="0.32em">60</text></g><g class="tick" opacity="1" transform="translate(0,101.75095912527878)"><line stroke="currentColor" x2="-6"></line><text fill="currentColor" x="-9" dy="0.32em">70</text></g><g class="tick" opacity="1" transform="translate(0,76.28681042889005)"><line stroke="currentColor" x2="-6"></line><text fill="currentColor" x="-9" dy="0.32em">80</text></g><g class="tick" opacity="1" transform="translate(0,50.8226617325013)"><line stroke="currentColor" x2="-6"></line><text fill="currentColor" x="-9" dy="0.32em">90</text></g></g><g id="xAxis" transform="translate(60,360)" fill="none" font-size="10" font-family="sans-serif" text-anchor="middle"><path class="domain" stroke="currentColor" d="M40,6V0H270V6"></path><g class="tick" opacity="1" transform="translate(40,0)"><line stroke="currentColor" y2="6"></line><text fill="currentColor" y="9" dy="0.71em">0</text></g><g class="tick" opacity="1" transform="translate(63,0)"><line stroke="currentColor" y2="6"></line><text fill="currentColor" y="9" dy="0.71em">10</text></g><g class="tick" opacity="1" transform="translate(86,0)"><line stroke="currentColor" y2="6"></line><text fill="currentColor" y="9" dy="0.71em">20</text></g><g class="tick" opacity="1" transform="translate(109,0)"><line stroke="currentColor" y2="6"></line><text fill="currentColor" y="9" dy="0.71em">30</text></g><g class="tick" opacity="1" transform="translate(132,0)"><line stroke="currentColor" y2="6"></line><text fill="currentColor" y="9" dy="0.71em">40</text></g><g class="tick" opacity="1" transform="translate(155,0)"><line stroke="currentColor" y2="6"></line><text fill="currentColor" y="9" dy="0.71em">50</text></g><g class="tick" opacity="1" transform="translate(178,0)"><line stroke="currentColor" y2="6"></line><text fill="currentColor" y="9" dy="0.71em">60</text></g><g class="tick" opacity="1" transform="translate(201,0)"><line stroke="currentColor" y2="6"></line><text fill="currentColor" y="9" dy="0.71em">70</text></g><g class="tick" opacity="1" transform="translate(224,0)"><line stroke="currentColor" y2="6"></line><text fill="currentColor" y="9" dy="0.71em">80</text></g><g class="tick" opacity="1" transform="translate(247,0)"><line stroke="currentColor" y2="6"></line><text fill="currentColor" y="9" dy="0.71em">90</text></g><g class="tick" opacity="1" transform="translate(270,0)"><line stroke="currentColor" y2="6"></line><text fill="currentColor" y="9" dy="0.71em">100</text></g></g><g id="labels"><text id="xTitle" text-anchor="middle" transform="translate(250,350)" x="0" y="40" style="fill: black; font-size: 0.8rem;">Percent Cat Owners</text><g id="group-yTitle" transform="translate(60,190)"><text id="yTitle" text-anchor="middle" transform="rotate(-90)" y="-45" style="fill: black; font-size: 0.8rem;">Percent Dog Owners</text></g></g><g id="quadrant_lines" transform="translate(60,30)"><line id="verticalQuadrantLine" x1="155" y1="20" x2="155" y2="300" class="quadrantLine"></line><line id="horizontalQuadrantLine" x1="20" y1="160" x2="290" y2="160" class="quadrantLine"></line></g><g id="fireworkChart" transform="translate(60,30)"><path class="link" d="M95.34211043052065,45.56975559768238L88.8883904013349,21.851172779363303" style="stroke: rgb(127, 205, 187);"></path><path class="link" d="M77.12981647022258,63.01435594723878L72.61519384094514,65.238619604853" style="stroke: rgb(127, 205, 187);"></path><path class="link" d="M77.12981647022258,63.01435594723878L70.82053141469619,77.88647070767257" style="stroke: rgb(127, 205, 187);"></path><path class="link" d="M270,239.95730769408195L264.0966678790704,242.14804624829813" style="stroke: rgb(29, 145, 192);"></path><path class="link" d="M270,239.95730769408195L276.3184883083521,238.40031126671877" style="stroke: rgb(29, 145, 192);"></path><path class="link" d="M218.0639885133268,221.25664287004352L210.84782208402743,212.4677319763287" style="stroke: rgb(29, 145, 192);"></path><path class="link" d="M218.0639885133268,221.25664287004352L223.16625224439497,215.89178432620167" style="stroke: rgb(29, 145, 192);"></path><path class="link" d="M218.0639885133268,221.25664287004352L227.94747107266625,227.73380313773316" style="stroke: rgb(29, 145, 192);"></path><path class="link" d="M203.30244196711544,240.07582775446915L189.2090958022386,218.92682171357214" style="stroke: rgb(65, 182, 196);"></path><path class="link" d="M203.30244196711544,240.07582775446915L228.98767265708392,240.84971547050475" style="stroke: rgb(65, 182, 196);"></path><path class="link" d="M203.30244196711544,240.07582775446915L214.01133480357603,224.867610968577" style="stroke: rgb(65, 182, 196);"></path><path class="link" d="M203.30244196711544,240.07582775446915L201.72527951532996,221.41376581315555" style="stroke: rgb(65, 182, 196);"></path><path class="link" d="M211.87865658961658,186.9460791289614L214.83913126170017,182.22308177197067" style="stroke: rgb(29, 145, 192);"></path><path class="link" d="M211.87865658961658,186.9460791289614L198.7478357932539,192.20773321773228" style="stroke: rgb(29, 145, 192);"></path><path class="link" d="M211.87865658961658,186.9460791289614L202.27897746155756,179.93337322839736" style="stroke: rgb(29, 145, 192);"></path><path class="link" d="M211.87865658961658,186.9460791289614L211.32020384687638,194.5076055245852" style="stroke: rgb(29, 145, 192);"></path><path class="link" d="M179.12419024401657,246.36158390703142L159.1365610441606,239.07230633921878" style="stroke: rgb(127, 205, 187);"></path><path class="link" d="M179.12419024401657,246.36158390703142L166.49776300320312,228.61748565507065" style="stroke: rgb(127, 205, 187);"></path><path class="link" d="M179.12419024401657,246.36158390703142L177.1256337421606,251.6900222634027" style="stroke: rgb(127, 205, 187);"></path><path class="link" d="M179.12419024401657,246.36158390703142L171.86737240781724,240.15893403855566" style="stroke: rgb(127, 205, 187);"></path><path class="link" d="M179.12419024401657,246.36158390703142L157.9259790061149,261.46295341976594" style="stroke: rgb(127, 205, 187);"></path><path class="link" d="M179.12419024401657,246.36158390703142L164.43614163449374,250.61728183189084" style="stroke: rgb(127, 205, 187);"></path><path class="link" d="M179.12419024401657,246.36158390703142L170.6346706156925,262.6588465701943" style="stroke: rgb(127, 205, 187);"></path><path class="link" d="M179.12419024401657,246.36158390703142L179.2561352988804,229.77336442685768" style="stroke: rgb(127, 205, 187);"></path><path class="link" d="M217.12686382883138,280L212.74371436690458,285.57870028122625" style="stroke: rgb(29, 145, 192);"></path><path class="link" d="M217.12686382883138,280L207.90112765824264,297.4052210414777" style="stroke: rgb(29, 145, 192);"></path><path class="link" d="M217.12686382883138,280L200.290467724995,282.7423305518572" style="stroke: rgb(29, 145, 192);"></path><path class="link" d="M217.12686382883138,280L217.49377767523018,273.7599512630997" style="stroke: rgb(29, 145, 192);"></path><path class="link" d="M217.12686382883138,280L225.36535272022945,283.86968278212686" style="stroke: rgb(29, 145, 192);"></path><path class="link" d="M217.12686382883138,280L230.17945124164777,271.99910925730006" style="stroke: rgb(29, 145, 192);"></path><path class="link" d="M217.12686382883138,280L233.1773361789767,293.8211210918322" style="stroke: rgb(29, 145, 192);"></path><path class="link" d="M217.12686382883138,280L220.5436140351081,295.6996481611649" style="stroke: rgb(29, 145, 192);"></path><path class="link" d="M217.12686382883138,280L238.02954297614977,282.0290047388145" style="stroke: rgb(29, 145, 192);"></path><path class="link" d="M190.08624336986614,148.31511516436308L171.30744634398417,152.86380728511867" style="stroke: rgb(65, 182, 196);"></path><path class="link" d="M190.08624336986614,148.31511516436308L207.9583202949852,142.2504125009199" style="stroke: rgb(65, 182, 196);"></path><path class="link" d="M190.08624336986614,148.31511516436308L174.32855056921335,140.44080725849673" style="stroke: rgb(65, 182, 196);"></path><path class="link" d="M190.08624336986614,148.31511516436308L204.91266814521688,154.66503837007215" style="stroke: rgb(65, 182, 196);"></path><path class="link" d="M190.08624336986614,148.31511516436308L180.49367886990126,161.74053600236243" style="stroke: rgb(65, 182, 196);"></path><path class="link" d="M190.08624336986614,148.31511516436308L192.69798488202528,158.1842426324206" style="stroke: rgb(65, 182, 196);"></path><path class="link" d="M190.08624336986614,148.31511516436308L198.76654159870316,133.38465423504996" style="stroke: rgb(65, 182, 196);"></path><path class="link" d="M190.08624336986614,148.31511516436308L195.6401276865993,145.78048092625144" style="stroke: rgb(65, 182, 196);"></path><path class="link" d="M190.08624336986614,148.31511516436308L186.52337754741595,136.8973080318176" style="stroke: rgb(65, 182, 196);"></path><path class="link" d="M190.08624336986614,148.31511516436308L183.5054983574429,149.31992675466154" style="stroke: rgb(65, 182, 196);"></path><path class="link" d="M64.7530744121373,40L68.3657923123505,20.65135987824267" style="stroke: rgb(127, 205, 187);"></path><path class="link" d="M64.7530744121373,40L58.418827387578936,44.43885665016665" style="stroke: rgb(127, 205, 187);"></path><path class="link" d="M64.7530744121373,40L63.33958391887921,32.663984146887984" style="stroke: rgb(127, 205, 187);"></path><path class="link" d="M64.7530744121373,40L55.69591174463709,22.45357632040992" style="stroke: rgb(127, 205, 187);"></path><path class="link" d="M64.7530744121373,40L45.752057251033136,45.83923956636807" style="stroke: rgb(127, 205, 187);"></path><path class="link" d="M64.7530744121373,40L75.92806661477368,31.016374693197356" style="stroke: rgb(127, 205, 187);"></path><path class="link" d="M64.7530744121373,40L65.98739467984328,54.518893314445116" style="stroke: rgb(127, 205, 187);"></path><path class="link" d="M64.7530744121373,40L53.29253302179291,56.173315118152686" style="stroke: rgb(127, 205, 187);"></path><path class="link" d="M64.7530744121373,40L71.18130753719713,42.88688613017357" style="stroke: rgb(127, 205, 187);"></path><path class="link" d="M64.7530744121373,40L50.822090828025146,34.19598081649363" style="stroke: rgb(127, 205, 187);"></path><path class="link" d="M64.7530744121373,40L41.88955979287108,25.384747140555874" style="stroke: rgb(127, 205, 187);"></path><path class="link" d="M102.88187577204776,49.294606366199496L129.5861588256605,37.27663250776722" style="stroke: rgb(29, 145, 192);"></path><path class="link" d="M102.88187577204776,49.294606366199496L117.97795902280818,57.02863418707826" style="stroke: rgb(29, 145, 192);"></path><path class="link" d="M102.88187577204776,49.294606366199496L129.57602588966537,51.69173003509182" style="stroke: rgb(29, 145, 192);"></path><path class="link" d="M102.88187577204776,49.294606366199496L119.3835117189659,29.590680365230416" style="stroke: rgb(29, 145, 192);"></path><path class="link" d="M102.88187577204776,49.294606366199496L87.83075183252458,34.63171212971928" style="stroke: rgb(29, 145, 192);"></path><path class="link" d="M102.88187577204776,49.294606366199496L109.21656230153279,21.940465040043133" style="stroke: rgb(29, 145, 192);"></path><path class="link" d="M102.88187577204776,49.294606366199496L109.0597845231198,37.07552201713515" style="stroke: rgb(29, 145, 192);"></path><path class="link" d="M102.88187577204776,49.294606366199496L99.06776280412492,29.40496576429266" style="stroke: rgb(29, 145, 192);"></path><path class="link" d="M102.88187577204776,49.294606366199496L119.11220537138888,44.414195108316974" style="stroke: rgb(29, 145, 192);"></path><path class="link" d="M102.88187577204776,49.294606366199496L97.66449482009264,42.35019429930623" style="stroke: rgb(29, 145, 192);"></path><path class="link" d="M102.88187577204776,49.294606366199496L85.76276375852882,47.167374623593176" style="stroke: rgb(29, 145, 192);"></path><path class="link" d="M102.88187577204776,49.294606366199496L107.61272626774567,49.82779447630551" style="stroke: rgb(29, 145, 192);"></path><path class="link" d="M98.11412819582276,61.86758404173509L93.55376251105608,79.62276974561425" style="stroke: rgb(65, 182, 196);"></path><path class="link" d="M98.11412819582276,61.86758404173509L84.25907171389032,59.750077648432224" style="stroke: rgb(65, 182, 196);"></path><path class="link" d="M98.11412819582276,61.86758404173509L115.52915243112031,82.03887544807498" style="stroke: rgb(65, 182, 196);"></path><path class="link" d="M98.11412819582276,61.86758404173509L81.90658223948789,84.87986502828478" style="stroke: rgb(65, 182, 196);"></path><path class="link" d="M98.11412819582276,61.86758404173509L116.77888159310683,69.46123497776493" style="stroke: rgb(65, 182, 196);"></path><path class="link" d="M98.11412819582276,61.86758404173509L103.86104795495922,87.13103029495534" style="stroke: rgb(65, 182, 196);"></path><path class="link" d="M98.11412819582276,61.86758404173509L105.14842751432089,74.3939503805755" style="stroke: rgb(65, 182, 196);"></path><path class="link" d="M98.11412819582276,61.86758404173509L92.30395119982866,92.352140790985" style="stroke: rgb(65, 182, 196);"></path><path class="link" d="M98.11412819582276,61.86758404173509L106.24707083518815,62.08128030616722" style="stroke: rgb(65, 182, 196);"></path><path class="link" d="M98.11412819582276,61.86758404173509L94.58667307767169,67.0076453035819" style="stroke: rgb(65, 182, 196);"></path><path class="link" d="M98.11412819582276,61.86758404173509L83.04517212996532,72.3419798722981" style="stroke: rgb(65, 182, 196);"></path><path class="link" d="M98.11412819582276,61.86758404173509L95.93111457508265,54.68464455340212" style="stroke: rgb(65, 182, 196);"></path><path class="link" d="M200.89926848729056,249.35011812841003L204.86648294742065,233.7983297349674" style="stroke: rgb(29, 145, 192);"></path><path class="link" d="M200.89926848729056,249.35011812841003L196.34621740331377,243.02309467412167" style="stroke: rgb(29, 145, 192);"></path><path class="link" d="M200.89926848729056,249.35011812841003L219.5040743642483,249.40799959977545" style="stroke: rgb(29, 145, 192);"></path><path class="link" d="M200.89926848729056,249.35011812841003L225.37461582377998,260.53703659765034" style="stroke: rgb(29, 145, 192);"></path><path class="link" d="M200.89926848729056,249.35011812841003L199.95857115134385,259.73879490946047" style="stroke: rgb(29, 145, 192);"></path><path class="link" d="M200.89926848729056,249.35011812841003L212.62671603614226,260.62431849813726" style="stroke: rgb(29, 145, 192);"></path><path class="link" d="M200.89926848729056,249.35011812841003L207.1757259579497,249.22065258322937" style="stroke: rgb(29, 145, 192);"></path><path class="link" d="M200.89926848729056,249.35011812841003L184.33503447530993,241.37807350101176" style="stroke: rgb(29, 145, 192);"></path><path class="link" d="M200.89926848729056,249.35011812841003L192.81841122023312,272.1967883995986" style="stroke: rgb(29, 145, 192);"></path><path class="link" d="M200.89926848729056,249.35011812841003L189.28272102261712,253.2697816283775" style="stroke: rgb(29, 145, 192);"></path><path class="link" d="M200.89926848729056,249.35011812841003L183.1064524124989,264.09770016525334" style="stroke: rgb(29, 145, 192);"></path><path class="link" d="M200.89926848729056,249.35011812841003L205.3331880470794,271.07673017561063" style="stroke: rgb(29, 145, 192);"></path><path class="link" d="M200.89926848729056,249.35011812841003L192.16930430963467,231.21365521704652" style="stroke: rgb(29, 145, 192);"></path><path class="link" d="M200.89926848729056,249.35011812841003L216.86132998029834,237.19476896352054" style="stroke: rgb(29, 145, 192);"></path><path class="link" d="M244.19031947664442,187.45118957796575L261.3454229602251,204.40546193253593" style="stroke: rgb(127, 205, 187);"></path><path class="link" d="M244.19031947664442,187.45118957796575L239.29426206812028,206.36607532101522" style="stroke: rgb(127, 205, 187);"></path><path class="link" d="M244.19031947664442,187.45118957796575L270.6040147364072,184.54155744044698" style="stroke: rgb(127, 205, 187);"></path><path class="link" d="M244.19031947664442,187.45118957796575L249.75874358434947,199.05884286541138" style="stroke: rgb(127, 205, 187);"></path><path class="link" d="M244.19031947664442,187.45118957796575L259.0292991003518,179.15547715149663" style="stroke: rgb(127, 205, 187);"></path><path class="link" d="M244.19031947664442,187.45118957796575L247.5028083479961,173.8178571734106" style="stroke: rgb(127, 205, 187);"></path><path class="link" d="M244.19031947664442,187.45118957796575L260.1314995232222,191.7789735431489" style="stroke: rgb(127, 205, 187);"></path><path class="link" d="M244.19031947664442,187.45118957796575L248.48226785243352,186.46724745344312" style="stroke: rgb(127, 205, 187);"></path><path class="link" d="M244.19031947664442,187.45118957796575L246.5511921925265,161.20855162873" style="stroke: rgb(127, 205, 187);"></path><path class="link" d="M244.19031947664442,187.45118957796575L238.0846136507248,193.65282438879638" style="stroke: rgb(127, 205, 187);"></path><path class="link" d="M244.19031947664442,187.45118957796575L227.68398544749388,200.94420378203122" style="stroke: rgb(127, 205, 187);"></path><path class="link" d="M244.19031947664442,187.45118957796575L258.1390952240393,166.57133009680635" style="stroke: rgb(127, 205, 187);"></path><path class="link" d="M244.19031947664442,187.45118957796575L236.9673718482347,180.98787826717086" style="stroke: rgb(127, 205, 187);"></path><path class="link" d="M244.19031947664442,187.45118957796575L235.9586290712966,168.34986719745316" style="stroke: rgb(127, 205, 187);"></path><path class="link" d="M244.19031947664442,187.45118957796575L226.53972029559984,188.21272825118942" style="stroke: rgb(127, 205, 187);"></path><path class="link" d="M244.19031947664442,187.45118957796575L250.87391922866368,211.69055459743038" style="stroke: rgb(127, 205, 187);"></path><path class="link" d="M244.19031947664442,187.45118957796575L225.50903538744382,175.50692533941333" style="stroke: rgb(127, 205, 187);"></path><path class="link" d="M40,223.2079695470639L55.34064949819667,244.56877373173376" style="stroke: rgb(127, 205, 187);"></path><path class="link" d="M40,223.2079695470639L50.214286339150995,208.62438234848776" style="stroke: rgb(127, 205, 187);"></path><path class="link" d="M40,223.2079695470639L61.892437558470576,233.60482358677444" style="stroke: rgb(127, 205, 187);"></path><path class="link" d="M40,223.2079695470639L49.08688641855913,233.34515125340388" style="stroke: rgb(127, 205, 187);"></path><path class="link" d="M40,223.2079695470639L37.020489064792876,229.85829674137534" style="stroke: rgb(127, 205, 187);"></path><path class="link" d="M40,223.2079695470639L12.104158714112979,230.11697849200587" style="stroke: rgb(127, 205, 187);"></path><path class="link" d="M40,223.2079695470639L55.634097259112096,222.40170836633445" style="stroke: rgb(127, 205, 187);"></path><path class="link" d="M40,223.2079695470639L42.78445319414852,246.78629270514563" style="stroke: rgb(127, 205, 187);"></path><path class="link" d="M40,223.2079695470639L18.75066742354833,241.06619951628483" style="stroke: rgb(127, 205, 187);"></path><path class="link" d="M40,223.2079695470639L37.45522726086735,208.15476601768367" style="stroke: rgb(127, 205, 187);"></path><path class="link" d="M40,223.2079695470639L24.684942805597178,229.80441368088722" style="stroke: rgb(127, 205, 187);"></path><path class="link" d="M40,223.2079695470639L31.385236009649176,196.96920620805" style="stroke: rgb(127, 205, 187);"></path><path class="link" d="M40,223.2079695470639L31.406973424317886,241.31613078775243" style="stroke: rgb(127, 205, 187);"></path><path class="link" d="M40,223.2079695470639L30.890078444657874,218.8190165579405" style="stroke: rgb(127, 205, 187);"></path><path class="link" d="M40,223.2079695470639L68.42866372782824,222.72207949161495" style="stroke: rgb(127, 205, 187);"></path><path class="link" d="M40,223.2079695470639L24.583305328536618,207.81164874449988" style="stroke: rgb(127, 205, 187);"></path><path class="link" d="M40,223.2079695470639L18.122944052280165,218.82790713291558" style="stroke: rgb(127, 205, 187);"></path><path class="link" d="M40,223.2079695470639L44.184508694635724,197.3152825540255" style="stroke: rgb(127, 205, 187);"></path><path class="link" d="M40,223.2079695470639L62.466796119706686,211.5313541548712" style="stroke: rgb(127, 205, 187);"></path><path class="link" d="M40,223.2079695470639L43.51847354167024,219.25760849609986" style="stroke: rgb(127, 205, 187);"></path><circle class="fireworkPearl" r="0" cx="40" cy="223.2079695470639" style="fill: rgb(127, 205, 187);"></circle><circle class="fireworkPearl" r="4.380867874285302" cx="43.51847354167024" cy="219.25760849609986" style="fill: rgb(127, 205, 187);"></circle><circle class="fireworkPearl" r="4.380867874285302" cx="62.466796119706686" cy="211.5313541548712" style="fill: rgb(127, 205, 187);"></circle><circle class="fireworkPearl" r="4.380867874285302" cx="44.184508694635724" cy="197.3152825540255" style="fill: rgb(127, 205, 187);"></circle><circle class="fireworkPearl" r="4.380867874285302" cx="18.122944052280165" cy="218.82790713291558" style="fill: rgb(127, 205, 187);"></circle><circle class="fireworkPearl" r="4.380867874285302" cx="24.583305328536618" cy="207.81164874449988" style="fill: rgb(127, 205, 187);"></circle><circle class="fireworkPearl" r="4.380867874285302" cx="68.42866372782824" cy="222.72207949161495" style="fill: rgb(127, 205, 187);"></circle><circle class="fireworkPearl" r="4.380867874285302" cx="30.890078444657874" cy="218.8190165579405" style="fill: rgb(127, 205, 187);"></circle><circle class="fireworkPearl" r="4.380867874285302" cx="31.406973424317886" cy="241.31613078775243" style="fill: rgb(127, 205, 187);"></circle><circle class="fireworkPearl" r="4.380867874285302" cx="31.385236009649176" cy="196.96920620805" style="fill: rgb(127, 205, 187);"></circle><circle class="fireworkPearl" r="4.380867874285302" cx="24.684942805597178" cy="229.80441368088722" style="fill: rgb(127, 205, 187);"></circle><circle class="fireworkPearl" r="4.380867874285302" cx="37.45522726086735" cy="208.15476601768367" style="fill: rgb(127, 205, 187);"></circle><circle class="fireworkPearl" r="4.380867874285302" cx="18.75066742354833" cy="241.06619951628483" style="fill: rgb(127, 205, 187);"></circle><circle class="fireworkPearl" r="4.380867874285302" cx="42.78445319414852" cy="246.78629270514563" style="fill: rgb(127, 205, 187);"></circle><circle class="fireworkPearl" r="4.380867874285302" cx="55.634097259112096" cy="222.40170836633445" style="fill: rgb(127, 205, 187);"></circle><circle class="fireworkPearl" r="4.380867874285302" cx="12.104158714112979" cy="230.11697849200587" style="fill: rgb(127, 205, 187);"></circle><circle class="fireworkPearl" r="4.380867874285302" cx="37.020489064792876" cy="229.85829674137534" style="fill: rgb(127, 205, 187);"></circle><circle class="fireworkPearl" r="4.380867874285302" cx="49.08688641855913" cy="233.34515125340388" style="fill: rgb(127, 205, 187);"></circle><circle class="fireworkPearl" r="4.380867874285302" cx="61.892437558470576" cy="233.60482358677444" style="fill: rgb(127, 205, 187);"></circle><circle class="fireworkPearl" r="4.380867874285302" cx="50.214286339150995" cy="208.62438234848776" style="fill: rgb(127, 205, 187);"></circle><circle class="fireworkPearl" r="4.380867874285302" cx="55.34064949819667" cy="244.56877373173376" style="fill: rgb(127, 205, 187);"></circle><circle class="fireworkPearl" r="0" cx="244.19031947664442" cy="187.45118957796575" style="fill: rgb(127, 205, 187);"></circle><circle class="fireworkPearl" r="4.380867874285301" cx="225.50903538744382" cy="175.50692533941333" style="fill: rgb(127, 205, 187);"></circle><circle class="fireworkPearl" r="4.380867874285301" cx="250.87391922866368" cy="211.69055459743038" style="fill: rgb(127, 205, 187);"></circle><circle class="fireworkPearl" r="4.380867874285301" cx="226.53972029559984" cy="188.21272825118942" style="fill: rgb(127, 205, 187);"></circle><circle class="fireworkPearl" r="4.380867874285301" cx="235.9586290712966" cy="168.34986719745316" style="fill: rgb(127, 205, 187);"></circle><circle class="fireworkPearl" r="4.380867874285301" cx="236.9673718482347" cy="180.98787826717086" style="fill: rgb(127, 205, 187);"></circle><circle class="fireworkPearl" r="4.380867874285301" cx="258.1390952240393" cy="166.57133009680635" style="fill: rgb(127, 205, 187);"></circle><circle class="fireworkPearl" r="4.380867874285301" cx="227.68398544749388" cy="200.94420378203122" style="fill: rgb(127, 205, 187);"></circle><circle class="fireworkPearl" r="4.380867874285301" cx="238.0846136507248" cy="193.65282438879638" style="fill: rgb(127, 205, 187);"></circle><circle class="fireworkPearl" r="4.380867874285301" cx="246.5511921925265" cy="161.20855162873" style="fill: rgb(127, 205, 187);"></circle><circle class="fireworkPearl" r="4.380867874285301" cx="248.48226785243352" cy="186.46724745344312" style="fill: rgb(127, 205, 187);"></circle><circle class="fireworkPearl" r="4.380867874285301" cx="260.1314995232222" cy="191.7789735431489" style="fill: rgb(127, 205, 187);"></circle><circle class="fireworkPearl" r="4.380867874285301" cx="247.5028083479961" cy="173.8178571734106" style="fill: rgb(127, 205, 187);"></circle><circle class="fireworkPearl" r="4.380867874285301" cx="259.0292991003518" cy="179.15547715149663" style="fill: rgb(127, 205, 187);"></circle><circle class="fireworkPearl" r="4.380867874285301" cx="249.75874358434947" cy="199.05884286541138" style="fill: rgb(127, 205, 187);"></circle><circle class="fireworkPearl" r="4.380867874285301" cx="270.6040147364072" cy="184.54155744044698" style="fill: rgb(127, 205, 187);"></circle><circle class="fireworkPearl" r="4.380867874285301" cx="239.29426206812028" cy="206.36607532101522" style="fill: rgb(127, 205, 187);"></circle><circle class="fireworkPearl" r="4.380867874285301" cx="261.3454229602251" cy="204.40546193253593" style="fill: rgb(127, 205, 187);"></circle><circle class="fireworkPearl" r="0" cx="200.89926848729056" cy="249.35011812841003" style="fill: rgb(29, 145, 192);"></circle><circle class="fireworkPearl" r="4.380867874285301" cx="216.86132998029834" cy="237.19476896352054" style="fill: rgb(29, 145, 192);"></circle><circle class="fireworkPearl" r="4.380867874285301" cx="192.16930430963467" cy="231.21365521704652" style="fill: rgb(29, 145, 192);"></circle><circle class="fireworkPearl" r="4.380867874285301" cx="205.3331880470794" cy="271.07673017561063" style="fill: rgb(29, 145, 192);"></circle><circle class="fireworkPearl" r="4.380867874285301" cx="183.1064524124989" cy="264.09770016525334" style="fill: rgb(29, 145, 192);"></circle><circle class="fireworkPearl" r="4.380867874285301" cx="189.28272102261712" cy="253.2697816283775" style="fill: rgb(29, 145, 192);"></circle><circle class="fireworkPearl" r="4.380867874285301" cx="192.81841122023312" cy="272.1967883995986" style="fill: rgb(29, 145, 192);"></circle><circle class="fireworkPearl" r="4.380867874285301" cx="184.33503447530993" cy="241.37807350101176" style="fill: rgb(29, 145, 192);"></circle><circle class="fireworkPearl" r="4.380867874285301" cx="207.1757259579497" cy="249.22065258322937" style="fill: rgb(29, 145, 192);"></circle><circle class="fireworkPearl" r="4.380867874285301" cx="212.62671603614226" cy="260.62431849813726" style="fill: rgb(29, 145, 192);"></circle><circle class="fireworkPearl" r="4.380867874285301" cx="199.95857115134385" cy="259.73879490946047" style="fill: rgb(29, 145, 192);"></circle><circle class="fireworkPearl" r="4.380867874285301" cx="225.37461582377998" cy="260.53703659765034" style="fill: rgb(29, 145, 192);"></circle><circle class="fireworkPearl" r="4.380867874285301" cx="219.5040743642483" cy="249.40799959977545" style="fill: rgb(29, 145, 192);"></circle><circle class="fireworkPearl" r="4.380867874285301" cx="196.34621740331377" cy="243.02309467412167" style="fill: rgb(29, 145, 192);"></circle><circle class="fireworkPearl" r="4.380867874285301" cx="204.86648294742065" cy="233.7983297349674" style="fill: rgb(29, 145, 192);"></circle><circle class="fireworkPearl" r="0" cx="98.11412819582276" cy="61.86758404173509" style="fill: rgb(65, 182, 196);"></circle><circle class="fireworkPearl" r="4.380867874285302" cx="95.93111457508265" cy="54.68464455340212" style="fill: rgb(65, 182, 196);"></circle><circle class="fireworkPearl" r="4.380867874285302" cx="83.04517212996532" cy="72.3419798722981" style="fill: rgb(65, 182, 196);"></circle><circle class="fireworkPearl" r="4.380867874285302" cx="94.58667307767169" cy="67.0076453035819" style="fill: rgb(65, 182, 196);"></circle><circle class="fireworkPearl" r="4.380867874285302" cx="106.24707083518815" cy="62.08128030616722" style="fill: rgb(65, 182, 196);"></circle><circle class="fireworkPearl" r="4.380867874285302" cx="92.30395119982866" cy="92.352140790985" style="fill: rgb(65, 182, 196);"></circle><circle class="fireworkPearl" r="4.380867874285302" cx="105.14842751432089" cy="74.3939503805755" style="fill: rgb(65, 182, 196);"></circle><circle class="fireworkPearl" r="4.380867874285302" cx="103.86104795495922" cy="87.13103029495534" style="fill: rgb(65, 182, 196);"></circle><circle class="fireworkPearl" r="4.380867874285302" cx="116.77888159310683" cy="69.46123497776493" style="fill: rgb(65, 182, 196);"></circle><circle class="fireworkPearl" r="4.380867874285302" cx="81.90658223948789" cy="84.87986502828478" style="fill: rgb(65, 182, 196);"></circle><circle class="fireworkPearl" r="4.380867874285302" cx="115.52915243112031" cy="82.03887544807498" style="fill: rgb(65, 182, 196);"></circle><circle class="fireworkPearl" r="4.380867874285302" cx="84.25907171389032" cy="59.750077648432224" style="fill: rgb(65, 182, 196);"></circle><circle class="fireworkPearl" r="4.380867874285302" cx="93.55376251105608" cy="79.62276974561425" style="fill: rgb(65, 182, 196);"></circle><circle class="fireworkPearl" r="0" cx="102.88187577204776" cy="49.294606366199496" style="fill: rgb(29, 145, 192);"></circle><circle class="fireworkPearl" r="4.380867874285302" cx="107.61272626774567" cy="49.82779447630551" style="fill: rgb(29, 145, 192);"></circle><circle class="fireworkPearl" r="4.380867874285302" cx="85.76276375852882" cy="47.167374623593176" style="fill: rgb(29, 145, 192);"></circle><circle class="fireworkPearl" r="4.380867874285302" cx="97.66449482009264" cy="42.35019429930623" style="fill: rgb(29, 145, 192);"></circle><circle class="fireworkPearl" r="4.380867874285302" cx="119.11220537138888" cy="44.414195108316974" style="fill: rgb(29, 145, 192);"></circle><circle class="fireworkPearl" r="4.380867874285302" cx="99.06776280412492" cy="29.40496576429266" style="fill: rgb(29, 145, 192);"></circle><circle class="fireworkPearl" r="4.380867874285302" cx="109.0597845231198" cy="37.07552201713515" style="fill: rgb(29, 145, 192);"></circle><circle class="fireworkPearl" r="4.380867874285302" cx="109.21656230153279" cy="21.940465040043133" style="fill: rgb(29, 145, 192);"></circle><circle class="fireworkPearl" r="4.380867874285302" cx="87.83075183252458" cy="34.63171212971928" style="fill: rgb(29, 145, 192);"></circle><circle class="fireworkPearl" r="4.380867874285302" cx="119.3835117189659" cy="29.590680365230416" style="fill: rgb(29, 145, 192);"></circle><circle class="fireworkPearl" r="4.380867874285302" cx="129.57602588966537" cy="51.69173003509182" style="fill: rgb(29, 145, 192);"></circle><circle class="fireworkPearl" r="4.380867874285302" cx="117.97795902280818" cy="57.02863418707826" style="fill: rgb(29, 145, 192);"></circle><circle class="fireworkPearl" r="4.380867874285302" cx="129.5861588256605" cy="37.27663250776722" style="fill: rgb(29, 145, 192);"></circle><circle class="fireworkPearl" r="0" cx="64.7530744121373" cy="40" style="fill: rgb(127, 205, 187);"></circle><circle class="fireworkPearl" r="4.380867874285302" cx="41.88955979287108" cy="25.384747140555874" style="fill: rgb(127, 205, 187);"></circle><circle class="fireworkPearl" r="4.380867874285302" cx="50.822090828025146" cy="34.19598081649363" style="fill: rgb(127, 205, 187);"></circle><circle class="fireworkPearl" r="4.380867874285302" cx="71.18130753719713" cy="42.88688613017357" style="fill: rgb(127, 205, 187);"></circle><circle class="fireworkPearl" r="4.380867874285302" cx="53.29253302179291" cy="56.173315118152686" style="fill: rgb(127, 205, 187);"></circle><circle class="fireworkPearl" r="4.380867874285302" cx="65.98739467984328" cy="54.518893314445116" style="fill: rgb(127, 205, 187);"></circle><circle class="fireworkPearl" r="4.380867874285302" cx="75.92806661477368" cy="31.016374693197356" style="fill: rgb(127, 205, 187);"></circle><circle class="fireworkPearl" r="4.380867874285302" cx="45.752057251033136" cy="45.83923956636807" style="fill: rgb(127, 205, 187);"></circle><circle class="fireworkPearl" r="4.380867874285302" cx="55.69591174463709" cy="22.45357632040992" style="fill: rgb(127, 205, 187);"></circle><circle class="fireworkPearl" r="4.380867874285302" cx="63.33958391887921" cy="32.663984146887984" style="fill: rgb(127, 205, 187);"></circle><circle class="fireworkPearl" r="4.380867874285302" cx="58.418827387578936" cy="44.43885665016665" style="fill: rgb(127, 205, 187);"></circle><circle class="fireworkPearl" r="4.380867874285302" cx="68.3657923123505" cy="20.65135987824267" style="fill: rgb(127, 205, 187);"></circle><circle class="fireworkPearl" r="0" cx="190.08624336986614" cy="148.31511516436308" style="fill: rgb(65, 182, 196);"></circle><circle class="fireworkPearl" r="4.380867874285301" cx="183.5054983574429" cy="149.31992675466154" style="fill: rgb(65, 182, 196);"></circle><circle class="fireworkPearl" r="4.380867874285301" cx="186.52337754741595" cy="136.8973080318176" style="fill: rgb(65, 182, 196);"></circle><circle class="fireworkPearl" r="4.380867874285301" cx="195.6401276865993" cy="145.78048092625144" style="fill: rgb(65, 182, 196);"></circle><circle class="fireworkPearl" r="4.380867874285301" cx="198.76654159870316" cy="133.38465423504996" style="fill: rgb(65, 182, 196);"></circle><circle class="fireworkPearl" r="4.380867874285301" cx="192.69798488202528" cy="158.1842426324206" style="fill: rgb(65, 182, 196);"></circle><circle class="fireworkPearl" r="4.380867874285301" cx="180.49367886990126" cy="161.74053600236243" style="fill: rgb(65, 182, 196);"></circle><circle class="fireworkPearl" r="4.380867874285301" cx="204.91266814521688" cy="154.66503837007215" style="fill: rgb(65, 182, 196);"></circle><circle class="fireworkPearl" r="4.380867874285301" cx="174.32855056921335" cy="140.44080725849673" style="fill: rgb(65, 182, 196);"></circle><circle class="fireworkPearl" r="4.380867874285301" cx="207.9583202949852" cy="142.2504125009199" style="fill: rgb(65, 182, 196);"></circle><circle class="fireworkPearl" r="4.380867874285301" cx="171.30744634398417" cy="152.86380728511867" style="fill: rgb(65, 182, 196);"></circle><circle class="fireworkPearl" r="0" cx="217.12686382883138" cy="280" style="fill: rgb(29, 145, 192);"></circle><circle class="fireworkPearl" r="4.380867874285301" cx="238.02954297614977" cy="282.0290047388145" style="fill: rgb(29, 145, 192);"></circle><circle class="fireworkPearl" r="4.380867874285301" cx="220.5436140351081" cy="295.6996481611649" style="fill: rgb(29, 145, 192);"></circle><circle class="fireworkPearl" r="4.380867874285301" cx="233.1773361789767" cy="293.8211210918322" style="fill: rgb(29, 145, 192);"></circle><circle class="fireworkPearl" r="4.380867874285301" cx="230.17945124164777" cy="271.99910925730006" style="fill: rgb(29, 145, 192);"></circle><circle class="fireworkPearl" r="4.380867874285301" cx="225.36535272022945" cy="283.86968278212686" style="fill: rgb(29, 145, 192);"></circle><circle class="fireworkPearl" r="4.380867874285301" cx="217.49377767523018" cy="273.7599512630997" style="fill: rgb(29, 145, 192);"></circle><circle class="fireworkPearl" r="4.380867874285301" cx="200.290467724995" cy="282.7423305518572" style="fill: rgb(29, 145, 192);"></circle><circle class="fireworkPearl" r="4.380867874285301" cx="207.90112765824264" cy="297.4052210414777" style="fill: rgb(29, 145, 192);"></circle><circle class="fireworkPearl" r="4.380867874285301" cx="212.74371436690458" cy="285.57870028122625" style="fill: rgb(29, 145, 192);"></circle><circle class="fireworkPearl" r="0" cx="179.12419024401657" cy="246.36158390703142" style="fill: rgb(127, 205, 187);"></circle><circle class="fireworkPearl" r="4.380867874285302" cx="179.2561352988804" cy="229.77336442685768" style="fill: rgb(127, 205, 187);"></circle><circle class="fireworkPearl" r="4.380867874285302" cx="170.6346706156925" cy="262.6588465701943" style="fill: rgb(127, 205, 187);"></circle><circle class="fireworkPearl" r="4.380867874285302" cx="164.43614163449374" cy="250.61728183189084" style="fill: rgb(127, 205, 187);"></circle><circle class="fireworkPearl" r="4.380867874285302" cx="157.9259790061149" cy="261.46295341976594" style="fill: rgb(127, 205, 187);"></circle><circle class="fireworkPearl" r="4.380867874285302" cx="171.86737240781724" cy="240.15893403855566" style="fill: rgb(127, 205, 187);"></circle><circle class="fireworkPearl" r="4.380867874285302" cx="177.1256337421606" cy="251.6900222634027" style="fill: rgb(127, 205, 187);"></circle><circle class="fireworkPearl" r="4.380867874285302" cx="166.49776300320312" cy="228.61748565507065" style="fill: rgb(127, 205, 187);"></circle><circle class="fireworkPearl" r="4.380867874285302" cx="159.1365610441606" cy="239.07230633921878" style="fill: rgb(127, 205, 187);"></circle><circle class="fireworkPearl" r="0" cx="211.87865658961658" cy="186.9460791289614" style="fill: rgb(29, 145, 192);"></circle><circle class="fireworkPearl" r="4.380867874285301" cx="211.32020384687638" cy="194.5076055245852" style="fill: rgb(29, 145, 192);"></circle><circle class="fireworkPearl" r="4.380867874285301" cx="202.27897746155756" cy="179.93337322839736" style="fill: rgb(29, 145, 192);"></circle><circle class="fireworkPearl" r="4.380867874285301" cx="198.7478357932539" cy="192.20773321773228" style="fill: rgb(29, 145, 192);"></circle><circle class="fireworkPearl" r="4.380867874285301" cx="214.83913126170017" cy="182.22308177197067" style="fill: rgb(29, 145, 192);"></circle><circle class="fireworkPearl" r="0" cx="203.30244196711544" cy="240.07582775446915" style="fill: rgb(65, 182, 196);"></circle><circle class="fireworkPearl" r="4.380867874285301" cx="201.72527951532996" cy="221.41376581315555" style="fill: rgb(65, 182, 196);"></circle><circle class="fireworkPearl" r="4.380867874285301" cx="214.01133480357603" cy="224.867610968577" style="fill: rgb(65, 182, 196);"></circle><circle class="fireworkPearl" r="4.380867874285301" cx="228.98767265708392" cy="240.84971547050475" style="fill: rgb(65, 182, 196);"></circle><circle class="fireworkPearl" r="4.380867874285301" cx="189.2090958022386" cy="218.92682171357214" style="fill: rgb(65, 182, 196);"></circle><circle class="fireworkPearl" r="0" cx="218.0639885133268" cy="221.25664287004352" style="fill: rgb(29, 145, 192);"></circle><circle class="fireworkPearl" r="4.380867874285302" cx="227.94747107266625" cy="227.73380313773316" style="fill: rgb(29, 145, 192);"></circle><circle class="fireworkPearl" r="4.380867874285302" cx="223.16625224439497" cy="215.89178432620167" style="fill: rgb(29, 145, 192);"></circle><circle class="fireworkPearl" r="4.380867874285302" cx="210.84782208402743" cy="212.4677319763287" style="fill: rgb(29, 145, 192);"></circle><circle class="fireworkPearl" r="0" cx="270" cy="239.95730769408195" style="fill: rgb(29, 145, 192);"></circle><circle class="fireworkPearl" r="4.380867874285302" cx="276.3184883083521" cy="238.40031126671877" style="fill: rgb(29, 145, 192);"></circle><circle class="fireworkPearl" r="4.380867874285302" cx="264.0966678790704" cy="242.14804624829813" style="fill: rgb(29, 145, 192);"></circle><circle class="fireworkPearl" r="0" cx="77.12981647022258" cy="63.01435594723878" style="fill: rgb(127, 205, 187);"></circle><circle class="fireworkPearl" r="4.380867874285302" cx="70.82053141469619" cy="77.88647070767257" style="fill: rgb(127, 205, 187);"></circle><circle class="fireworkPearl" r="4.380867874285302" cx="72.61519384094514" cy="65.238619604853" style="fill: rgb(127, 205, 187);"></circle><circle class="fireworkPearl" r="0" cx="95.34211043052065" cy="45.56975559768238" style="fill: rgb(127, 205, 187);"></circle><circle class="fireworkPearl" r="4.380867874285301" cx="88.8883904013349" cy="21.851172779363303" style="fill: rgb(127, 205, 187);"></circle></g><g id="legendDividerGroup" transform="translate(390,0)" height="400"><rect class="legendDivider" height="400" width="110"></rect></g><g id="fireworkLegend" transform="translate(390,13.247252043841854)" width="110" height="320"><rect class="legendBorder" transform="translate(0,0)" width="110" height="353.5054959123163"></rect><text id="rTitle" text-anchor="middle" alignment-baseline="hanging" transform="translate(55,0)" x="0" y="0" style="fill: black; font-size: 0.8rem;">Population</text><text id="bobaValue" text-anchor="middle" alignment-baseline="hanging" transform="translate(55,15)" x="0" y="0" style="fill: black; font-size: 0.7rem;">(1 Pearl =   75)</text><g class="" cupRadius="9.521674390375004" width="19.04334878075001" height="19.04334878075001" pearlRadius="5.476084842856628" pearlCount="1" transform="translate(45.478325609624996,40)"><path class="link" d="M9.521674390375004,9.521674390375004L9.28217247899597,9.772613055446794" style="stroke: rgb(127, 205, 187);"></path><circle class="fireworkPearl" r="0" cx="9.521674390375004" cy="9.521674390375004" style="fill: rgb(127, 205, 187);"></circle><circle class="fireworkPearl" r="4.380867874285303" cx="9.28217247899597" cy="9.772613055446794" style="fill: rgb(127, 205, 187);"></circle></g><text id="0" class="legendSampleValue" text-anchor="middle" transform="translate(55,8)" x="0" y="64.04334878075001" style="fill: black; font-size: 0.7rem;">  85</text><g class="" cupRadius="24.264041908584325" width="48.52808381716865" height="48.52808381716865" pearlRadius="5.476084842856627" pearlCount="7" transform="translate(30.735958091415675,84.04334878075002)"><path class="link" d="M24.264041908584325,24.264041908584325L16.16919395264283,14.112621915360652" style="stroke: rgb(127, 205, 187);"></path><path class="link" d="M24.264041908584325,24.264041908584325L20.09560526112231,36.81952115219261" style="stroke: rgb(127, 205, 187);"></path><path class="link" d="M24.264041908584325,24.264041908584325L37.793065983566734,22.0651165627" style="stroke: rgb(127, 205, 187);"></path><path class="link" d="M24.264041908584325,24.264041908584325L10.875782389005494,25.757856874610074" style="stroke: rgb(127, 205, 187);"></path><path class="link" d="M24.264041908584325,24.264041908584325L32.50203851853939,33.70996510697322" style="stroke: rgb(127, 205, 187);"></path><path class="link" d="M24.264041908584325,24.264041908584325L28.89884723899542,12.874990757251023" style="stroke: rgb(127, 205, 187);"></path><path class="link" d="M24.264041908584325,24.264041908584325L23.606616862784307,24.51947450179777" style="stroke: rgb(127, 205, 187);"></path><circle class="fireworkPearl" r="0" cx="24.264041908584325" cy="24.264041908584325" style="fill: rgb(127, 205, 187);"></circle><circle class="fireworkPearl" r="4.380867874285302" cx="23.606616862784307" cy="24.51947450179777" style="fill: rgb(127, 205, 187);"></circle><circle class="fireworkPearl" r="4.380867874285302" cx="28.89884723899542" cy="12.874990757251023" style="fill: rgb(127, 205, 187);"></circle><circle class="fireworkPearl" r="4.380867874285302" cx="32.50203851853939" cy="33.70996510697322" style="fill: rgb(127, 205, 187);"></circle><circle class="fireworkPearl" r="4.380867874285302" cx="10.875782389005494" cy="25.757856874610074" style="fill: rgb(127, 205, 187);"></circle><circle class="fireworkPearl" r="4.380867874285302" cx="37.793065983566734" cy="22.0651165627" style="fill: rgb(127, 205, 187);"></circle><circle class="fireworkPearl" r="4.380867874285302" cx="20.09560526112231" cy="36.81952115219261" style="fill: rgb(127, 205, 187);"></circle><circle class="fireworkPearl" r="4.380867874285302" cx="16.16919395264283" cy="14.112621915360652" style="fill: rgb(127, 205, 187);"></circle></g><text id="1" class="legendSampleValue" text-anchor="middle" transform="translate(55,8)" x="0" y="137.57143259791866" style="fill: black; font-size: 0.7rem;"> 550</text><g class="" cupRadius="32.967031657198824" width="65.93406331439765" height="65.93406331439765" pearlRadius="5.4760848428566264" pearlCount="13" transform="translate(22.032968342801176,157.57143259791866)"><path class="link" d="M32.967031657198824,32.967031657198824L53.193853363104836,30.97646151302248" style="stroke: rgb(127, 205, 187);"></path><path class="link" d="M32.967031657198824,32.967031657198824L15.215938354057199,19.845123097555035" style="stroke: rgb(127, 205, 187);"></path><path class="link" d="M32.967031657198824,32.967031657198824L39.27070520127869,49.037002950841334" style="stroke: rgb(127, 205, 187);"></path><path class="link" d="M32.967031657198824,32.967031657198824L39.348233349045856,11.395749068620425" style="stroke: rgb(127, 205, 187);"></path><path class="link" d="M32.967031657198824,32.967031657198824L16.154975743007515,44.750835530900915" style="stroke: rgb(127, 205, 187);"></path><path class="link" d="M32.967031657198824,32.967031657198824L50.8206750079537,43.54397481801768" style="stroke: rgb(127, 205, 187);"></path><path class="link" d="M32.967031657198824,32.967031657198824L27.278752400271074,15.611635789973906" style="stroke: rgb(127, 205, 187);"></path><path class="link" d="M32.967031657198824,32.967031657198824L27.200078881109846,53.260284408404324" style="stroke: rgb(127, 205, 187);"></path><path class="link" d="M32.967031657198824,32.967031657198824L42.66167638226245,23.740322097036227" style="stroke: rgb(127, 205, 187);"></path><path class="link" d="M32.967031657198824,32.967031657198824L18.52750877897508,32.19139012537227" style="stroke: rgb(127, 205, 187);"></path><path class="link" d="M32.967031657198824,32.967031657198824L40.28481194391604,36.29227686255938" style="stroke: rgb(127, 205, 187);"></path><path class="link" d="M32.967031657198824,32.967031657198824L30.590247101453567,27.962291019517558" style="stroke: rgb(127, 205, 187);"></path><path class="link" d="M32.967031657198824,32.967031657198824L28.225318526221514,40.52130595780769" style="stroke: rgb(127, 205, 187);"></path><circle class="fireworkPearl" r="0" cx="32.967031657198824" cy="32.967031657198824" style="fill: rgb(127, 205, 187);"></circle><circle class="fireworkPearl" r="4.380867874285301" cx="28.225318526221514" cy="40.52130595780769" style="fill: rgb(127, 205, 187);"></circle><circle class="fireworkPearl" r="4.380867874285301" cx="30.590247101453567" cy="27.962291019517558" style="fill: rgb(127, 205, 187);"></circle><circle class="fireworkPearl" r="4.380867874285301" cx="40.28481194391604" cy="36.29227686255938" style="fill: rgb(127, 205, 187);"></circle><circle class="fireworkPearl" r="4.380867874285301" cx="18.52750877897508" cy="32.19139012537227" style="fill: rgb(127, 205, 187);"></circle><circle class="fireworkPearl" r="4.380867874285301" cx="42.66167638226245" cy="23.740322097036227" style="fill: rgb(127, 205, 187);"></circle><circle class="fireworkPearl" r="4.380867874285301" cx="27.200078881109846" cy="53.260284408404324" style="fill: rgb(127, 205, 187);"></circle><circle class="fireworkPearl" r="4.380867874285301" cx="27.278752400271074" cy="15.611635789973906" style="fill: rgb(127, 205, 187);"></circle><circle class="fireworkPearl" r="4.380867874285301" cx="50.8206750079537" cy="43.54397481801768" style="fill: rgb(127, 205, 187);"></circle><circle class="fireworkPearl" r="4.380867874285301" cx="16.154975743007515" cy="44.750835530900915" style="fill: rgb(127, 205, 187);"></circle><circle class="fireworkPearl" r="4.380867874285301" cx="39.348233349045856" cy="11.395749068620425" style="fill: rgb(127, 205, 187);"></circle><circle class="fireworkPearl" r="4.380867874285301" cx="39.27070520127869" cy="49.037002950841334" style="fill: rgb(127, 205, 187);"></circle><circle class="fireworkPearl" r="4.380867874285301" cx="15.215938354057199" cy="19.845123097555035" style="fill: rgb(127, 205, 187);"></circle><circle class="fireworkPearl" r="4.380867874285301" cx="53.193853363104836" cy="30.97646151302248" style="fill: rgb(127, 205, 187);"></circle></g><text id="2" class="legendSampleValue" text-anchor="middle" transform="translate(55,8)" x="0" y="228.5054959123163" style="fill: black; font-size: 0.7rem;">1.0k</text><g class="" cupRadius="39.99999999999999" width="79.99999999999999" height="79.99999999999999" pearlRadius="5.4760848428566264" pearlCount="19" transform="translate(15.000000000000007,248.5054959123163)"><path class="link" d="M39.99999999999999,39.99999999999999L36.577155730523295,67.51430491925416" style="stroke: rgb(127, 205, 187);"></path><path class="link" d="M39.99999999999999,39.99999999999999L60.15918612906329,21.083199169135607" style="stroke: rgb(127, 205, 187);"></path><path class="link" d="M39.99999999999999,39.99999999999999L15.178820724613745,41.40018345084987" style="stroke: rgb(127, 205, 187);"></path><path class="link" d="M39.99999999999999,39.99999999999999L59.58458771173008,56.422249352013125" style="stroke: rgb(127, 205, 187);"></path><path class="link" d="M39.99999999999999,39.99999999999999L36.522974800940844,14.279579217565805" style="stroke: rgb(127, 205, 187);"></path><path class="link" d="M39.99999999999999,39.99999999999999L25.67770133732231,60.81945000676552" style="stroke: rgb(127, 205, 187);"></path><path class="link" d="M39.99999999999999,39.99999999999999L66.02943134349914,32.44231162930141" style="stroke: rgb(127, 205, 187);"></path><path class="link" d="M39.99999999999999,39.99999999999999L15.52747833059049,28.61426249393043" style="stroke: rgb(127, 205, 187);"></path><path class="link" d="M39.99999999999999,39.99999999999999L47.835645053140425,61.46363037875702" style="stroke: rgb(127, 205, 187);"></path><path class="link" d="M39.99999999999999,39.99999999999999L47.39530981506544,20.969848598577478" style="stroke: rgb(127, 205, 187);"></path><path class="link" d="M39.99999999999999,39.99999999999999L26.09452749860637,48.0457784920314" style="stroke: rgb(127, 205, 187);"></path><path class="link" d="M39.99999999999999,39.99999999999999L59.94094825650597,43.66223312264502" style="stroke: rgb(127, 205, 187);"></path><path class="link" d="M39.99999999999999,39.99999999999999L26.75648712225852,22.518067469009956" style="stroke: rgb(127, 205, 187);"></path><path class="link" d="M39.99999999999999,39.99999999999999L36.97294546285935,54.733502205087454" style="stroke: rgb(127, 205, 187);"></path><path class="link" d="M39.99999999999999,39.99999999999999L48.91201740496098,35.278955269065094" style="stroke: rgb(127, 205, 187);"></path><path class="link" d="M39.99999999999999,39.99999999999999L26.438436085147497,35.28824897229237" style="stroke: rgb(127, 205, 187);"></path><path class="link" d="M39.99999999999999,39.99999999999999L48.20619545487936,48.67690404696526" style="stroke: rgb(127, 205, 187);"></path><path class="link" d="M39.99999999999999,39.99999999999999L37.656788420176944,29.20883530932039" style="stroke: rgb(127, 205, 187);"></path><path class="link" d="M39.99999999999999,39.99999999999999L37.34257992881136,41.964197760194665" style="stroke: rgb(127, 205, 187);"></path><circle class="fireworkPearl" r="0" cx="39.99999999999999" cy="39.99999999999999" style="fill: rgb(127, 205, 187);"></circle><circle class="fireworkPearl" r="4.380867874285301" cx="37.34257992881136" cy="41.964197760194665" style="fill: rgb(127, 205, 187);"></circle><circle class="fireworkPearl" r="4.380867874285301" cx="37.656788420176944" cy="29.20883530932039" style="fill: rgb(127, 205, 187);"></circle><circle class="fireworkPearl" r="4.380867874285301" cx="48.20619545487936" cy="48.67690404696526" style="fill: rgb(127, 205, 187);"></circle><circle class="fireworkPearl" r="4.380867874285301" cx="26.438436085147497" cy="35.28824897229237" style="fill: rgb(127, 205, 187);"></circle><circle class="fireworkPearl" r="4.380867874285301" cx="48.91201740496098" cy="35.278955269065094" style="fill: rgb(127, 205, 187);"></circle><circle class="fireworkPearl" r="4.380867874285301" cx="36.97294546285935" cy="54.733502205087454" style="fill: rgb(127, 205, 187);"></circle><circle class="fireworkPearl" r="4.380867874285301" cx="26.75648712225852" cy="22.518067469009956" style="fill: rgb(127, 205, 187);"></circle><circle class="fireworkPearl" r="4.380867874285301" cx="59.94094825650597" cy="43.66223312264502" style="fill: rgb(127, 205, 187);"></circle><circle class="fireworkPearl" r="4.380867874285301" cx="26.09452749860637" cy="48.0457784920314" style="fill: rgb(127, 205, 187);"></circle><circle class="fireworkPearl" r="4.380867874285301" cx="47.39530981506544" cy="20.969848598577478" style="fill: rgb(127, 205, 187);"></circle><circle class="fireworkPearl" r="4.380867874285301" cx="47.835645053140425" cy="61.46363037875702" style="fill: rgb(127, 205, 187);"></circle><circle class="fireworkPearl" r="4.380867874285301" cx="15.52747833059049" cy="28.61426249393043" style="fill: rgb(127, 205, 187);"></circle><circle class="fireworkPearl" r="4.380867874285301" cx="66.02943134349914" cy="32.44231162930141" style="fill: rgb(127, 205, 187);"></circle><circle class="fireworkPearl" r="4.380867874285301" cx="25.67770133732231" cy="60.81945000676552" style="fill: rgb(127, 205, 187);"></circle><circle class="fireworkPearl" r="4.380867874285301" cx="36.522974800940844" cy="14.279579217565805" style="fill: rgb(127, 205, 187);"></circle><circle class="fireworkPearl" r="4.380867874285301" cx="59.58458771173008" cy="56.422249352013125" style="fill: rgb(127, 205, 187);"></circle><circle class="fireworkPearl" r="4.380867874285301" cx="15.178820724613745" cy="41.40018345084987" style="fill: rgb(127, 205, 187);"></circle><circle class="fireworkPearl" r="4.380867874285301" cx="60.15918612906329" cy="21.083199169135607" style="fill: rgb(127, 205, 187);"></circle><circle class="fireworkPearl" r="4.380867874285301" cx="36.577155730523295" cy="67.51430491925416" style="fill: rgb(127, 205, 187);"></circle></g><text id="3" class="legendSampleValue" text-anchor="middle" transform="translate(55,8)" x="0" y="333.5054959123163" style="fill: black; font-size: 0.7rem;">1.5k</text><text id="coloringDisclaimer" transform="translate(55,8)" text-anchor="middle" x="0" y="348.5054959123163" style="font-size: 0.7rem; opacity: 0.6;">(note: coloring</text><text id="coloringDisclaimer" transform="translate(55,8)" text-anchor="middle" x="0" y="363.5054959123163" style="font-size: 0.7rem; opacity: 0.6;">is random)</text></g></svg>