<?xml version="1.0" standalone="no"?>
<?xml-stylesheet xmlns="http://www.w3.org/2000/svg" type="text/css" href="style.css"?>
<svg id="syntheticVisB" class="default" xTitle="Percent Cat Owners" yTitle="Percent Dog Owners" rTitle="Population" chartTitle="Towns in Vizzyland" width="500" height="400" xmlns="http://www.w3.org/2000/svg"><text id="chartTitle" text-anchor="middle" transform="translate(250,20)" x="0" y="0" style="fill: black; font-size: 1.2rem;">Towns in Vizzyland</text><g id="yAxis" transform="translate(50,30)" fill="none" font-size="10" font-family="sans-serif" text-anchor="end"><path class="domain" stroke="currentColor" d="M-6,280H0V40H-6"></path><g class="tick" opacity="1" transform="translate(0,280)"><line stroke="currentColor" x2="-6"></line><text fill="currentColor" x="-9" dy="0.32em">0</text></g><g class="tick" opacity="1" transform="translate(0,256)"><line stroke="currentColor" x2="-6"></line><text fill="currentColor" x="-9" dy="0.32em">10</text></g><g class="tick" opacity="1" transform="translate(0,232)"><line stroke="currentColor" x2="-6"></line><text fill="currentColor" x="-9" dy="0.32em">20</text></g><g class="tick" opacity="1" transform="translate(0,208)"><line stroke="currentColor" x2="-6"></line><text fill="currentColor" x="-9" dy="0.32em">30</text></g><g class="tick" opacity="1" transform="translate(0,184)"><line stroke="currentColor" x2="-6"></line><text fill="currentColor" x="-9" dy="0.32em">40</text></g><g class="tick" opacity="1" transform="translate(0,160)"><line stroke="currentColor" x2="-6"></line><text fill="currentColor" x="-9" dy="0.32em">50</text></g><g class="tick" opacity="1" transform="translate(0,136)"><line stroke="currentColor" x2="-6"></line><text fill="currentColor" x="-9" dy="0.32em">60</text></g><g class="tick" opacity="1" transform="translate(0,112.00000000000001)"><line stroke="currentColor" x2="-6"></line><text fill="currentColor" x="-9" dy="0.32em">70</text></g><g class="tick" opacity="1" transform="translate(0,87.99999999999999)"><line stroke="currentColor" x2="-6"></line><text fill="currentColor" x="-9" dy="0.32em">80</text></g><g class="tick" opacity="1" transform="translate(0,63.99999999999999)"><line stroke="currentColor" x2="-6"></line><text fill="currentColor" x="-9" dy="0.32em">90</text></g><g class="tick" opacity="1" transform="translate(0,40)"><line stroke="currentColor" x2="-6"></line><text fill="currentColor" x="-9" dy="0.32em">100</text></g></g><g id="xAxis" transform="translate(60,360)" fill="none" font-size="10" font-family="sans-serif" text-anchor="middle"><path class="domain" stroke="currentColor" d="M40,6V0H270V6"></path><g class="tick" opacity="1" transform="translate(40,0)"><line stroke="currentColor" y2="6"></line><text fill="currentColor" y="9" dy="0.71em">0</text></g><g class="tick" opacity="1" transform="translate(63,0)"><line stroke="currentColor" y2="6"></line><text fill="currentColor" y="9" dy="0.71em">10</text></g><g class="tick" opacity="1" transform="translate(86,0)"><line stroke="currentColor" y2="6"></line><text fill="currentColor" y="9" dy="0.71em">20</text></g><g class="tick" opacity="1" transform="translate(108.99999999999999,0)"><line stroke="currentColor" y2="6"></line><text fill="currentColor" y="9" dy="0.71em">30</text></g><g class="tick" opacity="1" transform="translate(132,0)"><line stroke="currentColor" y2="6"></line><text fill="currentColor" y="9" dy="0.71em">40</text></g><g class="tick" opacity="1" transform="translate(154.99999999999997,0)"><line stroke="currentColor" y2="6"></line><text fill="currentColor" y="9" dy="0.71em">50</text></g><g class="tick" opacity="1" transform="translate(177.99999999999997,0)"><line stroke="currentColor" y2="6"></line><text fill="currentColor" y="9" dy="0.71em">60</text></g><g class="tick" opacity="1" transform="translate(201,0)"><line stroke="currentColor" y2="6"></line><text fill="currentColor" y="9" dy="0.71em">70</text></g><g class="tick" opacity="1" transform="translate(223.99999999999997,0)"><line stroke="currentColor" y2="6"></line><text fill="currentColor" y="9" dy="0.71em">80</text></g><g class="tick" opacity="1" transform="translate(246.99999999999997,0)"><line stroke="currentColor" y2="6"></line><text fill="currentColor" y="9" dy="0.71em">90</text></g><g class="tick" opacity="1" transform="translate(269.99999999999994,0)"><line stroke="currentColor" y2="6"></line><text fill="currentColor" y="9" dy="0.71em">100</text></g></g><g id="labels"><text id="xTitle" text-anchor="middle" transform="translate(250,350)" x="0" y="40" style="fill: black; font-size: 0.8rem;">Percent Cat Owners</text><g id="group-yTitle" transform="translate(60,190)"><text id="yTitle" text-anchor="middle" transform="rotate(-90)" y="-45" style="fill: black; font-size: 0.8rem;">Percent Dog Owners</text></g></g><g id="quadrant_lines" transform="translate(60,30)"><line id="verticalQuadrantLine" x1="155" y1="20" x2="155" y2="300" class="quadrantLine"></line><line id="horizontalQuadrantLine" x1="20" y1="160" x2="290" y2="160" class="quadrantLine"></line></g><g id="chart" transform="translate(60,30)"><g class="bobaCup bright" cupRadius="40" width="80" height="80" pearlRadius="5.476084842856627" pearlCount="20" transform="translate(221.5587760927063,189.52834901459858)"><circle class="pool" r="40" cx="40" cy="40" style="stroke-width: 1; fill: rgb(29, 145, 192);"></circle><circle class="pearl" r="4.380867874285302" cx="43.744254273596496" cy="39.680254153566786"></circle><circle class="pearl" r="4.380867874285302" cx="28.437209747743065" cy="43.05253710643598"></circle><circle class="pearl" r="4.380867874285302" cx="40.43982566312289" cy="22.428744625985598"></circle><circle class="pearl" r="4.380867874285302" cx="50.20908333634776" cy="54.02865153787438"></circle><circle class="pearl" r="4.380867874285302" cx="10.051659708083633" cy="28.29727323861887"></circle><circle class="pearl" r="4.380867874285302" cx="54.568634257838156" cy="28.474978999778322"></circle><circle class="pearl" r="4.380867874285302" cx="34.86985197188746" cy="57.27414673053024"></circle><circle class="pearl" r="4.380867874285302" cx="25.86891319552522" cy="27.890168941053528"></circle><circle class="pearl" r="4.380867874285302" cx="61.15160097422234" cy="42.80174300536202"></circle><circle class="pearl" r="4.380867874285302" cx="18.26225020160879" cy="55.044406095846384"></circle><circle class="pearl" r="4.380867874285302" cx="49.201230962870156" cy="9.37411224623171"></circle><circle class="pearl" r="4.380867874285302" cx="57.24604509085917" cy="67.789742616149"></circle><circle class="pearl" r="4.380867874285302" cx="17.173546293154654" cy="15.45402629711672"></circle><circle class="pearl" r="4.380867874285302" cx="70.48058796122504" cy="30.204398621188155"></circle><circle class="pearl" r="4.380867874285302" cx="24.105511537462792" cy="68.4050275837443"></circle><circle class="pearl" r="4.380867874285302" cx="32.2176809243996" cy="9.065805646706231"></circle><circle class="pearl" r="4.380867874285302" cx="67.91435300458772" cy="56.98281099664498"></circle><circle class="pearl" r="4.380867874285302" cx="8.454573921718996" cy="43.49667687179387"></circle><circle class="pearl" r="4.380867874285302" cx="63.49047240097863" cy="15.925564903447587"></circle><circle class="pearl" r="4.380867874285302" cx="41.816739339723085" cy="71.65727547151195"></circle></g><g class="bobaCup bright" cupRadius="38.96523519128279" width="77.93047038256557" height="77.93047038256557" pearlRadius="5.476084842856627" pearlCount="18" transform="translate(198.56472880979845,241.03476480871723)"><circle class="pool" r="38.96523519128279" cx="38.96523519128279" cy="38.96523519128279" style="stroke-width: 1; fill: rgb(65, 182, 196);"></circle><circle class="pearl" r="4.380867874285302" cx="40.63831833001209" cy="37.981921740172595"></circle><circle class="pearl" r="4.380867874285302" cx="28.343293091394948" cy="48.20712004399172"></circle><circle class="pearl" r="4.380867874285302" cx="38.07618682033604" cy="22.390400928865557"></circle><circle class="pearl" r="4.380867874285302" cx="43.33272629406091" cy="53.5462200722424"></circle><circle class="pearl" r="4.380867874285302" cx="24.836377414705186" cy="32.60776435916136"></circle><circle class="pearl" r="4.380867874285302" cx="54.42998656478148" cy="29.89702182275386"></circle><circle class="pearl" r="4.380867874285302" cx="33.20413811011161" cy="65.9962803947072"></circle><circle class="pearl" r="4.380867874285302" cx="28.444140102506175" cy="9.74873778625544"></circle><circle class="pearl" r="4.380867874285302" cx="57.345206600476466" cy="45.76549454700965"></circle><circle class="pearl" r="4.380867874285302" cx="12.36207840272775" cy="48.06330292789623"></circle><circle class="pearl" r="4.380867874285302" cx="61.89056223866831" cy="15.75923914221071"></circle><circle class="pearl" r="4.380867874285302" cx="49.093370551982034" cy="68.28971633237182"></circle><circle class="pearl" r="4.380867874285302" cx="14.680716040509466" cy="17.60067577827988"></circle><circle class="pearl" r="4.380867874285302" cx="69.46011778935701" cy="35.341093175390625"></circle><circle class="pearl" r="4.380867874285302" cx="17.470244423797826" cy="63.1638645097095"></circle><circle class="pearl" r="4.380867874285302" cx="46.99274262351373" cy="9.137313991231117"></circle><circle class="pearl" r="4.380867874285302" cx="63.006069454957725" cy="60.696927055650946"></circle><circle class="pearl" r="4.380867874285302" cx="8.839572500410455" cy="32.51179920426296"></circle></g><g class="bobaCup bright" cupRadius="36.945119377716225" width="73.89023875543245" height="73.89023875543245" pearlRadius="5.476084842856627" pearlCount="17" transform="translate(45.37912444004661,106.08454784215814)"><circle class="pool" r="36.945119377716225" cx="36.945119377716225" cy="36.945119377716225" style="stroke-width: 1; fill: rgb(65, 182, 196);"></circle><circle class="pearl" r="4.380867874285302" cx="36.88577029581675" cy="36.940163522401896"></circle><circle class="pearl" r="4.380867874285302" cx="27.407355855215478" cy="49.29330508346943"></circle><circle class="pearl" r="4.380867874285302" cx="31.050966443778826" cy="22.44516172740286"></circle><circle class="pearl" r="4.380867874285302" cx="42.57879684282735" cy="51.48509570134315"></circle><circle class="pearl" r="4.380867874285302" cx="21.647030688371636" cy="35.04497168157441"></circle><circle class="pearl" r="4.380867874285302" cx="46.202806081761025" cy="24.467601546393617"></circle><circle class="pearl" r="4.380867874285302" cx="31.66731301542439" cy="64.82544908651224"></circle><circle class="pearl" r="4.380867874285302" cx="19.31964091323914" cy="12.77682061362271"></circle><circle class="pearl" r="4.380867874285302" cx="52.12132767463788" cy="38.818324290732434"></circle><circle class="pearl" r="4.380867874285302" cx="9.148294641355328" cy="44.81002005566569"></circle><circle class="pearl" r="4.380867874285302" cx="58.18298840949945" cy="15.015873404440498"></circle><circle class="pearl" r="4.380867874285302" cx="54.79036133833689" cy="60.99315800458438"></circle><circle class="pearl" r="4.380867874285302" cx="10.473495729002622" cy="24.464116162952504"></circle><circle class="pearl" r="4.380867874285302" cx="64.75396118564419" cy="29.13557859433835"></circle><circle class="pearl" r="4.380867874285302" cx="15.715211792128905" cy="58.87995691416568"></circle><circle class="pearl" r="4.380867874285302" cx="41.72020389181545" cy="8.611331241411165"></circle><circle class="pearl" r="4.380867874285302" cx="63.50959739339703" cy="49.1643319746517"></circle></g><g class="bobaCup bright" cupRadius="32.85549831581247" width="65.71099663162494" height="65.71099663162494" pearlRadius="5.476084842856627" pearlCount="13" transform="translate(127.48700328006171,161.1737101860577)"><circle class="pool" r="32.85549831581247" cx="32.85549831581247" cy="32.85549831581247" style="stroke-width: 1; fill: rgb(65, 182, 196);"></circle><circle class="pearl" r="4.380867874285302" cx="42.47454617124616" cy="36.00122875559435"></circle><circle class="pearl" r="4.380867874285302" cx="28.75969063297836" cy="42.896805339920896"></circle><circle class="pearl" r="4.380867874285302" cx="34.05043107917114" cy="22.904504493197287"></circle><circle class="pearl" r="4.380867874285302" cx="50.89935323342001" cy="49.55740225125627"></circle><circle class="pearl" r="4.380867874285302" cx="19.916541560455762" cy="29.72583075334835"></circle><circle class="pearl" r="4.380867874285302" cx="54.721953889870086" cy="19.840835177018285"></circle><circle class="pearl" r="4.380867874285302" cx="17.64813419078094" cy="53.67826594161269"></circle><circle class="pearl" r="4.380867874285302" cx="27.04549823845401" cy="8.819231979971725"></circle><circle class="pearl" r="4.380867874285302" cx="57.31223634717288" cy="35.38237753682504"></circle><circle class="pearl" r="4.380867874285302" cx="9.370511003600825" cy="41.16852410711371"></circle><circle class="pearl" r="4.380867874285302" cx="42.810362484004195" cy="9.845853304064441"></circle><circle class="pearl" r="4.380867874285302" cx="36.86002872523354" cy="57.16459472106953"></circle><circle class="pearl" r="4.380867874285302" cx="13.26960534687559" cy="15.483680065697913"></circle></g><g class="bobaCup bright" cupRadius="31.55697315796647" width="63.11394631593294" height="63.11394631593294" pearlRadius="5.476084842856627" pearlCount="12" transform="translate(10.74990245055729,60.74668678978695)"><circle class="pool" r="31.55697315796647" cx="31.55697315796647" cy="31.55697315796647" style="stroke-width: 1; fill: rgb(29, 145, 192);"></circle><circle class="pearl" r="4.380867874285302" cx="34.818838452713116" cy="22.59408705631029"></circle><circle class="pearl" r="4.380867874285302" cx="22.589885333643362" cy="34.90630245491818"></circle><circle class="pearl" r="4.380867874285302" cx="28.655067729599416" cy="8.435155943468324"></circle><circle class="pearl" r="4.380867874285302" cx="37.80278211587309" cy="37.868587649434005"></circle><circle class="pearl" r="4.380867874285302" cx="8.436301900548475" cy="28.64268538478062"></circle><circle class="pearl" r="4.380867874285302" cx="54.34901425728635" cy="26.168319664861176"></circle><circle class="pearl" r="4.380867874285302" cx="26.496355498120664" cy="54.404085315846494"></circle><circle class="pearl" r="4.380867874285302" cx="13.828112494516837" cy="13.752289023452501"></circle><circle class="pearl" r="4.380867874285302" cx="53.035287561789595" cy="41.997681848296644"></circle><circle class="pearl" r="4.380867874285302" cx="12.395300701154017" cy="47.10109276669968"></circle><circle class="pearl" r="4.380867874285302" cx="46.847034677226986" cy="12.253047427256416"></circle><circle class="pearl" r="4.380867874285302" cx="42.34185958814014" cy="52.912377167130934"></circle></g><g class="bobaCup bright" cupRadius="28.519159959218456" width="57.03831991843691" height="57.03831991843691" pearlRadius="5.476084842856628" pearlCount="10" transform="translate(213.68036664433757,11.480840040781544)"><circle class="pool" r="28.519159959218456" cx="28.519159959218456" cy="28.519159959218456" style="stroke-width: 1; fill: rgb(127, 205, 187);"></circle><circle class="pearl" r="4.380867874285303" cx="34.22913271139512" cy="23.298997791173512"></circle><circle class="pearl" r="4.380867874285303" cx="23.417898036875737" cy="33.185491110155326"></circle><circle class="pearl" r="4.380867874285303" cx="28.80565348641308" cy="8.302885500439508"></circle><circle class="pearl" r="4.380867874285303" cx="43.535145706551525" cy="44.463592673914526"></circle><circle class="pearl" r="4.380867874285303" cx="8.314305171039308" cy="27.662845711712556"></circle><circle class="pearl" r="4.380867874285303" cx="43.656352170961476" cy="12.650213438085824"></circle><circle class="pearl" r="4.380867874285303" cx="28.149004240816918" cy="48.734471198624185"></circle><circle class="pearl" r="4.380867874285303" cx="13.424970937366576" cy="12.623335029857241"></circle><circle class="pearl" r="4.380867874285303" cx="48.721442603592834" cy="29.45719625214533"></circle><circle class="pearl" r="4.380867874285303" cx="13.374847235461207" cy="44.38364565675498"></circle></g><g class="bobaCup bright" cupRadius="27.211311985033596" width="54.42262397006719" height="54.42262397006719" pearlRadius="5.476084842856626" pearlCount="9" transform="translate(78.3229792324168,131.94757555916243)"><circle class="pool" r="27.211311985033596" cx="27.211311985033596" cy="27.211311985033596" style="stroke-width: 1; fill: rgb(29, 145, 192);"></circle><circle class="pearl" r="4.3808678742853004" cx="31.134773245041124" cy="23.310275582371787"></circle><circle class="pearl" r="4.3808678742853004" cx="20.335127625593064" cy="34.06625359619619"></circle><circle class="pearl" r="4.3808678742853004" cx="27.349322391377314" cy="8.30179644017051"></circle><circle class="pearl" r="4.3808678742853004" cx="41.742285046341586" cy="41.91652373455792"></circle><circle class="pearl" r="4.3808678742853004" cx="8.303017955833415" cy="26.918869490284592"></circle><circle class="pearl" r="4.3808678742853004" cx="41.55945416751954" cy="12.391635721641613"></circle><circle class="pearl" r="4.3808678742853004" cx="27.435525143718355" cy="46.1202537722055"></circle><circle class="pearl" r="4.3808678742853004" cx="12.834800396683555" cy="12.409264886073256"></circle><circle class="pearl" r="4.3808678742853004" cx="46.12115686408054" cy="27.244834572527978"></circle></g><g class="bobaCup bright" cupRadius="25.00899421283174" width="50.01798842566348" height="50.01798842566348" pearlRadius="5.4760848428566264" pearlCount="7" transform="translate(14.991005787168259,65.83660119833336)"><circle class="pool" r="25.00899421283174" cx="25.00899421283174" cy="25.00899421283174" style="stroke-width: 1; fill: rgb(127, 205, 187);"></circle><circle class="pearl" r="4.380867874285301" cx="27.68216074923194" cy="25.725144332100527"></circle><circle class="pearl" r="4.380867874285301" cx="11.150404331727987" cy="30.57376714124853"></circle><circle class="pearl" r="4.380867874285301" cx="25.2730174329518" cy="8.30284015979523"></circle><circle class="pearl" r="4.380867874285301" cx="38.23388117989547" cy="37.73953861781958"></circle><circle class="pearl" r="4.380867874285301" cx="10.573221937243593" cy="14.594164601290846"></circle><circle class="pearl" r="4.380867874285301" cx="39.70594890548933" cy="15.184365156712598"></circle><circle class="pearl" r="4.380867874285301" cx="22.719691594453217" cy="41.61154111135317"></circle></g><g class="bobaCup bright" cupRadius="24.15768921546328" width="48.31537843092656" height="48.31537843092656" pearlRadius="5.4760848428566264" pearlCount="7" transform="translate(245.84231078453672,218.12227187042544)"><circle class="pool" r="24.15768921546328" cx="24.15768921546328" cy="24.15768921546328" style="stroke-width: 1; fill: rgb(127, 205, 187);"></circle><circle class="pearl" r="4.380867874285301" cx="24.768880860556965" cy="24.250983441354492"></circle><circle class="pearl" r="4.380867874285301" cx="9.080308469264642" cy="30.24245600041427"></circle><circle class="pearl" r="4.380867874285301" cx="25.196522772762457" cy="8.323792851938078"></circle><circle class="pearl" r="4.380867874285301" cx="37.163056495957115" cy="35.54248770206797"></circle><circle class="pearl" r="4.380867874285301" cx="10.399210860867415" cy="14.311183970891706"></circle><circle class="pearl" r="4.380867874285301" cx="38.812255210738364" cy="16.633365955835547"></circle><circle class="pearl" r="4.380867874285301" cx="21.783675429740352" cy="39.89699995887759"></circle></g><g class="bobaCup bright" cupRadius="23.164883483628923" width="46.32976696725785" height="46.32976696725785" pearlRadius="5.476084842856627" pearlCount="6" transform="translate(124.53039695996682,137.37794898199186)"><circle class="pool" r="23.164883483628923" cx="23.164883483628923" cy="23.164883483628923" style="stroke-width: 1; fill: rgb(29, 145, 192);"></circle><circle class="pearl" r="4.380867874285302" cx="24.011794756545033" cy="23.532268672563976"></circle><circle class="pearl" r="4.380867874285302" cx="13.54800664619414" cy="35.93776991518609"></circle><circle class="pearl" r="4.380867874285302" cx="18.474298578473253" cy="8.781307567900711"></circle><circle class="pearl" r="4.380867874285302" cx="34.79976194068542" cy="34.89444873582452"></circle><circle class="pearl" r="4.380867874285302" cx="8.413257835226162" cy="20.891627381327595"></circle><circle class="pearl" r="4.380867874285302" cx="34.86532717185266" cy="11.480012178269229"></circle></g><g class="bobaCup bright" cupRadius="17.523014536589166" width="35.04602907317833" height="35.04602907317833" pearlRadius="5.476084842856627" pearlCount="3" transform="translate(161.82372447164832,231.30282919054494)"><circle class="pool" r="17.523014536589166" cx="17.523014536589166" cy="17.523014536589166" style="stroke-width: 1; fill: rgb(29, 145, 192);"></circle><circle class="pearl" r="4.380867874285302" cx="25.740253612574783" cy="20.414762819669864"></circle><circle class="pearl" r="4.380867874285302" cx="9.912099584309981" cy="23.66987247435875"></circle><circle class="pearl" r="4.380867874285302" cx="16.55153876448033" cy="7.328396485570629"></circle></g><g class="bobaCup bright" cupRadius="15.35248213359935" width="30.7049642671987" height="30.7049642671987" pearlRadius="5.476084842856627" pearlCount="2" transform="translate(86.9263556651261,194.7764143066482)"><circle class="pool" r="15.35248213359935" cx="15.35248213359935" cy="15.35248213359935" style="stroke-width: 1; fill: rgb(127, 205, 187);"></circle><circle class="pearl" r="4.380867874285302" cx="22.604085640483557" cy="13.889805759697444"></circle><circle class="pearl" r="4.380867874285302" cx="8.779626060398714" cy="21.925338206799985"></circle></g><g class="bobaCup bright" cupRadius="14.78480120190174" width="29.56960240380348" height="29.56960240380348" pearlRadius="5.476084842856628" pearlCount="2" transform="translate(171.57123267989613,234.30861178479822)"><circle class="pool" r="14.78480120190174" cx="14.78480120190174" cy="14.78480120190174" style="stroke-width: 1; fill: rgb(127, 205, 187);"></circle><circle class="pearl" r="4.380867874285303" cx="22.042232417191958" cy="12.210033736885755"></circle><circle class="pearl" r="4.380867874285303" cx="8.639231177896384" cy="20.930373583885284"></circle></g></g><g id="legendDividerGroup" transform="translate(390,0)" height="400"><rect class="legendDivider" height="400" width="110"></rect></g><g id="legend" transform="translate(390,5.624674406319656)" width="110" height="320"><rect class="legendBorder" transform="translate(0,0)" width="110" height="368.7506511873607"></rect><text id="rTitle" text-anchor="middle" alignment-baseline="hanging" transform="translate(55,0)" x="0" y="0" style="fill: black; font-size: 0.8rem;">Population</text><text id="bobaValue" text-anchor="middle" alignment-baseline="hanging" transform="translate(55,15)" x="0" y="0" style="fill: black; font-size: 0.7rem;">(1 Pearl =   75)</text><g class="bright" cupRadius="14.78480120190174" width="29.56960240380348" height="29.56960240380348" pearlRadius="5.476084842856628" pearlCount="2" transform="translate(40.21519879809826,40)"><circle class="pool" r="14.78480120190174" cx="14.78480120190174" cy="14.78480120190174" style="stroke-width: 1; fill: rgb(29, 145, 192);"></circle><circle class="pearl" r="4.380867874285303" cx="22.042232417191958" cy="12.210033736885755"></circle><circle class="pearl" r="4.380867874285303" cx="8.639231177896384" cy="20.930373583885284"></circle></g><text id="0" class="legendSampleValue" text-anchor="middle" transform="translate(55,8)" x="0" y="74.56960240380349" style="fill: black; font-size: 0.7rem;"> 200</text><g class="bright" cupRadius="25.97028171215006" width="51.94056342430012" height="51.94056342430012" pearlRadius="5.476084842856627" pearlCount="8" transform="translate(29.02971828784994,94.56960240380349)"><circle class="pool" r="25.97028171215006" cx="25.97028171215006" cy="25.97028171215006" style="stroke-width: 1; fill: rgb(29, 145, 192);"></circle><circle class="pearl" r="4.380867874285302" cx="28.431039207226775" cy="25.61077971586463"></circle><circle class="pearl" r="4.380867874285302" cx="15.084353346509072" cy="41.24747168349054"></circle><circle class="pearl" r="4.380867874285302" cx="28.366954143567767" cy="8.41227161148889"></circle><circle class="pearl" r="4.380867874285302" cx="42.77291233211351" cy="32.621660991305326"></circle><circle class="pearl" r="4.380867874285302" cx="8.324237595680675" cy="27.05806162590798"></circle><circle class="pearl" r="4.380867874285302" cx="41.91969950795349" cy="16.677751637211298"></circle><circle class="pearl" r="4.380867874285302" cx="30.88691152610364" cy="43.16946825658216"></circle><circle class="pearl" r="4.380867874285302" cx="12.811461738186875" cy="11.881976292568286"></circle></g><text id="1" class="legendSampleValue" text-anchor="middle" transform="translate(55,8)" x="0" y="151.5101658281036" style="fill: black; font-size: 0.7rem;"> 630</text><g class="bright" cupRadius="33.62024267962855" width="67.2404853592571" height="67.2404853592571" pearlRadius="5.476084842856628" pearlCount="14" transform="translate(21.379757320371453,171.5101658281036)"><circle class="pool" r="33.62024267962855" cx="33.62024267962855" cy="33.62024267962855" style="stroke-width: 1; fill: rgb(29, 145, 192);"></circle><circle class="pearl" r="4.380867874285303" cx="41.74984577622647" cy="25.4829956647074"></circle><circle class="pearl" r="4.380867874285303" cx="25.529688848390485" cy="41.71244502862352"></circle><circle class="pearl" r="4.380867874285303" cx="25.89426088716385" cy="25.826324302573"></circle><circle class="pearl" r="4.380867874285303" cx="41.40813468920495" cy="41.34018729579217"></circle><circle class="pearl" r="4.380867874285303" cx="10.219836603591318" cy="37.114100280230915"></circle><circle class="pearl" r="4.380867874285303" cx="52.814417119488006" cy="14.319073582998232"></circle><circle class="pearl" r="4.380867874285303" cx="29.280693965771658" cy="58.657797929153894"></circle><circle class="pearl" r="4.380867874285303" cx="22.166823690740703" cy="10.31251465684954"></circle><circle class="pearl" r="4.380867874285303" cx="56.89815909937359" cy="45.155603884506135"></circle><circle class="pearl" r="4.380867874285303" cx="14.421837876301122" cy="52.918469605421386"></circle><circle class="pearl" r="4.380867874285303" cx="38.04686663180983" cy="8.594137198125537"></circle><circle class="pearl" r="4.380867874285303" cx="45.955159233243464" cy="56.59451446287974"></circle><circle class="pearl" r="4.380867874285303" cx="10.697032155174252" cy="21.156635087171374"></circle><circle class="pearl" r="4.380867874285303" cx="58.64885232139519" cy="29.212513300378035"></circle></g><text id="2" class="legendSampleValue" text-anchor="middle" transform="translate(55,8)" x="0" y="243.7506511873607" style="fill: black; font-size: 0.7rem;">1.1k</text><g class="bright" cupRadius="40" width="80" height="80" pearlRadius="5.476084842856627" pearlCount="20" transform="translate(15,263.7506511873607)"><circle class="pool" r="40" cx="40" cy="40" style="stroke-width: 1; fill: rgb(29, 145, 192);"></circle><circle class="pearl" r="4.380867874285302" cx="43.744254273596496" cy="39.680254153566786"></circle><circle class="pearl" r="4.380867874285302" cx="28.437209747743065" cy="43.05253710643598"></circle><circle class="pearl" r="4.380867874285302" cx="40.43982566312289" cy="22.428744625985598"></circle><circle class="pearl" r="4.380867874285302" cx="50.20908333634776" cy="54.02865153787438"></circle><circle class="pearl" r="4.380867874285302" cx="10.051659708083633" cy="28.29727323861887"></circle><circle class="pearl" r="4.380867874285302" cx="54.568634257838156" cy="28.474978999778322"></circle><circle class="pearl" r="4.380867874285302" cx="34.86985197188746" cy="57.27414673053024"></circle><circle class="pearl" r="4.380867874285302" cx="25.86891319552522" cy="27.890168941053528"></circle><circle class="pearl" r="4.380867874285302" cx="61.15160097422234" cy="42.80174300536202"></circle><circle class="pearl" r="4.380867874285302" cx="18.26225020160879" cy="55.044406095846384"></circle><circle class="pearl" r="4.380867874285302" cx="49.201230962870156" cy="9.37411224623171"></circle><circle class="pearl" r="4.380867874285302" cx="57.24604509085917" cy="67.789742616149"></circle><circle class="pearl" r="4.380867874285302" cx="17.173546293154654" cy="15.45402629711672"></circle><circle class="pearl" r="4.380867874285302" cx="70.48058796122504" cy="30.204398621188155"></circle><circle class="pearl" r="4.380867874285302" cx="24.105511537462792" cy="68.4050275837443"></circle><circle class="pearl" r="4.380867874285302" cx="32.2176809243996" cy="9.065805646706231"></circle><circle class="pearl" r="4.380867874285302" cx="67.91435300458772" cy="56.98281099664498"></circle><circle class="pearl" r="4.380867874285302" cx="8.454573921718996" cy="43.49667687179387"></circle><circle class="pearl" r="4.380867874285302" cx="63.49047240097863" cy="15.925564903447587"></circle><circle class="pearl" r="4.380867874285302" cx="41.816739339723085" cy="71.65727547151195"></circle></g><text id="3" class="legendSampleValue" text-anchor="middle" transform="translate(55,8)" x="0" y="348.7506511873607" style="fill: black; font-size: 0.7rem;">1.5k</text><text id="coloringDisclaimer" transform="translate(55,8)" text-anchor="middle" x="0" y="363.7506511873607" style="font-size: 0.7rem; opacity: 0.6;">(note: coloring</text><text id="coloringDisclaimer" transform="translate(55,8)" text-anchor="middle" x="0" y="378.7506511873607" style="font-size: 0.7rem; opacity: 0.6;">is random)</text></g></svg>