<?xml version="1.0" standalone="no"?>
<?xml-stylesheet xmlns="http://www.w3.org/2000/svg" type="text/css" href="style.css"?>
<svg id="syntheticVisB" class="default" xTitle="Percent Cat Owners" yTitle="Percent Dog Owners" rTitle="Population" chartTitle="Towns in Vizzyland" width="500" height="400" xmlns="http://www.w3.org/2000/svg"><text id="chartTitle" text-anchor="middle" transform="translate(250,20)" x="0" y="0" style="fill: black; font-size: 1.2rem;">Towns in Vizzyland</text><g id="yAxis" transform="translate(50,30)" fill="none" font-size="10" font-family="sans-serif" text-anchor="end"><path class="domain" stroke="currentColor" d="M-6,280H0V40H-6"></path><g class="tick" opacity="1" transform="translate(0,280)"><line stroke="currentColor" x2="-6"></line><text fill="currentColor" x="-9" dy="0.32em">0</text></g><g class="tick" opacity="1" transform="translate(0,256)"><line stroke="currentColor" x2="-6"></line><text fill="currentColor" x="-9" dy="0.32em">10</text></g><g class="tick" opacity="1" transform="translate(0,232)"><line stroke="currentColor" x2="-6"></line><text fill="currentColor" x="-9" dy="0.32em">20</text></g><g class="tick" opacity="1" transform="translate(0,208)"><line stroke="currentColor" x2="-6"></line><text fill="currentColor" x="-9" dy="0.32em">30</text></g><g class="tick" opacity="1" transform="translate(0,184)"><line stroke="currentColor" x2="-6"></line><text fill="currentColor" x="-9" dy="0.32em">40</text></g><g class="tick" opacity="1" transform="translate(0,160)"><line stroke="currentColor" x2="-6"></line><text fill="currentColor" x="-9" dy="0.32em">50</text></g><g class="tick" opacity="1" transform="translate(0,136)"><line stroke="currentColor" x2="-6"></line><text fill="currentColor" x="-9" dy="0.32em">60</text></g><g class="tick" opacity="1" transform="translate(0,112.00000000000001)"><line stroke="currentColor" x2="-6"></line><text fill="currentColor" x="-9" dy="0.32em">70</text></g><g class="tick" opacity="1" transform="translate(0,87.99999999999999)"><line stroke="currentColor" x2="-6"></line><text fill="currentColor" x="-9" dy="0.32em">80</text></g><g class="tick" opacity="1" transform="translate(0,63.99999999999999)"><line stroke="currentColor" x2="-6"></line><text fill="currentColor" x="-9" dy="0.32em">90</text></g><g class="tick" opacity="1" transform="translate(0,40)"><line stroke="currentColor" x2="-6"></line><text fill="currentColor" x="-9" dy="0.32em">100</text></g></g><g id="xAxis" transform="translate(60,360)" fill="none" font-size="10" font-family="sans-serif" text-anchor="middle"><path class="domain" stroke="currentColor" d="M40,6V0H270V6"></path><g class="tick" opacity="1" transform="translate(56.2151773004868,0)"><line stroke="currentColor" y2="6"></line><text fill="currentColor" y="9" dy="0.71em">10</text></g><g class="tick" opacity="1" transform="translate(79.96904648932161,0)"><line stroke="currentColor" y2="6"></line><text fill="currentColor" y="9" dy="0.71em">20</text></g><g class="tick" opacity="1" transform="translate(103.72291567815643,0)"><line stroke="currentColor" y2="6"></line><text fill="currentColor" y="9" dy="0.71em">30</text></g><g class="tick" opacity="1" transform="translate(127.47678486699122,0)"><line stroke="currentColor" y2="6"></line><text fill="currentColor" y="9" dy="0.71em">40</text></g><g class="tick" opacity="1" transform="translate(151.23065405582602,0)"><line stroke="currentColor" y2="6"></line><text fill="currentColor" y="9" dy="0.71em">50</text></g><g class="tick" opacity="1" transform="translate(174.98452324466083,0)"><line stroke="currentColor" y2="6"></line><text fill="currentColor" y="9" dy="0.71em">60</text></g><g class="tick" opacity="1" transform="translate(198.73839243349565,0)"><line stroke="currentColor" y2="6"></line><text fill="currentColor" y="9" dy="0.71em">70</text></g><g class="tick" opacity="1" transform="translate(222.49226162233046,0)"><line stroke="currentColor" y2="6"></line><text fill="currentColor" y="9" dy="0.71em">80</text></g><g class="tick" opacity="1" transform="translate(246.24613081116527,0)"><line stroke="currentColor" y2="6"></line><text fill="currentColor" y="9" dy="0.71em">90</text></g></g><g id="labels"><text id="xTitle" text-anchor="middle" transform="translate(250,350)" x="0" y="40" style="fill: black; font-size: 0.8rem;">Percent Cat Owners</text><g id="group-yTitle" transform="translate(60,190)"><text id="yTitle" text-anchor="middle" transform="rotate(-90)" y="-45" style="fill: black; font-size: 0.8rem;">Percent Dog Owners</text></g></g><g id="quadrant_lines" transform="translate(60,30)"><line id="verticalQuadrantLine" x1="155" y1="20" x2="155" y2="300" class="quadrantLine"></line><line id="horizontalQuadrantLine" x1="20" y1="160" x2="290" y2="160" class="quadrantLine"></line></g><g id="chart" transform="translate(60,30)"><g class="bobaCup bright" cupRadius="40" width="80" height="80" pearlRadius="5.476084842856627" pearlCount="20" transform="translate(133.40015167876527,30.786407147241675)"><circle class="pool" r="40" cx="40" cy="40" style="stroke-width: 1; fill: rgb(65, 182, 196);"></circle><circle class="pearl" r="4.380867874285302" cx="43.744254273596496" cy="39.680254153566786"></circle><circle class="pearl" r="4.380867874285302" cx="28.437209747743065" cy="43.05253710643598"></circle><circle class="pearl" r="4.380867874285302" cx="40.43982566312289" cy="22.428744625985598"></circle><circle class="pearl" r="4.380867874285302" cx="50.20908333634776" cy="54.02865153787438"></circle><circle class="pearl" r="4.380867874285302" cx="10.051659708083633" cy="28.29727323861887"></circle><circle class="pearl" r="4.380867874285302" cx="54.568634257838156" cy="28.474978999778322"></circle><circle class="pearl" r="4.380867874285302" cx="34.86985197188746" cy="57.27414673053024"></circle><circle class="pearl" r="4.380867874285302" cx="25.86891319552522" cy="27.890168941053528"></circle><circle class="pearl" r="4.380867874285302" cx="61.15160097422234" cy="42.80174300536202"></circle><circle class="pearl" r="4.380867874285302" cx="18.26225020160879" cy="55.044406095846384"></circle><circle class="pearl" r="4.380867874285302" cx="49.201230962870156" cy="9.37411224623171"></circle><circle class="pearl" r="4.380867874285302" cx="57.24604509085917" cy="67.789742616149"></circle><circle class="pearl" r="4.380867874285302" cx="17.173546293154654" cy="15.45402629711672"></circle><circle class="pearl" r="4.380867874285302" cx="70.48058796122504" cy="30.204398621188155"></circle><circle class="pearl" r="4.380867874285302" cx="24.105511537462792" cy="68.4050275837443"></circle><circle class="pearl" r="4.380867874285302" cx="32.2176809243996" cy="9.065805646706231"></circle><circle class="pearl" r="4.380867874285302" cx="67.91435300458772" cy="56.98281099664498"></circle><circle class="pearl" r="4.380867874285302" cx="8.454573921718996" cy="43.49667687179387"></circle><circle class="pearl" r="4.380867874285302" cx="63.49047240097863" cy="15.925564903447587"></circle><circle class="pearl" r="4.380867874285302" cx="41.816739339723085" cy="71.65727547151195"></circle></g><g class="bobaCup bright" cupRadius="36.795910301928075" width="73.59182060385615" height="73.59182060385615" pearlRadius="5.476084842856628" pearlCount="16" transform="translate(18.471019705085794,69.78413284673036)"><circle class="pool" r="36.795910301928075" cx="36.795910301928075" cy="36.795910301928075" style="stroke-width: 1; fill: rgb(29, 145, 192);"></circle><circle class="pearl" r="4.380867874285303" cx="40.67008579348601" cy="40.52229553145737"></circle><circle class="pearl" r="4.380867874285303" cx="27.545939669683527" cy="48.75165468686807"></circle><circle class="pearl" r="4.380867874285303" cx="33.21412932687842" cy="23.226727725334616"></circle><circle class="pearl" r="4.380867874285303" cx="42.78758377784274" cy="56.15284832262659"></circle><circle class="pearl" r="4.380867874285303" cx="21.575015928496505" cy="34.072855619049285"></circle><circle class="pearl" r="4.380867874285303" cx="48.479425736212605" cy="27.240271751129626"></circle><circle class="pearl" r="4.380867874285303" cx="29.5827925502765" cy="64.57645308108418"></circle><circle class="pearl" r="4.380867874285303" cx="23.18368229064983" cy="10.911888157389377"></circle><circle class="pearl" r="4.380867874285303" cx="56.41048276871951" cy="42.75356304636507"></circle><circle class="pearl" r="4.380867874285303" cx="8.980854571836268" cy="43.83418315164483"></circle><circle class="pearl" r="4.380867874285303" cx="57.96464317529206" cy="15.000450547904695"></circle><circle class="pearl" r="4.380867874285303" cx="58.231206829400584" cy="58.40210630832458"></circle><circle class="pearl" r="4.380867874285303" cx="11.547271921308408" cy="21.68529078032937"></circle><circle class="pearl" r="4.380867874285303" cx="64.48027023969311" cy="29.117319737521647"></circle><circle class="pearl" r="4.380867874285303" cx="15.420704056949393" cy="58.4450827521167"></circle><circle class="pearl" r="4.380867874285303" cx="38.98220211507581" cy="8.366455013328967"></circle></g><g class="bobaCup bright" cupRadius="36.428345261462084" width="72.85669052292417" height="72.85669052292417" pearlRadius="5.476084842856627" pearlCount="16" transform="translate(68.10999374009225,4.177760265288619)"><circle class="pool" r="36.428345261462084" cx="36.428345261462084" cy="36.428345261462084" style="stroke-width: 1; fill: rgb(29, 145, 192);"></circle><circle class="pearl" r="4.380867874285302" cx="40.12911776447898" cy="39.9560855192537"></circle><circle class="pearl" r="4.380867874285302" cx="27.326610369702053" cy="48.23452840043067"></circle><circle class="pearl" r="4.380867874285302" cx="32.935006331876664" cy="22.80493446767346"></circle><circle class="pearl" r="4.380867874285302" cx="42.31849765342591" cy="55.46500720879435"></circle><circle class="pearl" r="4.380867874285302" cx="21.524504174150245" cy="33.707911592586356"></circle><circle class="pearl" r="4.380867874285302" cx="47.83061510633396" cy="26.955427036916447"></circle><circle class="pearl" r="4.380867874285302" cx="29.356907743421782" cy="63.862302956459274"></circle><circle class="pearl" r="4.380867874285302" cx="22.91412919153109" cy="10.900953392355063"></circle><circle class="pearl" r="4.380867874285302" cx="55.835248499088934" cy="42.22108094900585"></circle><circle class="pearl" r="4.380867874285302" cx="8.973431073581523" cy="43.3930428077563"></circle><circle class="pearl" r="4.380867874285302" cx="57.1994790687125" cy="14.803476562047038"></circle><circle class="pearl" r="4.380867874285302" cx="57.56674478718437" cy="57.79493554386894"></circle><circle class="pearl" r="4.380867874285302" cx="11.52394141669594" cy="21.448497324465436"></circle><circle class="pearl" r="4.380867874285302" cx="63.71467655865891" cy="28.647958831723436"></circle><circle class="pearl" r="4.380867874285302" cx="15.422546150037533" cy="57.88896765342317"></circle><circle class="pearl" r="4.380867874285302" cx="39.892071410925425" cy="8.466491542671406"></circle></g><g class="bobaCup bright" cupRadius="32.80465601192351" width="65.60931202384702" height="65.60931202384702" pearlRadius="5.476084842856627" pearlCount="13" transform="translate(237.1953439880765,247.1953439880765)"><circle class="pool" r="32.80465601192351" cx="32.80465601192351" cy="32.80465601192351" style="stroke-width: 1; fill: rgb(127, 205, 187);"></circle><circle class="pearl" r="4.380867874285302" cx="42.35679037700732" cy="36.24930441642655"></circle><circle class="pearl" r="4.380867874285302" cx="28.435572542238745" cy="42.69662463100993"></circle><circle class="pearl" r="4.380867874285302" cx="34.23206258890533" cy="22.929208564121556"></circle><circle class="pearl" r="4.380867874285302" cx="50.756975053390754" cy="49.84212866094805"></circle><circle class="pearl" r="4.380867874285302" cx="19.893331417508747" cy="29.345082703617493"></circle><circle class="pearl" r="4.380867874285302" cx="54.773981510629675" cy="20.16243226538051"></circle><circle class="pearl" r="4.380867874285302" cx="17.245574156304023" cy="53.383313915236165"></circle><circle class="pearl" r="4.380867874285302" cx="27.434352651237003" cy="8.744005845471769"></circle><circle class="pearl" r="4.380867874285302" cx="57.178659457314176" cy="35.71333779714796"></circle><circle class="pearl" r="4.380867874285302" cx="9.265459329128841" cy="40.69888811490999"></circle><circle class="pearl" r="4.380867874285302" cx="43.159335871200426" cy="9.978525289456691"></circle><circle class="pearl" r="4.380867874285302" cx="36.54975038796572" cy="57.09338789389397"></circle><circle class="pearl" r="4.380867874285302" cx="13.567500746480938" cy="14.978527121289915"></circle></g><g class="bobaCup bright" cupRadius="32.673461831348625" width="65.34692366269725" height="65.34692366269725" pearlRadius="5.476084842856627" pearlCount="13" transform="translate(7.326538168651375,219.4934120028276)"><circle class="pool" r="32.673461831348625" cx="32.673461831348625" cy="32.673461831348625" style="stroke-width: 1; fill: rgb(65, 182, 196);"></circle><circle class="pearl" r="4.380867874285302" cx="41.97898376361487" cy="36.891960800880376"></circle><circle class="pearl" r="4.380867874285302" cx="27.634456911151002" cy="42.28926670143387"></circle><circle class="pearl" r="4.380867874285302" cx="34.780043455122204" cy="23.005123280802504"></circle><circle class="pearl" r="4.380867874285302" cx="50.19969407182298" cy="50.78398768679384"></circle><circle class="pearl" r="4.380867874285302" cx="20.045318512319433" cy="28.4380496062887"></circle><circle class="pearl" r="4.380867874285302" cx="54.960858839489006" cy="21.189657431192877"></circle><circle class="pearl" r="4.380867874285302" cx="15.998231901814375" cy="52.46991235675233"></circle><circle class="pearl" r="4.380867874285302" cx="28.441737480226735" cy="8.5766426395287"></circle><circle class="pearl" r="4.380867874285302" cx="56.7835226861554" cy="36.80254185141073"></circle><circle class="pearl" r="4.380867874285302" cx="8.978724988925237" cy="39.29157049660924"></circle><circle class="pearl" r="4.380867874285302" cx="44.12190140988073" cy="10.372811313588972"></circle><circle class="pearl" r="4.380867874285302" cx="35.5040860609829" cy="56.92263248840573"></circle><circle class="pearl" r="4.380867874285302" cx="14.207344929268015" cy="14.020175223530046"></circle></g><g class="bobaCup bright" cupRadius="32.49061097083213" width="64.98122194166426" height="64.98122194166426" pearlRadius="5.4760848428566264" pearlCount="13" transform="translate(151.58101772885254,20.01850187084056)"><circle class="pool" r="32.49061097083213" cx="32.49061097083213" cy="32.49061097083213" style="stroke-width: 1; fill: rgb(65, 182, 196);"></circle><circle class="pearl" r="4.380867874285301" cx="41.49530750432274" cy="37.49958759982382"></circle><circle class="pearl" r="4.380867874285301" cx="27.080018542069457" cy="42.41939216067817"></circle><circle class="pearl" r="4.380867874285301" cx="35.53828539698804" cy="23.076023866569066"></circle><circle class="pearl" r="4.380867874285301" cx="49.44455869769877" cy="51.905648015978464"></circle><circle class="pearl" r="4.380867874285301" cx="20.814264845688815" cy="27.95685479894169"></circle><circle class="pearl" r="4.380867874285301" cx="55.054605906907845" cy="22.343476948863707"></circle><circle class="pearl" r="4.380867874285301" cx="14.576501510391404" cy="51.29496617121902"></circle><circle class="pearl" r="4.380867874285301" cx="29.057285616313155" cy="8.48335769759248"></circle><circle class="pearl" r="4.380867874285301" cx="56.19258817141786" cy="38.09602580311168"></circle><circle class="pearl" r="4.380867874285301" cx="8.685940742594921" cy="37.47429160293134"></circle><circle class="pearl" r="4.380867874285301" cx="44.882047645811895" cy="10.757209361304751"></circle><circle class="pearl" r="4.380867874285301" cx="34.20772385160791" cy="56.63436946931679"></circle><circle class="pearl" r="4.380867874285301" cx="14.253960326204401" cy="13.902201077972054"></circle></g><g class="bobaCup bright" cupRadius="30.924930061030956" width="61.84986012206191" height="61.84986012206191" pearlRadius="5.476084842856629" pearlCount="11" transform="translate(137.41273384299356,179.69958434766733)"><circle class="pool" r="30.924930061030956" cx="30.924930061030956" cy="30.924930061030956" style="stroke-width: 1; fill: rgb(29, 145, 192);"></circle><circle class="pearl" r="4.380867874285303" cx="39.1918722229907" cy="30.93171670868199"></circle><circle class="pearl" r="4.380867874285303" cx="23.871426240213328" cy="35.157570671973104"></circle><circle class="pearl" r="4.380867874285303" cx="28.363385005407007" cy="19.379695172387073"></circle><circle class="pearl" r="4.380867874285303" cx="42.11662295054039" cy="51.45224198066527"></circle><circle class="pearl" r="4.380867874285303" cx="9.12932646914211" cy="28.90295868022987"></circle><circle class="pearl" r="4.380867874285303" cx="52.123032511418835" cy="21.644417492648817"></circle><circle class="pearl" r="4.380867874285303" cx="26.328299432795383" cy="53.20488785789947"></circle><circle class="pearl" r="4.380867874285303" cx="13.640385376066623" cy="13.582745450925115"></circle><circle class="pearl" r="4.380867874285303" cx="52.33201731013929" cy="39.512963846725654"></circle><circle class="pearl" r="4.380867874285303" cx="12.22667738281329" cy="46.00364173941069"></circle><circle class="pearl" r="4.380867874285303" cx="41.23984834584524" cy="10.072410063207519"></circle></g><g class="bobaCup bright" cupRadius="29.994997471894877" width="59.98999494378975" height="59.98999494378975" pearlRadius="5.476084842856627" pearlCount="11" transform="translate(117.97619966561227,126.74306812245312)"><circle class="pool" r="29.994997471894877" cx="29.994997471894877" cy="29.994997471894877" style="stroke-width: 1; fill: rgb(127, 205, 187);"></circle><circle class="pearl" r="4.380867874285302" cx="37.84473994617379" cy="30.669292185309892"></circle><circle class="pearl" r="4.380867874285302" cx="22.84523375885453" cy="34.2632866474508"></circle><circle class="pearl" r="4.380867874285302" cx="27.46589198632253" cy="19.413942819963335"></circle><circle class="pearl" r="4.380867874285302" cx="43.08592831044118" cy="48.68109264268498"></circle><circle class="pearl" r="4.380867874285302" cx="8.368694408562572" cy="27.98759069231083"></circle><circle class="pearl" r="4.380867874285302" cx="50.274516207233056" cy="20.89399192276974"></circle><circle class="pearl" r="4.380867874285302" cx="27.905991532556328" cy="51.61571550070506"></circle><circle class="pearl" r="4.380867874285302" cx="13.575958303691557" cy="13.19435186219956"></circle><circle class="pearl" r="4.380867874285302" cx="50.95020989223834" cy="36.60920828388305"></circle><circle class="pearl" r="4.380867874285302" cx="13.417178253233892" cy="46.691066557149604"></circle><circle class="pearl" r="4.380867874285302" cx="39.64729261515976" cy="9.896918020911656"></circle></g><g class="bobaCup bright" cupRadius="29.539699510897695" width="59.07939902179539" height="59.07939902179539" pearlRadius="5.476084842856628" pearlCount="10" transform="translate(159.13188737624952,45.22945526835352)"><circle class="pool" r="29.539699510897695" cx="29.539699510897695" cy="29.539699510897695" style="stroke-width: 1; fill: rgb(127, 205, 187);"></circle><circle class="pearl" r="4.380867874285303" cx="36.50479827764673" cy="25.627864909555246"></circle><circle class="pearl" r="4.380867874285303" cx="23.073590183931834" cy="33.56415699526961"></circle><circle class="pearl" r="4.380867874285303" cx="30.065231416885823" cy="10.99681389208038"></circle><circle class="pearl" r="4.380867874285303" cx="43.933906608336734" cy="47.03361405588467"></circle><circle class="pearl" r="4.380867874285303" cx="8.377312789737005" cy="27.423953393030715"></circle><circle class="pearl" r="4.380867874285303" cx="45.73530838724168" cy="13.136974249105076"></circle><circle class="pearl" r="4.380867874285303" cx="28.419088347620193" cy="50.75668928968894"></circle><circle class="pearl" r="4.380867874285303" cx="14.170148585812875" cy="12.614755985417425"></circle><circle class="pearl" r="4.380867874285303" cx="50.61295323067753" cy="32.65752514907369"></circle><circle class="pearl" r="4.380867874285303" cx="13.336298373761348" cy="45.93731454975529"></circle></g><g class="bobaCup bright" cupRadius="29.17808935144557" width="58.35617870289114" height="58.35617870289114" pearlRadius="5.476084842856627" pearlCount="10" transform="translate(109.39348740277796,44.45950950215333)"><circle class="pool" r="29.17808935144557" cx="29.17808935144557" cy="29.17808935144557" style="stroke-width: 1; fill: rgb(65, 182, 196);"></circle><circle class="pearl" r="4.380867874285302" cx="35.80285707456082" cy="24.89295703645345"></circle><circle class="pearl" r="4.380867874285302" cx="23.141462976307867" cy="33.37375015586839"></circle><circle class="pearl" r="4.380867874285302" cx="29.62176407200908" cy="10.066016899006556"></circle><circle class="pearl" r="4.380867874285302" cx="43.8048896650029" cy="46.12377363797922"></circle><circle class="pearl" r="4.380867874285302" cx="8.34999145000372" cy="27.495667388254656"></circle><circle class="pearl" r="4.380867874285302" cx="44.991239134551805" cy="12.958010730852696"></circle><circle class="pearl" r="4.380867874285302" cx="28.344550139394777" cy="50.04282383358503"></circle><circle class="pearl" r="4.380867874285302" cx="13.866827226489876" cy="12.641537693968306"></circle><circle class="pearl" r="4.380867874285302" cx="49.95684955060706" cy="31.566075747473324"></circle><circle class="pearl" r="4.380867874285302" cx="13.354977401851855" cy="45.39174082255092"></circle></g><g class="bobaCup bright" cupRadius="25.003582337276992" width="50.007164674553984" height="50.007164674553984" pearlRadius="5.476084842856627" pearlCount="7" transform="translate(40.576970798826494,36.669091026274316)"><circle class="pool" r="25.003582337276992" cx="25.003582337276992" cy="25.003582337276992" style="stroke-width: 1; fill: rgb(65, 182, 196);"></circle><circle class="pearl" r="4.380867874285302" cx="27.666360107353555" cy="25.720768554721147"></circle><circle class="pearl" r="4.380867874285302" cx="11.1293350090815" cy="30.575665287922195"></circle><circle class="pearl" r="4.380867874285302" cx="25.27000690180167" cy="8.302865935010221"></circle><circle class="pearl" r="4.380867874285302" cx="38.22534251942156" cy="37.728781968699415"></circle><circle class="pearl" r="4.380867874285302" cx="10.570718252773709" cy="14.595400272525312"></circle><circle class="pearl" r="4.380867874285302" cx="39.69979589852962" cy="15.191000445882901"></circle><circle class="pearl" r="4.380867874285302" cx="22.711054504832322" cy="41.600397784019925"></circle></g><g class="bobaCup bright" cupRadius="21.195482209337566" width="42.39096441867513" height="42.39096441867513" pearlRadius="5.476084842856627" pearlCount="5" transform="translate(142.17992696144674,44.560250531738205)"><circle class="pool" r="21.195482209337566" cx="21.195482209337566" cy="21.195482209337566" style="stroke-width: 1; fill: rgb(29, 145, 192);"></circle><circle class="pearl" r="4.380867874285302" cx="33.36767861390677" cy="15.71110311435878"></circle><circle class="pearl" r="4.380867874285302" cx="15.651537757764807" cy="33.351629599083175"></circle><circle class="pearl" r="4.380867874285302" cx="19.49024405819375" cy="8.370153500017892"></circle><circle class="pearl" r="4.380867874285302" cx="31.421682810047002" cy="31.459414481442884"></circle><circle class="pearl" r="4.380867874285302" cx="8.374413409998482" cy="19.438264144878293"></circle></g><g class="bobaCup bright" cupRadius="20.558102621109782" width="41.116205242219564" height="41.116205242219564" pearlRadius="5.476084842856627" pearlCount="5" transform="translate(77.4638149786376,71.39165304180435)"><circle class="pool" r="20.558102621109782" cx="20.558102621109782" cy="20.558102621109782" style="stroke-width: 1; fill: rgb(65, 182, 196);"></circle><circle class="pearl" r="4.380867874285302" cx="32.06123373492289" cy="15.043187334716338"></circle><circle class="pearl" r="4.380867874285302" cx="14.747382809640683" cy="31.97647154476369"></circle><circle class="pearl" r="4.380867874285302" cx="18.92327483785169" cy="8.366552189090807"></circle><circle class="pearl" r="4.380867874285302" cx="30.234266038978582" cy="30.39521853508122"></circle><circle class="pearl" r="4.380867874285302" cx="8.392264180295676" cy="18.627861111357234"></circle></g><g class="bobaCup bright" cupRadius="17.49003482252515" width="34.9800696450503" height="34.9800696450503" pearlRadius="5.476084842856627" pearlCount="3" transform="translate(155.99795536174304,74.9703736211943)"><circle class="pool" r="17.49003482252515" cx="17.49003482252515" cy="17.49003482252515" style="stroke-width: 1; fill: rgb(127, 205, 187);"></circle><circle class="pearl" r="4.380867874285302" cx="25.71974883147747" cy="20.395720278086813"></circle><circle class="pearl" r="4.380867874285302" cx="9.883568462594178" cy="23.62800373550916"></circle><circle class="pearl" r="4.380867874285302" cx="16.502635165446314" cy="7.329340517139293"></circle></g><g class="bobaCup bright" cupRadius="13.279028412988795" width="26.55805682597759" height="26.55805682597759" pearlRadius="5.476084842856627" pearlCount="2" transform="translate(170.59870396253922,262.81385382998894)"><circle class="pool" r="13.279028412988795" cx="13.279028412988795" cy="13.279028412988795" style="stroke-width: 1; fill: rgb(29, 145, 192);"></circle><circle class="pearl" r="4.380867874285302" cx="18.116265856945645" cy="8.213837109456259"></circle><circle class="pearl" r="4.380867874285302" cx="8.441790969031947" cy="18.34421971652133"></circle></g><g class="bobaCup bright" cupRadius="12.083712010262902" width="24.167424020525804" height="24.167424020525804" pearlRadius="5.476084842856628" pearlCount="1" transform="translate(61.24470032982636,47.48935525687476)"><circle class="pool" r="12.083712010262902" cx="12.083712010262902" cy="12.083712010262902" style="stroke-width: 1; fill: rgb(127, 205, 187);"></circle><circle class="pearl" r="4.380867874285303" cx="16.331255626286023" cy="12.083712010262902"></circle></g><g class="bobaCup bright" cupRadius="9.211745254960851" width="18.423490509921702" height="18.423490509921702" pearlRadius="5.476084842856627" pearlCount="1" transform="translate(48.076556556185615,30.788254745039147)"><circle class="pool" r="9.211745254960851" cx="9.211745254960851" cy="9.211745254960851" style="stroke-width: 1; fill: rgb(29, 145, 192);"></circle><circle class="pearl" r="4.380867874285302" cx="11.122044052779533" cy="9.211745254960851"></circle></g></g><g id="legendDividerGroup" transform="translate(390,0)" height="400"><rect class="legendDivider" height="400" width="110"></rect></g><g id="legend" transform="translate(390,13.667428045214706)" width="110" height="320"><rect class="legendBorder" transform="translate(0,0)" width="110" height="352.6651439095706"></rect><text id="rTitle" text-anchor="middle" alignment-baseline="hanging" transform="translate(55,0)" x="0" y="0" style="fill: black; font-size: 0.8rem;">Population</text><text id="bobaValue" text-anchor="middle" alignment-baseline="hanging" transform="translate(55,15)" x="0" y="0" style="fill: black; font-size: 0.7rem;">(1 Pearl =   75)</text><g class="bright" cupRadius="9.211745254960851" width="18.423490509921702" height="18.423490509921702" pearlRadius="5.476084842856627" pearlCount="1" transform="translate(45.78825474503915,40)"><circle class="pool" r="9.211745254960851" cx="9.211745254960851" cy="9.211745254960851" style="stroke-width: 1; fill: rgb(65, 182, 196);"></circle><circle class="pearl" r="4.380867874285302" cx="11.122044052779533" cy="9.211745254960851"></circle></g><text id="0" class="legendSampleValue" text-anchor="middle" transform="translate(55,8)" x="0" y="63.423490509921706" style="fill: black; font-size: 0.7rem;">  80</text><g class="bright" cupRadius="24.18374842596443" width="48.36749685192886" height="48.36749685192886" pearlRadius="5.476084842856628" pearlCount="7" transform="translate(30.81625157403557,83.42349050992169)"><circle class="pool" r="24.18374842596443" cx="24.18374842596443" cy="24.18374842596443" style="stroke-width: 1; fill: rgb(65, 182, 196);"></circle><circle class="pearl" r="4.380867874285303" cx="24.833228629909296" cy="24.279223018542865"></circle><circle class="pearl" r="4.380867874285303" cx="9.086971277851625" cy="30.29740690913357"></circle><circle class="pearl" r="4.380867874285303" cx="25.174114885528002" cy="8.321733578771319"></circle><circle class="pearl" r="4.380867874285303" cx="37.19624612403764" cy="35.610448407966985"></circle><circle class="pearl" r="4.380867874285303" cx="10.385446404642739" cy="14.362607702047928"></circle><circle class="pearl" r="4.380867874285303" cx="38.840416642589574" cy="16.58252098847205"></circle><circle class="pearl" r="4.380867874285303" cx="21.812882140820893" cy="39.94955526013714"></circle></g><text id="1" class="legendSampleValue" text-anchor="middle" transform="translate(55,8)" x="0" y="136.79098736185057" style="fill: black; font-size: 0.7rem;"> 550</text><g class="bright" cupRadius="32.937078273859996" width="65.87415654771999" height="65.87415654771999" pearlRadius="5.476084842856628" pearlCount="13" transform="translate(22.062921726140004,156.79098736185057)"><circle class="pool" r="32.937078273859996" cx="32.937078273859996" cy="32.937078273859996" style="stroke-width: 1; fill: rgb(65, 182, 196);"></circle><circle class="pearl" r="4.380867874285303" cx="42.63483419485161" cy="35.58404598045753"></circle><circle class="pearl" r="4.380867874285303" cx="29.3258648780774" cy="43.280084550444776"></circle><circle class="pearl" r="4.380867874285303" cx="33.80527653818102" cy="22.808988898199452"></circle><circle class="pearl" r="4.380867874285303" cx="50.9281630677478" cy="49.20932133277252"></circle><circle class="pearl" r="4.380867874285303" cx="20.079543943649597" cy="30.35927958668459"></circle><circle class="pearl" r="4.380867874285303" cx="54.720030427840676" cy="19.528868645969716"></circle><circle class="pearl" r="4.380867874285303" cx="18.209531605433707" cy="54.09663136438602"></circle><circle class="pearl" r="4.380867874285303" cx="26.318725113704218" cy="8.9732411174054"></circle><circle class="pearl" r="4.380867874285303" cx="57.50364436478305" cy="35.06894983626869"></circle><circle class="pearl" r="4.380867874285303" cx="9.522658701995322" cy="41.822739039862135"></circle><circle class="pearl" r="4.380867874285303" cx="42.46080981200903" cy="9.708385771466236"></circle><circle class="pearl" r="4.380867874285303" cx="37.14729090617901" cy="57.30251466171915"></circle><circle class="pearl" r="4.380867874285303" cx="12.748185196606574" cy="16.409777271178534"></circle></g><text id="2" class="legendSampleValue" text-anchor="middle" transform="translate(55,8)" x="0" y="227.66514390957056" style="fill: black; font-size: 0.7rem;">1.0k</text><g class="bright" cupRadius="40.00000000000001" width="80.00000000000001" height="80.00000000000001" pearlRadius="5.476084842856628" pearlCount="20" transform="translate(14.999999999999993,247.6651439095706)"><circle class="pool" r="40.00000000000001" cx="40.00000000000001" cy="40.00000000000001" style="stroke-width: 1; fill: rgb(65, 182, 196);"></circle><circle class="pearl" r="4.380867874285303" cx="43.74425427359707" cy="39.68025415356679"></circle><circle class="pearl" r="4.380867874285303" cx="28.43720974774374" cy="43.052537106435786"></circle><circle class="pearl" r="4.380867874285303" cx="40.439825663123" cy="22.428744625985715"></circle><circle class="pearl" r="4.380867874285303" cx="50.20908333634738" cy="54.02865153787471"></circle><circle class="pearl" r="4.380867874285303" cx="10.051659708083747" cy="28.29727323861849"></circle><circle class="pearl" r="4.380867874285303" cx="54.568634257838355" cy="28.474978999778177"></circle><circle class="pearl" r="4.380867874285303" cx="34.86985197188713" cy="57.274146730530546"></circle><circle class="pearl" r="4.380867874285303" cx="25.868913195525298" cy="27.89016894105346"></circle><circle class="pearl" r="4.380867874285303" cx="61.15160097422169" cy="42.80174300536215"></circle><circle class="pearl" r="4.380867874285303" cx="18.262250201608914" cy="55.04440609584566"></circle><circle class="pearl" r="4.380867874285303" cx="49.20123096287004" cy="9.374112246231682"></circle><circle class="pearl" r="4.380867874285303" cx="57.24604509085956" cy="67.78974261614884"></circle><circle class="pearl" r="4.380867874285303" cx="17.173546293154974" cy="15.4540262971165"></circle><circle class="pearl" r="4.380867874285303" cx="70.48058796122524" cy="30.20439862118888"></circle><circle class="pearl" r="4.380867874285303" cx="24.10551153746175" cy="68.40502758374384"></circle><circle class="pearl" r="4.380867874285303" cx="32.21768092439999" cy="9.065805646706153"></circle><circle class="pearl" r="4.380867874285303" cx="67.91435300458785" cy="56.9828109966447"></circle><circle class="pearl" r="4.380867874285303" cx="8.454573921718953" cy="43.49667687179345"></circle><circle class="pearl" r="4.380867874285303" cx="63.490472400978504" cy="15.925564903447487"></circle><circle class="pearl" r="4.380867874285303" cx="41.81673933972348" cy="71.65727547151194"></circle></g><text id="3" class="legendSampleValue" text-anchor="middle" transform="translate(55,8)" x="0" y="332.6651439095706" style="fill: black; font-size: 0.7rem;">1.5k</text><text id="coloringDisclaimer" transform="translate(55,8)" text-anchor="middle" x="0" y="347.6651439095706" style="font-size: 0.7rem; opacity: 0.6;">(note: coloring</text><text id="coloringDisclaimer" transform="translate(55,8)" text-anchor="middle" x="0" y="362.6651439095706" style="font-size: 0.7rem; opacity: 0.6;">is random)</text></g></svg>