<?xml version="1.0" standalone="no"?>
<?xml-stylesheet xmlns="http://www.w3.org/2000/svg" type="text/css" href="style.css"?>
<svg id="syntheticVisB" class="default" xTitle="Percent Cat Owners" yTitle="Percent Dog Owners" rTitle="Population" chartTitle="Towns in Vizzyland" width="500" height="400" xmlns="http://www.w3.org/2000/svg"><text id="chartTitle" text-anchor="middle" transform="translate(250,20)" x="0" y="0" style="fill: black; font-size: 1.2rem;">Towns in Vizzyland</text><g id="yAxis" transform="translate(50,30)" fill="none" font-size="10" font-family="sans-serif" text-anchor="end"><path class="domain" stroke="currentColor" d="M-6,280H0V40H-6"></path><g class="tick" opacity="1" transform="translate(0,280)"><line stroke="currentColor" x2="-6"></line><text fill="currentColor" x="-9" dy="0.32em">0</text></g><g class="tick" opacity="1" transform="translate(0,256)"><line stroke="currentColor" x2="-6"></line><text fill="currentColor" x="-9" dy="0.32em">10</text></g><g class="tick" opacity="1" transform="translate(0,232)"><line stroke="currentColor" x2="-6"></line><text fill="currentColor" x="-9" dy="0.32em">20</text></g><g class="tick" opacity="1" transform="translate(0,208)"><line stroke="currentColor" x2="-6"></line><text fill="currentColor" x="-9" dy="0.32em">30</text></g><g class="tick" opacity="1" transform="translate(0,184)"><line stroke="currentColor" x2="-6"></line><text fill="currentColor" x="-9" dy="0.32em">40</text></g><g class="tick" opacity="1" transform="translate(0,160)"><line stroke="currentColor" x2="-6"></line><text fill="currentColor" x="-9" dy="0.32em">50</text></g><g class="tick" opacity="1" transform="translate(0,136)"><line stroke="currentColor" x2="-6"></line><text fill="currentColor" x="-9" dy="0.32em">60</text></g><g class="tick" opacity="1" transform="translate(0,112.00000000000001)"><line stroke="currentColor" x2="-6"></line><text fill="currentColor" x="-9" dy="0.32em">70</text></g><g class="tick" opacity="1" transform="translate(0,87.99999999999999)"><line stroke="currentColor" x2="-6"></line><text fill="currentColor" x="-9" dy="0.32em">80</text></g><g class="tick" opacity="1" transform="translate(0,63.99999999999999)"><line stroke="currentColor" x2="-6"></line><text fill="currentColor" x="-9" dy="0.32em">90</text></g><g class="tick" opacity="1" transform="translate(0,40)"><line stroke="currentColor" x2="-6"></line><text fill="currentColor" x="-9" dy="0.32em">100</text></g></g><g id="xAxis" transform="translate(60,360)" fill="none" font-size="10" font-family="sans-serif" text-anchor="middle"><path class="domain" stroke="currentColor" d="M40,6V0H270V6"></path><g class="tick" opacity="1" transform="translate(40,0)"><line stroke="currentColor" y2="6"></line><text fill="currentColor" y="9" dy="0.71em">0</text></g><g class="tick" opacity="1" transform="translate(63,0)"><line stroke="currentColor" y2="6"></line><text fill="currentColor" y="9" dy="0.71em">10</text></g><g class="tick" opacity="1" transform="translate(86,0)"><line stroke="currentColor" y2="6"></line><text fill="currentColor" y="9" dy="0.71em">20</text></g><g class="tick" opacity="1" transform="translate(109,0)"><line stroke="currentColor" y2="6"></line><text fill="currentColor" y="9" dy="0.71em">30</text></g><g class="tick" opacity="1" transform="translate(132,0)"><line stroke="currentColor" y2="6"></line><text fill="currentColor" y="9" dy="0.71em">40</text></g><g class="tick" opacity="1" transform="translate(155,0)"><line stroke="currentColor" y2="6"></line><text fill="currentColor" y="9" dy="0.71em">50</text></g><g class="tick" opacity="1" transform="translate(178,0)"><line stroke="currentColor" y2="6"></line><text fill="currentColor" y="9" dy="0.71em">60</text></g><g class="tick" opacity="1" transform="translate(201,0)"><line stroke="currentColor" y2="6"></line><text fill="currentColor" y="9" dy="0.71em">70</text></g><g class="tick" opacity="1" transform="translate(224,0)"><line stroke="currentColor" y2="6"></line><text fill="currentColor" y="9" dy="0.71em">80</text></g><g class="tick" opacity="1" transform="translate(247,0)"><line stroke="currentColor" y2="6"></line><text fill="currentColor" y="9" dy="0.71em">90</text></g><g class="tick" opacity="1" transform="translate(270,0)"><line stroke="currentColor" y2="6"></line><text fill="currentColor" y="9" dy="0.71em">100</text></g></g><g id="labels"><text id="xTitle" text-anchor="middle" transform="translate(250,350)" x="0" y="40" style="fill: black; font-size: 0.8rem;">Percent Cat Owners</text><g id="group-yTitle" transform="translate(60,190)"><text id="yTitle" text-anchor="middle" transform="rotate(-90)" y="-45" style="fill: black; font-size: 0.8rem;">Percent Dog Owners</text></g></g><g id="quadrant_lines" transform="translate(60,30)"><line id="verticalQuadrantLine" x1="155" y1="20" x2="155" y2="300" class="quadrantLine"></line><line id="horizontalQuadrantLine" x1="20" y1="160" x2="290" y2="160" class="quadrantLine"></line></g><g id="chart" transform="translate(60,30)"><g class="bobaCup bright" cupRadius="40" width="80" height="80" pearlRadius="5.476084842856627" pearlCount="20" transform="translate(4.439202833268865,130.15308192971568)"><circle class="pool" r="40" cx="40" cy="40" style="stroke-width: 1; fill: rgb(65, 182, 196);"></circle><circle class="pearl" r="4.380867874285302" cx="43.744254273596496" cy="39.680254153566786"></circle><circle class="pearl" r="4.380867874285302" cx="28.437209747743065" cy="43.05253710643598"></circle><circle class="pearl" r="4.380867874285302" cx="40.43982566312289" cy="22.428744625985598"></circle><circle class="pearl" r="4.380867874285302" cx="50.20908333634776" cy="54.02865153787438"></circle><circle class="pearl" r="4.380867874285302" cx="10.051659708083633" cy="28.29727323861887"></circle><circle class="pearl" r="4.380867874285302" cx="54.568634257838156" cy="28.474978999778322"></circle><circle class="pearl" r="4.380867874285302" cx="34.86985197188746" cy="57.27414673053024"></circle><circle class="pearl" r="4.380867874285302" cx="25.86891319552522" cy="27.890168941053528"></circle><circle class="pearl" r="4.380867874285302" cx="61.15160097422234" cy="42.80174300536202"></circle><circle class="pearl" r="4.380867874285302" cx="18.26225020160879" cy="55.044406095846384"></circle><circle class="pearl" r="4.380867874285302" cx="49.201230962870156" cy="9.37411224623171"></circle><circle class="pearl" r="4.380867874285302" cx="57.24604509085917" cy="67.789742616149"></circle><circle class="pearl" r="4.380867874285302" cx="17.173546293154654" cy="15.45402629711672"></circle><circle class="pearl" r="4.380867874285302" cx="70.48058796122504" cy="30.204398621188155"></circle><circle class="pearl" r="4.380867874285302" cx="24.105511537462792" cy="68.4050275837443"></circle><circle class="pearl" r="4.380867874285302" cx="32.2176809243996" cy="9.065805646706231"></circle><circle class="pearl" r="4.380867874285302" cx="67.91435300458772" cy="56.98281099664498"></circle><circle class="pearl" r="4.380867874285302" cx="8.454573921718996" cy="43.49667687179387"></circle><circle class="pearl" r="4.380867874285302" cx="63.49047240097863" cy="15.925564903447587"></circle><circle class="pearl" r="4.380867874285302" cx="41.816739339723085" cy="71.65727547151195"></circle></g><g class="bobaCup bright" cupRadius="31.29597040429079" width="62.59194080858158" height="62.59194080858158" pearlRadius="5.476084842856627" pearlCount="12" transform="translate(219.4702026435228,78.63252482303315)"><circle class="pool" r="31.29597040429079" cx="31.29597040429079" cy="31.29597040429079" style="stroke-width: 1; fill: rgb(65, 182, 196);"></circle><circle class="pearl" r="4.380867874285302" cx="34.457551912133574" cy="22.43001420955096"></circle><circle class="pearl" r="4.380867874285302" cx="22.462596228576533" cy="34.410201247913996"></circle><circle class="pearl" r="4.380867874285302" cx="28.52405963750997" cy="8.424443402886379"></circle><circle class="pearl" r="4.380867874285302" cx="37.405849158606436" cy="37.52804098008274"></circle><circle class="pearl" r="4.380867874285302" cx="8.427144212903176" cy="28.49385217649218"></circle><circle class="pearl" r="4.380867874285302" cx="53.8666943531914" cy="26.163051355006882"></circle><circle class="pearl" r="4.380867874285302" cx="26.190929247419604" cy="53.87131649969359"></circle><circle class="pearl" r="4.380867874285302" cx="13.772915764143622" cy="13.667119531385588"></circle><circle class="pearl" r="4.380867874285302" cx="52.444045986186275" cy="41.8866934777396"></circle><circle class="pearl" r="4.380867874285302" cx="12.260004469581933" cy="46.53091862422626"></circle><circle class="pearl" r="4.380867874285302" cx="46.57259543666321" cy="12.283272335811485"></circle><circle class="pearl" r="4.380867874285302" cx="41.93435761385492" cy="52.42686128426182"></circle></g><g class="bobaCup bright" cupRadius="30.98316554059177" width="61.96633108118354" height="61.96633108118354" pearlRadius="5.476084842856627" pearlCount="11" transform="translate(203.86636538415297,97.03735807385128)"><circle class="pool" r="30.98316554059177" cx="30.98316554059177" cy="30.98316554059177" style="stroke-width: 1; fill: rgb(127, 205, 187);"></circle><circle class="pearl" r="4.380867874285302" cx="39.379296932158866" cy="30.902412506224476"></circle><circle class="pearl" r="4.380867874285302" cx="24.186136584406565" cy="35.570729868286975"></circle><circle class="pearl" r="4.380867874285302" cx="28.357182991243604" cy="19.507361803301418"></circle><circle class="pearl" r="4.380867874285302" cx="42.08762943411104" cy="51.606577398629646"></circle><circle class="pearl" r="4.380867874285302" cx="9.565309393761328" cy="29.037047949347226"></circle><circle class="pearl" r="4.380867874285302" cx="52.15054097893489" cy="21.41524606936501"></circle><circle class="pearl" r="4.380867874285302" cx="26.28599258360057" cy="53.30675970591774"></circle><circle class="pearl" r="4.380867874285302" cx="13.652991089555506" cy="13.601512488282918"></circle><circle class="pearl" r="4.380867874285302" cx="52.407760873117034" cy="39.71923939757459"></circle><circle class="pearl" r="4.380867874285302" cx="12.210568706055703" cy="46.04811581452384"></circle><circle class="pearl" r="4.380867874285302" cx="41.10208925527205" cy="10.000419508061388"></circle></g><g class="bobaCup bright" cupRadius="30.90050605460441" width="61.80101210920882" height="61.80101210920882" pearlRadius="5.476084842856627" pearlCount="11" transform="translate(53.704944447534956,202.19925313491413)"><circle class="pool" r="30.90050605460441" cx="30.90050605460441" cy="30.90050605460441" style="stroke-width: 1; fill: rgb(65, 182, 196);"></circle><circle class="pearl" r="4.380867874285302" cx="39.10833996477484" cy="30.947346300618914"></circle><circle class="pearl" r="4.380867874285302" cx="23.736442303657796" cy="34.98235652744298"></circle><circle class="pearl" r="4.380867874285302" cx="28.371272892288612" cy="19.31771600718345"></circle><circle class="pearl" r="4.380867874285302" cx="42.121770670364874" cy="51.390108464318864"></circle><circle class="pearl" r="4.380867874285302" cx="8.945679378102636" cy="28.844417569512004"></circle><circle class="pearl" r="4.380867874285302" cx="52.11599450033919" cy="21.7576493691932"></circle><circle class="pearl" r="4.380867874285302" cx="26.3372042078532" cy="53.160760313981285"></circle><circle class="pearl" r="4.380867874285302" cx="13.63439005196609" cy="13.575354754453851"></circle><circle class="pearl" r="4.380867874285302" cx="52.29925263039716" cy="39.42926963656913"></circle><circle class="pearl" r="4.380867874285302" cx="12.227535429233402" cy="45.974393990013276"></circle><circle class="pearl" r="4.380867874285302" cx="41.31363507791556" cy="10.108860232400975"></circle></g><g class="bobaCup bright" cupRadius="30.80781164883849" width="61.61562329767698" height="61.61562329767698" pearlRadius="5.476084842856627" pearlCount="11" transform="translate(20.65719850032544,24.330508025868188)"><circle class="pool" r="30.80781164883849" cx="30.80781164883849" cy="30.80781164883849" style="stroke-width: 1; fill: rgb(29, 145, 192);"></circle><circle class="pearl" r="4.380867874285302" cx="38.78702334513413" cy="31.006961993642193"></circle><circle class="pearl" r="4.380867874285302" cx="23.27196825031844" cy="34.363971439432085"></circle><circle class="pearl" r="4.380867874285302" cx="28.42712597320359" cy="19.04774619311602"></circle><circle class="pearl" r="4.380867874285302" cx="42.1147790842042" cy="51.164239258100615"></circle><circle class="pearl" r="4.380867874285302" cx="8.379567648845306" cy="28.61523713495011"></circle><circle class="pearl" r="4.380867874285302" cx="52.10198850370528" cy="22.25092323283233"></circle><circle class="pearl" r="4.380867874285302" cx="26.33683286774292" cy="52.98802537170131"></circle><circle class="pearl" r="4.380867874285302" cx="13.615513197350449" cy="13.544709751955892"></circle><circle class="pearl" r="4.380867874285302" cx="52.17110278830179" cy="39.12193228272702"></circle><circle class="pearl" r="4.380867874285302" cx="12.208936856706078" cy="45.82426846381768"></circle><circle class="pearl" r="4.380867874285302" cx="41.65951870461289" cy="10.27591434279626"></circle></g><g class="bobaCup bright" cupRadius="29.70427548079688" width="59.40855096159376" height="59.40855096159376" pearlRadius="5.4760848428566264" pearlCount="11" transform="translate(84.46282979609853,240.32058466623863)"><circle class="pool" r="29.70427548079688" cx="29.70427548079688" cy="29.70427548079688" style="stroke-width: 1; fill: rgb(29, 145, 192);"></circle><circle class="pearl" r="4.380867874285301" cx="37.55940683978908" cy="30.51838868416008"></circle><circle class="pearl" r="4.380867874285301" cx="22.783720419864643" cy="34.11082496476277"></circle><circle class="pearl" r="4.380867874285301" cx="27.182421248219747" cy="19.409937331812074"></circle><circle class="pearl" r="4.380867874285301" cx="42.83459539092033" cy="48.0475035552921"></circle><circle class="pearl" r="4.380867874285301" cx="8.364112262901033" cy="27.775815548165852"></circle><circle class="pearl" r="4.380867874285301" cx="49.65934122945455" cy="20.543844279016298"></circle><circle class="pearl" r="4.380867874285301" cx="27.766285154507624" cy="51.04381712011128"></circle><circle class="pearl" r="4.380867874285301" cx="13.554610622541231" cy="13.075172268806336"></circle><circle class="pearl" r="4.380867874285301" cx="50.397618130331246" cy="36.157661142480386"></circle><circle class="pearl" r="4.380867874285301" cx="13.423531289813928" cy="46.24797644577409"></circle><circle class="pearl" r="4.380867874285301" cx="39.11524665007349" cy="9.83166288550368"></circle></g><g class="bobaCup bright" cupRadius="29.287245312872237" width="58.574490625744474" height="58.574490625744474" pearlRadius="5.4760848428566264" pearlCount="10" transform="translate(232.03441538081097,250.71275468712776)"><circle class="pool" r="29.287245312872237" cx="29.287245312872237" cy="29.287245312872237" style="stroke-width: 1; fill: rgb(65, 182, 196);"></circle><circle class="pearl" r="4.380867874285301" cx="36.021479634165765" cy="25.11922739507186"></circle><circle class="pearl" r="4.380867874285301" cx="23.11455161774675" cy="33.42214081443093"></circle><circle class="pearl" r="4.380867874285301" cx="29.756078059799638" cy="10.358494035685831"></circle><circle class="pearl" r="4.380867874285301" cx="43.84637834771248" cy="46.39789013705086"></circle><circle class="pearl" r="4.380867874285301" cx="8.357839949276281" cy="27.47064413198318"></circle><circle class="pearl" r="4.380867874285301" cx="45.215411567943775" cy="13.011542672383955"></circle><circle class="pearl" r="4.380867874285301" cx="28.370089775229715" cy="50.2586798846983"></circle><circle class="pearl" r="4.380867874285301" cx="13.954376349582319" cy="12.63581884181358"></circle><circle class="pearl" r="4.380867874285301" cx="50.156607288103395" cy="31.896205530685847"></circle><circle class="pearl" r="4.380867874285301" cx="13.348978987287948" cy="45.55639926660938"></circle></g><g class="bobaCup bright" cupRadius="28.862459919437548" width="57.724919838875095" height="57.724919838875095" pearlRadius="5.4760848428566264" pearlCount="10" transform="translate(134.39409927961125,86.44809184713705)"><circle class="pool" r="28.862459919437548" cx="28.862459919437548" cy="28.862459919437548" style="stroke-width: 1; fill: rgb(29, 145, 192);"></circle><circle class="pearl" r="4.380867874285301" cx="35.099164573597065" cy="24.170065785941855"></circle><circle class="pearl" r="4.380867874285301" cx="23.257653386963614" cy="33.286381183771255"></circle><circle class="pearl" r="4.380867874285301" cx="29.24647906644711" cy="9.229417794997879"></circle><circle class="pearl" r="4.380867874285301" cx="43.68155940272548" cy="45.3286512807381"></circle><circle class="pearl" r="4.380867874285301" cx="8.33026664017907" cy="27.57295918171126"></circle><circle class="pearl" r="4.380867874285301" cx="44.34541033060921" cy="12.805748827899274"></circle><circle class="pearl" r="4.380867874285301" cx="28.259598874589965" cy="49.41717660228584"></circle><circle class="pearl" r="4.380867874285301" cx="13.645775074719854" cy="12.638529826204843"></circle><circle class="pearl" r="4.380867874285301" cx="49.37269021041032" cy="30.5738557133064"></circle><circle class="pearl" r="4.380867874285301" cx="13.372485622085788" cy="44.91470494569314"></circle></g><g class="bobaCup bright" cupRadius="28.517146723670397" width="57.034293447340794" height="57.034293447340794" pearlRadius="5.476084842856627" pearlCount="10" transform="translate(46.50675046183878,225.67457835887555)"><circle class="pool" r="28.517146723670397" cx="28.517146723670397" cy="28.517146723670397" style="stroke-width: 1; fill: rgb(29, 145, 192);"></circle><circle class="pearl" r="4.380867874285302" cx="34.22612412033024" cy="23.296413413751466"></circle><circle class="pearl" r="4.380867874285302" cx="23.418007549249417" cy="33.18269328403249"></circle><circle class="pearl" r="4.380867874285302" cx="28.800921112339175" cy="8.30285841286943"></circle><circle class="pearl" r="4.380867874285302" cx="43.53405784027087" cy="44.45863816141767"></circle><circle class="pearl" r="4.380867874285302" cx="8.31419037639948" cy="27.664692605777383"></circle><circle class="pearl" r="4.380867874285302" cx="43.65243296896473" cy="12.649382032486905"></circle><circle class="pearl" r="4.380867874285302" cx="28.148407815861834" cy="48.73046291462357"></circle><circle class="pearl" r="4.380867874285302" cx="13.421052595081083" cy="12.624883268520975"></circle><circle class="pearl" r="4.380867874285302" cx="48.71751534745925" cy="29.452130334092757"></circle><circle class="pearl" r="4.380867874285302" cx="13.374724220872753" cy="44.38044106807859"></circle></g><g class="bobaCup bright" cupRadius="26.45418677007165" width="52.9083735401433" height="52.9083735401433" pearlRadius="5.4760848428566264" pearlCount="8" transform="translate(68.42067116814457,196.73527765675354)"><circle class="pool" r="26.45418677007165" cx="26.45418677007165" cy="26.45418677007165" style="stroke-width: 1; fill: rgb(127, 205, 187);"></circle><circle class="pearl" r="4.380867874285301" cx="44.59638659729466" cy="27.200892102323717"></circle><circle class="pearl" r="4.380867874285301" cx="24.492099183483404" cy="28.450523862232977"></circle><circle class="pearl" r="4.380867874285301" cx="24.455931321784508" cy="8.377024984373852"></circle><circle class="pearl" r="4.380867874285301" cx="38.386178605994985" cy="41.76315260270733"></circle><circle class="pearl" r="4.380867874285301" cx="8.872660165754946" cy="31.921883100851954"></circle><circle class="pearl" r="4.380867874285301" cx="40.03039034782924" cy="12.050772644485809"></circle><circle class="pearl" r="4.380867874285301" cx="22.583648202316763" cy="44.32224410763977"></circle><circle class="pearl" r="4.380867874285301" cx="10.452055919022078" cy="16.006214349999826"></circle></g><g class="bobaCup bright" cupRadius="26.263471521909402" width="52.526943043818804" height="52.526943043818804" pearlRadius="5.476084842856628" pearlCount="8" transform="translate(176.72381937796166,141.45002882810687)"><circle class="pool" r="26.263471521909402" cx="26.263471521909402" cy="26.263471521909402" style="stroke-width: 1; fill: rgb(65, 182, 196);"></circle><circle class="pearl" r="4.380867874285303" cx="44.19977422413917" cy="27.42556249598314"></circle><circle class="pearl" r="4.380867874285303" cx="24.45269439796801" cy="28.077653496985256"></circle><circle class="pearl" r="4.380867874285303" cx="24.41786955569362" cy="8.366374321732629"></circle><circle class="pearl" r="4.380867874285303" cx="37.40600531077335" cy="41.74466320998088"></circle><circle class="pearl" r="4.380867874285303" cx="8.914758961940201" cy="31.906102005916512"></circle><circle class="pearl" r="4.380867874285303" cx="39.964178608159266" cy="12.15821001650319"></circle><circle class="pearl" r="4.380867874285303" cx="21.533877068386424" cy="43.79612796553294"></circle><circle class="pearl" r="4.380867874285303" cx="10.397589689685514" cy="15.981925931087309"></circle></g><g class="bobaCup bright" cupRadius="25.034923314451042" width="50.069846628902084" height="50.069846628902084" pearlRadius="5.476084842856626" pearlCount="7" transform="translate(47.13792349393369,14.965076685548958)"><circle class="pool" r="25.034923314451042" cx="25.034923314451042" cy="25.034923314451042" style="stroke-width: 1; fill: rgb(65, 182, 196);"></circle><circle class="pearl" r="4.3808678742853004" cx="27.758101638728803" cy="25.746402762251286"></circle><circle class="pearl" r="4.3808678742853004" cx="11.251646787159485" cy="30.563955619793546"></circle><circle class="pearl" r="4.3808678742853004" cx="25.287820488325217" cy="8.30272384496297"></circle><circle class="pearl" r="4.3808678742853004" cx="38.27429715848276" cy="37.791899684774044"></circle><circle class="pearl" r="4.3808678742853004" cx="10.585421314296799" cy="14.587831391150742"></circle><circle class="pearl" r="4.3808678742853004" cx="39.73554826705706" cy="15.153015795085691"></circle><circle class="pearl" r="4.3808678742853004" cx="22.760355744103084" cy="41.6648572388354"></circle></g><g class="bobaCup bright" cupRadius="21.660493941561686" width="43.32098788312337" height="43.32098788312337" pearlRadius="5.4760848428566264" pearlCount="5" transform="translate(248.3395060584383,187.06501581268154)"><circle class="pool" r="21.660493941561686" cx="21.660493941561686" cy="21.660493941561686" style="stroke-width: 1; fill: rgb(127, 205, 187);"></circle><circle class="pearl" r="4.380867874285301" cx="34.25402845813506" cy="16.688453813953803"></circle><circle class="pearl" r="4.380867874285301" cx="15.832083884563916" cy="32.95783806178734"></circle><circle class="pearl" r="4.380867874285301" cx="20.62469926428924" cy="8.326226239495599"></circle><circle class="pearl" r="4.380867874285301" cx="31.815452371949398" cy="32.49158043407174"></circle><circle class="pearl" r="4.380867874285301" cx="8.49804217935794" cy="18.748781211571014"></circle></g><g class="bobaCup bright" cupRadius="21.379484319191718" width="42.758968638383436" height="42.758968638383436" pearlRadius="5.4760848428566264" pearlCount="5" transform="translate(44.12129905013377,219.57747039157937)"><circle class="pool" r="21.379484319191718" cx="21.379484319191718" cy="21.379484319191718" style="stroke-width: 1; fill: rgb(65, 182, 196);"></circle><circle class="pearl" r="4.380867874285301" cx="33.77977113929742" cy="16.039017198025924"></circle><circle class="pearl" r="4.380867874285301" cx="15.713433282555977" cy="33.69303762932589"></circle><circle class="pearl" r="4.380867874285301" cx="19.795450430047275" cy="8.360208781227657"></circle><circle class="pearl" r="4.380867874285301" cx="31.595278258289966" cy="31.858876606590435"></circle><circle class="pearl" r="4.380867874285301" cx="8.383121284371464" cy="19.512491925356123"></circle></g><g class="bobaCup bright" cupRadius="19.758759407073747" width="39.51751881414749" height="39.51751881414749" pearlRadius="5.476084842856627" pearlCount="4" transform="translate(20.241240592926253,149.27489899462128)"><circle class="pool" r="19.758759407073747" cx="19.758759407073747" cy="19.758759407073747" style="stroke-width: 1; fill: rgb(29, 145, 192);"></circle><circle class="pearl" r="4.380867874285302" cx="30.272328172865855" cy="13.725205274775224"></circle><circle class="pearl" r="4.380867874285302" cx="12.205864547721685" cy="25.85736040973083"></circle><circle class="pearl" r="4.380867874285302" cx="15.035744046034232" cy="8.8742292352817"></circle><circle class="pearl" r="4.380867874285302" cx="27.77124545665858" cy="29.518559878420028"></circle></g><g class="bobaCup bright" cupRadius="18.459104586686777" width="36.918209173373555" height="36.918209173373555" pearlRadius="5.476084842856627" pearlCount="4" transform="translate(190.40109368185426,143.98988238930056)"><circle class="pool" r="18.459104586686777" cx="18.459104586686777" cy="18.459104586686777" style="stroke-width: 1; fill: rgb(127, 205, 187);"></circle><circle class="pearl" r="4.380867874285302" cx="27.12392469288686" cy="11.186942525521234"></circle><circle class="pearl" r="4.380867874285302" cx="9.816836147644889" cy="25.721595085213007"></circle><circle class="pearl" r="4.380867874285302" cx="11.194814073677378" cy="9.7909127010462"></circle><circle class="pearl" r="4.380867874285302" cx="25.745946766854413" cy="27.117624909688097"></circle></g><g class="bobaCup bright" cupRadius="17.211331265983883" width="34.42266253196777" height="34.42266253196777" pearlRadius="5.4760848428566264" pearlCount="3" transform="translate(205.19750036097085,65.04684725230675)"><circle class="pool" r="17.211331265983883" cx="17.211331265983883" cy="17.211331265983883" style="stroke-width: 1; fill: rgb(29, 145, 192);"></circle><circle class="pearl" r="4.380867874285301" cx="25.54588232736317" cy="20.23200979806154"></circle><circle class="pearl" r="4.380867874285301" cx="9.6433708692414" cy="23.27396011364848"></circle><circle class="pearl" r="4.380867874285301" cx="16.08903631114587" cy="7.338076037746491"></circle></g></g><g id="legendDividerGroup" transform="translate(390,0)" height="400"><rect class="legendDivider" height="400" width="110"></rect></g><g id="legend" transform="translate(390,1.8249264492100394)" width="110" height="320"><rect class="legendBorder" transform="translate(0,0)" width="110" height="376.3501471015799"></rect><text id="rTitle" text-anchor="middle" alignment-baseline="hanging" transform="translate(55,0)" x="0" y="0" style="fill: black; font-size: 0.8rem;">Population</text><text id="bobaValue" text-anchor="middle" alignment-baseline="hanging" transform="translate(55,15)" x="0" y="0" style="fill: black; font-size: 0.7rem;">(1 Pearl =   75)</text><g class="bright" cupRadius="17.211331265983883" width="34.42266253196777" height="34.42266253196777" pearlRadius="5.4760848428566264" pearlCount="3" transform="translate(37.78866873401611,40)"><circle class="pool" r="17.211331265983883" cx="17.211331265983883" cy="17.211331265983883" style="stroke-width: 1; fill: rgb(127, 205, 187);"></circle><circle class="pearl" r="4.380867874285301" cx="25.54588232736317" cy="20.23200979806154"></circle><circle class="pearl" r="4.380867874285301" cx="9.6433708692414" cy="23.27396011364848"></circle><circle class="pearl" r="4.380867874285301" cx="16.08903631114587" cy="7.338076037746491"></circle></g><text id="0" class="legendSampleValue" text-anchor="middle" transform="translate(55,8)" x="0" y="79.42266253196777" style="fill: black; font-size: 0.7rem;"> 280</text><g class="bright" cupRadius="26.95318254018959" width="53.90636508037918" height="53.90636508037918" pearlRadius="5.476084842856627" pearlCount="9" transform="translate(28.04681745981041,99.42266253196777)"><circle class="pool" r="26.95318254018959" cx="26.95318254018959" cy="26.95318254018959" style="stroke-width: 1; fill: rgb(127, 205, 187);"></circle><circle class="pearl" r="4.380867874285302" cx="30.73018975601649" cy="23.21379527306033"></circle><circle class="pearl" r="4.380867874285302" cx="19.966080798923958" cy="33.916161087087076"></circle><circle class="pearl" r="4.380867874285302" cx="27.081369602354826" cy="8.30175128229223"></circle><circle class="pearl" r="4.380867874285302" cx="41.251137807926504" cy="41.49998599866624"></circle><circle class="pearl" r="4.380867874285302" cx="8.302260751580285" cy="26.743671227396007"></circle><circle class="pearl" r="4.380867874285302" cx="41.06897121387794" cy="12.293388630910943"></circle><circle class="pearl" r="4.380867874285302" cx="27.08300971298149" cy="45.604605947868606"></circle><circle class="pearl" r="4.380867874285302" cx="12.798484919786535" cy="12.317353999639966"></circle><circle class="pearl" r="4.380867874285302" cx="45.60467748443827" cy="27.06719507446599"></circle></g><text id="1" class="legendSampleValue" text-anchor="middle" transform="translate(55,8)" x="0" y="158.32902761234695" style="fill: black; font-size: 0.7rem;"> 680</text><g class="bright" cupRadius="34.01055974461649" width="68.02111948923297" height="68.02111948923297" pearlRadius="5.4760848428566264" pearlCount="14" transform="translate(20.989440255383514,178.32902761234692)"><circle class="pool" r="34.01055974461649" cx="34.01055974461649" cy="34.01055974461649" style="stroke-width: 1; fill: rgb(127, 205, 187);"></circle><circle class="pearl" r="4.380867874285301" cx="42.10811009193203" cy="25.596777730570743"></circle><circle class="pearl" r="4.380867874285301" cx="26.40039099629159" cy="42.98580087701377"></circle><circle class="pearl" r="4.380867874285301" cx="26.136404279454947" cy="25.8194476262191"></circle><circle class="pearl" r="4.380867874285301" cx="42.26503211468503" cy="41.56446797608161"></circle><circle class="pearl" r="4.380867874285301" cx="11.725218658007952" cy="36.69290823559515"></circle><circle class="pearl" r="4.380867874285301" cx="53.5950542383045" cy="14.540262586408044"></circle><circle class="pearl" r="4.380867874285301" cx="29.81132494304646" cy="59.45944071141809"></circle><circle class="pearl" r="4.380867874285301" cx="22.913745516661347" cy="10.162684465019323"></circle><circle class="pearl" r="4.380867874285301" cx="57.64356620603248" cy="45.7113670216602"></circle><circle class="pearl" r="4.380867874285301" cx="14.489893216832607" cy="53.55981799046497"></circle><circle class="pearl" r="4.380867874285301" cx="38.81839241097783" cy="8.642986031958698"></circle><circle class="pearl" r="4.380867874285301" cx="46.68235487719884" cy="57.2708588390117"></circle><circle class="pearl" r="4.380867874285301" cx="10.99965756601465" cy="20.734453498591336"></circle><circle class="pearl" r="4.380867874285301" cx="59.41190731535291" cy="29.445491414731524"></circle></g><text id="2" class="legendSampleValue" text-anchor="middle" transform="translate(55,8)" x="0" y="251.35014710157992" style="fill: black; font-size: 0.7rem;">1.1k</text><g class="bright" cupRadius="40" width="80" height="80" pearlRadius="5.476084842856627" pearlCount="20" transform="translate(15,271.3501471015799)"><circle class="pool" r="40" cx="40" cy="40" style="stroke-width: 1; fill: rgb(127, 205, 187);"></circle><circle class="pearl" r="4.380867874285302" cx="43.744254273596496" cy="39.680254153566786"></circle><circle class="pearl" r="4.380867874285302" cx="28.437209747743065" cy="43.05253710643598"></circle><circle class="pearl" r="4.380867874285302" cx="40.43982566312289" cy="22.428744625985598"></circle><circle class="pearl" r="4.380867874285302" cx="50.20908333634776" cy="54.02865153787438"></circle><circle class="pearl" r="4.380867874285302" cx="10.051659708083633" cy="28.29727323861887"></circle><circle class="pearl" r="4.380867874285302" cx="54.568634257838156" cy="28.474978999778322"></circle><circle class="pearl" r="4.380867874285302" cx="34.86985197188746" cy="57.27414673053024"></circle><circle class="pearl" r="4.380867874285302" cx="25.86891319552522" cy="27.890168941053528"></circle><circle class="pearl" r="4.380867874285302" cx="61.15160097422234" cy="42.80174300536202"></circle><circle class="pearl" r="4.380867874285302" cx="18.26225020160879" cy="55.044406095846384"></circle><circle class="pearl" r="4.380867874285302" cx="49.201230962870156" cy="9.37411224623171"></circle><circle class="pearl" r="4.380867874285302" cx="57.24604509085917" cy="67.789742616149"></circle><circle class="pearl" r="4.380867874285302" cx="17.173546293154654" cy="15.45402629711672"></circle><circle class="pearl" r="4.380867874285302" cx="70.48058796122504" cy="30.204398621188155"></circle><circle class="pearl" r="4.380867874285302" cx="24.105511537462792" cy="68.4050275837443"></circle><circle class="pearl" r="4.380867874285302" cx="32.2176809243996" cy="9.065805646706231"></circle><circle class="pearl" r="4.380867874285302" cx="67.91435300458772" cy="56.98281099664498"></circle><circle class="pearl" r="4.380867874285302" cx="8.454573921718996" cy="43.49667687179387"></circle><circle class="pearl" r="4.380867874285302" cx="63.49047240097863" cy="15.925564903447587"></circle><circle class="pearl" r="4.380867874285302" cx="41.816739339723085" cy="71.65727547151195"></circle></g><text id="3" class="legendSampleValue" text-anchor="middle" transform="translate(55,8)" x="0" y="356.3501471015799" style="fill: black; font-size: 0.7rem;">1.5k</text><text id="coloringDisclaimer" transform="translate(55,8)" text-anchor="middle" x="0" y="371.3501471015799" style="font-size: 0.7rem; opacity: 0.6;">(note: coloring</text><text id="coloringDisclaimer" transform="translate(55,8)" text-anchor="middle" x="0" y="386.3501471015799" style="font-size: 0.7rem; opacity: 0.6;">is random)</text></g></svg>