<?xml version="1.0" standalone="no"?>
<?xml-stylesheet xmlns="http://www.w3.org/2000/svg" type="text/css" href="style.css"?>
<svg id="syntheticVisB" class="default" xTitle="Percent Cat Owners" yTitle="Percent Dog Owners" rTitle="Population" chartTitle="Towns in Vizzyland" width="500" height="400" xmlns="http://www.w3.org/2000/svg"><text id="chartTitle" text-anchor="middle" transform="translate(250,20)" x="0" y="0" style="fill: black; font-size: 1.2rem;">Towns in Vizzyland</text><g id="yAxis" transform="translate(50,30)" fill="none" font-size="10" font-family="sans-serif" text-anchor="end"><path class="domain" stroke="currentColor" d="M-6,280H0V40H-6"></path><g class="tick" opacity="1" transform="translate(0,280)"><line stroke="currentColor" x2="-6"></line><text fill="currentColor" x="-9" dy="0.32em">0</text></g><g class="tick" opacity="1" transform="translate(0,256)"><line stroke="currentColor" x2="-6"></line><text fill="currentColor" x="-9" dy="0.32em">10</text></g><g class="tick" opacity="1" transform="translate(0,232)"><line stroke="currentColor" x2="-6"></line><text fill="currentColor" x="-9" dy="0.32em">20</text></g><g class="tick" opacity="1" transform="translate(0,208)"><line stroke="currentColor" x2="-6"></line><text fill="currentColor" x="-9" dy="0.32em">30</text></g><g class="tick" opacity="1" transform="translate(0,184)"><line stroke="currentColor" x2="-6"></line><text fill="currentColor" x="-9" dy="0.32em">40</text></g><g class="tick" opacity="1" transform="translate(0,160)"><line stroke="currentColor" x2="-6"></line><text fill="currentColor" x="-9" dy="0.32em">50</text></g><g class="tick" opacity="1" transform="translate(0,136)"><line stroke="currentColor" x2="-6"></line><text fill="currentColor" x="-9" dy="0.32em">60</text></g><g class="tick" opacity="1" transform="translate(0,112.00000000000001)"><line stroke="currentColor" x2="-6"></line><text fill="currentColor" x="-9" dy="0.32em">70</text></g><g class="tick" opacity="1" transform="translate(0,87.99999999999999)"><line stroke="currentColor" x2="-6"></line><text fill="currentColor" x="-9" dy="0.32em">80</text></g><g class="tick" opacity="1" transform="translate(0,63.99999999999999)"><line stroke="currentColor" x2="-6"></line><text fill="currentColor" x="-9" dy="0.32em">90</text></g><g class="tick" opacity="1" transform="translate(0,40)"><line stroke="currentColor" x2="-6"></line><text fill="currentColor" x="-9" dy="0.32em">100</text></g></g><g id="xAxis" transform="translate(60,360)" fill="none" font-size="10" font-family="sans-serif" text-anchor="middle"><path class="domain" stroke="currentColor" d="M40,6V0H270V6"></path><g class="tick" opacity="1" transform="translate(40,0)"><line stroke="currentColor" y2="6"></line><text fill="currentColor" y="9" dy="0.71em">0</text></g><g class="tick" opacity="1" transform="translate(71.50346699397912,0)"><line stroke="currentColor" y2="6"></line><text fill="currentColor" y="9" dy="0.71em">10</text></g><g class="tick" opacity="1" transform="translate(103.00693398795822,0)"><line stroke="currentColor" y2="6"></line><text fill="currentColor" y="9" dy="0.71em">20</text></g><g class="tick" opacity="1" transform="translate(134.51040098193732,0)"><line stroke="currentColor" y2="6"></line><text fill="currentColor" y="9" dy="0.71em">30</text></g><g class="tick" opacity="1" transform="translate(166.01386797591644,0)"><line stroke="currentColor" y2="6"></line><text fill="currentColor" y="9" dy="0.71em">40</text></g><g class="tick" opacity="1" transform="translate(197.51733496989556,0)"><line stroke="currentColor" y2="6"></line><text fill="currentColor" y="9" dy="0.71em">50</text></g><g class="tick" opacity="1" transform="translate(229.02080196387465,0)"><line stroke="currentColor" y2="6"></line><text fill="currentColor" y="9" dy="0.71em">60</text></g><g class="tick" opacity="1" transform="translate(260.52426895785374,0)"><line stroke="currentColor" y2="6"></line><text fill="currentColor" y="9" dy="0.71em">70</text></g></g><g id="labels"><text id="xTitle" text-anchor="middle" transform="translate(250,350)" x="0" y="40" style="fill: black; font-size: 0.8rem;">Percent Cat Owners</text><g id="group-yTitle" transform="translate(60,190)"><text id="yTitle" text-anchor="middle" transform="rotate(-90)" y="-45" style="fill: black; font-size: 0.8rem;">Percent Dog Owners</text></g></g><g id="quadrant_lines" transform="translate(60,30)"><line id="verticalQuadrantLine" x1="155" y1="20" x2="155" y2="300" class="quadrantLine"></line><line id="horizontalQuadrantLine" x1="20" y1="160" x2="290" y2="160" class="quadrantLine"></line></g><g id="chart" transform="translate(60,30)"><g class="bobaCup bright" cupRadius="40" width="80" height="80" pearlRadius="5.476084842856627" pearlCount="20" transform="translate(53.3962392151964,134.04772963606973)"><circle class="pool" r="40" cx="40" cy="40" style="stroke-width: 1; fill: rgb(127, 205, 187);"></circle><circle class="pearl" r="4.380867874285302" cx="43.744254273596496" cy="39.680254153566786"></circle><circle class="pearl" r="4.380867874285302" cx="28.437209747743065" cy="43.05253710643598"></circle><circle class="pearl" r="4.380867874285302" cx="40.43982566312289" cy="22.428744625985598"></circle><circle class="pearl" r="4.380867874285302" cx="50.20908333634776" cy="54.02865153787438"></circle><circle class="pearl" r="4.380867874285302" cx="10.051659708083633" cy="28.29727323861887"></circle><circle class="pearl" r="4.380867874285302" cx="54.568634257838156" cy="28.474978999778322"></circle><circle class="pearl" r="4.380867874285302" cx="34.86985197188746" cy="57.27414673053024"></circle><circle class="pearl" r="4.380867874285302" cx="25.86891319552522" cy="27.890168941053528"></circle><circle class="pearl" r="4.380867874285302" cx="61.15160097422234" cy="42.80174300536202"></circle><circle class="pearl" r="4.380867874285302" cx="18.26225020160879" cy="55.044406095846384"></circle><circle class="pearl" r="4.380867874285302" cx="49.201230962870156" cy="9.37411224623171"></circle><circle class="pearl" r="4.380867874285302" cx="57.24604509085917" cy="67.789742616149"></circle><circle class="pearl" r="4.380867874285302" cx="17.173546293154654" cy="15.45402629711672"></circle><circle class="pearl" r="4.380867874285302" cx="70.48058796122504" cy="30.204398621188155"></circle><circle class="pearl" r="4.380867874285302" cx="24.105511537462792" cy="68.4050275837443"></circle><circle class="pearl" r="4.380867874285302" cx="32.2176809243996" cy="9.065805646706231"></circle><circle class="pearl" r="4.380867874285302" cx="67.91435300458772" cy="56.98281099664498"></circle><circle class="pearl" r="4.380867874285302" cx="8.454573921718996" cy="43.49667687179387"></circle><circle class="pearl" r="4.380867874285302" cx="63.49047240097863" cy="15.925564903447587"></circle><circle class="pearl" r="4.380867874285302" cx="41.816739339723085" cy="71.65727547151195"></circle></g><g class="bobaCup bright" cupRadius="35.61667479362393" width="71.23334958724786" height="71.23334958724786" pearlRadius="5.4760848428566264" pearlCount="15" transform="translate(234.38332520637607,4.383325206376071)"><circle class="pool" r="35.61667479362393" cx="35.61667479362393" cy="35.61667479362393" style="stroke-width: 1; fill: rgb(127, 205, 187);"></circle><circle class="pearl" r="4.380867874285301" cx="39.51691197626229" cy="36.9302748444644"></circle><circle class="pearl" r="4.380867874285301" cx="27.019854133466" cy="46.71816392337387"></circle><circle class="pearl" r="4.380867874285301" cx="33.29120418201801" cy="22.732354290245226"></circle><circle class="pearl" r="4.380867874285301" cx="41.330425657396006" cy="52.51488578595068"></circle><circle class="pearl" r="4.380867874285301" cx="21.13541788149309" cy="32.309640557709116"></circle><circle class="pearl" r="4.380867874285301" cx="48.707821355061895" cy="20.72252159085512"></circle><circle class="pearl" r="4.380867874285301" cx="29.44307618325876" cy="62.392773911291634"></circle><circle class="pearl" r="4.380867874285301" cx="24.097998311206887" cy="10.215486109754073"></circle><circle class="pearl" r="4.380867874285301" cx="54.58811357169805" cy="41.42708096257029"></circle><circle class="pearl" r="4.380867874285301" cx="8.894169864575636" cy="42.08740525104011"></circle><circle class="pearl" r="4.380867874285301" cx="39.75829576221981" cy="8.543066493108787"></circle><circle class="pearl" r="4.380867874285301" cx="55.94330477188743" cy="56.56203392412714"></circle><circle class="pearl" r="4.380867874285301" cx="12.17839068489077" cy="19.456940050738893"></circle><circle class="pearl" r="4.380867874285301" cx="62.08615689780839" cy="27.90110285514222"></circle><circle class="pearl" r="4.380867874285301" cx="15.173635950172892" cy="56.48078484068579"></circle></g><g class="bobaCup bright" cupRadius="35.465732786999205" width="70.93146557399841" height="70.93146557399841" pearlRadius="5.4760848428566264" pearlCount="15" transform="translate(131.69553048493495,241.75048054851678)"><circle class="pool" r="35.465732786999205" cx="35.465732786999205" cy="35.465732786999205" style="stroke-width: 1; fill: rgb(127, 205, 187);"></circle><circle class="pearl" r="4.380867874285301" cx="39.44371321533448" cy="36.731437023733015"></circle><circle class="pearl" r="4.380867874285301" cx="26.91615121135524" cy="46.475068847084465"></circle><circle class="pearl" r="4.380867874285301" cx="33.17012811250513" cy="22.65283857489638"></circle><circle class="pearl" r="4.380867874285301" cx="41.158708348385005" cy="52.26073387319766"></circle><circle class="pearl" r="4.380867874285301" cx="21.046599490582064" cy="32.12232176497446"></circle><circle class="pearl" r="4.380867874285301" cx="48.50643066727827" cy="20.701779408670816"></circle><circle class="pearl" r="4.380867874285301" cx="29.36486455536734" cy="62.10133842271535"></circle><circle class="pearl" r="4.380867874285301" cx="24.098530625689516" cy="10.172463630778209"></circle><circle class="pearl" r="4.380867874285301" cx="54.44920110383262" cy="41.31395184913338"></circle><circle class="pearl" r="4.380867874285301" cx="8.889841469289776" cy="41.89920089197494"></circle><circle class="pearl" r="4.380867874285301" cx="39.72708966478786" cy="8.55838716490421"></circle><circle class="pearl" r="4.380867874285301" cx="55.62602675654506" cy="56.34271584860124"></circle><circle class="pearl" r="4.380867874285301" cx="12.233826746862123" cy="19.23410063243253"></circle><circle class="pearl" r="4.380867874285301" cx="61.79036843237288" cy="27.794185332367768"></circle><circle class="pearl" r="4.380867874285301" cx="15.162650509638697" cy="56.24354099976836"></circle></g><g class="bobaCup bright" cupRadius="28.78215894499132" width="57.56431788998264" height="57.56431788998264" pearlRadius="5.4760848428566264" pearlCount="10" transform="translate(11.21784105500868,112.66819081478474)"><circle class="pool" r="28.78215894499132" cx="28.78215894499132" cy="28.78215894499132" style="stroke-width: 1; fill: rgb(65, 182, 196);"></circle><circle class="pearl" r="4.380867874285301" cx="34.89728944410409" cy="23.96528428658748"></circle><circle class="pearl" r="4.380867874285301" cx="23.31005058814403" cy="33.292191744273296"></circle><circle class="pearl" r="4.380867874285301" cx="29.14126849228837" cy="9.038587675713382"></circle><circle class="pearl" r="4.380867874285301" cx="43.64695596252576" cy="45.12722305551862"></circle><circle class="pearl" r="4.380867874285301" cx="8.324883423811928" cy="27.620873575950505"></circle><circle class="pearl" r="4.380867874285301" cx="44.181273205139306" cy="12.767356646668537"></circle><circle class="pearl" r="4.380867874285301" cx="28.2323284833377" cy="49.257619201361315"></circle><circle class="pearl" r="4.380867874285301" cx="13.57822590257512" cy="12.644843289938263"></circle><circle class="pearl" r="4.380867874285301" cx="49.22216722356617" cy="30.312339721721163"></circle><circle class="pearl" r="4.380867874285301" cx="13.37653205442137" cy="44.79283567039517"></circle></g><g class="bobaCup bright" cupRadius="26.4856837494367" width="52.9713674988734" height="52.9713674988734" pearlRadius="5.4760848428566264" pearlCount="8" transform="translate(116.21612648747521,221.09506554763567)"><circle class="pool" r="26.4856837494367" cx="26.4856837494367" cy="26.4856837494367" style="stroke-width: 1; fill: rgb(65, 182, 196);"></circle><circle class="pearl" r="4.380867874285301" cx="44.66185732451749" cy="27.139198174985413"></circle><circle class="pearl" r="4.380867874285301" cx="24.498777956138746" cy="28.517357357360236"></circle><circle class="pearl" r="4.380867874285301" cx="24.449782190822017" cy="8.379810226717117"></circle><circle class="pearl" r="4.380867874285301" cx="38.58997359873929" cy="41.74220008450654"></circle><circle class="pearl" r="4.380867874285301" cx="8.867812345066964" cy="31.93365633280064"></circle><circle class="pearl" r="4.380867874285301" cx="40.03106243238017" cy="12.027205777643784"></circle><circle class="pearl" r="4.380867874285301" cx="22.803410652293813" cy="44.41270100089235"></circle><circle class="pearl" r="4.380867874285301" cx="10.457525181333962" cy="16.018508247384915"></circle></g><g class="bobaCup bright" cupRadius="26.07088336783491" width="52.14176673566982" height="52.14176673566982" pearlRadius="5.476084842856627" pearlCount="8" transform="translate(111.7627061918005,246.53793884801652)"><circle class="pool" r="26.07088336783491" cx="26.07088336783491" cy="26.07088336783491" style="stroke-width: 1; fill: rgb(65, 182, 196);"></circle><circle class="pearl" r="4.380867874285302" cx="28.607726337819916" cy="25.25805538536461"></circle><circle class="pearl" r="4.380867874285302" cx="16.042102640221877" cy="41.82943298917479"></circle><circle class="pearl" r="4.380867874285302" cx="27.700394453829368" cy="8.352421039589839"></circle><circle class="pearl" r="4.380867874285302" cx="43.202362479011356" cy="31.80300833294305"></circle><circle class="pearl" r="4.380867874285302" cx="8.35959951299439" cy="27.81123427937769"></circle><circle class="pearl" r="4.380867874285302" cx="41.76555831488595" cy="15.878870949550118"></circle><circle class="pearl" r="4.380867874285302" cx="31.97087749051193" cy="43.16394476045481"></circle><circle class="pearl" r="4.380867874285302" cx="12.239460429417434" cy="12.293109531022584"></circle></g><g class="bobaCup bright" cupRadius="25.87176364622307" width="51.74352729244614" height="51.74352729244614" pearlRadius="5.476084842856629" pearlCount="8" transform="translate(243.04717066988113,226.98924554834974)"><circle class="pool" r="25.87176364622307" cx="25.87176364622307" cy="25.87176364622307" style="stroke-width: 1; fill: rgb(29, 145, 192);"></circle><circle class="pearl" r="4.380867874285303" cx="28.272225464115152" cy="25.752530685682064"></circle><circle class="pearl" r="4.380867874285303" cx="14.394600076137007" cy="40.75701317086146"></circle><circle class="pearl" r="4.380867874285303" cx="28.811178646519977" cy="8.468969332199501"></circle><circle class="pearl" r="4.380867874285303" cx="42.396434540083796" cy="33.1527011847728"></circle><circle class="pearl" r="4.380867874285303" cx="8.309056652318317" cy="26.499235101133344"></circle><circle class="pearl" r="4.380867874285303" cx="41.94828148371359" cy="17.207872429475067"></circle><circle class="pearl" r="4.380867874285303" cx="30.092153616834462" cy="43.09552948324199"></circle><circle class="pearl" r="4.380867874285303" cx="13.234489030293776" cy="11.597837582682027"></circle></g><g class="bobaCup bright" cupRadius="24.85914914459581" width="49.71829828919162" height="49.71829828919162" pearlRadius="5.476084842856627" pearlCount="7" transform="translate(68.62008092311379,149.72832859115502)"><circle class="pool" r="24.85914914459581" cx="24.85914914459581" cy="24.85914914459581" style="stroke-width: 1; fill: rgb(29, 145, 192);"></circle><circle class="pearl" r="4.380867874285302" cx="27.252066554094664" cy="25.60010504227321"></circle><circle class="pearl" r="4.380867874285302" cx="10.569960413580928" cy="30.633756265071224"></circle><circle class="pearl" r="4.380867874285302" cx="25.1762565510149" cy="8.303469076613386"></circle><circle class="pearl" r="4.380867874285302" cx="37.997238136453866" cy="37.441820400109144"></circle><circle class="pearl" r="4.380867874285302" cx="10.497304320925089" cy="14.643840802979833"></circle><circle class="pearl" r="4.380867874285302" cx="39.52776924277963" cy="15.353711824979559"></circle><circle class="pearl" r="4.380867874285302" cx="22.480251775189956" cy="41.30276570008492"></circle></g><g class="bobaCup bright" cupRadius="23.790987743179997" width="47.581975486359994" height="47.581975486359994" pearlRadius="5.4760848428566264" pearlCount="7" transform="translate(31.909478250097614,177.38921457972668)"><circle class="pool" r="23.790987743179997" cx="23.790987743179997" cy="23.790987743179997" style="stroke-width: 1; fill: rgb(29, 145, 192);"></circle><circle class="pearl" r="4.380867874285301" cx="23.873508250090172" cy="23.828132205330874"></circle><circle class="pearl" r="4.380867874285301" cx="8.959716559687168" cy="29.348727603482494"></circle><circle class="pearl" r="4.380867874285301" cx="25.65264083568884" cy="8.374395799997126"></circle><circle class="pearl" r="4.380867874285301" cx="36.7032219953477" cy="34.56089250411429"></circle><circle class="pearl" r="4.380867874285301" cx="10.652735077144575" cy="13.478354747491705"></circle><circle class="pearl" r="4.380867874285301" cx="38.43427201798665" cy="17.502074527488123"></circle><circle class="pearl" r="4.380867874285301" cx="21.23851231100216" cy="39.143208379414055"></circle></g><g class="bobaCup bright" cupRadius="18.973474475390667" width="37.946948950781334" height="37.946948950781334" pearlRadius="5.4760848428566264" pearlCount="4" transform="translate(46.647124829370334,261.0265255246093)"><circle class="pool" r="18.973474475390667" cx="18.973474475390667" cy="18.973474475390667" style="stroke-width: 1; fill: rgb(29, 145, 192);"></circle><circle class="pearl" r="4.380867874285301" cx="28.40405989582677" cy="12.22308343776557"></circle><circle class="pearl" r="4.380867874285301" cx="10.745351455407206" cy="25.25364792343702"></circle><circle class="pearl" r="4.380867874285301" cx="12.668750607997467" cy="9.379581018906615"></circle><circle class="pearl" r="4.380867874285301" cx="26.480660743239845" cy="28.097150342298846"></circle></g><g class="bobaCup bright" cupRadius="18.66250971808768" width="37.32501943617536" height="37.32501943617536" pearlRadius="5.476084842856628" pearlCount="4" transform="translate(95.83125500616556,254.2999931964365)"><circle class="pool" r="18.66250971808768" cx="18.66250971808768" cy="18.66250971808768" style="stroke-width: 1; fill: rgb(127, 205, 187);"></circle><circle class="pearl" r="4.380867874285303" cx="27.62977318647409" cy="11.585721853126074"></circle><circle class="pearl" r="4.380867874285303" cx="10.183355907412743" cy="25.536945412290002"></circle><circle class="pearl" r="4.380867874285303" cx="11.760306776890273" cy="9.624727139997546"></circle><circle class="pearl" r="4.380867874285303" cx="26.05282231699683" cy="27.497940125418857"></circle></g><g class="bobaCup bright" cupRadius="17.345067857568758" width="34.690135715137515" height="34.690135715137515" pearlRadius="5.4760848428566264" pearlCount="3" transform="translate(106.61904946526721,180.46055016425947)"><circle class="pool" r="17.345067857568758" cx="17.345067857568758" cy="17.345067857568758" style="stroke-width: 1; fill: rgb(65, 182, 196);"></circle><circle class="pearl" r="4.380867874285301" cx="25.629444874921532" cy="20.311189294855264"></circle><circle class="pearl" r="4.380867874285301" cx="9.758428193220999" cy="23.443896439676443"></circle><circle class="pearl" r="4.380867874285301" cx="16.28757255603543" cy="7.333713193260364"></circle></g><g class="bobaCup bright" cupRadius="14.908961769926277" width="29.817923539852554" height="29.817923539852554" pearlRadius="5.4760848428566264" pearlCount="2" transform="translate(91.73298294448202,235.4602673572217)"><circle class="pool" r="14.908961769926277" cx="14.908961769926277" cy="14.908961769926277" style="stroke-width: 1; fill: rgb(29, 145, 192);"></circle><circle class="pearl" r="4.380867874285301" cx="22.384018391110743" cy="12.92600997189214"></circle><circle class="pearl" r="4.380867874285301" cx="8.669752099996007" cy="21.148172747036398"></circle></g></g><g id="legendDividerGroup" transform="translate(390,0)" height="400"><rect class="legendDivider" height="400" width="110"></rect></g><g id="legend" transform="translate(390,5.434362987676536)" width="110" height="320"><rect class="legendBorder" transform="translate(0,0)" width="110" height="369.1312740246469"></rect><text id="rTitle" text-anchor="middle" alignment-baseline="hanging" transform="translate(55,0)" x="0" y="0" style="fill: black; font-size: 0.8rem;">Population</text><text id="bobaValue" text-anchor="middle" alignment-baseline="hanging" transform="translate(55,15)" x="0" y="0" style="fill: black; font-size: 0.7rem;">(1 Pearl =   75)</text><g class="bright" cupRadius="14.908961769926277" width="29.817923539852554" height="29.817923539852554" pearlRadius="5.4760848428566264" pearlCount="2" transform="translate(40.09103823007372,40)"><circle class="pool" r="14.908961769926277" cx="14.908961769926277" cy="14.908961769926277" style="stroke-width: 1; fill: rgb(29, 145, 192);"></circle><circle class="pearl" r="4.380867874285301" cx="22.384018391110743" cy="12.92600997189214"></circle><circle class="pearl" r="4.380867874285301" cx="8.669752099996007" cy="21.148172747036398"></circle></g><text id="0" class="legendSampleValue" text-anchor="middle" transform="translate(55,8)" x="0" y="74.81792353985256" style="fill: black; font-size: 0.7rem;"> 210</text><g class="bright" cupRadius="26.017795535138497" width="52.03559107027699" height="52.03559107027699" pearlRadius="5.476084842856627" pearlCount="8" transform="translate(28.982204464861503,94.81792353985256)"><circle class="pool" r="26.017795535138497" cx="26.017795535138497" cy="26.017795535138497" style="stroke-width: 1; fill: rgb(29, 145, 192);"></circle><circle class="pearl" r="4.380867874285302" cx="28.511699203564053" cy="25.482563669426586"></circle><circle class="pearl" r="4.380867874285302" cx="15.49961791391268" cy="41.513273754025725"></circle><circle class="pearl" r="4.380867874285302" cx="28.069413198221273" cy="8.382462132922655"></circle><circle class="pearl" r="4.380867874285302" cx="42.971174211763916" cy="32.27235323101865"></circle><circle class="pearl" r="4.380867874285302" cx="8.337902923803142" cy="27.394641465907824"></circle><circle class="pearl" r="4.380867874285302" cx="41.86515394507201" cy="16.334773899297"></circle><circle class="pearl" r="4.380867874285302" cx="31.35950743538507" cy="43.17988768681966"></circle><circle class="pearl" r="4.380867874285302" cx="12.538671191483498" cy="12.065278492792316"></circle></g><text id="1" class="legendSampleValue" text-anchor="middle" transform="translate(55,8)" x="0" y="151.85351461012954" style="fill: black; font-size: 0.7rem;"> 630</text><g class="bright" cupRadius="33.63887970725871" width="67.27775941451742" height="67.27775941451742" pearlRadius="5.476084842856627" pearlCount="14" transform="translate(21.36112029274129,171.85351461012954)"><circle class="pool" r="33.63887970725871" cx="33.63887970725871" cy="33.63887970725871" style="stroke-width: 1; fill: rgb(29, 145, 192);"></circle><circle class="pearl" r="4.380867874285302" cx="41.76836647550741" cy="25.502112494220118"></circle><circle class="pearl" r="4.380867874285302" cx="25.549618512279316" cy="41.72976831045293"></circle><circle class="pearl" r="4.380867874285302" cx="25.902706342211445" cy="25.831968414886294"></circle><circle class="pearl" r="4.380867874285302" cx="41.437316809140285" cy="41.37039356476757"></circle><circle class="pearl" r="4.380867874285302" cx="10.250501723293247" cy="37.09908252522698"></circle><circle class="pearl" r="4.380867874285302" cx="52.85272160949876" cy="14.328688992455671"></circle><circle class="pearl" r="4.380867874285302" cx="29.283681430111688" cy="58.693189513858435"></circle><circle class="pearl" r="4.380867874285302" cx="22.203711262320436" cy="10.304726745466048"></circle><circle class="pearl" r="4.380867874285302" cx="56.92169986530977" cy="45.21507642033387"></circle><circle class="pearl" r="4.380867874285302" cx="14.420919004193749" cy="52.94620385611913"></circle><circle class="pearl" r="4.380867874285302" cx="38.084521792491" cy="8.59650373191073"></circle><circle class="pearl" r="4.380867874285302" cx="45.948213501610965" cy="56.64325586346819"></circle><circle class="pearl" r="4.380867874285302" cx="10.709442046418118" cy="21.14063562384628"></circle><circle class="pearl" r="4.380867874285302" cx="58.68597765705992" cy="29.22879876723652"></circle></g><text id="2" class="legendSampleValue" text-anchor="middle" transform="translate(55,8)" x="0" y="244.13127402464696" style="fill: black; font-size: 0.7rem;">1.1k</text><g class="bright" cupRadius="40" width="80" height="80" pearlRadius="5.476084842856627" pearlCount="20" transform="translate(15,264.1312740246469)"><circle class="pool" r="40" cx="40" cy="40" style="stroke-width: 1; fill: rgb(29, 145, 192);"></circle><circle class="pearl" r="4.380867874285302" cx="43.744254273596496" cy="39.680254153566786"></circle><circle class="pearl" r="4.380867874285302" cx="28.437209747743065" cy="43.05253710643598"></circle><circle class="pearl" r="4.380867874285302" cx="40.43982566312289" cy="22.428744625985598"></circle><circle class="pearl" r="4.380867874285302" cx="50.20908333634776" cy="54.02865153787438"></circle><circle class="pearl" r="4.380867874285302" cx="10.051659708083633" cy="28.29727323861887"></circle><circle class="pearl" r="4.380867874285302" cx="54.568634257838156" cy="28.474978999778322"></circle><circle class="pearl" r="4.380867874285302" cx="34.86985197188746" cy="57.27414673053024"></circle><circle class="pearl" r="4.380867874285302" cx="25.86891319552522" cy="27.890168941053528"></circle><circle class="pearl" r="4.380867874285302" cx="61.15160097422234" cy="42.80174300536202"></circle><circle class="pearl" r="4.380867874285302" cx="18.26225020160879" cy="55.044406095846384"></circle><circle class="pearl" r="4.380867874285302" cx="49.201230962870156" cy="9.37411224623171"></circle><circle class="pearl" r="4.380867874285302" cx="57.24604509085917" cy="67.789742616149"></circle><circle class="pearl" r="4.380867874285302" cx="17.173546293154654" cy="15.45402629711672"></circle><circle class="pearl" r="4.380867874285302" cx="70.48058796122504" cy="30.204398621188155"></circle><circle class="pearl" r="4.380867874285302" cx="24.105511537462792" cy="68.4050275837443"></circle><circle class="pearl" r="4.380867874285302" cx="32.2176809243996" cy="9.065805646706231"></circle><circle class="pearl" r="4.380867874285302" cx="67.91435300458772" cy="56.98281099664498"></circle><circle class="pearl" r="4.380867874285302" cx="8.454573921718996" cy="43.49667687179387"></circle><circle class="pearl" r="4.380867874285302" cx="63.49047240097863" cy="15.925564903447587"></circle><circle class="pearl" r="4.380867874285302" cx="41.816739339723085" cy="71.65727547151195"></circle></g><text id="3" class="legendSampleValue" text-anchor="middle" transform="translate(55,8)" x="0" y="349.1312740246469" style="fill: black; font-size: 0.7rem;">1.5k</text><text id="coloringDisclaimer" transform="translate(55,8)" text-anchor="middle" x="0" y="364.1312740246469" style="font-size: 0.7rem; opacity: 0.6;">(note: coloring</text><text id="coloringDisclaimer" transform="translate(55,8)" text-anchor="middle" x="0" y="379.1312740246469" style="font-size: 0.7rem; opacity: 0.6;">is random)</text></g></svg>