<?xml version="1.0" standalone="no"?>
<?xml-stylesheet xmlns="http://www.w3.org/2000/svg" type="text/css" href="style.css"?>
<svg id="syntheticVisB" class="default" xTitle="Percent Cat Owners" yTitle="Percent Dog Owners" rTitle="Population" chartTitle="Towns in Vizzyland" width="500" height="400" xmlns="http://www.w3.org/2000/svg"><text id="chartTitle" text-anchor="middle" transform="translate(250,20)" x="0" y="0" style="fill: black; font-size: 1.2rem;">Towns in Vizzyland</text><g id="yAxis" transform="translate(50,30)" fill="none" font-size="10" font-family="sans-serif" text-anchor="end"><path class="domain" stroke="currentColor" d="M-6,300H0V20H-6"></path><g class="tick" opacity="1" transform="translate(0,300)"><line stroke="currentColor" x2="-6"></line><text fill="currentColor" x="-9" dy="0.32em">0</text></g><g class="tick" opacity="1" transform="translate(0,272)"><line stroke="currentColor" x2="-6"></line><text fill="currentColor" x="-9" dy="0.32em">10</text></g><g class="tick" opacity="1" transform="translate(0,244)"><line stroke="currentColor" x2="-6"></line><text fill="currentColor" x="-9" dy="0.32em">20</text></g><g class="tick" opacity="1" transform="translate(0,216)"><line stroke="currentColor" x2="-6"></line><text fill="currentColor" x="-9" dy="0.32em">30</text></g><g class="tick" opacity="1" transform="translate(0,188)"><line stroke="currentColor" x2="-6"></line><text fill="currentColor" x="-9" dy="0.32em">40</text></g><g class="tick" opacity="1" transform="translate(0,160)"><line stroke="currentColor" x2="-6"></line><text fill="currentColor" x="-9" dy="0.32em">50</text></g><g class="tick" opacity="1" transform="translate(0,132)"><line stroke="currentColor" x2="-6"></line><text fill="currentColor" x="-9" dy="0.32em">60</text></g><g class="tick" opacity="1" transform="translate(0,104.00000000000001)"><line stroke="currentColor" x2="-6"></line><text fill="currentColor" x="-9" dy="0.32em">70</text></g><g class="tick" opacity="1" transform="translate(0,75.99999999999999)"><line stroke="currentColor" x2="-6"></line><text fill="currentColor" x="-9" dy="0.32em">80</text></g><g class="tick" opacity="1" transform="translate(0,47.99999999999999)"><line stroke="currentColor" x2="-6"></line><text fill="currentColor" x="-9" dy="0.32em">90</text></g><g class="tick" opacity="1" transform="translate(0,20)"><line stroke="currentColor" x2="-6"></line><text fill="currentColor" x="-9" dy="0.32em">100</text></g></g><g id="xAxis" transform="translate(60,360)" fill="none" font-size="10" font-family="sans-serif" text-anchor="middle"><path class="domain" stroke="currentColor" d="M20,6V0H320V6"></path><g class="tick" opacity="1" transform="translate(20,0)"><line stroke="currentColor" y2="6"></line><text fill="currentColor" y="9" dy="0.71em">0</text></g><g class="tick" opacity="1" transform="translate(50,0)"><line stroke="currentColor" y2="6"></line><text fill="currentColor" y="9" dy="0.71em">10</text></g><g class="tick" opacity="1" transform="translate(80,0)"><line stroke="currentColor" y2="6"></line><text fill="currentColor" y="9" dy="0.71em">20</text></g><g class="tick" opacity="1" transform="translate(110,0)"><line stroke="currentColor" y2="6"></line><text fill="currentColor" y="9" dy="0.71em">30</text></g><g class="tick" opacity="1" transform="translate(140,0)"><line stroke="currentColor" y2="6"></line><text fill="currentColor" y="9" dy="0.71em">40</text></g><g class="tick" opacity="1" transform="translate(170,0)"><line stroke="currentColor" y2="6"></line><text fill="currentColor" y="9" dy="0.71em">50</text></g><g class="tick" opacity="1" transform="translate(200,0)"><line stroke="currentColor" y2="6"></line><text fill="currentColor" y="9" dy="0.71em">60</text></g><g class="tick" opacity="1" transform="translate(230,0)"><line stroke="currentColor" y2="6"></line><text fill="currentColor" y="9" dy="0.71em">70</text></g><g class="tick" opacity="1" transform="translate(260,0)"><line stroke="currentColor" y2="6"></line><text fill="currentColor" y="9" dy="0.71em">80</text></g><g class="tick" opacity="1" transform="translate(290,0)"><line stroke="currentColor" y2="6"></line><text fill="currentColor" y="9" dy="0.71em">90</text></g><g class="tick" opacity="1" transform="translate(320,0)"><line stroke="currentColor" y2="6"></line><text fill="currentColor" y="9" dy="0.71em">100</text></g></g><g id="labels"><text id="xTitle" text-anchor="middle" transform="translate(250,350)" x="0" y="40" style="fill: black; font-size: 0.8rem;">Percent Cat Owners</text><g id="group-yTitle" transform="translate(60,190)"><text id="yTitle" text-anchor="middle" transform="rotate(-90)" y="-45" style="fill: black; font-size: 0.8rem;">Percent Dog Owners</text></g></g><g id="quadrant_lines" transform="translate(60,30)"><line id="verticalQuadrantLine" x1="170" y1="10" x2="170" y2="310" class="quadrantLine"></line><line id="horizontalQuadrantLine" x1="10" y1="160" x2="330" y2="160" class="quadrantLine"></line></g><g id="chart" transform="translate(60,30)"><g class="bobaCup bright" cupRadius="20" width="40" height="40" pearlRadius="2.7380424214283137" pearlCount="20" transform="translate(36.48648374531476,166.22710759865848)"><circle class="pool" r="20" cx="20" cy="20" style="stroke-width: 1; fill: rgb(29, 145, 192);"></circle><circle class="pearl" r="2.190433937142651" cx="20.803317911356498" cy="19.852362298934615"></circle><circle class="pearl" r="2.190433937142651" cx="12.399118369231148" cy="22.318129073543428"></circle><circle class="pearl" r="2.190433937142651" cx="20.14107886386132" cy="11.690576671380018"></circle><circle class="pearl" r="2.190433937142651" cx="25.351645945468196" cy="26.426489948513225"></circle><circle class="pearl" r="2.190433937142651" cx="5.45555413244983" cy="14.383463400696877"></circle><circle class="pearl" r="2.190433937142651" cx="27.007002384921414" cy="14.812215198670392"></circle><circle class="pearl" r="2.190433937142651" cx="17.669394065840073" cy="27.98572181627974"></circle><circle class="pearl" r="2.190433937142651" cx="13.075316060454844" cy="14.529673081448232"></circle><circle class="pearl" r="2.190433937142651" cx="31.363412690087696" cy="21.539471699750266"></circle><circle class="pearl" r="2.190433937142651" cx="6.986823167406808" cy="29.380119115938808"></circle><circle class="pearl" r="2.190433937142651" cx="24.195863946736896" cy="5.095807587217031"></circle><circle class="pearl" r="2.190433937142651" cx="27.929986347293504" cy="33.70997709935047"></circle><circle class="pearl" r="2.190433937142651" cx="8.960309851298339" cy="7.973635910317352"></circle><circle class="pearl" r="2.190433937142651" cx="34.68553340637696" cy="14.890285786129768"></circle><circle class="pearl" r="2.190433937142651" cx="12.548559824642552" cy="33.90934248556552"></circle><circle class="pearl" r="2.190433937142651" cx="16.437930987710008" cy="4.970487855189916"></circle><circle class="pearl" r="2.190433937142651" cx="33.26719371328966" cy="28.885282914155283"></circle><circle class="pearl" r="2.190433937142651" cx="4.745924110358729" cy="21.949095191008542"></circle><circle class="pearl" r="2.190433937142651" cx="31.34694409707199" cy="8.181149473979769"></circle><circle class="pearl" r="2.190433937142651" cx="20.521343379892976" cy="35.34248064375117"></circle></g><g class="bobaCup bright" cupRadius="19.493445322951054" width="38.98689064590211" height="38.98689064590211" pearlRadius="2.738042421428314" pearlCount="18" transform="translate(5.3138701371765364,249.38660998753073)"><circle class="pool" r="19.493445322951054" cx="19.493445322951054" cy="19.493445322951054" style="stroke-width: 1; fill: rgb(127, 205, 187);"></circle><circle class="pearl" r="2.1904339371426516" cx="19.347662105711738" cy="19.31895035660298"></circle><circle class="pearl" r="2.1904339371426516" cx="14.318604816540578" cy="25.461824431324203"></circle><circle class="pearl" r="2.1904339371426516" cx="19.386201540021354" cy="11.513217340377928"></circle><circle class="pearl" r="2.1904339371426516" cx="22.96471401118115" cy="26.133130703904072"></circle><circle class="pearl" r="2.1904339371426516" cx="12.65221698444199" cy="15.237187538574368"></circle><circle class="pearl" r="2.1904339371426516" cx="26.15776469870619" cy="15.228240798472973"></circle><circle class="pearl" r="2.1904339371426516" cx="16.430106637866725" cy="33.185493566589685"></circle><circle class="pearl" r="2.1904339371426516" cx="14.879034787800911" cy="5.204748656182744"></circle><circle class="pearl" r="2.1904339371426516" cx="29.91307469593728" cy="22.348588805136004"></circle><circle class="pearl" r="2.1904339371426516" cx="6.461369572297943" cy="23.6589011868642"></circle><circle class="pearl" r="2.1904339371426516" cx="30.894112686616783" cy="8.432375274608816"></circle><circle class="pearl" r="2.1904339371426516" cx="24.30139971749032" cy="33.733936589454466"></circle><circle class="pearl" r="2.1904339371426516" cx="7.939396684013158" cy="8.658327451839925"></circle><circle class="pearl" r="2.1904339371426516" cx="33.95922289793608" cy="15.678500030221322"></circle><circle class="pearl" r="2.1904339371426516" cx="8.737200638614778" cy="31.09995466482595"></circle><circle class="pearl" r="2.1904339371426516" cx="23.839451185606553" cy="5.141362348209789"></circle><circle class="pearl" r="2.1904339371426516" cx="31.155230488272842" cy="30.165674727253453"></circle><circle class="pearl" r="2.1904339371426516" cx="4.967530945659423" cy="15.993305226855735"></circle></g><g class="bobaCup bright" cupRadius="18.151869531775414" width="36.30373906355083" height="36.30373906355083" pearlRadius="2.7380424214283137" pearlCount="16" transform="translate(131.01586591006327,50.57146360513053)"><circle class="pool" r="18.151869531775414" cx="18.151869531775414" cy="18.151869531775414" style="stroke-width: 1; fill: rgb(127, 205, 187);"></circle><circle class="pearl" r="2.190433937142651" cx="18.86683537223103" cy="18.925754160011483"></circle><circle class="pearl" r="2.190433937142651" cx="13.66145969982401" cy="23.83088707492646"></circle><circle class="pearl" r="2.190433937142651" cx="16.696329651300363" cy="11.391551488747139"></circle><circle class="pearl" r="2.190433937142651" cx="20.867020875953486" cy="26.500624634022255"></circle><circle class="pearl" r="2.190433937142651" cx="11.180505563345928" cy="16.838346569302765"></circle><circle class="pearl" r="2.190433937142651" cx="23.740565259977178" cy="13.657774087142048"></circle><circle class="pearl" r="2.190433937142651" cx="15.073407438678872" cy="31.390065740665165"></circle><circle class="pearl" r="2.190433937142651" cx="11.502350473330921" cy="5.912528705110354"></circle><circle class="pearl" r="2.190433937142651" cx="26.49771309121799" cy="20.98286855496615"></circle><circle class="pearl" r="2.190433937142651" cx="5.012088027596874" cy="21.7557991721277"></circle><circle class="pearl" r="2.190433937142651" cx="28.115639455257497" cy="7.6297994641037"></circle><circle class="pearl" r="2.190433937142651" cx="28.359361131793488" cy="28.51105911887908"></circle><circle class="pearl" r="2.190433937142651" cx="6.135638954086627" cy="10.96138844087502"></circle><circle class="pearl" r="2.190433937142651" cx="31.398798493883163" cy="15.124591288850615"></circle><circle class="pearl" r="2.190433937142651" cx="8.198501458463475" cy="28.68076525414546"></circle><circle class="pearl" r="2.190433937142651" cx="20.988180069423308" cy="4.8736856538710995"></circle></g><g class="bobaCup bright" cupRadius="18.12982290330875" width="36.2596458066175" height="36.2596458066175" pearlRadius="2.738042421428314" pearlCount="16" transform="translate(66.6788495131867,128.0892406735935)"><circle class="pool" r="18.12982290330875" cx="18.12982290330875" cy="18.12982290330875" style="stroke-width: 1; fill: rgb(29, 145, 192);"></circle><circle class="pearl" r="2.1904339371426516" cx="18.846213078254138" cy="18.905083641692816"></circle><circle class="pearl" r="2.1904339371426516" cx="13.645662673037217" cy="23.79909183546461"></circle><circle class="pearl" r="2.1904339371426516" cx="16.669476877520346" cy="11.38128547085181"></circle><circle class="pearl" r="2.1904339371426516" cx="20.84354671243265" cy="26.46572425535922"></circle><circle class="pearl" r="2.1904339371426516" cx="11.166256034711983" cy="16.81875691671898"></circle><circle class="pearl" r="2.1904339371426516" cx="23.698187327338857" cy="13.638294998960129"></circle><circle class="pearl" r="2.1904339371426516" cx="15.063957084483828" cy="31.34781382227216"></circle><circle class="pearl" r="2.1904339371426516" cx="11.490608076586962" cy="5.910119196263295"></circle><circle class="pearl" r="2.1904339371426516" cx="26.47473839612248" cy="20.954523780495645"></circle><circle class="pearl" r="2.1904339371426516" cx="5.013502298656299" cy="21.73851129850888"></circle><circle class="pearl" r="2.1904339371426516" cx="28.0724797599137" cy="7.620267337044133"></circle><circle class="pearl" r="2.1904339371426516" cx="28.317655240395684" cy="28.475717652693373"></circle><circle class="pearl" r="2.1904339371426516" cx="6.137485109995708" cy="10.939621353478605"></circle><circle class="pearl" r="2.1904339371426516" cx="31.352037142308674" cy="15.08867430686781"></circle><circle class="pearl" r="2.1904339371426516" cx="8.20112042477194" cy="28.64852107431766"></circle><circle class="pearl" r="2.1904339371426516" cx="20.955214557774607" cy="4.872234081208692"></circle></g><g class="bobaCup bright" cupRadius="17.765029761660273" width="35.530059523320546" height="35.530059523320546" pearlRadius="2.7380424214283137" pearlCount="15" transform="translate(63.77212086979303,138.49151742136553)"><circle class="pool" r="17.765029761660273" cx="17.765029761660273" cy="17.765029761660273" style="stroke-width: 1; fill: rgb(65, 182, 196);"></circle><circle class="pearl" r="2.190433937142651" cx="23.703368549675982" cy="17.77504091272133"></circle><circle class="pearl" r="2.190433937142651" cx="13.102467378823663" cy="22.418834596463135"></circle><circle class="pearl" r="2.190433937142651" cx="17.736624353811496" cy="11.859122093247018"></circle><circle class="pearl" r="2.190433937142651" cx="20.374592077425156" cy="24.85491366552818"></circle><circle class="pearl" r="2.190433937142651" cx="10.582970448554349" cy="15.19072851477951"></circle><circle class="pearl" r="2.190433937142651" cx="25.364951689517557" cy="10.143680315104493"></circle><circle class="pearl" r="2.190433937142651" cx="15.122659631894372" cy="30.681724172856175"></circle><circle class="pearl" r="2.190433937142651" cx="13.603417765376882" cy="5.14504750304684"></circle><circle class="pearl" r="2.190433937142651" cx="30.385794084041382" cy="21.923394850247213"></circle><circle class="pearl" r="2.190433937142651" cx="4.880357567194935" cy="20.612166883477286"></circle><circle class="pearl" r="2.190433937142651" cx="21.23563513735914" cy="4.993032744562331"></circle><circle class="pearl" r="2.190433937142651" cx="27.31868057553272" cy="28.09175753648992"></circle><circle class="pearl" r="2.190433937142651" cx="7.466850394709706" cy="8.166769834867226"></circle><circle class="pearl" r="2.190433937142651" cx="30.531941939596667" cy="14.268994967975809"></circle><circle class="pearl" r="2.190433937142651" cx="7.87217337208358" cy="27.869904619506652"></circle></g><g class="bobaCup bright" cupRadius="17.670292688699128" width="35.340585377398256" height="35.340585377398256" pearlRadius="2.7380424214283137" pearlCount="15" transform="translate(245.8682335948664,235.25432870118007)"><circle class="pool" r="17.670292688699128" cx="17.670292688699128" cy="17.670292688699128" style="stroke-width: 1; fill: rgb(127, 205, 187);"></circle><circle class="pearl" r="2.190433937142651" cx="23.549412319817037" cy="17.7007110275064"></circle><circle class="pearl" r="2.190433937142651" cx="12.943141484374523" cy="22.124371719753245"></circle><circle class="pearl" r="2.190433937142651" cx="17.833003514864682" cy="11.945649765958622"></circle><circle class="pearl" r="2.190433937142651" cx="20.190449227346935" cy="24.679424073845738"></circle><circle class="pearl" r="2.190433937142651" cx="10.48643333708543" cy="14.873527180436293"></circle><circle class="pearl" r="2.190433937142651" cx="25.45981046907821" cy="10.198961435731713"></circle><circle class="pearl" r="2.190433937142651" cx="15.005117372421335" cy="30.487714302606232"></circle><circle class="pearl" r="2.190433937142651" cx="13.976647022591997" cy="5.041078839909606"></circle><circle class="pearl" r="2.190433937142651" cx="30.1615313284483" cy="21.9589273209974"></circle><circle class="pearl" r="2.190433937142651" cx="4.857803499876738" cy="20.367597967915433"></circle><circle class="pearl" r="2.190433937142651" cx="21.586410627903593" cy="5.090134802523501"></circle><circle class="pearl" r="2.190433937142651" cx="27.073094487200112" cy="27.9804037297268"></circle><circle class="pearl" r="2.190433937142651" cx="7.739839636553315" cy="7.705088102607821"></circle><circle class="pearl" r="2.190433937142651" cx="30.376866018238527" cy="14.359175068000658"></circle><circle class="pearl" r="2.190433937142651" cx="7.8252809047479595" cy="27.693184784176733"></circle></g><g class="bobaCup bright" cupRadius="17.551146207048326" width="35.10229241409665" height="35.10229241409665" pearlRadius="2.7380424214283137" pearlCount="15" transform="translate(178.74399616756187,232.35915828650212)"><circle class="pool" r="17.551146207048326" cx="17.551146207048326" cy="17.551146207048326" style="stroke-width: 1; fill: rgb(127, 205, 187);"></circle><circle class="pearl" r="2.190433937142651" cx="23.389024928534518" cy="17.47973993177729"></circle><circle class="pearl" r="2.190433937142651" cx="12.839274160143349" cy="21.973844153009754"></circle><circle class="pearl" r="2.190433937142651" cx="17.88208811686076" cy="11.79724016450382"></circle><circle class="pearl" r="2.190433937142651" cx="20.06443057502502" cy="24.43004722962003"></circle><circle class="pearl" r="2.190433937142651" cx="10.527749498632287" cy="14.74533281509674"></circle><circle class="pearl" r="2.190433937142651" cx="25.49967161047899" cy="9.974655812629013"></circle><circle class="pearl" r="2.190433937142651" cx="14.943227087286967" cy="30.256732812251524"></circle><circle class="pearl" r="2.190433937142651" cx="13.847248368651899" cy="5.0459994785490565"></circle><circle class="pearl" r="2.190433937142651" cx="29.91946298146716" cy="21.840086700668603"></circle><circle class="pearl" r="2.190433937142651" cx="4.848728701214707" cy="20.180069909465544"></circle><circle class="pearl" r="2.190433937142651" cx="21.429651099242072" cy="5.084628624600363"></circle><circle class="pearl" r="2.190433937142651" cx="26.859193790107657" cy="27.7800393503025"></circle><circle class="pearl" r="2.190433937142651" cx="7.722260248528832" cy="7.6610395419852395"></circle><circle class="pearl" r="2.190433937142651" cx="30.14483764575942" cy="14.284206360033956"></circle><circle class="pearl" r="2.190433937142651" cx="7.808822824682746" cy="27.499391034288575"></circle></g><g class="bobaCup bright" cupRadius="17.423689201911774" width="34.84737840382355" height="34.84737840382355" pearlRadius="2.7380424214283137" pearlCount="15" transform="translate(123.2300543102476,222.85224149039274)"><circle class="pool" r="17.423689201911774" cx="17.423689201911774" cy="17.423689201911774" style="stroke-width: 1; fill: rgb(65, 182, 196);"></circle><circle class="pearl" r="2.190433937142651" cx="23.239293305751726" cy="17.365653307968287"></circle><circle class="pearl" r="2.190433937142651" cx="12.71424273557934" cy="21.793744887107337"></circle><circle class="pearl" r="2.190433937142651" cx="17.82401905301471" cy="11.75552746702953"></circle><circle class="pearl" r="2.190433937142651" cx="19.904090443892304" cy="24.204675438790602"></circle><circle class="pearl" r="2.190433937142651" cx="10.466714590141557" cy="14.61403688095094"></circle><circle class="pearl" r="2.190433937142651" cx="25.403081273206546" cy="9.887234884277115"></circle><circle class="pearl" r="2.190433937142651" cx="14.862816602884722" cy="30.00743367432784"></circle><circle class="pearl" r="2.190433937142651" cx="13.792025630196651" cy="5.033404094510065"></circle><circle class="pearl" r="2.190433937142651" cx="29.653913005304812" cy="21.738613617105923"></circle><circle class="pearl" r="2.190433937142651" cx="4.845726856671483" cy="20.023177382989108"></circle><circle class="pearl" r="2.190433937142651" cx="21.349084981946376" cy="5.09865873955934"></circle><circle class="pearl" r="2.190433937142651" cx="26.59546570177407" cy="27.587265188672834"></circle><circle class="pearl" r="2.190433937142651" cx="7.724350380604621" cy="7.600029133281527"></circle><circle class="pearl" r="2.190433937142651" cx="29.899288241737136" cy="14.218376274310952"></circle><circle class="pearl" r="2.190433937142651" cx="7.804129997627559" cy="27.30049247030802"></circle></g><g class="bobaCup bright" cupRadius="17.390659757695452" width="34.781319515390905" height="34.781319515390905" pearlRadius="2.738042421428314" pearlCount="15" transform="translate(120.38475755835523,115.2736948771065)"><circle class="pool" r="17.390659757695452" cx="17.390659757695452" cy="17.390659757695452" style="stroke-width: 1; fill: rgb(127, 205, 187);"></circle><circle class="pearl" r="2.1904339371426516" cx="23.20074043066679" cy="17.336186290180866"></circle><circle class="pearl" r="2.1904339371426516" cx="12.68108123092134" cy="21.74667839269231"></circle><circle class="pearl" r="2.1904339371426516" cx="17.809159360109145" cy="11.744888182210328"></circle><circle class="pearl" r="2.1904339371426516" cx="19.862205752302096" cy="24.145748680969017"></circle><circle class="pearl" r="2.1904339371426516" cx="10.450559642601302" cy="14.57972404629516"></circle><circle class="pearl" r="2.1904339371426516" cx="25.378602782790093" cy="9.865016038301798"></circle><circle class="pearl" r="2.1904339371426516" cx="14.842083875809854" cy="29.94283767347206"></circle><circle class="pearl" r="2.1904339371426516" cx="13.778273436845563" cy="5.0300423019799325"></circle><circle class="pearl" r="2.1904339371426516" cx="29.584974159991372" cy="21.71266785840544"></circle><circle class="pearl" r="2.1904339371426516" cx="4.8449541661802265" cy="19.982547610908426"></circle><circle class="pearl" r="2.1904339371426516" cx="21.328834073222485" cy="5.10249784383608"></circle><circle class="pearl" r="2.1904339371426516" cx="26.52712036815942" cy="27.537238118311787"></circle><circle class="pearl" r="2.1904339371426516" cx="7.72517301106422" cy="7.584086808950945"></circle><circle class="pearl" r="2.1904339371426516" cx="29.83575162679482" cy="14.201905619447874"></circle><circle class="pearl" r="2.1904339371426516" cx="7.802946358407407" cy="27.248926796577184"></circle></g><g class="bobaCup bright" cupRadius="16.77827523715266" width="33.55655047430532" height="33.55655047430532" pearlRadius="2.738042421428314" pearlCount="14" transform="translate(223.2648605301609,200.85794847063536)"><circle class="pool" r="16.77827523715266" cx="16.77827523715266" cy="16.77827523715266" style="stroke-width: 1; fill: rgb(29, 145, 192);"></circle><circle class="pearl" r="2.1904339371426516" cx="20.863819643775557" cy="12.720428888643047"></circle><circle class="pearl" r="2.1904339371426516" cx="12.672996525045061" cy="20.847848804384927"></circle><circle class="pearl" r="2.1904339371426516" cx="13.17908850441762" cy="13.172177219606665"></circle><circle class="pearl" r="2.1904339371426516" cx="20.383219540244976" cy="20.39904737243265"></circle><circle class="pearl" r="2.1904339371426516" cx="4.848987747683207" cy="19.34999927431355"></circle><circle class="pearl" r="2.1904339371426516" cx="25.763940931209017" cy="7.25972424407397"></circle><circle class="pearl" r="2.1904339371426516" cx="15.509669729031625" cy="28.857798868637612"></circle><circle class="pearl" r="2.1904339371426516" cx="10.366544702385804" cy="5.924153046204449"></circle><circle class="pearl" r="2.1904339371426516" cx="28.122694547551067" cy="21.844431086679855"></circle><circle class="pearl" r="2.1904339371426516" cx="7.735438409029449" cy="26.260408125927025"></circle><circle class="pearl" r="2.1904339371426516" cx="18.219705857936017" cy="4.7127549373732975"></circle><circle class="pearl" r="2.1904339371426516" cx="23.480220082914773" cy="27.5091792052735"></circle><circle class="pearl" r="2.1904339371426516" cx="5.481816574650283" cy="11.563113718400935"></circle><circle class="pearl" r="2.1904339371426516" cx="28.666287828939357" cy="13.95325534375994"></circle></g><g class="bobaCup bright" cupRadius="16.395168541128772" width="32.790337082257544" height="32.790337082257544" pearlRadius="2.738042421428314" pearlCount="13" transform="translate(104.70714469653481,160.6390386812977)"><circle class="pool" r="16.395168541128772" cx="16.395168541128772" cy="16.395168541128772" style="stroke-width: 1; fill: rgb(29, 145, 192);"></circle><circle class="pearl" r="2.1904339371426516" cx="20.692130038570102" cy="15.213078310918746"></circle><circle class="pearl" r="2.1904339371426516" cx="14.747754308140864" cy="20.49387328710938"></circle><circle class="pearl" r="2.1904339371426516" cx="13.114996220605915" cy="12.698625604409314"></circle><circle class="pearl" r="2.1904339371426516" cx="25.26433519996743" cy="25.533550949609104"></circle><circle class="pearl" r="2.1904339371426516" cx="4.808450591204" cy="14.126456248460176"></circle><circle class="pearl" r="2.1904339371426516" cx="27.211797279482997" cy="10.958020886036968"></circle><circle class="pearl" r="2.1904339371426516" cx="10.458208678498643" cy="27.026920867307883"></circle><circle class="pearl" r="2.1904339371426516" cx="14.66472694813884" cy="4.7422994236777996"></circle><circle class="pearl" r="2.1904339371426516" cx="27.97643332655517" cy="18.702573274906655"></circle><circle class="pearl" r="2.1904339371426516" cx="5.508961018822923" cy="21.630178983761457"></circle><circle class="pearl" r="2.1904339371426516" cx="22.438650589300735" cy="5.8052265537244825"></circle><circle class="pearl" r="2.1904339371426516" cx="18.20564473484737" cy="28.03934412918115"></circle><circle class="pearl" r="2.1904339371426516" cx="7.522997768683842" cy="7.258718844237855"></circle></g><g class="bobaCup bright" cupRadius="16.361336512964865" width="32.72267302592973" height="32.72267302592973" pearlRadius="2.7380424214283132" pearlCount="13" transform="translate(93.16317724808607,115.89169659491813)"><circle class="pool" r="16.361336512964865" cx="16.361336512964865" cy="16.361336512964865" style="stroke-width: 1; fill: rgb(65, 182, 196);"></circle><circle class="pearl" r="2.1904339371426507" cx="20.678662705237386" cy="15.219080877945766"></circle><circle class="pearl" r="2.1904339371426507" cx="14.711244479488986" cy="20.451858929911715"></circle><circle class="pearl" r="2.1904339371426507" cx="13.120428501386298" cy="12.65786274173642"></circle><circle class="pearl" r="2.1904339371426507" cx="25.200127491024816" cy="25.479023015972924"></circle><circle class="pearl" r="2.1904339371426507" cx="4.811056297728725" cy="14.076425157086106"></circle><circle class="pearl" r="2.1904339371426507" cx="27.145620120322274" cy="10.934192101276714"></circle><circle class="pearl" r="2.1904339371426507" cx="10.404631927493577" cy="26.949084433820243"></circle><circle class="pearl" r="2.1904339371426507" cx="14.648122569015586" cy="4.740666731939778"></circle><circle class="pearl" r="2.1904339371426507" cx="27.90833983582922" cy="18.669363171259917"></circle><circle class="pearl" r="2.1904339371426507" cx="5.498369479978586" cy="21.55929254961403"></circle><circle class="pearl" r="2.1904339371426507" cx="22.41410517131381" cy="5.811489881856805"></circle><circle class="pearl" r="2.1904339371426507" cx="18.144437338863607" cy="27.97449609063524"></circle><circle class="pearl" r="2.1904339371426507" cx="7.524113929072482" cy="7.242643287189755"></circle></g><g class="bobaCup bright" cupRadius="16.167693255281648" width="32.335386510563296" height="32.335386510563296" pearlRadius="2.7380424214283146" pearlCount="13" transform="translate(236.66437441449003,151.8507902353571)"><circle class="pool" r="16.167693255281648" cx="16.167693255281648" cy="16.167693255281648" style="stroke-width: 1; fill: rgb(127, 205, 187);"></circle><circle class="pearl" r="2.1904339371426516" cx="20.46350011452779" cy="15.039162738394594"></circle><circle class="pearl" r="2.1904339371426516" cx="14.648456156527727" cy="20.317977689544453"></circle><circle class="pearl" r="2.1904339371426516" cx="12.90342098769519" cy="12.63686669085092"></circle><circle class="pearl" r="2.1904339371426516" cx="24.828613056909074" cy="25.169177664549128"></circle><circle class="pearl" r="2.1904339371426516" cx="4.8318876421062695" cy="13.754147981439008"></circle><circle class="pearl" r="2.1904339371426516" cx="26.774073886588056" cy="10.818386103342153"></circle><circle class="pearl" r="2.1904339371426516" cx="10.075407930652531" cy="26.492896199077613"></circle><circle class="pearl" r="2.1904339371426516" cx="14.563391227087045" cy="4.730516676879469"></circle><circle class="pearl" r="2.1904339371426516" cx="27.51562123652437" cy="18.4995304416227"></circle><circle class="pearl" r="2.1904339371426516" cx="5.427613231370892" cy="21.119206199854656"></circle><circle class="pearl" r="2.1904339371426516" cx="22.285108441526454" cy="5.852737861218171"></circle><circle class="pearl" r="2.1904339371426516" cx="17.77215115328364" cy="27.604854289422637"></circle><circle class="pearl" r="2.1904339371426516" cx="7.5487465852253495" cy="7.139671530619446"></circle></g><g class="bobaCup bright" cupRadius="15.770941181470446" width="31.541882362940893" height="31.541882362940893" pearlRadius="2.738042421428314" pearlCount="12" transform="translate(36.20419776631124,137.79924849589278)"><circle class="pool" r="15.770941181470446" cx="15.770941181470446" cy="15.770941181470446" style="stroke-width: 1; fill: rgb(65, 182, 196);"></circle><circle class="pearl" r="2.1904339371426516" cx="16.835099043039147" cy="11.654158461552791"></circle><circle class="pearl" r="2.1904339371426516" cx="11.370696434562406" cy="17.437069473620998"></circle><circle class="pearl" r="2.1904339371426516" cx="14.598050356227569" cy="4.694397868729862"></circle><circle class="pearl" r="2.1904339371426516" cx="18.549976143159665" cy="18.93160921411117"></circle><circle class="pearl" r="2.1904339371426516" cx="4.705520727396172" cy="14.457391222067766"></circle><circle class="pearl" r="2.1904339371426516" cx="26.52706687985172" cy="12.401728826710444"></circle><circle class="pearl" r="2.1904339371426516" cx="14.210916350617731" cy="26.813812451181885"></circle><circle class="pearl" r="2.1904339371426516" cx="7.253117641213578" cy="7.14878725825389"></circle><circle class="pearl" r="2.1904339371426516" cx="26.279117827904788" cy="20.121842275377414"></circle><circle class="pearl" r="2.1904339371426516" cx="6.937109890599899" cy="23.949533674167874"></circle><circle class="pearl" r="2.1904339371426516" cx="22.288572494437012" cy="6.060499143335692"></circle><circle class="pearl" r="2.1904339371426516" cx="21.99170332789547" cy="25.6124470453132"></circle></g><g class="bobaCup bright" cupRadius="15.569512458544754" width="31.139024917089507" height="31.139024917089507" pearlRadius="2.7380424214283137" pearlCount="12" transform="translate(123.59739335081366,136.18432937044057)"><circle class="pool" r="15.569512458544754" cx="15.569512458544754" cy="15.569512458544754" style="stroke-width: 1; fill: rgb(65, 182, 196);"></circle><circle class="pearl" r="2.190433937142651" cx="17.618385650141835" cy="11.170472812223776"></circle><circle class="pearl" r="2.190433937142651" cx="11.553630830471068" cy="16.149165046888807"></circle><circle class="pearl" r="2.190433937142651" cx="14.532387569220434" cy="4.685304397897843"></circle><circle class="pearl" r="2.190433937142651" cx="18.36514227775367" cy="18.491354947214816"></circle><circle class="pearl" r="2.190433937142651" cx="4.716949630665196" cy="14.13499524057789"></circle><circle class="pearl" r="2.190433937142651" cx="26.44317125266574" cy="14.38491083340004"></circle><circle class="pearl" r="2.190433937142651" cx="11.90964943713462" cy="26.052034779468165"></circle><circle class="pearl" r="2.190433937142651" cx="7.2430775990668685" cy="7.064240828206392"></circle><circle class="pearl" r="2.190433937142651" cx="25.042910359567323" cy="22.120765812930188"></circle><circle class="pearl" r="2.190433937142651" cx="5.880698794524225" cy="21.634774192615623"></circle><circle class="pearl" r="2.190433937142651" cx="23.87731231189805" cy="7.052465192707787"></circle><circle class="pearl" r="2.190433937142651" cx="19.488295828047985" cy="25.987062359290288"></circle></g><g class="bobaCup bright" cupRadius="15.269078766103135" width="30.53815753220627" height="30.53815753220627" pearlRadius="2.738042421428314" pearlCount="11" transform="translate(226.03164499217326,218.80664413538017)"><circle class="pool" r="15.269078766103135" cx="15.269078766103135" cy="15.269078766103135" style="stroke-width: 1; fill: rgb(29, 145, 192);"></circle><circle class="pearl" r="2.1904339371426516" cx="19.185375394876438" cy="15.66226091218409"></circle><circle class="pearl" r="2.1904339371426516" cx="11.860124403596839" cy="17.562959829298926"></circle><circle class="pearl" r="2.1904339371426516" cx="13.93459029586607" cy="10.210812864335532"></circle><circle class="pearl" r="2.1904339371426516" cx="21.86385854347131" cy="24.389834980695642"></circle><circle class="pearl" r="2.1904339371426516" cx="4.68040175122769" cy="14.317529195400969"></circle><circle class="pearl" r="2.1904339371426516" cx="25.16203849997604" cy="10.618696819060702"></circle><circle class="pearl" r="2.1904339371426516" cx="14.321739456554088" cy="25.85801808622534"></circle><circle class="pearl" r="2.1904339371426516" cx="7.194213485015618" cy="6.96058453922001"></circle><circle class="pearl" r="2.1904339371426516" cx="25.560114760204325" cy="18.413692843720547"></circle><circle class="pearl" r="2.1904339371426516" cx="7.140110489763503" cy="23.543704319198465"></circle><circle class="pearl" r="2.1904339371426516" cx="19.82431616581492" cy="5.346038630404555"></circle></g><g class="bobaCup bright" cupRadius="15.268582337873017" width="30.537164675746034" height="30.537164675746034" pearlRadius="2.738042421428314" pearlCount="11" transform="translate(194.4158514720979,206.69579180471266)"><circle class="pool" r="15.268582337873017" cx="15.268582337873017" cy="15.268582337873017" style="stroke-width: 1; fill: rgb(127, 205, 187);"></circle><circle class="pearl" r="2.1904339371426516" cx="19.184896362464716" cy="15.662016855933595"></circle><circle class="pearl" r="2.1904339371426516" cx="11.860035381247219" cy="17.56273139492404"></circle><circle class="pearl" r="2.1904339371426516" cx="13.9340988893671" cy="10.210839531878307"></circle><circle class="pearl" r="2.1904339371426516" cx="21.863398240745614" cy="24.38877083712978"></circle><circle class="pearl" r="2.1904339371426516" cx="4.680393528964185" cy="14.317179940168701"></circle><circle class="pearl" r="2.1904339371426516" cx="25.16099457945069" cy="10.618118134666112"></circle><circle class="pearl" r="2.1904339371426516" cx="14.321461472580769" cy="25.857037849474775"></circle><circle class="pearl" r="2.1904339371426516" cx="7.194168608943414" cy="6.960391663555443"></circle><circle class="pearl" r="2.1904339371426516" cx="25.55916475978756" cy="18.412941106711916"></circle><circle class="pearl" r="2.1904339371426516" cx="7.14011267066431" cy="23.542935026977457"></circle><circle class="pearl" r="2.1904339371426516" cx="19.823393274455185" cy="5.345929020825055"></circle></g><g class="bobaCup bright" cupRadius="14.753428052864399" width="29.506856105728797" height="29.506856105728797" pearlRadius="2.7380424214283132" pearlCount="10" transform="translate(221.94434442440016,84.07782983398782)"><circle class="pool" r="14.753428052864399" cx="14.753428052864399" cy="14.753428052864399" style="stroke-width: 1; fill: rgb(65, 182, 196);"></circle><circle class="pearl" r="2.1904339371426507" cx="17.6253655797934" cy="12.139596825099142"></circle><circle class="pearl" r="2.1904339371426507" cx="12.170247917504728" cy="17.101816948257166"></circle><circle class="pearl" r="2.1904339371426507" cx="14.885446695158775" cy="4.6513139140294095"></circle><circle class="pearl" r="2.1904339371426507" cx="22.246312016199038" cy="22.81176966884615"></circle><circle class="pearl" r="2.1904339371426507" cx="4.658420437246449" cy="14.276918680681225"></circle><circle class="pearl" r="2.1904339371426507" cx="22.411095378800272" cy="6.793688544630766"></circle><circle class="pearl" r="2.1904339371426507" cx="14.527319793315684" cy="24.854400129105233"></circle><circle class="pearl" r="2.1904339371426507" cx="7.176506885056945" cy="6.745008145824859"></circle><circle class="pearl" r="2.1904339371426507" cx="24.845781932643074" cy="15.305982745451029"></circle><circle class="pearl" r="2.1904339371426507" cx="7.0906232867807715" cy="22.710046432575858"></circle></g><g class="bobaCup bright" cupRadius="14.58208159281256" width="29.16416318562512" height="29.16416318562512" pearlRadius="2.738042421428314" pearlCount="10" transform="translate(35.982603526617865,109.80538954535336)"><circle class="pool" r="14.58208159281256" cx="14.58208159281256" cy="14.58208159281256" style="stroke-width: 1;"></circle><circle class="pearl" r="2.1904339371426516" cx="17.32574028525897" cy="11.904348510316332"></circle><circle class="pearl" r="2.1904339371426516" cx="12.197557174989159" cy="16.91506584816255"></circle><circle class="pearl" r="2.1904339371426516" cx="14.494421166800699" cy="4.650986717006045"></circle><circle class="pearl" r="2.1904339371426516" cx="22.28041658975923" cy="22.315733271931773"></circle><circle class="pearl" r="2.1904339371426516" cx="4.651453515151301" cy="14.436144401941851"></circle><circle class="pearl" r="2.1904339371426516" cx="22.08728923233107" cy="6.730446569151553"></circle><circle class="pearl" r="2.1904339371426516" cx="14.670910910430143" cy="24.513169394829358"></circle><circle class="pearl" r="2.1904339371426516" cx="6.883858987453991" cy="6.848360049905628"></circle><circle class="pearl" r="2.1904339371426516" cx="24.512500602158784" cy="14.747594785841512"></circle><circle class="pearl" r="2.1904339371426516" cx="7.076126174318679" cy="22.433267691821214"></circle></g><g class="bobaCup bright" cupRadius="14.484502062079851" width="28.969004124159703" height="28.969004124159703" pearlRadius="2.7380424214283137" pearlCount="10" transform="translate(99.1216313817344,141.65569382697313)"><circle class="pool" r="14.484502062079851" cx="14.484502062079851" cy="14.484502062079851" style="stroke-width: 1; fill: rgb(127, 205, 187);"></circle><circle class="pearl" r="2.190433937142651" cx="17.222639986508543" cy="11.83316603655225"></circle><circle class="pearl" r="2.190433937142651" cx="12.159180759857712" cy="16.744294336614754"></circle><circle class="pearl" r="2.190433937142651" cx="14.452211731108981" cy="4.6507592210672435"></circle><circle class="pearl" r="2.190433937142651" cx="22.104189106091322" cy="22.152105397523833"></circle><circle class="pearl" r="2.190433937142651" cx="4.651131656567895" cy="14.375728970229915"></circle><circle class="pearl" r="2.190433937142651" cx="21.90054919324508" cy="6.693238112762854"></circle><circle class="pearl" r="2.190433937142651" cx="14.518101190812692" cy="24.31824192624865"></circle><circle class="pearl" r="2.190433937142651" cx="6.864840594942242" cy="6.816882905710754"></circle><circle class="pearl" r="2.190433937142651" cx="24.317630272721914" cy="14.621788161881351"></circle><circle class="pearl" r="2.190433937142651" cx="7.067246781286924" cy="22.27504581424449"></circle></g><g class="bobaCup bright" cupRadius="14.398189708571095" width="28.79637941714219" height="28.79637941714219" pearlRadius="2.7380424214283137" pearlCount="10" transform="translate(112.19132430475163,230.16491646981729)"><circle class="pool" r="14.398189708571095" cx="14.398189708571095" cy="14.398189708571095" style="stroke-width: 1; fill: rgb(29, 145, 192);"></circle><circle class="pearl" r="2.190433937142651" cx="17.133130952090845" cy="11.771999268102931"></circle><circle class="pearl" r="2.190433937142651" cx="12.124630954334862" cy="16.591618386233606"></circle><circle class="pearl" r="2.190433937142651" cx="14.416038432424962" cy="4.650734291665545"></circle><circle class="pearl" r="2.190433937142651" cx="21.948318567647004" cy="22.007296050403983"></circle><circle class="pearl" r="2.190433937142651" cx="4.650928401700321" cy="14.321324884498697"></circle><circle class="pearl" r="2.190433937142651" cx="21.735302130198388" cy="6.660424401553785"></circle><circle class="pearl" r="2.190433937142651" cx="14.381534642173701" cy="24.14564655571673"></circle><circle class="pearl" r="2.190433937142651" cx="6.847925106278824" cy="6.789166964269214"></circle><circle class="pearl" r="2.190433937142651" cx="24.14520880119655" cy="14.51169273244615"></circle><circle class="pearl" r="2.190433937142651" cx="7.059379855824954" cy="22.134949550795252"></circle></g><g class="bobaCup bright" cupRadius="14.267165804840438" width="28.534331609680876" height="28.534331609680876" pearlRadius="2.7380424214283137" pearlCount="10" transform="translate(230.96132320832626,207.8834014287558)"><circle class="pool" r="14.267165804840438" cx="14.267165804840438" cy="14.267165804840438" style="stroke-width: 1; fill: rgb(65, 182, 196);"></circle><circle class="pearl" r="2.190433937142651" cx="16.982370732994177" cy="11.670867549998066"></circle><circle class="pearl" r="2.190433937142651" cx="12.082601529282371" cy="16.384991897456196"></circle><circle class="pearl" r="2.190433937142651" cx="14.336325709116604" cy="4.6508908554327775"></circle><circle class="pearl" r="2.190433937142651" cx="21.718534423811196" cy="21.78316464127216"></circle><circle class="pearl" r="2.190433937142651" cx="4.65072589249511" cy="14.258447245071995"></circle><circle class="pearl" r="2.190433937142651" cx="21.487934592274744" cy="6.612909625821162"></circle><circle class="pearl" r="2.190433937142651" cx="14.240956200964604" cy="23.883584306814857"></circle><circle class="pearl" r="2.190433937142651" cx="6.818417557626489" cy="6.749562539910642"></circle><circle class="pearl" r="2.190433937142651" cx="23.883500242834618" cy="14.322714357563889"></circle><circle class="pearl" r="2.190433937142651" cx="7.042597870333461" cy="21.91919179189193"></circle></g><g class="bobaCup bright" cupRadius="14.188331754164341" width="28.376663508328683" height="28.376663508328683" pearlRadius="2.738042421428314" pearlCount="10" transform="translate(55.15458610902748,50.02776110247966)"><circle class="pool" r="14.188331754164341" cx="14.188331754164341" cy="14.188331754164341" style="stroke-width: 1; fill: rgb(127, 205, 187);"></circle><circle class="pearl" r="2.1904339371426516" cx="16.883362994458338" cy="11.59731646376871"></circle><circle class="pearl" r="2.1904339371426516" cx="12.06512942963559" cy="16.26712191458397"></circle><circle class="pearl" r="2.1904339371426516" cx="14.259023675978925" cy="4.650899337324063"></circle><circle class="pearl" r="2.1904339371426516" cx="21.582760500482813" cy="21.646744807006858"></circle><circle class="pearl" r="2.1904339371426516" cx="4.650812787086036" cy="14.23874369543121"></circle><circle class="pearl" r="2.1904339371426516" cx="21.341103601567603" cy="6.585622285518555"></circle><circle class="pearl" r="2.1904339371426516" cx="14.172496931635205" cy="23.725931443564345"></circle><circle class="pearl" r="2.1904339371426516" cx="6.797244935837375" cy="6.727878590238225"></circle><circle class="pearl" r="2.1904339371426516" cx="23.72593588345545" cy="14.199501014095821"></circle><circle class="pearl" r="2.1904339371426516" cx="7.030435846677182" cy="21.788048686820392"></circle></g><g class="bobaCup bright" cupRadius="14.15846877875704" width="28.31693755751408" height="28.31693755751408" pearlRadius="2.7380424214283137" pearlCount="10" transform="translate(205.57569379414406,170.54095753748715)"><circle class="pool" r="14.15846877875704" cx="14.15846877875704" cy="14.15846877875704" style="stroke-width: 1; fill: rgb(29, 145, 192);"></circle><circle class="pearl" r="2.190433937142651" cx="16.84558933141372" cy="11.569212613814175"></circle><circle class="pearl" r="2.190433937142651" cx="12.058786931325752" cy="16.222476435103495"></circle><circle class="pearl" r="2.190433937142651" cx="14.22958474719775" cy="4.650901832378658"></circle><circle class="pearl" r="2.190433937142651" cx="21.531447800689207" cy="21.594987522661977"></circle><circle class="pearl" r="2.190433937142651" cx="4.650912821672961" cy="14.231739919608158"></circle><circle class="pearl" r="2.190433937142651" cx="21.285490223709342" cy="6.575312676460591"></circle><circle class="pearl" r="2.190433937142651" cx="14.146609832281975" cy="23.666209362493642"></circle><circle class="pearl" r="2.190433937142651" cx="6.789095684389354" cy="6.7197512280758644"></circle><circle class="pearl" r="2.190433937142651" cx="23.666213060442733" cy="14.152475445703729"></circle><circle class="pearl" r="2.190433937142651" cx="7.025795068716853" cy="21.7383303238237"></circle></g><g class="bobaCup bright" cupRadius="13.655554062736488" width="27.311108125472977" height="27.311108125472977" pearlRadius="2.738042421428314" pearlCount="9" transform="translate(284.44151343792197,243.34380230236076)"><circle class="pool" r="13.655554062736488" cx="13.655554062736488" cy="13.655554062736488" style="stroke-width: 1; fill: rgb(65, 182, 196);"></circle><circle class="pearl" r="2.1904339371426516" cx="15.35329326702181" cy="11.999884754456918"></circle><circle class="pearl" r="2.1904339371426516" cx="9.965636238541359" cy="17.33123424180504"></circle><circle class="pearl" r="2.1904339371426516" cx="13.713510163407735" cy="4.650846216064508"></circle><circle class="pearl" r="2.1904339371426516" cx="20.582874148901833" cy="20.77285501769465"></circle><circle class="pearl" r="2.1904339371426516" cx="4.650824152050042" cy="13.603053378353815"></circle><circle class="pearl" r="2.1904339371426516" cx="20.514466723359945" cy="6.498251466714443"></circle><circle class="pearl" r="2.1904339371426516" cx="13.658872904356876" cy="22.660384493596766"></circle><circle class="pearl" r="2.1904339371426516" cx="6.7945311967935" cy="6.499477471147731"></circle><circle class="pearl" r="2.1904339371426516" cx="22.659253847225177" cy="13.8313065612754"></circle></g><g class="bobaCup bright" cupRadius="13.300149205471683" width="26.600298410943367" height="26.600298410943367" pearlRadius="2.738042421428314" pearlCount="8" transform="translate(61.66658076267369,197.5532360552741)"><circle class="pool" r="13.300149205471683" cx="13.300149205471683" cy="13.300149205471683" style="stroke-width: 1; fill: rgb(127, 205, 187);"></circle><circle class="pearl" r="2.1904339371426516" cx="21.934867784955944" cy="13.925453013699434"></circle><circle class="pearl" r="2.1904339371426516" cx="12.649301821229665" cy="13.894326670337197"></circle><circle class="pearl" r="2.1904339371426516" cx="12.37446881750008" cy="4.682975663750433"></circle><circle class="pearl" r="2.1904339371426516" cx="18.637373621095207" cy="20.8317083749195"></circle><circle class="pearl" r="2.1904339371426516" cx="4.99979352305005" cy="16.327280509040904"></circle><circle class="pearl" r="2.1904339371426516" cx="20.019604537977255" cy="6.472941918384839"></circle><circle class="pearl" r="2.1904339371426516" cx="10.71263602321711" cy="21.695450061634915"></circle><circle class="pearl" r="2.1904339371426516" cx="5.592368808121202" cy="8.384728875948221"></circle></g><g class="bobaCup bright" cupRadius="13.195013020988211" width="26.390026041976423" height="26.390026041976423" pearlRadius="2.7380424214283137" pearlCount="8" transform="translate(190.0910494334716,263.6274511379001)"><circle class="pool" r="13.195013020988211" cx="13.195013020988211" cy="13.195013020988211" style="stroke-width: 1; fill: rgb(127, 205, 187);"></circle><circle class="pearl" r="2.190433937142651" cx="14.153428870932544" cy="12.85669173893631"></circle><circle class="pearl" r="2.190433937142651" cx="8.102876582437968" cy="20.717149567968526"></circle><circle class="pearl" r="2.190433937142651" cx="13.9929757614324" cy="4.674873556139733"></circle><circle class="pearl" r="2.190433937142651" cx="21.434663589316507" cy="16.013990140487106"></circle><circle class="pearl" r="2.190433937142651" cx="4.676906746238167" cy="14.025854844988089"></circle><circle class="pearl" r="2.190433937142651" cx="20.71424127126105" cy="8.095929806661047"></circle><circle class="pearl" r="2.190433937142651" cx="15.915187227610323" cy="21.455874548351474"></circle><circle class="pearl" r="2.190433937142651" cx="6.570812486969626" cy="6.433973199567577"></circle></g><g class="bobaCup bright" cupRadius="12.927139253230436" width="25.854278506460872" height="25.854278506460872" pearlRadius="2.738042421428314" pearlCount="8" transform="translate(224.1374646740549,228.64549524671548)"><circle class="pool" r="12.927139253230436" cx="12.927139253230436" cy="12.927139253230436" style="stroke-width: 1; fill: rgb(65, 182, 196);"></circle><circle class="pearl" r="2.1904339371426516" cx="13.696094866587194" cy="12.961255496388556"></circle><circle class="pearl" r="2.1904339371426516" cx="6.770705333624937" cy="19.64344073062098"></circle><circle class="pearl" r="2.1904339371426516" cx="14.282566429805932" cy="4.72197875327427"></circle><circle class="pearl" r="2.1904339371426516" cx="20.62465633832961" cy="16.752304665112607"></circle><circle class="pearl" r="2.1904339371426516" cx="4.654062276725941" cy="13.220937707446168"></circle><circle class="pearl" r="2.1904339371426516" cx="20.540202803482995" cy="8.839295920131487"></circle><circle class="pearl" r="2.1904339371426516" cx="14.375099225178044" cy="21.122206821338576"></circle><circle class="pearl" r="2.1904339371426516" cx="6.702116120184737" cy="6.248254533357008"></circle></g><g class="bobaCup bright" cupRadius="12.913275949136771" width="25.826551898273543" height="25.826551898273543" pearlRadius="2.7380424214283137" pearlCount="8" transform="translate(213.49967813641368,117.52965610116244)"><circle class="pool" r="12.913275949136771" cx="12.913275949136771" cy="12.913275949136771" style="stroke-width: 1; fill: rgb(127, 205, 187);"></circle><circle class="pearl" r="2.190433937142651" cx="13.661617997928007" cy="12.951232540267485"></circle><circle class="pearl" r="2.190433937142651" cx="6.780310273413524" cy="19.62650571936653"></circle><circle class="pearl" r="2.190433937142651" cx="14.253249956416498" cy="4.72043404187548"></circle><circle class="pearl" r="2.190433937142651" cx="20.605587119030304" cy="16.708298686469632"></circle><circle class="pearl" r="2.190433937142651" cx="4.654378228330943" cy="13.22049359505398"></circle><circle class="pearl" r="2.190433937142651" cx="20.502469812836356" cy="8.797802062341407"></circle><circle class="pearl" r="2.190433937142651" cx="14.380754332848632" cy="21.09217480899419"></circle><circle class="pearl" r="2.190433937142651" cx="6.699401957069229" cy="6.244084613133582"></circle></g><g class="bobaCup bright" cupRadius="12.650250375199564" width="25.300500750399127" height="25.300500750399127" pearlRadius="2.7380424214283137" pearlCount="8" transform="translate(294.2276517557504,103.18985438518544)"><circle class="pool" r="12.650250375199564" cx="12.650250375199564" cy="12.650250375199564" style="stroke-width: 1; fill: rgb(29, 145, 192);"></circle><circle class="pearl" r="2.190433937142651" cx="13.128702395170727" cy="12.749604869179272"></circle><circle class="pearl" r="2.190433937142651" cx="6.693481943146438" cy="19.159533616256173"></circle><circle class="pearl" r="2.190433937142651" cx="13.93535583391637" cy="4.71616774451271"></circle><circle class="pearl" r="2.190433937142651" cx="20.110165981251324" cy="16.305556323073382"></circle><circle class="pearl" r="2.190433937142651" cx="4.6563158534237825" cy="13.026368617019363"></circle><circle class="pearl" r="2.190433937142651" cx="19.93252244426451" cy="8.451148354310693"></circle><circle class="pearl" r="2.190433937142651" cx="14.092061106367602" cy="20.567343837316063"></circle><circle class="pearl" r="2.190433937142651" cx="6.6861110976152585" cy="6.144904527576612"></circle></g><g class="bobaCup bright" cupRadius="12.491191702299036" width="24.98238340459807" height="24.98238340459807" pearlRadius="2.7380424214283137" pearlCount="7" transform="translate(240.30825842077317,239.72065763963516)"><circle class="pool" r="12.491191702299036" cx="12.491191702299036" cy="12.491191702299036" style="stroke-width: 1; fill: rgb(65, 182, 196);"></circle><circle class="pearl" r="2.190433937142651" cx="12.698256484446922" cy="12.53289343060063"></circle><circle class="pearl" r="2.190433937142651" cx="4.9990424487759295" cy="15.42044382992205"></circle><circle class="pearl" r="2.190433937142651" cx="13.146029767332529" cy="4.667899649006486"></circle><circle class="pearl" r="2.190433937142651" cx="18.9949858095895" cy="18.11316761362669"></circle><circle class="pearl" r="2.190433937142651" cx="5.706954525453217" cy="7.464109977268898"></circle><circle class="pearl" r="2.190433937142651" cx="19.81682843827196" cy="8.942012622109967"></circle><circle class="pearl" r="2.190433937142651" cx="11.267614854721698" cy="20.27158788597949"></circle></g><g class="bobaCup bright" cupRadius="12.347914464634135" width="24.69582892926827" height="24.69582892926827" pearlRadius="2.7380424214283137" pearlCount="7" transform="translate(64.2990603149066,185.6206120302186)"><circle class="pool" r="12.347914464634135" cx="12.347914464634135" cy="12.347914464634135" style="stroke-width: 1; fill: rgb(29, 145, 192);"></circle><circle class="pearl" r="2.190433937142651" cx="12.392986840022626" cy="12.366842794913449"></circle><circle class="pearl" r="2.190433937142651" cx="4.979454170759926" cy="15.178147507989472"></circle><circle class="pearl" r="2.190433937142651" cx="13.232593027563343" cy="4.682455838985366"></circle><circle class="pearl" r="2.190433937142651" cx="18.80781493239908" cy="17.73540299866715"></circle><circle class="pearl" r="2.190433937142651" cx="5.756347924050582" cy="7.2408690984481385"></circle><circle class="pearl" r="2.190433937142651" cx="19.62823233867647" cy="9.16652328565754"></circle><circle class="pearl" r="2.190433937142651" cx="11.142048603836232" cy="19.986083747257172"></circle></g><g class="bobaCup bright" cupRadius="12.203513013665546" width="24.407026027331092" height="24.407026027331092" pearlRadius="2.7380424214283137" pearlCount="7" transform="translate(7.796486986334454,87.25389084770723)"><circle class="pool" r="12.203513013665546" cx="12.203513013665546" cy="12.203513013665546" style="stroke-width: 1; fill: rgb(65, 182, 196);"></circle><circle class="pearl" r="2.190433937142651" cx="12.2238415294609" cy="12.21091308051415"></circle><circle class="pearl" r="2.190433937142651" cx="5.05823996957705" cy="15.330844433599417"></circle><circle class="pearl" r="2.190433937142651" cx="12.96707371613329" cy="4.674634240186183"></circle><circle class="pearl" r="2.190433937142651" cx="18.737614529648656" cy="17.084642525193843"></circle><circle class="pearl" r="2.190433937142651" cx="5.635402212026454" cy="7.401066462447883"></circle><circle class="pearl" r="2.190433937142651" cx="19.315132219442436" cy="8.951893366191195"></circle><circle class="pearl" r="2.190433937142651" cx="11.332995508599714" cy="19.72521473446582"></circle></g><g class="bobaCup bright" cupRadius="11.966268701178755" width="23.93253740235751" height="23.93253740235751" pearlRadius="2.7380424214283137" pearlCount="7" transform="translate(102.4501816267784,73.76399681997572)"><circle class="pool" r="11.966268701178755" cx="11.966268701178755" cy="11.966268701178755" style="stroke-width: 1; fill: rgb(29, 145, 192);"></circle><circle class="pearl" r="2.190433937142651" cx="11.970983930241458" cy="11.966959571209944"></circle><circle class="pearl" r="2.190433937142651" cx="5.0699227735717916" cy="15.105819709086072"></circle><circle class="pearl" r="2.190433937142651" cx="12.776257106464174" cy="4.678168477997424"></circle><circle class="pearl" r="2.190433937142651" cx="18.312762543963604" cy="16.68355640856824"></circle><circle class="pearl" r="2.190433937142651" cx="5.619790304641304" cy="7.248944984756437"></circle><circle class="pearl" r="2.190433937142651" cx="18.8447001281955" cy="8.761556614836564"></circle><circle class="pearl" r="2.190433937142651" cx="11.092646798830705" cy="19.249881289926876"></circle></g><g class="bobaCup bright" cupRadius="11.787009177124876" width="23.574018354249752" height="23.574018354249752" pearlRadius="2.738042421428314" pearlCount="6" transform="translate(252.54281229796632,276.5748138243877)"><circle class="pool" r="11.787009177124876" cx="11.787009177124876" cy="11.787009177124876" style="stroke-width: 1; fill: rgb(29, 145, 192);"></circle><circle class="pearl" r="2.1904339371426516" cx="12.242122944172086" cy="12.046347768904738"></circle><circle class="pearl" r="2.1904339371426516" cx="6.869125800965438" cy="17.84833563291022"></circle><circle class="pearl" r="2.1904339371426516" cx="9.763180667491948" cy="4.825768596536763"></circle><circle class="pearl" r="2.1904339371426516" cx="17.382905105006266" cy="17.51026947013057"></circle><circle class="pearl" r="2.1904339371426516" cx="4.730454912430245" cy="10.41834594707153"></circle><circle class="pearl" r="2.1904339371426516" cx="17.455500614204727" cy="6.103237247761131"></circle></g><g class="bobaCup bright" cupRadius="11.542407605559628" width="23.084815211119256" height="23.084815211119256" pearlRadius="2.7380424214283132" pearlCount="6" transform="translate(260.84567016559305,206.08305634821645)"><circle class="pool" r="11.542407605559628" cx="11.542407605559628" cy="11.542407605559628" style="stroke-width: 1; fill: rgb(127, 205, 187);"></circle><circle class="pearl" r="2.1904339371426507" cx="11.917467706426947" cy="11.880027297127421"></circle><circle class="pearl" r="2.1904339371426507" cx="6.151651908296755" cy="17.09790436018059"></circle><circle class="pearl" r="2.1904339371426507" cx="9.71060173022243" cy="4.797006029270032"></circle><circle class="pearl" r="2.1904339371426507" cx="16.91587517566266" cy="17.10701695140489"></circle><circle class="pearl" r="2.1904339371426507" cx="4.782313833941962" cy="9.804469539607865"></circle><circle class="pearl" r="2.1904339371426507" cx="17.027785683176067" cy="6.037452586052658"></circle></g><g class="bobaCup bright" cupRadius="11.457045597843587" width="22.914091195687174" height="22.914091195687174" pearlRadius="2.7380424214283132" pearlCount="6" transform="translate(200.59105084272977,200.0799928573952)"><circle class="pool" r="11.457045597843587" cx="11.457045597843587" cy="11.457045597843587" style="stroke-width: 1; fill: rgb(29, 145, 192);"></circle><circle class="pearl" r="2.1904339371426507" cx="11.847898746481535" cy="11.801913674193077"></circle><circle class="pearl" r="2.1904339371426507" cx="6.14857718768332" cy="16.95935427946552"></circle><circle class="pearl" r="2.1904339371426507" cx="9.619563396945889" cy="4.799030921924564"></circle><circle class="pearl" r="2.1904339371426507" cx="16.749547380892093" cy="16.967686387331078"></circle><circle class="pearl" r="2.1904339371426507" cx="4.77894388981584" cy="9.747771077187643"></circle><circle class="pearl" r="2.1904339371426507" cx="16.86491174104487" cy="6.007329350417382"></circle></g><g class="bobaCup bright" cupRadius="11.394205199193177" width="22.788410398386354" height="22.788410398386354" pearlRadius="2.7380424214283137" pearlCount="6" transform="translate(23.141443449245802,8.605794800806823)"><circle class="pool" r="11.394205199193177" cx="11.394205199193177" cy="11.394205199193177" style="stroke-width: 1; fill: rgb(65, 182, 196);"></circle><circle class="pearl" r="2.190433937142651" cx="11.797131438512439" cy="11.744133749287888"></circle><circle class="pearl" r="2.190433937142651" cx="6.146316797971757" cy="16.857214192193243"></circle><circle class="pearl" r="2.190433937142651" cx="9.552223272124063" cy="4.800595868573762"></circle><circle class="pearl" r="2.190433937142651" cx="16.62706366513339" cy="16.86499887258687"></circle><circle class="pearl" r="2.190433937142651" cx="4.776422720147071" cy="9.706398563728204"></circle><circle class="pearl" r="2.190433937142651" cx="16.744886563762503" cy="5.985200744761537"></circle></g><g class="bobaCup bright" cupRadius="11.230476232423236" width="22.46095246484647" height="22.46095246484647" pearlRadius="2.7380424214283132" pearlCount="6" transform="translate(308.76952376757674,184.90659550820618)"><circle class="pool" r="11.230476232423236" cx="11.230476232423236" cy="11.230476232423236" style="stroke-width: 1; fill: rgb(127, 205, 187);"></circle><circle class="pearl" r="2.1904339371426507" cx="11.66685549582827" cy="11.592353204261492"></circle><circle class="pearl" r="2.1904339371426507" cx="6.140468768873604" cy="16.590518230748255"></circle><circle class="pearl" r="2.1904339371426507" cx="9.375322740551239" cy="4.805008693017347"></circle><circle class="pearl" r="2.1904339371426507" cx="16.307733845181833" cy="16.596990723937868"></circle><circle class="pearl" r="2.1904339371426507" cx="4.769670508019451" cy="9.600285834272025"></circle><circle class="pearl" r="2.1904339371426507" cx="16.43159971555524" cy="5.927712086197684"></circle></g><g class="bobaCup bright" cupRadius="11.20668137382166" width="22.41336274764332" height="22.41336274764332" pearlRadius="2.7380424214283137" pearlCount="6" transform="translate(277.25370591444243,190.2158599934771)"><circle class="pool" r="11.20668137382166" cx="11.20668137382166" cy="11.20668137382166" style="stroke-width: 1; fill: rgb(29, 145, 192);"></circle><circle class="pearl" r="2.190433937142651" cx="11.648186587470642" cy="11.57013068818332"></circle><circle class="pearl" r="2.190433937142651" cx="6.139627111726272" cy="16.551690660646447"></circle><circle class="pearl" r="2.190433937142651" cx="9.34942086784172" cy="4.805694742498282"></circle><circle class="pearl" r="2.190433937142651" cx="16.26129608874686" cy="16.5579868143768"></circle><circle class="pearl" r="2.190433937142651" cx="4.768664673979126" cy="9.58509134722219"></circle><circle class="pearl" r="2.190433937142651" cx="16.385993472069526" cy="5.9193749383544745"></circle></g><g class="bobaCup bright" cupRadius="11.120748859175034" width="22.241497718350068" height="22.241497718350068" pearlRadius="2.7380424214283132" pearlCount="6" transform="translate(275.46681176436334,258.36055882102625)"><circle class="pool" r="11.120748859175034" cx="11.120748859175034" cy="11.120748859175034" style="stroke-width: 1; fill: rgb(127, 205, 187);"></circle><circle class="pearl" r="2.1904339371426507" cx="11.581387942284442" cy="11.48948874850835"></circle><circle class="pearl" r="2.1904339371426507" cx="6.136613809144904" cy="16.411325997854906"></circle><circle class="pearl" r="2.1904339371426507" cx="9.255422275391146" cy="4.808278578340569"></circle><circle class="pearl" r="2.1904339371426507" cx="16.093515947036845" cy="16.417017270226513"></circle><circle class="pearl" r="2.1904339371426507" cx="4.764973917249715" cy="9.530763572544318"></circle><circle class="pearl" r="2.1904339371426507" cx="16.221109261291232" cy="5.889297278658398"></circle></g><g class="bobaCup bright" cupRadius="11.103512595321119" width="22.207025190642238" height="22.207025190642238" pearlRadius="2.7380424214283132" pearlCount="6" transform="translate(106.25965922650401,158.64317695925368)"><circle class="pool" r="11.103512595321119" cx="11.103512595321119" cy="11.103512595321119" style="stroke-width: 1; fill: rgb(127, 205, 187);"></circle><circle class="pearl" r="2.1904339371426507" cx="11.568113171236142" cy="11.47323647966705"></circle><circle class="pearl" r="2.1904339371426507" cx="6.136015241305572" cy="16.383144949119846"></circle><circle class="pearl" r="2.1904339371426507" cx="9.23647708104885" cy="4.808818045529386"></circle><circle class="pearl" r="2.1904339371426507" cx="16.059847239922515" cy="16.388721071687353"></circle><circle class="pearl" r="2.1904339371426507" cx="4.764222003844028" cy="9.51997598709103"></circle><circle class="pearl" r="2.1904339371426507" cx="16.188000415679628" cy="5.88326953081427"></circle></g><g class="bobaCup bright" cupRadius="10.799987925024546" width="21.59997585004909" height="21.59997585004909" pearlRadius="2.7380424214283137" pearlCount="5" transform="translate(94.42026759653888,181.64456004102362)"><circle class="pool" r="10.799987925024546" cx="10.799987925024546" cy="10.799987925024546" style="stroke-width: 1; fill: rgb(127, 205, 187);"></circle><circle class="pearl" r="2.190433937142651" cx="16.59753823131223" cy="8.06625068061978"></circle><circle class="pearl" r="2.190433937142651" cx="7.946910667899741" cy="16.56558311255198"></circle><circle class="pearl" r="2.190433937142651" cx="9.984076305464086" cy="4.681587354059188"></circle><circle class="pearl" r="2.190433937142651" cx="15.70544693361736" cy="15.770917937746848"></circle><circle class="pearl" r="2.190433937142651" cx="4.69093067878328" cy="9.868932977922666"></circle></g><g class="bobaCup bright" cupRadius="10.578427302890454" width="21.156854605780907" height="21.156854605780907" pearlRadius="2.738042421428314" pearlCount="5" transform="translate(54.700646280692304,38.91269497621318)"><circle class="pool" r="10.578427302890454" cx="10.578427302890454" cy="10.578427302890454" style="stroke-width: 1; fill: rgb(29, 145, 192);"></circle><circle class="pearl" r="2.1904339371426516" cx="16.144848673672126" cy="7.837427405324781"></circle><circle class="pearl" r="2.1904339371426516" cx="7.620371059819278" cy="16.08413196336411"></circle><circle class="pearl" r="2.1904339371426516" cx="9.802199523602637" cy="4.679240833402503"></circle><circle class="pearl" r="2.1904339371426516" cx="15.292853159288722" cy="15.397514687370805"></circle><circle class="pearl" r="2.1904339371426516" cx="4.698625476597471" cy="9.572859666468961"></circle></g><g class="bobaCup bright" cupRadius="10.540391517068027" width="21.080783034136054" height="21.080783034136054" pearlRadius="2.738042421428314" pearlCount="5" transform="translate(105.74111908484218,138.8948804464116)"><circle class="pool" r="10.540391517068027" cx="10.540391517068027" cy="10.540391517068027" style="stroke-width: 1; fill: rgb(29, 145, 192);"></circle><circle class="pearl" r="2.1904339371426516" cx="16.067441623848644" cy="7.799445828572261"></circle><circle class="pearl" r="2.1904339371426516" cx="7.562067828378632" cy="16.000525885084446"></circle><circle class="pearl" r="2.1904339371426516" cx="9.773872233764655" cy="4.67863161740515"></circle><circle class="pearl" r="2.1904339371426516" cx="15.221797204696454" cy="15.333411938179513"></circle><circle class="pearl" r="2.1904339371426516" cx="4.700309866692313" cy="9.519183249893466"></circle></g><g class="bobaCup bright" cupRadius="10.37156383249159" width="20.74312766498318" height="20.74312766498318" pearlRadius="2.738042421428314" pearlCount="5" transform="translate(55.72350372961509,142.28200551722142)"><circle class="pool" r="10.37156383249159" cx="10.37156383249159" cy="10.37156383249159" style="stroke-width: 1; fill: rgb(29, 145, 192);"></circle><circle class="pearl" r="2.1904339371426516" cx="15.725930877948283" cy="7.638890244226354"></circle><circle class="pearl" r="2.1904339371426516" cx="7.29156806453967" cy="15.624524888107171"></circle><circle class="pearl" r="2.1904339371426516" cx="9.663962937052704" cy="4.674889450831312"></circle><circle class="pearl" r="2.1904339371426516" cx="14.90505223706926" cy="15.049121218106993"></circle><circle class="pearl" r="2.1904339371426516" cx="4.709874152124565" cy="9.265455190895175"></circle></g><g class="bobaCup bright" cupRadius="10.370298705566157" width="20.740597411132313" height="20.740597411132313" pearlRadius="2.7380424214283137" pearlCount="5" transform="translate(35.757532834120624,179.83897128885314)"><circle class="pool" r="10.370298705566157" cx="10.370298705566157" cy="10.370298705566157" style="stroke-width: 1; fill: rgb(65, 182, 196);"></circle><circle class="pearl" r="2.190433937142651" cx="15.723389246563023" cy="7.637753132941657"></circle><circle class="pearl" r="2.190433937142651" cx="7.289451624404245" cy="15.621670028410104"></circle><circle class="pearl" r="2.190433937142651" cx="9.663263013806867" cy="4.674853765523048"></circle><circle class="pearl" r="2.190433937142651" cx="14.902667689082037" cy="15.046993481991436"></circle><circle class="pearl" r="2.190433937142651" cx="4.709962614713316" cy="9.26343333254733"></circle></g><g class="bobaCup bright" cupRadius="10.274203638072702" width="20.548407276145404" height="20.548407276145404" pearlRadius="2.7380424214283137" pearlCount="5" transform="translate(103.76478073588348,289.7257963619273)"><circle class="pool" r="10.274203638072702" cx="10.274203638072702" cy="10.274203638072702" style="stroke-width: 1; fill: rgb(65, 182, 196);"></circle><circle class="pearl" r="2.190433937142651" cx="15.531486784484759" cy="7.555624952457784"></circle><circle class="pearl" r="2.190433937142651" cx="7.1234329236270275" cy="15.402637034772422"></circle><circle class="pearl" r="2.190433937142651" cx="9.617604184178324" cy="4.671725534682537"></circle><circle class="pearl" r="2.190433937142651" cx="14.720848732796771" cy="14.885586422615088"></circle><circle class="pearl" r="2.190433937142651" cx="4.717744058419221" cy="9.102589573599579"></circle></g><g class="bobaCup bright" cupRadius="10.056766506776494" width="20.11353301355299" height="20.11353301355299" pearlRadius="2.738042421428314" pearlCount="5" transform="translate(187.63225362770987,228.6529538673797)"><circle class="pool" r="10.056766506776494" cx="10.056766506776494" cy="10.056766506776494" style="stroke-width: 1; fill: rgb(65, 182, 196);"></circle><circle class="pearl" r="2.1904339371426516" cx="15.112695043395721" cy="7.426279084044857"></circle><circle class="pearl" r="2.1904339371426516" cx="6.685966554900827" cy="14.881076800903706"></circle><circle class="pearl" r="2.1904339371426516" cx="9.607146252937877" cy="4.660779119471377"></circle><circle class="pearl" r="2.1904339371426516" cx="14.300388644634431" cy="14.52362101151284"></circle><circle class="pearl" r="2.1904339371426516" cx="4.749609056782344" cy="8.649938527498762"></circle></g><g class="bobaCup bright" cupRadius="9.746662915541712" width="19.493325831083425" height="19.493325831083425" pearlRadius="2.7380424214283132" pearlCount="4" transform="translate(95.85312366937353,160.00297736557454)"><circle class="pool" r="9.746662915541712" cx="9.746662915541712" cy="9.746662915541712" style="stroke-width: 1; fill: rgb(127, 205, 187);"></circle><circle class="pearl" r="2.1904339371426507" cx="14.153730042657603" cy="6.1475141465103365"></circle><circle class="pearl" r="2.1904339371426507" cx="5.498175415933949" cy="13.282288320684339"></circle><circle class="pearl" r="2.1904339371426507" cx="6.20177153243005" cy="5.318224119391751"></circle><circle class="pearl" r="2.1904339371426507" cx="13.450133926161534" cy="14.111578347802965"></circle></g><g class="bobaCup bright" cupRadius="9.508982601470649" width="19.017965202941298" height="19.017965202941298" pearlRadius="2.7380424214283137" pearlCount="4" transform="translate(236.83451710993,68.31754806590627)"><circle class="pool" r="9.508982601470649" cx="9.508982601470649" cy="9.508982601470649" style="stroke-width: 1; fill: rgb(29, 145, 192);"></circle><circle class="pearl" r="2.190433937142651" cx="13.489344829226017" cy="5.523881222574891"></circle><circle class="pearl" r="2.190433937142651" cx="5.528617096143895" cy="13.494082469690998"></circle><circle class="pearl" r="2.190433937142651" cx="5.528621771354807" cy="5.523880578385061"></circle><circle class="pearl" r="2.190433937142651" cx="13.48934015400356" cy="13.494086135234813"></circle></g><g class="bobaCup bright" cupRadius="9.353759653400251" width="18.707519306800503" height="18.707519306800503" pearlRadius="2.7380424214283137" pearlCount="4" transform="translate(197.56964565683847,118.71414919900717)"><circle class="pool" r="9.353759653400251" cx="9.353759653400251" cy="9.353759653400251" style="stroke-width: 1; fill: rgb(29, 145, 192);"></circle><circle class="pearl" r="2.190433937142651" cx="13.190176669899326" cy="5.473672596359849"></circle><circle class="pearl" r="2.190433937142651" cx="5.517042685480302" cy="13.233711812021763"></circle><circle class="pearl" r="2.190433937142651" cx="5.517471402456053" cy="5.473614689973179"></circle><circle class="pearl" r="2.190433937142651" cx="13.189747855202487" cy="13.234039541064234"></circle></g><g class="bobaCup bright" cupRadius="8.88272539554549" width="17.76545079109098" height="17.76545079109098" pearlRadius="2.7380424214283137" pearlCount="3" transform="translate(114.52320779906067,129.7023562541722)"><circle class="pool" r="8.88272539554549" cx="8.88272539554549" cy="8.88272539554549" style="stroke-width: 1; fill: rgb(29, 145, 192);"></circle><circle class="pearl" r="2.190433937142651" cx="12.945276388080956" cy="10.276305797278054"></circle><circle class="pearl" r="2.190433937142651" cx="5.061274998551859" cy="11.988731943231674"></circle><circle class="pearl" r="2.190433937142651" cx="8.455374761699183" cy="3.6610091687908906"></circle></g><g class="bobaCup bright" cupRadius="8.600477480384729" width="17.200954960769458" height="17.200954960769458" pearlRadius="2.738042421428314" pearlCount="3" transform="translate(196.80398912196324,251.5812074672418)"><circle class="pool" r="8.600477480384729" cx="8.600477480384729" cy="8.600477480384729" style="stroke-width: 1; fill: rgb(65, 182, 196);"></circle><circle class="pearl" r="2.1904339371426516" cx="12.769694253840417" cy="10.11290916988616"></circle><circle class="pearl" r="2.1904339371426516" cx="4.817229622003651" cy="11.630385848588466"></circle><circle class="pearl" r="2.1904339371426516" cx="8.036813677081161" cy="3.6692139921489066"></circle></g><g class="bobaCup bright" cupRadius="8.58481430005383" width="17.16962860010766" height="17.16962860010766" pearlRadius="2.738042421428314" pearlCount="3" transform="translate(104.3186640790393,145.41845232847308)"><circle class="pool" r="8.58481430005383" cx="8.58481430005383" cy="8.58481430005383" style="stroke-width: 1; fill: rgb(65, 182, 196);"></circle><circle class="pearl" r="2.1904339371426516" cx="12.75988714593478" cy="10.103542038440219"></circle><circle class="pearl" r="2.1904339371426516" cx="4.80378407300883" cy="11.610476290840753"></circle><circle class="pearl" r="2.1904339371426516" cx="8.013551555958612" cy="3.669751199068385"></circle></g><g class="bobaCup bright" cupRadius="8.350871857572706" width="16.701743715145412" height="16.701743715145412" pearlRadius="2.7380424214283132" pearlCount="3" transform="translate(241.7827020149499,215.81759616658132)"><circle class="pool" r="8.350871857572706" cx="8.350871857572706" cy="8.350871857572706" style="stroke-width: 1; fill: rgb(127, 205, 187);"></circle><circle class="pearl" r="2.1904339371426507" cx="12.612561654588085" cy="9.959863775801484"></circle><circle class="pearl" r="2.1904339371426507" cx="4.60412974903925" cy="11.312878644995182"></circle><circle class="pearl" r="2.1904339371426507" cx="7.665795018102546" cy="3.6788713429440074"></circle></g><g class="bobaCup bright" cupRadius="8.277517878392679" width="16.555035756785358" height="16.555035756785358" pearlRadius="2.7380424214283137" pearlCount="3" transform="translate(262.10856142920335,123.24914795691296)"><circle class="pool" r="8.277517878392679" cx="8.277517878392679" cy="8.277517878392679" style="stroke-width: 1; fill: rgb(127, 205, 187);"></circle><circle class="pearl" r="2.190433937142651" cx="12.566565295476604" cy="9.913007431793655"></circle><circle class="pearl" r="2.190433937142651" cx="4.54129908975004" cy="11.21962657018331"></circle><circle class="pearl" r="2.190433937142651" cx="7.556783514148227" cy="3.6821605711390273"></circle></g><g class="bobaCup bright" cupRadius="7.771084533876239" width="15.542169067752479" height="15.542169067752479" pearlRadius="2.7380424214283137" pearlCount="3" transform="translate(169.86001022129645,212.47494783881444)"><circle class="pool" r="7.771084533876239" cx="7.771084533876239" cy="7.771084533876239" style="stroke-width: 1; fill: rgb(29, 145, 192);"></circle><circle class="pearl" r="2.190433937142651" cx="11.793262218850135" cy="9.002484713984675"></circle><circle class="pearl" r="2.190433937142651" cx="4.48729729815141" cy="11.163549235719987"></circle><circle class="pearl" r="2.190433937142651" cx="5.945455925379951" cy="3.868210274065355"></circle></g><g class="bobaCup bright" cupRadius="7.693889883416879" width="15.387779766833757" height="15.387779766833757" pearlRadius="2.7380424214283132" pearlCount="2" transform="translate(213.05825628054038,233.70984556928724)"><circle class="pool" r="7.693889883416879" cx="7.693889883416879" cy="7.693889883416879" style="stroke-width: 1; fill: rgb(29, 145, 192);"></circle><circle class="pearl" r="2.1904339371426507" cx="11.305977544398674" cy="6.975001863987528"></circle><circle class="pearl" r="2.1904339371426507" cx="4.394212400664704" cy="10.993567366169053"></circle></g><g class="bobaCup bright" cupRadius="7.112739201291317" width="14.225478402582635" height="14.225478402582635" pearlRadius="2.7380424214283137" pearlCount="2" transform="translate(247.49833636545569,166.07758374189012)"><circle class="pool" r="7.112739201291317" cx="7.112739201291317" cy="7.112739201291317" style="stroke-width: 1; fill: rgb(29, 145, 192);"></circle><circle class="pearl" r="2.190433937142651" cx="10.07649763122443" cy="4.497458846358446"></circle><circle class="pearl" r="2.190433937142651" cx="4.2515688777054885" cy="9.97390996180037"></circle></g><g class="bobaCup bright" cupRadius="6.978597347405325" width="13.95719469481065" height="13.95719469481065" pearlRadius="2.738042421428314" pearlCount="2" transform="translate(187.66818937941983,181.58050418903508)"><circle class="pool" r="6.978597347405325" cx="6.978597347405325" cy="6.978597347405325" style="stroke-width: 1; fill: rgb(127, 205, 187);"></circle><circle class="pearl" r="2.1904339371426516" cx="9.720594474231405" cy="4.211979016289085"></circle><circle class="pearl" r="2.1904339371426516" cx="4.236600220579247" cy="9.745215678521566"></circle></g><g class="bobaCup bright" cupRadius="6.847638761153483" width="13.695277522306966" height="13.695277522306966" pearlRadius="2.738042421428314" pearlCount="2" transform="translate(166.6192282217054,236.62488149056347)"><circle class="pool" r="6.847638761153483" cx="6.847638761153483" cy="6.847638761153483" style="stroke-width: 1; fill: rgb(127, 205, 187);"></circle><circle class="pearl" r="2.1904339371426516" cx="9.464691576274511" cy="4.170551059701555"></circle><circle class="pearl" r="2.1904339371426516" cx="4.230585946032457" cy="9.524726462605411"></circle></g><g class="bobaCup bright" cupRadius="6.798172914979846" width="13.596345829959692" height="13.596345829959692" pearlRadius="2.7380424214283137" pearlCount="2" transform="translate(27.262244690981234,120.941656329614)"><circle class="pool" r="6.798172914979846" cx="6.798172914979846" cy="6.798172914979846" style="stroke-width: 1; fill: rgb(29, 145, 192);"></circle><circle class="pearl" r="2.190433937142651" cx="9.368049398958004" cy="4.155177859494865"></circle><circle class="pearl" r="2.190433937142651" cx="4.228296431001687" cy="9.441167970464827"></circle></g><g class="bobaCup bright" cupRadius="6.619799271645795" width="13.23959854329159" height="13.23959854329159" pearlRadius="2.7380424214283137" pearlCount="2" transform="translate(111.3075460850787,249.46104805092185)"><circle class="pool" r="6.619799271645795" cx="6.619799271645795" cy="6.619799271645795" style="stroke-width: 1; fill: rgb(127, 205, 187);"></circle><circle class="pearl" r="2.190433937142651" cx="9.019628088905979" cy="4.101035970145695"></circle><circle class="pearl" r="2.190433937142651" cx="4.219970454385611" cy="9.138562573145894"></circle></g><g class="bobaCup bright" cupRadius="6.527329877440545" width="13.05465975488109" height="13.05465975488109" pearlRadius="2.7380424214283137" pearlCount="2" transform="translate(217.64323690088307,68.71634562434038)"><circle class="pool" r="6.527329877440545" cx="6.527329877440545" cy="6.527329877440545" style="stroke-width: 1; fill: rgb(127, 205, 187);"></circle><circle class="pearl" r="2.190433937142651" cx="8.839040822533086" cy="4.073790019015187"></circle><circle class="pearl" r="2.190433937142651" cx="4.215618932348003" cy="8.980869735865904"></circle></g><g class="bobaCup bright" cupRadius="5.595753094465044" width="11.191506188930088" height="11.191506188930088" pearlRadius="2.7380424214283137" pearlCount="1" transform="translate(227.58202366847354,223.43821302364202)"><circle class="pool" r="5.595753094465044" cx="5.595753094465044" cy="5.595753094465044" style="stroke-width: 1; fill: rgb(127, 205, 187);"></circle><circle class="pearl" r="2.190433937142651" cx="7.4327590904409035" cy="5.595753094465044"></circle></g><g class="bobaCup bright" cupRadius="5.526402115680433" width="11.052804231360867" height="11.052804231360867" pearlRadius="2.7380424214283137" pearlCount="1" transform="translate(256.9478542178509,217.35033788001974)"><circle class="pool" r="5.526402115680433" cx="5.526402115680433" cy="5.526402115680433" style="stroke-width: 1; fill: rgb(65, 182, 196);"></circle><circle class="pearl" r="2.190433937142651" cx="7.318827614037636" cy="5.526402115680433"></circle></g><g class="bobaCup bright" cupRadius="4.081770668177687" width="8.163541336355374" height="8.163541336355374" pearlRadius="2.738042421428314" pearlCount="0" transform="translate(142.95135353011244,286.00947784322364)"><circle class="pool" r="4.081770668177687" cx="4.081770668177687" cy="4.081770668177687" style="stroke-width: 1; fill: rgb(29, 145, 192);"></circle></g><g class="bobaCup bright" cupRadius="3.6986929778405804" width="7.397385955681161" height="7.397385955681161" pearlRadius="2.738042421428314" pearlCount="0" transform="translate(59.044377349665055,194.36851922295034)"><circle class="pool" r="3.6986929778405804" cx="3.6986929778405804" cy="3.6986929778405804" style="stroke-width: 1; fill: rgb(65, 182, 196);"></circle></g><g class="bobaCup bright" cupRadius="0" width="0" height="0" pearlRadius="NaN" pearlCount="0" transform="translate(94.82681956494056,172.7549886813281)"><circle class="pool" r="0" cx="0" cy="0" style="stroke-width: 1; fill: rgb(29, 145, 192);"></circle></g></g><g id="legendDividerGroup" transform="translate(410,0)" height="400"><rect class="legendDivider" height="400" width="90"></rect></g><g id="legend" transform="translate(410,15.162919812849509)" width="90" height="320"><rect class="legendBorder" transform="translate(0,0)" width="90" height="349.674160374301"></rect><text id="rTitle" text-anchor="middle" alignment-baseline="hanging" transform="translate(45,0)" x="0" y="0" style="fill: black; font-size: 0.8rem;">Population</text><text id="bobaValue" text-anchor="middle" alignment-baseline="hanging" transform="translate(45,15)" x="0" y="0" style="fill: black; font-size: 0.7rem;">(1 Pearl =   75)</text><g class="bright" cupRadius="3.6986929778405804" width="7.397385955681161" height="7.397385955681161" pearlRadius="2.738042421428314" pearlCount="0" transform="translate(41.30130702215942,40)"><circle class="pool" r="3.6986929778405804" cx="3.6986929778405804" cy="3.6986929778405804" style="stroke-width: 1; fill: rgb(127, 205, 187);"></circle></g><text id="0" class="legendSampleValue" text-anchor="middle" transform="translate(45,8)" x="0" y="52.39738595568116" style="fill: black; font-size: 0.7rem;">  51</text><g class="bright" cupRadius="9.536470195804199" width="19.072940391608398" height="19.072940391608398" pearlRadius="2.7380424214283137" pearlCount="4" transform="translate(35.4635298041958,72.39738595568116)"><circle class="pool" r="9.536470195804199" cx="9.536470195804199" cy="9.536470195804199" style="stroke-width: 1; fill: rgb(127, 205, 187);"></circle><circle class="pearl" r="2.190433937142651" cx="13.55244280505379" cy="5.557444303683926"></circle><circle class="pearl" r="2.190433937142651" cx="5.520497586554606" cy="13.515496087924472"></circle><circle class="pearl" r="2.190433937142651" cx="5.557444303683926" cy="5.520497586554606"></circle><circle class="pearl" r="2.190433937142651" cx="13.515496087924472" cy="13.55244280505379"></circle></g><text id="1" class="legendSampleValue" text-anchor="middle" transform="translate(45,8)" x="0" y="96.47032634728956" style="fill: black; font-size: 0.7rem;"> 340</text><g class="bright" cupRadius="12.969510316376496" width="25.939020632752992" height="25.939020632752992" pearlRadius="2.7380424214283137" pearlCount="8" transform="translate(32.0304896836235,116.47032634728956)"><circle class="pool" r="12.969510316376496" cx="12.969510316376496" cy="12.969510316376496" style="stroke-width: 1; fill: rgb(127, 205, 187);"></circle><circle class="pearl" r="2.190433937142651" cx="13.733552839800778" cy="12.953880784293395"></circle><circle class="pearl" r="2.190433937142651" cx="7.150988247690847" cy="19.909861187422514"></circle><circle class="pearl" r="2.190433937142651" cx="14.147021754570812" cy="4.704287406181056"></circle><circle class="pearl" r="2.190433937142651" cx="20.80698253583263" cy="16.469963472536218"></circle><circle class="pearl" r="2.190433937142651" cx="4.659156102591734" cy="13.437131295215925"></circle><circle class="pearl" r="2.190433937142651" cx="20.51625327591967" cy="8.56156108386419"></circle><circle class="pearl" r="2.190433937142651" cx="14.796158832924846" cy="21.159018902051915"></circle><circle class="pearl" r="2.190433937142651" cx="6.660352790752718" cy="6.28874074110831"></circle></g><text id="2" class="legendSampleValue" text-anchor="middle" transform="translate(45,8)" x="0" y="147.40934698004256" style="fill: black; font-size: 0.7rem;"> 630</text><g class="bright" cupRadius="15.667550283874338" width="31.335100567748675" height="31.335100567748675" pearlRadius="2.7380424214283137" pearlCount="12" transform="translate(29.332449716125662,167.40934698004256)"><circle class="pool" r="15.667550283874338" cx="15.667550283874338" cy="15.667550283874338" style="stroke-width: 1; fill: rgb(127, 205, 187);"></circle><circle class="pearl" r="2.190433937142651" cx="17.29109430379932" cy="11.384272621749595"></circle><circle class="pearl" r="2.190433937142651" cx="11.46557552953533" cy="16.759825516244458"></circle><circle class="pearl" r="2.190433937142651" cx="14.501710518956527" cy="4.694159152256324"></circle><circle class="pearl" r="2.190433937142651" cx="18.41099886326424" cy="18.711967518434257"></circle><circle class="pearl" r="2.190433937142651" cx="4.698658176011209" cy="14.442908034252044"></circle><circle class="pearl" r="2.190433937142651" cx="26.52517224158932" cy="13.439689991861258"></circle><circle class="pearl" r="2.190433937142651" cx="13.152376325511367" cy="26.481174175595903"></circle><circle class="pearl" r="2.190433937142651" cx="7.213308567244015" cy="7.127446059456798"></circle><circle class="pearl" r="2.190433937142651" cx="25.72045935362154" cy="21.078218369571537"></circle><circle class="pearl" r="2.190433937142651" cx="6.366120194607561" cy="22.79563205201342"></circle><circle class="pearl" r="2.190433937142651" cx="23.374827483923948" cy="6.677525363633119"></circle><circle class="pearl" r="2.190433937142651" cx="20.85974134899831" cy="25.79902188019234"></circle></g><text id="3" class="legendSampleValue" text-anchor="middle" transform="translate(45,8)" x="0" y="203.74444754779122" style="fill: black; font-size: 0.7rem;"> 920</text><g class="bright" cupRadius="17.96485641325489" width="35.92971282650978" height="35.92971282650978" pearlRadius="2.7380424214283132" pearlCount="16" transform="translate(27.03514358674511,223.74444754779122)"><circle class="pool" r="17.96485641325489" cx="17.96485641325489" cy="17.96485641325489" style="stroke-width: 1; fill: rgb(127, 205, 187);"></circle><circle class="pearl" r="2.1904339371426507" cx="18.690423314472138" cy="18.750182099120902"></circle><circle class="pearl" r="2.1904339371426507" cx="13.52747808225776" cy="23.56239846478488"></circle><circle class="pearl" r="2.1904339371426507" cx="16.462861953831677" cy="11.306646801168123"></circle><circle class="pearl" r="2.1904339371426507" cx="20.67027960515609" cy="26.20084272526066"></circle><circle class="pearl" r="2.1904339371426507" cx="11.052932987281977" cy="16.673594621973077"></circle><circle class="pearl" r="2.1904339371426507" cx="23.375435492922627" cy="13.489912704830031"></circle><circle class="pearl" r="2.1904339371426507" cx="14.998702475157689" cy="31.03242872247118"></circle><circle class="pearl" r="2.1904339371426507" cx="11.406765016020746" cy="5.890523493209048"></circle><circle class="pearl" r="2.1904339371426507" cx="26.304418889485483" cy="20.73766572170059"></circle><circle class="pearl" r="2.1904339371426507" cx="5.025602868918749" cy="21.615717007340834"></circle><circle class="pearl" r="2.1904339371426507" cx="27.749364761332938" cy="7.549078311548386"></circle><circle class="pearl" r="2.1904339371426507" cx="28.007567383182913" cy="28.209770879101345"></circle><circle class="pearl" r="2.1904339371426507" cx="6.153412064418151" cy="10.772283535472695"></circle><circle class="pearl" r="2.1904339371426507" cx="30.99970069065338" cy="14.809421745786983"></circle><circle class="pearl" r="2.1904339371426507" cx="8.223244221110349" cy="28.40840553702746"></circle><circle class="pearl" r="2.1904339371426507" cx="20.707240653128125" cy="4.861273273235837"></circle></g><text id="4" class="legendSampleValue" text-anchor="middle" transform="translate(45,8)" x="0" y="264.674160374301" style="fill: black; font-size: 0.7rem;">1.2k</text><g class="bright" cupRadius="20" width="40" height="40" pearlRadius="2.7380424214283137" pearlCount="20" transform="translate(25,284.674160374301)"><circle class="pool" r="20" cx="20" cy="20" style="stroke-width: 1; fill: rgb(127, 205, 187);"></circle><circle class="pearl" r="2.190433937142651" cx="20.803317911356498" cy="19.852362298934615"></circle><circle class="pearl" r="2.190433937142651" cx="12.399118369231148" cy="22.318129073543428"></circle><circle class="pearl" r="2.190433937142651" cx="20.14107886386132" cy="11.690576671380018"></circle><circle class="pearl" r="2.190433937142651" cx="25.351645945468196" cy="26.426489948513225"></circle><circle class="pearl" r="2.190433937142651" cx="5.45555413244983" cy="14.383463400696877"></circle><circle class="pearl" r="2.190433937142651" cx="27.007002384921414" cy="14.812215198670392"></circle><circle class="pearl" r="2.190433937142651" cx="17.669394065840073" cy="27.98572181627974"></circle><circle class="pearl" r="2.190433937142651" cx="13.075316060454844" cy="14.529673081448232"></circle><circle class="pearl" r="2.190433937142651" cx="31.363412690087696" cy="21.539471699750266"></circle><circle class="pearl" r="2.190433937142651" cx="6.986823167406808" cy="29.380119115938808"></circle><circle class="pearl" r="2.190433937142651" cx="24.195863946736896" cy="5.095807587217031"></circle><circle class="pearl" r="2.190433937142651" cx="27.929986347293504" cy="33.70997709935047"></circle><circle class="pearl" r="2.190433937142651" cx="8.960309851298339" cy="7.973635910317352"></circle><circle class="pearl" r="2.190433937142651" cx="34.68553340637696" cy="14.890285786129768"></circle><circle class="pearl" r="2.190433937142651" cx="12.548559824642552" cy="33.90934248556552"></circle><circle class="pearl" r="2.190433937142651" cx="16.437930987710008" cy="4.970487855189916"></circle><circle class="pearl" r="2.190433937142651" cx="33.26719371328966" cy="28.885282914155283"></circle><circle class="pearl" r="2.190433937142651" cx="4.745924110358729" cy="21.949095191008542"></circle><circle class="pearl" r="2.190433937142651" cx="31.34694409707199" cy="8.181149473979769"></circle><circle class="pearl" r="2.190433937142651" cx="20.521343379892976" cy="35.34248064375117"></circle></g><text id="5" class="legendSampleValue" text-anchor="middle" transform="translate(45,8)" x="0" y="329.674160374301" style="fill: black; font-size: 0.7rem;">1.5k</text><text id="coloringDisclaimer" transform="translate(45,8)" text-anchor="middle" x="0" y="344.674160374301" style="font-size: 0.7rem; opacity: 0.6;">(note: coloring</text><text id="coloringDisclaimer" transform="translate(45,8)" text-anchor="middle" x="0" y="359.674160374301" style="font-size: 0.7rem; opacity: 0.6;">is random)</text></g></svg>