<?xml version="1.0" standalone="no"?>
<?xml-stylesheet xmlns="http://www.w3.org/2000/svg" type="text/css" href="style.css"?>
<svg id="syntheticVisB" class="default" xTitle="Percent Cat Owners" yTitle="Percent Dog Owners" rTitle="Population" chartTitle="Towns in Vizzyland" width="500" height="400" xmlns="http://www.w3.org/2000/svg"><text id="chartTitle" text-anchor="middle" transform="translate(250,20)" x="0" y="0" style="fill: black; font-size: 1.2rem;">Towns in Vizzyland</text><g id="yAxis" transform="translate(50,30)" fill="none" font-size="10" font-family="sans-serif" text-anchor="end"><path class="domain" stroke="currentColor" d="M-6,300H0V20H-6"></path><g class="tick" opacity="1" transform="translate(0,300)"><line stroke="currentColor" x2="-6"></line><text fill="currentColor" x="-9" dy="0.32em">0</text></g><g class="tick" opacity="1" transform="translate(0,272)"><line stroke="currentColor" x2="-6"></line><text fill="currentColor" x="-9" dy="0.32em">10</text></g><g class="tick" opacity="1" transform="translate(0,244)"><line stroke="currentColor" x2="-6"></line><text fill="currentColor" x="-9" dy="0.32em">20</text></g><g class="tick" opacity="1" transform="translate(0,216)"><line stroke="currentColor" x2="-6"></line><text fill="currentColor" x="-9" dy="0.32em">30</text></g><g class="tick" opacity="1" transform="translate(0,188)"><line stroke="currentColor" x2="-6"></line><text fill="currentColor" x="-9" dy="0.32em">40</text></g><g class="tick" opacity="1" transform="translate(0,160)"><line stroke="currentColor" x2="-6"></line><text fill="currentColor" x="-9" dy="0.32em">50</text></g><g class="tick" opacity="1" transform="translate(0,132)"><line stroke="currentColor" x2="-6"></line><text fill="currentColor" x="-9" dy="0.32em">60</text></g><g class="tick" opacity="1" transform="translate(0,104.00000000000001)"><line stroke="currentColor" x2="-6"></line><text fill="currentColor" x="-9" dy="0.32em">70</text></g><g class="tick" opacity="1" transform="translate(0,75.99999999999999)"><line stroke="currentColor" x2="-6"></line><text fill="currentColor" x="-9" dy="0.32em">80</text></g><g class="tick" opacity="1" transform="translate(0,47.99999999999999)"><line stroke="currentColor" x2="-6"></line><text fill="currentColor" x="-9" dy="0.32em">90</text></g><g class="tick" opacity="1" transform="translate(0,20)"><line stroke="currentColor" x2="-6"></line><text fill="currentColor" x="-9" dy="0.32em">100</text></g></g><g id="xAxis" transform="translate(60,360)" fill="none" font-size="10" font-family="sans-serif" text-anchor="middle"><path class="domain" stroke="currentColor" d="M20,6V0H320V6"></path><g class="tick" opacity="1" transform="translate(20,0)"><line stroke="currentColor" y2="6"></line><text fill="currentColor" y="9" dy="0.71em">0</text></g><g class="tick" opacity="1" transform="translate(50,0)"><line stroke="currentColor" y2="6"></line><text fill="currentColor" y="9" dy="0.71em">10</text></g><g class="tick" opacity="1" transform="translate(80,0)"><line stroke="currentColor" y2="6"></line><text fill="currentColor" y="9" dy="0.71em">20</text></g><g class="tick" opacity="1" transform="translate(110,0)"><line stroke="currentColor" y2="6"></line><text fill="currentColor" y="9" dy="0.71em">30</text></g><g class="tick" opacity="1" transform="translate(140,0)"><line stroke="currentColor" y2="6"></line><text fill="currentColor" y="9" dy="0.71em">40</text></g><g class="tick" opacity="1" transform="translate(170,0)"><line stroke="currentColor" y2="6"></line><text fill="currentColor" y="9" dy="0.71em">50</text></g><g class="tick" opacity="1" transform="translate(200,0)"><line stroke="currentColor" y2="6"></line><text fill="currentColor" y="9" dy="0.71em">60</text></g><g class="tick" opacity="1" transform="translate(230,0)"><line stroke="currentColor" y2="6"></line><text fill="currentColor" y="9" dy="0.71em">70</text></g><g class="tick" opacity="1" transform="translate(260,0)"><line stroke="currentColor" y2="6"></line><text fill="currentColor" y="9" dy="0.71em">80</text></g><g class="tick" opacity="1" transform="translate(290,0)"><line stroke="currentColor" y2="6"></line><text fill="currentColor" y="9" dy="0.71em">90</text></g><g class="tick" opacity="1" transform="translate(320,0)"><line stroke="currentColor" y2="6"></line><text fill="currentColor" y="9" dy="0.71em">100</text></g></g><g id="labels"><text id="xTitle" text-anchor="middle" transform="translate(250,350)" x="0" y="40" style="fill: black; font-size: 0.8rem;">Percent Cat Owners</text><g id="group-yTitle" transform="translate(60,190)"><text id="yTitle" text-anchor="middle" transform="rotate(-90)" y="-45" style="fill: black; font-size: 0.8rem;">Percent Dog Owners</text></g></g><g id="quadrant_lines" transform="translate(60,30)"><line id="verticalQuadrantLine" x1="170" y1="10" x2="170" y2="310" class="quadrantLine"></line><line id="horizontalQuadrantLine" x1="10" y1="160" x2="330" y2="160" class="quadrantLine"></line></g><g id="chart" transform="translate(60,30)"><g class="bobaCup bright" cupRadius="20" width="40" height="40" pearlRadius="2.7380424214283137" pearlCount="20" transform="translate(52.60439356586366,200.03798636498453)"><circle class="pool" r="20" cx="20" cy="20" style="stroke-width: 1; fill: rgb(65, 182, 196);"></circle><circle class="pearl" r="2.190433937142651" cx="20.803317911356498" cy="19.852362298934615"></circle><circle class="pearl" r="2.190433937142651" cx="12.399118369231148" cy="22.318129073543428"></circle><circle class="pearl" r="2.190433937142651" cx="20.14107886386132" cy="11.690576671380018"></circle><circle class="pearl" r="2.190433937142651" cx="25.351645945468196" cy="26.426489948513225"></circle><circle class="pearl" r="2.190433937142651" cx="5.45555413244983" cy="14.383463400696877"></circle><circle class="pearl" r="2.190433937142651" cx="27.007002384921414" cy="14.812215198670392"></circle><circle class="pearl" r="2.190433937142651" cx="17.669394065840073" cy="27.98572181627974"></circle><circle class="pearl" r="2.190433937142651" cx="13.075316060454844" cy="14.529673081448232"></circle><circle class="pearl" r="2.190433937142651" cx="31.363412690087696" cy="21.539471699750266"></circle><circle class="pearl" r="2.190433937142651" cx="6.986823167406808" cy="29.380119115938808"></circle><circle class="pearl" r="2.190433937142651" cx="24.195863946736896" cy="5.095807587217031"></circle><circle class="pearl" r="2.190433937142651" cx="27.929986347293504" cy="33.70997709935047"></circle><circle class="pearl" r="2.190433937142651" cx="8.960309851298339" cy="7.973635910317352"></circle><circle class="pearl" r="2.190433937142651" cx="34.68553340637696" cy="14.890285786129768"></circle><circle class="pearl" r="2.190433937142651" cx="12.548559824642552" cy="33.90934248556552"></circle><circle class="pearl" r="2.190433937142651" cx="16.437930987710008" cy="4.970487855189916"></circle><circle class="pearl" r="2.190433937142651" cx="33.26719371328966" cy="28.885282914155283"></circle><circle class="pearl" r="2.190433937142651" cx="4.745924110358729" cy="21.949095191008542"></circle><circle class="pearl" r="2.190433937142651" cx="31.34694409707199" cy="8.181149473979769"></circle><circle class="pearl" r="2.190433937142651" cx="20.521343379892976" cy="35.34248064375117"></circle></g><g class="bobaCup bright" cupRadius="16.952108569260215" width="33.90421713852043" height="33.90421713852043" pearlRadius="2.7380424214283137" pearlCount="14" transform="translate(58.73721402762004,213.40641828008947)"><circle class="pool" r="16.952108569260215" cx="16.952108569260215" cy="16.952108569260215" style="stroke-width: 1; fill: rgb(29, 145, 192);"></circle><circle class="pearl" r="2.190433937142651" cx="21.065404887537966" cy="12.889218284069852"></circle><circle class="pearl" r="2.190433937142651" cx="12.834291995963406" cy="21.01743913816974"></circle><circle class="pearl" r="2.190433937142651" cx="13.290363130992601" cy="13.256977220231397"></circle><circle class="pearl" r="2.190433937142651" cx="20.617330106404808" cy="20.64304487072403"></circle><circle class="pearl" r="2.190433937142651" cx="4.803434092595271" cy="19.222399670704263"></circle><circle class="pearl" r="2.190433937142651" cx="26.249744157161583" cy="7.427925892726478"></circle><circle class="pearl" r="2.190433937142651" cx="15.05876926566312" cy="29.147430907095508"></circle><circle class="pearl" r="2.190433937142651" cx="10.930184537140962" cy="5.756367968466398"></circle><circle class="pearl" r="2.190433937142651" cx="28.280173867290525" cy="22.61358383337091"></circle><circle class="pearl" r="2.190433937142651" cx="7.654363551357319" cy="26.476219467621533"></circle><circle class="pearl" r="2.190433937142651" cx="18.849311073210764" cy="4.757220867889064"></circle><circle class="pearl" r="2.190433937142651" cx="22.97309651499601" cy="28.148204867057498"></circle><circle class="pearl" r="2.190433937142651" cx="5.617369858897508" cy="11.309503537638326"></circle><circle class="pearl" r="2.190433937142651" cx="29.100645712695535" cy="14.680801479164156"></circle></g><g class="bobaCup bright" cupRadius="15.008646967570066" width="30.01729393514013" height="30.01729393514013" pearlRadius="2.738042421428314" pearlCount="11" transform="translate(43.868597613739986,200.47034267132628)"><circle class="pool" r="15.008646967570066" cx="15.008646967570066" cy="15.008646967570066" style="stroke-width: 1; fill: rgb(29, 145, 192);"></circle><circle class="pearl" r="2.1904339371426516" cx="18.938165101120934" cy="15.545494085440394"></circle><circle class="pearl" r="2.1904339371426516" cx="11.819181322538505" cy="17.46452381326764"></circle><circle class="pearl" r="2.1904339371426516" cx="13.668875349114657" cy="10.249440293524124"></circle><circle class="pearl" r="2.1904339371426516" cx="21.62628132396803" cy="23.828870228469253"></circle><circle class="pearl" r="2.1904339371426516" cx="4.676124966448738" cy="14.135808961952954"></circle><circle class="pearl" r="2.1904339371426516" cx="24.610847239494145" cy="10.306131099847477"></circle><circle class="pearl" r="2.1904339371426516" cx="14.174550024350818" cy="25.34337555355774"></circle><circle class="pearl" r="2.1904339371426516" cx="7.17057074914063" cy="6.859993453844632"></circle><circle class="pearl" r="2.1904339371426516" cx="25.064312404586644" cy="18.00558143696122"></circle><circle class="pearl" r="2.1904339371426516" cx="7.14521806248346" cy="23.14174044809641"></circle><circle class="pearl" r="2.1904339371426516" cx="19.312953321833362" cy="5.281177312270149"></circle></g><g class="bobaCup bright" cupRadius="14.925195541314354" width="29.850391082628708" height="29.850391082628708" pearlRadius="2.7380424214283137" pearlCount="11" transform="translate(142.00307473406232,285.07480445868566)"><circle class="pool" r="14.925195541314354" cx="14.925195541314354" cy="14.925195541314354" style="stroke-width: 1; fill: rgb(29, 145, 192);"></circle><circle class="pearl" r="2.190433937142651" cx="18.86120327489905" cy="15.51231855327698"></circle><circle class="pearl" r="2.190433937142651" cx="11.809561926350096" cy="17.444299650461843"></circle><circle class="pearl" r="2.190433937142651" cx="13.578801785093892" cy="10.274752293137597"></circle><circle class="pearl" r="2.190433937142651" cx="21.553160356139752" cy="23.647263508298007"></circle><circle class="pearl" r="2.190433937142651" cx="4.674752247373661" cy="14.078615235115269"></circle><circle class="pearl" r="2.190433937142651" cx="24.43172087327632" cy="10.19933317114796"></circle><circle class="pearl" r="2.190433937142651" cx="14.127026388181491" cy="25.17831034022656"></circle><circle class="pearl" r="2.190433937142651" cx="7.162928367303104" cy="6.828029914638179"></circle><circle class="pearl" r="2.190433937142651" cx="24.90711989205432" cy="17.865788468965555"></circle><circle class="pearl" r="2.190433937142651" cx="7.148808722699732" cy="23.0137529044308"></circle><circle class="pearl" r="2.190433937142651" cx="19.13310697591" cy="5.256179131712226"></circle></g><g class="bobaCup bright" cupRadius="14.606569768634374" width="29.21313953726875" height="29.21313953726875" pearlRadius="2.7380424214283137" pearlCount="10" transform="translate(235.63698330645184,179.39879991892371)"><circle class="pool" r="14.606569768634374" cx="14.606569768634374" cy="14.606569768634374" style="stroke-width: 1; fill: rgb(65, 182, 196);"></circle><circle class="pearl" r="2.190433937142651" cx="17.35189201327276" cy="11.922510107235945"></circle><circle class="pearl" r="2.190433937142651" cx="12.207092755800618" cy="16.95763835813475"></circle><circle class="pearl" r="2.190433937142651" cx="14.50522227691613" cy="4.651074831920303"></circle><circle class="pearl" r="2.190433937142651" cx="22.324644756821954" cy="22.35678194360027"></circle><circle class="pearl" r="2.190433937142651" cx="4.651550257127591" cy="14.45113677134526"></circle><circle class="pearl" r="2.190433937142651" cx="22.1341421595348" cy="6.739803859773092"></circle><circle class="pearl" r="2.190433937142651" cx="14.709011400919753" cy="24.56205707250319"></circle><circle class="pearl" r="2.190433937142651" cx="6.888615002038939" cy="6.856282771148452"></circle><circle class="pearl" r="2.190433937142651" cx="24.561394110463855" cy="14.779371894633234"></circle><circle class="pearl" r="2.190433937142651" cx="7.07835134183785" cy="22.47294715180341"></circle></g><g class="bobaCup bright" cupRadius="14.119906336197328" width="28.239812672394656" height="28.239812672394656" pearlRadius="2.7380424214283137" pearlCount="9" transform="translate(140.12822154225458,205.48227325467823)"><circle class="pool" r="14.119906336197328" cx="14.119906336197328" cy="14.119906336197328" style="stroke-width: 1; fill: rgb(127, 205, 187);"></circle><circle class="pearl" r="2.190433937142651" cx="19.978825798553313" cy="14.095070802149179"></circle><circle class="pearl" r="2.190433937142651" cx="12.3198034497843" cy="15.894088932450096"></circle><circle class="pearl" r="2.190433937142651" cx="14.122526848907947" cy="4.6507234717414985"></circle><circle class="pearl" r="2.190433937142651" cx="14.12475806969021" cy="23.589088610272768"></circle><circle class="pearl" r="2.190433937142651" cx="4.650733188704846" cy="14.136677508262153"></circle><circle class="pearl" r="2.190433937142651" cx="21.408493120680426" cy="6.6773149807495304"></circle><circle class="pearl" r="2.190433937142651" cx="6.812019234369998" cy="21.55084446068242"></circle><circle class="pearl" r="2.190433937142651" cx="6.8063170419280326" cy="6.692419160170594"></circle><circle class="pearl" r="2.190433937142651" cx="21.420720174117417" cy="21.555120069526218"></circle></g><g class="bobaCup bright" cupRadius="13.790728374945786" width="27.581456749891572" height="27.581456749891572" pearlRadius="2.7380424214283137" pearlCount="9" transform="translate(168.25590582373525,249.9623473302463)"><circle class="pool" r="13.790728374945786" cx="13.790728374945786" cy="13.790728374945786" style="stroke-width: 1; fill: rgb(29, 145, 192);"></circle><circle class="pearl" r="2.190433937142651" cx="15.585420444922205" cy="12.029199220397912"></circle><circle class="pearl" r="2.190433937142651" cx="10.206595444511645" cy="17.362212298473317"></circle><circle class="pearl" r="2.190433937142651" cx="13.853165894922844" cy="4.650864572225057"></circle><circle class="pearl" r="2.190433937142651" cx="20.839172413355822" cy="20.993427679505665"></circle><circle class="pearl" r="2.190433937142651" cx="4.650977219583734" cy="13.707030241043084"></circle><circle class="pearl" r="2.190433937142651" cx="20.767076638341127" cy="6.545454208621576"></circle><circle class="pearl" r="2.190433937142651" cx="13.831494429510355" cy="22.930673267982517"></circle><circle class="pearl" r="2.190433937142651" cx="6.809341746933589" cy="6.548410366652881"></circle><circle class="pearl" r="2.190433937142651" cx="22.930199174118233" cy="13.912127669513346"></circle></g><g class="bobaCup bright" cupRadius="13.686457663916327" width="27.372915327832654" height="27.372915327832654" pearlRadius="2.7380424214283137" pearlCount="9" transform="translate(187.67392438458228,205.5240486970875)"><circle class="pool" r="13.686457663916327" cx="13.686457663916327" cy="13.686457663916327" style="stroke-width: 1; fill: rgb(29, 145, 192);"></circle><circle class="pearl" r="2.190433937142651" cx="15.407482395891522" cy="12.005448130998728"></circle><circle class="pearl" r="2.190433937142651" cx="10.023404931854724" cy="17.335716347718055"></circle><circle class="pearl" r="2.190433937142651" cx="13.745394098879817" cy="4.650850124790477"></circle><circle class="pearl" r="2.190433937142651" cx="20.641502252070925" cy="20.8232905078717"></circle><circle class="pearl" r="2.190433937142651" cx="4.650850096472821" cy="13.627527805299705"></circle><circle class="pearl" r="2.190433937142651" cx="20.572038346082085" cy="6.508913815034363"></circle><circle class="pearl" r="2.190433937142651" cx="13.697841392673034" cy="22.722187365045237"></circle><circle class="pearl" r="2.190433937142651" cx="6.79762695616113" cy="6.510806348018468"></circle><circle class="pearl" r="2.190433937142651" cx="22.721225775326648" cy="13.849092744596948"></circle></g><g class="bobaCup bright" cupRadius="13.675305783690767" width="27.350611567381534" height="27.350611567381534" pearlRadius="2.7380424214283137" pearlCount="9" transform="translate(236.73283220584028,188.74815770815064)"><circle class="pool" r="13.675305783690767" cx="13.675305783690767" cy="13.675305783690767" style="stroke-width: 1; fill: rgb(127, 205, 187);"></circle><circle class="pearl" r="2.190433937142651" cx="15.388011689109161" cy="12.003355596641791"></circle><circle class="pearl" r="2.190433937142651" cx="10.00276008009762" cy="17.333904631810825"></circle><circle class="pearl" r="2.190433937142651" cx="13.733884982325012" cy="4.650848693343439"></circle><circle class="pearl" r="2.190433937142651" cx="20.620348960153084" cy="20.80509033511458"></circle><circle class="pearl" r="2.190433937142651" cx="4.650840184776614" cy="13.618747759776886"></circle><circle class="pearl" r="2.190433937142651" cx="20.55124957381681" cy="6.505056747998932"></circle><circle class="pearl" r="2.190433937142651" cx="13.683745358864584" cy="22.699885734611424"></circle><circle class="pearl" r="2.190433937142651" cx="6.796487888120891" cy="6.50672900604178"></circle><circle class="pearl" r="2.190433937142651" cx="22.69886474840543" cy="13.842622178088948"></circle></g><g class="bobaCup bright" cupRadius="13.649837423199864" width="27.29967484639973" height="27.29967484639973" pearlRadius="2.7380424214283137" pearlCount="9" transform="translate(118.76691540714958,231.84983854787274)"><circle class="pool" r="13.649837423199864" cx="13.649837423199864" cy="13.649837423199864" style="stroke-width: 1; fill: rgb(127, 205, 187);"></circle><circle class="pearl" r="2.190433937142651" cx="15.343187667681294" cy="11.998937970601078"></circle><circle class="pearl" r="2.190433937142651" cx="9.954754208227998" cy="17.330593586462733"></circle><circle class="pearl" r="2.190433937142651" cx="13.70761557734912" cy="4.650845513179572"></circle><circle class="pearl" r="2.190433937142651" cx="20.572025610426277" cy="20.763525458283695"></circle><circle class="pearl" r="2.190433937142651" cx="4.650819860006223" cy="13.598475984146868"></circle><circle class="pearl" r="2.190433937142651" cx="20.50383001659556" cy="6.496288238383309"></circle><circle class="pearl" r="2.190433937142651" cx="13.65169647131694" cy="22.648951491231532"></circle><circle class="pearl" r="2.190433937142651" cx="6.793979856564405" cy="6.497371307115207"></circle><circle class="pearl" r="2.190433937142651" cx="22.647787969638795" cy="13.828067227501506"></circle></g><g class="bobaCup bright" cupRadius="13.598135861288807" width="27.196271722577613" height="27.196271722577613" pearlRadius="2.7380424214283132" pearlCount="9" transform="translate(76.37926971430778,193.95514337304093)"><circle class="pool" r="13.598135861288807" cx="13.598135861288807" cy="13.598135861288807" style="stroke-width: 1; fill: rgb(127, 205, 187);"></circle><circle class="pearl" r="2.1904339371426507" cx="15.250547657399075" cy="11.991626860694701"></circle><circle class="pearl" r="2.1904339371426507" cx="9.85334013367613" cy="17.327667663003833"></circle><circle class="pearl" r="2.1904339371426507" cx="13.654357802019573" cy="4.650839454800926"></circle><circle class="pearl" r="2.1904339371426507" cx="20.47385055569665" cy="20.67915787130745"></circle><circle class="pearl" r="2.1904339371426507" cx="4.6507874994942275" cy="13.556327664018879"></circle><circle class="pearl" r="2.1904339371426507" cx="20.407830225739453" cy="6.478669560169309"></circle><circle class="pearl" r="2.1904339371426507" cx="13.587238790655691" cy="22.545544127740126"></circle><circle class="pearl" r="2.1904339371426507" cx="6.78932060875857" cy="6.478160989960281"></circle><circle class="pearl" r="2.1904339371426507" cx="22.544056729463268" cy="13.799551373360538"></circle></g><g class="bobaCup bright" cupRadius="13.449216136212083" width="26.898432272424166" height="26.898432272424166" pearlRadius="2.7380424214283137" pearlCount="9" transform="translate(83.33642554620897,245.82405430778962)"><circle class="pool" r="13.449216136212083" cx="13.449216136212083" cy="13.449216136212083" style="stroke-width: 1; fill: rgb(127, 205, 187);"></circle><circle class="pearl" r="2.190433937142651" cx="14.968778071758207" cy="11.98542941988662"></circle><circle class="pearl" r="2.190433937142651" cx="9.525010342857136" cy="17.35339004464561"></circle><circle class="pearl" r="2.190433937142651" cx="13.501606067473489" cy="4.650825268544342"></circle><circle class="pearl" r="2.190433937142651" cx="20.190061101518197" cy="20.43646626352452"></circle><circle class="pearl" r="2.190433937142651" cx="4.650742535233844" cy="13.426427573556914"></circle><circle class="pearl" r="2.190433937142651" cx="20.133704852658678" cy="6.429505556297485"></circle><circle class="pearl" r="2.190433937142651" cx="13.405535181080813" cy="22.2476381092033"></circle><circle class="pearl" r="2.190433937142651" cx="6.779860375905072" cy="6.4208508549290215"></circle><circle class="pearl" r="2.190433937142651" cx="22.244840910419335" cy="13.726957142774852"></circle></g><g class="bobaCup bright" cupRadius="13.446042216390053" width="26.892084432780106" height="26.892084432780106" pearlRadius="2.7380424214283137" pearlCount="9" transform="translate(141.39839790847165,154.99268533255608)"><circle class="pool" r="13.446042216390053" cx="13.446042216390053" cy="13.446042216390053" style="stroke-width: 1; fill: rgb(29, 145, 192);"></circle><circle class="pearl" r="2.190433937142651" cx="14.962488272997923" cy="11.985577637774563"></circle><circle class="pearl" r="2.190433937142651" cx="9.517317422253626" cy="17.3545838131022"></circle><circle class="pearl" r="2.190433937142651" cx="13.498362681937298" cy="4.650825022148442"></circle><circle class="pearl" r="2.190433937142651" cx="20.18398835252994" cy="20.43130339617141"></circle><circle class="pearl" r="2.190433937142651" cx="4.650742111835843" cy="13.423507576529286"></circle><circle class="pearl" r="2.190433937142651" cx="20.127908115843557" cy="6.428487106377338"></circle><circle class="pearl" r="2.190433937142651" cx="13.401711470112499" cy="22.24128812618449"></circle><circle class="pearl" r="2.190433937142651" cx="6.779734609000327" cy="6.4195913789209555"></circle><circle class="pearl" r="2.190433937142651" cx="22.238454839285335" cy="13.7255950091916"></circle></g><g class="bobaCup bright" cupRadius="13.39172995073275" width="26.7834599014655" height="26.7834599014655" pearlRadius="2.738042421428314" pearlCount="8" transform="translate(54.39451310021768,254.63167492346477)"><circle class="pool" r="13.39172995073275" cx="13.39172995073275" cy="13.39172995073275" style="stroke-width: 1; fill: rgb(29, 145, 192);"></circle><circle class="pearl" r="2.1904339371426516" cx="22.11397823253949" cy="14.100294736744294"></circle><circle class="pearl" r="2.1904339371426516" cx="12.671963685876413" cy="14.079561254154072"></circle><circle class="pearl" r="2.1904339371426516" cx="12.506171164622115" cy="4.680035108097755"></circle><circle class="pearl" r="2.1904339371426516" cx="18.618958201568304" cy="21.070423411000565"></circle><circle class="pearl" r="2.1904339371426516" cx="4.985782509952065" cy="16.3686045039247"></circle><circle class="pearl" r="2.1904339371426516" cx="20.206799540891858" cy="6.514519385486265"></circle><circle class="pearl" r="2.1904339371426516" cx="10.676388723134028" cy="21.85456280321974"></circle><circle class="pearl" r="2.1904339371426516" cx="5.609469743570218" cy="8.415852745643573"></circle></g><g class="bobaCup bright" cupRadius="13.380326755374078" width="26.760653510748156" height="26.760653510748156" pearlRadius="2.7380424214283137" pearlCount="8" transform="translate(249.29514420306322,160.74955793449303)"><circle class="pool" r="13.380326755374078" cx="13.380326755374078" cy="13.380326755374078" style="stroke-width: 1; fill: rgb(127, 205, 187);"></circle><circle class="pearl" r="2.190433937142651" cx="22.09160589021802" cy="14.080353126784939"></circle><circle class="pearl" r="2.190433937142651" cx="12.669390045124585" cy="14.056215595618267"></circle><circle class="pearl" r="2.190433937142651" cx="12.49168701905935" cy="4.680264857233629"></circle><circle class="pearl" r="2.190433937142651" cx="18.617853588424143" cy="21.04225786100973"></circle><circle class="pearl" r="2.190433937142651" cx="4.986743769432897" cy="16.360128672048415"></circle><circle class="pearl" r="2.190433937142651" cx="20.183896520689537" cy="6.509566462754641"></circle><circle class="pearl" r="2.190433937142651" cx="10.67738564289253" cy="21.834078084107322"></circle><circle class="pearl" r="2.190433937142651" cx="5.608624896590429" cy="8.40875768418145"></circle></g><g class="bobaCup bright" cupRadius="13.238344390637778" width="26.476688781275556" height="26.476688781275556" pearlRadius="2.7380424214283137" pearlCount="8" transform="translate(142.10621444064822,158.05264984859963)"><circle class="pool" r="13.238344390637778" cx="13.238344390637778" cy="13.238344390637778" style="stroke-width: 1; fill: rgb(65, 182, 196);"></circle><circle class="pearl" r="2.190433937142651" cx="14.277172995760466" cy="12.730039708133214"></circle><circle class="pearl" r="2.190433937142651" cx="8.23466606411012" cy="20.84392425108045"></circle><circle class="pearl" r="2.190433937142651" cx="13.98986787095754" cy="4.672071944561058"></circle><circle class="pearl" r="2.190433937142651" cx="21.539934521862154" cy="15.975375781541928"></circle><circle class="pearl" r="2.190433937142651" cx="4.679595781003039" cy="14.112195614118047"></circle><circle class="pearl" r="2.190433937142651" cx="20.768342534682255" cy="8.0533864305539"></circle><circle class="pearl" r="2.190433937142651" cx="16.07676252747342" cy="21.518094652454167"></circle><circle class="pearl" r="2.190433937142651" cx="6.5602017178944685" cy="6.458574513151909"></circle></g><g class="bobaCup bright" cupRadius="13.232693691757575" width="26.46538738351515" height="26.46538738351515" pearlRadius="2.7380424214283137" pearlCount="8" transform="translate(204.55174109023693,6.767306308242425)"><circle class="pool" r="13.232693691757575" cx="13.232693691757575" cy="13.232693691757575" style="stroke-width: 1; fill: rgb(29, 145, 192);"></circle><circle class="pearl" r="2.190433937142651" cx="14.264517580661742" cy="12.75887535593783"></circle><circle class="pearl" r="2.190433937142651" cx="8.213842887762153" cy="20.825961599540488"></circle><circle class="pearl" r="2.190433937142651" cx="13.992437797060886" cy="4.672551269874955"></circle><circle class="pearl" r="2.190433937142651" cx="21.525395438735014" cy="15.984408110484084"></circle><circle class="pearl" r="2.190433937142651" cx="4.679116473282038" cy="14.099083929470973"></circle><circle class="pearl" r="2.190433937142651" cx="20.762959161348313" cy="8.06281006877972"></circle><circle class="pearl" r="2.190433937142651" cx="16.05163234571202" cy="21.51092120194028"></circle><circle class="pearl" r="2.190433937142651" cx="6.562028801097181" cy="6.4551006726747"></circle></g><g class="bobaCup bright" cupRadius="13.19261301333319" width="26.38522602666638" height="26.38522602666638" pearlRadius="2.738042421428314" pearlCount="8" transform="translate(236.0930336035775,209.6048553230127)"><circle class="pool" r="13.19261301333319" cx="13.19261301333319" cy="13.19261301333319" style="stroke-width: 1; fill: rgb(29, 145, 192);"></circle><circle class="pearl" r="2.1904339371426516" cx="14.147581198507059" cy="12.859559148070232"></circle><circle class="pearl" r="2.1904339371426516" cx="8.096362323198775" cy="20.710425728862887"></circle><circle class="pearl" r="2.1904339371426516" cx="13.992664861707498" cy="4.675004716631944"></circle><circle class="pearl" r="2.1904339371426516" cx="21.429009287612292" cy="16.01523396536104"></circle><circle class="pearl" r="2.1904339371426516" cx="4.676786558546276" cy="14.021472202359648"></circle><circle class="pearl" r="2.1904339371426516" cx="20.710865714181256" cy="8.097413022284211"></circle><circle class="pearl" r="2.1904339371426516" cx="15.90712295972702" cy="21.452214097903788"></circle><circle class="pearl" r="2.1904339371426516" cx="6.571305855428683" cy="6.4326688801654885"></circle></g><g class="bobaCup bright" cupRadius="13.147263294217385" width="26.29452658843477" height="26.29452658843477" pearlRadius="2.7380424214283132" pearlCount="8" transform="translate(117.90254899709079,58.499562096700615)"><circle class="pool" r="13.147263294217385" cx="13.147263294217385" cy="13.147263294217385" style="stroke-width: 1; fill: rgb(127, 205, 187);"></circle><circle class="pearl" r="2.1904339371426507" cx="14.037696477601402" cy="12.909244587733228"></circle><circle class="pearl" r="2.1904339371426507" cx="7.97671369964076" cy="20.584383091492526"></circle><circle class="pearl" r="2.1904339371426507" cx="13.984409697014232" cy="4.677402769473221"></circle><circle class="pearl" r="2.1904339371426507" cx="21.322903301779718" cy="16.034292608623602"></circle><circle class="pearl" r="2.1904339371426507" cx="4.674668338980928" cy="13.94039126246848"></circle><circle class="pearl" r="2.1904339371426507" cx="20.645103351713967" cy="8.121037850419171"></circle><circle class="pearl" r="2.1904339371426507" cx="15.758826428285044" cy="21.3818134474669"></circle><circle class="pearl" r="2.1904339371426507" cx="6.580250423295417" cy="6.408303731743717"></circle></g><g class="bobaCup bright" cupRadius="12.887458759671917" width="25.774917519343834" height="25.774917519343834" pearlRadius="2.7380424214283132" pearlCount="8" transform="translate(11.965697219361394,107.8192105431545)"><circle class="pool" r="12.887458759671917" cx="12.887458759671917" cy="12.887458759671917" style="stroke-width: 1; fill: rgb(65, 182, 196);"></circle><circle class="pearl" r="2.1904339371426507" cx="13.613621235847548" cy="12.93973816375262"></circle><circle class="pearl" r="2.1904339371426507" cx="6.707564063010232" cy="19.545824566934673"></circle><circle class="pearl" r="2.1904339371426507" cx="14.249392852373623" cy="4.722889217128437"></circle><circle class="pearl" r="2.1904339371426507" cx="20.54113542429884" cy="16.719995328383717"></circle><circle class="pearl" r="2.1904339371426507" cx="4.653853410001079" cy="13.171484058092538"></circle><circle class="pearl" r="2.1904339371426507" cx="20.46273979868676" cy="8.811748645935282"></circle><circle class="pearl" r="2.1904339371426507" cx="14.293341462449218" cy="21.04728146436519"></circle><circle class="pearl" r="2.1904339371426507" cx="6.705512081087549" cy="6.230214507506946"></circle></g><g class="bobaCup bright" cupRadius="12.347072268458604" width="24.694144536917207" height="24.694144536917207" pearlRadius="2.7380424214283137" pearlCount="7" transform="translate(128.1593218877294,166.7588051135171)"><circle class="pool" r="12.347072268458604" cx="12.347072268458604" cy="12.347072268458604" style="stroke-width: 1; fill: rgb(127, 205, 187);"></circle><circle class="pearl" r="2.190433937142651" cx="12.392011249054555" cy="12.365898832757601"></circle><circle class="pearl" r="2.190433937142651" cx="4.9800732087559165" cy="15.179834984336395"></circle><circle class="pearl" r="2.190433937142651" cx="13.230525521830202" cy="4.682370049581817"></circle><circle class="pearl" r="2.190433937142651" cx="18.806866187811433" cy="17.73285004963637"></circle><circle class="pearl" r="2.190433937142651" cx="5.755312152106315" cy="7.242489832875842"></circle><circle class="pearl" r="2.190433937142651" cx="19.626277384123426" cy="9.164776979844397"></circle><circle class="pearl" r="2.190433937142651" cx="11.144148262129601" cy="19.984683647861736"></circle></g><g class="bobaCup bright" cupRadius="12.112306199589247" width="24.224612399178493" height="24.224612399178493" pearlRadius="2.7380424214283132" pearlCount="7" transform="translate(165.65103994162655,153.95696144344967)"><circle class="pool" r="12.112306199589247" cx="12.112306199589247" cy="12.112306199589247" style="stroke-width: 1; fill: rgb(127, 205, 187);"></circle><circle class="pearl" r="2.1904339371426507" cx="12.12101272141987" cy="12.114914280893592"></circle><circle class="pearl" r="2.1904339371426507" cx="5.133882759326105" cy="15.499179274764924"></circle><circle class="pearl" r="2.1904339371426507" cx="12.692961986103068" cy="4.664649357663449"></circle><circle class="pearl" r="2.1904339371426507" cx="18.69721318984786" cy="16.636527133443934"></circle><circle class="pearl" r="2.1904339371426507" cx="5.530362803584624" cy="7.580732303716962"></circle><circle class="pearl" r="2.1904339371426507" cx="19.077036145625907" cy="8.67876443908845"></circle><circle class="pearl" r="2.1904339371426507" cx="11.494396991267884" cy="19.5581175856456"></circle></g><g class="bobaCup bright" cupRadius="11.804988688981341" width="23.609977377962682" height="23.609977377962682" pearlRadius="2.7380424214283137" pearlCount="6" transform="translate(152.06116997518942,248.77720821578814)"><circle class="pool" r="11.804988688981341" cx="11.804988688981341" cy="11.804988688981341" style="stroke-width: 1; fill: rgb(127, 205, 187);"></circle><circle class="pearl" r="2.190433937142651" cx="12.265455430502445" cy="12.059285073742995"></circle><circle class="pearl" r="2.190433937142651" cx="6.922561244714542" cy="17.90227272680377"></circle><circle class="pearl" r="2.190433937142651" cx="9.769288071809818" cy="4.827570150949093"></circle><circle class="pearl" r="2.190433937142651" cx="17.41729046944835" cy="17.53982402372038"></circle><circle class="pearl" r="2.190433937142651" cx="4.7274628581721725" cy="10.461139014306518"></circle><circle class="pearl" r="2.190433937142651" cx="17.487348695779428" cy="6.108318878718004"></circle></g><g class="bobaCup bright" cupRadius="11.771166914884596" width="23.54233382976919" height="23.54233382976919" pearlRadius="2.7380424214283137" pearlCount="6" transform="translate(216.21242297751996,227.09193352449608)"><circle class="pool" r="11.771166914884596" cx="11.771166914884596" cy="11.771166914884596" style="stroke-width: 1; fill: rgb(65, 182, 196);"></circle><circle class="pearl" r="2.190433937142651" cx="12.221239254480357" cy="12.035163759537491"></circle><circle class="pearl" r="2.190433937142651" cx="6.820421407438203" cy="17.799886062138807"></circle><circle class="pearl" r="2.190433937142651" cx="9.758510799075806" cy="4.82406336868571"></circle><circle class="pearl" r="2.190433937142651" cx="17.35263098465411" cy="17.484208898626346"></circle><circle class="pearl" r="2.190433937142651" cx="4.733297477901935" cy="10.3793436370088"></circle><circle class="pearl" r="2.190433937142651" cx="17.42756838284618" cy="6.098833766039359"></circle></g><g class="bobaCup bright" cupRadius="11.67615158640692" width="23.35230317281384" height="23.35230317281384" pearlRadius="2.7380424214283137" pearlCount="6" transform="translate(145.72976813995712,160.3598223064802)"><circle class="pool" r="11.67615158640692" cx="11.67615158640692" cy="11.67615158640692" style="stroke-width: 1; fill: rgb(127, 205, 187);"></circle><circle class="pearl" r="2.190433937142651" cx="12.087753113989484" cy="11.973222650932641"></circle><circle class="pearl" r="2.190433937142651" cx="6.489369808056557" cy="17.486298811699868"></circle><circle class="pearl" r="2.190433937142651" cx="9.747952626827612" cy="4.811035086975965"></circle><circle class="pearl" r="2.190433937142651" cx="17.171702638739173" cy="17.327439544976077"></circle><circle class="pearl" r="2.190433937142651" cx="4.755715451203509" cy="10.11384980797657"></circle><circle class="pearl" r="2.190433937142651" cx="17.26325880714432" cy="6.07422887489323"></circle></g><g class="bobaCup bright" cupRadius="11.358940586017468" width="22.717881172034936" height="22.717881172034936" pearlRadius="2.7380424214283146" pearlCount="6" transform="translate(8.641059413982532,98.80685865657072)"><circle class="pool" r="11.358940586017468" cx="11.358940586017468" cy="11.358940586017468" style="stroke-width: 1; fill: rgb(127, 205, 187);"></circle><circle class="pearl" r="2.1904339371426516" cx="11.768819249544661" cy="11.711599384770372"></circle><circle class="pearl" r="2.1904339371426516" cx="6.145050966536284" cy="16.799841918067987"></circle><circle class="pearl" r="2.1904339371426516" cx="9.51430547045509" cy="4.801503727977146"></circle><circle class="pearl" r="2.1904339371426516" cx="16.558311625937936" cy="16.80732979497827"></circle><circle class="pearl" r="2.1904339371426516" cx="4.774991724626937" cy="9.683328975974044"></circle><circle class="pearl" r="2.1904339371426516" cx="16.677481527384906" cy="5.972799090399371"></circle></g><g class="bobaCup bright" cupRadius="11.25506427842895" width="22.5101285568579" height="22.5101285568579" pearlRadius="2.738042421428314" pearlCount="6" transform="translate(102.11503840754737,49.028774433290124)"><circle class="pool" r="11.25506427842895" cx="11.25506427842895" cy="11.25506427842895" style="stroke-width: 1; fill: rgb(29, 145, 192);"></circle><circle class="pearl" r="2.1904339371426516" cx="11.68622101848789" cy="11.615270257675967"></circle><circle class="pearl" r="2.1904339371426516" cx="6.141341210510154" cy="16.6306219304338"></circle><circle class="pearl" r="2.1904339371426516" cx="9.402033643004964" cy="4.804312407908583"></circle><circle class="pearl" r="2.1904339371426516" cx="16.355710954143973" cy="16.637280569314996"></circle><circle class="pearl" r="2.1904339371426516" cx="4.770702936936527" cy="9.616051304379948"></circle><circle class="pearl" r="2.1904339371426516" cx="16.478704639542766" cy="5.9363314892771974"></circle></g><g class="bobaCup bright" cupRadius="11.113988045466648" width="22.227976090933296" height="22.227976090933296" pearlRadius="2.7380424214283137" pearlCount="6" transform="translate(50.21436645917038,178.81354415640624)"><circle class="pool" r="11.113988045466648" cx="11.113988045466648" cy="11.113988045466648" style="stroke-width: 1; fill: rgb(127, 205, 187);"></circle><circle class="pearl" r="2.190433937142651" cx="11.57617588083676" cy="11.483117098561223"></circle><circle class="pearl" r="2.190433937142651" cx="6.1363787649746655" cy="16.400273226147096"></circle><circle class="pearl" r="2.190433937142651" cx="9.24799492026648" cy="4.808489300588981"></circle><circle class="pearl" r="2.190433937142651" cx="16.080310271749394" cy="16.40591908120072"></circle><circle class="pearl" r="2.190433937142651" cx="4.764679466197535" cy="9.52652765185694"></circle><circle class="pearl" r="2.190433937142651" cx="16.208124049853254" cy="5.886932746272107"></circle></g><g class="bobaCup bright" cupRadius="10.847638531554802" width="21.695277063109604" height="21.695277063109604" pearlRadius="2.7380424214283137" pearlCount="5" transform="translate(148.32692848166573,206.04089055956618)"><circle class="pool" r="10.847638531554802" cx="10.847638531554802" cy="10.847638531554802" style="stroke-width: 1; fill: rgb(65, 182, 196);"></circle><circle class="pearl" r="2.190433937142651" cx="16.69514330091207" cy="8.116618463011596"></circle><circle class="pearl" r="2.190433937142651" cx="8.01485073951647" cy="16.66814135519704"></circle><circle class="pearl" r="2.190433937142651" cx="10.02604865743427" cy="4.681881196189435"></circle><circle class="pearl" r="2.190433937142651" cx="15.793977843364853" cy="15.851188404761754"></circle><circle class="pearl" r="2.190433937142651" cx="4.689623866621112" cy="9.929789491251125"></circle></g><g class="bobaCup bright" cupRadius="10.804696055744657" width="21.609392111489313" height="21.609392111489313" pearlRadius="2.7380424214283137" pearlCount="5" transform="translate(149.99390619387196,115.5525515166919)"><circle class="pool" r="10.804696055744657" cx="10.804696055744657" cy="10.804696055744657" style="stroke-width: 1; fill: rgb(127, 205, 187);"></circle><circle class="pearl" r="2.190433937142651" cx="16.60717959014696" cy="8.071213802728995"></circle><circle class="pearl" r="2.190433937142651" cx="7.953653785686254" cy="16.575729628757667"></circle><circle class="pearl" r="2.190433937142651" cx="9.988186575620484" cy="4.681619159666525"></circle><circle class="pearl" r="2.190433937142651" cx="15.714196703552847" cy="15.778849982036125"></circle><circle class="pearl" r="2.190433937142651" cx="4.690797168910249" cy="9.874982352744041"></circle></g><g class="bobaCup bright" cupRadius="10.773376074569406" width="21.54675214913881" height="21.54675214913881" pearlRadius="2.7380424214283137" pearlCount="5" transform="translate(71.16837982611412,238.8401423457008)"><circle class="pool" r="10.773376074569406" cx="10.773376074569406" cy="10.773376074569406" style="stroke-width: 1; fill: rgb(29, 145, 192);"></circle><circle class="pearl" r="2.190433937142651" cx="16.543054133079835" cy="8.038258332991463"></circle><circle class="pearl" r="2.190433937142651" cx="7.908664991163974" cy="16.508174616844432"></circle><circle class="pearl" r="2.190433937142651" cx="9.961004791725166" cy="4.681395502750457"></circle><circle class="pearl" r="2.190433937142651" cx="15.655979490831488" cy="15.72608014689514"></circle><circle class="pearl" r="2.190433937142651" cx="4.6917046311590695" cy="9.834580756659637"></circle></g><g class="bobaCup bright" cupRadius="10.432110412633921" width="20.864220825267843" height="20.864220825267843" pearlRadius="2.7380424214283132" pearlCount="5" transform="translate(70.80437507772885,222.4077507058117)"><circle class="pool" r="10.432110412633921" cx="10.432110412633921" cy="10.432110412633921" style="stroke-width: 1; fill: rgb(127, 205, 187);"></circle><circle class="pearl" r="2.1904339371426507" cx="15.847924068172755" cy="7.69463660961047"></circle><circle class="pearl" r="2.1904339371426507" cx="7.391119145104311" cy="15.760430212940594"></circle><circle class="pearl" r="2.1904339371426507" cx="9.699890434498265" cy="4.676451870147203"></circle><circle class="pearl" r="2.1904339371426507" cx="15.018952592158467" cy="15.151008653552392"></circle><circle class="pearl" r="2.1904339371426507" cx="4.70597509086264" cy="9.359853779373198"></circle></g><g class="bobaCup bright" cupRadius="10.42842247417876" width="20.85684494835752" height="20.85684494835752" pearlRadius="2.7380424214283132" pearlCount="5" transform="translate(115.83943887109875,185.66864782540097)"><circle class="pool" r="10.42842247417876" cx="10.42842247417876" cy="10.42842247417876" style="stroke-width: 1;"></circle><circle class="pearl" r="2.1904339371426507" cx="15.840475200447418" cy="7.6911728723602195"></circle><circle class="pearl" r="2.1904339371426507" cx="7.385146574393517" cy="15.752190064578986"></circle><circle class="pearl" r="2.1904339371426507" cx="9.69757543919146" cy="4.676364444287906"></circle><circle class="pearl" r="2.1904339371426507" cx="15.01202615980284" cy="15.144799787028699"></circle><circle class="pearl" r="2.1904339371426507" cx="4.706195312860804" cy="9.354227189857763"></circle></g><g class="bobaCup bright" cupRadius="10.423246932072871" width="20.846493864145742" height="20.846493864145742" pearlRadius="2.7380424214283137" pearlCount="5" transform="translate(176.96637944358287,176.81301988033613)"><circle class="pool" r="10.423246932072871" cx="10.423246932072871" cy="10.423246932072871" style="stroke-width: 1; fill: rgb(65, 182, 196);"></circle><circle class="pearl" r="2.190433937142651" cx="15.830025340407492" cy="7.686325773068551"></circle><circle class="pearl" r="2.190433937142651" cx="7.376746036816247" cy="15.740618250714263"></circle><circle class="pearl" r="2.190433937142651" cx="9.694352608301626" cy="4.6762401356942505"></circle><circle class="pearl" r="2.190433937142651" cx="15.002303512542781" cy="15.136086991044717"></circle><circle class="pearl" r="2.190433937142651" cx="4.706507878435909" cy="9.346305692283051"></circle></g><g class="bobaCup bright" cupRadius="10.331001796867852" width="20.662003593735704" height="20.662003593735704" pearlRadius="2.7380424214283137" pearlCount="5" transform="translate(48.133991259207804,224.72262166503486)"><circle class="pool" r="10.331001796867852" cx="10.331001796867852" cy="10.331001796867852" style="stroke-width: 1; fill: rgb(65, 182, 196);"></circle><circle class="pearl" r="2.190433937142651" cx="15.644619870664624" cy="7.603090409595018"></circle><circle class="pearl" r="2.190433937142651" cx="7.222878739500869" cy="15.532647277756968"></circle><circle class="pearl" r="2.190433937142651" cx="9.642701230530578" cy="4.673677661497182"></circle><circle class="pearl" r="2.190433937142651" cx="14.8284914237891" cy="14.980933662569566"></circle><circle class="pearl" r="2.190433937142651" cx="4.712875390175009" cy="9.199487194564075"></circle></g><g class="bobaCup bright" cupRadius="10.313878262937468" width="20.627756525874936" height="20.627756525874936" pearlRadius="2.7380424214283132" pearlCount="5" transform="translate(76.24548080542606,155.51223596258504)"><circle class="pool" r="10.313878262937468" cx="10.313878262937468" cy="10.313878262937468" style="stroke-width: 1; fill: rgb(65, 182, 196);"></circle><circle class="pearl" r="2.1904339371426507" cx="15.61041474478326" cy="7.588422507249782"></circle><circle class="pearl" r="2.1904339371426507" cx="7.19332813668437" cy="15.493630695911751"></circle><circle class="pearl" r="2.1904339371426507" cx="9.63451377900267" cy="4.673122068186461"></circle><circle class="pearl" r="2.1904339371426507" cx="14.796097691933706" cy="14.952169719090627"></circle><circle class="pearl" r="2.1904339371426507" cx="4.714253813917753" cy="9.170874627246429"></circle></g><g class="bobaCup bright" cupRadius="10.284140668716992" width="20.568281337433984" height="20.568281337433984" pearlRadius="2.7380424214283132" pearlCount="5" transform="translate(309.715859331283,142.478863271146)"><circle class="pool" r="10.284140668716992" cx="10.284140668716992" cy="10.284140668716992" style="stroke-width: 1; fill: rgb(29, 145, 192);"></circle><circle class="pearl" r="2.1904339371426507" cx="15.55120936480957" cy="7.563671475170594"></circle><circle class="pearl" r="2.1904339371426507" cx="7.141138074440075" cy="15.4255103720133"></circle><circle class="pearl" r="2.1904339371426507" cx="9.621550497006334" cy="4.672090219655346"></circle><circle class="pearl" r="2.1904339371426507" cx="14.739723181890373" cy="14.902254139660165"></circle><circle class="pearl" r="2.1904339371426507" cx="4.716827941891769" cy="9.119971218771203"></circle></g><g class="bobaCup bright" cupRadius="10.25515993162031" width="20.51031986324062" height="20.51031986324062" pearlRadius="2.7380424214283137" pearlCount="5" transform="translate(110.84397809873225,171.866787596323)"><circle class="pool" r="10.25515993162031" cx="10.25515993162031" cy="10.25515993162031" style="stroke-width: 1; fill: rgb(29, 145, 192);"></circle><circle class="pearl" r="2.190433937142651" cx="15.493784620505618" cy="7.540550753375377"></circle><circle class="pearl" r="2.190433937142651" cx="7.0890996979072085" cy="15.358634149257252"></circle><circle class="pearl" r="2.190433937142651" cx="9.610630141790628" cy="4.670997397607975"></circle><circle class="pearl" r="2.190433937142651" cx="14.684620799290645" cy="14.85366270552575"></circle><circle class="pearl" r="2.190433937142651" cx="4.7195862008422935" cy="9.068711669340853"></circle></g><g class="bobaCup bright" cupRadius="9.673365489160693" width="19.346730978321386" height="19.346730978321386" pearlRadius="2.7380424214283137" pearlCount="4" transform="translate(99.83372399494696,206.52632085887907)"><circle class="pool" r="9.673365489160693" cx="9.673365489160693" cy="9.673365489160693" style="stroke-width: 1; fill: rgb(65, 182, 196);"></circle><circle class="pearl" r="2.190433937142651" cx="13.970852374039548" cy="5.998649765130156"></circle><circle class="pearl" r="2.190433937142651" cx="5.380222396071049" cy="13.34629696509286"></circle><circle class="pearl" r="2.190433937142651" cx="6.000107337058094" cy="5.37528016938877"></circle><circle class="pearl" r="2.190433937142651" cx="13.35096743305251" cy="13.969666560834256"></circle></g><g class="bobaCup bright" cupRadius="9.593322398693328" width="19.186644797386656" height="19.186644797386656" pearlRadius="2.7380424214283137" pearlCount="4" transform="translate(52.41760827547661,243.83208988543646)"><circle class="pool" r="9.593322398693328" cx="9.593322398693328" cy="9.593322398693328" style="stroke-width: 1; fill: rgb(127, 205, 187);"></circle><circle class="pearl" r="2.190433937142651" cx="13.726219924506847" cy="5.735882692305794"></circle><circle class="pearl" r="2.190433937142651" cx="5.460424872879807" cy="13.45076210508086"></circle><circle class="pearl" r="2.190433937142651" cx="5.735882692305795" cy="5.460424872879807"></circle><circle class="pearl" r="2.190433937142651" cx="13.45076210508086" cy="13.726219924506847"></circle></g><g class="bobaCup bright" cupRadius="9.378940280331935" width="18.75788056066387" height="18.75788056066387" pearlRadius="2.7380424214283137" pearlCount="4" transform="translate(285.8146778188361,19.711882104847202)"><circle class="pool" r="9.378940280331935" cx="9.378940280331935" cy="9.378940280331935" style="stroke-width: 1; fill: rgb(127, 205, 187);"></circle><circle class="pearl" r="2.190433937142651" cx="13.23867887115539" cy="5.481743364649153"></circle><circle class="pearl" r="2.190433937142651" cx="5.518983701825878" cy="13.276038762236606"></circle><circle class="pearl" r="2.190433937142651" cx="5.519295163585987" cy="5.481701157862158"></circle><circle class="pearl" r="2.190433937142651" cx="13.238367357874711" cy="13.276277850278987"></circle></g><g class="bobaCup bright" cupRadius="9.19384672549564" width="18.38769345099128" height="18.38769345099128" pearlRadius="2.738042421428314" pearlCount="4" transform="translate(91.11906663457628,208.74775877831792)"><circle class="pool" r="9.19384672549564" cx="9.19384672549564" cy="9.19384672549564" style="stroke-width: 1; fill: rgb(29, 145, 192);"></circle><circle class="pearl" r="2.1904339371426516" cx="12.882437610013302" cy="5.423102451394753"></circle><circle class="pearl" r="2.1904339371426516" cx="5.504106168706006" cy="12.964087351228205"></circle><circle class="pearl" r="2.1904339371426516" cx="5.505753126600734" cy="5.422884658492132"></circle><circle class="pearl" r="2.1904339371426516" cx="12.880789199247197" cy="12.965312808923759"></circle></g><g class="bobaCup bright" cupRadius="9.1641801664417" width="18.3283603328834" height="18.3283603328834" pearlRadius="2.7380424214283137" pearlCount="4" transform="translate(64.71068175399296,273.63425254319407)"><circle class="pool" r="9.1641801664417" cx="9.1641801664417" cy="9.1641801664417" style="stroke-width: 1; fill: rgb(127, 205, 187);"></circle><circle class="pearl" r="2.190433937142651" cx="12.825401986363229" cy="5.413852692372435"></circle><circle class="pearl" r="2.190433937142651" cx="5.501585278386278" cy="12.913909116711569"></circle><circle class="pearl" r="2.190433937142651" cx="5.503553141725254" cy="5.413593502566307"></circle><circle class="pearl" r="2.190433937142651" cx="12.823432045780539" cy="12.915365876115455"></circle></g><g class="bobaCup bright" cupRadius="9.14665165392689" width="18.29330330785378" height="18.29330330785378" pearlRadius="2.7380424214283146" pearlCount="4" transform="translate(182.7270378261573,160.35231739508873)"><circle class="pool" r="9.14665165392689" cx="9.14665165392689" cy="9.14665165392689" style="stroke-width: 1; fill: rgb(29, 145, 192);"></circle><circle class="pearl" r="2.1904339371426516" cx="12.791710832005766" cy="5.408407123197285"></circle><circle class="pearl" r="2.1904339371426516" cx="5.500077268515031" cy="12.88423765486932"></circle><circle class="pearl" r="2.1904339371426516" cx="5.502249426780632" cy="5.408121704469855"></circle><circle class="pearl" r="2.1904339371426516" cx="12.789536140583902" cy="12.88584076668317"></circle></g><g class="bobaCup bright" cupRadius="9.098591803231402" width="18.197183606462804" height="18.197183606462804" pearlRadius="2.7380424214283137" pearlCount="4" transform="translate(125.67800540735932,174.87798044964052)"><circle class="pool" r="9.098591803231402" cx="9.098591803231402" cy="9.098591803231402" style="stroke-width: 1; fill: rgb(65, 182, 196);"></circle><circle class="pearl" r="2.190433937142651" cx="12.69936858125632" cy="5.3935517873905106"></circle><circle class="pearl" r="2.190433937142651" cx="5.495870574700049" cy="12.802793622278589"></circle><circle class="pearl" r="2.190433937142651" cx="5.498660177929349" cy="5.393187633600627"></circle><circle class="pearl" r="2.190433937142651" cx="12.696574789769091" cy="12.804835203193363"></circle></g><g class="bobaCup bright" cupRadius="9.072711521537848" width="18.145423043075695" height="18.145423043075695" pearlRadius="2.7380424214283137" pearlCount="4" transform="translate(159.8163516994253,285.01618247966627)"><circle class="pool" r="9.072711521537848" cx="9.072711521537848" cy="9.072711521537848" style="stroke-width: 1; fill: rgb(127, 205, 187);"></circle><circle class="pearl" r="2.190433937142651" cx="12.64966220797789" cy="5.385598211784275"></circle><circle class="pearl" r="2.190433937142651" cx="5.493560726928077" cy="12.758880636189737"></circle><circle class="pearl" r="2.190433937142651" cx="5.496718415352538" cy="5.385187472799345"></circle><circle class="pearl" r="2.190433937142651" cx="12.646499145800643" cy="12.761181081822986"></circle></g><g class="bobaCup bright" cupRadius="8.840257130447268" width="17.680514260894537" height="17.680514260894537" pearlRadius="2.7380424214283137" pearlCount="3" transform="translate(23.61726574114615,126.57908268533441)"><circle class="pool" r="8.840257130447268" cx="8.840257130447268" cy="8.840257130447268" style="stroke-width: 1; fill: rgb(29, 145, 192);"></circle><circle class="pearl" r="2.190433937142651" cx="12.918990819926425" cy="10.252371964097671"></circle><circle class="pearl" r="2.190433937142651" cx="5.0243375549120435" cy="11.934869820357902"></circle><circle class="pearl" r="2.190433937142651" cx="8.392480223779245" cy="3.662070914796004"></circle></g><g class="bobaCup bright" cupRadius="8.813446322767435" width="17.62689264553487" height="17.62689264553487" pearlRadius="2.7380424214283146" pearlCount="3" transform="translate(106.50493979623045,243.84416688237727)"><circle class="pool" r="8.813446322767435" cx="8.813446322767435" cy="8.813446322767435" style="stroke-width: 1; fill: rgb(29, 145, 192);"></circle><circle class="pearl" r="2.1904339371426516" cx="12.902372799592044" cy="10.237143685707519"></circle><circle class="pearl" r="2.1904339371426516" cx="5.00105869772904" cy="11.90085484731151"></circle><circle class="pearl" r="2.1904339371426516" cx="8.352757334333667" cy="3.6627718361890294"></circle></g><g class="bobaCup bright" cupRadius="8.758899801759942" width="17.517799603519883" height="17.517799603519883" pearlRadius="2.7380424214283137" pearlCount="3" transform="translate(134.1497842047416,142.28065741050492)"><circle class="pool" r="8.758899801759942" cx="8.758899801759942" cy="8.758899801759942" style="stroke-width: 1; fill: rgb(65, 182, 196);"></circle><circle class="pearl" r="2.190433937142651" cx="12.868506119927984" cy="10.205878172181071"></circle><circle class="pearl" r="2.190433937142651" cx="4.953793274228413" cy="11.831626175395279"></circle><circle class="pearl" r="2.190433937142651" cx="8.2719032212262" cy="3.6642722616186134"></circle></g><g class="bobaCup bright" cupRadius="8.598495970079075" width="17.19699194015815" height="17.19699194015815" pearlRadius="2.7380424214283137" pearlCount="3" transform="translate(48.20332400838174,203.62210900446482)"><circle class="pool" r="8.598495970079075" cx="8.598495970079075" cy="8.598495970079075" style="stroke-width: 1; fill: rgb(127, 205, 187);"></circle><circle class="pearl" r="2.190433937142651" cx="12.768453962563159" cy="10.11172590359764"></circle><circle class="pearl" r="2.190433937142651" cx="4.815528104947191" cy="11.627867259991"></circle><circle class="pearl" r="2.190433937142651" cx="8.033871015590067" cy="3.6692814594684595"></circle></g><g class="bobaCup bright" cupRadius="8.519426228737865" width="17.03885245747573" height="17.03885245747573" pearlRadius="2.7380424214283137" pearlCount="3" transform="translate(220.15123965354033,100.43636493580979)"><circle class="pool" r="8.519426228737865" cx="8.519426228737865" cy="8.519426228737865" style="stroke-width: 1; fill: rgb(127, 205, 187);"></circle><circle class="pearl" r="2.190433937142651" cx="12.718870658106429" cy="10.06409595221371"></circle><circle class="pearl" r="2.190433937142651" cx="4.747761309168433" cy="11.527338400606716"></circle><circle class="pearl" r="2.190433937142651" cx="7.916408556107554" cy="3.67209127008746"></circle></g><g class="bobaCup bright" cupRadius="8.509289762104295" width="17.01857952420859" height="17.01857952420859" pearlRadius="2.7380424214283132" pearlCount="3" transform="translate(303.5579534138642,137.69143574996434)"><circle class="pool" r="8.509289762104295" cx="8.509289762104295" cy="8.509289762104295" style="stroke-width: 1; fill: rgb(127, 205, 187);"></circle><circle class="pearl" r="2.1904339371426507" cx="12.712501262036232" cy="10.057931600065084"></circle><circle class="pearl" r="2.1904339371426507" cx="4.739092054148951" cy="11.514447203065576"></circle><circle class="pearl" r="2.1904339371426507" cx="7.9013450513491055" cy="3.6724682641883506"></circle></g><g class="bobaCup bright" cupRadius="8.394223093957093" width="16.788446187914186" height="16.788446187914186" pearlRadius="2.7380424214283132" pearlCount="3" transform="translate(180.5991136611993,202.47101413736095)"><circle class="pool" r="8.394223093957093" cx="8.394223093957093" cy="8.394223093957093" style="stroke-width: 1; fill: rgb(127, 205, 187);"></circle><circle class="pearl" r="2.1904339371426507" cx="12.63998522664224" cy="9.987023434677337"></circle><circle class="pearl" r="2.1904339371426507" cx="4.640965428600631" cy="11.368055328497347"></circle><circle class="pearl" r="2.1904339371426507" cx="7.7302754665251125" cy="3.6770221534674876"></circle></g><g class="bobaCup bright" cupRadius="8.276148916974964" width="16.55229783394993" height="16.55229783394993" pearlRadius="2.7380424214283137" pearlCount="3" transform="translate(132.6109146520096,253.90786355241377)"><circle class="pool" r="8.276148916974964" cx="8.276148916974964" cy="8.276148916974964" style="stroke-width: 1; fill: rgb(65, 182, 196);"></circle><circle class="pearl" r="2.190433937142651" cx="12.565709011099267" cy="9.912123901244216"></circle><circle class="pearl" r="2.190433937142651" cx="4.540123723086971" cy="11.217886872055642"></circle><circle class="pearl" r="2.190433937142651" cx="7.5547497752025805" cy="3.682223931450075"></circle></g><g class="bobaCup bright" cupRadius="8.018589186975877" width="16.037178373951754" height="16.037178373951754" pearlRadius="2.738042421428314" pearlCount="3" transform="translate(157.77024895223698,36.10424167561108)"><circle class="pool" r="8.018589186975877" cx="8.018589186975877" cy="8.018589186975877" style="stroke-width: 1; fill: rgb(65, 182, 196);"></circle><circle class="pearl" r="2.1904339371426516" cx="12.184356926871306" cy="9.80751106603261"></circle><circle class="pearl" r="2.1904339371426516" cx="4.39453760644593" cy="11.391336439047322"></circle><circle class="pearl" r="2.1904339371426516" cx="7.028081202964622" cy="3.712135373209874"></circle></g><g class="bobaCup bright" cupRadius="8.007529854174786" width="16.015059708349572" height="16.015059708349572" pearlRadius="2.7380424214283137" pearlCount="3" transform="translate(28.343756891903382,226.06018461104577)"><circle class="pool" r="8.007529854174786" cx="8.007529854174786" cy="8.007529854174786" style="stroke-width: 1; fill: rgb(29, 145, 192);"></circle><circle class="pearl" r="2.190433937142651" cx="12.188191769385678" cy="9.677841530255446"></circle><circle class="pearl" r="2.190433937142651" cx="4.475011893628552" cy="11.543033119662926"></circle><circle class="pearl" r="2.190433937142651" cx="6.868758006583427" cy="3.732110701698592"></circle></g><g class="bobaCup bright" cupRadius="7.916178256279642" width="15.832356512559285" height="15.832356512559285" pearlRadius="2.7380424214283137" pearlCount="3" transform="translate(53.2453909721878,196.2161054292851)"><circle class="pool" r="7.916178256279642" cx="7.916178256279642" cy="7.916178256279642" style="stroke-width: 1; fill: rgb(65, 182, 196);"></circle><circle class="pearl" r="2.190433937142651" cx="12.05260954384851" cy="9.339590609378963"></circle><circle class="pearl" r="2.190433937142651" cx="4.471019311613862" cy="11.392639466965337"></circle><circle class="pearl" r="2.190433937142651" cx="6.3860673177634295" cy="3.800007723440852"></circle></g><g class="bobaCup bright" cupRadius="7.656175825552643" width="15.312351651105287" height="15.312351651105287" pearlRadius="2.738042421428314" pearlCount="2" transform="translate(214.67443981874362,121.20309495869621)"><circle class="pool" r="7.656175825552643" cx="7.656175825552643" cy="7.656175825552643" style="stroke-width: 1; fill: rgb(29, 145, 192);"></circle><circle class="pearl" r="2.1904339371426516" cx="11.297572695605645" cy="6.910675975186112"></circle><circle class="pearl" r="2.1904339371426516" cx="4.384816031620819" cy="10.92753561948447"></circle></g><g class="bobaCup bright" cupRadius="7.633349653648837" width="15.266699307297674" height="15.266699307297674" pearlRadius="2.7380424214283137" pearlCount="2" transform="translate(50.64874817506958,162.70497865274947)"><circle class="pool" r="7.633349653648837" cx="7.633349653648837" cy="7.633349653648837" style="stroke-width: 1; fill: rgb(29, 145, 192);"></circle><circle class="pearl" r="2.190433937142651" cx="11.292503650194384" cy="6.871750906074757"></circle><circle class="pearl" r="2.190433937142651" cx="4.379137620026192" cy="10.887561687271482"></circle></g><g class="bobaCup bright" cupRadius="7.5114556729218" width="15.0229113458436" height="15.0229113458436" pearlRadius="2.7380424214283146" pearlCount="2" transform="translate(157.71527686346897,193.8768135291098)"><circle class="pool" r="7.5114556729218" cx="7.5114556729218" cy="7.5114556729218" style="stroke-width: 1; fill: rgb(65, 182, 196);"></circle><circle class="pearl" r="2.1904339371426516" cx="11.265554793399462" cy="6.66379096044892"></circle><circle class="pearl" r="2.1904339371426516" cx="4.348928140461255" cy="10.673983205382346"></circle></g><g class="bobaCup bright" cupRadius="7.453636036234363" width="14.907272072468727" height="14.907272072468727" pearlRadius="2.7380424214283137" pearlCount="2" transform="translate(225.5223881434152,33.09454138547996)"><circle class="pool" r="7.453636036234363" cx="7.453636036234363" cy="7.453636036234363" style="stroke-width: 1; fill: rgb(65, 182, 196);"></circle><circle class="pearl" r="2.190433937142651" cx="11.189771205661634" cy="6.4581395929596095"></circle><circle class="pearl" r="2.190433937142651" cx="4.334668015642222" cy="10.572604724373747"></circle></g><g class="bobaCup bright" cupRadius="7.346722200509262" width="14.693444401018525" height="14.693444401018525" pearlRadius="2.7380424214283137" pearlCount="2" transform="translate(147.35239138844776,193.89988193955122)"><circle class="pool" r="7.346722200509262" cx="7.346722200509262" cy="7.346722200509262" style="stroke-width: 1; fill: rgb(127, 205, 187);"></circle><circle class="pearl" r="2.190433937142651" cx="10.886817811862983" cy="5.84124835389547"></circle><circle class="pearl" r="2.190433937142651" cx="4.308421564163301" cy="10.385024038017342"></circle></g><g class="bobaCup bright" cupRadius="7.2399978310925714" width="14.479995662185143" height="14.479995662185143" pearlRadius="2.7380424214283132" pearlCount="2" transform="translate(106.11074219640948,97.70694526518835)"><circle class="pool" r="7.2399978310925714" cx="7.2399978310925714" cy="7.2399978310925714" style="stroke-width: 1; fill: rgb(65, 182, 196);"></circle><circle class="pearl" r="2.1904339371426507" cx="10.543386680900227" cy="5.225576376785643"></circle><circle class="pearl" r="2.1904339371426507" cx="4.282386154129335" cy="10.197610381105672"></circle></g><g class="bobaCup bright" cupRadius="7.200505425876985" width="14.40101085175397" height="14.40101085175397" pearlRadius="2.7380424214283146" pearlCount="2" transform="translate(81.33158654941012,284.4984390953299)"><circle class="pool" r="7.200505425876985" cx="7.200505425876985" cy="7.200505425876985" style="stroke-width: 1; fill: rgb(29, 145, 192);"></circle><circle class="pearl" r="2.1904339371426516" cx="10.405355261712863" cy="4.998597992159211"></circle><circle class="pearl" r="2.1904339371426516" cx="4.2727954643888" cy="10.128216111961176"></circle></g><g class="bobaCup bright" cupRadius="7.086870605291931" width="14.173741210583861" height="14.173741210583861" pearlRadius="2.7380424214283137" pearlCount="2" transform="translate(163.11225315922508,115.0861367184496)"><circle class="pool" r="7.086870605291931" cx="7.086870605291931" cy="7.086870605291931" style="stroke-width: 1; fill: rgb(29, 145, 192);"></circle><circle class="pearl" r="2.190433937142651" cx="9.973605146977699" cy="4.3509281939354505"></circle><circle class="pearl" r="2.190433937142651" cx="4.2453360275051235" cy="9.928405552378432"></circle></g><g class="bobaCup bright" cupRadius="6.253047966618549" width="12.506095933237098" height="12.506095933237098" pearlRadius="2.738042421428314" pearlCount="1" transform="translate(224.1105000035225,286.91694386165995)"><circle class="pool" r="6.253047966618549" cx="6.253047966618549" cy="6.253047966618549" style="stroke-width: 1; fill: rgb(65, 182, 196);"></circle><circle class="pearl" r="2.1904339371426516" cx="8.512579109266124" cy="6.253047966618549"></circle></g><g class="bobaCup bright" cupRadius="6.172387759213257" width="12.344775518426514" height="12.344775518426514" pearlRadius="2.7380424214283137" pearlCount="1" transform="translate(294.7265806394278,287.6594510263724)"><circle class="pool" r="6.172387759213257" cx="6.172387759213257" cy="6.172387759213257" style="stroke-width: 1; fill: rgb(29, 145, 192);"></circle><circle class="pearl" r="2.190433937142651" cx="8.380068556744291" cy="6.172387759213257"></circle></g><g class="bobaCup bright" cupRadius="5.594958058846906" width="11.189916117693812" height="11.189916117693812" pearlRadius="2.7380424214283137" pearlCount="1" transform="translate(148.8134206735897,223.4943156665192)"><circle class="pool" r="5.594958058846906" cx="5.594958058846906" cy="5.594958058846906" style="stroke-width: 1; fill: rgb(29, 145, 192);"></circle><circle class="pearl" r="2.190433937142651" cx="7.431452986571065" cy="5.594958058846906"></circle></g><g class="bobaCup bright" cupRadius="1.9599728391926825" width="3.919945678385365" height="3.919945678385365" pearlRadius="2.738042421428314" pearlCount="0" transform="translate(189.67737312375203,150.95418459494755)"><circle class="pool" r="1.9599728391926825" cx="1.9599728391926825" cy="1.9599728391926825" style="stroke-width: 1; fill: rgb(65, 182, 196);"></circle></g><g class="bobaCup bright" cupRadius="0" width="0" height="0" pearlRadius="NaN" pearlCount="0" transform="translate(136.19520840794746,203.5242497550211)"><circle class="pool" r="0" cx="0" cy="0" style="stroke-width: 1; fill: rgb(65, 182, 196);"></circle></g></g><g id="legendDividerGroup" transform="translate(410,0)" height="400"><rect class="legendDivider" height="400" width="90"></rect></g><g id="legend" transform="translate(410,17.734230224197574)" width="90" height="320"><rect class="legendBorder" transform="translate(0,0)" width="90" height="344.53153955160485"></rect><text id="rTitle" text-anchor="middle" alignment-baseline="hanging" transform="translate(45,0)" x="0" y="0" style="fill: black; font-size: 0.8rem;">Population</text><text id="bobaValue" text-anchor="middle" alignment-baseline="hanging" transform="translate(45,15)" x="0" y="0" style="fill: black; font-size: 0.7rem;">(1 Pearl =   75)</text><g class="bright" cupRadius="1.9599728391926825" width="3.919945678385365" height="3.919945678385365" pearlRadius="2.738042421428314" pearlCount="0" transform="translate(43.04002716080732,40.00000000000001)"><circle class="pool" r="1.9599728391926825" cx="1.9599728391926825" cy="1.9599728391926825" style="stroke-width: 1; fill: rgb(127, 205, 187);"></circle></g><text id="0" class="legendSampleValue" text-anchor="middle" transform="translate(45,8)" x="0" y="48.91994567838537" style="fill: black; font-size: 0.7rem;">  14</text><g class="bright" cupRadius="9.114449781764032" width="18.228899563528064" height="18.228899563528064" pearlRadius="2.7380424214283132" pearlCount="4" transform="translate(35.88555021823597,68.91994567838536)"><circle class="pool" r="9.114449781764032" cx="9.114449781764032" cy="9.114449781764032" style="stroke-width: 1; fill: rgb(127, 205, 187);"></circle><circle class="pearl" r="2.1904339371426507" cx="12.72983281135463" cy="5.398441248551024"></circle><circle class="pearl" r="2.1904339371426507" cx="5.49727041338516" cy="12.829681862736063"></circle><circle class="pearl" r="2.1904339371426507" cx="5.499846883448627" cy="5.398104185962491"></circle><circle class="pearl" r="2.1904339371426507" cx="12.727252771506805" cy="12.831572714637606"></circle></g><text id="1" class="legendSampleValue" text-anchor="middle" transform="translate(45,8)" x="0" y="92.14884524191342" style="fill: black; font-size: 0.7rem;"> 310</text><g class="bright" cupRadius="12.73989388174893" width="25.47978776349786" height="25.47978776349786" pearlRadius="2.7380424214283137" pearlCount="8" transform="translate(32.26010611825107,112.14884524191342)"><circle class="pool" r="12.73989388174893" cx="12.73989388174893" cy="12.73989388174893" style="stroke-width: 1; fill: rgb(127, 205, 187);"></circle><circle class="pearl" r="2.190433937142651" cx="13.310609024996019" cy="12.82918609839808"></circle><circle class="pearl" r="2.190433937142651" cx="6.698398929896111" cy="19.305463929700206"></circle><circle class="pearl" r="2.190433937142651" cx="14.059393518056595" cy="4.719239252012427"></circle><circle class="pearl" r="2.190433937142651" cx="20.270105723204697" cy="16.472147482191133"></circle><circle class="pearl" r="2.190433937142651" cx="4.6552473981132625" cy="13.07938528315805"></circle><circle class="pearl" r="2.190433937142651" cx="20.136831861729217" cy="8.5975810589179"></circle><circle class="pearl" r="2.190433937142651" cx="14.162053088565557" cy="20.749437605682857"></circle><circle class="pearl" r="2.190433937142651" cx="6.693622891349676" cy="6.1768976903915735"></circle></g><text id="2" class="legendSampleValue" text-anchor="middle" transform="translate(45,8)" x="0" y="142.62863300541127" style="fill: black; font-size: 0.7rem;"> 610</text><g class="bright" cupRadius="15.541447725747728" width="31.082895451495457" height="31.082895451495457" pearlRadius="2.7380424214283132" pearlCount="12" transform="translate(29.45855227425227,162.62863300541127)"><circle class="pool" r="15.541447725747728" cx="15.541447725747728" cy="15.541447725747728" style="stroke-width: 1; fill: rgb(127, 205, 187);"></circle><circle class="pearl" r="2.1904339371426507" cx="17.605798459145568" cy="11.15321501264006"></circle><circle class="pearl" r="2.1904339371426507" cx="11.53246162255001" cy="16.093030349567332"></circle><circle class="pearl" r="2.1904339371426507" cx="14.527217201224751" cy="4.683852739397019"></circle><circle class="pearl" r="2.1904339371426507" cx="18.30697755905532" cy="18.461508032643803"></circle><circle class="pearl" r="2.1904339371426507" cx="4.717206529724172" cy="14.105455570588278"></circle><circle class="pearl" r="2.1904339371426507" cx="26.386825047572234" cy="14.355081364045422"></circle><circle class="pearl" r="2.1904339371426507" cx="11.89203861154594" cy="25.99762393184987"></circle><circle class="pearl" r="2.1904339371426507" cx="7.238907374064696" cy="7.054270775035053"></circle><circle class="pearl" r="2.1904339371426507" cx="24.987440854561587" cy="22.08508473826493"></circle><circle class="pearl" r="2.1904339371426507" cx="5.877348529581776" cy="21.59309678698673"></circle><circle class="pearl" r="2.1904339371426507" cx="23.81983516741519" cy="7.0390382940818705"></circle><circle class="pearl" r="2.1904339371426507" cx="19.45739267090216" cy="25.93073688409537"></circle></g><text id="3" class="legendSampleValue" text-anchor="middle" transform="translate(45,8)" x="0" y="198.71152845690673" style="fill: black; font-size: 0.7rem;"> 910</text><g class="bright" cupRadius="17.910005547349073" width="35.820011094698145" height="35.820011094698145" pearlRadius="2.738042421428314" pearlCount="16" transform="translate(27.089994452650927,218.71152845690673)"><circle class="pool" r="17.910005547349073" cx="17.910005547349073" cy="17.910005547349073" style="stroke-width: 1; fill: rgb(127, 205, 187);"></circle><circle class="pearl" r="2.1904339371426516" cx="18.637936418910783" cy="18.69848285150372"></circle><circle class="pearl" r="2.1904339371426516" cx="13.488259562311724" cy="23.48428073458224"></circle><circle class="pearl" r="2.1904339371426516" cx="16.39142400800914" cy="11.28267696608413"></circle><circle class="pearl" r="2.1904339371426516" cx="20.613726811368917" cy="26.11109688592094"></circle><circle class="pearl" r="2.1904339371426516" cx="11.012326743239287" cy="16.62610467150084"></circle><circle class="pearl" r="2.1904339371426516" cx="23.26544650334765" cy="13.439300832693478"></circle><circle class="pearl" r="2.1904339371426516" cx="14.979487320216514" cy="30.927908796988408"></circle><circle class="pearl" r="2.1904339371426516" cx="11.380128573900993" cy="5.883528608694633"></circle><circle class="pearl" r="2.1904339371426516" cx="26.24847048374725" cy="20.66333393238686"></circle><circle class="pearl" r="2.1904339371426516" cx="5.030324624524425" cy="21.57786991163544"></circle><circle class="pearl" r="2.1904339371426516" cx="27.64188049435295" cy="7.525473250258054"></circle><circle class="pearl" r="2.1904339371426516" cx="27.905390810222695" cy="28.120660860245916"></circle><circle class="pearl" r="2.1904339371426516" cx="6.159425294584864" cy="10.715178042869669"></circle><circle class="pearl" r="2.1904339371426516" cx="30.881395672769354" cy="14.711659155046659"></circle><circle class="pearl" r="2.1904339371426516" cx="8.231738267077233" cy="28.32910120148836"></circle><circle class="pearl" r="2.1904339371426516" cx="20.624303294270664" cy="4.857596667529535"></circle></g><text id="4" class="legendSampleValue" text-anchor="middle" transform="translate(45,8)" x="0" y="259.53153955160485" style="fill: black; font-size: 0.7rem;">1.2k</text><g class="bright" cupRadius="20" width="40" height="40" pearlRadius="2.7380424214283137" pearlCount="20" transform="translate(25,279.53153955160485)"><circle class="pool" r="20" cx="20" cy="20" style="stroke-width: 1; fill: rgb(127, 205, 187);"></circle><circle class="pearl" r="2.190433937142651" cx="20.803317911356498" cy="19.852362298934615"></circle><circle class="pearl" r="2.190433937142651" cx="12.399118369231148" cy="22.318129073543428"></circle><circle class="pearl" r="2.190433937142651" cx="20.14107886386132" cy="11.690576671380018"></circle><circle class="pearl" r="2.190433937142651" cx="25.351645945468196" cy="26.426489948513225"></circle><circle class="pearl" r="2.190433937142651" cx="5.45555413244983" cy="14.383463400696877"></circle><circle class="pearl" r="2.190433937142651" cx="27.007002384921414" cy="14.812215198670392"></circle><circle class="pearl" r="2.190433937142651" cx="17.669394065840073" cy="27.98572181627974"></circle><circle class="pearl" r="2.190433937142651" cx="13.075316060454844" cy="14.529673081448232"></circle><circle class="pearl" r="2.190433937142651" cx="31.363412690087696" cy="21.539471699750266"></circle><circle class="pearl" r="2.190433937142651" cx="6.986823167406808" cy="29.380119115938808"></circle><circle class="pearl" r="2.190433937142651" cx="24.195863946736896" cy="5.095807587217031"></circle><circle class="pearl" r="2.190433937142651" cx="27.929986347293504" cy="33.70997709935047"></circle><circle class="pearl" r="2.190433937142651" cx="8.960309851298339" cy="7.973635910317352"></circle><circle class="pearl" r="2.190433937142651" cx="34.68553340637696" cy="14.890285786129768"></circle><circle class="pearl" r="2.190433937142651" cx="12.548559824642552" cy="33.90934248556552"></circle><circle class="pearl" r="2.190433937142651" cx="16.437930987710008" cy="4.970487855189916"></circle><circle class="pearl" r="2.190433937142651" cx="33.26719371328966" cy="28.885282914155283"></circle><circle class="pearl" r="2.190433937142651" cx="4.745924110358729" cy="21.949095191008542"></circle><circle class="pearl" r="2.190433937142651" cx="31.34694409707199" cy="8.181149473979769"></circle><circle class="pearl" r="2.190433937142651" cx="20.521343379892976" cy="35.34248064375117"></circle></g><text id="5" class="legendSampleValue" text-anchor="middle" transform="translate(45,8)" x="0" y="324.53153955160485" style="fill: black; font-size: 0.7rem;">1.5k</text><text id="coloringDisclaimer" transform="translate(45,8)" text-anchor="middle" x="0" y="339.53153955160485" style="font-size: 0.7rem; opacity: 0.6;">(note: coloring</text><text id="coloringDisclaimer" transform="translate(45,8)" text-anchor="middle" x="0" y="354.53153955160485" style="font-size: 0.7rem; opacity: 0.6;">is random)</text></g></svg>