<?xml version="1.0" standalone="no"?>
<?xml-stylesheet xmlns="http://www.w3.org/2000/svg" type="text/css" href="style.css"?>
<svg id="syntheticVisB" class="default" xTitle="Percent Cat Owners" yTitle="Percent Dog Owners" rTitle="Population" chartTitle="Towns in Vizzyland" width="500" height="400" xmlns="http://www.w3.org/2000/svg"><text id="chartTitle" text-anchor="middle" transform="translate(250,20)" x="0" y="0" style="fill: black; font-size: 1.2rem;">Towns in Vizzyland</text><g id="yAxis" transform="translate(50,30)" fill="none" font-size="10" font-family="sans-serif" text-anchor="end"><path class="domain" stroke="currentColor" d="M-6,300H0V20H-6"></path><g class="tick" opacity="1" transform="translate(0,300)"><line stroke="currentColor" x2="-6"></line><text fill="currentColor" x="-9" dy="0.32em">0</text></g><g class="tick" opacity="1" transform="translate(0,272)"><line stroke="currentColor" x2="-6"></line><text fill="currentColor" x="-9" dy="0.32em">10</text></g><g class="tick" opacity="1" transform="translate(0,244)"><line stroke="currentColor" x2="-6"></line><text fill="currentColor" x="-9" dy="0.32em">20</text></g><g class="tick" opacity="1" transform="translate(0,216)"><line stroke="currentColor" x2="-6"></line><text fill="currentColor" x="-9" dy="0.32em">30</text></g><g class="tick" opacity="1" transform="translate(0,188)"><line stroke="currentColor" x2="-6"></line><text fill="currentColor" x="-9" dy="0.32em">40</text></g><g class="tick" opacity="1" transform="translate(0,160)"><line stroke="currentColor" x2="-6"></line><text fill="currentColor" x="-9" dy="0.32em">50</text></g><g class="tick" opacity="1" transform="translate(0,132)"><line stroke="currentColor" x2="-6"></line><text fill="currentColor" x="-9" dy="0.32em">60</text></g><g class="tick" opacity="1" transform="translate(0,104.00000000000001)"><line stroke="currentColor" x2="-6"></line><text fill="currentColor" x="-9" dy="0.32em">70</text></g><g class="tick" opacity="1" transform="translate(0,75.99999999999999)"><line stroke="currentColor" x2="-6"></line><text fill="currentColor" x="-9" dy="0.32em">80</text></g><g class="tick" opacity="1" transform="translate(0,47.99999999999999)"><line stroke="currentColor" x2="-6"></line><text fill="currentColor" x="-9" dy="0.32em">90</text></g><g class="tick" opacity="1" transform="translate(0,20)"><line stroke="currentColor" x2="-6"></line><text fill="currentColor" x="-9" dy="0.32em">100</text></g></g><g id="xAxis" transform="translate(60,360)" fill="none" font-size="10" font-family="sans-serif" text-anchor="middle"><path class="domain" stroke="currentColor" d="M20,6V0H320V6"></path><g class="tick" opacity="1" transform="translate(20,0)"><line stroke="currentColor" y2="6"></line><text fill="currentColor" y="9" dy="0.71em">0</text></g><g class="tick" opacity="1" transform="translate(50,0)"><line stroke="currentColor" y2="6"></line><text fill="currentColor" y="9" dy="0.71em">10</text></g><g class="tick" opacity="1" transform="translate(80,0)"><line stroke="currentColor" y2="6"></line><text fill="currentColor" y="9" dy="0.71em">20</text></g><g class="tick" opacity="1" transform="translate(110,0)"><line stroke="currentColor" y2="6"></line><text fill="currentColor" y="9" dy="0.71em">30</text></g><g class="tick" opacity="1" transform="translate(140,0)"><line stroke="currentColor" y2="6"></line><text fill="currentColor" y="9" dy="0.71em">40</text></g><g class="tick" opacity="1" transform="translate(170,0)"><line stroke="currentColor" y2="6"></line><text fill="currentColor" y="9" dy="0.71em">50</text></g><g class="tick" opacity="1" transform="translate(200,0)"><line stroke="currentColor" y2="6"></line><text fill="currentColor" y="9" dy="0.71em">60</text></g><g class="tick" opacity="1" transform="translate(230,0)"><line stroke="currentColor" y2="6"></line><text fill="currentColor" y="9" dy="0.71em">70</text></g><g class="tick" opacity="1" transform="translate(260,0)"><line stroke="currentColor" y2="6"></line><text fill="currentColor" y="9" dy="0.71em">80</text></g><g class="tick" opacity="1" transform="translate(290,0)"><line stroke="currentColor" y2="6"></line><text fill="currentColor" y="9" dy="0.71em">90</text></g><g class="tick" opacity="1" transform="translate(320,0)"><line stroke="currentColor" y2="6"></line><text fill="currentColor" y="9" dy="0.71em">100</text></g></g><g id="labels"><text id="xTitle" text-anchor="middle" transform="translate(250,350)" x="0" y="40" style="fill: black; font-size: 0.8rem;">Percent Cat Owners</text><g id="group-yTitle" transform="translate(60,190)"><text id="yTitle" text-anchor="middle" transform="rotate(-90)" y="-45" style="fill: black; font-size: 0.8rem;">Percent Dog Owners</text></g></g><g id="quadrant_lines" transform="translate(60,30)"><line id="verticalQuadrantLine" x1="170" y1="10" x2="170" y2="310" class="quadrantLine"></line><line id="horizontalQuadrantLine" x1="10" y1="160" x2="330" y2="160" class="quadrantLine"></line></g><g id="chart" transform="translate(60,30)"><g class="bobaCup bright" cupRadius="20" width="40" height="40" pearlRadius="2.7380424214283137" pearlCount="20" transform="translate(47.10130455598444,51.542211567478844)"><circle class="pool" r="20" cx="20" cy="20" style="stroke-width: 1; fill: rgb(65, 182, 196);"></circle><circle class="pearl" r="2.190433937142651" cx="20.803317911356498" cy="19.852362298934615"></circle><circle class="pearl" r="2.190433937142651" cx="12.399118369231148" cy="22.318129073543428"></circle><circle class="pearl" r="2.190433937142651" cx="20.14107886386132" cy="11.690576671380018"></circle><circle class="pearl" r="2.190433937142651" cx="25.351645945468196" cy="26.426489948513225"></circle><circle class="pearl" r="2.190433937142651" cx="5.45555413244983" cy="14.383463400696877"></circle><circle class="pearl" r="2.190433937142651" cx="27.007002384921414" cy="14.812215198670392"></circle><circle class="pearl" r="2.190433937142651" cx="17.669394065840073" cy="27.98572181627974"></circle><circle class="pearl" r="2.190433937142651" cx="13.075316060454844" cy="14.529673081448232"></circle><circle class="pearl" r="2.190433937142651" cx="31.363412690087696" cy="21.539471699750266"></circle><circle class="pearl" r="2.190433937142651" cx="6.986823167406808" cy="29.380119115938808"></circle><circle class="pearl" r="2.190433937142651" cx="24.195863946736896" cy="5.095807587217031"></circle><circle class="pearl" r="2.190433937142651" cx="27.929986347293504" cy="33.70997709935047"></circle><circle class="pearl" r="2.190433937142651" cx="8.960309851298339" cy="7.973635910317352"></circle><circle class="pearl" r="2.190433937142651" cx="34.68553340637696" cy="14.890285786129768"></circle><circle class="pearl" r="2.190433937142651" cx="12.548559824642552" cy="33.90934248556552"></circle><circle class="pearl" r="2.190433937142651" cx="16.437930987710008" cy="4.970487855189916"></circle><circle class="pearl" r="2.190433937142651" cx="33.26719371328966" cy="28.885282914155283"></circle><circle class="pearl" r="2.190433937142651" cx="4.745924110358729" cy="21.949095191008542"></circle><circle class="pearl" r="2.190433937142651" cx="31.34694409707199" cy="8.181149473979769"></circle><circle class="pearl" r="2.190433937142651" cx="20.521343379892976" cy="35.34248064375117"></circle></g><g class="bobaCup bright" cupRadius="18.7761063317279" width="37.5522126634558" height="37.5522126634558" pearlRadius="2.7380424214283132" pearlCount="17" transform="translate(191.2969119704301,52.61411605153094)"><circle class="pool" r="18.7761063317279" cx="18.7761063317279" cy="18.7761063317279" style="stroke-width: 1; fill: rgb(65, 182, 196);"></circle><circle class="pearl" r="2.1904339371426507" cx="18.742115391960443" cy="18.79130924278113"></circle><circle class="pearl" r="2.1904339371426507" cx="13.905707246248642" cy="24.814703630133664"></circle><circle class="pearl" r="2.1904339371426507" cx="16.03618151633778" cy="11.505419658413606"></circle><circle class="pearl" r="2.1904339371426507" cx="21.38370350091305" cy="26.089799155492887"></circle><circle class="pearl" r="2.1904339371426507" cx="11.21750416698245" cy="17.698670837551205"></circle><circle class="pearl" r="2.1904339371426507" cx="23.51848225203035" cy="12.735154032408357"></circle><circle class="pearl" r="2.1904339371426507" cx="16.14442119827185" cy="32.57146508145442"></circle><circle class="pearl" r="2.1904339371426507" cx="10.229062470234437" cy="6.708868853021932"></circle><circle class="pearl" r="2.1904339371426507" cx="26.274813747785547" cy="19.87320823991352"></circle><circle class="pearl" r="2.1904339371426507" cx="5.060473976728409" cy="22.6772794319887"></circle><circle class="pearl" r="2.1904339371426507" cx="29.296946764989645" cy="7.875170949134794"></circle><circle class="pearl" r="2.1904339371426507" cx="27.462947621884176" cy="30.771132031336304"></circle><circle class="pearl" r="2.1904339371426507" cx="5.782001166790997" cy="12.357212350362662"></circle><circle class="pearl" r="2.1904339371426507" cx="32.50005274564657" cy="14.914282344320156"></circle><circle class="pearl" r="2.1904339371426507" cx="8.264479218323757" cy="29.68327063357364"></circle><circle class="pearl" r="2.1904339371426507" cx="21.95282070870844" cy="4.921407253649572"></circle><circle class="pearl" r="2.1904339371426507" cx="31.8137907673692" cy="25.07391573540035"></circle></g><g class="bobaCup bright" cupRadius="18.3812348442101" width="36.7624696884202" height="36.7624696884202" pearlRadius="2.738042421428314" pearlCount="16" transform="translate(131.08013470707493,66.1506697142456)"><circle class="pool" r="18.3812348442101" cx="18.3812348442101" cy="18.3812348442101" style="stroke-width: 1; fill: rgb(29, 145, 192);"></circle><circle class="pearl" r="2.1904339371426516" cx="19.16209986626315" cy="19.21248186217343"></circle><circle class="pearl" r="2.1904339371426516" cx="13.770074738304896" cy="24.102832214514446"></circle><circle class="pearl" r="2.1904339371426516" cx="16.99354443020332" cy="11.611199835530234"></circle><circle class="pearl" r="2.1904339371426516" cx="21.169146911424978" cy="26.87046974238212"></circle><circle class="pearl" r="2.1904339371426516" cx="11.17459257859652" cy="16.94991287024714"></circle><circle class="pearl" r="2.1904339371426516" cx="24.196570382503467" cy="13.896025020959748"></circle><circle class="pearl" r="2.1904339371426516" cx="15.194693053527812" cy="31.833432535044217"></circle><circle class="pearl" r="2.1904339371426516" cx="11.974080215797917" cy="5.803546539339692"></circle><circle class="pearl" r="2.1904339371426516" cx="26.802603148187973" cy="21.295016078945416"></circle><circle class="pearl" r="2.1904339371426516" cx="5.0055911940551" cy="21.97565990972066"></circle><circle class="pearl" r="2.1904339371426516" cx="28.558618228656695" cy="7.725401900866034"></circle><circle class="pearl" r="2.1904339371426516" cx="28.783497576583724" cy="28.88513877847856"></circle><circle class="pearl" r="2.1904339371426516" cx="6.277314472784823" cy="10.821359697416707"></circle><circle class="pearl" r="2.1904339371426516" cx="31.881404643180673" cy="15.48039415559191"></circle><circle class="pearl" r="2.1904339371426516" cx="8.18499822267865" cy="29.024515445759643"></circle><circle class="pearl" r="2.1904339371426516" cx="21.28314270562814" cy="4.881235630910073"></circle></g><g class="bobaCup bright" cupRadius="17.168406299466987" width="34.336812598933975" height="34.336812598933975" pearlRadius="2.738042421428314" pearlCount="14" transform="translate(78.04697418293608,248.22749430986147)"><circle class="pool" r="17.168406299466987" cx="17.168406299466987" cy="17.168406299466987" style="stroke-width: 1; fill: rgb(127, 205, 187);"></circle><circle class="pearl" r="2.1904339371426516" cx="21.247543239484628" cy="13.077928041350464"></circle><circle class="pearl" r="2.1904339371426516" cx="13.099729352959296" cy="21.252458500808892"></circle><circle class="pearl" r="2.1904339371426516" cx="13.364863229954564" cy="13.361394705488495"></circle><circle class="pearl" r="2.1904339371426516" cx="20.990538958927676" cy="20.96009881273306"></circle><circle class="pearl" r="2.1904339371426516" cx="5.383769396347268" cy="19.158959629135094"></circle><circle class="pearl" r="2.1904339371426516" cx="26.697430304753556" cy="7.537957434324962"></circle><circle class="pearl" r="2.1904339371426516" cx="15.067140640263725" cy="29.5570157307459"></circle><circle class="pearl" r="2.1904339371426516" cx="11.326909150546575" cy="5.675056748137319"></circle><circle class="pearl" r="2.1904339371426516" cx="28.712327189844782" cy="22.868202499698388"></circle><circle class="pearl" r="2.1904339371426516" cx="7.631721354289219" cy="26.793740479017988"></circle><circle class="pearl" r="2.1904339371426516" cx="19.267080923094735" cy="4.779477545449968"></circle><circle class="pearl" r="2.1904339371426516" cx="23.30454291191958" cy="28.552083662651636"></circle><circle class="pearl" r="2.1904339371426516" cx="5.728473553922814" cy="11.181339806914336"></circle><circle class="pearl" r="2.1904339371426516" cx="29.538600043032243" cy="14.922841717625973"></circle></g><g class="bobaCup bright" cupRadius="17.13996877702992" width="34.27993755405984" height="34.27993755405984" pearlRadius="2.738042421428314" pearlCount="14" transform="translate(201.84220874182364,87.9325913549893)"><circle class="pool" r="17.13996877702992" cx="17.13996877702992" cy="17.13996877702992" style="stroke-width: 1; fill: rgb(65, 182, 196);"></circle><circle class="pearl" r="2.1904339371426516" cx="21.21874388033369" cy="13.049315363766214"></circle><circle class="pearl" r="2.1904339371426516" cx="13.069598114504894" cy="21.227328073348172"></circle><circle class="pearl" r="2.1904339371426516" cx="13.351609045971708" cy="13.35304951342118"></circle><circle class="pearl" r="2.1904339371426516" cx="20.944077053205255" cy="20.915488390106603"></circle><circle class="pearl" r="2.1904339371426516" cx="5.299208171038256" cy="19.1916073870013"></circle><circle class="pearl" r="2.1904339371426516" cx="26.638971950319952" cy="7.523685718667979"></circle><circle class="pearl" r="2.1904339371426516" cx="15.070171275977977" cy="29.503782509016997"></circle><circle class="pearl" r="2.1904339371426516" cx="11.26788007210308" cy="5.68798714216172"></circle><circle class="pearl" r="2.1904339371426516" cx="28.654279115379072" cy="22.838233377581798"></circle><circle class="pearl" r="2.1904339371426516" cx="7.6325260430988955" cy="26.75062915379611"></circle><circle class="pearl" r="2.1904339371426516" cx="19.206547337044256" cy="4.775763773814376"></circle><circle class="pearl" r="2.1904339371426516" cx="23.25593867179961" cy="28.500911355732963"></circle><circle class="pearl" r="2.1904339371426516" cx="5.7092153556202625" cy="11.20999083156632"></circle><circle class="pearl" r="2.1904339371426516" cx="29.4814039261456" cy="14.893842479340893"></circle></g><g class="bobaCup bright" cupRadius="16.9543057275074" width="33.9086114550148" height="33.9086114550148" pearlRadius="2.7380424214283137" pearlCount="14" transform="translate(48.47429259751311,129.54864301233565)"><circle class="pool" r="16.9543057275074" cx="16.9543057275074" cy="16.9543057275074" style="stroke-width: 1; fill: rgb(65, 182, 196);"></circle><circle class="pearl" r="2.190433937142651" cx="21.066505647991768" cy="12.890465330107554"></circle><circle class="pearl" r="2.190433937142651" cx="12.837563824717702" cy="21.020430846415152"></circle><circle class="pearl" r="2.190433937142651" cx="13.290572979546948" cy="13.258573340357188"></circle><circle class="pearl" r="2.190433937142651" cx="20.621419668041415" cy="20.645758967278027"></circle><circle class="pearl" r="2.190433937142651" cx="4.803345294687443" cy="19.224087400782498"></circle><circle class="pearl" r="2.190433937142651" cx="26.254510085399737" cy="7.429180424042366"></circle><circle class="pearl" r="2.190433937142651" cx="15.059478632318015" cy="29.151671796572604"></circle><circle class="pearl" r="2.190433937142651" cx="10.931801541923448" cy="5.756435137180418"></circle><circle class="pearl" r="2.190433937142651" cx="28.28409536454539" cy="22.617493103349123"></circle><circle class="pearl" r="2.190433937142651" cx="7.654181412826583" cy="26.47948354378256"></circle><circle class="pearl" r="2.190433937142651" cx="18.851011993779533" cy="4.757151106293538"></circle><circle class="pearl" r="2.190433937142651" cx="22.974455083013275" cy="28.15307095879496"></circle><circle class="pearl" r="2.190433937142651" cx="5.61757287866282" cy="11.310749147256333"></circle><circle class="pearl" r="2.190433937142651" cx="29.105249006200903" cy="14.684397077263156"></circle></g><g class="bobaCup bright" cupRadius="16.35966430768462" width="32.71932861536924" height="32.71932861536924" pearlRadius="2.7380424214283132" pearlCount="13" transform="translate(166.77094652392122,114.80629492360623)"><circle class="pool" r="16.35966430768462" cx="16.35966430768462" cy="16.35966430768462" style="stroke-width: 1; fill: rgb(127, 205, 187);"></circle><circle class="pearl" r="2.1904339371426507" cx="20.677913420325986" cy="15.219219190563047"></circle><circle class="pearl" r="2.1904339371426507" cx="14.709629967874614" cy="20.449912928504748"></circle><circle class="pearl" r="2.1904339371426507" cx="13.12049058816726" cy="12.656062700114594"></circle><circle class="pearl" r="2.1904339371426507" cx="25.196955254141866" cy="25.476326632943103"></circle><circle class="pearl" r="2.1904339371426507" cx="4.811186901122208" cy="14.073944499217122"></circle><circle class="pearl" r="2.1904339371426507" cx="27.142346996023512" cy="10.933008056914879"></circle><circle class="pearl" r="2.1904339371426507" cx="10.401969342645305" cy="26.945229569545692"></circle><circle class="pearl" r="2.1904339371426507" cx="14.647302409302357" cy="4.740586277816841"></circle><circle class="pearl" r="2.1904339371426507" cx="27.904975348786866" cy="18.667713309698506"></circle><circle class="pearl" r="2.1904339371426507" cx="5.497842611066962" cy="21.555774988196646"></circle><circle class="pearl" r="2.1904339371426507" cx="22.412890130603653" cy="5.81179966116427"></circle><circle class="pearl" r="2.1904339371426507" cx="18.14139894834354" cy="27.9712913991136"></circle><circle class="pearl" r="2.1904339371426507" cx="7.524171234035234" cy="7.241848092813499"></circle></g><g class="bobaCup bright" cupRadius="15.682840686515897" width="31.365681373031794" height="31.365681373031794" pearlRadius="2.7380424214283137" pearlCount="12" transform="translate(191.06038756821494,82.95291062023907)"><circle class="pool" r="15.682840686515897" cx="15.682840686515897" cy="15.682840686515897" style="stroke-width: 1; fill: rgb(65, 182, 196);"></circle><circle class="pearl" r="2.190433937142651" cx="17.08765823980805" cy="11.486677651114995"></circle><circle class="pearl" r="2.190433937142651" cx="11.39395247216187" cy="17.007020170785516"></circle><circle class="pearl" r="2.190433937142651" cx="14.537408787896455" cy="4.692608772760684"></circle><circle class="pearl" r="2.190433937142651" cx="18.398492581829853" cy="18.791485443446312"></circle><circle class="pearl" r="2.190433937142651" cx="4.701741497027898" cy="14.418870794111875"></circle><circle class="pearl" r="2.190433937142651" cx="26.479136785576774" cy="12.973396852367808"></circle><circle class="pearl" r="2.190433937142651" cx="13.617540020266238" cy="26.578371835016707"></circle><circle class="pearl" r="2.190433937142651" cx="7.226714908907953" cy="7.125784812152498"></circle><circle class="pearl" r="2.190433937142651" cx="25.917019776528637" cy="20.621582931749625"></circle><circle class="pearl" r="2.190433937142651" cx="6.610759500649568" cy="23.274687036497923"></circle><circle class="pearl" r="2.190433937142651" cx="22.89131813483563" cy="6.405558139825965"></circle><circle class="pearl" r="2.190433937142651" cx="21.345558326077292" cy="25.656929283511616"></circle></g><g class="bobaCup bright" cupRadius="15.467364731277955" width="30.93472946255591" height="30.93472946255591" pearlRadius="2.7380424214283137" pearlCount="11" transform="translate(35.21643283380279,38.96919650906993)"><circle class="pool" r="15.467364731277955" cx="15.467364731277955" cy="15.467364731277955" style="stroke-width: 1; fill: rgb(29, 145, 192);"></circle><circle class="pearl" r="2.190433937142651" cx="19.378244992251005" cy="15.769625470899156"></circle><circle class="pearl" r="2.190433937142651" cx="11.897031177903713" cy="17.660065988618193"></circle><circle class="pearl" r="2.190433937142651" cx="14.132915020531186" cy="10.207059213300713"></circle><circle class="pearl" r="2.190433937142651" cx="22.04060119556294" cy="24.817781960361575"></circle><circle class="pearl" r="2.190433937142651" cx="4.683756776076871" cy="14.4570218983647"></circle><circle class="pearl" r="2.190433937142651" cx="25.581538651469284" cy="10.858982811683106"></circle><circle class="pearl" r="2.190433937142651" cx="14.42638493222221" cy="26.24893662651587"></circle><circle class="pearl" r="2.190433937142651" cx="7.211781795229141" cy="7.038152099287613"></circle><circle class="pearl" r="2.190433937142651" cx="25.93779781062077" cy="18.72159330991483"></circle><circle class="pearl" r="2.190433937142651" cx="7.139778837330203" cy="23.850853596627378"></circle><circle class="pearl" r="2.190433937142651" cx="20.19495341943169" cy="5.390926762726831"></circle></g><g class="bobaCup bright" cupRadius="15.436111103507152" width="30.872222207014303" height="30.872222207014303" pearlRadius="2.7380424214283132" pearlCount="11" transform="translate(20.224134594627323,24.339764697286398)"><circle class="pool" r="15.436111103507152" cx="15.436111103507152" cy="15.436111103507152" style="stroke-width: 1; fill: rgb(65, 182, 196);"></circle><circle class="pearl" r="2.1904339371426507" cx="19.347714497297705" cy="15.750711997588946"></circle><circle class="pearl" r="2.1904339371426507" cx="11.891269891984786" cy="17.644980005001052"></circle><circle class="pearl" r="2.1904339371426507" cx="14.100203492034785" cy="10.207852168231307"></circle><circle class="pearl" r="2.1904339371426507" cx="22.015513325853878" cy="24.74909054995732"></circle><circle class="pearl" r="2.1904339371426507" cx="4.683209166553632" cy="14.435182654598881"></circle><circle class="pearl" r="2.1904339371426507" cx="25.514259397746198" cy="10.817250890817283"></circle><circle class="pearl" r="2.1904339371426507" cx="14.41197135872615" cy="26.187487205318813"></circle><circle class="pearl" r="2.1904339371426507" cx="7.209122739867317" cy="7.02581643666321"></circle><circle class="pearl" r="2.1904339371426507" cx="25.879111500261107" cy="18.66922618375429"></circle><circle class="pearl" r="2.1904339371426507" cx="7.140093044173638" cy="23.80266909487708"></circle><circle class="pearl" r="2.1904339371426507" cx="20.133199947893033" cy="5.382723261096676"></circle></g><g class="bobaCup bright" cupRadius="15.256959696848858" width="30.513919393697716" height="30.513919393697716" pearlRadius="2.738042421428314" pearlCount="11" transform="translate(45.06080192705661,185.68312961475203)"><circle class="pool" r="15.256959696848858" cx="15.256959696848858" cy="15.256959696848858" style="stroke-width: 1; fill: rgb(127, 205, 187);"></circle><circle class="pearl" r="2.1904339371426516" cx="19.17368812733924" cy="15.65632739102304"></circle><circle class="pearl" r="2.1904339371426516" cx="11.85796043203596" cy="17.55742100331004"></circle><circle class="pearl" r="2.1904339371426516" cx="13.92258206212133" cy="10.211507587543302"></circle><circle class="pearl" r="2.1904339371426516" cx="21.85262470445251" cy="24.363853351253656"></circle><circle class="pearl" r="2.1904339371426516" cx="4.680201144286395" cy="14.309005163911621"></circle><circle class="pearl" r="2.1904339371426516" cx="25.13654943308232" cy="10.604559849877045"></circle><circle class="pearl" r="2.1904339371426516" cx="14.314948910847125" cy="25.834087100271994"></circle><circle class="pearl" r="2.1904339371426516" cx="7.193117708466552" cy="6.955877198893896"></circle><circle class="pearl" r="2.1904339371426516" cx="25.536926263001938" cy="18.395322557480185"></circle><circle class="pearl" r="2.1904339371426516" cx="7.140170907805482" cy="23.524926763556554"></circle><circle class="pearl" r="2.1904339371426516" cx="19.80174302778227" cy="5.343351026354329"></circle></g><g class="bobaCup bright" cupRadius="15.175630472269972" width="30.351260944539945" height="30.351260944539945" pearlRadius="2.7380424214283137" pearlCount="11" transform="translate(16.421786754470105,4.824369527730028)"><circle class="pool" r="15.175630472269972" cx="15.175630472269972" cy="15.175630472269972" style="stroke-width: 1; fill: rgb(127, 205, 187);"></circle><circle class="pearl" r="2.190433937142651" cx="19.09566163882267" cy="15.61783903948209"></circle><circle class="pearl" r="2.190433937142651" cx="11.843975458627522" cy="17.522380264502026"></circle><circle class="pearl" r="2.190433937142651" cx="13.841314526609311" cy="10.218626932650333"></circle><circle class="pearl" r="2.190433937142651" cx="21.777452341424507" cy="24.189302884884118"></circle><circle class="pearl" r="2.190433937142651" cx="4.678860924678622" cy="14.251929856812911"></circle><circle class="pearl" r="2.190433937142651" cx="24.965235202943358" cy="10.50908049821511"></circle><circle class="pearl" r="2.190433937142651" cx="14.269145353865497" cy="25.673440009646885"></circle><circle class="pearl" r="2.190433937142651" cx="7.1857505068755785" cy="6.9243546941181755"></circle><circle class="pearl" r="2.190433937142651" cx="25.381514096830916" cy="18.27094839493308"></circle><circle class="pearl" r="2.190433937142651" cx="7.140974545864179" cy="23.399069910651686"></circle><circle class="pearl" r="2.190433937142651" cx="19.64778945387446" cy="5.324645033441092"></circle></g><g class="bobaCup bright" cupRadius="15.125620877879399" width="30.251241755758798" height="30.251241755758798" pearlRadius="2.7380424214283137" pearlCount="11" transform="translate(65.20985941854018,31.482134572348194)"><circle class="pool" r="15.125620877879399" cx="15.125620877879399" cy="15.125620877879399" style="stroke-width: 1; fill: rgb(29, 145, 192);"></circle><circle class="pearl" r="2.190433937142651" cx="19.048074720036194" cy="15.5952601149983"></circle><circle class="pearl" r="2.190433937142651" cx="11.835924139617662" cy="17.502902994012302"></circle><circle class="pearl" r="2.190433937142651" cx="13.790569430849134" cy="10.225388595863416"></circle><circle class="pearl" r="2.190433937142651" cx="21.731632485550808" cy="24.08169806603567"></circle><circle class="pearl" r="2.190433937142651" cx="4.67804051482916" cy="14.216975954614092"></circle><circle class="pearl" r="2.190433937142651" cx="24.859544747833514" cy="10.44947558584327"></circle><circle class="pearl" r="2.190433937142651" cx="14.240875914905713" cy="25.57462060345002"></circle><circle class="pearl" r="2.190433937142651" cx="7.181213096883173" cy="6.905027470201192"></circle><circle class="pearl" r="2.190433937142651" cx="25.286207308827347" cy="18.193113846278727"></circle><circle class="pearl" r="2.190433937142651" cx="7.141858156929706" cy="23.32184046683946"></circle><circle class="pearl" r="2.190433937142651" cx="19.550472699249738" cy="5.31242025086217"></circle></g><g class="bobaCup bright" cupRadius="14.89938373972856" width="29.79876747945712" height="29.79876747945712" pearlRadius="2.7380424214283137" pearlCount="11" transform="translate(195.38009184659828,73.06336482149672)"><circle class="pool" r="14.89938373972856" cx="14.89938373972856" cy="14.89938373972856" style="stroke-width: 1; fill: rgb(65, 182, 196);"></circle><circle class="pearl" r="2.190433937142651" cx="18.837688940693305" cy="15.502383787059667"></circle><circle class="pearl" r="2.190433937142651" cx="11.807083131867858" cy="17.439420576386965"></circle><circle class="pearl" r="2.190433937142651" cx="13.550276609877947" cy="10.284135482870724"></circle><circle class="pearl" r="2.190433937142651" cx="21.53094669538436" cy="23.590849559018455"></circle><circle class="pearl" r="2.190433937142651" cx="4.674324874014307" cy="14.061086115356666"></circle><circle class="pearl" r="2.190433937142651" cx="24.375958942424493" cy="10.165350062449924"></circle><circle class="pearl" r="2.190433937142651" cx="14.1122656264688" cy="25.127238430416636"></circle><circle class="pearl" r="2.190433937142651" cx="7.160549173173104" cy="6.818175638953958"></circle><circle class="pearl" r="2.190433937142651" cx="24.858720420435912" cy="17.82133262206425"></circle><circle class="pearl" r="2.190433937142651" cx="7.150127002668343" cy="22.974251100470592"></circle><circle class="pearl" r="2.190433937142651" cx="19.075412216280373" cy="5.247924547888552"></circle></g><g class="bobaCup bright" cupRadius="14.643825436465175" width="29.28765087293035" height="29.28765087293035" pearlRadius="2.7380424214283137" pearlCount="10" transform="translate(145.96710922751026,48.32767124235562)"><circle class="pool" r="14.643825436465175" cx="14.643825436465175" cy="14.643825436465175" style="stroke-width: 1; fill: rgb(29, 145, 192);"></circle><circle class="pearl" r="2.190433937142651" cx="17.392280400888442" cy="11.95071186432663"></circle><circle class="pearl" r="2.190433937142651" cx="12.221210080868614" cy="17.021837848793552"></circle><circle class="pearl" r="2.190433937142651" cx="14.522410946789988" cy="4.6512265714892695"></circle><circle class="pearl" r="2.190433937142651" cx="22.391765195191912" cy="22.419326610696654"></circle><circle class="pearl" r="2.190433937142651" cx="4.65171770186709" cy="14.47316554744981"></circle><circle class="pearl" r="2.190433937142651" cx="22.205392533444" cy="6.754041241030178"></circle><circle class="pearl" r="2.190433937142651" cx="14.766010025214957" cy="24.636417895945637"></circle><circle class="pearl" r="2.190433937142651" cx="6.895972438259706" cy="6.868270166150802"></circle><circle class="pearl" r="2.190433937142651" cx="24.63576200614246" cy="14.828588653652648"></circle><circle class="pearl" r="2.190433937142651" cx="7.081736428097848" cy="22.533294919459355"></circle></g><g class="bobaCup bright" cupRadius="14.264176497350785" width="28.52835299470157" height="28.52835299470157" pearlRadius="2.738042421428314" pearlCount="10" transform="translate(297.56892397329295,80.79412936758924)"><circle class="pool" r="14.264176497350785" cx="14.264176497350785" cy="14.264176497350785" style="stroke-width: 1; fill: rgb(127, 205, 187);"></circle><circle class="pearl" r="2.1904339371426516" cx="16.97863371067216" cy="11.668094129907027"></circle><circle class="pearl" r="2.1904339371426516" cx="12.081920769778272" cy="16.38052238139808"></circle><circle class="pearl" r="2.1904339371426516" cx="14.333405164804748" cy="4.650891224130479"></circle><circle class="pearl" r="2.1904339371426516" cx="21.7133777931128" cy="21.777997288297737"></circle><circle class="pearl" r="2.1904339371426516" cx="4.65072471294588" cy="14.2576690580724"></circle><circle class="pearl" r="2.1904339371426516" cx="21.482366438868095" cy="6.611873061082324"></circle><circle class="pearl" r="2.1904339371426516" cx="14.238357059982508" cy="23.877606398363962"></circle><circle class="pearl" r="2.1904339371426516" cx="6.817623528208724" cy="6.748734347079774"></circle><circle class="pearl" r="2.1904339371426516" cx="23.877527970545565" cy="14.318065735771873"></circle><circle class="pearl" r="2.1904339371426516" cx="7.042138961878921" cy="21.91422174005051"></circle></g><g class="bobaCup bright" cupRadius="13.663738609054414" width="27.32747721810883" height="27.32747721810883" pearlRadius="2.7380424214283137" pearlCount="9" transform="translate(81.95937978556846,80.27526519333932)"><circle class="pool" r="13.663738609054414" cx="13.663738609054414" cy="13.663738609054414" style="stroke-width: 1; fill: rgb(65, 182, 196);"></circle><circle class="pearl" r="2.190433937142651" cx="15.367716368309177" cy="12.001285816031658"></circle><circle class="pearl" r="2.190433937142651" cx="9.981107622973242" cy="17.332255745213192"></circle><circle class="pearl" r="2.190433937142651" cx="13.721951371056463" cy="4.650847233469527"></circle><circle class="pearl" r="2.190433937142651" cx="20.598404132083314" cy="20.786212349033487"></circle><circle class="pearl" r="2.190433937142651" cx="4.650830565421105" cy="13.609579271887537"></circle><circle class="pearl" r="2.190433937142651" cx="20.529702587523918" cy="6.501067261005133"></circle><circle class="pearl" r="2.190433937142651" cx="13.66916482288709" cy="22.676752912094795"></circle><circle class="pearl" r="2.190433937142651" cx="6.795332375344747" cy="6.502487041457737"></circle><circle class="pearl" r="2.190433937142651" cx="22.675668426633063" cy="13.835972511349157"></circle></g><g class="bobaCup bright" cupRadius="13.652531142574745" width="27.30506228514949" height="27.30506228514949" pearlRadius="2.7380424214283132" pearlCount="9" transform="translate(146.19479312795028,141.0096963139183)"><circle class="pool" r="13.652531142574745" cx="13.652531142574745" cy="13.652531142574745" style="stroke-width: 1; fill: rgb(65, 182, 196);"></circle><circle class="pearl" r="2.1904339371426507" cx="15.347952755644224" cy="11.999380813480856"></circle><circle class="pearl" r="2.1904339371426507" cx="9.959889733200619" cy="17.33088793827425"></circle><circle class="pearl" r="2.1904339371426507" cx="13.710393009110298" cy="4.650845843586514"></circle><circle class="pearl" r="2.1904339371426507" cx="20.577137658081096" cy="20.767921597135413"></circle><circle class="pearl" r="2.1904339371426507" cx="4.6508218634921485" cy="13.600634871665449"></circle><circle class="pearl" r="2.1904339371426507" cx="20.508841583042088" cy="6.497212962489336"></circle><circle class="pearl" r="2.1904339371426507" cx="13.655076813934757" cy="22.65433881924356"></circle><circle class="pearl" r="2.1904339371426507" cx="6.794238797394077" cy="6.49836416805586"></circle><circle class="pearl" r="2.1904339371426507" cx="22.653190854867486" cy="13.829591586676187"></circle></g><g class="bobaCup bright" cupRadius="13.647435100524039" width="27.294870201048077" height="27.294870201048077" pearlRadius="2.7380424214283137" pearlCount="9" transform="translate(88.36723036236594,221.12181743319042)"><circle class="pool" r="13.647435100524039" cx="13.647435100524039" cy="13.647435100524039" style="stroke-width: 1; fill: rgb(65, 182, 196);"></circle><circle class="pearl" r="2.190433937142651" cx="15.338933113142694" cy="11.998548008772943"></circle><circle class="pearl" r="2.190433937142651" cx="9.950162356511209" cy="17.330342471089807"></circle><circle class="pearl" r="2.190433937142651" cx="13.705138806478013" cy="4.650845219719537"></circle><circle class="pearl" r="2.190433937142651" cx="20.567466345831722" cy="20.759604899902367"></circle><circle class="pearl" r="2.190433937142651" cx="4.650818101472236" cy="13.596547631323613"></circle><circle class="pearl" r="2.190433937142651" cx="20.499361373309902" cy="6.49546409534822"></circle><circle class="pearl" r="2.190433937142651" cx="13.648683664593113" cy="22.644146915363248"></circle><circle class="pearl" r="2.190433937142651" cx="6.793750221206674" cy="6.496485210505874"></circle><circle class="pearl" r="2.190433937142651" cx="22.642969418521293" cy="13.826710853882453"></circle></g><g class="bobaCup bright" cupRadius="13.507998129197109" width="27.015996258394217" height="27.015996258394217" pearlRadius="2.7380424214283137" pearlCount="9" transform="translate(199.10916411248076,120.87895747512535)"><circle class="pool" r="13.507998129197109" cx="13.507998129197109" cy="13.507998129197109" style="stroke-width: 1; fill: rgb(29, 145, 192);"></circle><circle class="pearl" r="2.190433937142651" cx="15.082966286923707" cy="11.98494191866817"></circle><circle class="pearl" r="2.190433937142651" cx="9.66184303908306" cy="17.336484583064955"></circle><circle class="pearl" r="2.190433937142651" cx="13.561771735406923" cy="4.650830261906199"></circle><circle class="pearl" r="2.190433937142651" cx="20.302315497870886" cy="20.532173827474615"></circle><circle class="pearl" r="2.190433937142651" cx="4.650753669154309" cy="13.479320929964018"></circle><circle class="pearl" r="2.190433937142651" cx="20.24143263816347" cy="6.448602947954674"></circle><circle class="pearl" r="2.190433937142651" cx="13.476652881405066" cy="22.365236661522207"></circle><circle class="pearl" r="2.190433937142651" cx="6.782804171053245" cy="6.443868405906704"></circle><circle class="pearl" r="2.190433937142651" cx="22.36303839407356" cy="13.753692894001812"></circle></g><g class="bobaCup bright" cupRadius="13.458298594226852" width="26.916597188453704" height="26.916597188453704" pearlRadius="2.7380424214283137" pearlCount="9" transform="translate(59.43538872116465,54.01038230028086)"><circle class="pool" r="13.458298594226852" cx="13.458298594226852" cy="13.458298594226852" style="stroke-width: 1; fill: rgb(29, 145, 192);"></circle><circle class="pearl" r="2.190433937142651" cx="14.986703795295982" cy="11.985076819779326"></circle><circle class="pearl" r="2.190433937142651" cx="9.546844665847967" cy="17.350138932730367"></circle><circle class="pearl" r="2.190433937142651" cx="13.510890344953612" cy="4.65082598683523"></circle><circle class="pearl" r="2.190433937142651" cx="20.207431650919137" cy="20.451243345911468"></circle><circle class="pearl" r="2.190433937142651" cx="4.650743836663633" cy="13.434746539088087"></circle><circle class="pearl" r="2.190433937142651" cx="20.150304528782147" cy="6.432427386779995"></circle><circle class="pearl" r="2.190433937142651" cx="13.416484780229556" cy="22.265809003705282"></circle><circle class="pearl" r="2.190433937142651" cx="6.780239804383884" cy="6.424445157348327"></circle><circle class="pearl" r="2.190433937142651" cx="22.263112805486717" cy="13.730903173564885"></circle></g><g class="bobaCup bright" cupRadius="13.288880059017579" width="26.577760118035158" height="26.577760118035158" pearlRadius="2.7380424214283137" pearlCount="8" transform="translate(27.81402255976043,283.76604055356324)"><circle class="pool" r="13.288880059017579" cx="13.288880059017579" cy="13.288880059017579" style="stroke-width: 1; fill: rgb(127, 205, 187);"></circle><circle class="pearl" r="2.190433937142651" cx="14.299899736687205" cy="12.534600794101928"></circle><circle class="pearl" r="2.190433937142651" cx="8.884193189431832" cy="21.17582275372958"></circle><circle class="pearl" r="2.190433937142651" cx="13.646086397950995" cy="4.6555249659895015"></circle><circle class="pearl" r="2.190433937142651" cx="21.7568702097602" cy="15.408713187914891"></circle><circle class="pearl" r="2.190433937142651" cx="4.712911553096504" cy="14.572998037893287"></circle><circle class="pearl" r="2.190433937142651" cx="20.603536526843737" cy="7.507528837719944"></circle><circle class="pearl" r="2.190433937142651" cx="16.795264875159077" cy="21.45609733366648"></circle><circle class="pearl" r="2.190433937142651" cx="6.4024503941511135" cy="6.6943037772235305"></circle></g><g class="bobaCup bright" cupRadius="13.247288164855604" width="26.494576329711208" height="26.494576329711208" pearlRadius="2.7380424214283137" pearlCount="8" transform="translate(120.70497576985898,63.82165039960907)"><circle class="pool" r="13.247288164855604" cx="13.247288164855604" cy="13.247288164855604" style="stroke-width: 1; fill: rgb(127, 205, 187);"></circle><circle class="pearl" r="2.190433937142651" cx="14.29411503634083" cy="12.674879655898327"></circle><circle class="pearl" r="2.190433937142651" cx="8.272984265615458" cy="20.87446966146982"></circle><circle class="pearl" r="2.190433937142651" cx="13.98257895455699" cy="4.671145128989611"></circle><circle class="pearl" r="2.190433937142651" cx="21.564150348489054" cy="15.955123518030431"></circle><circle class="pearl" r="2.190433937142651" cx="4.680545629397717" cy="14.1356813770344"></circle><circle class="pearl" r="2.190433937142651" cx="20.774352722495507" cy="8.032680954649466"></circle><circle class="pearl" r="2.190433937142651" cx="16.12251502544634" cy="21.528065785871195"></circle><circle class="pearl" r="2.190433937142651" cx="6.556652947258899" cy="6.464462333411333"></circle></g><g class="bobaCup bright" cupRadius="13.14032269509987" width="26.28064539019974" height="26.28064539019974" pearlRadius="2.7380424214283137" pearlCount="8" transform="translate(55.40674328398201,60.33515659139718)"><circle class="pool" r="13.14032269509987" cx="13.14032269509987" cy="13.14032269509987" style="stroke-width: 1; fill: rgb(127, 205, 187);"></circle><circle class="pearl" r="2.190433937142651" cx="14.021914016690387" cy="12.91472081633709"></circle><circle class="pearl" r="2.190433937142651" cx="7.9574745828920355" cy="20.564621867217756"></circle><circle class="pearl" r="2.190433937142651" cx="13.983631918939693" cy="4.677811765602117"></circle><circle class="pearl" r="2.190433937142651" cx="21.30642202072978" cy="16.038104630560408"></circle><circle class="pearl" r="2.190433937142651" cx="4.6743225183553605" cy="13.927499701752604"></circle><circle class="pearl" r="2.190433937142651" cx="20.63536889886471" cy="8.125508099534942"></circle><circle class="pearl" r="2.190433937142651" cx="15.73515278579626" cy="21.37117302459122"></circle><circle class="pearl" r="2.190433937142651" cx="6.581741918987223" cy="6.404514461695262"></circle></g><g class="bobaCup bright" cupRadius="13.070373482225712" width="26.140746964451424" height="26.140746964451424" pearlRadius="2.7380424214283137" pearlCount="8" transform="translate(47.056005706416336,72.98691207620007)"><circle class="pool" r="13.070373482225712" cx="13.070373482225712" cy="13.070373482225712" style="stroke-width: 1; fill: rgb(29, 145, 192);"></circle><circle class="pearl" r="2.190433937142651" cx="13.879868244918757" cy="12.941970289323976"></circle><circle class="pearl" r="2.190433937142651" cx="7.73252897885069" cy="20.350370224497045"></circle><circle class="pearl" r="2.190433937142651" cx="13.992845643192155" cy="4.683316682083666"></circle><circle class="pearl" r="2.190433937142651" cx="21.132124611010315" cy="16.10807963629052"></circle><circle class="pearl" r="2.190433937142651" cx="4.670082324645996" cy="13.78148982808896"></circle><circle class="pearl" r="2.190433937142651" cx="20.54908298926415" cy="8.200925415227449"></circle><circle class="pearl" r="2.190433937142651" cx="15.463244425789249" cy="21.26911839876937"></circle><circle class="pearl" r="2.190433937142651" cx="6.600744017170246" cy="6.3642240096631255"></circle></g><g class="bobaCup bright" cupRadius="12.940766999823389" width="25.881533999646777" height="25.881533999646777" pearlRadius="2.7380424214283137" pearlCount="8" transform="translate(70.8076333326984,73.54579051364695)"><circle class="pool" r="12.940766999823389" cx="12.940766999823389" cy="12.940766999823389" style="stroke-width: 1; fill: rgb(29, 145, 192);"></circle><circle class="pearl" r="2.190433937142651" cx="13.743865867725921" cy="12.978491307261384"></circle><circle class="pearl" r="2.190433937142651" cx="6.7009234600989505" cy="19.627054097765956"></circle><circle class="pearl" r="2.190433937142651" cx="14.395815971974999" cy="4.732785665633941"></circle><circle class="pearl" r="2.190433937142651" cx="20.619692263946174" cy="16.87055307419561"></circle><circle class="pearl" r="2.190433937142651" cx="4.6525095028879715" cy="13.155774740821865"></circle><circle class="pearl" r="2.190433937142651" cx="20.60147757412395" cy="8.954283805173331"></circle><circle class="pearl" r="2.190433937142651" cx="14.3021269395683" cy="21.159004477470024"></circle><circle class="pearl" r="2.190433937142651" cx="6.790632340489298" cy="6.2055649600741365"></circle></g><g class="bobaCup bright" cupRadius="12.8937058469577" width="25.7874116939154" height="25.7874116939154" pearlRadius="2.7380424214283137" pearlCount="8" transform="translate(49.28012960372146,54.16942029694445)"><circle class="pool" r="12.8937058469577" cx="12.8937058469577" cy="12.8937058469577" style="stroke-width: 1; fill: rgb(29, 145, 192);"></circle><circle class="pearl" r="2.190433937142651" cx="13.626265370824742" cy="12.943363685429226"></circle><circle class="pearl" r="2.190433937142651" cx="6.714766727545305" cy="19.559711908533405"></circle><circle class="pearl" r="2.190433937142651" cx="14.254817918377212" cy="4.722766765324726"></circle><circle class="pearl" r="2.190433937142651" cx="20.554142394945114" cy="16.72554553879233"></circle><circle class="pearl" r="2.190433937142651" cx="4.65386684455979" cy="13.178408915762398"></circle><circle class="pearl" r="2.190433937142651" cx="20.474996489234425" cy="8.816269503952709"></circle><circle class="pearl" r="2.190433937142651" cx="14.304810602860467" cy="21.059239241743523"></circle><circle class="pearl" r="2.190433937142651" cx="6.705246129768877" cy="6.232903236960302"></circle></g><g class="bobaCup bright" cupRadius="12.736639283990508" width="25.473278567981016" height="25.473278567981016" pearlRadius="2.7380424214283137" pearlCount="8" transform="translate(278.027521923163,109.49148230231562)"><circle class="pool" r="12.736639283990508" cx="12.736639283990508" cy="12.736639283990508" style="stroke-width: 1; fill: rgb(65, 182, 196);"></circle><circle class="pearl" r="2.190433937142651" cx="13.304082176207865" cy="12.826275173005367"></circle><circle class="pearl" r="2.190433937142651" cx="6.698210431352443" cy="19.300164012465782"></circle><circle class="pearl" r="2.190433937142651" cx="14.055021934081921" cy="4.719140560036914"></circle><circle class="pearl" r="2.190433937142651" cx="20.264228391651844" cy="16.4663428769935"></circle><circle class="pearl" r="2.190433937142651" cx="4.655282881475189" cy="13.077415630242655"></circle><circle class="pearl" r="2.190433937142651" cx="20.129512104693696" cy="8.592513989987516"></circle><circle class="pearl" r="2.190433937142651" cx="14.159363470383205" cy="20.74284444029794"></circle><circle class="pearl" r="2.190433937142651" cx="6.6933546453396335" cy="6.175730560578126"></circle></g><g class="bobaCup bright" cupRadius="12.536517228825392" width="25.073034457650785" height="25.073034457650785" pearlRadius="2.738042421428314" pearlCount="7" transform="translate(188.39825880754992,75.52486578441926)"><circle class="pool" r="12.536517228825392" cx="12.536517228825392" cy="12.536517228825392" style="stroke-width: 1; fill: rgb(127, 205, 187);"></circle><circle class="pearl" r="2.1904339371426516" cx="12.824715971892775" cy="12.584409518593258"></circle><circle class="pearl" r="2.1904339371426516" cx="5.017734033650489" cy="15.547725894966124"></circle><circle class="pearl" r="2.1904339371426516" cx="13.078191989565589" cy="4.662430970533496"></circle><circle class="pearl" r="2.1904339371426516" cx="19.053563984578904" cy="18.232584100435528"></circle><circle class="pearl" r="2.1904339371426516" cx="5.670268759394039" cy="7.584383634499937"></circle><circle class="pearl" r="2.1904339371426516" cx="19.856935379361122" cy="8.814147243174784"></circle><circle class="pearl" r="2.1904339371426516" cx="11.346245941756413" cy="20.365678554680887"></circle></g><g class="bobaCup bright" cupRadius="12.29303748004589" width="24.58607496009178" height="24.58607496009178" pearlRadius="2.7380424214283137" pearlCount="7" transform="translate(65.58061010939707,41.37209436518892)"><circle class="pool" r="12.29303748004589" cx="12.29303748004589" cy="12.29303748004589" style="stroke-width: 1; fill: rgb(127, 205, 187);"></circle><circle class="pearl" r="2.190433937142651" cx="12.330509305664188" cy="12.307584494223901"></circle><circle class="pearl" r="2.190433937142651" cx="5.008403977098338" cy="15.236849664477115"></circle><circle class="pearl" r="2.190433937142651" cx="13.132152217581183" cy="4.67939537880622"></circle><circle class="pearl" r="2.190433937142651" cx="18.76718843887641" cy="17.52332856184033"></circle><circle class="pearl" r="2.190433937142651" cx="5.709681805378155" cy="7.3016206790145946"></circle><circle class="pearl" r="2.190433937142651" cx="19.509088977318758" cy="9.083921076441284"></circle><circle class="pearl" r="2.190433937142651" cx="11.218737644556267" cy="19.888319736908816"></circle></g><g class="bobaCup bright" cupRadius="12.211598468097545" width="24.42319693619509" height="24.42319693619509" pearlRadius="2.7380424214283137" pearlCount="7" transform="translate(175.4490183064345,70.88969660955684)"><circle class="pool" r="12.211598468097545" cx="12.211598468097545" cy="12.211598468097545" style="stroke-width: 1; fill: rgb(29, 145, 192);"></circle><circle class="pearl" r="2.190433937142651" cx="12.234008911073822" cy="12.219832128347825"></circle><circle class="pearl" r="2.190433937142651" cx="5.052299331321144" cy="15.317481414384233"></circle><circle class="pearl" r="2.190433937142651" cx="12.985542428254714" cy="4.6752733299565925"></circle><circle class="pearl" r="2.190433937142651" cx="18.73834140753313" cy="17.129665894344225"></circle><circle class="pearl" r="2.190433937142651" cx="5.6439221430935955" cy="7.387632402463397"></circle><circle class="pearl" r="2.190433937142651" cx="19.333462990097747" cy="8.966707899659028"></circle><circle class="pearl" r="2.190433937142651" cx="11.317677141916384" cy="19.73971105452293"></circle></g><g class="bobaCup bright" cupRadius="12.03843075493507" width="24.07686150987014" height="24.07686150987014" pearlRadius="2.7380424214283137" pearlCount="7" transform="translate(244.32455268952964,70.30874813049942)"><circle class="pool" r="12.03843075493507" cx="12.03843075493507" cy="12.03843075493507" style="stroke-width: 1; fill: rgb(65, 182, 196);"></circle><circle class="pearl" r="2.190433937142651" cx="12.04218091031619" cy="12.038466277866846"></circle><circle class="pearl" r="2.190433937142651" cx="5.130698113342948" cy="15.403830127796523"></circle><circle class="pearl" r="2.190433937142651" cx="12.634085005160696" cy="4.665468564486133"></circle><circle class="pearl" r="2.190433937142651" cx="18.54199774247522" cy="16.56674443843048"></circle><circle class="pearl" r="2.190433937142651" cx="5.534865563588783" cy="7.510112646998776"></circle><circle class="pearl" r="2.190433937142651" cx="18.930975699927796" cy="8.62130112400864"></circle><circle class="pearl" r="2.190433937142651" cx="11.392406402552579" cy="19.408791819284293"></circle></g><g class="bobaCup bright" cupRadius="11.909473566280521" width="23.818947132561043" height="23.818947132561043" pearlRadius="2.7380424214283132" pearlCount="7" transform="translate(173.33976131586527,72.92384197359387)"><circle class="pool" r="11.909473566280521" cx="11.909473566280521" cy="11.909473566280521" style="stroke-width: 1; fill: rgb(65, 182, 196);"></circle><circle class="pearl" r="2.1904339371426507" cx="11.91478492121023" cy="11.911320401656106"></circle><circle class="pearl" r="2.1904339371426507" cx="4.990194226932943" cy="14.732698885713964"></circle><circle class="pearl" r="2.1904339371426507" cx="13.027817949413768" cy="4.7033478683176755"></circle><circle class="pearl" r="2.1904339371426507" cx="18.072970634501214" cy="16.89828103885262"></circle><circle class="pearl" r="2.1904339371426507" cx="5.745113416665972" cy="6.9225374178194965"></circle><circle class="pearl" r="2.1904339371426507" cx="18.81021058293135" cy="9.011314352401449"></circle><circle class="pearl" r="2.1904339371426507" cx="10.717509691574202" cy="19.10842471075993"></circle></g><g class="bobaCup bright" cupRadius="11.815200143968385" width="23.63040028793677" height="23.63040028793677" pearlRadius="2.738042421428314" pearlCount="6" transform="translate(272.3827289687076,31.064215685805394)"><circle class="pool" r="11.815200143968385" cx="11.815200143968385" cy="11.815200143968385" style="stroke-width: 1; fill: rgb(65, 182, 196);"></circle><circle class="pearl" r="2.1904339371426516" cx="12.278546201685886" cy="12.066741542003427"></circle><circle class="pearl" r="2.1904339371426516" cx="6.952093370695452" cy="17.932445477469603"></circle><circle class="pearl" r="2.1904339371426516" cx="9.77311321054858" cy="4.828533828557251"></circle><circle class="pearl" r="2.1904339371426516" cx="17.43683118582278" cy="17.556599839578364"></circle><circle class="pearl" r="2.1904339371426516" cx="4.7258649816569545" cy="10.484792905300619"></circle><circle class="pearl" r="2.1904339371426516" cx="17.50550174889103" cy="6.111242204727239"></circle></g><g class="bobaCup bright" cupRadius="11.599782949872433" width="23.199565899744865" height="23.199565899744865" pearlRadius="2.7380424214283137" pearlCount="6" transform="translate(209.4319699285793,77.05719287149414)"><circle class="pool" r="11.599782949872433" cx="11.599782949872433" cy="11.599782949872433" style="stroke-width: 1; fill: rgb(29, 145, 192);"></circle><circle class="pearl" r="2.190433937142651" cx="11.96547679667435" cy="11.931894331166005"></circle><circle class="pearl" r="2.190433937142651" cx="6.158200328268832" cy="17.193284584921475"></circle><circle class="pearl" r="2.190433937142651" cx="9.769797867564728" cy="4.795982221391332"></circle><circle class="pearl" r="2.190433937142651" cx="17.02756875942526" cy="17.20060134633356"></circle><circle class="pearl" r="2.190433937142651" cx="4.784021842645789" cy="9.846300283560467"></circle><circle class="pearl" r="2.190433937142651" cx="17.13685428632066" cy="6.0575769871249285"></circle></g><g class="bobaCup bright" cupRadius="11.14278641496752" width="22.28557282993504" height="22.28557282993504" pearlRadius="2.7380424214283146" pearlCount="6" transform="translate(26.692547933584652,145.96904754756622)"><circle class="pool" r="11.14278641496752" cx="11.14278641496752" cy="11.14278641496752" style="stroke-width: 1; fill: rgb(29, 145, 192);"></circle><circle class="pearl" r="2.1904339371426516" cx="11.598422288445164" cy="11.510229611987263"></circle><circle class="pearl" r="2.1904339371426516" cx="6.137382180478828" cy="16.447344073390404"></circle><circle class="pearl" r="2.1904339371426516" cx="9.279599240721657" cy="4.80759945624368"></circle><circle class="pearl" r="2.1904339371426516" cx="16.13655543623" cy="16.453185615714528"></circle><circle class="pearl" r="2.1904339371426516" cx="4.765929464198369" cy="9.54461105606379"></circle><circle class="pearl" r="2.1904339371426516" cx="16.263422502996146" cy="5.897006465973127"></circle></g><g class="bobaCup bright" cupRadius="11.116764327879709" width="22.233528655759418" height="22.233528655759418" pearlRadius="2.738042421428314" pearlCount="6" transform="translate(236.8868170198232,74.4441613592766)"><circle class="pool" r="11.116764327879709" cx="11.116764327879709" cy="11.116764327879709" style="stroke-width: 1; fill: rgb(127, 205, 187);"></circle><circle class="pearl" r="2.1904339371426516" cx="11.578315383728498" cy="11.485734070148423"></circle><circle class="pearl" r="2.1904339371426516" cx="6.136475244332532" cy="16.40481213832143"></circle><circle class="pearl" r="2.1904339371426516" cx="9.251045499660963" cy="4.808402632258954"></circle><circle class="pearl" r="2.1904339371426516" cx="16.085733194912944" cy="16.410476604659003"></circle><circle class="pearl" r="2.1904339371426516" cx="4.764800455396893" cy="9.528266396524154"></circle><circle class="pearl" r="2.1904339371426516" cx="16.213456575043466" cy="5.88790369581579"></circle></g><g class="bobaCup bright" cupRadius="11.054301961827079" width="22.108603923654158" height="22.108603923654158" pearlRadius="2.7380424214283132" pearlCount="6" transform="translate(308.9456980381729,253.9854102737828)"><circle class="pool" r="11.054301961827079" cx="11.054301961827079" cy="11.054301961827079" style="stroke-width: 1; fill: rgb(29, 145, 192);"></circle><circle class="pearl" r="2.1904339371426507" cx="11.530455311241193" cy="11.42668361597127"></circle><circle class="pearl" r="2.1904339371426507" cx="6.134319160079234" cy="16.302637329595317"></circle><circle class="pearl" r="2.1904339371426507" cx="9.18220826856182" cy="4.810400044626031"></circle><circle class="pearl" r="2.1904339371426507" cx="15.963689235428735" cy="16.307896400872078"></circle><circle class="pearl" r="2.1904339371426507" cx="4.762052378153176" cy="9.489393691761048"></circle><circle class="pearl" r="2.1904339371426507" cx="16.093400252726443" cy="5.8660679144512295"></circle></g><g class="bobaCup bright" cupRadius="10.85929376626165" width="21.7185875325233" height="21.7185875325233" pearlRadius="2.7380424214283132" pearlCount="5" transform="translate(118.03977103152585,176.7852131413216)"><circle class="pool" r="10.85929376626165" cx="10.85929376626165" cy="10.85929376626165" style="stroke-width: 1; fill: rgb(127, 205, 187);"></circle><circle class="pearl" r="2.1904339371426507" cx="16.719025132276915" cy="8.128981454985182"></circle><circle class="pearl" r="2.1904339371426507" cx="8.03136897161137" cy="16.693183189466087"></circle><circle class="pearl" r="2.1904339371426507" cx="10.03643562635276" cy="4.681943962960681"></circle><circle class="pearl" r="2.1904339371426507" cx="15.815624421734544" cy="15.870819113233878"></circle><circle class="pearl" r="2.1904339371426507" cx="4.68931854611946" cy="9.944555451778598"></circle></g><g class="bobaCup bright" cupRadius="10.779536762640511" width="21.559073525281022" height="21.559073525281022" pearlRadius="2.7380424214283137" pearlCount="5" transform="translate(275.0226792375853,281.45813388676714)"><circle class="pool" r="10.779536762640511" cx="10.779536762640511" cy="10.779536762640511" style="stroke-width: 1; fill: rgb(127, 205, 187);"></circle><circle class="pearl" r="2.190433937142651" cx="16.555665410268492" cy="8.04472913340545"></circle><circle class="pearl" r="2.190433937142651" cx="7.91753915407831" cy="16.521473564384213"></circle><circle class="pearl" r="2.190433937142651" cx="9.966321040963207" cy="4.681441776768898"></circle><circle class="pearl" r="2.190433937142651" cx="15.667432991252713" cy="15.736460658908936"></circle><circle class="pearl" r="2.190433937142651" cx="4.691522474414011" cy="9.84255791419071"></circle></g><g class="bobaCup bright" cupRadius="10.617501054207759" width="21.235002108415518" height="21.235002108415518" pearlRadius="2.738042421428314" pearlCount="5" transform="translate(94.64725257679355,130.87325096222105)"><circle class="pool" r="10.617501054207759" cx="10.617501054207759" cy="10.617501054207759" style="stroke-width: 1; fill: rgb(29, 145, 192);"></circle><circle class="pearl" r="2.1904339371426516" cx="16.224488576669597" cy="7.876935640967917"></circle><circle class="pearl" r="2.1904339371426516" cx="7.679473619258488" cy="16.169685422375377"></circle><circle class="pearl" r="2.1904339371426516" cx="9.832338604727532" cy="4.67979434420773"></circle><circle class="pearl" r="2.1904339371426516" cx="15.36576428184123" cy="15.463373265961941"></circle><circle class="pearl" r="2.1904339371426516" cx="4.697027641653966" cy="9.626980882392475"></circle></g><g class="bobaCup bright" cupRadius="10.561288822986306" width="21.122577645972612" height="21.122577645972612" pearlRadius="2.738042421428314" pearlCount="5" transform="translate(156.87730530024118,68.50255877217069)"><circle class="pool" r="10.561288822986306" cx="10.561288822986306" cy="10.561288822986306" style="stroke-width: 1; fill: rgb(65, 182, 196);"></circle><circle class="pearl" r="2.1904339371426516" cx="16.10995439292741" cy="7.820250746030868"></circle><circle class="pearl" r="2.1904339371426516" cx="7.594199238022681" cy="16.046501712867027"></circle><circle class="pearl" r="2.1904339371426516" cx="9.789304997879807" cy="4.678975330064894"></circle><circle class="pearl" r="2.1904339371426516" cx="15.260846854856123" cy="15.368629662057362"></circle><circle class="pearl" r="2.1904339371426516" cx="4.699367679696236" cy="9.548801828841963"></circle></g><g class="bobaCup bright" cupRadius="10.498617741867589" width="20.997235483735178" height="20.997235483735178" pearlRadius="2.7380424214283132" pearlCount="5" transform="translate(26.545535619311536,42.04722185782383)"><circle class="pool" r="10.498617741867589" cx="10.498617741867589" cy="10.498617741867589" style="stroke-width: 1; fill: rgb(29, 145, 192);"></circle><circle class="pearl" r="2.1904339371426507" cx="15.982587103832927" cy="7.7583658218458105"></circle><circle class="pearl" r="2.1904339371426507" cx="7.497057612799225" cy="15.908292680438997"></circle><circle class="pearl" r="2.1904339371426507" cx="9.74406009347997" cy="4.677874156036945"></circle><circle class="pearl" r="2.1904339371426507" cx="15.143650456947146" cy="15.263023060783127"></circle><circle class="pearl" r="2.1904339371426507" cx="4.70232786904591" cy="9.458958302827638"></circle></g><g class="bobaCup bright" cupRadius="10.437576784039821" width="20.875153568079643" height="20.875153568079643" pearlRadius="2.7380424214283137" pearlCount="5" transform="translate(122.94644196522593,129.13111256287502)"><circle class="pool" r="10.437576784039821" cx="10.437576784039821" cy="10.437576784039821" style="stroke-width: 1; fill: rgb(65, 182, 196);"></circle><circle class="pearl" r="2.190433937142651" cx="15.858968901810446" cy="7.699785416401496"></circle><circle class="pearl" r="2.190433937142651" cx="7.399951661374887" cy="15.772635584778303"></circle><circle class="pearl" r="2.190433937142651" cx="9.70334962991448" cy="4.67657971244571"></circle><circle class="pearl" r="2.190433937142651" cx="15.029216695089115" cy="15.16021218778332"></circle><circle class="pearl" r="2.190433937142651" cx="4.70565242983338" cy="9.368166528538662"></circle></g><g class="bobaCup bright" cupRadius="10.188795498268723" width="20.377590996537446" height="20.377590996537446" pearlRadius="2.738042421428314" pearlCount="5" transform="translate(286.327481650779,99.0714491572173)"><circle class="pool" r="10.188795498268723" cx="10.188795498268723" cy="10.188795498268723" style="stroke-width: 1; fill: rgb(29, 145, 192);"></circle><circle class="pearl" r="2.1904339371426516" cx="15.363556359216656" cy="7.492239155050648"></circle><circle class="pearl" r="2.1904339371426516" cx="6.964710393488709" cy="15.203310442793875"></circle><circle class="pearl" r="2.1904339371426516" cx="9.593363030180909" cy="4.668136624023699"></circle><circle class="pearl" r="2.1904339371426516" cx="14.55769143111445" cy="14.74265276168667"></circle><circle class="pearl" r="2.1904339371426516" cx="4.72706149702144" cy="8.943900932196879"></circle></g><g class="bobaCup bright" cupRadius="10.18436515865239" width="20.36873031730478" height="20.36873031730478" pearlRadius="2.7380424214283132" pearlCount="5" transform="translate(219.72483580504397,166.61105746700608)"><circle class="pool" r="10.18436515865239" cx="10.18436515865239" cy="10.18436515865239" style="stroke-width: 1; fill: rgb(65, 182, 196);"></circle><circle class="pearl" r="2.1904339371426507" cx="15.354937854743213" cy="7.489288156970966"></circle><circle class="pearl" r="2.1904339371426507" cx="6.956107089523316" cy="15.192815990210658"></circle><circle class="pearl" r="2.1904339371426507" cx="9.592660058240376" cy="4.667926602392904"></circle><circle class="pearl" r="2.1904339371426507" cx="14.549173945024226" cy="14.7352579807098"></circle><circle class="pearl" r="2.1904339371426507" cx="4.727629389432415" cy="8.935138881012792"></circle></g><g class="bobaCup bright" cupRadius="10.16367212840687" width="20.32734425681374" height="20.32734425681374" pearlRadius="2.7380424214283137" pearlCount="5" transform="translate(184.1619593287205,251.55639434295398)"><circle class="pool" r="10.16367212840687" cx="10.16367212840687" cy="10.16367212840687" style="stroke-width: 1; fill: rgb(29, 145, 192);"></circle><circle class="pearl" r="2.190433937142651" cx="15.314830304531743" cy="7.476042678123556"></circle><circle class="pearl" r="2.190433937142651" cx="6.9153527010510185" cy="15.143559058679156"></circle><circle class="pearl" r="2.190433937142651" cx="9.590245101056084" cy="4.666912290815278"></circle><circle class="pearl" r="2.190433937142651" cx="14.509305089930411" cy="14.700750883851043"></circle><circle class="pearl" r="2.190433937142651" cx="4.730417691242986" cy="8.89338650276476"></circle></g><g class="bobaCup bright" cupRadius="10.13184454794409" width="20.26368909588818" height="20.26368909588818" pearlRadius="2.7380424214283137" pearlCount="5" transform="translate(20.30175684991648,69.85475824899878)"><circle class="pool" r="10.13184454794409" cx="10.13184454794409" cy="10.13184454794409" style="stroke-width: 1; fill: rgb(127, 205, 187);"></circle><circle class="pearl" r="2.190433937142651" cx="15.253670731893514" cy="7.457605979014717"></circle><circle class="pearl" r="2.190433937142651" cx="6.850655720071352" cy="15.066948034870602"></circle><circle class="pearl" r="2.190433937142651" cx="9.589624211770245" cy="4.665242485177355"></circle><circle class="pearl" r="2.190433937142651" cx="14.447676124776162" cy="14.64779311147528"></circle><circle class="pearl" r="2.190433937142651" cx="4.735197617614373" cy="8.826230962791858"></circle></g><g class="bobaCup bright" cupRadius="9.68655024008563" width="19.37310048017126" height="19.37310048017126" pearlRadius="2.7380424214283137" pearlCount="4" transform="translate(10.31344975991437,34.367275513568046)"><circle class="pool" r="9.68655024008563" cx="9.68655024008563" cy="9.68655024008563" style="stroke-width: 1; fill: rgb(127, 205, 187);"></circle><circle class="pearl" r="2.190433937142651" cx="14.00361466270143" cy="6.024851154016024"></circle><circle class="pearl" r="2.190433937142651" cx="5.402015835493928" cy="13.33494425916178"></circle><circle class="pearl" r="2.190433937142651" cx="6.035805037925091" cy="5.365020963148146"></circle><circle class="pearl" r="2.190433937142651" cx="13.369825460270278" cy="13.99477445002967"></circle></g><g class="bobaCup bright" cupRadius="9.641991452954011" width="19.283982905908022" height="19.283982905908022" pearlRadius="2.7380424214283146" pearlCount="4" transform="translate(218.68635928675246,290.358008547046)"><circle class="pool" r="9.641991452954011" cx="9.641991452954011" cy="9.641991452954011" style="stroke-width: 1; fill: rgb(127, 205, 187);"></circle><circle class="pearl" r="2.1904339371426516" cx="13.875536178163493" cy="5.895288621894967"></circle><circle class="pearl" r="2.1904339371426516" cx="5.40844672774453" cy="13.388694284013056"></circle><circle class="pearl" r="2.1904339371426516" cx="5.8952886218949665" cy="5.40844672774453"></circle><circle class="pearl" r="2.1904339371426516" cx="13.388694284013056" cy="13.875536178163493"></circle></g><g class="bobaCup bright" cupRadius="9.513628874593502" width="19.027257749187005" height="19.027257749187005" pearlRadius="2.7380424214283137" pearlCount="4" transform="translate(47.55244616733201,39.37912918093651)"><circle class="pool" r="9.513628874593502" cx="9.513628874593502" cy="9.513628874593502" style="stroke-width: 1; fill: rgb(65, 182, 196);"></circle><circle class="pearl" r="2.190433937142651" cx="13.498306366945915" cy="5.525400798437877"></circle><circle class="pearl" r="2.190433937142651" cx="5.528949546579788" cy="13.501856104058358"></circle><circle class="pearl" r="2.190433937142651" cx="5.528952164864098" cy="5.5254004374565735"></circle><circle class="pearl" r="2.190433937142651" cx="13.498303748657985" cy="13.501858158422195"></circle></g><g class="bobaCup bright" cupRadius="9.439284278334503" width="18.878568556669006" height="18.878568556669006" pearlRadius="2.738042421428313" pearlCount="4" transform="translate(218.2903823311859,31.837627060386524)"><circle class="pool" r="9.439284278334503" cx="9.439284278334503" cy="9.439284278334503" style="stroke-width: 1; fill: rgb(65, 182, 196);"></circle><circle class="pearl" r="2.1904339371426502" cx="13.354958822890696" cy="5.5012019701427715"></circle><circle class="pearl" r="2.1904339371426502" cx="5.5235339758780135" cy="13.377332047759863"></circle><circle class="pearl" r="2.1904339371426502" cx="5.52364213362743" cy="5.501187198981643"></circle><circle class="pearl" r="2.1904339371426502" cx="13.354850658944327" cy="13.377415898126559"></circle></g><g class="bobaCup bright" cupRadius="9.252847069436012" width="18.505694138872023" height="18.505694138872023" pearlRadius="2.7380424214283137" pearlCount="4" transform="translate(187.1542462226057,94.59681325073144)"><circle class="pool" r="9.252847069436012" cx="9.252847069436012" cy="9.252847069436012" style="stroke-width: 1; fill: rgb(29, 145, 192);"></circle><circle class="pearl" r="2.190433937142651" cx="12.995921249132689" cy="5.44162167043563"></circle><circle class="pearl" r="2.190433937142651" cx="5.509004906087718" cy="13.063732715441095"></circle><circle class="pearl" r="2.190433937142651" cx="5.510104125073852" cy="5.441475158929666"></circle><circle class="pearl" r="2.190433937142651" cx="12.994821384783545" cy="13.064558899029329"></circle></g><g class="bobaCup bright" cupRadius="9.246273494316288" width="18.492546988632576" height="18.492546988632576" pearlRadius="2.7380424214283137" pearlCount="4" transform="translate(41.137710846021804,38.72586060762002)"><circle class="pool" r="9.246273494316288" cx="9.246273494316288" cy="9.246273494316288" style="stroke-width: 1; fill: rgb(127, 205, 187);"></circle><circle class="pearl" r="2.190433937142651" cx="12.983273978702723" cy="5.4395502458831295"></circle><circle class="pearl" r="2.190433937142651" cx="5.508466545737766" cy="13.052640353172084"></circle><circle class="pearl" r="2.190433937142651" cx="5.5096209517316" cy="5.439396513153449"></circle><circle class="pearl" r="2.190433937142651" cx="12.982118860697344" cy="13.05350704798198"></circle></g><g class="bobaCup bright" cupRadius="9.219992893389769" width="18.439985786779538" height="18.439985786779538" pearlRadius="2.7380424214283137" pearlCount="4" transform="translate(64.28693638173964,245.48457707192037)"><circle class="pool" r="9.219992893389769" cx="9.219992893389769" cy="9.219992893389769" style="stroke-width: 1; fill: rgb(29, 145, 192);"></circle><circle class="pearl" r="2.190433937142651" cx="12.932719714361955" cy="5.431289097156883"></circle><circle class="pearl" r="2.190433937142651" cx="5.506295692218192" cy="13.00826972715831"></circle><circle class="pearl" r="2.190433937142651" cx="5.507685267116527" cy="5.43110469476402"></circle><circle class="pearl" r="2.190433937142651" cx="12.931329106520192" cy="13.009308318004141"></circle></g><g class="bobaCup bright" cupRadius="8.804555369215485" width="17.60911073843097" height="17.60911073843097" pearlRadius="2.7380424214283137" pearlCount="3" transform="translate(86.98072451259958,98.0983988231967)"><circle class="pool" r="8.804555369215485" cx="8.804555369215485" cy="8.804555369215485" style="stroke-width: 1; fill: rgb(127, 205, 187);"></circle><circle class="pearl" r="2.190433937142651" cx="12.896857884906403" cy="10.232073435905965"></circle><circle class="pearl" r="2.190433937142651" cx="4.993345846593536" cy="11.889573021775037"></circle><circle class="pearl" r="2.190433937142651" cx="8.339581731097905" cy="3.663009563831972"></circle></g><g class="bobaCup bright" cupRadius="8.521671477817465" width="17.04334295563493" height="17.04334295563493" pearlRadius="2.738042421428314" pearlCount="3" transform="translate(103.25124955640479,96.80904537330939)"><circle class="pool" r="8.521671477817465" cx="8.521671477817465" cy="8.521671477817465" style="stroke-width: 1; fill: rgb(29, 145, 192);"></circle><circle class="pearl" r="2.1904339371426516" cx="12.72028108982182" cy="10.065459573654614"></circle><circle class="pearl" r="2.1904339371426516" cx="4.749682123715492" cy="11.53019371734965"></circle><circle class="pearl" r="2.1904339371426516" cx="7.919745001867902" cy="3.672008286148666"></circle></g><g class="bobaCup bright" cupRadius="8.393531286558396" width="16.787062573116792" height="16.787062573116792" pearlRadius="2.7380424214283132" pearlCount="3" transform="translate(187.01816038655173,120.40639134930503)"><circle class="pool" r="8.393531286558396" cx="8.393531286558396" cy="8.393531286558396" style="stroke-width: 1; fill: rgb(29, 145, 192);"></circle><circle class="pearl" r="2.1904339371426507" cx="12.639548045740629" cy="9.986591930660216"></circle><circle class="pearl" r="2.1904339371426507" cx="4.640377031174526" cy="11.367174904054751"></circle><circle class="pearl" r="2.1904339371426507" cx="7.7292465918678515" cy="3.6770510813151374"></circle></g><g class="bobaCup bright" cupRadius="7.6213973866351905" width="15.242794773270381" height="15.242794773270381" pearlRadius="2.7380424214283137" pearlCount="2" transform="translate(225.0288211119354,67.46199103530974)"><circle class="pool" r="7.6213973866351905" cx="7.6213973866351905" cy="7.6213973866351905" style="stroke-width: 1; fill: rgb(29, 145, 192);"></circle><circle class="pearl" r="2.190433937142651" cx="11.28984666498932" cy="6.851357189172286"></circle><circle class="pearl" r="2.190433937142651" cx="4.376166921133824" cy="10.866627852136558"></circle></g><g class="bobaCup bright" cupRadius="7.521678082447857" width="15.043356164895714" height="15.043356164895714" pearlRadius="2.738042421428314" pearlCount="2" transform="translate(213.32696572011386,143.84003426563436)"><circle class="pool" r="7.521678082447857" cx="7.521678082447857" cy="7.521678082447857" style="stroke-width: 1; fill: rgb(127, 205, 187);"></circle><circle class="pearl" r="2.1904339371426516" cx="11.267817537363381" cy="6.681255900320021"></circle><circle class="pearl" r="2.1904339371426516" cx="4.351454088911119" cy="10.691902075984597"></circle></g><g class="bobaCup bright" cupRadius="6.676479966553996" width="13.352959933107991" height="13.352959933107991" pearlRadius="2.738042421428314" pearlCount="2" transform="translate(50.89657888184047,89.93090801897688)"><circle class="pool" r="6.676479966553996" cx="6.676479966553996" cy="6.676479966553996" style="stroke-width: 1; fill: rgb(127, 205, 187);"></circle><circle class="pearl" r="2.1904339371426516" cx="9.130332960043344" cy="4.1180172396120565"></circle><circle class="pearl" r="2.1904339371426516" cx="4.2226269730646475" cy="9.234942693495935"></circle></g><g class="bobaCup bright" cupRadius="6.663179786688583" width="13.326359573377166" height="13.326359573377166" pearlRadius="2.7380424214283137" pearlCount="2" transform="translate(127.5250180397643,160.50455585114548)"><circle class="pool" r="6.663179786688583" cx="6.663179786688583" cy="6.663179786688583" style="stroke-width: 1; fill: rgb(29, 145, 192);"></circle><circle class="pearl" r="2.190433937142651" cx="9.104355126558932" cy="4.114013675138814"></circle><circle class="pearl" r="2.190433937142651" cx="4.222004446818235" cy="9.212345898238352"></circle></g><g class="bobaCup bright" cupRadius="5.727583505782784" width="11.455167011565567" height="11.455167011565567" pearlRadius="2.7380424214283137" pearlCount="1" transform="translate(186.79880032571873,149.2668444034569)"><circle class="pool" r="5.727583505782784" cx="5.727583505782784" cy="5.727583505782784" style="stroke-width: 1; fill: rgb(65, 182, 196);"></circle><circle class="pearl" r="2.190433937142651" cx="7.649333299767175" cy="5.727583505782784"></circle></g><g class="bobaCup bright" cupRadius="4.502368598312473" width="9.004737196624946" height="9.004737196624946" pearlRadius="2.7380424214283137" pearlCount="1" transform="translate(259.3607824836104,143.87678343963395)"><circle class="pool" r="4.502368598312473" cx="4.502368598312473" cy="4.502368598312473" style="stroke-width: 1; fill: rgb(65, 182, 196);"></circle><circle class="pearl" r="2.190433937142651" cx="5.354013968053861" cy="4.502368598312473"></circle></g><g class="bobaCup bright" cupRadius="4.1848194499655955" width="8.369638899931191" height="8.369638899931191" pearlRadius="2.738042421428314" pearlCount="0" transform="translate(245.56547924026376,189.68406895341914)"><circle class="pool" r="4.1848194499655955" cx="4.1848194499655955" cy="4.1848194499655955" style="stroke-width: 1; fill: rgb(29, 145, 192);"></circle></g><g class="bobaCup bright" cupRadius="3.7123922707502137" width="7.424784541500427" height="7.424784541500427" pearlRadius="2.7380424214283137" pearlCount="0" transform="translate(172.45059026857996,103.00283550618164)"><circle class="pool" r="3.7123922707502137" cx="3.7123922707502137" cy="3.7123922707502137" style="stroke-width: 1; fill: rgb(29, 145, 192);"></circle></g><g class="bobaCup bright" cupRadius="2.8556943078302637" width="5.711388615660527" height="5.711388615660527" pearlRadius="2.7380424214283132" pearlCount="0" transform="translate(274.5451131588587,197.11493071881208)"><circle class="pool" r="2.8556943078302637" cx="2.8556943078302637" cy="2.8556943078302637" style="stroke-width: 1; fill: rgb(127, 205, 187);"></circle></g><g class="bobaCup bright" cupRadius="2.091218670433967" width="4.182437340867934" height="4.182437340867934" pearlRadius="2.7380424214283132" pearlCount="0" transform="translate(315.8882762334029,43.17323622817073)"><circle class="pool" r="2.091218670433967" cx="2.091218670433967" cy="2.091218670433967" style="stroke-width: 1; fill: rgb(29, 145, 192);"></circle></g><g class="bobaCup bright" cupRadius="0.6036930288876229" width="1.2073860577752458" height="1.2073860577752458" pearlRadius="2.7380424214283137" pearlCount="0" transform="translate(188.00950945896128,88.67027250151048)"><circle class="pool" r="0.6036930288876229" cx="0.6036930288876229" cy="0.6036930288876229" style="stroke-width: 1; fill: rgb(127, 205, 187);"></circle></g><g class="bobaCup bright" cupRadius="0" width="0" height="0" pearlRadius="NaN" pearlCount="0" transform="translate(32.05880612365611,54.97263181471207)"><circle class="pool" r="0" cx="0" cy="0" style="stroke-width: 1; fill: rgb(127, 205, 187);"></circle></g></g><g id="legendDividerGroup" transform="translate(410,0)" height="400"><rect class="legendDivider" height="400" width="90"></rect></g><g id="legend" transform="translate(410,19.390781473893156)" width="90" height="320"><rect class="legendBorder" transform="translate(0,0)" width="90" height="341.2184370522137"></rect><text id="rTitle" text-anchor="middle" alignment-baseline="hanging" transform="translate(45,0)" x="0" y="0" style="fill: black; font-size: 0.8rem;">Population</text><text id="bobaValue" text-anchor="middle" alignment-baseline="hanging" transform="translate(45,15)" x="0" y="0" style="fill: black; font-size: 0.7rem;">(1 Pearl =   75)</text><g class="bright" cupRadius="0.6036930288876229" width="1.2073860577752458" height="1.2073860577752458" pearlRadius="2.7380424214283137" pearlCount="0" transform="translate(44.396306971112374,39.99999999999999)"><circle class="pool" r="0.6036930288876229" cx="0.6036930288876229" cy="0.6036930288876229" style="stroke-width: 1; fill: rgb(65, 182, 196);"></circle></g><text id="0" class="legendSampleValue" text-anchor="middle" transform="translate(45,8)" x="0" y="46.207386057775246" style="fill: black; font-size: 0.7rem;"> 1.4</text><g class="bright" cupRadius="8.960555575325785" width="17.92111115065157" height="17.92111115065157" pearlRadius="2.7380424214283137" pearlCount="4" transform="translate(36.039444424674215,66.20738605777525)"><circle class="pool" r="8.960555575325785" cx="8.960555575325785" cy="8.960555575325785" style="stroke-width: 1; fill: rgb(65, 182, 196);"></circle><circle class="pearl" r="2.190433937142651" cx="12.434419684947041" cy="5.35150735630903"></circle><circle class="pearl" r="2.190433937142651" cx="5.4831763456678875" cy="12.5681245377374"></circle><circle class="pearl" r="2.190433937142651" cx="5.488230848707989" cy="5.350860097110834"></circle><circle class="pearl" r="2.190433937142651" cx="12.429351327749387" cy="12.571733595648322"></circle></g><text id="1" class="legendSampleValue" text-anchor="middle" transform="translate(45,8)" x="0" y="89.12849720842681" style="fill: black; font-size: 0.7rem;"> 300</text><g class="bright" cupRadius="12.657751268052177" width="25.315502536104354" height="25.315502536104354" pearlRadius="2.7380424214283132" pearlCount="8" transform="translate(32.34224873194782,109.12849720842681)"><circle class="pool" r="12.657751268052177" cx="12.657751268052177" cy="12.657751268052177" style="stroke-width: 1; fill: rgb(65, 182, 196);"></circle><circle class="pearl" r="2.1904339371426507" cx="13.143805801108691" cy="12.75681570531858"></circle><circle class="pearl" r="2.1904339371426507" cx="6.693869320416472" cy="19.17173937827268"></circle><circle class="pearl" r="2.1904339371426507" cx="13.946051710043456" cy="4.716455233016588"></circle><circle class="pearl" r="2.1904339371426507" cx="20.123381209743396" cy="16.320080174274437"></circle><circle class="pearl" r="2.1904339371426507" cx="4.656218619921222" cy="13.030696832894012"></circle><circle class="pearl" r="2.1904339371426507" cx="19.949855379971524" cy="8.46400088455166"></circle><circle class="pearl" r="2.1904339371426507" cx="14.097561675999017" cy="20.582623975779477"></circle><circle class="pearl" r="2.1904339371426507" cx="6.686750511134165" cy="6.1475687482191015"></circle></g><text id="2" class="legendSampleValue" text-anchor="middle" transform="translate(45,8)" x="0" y="139.44399974453117" style="fill: black; font-size: 0.7rem;"> 600</text><g class="bright" cupRadius="15.496637638831562" width="30.993275277663123" height="30.993275277663123" pearlRadius="2.738042421428314" pearlCount="12" transform="translate(29.50336236116844,159.44399974453117)"><circle class="pool" r="15.496637638831562" cx="15.496637638831562" cy="15.496637638831562" style="stroke-width: 1; fill: rgb(65, 182, 196);"></circle><circle class="pearl" r="2.1904339371426516" cx="17.597850699889435" cy="11.134960395881153"></circle><circle class="pearl" r="2.1904339371426516" cx="11.490535921318669" cy="15.98364897478907"></circle><circle class="pearl" r="2.1904339371426516" cx="14.516182676280858" cy="4.681770475320592"></circle><circle class="pearl" r="2.1904339371426516" cx="18.184986500709932" cy="18.43090294295462"></circle><circle class="pearl" r="2.1904339371426516" cx="4.716175082876232" cy="14.073864504181865"></circle><circle class="pearl" r="2.1904339371426516" cx="26.29288652197" cy="14.256947883562436"></circle><circle class="pearl" r="2.1904339371426516" cx="11.916634693774382" cy="25.923359718489355"></circle><circle class="pearl" r="2.1904339371426516" cx="7.2275536532498705" cy="7.041330646597894"></circle><circle class="pearl" r="2.1904339371426516" cx="24.927380993113136" cy="21.966419473271948"></circle><circle class="pearl" r="2.1904339371426516" cx="5.881005637790826" cy="21.54782649489766"></circle><circle class="pearl" r="2.1904339371426516" cx="23.715150886064993" cy="7.009559753277816"></circle><circle class="pearl" r="2.1904339371426516" cx="19.470870847532453" cy="25.824273750058346"></circle></g><text id="3" class="legendSampleValue" text-anchor="middle" transform="translate(45,8)" x="0" y="195.43727502219429" style="fill: black; font-size: 0.7rem;"> 900</text><g class="bright" cupRadius="17.890581015009698" width="35.781162030019395" height="35.781162030019395" pearlRadius="2.7380424214283132" pearlCount="16" transform="translate(27.109418984990302,215.43727502219429)"><circle class="pool" r="17.890581015009698" cx="17.890581015009698" cy="17.890581015009698" style="stroke-width: 1; fill: rgb(65, 182, 196);"></circle><circle class="pearl" r="2.1904339371426507" cx="18.619272202670725" cy="18.680126743934238"></circle><circle class="pearl" r="2.1904339371426507" cx="13.474415460959094" cy="23.456724281236262"></circle><circle class="pearl" r="2.1904339371426507" cx="16.365686280115163" cy="11.274244652939387"></circle><circle class="pearl" r="2.1904339371426507" cx="20.593864073578967" cy="26.079080128870533"></circle><circle class="pearl" r="2.1904339371426507" cx="10.997599359633929" cy="16.60946574764793"></circle><circle class="pearl" r="2.1904339371426507" cx="23.22608001760608" cy="13.421173158269884"></circle><circle class="pearl" r="2.1904339371426507" cx="14.973047953574355" cy="30.89094528523191"></circle><circle class="pearl" r="2.1904339371426507" cx="11.370583556051445" cy="5.881096496082452"></circle><circle class="pearl" r="2.1904339371426507" cx="26.228773498353736" cy="20.636663385894717"></circle><circle class="pearl" r="2.1904339371426507" cx="5.0320976134668625" cy="21.564893500169365"></circle><circle class="pearl" r="2.1904339371426507" cx="27.603810241016443" cy="7.517121501824948"></circle><circle class="pearl" r="2.1904339371426507" cx="27.869350202043027" cy="28.089001013121415"></circle><circle class="pearl" r="2.1904339371426507" cx="6.16153738265541" cy="10.695018032424082"></circle><circle class="pearl" r="2.1904339371426507" cx="30.839318362090804" cy="14.67625736909448"></circle><circle class="pearl" r="2.1904339371426507" cx="8.234904133763319" cy="28.301092563826213"></circle><circle class="pearl" r="2.1904339371426507" cx="20.594880443266863" cy="4.856292124360919"></circle></g><text id="4" class="legendSampleValue" text-anchor="middle" transform="translate(45,8)" x="0" y="256.2184370522137" style="fill: black; font-size: 0.7rem;">1.2k</text><g class="bright" cupRadius="20" width="40" height="40" pearlRadius="2.7380424214283137" pearlCount="20" transform="translate(25,276.2184370522137)"><circle class="pool" r="20" cx="20" cy="20" style="stroke-width: 1; fill: rgb(65, 182, 196);"></circle><circle class="pearl" r="2.190433937142651" cx="20.803317911356498" cy="19.852362298934615"></circle><circle class="pearl" r="2.190433937142651" cx="12.399118369231148" cy="22.318129073543428"></circle><circle class="pearl" r="2.190433937142651" cx="20.14107886386132" cy="11.690576671380018"></circle><circle class="pearl" r="2.190433937142651" cx="25.351645945468196" cy="26.426489948513225"></circle><circle class="pearl" r="2.190433937142651" cx="5.45555413244983" cy="14.383463400696877"></circle><circle class="pearl" r="2.190433937142651" cx="27.007002384921414" cy="14.812215198670392"></circle><circle class="pearl" r="2.190433937142651" cx="17.669394065840073" cy="27.98572181627974"></circle><circle class="pearl" r="2.190433937142651" cx="13.075316060454844" cy="14.529673081448232"></circle><circle class="pearl" r="2.190433937142651" cx="31.363412690087696" cy="21.539471699750266"></circle><circle class="pearl" r="2.190433937142651" cx="6.986823167406808" cy="29.380119115938808"></circle><circle class="pearl" r="2.190433937142651" cx="24.195863946736896" cy="5.095807587217031"></circle><circle class="pearl" r="2.190433937142651" cx="27.929986347293504" cy="33.70997709935047"></circle><circle class="pearl" r="2.190433937142651" cx="8.960309851298339" cy="7.973635910317352"></circle><circle class="pearl" r="2.190433937142651" cx="34.68553340637696" cy="14.890285786129768"></circle><circle class="pearl" r="2.190433937142651" cx="12.548559824642552" cy="33.90934248556552"></circle><circle class="pearl" r="2.190433937142651" cx="16.437930987710008" cy="4.970487855189916"></circle><circle class="pearl" r="2.190433937142651" cx="33.26719371328966" cy="28.885282914155283"></circle><circle class="pearl" r="2.190433937142651" cx="4.745924110358729" cy="21.949095191008542"></circle><circle class="pearl" r="2.190433937142651" cx="31.34694409707199" cy="8.181149473979769"></circle><circle class="pearl" r="2.190433937142651" cx="20.521343379892976" cy="35.34248064375117"></circle></g><text id="5" class="legendSampleValue" text-anchor="middle" transform="translate(45,8)" x="0" y="321.2184370522137" style="fill: black; font-size: 0.7rem;">1.5k</text><text id="coloringDisclaimer" transform="translate(45,8)" text-anchor="middle" x="0" y="336.2184370522137" style="font-size: 0.7rem; opacity: 0.6;">(note: coloring</text><text id="coloringDisclaimer" transform="translate(45,8)" text-anchor="middle" x="0" y="351.2184370522137" style="font-size: 0.7rem; opacity: 0.6;">is random)</text></g></svg>