<?xml version="1.0" standalone="no"?>
<?xml-stylesheet xmlns="http://www.w3.org/2000/svg" type="text/css" href="style.css"?>
<svg id="syntheticVisB" class="default" xTitle="Percent Cat Owners" yTitle="Percent Dog Owners" rTitle="Population" chartTitle="Towns in Vizzyland" width="500" height="400" xmlns="http://www.w3.org/2000/svg"><text id="chartTitle" text-anchor="middle" transform="translate(250,20)" x="0" y="0" style="fill: black; font-size: 1.2rem;">Towns in Vizzyland</text><g id="yAxis" transform="translate(50,30)" fill="none" font-size="10" font-family="sans-serif" text-anchor="end"><path class="domain" stroke="currentColor" d="M-6,300H0V20H-6"></path><g class="tick" opacity="1" transform="translate(0,300)"><line stroke="currentColor" x2="-6"></line><text fill="currentColor" x="-9" dy="0.32em">0</text></g><g class="tick" opacity="1" transform="translate(0,272)"><line stroke="currentColor" x2="-6"></line><text fill="currentColor" x="-9" dy="0.32em">10</text></g><g class="tick" opacity="1" transform="translate(0,244)"><line stroke="currentColor" x2="-6"></line><text fill="currentColor" x="-9" dy="0.32em">20</text></g><g class="tick" opacity="1" transform="translate(0,216)"><line stroke="currentColor" x2="-6"></line><text fill="currentColor" x="-9" dy="0.32em">30</text></g><g class="tick" opacity="1" transform="translate(0,188)"><line stroke="currentColor" x2="-6"></line><text fill="currentColor" x="-9" dy="0.32em">40</text></g><g class="tick" opacity="1" transform="translate(0,160)"><line stroke="currentColor" x2="-6"></line><text fill="currentColor" x="-9" dy="0.32em">50</text></g><g class="tick" opacity="1" transform="translate(0,132)"><line stroke="currentColor" x2="-6"></line><text fill="currentColor" x="-9" dy="0.32em">60</text></g><g class="tick" opacity="1" transform="translate(0,104.00000000000001)"><line stroke="currentColor" x2="-6"></line><text fill="currentColor" x="-9" dy="0.32em">70</text></g><g class="tick" opacity="1" transform="translate(0,75.99999999999999)"><line stroke="currentColor" x2="-6"></line><text fill="currentColor" x="-9" dy="0.32em">80</text></g><g class="tick" opacity="1" transform="translate(0,47.99999999999999)"><line stroke="currentColor" x2="-6"></line><text fill="currentColor" x="-9" dy="0.32em">90</text></g><g class="tick" opacity="1" transform="translate(0,20)"><line stroke="currentColor" x2="-6"></line><text fill="currentColor" x="-9" dy="0.32em">100</text></g></g><g id="xAxis" transform="translate(60,360)" fill="none" font-size="10" font-family="sans-serif" text-anchor="middle"><path class="domain" stroke="currentColor" d="M20,6V0H320V6"></path><g class="tick" opacity="1" transform="translate(20,0)"><line stroke="currentColor" y2="6"></line><text fill="currentColor" y="9" dy="0.71em">0</text></g><g class="tick" opacity="1" transform="translate(50,0)"><line stroke="currentColor" y2="6"></line><text fill="currentColor" y="9" dy="0.71em">10</text></g><g class="tick" opacity="1" transform="translate(80,0)"><line stroke="currentColor" y2="6"></line><text fill="currentColor" y="9" dy="0.71em">20</text></g><g class="tick" opacity="1" transform="translate(110,0)"><line stroke="currentColor" y2="6"></line><text fill="currentColor" y="9" dy="0.71em">30</text></g><g class="tick" opacity="1" transform="translate(140,0)"><line stroke="currentColor" y2="6"></line><text fill="currentColor" y="9" dy="0.71em">40</text></g><g class="tick" opacity="1" transform="translate(170,0)"><line stroke="currentColor" y2="6"></line><text fill="currentColor" y="9" dy="0.71em">50</text></g><g class="tick" opacity="1" transform="translate(200,0)"><line stroke="currentColor" y2="6"></line><text fill="currentColor" y="9" dy="0.71em">60</text></g><g class="tick" opacity="1" transform="translate(230,0)"><line stroke="currentColor" y2="6"></line><text fill="currentColor" y="9" dy="0.71em">70</text></g><g class="tick" opacity="1" transform="translate(260,0)"><line stroke="currentColor" y2="6"></line><text fill="currentColor" y="9" dy="0.71em">80</text></g><g class="tick" opacity="1" transform="translate(290,0)"><line stroke="currentColor" y2="6"></line><text fill="currentColor" y="9" dy="0.71em">90</text></g><g class="tick" opacity="1" transform="translate(320,0)"><line stroke="currentColor" y2="6"></line><text fill="currentColor" y="9" dy="0.71em">100</text></g></g><g id="labels"><text id="xTitle" text-anchor="middle" transform="translate(250,350)" x="0" y="40" style="fill: black; font-size: 0.8rem;">Percent Cat Owners</text><g id="group-yTitle" transform="translate(60,190)"><text id="yTitle" text-anchor="middle" transform="rotate(-90)" y="-45" style="fill: black; font-size: 0.8rem;">Percent Dog Owners</text></g></g><g id="quadrant_lines" transform="translate(60,30)"><line id="verticalQuadrantLine" x1="170" y1="10" x2="170" y2="310" class="quadrantLine"></line><line id="horizontalQuadrantLine" x1="10" y1="160" x2="330" y2="160" class="quadrantLine"></line></g><g id="chart" transform="translate(60,30)"><g class="bobaCup bright" cupRadius="20" width="40" height="40" pearlRadius="2.7380424214283137" pearlCount="20" transform="translate(169.9143889206876,212.9714358179919)"><circle class="pool" r="20" cx="20" cy="20" style="stroke-width: 1; fill: rgb(65, 182, 196);"></circle><circle class="pearl" r="2.190433937142651" cx="20.803317911356498" cy="19.852362298934615"></circle><circle class="pearl" r="2.190433937142651" cx="12.399118369231148" cy="22.318129073543428"></circle><circle class="pearl" r="2.190433937142651" cx="20.14107886386132" cy="11.690576671380018"></circle><circle class="pearl" r="2.190433937142651" cx="25.351645945468196" cy="26.426489948513225"></circle><circle class="pearl" r="2.190433937142651" cx="5.45555413244983" cy="14.383463400696877"></circle><circle class="pearl" r="2.190433937142651" cx="27.007002384921414" cy="14.812215198670392"></circle><circle class="pearl" r="2.190433937142651" cx="17.669394065840073" cy="27.98572181627974"></circle><circle class="pearl" r="2.190433937142651" cx="13.075316060454844" cy="14.529673081448232"></circle><circle class="pearl" r="2.190433937142651" cx="31.363412690087696" cy="21.539471699750266"></circle><circle class="pearl" r="2.190433937142651" cx="6.986823167406808" cy="29.380119115938808"></circle><circle class="pearl" r="2.190433937142651" cx="24.195863946736896" cy="5.095807587217031"></circle><circle class="pearl" r="2.190433937142651" cx="27.929986347293504" cy="33.70997709935047"></circle><circle class="pearl" r="2.190433937142651" cx="8.960309851298339" cy="7.973635910317352"></circle><circle class="pearl" r="2.190433937142651" cx="34.68553340637696" cy="14.890285786129768"></circle><circle class="pearl" r="2.190433937142651" cx="12.548559824642552" cy="33.90934248556552"></circle><circle class="pearl" r="2.190433937142651" cx="16.437930987710008" cy="4.970487855189916"></circle><circle class="pearl" r="2.190433937142651" cx="33.26719371328966" cy="28.885282914155283"></circle><circle class="pearl" r="2.190433937142651" cx="4.745924110358729" cy="21.949095191008542"></circle><circle class="pearl" r="2.190433937142651" cx="31.34694409707199" cy="8.181149473979769"></circle><circle class="pearl" r="2.190433937142651" cx="20.521343379892976" cy="35.34248064375117"></circle></g><g class="bobaCup bright" cupRadius="18.393812839371805" width="36.78762567874361" height="36.78762567874361" pearlRadius="2.7380424214283132" pearlCount="16" transform="translate(65.66713462872522,132.85635082026863)"><circle class="pool" r="18.393812839371805" cx="18.393812839371805" cy="18.393812839371805" style="stroke-width: 1; fill: rgb(65, 182, 196);"></circle><circle class="pearl" r="2.1904339371426507" cx="19.189513909507937" cy="19.23799028312993"></circle><circle class="pearl" r="2.1904339371426507" cx="13.77929485346734" cy="24.119767240731246"></circle><circle class="pearl" r="2.1904339371426507" cx="16.991117159075035" cy="11.640787566745635"></circle><circle class="pearl" r="2.1904339371426507" cx="21.199825884770554" cy="26.890212171327068"></circle><circle class="pearl" r="2.1904339371426507" cx="11.158479185375038" cy="16.964094462456018"></circle><circle class="pearl" r="2.1904339371426507" cx="24.207541740696346" cy="13.904880100901597"></circle><circle class="pearl" r="2.1904339371426507" cx="15.211376497252902" cy="31.859503430820396"></circle><circle class="pearl" r="2.1904339371426507" cx="12.005031555593328" cy="5.795889034686023"></circle><circle class="pearl" r="2.1904339371426507" cx="26.836692211272712" cy="21.302671306594092"></circle><circle class="pearl" r="2.1904339371426507" cx="5.008394239748568" cy="22.003513481128433"></circle><circle class="pearl" r="2.1904339371426507" cx="28.57991968923228" cy="7.72867572602724"></circle><circle class="pearl" r="2.1904339371426507" cx="28.8097925545602" cy="28.90355521521482"></circle><circle class="pearl" r="2.1904339371426507" cx="6.287852249286646" cy="10.80791156322649"></circle><circle class="pearl" r="2.1904339371426507" cx="31.90191495965896" cy="15.463042851893672"></circle><circle class="pearl" r="2.1904339371426507" cx="8.18871571165747" cy="29.046303109401453"></circle><circle class="pearl" r="2.1904339371426507" cx="21.230709313032946" cy="4.870808625077241"></circle></g><g class="bobaCup bright" cupRadius="16.91268704998026" width="33.82537409996052" height="33.82537409996052" pearlRadius="2.7380424214283132" pearlCount="14" transform="translate(234.83919987109894,223.1585599067262)"><circle class="pool" r="16.91268704998026" cx="16.91268704998026" cy="16.91268704998026" style="stroke-width: 1; fill: rgb(127, 205, 187);"></circle><circle class="pearl" r="2.1904339371426507" cx="21.047221533763352" cy="12.867526107066846"></circle><circle class="pearl" r="2.1904339371426507" cx="12.773184911001612" cy="20.960247499519944"></circle><circle class="pearl" r="2.1904339371426507" cx="13.286205992738521" cy="13.22484993330625"></circle><circle class="pearl" r="2.1904339371426507" cx="20.543281724045922" cy="20.595658203845286"></circle><circle class="pearl" r="2.1904339371426507" cx="4.8071635941847175" cy="19.207720884855558"></circle><circle class="pearl" r="2.1904339371426507" cx="26.163423772420263" cy="7.404919774875821"></circle><circle class="pearl" r="2.1904339371426507" cx="15.054772481044884" cy="29.07229209616656"></circle><circle class="pearl" r="2.1904339371426507" cx="10.868804803491251" cy="5.7675098407432825"></circle><circle class="pearl" r="2.1904339371426507" cx="28.211186982575466" cy="22.539521311435525"></circle><circle class="pearl" r="2.1904339371426507" cx="7.661181080148489" cy="26.41995169189194"></circle><circle class="pearl" r="2.1904339371426507" cx="18.781004898045005" cy="4.754235055799554"></circle><circle class="pearl" r="2.1904339371426507" cx="22.955597615925658" cy="28.058236012738224"></circle><circle class="pearl" r="2.1904339371426507" cx="5.605507342275486" cy="11.310516298658202"></circle><circle class="pearl" r="2.1904339371426507" cx="29.017614961764085" cy="14.613309283432734"></circle></g><g class="bobaCup bright" cupRadius="15.55341021869576" width="31.10682043739152" height="31.10682043739152" pearlRadius="2.7380424214283137" pearlCount="12" transform="translate(59.9437643339449,147.8424319053898)"><circle class="pool" r="15.55341021869576" cx="15.55341021869576" cy="15.55341021869576" style="stroke-width: 1; fill: rgb(127, 205, 187);"></circle><circle class="pearl" r="2.190433937142651" cx="17.610920671513462" cy="11.16025755218519"></circle><circle class="pearl" r="2.190433937142651" cx="11.541881399598557" cy="16.117477980842082"></circle><circle class="pearl" r="2.190433937142651" cx="14.529968990332115" cy="4.684431855963124"></circle><circle class="pearl" r="2.190433937142651" cx="18.33300244206427" cy="18.473595286495826"></circle><circle class="pearl" r="2.190433937142651" cx="4.717230402708868" cy="14.116606989478006"></circle><circle class="pearl" r="2.190433937142651" cx="26.411071367570305" cy="14.370793022630167"></circle><circle class="pearl" r="2.190433937142651" cx="11.89604645479874" cy="26.019970467309417"></circle><circle class="pearl" r="2.190433937142651" cx="7.241061353787286" cy="7.058281410252109"></circle><circle class="pearl" r="2.190433937142651" cx="25.009357776655914" cy="22.104013912360628"></circle><circle class="pearl" r="2.190433937142651" cx="5.877996113555156" cy="21.609015764523676"></circle><circle class="pearl" r="2.190433937142651" cx="23.84507042923151" cy="7.045222383502946"></circle><circle class="pearl" r="2.190433937142651" cx="19.46655069349975" cy="25.955789695397115"></circle></g><g class="bobaCup bright" cupRadius="15.401252348204263" width="30.802504696408526" height="30.802504696408526" pearlRadius="2.7380424214283132" pearlCount="11" transform="translate(153.6305503972675,215.57087903852585)"><circle class="pool" r="15.401252348204263" cx="15.401252348204263" cy="15.401252348204263" style="stroke-width: 1; fill: rgb(127, 205, 187);"></circle><circle class="pearl" r="2.1904339371426507" cx="19.31367707365861" cy="15.730940633201355"></circle><circle class="pearl" r="2.1904339371426507" cx="11.884669945852377" cy="17.62738593019089"></circle><circle class="pearl" r="2.1904339371426507" cx="14.065152443643186" cy="10.20789786912709"></circle><circle class="pearl" r="2.1904339371426507" cx="21.985079458807334" cy="24.673596111885832"></circle><circle class="pearl" r="2.1904339371426507" cx="4.682613496105398" cy="14.41065498987345"></circle><circle class="pearl" r="2.1904339371426507" cx="25.440279508134108" cy="10.774179038151345"></circle><circle class="pearl" r="2.1904339371426507" cx="14.394135513166269" cy="26.118817559588045"></circle><circle class="pearl" r="2.1904339371426507" cx="7.206067938263863" cy="7.012131774791476"></circle><circle class="pearl" r="2.1904339371426507" cx="25.81287631882154" cy="18.61439267258628"></circle><circle class="pearl" r="2.1904339371426507" cx="7.140100329760718" cy="23.748680573637454"></circle><circle class="pearl" r="2.1904339371426507" cx="20.067848933193073" cy="5.374732981313552"></circle></g><g class="bobaCup bright" cupRadius="15.177679735869132" width="30.355359471738264" height="30.355359471738264" pearlRadius="2.7380424214283137" pearlCount="11" transform="translate(191.3900572172317,7.831143243728997)"><circle class="pool" r="15.177679735869132" cx="15.177679735869132" cy="15.177679735869132" style="stroke-width: 1; fill: rgb(127, 205, 187);"></circle><circle class="pearl" r="2.190433937142651" cx="19.097618426022976" cy="15.618781178533247"></circle><circle class="pearl" r="2.190433937142651" cx="11.844315171761119" cy="17.52321440609442"></circle><circle class="pearl" r="2.190433937142651" cx="13.843379385134147" cy="10.218391312178307"></circle><circle class="pearl" r="2.190433937142651" cx="21.779338828308443" cy="24.19370664739448"></circle><circle class="pearl" r="2.190433937142651" cx="4.6788945862778775" cy="14.253364819511303"></circle><circle class="pearl" r="2.190433937142651" cx="24.969559117000006" cy="10.511504425956021"></circle><circle class="pearl" r="2.190433937142651" cx="14.270303141346865" cy="25.67748883723041"></circle><circle class="pearl" r="2.190433937142651" cx="7.185936368934547" cy="6.92514755653367"></circle><circle class="pearl" r="2.190433937142651" cx="25.385424569986856" cy="18.27411139096329"></circle><circle class="pearl" r="2.190433937142651" cx="7.140945145485" cy="23.402237447469243"></circle><circle class="pearl" r="2.190433937142651" cx="19.651728663802807" cy="5.325132700287099"></circle></g><g class="bobaCup bright" cupRadius="14.94227008809739" width="29.88454017619478" height="29.88454017619478" pearlRadius="2.7380424214283137" pearlCount="11" transform="translate(259.46027250369013,171.074391352394)"><circle class="pool" r="14.94227008809739" cx="14.94227008809739" cy="14.94227008809739" style="stroke-width: 1; fill: rgb(65, 182, 196);"></circle><circle class="pearl" r="2.190433937142651" cx="18.876836450239384" cy="15.518972218557582"></circle><circle class="pearl" r="2.190433937142651" cx="11.811337974058047" cy="17.44789238050861"></circle><circle class="pearl" r="2.190433937142651" cx="13.597495075776074" cy="10.268956111448922"></circle><circle class="pearl" r="2.190433937142651" cx="21.567954794229387" cy="23.684520299378207"></circle><circle class="pearl" r="2.190433937142651" cx="4.675034121495612" cy="14.090255512630872"></circle><circle class="pearl" r="2.190433937142651" cx="24.468513369834053" cy="10.221565061169478"></circle><circle class="pearl" r="2.190433937142651" cx="14.136766423152013" cy="25.21208971933571"></circle><circle class="pearl" r="2.190433937142651" cx="7.164497193715324" cy="6.834557511717087"></circle><circle class="pearl" r="2.190433937142651" cx="24.939193080652057" cy="17.894878353070993"></circle><circle class="pearl" r="2.190433937142651" cx="7.147989055332381" cy="23.039904344627264"></circle><circle class="pearl" r="2.190433937142651" cx="19.170726603285445" cy="5.261503830756215"></circle></g><g class="bobaCup bright" cupRadius="14.740525541361908" width="29.481051082723816" height="29.481051082723816" pearlRadius="2.738042421428314" pearlCount="10" transform="translate(66.42778644865565,107.47547703462799)"><circle class="pool" r="14.740525541361908" cx="14.740525541361908" cy="14.740525541361908" style="stroke-width: 1; fill: rgb(65, 182, 196);"></circle><circle class="pearl" r="2.1904339371426516" cx="17.59999777032288" cy="12.11891574805399"></circle><circle class="pearl" r="2.1904339371426516" cx="12.174810369150594" cy="17.09067529903458"></circle><circle class="pearl" r="2.1904339371426516" cx="14.845216888644526" cy="4.651095006917259"></circle><circle class="pearl" r="2.1904339371426516" cx="22.26248646188497" cy="22.7666787871305"></circle><circle class="pearl" r="2.1904339371426516" cx="4.657388666665076" cy="14.297287802814411"></circle><circle class="pearl" r="2.1904339371426516" cx="22.38667135484983" cy="6.7888859980388325"></circle><circle class="pearl" r="2.1904339371426516" cx="14.551062928336028" cy="24.829110205422968"></circle><circle class="pearl" r="2.1904339371426516" cx="7.142897036593071" cy="6.7595768956692055"></circle><circle class="pearl" r="2.1904339371426516" cx="24.821400755480195" cy="15.253458830294118"></circle><circle class="pearl" r="2.1904339371426516" cx="7.089675516867116" cy="22.68930972928258"></circle></g><g class="bobaCup bright" cupRadius="14.093125101200567" width="28.186250202401133" height="28.186250202401133" pearlRadius="2.7380424214283132" pearlCount="9" transform="translate(296.2484604414052,285.90687489879946)"><circle class="pool" r="14.093125101200567" cx="14.093125101200567" cy="14.093125101200567" style="stroke-width: 1; fill: rgb(65, 182, 196);"></circle><circle class="pearl" r="2.1904339371426507" cx="19.97051000993563" cy="14.06718630287025"></circle><circle class="pearl" r="2.1904339371426507" cx="12.312074821689421" cy="15.846851486900134"></circle><circle class="pearl" r="2.1904339371426507" cx="14.095544401608663" cy="4.650723436226039"></circle><circle class="pearl" r="2.1904339371426507" cx="14.099169196843999" cy="23.535525677769254"></circle><circle class="pearl" r="2.1904339371426507" cx="4.650732635410276" cy="14.109408326759183"></circle><circle class="pearl" r="2.1904339371426507" cx="21.356590699239714" cy="6.666669742692991"></circle><circle class="pearl" r="2.1904339371426507" cx="6.808439896409994" cy="21.50679313722277"></circle><circle class="pearl" r="2.1904339371426507" cx="6.803792074625403" cy="6.682264721232927"></circle><circle class="pearl" r="2.1904339371426507" cx="21.369520670278167" cy="21.51179467593145"></circle></g><g class="bobaCup bright" cupRadius="13.920806138086878" width="27.841612276173755" height="27.841612276173755" pearlRadius="2.738042421428314" pearlCount="9" transform="translate(242.08749528496335,148.90393218082042)"><circle class="pool" r="13.920806138086878" cx="13.920806138086878" cy="13.920806138086878" style="stroke-width: 1; fill: rgb(127, 205, 187);"></circle><circle class="pearl" r="2.1904339371426516" cx="15.79881362413424" cy="12.067660641360751"></circle><circle class="pearl" r="2.1904339371426516" cx="10.414702170325178" cy="17.415351539835477"></circle><circle class="pearl" r="2.1904339371426516" cx="13.987899854654204" cy="4.650884914356393"></circle><circle class="pearl" r="2.1904339371426516" cx="21.08569883317834" cy="21.205457063769284"></circle><circle class="pearl" r="2.1904339371426516" cx="4.6512418177467225" cy="13.800647535298827"></circle><circle class="pearl" r="2.1904339371426516" cx="21.01178330488654" cy="6.592093388527642"></circle><circle class="pearl" r="2.1904339371426516" cx="14.00278424666996" cy="23.190647665441123"></circle><circle class="pearl" r="2.1904339371426516" cx="6.826131901622528" cy="6.594282562294019"></circle><circle class="pearl" r="2.1904339371426516" cx="23.1906861359364" cy="13.995968274601811"></circle></g><g class="bobaCup bright" cupRadius="13.87952391016847" width="27.75904782033694" height="27.75904782033694" pearlRadius="2.7380424214283132" pearlCount="9" transform="translate(272.87138817738895,46.508025102746885)"><circle class="pool" r="13.87952391016847" cx="13.87952391016847" cy="13.87952391016847" style="stroke-width: 1; fill: rgb(65, 182, 196);"></circle><circle class="pearl" r="2.1904339371426507" cx="15.731971005123643" cy="12.054539232737095"></circle><circle class="pearl" r="2.1904339371426507" cx="10.350742910996669" cy="17.396412157029395"></circle><circle class="pearl" r="2.1904339371426507" cx="13.945115713716511" cy="4.650878216189597"></circle><circle class="pearl" r="2.1904339371426507" cx="21.00745085217541" cy="21.13820207219422"></circle><circle class="pearl" r="2.1904339371426507" cx="4.651143474255465" cy="13.771517227770662"></circle><circle class="pearl" r="2.1904339371426507" cx="20.933976944308572" cy="6.577177392350147"></circle><circle class="pearl" r="2.1904339371426507" cx="13.94789498320174" cy="23.108156191465646"></circle><circle class="pearl" r="2.1904339371426507" cx="6.8205848066196415" cy="6.579826112460711"></circle><circle class="pearl" r="2.1904339371426507" cx="23.108037249333986" cy="13.968833874570088"></circle></g><g class="bobaCup bright" cupRadius="13.839463549777445" width="27.67892709955489" height="27.67892709955489" pearlRadius="2.7380424214283137" pearlCount="9" transform="translate(59.4242558316614,166.37203012668857)"><circle class="pool" r="13.839463549777445" cx="13.839463549777445" cy="13.839463549777445" style="stroke-width: 1; fill: rgb(29, 145, 192);"></circle><circle class="pearl" r="2.190433937142651" cx="15.666354199138475" cy="12.042589531611464"></circle><circle class="pearl" r="2.190433937142651" cx="10.286896627126353" cy="17.379808676686398"></circle><circle class="pearl" r="2.190433937142651" cx="13.903617047249613" cy="4.650871922678087"></circle><circle class="pearl" r="2.190433937142651" cx="20.931530115767874" cy="21.07290386641135"></circle><circle class="pearl" r="2.190433937142651" cx="4.651061147062265" cy="13.74275208668224"></circle><circle class="pearl" r="2.190433937142651" cx="20.858597523835552" cy="6.5628019182946815"></circle><circle class="pearl" r="2.190433937142651" cx="13.89509434022469" cy="23.02809206038738"></circle><circle class="pearl" r="2.190433937142651" cx="6.815387235285016" cy="6.56571180987277"></circle><circle class="pearl" r="2.190433937142651" cx="23.027816948120332" cy="13.942950070744825"></circle></g><g class="bobaCup bright" cupRadius="13.755378079348501" width="27.510756158697003" height="27.510756158697003" pearlRadius="2.7380424214283137" pearlCount="9" transform="translate(276.6667247902831,81.10559148266091)"><circle class="pool" r="13.755378079348501" cx="13.755378079348501" cy="13.755378079348501" style="stroke-width: 1; fill: rgb(127, 205, 187);"></circle><circle class="pearl" r="2.190433937142651" cx="15.525874732393753" cy="12.020350801341296"></circle><circle class="pearl" r="2.190433937142651" cx="10.14635031664061" cy="17.351414119526595"></circle><circle class="pearl" r="2.190433937142651" cx="13.816599397507836" cy="4.650859468677934"></circle><circle class="pearl" r="2.190433937142651" cx="20.772173747328704" cy="20.93575812391452"></circle><circle class="pearl" r="2.190433937142651" cx="4.650926629477571" cy="13.680573859087513"></circle><circle class="pearl" r="2.190433937142651" cx="20.700828097326962" cy="6.532974080706687"></circle><circle class="pearl" r="2.190433937142651" cx="13.785808916874858" cy="22.85999926921888"></circle><circle class="pearl" r="2.190433937142651" cx="6.805169705555548" cy="6.535758866916481"></circle><circle class="pearl" r="2.190433937142651" cx="22.859371410868743" cy="13.89027973749491"></circle></g><g class="bobaCup bright" cupRadius="13.71477525645657" width="27.42955051291314" height="27.42955051291314" pearlRadius="2.7380424214283137" pearlCount="9" transform="translate(270.6176508475111,114.9149991941832)"><circle class="pool" r="13.71477525645657" cx="13.71477525645657" cy="13.71477525645657" style="stroke-width: 1; fill: rgb(127, 205, 187);"></circle><circle class="pearl" r="2.190433937142651" cx="15.456517816759533" cy="12.011173190044726"></circle><circle class="pearl" r="2.190433937142651" cx="10.074855198911123" cy="17.341257464764798"></circle><circle class="pearl" r="2.190433937142651" cx="13.774635222018608" cy="4.65085386259444"></circle><circle class="pearl" r="2.190433937142651" cx="20.69520236668915" cy="20.869504060478025"></circle><circle class="pearl" r="2.190433937142651" cx="4.6508782357905485" cy="13.649569778704434"></circle><circle class="pearl" r="2.190433937142651" cx="20.62489173201419" cy="6.518754179973186"></circle><circle class="pearl" r="2.190433937142651" cx="13.73380750753632" cy="22.778814078629647"></circle><circle class="pearl" r="2.190433937142651" cx="6.800624922790602" cy="6.521108019554973"></circle><circle class="pearl" r="2.190433937142651" cx="22.777996009861543" cy="13.86577457544827"></circle></g><g class="bobaCup bright" cupRadius="13.678097512849208" width="27.356195025698415" height="27.356195025698415" pearlRadius="2.7380424214283137" pearlCount="9" transform="translate(284.32036389103735,72.91493883233687)"><circle class="pool" r="13.678097512849208" cx="13.678097512849208" cy="13.678097512849208" style="stroke-width: 1; fill: rgb(29, 145, 192);"></circle><circle class="pearl" r="2.190433937142651" cx="15.392894663718518" cy="12.003870593679997"></circle><circle class="pearl" r="2.190433937142651" cx="10.007949200986179" cy="17.334337951142516"></circle><circle class="pearl" r="2.190433937142651" cx="13.736765782559546" cy="4.650849049493857"></circle><circle class="pearl" r="2.190433937142651" cx="20.625644735647132" cy="20.809646525149343"></circle><circle class="pearl" r="2.190433937142651" cx="4.65084260636236" cy="13.620951140358585"></circle><circle class="pearl" r="2.190433937142651" cx="20.556452373472307" cy="6.506021327476306"></circle><circle class="pearl" r="2.190433937142651" cx="13.687270523447477" cy="22.705468721256114"></circle><circle class="pearl" r="2.190433937142651" cx="6.796770761585458" cy="6.507750835808805"></circle><circle class="pearl" r="2.190433937142651" cx="22.704462767661557" cy="13.844236577225649"></circle></g><g class="bobaCup bright" cupRadius="13.665205094688686" width="27.33041018937737" height="27.33041018937737" pearlRadius="2.738042421428314" pearlCount="9" transform="translate(272.2389890476771,52.011119671166625)"><circle class="pool" r="13.665205094688686" cx="13.665205094688686" cy="13.665205094688686" style="stroke-width: 1; fill: rgb(127, 205, 187);"></circle><circle class="pearl" r="2.1904339371426516" cx="15.370295116844105" cy="12.001542453230321"></circle><circle class="pearl" r="2.1904339371426516" cx="9.983866425720002" cy="17.3324515894988"></circle><circle class="pearl" r="2.1904339371426516" cx="13.723464076434093" cy="4.650847417134422"></circle><circle class="pearl" r="2.1904339371426516" cx="20.60118652353534" cy="20.788605693332936"></circle><circle class="pearl" r="2.1904339371426516" cx="4.650831748556939" cy="13.610745164918615"></circle><circle class="pearl" r="2.1904339371426516" cx="20.5324333981477" cy="6.501572407337946"></circle><circle class="pearl" r="2.1904339371426516" cx="13.67101106847009" cy="22.6796857274061"></circle><circle class="pearl" r="2.1904339371426516" cx="6.795477379277594" cy="6.503025572622301"></circle><circle class="pearl" r="2.1904339371426516" cx="22.678609403192137" cy="13.836812001504617"></circle></g><g class="bobaCup bright" cupRadius="13.508691704354632" width="27.017383408709264" height="27.017383408709264" pearlRadius="2.7380424214283137" pearlCount="9" transform="translate(153.6101685294152,277.53850519987367)"><circle class="pool" r="13.508691704354632" cx="13.508691704354632" cy="13.508691704354632" style="stroke-width: 1; fill: rgb(127, 205, 187);"></circle><circle class="pearl" r="2.190433937142651" cx="15.084288815479587" cy="11.98496057211922"></circle><circle class="pearl" r="2.190433937142651" cx="9.663396910173738" cy="17.336341334658613"></circle><circle class="pearl" r="2.190433937142651" cx="13.562482701617805" cy="4.650830325650494"></circle><circle class="pearl" r="2.190433937142651" cx="20.303637834256612" cy="20.533303959401554"></circle><circle class="pearl" r="2.190433937142651" cx="4.650753843192668" cy="13.479931905468394"></circle><circle class="pearl" r="2.190433937142651" cx="20.24270771216573" cy="6.448830832640899"></circle><circle class="pearl" r="2.190433937142651" cx="13.477496057017545" cy="22.36662416000642"></circle><circle class="pearl" r="2.190433937142651" cx="6.782845521192014" cy="6.444136674013704"></circle><circle class="pearl" r="2.190433937142651" cx="22.364432238704037" cy="13.754024507329095"></circle></g><g class="bobaCup bright" cupRadius="13.50805580517013" width="27.01611161034026" height="27.01611161034026" pearlRadius="2.7380424214283137" pearlCount="9" transform="translate(265.1489505591842,93.37253296418132)"><circle class="pool" r="13.50805580517013" cx="13.50805580517013" cy="13.50805580517013" style="stroke-width: 1; fill: rgb(29, 145, 192);"></circle><circle class="pearl" r="2.190433937142651" cx="15.083076286096494" cy="11.984943449093157"></circle><circle class="pearl" r="2.190433937142651" cx="9.66197230637027" cy="17.336472623117462"></circle><circle class="pearl" r="2.190433937142651" cx="13.561830856661938" cy="4.650830267202769"></circle><circle class="pearl" r="2.190433937142651" cx="20.302425461769307" cy="20.53226780575877"></circle><circle class="pearl" r="2.190433937142651" cx="4.650753683584156" cy="13.47937174854068"></circle><circle class="pearl" r="2.190433937142651" cx="20.241538666755122" cy="6.448621896096494"></circle><circle class="pearl" r="2.190433937142651" cx="13.476722993711574" cy="22.365352042476214"></circle><circle class="pearl" r="2.190433937142651" cx="6.782807604025818" cy="6.443890717218704"></circle><circle class="pearl" r="2.190433937142651" cx="22.363154303345876" cy="13.753720456521652"></circle></g><g class="bobaCup bright" cupRadius="13.407462450906396" width="26.81492490181279" height="26.81492490181279" pearlRadius="2.7380424214283137" pearlCount="8" transform="translate(290.7877348264722,134.77021544702)"><circle class="pool" r="13.407462450906396" cx="13.407462450906396" cy="13.407462450906396" style="stroke-width: 1; fill: rgb(29, 145, 192);"></circle><circle class="pearl" r="2.190433937142651" cx="22.144864814126006" cy="14.127283616824684"></circle><circle class="pearl" r="2.190433937142651" cx="12.675352473036638" cy="14.111401843004685"></circle><circle class="pearl" r="2.190433937142651" cx="12.525620963863473" cy="4.679755092738436"></circle><circle class="pearl" r="2.190433937142651" cx="18.62144891836981" cy="21.108840035135263"></circle><circle class="pearl" r="2.190433937142651" cx="4.984670348417444" cy="16.3812220681255"></circle><circle class="pearl" r="2.190433937142651" cx="20.238279743502883" cy="6.521289021899685"></circle><circle class="pearl" r="2.190433937142651" cx="10.676009477170387" cy="21.883018741861537"></circle><circle class="pearl" r="2.190433937142651" cx="5.610279037190558" cy="8.42653185538772"></circle></g><g class="bobaCup bright" cupRadius="13.401014726209631" width="26.802029452419262" height="26.802029452419262" pearlRadius="2.738042421428314" pearlCount="8" transform="translate(119.93017555736364,183.50651990556878)"><circle class="pool" r="13.401014726209631" cx="13.401014726209631" cy="13.401014726209631" style="stroke-width: 1; fill: rgb(127, 205, 187);"></circle><circle class="pearl" r="2.1904339371426516" cx="22.132204022615984" cy="14.116285909705333"></circle><circle class="pearl" r="2.1904339371426516" cx="12.673960782537876" cy="14.098310306003944"></circle><circle class="pearl" r="2.1904339371426516" cx="12.51771337108425" cy="4.679865445363006"></circle><circle class="pearl" r="2.1904339371426516" cx="18.62031169014163" cy="21.093149144649534"></circle><circle class="pearl" r="2.1904339371426516" cx="4.9851006716015025" cy="16.375940910490232"></circle><circle class="pearl" r="2.1904339371426516" cx="20.225392439248306" cy="6.518522248748491"></circle><circle class="pearl" r="2.1904339371426516" cx="10.676045069571977" cy="21.871333226956057"></circle><circle class="pearl" r="2.1904339371426516" cx="5.609989727976524" cy="8.422049296233023"></circle></g><g class="bobaCup bright" cupRadius="12.897211009936635" width="25.79442201987327" height="25.79442201987327" pearlRadius="2.7380424214283137" pearlCount="8" transform="translate(292.5432475387737,280.23962964038265)"><circle class="pool" r="12.897211009936635" cx="12.897211009936635" cy="12.897211009936635" style="stroke-width: 1; fill: rgb(29, 145, 192);"></circle><circle class="pearl" r="2.190433937142651" cx="13.632498711268955" cy="12.945012437477445"></circle><circle class="pearl" r="2.190433937142651" cx="6.726434613548932" cy="19.57166197431354"></circle><circle class="pearl" r="2.190433937142651" cx="14.254588028039992" cy="4.722351231659431"></circle><circle class="pearl" r="2.190433937142651" cx="20.563338108366892" cy="16.722554113120676"></circle><circle class="pearl" r="2.190433937142651" cx="4.653954711932029" cy="13.185904278091066"></circle><circle class="pearl" r="2.190433937142651" cx="20.47995615430348" cy="8.813058294481669"></circle><circle class="pearl" r="2.190433937142651" cx="14.318319232520563" cy="21.065165687239272"></circle><circle class="pearl" r="2.190433937142651" cx="6.704206691738216" cy="6.234899749494328"></circle></g><g class="bobaCup bright" cupRadius="12.873804710942222" width="25.747609421884444" height="25.747609421884444" pearlRadius="2.7380424214283137" pearlCount="8" transform="translate(68.43503670610995,122.26339234924741)"><circle class="pool" r="12.873804710942222" cx="12.873804710942222" cy="12.873804710942222" style="stroke-width: 1; fill: rgb(127, 205, 187);"></circle><circle class="pearl" r="2.190433937142651" cx="13.584995283499493" cy="12.931129980788748"></circle><circle class="pearl" r="2.190433937142651" cx="6.706672991239577" cy="19.52358297953115"></circle><circle class="pearl" r="2.190433937142651" cx="14.23238970674303" cy="4.72261032750443"></circle><circle class="pearl" r="2.190433937142651" cx="20.515731536591158" cy="16.698148102945957"></circle><circle class="pearl" r="2.190433937142651" cx="4.653966615280163" cy="13.162766533043568"></circle><circle class="pearl" r="2.190433937142651" cx="20.43299996604458" cy="8.793028025367798"></circle><circle class="pearl" r="2.190433937142651" cx="14.280532753162001" cy="21.019798403156354"></circle><circle class="pearl" r="2.190433937142651" cx="6.704430948215606" cy="6.225250302811986"></circle></g><g class="bobaCup bright" cupRadius="12.823676210462118" width="25.647352420924236" height="25.647352420924236" pearlRadius="2.7380424214283137" pearlCount="8" transform="translate(165.20650566487237,29.241304631400148)"><circle class="pool" r="12.823676210462118" cx="12.823676210462118" cy="12.823676210462118" style="stroke-width: 1; fill: rgb(29, 145, 192);"></circle><circle class="pearl" r="2.190433937142651" cx="13.481185768536152" cy="12.896367090664143"></circle><circle class="pearl" r="2.190433937142651" cx="6.703468370924318" cy="19.441924876062753"></circle><circle class="pearl" r="2.190433937142651" cx="14.169060164183716" cy="4.7214933557970955"></circle><circle class="pearl" r="2.190433937142651" cx="20.42298258552483" cy="16.616227628817263"></circle><circle class="pearl" r="2.190433937142651" cx="4.654407929609928" cy="13.131067246582562"></circle><circle class="pearl" r="2.190433937142651" cx="20.323165930829635" cy="8.722579180859327"></circle><circle class="pearl" r="2.190433937142651" cx="14.234548710908921" cy="20.918780155450822"></circle><circle class="pearl" r="2.190433937142651" cx="6.70043228683658" cy="6.20707697970175"></circle></g><g class="bobaCup bright" cupRadius="12.772023337383587" width="25.544046674767173" height="25.544046674767173" pearlRadius="2.7380424214283137" pearlCount="8" transform="translate(23.160063373452928,180.73797291939326)"><circle class="pool" r="12.772023337383587" cx="12.772023337383587" cy="12.772023337383587" style="stroke-width: 1; fill: rgb(65, 182, 196);"></circle><circle class="pearl" r="2.190433937142651" cx="13.375657279915163" cy="12.8562546496751"></circle><circle class="pearl" r="2.190433937142651" cx="6.700295681288502" cy="19.357789925515984"></circle><circle class="pearl" r="2.190433937142651" cx="14.102076328111567" cy="4.720166545638856"></circle><circle class="pearl" r="2.190433937142651" cx="20.328385482423673" cy="16.528570530224272"></circle><circle class="pearl" r="2.190433937142651" cx="4.65490915502793" cy="13.09899119331208"></circle><circle class="pearl" r="2.190433937142651" cx="20.208745397728567" cy="8.646705589848038"></circle><circle class="pearl" r="2.190433937142651" cx="14.189141387870155" cy="20.814461911990467"></circle><circle class="pearl" r="2.190433937142651" cx="6.696255105283955" cy="6.188441045786552"></circle></g><g class="bobaCup bright" cupRadius="12.756558535164448" width="25.513117070328896" height="25.513117070328896" pearlRadius="2.7380424214283146" pearlCount="8" transform="translate(138.7056370736513,157.2016489391948)"><circle class="pool" r="12.756558535164448" cx="12.756558535164448" cy="12.756558535164448" style="stroke-width: 1; fill: rgb(65, 182, 196);"></circle><circle class="pearl" r="2.1904339371426516" cx="13.344294118547113" cy="12.843431389987622"></circle><circle class="pearl" r="2.1904339371426516" cx="6.699374878692423" cy="19.332602954177645"></circle><circle class="pearl" r="2.1904339371426516" cx="14.08163564110313" cy="4.7197305293801"></circle><circle class="pearl" r="2.1904339371426516" cx="20.300276992098237" cy="16.501605616296803"></circle><circle class="pearl" r="2.1904339371426516" cx="4.655069289674334" cy="13.089519009507693"></circle><circle class="pearl" r="2.1904339371426516" cx="20.174207428886728" cy="8.623257193751114"></circle><circle class="pearl" r="2.1904339371426516" cx="14.175985369989965" cy="20.783177816822157"></circle><circle class="pearl" r="2.1904339371426516" cx="6.694991624133732" cy="6.182880120700191"></circle></g><g class="bobaCup bright" cupRadius="12.697937079604824" width="25.395874159209647" height="25.395874159209647" pearlRadius="2.7380424214283137" pearlCount="8" transform="translate(46.393268637574266,162.560431141934)"><circle class="pool" r="12.697937079604824" cx="12.697937079604824" cy="12.697937079604824" style="stroke-width: 1; fill: rgb(65, 182, 196);"></circle><circle class="pearl" r="2.190433937142651" cx="13.225458242407019" cy="12.792933184542182"></circle><circle class="pearl" r="2.190433937142651" cx="6.696023142877371" cy="19.237148398372245"></circle><circle class="pearl" r="2.190433937142651" cx="14.002320345665094" cy="4.717896658545495"></circle><circle class="pearl" r="2.190433937142651" cx="20.194724825210425" cy="16.395988351539817"></circle><circle class="pearl" r="2.190433937142651" cx="4.655723047441377" cy="13.054237195602624"></circle><circle class="pearl" r="2.190433937142651" cx="20.041938685474538" cy="8.530901895729812"></circle><circle class="pearl" r="2.190433937142651" cx="14.128189721171257" cy="20.66434440670666"></circle><circle class="pearl" r="2.190433937142651" cx="6.690140559802874" cy="6.161882977136434"></circle></g><g class="bobaCup bright" cupRadius="12.629329277460153" width="25.258658554920306" height="25.258658554920306" pearlRadius="2.7380424214283137" pearlCount="7" transform="translate(46.888956739835685,186.69121403945715)"><circle class="pool" r="12.629329277460153" cx="12.629329277460153" cy="12.629329277460153" style="stroke-width: 1; fill: rgb(29, 145, 192);"></circle><circle class="pearl" r="2.190433937142651" cx="13.11307235219173" cy="12.739014434769897"></circle><circle class="pearl" r="2.190433937142651" cx="5.037903974208403" cy="15.732514306313607"></circle><circle class="pearl" r="2.190433937142651" cx="12.989199019237596" cy="4.655851471214609"></circle><circle class="pearl" r="2.190433937142651" cx="19.14638492166551" cy="18.526843418798038"></circle><circle class="pearl" r="2.190433937142651" cx="5.626870553084737" cy="7.76072492199706"></circle><circle class="pearl" r="2.190433937142651" cx="19.944125395551797" cy="8.588747046747336"></circle><circle class="pearl" r="2.190433937142651" cx="11.413418962148308" cy="20.549267133479265"></circle></g><g class="bobaCup bright" cupRadius="12.55649240380422" width="25.11298480760844" height="25.11298480760844" pearlRadius="2.7380424214283137" pearlCount="7" transform="translate(30.52192476161961,152.18103839584407)"><circle class="pool" r="12.55649240380422" cx="12.55649240380422" cy="12.55649240380422" style="stroke-width: 1; fill: rgb(29, 145, 192);"></circle><circle class="pearl" r="2.190433937142651" cx="12.876837147499952" cy="12.606346229830688"></circle><circle class="pearl" r="2.190433937142651" cx="5.023924045685041" cy="15.59506239649409"></circle><circle class="pearl" r="2.190433937142651" cx="13.056997698674138" cy="4.660702334386885"></circle><circle class="pearl" r="2.190433937142651" cx="19.07858268181045" cy="18.28656568728294"></circle><circle class="pearl" r="2.190433937142651" cx="5.6580048356931485" cy="7.628893448877656"></circle><circle class="pearl" r="2.190433937142651" cx="19.877494179314468" cy="8.769237208620385"></circle><circle class="pearl" r="2.190433937142651" cx="11.373313576928151" cy="20.40639273369714"></circle></g><g class="bobaCup bright" cupRadius="12.191207649393714" width="24.38241529878743" height="24.38241529878743" pearlRadius="2.7380424214283137" pearlCount="7" transform="translate(303.261936490457,66.17723467872801)"><circle class="pool" r="12.191207649393714" cx="12.191207649393714" cy="12.191207649393714" style="stroke-width: 1; fill: rgb(65, 182, 196);"></circle><circle class="pearl" r="2.190433937142651" cx="12.20811231446262" cy="12.197266457452788"></circle><circle class="pearl" r="2.190433937142651" cx="5.068010857579154" cy="15.35354085514511"></circle><circle class="pearl" r="2.190433937142651" cx="12.9372077964961" cy="4.67356912581595"></circle><circle class="pearl" r="2.190433937142651" cx="18.73739987700762" cy="17.013512929825627"></circle><circle class="pearl" r="2.190433937142651" cx="5.621582928833208" cy="7.423678325828489"></circle><circle class="pearl" r="2.190433937142651" cx="19.286824073122112" cy="8.927919626026382"></circle><circle class="pearl" r="2.190433937142651" cx="11.358737849989588" cy="19.703236493594478"></circle></g><g class="bobaCup bright" cupRadius="12.072513803103515" width="24.14502760620703" height="24.14502760620703" pearlRadius="2.7380424214283137" pearlCount="7" transform="translate(275.80782999741075,157.19100996930004)"><circle class="pool" r="12.072513803103515" cx="12.072513803103515" cy="12.072513803103515" style="stroke-width: 1; fill: rgb(29, 145, 192);"></circle><circle class="pearl" r="2.190433937142651" cx="12.075829935031154" cy="12.072359575939835"></circle><circle class="pearl" r="2.190433937142651" cx="5.13575276682708" cy="15.460108515880714"></circle><circle class="pearl" r="2.190433937142651" cx="12.653301832727887" cy="4.664701681526559"></circle><circle class="pearl" r="2.190433937142651" cx="18.617291105965084" cy="16.5898534379789"></circle><circle class="pearl" r="2.190433937142651" cx="5.527672990328085" cy="7.555331570534879"></circle><circle class="pearl" r="2.190433937142651" cx="18.995600544479448" cy="8.63849104463498"></circle><circle class="pearl" r="2.190433937142651" cx="11.447157380073433" cy="19.478096761350177"></circle></g><g class="bobaCup bright" cupRadius="11.702032292729141" width="23.404064585458283" height="23.404064585458283" pearlRadius="2.7380424214283137" pearlCount="6" transform="translate(56.63582080116504,113.0423331446099)"><circle class="pool" r="11.702032292729141" cx="11.702032292729141" cy="11.702032292729141" style="stroke-width: 1; fill: rgb(65, 182, 196);"></circle><circle class="pearl" r="2.190433937142651" cx="12.1257569403593" cy="11.98910746756636"></circle><circle class="pearl" r="2.190433937142651" cx="6.58706632988016" cy="17.57626431247014"></circle><circle class="pearl" r="2.190433937142651" cx="9.747410316903903" cy="4.815120897526743"></circle><circle class="pearl" r="2.190433937142651" cx="17.220851396256652" cy="17.370233207818355"></circle><circle class="pearl" r="2.190433937142651" cx="4.748517633754618" cy="10.192322774534771"></circle><circle class="pearl" r="2.190433937142651" cx="17.307380945092884" cy="6.080578231868369"></circle></g><g class="bobaCup bright" cupRadius="11.595945664810387" width="23.191891329620773" height="23.191891329620773" pearlRadius="2.7380424214283137" pearlCount="6" transform="translate(296.2672554815798,58.86145405511621)"><circle class="pool" r="11.595945664810387" cx="11.595945664810387" cy="11.595945664810387" style="stroke-width: 1; fill: rgb(29, 145, 192);"></circle><circle class="pearl" r="2.190433937142651" cx="11.961432967740265" cy="11.928814800766913"></circle><circle class="pearl" r="2.190433937142651" cx="6.1535796672421945" cy="17.18468571366495"></circle><circle class="pearl" r="2.190433937142651" cx="9.76746247076836" cy="4.795790976368268"></circle><circle class="pearl" r="2.190433937142651" cx="17.020167766188834" cy="17.194308759231824"></circle><circle class="pearl" r="2.190433937142651" cx="4.7843977776514315" cy="9.840298567374344"></circle><circle class="pearl" r="2.190433937142651" cx="17.129848044677903" cy="6.056385270668539"></circle></g><g class="bobaCup bright" cupRadius="11.365491531090932" width="22.730983062181863" height="22.730983062181863" pearlRadius="2.7380424214283137" pearlCount="6" transform="translate(68.87091445978851,118.14409934654353)"><circle class="pool" r="11.365491531090932" cx="11.365491531090932" cy="11.365491531090932" style="stroke-width: 1; fill: rgb(29, 145, 192);"></circle><circle class="pearl" r="2.190433937142651" cx="11.77406870788761" cy="11.717649311995663"></circle><circle class="pearl" r="2.190433937142651" cx="6.1452859263300965" cy="16.810502609014012"></circle><circle class="pearl" r="2.190433937142651" cx="9.521356503317941" cy="4.801333407519213"></circle><circle class="pearl" r="2.190433937142651" cx="16.571084366097967" cy="16.818045047191504"></circle><circle class="pearl" r="2.190433937142651" cx="4.775258467628353" cy="9.687606140520863"></circle><circle class="pearl" r="2.190433937142651" cx="16.690005859585707" cy="5.975102027053467"></circle></g><g class="bobaCup bright" cupRadius="11.359492771774281" width="22.718985543548563" height="22.718985543548563" pearlRadius="2.7380424214283132" pearlCount="6" transform="translate(96.13420370309565,148.99887236418303)"><circle class="pool" r="11.359492771774281" cx="11.359492771774281" cy="11.359492771774281" style="stroke-width: 1; fill: rgb(29, 145, 192);"></circle><circle class="pearl" r="2.1904339371426507" cx="11.769261553883004" cy="11.712109449303718"></circle><circle class="pearl" r="2.1904339371426507" cx="6.145070767918631" cy="16.800740569603253"></circle><circle class="pearl" r="2.1904339371426507" cx="9.5148999379796" cy="4.801489341642983"></circle><circle class="pearl" r="2.1904339371426507" cx="16.559388270976886" cy="16.808233035357848"></circle><circle class="pearl" r="2.1904339371426507" cx="4.775014224987273" cy="9.683689352818911"></circle><circle class="pearl" r="2.1904339371426507" cx="16.678537266183746" cy="5.972993192293104"></circle></g><g class="bobaCup bright" cupRadius="11.324246027610092" width="22.648492055220185" height="22.648492055220185" pearlRadius="2.738042421428314" pearlCount="6" transform="translate(82.34644475409972,49.48063387260741)"><circle class="pool" r="11.324246027610092" cx="11.324246027610092" cy="11.324246027610092" style="stroke-width: 1; fill: rgb(29, 145, 192);"></circle><circle class="pearl" r="2.1904339371426516" cx="11.741095349437536" cy="11.679510061882086"></circle><circle class="pearl" r="2.1904339371426516" cx="6.1438082931688776" cy="16.743359588849483"></circle><circle class="pearl" r="2.1904339371426516" cx="9.476905919946892" cy="4.802418848129225"></circle><circle class="pearl" r="2.1904339371426516" cx="16.490657772981468" cy="16.750562928518082"></circle><circle class="pearl" r="2.1904339371426516" cx="4.773571864291199" cy="9.660742326741554"></circle><circle class="pearl" r="2.1904339371426516" cx="16.611129178307426" cy="5.960608835030179"></circle></g><g class="bobaCup bright" cupRadius="11.280046681619172" width="22.560093363238344" height="22.560093363238344" pearlRadius="2.738042421428314" pearlCount="6" transform="translate(242.69259920714956,195.6052533447095)"><circle class="pool" r="11.280046681619172" cx="11.280046681619172" cy="11.280046681619172" style="stroke-width: 1; fill: rgb(65, 182, 196);"></circle><circle class="pearl" r="2.1904339371426516" cx="11.705972257999228" cy="11.638508161805671"></circle><circle class="pearl" r="2.1904339371426516" cx="6.142230177835195" cy="16.67134987767737"></circle><circle class="pearl" r="2.1904339371426516" cx="9.429118050026897" cy="4.803617698583746"></circle><circle class="pearl" r="2.1904339371426516" cx="16.404449037413553" cy="16.678201680762694"></circle><circle class="pearl" r="2.1904339371426516" cx="4.771744931867934" cy="9.632134465302368"></circle><circle class="pearl" r="2.1904339371426516" cx="16.526543351918324" cy="5.945093877589979"></circle></g><g class="bobaCup bright" cupRadius="11.272273218022795" width="22.54454643604559" height="22.54454643604559" pearlRadius="2.7380424214283137" pearlCount="6" transform="translate(145.74457073816114,124.77918882426711)"><circle class="pool" r="11.272273218022795" cx="11.272273218022795" cy="11.272273218022795" style="stroke-width: 1; fill: rgb(29, 145, 192);"></circle><circle class="pearl" r="2.190433937142651" cx="11.699818528621662" cy="11.631282472259796"></circle><circle class="pearl" r="2.190433937142651" cx="6.141953313637504" cy="16.658679119856583"></circle><circle class="pearl" r="2.190433937142651" cx="9.420696359355734" cy="4.803832510478781"></circle><circle class="pearl" r="2.190433937142651" cx="16.38928470579926" cy="16.665470386175176"></circle><circle class="pearl" r="2.190433937142651" cx="4.771421449091768" cy="9.627123201507656"></circle><circle class="pearl" r="2.190433937142651" cx="16.51166027477255" cy="5.942366868690634"></circle></g><g class="bobaCup bright" cupRadius="11.01081520368097" width="22.02163040736194" height="22.02163040736194" pearlRadius="2.7380424214283137" pearlCount="6" transform="translate(288.4445099183534,129.80111031408387)"><circle class="pool" r="11.01081520368097" cx="11.01081520368097" cy="11.01081520368097" style="stroke-width: 1; fill: rgb(29, 145, 192);"></circle><circle class="pearl" r="2.190433937142651" cx="11.497491177742079" cy="11.385349216447606"></circle><circle class="pearl" r="2.190433937142651" cx="6.132838309899858" cy="16.2314339747242"></circle><circle class="pearl" r="2.190433937142651" cx="9.134019596833056" cy="4.81185227551331"></circle><circle class="pearl" r="2.190433937142651" cx="15.878673599601317" cy="16.236427636015694"></circle><circle class="pearl" r="2.190433937142651" cx="4.760105493955352" cy="9.462651342382138"></circle><circle class="pearl" r="2.190433937142651" cx="16.009709272370717" cy="5.85087537924537"></circle></g><g class="bobaCup bright" cupRadius="10.954958115050715" width="21.90991623010143" height="21.90991623010143" pearlRadius="2.738042421428314" pearlCount="6" transform="translate(243.65922681758445,131.05794048807138)"><circle class="pool" r="10.954958115050715" cx="10.954958115050715" cy="10.954958115050715" style="stroke-width: 1; fill: rgb(29, 145, 192);"></circle><circle class="pearl" r="2.1904339371426516" cx="11.455611259114754" cy="11.331967731660963"></circle><circle class="pearl" r="2.1904339371426516" cx="6.130965153318183" cy="16.139894458042203"></circle><circle class="pearl" r="2.1904339371426516" cx="9.071780926803319" cy="4.8137977740043"></circle><circle class="pearl" r="2.1904339371426516" cx="15.76941011491169" cy="16.144568175731077"></circle><circle class="pearl" r="2.1904339371426516" cx="4.757561191579942" cy="9.428722068634942"></circle><circle class="pearl" r="2.1904339371426516" cx="15.902071772805595" cy="5.831369410816983"></circle></g><g class="bobaCup bright" cupRadius="10.905088609403634" width="21.81017721880727" height="21.81017721880727" pearlRadius="2.7380424214283132" pearlCount="5" transform="translate(291.164882305284,140.8195947180407)"><circle class="pool" r="10.905088609403634" cx="10.905088609403634" cy="10.905088609403634" style="stroke-width: 1; fill: rgb(65, 182, 196);"></circle><circle class="pearl" r="2.1904339371426507" cx="16.812884117821763" cy="8.1777016439012"></circle><circle class="pearl" r="2.1904339371426507" cx="8.095917016837104" cy="16.79141964388264"></circle><circle class="pearl" r="2.1904339371426507" cx="10.07767084490527" cy="4.682158476664298"></circle><circle class="pearl" r="2.1904339371426507" cx="15.900649714867694" cy="15.947936798040946"></circle><circle class="pearl" r="2.1904339371426507" cx="4.688168812886292" cy="10.00215303130753"></circle></g><g class="bobaCup bright" cupRadius="10.534790736480652" width="21.069581472961303" height="21.069581472961303" pearlRadius="2.7380424214283137" pearlCount="5" transform="translate(9.465209263519348,248.85663378458253)"><circle class="pool" r="10.534790736480652" cx="10.534790736480652" cy="10.534790736480652" style="stroke-width: 1; fill: rgb(127, 205, 187);"></circle><circle class="pearl" r="2.190433937142651" cx="16.056054478685763" cy="7.793897282185535"></circle><circle class="pearl" r="2.190433937142651" cx="7.553413467856691" cy="15.988185749674695"></circle><circle class="pearl" r="2.190433937142651" cx="9.769792629772018" cy="4.678535628813922"></circle><circle class="pearl" r="2.190433937142651" cx="15.211326660431176" cy="15.323973631035937"></circle><circle class="pearl" r="2.190433937142651" cx="4.700569690106924" cy="9.511189538386127"></circle></g><g class="bobaCup bright" cupRadius="10.424926994889255" width="20.84985398977851" height="20.84985398977851" pearlRadius="2.738042421428314" pearlCount="5" transform="translate(309.57507300511077,285.18035325400626)"><circle class="pool" r="10.424926994889255" cx="10.424926994889255" cy="10.424926994889255" style="stroke-width: 1; fill: rgb(127, 205, 187);"></circle><circle class="pearl" r="2.1904339371426516" cx="15.833417056771275" cy="7.687897432399596"></circle><circle class="pearl" r="2.1904339371426516" cx="7.379475411220321" cy="15.744375655523445"></circle><circle class="pearl" r="2.1904339371426516" cx="9.695395437440236" cy="4.676280696635326"></circle><circle class="pearl" r="2.1904339371426516" cx="15.005459934994331" cy="15.13891523188843"></circle><circle class="pearl" r="2.1904339371426516" cx="4.70640596063579" cy="9.348880403588089"></circle></g><g class="bobaCup bright" cupRadius="10.33544413702376" width="20.67088827404752" height="20.67088827404752" pearlRadius="2.738042421428314" pearlCount="5" transform="translate(83.33998449869046,149.14805712878987)"><circle class="pool" r="10.33544413702376" cx="10.33544413702376" cy="10.33544413702376" style="stroke-width: 1; fill: rgb(65, 182, 196);"></circle><circle class="pearl" r="2.1904339371426516" cx="15.65350608292032" cy="7.606941314072513"></circle><circle class="pearl" r="2.1904339371426516" cx="7.230489008433556" cy="15.542746022996674"></circle><circle class="pearl" r="2.1904339371426516" cx="9.644905491433683" cy="4.673817396335393"></circle><circle class="pearl" r="2.1904339371426516" cx="14.8368878213976" cy="14.988398152744292"></circle><circle class="pearl" r="2.1904339371426516" cx="4.712529194268306" cy="9.206832496909621"></circle></g><g class="bobaCup bright" cupRadius="10.24142609992537" width="20.48285219985074" height="20.48285219985074" pearlRadius="2.738042421428313" pearlCount="5" transform="translate(71.8972181626439,148.66979862545142)"><circle class="pool" r="10.24142609992537" cx="10.24142609992537" cy="10.24142609992537" style="stroke-width: 1; fill: rgb(29, 145, 192);"></circle><circle class="pearl" r="2.1904339371426502" cx="15.466678199849802" cy="7.52998370312244"></circle><circle class="pearl" r="2.1904339371426502" cx="7.063991220545589" cy="15.32675526169881"></circle><circle class="pearl" r="2.1904339371426502" cx="9.60611316557516" cy="4.670447609326601"></circle><circle class="pearl" r="2.1904339371426502" cx="14.658444933219753" cy="14.830657048002314"></circle><circle class="pearl" r="2.1904339371426502" cx="4.720990640963757" cy="9.043786958422075"></circle></g><g class="bobaCup bright" cupRadius="10.237640935722712" width="20.475281871445425" height="20.475281871445425" pearlRadius="2.738042421428314" pearlCount="5" transform="translate(237.99869322853613,125.20910897521205)"><circle class="pool" r="10.237640935722712" cx="10.237640935722712" cy="10.237640935722712" style="stroke-width: 1; fill: rgb(65, 182, 196);"></circle><circle class="pearl" r="2.1904339371426516" cx="15.4592205274963" cy="7.52711903907623"></circle><circle class="pearl" r="2.1904339371426516" cx="7.057017110372703" cy="15.317946635810781"></circle><circle class="pearl" r="2.1904339371426516" cx="9.604948108141464" cy="4.670292344487839"></circle><circle class="pearl" r="2.1904339371426516" cx="14.651222931392933" cy="14.824319175978296"></circle><circle class="pearl" r="2.1904339371426516" cx="4.7213896409419736" cy="9.036840798189255"></circle></g><g class="bobaCup bright" cupRadius="10.227277137233363" width="20.454554274466727" height="20.454554274466727" pearlRadius="2.7380424214283137" pearlCount="5" transform="translate(164.3473033808396,9.772722862766637)"><circle class="pool" r="10.227277137233363" cx="10.227277137233363" cy="10.227277137233363" style="stroke-width: 1; fill: rgb(65, 182, 196);"></circle><circle class="pearl" r="2.190433937142651" cx="15.438831819188923" cy="7.5193864346173065"></circle><circle class="pearl" r="2.190433937142651" cx="7.037797633916694" cy="15.29377666723374"></circle><circle class="pearl" r="2.190433937142651" cx="9.601942781417966" cy="4.669858782479244"></circle><circle class="pearl" r="2.190433937142651" cx="14.631431182127795" cy="14.806972360206945"></circle><circle class="pearl" r="2.190433937142651" cx="4.722509834587569" cy="9.017645080721726"></circle></g><g class="bobaCup bright" cupRadius="10.222838294506486" width="20.445676589012972" height="20.445676589012972" pearlRadius="2.7380424214283137" pearlCount="5" transform="translate(286.9342811723985,119.46297298230198)"><circle class="pool" r="10.222838294506486" cx="10.222838294506486" cy="10.222838294506486" style="stroke-width: 1; fill: rgb(65, 182, 196);"></circle><circle class="pearl" r="2.190433937142651" cx="15.430113382976824" cy="7.516125901798918"></circle><circle class="pearl" r="2.190433937142651" cx="7.0295086287064725" cy="15.283400688403205"></circle><circle class="pearl" r="2.190433937142651" cx="9.600740825185511" cy="4.669669249327679"></circle><circle class="pearl" r="2.190433937142651" cx="14.622946051881847" cy="14.799545613986869"></circle><circle class="pearl" r="2.190433937142651" cx="4.723002472192093" cy="9.00934179673025"></circle></g><g class="bobaCup bright" cupRadius="10.197622807754293" width="20.395245615508586" height="20.395245615508586" pearlRadius="2.7380424214283137" pearlCount="5" transform="translate(116.13429719971222,219.760333857579)"><circle class="pool" r="10.197622807754293" cx="10.197622807754293" cy="10.197622807754293" style="stroke-width: 1; fill: rgb(65, 182, 196);"></circle><circle class="pearl" r="2.190433937142651" cx="15.380759545485674" cy="7.498232303884169"></circle><circle class="pearl" r="2.190433937142651" cx="6.981730581202888" cy="15.224169241460725"></circle><circle class="pearl" r="2.190433937142651" cx="9.594947854727497" cy="4.668547716602895"></circle><circle class="pearl" r="2.190433937142651" cx="14.574644129566874" cy="14.757393337805954"></circle><circle class="pearl" r="2.190433937142651" cx="4.725958548610992" cy="8.961183372200011"></circle></g><g class="bobaCup bright" cupRadius="10.152079196720116" width="20.304158393440233" height="20.304158393440233" pearlRadius="2.738042421428314" pearlCount="5" transform="translate(95.55728245031972,83.0151810230472)"><circle class="pool" r="10.152079196720116" cx="10.152079196720116" cy="10.152079196720116" style="stroke-width: 1; fill: rgb(127, 205, 187);"></circle><circle class="pearl" r="2.1904339371426516" cx="15.292474525679879" cy="7.469038121959534"></circle><circle class="pearl" r="2.1904339371426516" cx="6.892084941665755" cy="15.115780000481383"></circle><circle class="pearl" r="2.1904339371426516" cx="9.589559424269495" cy="4.666319626900062"></circle><circle class="pearl" r="2.1904339371426516" cx="14.48690305785652" cy="14.681443882183398"></circle><circle class="pearl" r="2.1904339371426516" cx="4.732085145337347" cy="8.869361190408435"></circle></g><g class="bobaCup bright" cupRadius="10.10529026753344" width="20.21058053506688" height="20.21058053506688" pearlRadius="2.7380424214283137" pearlCount="5" transform="translate(17.792849558571895,97.84942811216129)"><circle class="pool" r="10.10529026753344" cx="10.10529026753344" cy="10.10529026753344" style="stroke-width: 1; fill: rgb(127, 205, 187);"></circle><circle class="pearl" r="2.190433937142651" cx="15.203217160061829" cy="7.444329499785584"></circle><circle class="pearl" r="2.190433937142651" cx="6.794546607032277" cy="15.002125250649648"></circle><circle class="pearl" r="2.190433937142651" cx="9.5924244356215" cy="4.663746157713051"></circle><circle class="pearl" r="2.190433937142651" cx="14.395925724838367" cy="14.603738518589559"></circle><circle class="pearl" r="2.190433937142651" cx="4.739724418551834" cy="8.767065882011822"></circle></g><g class="bobaCup bright" cupRadius="10.027506823904794" width="20.055013647809588" height="20.055013647809588" pearlRadius="2.738042421428314" pearlCount="5" transform="translate(302.1858705717012,208.37405331046764)"><circle class="pool" r="10.027506823904794" cx="10.027506823904794" cy="10.027506823904794" style="stroke-width: 1; fill: rgb(29, 145, 192);"></circle><circle class="pearl" r="2.1904339371426516" cx="15.059409420423204" cy="7.4202764476689"></circle><circle class="pearl" r="2.1904339371426516" cx="6.615919836909517" cy="14.806097851080079"></circle><circle class="pearl" r="2.1904339371426516" cx="9.623438040245615" cy="4.658867721392657"></circle><circle class="pearl" r="2.1904339371426516" cx="14.242023938977013" cy="14.475615311011307"></circle><circle class="pearl" r="2.1904339371426516" cx="4.7568597271469315" cy="8.572410960691855"></circle></g><g class="bobaCup bright" cupRadius="9.949366448682193" width="19.898732897364386" height="19.898732897364386" pearlRadius="2.7380424214283137" pearlCount="4" transform="translate(93.01254183875614,287.15123884393387)"><circle class="pool" r="9.949366448682193" cx="9.949366448682193" cy="9.949366448682193" style="stroke-width: 1; fill: rgb(127, 205, 187);"></circle><circle class="pearl" r="2.190433937142651" cx="14.652927200758842" cy="6.560079806988979"></circle><circle class="pearl" r="2.190433937142651" cx="5.856864454146732" cy="13.110736781772541"></circle><circle class="pearl" r="2.190433937142651" cx="6.779774104325999" cy="5.169099426979368"></circle><circle class="pearl" r="2.190433937142651" cx="13.73001755058046" cy="14.5017171617829"></circle></g><g class="bobaCup bright" cupRadius="9.8164808862749" width="19.6329617725498" height="19.6329617725498" pearlRadius="2.738042421428314" pearlCount="4" transform="translate(257.93108567219025,94.53243976550571)"><circle class="pool" r="9.8164808862749" cx="9.8164808862749" cy="9.8164808862749" style="stroke-width: 1; fill: rgb(65, 182, 196);"></circle><circle class="pearl" r="2.1904339371426516" cx="14.327265614675795" cy="6.290850595824763"></circle><circle class="pearl" r="2.1904339371426516" cx="5.61405317395893" cy="13.221613429946483"></circle><circle class="pearl" r="2.1904339371426516" cx="6.398257776847553" cy="5.265082198419465"></circle><circle class="pearl" r="2.1904339371426516" cx="13.54306101178729" cy="14.247381827351912"></circle></g><g class="bobaCup bright" cupRadius="9.773832760553315" width="19.54766552110663" height="19.54766552110663" pearlRadius="2.7380424214283132" pearlCount="4" transform="translate(29.78865660141439,155.9457427657585)"><circle class="pool" r="9.773832760553315" cx="9.773832760553315" cy="9.773832760553315" style="stroke-width: 1; fill: rgb(65, 182, 196);"></circle><circle class="pearl" r="2.1904339371426507" cx="14.221719819476998" cy="6.20408519699092"></circle><circle class="pearl" r="2.1904339371426507" cx="5.541130141087302" cy="13.258233351506801"></circle><circle class="pearl" r="2.1904339371426507" cx="6.278236535867104" cy="5.297200738821892"></circle><circle class="pearl" r="2.1904339371426507" cx="13.484613424697248" cy="14.165117809675895"></circle></g><g class="bobaCup bright" cupRadius="9.514126642298134" width="19.028253284596268" height="19.028253284596268" pearlRadius="2.738042421428314" pearlCount="4" transform="translate(109.36240812276493,143.4104120838255)"><circle class="pool" r="9.514126642298134" cx="9.514126642298134" cy="9.514126642298134" style="stroke-width: 1; fill: rgb(65, 182, 196);"></circle><circle class="pearl" r="2.1904339371426516" cx="13.499266462613143" cy="5.525563651613208"></circle><circle class="pearl" r="2.1904339371426516" cx="5.528985116107108" cy="13.502688846094419"></circle><circle class="pearl" r="2.1904339371426516" cx="5.528987549258106" cy="5.52556331613501"></circle><circle class="pearl" r="2.1904339371426516" cx="13.499264029459017" cy="13.50269075535076"></circle></g><g class="bobaCup bright" cupRadius="9.506938373059949" width="19.013876746119898" height="19.013876746119898" pearlRadius="2.7380424214283132" pearlCount="4" transform="translate(125.29978042666245,218.88579024131434)"><circle class="pool" r="9.506938373059949" cx="9.506938373059949" cy="9.506938373059949" style="stroke-width: 1; fill: rgb(127, 205, 187);"></circle><circle class="pearl" r="2.1904339371426507" cx="13.485402124885116" cy="5.523212956548188"></circle><circle class="pearl" r="2.1904339371426507" cx="5.528470577160129" cy="13.490661926196875"></circle><circle class="pearl" r="2.1904339371426507" cx="5.5284763458759505" cy="5.523212161891709"></circle><circle class="pearl" r="2.1904339371426507" cx="13.485396356151714" cy="13.49066644760785"></circle></g><g class="bobaCup bright" cupRadius="9.490086522475792" width="18.980173044951584" height="18.980173044951584" pearlRadius="2.738042421428314" pearlCount="4" transform="translate(253.52346977475128,40.58750513350809)"><circle class="pool" r="9.490086522475792" cx="9.490086522475792" cy="9.490086522475792" style="stroke-width: 1; fill: rgb(29, 145, 192);"></circle><circle class="pearl" r="2.1904339371426516" cx="13.452902712196199" cy="5.517711117112176"></circle><circle class="pearl" r="2.1904339371426516" cx="5.527256877218504" cy="13.4624557442236"></circle><circle class="pearl" r="2.1904339371426516" cx="5.5272760750275935" cy="5.517708478205876"></circle><circle class="pearl" r="2.1904339371426516" cx="13.452883514192276" cy="13.46247075041477"></circle></g><g class="bobaCup bright" cupRadius="9.331802035536786" width="18.66360407107357" height="18.66360407107357" pearlRadius="2.7380424214283137" pearlCount="4" transform="translate(15.552159760361445,93.80237358347452)"><circle class="pool" r="9.331802035536786" cx="9.331802035536786" cy="9.331802035536786" style="stroke-width: 1; fill: rgb(29, 145, 192);"></circle><circle class="pearl" r="2.190433937142651" cx="13.147892136177578" cy="5.466658568683391"></circle><circle class="pearl" r="2.190433937142651" cx="5.515329367196186" cy="13.19677405763418"></circle><circle class="pearl" r="2.190433937142651" cx="5.515876330386048" cy="5.466584902455592"></circle><circle class="pearl" r="2.190433937142651" cx="13.147345013772512" cy="13.197190655202814"></circle></g><g class="bobaCup bright" cupRadius="9.176409971653484" width="18.35281994330697" height="18.35281994330697" pearlRadius="2.738042421428314" pearlCount="4" transform="translate(204.6108726383972,242.61640266448637)"><circle class="pool" r="9.176409971653484" cx="9.176409971653484" cy="9.176409971653484" style="stroke-width: 1; fill: rgb(29, 145, 192);"></circle><circle class="pearl" r="2.1904339371426516" cx="12.84891231959234" cy="5.4176607749029255"></circle><circle class="pearl" r="2.1904339371426516" cx="5.502629245990089" cy="12.93460077211169"></circle><circle class="pearl" r="2.1904339371426516" cx="5.504461060377592" cy="5.417419105153247"></circle><circle class="pearl" r="2.1904339371426516" cx="12.847078706346235" cy="12.935959687999862"></circle></g><g class="bobaCup bright" cupRadius="8.92743948292476" width="17.85487896584952" height="17.85487896584952" pearlRadius="2.7380424214283132" pearlCount="3" transform="translate(287.11623525777287,89.30971957773767)"><circle class="pool" r="8.92743948292476" cx="8.92743948292476" cy="8.92743948292476" style="stroke-width: 1; fill: rgb(29, 145, 192);"></circle><circle class="pearl" r="2.1904339371426507" cx="12.97290336617864" cy="10.30125695005288"></circle><circle class="pearl" r="2.1904339371426507" cx="5.100250955638265" cy="12.045418269213293"></circle><circle class="pearl" r="2.1904339371426507" cx="8.521558770482338" cy="3.659954563636144"></circle></g><g class="bobaCup bright" cupRadius="8.560138458595226" width="17.120276917190452" height="17.120276917190452" pearlRadius="2.738042421428314" pearlCount="3" transform="translate(292.3434474747952,142.25400019336962)"><circle class="pool" r="8.560138458595226" cx="8.560138458595226" cy="8.560138458595226" style="stroke-width: 1; fill: rgb(127, 205, 187);"></circle><circle class="pearl" r="2.1904339371426516" cx="12.744422900436959" cy="10.088720867982788"></circle><circle class="pearl" r="2.1904339371426516" cx="4.7826221628902" cy="11.579106339599772"></circle><circle class="pearl" r="2.1904339371426516" cx="7.9768981308175295" cy="3.6706157217169086"></circle></g><g class="bobaCup bright" cupRadius="8.409729112490389" width="16.819458224980778" height="16.819458224980778" pearlRadius="2.7380424214283137" pearlCount="3" transform="translate(263.40411997190193,124.29765001060261)"><circle class="pool" r="8.409729112490389" cx="8.409729112490389" cy="8.409729112490389" style="stroke-width: 1; fill: rgb(29, 145, 192);"></circle><circle class="pearl" r="2.190433937142651" cx="12.649780301774415" cy="9.996678782560316"></circle><circle class="pearl" r="2.190433937142651" cx="4.654158490084258" cy="11.387788126777698"></circle><circle class="pearl" r="2.190433937142651" cx="7.753335386233743" cy="3.6763786879022113"></circle></g><g class="bobaCup bright" cupRadius="8.216877683717042" width="16.433755367434085" height="16.433755367434085" pearlRadius="2.7380424214283137" pearlCount="3" transform="translate(64.65402032606616,121.92827524533966)"><circle class="pool" r="8.216877683717042" cx="8.216877683717042" cy="8.216877683717042" style="stroke-width: 1; fill: rgb(127, 205, 187);"></circle><circle class="pearl" r="2.190433937142651" cx="12.528580223187687" cy="9.873632018920167"></circle><circle class="pearl" r="2.190433937142651" cx="4.489291433503436" cy="11.142552892994193"></circle><circle class="pearl" r="2.190433937142651" cx="7.466693709314412" cy="3.685040012807047"></circle></g><g class="bobaCup bright" cupRadius="7.7332992943438095" width="15.466598588687619" height="15.466598588687619" pearlRadius="2.7380424214283137" pearlCount="2" transform="translate(81.25335724569068,171.98660347771863)"><circle class="pool" r="7.7332992943438095" cx="7.7332992943438095" cy="7.7332992943438095" style="stroke-width: 1; fill: rgb(127, 205, 187);"></circle><circle class="pearl" r="2.190433937142651" cx="11.314781811943943" cy="7.042206415715332"></circle><circle class="pearl" r="2.190433937142651" cx="4.404049966468721" cy="11.062548622218898"></circle></g><g class="bobaCup bright" cupRadius="7.5584585057250315" width="15.116917011450063" height="15.116917011450063" pearlRadius="2.7380424214283137" pearlCount="2" transform="translate(235.49692165535453,130.06408679795962)"><circle class="pool" r="7.5584585057250315" cx="7.5584585057250315" cy="7.5584585057250315" style="stroke-width: 1; fill: rgb(127, 205, 187);"></circle><circle class="pearl" r="2.190433937142651" cx="11.27593328214003" cy="6.744020107701638"></circle><circle class="pearl" r="2.190433937142651" cx="4.360554004376601" cy="10.75636300707346"></circle></g><g class="bobaCup bright" cupRadius="7.3033095713386" width="14.6066191426772" height="14.6066191426772" pearlRadius="2.7380424214283137" pearlCount="2" transform="translate(290.67163908404166,94.48178663330269)"><circle class="pool" r="7.3033095713386" cx="7.3033095713386" cy="7.3033095713386" style="stroke-width: 1; fill: rgb(65, 182, 196);"></circle><circle class="pearl" r="2.190433937142651" cx="10.752224728526091" cy="5.590573314272336"></circle><circle class="pearl" r="2.190433937142651" cx="4.297810703454894" cy="10.308809539893327"></circle></g><g class="bobaCup bright" cupRadius="7.147179640829093" width="14.294359281658187" height="14.294359281658187" pearlRadius="2.738042421428314" pearlCount="2" transform="translate(87.49562412922829,115.70599265836911)"><circle class="pool" r="7.147179640829093" cx="7.147179640829093" cy="7.147179640829093" style="stroke-width: 1; fill: rgb(127, 205, 187);"></circle><circle class="pearl" r="2.1904339371426516" cx="10.209236203114532" cy="4.693455064241468"></circle><circle class="pearl" r="2.1904339371426516" cx="4.2598838456936985" cy="10.034475975526028"></circle></g><g class="bobaCup bright" cupRadius="5.462564697446133" width="10.925129394892267" height="10.925129394892267" pearlRadius="2.7380424214283137" pearlCount="1" transform="translate(223.073385278369,145.65876915957787)"><circle class="pool" r="5.462564697446133" cx="5.462564697446133" cy="5.462564697446133" style="stroke-width: 1; fill: rgb(29, 145, 192);"></circle><circle class="pearl" r="2.190433937142651" cx="7.213953949142503" cy="5.462564697446133"></circle></g><g class="bobaCup bright" cupRadius="4.616876220811992" width="9.233752441623984" height="9.233752441623984" pearlRadius="2.738042421428314" pearlCount="1" transform="translate(108.07000166154661,154.27422240209924)"><circle class="pool" r="4.616876220811992" cx="4.616876220811992" cy="4.616876220811992" style="stroke-width: 1; fill: rgb(127, 205, 187);"></circle><circle class="pearl" r="2.1904339371426516" cx="5.5830292130529" cy="4.616876220811992"></circle></g><g class="bobaCup bright" cupRadius="0" width="0" height="0" pearlRadius="NaN" pearlCount="0" transform="translate(57.50761329687238,155.41560163101278)"><circle class="pool" r="0" cx="0" cy="0" style="stroke-width: 1; fill: rgb(127, 205, 187);"></circle></g></g><g id="legendDividerGroup" transform="translate(410,0)" height="400"><rect class="legendDivider" height="400" width="90"></rect></g><g id="legend" transform="translate(410,13.61464737199924)" width="90" height="320"><rect class="legendBorder" transform="translate(0,0)" width="90" height="352.7707052560015"></rect><text id="rTitle" text-anchor="middle" alignment-baseline="hanging" transform="translate(45,0)" x="0" y="0" style="fill: black; font-size: 0.8rem;">Population</text><text id="bobaValue" text-anchor="middle" alignment-baseline="hanging" transform="translate(45,15)" x="0" y="0" style="fill: black; font-size: 0.7rem;">(1 Pearl =   75)</text><g class="bright" cupRadius="4.616876220811992" width="9.233752441623984" height="9.233752441623984" pearlRadius="2.738042421428314" pearlCount="1" transform="translate(40.38312377918801,40)"><circle class="pool" r="4.616876220811992" cx="4.616876220811992" cy="4.616876220811992" style="stroke-width: 1; fill: rgb(127, 205, 187);"></circle><circle class="pearl" r="2.1904339371426516" cx="5.5830292130529" cy="4.616876220811992"></circle></g><text id="0" class="legendSampleValue" text-anchor="middle" transform="translate(45,8)" x="0" y="54.233752441623984" style="fill: black; font-size: 0.7rem;">  80</text><g class="bright" cupRadius="9.85151951886811" width="19.70303903773622" height="19.70303903773622" pearlRadius="2.738042421428314" pearlCount="4" transform="translate(35.14848048113189,74.23375244162398)"><circle class="pool" r="9.85151951886811" cx="9.85151951886811" cy="9.85151951886811" style="stroke-width: 1; fill: rgb(127, 205, 187);"></circle><circle class="pearl" r="2.1904339371426516" cx="14.413503137303632" cy="6.361753139616198"></circle><circle class="pearl" r="2.1904339371426516" cx="5.676250451664938" cy="13.191991194533419"></circle><circle class="pearl" r="2.1904339371426516" cx="6.497616349206046" cy="5.239210287214837"></circle><circle class="pearl" r="2.1904339371426516" cx="13.592137239762735" cy="14.314534046934995"></circle></g><text id="1" class="legendSampleValue" text-anchor="middle" transform="translate(45,8)" x="0" y="98.9367914793602" style="fill: black; font-size: 0.7rem;"> 360</text><g class="bright" cupRadius="13.144935436242335" width="26.28987087248467" height="26.28987087248467" pearlRadius="2.7380424214283132" pearlCount="8" transform="translate(31.855064563757665,118.9367914793602)"><circle class="pool" r="13.144935436242335" cx="13.144935436242335" cy="13.144935436242335" style="stroke-width: 1; fill: rgb(127, 205, 187);"></circle><circle class="pearl" r="2.1904339371426507" cx="14.031972912473034" cy="12.912012461342645"></circle><circle class="pearl" r="2.1904339371426507" cx="7.970423405223949" cy="20.577827265418886"></circle><circle class="pearl" r="2.1904339371426507" cx="13.984055224153416" cy="4.677533585194932"></circle><circle class="pearl" r="2.1904339371426507" cx="21.317416019216093" cy="16.035397619105357"></circle><circle class="pearl" r="2.1904339371426507" cx="4.674557141118231" cy="13.9361512272016"></circle><circle class="pearl" r="2.1904339371426507" cx="20.641769784272103" cy="8.122369105555737"></circle><circle class="pearl" r="2.1904339371426507" cx="15.751064309363477" cy="21.37821080747185"></circle><circle class="pearl" r="2.1904339371426507" cx="6.580730343536543" cy="6.407044213359071"></circle></g><text id="2" class="legendSampleValue" text-anchor="middle" transform="translate(45,8)" x="0" y="150.22666235184488" style="fill: black; font-size: 0.7rem;"> 650</text><g class="bright" cupRadius="15.764714346137694" width="31.52942869227539" height="31.52942869227539" pearlRadius="2.7380424214283132" pearlCount="12" transform="translate(29.235285653862306,170.22666235184488)"><circle class="pool" r="15.764714346137694" cx="15.764714346137694" cy="15.764714346137694" style="stroke-width: 1; fill: rgb(127, 205, 187);"></circle><circle class="pearl" r="2.1904339371426507" cx="16.835055535647328" cy="11.649833210618565"></circle><circle class="pearl" r="2.1904339371426507" cx="11.366013359709035" cy="17.425951661317182"></circle><circle class="pearl" r="2.1904339371426507" cx="14.596286465416672" cy="4.6940828397352865"></circle><circle class="pearl" r="2.1904339371426507" cx="18.537959848450814" cy="18.92698279499445"></circle><circle class="pearl" r="2.1904339371426507" cx="4.7054208397889505" cy="14.452619607234071"></circle><circle class="pearl" r="2.1904339371426507" cx="26.51611167265681" cy="12.4030330968537"></circle><circle class="pearl" r="2.1904339371426507" cx="14.206374543909238" cy="26.801495555051567"></circle><circle class="pearl" r="2.1904339371426507" cx="7.251969175726297" cy="7.146700329629387"></circle><circle class="pearl" r="2.1904339371426507" cx="26.265727101639673" cy="20.118002193761043"></circle><circle class="pearl" r="2.1904339371426507" cx="6.935856261918041" cy="23.939499116832415"></circle><circle class="pearl" r="2.1904339371426507" cx="22.28955300128962" cy="6.064385385424717"></circle><circle class="pearl" r="2.1904339371426507" cx="21.984093190461277" cy="25.6000376868035"></circle></g><text id="3" class="legendSampleValue" text-anchor="middle" transform="translate(45,8)" x="0" y="206.75609104412027" style="fill: black; font-size: 0.7rem;"> 930</text><g class="bright" cupRadius="18.00730710594063" width="36.01461421188126" height="36.01461421188126" pearlRadius="2.738042421428314" pearlCount="16" transform="translate(26.99269289405937,226.75609104412027)"><circle class="pool" r="18.00730710594063" cx="18.00730710594063" cy="18.00730710594063" style="stroke-width: 1; fill: rgb(127, 205, 187);"></circle><circle class="pearl" r="2.1904339371426516" cx="18.730782201108585" cy="18.790108479789367"></circle><circle class="pearl" r="2.1904339371426516" cx="13.557862373358587" cy="23.623066862544075"></circle><circle class="pearl" r="2.1904339371426516" cx="16.517126867273507" cy="11.32549926229907"></circle><circle class="pearl" r="2.1904339371426516" cx="20.71442731644695" cy="26.2696865570201"></circle><circle class="pearl" r="2.1904339371426516" cx="11.083284984234528" cy="16.710637168056742"></circle><circle class="pearl" r="2.1904339371426516" cx="23.459563889481654" cy="13.528602720883113"></circle><circle class="pearl" r="2.1904339371426516" cx="15.01448314191439" cy="31.113444915515053"></circle><circle class="pearl" r="2.1904339371426516" cx="11.427812655739249" cy="5.895770284404236"></circle><circle class="pearl" r="2.1904339371426516" cx="26.34795512989408" cy="20.794369391644732"></circle><circle class="pearl" r="2.1904339371426516" cx="5.0222067675066455" cy="21.646103104774387"></circle><circle class="pearl" r="2.1904339371426516" cx="27.8325373723173" cy="7.567372316375604"></circle><circle class="pearl" r="2.1904339371426516" cx="28.086987989757258" cy="28.27848531411954"></circle><circle class="pearl" r="2.1904339371426516" cx="6.149012486765265" cy="10.815962383953709"></circle><circle class="pearl" r="2.1904339371426516" cx="31.09083077072639" cy="14.883271841555345"></circle><circle class="pearl" r="2.1904339371426516" cx="8.21708785061623" cy="28.469979132583884"></circle><circle class="pearl" r="2.1904339371426516" cx="20.771267663324988" cy="4.864109146508113"></circle></g><text id="4" class="legendSampleValue" text-anchor="middle" transform="translate(45,8)" x="0" y="267.7707052560015" style="fill: black; font-size: 0.7rem;">1.2k</text><g class="bright" cupRadius="20" width="40" height="40" pearlRadius="2.7380424214283137" pearlCount="20" transform="translate(25,287.7707052560015)"><circle class="pool" r="20" cx="20" cy="20" style="stroke-width: 1; fill: rgb(127, 205, 187);"></circle><circle class="pearl" r="2.190433937142651" cx="20.803317911356498" cy="19.852362298934615"></circle><circle class="pearl" r="2.190433937142651" cx="12.399118369231148" cy="22.318129073543428"></circle><circle class="pearl" r="2.190433937142651" cx="20.14107886386132" cy="11.690576671380018"></circle><circle class="pearl" r="2.190433937142651" cx="25.351645945468196" cy="26.426489948513225"></circle><circle class="pearl" r="2.190433937142651" cx="5.45555413244983" cy="14.383463400696877"></circle><circle class="pearl" r="2.190433937142651" cx="27.007002384921414" cy="14.812215198670392"></circle><circle class="pearl" r="2.190433937142651" cx="17.669394065840073" cy="27.98572181627974"></circle><circle class="pearl" r="2.190433937142651" cx="13.075316060454844" cy="14.529673081448232"></circle><circle class="pearl" r="2.190433937142651" cx="31.363412690087696" cy="21.539471699750266"></circle><circle class="pearl" r="2.190433937142651" cx="6.986823167406808" cy="29.380119115938808"></circle><circle class="pearl" r="2.190433937142651" cx="24.195863946736896" cy="5.095807587217031"></circle><circle class="pearl" r="2.190433937142651" cx="27.929986347293504" cy="33.70997709935047"></circle><circle class="pearl" r="2.190433937142651" cx="8.960309851298339" cy="7.973635910317352"></circle><circle class="pearl" r="2.190433937142651" cx="34.68553340637696" cy="14.890285786129768"></circle><circle class="pearl" r="2.190433937142651" cx="12.548559824642552" cy="33.90934248556552"></circle><circle class="pearl" r="2.190433937142651" cx="16.437930987710008" cy="4.970487855189916"></circle><circle class="pearl" r="2.190433937142651" cx="33.26719371328966" cy="28.885282914155283"></circle><circle class="pearl" r="2.190433937142651" cx="4.745924110358729" cy="21.949095191008542"></circle><circle class="pearl" r="2.190433937142651" cx="31.34694409707199" cy="8.181149473979769"></circle><circle class="pearl" r="2.190433937142651" cx="20.521343379892976" cy="35.34248064375117"></circle></g><text id="5" class="legendSampleValue" text-anchor="middle" transform="translate(45,8)" x="0" y="332.7707052560015" style="fill: black; font-size: 0.7rem;">1.5k</text><text id="coloringDisclaimer" transform="translate(45,8)" text-anchor="middle" x="0" y="347.7707052560015" style="font-size: 0.7rem; opacity: 0.6;">(note: coloring</text><text id="coloringDisclaimer" transform="translate(45,8)" text-anchor="middle" x="0" y="362.7707052560015" style="font-size: 0.7rem; opacity: 0.6;">is random)</text></g></svg>