<?xml version="1.0" standalone="no"?>
<?xml-stylesheet xmlns="http://www.w3.org/2000/svg" type="text/css" href="style.css"?>
<svg id="syntheticVisB" class="default" xTitle="Percent Cat Owners" yTitle="Percent Dog Owners" rTitle="Population" chartTitle="Towns in Vizzyland" width="500" height="400" xmlns="http://www.w3.org/2000/svg"><text id="chartTitle" text-anchor="middle" transform="translate(250,20)" x="0" y="0" style="fill: black; font-size: 1.2rem;">Towns in Vizzyland</text><g id="yAxis" transform="translate(50,30)" fill="none" font-size="10" font-family="sans-serif" text-anchor="end"><path class="domain" stroke="currentColor" d="M-6,300H0V20H-6"></path><g class="tick" opacity="1" transform="translate(0,300)"><line stroke="currentColor" x2="-6"></line><text fill="currentColor" x="-9" dy="0.32em">0</text></g><g class="tick" opacity="1" transform="translate(0,272)"><line stroke="currentColor" x2="-6"></line><text fill="currentColor" x="-9" dy="0.32em">10</text></g><g class="tick" opacity="1" transform="translate(0,244)"><line stroke="currentColor" x2="-6"></line><text fill="currentColor" x="-9" dy="0.32em">20</text></g><g class="tick" opacity="1" transform="translate(0,216)"><line stroke="currentColor" x2="-6"></line><text fill="currentColor" x="-9" dy="0.32em">30</text></g><g class="tick" opacity="1" transform="translate(0,188)"><line stroke="currentColor" x2="-6"></line><text fill="currentColor" x="-9" dy="0.32em">40</text></g><g class="tick" opacity="1" transform="translate(0,160)"><line stroke="currentColor" x2="-6"></line><text fill="currentColor" x="-9" dy="0.32em">50</text></g><g class="tick" opacity="1" transform="translate(0,132)"><line stroke="currentColor" x2="-6"></line><text fill="currentColor" x="-9" dy="0.32em">60</text></g><g class="tick" opacity="1" transform="translate(0,104.00000000000001)"><line stroke="currentColor" x2="-6"></line><text fill="currentColor" x="-9" dy="0.32em">70</text></g><g class="tick" opacity="1" transform="translate(0,75.99999999999999)"><line stroke="currentColor" x2="-6"></line><text fill="currentColor" x="-9" dy="0.32em">80</text></g><g class="tick" opacity="1" transform="translate(0,47.99999999999999)"><line stroke="currentColor" x2="-6"></line><text fill="currentColor" x="-9" dy="0.32em">90</text></g><g class="tick" opacity="1" transform="translate(0,20)"><line stroke="currentColor" x2="-6"></line><text fill="currentColor" x="-9" dy="0.32em">100</text></g></g><g id="xAxis" transform="translate(60,360)" fill="none" font-size="10" font-family="sans-serif" text-anchor="middle"><path class="domain" stroke="currentColor" d="M20,6V0H320V6"></path><g class="tick" opacity="1" transform="translate(20,0)"><line stroke="currentColor" y2="6"></line><text fill="currentColor" y="9" dy="0.71em">0</text></g><g class="tick" opacity="1" transform="translate(50,0)"><line stroke="currentColor" y2="6"></line><text fill="currentColor" y="9" dy="0.71em">10</text></g><g class="tick" opacity="1" transform="translate(80,0)"><line stroke="currentColor" y2="6"></line><text fill="currentColor" y="9" dy="0.71em">20</text></g><g class="tick" opacity="1" transform="translate(110,0)"><line stroke="currentColor" y2="6"></line><text fill="currentColor" y="9" dy="0.71em">30</text></g><g class="tick" opacity="1" transform="translate(140,0)"><line stroke="currentColor" y2="6"></line><text fill="currentColor" y="9" dy="0.71em">40</text></g><g class="tick" opacity="1" transform="translate(170,0)"><line stroke="currentColor" y2="6"></line><text fill="currentColor" y="9" dy="0.71em">50</text></g><g class="tick" opacity="1" transform="translate(200,0)"><line stroke="currentColor" y2="6"></line><text fill="currentColor" y="9" dy="0.71em">60</text></g><g class="tick" opacity="1" transform="translate(230,0)"><line stroke="currentColor" y2="6"></line><text fill="currentColor" y="9" dy="0.71em">70</text></g><g class="tick" opacity="1" transform="translate(260,0)"><line stroke="currentColor" y2="6"></line><text fill="currentColor" y="9" dy="0.71em">80</text></g><g class="tick" opacity="1" transform="translate(290,0)"><line stroke="currentColor" y2="6"></line><text fill="currentColor" y="9" dy="0.71em">90</text></g><g class="tick" opacity="1" transform="translate(320,0)"><line stroke="currentColor" y2="6"></line><text fill="currentColor" y="9" dy="0.71em">100</text></g></g><g id="labels"><text id="xTitle" text-anchor="middle" transform="translate(250,350)" x="0" y="40" style="fill: black; font-size: 0.8rem;">Percent Cat Owners</text><g id="group-yTitle" transform="translate(60,190)"><text id="yTitle" text-anchor="middle" transform="rotate(-90)" y="-45" style="fill: black; font-size: 0.8rem;">Percent Dog Owners</text></g></g><g id="quadrant_lines" transform="translate(60,30)"><line id="verticalQuadrantLine" x1="170" y1="10" x2="170" y2="310" class="quadrantLine"></line><line id="horizontalQuadrantLine" x1="10" y1="160" x2="330" y2="160" class="quadrantLine"></line></g><g id="chart" transform="translate(60,30)"><g class="bobaCup bright" cupRadius="20" width="40" height="40" pearlRadius="2.7380424214283137" pearlCount="20" transform="translate(250.55264442347828,67.29827218631553)"><circle class="pool" r="20" cx="20" cy="20" style="stroke-width: 1; fill: rgb(29, 145, 192);"></circle><circle class="pearl" r="2.190433937142651" cx="20.803317911356498" cy="19.852362298934615"></circle><circle class="pearl" r="2.190433937142651" cx="12.399118369231148" cy="22.318129073543428"></circle><circle class="pearl" r="2.190433937142651" cx="20.14107886386132" cy="11.690576671380018"></circle><circle class="pearl" r="2.190433937142651" cx="25.351645945468196" cy="26.426489948513225"></circle><circle class="pearl" r="2.190433937142651" cx="5.45555413244983" cy="14.383463400696877"></circle><circle class="pearl" r="2.190433937142651" cx="27.007002384921414" cy="14.812215198670392"></circle><circle class="pearl" r="2.190433937142651" cx="17.669394065840073" cy="27.98572181627974"></circle><circle class="pearl" r="2.190433937142651" cx="13.075316060454844" cy="14.529673081448232"></circle><circle class="pearl" r="2.190433937142651" cx="31.363412690087696" cy="21.539471699750266"></circle><circle class="pearl" r="2.190433937142651" cx="6.986823167406808" cy="29.380119115938808"></circle><circle class="pearl" r="2.190433937142651" cx="24.195863946736896" cy="5.095807587217031"></circle><circle class="pearl" r="2.190433937142651" cx="27.929986347293504" cy="33.70997709935047"></circle><circle class="pearl" r="2.190433937142651" cx="8.960309851298339" cy="7.973635910317352"></circle><circle class="pearl" r="2.190433937142651" cx="34.68553340637696" cy="14.890285786129768"></circle><circle class="pearl" r="2.190433937142651" cx="12.548559824642552" cy="33.90934248556552"></circle><circle class="pearl" r="2.190433937142651" cx="16.437930987710008" cy="4.970487855189916"></circle><circle class="pearl" r="2.190433937142651" cx="33.26719371328966" cy="28.885282914155283"></circle><circle class="pearl" r="2.190433937142651" cx="4.745924110358729" cy="21.949095191008542"></circle><circle class="pearl" r="2.190433937142651" cx="31.34694409707199" cy="8.181149473979769"></circle><circle class="pearl" r="2.190433937142651" cx="20.521343379892976" cy="35.34248064375117"></circle></g><g class="bobaCup bright" cupRadius="18.659392853711434" width="37.31878570742287" height="37.31878570742287" pearlRadius="2.7380424214283132" pearlCount="17" transform="translate(176.45252516005075,207.11527314782018)"><circle class="pool" r="18.659392853711434" cx="18.659392853711434" cy="18.659392853711434" style="stroke-width: 1; fill: rgb(127, 205, 187);"></circle><circle class="pearl" r="2.1904339371426507" cx="18.61868739815411" cy="18.684200014538956"></circle><circle class="pearl" r="2.1904339371426507" cx="13.772534086886528" cy="24.62562079799323"></circle><circle class="pearl" r="2.1904339371426507" cx="15.991056788567786" cy="11.394196831902438"></circle><circle class="pearl" r="2.1904339371426507" cx="21.172554015970043" cy="25.997478616855776"></circle><circle class="pearl" r="2.1904339371426507" cx="11.159490726454283" cy="17.55213813579076"></circle><circle class="pearl" r="2.1904339371426507" cx="23.40119595227069" cy="12.694734288673038"></circle><circle class="pearl" r="2.1904339371426507" cx="15.926856084678292" cy="32.429400327616705"></circle><circle class="pearl" r="2.1904339371426507" cx="10.198702695064904" cy="6.679131033028248"></circle><circle class="pearl" r="2.1904339371426507" cx="26.077301915299245" cy="19.79819760209281"></circle><circle class="pearl" r="2.1904339371426507" cx="5.067728715153495" cy="22.58217819282301"></circle><circle class="pearl" r="2.1904339371426507" cx="29.05526488560159" cy="7.814994709227665"></circle><circle class="pearl" r="2.1904339371426507" cx="27.310934702265776" cy="30.541175947892814"></circle><circle class="pearl" r="2.1904339371426507" cx="5.7974542275421745" cy="12.218925756469197"></circle><circle class="pearl" r="2.1904339371426507" cx="32.263835821711474" cy="14.796511959261741"></circle><circle class="pearl" r="2.1904339371426507" cx="8.280075524511474" cy="29.514884941874048"></circle><circle class="pearl" r="2.1904339371426507" cx="21.723113112804214" cy="4.903960594425697"></circle><circle class="pearl" r="2.1904339371426507" cx="31.581827491267866" cy="24.932913737656758"></circle></g><g class="bobaCup bright" cupRadius="18.04948397713218" width="36.09896795426436" height="36.09896795426436" pearlRadius="2.7380424214283132" pearlCount="16" transform="translate(217.25172787009794,122.10273777417663)"><circle class="pool" r="18.04948397713218" cx="18.04948397713218" cy="18.04948397713218" style="stroke-width: 1; fill: rgb(65, 182, 196);"></circle><circle class="pearl" r="2.1904339371426507" cx="18.770696574074062" cy="18.829716363218886"></circle><circle class="pearl" r="2.1904339371426507" cx="13.5880935204144" cy="23.68353486171633"></circle><circle class="pearl" r="2.1904339371426507" cx="16.570208950040477" cy="11.344447273280021"></circle><circle class="pearl" r="2.1904339371426507" cx="20.75861855832897" cy="26.337592504237247"></circle><circle class="pearl" r="2.1904339371426507" cx="11.112618333169966" cy="16.747713321189803"></circle><circle class="pearl" r="2.1904339371426507" cx="23.542343171598993" cy="13.56665840523613"></circle><circle class="pearl" r="2.1904339371426507" cx="15.03090604214756" cy="31.194042682016814"></circle><circle class="pearl" r="2.1904339371426507" cx="11.448919799606438" cy="5.9009088757397405"></circle><circle class="pearl" r="2.1904339371426507" cx="26.391435319682195" cy="20.85003245888316"></circle><circle class="pearl" r="2.1904339371426507" cx="5.01903907735512" cy="21.677178211468526"></circle><circle class="pearl" r="2.1904339371426507" cx="27.915155015983185" cy="7.585565073190572"></circle><circle class="pearl" r="2.1904339371426507" cx="28.166176105665368" cy="28.34655029140742"></circle><circle class="pearl" r="2.1904339371426507" cx="6.144782513274783" cy="10.859088640707304"></circle><circle class="pearl" r="2.1904339371426507" cx="31.181024887675377" cy="14.955141732402039"></circle><circle class="pearl" r="2.1904339371426507" cx="8.211305969764709" cy="28.531312593379017"></circle><circle class="pearl" r="2.1904339371426507" cx="20.834734290700435" cy="4.866916636334994"></circle></g><g class="bobaCup bright" cupRadius="17.744872222804094" width="35.48974444560819" height="35.48974444560819" pearlRadius="2.7380424214283137" pearlCount="15" transform="translate(60.181738126965016,222.299986316406)"><circle class="pool" r="17.744872222804094" cx="17.744872222804094" cy="17.744872222804094" style="stroke-width: 1; fill: rgb(65, 182, 196);"></circle><circle class="pearl" r="2.190433937142651" cx="23.67695152830641" cy="17.75430347823716"></circle><circle class="pearl" r="2.190433937142651" cx="13.068807358075572" cy="22.353195348371983"></circle><circle class="pearl" r="2.190433937142651" cx="17.76235117127953" cy="11.876360480978263"></circle><circle class="pearl" r="2.190433937142651" cx="20.337843282291697" cy="24.814494855872827"></circle><circle class="pearl" r="2.190433937142651" cx="10.561204740564405" cy="15.11795569596057"></circle><circle class="pearl" r="2.190433937142651" cx="25.391865393540584" cy="10.148989846280832"></circle><circle class="pearl" r="2.190433937142651" cx="15.099939898212718" cy="30.640796058614736"></circle><circle class="pearl" r="2.190433937142651" cx="13.687964848719156" cy="5.120700581601309"></circle><circle class="pearl" r="2.190433937142651" cx="30.338052853872856" cy="21.9315498893008"></circle><circle class="pearl" r="2.190433937142651" cx="4.875257175270519" cy="20.558808415134404"></circle><circle class="pearl" r="2.190433937142651" cx="21.312913779379542" cy="5.013145403864758"></circle><circle class="pearl" r="2.190433937142651" cx="27.272709326157663" cy="28.064145999429886"></circle><circle class="pearl" r="2.190433937142651" cx="7.531941186056423" cy="8.05197419978147"></circle><circle class="pearl" r="2.190433937142651" cx="30.49935785977797" cy="14.289558264507455"></circle><circle class="pearl" r="2.190433937142651" cx="7.86156383509687" cy="27.83187967154966"></circle></g><g class="bobaCup bright" cupRadius="17.427746301012018" width="34.855492602024036" height="34.855492602024036" pearlRadius="2.738042421428314" pearlCount="15" transform="translate(223.87940421312163,67.2987497837867)"><circle class="pool" r="17.427746301012018" cx="17.427746301012018" cy="17.427746301012018" style="stroke-width: 1; fill: rgb(127, 205, 187);"></circle><circle class="pearl" r="2.1904339371426516" cx="23.244036310832072" cy="17.369276180898957"></circle><circle class="pearl" r="2.1904339371426516" cx="12.718292952840327" cy="21.799514613404607"></circle><circle class="pearl" r="2.1904339371426516" cx="17.82585013447091" cy="11.756839414143387"></circle><circle class="pearl" r="2.1904339371426516" cx="19.909224873674084" cy="24.211898056511032"></circle><circle class="pearl" r="2.1904339371426516" cx="10.468689160010532" cy="14.618243138772002"></circle><circle class="pearl" r="2.1904339371426516" cx="25.406104656973998" cy="9.889977648294046"></circle><circle class="pearl" r="2.1904339371426516" cx="14.865366251106696" cy="30.01536839942302"></circle><circle class="pearl" r="2.1904339371426516" cx="13.793731846753506" cy="5.033814059944586"></circle><circle class="pearl" r="2.1904339371426516" cx="29.662377153917486" cy="21.741811515586456"></circle><circle class="pearl" r="2.1904339371426516" cx="4.845821920442976" cy="20.028168865064853"></circle><circle class="pearl" r="2.1904339371426516" cx="21.35159171742453" cy="5.098193375158036"></circle><circle class="pearl" r="2.1904339371426516" cx="26.603860681519564" cy="27.593408124412303"></circle><circle class="pearl" r="2.1904339371426516" cx="7.724257712487228" cy="7.601983410886783"></circle><circle class="pearl" r="2.1904339371426516" cx="29.907095556870768" cy="14.220417535416267"></circle><circle class="pearl" r="2.1904339371426516" cx="7.804276374708817" cy="27.30682581404675"></circle></g><g class="bobaCup bright" cupRadius="17.284015989014843" width="34.56803197802969" height="34.56803197802969" pearlRadius="2.7380424214283137" pearlCount="14" transform="translate(93.51989465009113,217.12809935406506)"><circle class="pool" r="17.284015989014843" cx="17.284015989014843" cy="17.284015989014843" style="stroke-width: 1; fill: rgb(127, 205, 187);"></circle><circle class="pearl" r="2.190433937142651" cx="21.367439636767962" cy="13.195784946618097"></circle><circle class="pearl" r="2.190433937142651" cx="13.22011381168912" cy="21.35136619145243"></circle><circle class="pearl" r="2.190433937142651" cx="13.421542294579526" cy="13.39146410462566"></circle><circle class="pearl" r="2.190433937142651" cx="21.178843614155575" cy="21.141821267070142"></circle><circle class="pearl" r="2.190433937142651" cx="5.5613126888381235" cy="19.059987512351796"></circle><circle class="pearl" r="2.190433937142651" cx="26.933643839968735" cy="7.5952172225326855"></circle><circle class="pearl" r="2.190433937142651" cx="15.091921516555878" cy="29.777735899033463"></circle><circle class="pearl" r="2.190433937142651" cx="11.556411654117216" cy="5.627325035951163"></circle><circle class="pearl" r="2.190433937142651" cx="28.949833177238343" cy="22.98556994698364"></circle><circle class="pearl" r="2.190433937142651" cx="7.6283562123230855" cy="26.968753791931295"></circle><circle class="pearl" r="2.190433937142651" cx="19.50179214907579" cy="4.793599301804772"></circle><circle class="pearl" r="2.190433937142651" cx="23.505974838760626" cy="28.75856599163556"></circle><circle class="pearl" r="2.190433937142651" cx="5.803609077104284" cy="11.0772576483538"></circle><circle class="pearl" r="2.190433937142651" cx="29.770545097263717" cy="15.03639701492699"></circle></g><g class="bobaCup bright" cupRadius="16.95332304863958" width="33.90664609727916" height="33.90664609727916" pearlRadius="2.7380424214283137" pearlCount="14" transform="translate(140.03449869024774,248.46832902330593)"><circle class="pool" r="16.95332304863958" cx="16.95332304863958" cy="16.95332304863958" style="stroke-width: 1; fill: rgb(29, 145, 192);"></circle><circle class="pearl" r="2.190433937142651" cx="21.066011049074223" cy="12.889907092180561"></circle><circle class="pearl" r="2.190433937142651" cx="12.836101179270612" cy="21.019094074070992"></circle><circle class="pearl" r="2.190433937142651" cx="13.29047795410473" cy="13.257860443055975"></circle><circle class="pearl" r="2.190433937142651" cx="20.61959104063549" cy="20.644544357065403"></circle><circle class="pearl" r="2.190433937142651" cx="4.803385035594548" cy="19.223332792229236"></circle><circle class="pearl" r="2.190433937142651" cx="26.252354420261796" cy="7.4286034996068615"></circle><circle class="pearl" r="2.190433937142651" cx="15.059158246052878" cy="29.149774719504176"></circle><circle class="pearl" r="2.190433937142651" cx="10.93114474427099" cy="5.756379860292171"></circle><circle class="pearl" r="2.190433937142651" cx="28.282340689042176" cy="22.61574692468296"></circle><circle class="pearl" r="2.190433937142651" cx="7.6542627835109585" cy="26.478023643610417"></circle><circle class="pearl" r="2.190433937142651" cx="18.850301783920592" cy="4.757187992372341"></circle><circle class="pearl" r="2.190433937142651" cx="22.973843271673918" cy="28.150896215440728"></circle><circle class="pearl" r="2.190433937142651" cx="5.61748231470893" cy="11.310191376919095"></circle><circle class="pearl" r="2.190433937142651" cx="29.10319056725943" cy="14.682791626937496"></circle></g><g class="bobaCup bright" cupRadius="16.92420846053534" width="33.84841692107068" height="33.84841692107068" pearlRadius="2.7380424214283137" pearlCount="14" transform="translate(225.1884455325943,97.10978025840586)"><circle class="pool" r="16.92420846053534" cx="16.92420846053534" cy="16.92420846053534" style="stroke-width: 1; fill: rgb(29, 145, 192);"></circle><circle class="pearl" r="2.190433937142651" cx="21.05226536319365" cy="12.873345368110366"></circle><circle class="pearl" r="2.190433937142651" cx="12.791535965217632" cy="20.977449844059887"></circle><circle class="pearl" r="2.190433937142651" cx="13.28729733696389" cy="13.234558484165458"></circle><circle class="pearl" r="2.190433937142651" cx="20.565207114128363" cy="20.609130321659162"></circle><circle class="pearl" r="2.190433937142651" cx="4.805836310453962" cy="19.210312613305423"></circle><circle class="pearl" r="2.190433937142651" cx="26.189016360883844" cy="7.411875289257699"></circle><circle class="pearl" r="2.190433937142651" cx="15.05448478186177" cy="29.09409655798518"></circle><circle class="pearl" r="2.190433937142651" cx="10.888699108735114" cy="5.763497254495881"></circle><circle class="pearl" r="2.190433937142651" cx="28.230915317410787" cy="22.562404722084047"></circle><circle class="pearl" r="2.190433937142651" cx="7.658740509631022" cy="26.43610983570282"></circle><circle class="pearl" r="2.190433937142651" cx="18.80311160351789" cy="4.755343257906741"></circle><circle class="pearl" r="2.190433937142651" cx="22.95924760087114" cy="28.085099146750782"></circle><circle class="pearl" r="2.190433937142651" cx="5.609702335033123" cy="11.308134770893066"></circle><circle class="pearl" r="2.190433937142651" cx="29.04205355888612" cy="14.634241587192259"></circle></g><g class="bobaCup bright" cupRadius="16.888651904535696" width="33.77730380907139" height="33.77730380907139" pearlRadius="2.7380424214283137" pearlCount="14" transform="translate(210.95952810094366,180.80947562221795)"><circle class="pool" r="16.888651904535696" cx="16.888651904535696" cy="16.888651904535696" style="stroke-width: 1; fill: rgb(65, 182, 196);"></circle><circle class="pearl" r="2.190433937142651" cx="21.03820735423243" cy="12.856978052629014"></circle><circle class="pearl" r="2.190433937142651" cx="12.733305541513602" cy="20.922734654797942"></circle><circle class="pearl" r="2.190433937142651" cx="13.284897070596942" cy="13.20343777222546"></circle><circle class="pearl" r="2.190433937142651" cx="20.49652205967727" cy="20.568711489180284"></circle><circle class="pearl" r="2.190433937142651" cx="4.810168163219302" cy="19.20386189744032"></circle><circle class="pearl" r="2.190433937142651" cx="26.10959760267718" cy="7.390144638676942"></circle><circle class="pearl" r="2.190433937142651" cx="15.057127708862696" cy="29.02697517281015"></circle><circle class="pearl" r="2.190433937142651" cx="10.825727654120254" cy="5.776522831372125"></circle><circle class="pearl" r="2.190433937142651" cx="28.170612323068422" cy="22.490094125418466"></circle><circle class="pearl" r="2.190433937142651" cx="7.666695866735743" cy="26.38650068834318"></circle><circle class="pearl" r="2.190433937142651" cx="18.733226000012213" cy="4.751757387909155"></circle><circle class="pearl" r="2.190433937142651" cx="22.949892578508532" cy="28.001428434735015"></circle><circle class="pearl" r="2.190433937142651" cx="5.596113554310579" cy="11.317388727960925"></circle><circle class="pearl" r="2.190433937142651" cx="28.96638364092058" cy="14.568014570091306"></circle></g><g class="bobaCup bright" cupRadius="16.48035289876359" width="32.96070579752718" height="32.96070579752718" pearlRadius="2.7380424214283132" pearlCount="13" transform="translate(130.47917387802397,227.3294750809451)"><circle class="pool" r="16.48035289876359" cx="16.48035289876359" cy="16.48035289876359" style="stroke-width: 1; fill: rgb(65, 182, 196);"></circle><circle class="pearl" r="2.1904339371426507" cx="20.739379904603833" cy="15.220565229914374"></circle><circle class="pearl" r="2.1904339371426507" cx="14.819847579441776" cy="20.584870184427846"></circle><circle class="pearl" r="2.1904339371426507" cx="13.12973623008642" cy="12.774661246707083"></circle><circle class="pearl" r="2.1904339371426507" cx="25.426582847693883" cy="25.670402819429807"></circle><circle class="pearl" r="2.1904339371426507" cx="4.801712392405672" cy="14.254614441493512"></circle><circle class="pearl" r="2.1904339371426507" cx="27.377882915136592" cy="11.016484974035622"></circle><circle class="pearl" r="2.1904339371426507" cx="10.595085457729425" cy="27.22331859829836"></circle><circle class="pearl" r="2.1904339371426507" cx="14.704970866293026" cy="4.746630750497345"></circle><circle class="pearl" r="2.1904339371426507" cx="28.148168871736306" cy="18.784112867914843"></circle><circle class="pearl" r="2.1904339371426507" cx="5.536364768322355" cy="21.810175531542065"></circle><circle class="pearl" r="2.1904339371426507" cx="22.4984443522416" cy="5.788827044316876"></circle><circle class="pearl" r="2.1904339371426507" cx="18.36198650558839" cy="28.202213053319706"></circle><circle class="pearl" r="2.1904339371426507" cx="7.5192950938401895" cy="7.299898495455065"></circle></g><g class="bobaCup bright" cupRadius="15.896543035234323" width="31.793086070468647" height="31.793086070468647" pearlRadius="2.7380424214283137" pearlCount="12" transform="translate(193.173184120705,80.33870011110639)"><circle class="pool" r="15.896543035234323" cx="15.896543035234323" cy="15.896543035234323" style="stroke-width: 1; fill: rgb(29, 145, 192);"></circle><circle class="pearl" r="2.190433937142651" cx="16.979745275830524" cy="11.699674502218631"></circle><circle class="pearl" r="2.190433937142651" cx="11.499810477289383" cy="17.51764833310201"></circle><circle class="pearl" r="2.190433937142651" cx="14.626145538306204" cy="4.701567457162149"></circle><circle class="pearl" r="2.190433937142651" cx="18.781771078433565" cy="19.01539161193517"></circle><circle class="pearl" r="2.190433937142651" cx="4.707497191047077" cy="14.554233014134299"></circle><circle class="pearl" r="2.190433937142651" cx="26.80587681502621" cy="12.64312846473286"></circle><circle class="pearl" r="2.190433937142651" cx="14.049104937169645" cy="27.03464664543996"></circle><circle class="pearl" r="2.190433937142651" cx="7.274195503110265" cy="7.192297019874854"></circle><circle class="pearl" r="2.190433937142651" cx="26.472650887948074" cy="20.462032679628983"></circle><circle class="pearl" r="2.190433937142651" cx="6.8040815679164055" cy="23.885595224683282"></circle><circle class="pearl" r="2.190433937142651" cx="22.56231449218887" cy="6.115787775628705"></circle><circle class="pearl" r="2.190433937142651" cx="21.89524498405382" cy="25.96708522103187"></circle></g><g class="bobaCup bright" cupRadius="15.74363565998599" width="31.48727131997198" height="31.48727131997198" pearlRadius="2.7380424214283137" pearlCount="12" transform="translate(304.256364340014,182.87723383971723)"><circle class="pool" r="15.74363565998599" cx="15.74363565998599" cy="15.74363565998599" style="stroke-width: 1; fill: rgb(127, 205, 187);"></circle><circle class="pearl" r="2.190433937142651" cx="16.84673653229571" cy="11.63077663352061"></circle><circle class="pearl" r="2.190433937142651" cx="11.35374036059195" cy="17.375881033059827"></circle><circle class="pearl" r="2.190433937142651" cx="14.588981702914971" cy="4.693122057217872"></circle><circle class="pearl" r="2.190433937142651" cx="18.49710234234143" cy="18.90877876144201"></circle><circle class="pearl" r="2.190433937142651" cx="4.705022872332501" cy="14.437190420268342"></circle><circle class="pearl" r="2.190433937142651" cx="26.48428372251533" cy="12.431875769252335"></circle><circle class="pearl" r="2.190433937142651" cx="14.167893872794913" cy="26.757493549800497"></circle><circle class="pearl" r="2.190433937142651" cx="7.247748694236705" cy="7.139851411491248"></circle><circle class="pearl" r="2.190433937142651" cx="26.213355001591204" cy="20.129326059043237"></circle><circle class="pearl" r="2.190433937142651" cx="6.917373451341334" cy="23.881997124031276"></circle><circle class="pearl" r="2.190433937142651" cx="22.31924500782528" cy="6.089694422062552"></circle><circle class="pearl" r="2.190433937142651" cx="21.93513389930624" cy="25.56797420492305"></circle></g><g class="bobaCup bright" cupRadius="15.729645038693413" width="31.459290077386825" height="31.459290077386825" pearlRadius="2.738042421428314" pearlCount="12" transform="translate(264.45723269487223,190.26547497518303)"><circle class="pool" r="15.729645038693413" cx="15.729645038693413" cy="15.729645038693413" style="stroke-width: 1; fill: rgb(65, 182, 196);"></circle><circle class="pearl" r="2.1904339371426516" cx="16.86218753827614" cy="11.615281905971301"></circle><circle class="pearl" r="2.1904339371426516" cx="11.347975878418694" cy="17.334487935245242"></circle><circle class="pearl" r="2.1904339371426516" cx="14.583247111147449" cy="4.692554371281075"></circle><circle class="pearl" r="2.1904339371426516" cx="18.469932490310388" cy="18.894981420137498"></circle><circle class="pearl" r="2.1904339371426516" cx="4.704711791324977" cy="14.42752096947895"></circle><circle class="pearl" r="2.1904339371426516" cx="26.466388415210194" cy="12.466578303151831"></circle><circle class="pearl" r="2.1904339371426516" cx="14.127651789597262" cy="26.726776317151163"></circle><circle class="pearl" r="2.1904339371426516" cx="7.244697311898353" cy="7.135467545973771"></circle><circle class="pearl" r="2.1904339371426516" cx="26.174017484376012" cy="20.152293524433603"></circle><circle class="pearl" r="2.1904339371426516" cx="6.896029778328737" cy="23.82867884274053"></circle><circle class="pearl" r="2.1904339371426516" cx="22.355947341084704" cy="6.1145401861254225"></circle><circle class="pearl" r="2.1904339371426516" cx="21.887802251707463" cy="25.55299631535738"></circle></g><g class="bobaCup bright" cupRadius="15.654753033059647" width="31.309506066119294" height="31.309506066119294" pearlRadius="2.7380424214283137" pearlCount="12" transform="translate(226.22307155556322,105.54994707497889)"><circle class="pool" r="15.654753033059647" cx="15.654753033059647" cy="15.654753033059647" style="stroke-width: 1; fill: rgb(65, 182, 196);"></circle><circle class="pearl" r="2.190433937142651" cx="17.49354683320249" cy="11.285059293583064"></circle><circle class="pearl" r="2.190433937142651" cx="11.544074490651054" cy="16.521319515232168"></circle><circle class="pearl" r="2.190433937142651" cx="14.468741587677222" cy="4.695714271852921"></circle><circle class="pearl" r="2.190433937142651" cx="18.446713384266147" cy="18.639872335218566"></circle><circle class="pearl" r="2.190433937142651" cx="4.695176133249394" cy="14.475845730534209"></circle><circle class="pearl" r="2.190433937142651" cx="26.560387313785892" cy="13.902316566588228"></circle><circle class="pearl" r="2.190433937142651" cx="12.681193826460648" cy="26.373780556239243"></circle><circle class="pearl" r="2.190433937142651" cx="7.199260853751271" cy="7.130653889706885"></circle><circle class="pearl" r="2.190433937142651" cx="25.513067450941715" cy="21.533453493186467"></circle><circle class="pearl" r="2.190433937142651" cx="6.136522651689571" cy="22.31148241958465"></circle><circle class="pearl" r="2.190433937142651" cx="23.845637683396475" cy="6.964535471305382"></circle><circle class="pearl" r="2.190433937142651" cx="20.366708221699536" cy="25.932819803223886"></circle></g><g class="bobaCup bright" cupRadius="15.527244476705624" width="31.054488953411248" height="31.054488953411248" pearlRadius="2.7380424214283137" pearlCount="12" transform="translate(141.14241199751532,217.06529273005168)"><circle class="pool" r="15.527244476705624" cx="15.527244476705624" cy="15.527244476705624" style="stroke-width: 1; fill: rgb(127, 205, 187);"></circle><circle class="pearl" r="2.190433937142651" cx="17.600783439149986" cy="11.145603423845632"></circle><circle class="pearl" r="2.190433937142651" cx="11.520630223256518" cy="16.062289694469037"></circle><circle class="pearl" r="2.190433937142651" cx="14.523839148262333" cy="4.68317829766497"></circle><circle class="pearl" r="2.190433937142651" cx="18.27372701496258" cy="18.448521901665284"></circle><circle class="pearl" r="2.190433937142651" cx="4.717083817414025" cy="14.093232466500213"></circle><circle class="pearl" r="2.190433937142651" cx="26.35774397670174" cy="14.332646691725435"></circle><circle class="pearl" r="2.190433937142651" cx="11.891123163466151" cy="25.972015371706345"></circle><circle class="pearl" r="2.190433937142651" cx="7.236021962009666" cy="7.049717621918907"></circle><circle class="pearl" r="2.190433937142651" cx="24.96354627912204" cy="22.05802136890742"></circle><circle class="pearl" r="2.190433937142651" cx="5.877182645433784" cy="21.57562175590694"></circle><circle class="pearl" r="2.190433937142651" cx="23.78889846589453" cy="7.031089961785506"></circle><circle class="pearl" r="2.190433937142651" cx="19.451134356542873" cy="25.89978351870334"></circle></g><g class="bobaCup bright" cupRadius="15.473427156821757" width="30.946854313643513" height="30.946854313643513" pearlRadius="2.7380424214283132" pearlCount="11" transform="translate(195.6952322539109,180.79921571596816)"><circle class="pool" r="15.473427156821757" cx="15.473427156821757" cy="15.473427156821757" style="stroke-width: 1; fill: rgb(29, 145, 192);"></circle><circle class="pearl" r="2.1904339371426507" cx="19.38416309586413" cy="15.773463362340854"></circle><circle class="pearl" r="2.1904339371426507" cx="11.89810993155554" cy="17.66277169492667"></circle><circle class="pearl" r="2.1904339371426507" cx="14.139543161616832" cy="10.20665802568925"></circle><circle class="pearl" r="2.1904339371426507" cx="22.04501765700245" cy="24.831313647826843"></circle><circle class="pearl" r="2.1904339371426507" cx="4.6838658009639635" cy="14.461221679007592"></circle><circle class="pearl" r="2.1904339371426507" cx="25.59478470141458" cy="10.86771574504287"></circle><circle class="pearl" r="2.1904339371426507" cx="14.428861432521641" cy="26.260833038511617"></circle><circle class="pearl" r="2.1904339371426507" cx="7.212282939401304" cy="7.040555917646231"></circle><circle class="pearl" r="2.1904339371426507" cx="25.949037449887843" cy="18.732411994108453"></circle><circle class="pearl" r="2.1904339371426507" cx="7.139637774849324" cy="23.860146258492925"></circle><circle class="pearl" r="2.1904339371426507" cx="20.207653105227852" cy="5.392753552542689"></circle></g><g class="bobaCup bright" cupRadius="15.422099430700742" width="30.844198861401484" height="30.844198861401484" pearlRadius="2.7380424214283137" pearlCount="11" transform="translate(120.84636260813431,229.55279874998573)"><circle class="pool" r="15.422099430700742" cx="15.422099430700742" cy="15.422099430700742" style="stroke-width: 1; fill: rgb(127, 205, 187);"></circle><circle class="pearl" r="2.190433937142651" cx="19.334027437953907" cy="15.74263346758201"></circle><circle class="pearl" r="2.190433937142651" cx="11.888625731186389" cy="17.637939668494838"></circle><circle class="pearl" r="2.190433937142651" cx="14.086006764273504" cy="10.207903431017085"></circle><circle class="pearl" r="2.190433937142651" cx="22.003477602391335" cy="24.71865594448855"></circle><circle class="pearl" r="2.190433937142651" cx="4.682968527719648" cy="14.425334333013984"></circle><circle class="pearl" r="2.190433937142651" cx="25.4844386001071" cy="10.799660061315517"></circle><circle class="pearl" r="2.190433937142651" cx="14.404946679477296" cy="26.159896310674817"></circle><circle class="pearl" r="2.190433937142651" cx="7.207902754093338" cy="7.020308579278195"></circle><circle class="pearl" r="2.190433937142651" cx="25.85254942580209" cy="18.64690408338993"></circle><circle class="pearl" r="2.190433937142651" cx="7.140117467722694" cy="23.78098517455179"></circle><circle class="pearl" r="2.190433937142651" cx="20.106676816905495" cy="5.379426674575873"></circle></g><g class="bobaCup bright" cupRadius="15.361990589350063" width="30.723981178700125" height="30.723981178700125" pearlRadius="2.7380424214283132" pearlCount="11" transform="translate(231.7332072441521,80.60995476544231)"><circle class="pool" r="15.361990589350063" cx="15.361990589350063" cy="15.361990589350063" style="stroke-width: 1; fill: rgb(65, 182, 196);"></circle><circle class="pearl" r="2.1904339371426507" cx="19.275423274503783" cy="15.709666110408039"></circle><circle class="pearl" r="2.1904339371426507" cx="11.877245497705132" cy="17.60765410778172"></circle><circle class="pearl" r="2.1904339371426507" cx="14.02624845369409" cy="10.208068949939126"></circle><circle class="pearl" r="2.1904339371426507" cx="21.94961851635324" cy="24.58908826907174"></circle><circle class="pearl" r="2.1904339371426507" cx="4.681950688974529" cy="14.382982544740205"></circle><circle class="pearl" r="2.1904339371426507" cx="25.35744137608798" cy="10.72730164827027"></circle><circle class="pearl" r="2.1904339371426507" cx="14.373139968711465" cy="26.04139877956801"></circle><circle class="pearl" r="2.1904339371426507" cx="7.202576334121924" cy="6.996773057497422"></circle><circle class="pearl" r="2.1904339371426507" cx="25.737922552453778" cy="18.554229398993325"></circle><circle class="pearl" r="2.1904339371426507" cx="7.140033088736206" cy="23.68779115281895"></circle><circle class="pearl" r="2.1904339371426507" cx="19.995493874890734" cy="5.366164662227042"></circle></g><g class="bobaCup bright" cupRadius="15.17888805353816" width="30.35777610707632" height="30.35777610707632" pearlRadius="2.7380424214283137" pearlCount="11" transform="translate(176.3669574695541,4.821111946461841)"><circle class="pool" r="15.17888805353816" cx="15.17888805353816" cy="15.17888805353816" style="stroke-width: 1; fill: rgb(127, 205, 187);"></circle><circle class="pearl" r="2.190433937142651" cx="19.098772401940884" cy="15.619337686196982"></circle><circle class="pearl" r="2.190433937142651" cx="11.844515676196474" cy="17.52370700752845"></circle><circle class="pearl" r="2.190433937142651" cx="13.84459698264579" cy="10.218253257059708"></circle><circle class="pearl" r="2.190433937142651" cx="21.780450599936042" cy="24.196303487120023"></circle><circle class="pearl" r="2.190433937142651" cx="4.678914440292644" cy="14.254210948159228"></circle><circle class="pearl" r="2.190433937142651" cx="24.972108836882207" cy="10.51293435439964"></circle><circle class="pearl" r="2.190433937142651" cx="14.270985226512085" cy="25.679876114406348"></circle><circle class="pearl" r="2.190433937142651" cx="7.186045923779723" cy="6.925615109194357"></circle><circle class="pearl" r="2.190433937142651" cx="25.387730201753417" cy="18.275976905162544"></circle><circle class="pearl" r="2.190433937142651" cx="7.140927893323088" cy="23.404105140324194"></circle><circle class="pearl" r="2.190433937142651" cx="19.654051222881172" cy="5.325420261938582"></circle></g><g class="bobaCup bright" cupRadius="15.167803365392468" width="30.335606730784935" height="30.335606730784935" pearlRadius="2.7380424214283137" pearlCount="11" transform="translate(16.720852002968,103.22726000447656)"><circle class="pool" r="15.167803365392468" cx="15.167803365392468" cy="15.167803365392468" style="stroke-width: 1; fill: rgb(65, 182, 196);"></circle><circle class="pearl" r="2.190433937142651" cx="19.088193069799214" cy="15.614249445500871"></circle><circle class="pearl" r="2.190433937142651" cx="11.842686162862679" cy="17.51922481443205"></circle><circle class="pearl" r="2.190433937142651" cx="13.833412018077148" cy="10.219562076228401"></circle><circle class="pearl" r="2.190433937142651" cx="21.770261414025686" cy="24.17247491863745"></circle><circle class="pearl" r="2.190433937142651" cx="4.678732351636507" cy="14.246451515547953"></circle><circle class="pearl" r="2.190433937142651" cx="24.948711181480206" cy="10.499796904166143"></circle><circle class="pearl" r="2.190433937142651" cx="14.264728082037642" cy="25.657975551683894"></circle><circle class="pearl" r="2.190433937142651" cx="7.185040888425116" cy="6.9213268138743445"></circle><circle class="pearl" r="2.190433937142651" cx="25.366584494057967" cy="18.25883543828054"></circle><circle class="pearl" r="2.190433937142651" cx="7.141093248652185" cy="23.38697460542641"></circle><circle class="pearl" r="2.190433937142651" cx="19.63269458992836" cy="5.3227684115064005"></circle></g><g class="bobaCup bright" cupRadius="15.10290261845146" width="30.20580523690292" height="30.20580523690292" pearlRadius="2.7380424214283137" pearlCount="11" transform="translate(300.2025793332308,88.12346893237813)"><circle class="pool" r="15.10290261845146" cx="15.10290261845146" cy="15.10290261845146" style="stroke-width: 1; fill: rgb(65, 182, 196);"></circle><circle class="pearl" r="2.190433937142651" cx="19.026566934327526" cy="15.585268293740942"></circle><circle class="pearl" r="2.190433937142651" cx="11.832426504105266" cy="17.49462713352795"></circle><circle class="pearl" r="2.190433937142651" cx="13.767287060138756" cy="10.229118126062087"></circle><circle class="pearl" r="2.190433937142651" cx="21.710952476847" cy="24.032729620684226"></circle><circle class="pearl" r="2.190433937142651" cx="4.677668392093858" cy="14.201140831942332"></circle><circle class="pearl" r="2.190433937142651" cx="24.811421422421116" cy="10.422108267773027"></circle><circle class="pearl" r="2.190433937142651" cx="14.228014915907035" cy="25.529720270619663"></circle><circle class="pearl" r="2.190433937142651" cx="7.179149891072619" cy="6.896261800773237"></circle><circle class="pearl" r="2.190433937142651" cx="25.242990078065294" cy="18.157339831540437"></circle><circle class="pearl" r="2.190433937142651" cx="7.142364974459525" cy="23.28680084596607"></circle><circle class="pearl" r="2.190433937142651" cx="19.5054948582336" cy="5.306659069437776"></circle></g><g class="bobaCup bright" cupRadius="14.77665826136942" width="29.55331652273884" height="29.55331652273884" pearlRadius="2.7380424214283132" pearlCount="10" transform="translate(77.8603719190533,259.07993150431446)"><circle class="pool" r="14.77665826136942" cx="14.77665826136942" cy="14.77665826136942" style="stroke-width: 1; fill: rgb(65, 182, 196);"></circle><circle class="pearl" r="2.1904339371426507" cx="17.66975307092258" cy="12.17806838929976"></circle><circle class="pearl" r="2.1904339371426507" cx="12.17174072029518" cy="17.132084048161587"></circle><circle class="pearl" r="2.1904339371426507" cx="14.917481913380627" cy="4.671965568812849"></circle><circle class="pearl" r="2.1904339371426507" cx="22.242206467002088" cy="22.87800229119499"></circle><circle class="pearl" r="2.1904339371426507" cx="4.659197501228433" cy="14.27628735009907"></circle><circle class="pearl" r="2.1904339371426507" cx="22.455568080364113" cy="6.802644923776282"></circle><circle class="pearl" r="2.1904339371426507" cx="14.516670452192042" cy="24.90030594029813"></circle><circle class="pearl" r="2.1904339371426507" cx="7.197964430312185" cy="6.742231542525924"></circle><circle class="pearl" r="2.1904339371426507" cx="24.890152243108968" cy="15.382892160177851"></circle><circle class="pearl" r="2.1904339371426507" cx="7.091845189828773" cy="22.747079094600938"></circle></g><g class="bobaCup bright" cupRadius="14.54701079107906" width="29.09402158215812" height="29.09402158215812" pearlRadius="2.7380424214283137" pearlCount="10" transform="translate(145.14350410425078,71.0876864795743)"><circle class="pool" r="14.54701079107906" cx="14.54701079107906" cy="14.54701079107906" style="stroke-width: 1; fill: rgb(29, 145, 192);"></circle><circle class="pearl" r="2.190433937142651" cx="17.28848086648858" cy="11.878546155302638"></circle><circle class="pearl" r="2.190433937142651" cx="12.18383116214128" cy="16.853895393315586"></circle><circle class="pearl" r="2.190433937142651" cx="14.479108241063383" cy="4.650881707226265"></circle><circle class="pearl" r="2.190433937142651" cx="22.217074600344244" cy="22.25693657935054"></circle><circle class="pearl" r="2.190433937142651" cx="4.6513263736490575" cy="14.41454361728982"></circle><circle class="pearl" r="2.190433937142651" cx="22.02018153370982" cy="6.7170592779842035"></circle><circle class="pearl" r="2.190433937142651" cx="14.616162291480897" cy="24.4431339913998"></circle><circle class="pearl" r="2.190433937142651" cx="6.877038839042497" cy="6.837028003781025"></circle><circle class="pearl" r="2.190433937142651" cx="24.44247014928352" cy="14.702236781037342"></circle><circle class="pearl" r="2.190433937142651" cx="7.072937297740786" cy="22.376421711304165"></circle></g><g class="bobaCup bright" cupRadius="14.503446068445779" width="29.006892136891558" height="29.006892136891558" pearlRadius="2.7380424214283132" pearlCount="10" transform="translate(122.20432236912106,244.61658503146595)"><circle class="pool" r="14.503446068445779" cx="14.503446068445779" cy="14.503446068445779" style="stroke-width: 1; fill: rgb(65, 182, 196);"></circle><circle class="pearl" r="2.1904339371426507" cx="17.24251218467244" cy="11.846831852423954"></circle><circle class="pearl" r="2.1904339371426507" cx="12.166679032011132" cy="16.777590690105097"></circle><circle class="pearl" r="2.1904339371426507" cx="14.460306988689307" cy="4.650787385196671"></circle><circle class="pearl" r="2.1904339371426507" cx="22.138399104994456" cy="22.183880124980238"></circle><circle class="pearl" r="2.1904339371426507" cx="4.651186395310908" cy="14.387537427093864"></circle><circle class="pearl" r="2.1904339371426507" cx="21.936808485777206" cy="6.700452139761363"></circle><circle class="pearl" r="2.1904339371426507" cx="14.547887640973462" cy="24.356100819054117"></circle><circle class="pearl" r="2.1904339371426507" cx="6.868542914754555" cy="6.822981126606392"></circle><circle class="pearl" r="2.1904339371426507" cx="24.35546720654926" cy="14.646112445719625"></circle><circle class="pearl" r="2.1904339371426507" cx="7.068972174404874" cy="22.305776512735"></circle></g><g class="bobaCup bright" cupRadius="14.456392005956456" width="28.912784011912912" height="28.912784011912912" pearlRadius="2.7380424214283137" pearlCount="10" transform="translate(180.32851582539487,281.8641970796807)"><circle class="pool" r="14.456392005956456" cx="14.456392005956456" cy="14.456392005956456" style="stroke-width: 1; fill: rgb(65, 182, 196);"></circle><circle class="pearl" r="2.190433937142651" cx="17.193294621511264" cy="11.813039144825234"></circle><circle class="pearl" r="2.190433937142651" cx="12.148003365641948" cy="16.69475144081321"></circle><circle class="pearl" r="2.190433937142651" cx="14.440297044286341" cy="4.65073218820193"></circle><circle class="pearl" r="2.190433937142651" cx="22.053427219325084" cy="22.104950292852802"></circle><circle class="pearl" r="2.190433937142651" cx="4.651057209868235" cy="14.358125950957884"></circle><circle class="pearl" r="2.190433937142651" cx="21.846739985733425" cy="6.682541738117768"></circle><circle class="pearl" r="2.190433937142651" cx="14.473784981329686" cy="24.262050320298844"></circle><circle class="pearl" r="2.190433937142651" cx="6.859339182317299" cy="6.8078445966109165"></circle><circle class="pearl" r="2.190433937142651" cx="24.26148161908808" cy="14.58579415255668"></circle><circle class="pearl" r="2.190433937142651" cx="7.064685525312532" cy="22.229434113783523"></circle></g><g class="bobaCup bright" cupRadius="13.781599554300929" width="27.563199108601857" height="27.563199108601857" pearlRadius="2.738042421428314" pearlCount="9" transform="translate(101.17835098308682,282.7604669000422)"><circle class="pool" r="13.781599554300929" cx="13.781599554300929" cy="13.781599554300929" style="stroke-width: 1; fill: rgb(29, 145, 192);"></circle><circle class="pearl" r="2.1904339371426516" cx="15.5701142398882" cy="12.026841551934696"></circle><circle class="pearl" r="2.1904339371426516" cx="10.191206461249394" cy="17.359258390352895"></circle><circle class="pearl" r="2.1904339371426516" cx="13.843720500226324" cy="4.650863235233929"></circle><circle class="pearl" r="2.1904339371426516" cx="20.82187164571018" cy="20.97853664977828"></circle><circle class="pearl" r="2.1904339371426516" cx="4.650963360498761" cy="13.700243875509962"></circle><circle class="pearl" r="2.1904339371426516" cx="20.74995721023915" cy="6.542222789430632"></circle><circle class="pearl" r="2.1904339371426516" cx="13.819660295204162" cy="22.91242332362197"></circle><circle class="pearl" r="2.1904339371426516" cx="6.80824630597329" cy="6.545151935729875"></circle><circle class="pearl" r="2.1904339371426516" cx="22.911910412115112" cy="13.906442595736506"></circle></g><g class="bobaCup bright" cupRadius="13.723059465390621" width="27.446118930781243" height="27.446118930781243" pearlRadius="2.7380424214283132" pearlCount="9" transform="translate(165.1197954953522,227.27526256078627)"><circle class="pool" r="13.723059465390621" cx="13.723059465390621" cy="13.723059465390621" style="stroke-width: 1; fill: rgb(65, 182, 196);"></circle><circle class="pearl" r="2.1904339371426507" cx="15.470757083253085" cy="12.012955624341283"></circle><circle class="pearl" r="2.1904339371426507" cx="10.089653439425655" cy="17.3431242259953"></circle><circle class="pearl" r="2.1904339371426507" cx="13.783193802308368" cy="4.650854983295493"></circle><circle class="pearl" r="2.1904339371426507" cx="20.710908985953818" cy="20.88302293017534"></circle><circle class="pearl" r="2.1904339371426507" cx="4.65088731343372" cy="13.65595159900512"></circle><circle class="pearl" r="2.1904339371426507" cx="20.640370818547606" cy="6.521645134258283"></circle><circle class="pearl" r="2.1904339371426507" cx="13.744376109918134" cy="22.795379146149568"></circle><circle class="pearl" r="2.1904339371426507" cx="6.8015294115660465" cy="6.524108318492551"></circle><circle class="pearl" r="2.1904339371426507" cx="22.79460126204852" cy="13.870720116969123"></circle></g><g class="bobaCup bright" cupRadius="13.703499298048849" width="27.406998596097697" height="27.406998596097697" pearlRadius="2.738042421428314" pearlCount="9" transform="translate(285.6369751021971,229.6540317035131)"><circle class="pool" r="13.703499298048849" cx="13.703499298048849" cy="13.703499298048849" style="stroke-width: 1; fill: rgb(29, 145, 192);"></circle><circle class="pearl" r="2.1904339371426516" cx="15.437060270606537" cy="12.008824275367179"></circle><circle class="pearl" r="2.1904339371426516" cx="10.054531118547153" cy="17.338892872481374"></circle><circle class="pearl" r="2.1904339371426516" cx="13.762988792676824" cy="4.650852356780172"></circle><circle class="pearl" r="2.1904339371426516" cx="20.673821325682663" cy="20.851102384795038"></circle><circle class="pearl" r="2.1904339371426516" cx="4.650866505168475" cy="13.640835425081072"></circle><circle class="pearl" r="2.1904339371426516" cx="20.603834760247686" cy="6.5148279677437735"></circle><circle class="pearl" r="2.1904339371426516" cx="13.71945624557986" cy="22.75626607704338"></circle><circle class="pearl" r="2.1904339371426516" cx="6.799413446881887" cy="6.517014596903506"></circle><circle class="pearl" r="2.1904339371426516" cx="22.755392046200992" cy="13.859089805711333"></circle></g><g class="bobaCup bright" cupRadius="13.656026739883762" width="27.312053479767524" height="27.312053479767524" pearlRadius="2.7380424214283137" pearlCount="9" transform="translate(245.03428688448213,65.1370523862603)"><circle class="pool" r="13.656026739883762" cx="13.656026739883762" cy="13.656026739883762" style="stroke-width: 1; fill: rgb(65, 182, 196);"></circle><circle class="pearl" r="2.190433937142651" cx="15.354127674693055" cy="11.999964216836016"></circle><circle class="pearl" r="2.190433937142651" cx="9.966533205487215" cy="17.3312899115977"></circle><circle class="pearl" r="2.190433937142651" cx="13.713997603060296" cy="4.650846274468027"></circle><circle class="pearl" r="2.190433937142651" cx="20.58377110349812" cy="20.773626431458514"></circle><circle class="pearl" r="2.190433937142651" cx="4.650824513773637" cy="13.603431144914806"></circle><circle class="pearl" r="2.190433937142651" cx="20.51534640052959" cy="6.49841392507016"></circle><circle class="pearl" r="2.190433937142651" cx="13.659466730020172" cy="22.66132981792501"></circle><circle class="pearl" r="2.190433937142651" cx="6.79457709006776" cy="6.499651466982938"></circle><circle class="pearl" r="2.190433937142651" cx="22.660201866189148" cy="13.83157513324629"></circle></g><g class="bobaCup bright" cupRadius="13.61721365334347" width="27.23442730668694" height="27.23442730668694" pearlRadius="2.738042421428314" pearlCount="9" transform="translate(197.42115386499393,26.51091330850563)"><circle class="pool" r="13.61721365334347" cx="13.61721365334347" cy="13.61721365334347" style="stroke-width: 1; fill: rgb(65, 182, 196);"></circle><circle class="pearl" r="2.1904339371426516" cx="15.285000979600866" cy="11.994054272242018"></circle><circle class="pearl" r="2.1904339371426516" cx="9.891410949709373" cy="17.32812741585494"></circle><circle class="pearl" r="2.1904339371426516" cx="13.673998238334985" cy="4.650841626621995"></circle><circle class="pearl" r="2.1904339371426516" cx="20.510090919806057" cy="20.7102866879186"></circle><circle class="pearl" r="2.1904339371426516" cx="4.650798153801475" cy="13.57204131527395"></circle><circle class="pearl" r="2.1904339371426516" cx="20.443210926126657" cy="6.485141419344551"></circle><circle class="pearl" r="2.1904339371426516" cx="13.610931055375268" cy="22.583702628809103"></circle><circle class="pearl" r="2.1904339371426516" cx="6.790968938988632" cy="6.48528477041833"></circle><circle class="pearl" r="2.1904339371426516" cx="22.582340674900387" cy="13.809904200317176"></circle></g><g class="bobaCup bright" cupRadius="13.472663293365748" width="26.945326586731497" height="26.945326586731497" pearlRadius="2.738042421428314" pearlCount="9" transform="translate(6.527336706634252,198.21048209229699)"><circle class="pool" r="13.472663293365748" cx="13.472663293365748" cy="13.472663293365748" style="stroke-width: 1; fill: rgb(65, 182, 196);"></circle><circle class="pearl" r="2.1904339371426516" cx="15.01483826584205" cy="11.984731451243027"></circle><circle class="pearl" r="2.1904339371426516" cx="9.580845798277293" cy="17.345486453850036"></circle><circle class="pearl" r="2.1904339371426516" cx="13.525583328231408" cy="4.650827162768486"></circle><circle class="pearl" r="2.1904339371426516" cx="20.23488400941437" cy="20.474623326766892"></circle><circle class="pearl" r="2.1904339371426516" cx="4.650746183460816" cy="13.447793100892214"></circle><circle class="pearl" r="2.1904339371426516" cx="20.176593263602502" cy="6.437070628099022"></circle><circle class="pearl" r="2.1904339371426516" cx="13.433828452137197" cy="22.294547387488794"></circle><circle class="pearl" r="2.1904339371426516" cx="6.7808977797826575" cy="6.430100819123236"></circle><circle class="pearl" r="2.1904339371426516" cx="22.292004310123193" cy="13.737286503093634"></circle></g><g class="bobaCup bright" cupRadius="13.462734910047773" width="26.925469820095547" height="26.925469820095547" pearlRadius="2.7380424214283146" pearlCount="9" transform="translate(167.5585517163628,268.42740989394196)"><circle class="pool" r="13.462734910047773" cx="13.462734910047773" cy="13.462734910047773" style="stroke-width: 1; fill: rgb(127, 205, 187);"></circle><circle class="pearl" r="2.1904339371426516" cx="14.995420720767214" cy="11.984942668530529"></circle><circle class="pearl" r="2.1904339371426516" cx="9.557414151591537" cy="17.348638720663597"></circle><circle class="pearl" r="2.1904339371426516" cx="13.51542686415482" cy="4.650826344790752"></circle><circle class="pearl" r="2.1904339371426516" cx="20.215912527000736" cy="20.45846278608811"></circle><circle class="pearl" r="2.1904339371426516" cx="4.650744522574379" cy="13.438790169715006"></circle><circle class="pearl" r="2.1904339371426516" cx="20.158418885899543" cy="6.433858515612047"></circle><circle class="pearl" r="2.1904339371426516" cx="13.421837548597965" cy="22.274684471975814"></circle><circle class="pearl" r="2.1904339371426516" cx="6.780435522191673" cy="6.426195578494824"></circle><circle class="pearl" r="2.1904339371426516" cx="22.2720364125404" cy="13.732856174246526"></circle></g><g class="bobaCup bright" cupRadius="12.930403552726105" width="25.86080710545221" height="25.86080710545221" pearlRadius="2.7380424214283137" pearlCount="8" transform="translate(220.2702897157854,62.18193017800414)"><circle class="pool" r="12.930403552726105" cx="12.930403552726105" cy="12.930403552726105" style="stroke-width: 1; fill: rgb(29, 145, 192);"></circle><circle class="pearl" r="2.190433937142651" cx="13.708334555457366" cy="12.965830419371375"></circle><circle class="pearl" r="2.190433937142651" cx="6.745745201312775" cy="19.63509036134193"></circle><circle class="pearl" r="2.190433937142651" cx="14.306080455176733" cy="4.724111221828666"></circle><circle class="pearl" r="2.190433937142651" cx="20.621691070110924" cy="16.786581295395766"></circle><circle class="pearl" r="2.190433937142651" cx="4.653663167152354" cy="13.206121780838089"></circle><circle class="pearl" r="2.190433937142651" cx="20.556821467764546" cy="8.872430983050208"></circle><circle class="pearl" r="2.190433937142651" cx="14.349671532680198" cy="21.131956948840195"></circle><circle class="pearl" r="2.190433937142651" cx="6.708835475213728" cy="6.245897330896513"></circle></g><g class="bobaCup bright" cupRadius="12.851437624828987" width="25.702875249657975" height="25.702875249657975" pearlRadius="2.7380424214283132" pearlCount="8" transform="translate(171.10618373800386,14.23257871025019)"><circle class="pool" r="12.851437624828987" cx="12.851437624828987" cy="12.851437624828987" style="stroke-width: 1; fill: rgb(29, 145, 192);"></circle><circle class="pearl" r="2.1904339371426507" cx="13.538604732558662" cy="12.915912519830785"></circle><circle class="pearl" r="2.1904339371426507" cx="6.705229307980045" cy="19.487147506446746"></circle><circle class="pearl" r="2.1904339371426507" cx="14.204318202343316" cy="4.722130995537664"></circle><circle class="pearl" r="2.1904339371426507" cx="20.47424178410387" cy="16.661946053459612"></circle><circle class="pearl" r="2.1904339371426507" cx="4.6541583785583525" cy="13.148559538075332"></circle><circle class="pearl" r="2.1904339371426507" cx="20.384125920837416" cy="8.761947112844247"></circle><circle class="pearl" r="2.1904339371426507" cx="14.259801790212157" cy="20.97474897435948"></circle><circle class="pearl" r="2.1904339371426507" cx="6.7026528374759815" cy="6.217131182916861"></circle></g><g class="bobaCup bright" cupRadius="12.77541161583546" width="25.55082323167092" height="25.55082323167092" pearlRadius="2.738042421428314" pearlCount="8" transform="translate(182.89141341411747,238.29913952200985)"><circle class="pool" r="12.77541161583546" cx="12.77541161583546" cy="12.77541161583546" style="stroke-width: 1; fill: rgb(127, 205, 187);"></circle><circle class="pearl" r="2.1904339371426516" cx="13.38249939131004" cy="12.8590974280029"></circle><circle class="pearl" r="2.1904339371426516" cx="6.700499270508232" cy="19.363308496095105"></circle><circle class="pearl" r="2.1904339371426516" cx="14.10653032888127" cy="4.720259631505906"></circle><circle class="pearl" r="2.1904339371426516" cx="20.334557417447524" cy="16.534432794253846"></circle><circle class="pearl" r="2.1904339371426516" cx="4.654874709828274" cy="13.101074829839435"></circle><circle class="pearl" r="2.1904339371426516" cx="20.216294634792185" cy="8.651796659420397"></circle><circle class="pearl" r="2.1904339371426516" cx="14.192051638277722" cy="20.821312859967282"></circle><circle class="pearl" r="2.1904339371426516" cx="6.6965311122768885" cy="6.1896605852147815"></circle></g><g class="bobaCup bright" cupRadius="12.6745268193716" width="25.3490536387432" height="25.3490536387432" pearlRadius="2.7380424214283137" pearlCount="8" transform="translate(200.95012878988462,251.5705931936263)"><circle class="pool" r="12.6745268193716" cx="12.6745268193716" cy="12.6745268193716" style="stroke-width: 1; fill: rgb(127, 205, 187);"></circle><circle class="pearl" r="2.190433937142651" cx="13.177686337594226" cy="12.772505176367977"></circle><circle class="pearl" r="2.190433937142651" cx="6.6947529721605274" cy="19.199041164614346"></circle><circle class="pearl" r="2.190433937142651" cx="13.969745031244656" cy="4.717076513342111"></circle><circle class="pearl" r="2.190433937142651" cx="20.153055951834457" cy="16.35214388172631"></circle><circle class="pearl" r="2.190433937142651" cx="4.6560066953435655" cy="13.040454363556229"></circle><circle class="pearl" r="2.190433937142651" cx="19.98844859590367" cy="8.492314486547007"></circle><circle class="pearl" r="2.190433937142651" cx="14.110118362000673" cy="20.6167661897167"></circle><circle class="pearl" r="2.190433937142651" cx="6.688172683438099" cy="6.153536023042037"></circle></g><g class="bobaCup bright" cupRadius="12.649908076636752" width="25.299816153273504" height="25.299816153273504" pearlRadius="2.738042421428314" pearlCount="8" transform="translate(13.266305681425788,287.35009192336327)"><circle class="pool" r="12.649908076636752" cx="12.649908076636752" cy="12.649908076636752" style="stroke-width: 1; fill: rgb(127, 205, 187);"></circle><circle class="pearl" r="2.1904339371426516" cx="13.128009131951519" cy="12.749282365375448"></circle><circle class="pearl" r="2.1904339371426516" cx="6.693464380442771" cy="19.158976640094348"></circle><circle class="pearl" r="2.1904339371426516" cx="13.934866215630134" cy="4.716154481422336"></circle><circle class="pearl" r="2.1904339371426516" cx="20.109563703793633" cy="16.304890746649942"></circle><circle class="pearl" r="2.1904339371426516" cx="4.656320327741067" cy="13.026171617885495"></circle><circle class="pearl" r="2.1904339371426516" cx="19.931730318203325" cy="8.450558966303465"></circle><circle class="pearl" r="2.1904339371426516" cx="14.091811789525702" cy="20.566646327223534"></circle><circle class="pearl" r="2.1904339371426516" cx="6.686081865886191" cy="6.144783005982703"></circle></g><g class="bobaCup bright" cupRadius="12.442865584107183" width="24.885731168214367" height="24.885731168214367" pearlRadius="2.738042421428314" pearlCount="7" transform="translate(163.9940828260191,155.03775664102395)"><circle class="pool" r="12.442865584107183" cx="12.442865584107183" cy="12.442865584107183" style="stroke-width: 1; fill: rgb(127, 205, 187);"></circle><circle class="pearl" r="2.1904339371426516" cx="12.552183030522045" cy="12.474166175188106"></circle><circle class="pearl" r="2.1904339371426516" cx="4.973097455071125" cy="15.256865085587156"></circle><circle class="pearl" r="2.1904339371426516" cx="13.246563405179382" cy="4.676706202434955"></circle><circle class="pearl" r="2.1904339371426516" cx="18.93105416682703" cy="17.988093046028144"></circle><circle class="pearl" r="2.1904339371426516" cx="5.759126143104146" cy="7.309167118459866"></circle><circle class="pearl" r="2.1904339371426516" cx="19.781906878153077" cy="9.115636912020712"></circle><circle class="pearl" r="2.1904339371426516" cx="11.15977982743512" cy="20.168676397229042"></circle></g><g class="bobaCup bright" cupRadius="12.431527646922655" width="24.86305529384531" height="24.86305529384531" pearlRadius="2.7380424214283137" pearlCount="7" transform="translate(248.72280381501113,96.14126293300643)"><circle class="pool" r="12.431527646922655" cx="12.431527646922655" cy="12.431527646922655" style="stroke-width: 1; fill: rgb(65, 182, 196);"></circle><circle class="pearl" r="2.190433937142651" cx="12.516614674006666" cy="12.45967722473844"></circle><circle class="pearl" r="2.190433937142651" cx="4.966413231801358" cy="15.21529448843236"></circle><circle class="pearl" r="2.190433937142651" cx="13.273504261620456" cy="4.67926917686561"></circle><circle class="pearl" r="2.190433937142651" cx="18.916182344689265" cy="17.95839276865609"></circle><circle class="pearl" r="2.190433937142651" cx="5.77298226869458" cy="7.269810566776814"></circle><circle class="pearl" r="2.190433937142651" cx="19.774375515690185" cy="9.160880620830396"></circle><circle class="pearl" r="2.190433937142651" cx="11.131794425010956" cy="20.144200925301487"></circle></g><g class="bobaCup bright" cupRadius="12.42329055078306" width="24.84658110156612" height="24.84658110156612" pearlRadius="2.738042421428314" pearlCount="7" transform="translate(92.53171737280512,46.597747543515716)"><circle class="pool" r="12.42329055078306" cx="12.42329055078306" cy="12.42329055078306" style="stroke-width: 1; fill: rgb(29, 145, 192);"></circle><circle class="pearl" r="2.1904339371426516" cx="12.490513113180064" cy="12.448965239429688"></circle><circle class="pearl" r="2.1904339371426516" cx="4.961436770510421" cy="15.184382058503523"></circle><circle class="pearl" r="2.1904339371426516" cx="13.293817095574054" cy="4.68126058871931"></circle><circle class="pearl" r="2.1904339371426516" cx="18.90541197150076" cy="17.936721254435522"></circle><circle class="pearl" r="2.1904339371426516" cx="5.783422197185814" cy="7.240560591211052"></circle><circle class="pearl" r="2.1904339371426516" cx="19.769007957801307" cy="9.194736666153489"></circle><circle class="pearl" r="2.1904339371426516" cx="11.11086645653501" cy="20.1263396653472"></circle></g><g class="bobaCup bright" cupRadius="11.830917926507148" width="23.661835853014296" height="23.661835853014296" pearlRadius="2.7380424214283137" pearlCount="6" transform="translate(155.9840707558348,221.8660675727795)"><circle class="pool" r="11.830917926507148" cx="11.830917926507148" cy="11.830917926507148" style="stroke-width: 1; fill: rgb(65, 182, 196);"></circle><circle class="pearl" r="2.190433937142651" cx="12.298485641108208" cy="12.078363492627425"></circle><circle class="pearl" r="2.190433937142651" cx="6.996465564535137" cy="17.978281998174538"></circle><circle class="pearl" r="2.190433937142651" cx="9.779472047872432" cy="4.829937898009728"></circle><circle class="pearl" r="2.190433937142651" cx="17.46692367424677" cy="17.58240879855878"></circle><circle class="pearl" r="2.190433937142651" cx="4.723537283498333" cy="10.520340828856675"></circle><circle class="pearl" r="2.190433937142651" cx="17.533529079052425" cy="6.115791212762145"></circle></g><g class="bobaCup bright" cupRadius="11.612370200083554" width="23.224740400167107" height="23.224740400167107" pearlRadius="2.738042421428314" pearlCount="6" transform="translate(266.1990856928439,157.65147052439798)"><circle class="pool" r="11.612370200083554" cx="11.612370200083554" cy="11.612370200083554" style="stroke-width: 1; fill: rgb(29, 145, 192);"></circle><circle class="pearl" r="2.1904339371426516" cx="11.986876017420634" cy="11.93806005931602"></circle><circle class="pearl" r="2.1904339371426516" cx="6.217830274583258" cy="17.24493830532052"></circle><circle class="pearl" r="2.1904339371426516" cx="9.76375825975811" cy="4.79881082755505"></circle><circle class="pearl" r="2.1904339371426516" cx="17.05121050172357" cy="17.221576690425987"></circle><circle class="pearl" r="2.1904339371426516" cx="4.7784624108162195" cy="9.894699670589539"></circle><circle class="pearl" r="2.1904339371426516" cx="17.157229429785552" cy="6.060070455703086"></circle></g><g class="bobaCup bright" cupRadius="11.245773402470318" width="22.491546804940636" height="22.491546804940636" pearlRadius="2.7380424214283132" pearlCount="6" transform="translate(18.953789898550276,170.34355050887012)"><circle class="pool" r="11.245773402470318" cx="11.245773402470318" cy="11.245773402470318" style="stroke-width: 1; fill: rgb(29, 145, 192);"></circle><circle class="pearl" r="2.1904339371426507" cx="11.678894794640224" cy="11.60661622088281"></circle><circle class="pearl" r="2.1904339371426507" cx="6.141011241544253" cy="16.615470459500347"></circle><circle class="pearl" r="2.1904339371426507" cx="9.391947012794006" cy="4.804574023276392"></circle><circle class="pearl" r="2.1904339371426507" cx="16.337583252972113" cy="16.622058295270318"></circle><circle class="pearl" r="2.1904339371426507" cx="4.770313636224333" cy="9.610086578670508"></circle><circle class="pearl" r="2.1904339371426507" cx="16.460908033234524" cy="5.933074016160874"></circle></g><g class="bobaCup bright" cupRadius="10.985698243673243" width="21.971396487346485" height="21.971396487346485" pearlRadius="2.738042421428314" pearlCount="6" transform="translate(147.69163778817455,235.2119930470328)"><circle class="pool" r="10.985698243673243" cx="10.985698243673243" cy="10.985698243673243" style="stroke-width: 1; fill: rgb(29, 145, 192);"></circle><circle class="pearl" r="2.1904339371426516" cx="11.478593068624681" cy="11.36138693901483"></circle><circle class="pearl" r="2.1904339371426516" cx="6.1319917029997235" cy="16.190283164422933"></circle><circle class="pearl" r="2.1904339371426516" cx="9.106082210700297" cy="4.812715569475332"></circle><circle class="pearl" r="2.1904339371426516" cx="15.82955100803743" cy="16.195129998580196"></circle><circle class="pearl" r="2.1904339371426516" cx="4.758967668834723" cy="9.447333964402796"></circle><circle class="pearl" r="2.1904339371426516" cx="15.961328599249345" cy="5.842103299665137"></circle></g><g class="bobaCup bright" cupRadius="10.696167413276875" width="21.39233482655375" height="21.39233482655375" pearlRadius="2.7380424214283132" pearlCount="5" transform="translate(228.32334969994335,98.16254825652183)"><circle class="pool" r="10.696167413276875" cx="10.696167413276875" cy="10.696167413276875" style="stroke-width: 1; fill: rgb(65, 182, 196);"></circle><circle class="pearl" r="2.1904339371426507" cx="16.38511873065584" cy="7.957713905057551"></circle><circle class="pearl" r="2.1904339371426507" cx="7.796334492374909" cy="16.34102412775413"></circle><circle class="pearl" r="2.1904339371426507" cx="9.89576440622415" cy="4.680712677874777"></circle><circle class="pearl" r="2.1904339371426507" cx="15.512340747474692" cy="15.59596625147303"></circle><circle class="pearl" r="2.1904339371426507" cx="4.694155479638392" cy="9.733239120687019"></circle></g><g class="bobaCup bright" cupRadius="10.49974598653597" width="20.99949197307194" height="20.99949197307194" pearlRadius="2.7380424214283132" pearlCount="5" transform="translate(188.63426415990125,246.18564738136098)"><circle class="pool" r="10.49974598653597" cx="10.49974598653597" cy="10.49974598653597" style="stroke-width: 1; fill: rgb(65, 182, 196);"></circle><circle class="pearl" r="2.1904339371426507" cx="15.984876419951103" cy="7.7594656496764784"></circle><circle class="pearl" r="2.1904339371426507" cx="7.498827915005596" cy="15.910789824923878"></circle><circle class="pearl" r="2.1904339371426507" cx="9.74484586166814" cy="4.677895912272036"></circle><circle class="pearl" r="2.1904339371426507" cx="15.145762715388447" cy="15.264923901084494"></circle><circle class="pearl" r="2.1904339371426507" cx="4.702270830236238" cy="9.460603892228812"></circle></g><g class="bobaCup bright" cupRadius="10.350474019593541" width="20.700948039187082" height="20.700948039187082" pearlRadius="2.7380424214283137" pearlCount="5" transform="translate(158.33990500284258,281.0384301421609)"><circle class="pool" r="10.350474019593541" cx="10.350474019593541" cy="10.350474019593541" style="stroke-width: 1; fill: rgb(65, 182, 196);"></circle><circle class="pearl" r="2.190433937142651" cx="15.683606755904872" cy="7.62010179171641"></circle><circle class="pearl" r="2.190433937142651" cx="7.256073465851683" cy="15.576845386260619"></circle><circle class="pearl" r="2.190433937142651" cx="9.652596346679823" cy="4.67427712724138"></circle><circle class="pearl" r="2.190433937142651" cx="14.865273963178684" cy="15.01365941735568"></circle><circle class="pearl" r="2.190433937142651" cx="4.711390837530313" cy="9.231458174330456"></circle></g><g class="bobaCup bright" cupRadius="10.193392913171769" width="20.386785826343537" height="20.386785826343537" pearlRadius="2.7380424214283137" pearlCount="5" transform="translate(171.78075259340443,216.08670895037432)"><circle class="pool" r="10.193392913171769" cx="10.193392913171769" cy="10.193392913171769" style="stroke-width: 1; fill: rgb(65, 182, 196);"></circle><circle class="pearl" r="2.190433937142651" cx="15.372510995067309" cy="7.49534196974164"></circle><circle class="pearl" r="2.190433937142651" cx="6.973594726753942" cy="15.21418242672334"></circle><circle class="pearl" r="2.190433937142651" cx="9.594158300036064" cy="4.668351946326348"></circle><circle class="pearl" r="2.190433937142651" cx="14.566523650180432" cy="14.750328813789302"></circle><circle class="pearl" r="2.190433937142651" cx="4.7264824002481625" cy="8.95293067865249"></circle></g><g class="bobaCup bright" cupRadius="9.897685800705164" width="19.795371601410327" height="19.795371601410327" pearlRadius="2.738042421428314" pearlCount="4" transform="translate(230.50297066142332,11.114363992647887)"><circle class="pool" r="9.897685800705164" cx="9.897685800705164" cy="9.897685800705164" style="stroke-width: 1; fill: rgb(127, 205, 187);"></circle><circle class="pearl" r="2.1904339371426516" cx="14.526793827720208" cy="6.4554603465364035"></circle><circle class="pearl" r="2.1904339371426516" cx="5.7598919888088105" cy="13.153287580906916"></circle><circle class="pearl" r="2.1904339371426516" cx="6.629994273655786" cy="5.205691207703646"></circle><circle class="pearl" r="2.1904339371426516" cx="13.65669154287367" cy="14.403056719740075"></circle></g><g class="bobaCup bright" cupRadius="9.85107842963713" width="19.70215685927426" height="19.70215685927426" pearlRadius="2.7380424214283132" pearlCount="4" transform="translate(170.03343148817686,230.25698905734964)"><circle class="pool" r="9.85107842963713" cx="9.85107842963713" cy="9.85107842963713" style="stroke-width: 1; fill: rgb(29, 145, 192);"></circle><circle class="pearl" r="2.1904339371426507" cx="14.412418850062974" cy="6.360859302749626"></circle><circle class="pearl" r="2.1904339371426507" cx="5.675460740161825" cy="13.192362854268412"></circle><circle class="pearl" r="2.1904339371426507" cx="6.496359538019659" cy="5.239533718600399"></circle><circle class="pearl" r="2.1904339371426507" cx="13.59152005220535" cy="14.313688438417852"></circle></g><g class="bobaCup bright" cupRadius="9.785981350091264" width="19.571962700182528" height="19.571962700182528" pearlRadius="2.738042421428314" pearlCount="4" transform="translate(113.51641629067917,143.71491393814134)"><circle class="pool" r="9.785981350091264" cx="9.785981350091264" cy="9.785981350091264" style="stroke-width: 1; fill: rgb(65, 182, 196);"></circle><circle class="pearl" r="2.1904339371426516" cx="14.252026330558053" cy="6.229301942693069"></circle><circle class="pearl" r="2.1904339371426516" cx="5.56079257729926" cy="13.247552956090773"></circle><circle class="pearl" r="2.1904339371426516" cx="6.31256082813614" cy="5.287891493786528"></circle><circle class="pearl" r="2.1904339371426516" cx="13.500258079721243" cy="14.188963404997395"></circle></g><g class="bobaCup bright" cupRadius="9.768165763514808" width="19.536331527029617" height="19.536331527029617" pearlRadius="2.738042421428314" pearlCount="4" transform="translate(252.60742393915066,76.47961688121788)"><circle class="pool" r="9.768165763514808" cx="9.768165763514808" cy="9.768165763514808" style="stroke-width: 1; fill: rgb(127, 205, 187);"></circle><circle class="pearl" r="2.1904339371426516" cx="14.207548330529374" cy="6.192268811900712"></circle><circle class="pearl" r="2.1904339371426516" cx="5.532119731722214" cy="13.263247015465502"></circle><circle class="pearl" r="2.1904339371426516" cx="6.262233869368842" cy="5.301570091383072"></circle><circle class="pearl" r="2.1904339371426516" cx="13.477434192882797" cy="14.153945735983203"></circle></g><g class="bobaCup bright" cupRadius="9.501090111482192" width="19.002180222964384" height="19.002180222964384" pearlRadius="2.7380424214283137" pearlCount="4" transform="translate(123.61188265548054,247.2938262442671)"><circle class="pool" r="9.501090111482192" cx="9.501090111482192" cy="9.501090111482192" style="stroke-width: 1; fill: rgb(127, 205, 187);"></circle><circle class="pearl" r="2.190433937142651" cx="13.474122979279944" cy="5.521302165279012"></circle><circle class="pearl" r="2.190433937142651" cx="5.528050559610412" cy="13.480874980686533"></circle><circle class="pearl" r="2.190433937142651" cx="5.52806009487146" cy="5.52130085274322"></circle><circle class="pearl" r="2.190433937142651" cx="13.474113443970854" cy="13.480882447233167"></circle></g><g class="bobaCup bright" cupRadius="9.481644438562382" width="18.963288877124764" height="18.963288877124764" pearlRadius="2.738042421428314" pearlCount="4" transform="translate(174.38183228735952,283.16557820151706)"><circle class="pool" r="9.481644438562382" cx="9.481644438562382" cy="9.481644438562382" style="stroke-width: 1; fill: rgb(29, 145, 192);"></circle><circle class="pearl" r="2.1904339371426516" cx="13.436623701670232" cy="5.514959687485073"></circle><circle class="pearl" r="2.1904339371426516" cx="5.526644917984354" cy="13.448319892398217"></circle><circle class="pearl" r="2.1904339371426516" cx="5.526673823559612" cy="5.5149557184225575"></circle><circle class="pearl" r="2.1904339371426516" cx="13.436594795653125" cy="13.448342456064207"></circle></g><g class="bobaCup bright" cupRadius="9.17091568755608" width="18.34183137511216" height="18.34183137511216" pearlRadius="2.7380424214283132" pearlCount="4" transform="translate(288.87666165314334,211.80929913743762)"><circle class="pool" r="9.17091568755608" cx="9.17091568755608" cy="9.17091568755608" style="stroke-width: 1; fill: rgb(127, 205, 187);"></circle><circle class="pearl" r="2.1904339371426507" cx="12.838349842526643" cy="5.415949101054426"></circle><circle class="pearl" r="2.1904339371426507" cx="5.5021610679782755" cy="12.92530602690237"></circle><circle class="pearl" r="2.1904339371426507" cx="5.5040533469351365" cy="5.415699639449149"></circle><circle class="pearl" r="2.1904339371426507" cx="12.83645564347566" cy="12.926708466215299"></circle></g><g class="bobaCup bright" cupRadius="8.20080645980533" width="16.40161291961066" height="16.40161291961066" pearlRadius="2.7380424214283137" pearlCount="3" transform="translate(156.81392495566547,253.6562923290869)"><circle class="pool" r="8.20080645980533" cx="8.20080645980533" cy="8.20080645980533" style="stroke-width: 1; fill: rgb(65, 182, 196);"></circle><circle class="pearl" r="2.190433937142651" cx="12.518494190105358" cy="9.863114852207989"></circle><circle class="pearl" r="2.190433937142651" cx="4.475527464296229" cy="11.122122678453376"></circle><circle class="pearl" r="2.190433937142651" cx="7.442817170951361" cy="3.6858283205104865"></circle></g><g class="bobaCup bright" cupRadius="7.965861481339072" width="15.931722962678144" height="15.931722962678144" pearlRadius="2.738042421428314" pearlCount="3" transform="translate(208.68686362998218,257.1410303822189)"><circle class="pool" r="7.965861481339072" cx="7.965861481339072" cy="7.965861481339072" style="stroke-width: 1; fill: rgb(65, 182, 196);"></circle><circle class="pearl" r="2.1904339371426516" cx="12.144239437121644" cy="9.435597438929307"></circle><circle class="pearl" r="2.1904339371426516" cx="4.467106330392568" cy="11.471510345777602"></circle><circle class="pearl" r="2.1904339371426516" cx="6.518567996290082" cy="3.7833037429068503"></circle></g><g class="bobaCup bright" cupRadius="7.879907508357169" width="15.759815016714338" height="15.759815016714338" pearlRadius="2.7380424214283137" pearlCount="3" transform="translate(158.10534885665024,51.45196154625038)"><circle class="pool" r="7.879907508357169" cx="7.879907508357169" cy="7.879907508357169" style="stroke-width: 1; fill: rgb(127, 205, 187);"></circle><circle class="pearl" r="2.190433937142651" cx="11.98519112706579" cy="9.271776800070308"></circle><circle class="pearl" r="2.190433937142651" cx="4.473862917234398" cy="11.334942689945201"></circle><circle class="pearl" r="2.190433937142651" cx="6.291488356622652" cy="3.812478954366143"></circle></g><g class="bobaCup bright" cupRadius="7.529756815945223" width="15.059513631890447" height="15.059513631890447" pearlRadius="2.738042421428314" pearlCount="2" transform="translate(268.0215303488741,88.04249568021864)"><circle class="pool" r="7.529756815945223" cx="7.529756815945223" cy="7.529756815945223" style="stroke-width: 1; fill: rgb(65, 182, 196);"></circle><circle class="pearl" r="2.1904339371426516" cx="11.269603575246439" cy="6.695051941576333"></circle><circle class="pearl" r="2.1904339371426516" cx="4.353451325081759" cy="10.706062306808688"></circle></g><g class="bobaCup bright" cupRadius="7.196320728924636" width="14.392641457849273" height="14.392641457849273" pearlRadius="2.7380424214283137" pearlCount="2" transform="translate(307.0957805205833,122.26255171774409)"><circle class="pool" r="7.196320728924636" cx="7.196320728924636" cy="7.196320728924636" style="stroke-width: 1; fill: rgb(29, 145, 192);"></circle><circle class="pearl" r="2.190433937142651" cx="10.390372651049567" cy="4.974590509036374"></circle><circle class="pearl" r="2.190433937142651" cx="4.271780625345885" cy="10.12086154190428"></circle></g><g class="bobaCup bright" cupRadius="7.107824113182204" width="14.215648226364408" height="14.215648226364408" pearlRadius="2.7380424214283137" pearlCount="2" transform="translate(253.20121169200465,86.98287568047846)"><circle class="pool" r="7.107824113182204" cx="7.107824113182204" cy="7.107824113182204" style="stroke-width: 1; fill: rgb(29, 145, 192);"></circle><circle class="pearl" r="2.190433937142651" cx="10.057159710036025" cy="4.469569552897093"></circle><circle class="pearl" r="2.190433937142651" cx="4.250383784915986" cy="9.965264864900202"></circle></g><g class="bobaCup bright" cupRadius="7.07358822192329" width="14.14717644384658" height="14.14717644384658" pearlRadius="2.738042421428314" pearlCount="2" transform="translate(233.33843096160837,114.70326726526686)"><circle class="pool" r="7.07358822192329" cx="7.07358822192329" cy="7.07358822192329" style="stroke-width: 1; fill: rgb(29, 145, 192);"></circle><circle class="pearl" r="2.1904339371426516" cx="9.919699468453398" cy="4.275947763167289"></circle><circle class="pearl" r="2.1904339371426516" cx="4.242139988711818" cy="9.905036792678072"></circle></g><g class="bobaCup bright" cupRadius="6.828967279943353" width="13.657934559886707" height="13.657934559886707" pearlRadius="2.7380424214283137" pearlCount="2" transform="translate(95.2093924992626,218.87126294827868)"><circle class="pool" r="6.828967279943353" cx="6.828967279943353" cy="6.828967279943353" style="stroke-width: 1; fill: rgb(29, 145, 192);"></circle><circle class="pearl" r="2.190433937142651" cx="9.428211729975665" cy="4.164730302819303"></circle><circle class="pearl" r="2.190433937142651" cx="4.229722829911042" cy="9.493204257067404"></circle></g><g class="bobaCup bright" cupRadius="6.828448171303219" width="13.656896342606437" height="13.656896342606437" pearlRadius="2.7380424214283137" pearlCount="2" transform="translate(122.1460164606928,258.4673614633672)"><circle class="pool" r="6.828448171303219" cx="6.828448171303219" cy="6.828448171303219" style="stroke-width: 1; fill: rgb(29, 145, 192);"></circle><circle class="pearl" r="2.190433937142651" cx="9.427197528327087" cy="4.164568783118257"></circle><circle class="pearl" r="2.190433937142651" cx="4.229698814279351" cy="9.49232755948818"></circle></g><g class="bobaCup bright" cupRadius="6.7915087153717115" width="13.583017430743423" height="13.583017430743423" pearlRadius="2.7380424214283137" pearlCount="2" transform="translate(63.588571476645036,63.62654872028384)"><circle class="pool" r="6.7915087153717115" cx="6.7915087153717115" cy="6.7915087153717115" style="stroke-width: 1; fill: rgb(127, 205, 187);"></circle><circle class="pearl" r="2.190433937142651" cx="9.355030148710506" cy="4.15311845380903"></circle><circle class="pearl" r="2.190433937142651" cx="4.227987282032917" cy="9.429898976934393"></circle></g><g class="bobaCup bright" cupRadius="6.054515756907031" width="12.109031513814061" height="12.109031513814061" pearlRadius="2.7380424214283146" pearlCount="1" transform="translate(229.01942897926997,134.06061310902314)"><circle class="pool" r="6.054515756907031" cx="6.054515756907031" cy="6.054515756907031" style="stroke-width: 1; fill: rgb(127, 205, 187);"></circle><circle class="pearl" r="2.1904339371426516" cx="8.186425561581002" cy="6.054515756907031"></circle></g><g class="bobaCup bright" cupRadius="5.80642463879438" width="11.61284927758876" height="11.61284927758876" pearlRadius="2.738042421428314" pearlCount="1" transform="translate(254.7584719238064,155.41931224646837)"><circle class="pool" r="5.80642463879438" cx="5.80642463879438" cy="5.80642463879438" style="stroke-width: 1; fill: rgb(127, 205, 187);"></circle><circle class="pearl" r="2.1904339371426516" cx="7.778855432586889" cy="5.80642463879438"></circle></g><g class="bobaCup bright" cupRadius="3.8974896119340685" width="7.794979223868137" height="7.794979223868137" pearlRadius="2.7380424214283137" pearlCount="0" transform="translate(136.7706715299433,225.38258616879645)"><circle class="pool" r="3.8974896119340685" cx="3.8974896119340685" cy="3.8974896119340685" style="stroke-width: 1; fill: rgb(29, 145, 192);"></circle></g><g class="bobaCup bright" cupRadius="3.3062452240083804" width="6.612490448016761" height="6.612490448016761" pearlRadius="2.7380424214283137" pearlCount="0" transform="translate(238.41284328001757,58.31451653278195)"><circle class="pool" r="3.3062452240083804" cx="3.3062452240083804" cy="3.3062452240083804" style="stroke-width: 1; fill: rgb(127, 205, 187);"></circle></g><g class="bobaCup bright" cupRadius="0" width="0" height="0" pearlRadius="NaN" pearlCount="0" transform="translate(173.0277480445904,261.423730983184)"><circle class="pool" r="0" cx="0" cy="0" style="stroke-width: 1; fill: rgb(127, 205, 187);"></circle></g></g><g id="legendDividerGroup" transform="translate(410,0)" height="400"><rect class="legendDivider" height="400" width="90"></rect></g><g id="legend" transform="translate(410,15.785567879382626)" width="90" height="320"><rect class="legendBorder" transform="translate(0,0)" width="90" height="348.42886424123475"></rect><text id="rTitle" text-anchor="middle" alignment-baseline="hanging" transform="translate(45,0)" x="0" y="0" style="fill: black; font-size: 0.8rem;">Population</text><text id="bobaValue" text-anchor="middle" alignment-baseline="hanging" transform="translate(45,15)" x="0" y="0" style="fill: black; font-size: 0.7rem;">(1 Pearl =   75)</text><g class="bright" cupRadius="3.3062452240083804" width="6.612490448016761" height="6.612490448016761" pearlRadius="2.7380424214283137" pearlCount="0" transform="translate(41.69375477599162,40)"><circle class="pool" r="3.3062452240083804" cx="3.3062452240083804" cy="3.3062452240083804" style="stroke-width: 1; fill: rgb(127, 205, 187);"></circle></g><text id="0" class="legendSampleValue" text-anchor="middle" transform="translate(45,8)" x="0" y="51.61249044801676" style="fill: black; font-size: 0.7rem;">  41</text><g class="bright" cupRadius="9.420456782185383" width="18.840913564370766" height="18.840913564370766" pearlRadius="2.7380424214283132" pearlCount="4" transform="translate(35.57954321781462,71.61249044801676)"><circle class="pool" r="9.420456782185383" cx="9.420456782185383" cy="9.420456782185383" style="stroke-width: 1; fill: rgb(127, 205, 187);"></circle><circle class="pearl" r="2.1904339371426507" cx="13.318672096426418" cy="5.4951131180113295"></circle><circle class="pearl" r="2.1904339371426507" cx="5.522129414681083" cy="13.345749512134287"></circle><circle class="pearl" r="2.1904339371426507" cx="5.522289429384464" cy="5.495091317501269"></circle><circle class="pearl" r="2.1904339371426507" cx="13.318512068148543" cy="13.345873184741887"></circle></g><text id="1" class="legendSampleValue" text-anchor="middle" transform="translate(45,8)" x="0" y="95.45340401238752" style="fill: black; font-size: 0.7rem;"> 330</text><g class="bright" cupRadius="12.905764389944787" width="25.811528779889574" height="25.811528779889574" pearlRadius="2.7380424214283137" pearlCount="8" transform="translate(32.094235610055215,115.45340401238754)"><circle class="pool" r="12.905764389944787" cx="12.905764389944787" cy="12.905764389944787" style="stroke-width: 1; fill: rgb(127, 205, 187);"></circle><circle class="pearl" r="2.190433937142651" cx="13.647529795673876" cy="12.948290820380238"></circle><circle class="pearl" r="2.190433937142651" cx="6.757538597270583" cy="19.602202660667814"></circle><circle class="pearl" r="2.190433937142651" cx="14.252574713328809" cy="4.721190331674668"></circle><circle class="pearl" r="2.190433937142651" cx="20.586587179048454" cy="16.71256452952881"></circle><circle class="pearl" r="2.190433937142651" cx="4.654206300426964" cy="13.205583131288353"></circle><circle class="pearl" r="2.190433937142651" cx="20.491170772241798" cy="8.802608697699622"></circle><circle class="pearl" r="2.190433937142651" cx="14.354108883021665" cy="21.07927808674828"></circle><circle class="pearl" r="2.190433937142651" cx="6.701351130847197" cy="6.239950577569957"></circle></g><text id="2" class="legendSampleValue" text-anchor="middle" transform="translate(45,8)" x="0" y="146.2649327922771" style="fill: black; font-size: 0.7rem;"> 620</text><g class="bright" cupRadius="15.632418334746268" width="31.264836669492535" height="31.264836669492535" pearlRadius="2.7380424214283137" pearlCount="12" transform="translate(29.36758166525373,166.26493279227708)"><circle class="pool" r="15.632418334746268" cx="15.632418334746268" cy="15.632418334746268" style="stroke-width: 1; fill: rgb(127, 205, 187);"></circle><circle class="pearl" r="2.190433937142651" cx="17.627702164239352" cy="11.214208284517463"></circle><circle class="pearl" r="2.190433937142651" cx="11.588484316944431" cy="16.296850987842568"></circle><circle class="pearl" r="2.190433937142651" cx="14.494197754514897" cy="4.692216096775956"></circle><circle class="pearl" r="2.190433937142651" cx="18.46700878323085" cy="18.569819142261835"></circle><circle class="pearl" r="2.190433937142651" cx="4.706908060936291" cy="14.30823825944945"></circle><circle class="pearl" r="2.190433937142651" cx="26.557124008510993" cy="14.29880763413171"></circle><circle class="pearl" r="2.190433937142651" cx="12.152436931243692" cy="26.221847087825086"></circle><circle class="pearl" r="2.190433937142651" cx="7.226943861486305" cy="7.102834212125332"></circle><circle class="pearl" r="2.190433937142651" cx="25.255799465611126" cy="22.005992506939062"></circle><circle class="pearl" r="2.190433937142651" cx="5.944921403361407" cy="21.8604152548759"></circle><circle class="pearl" r="2.190433937142651" cx="23.97080826023508" cy="7.060291778077488"></circle><circle class="pearl" r="2.190433937142651" cx="19.781826798074864" cy="26.053354351161058"></circle></g><text id="3" class="legendSampleValue" text-anchor="middle" transform="translate(45,8)" x="0" y="202.5297694617696" style="fill: black; font-size: 0.7rem;"> 920</text><g class="bright" cupRadius="17.94954738973258" width="35.89909477946516" height="35.89909477946516" pearlRadius="2.7380424214283132" pearlCount="16" transform="translate(27.05045261026742,222.5297694617696)"><circle class="pool" r="17.94954738973258" cx="17.94954738973258" cy="17.94954738973258" style="stroke-width: 1; fill: rgb(127, 205, 187);"></circle><circle class="pearl" r="2.1904339371426507" cx="18.675810495296272" cy="18.73576845738378"></circle><circle class="pearl" r="2.1904339371426507" cx="13.516521627854534" cy="23.540558685050996"></circle><circle class="pearl" r="2.1904339371426507" cx="16.443088756211928" cy="11.299920601381947"></circle><circle class="pearl" r="2.1904339371426507" cx="20.654434141324757" cy="26.17588843458605"></circle><circle class="pearl" r="2.1904339371426507" cx="11.041753656838994" cy="16.66028403984551"></circle><circle class="pearl" r="2.1904339371426507" cx="23.344896020441567" cy="13.475864109852834"></circle><circle class="pearl" r="2.1904339371426507" cx="14.993197060675646" cy="31.0032372897614"></circle><circle class="pearl" r="2.1904339371426507" cx="11.399311933798199" cy="5.888578095758983"></circle><circle class="pearl" r="2.1904339371426507" cx="26.288763040230172" cy="20.717051367313047"></circle><circle class="pearl" r="2.1904339371426507" cx="5.026880761244686" cy="21.604984494658922"></circle><circle class="pearl" r="2.1904339371426507" cx="27.71936780364366" cy="7.542486565655612"></circle><circle class="pearl" r="2.1904339371426507" cx="27.978994902266447" cy="28.184939641352553"></circle><circle class="pearl" r="2.1904339371426507" cx="6.15507102628387" cy="10.756379667867085"></circle><circle class="pearl" r="2.1904339371426507" cx="30.966750236512052" cy="14.782428874077793"></circle><circle class="pearl" r="2.1904339371426507" cx="8.225551231454471" cy="28.386241110727386"></circle><circle class="pearl" r="2.1904339371426507" cx="20.684115633851306" cy="4.860248408212914"></circle></g><text id="4" class="legendSampleValue" text-anchor="middle" transform="translate(45,8)" x="0" y="263.42886424123475" style="fill: black; font-size: 0.7rem;">1.2k</text><g class="bright" cupRadius="20" width="40" height="40" pearlRadius="2.7380424214283137" pearlCount="20" transform="translate(25,283.42886424123475)"><circle class="pool" r="20" cx="20" cy="20" style="stroke-width: 1; fill: rgb(127, 205, 187);"></circle><circle class="pearl" r="2.190433937142651" cx="20.803317911356498" cy="19.852362298934615"></circle><circle class="pearl" r="2.190433937142651" cx="12.399118369231148" cy="22.318129073543428"></circle><circle class="pearl" r="2.190433937142651" cx="20.14107886386132" cy="11.690576671380018"></circle><circle class="pearl" r="2.190433937142651" cx="25.351645945468196" cy="26.426489948513225"></circle><circle class="pearl" r="2.190433937142651" cx="5.45555413244983" cy="14.383463400696877"></circle><circle class="pearl" r="2.190433937142651" cx="27.007002384921414" cy="14.812215198670392"></circle><circle class="pearl" r="2.190433937142651" cx="17.669394065840073" cy="27.98572181627974"></circle><circle class="pearl" r="2.190433937142651" cx="13.075316060454844" cy="14.529673081448232"></circle><circle class="pearl" r="2.190433937142651" cx="31.363412690087696" cy="21.539471699750266"></circle><circle class="pearl" r="2.190433937142651" cx="6.986823167406808" cy="29.380119115938808"></circle><circle class="pearl" r="2.190433937142651" cx="24.195863946736896" cy="5.095807587217031"></circle><circle class="pearl" r="2.190433937142651" cx="27.929986347293504" cy="33.70997709935047"></circle><circle class="pearl" r="2.190433937142651" cx="8.960309851298339" cy="7.973635910317352"></circle><circle class="pearl" r="2.190433937142651" cx="34.68553340637696" cy="14.890285786129768"></circle><circle class="pearl" r="2.190433937142651" cx="12.548559824642552" cy="33.90934248556552"></circle><circle class="pearl" r="2.190433937142651" cx="16.437930987710008" cy="4.970487855189916"></circle><circle class="pearl" r="2.190433937142651" cx="33.26719371328966" cy="28.885282914155283"></circle><circle class="pearl" r="2.190433937142651" cx="4.745924110358729" cy="21.949095191008542"></circle><circle class="pearl" r="2.190433937142651" cx="31.34694409707199" cy="8.181149473979769"></circle><circle class="pearl" r="2.190433937142651" cx="20.521343379892976" cy="35.34248064375117"></circle></g><text id="5" class="legendSampleValue" text-anchor="middle" transform="translate(45,8)" x="0" y="328.42886424123475" style="fill: black; font-size: 0.7rem;">1.5k</text><text id="coloringDisclaimer" transform="translate(45,8)" text-anchor="middle" x="0" y="343.42886424123475" style="font-size: 0.7rem; opacity: 0.6;">(note: coloring</text><text id="coloringDisclaimer" transform="translate(45,8)" text-anchor="middle" x="0" y="358.42886424123475" style="font-size: 0.7rem; opacity: 0.6;">is random)</text></g></svg>