<?xml version="1.0" standalone="no"?>
<?xml-stylesheet xmlns="http://www.w3.org/2000/svg" type="text/css" href="style.css"?>
<svg id="syntheticVisB" class="default" xTitle="Percent Cat Owners" yTitle="Percent Dog Owners" rTitle="Population" chartTitle="Towns in Vizzyland" width="500" height="400" xmlns="http://www.w3.org/2000/svg"><text id="chartTitle" text-anchor="middle" transform="translate(250,20)" x="0" y="0" style="fill: black; font-size: 1.2rem;">Towns in Vizzyland</text><g id="yAxis" transform="translate(50,30)" fill="none" font-size="10" font-family="sans-serif" text-anchor="end"><path class="domain" stroke="currentColor" d="M-6,300H0V20H-6"></path><g class="tick" opacity="1" transform="translate(0,300)"><line stroke="currentColor" x2="-6"></line><text fill="currentColor" x="-9" dy="0.32em">0</text></g><g class="tick" opacity="1" transform="translate(0,272)"><line stroke="currentColor" x2="-6"></line><text fill="currentColor" x="-9" dy="0.32em">10</text></g><g class="tick" opacity="1" transform="translate(0,244)"><line stroke="currentColor" x2="-6"></line><text fill="currentColor" x="-9" dy="0.32em">20</text></g><g class="tick" opacity="1" transform="translate(0,216)"><line stroke="currentColor" x2="-6"></line><text fill="currentColor" x="-9" dy="0.32em">30</text></g><g class="tick" opacity="1" transform="translate(0,188)"><line stroke="currentColor" x2="-6"></line><text fill="currentColor" x="-9" dy="0.32em">40</text></g><g class="tick" opacity="1" transform="translate(0,160)"><line stroke="currentColor" x2="-6"></line><text fill="currentColor" x="-9" dy="0.32em">50</text></g><g class="tick" opacity="1" transform="translate(0,132)"><line stroke="currentColor" x2="-6"></line><text fill="currentColor" x="-9" dy="0.32em">60</text></g><g class="tick" opacity="1" transform="translate(0,104.00000000000001)"><line stroke="currentColor" x2="-6"></line><text fill="currentColor" x="-9" dy="0.32em">70</text></g><g class="tick" opacity="1" transform="translate(0,75.99999999999999)"><line stroke="currentColor" x2="-6"></line><text fill="currentColor" x="-9" dy="0.32em">80</text></g><g class="tick" opacity="1" transform="translate(0,47.99999999999999)"><line stroke="currentColor" x2="-6"></line><text fill="currentColor" x="-9" dy="0.32em">90</text></g><g class="tick" opacity="1" transform="translate(0,20)"><line stroke="currentColor" x2="-6"></line><text fill="currentColor" x="-9" dy="0.32em">100</text></g></g><g id="xAxis" transform="translate(60,360)" fill="none" font-size="10" font-family="sans-serif" text-anchor="middle"><path class="domain" stroke="currentColor" d="M20,6V0H320V6"></path><g class="tick" opacity="1" transform="translate(20,0)"><line stroke="currentColor" y2="6"></line><text fill="currentColor" y="9" dy="0.71em">0</text></g><g class="tick" opacity="1" transform="translate(50,0)"><line stroke="currentColor" y2="6"></line><text fill="currentColor" y="9" dy="0.71em">10</text></g><g class="tick" opacity="1" transform="translate(80,0)"><line stroke="currentColor" y2="6"></line><text fill="currentColor" y="9" dy="0.71em">20</text></g><g class="tick" opacity="1" transform="translate(110,0)"><line stroke="currentColor" y2="6"></line><text fill="currentColor" y="9" dy="0.71em">30</text></g><g class="tick" opacity="1" transform="translate(140,0)"><line stroke="currentColor" y2="6"></line><text fill="currentColor" y="9" dy="0.71em">40</text></g><g class="tick" opacity="1" transform="translate(170,0)"><line stroke="currentColor" y2="6"></line><text fill="currentColor" y="9" dy="0.71em">50</text></g><g class="tick" opacity="1" transform="translate(200,0)"><line stroke="currentColor" y2="6"></line><text fill="currentColor" y="9" dy="0.71em">60</text></g><g class="tick" opacity="1" transform="translate(230,0)"><line stroke="currentColor" y2="6"></line><text fill="currentColor" y="9" dy="0.71em">70</text></g><g class="tick" opacity="1" transform="translate(260,0)"><line stroke="currentColor" y2="6"></line><text fill="currentColor" y="9" dy="0.71em">80</text></g><g class="tick" opacity="1" transform="translate(290,0)"><line stroke="currentColor" y2="6"></line><text fill="currentColor" y="9" dy="0.71em">90</text></g><g class="tick" opacity="1" transform="translate(320,0)"><line stroke="currentColor" y2="6"></line><text fill="currentColor" y="9" dy="0.71em">100</text></g></g><g id="labels"><text id="xTitle" text-anchor="middle" transform="translate(250,350)" x="0" y="40" style="fill: black; font-size: 0.8rem;">Percent Cat Owners</text><g id="group-yTitle" transform="translate(60,190)"><text id="yTitle" text-anchor="middle" transform="rotate(-90)" y="-45" style="fill: black; font-size: 0.8rem;">Percent Dog Owners</text></g></g><g id="quadrant_lines" transform="translate(60,30)"><line id="verticalQuadrantLine" x1="170" y1="10" x2="170" y2="310" class="quadrantLine"></line><line id="horizontalQuadrantLine" x1="10" y1="160" x2="330" y2="160" class="quadrantLine"></line></g><g id="chart" transform="translate(60,30)"><g class="bobaCup bright" cupRadius="20" width="40" height="40" pearlRadius="2.7380424214283137" pearlCount="20" transform="translate(49.76984930500683,188.36233842538047)"><circle class="pool" r="20" cx="20" cy="20" style="stroke-width: 1; fill: rgb(127, 205, 187);"></circle><circle class="pearl" r="2.190433937142651" cx="20.803317911356498" cy="19.852362298934615"></circle><circle class="pearl" r="2.190433937142651" cx="12.399118369231148" cy="22.318129073543428"></circle><circle class="pearl" r="2.190433937142651" cx="20.14107886386132" cy="11.690576671380018"></circle><circle class="pearl" r="2.190433937142651" cx="25.351645945468196" cy="26.426489948513225"></circle><circle class="pearl" r="2.190433937142651" cx="5.45555413244983" cy="14.383463400696877"></circle><circle class="pearl" r="2.190433937142651" cx="27.007002384921414" cy="14.812215198670392"></circle><circle class="pearl" r="2.190433937142651" cx="17.669394065840073" cy="27.98572181627974"></circle><circle class="pearl" r="2.190433937142651" cx="13.075316060454844" cy="14.529673081448232"></circle><circle class="pearl" r="2.190433937142651" cx="31.363412690087696" cy="21.539471699750266"></circle><circle class="pearl" r="2.190433937142651" cx="6.986823167406808" cy="29.380119115938808"></circle><circle class="pearl" r="2.190433937142651" cx="24.195863946736896" cy="5.095807587217031"></circle><circle class="pearl" r="2.190433937142651" cx="27.929986347293504" cy="33.70997709935047"></circle><circle class="pearl" r="2.190433937142651" cx="8.960309851298339" cy="7.973635910317352"></circle><circle class="pearl" r="2.190433937142651" cx="34.68553340637696" cy="14.890285786129768"></circle><circle class="pearl" r="2.190433937142651" cx="12.548559824642552" cy="33.90934248556552"></circle><circle class="pearl" r="2.190433937142651" cx="16.437930987710008" cy="4.970487855189916"></circle><circle class="pearl" r="2.190433937142651" cx="33.26719371328966" cy="28.885282914155283"></circle><circle class="pearl" r="2.190433937142651" cx="4.745924110358729" cy="21.949095191008542"></circle><circle class="pearl" r="2.190433937142651" cx="31.34694409707199" cy="8.181149473979769"></circle><circle class="pearl" r="2.190433937142651" cx="20.521343379892976" cy="35.34248064375117"></circle></g><g class="bobaCup bright" cupRadius="15.270670330562876" width="30.54134066112575" height="30.54134066112575" pearlRadius="2.7380424214283132" pearlCount="11" transform="translate(136.40220684106896,114.18638226545148)"><circle class="pool" r="15.270670330562876" cx="15.270670330562876" cy="15.270670330562876" style="stroke-width: 1; fill: rgb(29, 145, 192);"></circle><circle class="pearl" r="2.1904339371426507" cx="19.18691127502038" cy="15.663044565601433"></circle><circle class="pearl" r="2.1904339371426507" cx="11.860409805836793" cy="17.563692242291353"></circle><circle class="pearl" r="2.1904339371426507" cx="13.936166481387952" cy="10.210727424008182"></circle><circle class="pearl" r="2.1904339371426507" cx="21.86533286314408" cy="24.393247302964067"></circle><circle class="pearl" r="2.1904339371426507" cx="4.680428121604355" cy="14.318648861917717"></circle><circle class="pearl" r="2.1904339371426507" cx="25.165385961373804" cy="10.620554124196307"></circle><circle class="pearl" r="2.1904339371426507" cx="14.322629596500537" cy="25.861160672809955"></circle><circle class="pearl" r="2.1904339371426507" cx="7.194357294965797" cy="6.96120297042046"></circle><circle class="pearl" r="2.1904339371426507" cx="25.563160064731075" cy="18.41610491022813"></circle><circle class="pearl" r="2.1904339371426507" cx="7.14010339355307" cy="23.546170588669415"></circle><circle class="pearl" r="2.1904339371426507" cx="19.827276597937047" cy="5.346390585931528"></circle></g><g class="bobaCup bright" cupRadius="14.29625013122783" width="28.59250026245566" height="28.59250026245566" pearlRadius="2.7380424214283132" pearlCount="10" transform="translate(21.527612425448687,200.4499306982234)"><circle class="pool" r="14.29625013122783" cx="14.29625013122783" cy="14.29625013122783" style="stroke-width: 1; fill: rgb(29, 145, 192);"></circle><circle class="pearl" r="2.1904339371426507" cx="17.01866460738372" cy="11.697792463246095"></circle><circle class="pearl" r="2.1904339371426507" cx="12.089295959912604" cy="16.42847674470977"></circle><circle class="pearl" r="2.1904339371426507" cx="14.364698122657238" cy="4.6508870881264786"></circle><circle class="pearl" r="2.1904339371426507" cx="21.76873892450356" cy="21.83341757532855"></circle><circle class="pearl" r="2.1904339371426507" cx="4.650754932663001" cy="14.266142021832806"></circle><circle class="pearl" r="2.1904339371426507" cx="21.542111469381155" cy="6.623002356794783"></circle><circle class="pearl" r="2.1904339371426507" cx="14.266257820190729" cy="23.94174557319723"></circle><circle class="pearl" r="2.1904339371426507" cx="6.826107517210555" cy="6.757644537387283"></circle><circle class="pearl" r="2.1904339371426507" cx="23.941597735012767" cy="14.367850207283245"></circle><circle class="pearl" r="2.1904339371426507" cx="7.04705383769853" cy="21.967536516048252"></circle></g><g class="bobaCup bright" cupRadius="14.198980984320745" width="28.39796196864149" height="28.39796196864149" pearlRadius="2.738042421428314" pearlCount="10" transform="translate(258.62056552510325,169.24402988780656)"><circle class="pool" r="14.198980984320745" cx="14.198980984320745" cy="14.198980984320745" style="stroke-width: 1; fill: rgb(127, 205, 187);"></circle><circle class="pearl" r="2.1904339371426516" cx="16.89679551253798" cy="11.607304466803773"></circle><circle class="pearl" r="2.1904339371426516" cx="12.067429220592944" cy="16.28304366779763"></circle><circle class="pearl" r="2.1904339371426516" cx="14.26950061329524" cy="4.6508983484879"></circle><circle class="pearl" r="2.1904339371426516" cx="21.60107482341076" cy="21.6651908574222"></circle><circle class="pearl" r="2.1904339371426516" cx="4.650786304349664" cy="14.241303786481033"></circle><circle class="pearl" r="2.1904339371426516" cx="21.36093654993149" cy="6.589302365100732"></circle><circle class="pearl" r="2.1904339371426516" cx="14.181734392905128" cy="23.747228265902383"></circle><circle class="pearl" r="2.1904339371426516" cx="6.800133618698808" cy="6.73078847536269"></circle><circle class="pearl" r="2.1904339371426516" cx="23.747228272122523" cy="14.21622245398851"></circle><circle class="pearl" r="2.1904339371426516" cx="7.0320861664846905" cy="21.80577298776862"></circle></g><g class="bobaCup bright" cupRadius="13.287418936742908" width="26.574837873485816" height="26.574837873485816" pearlRadius="2.7380424214283137" pearlCount="8" transform="translate(9.198483833071665,195.96962942423977)"><circle class="pool" r="13.287418936742908" cx="13.287418936742908" cy="13.287418936742908" style="stroke-width: 1; fill: rgb(65, 182, 196);"></circle><circle class="pearl" r="2.190433937142651" cx="14.299149991443555" cy="12.53718998960316"></circle><circle class="pearl" r="2.190433937142651" cx="8.847140502106216" cy="21.16025069161859"></circle><circle class="pearl" r="2.190433937142651" cx="13.672422186909632" cy="4.656302138500122"></circle><circle class="pearl" r="2.190433937142651" cx="21.748347813965456" cy="15.44150367443346"></circle><circle class="pearl" r="2.190433937142651" cx="4.709536796167788" cy="14.536219156117578"></circle><circle class="pearl" r="2.190433937142651" cx="20.615777224329005" cy="7.537887822836716"></circle><circle class="pearl" r="2.190433937142651" cx="16.757133303113363" cy="21.463097550322118"></circle><circle class="pearl" r="2.190433937142651" cx="6.420748246244219" cy="6.661323607403868"></circle></g><g class="bobaCup bright" cupRadius="13.076397605556593" width="26.152795211113187" height="26.152795211113187" pearlRadius="2.7380424214283137" pearlCount="8" transform="translate(261.6134880734875,170.04744576512593)"><circle class="pool" r="13.076397605556593" cx="13.076397605556593" cy="13.076397605556593" style="stroke-width: 1; fill: rgb(65, 182, 196);"></circle><circle class="pearl" r="2.190433937142651" cx="13.89147470253347" cy="12.939847921006809"></circle><circle class="pearl" r="2.190433937142651" cx="7.755022842192279" cy="20.37034452590279"></circle><circle class="pearl" r="2.190433937142651" cx="13.990329013151886" cy="4.682700428420988"></circle><circle class="pearl" r="2.190433937142651" cx="21.147973052400932" cy="16.09886195640163"></circle><circle class="pearl" r="2.190433937142651" cx="4.670520786921466" cy="13.795681656471762"></circle><circle class="pearl" r="2.190433937142651" cx="20.55532984778439" cy="8.191355896591862"></circle><circle class="pearl" r="2.190433937142651" cx="15.490017083899827" cy="21.27739081302503"></circle><circle class="pearl" r="2.190433937142651" cx="6.598711436198348" cy="6.3679062384828224"></circle></g><g class="bobaCup bright" cupRadius="12.99657807611807" width="25.99315615223614" height="25.99315615223614" pearlRadius="2.7380424214283137" pearlCount="8" transform="translate(269.39876479615737,179.98013949300793)"><circle class="pool" r="12.99657807611807" cx="12.99657807611807" cy="12.99657807611807" style="stroke-width: 1; fill: rgb(127, 205, 187);"></circle><circle class="pearl" r="2.190433937142651" cx="13.762522427453089" cy="12.950093473302877"></circle><circle class="pearl" r="2.190433937142651" cx="7.362827939467501" cy="20.057895706697987"></circle><circle class="pearl" r="2.190433937142651" cx="14.07541039602825" cy="4.695576998090049"></circle><circle class="pearl" r="2.190433937142651" cx="20.911151462187984" cy="16.316873646503986"></circle><circle class="pearl" r="2.190433937142651" cx="4.662884700008513" cy="13.558687607016195"></circle><circle class="pearl" r="2.190433937142651" cx="20.506468182051467" cy="8.41067303814523"></circle><circle class="pearl" r="2.190433937142651" cx="15.034431338363799" cy="21.181671758448577"></circle><circle class="pearl" r="2.190433937142651" cx="6.637441197292199" cy="6.312733829704076"></circle></g><g class="bobaCup bright" cupRadius="12.70478704676329" width="25.40957409352658" height="25.40957409352658" pearlRadius="2.7380424214283137" pearlCount="8" transform="translate(63.5766139754966,216.83255747271906)"><circle class="pool" r="12.70478704676329" cx="12.70478704676329" cy="12.70478704676329" style="stroke-width: 1; fill: rgb(29, 145, 192);"></circle><circle class="pearl" r="2.190433937142651" cx="13.239391023542288" cy="12.798898842685311"></circle><circle class="pearl" r="2.190433937142651" cx="6.69640269426813" cy="19.248300343131973"></circle><circle class="pearl" r="2.190433937142651" cx="14.011748168437787" cy="4.7181265852648355"></circle><circle class="pearl" r="2.190433937142651" cx="20.206972624872268" cy="16.408625790569825"></circle><circle class="pearl" r="2.190433937142651" cx="4.655642615442169" cy="13.058305539671847"></circle><circle class="pearl" r="2.190433937142651" cx="20.057512729977017" cy="8.541996140919442"></circle><circle class="pearl" r="2.190433937142651" cx="14.133594284181008" cy="20.678251862653003"></circle><circle class="pearl" r="2.190433937142651" cx="6.690712820691717" cy="6.164329591112272"></circle></g><g class="bobaCup bright" cupRadius="12.500501736655" width="25.00100347331" height="25.00100347331" pearlRadius="2.7380424214283137" pearlCount="7" transform="translate(281.46580718180144,179.6127011316729)"><circle class="pool" r="12.500501736655" cx="12.500501736655" cy="12.500501736655" style="stroke-width: 1; fill: rgb(29, 145, 192);"></circle><circle class="pearl" r="2.190433937142651" cx="12.725131620133117" cy="12.543714515272901"></circle><circle class="pearl" r="2.190433937142651" cx="5.003375773536442" cy="15.448773041009463"></circle><circle class="pearl" r="2.190433937142651" cx="13.12989823501979" cy="4.666578245516279"></circle><circle class="pearl" r="2.190433937142651" cx="19.0071809606543" cy="18.137425913854035"></circle><circle class="pearl" r="2.190433937142651" cx="5.69842270453602" cy="7.490924504427994"></circle><circle class="pearl" r="2.190433937142651" cx="19.82438804893071" cy="8.912846511807496"></circle><circle class="pearl" r="2.190433937142651" cx="11.28565364090146" cy="20.291108331392945"></circle></g><g class="bobaCup bright" cupRadius="12.389402953152297" width="24.778805906304594" height="24.778805906304594" pearlRadius="2.7380424214283132" pearlCount="7" transform="translate(171.191991628277,193.97038300060618)"><circle class="pool" r="12.389402953152297" cx="12.389402953152297" cy="12.389402953152297" style="stroke-width: 1; fill: rgb(65, 182, 196);"></circle><circle class="pearl" r="2.1904339371426507" cx="12.439255381732039" cy="12.412266325054697"></circle><circle class="pearl" r="2.1904339371426507" cx="4.955897057241253" cy="15.122297389934804"></circle><circle class="pearl" r="2.1904339371426507" cx="13.314575497430296" cy="4.685314920563093"></circle><circle class="pearl" r="2.1904339371426507" cx="18.860657924473433" cy="17.848240416999438"></circle><circle class="pearl" r="2.1904339371426507" cx="5.7964805426665" cy="7.185775537695262"></circle><circle class="pearl" r="2.1904339371426507" cx="19.71981651230396" cy="9.235093708728803"></circle><circle class="pearl" r="2.1904339371426507" cx="11.06709552697379" cy="20.057316362060707"></circle></g><g class="bobaCup bright" cupRadius="12.321012783420217" width="24.642025566840434" height="24.642025566840434" pearlRadius="2.7380424214283132" pearlCount="7" transform="translate(8.918546824889694,91.39377849509809)"><circle class="pool" r="12.321012783420217" cx="12.321012783420217" cy="12.321012783420217" style="stroke-width: 1; fill: rgb(65, 182, 196);"></circle><circle class="pearl" r="2.1904339371426507" cx="12.361859712156184" cy="12.337011327692414"></circle><circle class="pearl" r="2.1904339371426507" cx="4.997401002796932" cy="15.223194221026496"></circle><circle class="pearl" r="2.1904339371426507" cx="13.172618661922202" cy="4.680189183503633"></circle><circle class="pearl" r="2.1904339371426507" cx="18.782490652659817" cy="17.643262568146543"></circle><circle class="pearl" r="2.1904339371426507" cx="5.726991536243761" cy="7.284835891734465"></circle><circle class="pearl" r="2.1904339371426507" cx="19.567267407632794" cy="9.116441988511879"></circle><circle class="pearl" r="2.1904339371426507" cx="11.199081678703248" cy="19.94011541365711"></circle></g><g class="bobaCup bright" cupRadius="12.276994694294018" width="24.553989388588036" height="24.553989388588036" pearlRadius="2.738042421428314" pearlCount="7" transform="translate(275.7044609434977,180.58857583894564)"><circle class="pool" r="12.276994694294018" cx="12.276994694294018" cy="12.276994694294018" style="stroke-width: 1; fill: rgb(65, 182, 196);"></circle><circle class="pearl" r="2.1904339371426516" cx="12.31222061567804" cy="12.290586844599881"></circle><circle class="pearl" r="2.1904339371426516" cx="5.015188469678813" cy="15.246210205282171"></circle><circle class="pearl" r="2.1904339371426516" cx="13.107957692858601" cy="4.678877193280119"></circle><circle class="pearl" r="2.1904339371426516" cx="18.75879770904654" cy="17.453041271116394"></circle><circle class="pearl" r="2.1904339371426516" cx="5.699198833252824" cy="7.312625874601419"></circle><circle class="pearl" r="2.1904339371426516" cx="19.47554590165485" cy="9.06462888920678"></circle><circle class="pearl" r="2.1904339371426516" cx="11.231548541411874" cy="19.85867274532243"></circle></g><g class="bobaCup bright" cupRadius="12.168011129891616" width="24.33602225978323" height="24.33602225978323" pearlRadius="2.7380424214283132" pearlCount="7" transform="translate(258.45772214157296,253.14623425282252)"><circle class="pool" r="12.168011129891616" cx="12.168011129891616" cy="12.168011129891616" style="stroke-width: 1; fill: rgb(29, 145, 192);"></circle><circle class="pearl" r="2.1904339371426507" cx="12.177508718503772" cy="12.17130441486647"></circle><circle class="pearl" r="2.1904339371426507" cx="5.089278582781463" cy="15.405349861551361"></circle><circle class="pearl" r="2.1904339371426507" cx="12.874111043990254" cy="4.671227710245703"></circle><circle class="pearl" r="2.1904339371426507" cx="18.740353255691833" cy="16.86942569453881"></circle><circle class="pearl" r="2.1904339371426507" cx="5.592312734162717" cy="7.474616583231816"></circle><circle class="pearl" r="2.1904339371426507" cx="19.231853341774713" cy="8.877197947943612"></circle><circle class="pearl" r="2.1904339371426507" cx="11.41658550246213" cy="19.662075029286523"></circle></g><g class="bobaCup bright" cupRadius="11.746740066445003" width="23.493480132890006" height="23.493480132890006" pearlRadius="2.7380424214283146" pearlCount="6" transform="translate(233.69133842633119,166.50162715842762)"><circle class="pool" r="11.746740066445003" cx="11.746740066445003" cy="11.746740066445003" style="stroke-width: 1; fill: rgb(127, 205, 187);"></circle><circle class="pearl" r="2.1904339371426516" cx="12.188374025593234" cy="12.018349513628246"></circle><circle class="pearl" r="2.1904339371426516" cx="6.742078842250912" cy="17.723305684031832"></circle><circle class="pearl" r="2.1904339371426516" cx="9.752746828663954" cy="4.8211990808445835"></circle><circle class="pearl" r="2.1904339371426516" cx="17.306002017320125" cy="17.443988076246033"></circle><circle class="pearl" r="2.1904339371426516" cx="4.738106852543534" cy="10.31659687920882"></circle><circle class="pearl" r="2.1904339371426516" cx="17.38476372224336" cy="6.09219321387399"></circle></g><g class="bobaCup bright" cupRadius="11.66136647270239" width="23.32273294540478" height="23.32273294540478" pearlRadius="2.7380424214283132" pearlCount="6" transform="translate(259.2931466399311,189.08649811770152)"><circle class="pool" r="11.66136647270239" cx="11.66136647270239" cy="11.66136647270239" style="stroke-width: 1; fill: rgb(65, 182, 196);"></circle><circle class="pearl" r="2.1904339371426507" cx="12.065358581485496" cy="11.9645371462407"></circle><circle class="pearl" r="2.1904339371426507" cx="6.430567400905194" cy="17.43303304115737"></circle><circle class="pearl" r="2.1904339371426507" cx="9.749649900452495" cy="4.808489927374327"></circle><circle class="pearl" r="2.1904339371426507" cx="17.14368320092162" cy="17.30295451527711"></circle><circle class="pearl" r="2.1904339371426507" cx="4.76029366838397" cy="10.06653844900024"></circle><circle class="pearl" r="2.1904339371426507" cx="17.23831144113713" cy="6.070744436625973"></circle></g><g class="bobaCup bright" cupRadius="11.489294012692838" width="22.978588025385676" height="22.978588025385676" pearlRadius="2.7380424214283137" pearlCount="6" transform="translate(204.78923645799756,194.1186356847855)"><circle class="pool" r="11.489294012692838" cx="11.489294012692838" cy="11.489294012692838" style="stroke-width: 1; fill: rgb(29, 145, 192);"></circle><circle class="pearl" r="2.190433937142651" cx="11.87410137264349" cy="11.831472678422585"></circle><circle class="pearl" r="2.190433937142651" cx="6.149738557866883" cy="17.011722923696677"></circle><circle class="pearl" r="2.190433937142651" cx="9.654013135381906" cy="4.79825278367284"></circle><circle class="pearl" r="2.190433937142651" cx="16.812390033377657" cy="17.02034497454009"></circle><circle class="pearl" r="2.190433937142651" cx="4.780224129782956" cy="9.769126179471586"></circle><circle class="pearl" r="2.190433937142651" cx="16.926464690825053" cy="6.018700532111957"></circle></g><g class="bobaCup bright" cupRadius="11.113250409501962" width="22.226500819003924" height="22.226500819003924" pearlRadius="2.7380424214283137" pearlCount="6" transform="translate(20.855624727697613,171.6135837996025)"><circle class="pool" r="11.113250409501962" cx="11.113250409501962" cy="11.113250409501962" style="stroke-width: 1; fill: rgb(29, 145, 192);"></circle><circle class="pearl" r="2.190433937142651" cx="11.575607618926265" cy="11.482421673456374"></circle><circle class="pearl" r="2.190433937142651" cx="6.136353140625767" cy="16.399067234659245"></circle><circle class="pearl" r="2.190433937142651" cx="9.24718426796924" cy="4.8085123598008845"></circle><circle class="pearl" r="2.190433937142651" cx="16.07886942055961" cy="16.404708154003053"></circle><circle class="pearl" r="2.190433937142651" cx="4.764647302737304" cy="9.526065847743277"></circle><circle class="pearl" r="2.190433937142651" cx="16.206707185200667" cy="5.886674779661174"></circle></g><g class="bobaCup bright" cupRadius="11.01536161030655" width="22.0307232206131" height="22.0307232206131" pearlRadius="2.738042421428314" pearlCount="6" transform="translate(286.39272873419935,8.98463838969345)"><circle class="pool" r="11.01536161030655" cx="11.01536161030655" cy="11.01536161030655" style="stroke-width: 1; fill: rgb(29, 145, 192);"></circle><circle class="pearl" r="2.1904339371426516" cx="11.500923160093581" cy="11.389679567309624"></circle><circle class="pearl" r="2.1904339371426516" cx="6.1329922622004105" cy="16.238880679476036"></circle><circle class="pearl" r="2.1904339371426516" cx="9.139068183803067" cy="4.8116979661208354"></circle><circle class="pearl" r="2.1904339371426516" cx="15.887563685781945" cy="16.243901428215633"></circle><circle class="pearl" r="2.1904339371426516" cx="4.7603103877771105" cy="9.465434183767368"></circle><circle class="pearl" r="2.1904339371426516" cx="16.01846322501775" cy="5.852463405446983"></circle></g><g class="bobaCup bright" cupRadius="11.000052753192042" width="22.000105506384084" height="22.000105506384084" pearlRadius="2.7380424214283137" pearlCount="6" transform="translate(103.00992711437935,204.35380775973152)"><circle class="pool" r="11.000052753192042" cx="11.000052753192042" cy="11.000052753192042" style="stroke-width: 1; fill: rgb(29, 145, 192);"></circle><circle class="pearl" r="2.190433937142651" cx="11.489380490954026" cy="11.375089669593395"></circle><circle class="pearl" r="2.190433937142651" cx="6.132474720080063" cy="16.213803391207737"></circle><circle class="pearl" r="2.190433937142651" cx="9.122058238640202" cy="4.812219935115538"></circle><circle class="pearl" r="2.190433937142651" cx="15.857626708047409" cy="16.218733551517342"></circle><circle class="pearl" r="2.190433937142651" cx="4.759619169948319" cy="9.456076110406364"></circle><circle class="pearl" r="2.190433937142651" cx="15.988982406827258" cy="5.847116385261062"></circle></g><g class="bobaCup bright" cupRadius="10.902349421940293" width="21.804698843880587" height="21.804698843880587" pearlRadius="2.7380424214283132" pearlCount="5" transform="translate(100.91486971870629,183.0320041261153)"><circle class="pool" r="10.902349421940293" cx="10.902349421940293" cy="10.902349421940293" style="stroke-width: 1; fill: rgb(127, 205, 187);"></circle><circle class="pearl" r="2.1904339371426507" cx="16.80726903140716" cy="8.174781422080354"></circle><circle class="pearl" r="2.1904339371426507" cx="8.092071439579525" cy="16.785550465925002"></circle><circle class="pearl" r="2.1904339371426507" cx="10.07518616689598" cy="4.68214702903892"></circle><circle class="pearl" r="2.1904339371426507" cx="15.895565114653436" cy="15.943324701067695"></circle><circle class="pearl" r="2.1904339371426507" cx="4.688235444526531" cy="9.998725935343556"></circle></g><g class="bobaCup bright" cupRadius="10.796210884080427" width="21.592421768160854" height="21.592421768160854" pearlRadius="2.7380424214283137" pearlCount="5" transform="translate(48.31836258154422,221.61100099262632)"><circle class="pool" r="10.796210884080427" cx="10.796210884080427" cy="10.796210884080427" style="stroke-width: 1; fill: rgb(65, 182, 196);"></circle><circle class="pearl" r="2.190433937142651" cx="16.589804007993706" cy="8.062271348764334"></circle><circle class="pearl" r="2.190433937142651" cx="7.941496110653393" cy="16.557441027279413"></circle><circle class="pearl" r="2.190433937142651" cx="9.980784968878732" cy="4.681561381976826"></circle><circle class="pearl" r="2.190433937142651" cx="15.698427125615211" cy="15.764554417663"></circle><circle class="pearl" r="2.190433937142651" cx="4.6910385130013115" cy="9.864073929034582"></circle></g><g class="bobaCup bright" cupRadius="10.487171788207213" width="20.974343576414427" height="20.974343576414427" pearlRadius="2.738042421428314" pearlCount="5" transform="translate(47.98970945548529,201.47012446512292)"><circle class="pool" r="10.487171788207213" cx="10.487171788207213" cy="10.487171788207213" style="stroke-width: 1; fill: rgb(65, 182, 196);"></circle><circle class="pearl" r="2.1904339371426516" cx="15.959370579159604" cy="7.7472407850584055"></circle><circle class="pearl" r="2.1904339371426516" cx="7.479050185110478" cy="15.882939316928049"></circle><circle class="pearl" r="2.1904339371426516" cx="9.736153073292312" cy="4.677649178117678"></circle><circle class="pearl" r="2.1904339371426516" cx="15.122216261353767" cy="15.243740138370303"></circle><circle class="pearl" r="2.1904339371426516" cx="4.702915010993312" cy="9.442200786582365"></circle></g><g class="bobaCup bright" cupRadius="10.43583188280493" width="20.87166376560986" height="20.87166376560986" pearlRadius="2.738042421428314" pearlCount="5" transform="translate(272.9391758699383,205.33537947899825)"><circle class="pool" r="10.43583188280493" cx="10.43583188280493" cy="10.43583188280493" style="stroke-width: 1; fill: rgb(29, 145, 192);"></circle><circle class="pearl" r="2.1904339371426516" cx="15.85544281862244" cy="7.698139989308564"></circle><circle class="pearl" r="2.1904339371426516" cx="7.397134866244164" cy="15.768740635016822"></circle><circle class="pearl" r="2.1904339371426516" cx="9.702241850720412" cy="4.676539129111909"></circle><circle class="pearl" r="2.1904339371426516" cx="15.025940642835454" cy="15.157274287493795"></circle><circle class="pearl" r="2.1904339371426516" cx="4.705754942367692" cy="9.365516538018797"></circle></g><g class="bobaCup bright" cupRadius="10.258062949648066" width="20.51612589929613" height="20.51612589929613" pearlRadius="2.7380424214283132" pearlCount="5" transform="translate(258.77775408658437,189.2158462513033)"><circle class="pool" r="10.258062949648066" cx="10.258062949648066" cy="10.258062949648066" style="stroke-width: 1; fill: rgb(29, 145, 192);"></circle><circle class="pearl" r="2.1904339371426507" cx="15.499523497269895" cy="7.542817911540434"></circle><circle class="pearl" r="2.1904339371426507" cx="7.09436885796081" cy="15.36535669037794"></circle><circle class="pearl" r="2.1904339371426507" cx="9.611641265651956" cy="4.671110930126837"></circle><circle class="pearl" r="2.1904339371426507" cx="14.690148358362418" cy="14.85852745070412"></circle><circle class="pearl" r="2.1904339371426507" cx="4.719297709321514" cy="9.073926039850683"></circle></g><g class="bobaCup bright" cupRadius="10.098460442049733" width="20.196920884099466" height="20.196920884099466" pearlRadius="2.7380424214283137" pearlCount="5" transform="translate(186.61001430307206,144.93278269246406)"><circle class="pool" r="10.098460442049733" cx="10.098460442049733" cy="10.098460442049733" style="stroke-width: 1; fill: rgb(65, 182, 196);"></circle><circle class="pearl" r="2.190433937142651" cx="15.190336218604163" cy="7.441268705465661"></circle><circle class="pearl" r="2.190433937142651" cx="6.779764765543481" cy="14.985303061554458"></circle><circle class="pearl" r="2.190433937142651" cx="9.593696367444931" cy="4.6633462473509155"></circle><circle class="pearl" r="2.190433937142651" cx="14.382559813399343" cy="14.59242943771699"></circle><circle class="pearl" r="2.190433937142651" cx="4.7409800095826355" cy="8.751329127431447"></circle></g><g class="bobaCup bright" cupRadius="10.082219229725622" width="20.164438459451244" height="20.164438459451244" pearlRadius="2.7380424214283132" pearlCount="5" transform="translate(113.3929600151099,146.04966362880126)"><circle class="pool" r="10.082219229725622" cx="10.082219229725622" cy="10.082219229725622" style="stroke-width: 1; fill: rgb(127, 205, 187);"></circle><circle class="pearl" r="2.1904339371426507" cx="15.159879697330464" cy="7.434636321443511"></circle><circle class="pearl" r="2.1904339371426507" cx="6.743985168975937" cy="14.945030462746598"></circle><circle class="pearl" r="2.1904339371426507" cx="9.597719666727011" cy="4.662371234691599"></circle><circle class="pearl" r="2.1904339371426507" cx="14.350674853496631" cy="14.565576753159458"></circle><circle class="pearl" r="2.1904339371426507" cx="4.744133599107816" cy="8.7129704682368"></circle></g><g class="bobaCup bright" cupRadius="9.936064454754677" width="19.872128909509353" height="19.872128909509353" pearlRadius="2.7380424214283137" pearlCount="4" transform="translate(43.53611916903433,277.4086680683068)"><circle class="pool" r="9.936064454754677" cx="9.936064454754677" cy="9.936064454754677" style="stroke-width: 1; fill: rgb(29, 145, 192);"></circle><circle class="pearl" r="2.190433937142651" cx="14.620528424472983" cy="6.533174973455997"></circle><circle class="pearl" r="2.190433937142651" cx="5.8315825975516935" cy="13.121609687754752"></circle><circle class="pearl" r="2.190433937142651" cx="6.741060612280232" cy="5.178422931913703"></circle><circle class="pearl" r="2.190433937142651" cx="13.711050409745187" cy="14.47636172929769"></circle></g><g class="bobaCup bright" cupRadius="9.906687087247644" width="19.813374174495287" height="19.813374174495287" pearlRadius="2.738042421428314" pearlCount="4" transform="translate(72.7098492679059,238.95300423828596)"><circle class="pool" r="9.906687087247644" cx="9.906687087247644" cy="9.906687087247644" style="stroke-width: 1; fill: rgb(65, 182, 196);"></circle><circle class="pearl" r="2.1904339371426516" cx="14.54881607735281" cy="6.473707814592032"></circle><circle class="pearl" r="2.1904339371426516" cx="5.776523848713353" cy="13.145813965652565"></circle><circle class="pearl" r="2.1904339371426516" cx="6.655964132393427" cy="5.1992454681884475"></circle><circle class="pearl" r="2.1904339371426516" cx="13.66937579367323" cy="14.420276312056604"></circle></g><g class="bobaCup bright" cupRadius="9.827749504116875" width="19.65549900823375" height="19.65549900823375" pearlRadius="2.7380424214283137" pearlCount="4" transform="translate(310.17225049588313,175.82941753038858)"><circle class="pool" r="9.827749504116875" cx="9.827749504116875" cy="9.827749504116875" style="stroke-width: 1; fill: rgb(29, 145, 192);"></circle><circle class="pearl" r="2.190433937142651" cx="14.35501892840685" cy="6.3136192874490416"></circle><circle class="pearl" r="2.190433937142651" cx="5.633958047110121" cy="13.21207024682063"></circle><circle class="pearl" r="2.190433937142651" cx="6.430100016721812" cy="5.256724618774117"></circle><circle class="pearl" r="2.190433937142651" cx="13.5588769587953" cy="14.268964915495708"></circle></g><g class="bobaCup bright" cupRadius="9.796389819240538" width="19.592779638481076" height="19.592779638481076" pearlRadius="2.738042421428314" pearlCount="4" transform="translate(49.13719844112584,163.5913237594625)"><circle class="pool" r="9.796389819240538" cx="9.796389819240538" cy="9.796389819240538" style="stroke-width: 1; fill: rgb(65, 182, 196);"></circle><circle class="pearl" r="2.1904339371426516" cx="14.277735554332345" cy="6.250325813413147"></circle><circle class="pearl" r="2.1904339371426516" cx="5.578811463280158" cy="13.23866951305943"></circle><circle class="pearl" r="2.1904339371426516" cx="6.34174346721613" cy="5.280070336393502"></circle><circle class="pearl" r="2.1904339371426516" cx="13.514803550396456" cy="14.208924990079172"></circle></g><g class="bobaCup bright" cupRadius="9.752146627253957" width="19.504293254507914" height="19.504293254507914" pearlRadius="2.738042421428314" pearlCount="4" transform="translate(261.80492478524656,202.33006119640808)"><circle class="pool" r="9.752146627253957" cx="9.752146627253957" cy="9.752146627253957" style="stroke-width: 1; fill: rgb(65, 182, 196);"></circle><circle class="pearl" r="2.1904339371426516" cx="14.167458108190562" cy="6.158905961022072"></circle><circle class="pearl" r="2.1904339371426516" cx="5.506812151611634" cy="13.277433698599506"></circle><circle class="pearl" r="2.1904339371426516" cx="6.217147078634659" cy="5.313967720213608"></circle><circle class="pearl" r="2.1904339371426516" cx="13.457123181167571" cy="14.122371939408016"></circle></g><g class="bobaCup bright" cupRadius="9.690265646065184" width="19.380531292130367" height="19.380531292130367" pearlRadius="2.7380424214283137" pearlCount="4" transform="translate(195.07259957119848,255.66929449623794)"><circle class="pool" r="9.690265646065184" cx="9.690265646065184" cy="9.690265646065184" style="stroke-width: 1; fill: rgb(127, 205, 187);"></circle><circle class="pearl" r="2.190433937142651" cx="14.012842221298104" cy="6.032241736580434"></circle><circle class="pearl" r="2.190433937142651" cx="5.408181086204069" cy="13.331747938371779"></circle><circle class="pearl" r="2.190433937142651" cx="6.045890095420406" cy="5.362137325736841"></circle><circle class="pearl" r="2.190433937142651" cx="13.375133212081776" cy="14.001852349215387"></circle></g><g class="bobaCup bright" cupRadius="9.598923303230647" width="19.197846606461294" height="19.197846606461294" pearlRadius="2.738042421428314" pearlCount="4" transform="translate(75.32839757824131,191.29340278411374)"><circle class="pool" r="9.598923303230647" cx="9.598923303230647" cy="9.598923303230647" style="stroke-width: 1; fill: rgb(65, 182, 196);"></circle><circle class="pearl" r="2.1904339371426516" cx="13.743377519365424" cy="5.753902848481206"></circle><circle class="pearl" r="2.1904339371426516" cx="5.454469087095868" cy="13.443943757980087"></circle><circle class="pearl" r="2.1904339371426516" cx="5.753902848481206" cy="5.45446908709587"></circle><circle class="pearl" r="2.1904339371426516" cx="13.443943757980087" cy="13.743377519365428"></circle></g><g class="bobaCup bright" cupRadius="9.526960311207732" width="19.053920622415465" height="19.053920622415465" pearlRadius="2.7380424214283146" pearlCount="4" transform="translate(267.2705019111474,261.74941594884973)"><circle class="pool" r="9.526960311207732" cx="9.526960311207732" cy="9.526960311207732" style="stroke-width: 1; fill: rgb(65, 182, 196);"></circle><circle class="pearl" r="2.1904339371426516" cx="13.524021549201812" cy="5.529766204891039"></circle><circle class="pearl" r="2.1904339371426516" cx="5.529899070659238" cy="13.52415441634378"></circle><circle class="pearl" r="2.1904339371426516" cx="5.529899074302121" cy="5.529766204387948"></circle><circle class="pearl" r="2.1904339371426516" cx="13.524021545558924" cy="13.52415441920817"></circle></g><g class="bobaCup bright" cupRadius="9.5014416779441" width="19.0028833558882" height="19.0028833558882" pearlRadius="2.738042421428314" pearlCount="4" transform="translate(128.4210407959688,178.8053304985661)"><circle class="pool" r="9.5014416779441" cx="9.5014416779441" cy="9.5014416779441" style="stroke-width: 1; fill: rgb(127, 205, 187);"></circle><circle class="pearl" r="2.1904339371426516" cx="13.474801004940051" cy="5.521416988869374"></circle><circle class="pearl" r="2.1904339371426516" cx="5.5280758443300275" cy="13.481463371547552"></circle><circle class="pearl" r="2.1904339371426516" cx="5.528085126398473" cy="5.521415711128805"></circle><circle class="pearl" r="2.1904339371426516" cx="13.47479172282608" cy="13.481470640243149"></circle></g><g class="bobaCup bright" cupRadius="9.293621076650657" width="18.587242153301315" height="18.587242153301315" pearlRadius="2.7380424214283132" pearlCount="4" transform="translate(70.9636349254669,31.551477325897956)"><circle class="pool" r="9.293621076650657" cx="9.293621076650657" cy="9.293621076650657" style="stroke-width: 1; fill: rgb(127, 205, 187);"></circle><circle class="pearl" r="2.1904339371426507" cx="13.074387345406674" cy="5.454515146905183"></circle><circle class="pearl" r="2.1904339371426507" cx="5.51230336554478" cy="13.132481411720509"></circle><circle class="pearl" r="2.1904339371426507" cx="5.513092189845117" cy="5.454409437839414"></circle><circle class="pearl" r="2.1904339371426507" cx="13.073598189382647" cy="13.133078396429983"></circle></g><g class="bobaCup bright" cupRadius="9.183400686755258" width="18.366801373510516" height="18.366801373510516" pearlRadius="2.7380424214283137" pearlCount="4" transform="translate(129.50232532281828,181.10259304083812)"><circle class="pool" r="9.183400686755258" cx="9.183400686755258" cy="9.183400686755258" style="stroke-width: 1; fill: rgb(29, 145, 192);"></circle><circle class="pearl" r="2.190433937142651" cx="12.86235248968854" cy="5.419840713223451"></circle><circle class="pearl" r="2.190433937142651" cx="5.503222991910498" cy="12.946424560864646"></circle><circle class="pearl" r="2.190433937142651" cx="5.504979413092327" cy="5.4196087714240555"></circle><circle class="pearl" r="2.190433937142651" cx="12.860594415244297" cy="12.947729119146086"></circle></g><g class="bobaCup bright" cupRadius="9.162934821769735" width="18.32586964353947" height="18.32586964353947" pearlRadius="2.7380424214283137" pearlCount="4" transform="translate(38.11603294254627,226.70511166630746)"><circle class="pool" r="9.162934821769735" cx="9.162934821769735" cy="9.162934821769735" style="stroke-width: 1; fill: rgb(127, 205, 187);"></circle><circle class="pearl" r="2.190433937142651" cx="12.823008130949017" cy="5.413465319252218"></circle><circle class="pearl" r="2.190433937142651" cx="5.501478596402443" cy="12.911801634249432"></circle><circle class="pearl" r="2.190433937142651" cx="5.503460611445364" cy="5.4132043095021025"></circle><circle class="pearl" r="2.190433937142651" cx="12.821024008547568" cy="12.913268553461418"></circle></g><g class="bobaCup bright" cupRadius="8.930607430689486" width="17.861214861378972" height="17.861214861378972" pearlRadius="2.738042421428314" pearlCount="3" transform="translate(210.1943736066098,291.06939256931054)"><circle class="pool" r="8.930607430689486" cx="8.930607430689486" cy="8.930607430689486" style="stroke-width: 1; fill: rgb(29, 145, 192);"></circle><circle class="pearl" r="2.1904339371426516" cx="12.97485884342503" cy="10.30301506167436"></circle><circle class="pearl" r="2.1904339371426516" cx="5.103015697025129" cy="12.049433469126864"></circle><circle class="pearl" r="2.1904339371426516" cx="8.526246372224746" cy="3.659882278224926"></circle></g><g class="bobaCup bright" cupRadius="8.910047574897286" width="17.82009514979457" height="17.82009514979457" pearlRadius="2.738042421428314" pearlCount="3" transform="translate(11.089952425102714,125.77273758007989)"><circle class="pool" r="8.910047574897286" cx="8.910047574897286" cy="8.910047574897286" style="stroke-width: 1; fill: rgb(127, 205, 187);"></circle><circle class="pearl" r="2.1904339371426516" cx="12.96216349307949" cy="10.291582241753218"></circle><circle class="pearl" r="2.1904339371426516" cx="5.085080508880151" cy="12.023372675813206"></circle><circle class="pearl" r="2.1904339371426516" cx="8.495820528284895" cy="3.660357119779967"></circle></g><g class="bobaCup bright" cupRadius="8.805527673645395" width="17.61105534729079" height="17.61105534729079" pearlRadius="2.738042421428314" pearlCount="3" transform="translate(306.0584764274532,254.5944944186136)"><circle class="pool" r="8.805527673645395" cx="8.805527673645395" cy="8.805527673645395" style="stroke-width: 1; fill: rgb(127, 205, 187);"></circle><circle class="pearl" r="2.1904339371426516" cx="12.897461088977332" cy="10.232628404577492"></circle><circle class="pearl" r="2.1904339371426516" cx="4.994189149532166" cy="11.890806833265449"></circle><circle class="pearl" r="2.1904339371426516" cx="8.34102266608751" cy="3.662983437315362"></circle></g><g class="bobaCup bright" cupRadius="8.675911964550444" width="17.351823929100888" height="17.351823929100888" pearlRadius="2.738042421428314" pearlCount="3" transform="translate(52.412082154467384,206.0431265624372)"><circle class="pool" r="8.675911964550444" cx="8.675911964550444" cy="8.675911964550444" style="stroke-width: 1; fill: rgb(29, 145, 192);"></circle><circle class="pearl" r="2.1904339371426516" cx="12.816829865348426" cy="10.157579378023348"></circle><circle class="pearl" r="2.1904339371426516" cx="4.882125233959163" cy="11.726239487041394"></circle><circle class="pearl" r="2.1904339371426516" cx="8.148799429233136" cy="3.6667506216193826"></circle></g><g class="bobaCup bright" cupRadius="8.656409481552723" width="17.312818963105446" height="17.312818963105446" pearlRadius="2.7380424214283137" pearlCount="3" transform="translate(54.24892115839279,123.34417778950758)"><circle class="pool" r="8.656409481552723" cx="8.656409481552723" cy="8.656409481552723" style="stroke-width: 1; fill: rgb(29, 145, 192);"></circle><circle class="pearl" r="2.190433937142651" cx="12.804658707096674" cy="10.146100689607552"></circle><circle class="pearl" r="2.190433937142651" cx="4.865324851383263" cy="11.701463093254787"></circle><circle class="pearl" r="2.190433937142651" cx="8.119854656236141" cy="3.667368012416736"></circle></g><g class="bobaCup bright" cupRadius="8.58171768010892" width="17.16343536021784" height="17.16343536021784" pearlRadius="2.7380424214283137" pearlCount="3" transform="translate(309.8284902832511,186.25276055661652)"><circle class="pool" r="8.58171768010892" cx="8.58171768010892" cy="8.58171768010892" style="stroke-width: 1; fill: rgb(65, 182, 196);"></circle><circle class="pearl" r="2.190433937142651" cx="12.757947455166322" cy="10.101686408115022"></circle><circle class="pearl" r="2.190433937142651" cx="4.801127065050098" cy="11.606539903390704"></circle><circle class="pearl" r="2.190433937142651" cx="8.008952255768847" cy="3.6698584647105132"></circle></g><g class="bobaCup bright" cupRadius="8.519324100169307" width="17.038648200338613" height="17.038648200338613" pearlRadius="2.738042421428314" pearlCount="3" transform="translate(150.18392552940006,250.72048645443587)"><circle class="pool" r="8.519324100169307" cx="8.519324100169307" cy="8.519324100169307" style="stroke-width: 1; fill: rgb(65, 182, 196);"></circle><circle class="pearl" r="2.1904339371426516" cx="12.71880649900276" cy="10.064033910334862"></circle><circle class="pearl" r="2.1904339371426516" cx="4.747673942796988" cy="11.527208521219908"></circle><circle class="pearl" r="2.1904339371426516" cx="7.916256791471979" cy="3.6720950492258653"></circle></g><g class="bobaCup bright" cupRadius="8.446948249371573" width="16.893896498743146" height="16.893896498743146" pearlRadius="2.7380424214283146" pearlCount="3" transform="translate(87.24307258925668,49.59966537335373)"><circle class="pool" r="8.446948249371573" cx="8.446948249371573" cy="8.446948249371573" style="stroke-width: 1; fill: rgb(127, 205, 187);"></circle><circle class="pearl" r="2.1904339371426516" cx="12.673261934123238" cy="10.019727351512065"></circle><circle class="pearl" r="2.1904339371426516" cx="4.685863942168488" cy="11.435146053263052"></circle><circle class="pearl" r="2.1904339371426516" cx="7.8086775719528685" cy="3.674872342862389"></circle></g><g class="bobaCup bright" cupRadius="8.146114448652591" width="16.292228897305183" height="16.292228897305183" pearlRadius="2.7380424214283137" pearlCount="3" transform="translate(181.84627140717555,175.32207064422036)"><circle class="pool" r="8.146114448652591" cx="8.146114448652591" cy="8.146114448652591" style="stroke-width: 1; fill: rgb(127, 205, 187);"></circle><circle class="pearl" r="2.190433937142651" cx="12.461304662847962" cy="9.850052133223011"></circle><circle class="pearl" r="2.190433937142651" cx="4.404299759949639" cy="11.113917529409573"></circle><circle class="pearl" r="2.190433937142651" cx="7.367070433853767" cy="3.688060270391457"></circle></g><g class="bobaCup bright" cupRadius="7.957858757415199" width="15.915717514830398" height="15.915717514830398" pearlRadius="2.7380424214283137" pearlCount="3" transform="translate(275.1374999713101,168.68211030131178)"><circle class="pool" r="7.957858757415199" cx="7.957858757415199" cy="7.957858757415199" style="stroke-width: 1; fill: rgb(127, 205, 187);"></circle><circle class="pearl" r="2.190433937142651" cx="12.13071258748424" cy="9.41359156617156"></circle><circle class="pearl" r="2.190433937142651" cx="4.468109441867624" cy="11.459000021240836"></circle><circle class="pearl" r="2.190433937142651" cx="6.490999245061401" cy="3.787083461151868"></circle></g><g class="bobaCup bright" cupRadius="7.9428545857754385" width="15.885709171550877" height="15.885709171550877" pearlRadius="2.7380424214283132" pearlCount="3" transform="translate(232.5648137812841,27.37223099009614)"><circle class="pool" r="7.9428545857754385" cx="7.9428545857754385" cy="7.9428545857754385" style="stroke-width: 1; fill: rgb(127, 205, 187);"></circle><circle class="pearl" r="2.1904339371426507" cx="12.103244908114071" cy="9.383494744027487"></circle><circle class="pearl" r="2.1904339371426507" cx="4.469348848043433" cy="11.43521870517349"></circle><circle class="pearl" r="2.1904339371426507" cx="6.449938481112571" cy="3.792286865073309"></circle></g><g class="bobaCup bright" cupRadius="7.606759351337571" width="15.213518702675142" height="15.213518702675142" pearlRadius="2.738042421428314" pearlCount="2" transform="translate(49.53260176906153,237.10575840725758)"><circle class="pool" r="7.606759351337571" cx="7.606759351337571" cy="7.606759351337571" style="stroke-width: 1; fill: rgb(29, 145, 192);"></circle><circle class="pearl" r="2.1904339371426516" cx="11.286610320663646" cy="6.8264046634662785"></circle><circle class="pearl" r="2.1904339371426516" cx="4.372531170820212" cy="10.84098753185493"></circle></g><g class="bobaCup bright" cupRadius="7.454569002706269" width="14.909138005412538" height="14.909138005412538" pearlRadius="2.7380424214283137" pearlCount="2" transform="translate(72.14794259293727,189.4143285637297)"><circle class="pool" r="7.454569002706269" cx="7.454569002706269" cy="7.454569002706269" style="stroke-width: 1; fill: rgb(127, 205, 187);"></circle><circle class="pearl" r="2.190433937142651" cx="11.19224248071459" cy="6.463512434030317"></circle><circle class="pearl" r="2.190433937142651" cx="4.334897748545747" cy="10.574240908990584"></circle></g><g class="bobaCup bright" cupRadius="7.369501442147883" width="14.739002884295767" height="14.739002884295767" pearlRadius="2.7380424214283137" pearlCount="2" transform="translate(102.01299181869382,38.99880487127832)"><circle class="pool" r="7.369501442147883" cx="7.369501442147883" cy="7.369501442147883" style="stroke-width: 1; fill: rgb(65, 182, 196);"></circle><circle class="pearl" r="2.190433937142651" cx="10.954715262830376" cy="5.972803004739449"></circle><circle class="pearl" r="2.190433937142651" cx="4.314000162024921" cy="10.425003935470349"></circle></g><g class="bobaCup bright" cupRadius="7.247068061221292" width="14.494136122442583" height="14.494136122442583" pearlRadius="2.738042421428314" pearlCount="2" transform="translate(276.80426075493915,174.34614359140895)"><circle class="pool" r="7.247068061221292" cx="7.247068061221292" cy="7.247068061221292" style="stroke-width: 1; fill: rgb(65, 182, 196);"></circle><circle class="pearl" r="2.1904339371426516" cx="10.567461887939086" cy="5.266279711741659"></circle><circle class="pearl" r="2.1904339371426516" cx="4.2841056716779065" cy="10.210031350933718"></circle></g><g class="bobaCup bright" cupRadius="7.035447456869965" width="14.07089491373993" height="14.07089491373993" pearlRadius="2.7380424214283137" pearlCount="2" transform="translate(284.76266547932494,229.46619487234744)"><circle class="pool" r="7.035447456869965" cx="7.035447456869965" cy="7.035447456869965" style="stroke-width: 1; fill: rgb(65, 182, 196);"></circle><circle class="pearl" r="2.190433937142651" cx="9.831706644180326" cy="4.230285349117265"></circle><circle class="pearl" r="2.190433937142651" cx="4.239188269559604" cy="9.840609564622664"></circle></g><g class="bobaCup bright" cupRadius="6.94563434306826" width="13.89126868613652" height="13.89126868613652" pearlRadius="2.7380424214283137" pearlCount="2" transform="translate(261.2836076838945,184.5443246887915)"><circle class="pool" r="6.94563434306826" cx="6.94563434306826" cy="6.94563434306826" style="stroke-width: 1; fill: rgb(127, 205, 187);"></circle><circle class="pearl" r="2.190433937142651" cx="9.656175553569785" cy="4.201453133433705"></circle><circle class="pearl" r="2.190433937142651" cx="4.235093132566736" cy="9.689815552702814"></circle></g><g class="bobaCup bright" cupRadius="6.8121472871255975" width="13.624294574251195" height="13.624294574251195" pearlRadius="2.738042421428314" pearlCount="2" transform="translate(229.35940261708987,178.7312360195487)"><circle class="pool" r="6.8121472871255975" cx="6.8121472871255975" cy="6.8121472871255975" style="stroke-width: 1; fill: rgb(127, 205, 187);"></circle><circle class="pearl" r="2.1904339371426516" cx="9.395350409495293" cy="4.159505359681042"></circle><circle class="pearl" r="2.1904339371426516" cx="4.228944164755903" cy="9.464789214570155"></circle></g><g class="bobaCup bright" cupRadius="6.434376051082657" width="12.868752102165313" height="12.868752102165313" pearlRadius="2.7380424214283137" pearlCount="2" transform="translate(159.25473044206035,142.8843370959483)"><circle class="pool" r="6.434376051082657" cx="6.434376051082657" cy="6.434376051082657" style="stroke-width: 1; fill: rgb(29, 145, 192);"></circle><circle class="pearl" r="2.190433937142651" cx="8.657524113665847" cy="4.046986341112541"></circle><circle class="pearl" r="2.190433937142651" cx="4.2112279884994654" cy="8.821765761052772"></circle></g><g class="bobaCup bright" cupRadius="6.091885452505043" width="12.183770905010086" height="12.183770905010086" pearlRadius="2.7380424214283137" pearlCount="1" transform="translate(157.37348631384282,150.8363013181206)"><circle class="pool" r="6.091885452505043" cx="6.091885452505043" cy="6.091885452505043" style="stroke-width: 1; fill: rgb(127, 205, 187);"></circle><circle class="pearl" r="2.190433937142651" cx="8.24781740733195" cy="6.091885452505043"></circle></g><g class="bobaCup bright" cupRadius="6.057080217036375" width="12.11416043407275" height="12.11416043407275" pearlRadius="2.7380424214283137" pearlCount="1" transform="translate(243.1283777260862,164.21120374239823)"><circle class="pool" r="6.057080217036375" cx="6.057080217036375" cy="6.057080217036375" style="stroke-width: 1; fill: rgb(65, 182, 196);"></circle><circle class="pearl" r="2.190433937142651" cx="8.190638519117202" cy="6.057080217036375"></circle></g><g class="bobaCup bright" cupRadius="5.826278726249692" width="11.652557452499384" height="11.652557452499384" pearlRadius="2.738042421428314" pearlCount="1" transform="translate(300.4499789918573,170.12324246226868)"><circle class="pool" r="5.826278726249692" cx="5.826278726249692" cy="5.826278726249692" style="stroke-width: 1; fill: rgb(127, 205, 187);"></circle><circle class="pearl" r="2.1904339371426516" cx="7.811472210836675" cy="5.826278726249692"></circle></g><g class="bobaCup bright" cupRadius="5.710514159085549" width="11.421028318171098" height="11.421028318171098" pearlRadius="2.7380424214283137" pearlCount="1" transform="translate(237.2185732523198,283.7798126061884)"><circle class="pool" r="5.710514159085549" cx="5.710514159085549" cy="5.710514159085549" style="stroke-width: 1; fill: rgb(65, 182, 196);"></circle><circle class="pearl" r="2.190433937142651" cx="7.621291361433542" cy="5.710514159085549"></circle></g><g class="bobaCup bright" cupRadius="4.970008692856545" width="9.94001738571309" height="9.94001738571309" pearlRadius="2.7380424214283137" pearlCount="1" transform="translate(81.81613755473788,218.34909437703206)"><circle class="pool" r="4.970008692856545" cx="4.970008692856545" cy="4.970008692856545" style="stroke-width: 1; fill: rgb(127, 205, 187);"></circle><circle class="pearl" r="2.190433937142651" cx="6.289294157142004" cy="4.970008692856545"></circle></g><g class="bobaCup bright" cupRadius="4.602540197057266" width="9.205080394114532" height="9.205080394114532" pearlRadius="2.7380424214283146" pearlCount="1" transform="translate(245.78935679916805,185.99226336707417)"><circle class="pool" r="4.602540197057266" cx="4.602540197057266" cy="4.602540197057266" style="stroke-width: 1; fill: rgb(65, 182, 196);"></circle><circle class="pearl" r="2.1904339371426516" cx="5.554357165543446" cy="4.602540197057266"></circle></g><g class="bobaCup bright" cupRadius="4.421524758187387" width="8.843049516374775" height="8.843049516374775" pearlRadius="2.738042421428314" pearlCount="0" transform="translate(128.74440498750812,133.33716618445314)"><circle class="pool" r="4.421524758187387" cx="4.421524758187387" cy="4.421524758187387" style="stroke-width: 1; fill: rgb(65, 182, 196);"></circle></g><g class="bobaCup bright" cupRadius="4.371103014565952" width="8.742206029131903" height="8.742206029131903" pearlRadius="2.738042421428314" pearlCount="0" transform="translate(93.65327553108854,17.887982205021935)"><circle class="pool" r="4.371103014565952" cx="4.371103014565952" cy="4.371103014565952" style="stroke-width: 1; fill: rgb(29, 145, 192);"></circle></g><g class="bobaCup bright" cupRadius="3.6065633572185147" width="7.2131267144370295" height="7.2131267144370295" pearlRadius="2.7380424214283137" pearlCount="0" transform="translate(133.66558092996138,215.33480412353234)"><circle class="pool" r="3.6065633572185147" cx="3.6065633572185147" cy="3.6065633572185147" style="stroke-width: 1; fill: rgb(127, 205, 187);"></circle></g><g class="bobaCup bright" cupRadius="3.545856272683044" width="7.091712545366088" height="7.091712545366088" pearlRadius="2.738042421428314" pearlCount="0" transform="translate(296.27871330022936,33.22136034170542)"><circle class="pool" r="3.545856272683044" cx="3.545856272683044" cy="3.545856272683044" style="stroke-width: 1; fill: rgb(65, 182, 196);"></circle></g><g class="bobaCup bright" cupRadius="2.9425630239746177" width="5.885126047949235" height="5.885126047949235" pearlRadius="2.738042421428314" pearlCount="0" transform="translate(153.86305677727654,224.60601338220727)"><circle class="pool" r="2.9425630239746177" cx="2.9425630239746177" cy="2.9425630239746177" style="stroke-width: 1; fill: rgb(65, 182, 196);"></circle></g><g class="bobaCup bright" cupRadius="1.9283105367857507" width="3.8566210735715014" height="3.8566210735715014" pearlRadius="2.738042421428314" pearlCount="0" transform="translate(254.02162787905252,33.600154945807446)"><circle class="pool" r="1.9283105367857507" cx="1.9283105367857507" cy="1.9283105367857507" style="stroke-width: 1; fill: rgb(65, 182, 196);"></circle></g><g class="bobaCup bright" cupRadius="0" width="0" height="0" pearlRadius="NaN" pearlCount="0" transform="translate(52.56304745250975,259.5259906128081)"><circle class="pool" r="0" cx="0" cy="0" style="stroke-width: 1; fill: rgb(29, 145, 192);"></circle></g></g><g id="legendDividerGroup" transform="translate(410,0)" height="400"><rect class="legendDivider" height="400" width="90"></rect></g><g id="legend" transform="translate(410,17.776468238974644)" width="90" height="320"><rect class="legendBorder" transform="translate(0,0)" width="90" height="344.4470635220507"></rect><text id="rTitle" text-anchor="middle" alignment-baseline="hanging" transform="translate(45,0)" x="0" y="0" style="fill: black; font-size: 0.8rem;">Population</text><text id="bobaValue" text-anchor="middle" alignment-baseline="hanging" transform="translate(45,15)" x="0" y="0" style="fill: black; font-size: 0.7rem;">(1 Pearl =   75)</text><g class="bright" cupRadius="1.9283105367857507" width="3.8566210735715014" height="3.8566210735715014" pearlRadius="2.738042421428314" pearlCount="0" transform="translate(43.07168946321425,40)"><circle class="pool" r="1.9283105367857507" cx="1.9283105367857507" cy="1.9283105367857507" style="stroke-width: 1; fill: rgb(127, 205, 187);"></circle></g><text id="0" class="legendSampleValue" text-anchor="middle" transform="translate(45,8)" x="0" y="48.8566210735715" style="fill: black; font-size: 0.7rem;">  14</text><g class="bright" cupRadius="9.109045242012094" width="18.218090484024188" height="18.218090484024188" pearlRadius="2.7380424214283137" pearlCount="4" transform="translate(35.890954757987906,68.85662107357152)"><circle class="pool" r="9.109045242012094" cx="9.109045242012094" cy="9.109045242012094" style="stroke-width: 1; fill: rgb(127, 205, 187);"></circle><circle class="pearl" r="2.190433937142651" cx="12.719449740616835" cy="5.39677351796735"></circle><circle class="pearl" r="2.190433937142651" cx="5.496794649713731" cy="12.820519743670982"></circle><circle class="pearl" r="2.190433937142651" cx="5.49944270784388" cy="5.396427345987723"></circle><circle class="pearl" r="2.190433937142651" cx="12.71679791051898" cy="12.822461293959034"></circle></g><text id="1" class="legendSampleValue" text-anchor="middle" transform="translate(45,8)" x="0" y="92.07471155759569" style="fill: black; font-size: 0.7rem;"> 310</text><g class="bright" cupRadius="12.736994500892562" width="25.473989001785124" height="25.473989001785124" pearlRadius="2.7380424214283137" pearlCount="8" transform="translate(32.263005499107436,112.07471155759569)"><circle class="pool" r="12.736994500892562" cx="12.736994500892562" cy="12.736994500892562" style="stroke-width: 1; fill: rgb(127, 205, 187);"></circle><circle class="pearl" r="2.190433937142651" cx="13.304802047852894" cy="12.826578641897353"></circle><circle class="pearl" r="2.190433937142651" cx="6.698230971126895" cy="19.300742456792882"></circle><circle class="pearl" r="2.190433937142651" cx="14.055499504857304" cy="4.71915137528263"></circle><circle class="pearl" r="2.190433937142651" cx="20.26486962140559" cy="16.466977231074182"></circle><circle class="pearl" r="2.190433937142651" cx="4.655278997485983" cy="13.077630453490661"></circle><circle class="pearl" r="2.190433937142651" cx="20.130311331399884" cy="8.59306786410446"></circle><circle class="pearl" r="2.190433937142651" cx="14.159656523061722" cy="20.743564098453174"></circle><circle class="pearl" r="2.190433937142651" cx="6.6933839374566535" cy="6.175857925073776"></circle></g><text id="2" class="legendSampleValue" text-anchor="middle" transform="translate(45,8)" x="0" y="142.54870055938082" style="fill: black; font-size: 0.7rem;"> 610</text><g class="bright" cupRadius="15.539863339505647" width="31.079726679011294" height="31.079726679011294" pearlRadius="2.738042421428314" pearlCount="12" transform="translate(29.460136660494353,162.54870055938082)"><circle class="pool" r="15.539863339505647" cx="15.539863339505647" cy="15.539863339505647" style="stroke-width: 1; fill: rgb(127, 205, 187);"></circle><circle class="pearl" r="2.1904339371426516" cx="17.605173791902864" cy="11.152324193590973"></circle><circle class="pearl" r="2.1904339371426516" cx="11.531173507801386" cy="16.08970158898797"></circle><circle class="pearl" r="2.1904339371426516" cx="14.526831246487017" cy="4.683777786479343"></circle><circle class="pearl" r="2.1904339371426516" cx="18.303390473948653" cy="18.459985935483246"></circle><circle class="pearl" r="2.1904339371426516" cx="4.717195194833561" cy="14.104066689225586"></circle><circle class="pearl" r="2.1904339371426516" cx="26.383593987569586" cy="14.352744274145559"></circle><circle class="pearl" r="2.1904339371426516" cx="11.891781793409509" cy="25.994730256425218"></circle><circle class="pearl" r="2.1904339371426516" cx="7.2385963834550875" cy="7.053755917767857"></circle><circle class="pearl" r="2.1904339371426516" cx="24.984683503813567" cy="22.08226420386551"></circle><circle class="pearl" r="2.1904339371426516" cx="5.87731275630269" cy="21.59110663321769"></circle><circle class="pearl" r="2.1904339371426516" cx="23.81642792055771" cy="7.0381787525402135"></circle><circle class="pearl" r="2.1904339371426516" cx="19.456503306185006" cy="25.92733428383716"></circle></g><text id="3" class="legendSampleValue" text-anchor="middle" transform="translate(45,8)" x="0" y="198.6284272383921" style="fill: black; font-size: 0.7rem;"> 910</text><g class="bright" cupRadius="17.909318141829292" width="35.818636283658584" height="35.818636283658584" pearlRadius="2.7380424214283137" pearlCount="16" transform="translate(27.090681858170708,218.6284272383921)"><circle class="pool" r="17.909318141829292" cx="17.909318141829292" cy="17.909318141829292" style="stroke-width: 1; fill: rgb(127, 205, 187);"></circle><circle class="pearl" r="2.190433937142651" cx="18.637276365171758" cy="18.697833831217256"></circle><circle class="pearl" r="2.190433937142651" cx="13.487768884071178" cy="23.48330424104751"></circle><circle class="pearl" r="2.190433937142651" cx="16.39051778990795" cy="11.28237863778025"></circle><circle class="pearl" r="2.190433937142651" cx="20.613022120632053" cy="26.109966077533326"></circle><circle class="pearl" r="2.190433937142651" cx="11.01180815403385" cy="16.625513437068268"></circle><circle class="pearl" r="2.190433937142651" cx="23.264057638842182" cy="13.43866143464123"></circle><circle class="pearl" r="2.190433937142651" cx="14.979255806606215" cy="30.926600205790887"></circle><circle class="pearl" r="2.190433937142651" cx="11.379794755975777" cy="5.883440977669014"></circle><circle class="pearl" r="2.190433937142651" cx="26.247772027362316" cy="20.662393699070122"></circle><circle class="pearl" r="2.190433937142651" cx="5.030386399825225" cy="21.577406597393807"></circle><circle class="pearl" r="2.190433937142651" cx="27.640533336496357" cy="7.525177648359641"></circle><circle class="pearl" r="2.190433937142651" cx="27.904113909612942" cy="28.119541513846944"></circle><circle class="pearl" r="2.190433937142651" cx="6.159501403497465" cy="10.714461291323088"></circle><circle class="pearl" r="2.190433937142651" cx="30.87990849988193" cy="14.710414612942277"></circle><circle class="pearl" r="2.190433937142651" cx="8.231848833852725" cy="28.32810930816912"></circle><circle class="pearl" r="2.190433937142651" cx="20.6232624923335" cy="4.857550518330374"></circle></g><text id="4" class="legendSampleValue" text-anchor="middle" transform="translate(45,8)" x="0" y="259.4470635220507" style="fill: black; font-size: 0.7rem;">1.2k</text><g class="bright" cupRadius="20" width="40" height="40" pearlRadius="2.7380424214283137" pearlCount="20" transform="translate(25,279.4470635220507)"><circle class="pool" r="20" cx="20" cy="20" style="stroke-width: 1; fill: rgb(127, 205, 187);"></circle><circle class="pearl" r="2.190433937142651" cx="20.803317911356498" cy="19.852362298934615"></circle><circle class="pearl" r="2.190433937142651" cx="12.399118369231148" cy="22.318129073543428"></circle><circle class="pearl" r="2.190433937142651" cx="20.14107886386132" cy="11.690576671380018"></circle><circle class="pearl" r="2.190433937142651" cx="25.351645945468196" cy="26.426489948513225"></circle><circle class="pearl" r="2.190433937142651" cx="5.45555413244983" cy="14.383463400696877"></circle><circle class="pearl" r="2.190433937142651" cx="27.007002384921414" cy="14.812215198670392"></circle><circle class="pearl" r="2.190433937142651" cx="17.669394065840073" cy="27.98572181627974"></circle><circle class="pearl" r="2.190433937142651" cx="13.075316060454844" cy="14.529673081448232"></circle><circle class="pearl" r="2.190433937142651" cx="31.363412690087696" cy="21.539471699750266"></circle><circle class="pearl" r="2.190433937142651" cx="6.986823167406808" cy="29.380119115938808"></circle><circle class="pearl" r="2.190433937142651" cx="24.195863946736896" cy="5.095807587217031"></circle><circle class="pearl" r="2.190433937142651" cx="27.929986347293504" cy="33.70997709935047"></circle><circle class="pearl" r="2.190433937142651" cx="8.960309851298339" cy="7.973635910317352"></circle><circle class="pearl" r="2.190433937142651" cx="34.68553340637696" cy="14.890285786129768"></circle><circle class="pearl" r="2.190433937142651" cx="12.548559824642552" cy="33.90934248556552"></circle><circle class="pearl" r="2.190433937142651" cx="16.437930987710008" cy="4.970487855189916"></circle><circle class="pearl" r="2.190433937142651" cx="33.26719371328966" cy="28.885282914155283"></circle><circle class="pearl" r="2.190433937142651" cx="4.745924110358729" cy="21.949095191008542"></circle><circle class="pearl" r="2.190433937142651" cx="31.34694409707199" cy="8.181149473979769"></circle><circle class="pearl" r="2.190433937142651" cx="20.521343379892976" cy="35.34248064375117"></circle></g><text id="5" class="legendSampleValue" text-anchor="middle" transform="translate(45,8)" x="0" y="324.4470635220507" style="fill: black; font-size: 0.7rem;">1.5k</text><text id="coloringDisclaimer" transform="translate(45,8)" text-anchor="middle" x="0" y="339.4470635220507" style="font-size: 0.7rem; opacity: 0.6;">(note: coloring</text><text id="coloringDisclaimer" transform="translate(45,8)" text-anchor="middle" x="0" y="354.4470635220507" style="font-size: 0.7rem; opacity: 0.6;">is random)</text></g></svg>