<?xml version="1.0" standalone="no"?>
<?xml-stylesheet xmlns="http://www.w3.org/2000/svg" type="text/css" href="style.css"?>
<svg id="syntheticVisB" class="default" xTitle="Percent Cat Owners" yTitle="Percent Dog Owners" rTitle="Population" chartTitle="Towns in Vizzyland" width="500" height="400" xmlns="http://www.w3.org/2000/svg"><text id="chartTitle" text-anchor="middle" transform="translate(250,20)" x="0" y="0" style="fill: black; font-size: 1.2rem;">Towns in Vizzyland</text><g id="yAxis" transform="translate(50,30)" fill="none" font-size="10" font-family="sans-serif" text-anchor="end"><path class="domain" stroke="currentColor" d="M-6,300H0V20H-6"></path><g class="tick" opacity="1" transform="translate(0,300)"><line stroke="currentColor" x2="-6"></line><text fill="currentColor" x="-9" dy="0.32em">0</text></g><g class="tick" opacity="1" transform="translate(0,272)"><line stroke="currentColor" x2="-6"></line><text fill="currentColor" x="-9" dy="0.32em">10</text></g><g class="tick" opacity="1" transform="translate(0,244)"><line stroke="currentColor" x2="-6"></line><text fill="currentColor" x="-9" dy="0.32em">20</text></g><g class="tick" opacity="1" transform="translate(0,216)"><line stroke="currentColor" x2="-6"></line><text fill="currentColor" x="-9" dy="0.32em">30</text></g><g class="tick" opacity="1" transform="translate(0,188)"><line stroke="currentColor" x2="-6"></line><text fill="currentColor" x="-9" dy="0.32em">40</text></g><g class="tick" opacity="1" transform="translate(0,160)"><line stroke="currentColor" x2="-6"></line><text fill="currentColor" x="-9" dy="0.32em">50</text></g><g class="tick" opacity="1" transform="translate(0,132)"><line stroke="currentColor" x2="-6"></line><text fill="currentColor" x="-9" dy="0.32em">60</text></g><g class="tick" opacity="1" transform="translate(0,104.00000000000001)"><line stroke="currentColor" x2="-6"></line><text fill="currentColor" x="-9" dy="0.32em">70</text></g><g class="tick" opacity="1" transform="translate(0,75.99999999999999)"><line stroke="currentColor" x2="-6"></line><text fill="currentColor" x="-9" dy="0.32em">80</text></g><g class="tick" opacity="1" transform="translate(0,47.99999999999999)"><line stroke="currentColor" x2="-6"></line><text fill="currentColor" x="-9" dy="0.32em">90</text></g><g class="tick" opacity="1" transform="translate(0,20)"><line stroke="currentColor" x2="-6"></line><text fill="currentColor" x="-9" dy="0.32em">100</text></g></g><g id="xAxis" transform="translate(60,360)" fill="none" font-size="10" font-family="sans-serif" text-anchor="middle"><path class="domain" stroke="currentColor" d="M20,6V0H320V6"></path><g class="tick" opacity="1" transform="translate(20,0)"><line stroke="currentColor" y2="6"></line><text fill="currentColor" y="9" dy="0.71em">0</text></g><g class="tick" opacity="1" transform="translate(50,0)"><line stroke="currentColor" y2="6"></line><text fill="currentColor" y="9" dy="0.71em">10</text></g><g class="tick" opacity="1" transform="translate(80,0)"><line stroke="currentColor" y2="6"></line><text fill="currentColor" y="9" dy="0.71em">20</text></g><g class="tick" opacity="1" transform="translate(110,0)"><line stroke="currentColor" y2="6"></line><text fill="currentColor" y="9" dy="0.71em">30</text></g><g class="tick" opacity="1" transform="translate(140,0)"><line stroke="currentColor" y2="6"></line><text fill="currentColor" y="9" dy="0.71em">40</text></g><g class="tick" opacity="1" transform="translate(170,0)"><line stroke="currentColor" y2="6"></line><text fill="currentColor" y="9" dy="0.71em">50</text></g><g class="tick" opacity="1" transform="translate(200,0)"><line stroke="currentColor" y2="6"></line><text fill="currentColor" y="9" dy="0.71em">60</text></g><g class="tick" opacity="1" transform="translate(230,0)"><line stroke="currentColor" y2="6"></line><text fill="currentColor" y="9" dy="0.71em">70</text></g><g class="tick" opacity="1" transform="translate(260,0)"><line stroke="currentColor" y2="6"></line><text fill="currentColor" y="9" dy="0.71em">80</text></g><g class="tick" opacity="1" transform="translate(290,0)"><line stroke="currentColor" y2="6"></line><text fill="currentColor" y="9" dy="0.71em">90</text></g><g class="tick" opacity="1" transform="translate(320,0)"><line stroke="currentColor" y2="6"></line><text fill="currentColor" y="9" dy="0.71em">100</text></g></g><g id="labels"><text id="xTitle" text-anchor="middle" transform="translate(250,350)" x="0" y="40" style="fill: black; font-size: 0.8rem;">Percent Cat Owners</text><g id="group-yTitle" transform="translate(60,190)"><text id="yTitle" text-anchor="middle" transform="rotate(-90)" y="-45" style="fill: black; font-size: 0.8rem;">Percent Dog Owners</text></g></g><g id="quadrant_lines" transform="translate(60,30)"><line id="verticalQuadrantLine" x1="170" y1="10" x2="170" y2="310" class="quadrantLine"></line><line id="horizontalQuadrantLine" x1="10" y1="160" x2="330" y2="160" class="quadrantLine"></line></g><g id="chart" transform="translate(60,30)"><g class="bobaCup bright" cupRadius="20" width="40" height="40" pearlRadius="2.7380424214283137" pearlCount="20" transform="translate(28.55388901453786,253.52289943274616)"><circle class="pool" r="20" cx="20" cy="20" style="stroke-width: 1; fill: rgb(65, 182, 196);"></circle><circle class="pearl" r="2.190433937142651" cx="20.803317911356498" cy="19.852362298934615"></circle><circle class="pearl" r="2.190433937142651" cx="12.399118369231148" cy="22.318129073543428"></circle><circle class="pearl" r="2.190433937142651" cx="20.14107886386132" cy="11.690576671380018"></circle><circle class="pearl" r="2.190433937142651" cx="25.351645945468196" cy="26.426489948513225"></circle><circle class="pearl" r="2.190433937142651" cx="5.45555413244983" cy="14.383463400696877"></circle><circle class="pearl" r="2.190433937142651" cx="27.007002384921414" cy="14.812215198670392"></circle><circle class="pearl" r="2.190433937142651" cx="17.669394065840073" cy="27.98572181627974"></circle><circle class="pearl" r="2.190433937142651" cx="13.075316060454844" cy="14.529673081448232"></circle><circle class="pearl" r="2.190433937142651" cx="31.363412690087696" cy="21.539471699750266"></circle><circle class="pearl" r="2.190433937142651" cx="6.986823167406808" cy="29.380119115938808"></circle><circle class="pearl" r="2.190433937142651" cx="24.195863946736896" cy="5.095807587217031"></circle><circle class="pearl" r="2.190433937142651" cx="27.929986347293504" cy="33.70997709935047"></circle><circle class="pearl" r="2.190433937142651" cx="8.960309851298339" cy="7.973635910317352"></circle><circle class="pearl" r="2.190433937142651" cx="34.68553340637696" cy="14.890285786129768"></circle><circle class="pearl" r="2.190433937142651" cx="12.548559824642552" cy="33.90934248556552"></circle><circle class="pearl" r="2.190433937142651" cx="16.437930987710008" cy="4.970487855189916"></circle><circle class="pearl" r="2.190433937142651" cx="33.26719371328966" cy="28.885282914155283"></circle><circle class="pearl" r="2.190433937142651" cx="4.745924110358729" cy="21.949095191008542"></circle><circle class="pearl" r="2.190433937142651" cx="31.34694409707199" cy="8.181149473979769"></circle><circle class="pearl" r="2.190433937142651" cx="20.521343379892976" cy="35.34248064375117"></circle></g><g class="bobaCup bright" cupRadius="19.271088731820036" width="38.54217746364007" height="38.54217746364007" pearlRadius="2.7380424214283137" pearlCount="18" transform="translate(229.51507057367698,196.7906774432691)"><circle class="pool" r="19.271088731820036" cx="19.271088731820036" cy="19.271088731820036" style="stroke-width: 1; fill: rgb(65, 182, 196);"></circle><circle class="pearl" r="2.190433937142651" cx="19.58706654879593" cy="19.537587571254022"></circle><circle class="pearl" r="2.190433937142651" cx="14.207669077582219" cy="25.302529827013444"></circle><circle class="pearl" r="2.190433937142651" cx="18.763893436974723" cy="11.778087230025825"></circle><circle class="pearl" r="2.190433937142651" cx="23.950669064822993" cy="25.717296643936628"></circle><circle class="pearl" r="2.190433937142651" cx="12.598335236543534" cy="16.38334128718794"></circle><circle class="pearl" r="2.190433937142651" cx="25.78015621344846" cy="14.773615518368365"></circle><circle class="pearl" r="2.190433937142651" cx="15.51219972773577" cy="33.28502755248096"></circle><circle class="pearl" r="2.190433937142651" cx="15.215114354147545" cy="5.082387002146099"></circle><circle class="pearl" r="2.190433937142651" cx="31.277248143042268" cy="22.63089508241068"></circle><circle class="pearl" r="2.190433937142651" cx="6.4522461306254755" cy="22.852532185197383"></circle><circle class="pearl" r="2.190433937142651" cx="30.309065105181258" cy="8.12504208516661"></circle><circle class="pearl" r="2.190433937142651" cx="23.348900777167987" cy="33.4550757434543"></circle><circle class="pearl" r="2.190433937142651" cx="8.21713680188739" cy="8.136217019419796"></circle><circle class="pearl" r="2.190433937142651" cx="33.44491343985902" cy="15.146618354674551"></circle><circle class="pearl" r="2.190433937142651" cx="8.268379657591863" cy="30.44171986808062"></circle><circle class="pearl" r="2.190433937142651" cx="23.023196429728586" cy="5.019522450044057"></circle><circle class="pearl" r="2.190433937142651" cx="30.323145680760835" cy="30.40728724585129"></circle><circle class="pearl" r="2.190433937142651" cx="5.0720387158205895" cy="15.26348227185492"></circle></g><g class="bobaCup bright" cupRadius="19.090531021096634" width="38.18106204219327" height="38.18106204219327" pearlRadius="2.7380424214283137" pearlCount="18" transform="translate(155.76845380024497,24.393930687605295)"><circle class="pool" r="19.090531021096634" cx="19.090531021096634" cy="19.090531021096634" style="stroke-width: 1; fill: rgb(65, 182, 196);"></circle><circle class="pearl" r="2.190433937142651" cx="19.462857153599145" cy="19.424354472323397"></circle><circle class="pearl" r="2.190433937142651" cx="14.31399264800234" cy="25.23675414595261"></circle><circle class="pearl" r="2.190433937142651" cx="18.368393934048772" cy="11.782894015860824"></circle><circle class="pearl" r="2.190433937142651" cx="24.004400118046107" cy="25.29051574958349"></circle><circle class="pearl" r="2.190433937142651" cx="12.4307395089595" cy="16.646380424727074"></circle><circle class="pearl" r="2.190433937142651" cx="25.411330047957655" cy="14.561233335439843"></circle><circle class="pearl" r="2.190433937142651" cx="15.175362556624789" cy="33.12455640100991"></circle><circle class="pearl" r="2.190433937142651" cx="15.031670224508826" cy="5.087192394367261"></circle><circle class="pearl" r="2.190433937142651" cx="31.644209227639774" cy="22.70456527283336"></circle><circle class="pearl" r="2.190433937142651" cx="6.779662648198427" cy="22.522135849726457"></circle><circle class="pearl" r="2.190433937142651" cx="29.96238516636308" cy="8.048862395284726"></circle><circle class="pearl" r="2.190433937142651" cx="22.95078541943443" cy="33.13597880820592"></circle><circle class="pearl" r="2.190433937142651" cx="8.19136015349115" cy="8.067822938490423"></circle><circle class="pearl" r="2.190433937142651" cx="33.09635251283427" cy="15.043098036280968"></circle><circle class="pearl" r="2.190433937142651" cx="8.233504982470906" cy="30.142462353588012"></circle><circle class="pearl" r="2.190433937142651" cx="22.743903047694914" cy="5.003558353354265"></circle><circle class="pearl" r="2.190433937142651" cx="29.893907981339357" cy="30.179420904744976"></circle><circle class="pearl" r="2.190433937142651" cx="5.065161381478461" cy="15.134279026313784"></circle></g><g class="bobaCup bright" cupRadius="18.93509763655657" width="37.87019527311314" height="37.87019527311314" pearlRadius="2.7380424214283146" pearlCount="17" transform="translate(164.5244367420359,58.842410687760086)"><circle class="pool" r="18.93509763655657" cx="18.93509763655657" cy="18.93509763655657" style="stroke-width: 1; fill: rgb(29, 145, 192);"></circle><circle class="pearl" r="2.1904339371426516" cx="18.90953892234667" cy="18.903861165630875"></circle><circle class="pearl" r="2.1904339371426516" cx="13.990361309574073" cy="24.978550159109524"></circle><circle class="pearl" r="2.1904339371426516" cx="16.25234713895193" cy="11.572943065647596"></circle><circle class="pearl" r="2.1904339371426516" cx="21.549378946115265" cy="26.212292622689557"></circle><circle class="pearl" r="2.1904339371426516" cx="11.259507531559805" cy="17.79142267275991"></circle><circle class="pearl" r="2.1904339371426516" cx="23.786074416286162" cy="12.838775892961362"></circle><circle class="pearl" r="2.1904339371426516" cx="16.404880693813542" cy="32.64538323384675"></circle><circle class="pearl" r="2.1904339371426516" cx="10.477819872663842" cy="6.644381276642389"></circle><circle class="pearl" r="2.1904339371426516" cx="26.581961586985706" cy="20.074378465997185"></circle><circle class="pearl" r="2.1904339371426516" cx="5.043641424708597" cy="22.77248009146395"></circle><circle class="pearl" r="2.1904339371426516" cx="29.62302434049948" cy="7.95552511370074"></circle><circle class="pearl" r="2.1904339371426516" cx="27.415753934433045" cy="31.214123114425824"></circle><circle class="pearl" r="2.1904339371426516" cx="5.843405084519362" cy="12.321127212223544"></circle><circle class="pearl" r="2.1904339371426516" cx="32.82546339377874" cy="15.092449887045026"></circle><circle class="pearl" r="2.1904339371426516" cx="8.235291960022941" cy="29.906540742727568"></circle><circle class="pearl" r="2.1904339371426516" cx="22.117413548598364" cy="4.920055733692625"></circle><circle class="pearl" r="2.1904339371426516" cx="32.038105622099316" cy="25.51863395702526"></circle></g><g class="bobaCup bright" cupRadius="18.503715712466075" width="37.00743142493215" height="37.00743142493215" pearlRadius="2.7380424214283137" pearlCount="17" transform="translate(203.94074644560374,219.9724491340645)"><circle class="pool" r="18.503715712466075" cx="18.503715712466075" cy="18.503715712466075" style="stroke-width: 1; fill: rgb(65, 182, 196);"></circle><circle class="pearl" r="2.190433937142651" cx="18.45234973576191" cy="18.56122140567807"></circle><circle class="pearl" r="2.190433937142651" cx="13.494356464637761" cy="24.31002777227931"></circle><circle class="pearl" r="2.190433937142651" cx="15.990640201912267" cy="11.250432556312317"></circle><circle class="pearl" r="2.190433937142651" cx="20.750282973986792" cy="25.952127983662162"></circle><circle class="pearl" r="2.190433937142651" cx="11.036293205400334" cy="17.29287977146251"></circle><circle class="pearl" r="2.190433937142651" cx="23.286752876319078" cy="12.663721536885038"></circle><circle class="pearl" r="2.190433937142651" cx="15.694467611400231" cy="32.142213907302335"></circle><circle class="pearl" r="2.190433937142651" cx="10.325808936144002" cy="6.555965037525748"></circle><circle class="pearl" r="2.190433937142651" cx="25.838899154130033" cy="19.738339170978747"></circle><circle class="pearl" r="2.190433937142651" cx="5.077796929074399" cy="22.45624765276799"></circle><circle class="pearl" r="2.190433937142651" cx="28.734112369690802" cy="7.736057722387484"></circle><circle class="pearl" r="2.190433937142651" cx="26.97049095394538" cy="30.30599258047425"></circle><circle class="pearl" r="2.190433937142651" cx="5.887569780623348" cy="11.852195242309316"></circle><circle class="pearl" r="2.190433937142651" cx="31.950192148460786" cy="14.646403245397371"></circle><circle class="pearl" r="2.190433937142651" cx="8.306177564982438" cy="29.29312560826862"></circle><circle class="pearl" r="2.190433937142651" cx="21.46731728297261" cy="4.889593995101947"></circle><circle class="pearl" r="2.190433937142651" cx="31.225640693515828" cy="24.873848313324682"></circle></g><g class="bobaCup bright" cupRadius="18.035228753510488" width="36.070457507020976" height="36.070457507020976" pearlRadius="2.7380424214283146" pearlCount="16" transform="translate(246.4165424014735,49.321803432472244)"><circle class="pool" r="18.035228753510488" cx="18.035228753510488" cy="18.035228753510488" style="stroke-width: 1; fill: rgb(127, 205, 187);"></circle><circle class="pearl" r="2.1904339371426516" cx="18.757226454538173" cy="18.816334751736896"></circle><circle class="pearl" r="2.1904339371426516" cx="13.577872892770655" cy="23.6630783622769"></circle><circle class="pearl" r="2.1904339371426516" cx="16.5523537441241" cy="11.338016778358103"></circle><circle class="pearl" r="2.1904339371426516" cx="20.743648102766134" cy="26.314693930711346"></circle><circle class="pearl" r="2.1904339371426516" cx="11.102794854361779" cy="16.73515650628674"></circle><circle class="pearl" r="2.1904339371426516" cx="23.514448726591237" cy="13.553835765961663"></circle><circle class="pearl" r="2.1904339371426516" cx="15.0252767625622" cy="31.166790676281387"></circle><circle class="pearl" r="2.1904339371426516" cx="11.441750628618907" cy="5.899185694078761"></circle><circle class="pearl" r="2.1904339371426516" cx="26.376716350264342" cy="20.83128933335427"></circle><circle class="pearl" r="2.1904339371426516" cx="5.020087863377456" cy="21.666581274394947"></circle><circle class="pearl" r="2.1904339371426516" cx="27.887233436795828" cy="7.579414327411155"></circle><circle class="pearl" r="2.1904339371426516" cx="28.139382417125216" cy="28.323566905545366"></circle><circle class="pearl" r="2.1904339371426516" cx="6.146191176908368" cy="10.84455502296843"></circle><circle class="pearl" r="2.1904339371426516" cx="31.150576584291265" cy="14.931006579517204"></circle><circle class="pearl" r="2.1904339371426516" cx="8.213224388000178" cy="28.510566031077406"></circle><circle class="pearl" r="2.1904339371426516" cx="20.81330020419189" cy="4.865968951608161"></circle></g><g class="bobaCup bright" cupRadius="18.02273580725332" width="36.04547161450664" height="36.04547161450664" pearlRadius="2.738042421428314" pearlCount="16" transform="translate(280.9604255548733,79.47733845110093)"><circle class="pool" r="18.02273580725332" cx="18.02273580725332" cy="18.02273580725332" style="stroke-width: 1; fill: rgb(65, 182, 196);"></circle><circle class="pearl" r="2.1904339371426516" cx="18.745401854132" cy="18.804604462027463"></circle><circle class="pearl" r="2.1904339371426516" cx="13.568914135590147" cy="23.64516281683121"></circle><circle class="pearl" r="2.1904339371426516" cx="16.53664161587983" cy="11.332409468002007"></circle><circle class="pearl" r="2.1904339371426516" cx="20.730553595121023" cy="26.29458331945217"></circle><circle class="pearl" r="2.1904339371426516" cx="11.094104173506757" cy="16.724164334483657"></circle><circle class="pearl" r="2.1904339371426516" cx="23.489938502457708" cy="13.542568340994482"></circle><circle class="pearl" r="2.1904339371426516" cx="15.020405035741428" cy="31.142916211207044"></circle><circle class="pearl" r="2.1904339371426516" cx="11.435530045247459" cy="5.897651269071481"></circle><circle class="pearl" r="2.1904339371426516" cx="26.363832057516017" cy="20.814809985727482"></circle><circle class="pearl" r="2.1904339371426516" cx="5.021024577786633" cy="21.657369720418675"></circle><circle class="pearl" r="2.1904339371426516" cx="27.862762386885844" cy="7.574025838178329"></circle><circle class="pearl" r="2.1904339371426516" cx="28.115923351751203" cy="28.30340806502723"></circle><circle class="pearl" r="2.1904339371426516" cx="6.147456648599661" cy="10.831751794234439"></circle><circle class="pearl" r="2.1904339371426516" cx="31.12386484689653" cy="14.909739336721147"></circle><circle class="pearl" r="2.1904339371426516" cx="8.214934944326874" cy="28.492397765946155"></circle><circle class="pearl" r="2.1904339371426516" cx="20.794502011300146" cy="4.865137439218092"></circle></g><g class="bobaCup bright" cupRadius="17.55046158208283" width="35.10092316416566" height="35.10092316416566" pearlRadius="2.738042421428314" pearlCount="15" transform="translate(231.22027152878042,215.76120585324088)"><circle class="pool" r="17.55046158208283" cx="17.55046158208283" cy="17.55046158208283" style="stroke-width: 1; fill: rgb(29, 145, 192);"></circle><circle class="pearl" r="2.1904339371426516" cx="23.388216907943843" cy="17.479126431039088"></circle><circle class="pearl" r="2.1904339371426516" cx="12.838613806452164" cy="21.972882946190246"></circle><circle class="pearl" r="2.1904339371426516" cx="17.881774019136834" cy="11.797013538542728"></circle><circle class="pearl" r="2.1904339371426516" cx="20.063573885106486" cy="24.428845046769485"></circle><circle class="pearl" r="2.1904339371426516" cx="10.52742748975331" cy="14.744631916748336"></circle><circle class="pearl" r="2.1904339371426516" cx="25.499145126975563" cy="9.974180578643072"></circle><circle class="pearl" r="2.1904339371426516" cx="14.942793006291707" cy="30.255393522447218"></circle><circle class="pearl" r="2.1904339371426516" cx="13.846944163620556" cy="5.045933122750533"></circle><circle class="pearl" r="2.1904339371426516" cx="29.918038214340026" cy="21.83953742555976"></circle><circle class="pearl" r="2.1904339371426516" cx="4.848712425268374" cy="20.179226284104978"></circle><circle class="pearl" r="2.1904339371426516" cx="21.429210123627268" cy="5.084701191182532"></circle><circle class="pearl" r="2.1904339371426516" cx="26.857776996178348" cy="27.779005187825366"></circle><circle class="pearl" r="2.1904339371426516" cx="7.722267253227747" cy="7.660713773633617"></circle><circle class="pearl" r="2.1904339371426516" cx="30.14351750099146" cy="14.283845219987484"></circle><circle class="pearl" r="2.1904339371426516" cx="7.808797017947043" cy="27.49832298572957"></circle></g><g class="bobaCup bright" cupRadius="17.34215016543172" width="34.68430033086344" height="34.68430033086344" pearlRadius="2.7380424214283132" pearlCount="15" transform="translate(148.21763773765792,198.03342009575047)"><circle class="pool" r="17.34215016543172" cx="17.34215016543172" cy="17.34215016543172" style="stroke-width: 1; fill: rgb(29, 145, 192);"></circle><circle class="pearl" r="2.1904339371426507" cx="23.144321556427652" cy="17.293002716138968"></circle><circle class="pearl" r="2.1904339371426507" cx="12.631741213687452" cy="21.67724162487404"></circle><circle class="pearl" r="2.1904339371426507" cx="17.787490720642552" cy="11.7294012506314"></circle><circle class="pearl" r="2.1904339371426507" cx="19.80040242042803" cy="24.05877929056232"></circle><circle class="pearl" r="2.1904339371426507" cx="10.426566762859487" cy="14.529103008357364"></circle><circle class="pearl" r="2.1904339371426507" cx="25.343098664181557" cy="9.832756324209761"></circle><circle class="pearl" r="2.1904339371426507" cx="14.811718903210911" cy="29.847973500419368"></circle><circle class="pearl" r="2.1904339371426507" cx="13.75853620420971" cy="5.025024875781109"></circle><circle class="pearl" r="2.1904339371426507" cx="29.48362209528342" cy="21.67485764711402"></circle><circle class="pearl" r="2.1904339371426507" cx="4.843824329933692" cy="19.922903652019247"></circle><circle class="pearl" r="2.1904339371426507" cx="21.299614680873482" cy="5.108305085354735"></circle><circle class="pearl" r="2.1904339371426507" cx="26.426744465476233" cy="27.463709047759483"></circle><circle class="pearl" r="2.1904339371426507" cx="7.726608241574838" cy="7.560564989907008"></circle><circle class="pearl" r="2.1904339371426507" cx="29.742515826777602" cy="14.178206419324106"></circle><circle class="pearl" r="2.1904339371426507" cx="7.801236812979435" cy="27.173179067089254"></circle></g><g class="bobaCup bright" cupRadius="16.793637492916986" width="33.58727498583397" height="33.58727498583397" pearlRadius="2.7380424214283132" pearlCount="14" transform="translate(218.77148636436903,268.543450492735)"><circle class="pool" r="16.793637492916986" cx="16.793637492916986" cy="16.793637492916986" style="stroke-width: 1; fill: rgb(29, 145, 192);"></circle><circle class="pearl" r="2.1904339371426507" cx="20.95368809180377" cy="12.770214859098264"></circle><circle class="pearl" r="2.1904339371426507" cx="12.627360432858444" cy="20.817315510143523"></circle><circle class="pearl" r="2.1904339371426507" cx="13.246531865617671" cy="13.14903950126282"></circle><circle class="pearl" r="2.1904339371426507" cx="20.34720224121542" cy="20.429359780209467"></circle><circle class="pearl" r="2.1904339371426507" cx="4.825197511836239" cy="19.208109371912936"></circle><circle class="pearl" r="2.1904339371426507" cx="25.887402298946512" cy="7.325943604256907"></circle><circle class="pearl" r="2.1904339371426507" cx="15.101859294919866" cy="28.851120235433545"></circle><circle class="pearl" r="2.1904339371426507" cx="10.630709293696622" cy="5.822434583691822"></circle><circle class="pearl" r="2.1904339371426507" cx="28.02188129908694" cy="22.260324437778074"></circle><circle class="pearl" r="2.1904339371426507" cx="7.693867797174556" cy="26.25746178553675"></circle><circle class="pearl" r="2.1904339371426507" cx="18.516828377544254" cy="4.739365258494234"></circle><circle class="pearl" r="2.1904339371426507" cx="22.969728532109883" cy="27.75964118515451"></circle><circle class="pearl" r="2.1904339371426507" cx="5.5520974652660895" cy="11.365725478298119"></circle><circle class="pearl" r="2.1904339371426507" cx="28.758149964884577" cy="14.352284822971022"></circle></g><g class="bobaCup bright" cupRadius="16.378139994609672" width="32.756279989219344" height="32.756279989219344" pearlRadius="2.7380424214283146" pearlCount="13" transform="translate(84.22550862556133,73.61456907573667)"><circle class="pool" r="16.378139994609672" cx="16.378139994609672" cy="16.378139994609672" style="stroke-width: 1; fill: rgb(127, 205, 187);"></circle><circle class="pearl" r="2.1904339371426516" cx="20.685084756919462" cy="15.215573438593733"></circle><circle class="pearl" r="2.1904339371426516" cx="14.729864261748544" cy="20.473066004105576"></circle><circle class="pearl" r="2.1904339371426516" cx="13.117109722994481" cy="12.67869709954836"></circle><circle class="pearl" r="2.1904339371426516" cx="25.232019781326876" cy="25.506106195929714"></circle><circle class="pearl" r="2.1904339371426516" cx="4.809759709555206" cy="14.101266942080777"></circle><circle class="pearl" r="2.1904339371426516" cx="27.178479725263717" cy="10.946002007307241"></circle><circle class="pearl" r="2.1904339371426516" cx="10.431248704659167" cy="26.987756004356445"></circle><circle class="pearl" r="2.1904339371426516" cx="14.656364124591779" cy="4.741476768121214"></circle><circle class="pearl" r="2.1904339371426516" cx="27.942162018113148" cy="18.6858458019773"></circle><circle class="pearl" r="2.1904339371426516" cx="5.503630006967442" cy="21.59451836137139"></circle><circle class="pearl" r="2.1904339371426516" cx="22.426298150841436" cy="5.808375300638981"></circle><circle class="pearl" r="2.1904339371426516" cx="18.17483817045785" cy="28.006708683930366"></circle><circle class="pearl" r="2.1904339371426516" cx="7.523567214917995" cy="7.250619119806186"></circle></g><g class="bobaCup bright" cupRadius="16.14296957117086" width="32.28593914234172" height="32.28593914234172" pearlRadius="2.7380424214283132" pearlCount="13" transform="translate(215.5836069497753,33.00308007125713)"><circle class="pool" r="16.14296957117086" cx="16.14296957117086" cy="16.14296957117086" style="stroke-width: 1; fill: rgb(29, 145, 192);"></circle><circle class="pearl" r="2.1904339371426507" cx="20.432668808929854" cy="15.021526937337743"></circle><circle class="pearl" r="2.1904339371426507" cx="14.607530792843777" cy="20.278044458360064"></circle><circle class="pearl" r="2.1904339371426507" cx="12.88950805689627" cy="12.608939577299209"></circle><circle class="pearl" r="2.1904339371426507" cx="24.780034612228373" cy="25.130302437670306"></circle><circle class="pearl" r="2.1904339371426507" cx="4.835722809191977" cy="13.706032896479655"></circle><circle class="pearl" r="2.1904339371426507" cx="26.72907707352901" cy="10.81057275053206"></circle><circle class="pearl" r="2.1904339371426507" cx="10.032101917909538" cy="26.433891603416026"></circle><circle class="pearl" r="2.1904339371426507" cx="14.55378744178308" cy="4.729136573833215"></circle><circle class="pearl" r="2.1904339371426507" cx="27.464448153621266" cy="18.484814118477562"></circle><circle class="pearl" r="2.1904339371426507" cx="5.417143990642738" cy="21.057968380645594"></circle><circle class="pearl" r="2.1904339371426507" cx="22.270681903984137" cy="5.85894780218553"></circle><circle class="pearl" r="2.1904339371426507" cx="17.723586871026214" cy="27.557647536692198"></circle><circle class="pearl" r="2.1904339371426507" cx="7.556306591094878" cy="7.1238469541465745"></circle></g><g class="bobaCup bright" cupRadius="16.071515355202973" width="32.143030710405945" height="32.143030710405945" pearlRadius="2.738042421428314" pearlCount="12" transform="translate(104.13182815949095,231.05102305571037)"><circle class="pool" r="16.071515355202973" cx="16.071515355202973" cy="16.071515355202973" style="stroke-width: 1; fill: rgb(127, 205, 187);"></circle><circle class="pearl" r="2.1904339371426516" cx="17.364497846433775" cy="11.76490207014537"></circle><circle class="pearl" r="2.1904339371426516" cx="11.584644187073186" cy="17.919219422685853"></circle><circle class="pearl" r="2.1904339371426516" cx="14.69719293887368" cy="4.709592215715475"></circle><circle class="pearl" r="2.1904339371426516" cx="19.082229103219436" cy="19.21599360091032"></circle><circle class="pearl" r="2.1904339371426516" cx="4.71140345012866" cy="14.676250457145576"></circle><circle class="pearl" r="2.1904339371426516" cx="27.16271951040377" cy="12.833409727435743"></circle><circle class="pearl" r="2.1904339371426516" cx="14.19326529543147" cy="27.38217623094732"></circle><circle class="pearl" r="2.1904339371426516" cx="7.308426007251905" cy="7.249975563317864"></circle><circle class="pearl" r="2.1904339371426516" cx="26.814312211969497" cy="20.690297142084926"></circle><circle class="pearl" r="2.1904339371426516" cx="6.9248689718899925" cy="24.31325046412167"></circle><circle class="pearl" r="2.1904339371426516" cx="22.993220246702638" cy="6.217632170378536"></circle><circle class="pearl" r="2.1904339371426516" cx="22.052732278979207" cy="26.337851150556734"></circle></g><g class="bobaCup bright" cupRadius="15.129766641963087" width="30.259533283926174" height="30.259533283926174" pearlRadius="2.7380424214283146" pearlCount="11" transform="translate(23.04608775637646,265.3712718596365)"><circle class="pool" r="15.129766641963087" cx="15.129766641963087" cy="15.129766641963087" style="stroke-width: 1; fill: rgb(29, 145, 192);"></circle><circle class="pearl" r="2.1904339371426516" cx="19.052007148525163" cy="15.597101746198643"></circle><circle class="pearl" r="2.1904339371426516" cx="11.83657343041971" cy="17.50445200869914"></circle><circle class="pearl" r="2.1904339371426516" cx="13.7948028640614" cy="10.22475255432019"></circle><circle class="pearl" r="2.1904339371426516" cx="21.735414641204816" cy="24.09062866825386"></circle><circle class="pearl" r="2.1904339371426516" cx="4.678108459089411" cy="14.219868656743493"></circle><circle class="pearl" r="2.1904339371426516" cx="24.868319362748885" cy="10.45445100625264"></circle><circle class="pearl" r="2.1904339371426516" cx="14.243220812658478" cy="25.582813642470622"></circle><circle class="pearl" r="2.1904339371426516" cx="7.181589407991125" cy="6.9066280840448995"></circle><circle class="pearl" r="2.1904339371426516" cx="25.294098945275575" cy="18.19961488372764"></circle><circle class="pearl" r="2.1904339371426516" cx="7.141772652609229" cy="23.32823757747504"></circle><circle class="pearl" r="2.1904339371426516" cx="19.558629143292986" cy="5.313457846495072"></circle></g><g class="bobaCup bright" cupRadius="15.121783173581989" width="30.243566347163977" height="30.243566347163977" pearlRadius="2.738042421428314" pearlCount="11" transform="translate(240.06026949745456,5.621354253057923)"><circle class="pool" r="15.121783173581989" cx="15.121783173581989" cy="15.121783173581989" style="stroke-width: 1; fill: rgb(65, 182, 196);"></circle><circle class="pearl" r="2.1904339371426516" cx="19.044436439210227" cy="15.593561020884772"></circle><circle class="pearl" r="2.1904339371426516" cx="11.835325791914409" cy="17.50147865475213"></circle><circle class="pearl" r="2.1904339371426516" cx="13.786647529609692" cy="10.225988360919631"></circle><circle class="pearl" r="2.1904339371426516" cx="21.728132043820736" cy="24.073430361725872"></circle><circle class="pearl" r="2.1904339371426516" cx="4.677977637923988" cy="14.214298884633632"></circle><circle class="pearl" r="2.1904339371426516" cx="24.851420995291623" cy="10.444867265379603"></circle><circle class="pearl" r="2.1904339371426516" cx="14.238703702160747" cy="25.567036130603597"></circle><circle class="pearl" r="2.1904339371426516" cx="7.1808646367492805" cy="6.90354610459158"></circle><circle class="pearl" r="2.1904339371426516" cx="25.278902918487013" cy="18.187091122500263"></circle><circle class="pearl" r="2.1904339371426516" cx="7.141938921277003" cy="23.31591930810953"></circle><circle class="pearl" r="2.1904339371426516" cx="19.542911307948042" cy="5.3114569115958865"></circle></g><g class="bobaCup bright" cupRadius="15.066408162869278" width="30.132816325738556" height="30.132816325738556" pearlRadius="2.738042421428314" pearlCount="11" transform="translate(193.02223776857252,248.58494606215982)"><circle class="pool" r="15.066408162869278" cx="15.066408162869278" cy="15.066408162869278" style="stroke-width: 1; fill: rgb(29, 145, 192);"></circle><circle class="pearl" r="2.1904339371426516" cx="18.992172212972466" cy="15.569557244572467"></circle><circle class="pearl" r="2.1904339371426516" cx="11.827039781395136" cy="17.482128228409398"></circle><circle class="pearl" r="2.1904339371426516" cx="13.729555657839857" cy="10.2360216843215"></circle><circle class="pearl" r="2.1904339371426516" cx="21.677931070586755" cy="23.95394256853241"></circle><circle class="pearl" r="2.1904339371426516" cx="4.677070997280662" cy="14.17576891479927"></circle><circle class="pearl" r="2.1904339371426516" cx="24.733953311446935" cy="10.377714783033449"></circle><circle class="pearl" r="2.1904339371426516" cx="14.207329601514283" cy="25.457581056649065"></circle><circle class="pearl" r="2.1904339371426516" cx="7.175832132679544" cy="6.8821999603041135"></circle><circle class="pearl" r="2.1904339371426516" cx="25.17367947552981" cy="18.099270185967566"></circle><circle class="pearl" r="2.1904339371426516" cx="7.14332188556236" cy="23.230573102851395"></circle><circle class="pearl" r="2.1904339371426516" cx="19.43215012601625" cy="5.297112249934633"></circle></g><g class="bobaCup bright" cupRadius="14.601367653598796" width="29.202735307197592" height="29.202735307197592" pearlRadius="2.738042421428314" pearlCount="10" transform="translate(305.2082042058311,19.257807382909373)"><circle class="pool" r="14.601367653598796" cx="14.601367653598796" cy="14.601367653598796" style="stroke-width: 1; fill: rgb(65, 182, 196);"></circle><circle class="pearl" r="2.1904339371426516" cx="17.346325772158956" cy="11.918640563541944"></circle><circle class="pearl" r="2.1904339371426516" cx="12.205071854699058" cy="16.948605481559632"></circle><circle class="pearl" r="2.1904339371426516" cx="14.50291738553696" cy="4.651055134652523"></circle><circle class="pearl" r="2.1904339371426516" cx="22.315249897399223" cy="22.348061820773555"></circle><circle class="pearl" r="2.1904339371426516" cx="4.651529117885339" cy="14.447961255839502"></circle><circle class="pearl" r="2.1904339371426516" cx="22.124189403025458" cy="6.737815422443321"></circle><circle class="pearl" r="2.1904339371426516" cx="14.700929395430853" cy="24.551672635914937"></circle><circle class="pearl" r="2.1904339371426516" cx="6.887604415434307" cy="6.854599439902081"></circle><circle class="pearl" r="2.1904339371426516" cx="24.551007878419053" cy="14.772611294168842"></circle><circle class="pearl" r="2.1904339371426516" cx="7.077878690915558" cy="22.464518772484805"></circle></g><g class="bobaCup bright" cupRadius="14.094512401449196" width="28.18902480289839" height="28.18902480289839" pearlRadius="2.738042421428314" pearlCount="9" transform="translate(213.11212040113455,234.87059327551688)"><circle class="pool" r="14.094512401449196" cx="14.094512401449196" cy="14.094512401449196" style="stroke-width: 1; fill: rgb(65, 182, 196);"></circle><circle class="pearl" r="2.1904339371426516" cx="19.97094002924624" cy="14.068652306803562"></circle><circle class="pearl" r="2.1904339371426516" cx="12.312463944189195" cy="15.849290223088621"></circle><circle class="pearl" r="2.1904339371426516" cx="14.096979540861124" cy="4.650723444498274"></circle><circle class="pearl" r="2.1904339371426516" cx="14.100455952357686" cy="23.538300321151677"></circle><circle class="pearl" r="2.1904339371426516" cx="4.650732612281827" cy="14.110776397477608"></circle><circle class="pearl" r="2.1904339371426516" cx="21.359286899918327" cy="6.667225391533242"></circle><circle class="pearl" r="2.1904339371426516" cx="6.808615160982832" cy="21.509069162831505"></circle><circle class="pearl" r="2.1904339371426516" cx="6.80393294611585" cy="6.6827843434833465"></circle><circle class="pearl" r="2.1904339371426516" cx="21.372164506051067" cy="21.514044335010727"></circle></g><g class="bobaCup bright" cupRadius="13.908502038062844" width="27.817004076125688" height="27.817004076125688" pearlRadius="2.738042421428314" pearlCount="9" transform="translate(36.21741515671874,285.9968589838265)"><circle class="pool" r="13.908502038062844" cx="13.908502038062844" cy="13.908502038062844" style="stroke-width: 1; fill: rgb(127, 205, 187);"></circle><circle class="pearl" r="2.1904339371426516" cx="15.778969096483188" cy="12.06366865277481"></circle><circle class="pearl" r="2.1904339371426516" cx="10.395822915395646" cy="17.409522670796978"></circle><circle class="pearl" r="2.1904339371426516" cx="13.975146366796208" cy="4.650882896809767"></circle><circle class="pearl" r="2.1904339371426516" cx="21.062375421943834" cy="21.18541581562996"></circle><circle class="pearl" r="2.1904339371426516" cx="4.651211026020535" cy="13.792016735585152"></circle><circle class="pearl" r="2.1904339371426516" cx="20.988580394909103" cy="6.587637259869101"></circle><circle class="pearl" r="2.1904339371426516" cx="13.986374687471987" cy="23.16606284431332"></circle><circle class="pearl" r="2.1904339371426516" cx="6.8244596320704325" cy="6.589982511434268"></circle><circle class="pearl" r="2.1904339371426516" cx="23.166054591108423" cy="13.987835040612964"></circle></g><g class="bobaCup bright" cupRadius="13.903739630569964" width="27.807479261139928" height="27.807479261139928" pearlRadius="2.7380424214283137" pearlCount="9" transform="translate(160.4143339284882,76.41906118663529)"><circle class="pool" r="13.903739630569964" cx="13.903739630569964" cy="13.903739630569964" style="stroke-width: 1; fill: rgb(127, 205, 187);"></circle><circle class="pearl" r="2.190433937142651" cx="15.77127072391717" cy="12.062141664166441"></circle><circle class="pearl" r="2.190433937142651" cx="10.388474527259728" cy="17.407307696066077"></circle><circle class="pearl" r="2.190433937142651" cx="13.970210394135334" cy="4.650882120630813"></circle><circle class="pearl" r="2.190433937142651" cx="21.053348328267557" cy="21.177657746059868"></circle><circle class="pearl" r="2.190433937142651" cx="4.651199448899991" cy="13.788664610978497"></circle><circle class="pearl" r="2.190433937142651" cx="20.979602382404618" cy="6.585914825570699"></circle><circle class="pearl" r="2.190433937142651" cx="13.980034522296107" cy="23.156546702040604"></circle><circle class="pearl" r="2.190433937142651" cx="6.823816588601403" cy="6.58831621811728"></circle><circle class="pearl" r="2.190433937142651" cx="23.156520333893138" cy="13.984697215036274"></circle></g><g class="bobaCup bright" cupRadius="13.88434429137493" width="27.76868858274986" height="27.76868858274986" pearlRadius="2.738042421428314" pearlCount="9" transform="translate(137.34726822436204,6.11565570862507)"><circle class="pool" r="13.88434429137493" cx="13.88434429137493" cy="13.88434429137493" style="stroke-width: 1; fill: rgb(127, 205, 187);"></circle><circle class="pearl" r="2.1904339371426516" cx="15.739815109625416" cy="12.05603060643107"></circle><circle class="pearl" r="2.1904339371426516" cx="10.358303577263744" cy="17.398531175926973"></circle><circle class="pearl" r="2.1904339371426516" cx="13.950110579707612" cy="4.650878987779127"></circle><circle class="pearl" r="2.1904339371426516" cx="21.016586815889443" cy="21.1460571265543"></circle><circle class="pearl" r="2.1904339371426516" cx="4.651154235984537" cy="13.774944451916186"></circle><circle class="pearl" r="2.1904339371426516" cx="20.943055670667174" cy="6.578913871498459"></circle><circle class="pearl" r="2.1904339371426516" cx="13.954279385726565" cy="23.117789222402518"></circle><circle class="pearl" r="2.1904339371426516" cx="6.821222967937114" cy="6.581518525114662"></circle><circle class="pearl" r="2.1904339371426516" cx="23.117688785595554" cy="13.971979160970703"></circle></g><g class="bobaCup bright" cupRadius="13.746424869976845" width="27.49284973995369" height="27.49284973995369" pearlRadius="2.738042421428314" pearlCount="9" transform="translate(202.2804494916128,23.598070624662373)"><circle class="pool" r="13.746424869976845" cx="13.746424869976845" cy="13.746424869976845" style="stroke-width: 1; fill: rgb(127, 205, 187);"></circle><circle class="pearl" r="2.1904339371426516" cx="15.510672783972723" cy="12.018233433478377"></circle><circle class="pearl" r="2.1904339371426516" cx="10.130804185928882" cy="17.3489609564788"></circle><circle class="pearl" r="2.1904339371426516" cx="13.807342527586622" cy="4.650858208366316"></circle><circle class="pearl" r="2.1904339371426516" cx="20.755203034975548" cy="20.921149850237228"></circle><circle class="pearl" r="2.1904339371426516" cx="4.650915098222804" cy="13.673795628686364"></circle><circle class="pearl" r="2.1904339371426516" cx="20.684068793694056" cy="6.529827697816028"></circle><circle class="pearl" r="2.1904339371426516" cx="13.774298638948984" cy="22.842098251387636"></circle><circle class="pearl" r="2.1904339371426516" cx="6.804143932399674" cy="6.5325397152227325"></circle><circle class="pearl" r="2.1904339371426516" cx="22.84142983287907" cy="13.884819927886905"></circle></g><g class="bobaCup bright" cupRadius="13.44764875553571" width="26.89529751107142" height="26.89529751107142" pearlRadius="2.738042421428314" pearlCount="9" transform="translate(191.30447149856357,59.80717751333256)"><circle class="pool" r="13.44764875553571" cx="13.44764875553571" cy="13.44764875553571" style="stroke-width: 1; fill: rgb(127, 205, 187);"></circle><circle class="pearl" r="2.1904339371426516" cx="14.965673640329529" cy="11.985500983586338"></circle><circle class="pearl" r="2.1904339371426516" cx="9.521215438858547" cy="17.353975803812478"></circle><circle class="pearl" r="2.1904339371426516" cx="13.500004313424489" cy="4.65082514656727"></circle><circle class="pearl" r="2.1904339371426516" cx="20.18706235386099" cy="20.43391660726409"></circle><circle class="pearl" r="2.1904339371426516" cx="4.650742324161991" cy="13.42498642480915"></circle><circle class="pearl" r="2.1904339371426516" cx="20.130841973988115" cy="6.429002444277623"></circle><circle class="pearl" r="2.1904339371426516" cx="13.40364674728841" cy="22.2445022928928"></circle><circle class="pearl" r="2.1904339371426516" cx="6.779797822617285" cy="6.420229109974793"></circle><circle class="pearl" r="2.1904339371426516" cx="22.24168732474234" cy="13.726283378793497"></circle></g><g class="bobaCup bright" cupRadius="13.437001516972213" width="26.874003033944426" height="26.874003033944426" pearlRadius="2.7380424214283137" pearlCount="9" transform="translate(177.3532624400001,76.71698114076153)"><circle class="pool" r="13.437001516972213" cx="13.437001516972213" cy="13.437001516972213" style="stroke-width: 1; fill: rgb(29, 145, 192);"></circle><circle class="pearl" r="2.190433937142651" cx="14.944498462992453" cy="11.986071900903367"></circle><circle class="pearl" r="2.190433937142651" cx="9.495223246941288" cy="17.358150404115364"></circle><circle class="pearl" r="2.190433937142651" cx="13.489127152585263" cy="4.650824333423488"></circle><circle class="pearl" r="2.190433937142651" cx="20.166683140708056" cy="20.416600511377826"></circle><circle class="pearl" r="2.190433937142651" cx="4.650740990828485" cy="13.415153344422485"></circle><circle class="pearl" r="2.190433937142651" cx="20.111408401736117" cy="6.425593615096782"></circle><circle class="pearl" r="2.190433937142651" cx="13.390826787808537" cy="22.223200468033642"></circle><circle class="pearl" r="2.190433937142651" cx="6.779396078150276" cy="6.415993957520378"></circle><circle class="pearl" r="2.190433937142651" cx="22.220262069709033" cy="13.721763752301525"></circle></g><g class="bobaCup bright" cupRadius="13.384684045258744" width="26.76936809051749" height="26.76936809051749" pearlRadius="2.7380424214283137" pearlCount="8" transform="translate(151.1157064230525,41.0632001131274)"><circle class="pool" r="13.384684045258744" cx="13.384684045258744" cy="13.384684045258744" style="stroke-width: 1; fill: rgb(127, 205, 187);"></circle><circle class="pearl" r="2.190433937142651" cx="22.100154568809128" cy="14.087984530224439"></circle><circle class="pearl" r="2.190433937142651" cx="12.670385695270001" cy="14.065143598302441"></circle><circle class="pearl" r="2.190433937142651" cx="12.497230924696852" cy="4.680176315504587"></circle><circle class="pearl" r="2.190433937142651" cx="18.618255463987943" cy="21.0530312847248"></circle><circle class="pearl" r="2.190433937142651" cx="4.986372516257465" cy="16.363351345759483"></circle><circle class="pearl" r="2.190433937142651" cx="20.192650944336336" cy="6.511460307079773"></circle><circle class="pearl" r="2.190433937142651" cx="10.676984075703041" cy="21.841902221281746"></circle><circle class="pearl" r="2.190433937142651" cx="5.608953698714146" cy="8.411453853833997"></circle></g><g class="bobaCup bright" cupRadius="13.254431376079193" width="26.508862752158386" height="26.508862752158386" pearlRadius="2.7380424214283137" pearlCount="8" transform="translate(123.58359127774995,183.11112396382845)"><circle class="pool" r="13.254431376079193" cx="13.254431376079193" cy="13.254431376079193" style="stroke-width: 1; fill: rgb(127, 205, 187);"></circle><circle class="pearl" r="2.190433937142651" cx="14.306856710673648" cy="12.61301855335705"></circle><circle class="pearl" r="2.190433937142651" cx="8.312044899526677" cy="20.902194518585784"></circle><circle class="pearl" r="2.190433937142651" cx="13.97167295140345" cy="4.670143625213239"></circle><circle class="pearl" r="2.190433937142651" cx="21.585375192898564" cy="15.929552275368804"></circle><circle class="pearl" r="2.190433937142651" cx="4.681608891163638" cy="14.15874872442636"></circle><circle class="pearl" r="2.190433937142651" cx="20.775172105115423" cy="8.007011416531581"></circle><circle class="pearl" r="2.190433937142651" cx="16.168482760583952" cy="21.533837908328703"></circle><circle class="pearl" r="2.190433937142651" cx="6.552779724420281" cy="6.469778955245054"></circle></g><g class="bobaCup bright" cupRadius="13.241254428542131" width="26.482508857084262" height="26.482508857084262" pearlRadius="2.7380424214283137" pearlCount="8" transform="translate(255.3575897797974,244.85627490606535)"><circle class="pool" r="13.241254428542131" cx="13.241254428542131" cy="13.241254428542131" style="stroke-width: 1; fill: rgb(65, 182, 196);"></circle><circle class="pearl" r="2.190433937142651" cx="14.282423820500027" cy="12.71488350954671"></circle><circle class="pearl" r="2.190433937142651" cx="8.246332130536311" cy="20.853547553147404"></circle><circle class="pearl" r="2.190433937142651" cx="13.987978466435443" cy="4.671795281191963"></circle><circle class="pearl" r="2.190433937142651" cx="21.5476344850187" cy="15.969677654875232"></circle><circle class="pearl" r="2.190433937142651" cx="4.679876050765291" cy="14.11942866235064"></circle><circle class="pearl" r="2.190433937142651" cx="20.770674876195873" cy="8.047515999634973"></circle><circle class="pearl" r="2.190433937142651" cx="16.090755065321943" cy="21.52154681988188"></circle><circle class="pearl" r="2.190433937142651" cx="6.559145335533673" cy="6.460431965015395"></circle></g><g class="bobaCup bright" cupRadius="13.195795197619056" width="26.39159039523811" height="26.39159039523811" pearlRadius="2.7380424214283137" pearlCount="8" transform="translate(173.88334917871023,166.76898205939088)"><circle class="pool" r="13.195795197619056" cx="13.195795197619056" cy="13.195795197619056" style="stroke-width: 1; fill: rgb(65, 182, 196);"></circle><circle class="pearl" r="2.190433937142651" cx="14.15568101401075" cy="12.855043468855179"></circle><circle class="pearl" r="2.190433937142651" cx="8.104837334430272" cy="20.71927251498701"></circle><circle class="pearl" r="2.190433937142651" cx="13.993172633003699" cy="4.674836676199156"></circle><circle class="pearl" r="2.190433937142651" cx="21.43646734385802" cy="16.01376187375847"></circle><circle class="pearl" r="2.190433937142651" cx="4.676940707057032" cy="14.027199790593446"></circle><circle class="pearl" r="2.190433937142651" cx="20.715413262417073" cy="8.09561836731003"></circle><circle class="pearl" r="2.190433937142651" cx="15.917635966162061" cy="21.4571048735988"></circle><circle class="pearl" r="2.190433937142651" cx="6.570671766921178" cy="6.434386704836582"></circle></g><g class="bobaCup bright" cupRadius="13.061159206793855" width="26.12231841358771" height="26.12231841358771" pearlRadius="2.738042421428314" pearlCount="8" transform="translate(234.19559893932427,180.59267011805142)"><circle class="pool" r="13.061159206793855" cx="13.061159206793855" cy="13.061159206793855" style="stroke-width: 1; fill: rgb(127, 205, 187);"></circle><circle class="pearl" r="2.1904339371426516" cx="13.863622048270397" cy="12.942732771693173"></circle><circle class="pearl" r="2.1904339371426516" cx="7.695816335680406" cy="20.318709392140004"></circle><circle class="pearl" r="2.1904339371426516" cx="13.99798714424571" cy="4.684364128303322"></circle><circle class="pearl" r="2.1904339371426516" cx="21.10726098629717" cy="16.124574709064547"></circle><circle class="pearl" r="2.1904339371426516" cx="4.669356846469009" cy="13.758587402532124"></circle><circle class="pearl" r="2.1904339371426516" cx="20.5404192854975" cy="8.217876767120085"></circle><circle class="pearl" r="2.1904339371426516" cx="15.419798951358127" cy="21.256863434156877"></circle><circle class="pearl" r="2.1904339371426516" cx="6.604142322692031" cy="6.358433057152174"></circle></g><g class="bobaCup bright" cupRadius="13.040981152166504" width="26.081962304333008" height="26.081962304333008" pearlRadius="2.738042421428314" pearlCount="8" transform="translate(141.56812043299766,286.9590188478335)"><circle class="pool" r="13.040981152166504" cx="13.040981152166504" cy="13.040981152166504" style="stroke-width: 1; fill: rgb(29, 145, 192);"></circle><circle class="pearl" r="2.1904339371426516" cx="13.828491897167273" cy="12.946177010370842"></circle><circle class="pearl" r="2.1904339371426516" cx="7.608403758352612" cy="20.24581747476736"></circle><circle class="pearl" r="2.1904339371426516" cx="14.01308782099624" cy="4.687005305573306"></circle><circle class="pearl" r="2.1904339371426516" cx="21.05083059035596" cy="16.167814879891374"></circle><circle class="pearl" r="2.1904339371426516" cx="4.667628613591344" cy="13.704788219616017"></circle><circle class="pearl" r="2.1904339371426516" cx="20.52397847206348" cy="8.261858318126146"></circle><circle class="pearl" r="2.1904339371426516" cx="15.317151664761939" cy="21.231061528072555"></circle><circle class="pearl" r="2.1904339371426516" cx="6.612468414139244" cy="6.345277040460683"></circle></g><g class="bobaCup bright" cupRadius="12.697525252117408" width="25.395050504234817" height="25.395050504234817" pearlRadius="2.738042421428314" pearlCount="8" transform="translate(122.3917045582009,13.742166997810692)"><circle class="pool" r="12.697525252117408" cx="12.697525252117408" cy="12.697525252117408" style="stroke-width: 1; fill: rgb(29, 145, 192);"></circle><circle class="pearl" r="2.1904339371426516" cx="13.224616422546925" cy="12.792581408586482"></circle><circle class="pearl" r="2.1904339371426516" cx="6.696000429768379" cy="19.2364779498137"></circle><circle class="pearl" r="2.1904339371426516" cx="14.001752132683075" cy="4.717882699280212"></circle><circle class="pearl" r="2.1904339371426516" cx="20.193989222291535" cy="16.395225981868226"></circle><circle class="pearl" r="2.1904339371426516" cx="4.655727918671783" cy="13.053993078074077"></circle><circle class="pearl" r="2.1904339371426516" cx="20.041001310417432" cy="8.530232246462552"></circle><circle class="pearl" r="2.1904339371426516" cx="14.127866373673413" cy="20.663508083534612"></circle><circle class="pearl" r="2.1904339371426516" cx="6.690106107188704" cy="6.16173594347193"></circle></g><g class="bobaCup bright" cupRadius="12.50172251117238" width="25.00344502234476" height="25.00344502234476" pearlRadius="2.7380424214283137" pearlCount="7" transform="translate(172.47480676226692,46.080324189619624)"><circle class="pool" r="12.50172251117238" cx="12.50172251117238" cy="12.50172251117238" style="stroke-width: 1; fill: rgb(127, 205, 187);"></circle><circle class="pearl" r="2.190433937142651" cx="12.72861527519527" cy="12.54512382505137"></circle><circle class="pearl" r="2.190433937142651" cx="5.003917401306371" cy="15.45237073767196"></circle><circle class="pearl" r="2.190433937142651" cx="13.127894350301125" cy="4.666414561893701"></circle><circle class="pearl" r="2.190433937142651" cx="19.008759425762616" cy="18.14064566493454"></circle><circle class="pearl" r="2.190433937142651" cx="5.697356364054798" cy="7.494328663936186"></circle><circle class="pearl" r="2.190433937142651" cx="19.82541318763064" cy="8.90916389962627"></circle><circle class="pearl" r="2.190433937142651" cx="11.287915442330902" cy="20.293657284249687"></circle></g><g class="bobaCup bright" cupRadius="12.425318005869572" width="24.850636011739144" height="24.850636011739144" pearlRadius="2.7380424214283146" pearlCount="7" transform="translate(116.61201660059317,85.51935330588896)"><circle class="pool" r="12.425318005869572" cx="12.425318005869572" cy="12.425318005869572" style="stroke-width: 1; fill: rgb(127, 205, 187);"></circle><circle class="pearl" r="2.1904339371426516" cx="12.496958717622505" cy="12.451616654966706"></circle><circle class="pearl" r="2.1904339371426516" cx="4.962672967882809" cy="15.19205557668034"></circle><circle class="pearl" r="2.1904339371426516" cx="13.288752590408475" cy="4.680759540779609"></circle><circle class="pearl" r="2.1904339371426516" cx="18.908064995891575" cy="17.942053312070822"></circle><circle class="pearl" r="2.1904339371426516" cx="5.780819240372572" cy="7.247819801938723"></circle><circle class="pearl" r="2.1904339371426516" cx="19.770319615177378" cy="9.186319215983714"></circle><circle class="pearl" r="2.1904339371426516" cx="11.116073103711551" cy="20.130743260266787"></circle></g><g class="bobaCup bright" cupRadius="12.304585872612199" width="24.609171745224398" height="24.609171745224398" pearlRadius="2.7380424214283137" pearlCount="7" transform="translate(269.9065144955029,32.81092478836659)"><circle class="pool" r="12.304585872612199" cx="12.304585872612199" cy="12.304585872612199" style="stroke-width: 1; fill: rgb(29, 145, 192);"></circle><circle class="pearl" r="2.190433937142651" cx="12.34353161878794" cy="12.319764631999131"></circle><circle class="pearl" r="2.190433937142651" cx="5.003737926725298" cy="15.230808686813589"></circle><circle class="pearl" r="2.190433937142651" cx="13.149118203481546" cy="4.679739923397509"></circle><circle class="pearl" r="2.190433937142651" cx="18.773401465086682" cy="17.573237493638988"></circle><circle class="pearl" r="2.190433937142651" cx="5.716975427510956" cy="7.294327422622783"></circle><circle class="pearl" r="2.190433937142651" cx="19.53315324447854" cy="9.097517378356624"></circle><circle class="pearl" r="2.190433937142651" cx="11.210217441538141" cy="19.909685392170115"></circle></g><g class="bobaCup bright" cupRadius="12.285375771963205" width="24.57075154392641" height="24.57075154392641" pearlRadius="2.7380424214283132" pearlCount="7" transform="translate(126.08609348196697,28.164678687156815)"><circle class="pool" r="12.285375771963205" cx="12.285375771963205" cy="12.285375771963205" style="stroke-width: 1; fill: rgb(65, 182, 196);"></circle><circle class="pearl" r="2.1904339371426507" cx="12.321815225063803" cy="12.299485308419131"></circle><circle class="pearl" r="2.1904339371426507" cx="5.011535181447292" cy="15.240918967868456"></circle><circle class="pearl" r="2.1904339371426507" cx="13.120883319559113" cy="4.679166880454209"></circle><circle class="pearl" r="2.1904339371426507" cx="18.762998847597647" cy="17.490216441187933"></circle><circle class="pearl" r="2.1904339371426507" cx="5.704831198477021" cy="7.306512305587348"></circle><circle class="pearl" r="2.1904339371426507" cx="19.493133963059854" cy="9.074943359073064"></circle><circle class="pearl" r="2.1904339371426507" cx="11.224444570732754" cy="19.874133040725173"></circle></g><g class="bobaCup bright" cupRadius="12.147915196211358" width="24.295830392422715" height="24.295830392422715" pearlRadius="2.738042421428314" pearlCount="7" transform="translate(307.85208480378867,243.38643315940777)"><circle class="pool" r="12.147915196211358" cx="12.147915196211358" cy="12.147915196211358" style="stroke-width: 1; fill: rgb(29, 145, 192);"></circle><circle class="pearl" r="2.1904339371426516" cx="12.154554636809602" cy="12.149982118531474"></circle><circle class="pearl" r="2.1904339371426516" cx="5.108553112282708" cy="15.451511569986584"></circle><circle class="pearl" r="2.1904339371426516" cx="12.80567290742584" cy="4.6685436845225485"></circle><circle class="pearl" r="2.1904339371426516" cx="18.732884857594687" cy="16.766470045617243"></circle><circle class="pearl" r="2.1904339371426516" cx="5.565616719462703" cy="7.5228674146032075"></circle><circle class="pearl" r="2.1904339371426516" cx="19.17663189189943" cy="8.80687843048067"></circle><circle class="pearl" r="2.1904339371426516" cx="11.45981257855494" cy="19.625603174468527"></circle></g><g class="bobaCup bright" cupRadius="11.776581759498976" width="23.553163518997952" height="23.553163518997952" pearlRadius="2.738042421428314" pearlCount="6" transform="translate(82.24263787270436,54.91888948526341)"><circle class="pool" r="11.776581759498976" cx="11.776581759498976" cy="11.776581759498976" style="stroke-width: 1; fill: rgb(29, 145, 192);"></circle><circle class="pearl" r="2.1904339371426516" cx="12.228413289470618" cy="12.038962798050463"></circle><circle class="pearl" r="2.1904339371426516" cx="6.837246440378162" cy="17.816548150566547"></circle><circle class="pearl" r="2.1904339371426516" cx="9.760028520270708" cy="4.8246591272535735"></circle><circle class="pearl" r="2.1904339371426516" cx="17.36297592622738" cy="17.49311844626265"></circle><circle class="pearl" r="2.1904339371426516" cx="4.732302908991652" cy="10.392817217202946"></circle><circle class="pearl" r="2.1904339371426516" cx="17.437101190549615" cy="6.100330711503757"></circle></g><g class="bobaCup bright" cupRadius="11.418037483665328" width="22.836074967330656" height="22.836074967330656" pearlRadius="2.7380424214283137" pearlCount="6" transform="translate(283.79678480289164,164.76860144462657)"><circle class="pool" r="11.418037483665328" cx="11.418037483665328" cy="11.418037483665328" style="stroke-width: 1; fill: rgb(29, 145, 192);"></circle><circle class="pearl" r="2.190433937142651" cx="11.81633837923253" cy="11.766075631727592"></circle><circle class="pearl" r="2.190433937142651" cx="6.147173478136827" cy="16.89596533081062"></circle><circle class="pearl" r="2.190433937142651" cx="9.577795691505791" cy="4.799994580810315"></circle><circle class="pearl" r="2.190433937142651" cx="16.673520075895446" cy="16.903954857441388"></circle><circle class="pearl" r="2.190433937142651" cx="4.777383114665895" cy="9.722050476796145"></circle><circle class="pearl" r="2.190433937142651" cx="16.790419219725823" cy="5.993588532048619"></circle></g><g class="bobaCup bright" cupRadius="11.406803258330605" width="22.81360651666121" height="22.81360651666121" pearlRadius="2.7380424214283146" pearlCount="6" transform="translate(91.88262560476801,184.90868662488555)"><circle class="pool" r="11.406803258330605" cx="11.406803258330605" cy="11.406803258330605" style="stroke-width: 1; fill: rgb(65, 182, 196);"></circle><circle class="pearl" r="2.1904339371426516" cx="11.807277253750017" cy="11.755736982995066"></circle><circle class="pearl" r="2.1904339371426516" cx="6.14676954554982" cy="16.877700745567402"></circle><circle class="pearl" r="2.1904339371426516" cx="9.565746407436729" cy="4.8002768118683425"></circle><circle class="pearl" r="2.1904339371426516" cx="16.651621822774832" cy="16.885593285603697"></circle><circle class="pearl" r="2.1904339371426516" cx="4.776931056218882" cy="9.714666353845681"></circle><circle class="pearl" r="2.1904339371426516" cx="16.76895774576671" cy="5.98963396526984"></circle></g><g class="bobaCup bright" cupRadius="11.304325409328285" width="22.60865081865657" height="22.60865081865657" pearlRadius="2.7380424214283137" pearlCount="6" transform="translate(148.4103539955695,53.638499594874304)"><circle class="pool" r="11.304325409328285" cx="11.304325409328285" cy="11.304325409328285" style="stroke-width: 1; fill: rgb(29, 145, 192);"></circle><circle class="pearl" r="2.190433937142651" cx="11.725237646676646" cy="11.661047749643323"></circle><circle class="pearl" r="2.190433937142651" cx="6.143096266922031" cy="16.71091229328538"></circle><circle class="pearl" r="2.190433937142651" cx="9.455388161326905" cy="4.802954484201681"></circle><circle class="pearl" r="2.190433937142651" cx="16.45180653819329" cy="16.717955661630366"></circle><circle class="pearl" r="2.190433937142651" cx="4.772751035126802" cy="9.647825097522704"></circle><circle class="pearl" r="2.190433937142651" cx="16.573014336322533" cy="5.953614243246106"></circle></g><g class="bobaCup bright" cupRadius="11.175061904394614" width="22.350123808789228" height="22.350123808789228" pearlRadius="2.7380424214283146" pearlCount="6" transform="translate(11.792397668012239,141.19988944120976)"><circle class="pool" r="11.175061904394614" cx="11.175061904394614" cy="11.175061904394614" style="stroke-width: 1; fill: rgb(127, 205, 187);"></circle><circle class="pearl" r="2.1904339371426516" cx="11.623491680052842" cy="11.540530203361353"></circle><circle class="pearl" r="2.1904339371426516" cx="6.138513204053724" cy="16.50006851158724"></circle><circle class="pearl" r="2.1904339371426516" cx="9.314918629637978" cy="4.806625656652208"></circle><circle class="pearl" r="2.1904339371426516" cx="16.199574466347144" cy="16.506136213433326"></circle><circle class="pearl" r="2.1904339371426516" cx="4.767317510647554" cy="9.56499904438168"></circle><circle class="pearl" r="2.1904339371426516" cx="16.325357249498378" cy="5.908302265561578"></circle></g><g class="bobaCup bright" cupRadius="11.13578077260266" width="22.27156154520532" height="22.27156154520532" pearlRadius="2.7380424214283146" pearlCount="6" transform="translate(227.08345878195104,196.91461956475356)"><circle class="pool" r="11.13578077260266" cx="11.13578077260266" cy="11.13578077260266" style="stroke-width: 1; fill: rgb(127, 205, 187);"></circle><circle class="pearl" r="2.1904339371426516" cx="11.592999728739375" cy="11.503640813402773"></circle><circle class="pearl" r="2.1904339371426516" cx="6.13713755973036" cy="16.43589567184135"></circle><circle class="pearl" r="2.1904339371426516" cx="9.271918953646226" cy="4.807814073167603"></circle><circle class="pearl" r="2.1904339371426516" cx="16.122874310181306" cy="16.44168907597592"></circle><circle class="pearl" r="2.1904339371426516" cx="4.765626397787472" cy="9.540202423963546"></circle><circle class="pearl" r="2.1904339371426516" cx="16.24997350380247" cy="5.894555450781355"></circle></g><g class="bobaCup bright" cupRadius="11.07535845988469" width="22.15071691976938" height="22.15071691976938" pearlRadius="2.738042421428314" pearlCount="6" transform="translate(241.9076416080115,182.62174695079204)"><circle class="pool" r="11.07535845988469" cx="11.07535845988469" cy="11.07535845988469" style="stroke-width: 1; fill: rgb(65, 182, 196);"></circle><circle class="pearl" r="2.1904339371426516" cx="11.546523726344894" cy="11.44663093185554"></circle><circle class="pearl" r="2.1904339371426516" cx="6.135042432209374" cy="16.337094187679263"></circle><circle class="pearl" r="2.1904339371426516" cx="9.205462218758338" cy="4.809715394566544"></circle><circle class="pearl" r="2.1904339371426516" cx="16.004839742078364" cy="16.342486778067144"></circle><circle class="pearl" r="2.1904339371426516" cx="4.762984958631694" cy="9.50243916524179"></circle><circle class="pearl" r="2.1904339371426516" cx="16.13389165654655" cy="5.873426872965215"></circle></g><g class="bobaCup bright" cupRadius="11.049868029830701" width="22.099736059661403" height="22.099736059661403" pearlRadius="2.738042421428314" pearlCount="6" transform="translate(190.59032581389948,150.9677550835617)"><circle class="pool" r="11.049868029830701" cx="11.049868029830701" cy="11.049868029830701" style="stroke-width: 1; fill: rgb(127, 205, 187);"></circle><circle class="pearl" r="2.1904339371426516" cx="11.527080482382843" cy="11.42247777373568"></circle><circle class="pearl" r="2.1904339371426516" cx="6.134167355287195" cy="16.29537996191375"></circle><circle class="pearl" r="2.1904339371426516" cx="9.177305140430198" cy="4.810545725810352"></circle><circle class="pearl" r="2.1904339371426516" cx="15.955022873924701" cy="16.300611330624637"></circle><circle class="pearl" r="2.1904339371426516" cx="4.761855175778319" cy="9.486654547485438"></circle><circle class="pearl" r="2.1904339371426516" cx="16.08487122897554" cy="5.864518553237602"></circle></g><g class="bobaCup bright" cupRadius="10.867603412636376" width="21.73520682527275" height="21.73520682527275" pearlRadius="2.7380424214283132" pearlCount="5" transform="translate(260.1346236899365,244.03704491972837)"><circle class="pool" r="10.867603412636376" cx="10.867603412636376" cy="10.867603412636376" style="stroke-width: 1; fill: rgb(127, 205, 187);"></circle><circle class="pearl" r="2.1904339371426507" cx="16.73605343119409" cy="8.137805227561968"></circle><circle class="pearl" r="2.1904339371426507" cx="8.043122834912573" cy="16.71102680970412"></circle><circle class="pearl" r="2.1904339371426507" cx="10.04386852302624" cy="4.681986633345729"></circle><circle class="pearl" r="2.1904339371426507" cx="15.831055679976824" cy="15.884814064899334"></circle><circle class="pearl" r="2.1904339371426507" cx="4.689104111406611" cy="9.955055696404779"></circle></g><g class="bobaCup bright" cupRadius="10.69665121355775" width="21.3933024271155" height="21.3933024271155" pearlRadius="2.7380424214283137" pearlCount="5" transform="translate(89.48619540866511,97.577561665541)"><circle class="pool" r="10.69665121355775" cx="10.69665121355775" cy="10.69665121355775" style="stroke-width: 1; fill: rgb(65, 182, 196);"></circle><circle class="pearl" r="2.190433937142651" cx="16.386107615840967" cy="7.958215093037075"></circle><circle class="pearl" r="2.190433937142651" cx="7.797045213734501" cy="16.342074459774963"></circle><circle class="pearl" r="2.190433937142651" cx="9.896164637707448" cy="4.680717588812987"></circle><circle class="pearl" r="2.190433937142651" cx="15.513241429115148" cy="15.59678165782153"></circle><circle class="pearl" r="2.190433937142651" cx="4.69413907512655" cy="9.733882601814413"></circle></g><g class="bobaCup bright" cupRadius="10.449998304384987" width="20.899996608769975" height="20.899996608769975" pearlRadius="2.738042421428314" pearlCount="5" transform="translate(29.74047665558724,115.9207188675101)"><circle class="pool" r="10.449998304384987" cx="10.449998304384987" cy="10.449998304384987" style="stroke-width: 1; fill: rgb(65, 182, 196);"></circle><circle class="pearl" r="2.1904339371426516" cx="15.884083401732187" cy="7.711548817697613"></circle><circle class="pearl" r="2.1904339371426516" cx="7.419934608849559" cy="15.800333947885765"></circle><circle class="pearl" r="2.1904339371426516" cx="9.711330597693747" cy="4.676862622708841"></circle><circle class="pearl" r="2.1904339371426516" cx="15.052529750259765" cy="15.181128243039606"></circle><circle class="pearl" r="2.1904339371426516" cx="4.70493544230496" cy="9.386938513463523"></circle></g><g class="bobaCup bright" cupRadius="10.381076946486594" width="20.76215389297319" height="20.76215389297319" pearlRadius="2.738042421428314" pearlCount="5" transform="translate(227.24956217912197,215.0971242049659)"><circle class="pool" r="10.381076946486594" cx="10.381076946486594" cy="10.381076946486594" style="stroke-width: 1; fill: rgb(127, 205, 187);"></circle><circle class="pearl" r="2.1904339371426516" cx="15.74505319865742" cy="7.647479887792113"></circle><circle class="pearl" r="2.1904339371426516" cx="7.307432196160855" cy="15.645971021829094"></circle><circle class="pearl" r="2.1904339371426516" cx="9.669296949048409" cy="4.675153623006077"></circle><circle class="pearl" r="2.1904339371426516" cx="14.92297636758806" cy="15.065122500133608"></circle><circle class="pearl" r="2.1904339371426516" cx="4.709218801197004" cy="9.280589623115675"></circle></g><g class="bobaCup bright" cupRadius="10.250660568217825" width="20.50132113643565" height="20.50132113643565" pearlRadius="2.7380424214283137" pearlCount="5" transform="translate(213.38757265134427,245.95100068888758)"><circle class="pool" r="10.250660568217825" cx="10.250660568217825" cy="10.250660568217825" style="stroke-width: 1; fill: rgb(127, 205, 187);"></circle><circle class="pearl" r="2.190433937142651" cx="15.484896223909043" cy="7.537059650385665"></circle><circle class="pearl" r="2.190433937142651" cx="7.080907073987301" cy="15.348204102032202"></circle><circle class="pearl" r="2.190433937142651" cx="9.609101302699505" cy="4.670819599558955"></circle><circle class="pearl" r="2.190433937142651" cx="14.676050001765816" cy="14.846124145366034"></circle><circle class="pearl" r="2.190433937142651" cx="4.720039012563168" cy="9.060593145953407"></circle></g><g class="bobaCup bright" cupRadius="10.221257284611422" width="20.442514569222844" height="20.442514569222844" pearlRadius="2.7380424214283137" pearlCount="5" transform="translate(216.3618642105637,196.97595575206228)"><circle class="pool" r="10.221257284611422" cx="10.221257284611422" cy="10.221257284611422" style="stroke-width: 1; fill: rgb(65, 182, 196);"></circle><circle class="pearl" r="2.190433937142651" cx="15.427010186813888" cy="7.5149722364848754"></circle><circle class="pearl" r="2.190433937142651" cx="7.026547791137791" cy="15.279701462699446"></circle><circle class="pearl" r="2.190433937142651" cx="9.600325387991646" cy="4.6696011800082005"></circle><circle class="pearl" r="2.190433937142651" cx="14.619922618897572" cy="14.796900824989603"></circle><circle class="pearl" r="2.190433937142651" cx="4.723179856276007" cy="9.006372226428446"></circle></g><g class="bobaCup bright" cupRadius="10.218450658052824" width="20.436901316105647" height="20.436901316105647" pearlRadius="2.7380424214283137" pearlCount="5" transform="translate(235.21924366609474,248.7100368248268)"><circle class="pool" r="10.218450658052824" cx="10.218450658052824" cy="10.218450658052824" style="stroke-width: 1; fill: rgb(127, 205, 187);"></circle><circle class="pearl" r="2.190433937142651" cx="15.42150412267075" cy="7.5129343058891145"></circle><circle class="pearl" r="2.190433937142651" cx="7.021280547052021" cy="15.273129900908838"></circle><circle class="pearl" r="2.190433937142651" cx="9.599604530860127" cy="4.669479610719421"></circle><circle class="pearl" r="2.190433937142651" cx="14.614553767807525" cy="14.792206346985168"></circle><circle class="pearl" r="2.190433937142651" cx="4.723497273516335" cy="9.001084684607598"></circle></g><g class="bobaCup bright" cupRadius="10.155353337879816" width="20.310706675759633" height="20.310706675759633" pearlRadius="2.7380424214283146" pearlCount="5" transform="translate(179.0909424890276,64.83755503176313)"><circle class="pool" r="10.155353337879816" cx="10.155353337879816" cy="10.155353337879816" style="stroke-width: 1; fill: rgb(65, 182, 196);"></circle><circle class="pearl" r="2.1904339371426516" cx="15.298779623375811" cy="7.470984377903137"></circle><circle class="pearl" r="2.1904339371426516" cx="6.898689567877679" cy="15.12363954408642"></circle><circle class="pearl" r="2.1904339371426516" cx="9.589701989149264" cy="4.666488805162673"></circle><circle class="pearl" r="2.1904339371426516" cx="14.493235046316354" cy="14.686894737427355"></circle><circle class="pearl" r="2.1904339371426516" cx="4.7316060857405615" cy="8.87619504021581"></circle></g><g class="bobaCup bright" cupRadius="10.14567642976397" width="20.29135285952794" height="20.29135285952794" pearlRadius="2.7380424214283137" pearlCount="5" transform="translate(13.554148806448676,97.42912035145179)"><circle class="pool" r="10.14567642976397" cx="10.14567642976397" cy="10.14567642976397" style="stroke-width: 1; fill: rgb(65, 182, 196);"></circle><circle class="pearl" r="2.190433937142651" cx="15.2801651573925" cy="7.4653075764685255"></circle><circle class="pearl" r="2.190433937142651" cx="6.879091391287882" cy="15.10037731488367"></circle><circle class="pearl" r="2.190433937142651" cx="9.589400697269548" cy="4.665984685249995"></circle><circle class="pearl" r="2.190433937142651" cx="14.474508537430854" cy="14.670789010594689"></circle><circle class="pearl" r="2.190433937142651" cx="4.733041168735342" cy="8.855883373778028"></circle></g><g class="bobaCup bright" cupRadius="10.049225817273012" width="20.098451634546024" height="20.098451634546024" pearlRadius="2.7380424214283146" pearlCount="5" transform="translate(175.07723305322565,89.87359396950491)"><circle class="pool" r="10.049225817273012" cx="10.049225817273012" cy="10.049225817273012" style="stroke-width: 1; fill: rgb(65, 182, 196);"></circle><circle class="pearl" r="2.1904339371426516" cx="15.098857622470543" cy="7.424335010899091"></circle><circle class="pearl" r="2.1904339371426516" cx="6.668278977531426" cy="14.861913072950607"></circle><circle class="pearl" r="2.1904339371426516" cx="9.610747183096908" cy="4.660293871789688"></circle><circle class="pearl" r="2.1904339371426516" cx="14.285408315088485" cy="14.511224321079599"></circle><circle class="pearl" r="2.1904339371426516" cx="4.7513717029289895" cy="8.630512182115234"></circle></g><g class="bobaCup bright" cupRadius="10.000846246360366" width="20.001692492720732" height="20.001692492720732" pearlRadius="2.7380424214283137" pearlCount="5" transform="translate(9.999153753639634,77.4084510538786)"><circle class="pool" r="10.000846246360366" cx="10.000846246360366" cy="10.000846246360366" style="stroke-width: 1; fill: rgb(29, 145, 192);"></circle><circle class="pearl" r="2.190433937142651" cx="15.011917866748828" cy="7.418861362601564"></circle><circle class="pearl" r="2.190433937142651" cx="6.5484494373010245" cy="14.736170211157589"></circle><circle class="pearl" r="2.190433937142651" cx="9.644330995840003" cy="4.657079867178256"></circle><circle class="pearl" r="2.190433937142651" cx="14.188222460153415" cy="14.432127537029537"></circle><circle class="pearl" r="2.190433937142651" cx="4.764560318948721" cy="8.49619492699967"></circle></g><g class="bobaCup bright" cupRadius="9.70968296685275" width="19.4193659337055" height="19.4193659337055" pearlRadius="2.7380424214283137" pearlCount="4" transform="translate(227.21713885865455,65.25895795965702)"><circle class="pool" r="9.70968296685275" cx="9.70968296685275" cy="9.70968296685275" style="stroke-width: 1; fill: rgb(127, 205, 187);"></circle><circle class="pearl" r="2.190433937142651" cx="14.061047079312615" cy="6.070951481672686"></circle><circle class="pearl" r="2.190433937142651" cx="5.4405100760580325" cy="13.315050686295141"></circle><circle class="pearl" r="2.190433937142651" cx="6.098797110983265" cy="5.347113420157289"></circle><circle class="pearl" r="2.190433937142651" cx="13.402760044387398" cy="14.038888747810557"></circle></g><g class="bobaCup bright" cupRadius="9.688939639047975" width="19.37787927809595" height="19.37787927809595" pearlRadius="2.7380424214283137" pearlCount="4" transform="translate(253.33500092482035,86.45550326751524)"><circle class="pool" r="9.688939639047975" cx="9.688939639047975" cy="9.688939639047975" style="stroke-width: 1; fill: rgb(29, 145, 192);"></circle><circle class="pearl" r="2.190433937142651" cx="14.009549196574024" cy="6.029603719756917"></circle><circle class="pearl" r="2.190433937142651" cx="5.405979534032852" cy="13.332888542056402"></circle><circle class="pearl" r="2.190433937142651" cx="6.042289504341136" cy="5.363166105287014"></circle><circle class="pearl" r="2.190433937142651" cx="13.37323922626575" cy="13.999326156526319"></circle></g><g class="bobaCup bright" cupRadius="9.18453283705706" width="18.36906567411412" height="18.36906567411412" pearlRadius="2.7380424214283137" pearlCount="4" transform="translate(195.29688296219152,15.887102938185027)"><circle class="pool" r="9.18453283705706" cx="9.18453283705706" cy="9.18453283705706" style="stroke-width: 1; fill: rgb(29, 145, 192);"></circle><circle class="pearl" r="2.190433937142651" cx="12.86452922561421" cy="5.420193973451656"></circle><circle class="pearl" r="2.190433937142651" cx="5.503318944949227" cy="12.948339168451387"></circle><circle class="pearl" r="2.190433937142651" cx="5.5050633178313255" cy="5.419963587522101"></circle><circle class="pearl" r="2.190433937142651" cx="12.862783222163994" cy="12.949635030834045"></circle></g><g class="bobaCup bright" cupRadius="8.969992589544205" width="17.93998517908841" height="17.93998517908841" pearlRadius="2.738042421428314" pearlCount="4" transform="translate(100.43505776029788,74.45929359068711)"><circle class="pool" r="8.969992589544205" cx="8.969992589544205" cy="8.969992589544205" style="stroke-width: 1; fill: rgb(29, 145, 192);"></circle><circle class="pearl" r="2.1904339371426516" cx="12.452519894936525" cy="5.3543520090590455"></circle><circle class="pearl" r="2.1904339371426516" cx="5.484074170029016" cy="12.584203712131796"></circle><circle class="pearl" r="2.1904339371426516" cx="5.488949568127216" cy="5.353726853593683"></circle><circle class="pearl" r="2.1904339371426516" cx="12.447631614062644" cy="12.587690847062493"></circle></g><g class="bobaCup bright" cupRadius="8.521486991575621" width="17.042973983151242" height="17.042973983151242" pearlRadius="2.7380424214283137" pearlCount="3" transform="translate(161.95428919622864,59.207232222882645)"><circle class="pool" r="8.521486991575621" cx="8.521486991575621" cy="8.521486991575621" style="stroke-width: 1; fill: rgb(65, 182, 196);"></circle><circle class="pearl" r="2.190433937142651" cx="12.720165203843532" cy="10.0653475530037"></circle><circle class="pearl" r="2.190433937142651" cx="4.749524287798133" cy="11.529959104972807"></circle><circle class="pearl" r="2.190433937142651" cx="7.919470856957051" cy="3.6720150976067867"></circle></g><g class="bobaCup bright" cupRadius="8.363502914354116" width="16.727005828708233" height="16.727005828708233" pearlRadius="2.7380424214283146" pearlCount="3" transform="translate(194.4539479205358,29.48686914396923)"><circle class="pool" r="8.363502914354116" cx="8.363502914354116" cy="8.363502914354116" style="stroke-width: 1; fill: rgb(65, 182, 196);"></circle><circle class="pearl" r="2.1904339371426516" cx="12.620557872969115" cy="9.967802352097777"></circle><circle class="pearl" r="2.1904339371426516" cx="4.614854971645265" cy="11.3289564675174"></circle><circle class="pearl" r="2.1904339371426516" cx="7.684583890472774" cy="3.6783248744706745"></circle></g><g class="bobaCup bright" cupRadius="8.229007797324723" width="16.458015594649446" height="16.458015594649446" pearlRadius="2.738042421428314" pearlCount="3" transform="translate(199.09164879274348,51.808381403693744)"><circle class="pool" r="8.229007797324723" cx="8.229007797324723" cy="8.229007797324723" style="stroke-width: 1; fill: rgb(65, 182, 196);"></circle><circle class="pearl" r="2.1904339371426516" cx="12.53618756309548" cy="9.881547427344664"></circle><circle class="pearl" r="2.1904339371426516" cx="4.499685456769043" cy="11.157972050705059"></circle><circle class="pearl" r="2.1904339371426516" cx="7.484715013947631" cy="3.6844520446137268"></circle></g><g class="bobaCup bright" cupRadius="8.13743500954351" width="16.27487001908702" height="16.27487001908702" pearlRadius="2.7380424214283146" pearlCount="3" transform="translate(267.9152631389161,207.95414858783502)"><circle class="pool" r="8.13743500954351" cx="8.13743500954351" cy="8.13743500954351" style="stroke-width: 1; fill: rgb(127, 205, 187);"></circle><circle class="pearl" r="2.1904339371426516" cx="12.440945597417834" cy="9.854412856768326"></circle><circle class="pearl" r="2.1904339371426516" cx="4.391679909380178" cy="11.116004388005589"></circle><circle class="pearl" r="2.1904339371426516" cx="7.351087149234826" cy="3.6888060679017007"></circle></g><g class="bobaCup bright" cupRadius="7.824607416610661" width="15.649214833221322" height="15.649214833221322" pearlRadius="2.738042421428314" pearlCount="3" transform="translate(134.1712768042313,250.76812370522953)"><circle class="pool" r="7.824607416610661" cx="7.824607416610661" cy="7.824607416610661" style="stroke-width: 1; fill: rgb(65, 182, 196);"></circle><circle class="pearl" r="2.1904339371426516" cx="11.885215944846175" cy="9.151198446485584"></circle><circle class="pearl" r="2.1904339371426516" cx="4.479486214707629" cy="11.247401373192757"></circle><circle class="pearl" r="2.1904339371426516" cx="6.130998035745896" cy="3.836209721336816"></circle></g><g class="bobaCup bright" cupRadius="7.764739098126964" width="15.529478196253928" height="15.529478196253928" pearlRadius="2.738042421428314" pearlCount="3" transform="translate(57.103188811062495,100.90747239963191)"><circle class="pool" r="7.764739098126964" cx="7.764739098126964" cy="7.764739098126964" style="stroke-width: 1; fill: rgb(127, 205, 187);"></circle><circle class="pearl" r="2.1904339371426516" cx="11.782744196827363" cy="8.982022592012195"></circle><circle class="pearl" r="2.1904339371426516" cx="4.488433327778164" cy="11.153688714309439"></circle><circle class="pearl" r="2.1904339371426516" cx="5.920791946980565" cy="3.872847914853797"></circle></g><g class="bobaCup bright" cupRadius="7.691675500775492" width="15.383351001550984" height="15.383351001550984" pearlRadius="2.738042421428314" pearlCount="2" transform="translate(274.2285445733621,226.53271560353633)"><circle class="pool" r="7.691675500775492" cx="7.691675500775492" cy="7.691675500775492" style="stroke-width: 1; fill: rgb(65, 182, 196);"></circle><circle class="pearl" r="2.1904339371426516" cx="11.305483942209483" cy="6.971226079482046"></circle><circle class="pearl" r="2.1904339371426516" cx="4.393660203130015" cy="10.98969079842097"></circle></g><g class="bobaCup bright" cupRadius="6.792174142435577" width="13.584348284871155" height="13.584348284871155" pearlRadius="2.7380424214283137" pearlCount="2" transform="translate(247.37034418612646,285.40638231975987)"><circle class="pool" r="6.792174142435577" cx="6.792174142435577" cy="6.792174142435577" style="stroke-width: 1; fill: rgb(127, 205, 187);"></circle><circle class="pearl" r="2.190433937142651" cx="9.356330126719907" cy="4.153323961829429"></circle><circle class="pearl" r="2.190433937142651" cx="4.228018158151246" cy="9.431024323041726"></circle></g><g class="bobaCup bright" cupRadius="6.0666265049222865" width="12.133253009844573" height="12.133253009844573" pearlRadius="2.7380424214283137" pearlCount="1" transform="translate(263.18908815326677,187.4746317714582)"><circle class="pool" r="6.0666265049222865" cx="6.0666265049222865" cy="6.0666265049222865" style="stroke-width: 1; fill: rgb(29, 145, 192);"></circle><circle class="pearl" r="2.190433937142651" cx="8.206321393275193" cy="6.0666265049222865"></circle></g><g class="bobaCup bright" cupRadius="5.874304494485493" width="11.748608988970986" height="11.748608988970986" pearlRadius="2.7380424214283137" pearlCount="1" transform="translate(200.53536326135813,53.72858902520877)"><circle class="pool" r="5.874304494485493" cx="5.874304494485493" cy="5.874304494485493" style="stroke-width: 1; fill: rgb(29, 145, 192);"></circle><circle class="pearl" r="2.190433937142651" cx="7.890370112155412" cy="5.874304494485493"></circle></g><g class="bobaCup bright" cupRadius="0" width="0" height="0" pearlRadius="NaN" pearlCount="0" transform="translate(229.04695887660125,247.17906300656733)"><circle class="pool" r="0" cx="0" cy="0" style="stroke-width: 1; fill: rgb(29, 145, 192);"></circle></g></g><g id="legendDividerGroup" transform="translate(410,0)" height="400"><rect class="legendDivider" height="400" width="90"></rect></g><g id="legend" transform="translate(410,11.298117216744714)" width="90" height="320"><rect class="legendBorder" transform="translate(0,0)" width="90" height="357.4037655665106"></rect><text id="rTitle" text-anchor="middle" alignment-baseline="hanging" transform="translate(45,0)" x="0" y="0" style="fill: black; font-size: 0.8rem;">Population</text><text id="bobaValue" text-anchor="middle" alignment-baseline="hanging" transform="translate(45,15)" x="0" y="0" style="fill: black; font-size: 0.7rem;">(1 Pearl =   75)</text><g class="bright" cupRadius="5.874304494485493" width="11.748608988970986" height="11.748608988970986" pearlRadius="2.7380424214283137" pearlCount="1" transform="translate(39.12569550551451,40)"><circle class="pool" r="5.874304494485493" cx="5.874304494485493" cy="5.874304494485493" style="stroke-width: 1; fill: rgb(65, 182, 196);"></circle><circle class="pearl" r="2.190433937142651" cx="7.890370112155412" cy="5.874304494485493"></circle></g><text id="0" class="legendSampleValue" text-anchor="middle" transform="translate(45,8)" x="0" y="56.748608988970986" style="fill: black; font-size: 0.7rem;"> 130</text><g class="bright" cupRadius="10.373329390082338" width="20.746658780164676" height="20.746658780164676" pearlRadius="2.7380424214283146" pearlCount="5" transform="translate(34.62667060991766,76.74860898897099)"><circle class="pool" r="10.373329390082338" cx="10.373329390082338" cy="10.373329390082338" style="stroke-width: 1; fill: rgb(65, 182, 196);"></circle><circle class="pearl" r="2.1904339371426516" cx="15.729478427977835" cy="7.640479215307297"></circle><circle class="pearl" r="2.1904339371426516" cx="7.2945190233024375" cy="15.62850790544929"></circle><circle class="pearl" r="2.1904339371426516" cx="9.66494345973032" cy="4.674939032996664"></circle><circle class="pearl" r="2.1904339371426516" cx="14.908379670208635" cy="15.05209069131634"></circle><circle class="pearl" r="2.1904339371426516" cx="4.709751216958245" cy="9.268273178781358"></circle></g><text id="1" class="legendSampleValue" text-anchor="middle" transform="translate(45,8)" x="0" y="102.49526776913567" style="fill: black; font-size: 0.7rem;"> 400</text><g class="bright" cupRadius="13.442636347694581" width="26.885272695389162" height="26.885272695389162" pearlRadius="2.738042421428314" pearlCount="9" transform="translate(31.55736365230542,122.49526776913567)"><circle class="pool" r="13.442636347694581" cx="13.442636347694581" cy="13.442636347694581" style="stroke-width: 1; fill: rgb(65, 182, 196);"></circle><circle class="pearl" r="2.1904339371426516" cx="14.955723919851897" cy="11.985751254370193"></circle><circle class="pearl" r="2.1904339371426516" cx="9.509025663866366" cy="17.355898415381514"></circle><circle class="pearl" r="2.1904339371426516" cx="13.49488288639265" cy="4.6508247604076995"></circle><circle class="pearl" r="2.1904339371426516" cx="20.17747032463569" cy="20.425763869386675"></circle><circle class="pearl" r="2.1904339371426516" cx="4.6507416749634345" cy="13.420366728292203"></circle><circle class="pearl" r="2.1904339371426516" cx="20.121690160383853" cy="6.427395743664418"></circle><circle class="pearl" r="2.1904339371426516" cx="13.397609765584924" cy="22.23447405754825"></circle><circle class="pearl" r="2.1904339371426516" cx="6.779603632870357" cy="6.418237863086755"></circle><circle class="pearl" r="2.1904339371426516" cx="22.23160157865186" cy="13.724143163206508"></circle></g><text id="2" class="legendSampleValue" text-anchor="middle" transform="translate(45,8)" x="0" y="154.3805404645248" style="fill: black; font-size: 0.7rem;"> 680</text><g class="bright" cupRadius="15.93119522564371" width="31.86239045128742" height="31.86239045128742" pearlRadius="2.7380424214283137" pearlCount="12" transform="translate(29.068804774356288,174.3805404645248)"><circle class="pool" r="15.93119522564371" cx="15.93119522564371" cy="15.93119522564371" style="stroke-width: 1; fill: rgb(65, 182, 196);"></circle><circle class="pearl" r="2.190433937142651" cx="17.056250098460133" cy="11.712582003275745"></circle><circle class="pearl" r="2.190433937142651" cx="11.515853249711373" cy="17.603293076113594"></circle><circle class="pearl" r="2.190433937142651" cx="14.639609691434115" cy="4.70316572846856"></circle><circle class="pearl" r="2.190433937142651" cx="18.843474789893353" cy="19.053538599699664"></circle><circle class="pearl" r="2.190433937142651" cx="4.708211393210599" cy="14.579009787547847"></circle><circle class="pearl" r="2.190433937142651" cx="26.877013407697984" cy="12.682983818696595"></circle><circle class="pearl" r="2.190433937142651" cx="14.080162982814588" cy="27.103766880047534"></circle><circle class="pearl" r="2.190433937142651" cx="7.281097624650933" cy="7.203622867299698"></circle><circle class="pearl" r="2.190433937142651" cx="26.53992089844912" cy="20.50855260123201"></circle><circle class="pearl" r="2.190433937142651" cx="6.831508455445157" cy="23.97664152670799"></circle><circle class="pearl" r="2.190433937142651" cx="22.650078975766682" cy="6.136864543969031"></circle><circle class="pearl" r="2.190433937142651" cx="21.92733441504018" cy="26.040190698286306"></circle></g><text id="3" class="legendSampleValue" text-anchor="middle" transform="translate(45,8)" x="0" y="211.24293091581222" style="fill: black; font-size: 0.7rem;"> 950</text><g class="bright" cupRadius="18.080417325349174" width="36.16083465069835" height="36.16083465069835" pearlRadius="2.7380424214283137" pearlCount="16" transform="translate(26.919582674650826,231.24293091581222)"><circle class="pool" r="18.080417325349174" cx="18.080417325349174" cy="18.080417325349174" style="stroke-width: 1; fill: rgb(65, 182, 196);"></circle><circle class="pearl" r="2.190433937142651" cx="18.799842508184906" cy="18.858747070057316"></circle><circle class="pearl" r="2.190433937142651" cx="13.610255521973782" cy="23.72796493550458"></circle><circle class="pearl" r="2.190433937142651" cx="16.608714367847035" cy="11.358529710931274"></circle><circle class="pearl" r="2.190433937142651" cx="20.791198937817803" cy="26.38711139578337"></circle><circle class="pearl" r="2.190433937142651" cx="11.133593202998496" cy="16.774990039142235"></circle><circle class="pearl" r="2.190433937142651" cx="23.602629363709006" cy="13.594371278516286"></circle><circle class="pearl" r="2.190433937142651" cx="15.043361286297085" cy="31.25321174269871"></circle><circle class="pearl" r="2.190433937142651" cx="11.464803957340292" cy="5.904520262732586"></circle><circle class="pearl" r="2.190433937142651" cx="26.42342754300221" cy="20.890502381270945"></circle><circle class="pearl" r="2.190433937142651" cx="5.016832465793367" cy="21.70046975835464"></circle><circle class="pearl" r="2.190433937142651" cx="27.97573959465203" cy="7.598920365017854"></circle><circle class="pearl" r="2.190433937142651" cx="28.22440251132043" cy="28.39635889577664"></circle><circle class="pearl" r="2.190433937142651" cx="6.141881450710091" cy="10.890287071637132"></circle><circle class="pearl" r="2.190433937142651" cx="31.246991838771464" cy="15.007081705547032"></circle><circle class="pearl" r="2.190433937142651" cx="8.207259952446208" cy="28.576385291513606"></circle><circle class="pearl" r="2.190433937142651" cx="20.881188672411774" cy="4.868969058823147"></circle></g><text id="4" class="legendSampleValue" text-anchor="middle" transform="translate(45,8)" x="0" y="272.4037655665106" style="fill: black; font-size: 0.7rem;">1.2k</text><g class="bright" cupRadius="20" width="40" height="40" pearlRadius="2.7380424214283137" pearlCount="20" transform="translate(25,292.4037655665106)"><circle class="pool" r="20" cx="20" cy="20" style="stroke-width: 1; fill: rgb(65, 182, 196);"></circle><circle class="pearl" r="2.190433937142651" cx="20.803317911356498" cy="19.852362298934615"></circle><circle class="pearl" r="2.190433937142651" cx="12.399118369231148" cy="22.318129073543428"></circle><circle class="pearl" r="2.190433937142651" cx="20.14107886386132" cy="11.690576671380018"></circle><circle class="pearl" r="2.190433937142651" cx="25.351645945468196" cy="26.426489948513225"></circle><circle class="pearl" r="2.190433937142651" cx="5.45555413244983" cy="14.383463400696877"></circle><circle class="pearl" r="2.190433937142651" cx="27.007002384921414" cy="14.812215198670392"></circle><circle class="pearl" r="2.190433937142651" cx="17.669394065840073" cy="27.98572181627974"></circle><circle class="pearl" r="2.190433937142651" cx="13.075316060454844" cy="14.529673081448232"></circle><circle class="pearl" r="2.190433937142651" cx="31.363412690087696" cy="21.539471699750266"></circle><circle class="pearl" r="2.190433937142651" cx="6.986823167406808" cy="29.380119115938808"></circle><circle class="pearl" r="2.190433937142651" cx="24.195863946736896" cy="5.095807587217031"></circle><circle class="pearl" r="2.190433937142651" cx="27.929986347293504" cy="33.70997709935047"></circle><circle class="pearl" r="2.190433937142651" cx="8.960309851298339" cy="7.973635910317352"></circle><circle class="pearl" r="2.190433937142651" cx="34.68553340637696" cy="14.890285786129768"></circle><circle class="pearl" r="2.190433937142651" cx="12.548559824642552" cy="33.90934248556552"></circle><circle class="pearl" r="2.190433937142651" cx="16.437930987710008" cy="4.970487855189916"></circle><circle class="pearl" r="2.190433937142651" cx="33.26719371328966" cy="28.885282914155283"></circle><circle class="pearl" r="2.190433937142651" cx="4.745924110358729" cy="21.949095191008542"></circle><circle class="pearl" r="2.190433937142651" cx="31.34694409707199" cy="8.181149473979769"></circle><circle class="pearl" r="2.190433937142651" cx="20.521343379892976" cy="35.34248064375117"></circle></g><text id="5" class="legendSampleValue" text-anchor="middle" transform="translate(45,8)" x="0" y="337.4037655665106" style="fill: black; font-size: 0.7rem;">1.5k</text><text id="coloringDisclaimer" transform="translate(45,8)" text-anchor="middle" x="0" y="352.4037655665106" style="font-size: 0.7rem; opacity: 0.6;">(note: coloring</text><text id="coloringDisclaimer" transform="translate(45,8)" text-anchor="middle" x="0" y="367.4037655665106" style="font-size: 0.7rem; opacity: 0.6;">is random)</text></g></svg>