<?xml version="1.0" standalone="no"?>
<?xml-stylesheet xmlns="http://www.w3.org/2000/svg" type="text/css" href="style.css"?>
<svg id="syntheticVisB" class="default" xTitle="Percent Cat Owners" yTitle="Percent Dog Owners" rTitle="Population" chartTitle="Towns in Vizzyland" width="500" height="400" xmlns="http://www.w3.org/2000/svg"><text id="chartTitle" text-anchor="middle" transform="translate(250,20)" x="0" y="0" style="fill: black; font-size: 1.2rem;">Towns in Vizzyland</text><g id="yAxis" transform="translate(50,30)" fill="none" font-size="10" font-family="sans-serif" text-anchor="end"><path class="domain" stroke="currentColor" d="M-6,300H0V20H-6"></path><g class="tick" opacity="1" transform="translate(0,300)"><line stroke="currentColor" x2="-6"></line><text fill="currentColor" x="-9" dy="0.32em">0</text></g><g class="tick" opacity="1" transform="translate(0,272)"><line stroke="currentColor" x2="-6"></line><text fill="currentColor" x="-9" dy="0.32em">10</text></g><g class="tick" opacity="1" transform="translate(0,244)"><line stroke="currentColor" x2="-6"></line><text fill="currentColor" x="-9" dy="0.32em">20</text></g><g class="tick" opacity="1" transform="translate(0,216)"><line stroke="currentColor" x2="-6"></line><text fill="currentColor" x="-9" dy="0.32em">30</text></g><g class="tick" opacity="1" transform="translate(0,188)"><line stroke="currentColor" x2="-6"></line><text fill="currentColor" x="-9" dy="0.32em">40</text></g><g class="tick" opacity="1" transform="translate(0,160)"><line stroke="currentColor" x2="-6"></line><text fill="currentColor" x="-9" dy="0.32em">50</text></g><g class="tick" opacity="1" transform="translate(0,132)"><line stroke="currentColor" x2="-6"></line><text fill="currentColor" x="-9" dy="0.32em">60</text></g><g class="tick" opacity="1" transform="translate(0,104.00000000000001)"><line stroke="currentColor" x2="-6"></line><text fill="currentColor" x="-9" dy="0.32em">70</text></g><g class="tick" opacity="1" transform="translate(0,75.99999999999999)"><line stroke="currentColor" x2="-6"></line><text fill="currentColor" x="-9" dy="0.32em">80</text></g><g class="tick" opacity="1" transform="translate(0,47.99999999999999)"><line stroke="currentColor" x2="-6"></line><text fill="currentColor" x="-9" dy="0.32em">90</text></g><g class="tick" opacity="1" transform="translate(0,20)"><line stroke="currentColor" x2="-6"></line><text fill="currentColor" x="-9" dy="0.32em">100</text></g></g><g id="xAxis" transform="translate(60,360)" fill="none" font-size="10" font-family="sans-serif" text-anchor="middle"><path class="domain" stroke="currentColor" d="M20,6V0H320V6"></path><g class="tick" opacity="1" transform="translate(20,0)"><line stroke="currentColor" y2="6"></line><text fill="currentColor" y="9" dy="0.71em">0</text></g><g class="tick" opacity="1" transform="translate(50,0)"><line stroke="currentColor" y2="6"></line><text fill="currentColor" y="9" dy="0.71em">10</text></g><g class="tick" opacity="1" transform="translate(80,0)"><line stroke="currentColor" y2="6"></line><text fill="currentColor" y="9" dy="0.71em">20</text></g><g class="tick" opacity="1" transform="translate(110,0)"><line stroke="currentColor" y2="6"></line><text fill="currentColor" y="9" dy="0.71em">30</text></g><g class="tick" opacity="1" transform="translate(140,0)"><line stroke="currentColor" y2="6"></line><text fill="currentColor" y="9" dy="0.71em">40</text></g><g class="tick" opacity="1" transform="translate(170,0)"><line stroke="currentColor" y2="6"></line><text fill="currentColor" y="9" dy="0.71em">50</text></g><g class="tick" opacity="1" transform="translate(200,0)"><line stroke="currentColor" y2="6"></line><text fill="currentColor" y="9" dy="0.71em">60</text></g><g class="tick" opacity="1" transform="translate(230,0)"><line stroke="currentColor" y2="6"></line><text fill="currentColor" y="9" dy="0.71em">70</text></g><g class="tick" opacity="1" transform="translate(260,0)"><line stroke="currentColor" y2="6"></line><text fill="currentColor" y="9" dy="0.71em">80</text></g><g class="tick" opacity="1" transform="translate(290,0)"><line stroke="currentColor" y2="6"></line><text fill="currentColor" y="9" dy="0.71em">90</text></g><g class="tick" opacity="1" transform="translate(320,0)"><line stroke="currentColor" y2="6"></line><text fill="currentColor" y="9" dy="0.71em">100</text></g></g><g id="labels"><text id="xTitle" text-anchor="middle" transform="translate(250,350)" x="0" y="40" style="fill: black; font-size: 0.8rem;">Percent Cat Owners</text><g id="group-yTitle" transform="translate(60,190)"><text id="yTitle" text-anchor="middle" transform="rotate(-90)" y="-45" style="fill: black; font-size: 0.8rem;">Percent Dog Owners</text></g></g><g id="quadrant_lines" transform="translate(60,30)"><line id="verticalQuadrantLine" x1="170" y1="10" x2="170" y2="310" class="quadrantLine"></line><line id="horizontalQuadrantLine" x1="10" y1="160" x2="330" y2="160" class="quadrantLine"></line></g><g id="chart" transform="translate(60,30)"><g class="bobaCup bright" cupRadius="20" width="40" height="40" pearlRadius="2.7380424214283137" pearlCount="20" transform="translate(188.51545044361322,126.16481290621664)"><circle class="pool" r="20" cx="20" cy="20" style="stroke-width: 1; fill: rgb(65, 182, 196);"></circle><circle class="pearl" r="2.190433937142651" cx="20.803317911356498" cy="19.852362298934615"></circle><circle class="pearl" r="2.190433937142651" cx="12.399118369231148" cy="22.318129073543428"></circle><circle class="pearl" r="2.190433937142651" cx="20.14107886386132" cy="11.690576671380018"></circle><circle class="pearl" r="2.190433937142651" cx="25.351645945468196" cy="26.426489948513225"></circle><circle class="pearl" r="2.190433937142651" cx="5.45555413244983" cy="14.383463400696877"></circle><circle class="pearl" r="2.190433937142651" cx="27.007002384921414" cy="14.812215198670392"></circle><circle class="pearl" r="2.190433937142651" cx="17.669394065840073" cy="27.98572181627974"></circle><circle class="pearl" r="2.190433937142651" cx="13.075316060454844" cy="14.529673081448232"></circle><circle class="pearl" r="2.190433937142651" cx="31.363412690087696" cy="21.539471699750266"></circle><circle class="pearl" r="2.190433937142651" cx="6.986823167406808" cy="29.380119115938808"></circle><circle class="pearl" r="2.190433937142651" cx="24.195863946736896" cy="5.095807587217031"></circle><circle class="pearl" r="2.190433937142651" cx="27.929986347293504" cy="33.70997709935047"></circle><circle class="pearl" r="2.190433937142651" cx="8.960309851298339" cy="7.973635910317352"></circle><circle class="pearl" r="2.190433937142651" cx="34.68553340637696" cy="14.890285786129768"></circle><circle class="pearl" r="2.190433937142651" cx="12.548559824642552" cy="33.90934248556552"></circle><circle class="pearl" r="2.190433937142651" cx="16.437930987710008" cy="4.970487855189916"></circle><circle class="pearl" r="2.190433937142651" cx="33.26719371328966" cy="28.885282914155283"></circle><circle class="pearl" r="2.190433937142651" cx="4.745924110358729" cy="21.949095191008542"></circle><circle class="pearl" r="2.190433937142651" cx="31.34694409707199" cy="8.181149473979769"></circle><circle class="pearl" r="2.190433937142651" cx="20.521343379892976" cy="35.34248064375117"></circle></g><g class="bobaCup bright" cupRadius="18.328659287601322" width="36.657318575202645" height="36.657318575202645" pearlRadius="2.738042421428314" pearlCount="16" transform="translate(195.52844650443527,177.0622154110598)"><circle class="pool" r="18.328659287601322" cx="18.328659287601322" cy="18.328659287601322" style="stroke-width: 1; fill: rgb(127, 205, 187);"></circle><circle class="pearl" r="2.1904339371426516" cx="19.081159562189747" cy="19.131936731712106"></circle><circle class="pearl" r="2.1904339371426516" cx="13.76342224730677" cy="24.049696777162257"></circle><circle class="pearl" r="2.1904339371426516" cx="16.92955612947823" cy="11.545080934356312"></circle><circle class="pearl" r="2.1904339371426516" cx="21.083260492302617" cy="26.78255058444891"></circle><circle class="pearl" r="2.1904339371426516" cx="11.203146687140608" cy="16.93662186831979"></circle><circle class="pearl" r="2.1904339371426516" cx="24.09667575642253" cy="13.838674798969326"></circle><circle class="pearl" r="2.1904339371426516" cx="15.157690355095925" cy="31.730213126205435"></circle><circle class="pearl" r="2.1904339371426516" cx="11.819252262140834" cy="5.845574665672277"></circle><circle class="pearl" r="2.1904339371426516" cx="26.715082189416584" cy="21.22511576334414"></circle><circle class="pearl" r="2.1904339371426516" cx="5.004375929402059" cy="21.911798900641383"></circle><circle class="pearl" r="2.1904339371426516" cx="28.458266295716594" cy="7.704212692497247"></circle><circle class="pearl" r="2.1904339371426516" cx="28.686017691889486" cy="28.799605218421856"></circle><circle class="pearl" r="2.1904339371426516" cx="6.221563359067268" cy="10.904694822523766"></circle><circle class="pearl" r="2.1904339371426516" cx="31.77409653632744" cy="15.418551512813462"></circle><circle class="pearl" r="2.1904339371426516" cx="8.18333198446777" cy="28.942669440038475"></circle><circle class="pearl" r="2.1904339371426516" cx="21.22675580672478" cy="4.8812945550971065"></circle></g><g class="bobaCup bright" cupRadius="17.514548470654034" width="35.02909694130807" height="35.02909694130807" pearlRadius="2.7380424214283137" pearlCount="15" transform="translate(233.3828017465613,140.21420563898303)"><circle class="pool" r="17.514548470654034" cx="17.514548470654034" cy="17.514548470654034" style="stroke-width: 1; fill: rgb(127, 205, 187);"></circle><circle class="pearl" r="2.190433937142651" cx="23.34588407537909" cy="17.446938976013875"></circle><circle class="pearl" r="2.190433937142651" cx="12.803816064205085" cy="21.92237054498648"></circle><circle class="pearl" r="2.190433937142651" cx="17.865313580347546" cy="11.785162110948935"></circle><circle class="pearl" r="2.190433937142651" cx="20.018577595061252" cy="24.365652419596753"></circle><circle class="pearl" r="2.190433937142651" cx="10.510437836957697" cy="14.707805278363887"></circle><circle class="pearl" r="2.190433937142651" cx="25.471620098467422" cy="9.94931441515828"></circle><circle class="pearl" r="2.190433937142651" cx="14.920066604938828" cy="30.18514366705755"></circle><circle class="pearl" r="2.190433937142651" cx="13.831075856477785" cy="5.042437890783738"></circle><circle class="pearl" r="2.190433937142651" cx="29.843282234464244" cy="21.810761730579987"></circle><circle class="pearl" r="2.190433937142651" cx="4.847862662105104" cy="20.134997358147093"></circle><circle class="pearl" r="2.190433937142651" cx="21.406168466113034" cy="5.088541861758191"></circle><circle class="pearl" r="2.190433937142651" cx="26.78346575698495" cy="27.724733036361382"></circle><circle class="pearl" r="2.190433937142651" cx="7.722693959797105" cy="7.64359847025111"></circle><circle class="pearl" r="2.190433937142651" cx="30.074278700845266" cy="14.26497928772132"></circle><circle class="pearl" r="2.190433937142651" cx="7.807454855061671" cy="27.442293668807874"></circle></g><g class="bobaCup bright" cupRadius="17.435845778336542" width="34.871691556673085" height="34.871691556673085" pearlRadius="2.7380424214283132" pearlCount="15" transform="translate(140.73200310852462,282.56415422166344)"><circle class="pool" r="17.435845778336542" cx="17.435845778336542" cy="17.435845778336542" style="stroke-width: 1; fill: rgb(127, 205, 187);"></circle><circle class="pearl" r="2.1904339371426507" cx="23.253509894996316" cy="17.376510894276898"></circle><circle class="pearl" r="2.1904339371426507" cx="12.726363938687854" cy="21.811025638181363"></circle><circle class="pearl" r="2.1904339371426507" cx="17.829509419841443" cy="11.759461819734007"></circle><circle class="pearl" r="2.1904339371426507" cx="19.91946850427096" cy="24.226307133407"></circle><circle class="pearl" r="2.1904339371426507" cx="10.472624834421516" cy="14.626634890925788"></circle><circle class="pearl" r="2.1904339371426507" cx="25.41215118744012" cy="9.895461879613611"></circle><circle class="pearl" r="2.1904339371426507" cx="14.870458189145522" cy="30.031209193498892"></circle><circle class="pearl" r="2.1904339371426507" cx="13.797149021305994" cy="5.034630585827414"></circle><circle class="pearl" r="2.1904339371426507" cx="29.679272296769806" cy="21.748202712975548"></circle><circle class="pearl" r="2.1904339371426507" cx="4.846011792094614" cy="20.03813418062695"></circle><circle class="pearl" r="2.1904339371426507" cx="21.35660846358342" cy="5.0972683158282015"></circle><circle class="pearl" r="2.1904339371426507" cx="26.62062010346199" cy="27.60567040072065"></circle><circle class="pearl" r="2.1904339371426507" cx="7.72407810632452" cy="7.6058823280654115"></circle><circle class="pearl" r="2.1904339371426507" cx="29.922683750869925" cy="14.224504300957504"></circle><circle class="pearl" r="2.1904339371426507" cx="7.8045692114694" cy="27.319469101931194"></circle></g><g class="bobaCup bright" cupRadius="17.40243179394777" width="34.80486358789554" height="34.80486358789554" pearlRadius="2.738042421428314" pearlCount="15" transform="translate(211.60373855204284,132.46026516058686)"><circle class="pool" r="17.40243179394777" cx="17.40243179394777" cy="17.40243179394777" style="stroke-width: 1; fill: rgb(127, 205, 187);"></circle><circle class="pearl" r="2.1904339371426516" cx="23.214468573716722" cy="17.34668307283004"></circle><circle class="pearl" r="2.1904339371426516" cx="12.692939242797692" cy="21.76347276257155"></circle><circle class="pearl" r="2.1904339371426516" cx="17.814445921122935" cy="11.748671579331498"></circle><circle class="pearl" r="2.1904339371426516" cx="19.877151369590077" cy="24.16677697408667"></circle><circle class="pearl" r="2.1904339371426516" cx="10.456333992954427" cy="14.59196763280442"></circle><circle class="pearl" r="2.1904339371426516" cx="25.38729952151908" cy="9.872912367757376"></circle><circle class="pearl" r="2.1904339371426516" cx="14.849468043402029" cy="29.965859965646278"></circle><circle class="pearl" r="2.1904339371426516" cx="13.783146529467631" cy="5.031245419970698"></circle><circle class="pearl" r="2.1904339371426516" cx="29.60955100985262" cy="21.721897091901898"></circle><circle class="pearl" r="2.1904339371426516" cx="4.8452292736292115" cy="19.997026899875664"></circle><circle class="pearl" r="2.1904339371426516" cx="21.33601962486244" cy="5.101119182553077"></circle><circle class="pearl" r="2.1904339371426516" cx="26.55147935590273" cy="27.555071732309063"></circle><circle class="pearl" r="2.1904339371426516" cx="7.7248657800682174" cy="7.589775459290639"></circle><circle class="pearl" r="2.1904339371426516" cx="29.85839187073336" cy="14.207745794786755"></circle><circle class="pearl" r="2.1904339371426516" cx="7.803366498194727" cy="27.267306306802073"></circle></g><g class="bobaCup bright" cupRadius="17.338107043690194" width="34.67621408738039" height="34.67621408738039" pearlRadius="2.7380424214283137" pearlCount="15" transform="translate(38.58494660904382,123.21122621331364)"><circle class="pool" r="17.338107043690194" cx="17.338107043690194" cy="17.338107043690194" style="stroke-width: 1; fill: rgb(127, 205, 187);"></circle><circle class="pearl" r="2.190433937142651" cx="23.139630493617332" cy="17.28940867508209"></circle><circle class="pearl" r="2.190433937142651" cx="12.627593106333595" cy="21.671437199566174"></circle><circle class="pearl" r="2.190433937142651" cx="17.785692949438722" cy="11.728118176852734"></circle><circle class="pearl" r="2.190433937142651" cx="19.795235069031907" cy="24.051506767190155"></circle><circle class="pearl" r="2.190433937142651" cx="10.42455200785863" cy="14.524871607445439"></circle><circle class="pearl" r="2.190433937142651" cx="25.340163761928086" cy="9.830088243021594"></circle><circle class="pearl" r="2.190433937142651" cx="14.809193167920956" cy="29.84006729227222"></circle><circle class="pearl" r="2.190433937142651" cx="13.756916341561515" cy="5.02460234955738"></circle><circle class="pearl" r="2.190433937142651" cx="29.47516908864497" cy="21.67172233215865"></circle><circle class="pearl" r="2.190433937142651" cx="4.843730515905808" cy="19.91793459666327"></circle><circle class="pearl" r="2.190433937142651" cx="21.297207907637947" cy="5.108798394105726"></circle><circle class="pearl" r="2.190433937142651" cx="26.41837880029963" cy="27.457577472772368"></circle><circle class="pearl" r="2.190433937142651" cx="7.726740404463923" cy="7.558598562935618"></circle><circle class="pearl" r="2.190433937142651" cx="29.734749175785144" cy="14.1762578824519"></circle><circle class="pearl" r="2.190433937142651" cx="7.801096089559669" cy="27.166865087569924"></circle></g><g class="bobaCup bright" cupRadius="17.309931339855595" width="34.61986267971119" height="34.61986267971119" pearlRadius="2.7380424214283137" pearlCount="14" transform="translate(78.74536808236662,56.07586394126761)"><circle class="pool" r="17.309931339855595" cx="17.309931339855595" cy="17.309931339855595" style="stroke-width: 1; fill: rgb(29, 145, 192);"></circle><circle class="pearl" r="2.190433937142651" cx="21.393531054315698" cy="13.222049308241703"></circle><circle class="pearl" r="2.190433937142651" cx="13.247091590431834" cy="21.374697873511426"></circle><circle class="pearl" r="2.190433937142651" cx="13.433752544626666" cy="13.398867180432966"></circle><circle class="pearl" r="2.190433937142651" cx="21.220074061764326" cy="21.18262803308749"></circle><circle class="pearl" r="2.190433937142651" cx="5.602385995922922" cy="19.039087041105944"></circle><circle class="pearl" r="2.190433937142651" cx="26.98822151829751" cy="7.609193938498112"></circle><circle class="pearl" r="2.190433937142651" cx="15.095205470849573" cy="29.826872842274295"></circle><circle class="pearl" r="2.190433937142651" cx="11.608628230513032" cy="5.616577174890029"></circle><circle class="pearl" r="2.190433937142651" cx="28.995898488781304" cy="23.032367053808066"></circle><circle class="pearl" r="2.190433937142651" cx="7.6275035376949845" cy="27.007877556444303"></circle><circle class="pearl" r="2.190433937142651" cx="19.555366743328403" cy="4.79697947131109"></circle><circle class="pearl" r="2.190433937142651" cx="23.52798535984339" cy="28.81375939552105"></circle><circle class="pearl" r="2.190433937142651" cx="5.820443352628935" cy="11.054749096311316"></circle><circle class="pearl" r="2.190433937142651" cx="29.82526599236648" cy="15.082785225686507"></circle></g><g class="bobaCup bright" cupRadius="17.230442907927504" width="34.46088581585501" height="34.46088581585501" pearlRadius="2.7380424214283132" pearlCount="14" transform="translate(96.00736505591254,199.12517799588986)"><circle class="pool" r="17.230442907927504" cx="17.230442907927504" cy="17.230442907927504" style="stroke-width: 1; fill: rgb(65, 182, 196);"></circle><circle class="pearl" r="2.1904339371426507" cx="21.311891430544158" cy="13.141361910205609"></circle><circle class="pearl" r="2.1904339371426507" cx="13.16397771241677" cy="21.305247894722047"></circle><circle class="pearl" r="2.1904339371426507" cx="13.395114073946209" cy="13.37749455535262"></circle><circle class="pearl" r="2.1904339371426507" cx="21.091202813647598" cy="21.05798476326577"></circle><circle class="pearl" r="2.1904339371426507" cx="5.479147357343651" cy="19.101260166518703"></circle><circle class="pearl" r="2.1904339371426507" cx="26.82460943944636" cy="7.568929016857484"></circle><circle class="pearl" r="2.1904339371426507" cx="15.080596659717624" cy="29.67551810798815"></circle><circle class="pearl" r="2.1904339371426507" cx="11.452521749548033" cy="5.648366319741775"></circle><circle class="pearl" r="2.1904339371426507" cx="28.83935835694353" cy="22.93239984196888"></circle><circle class="pearl" r="2.1904339371426507" cx="7.629911548710324" cy="26.887688103421265"></circle><circle class="pearl" r="2.1904339371426507" cx="19.395367046182397" cy="4.787270551262597"></circle><circle class="pearl" r="2.1904339371426507" cx="23.411440303631146" cy="28.6633583845019"></circle><circle class="pearl" r="2.1904339371426507" cx="5.770018259999342" cy="11.12150872061438"></circle><circle class="pearl" r="2.1904339371426507" cx="29.663227034691513" cy="14.98501661353241"></circle></g><g class="bobaCup bright" cupRadius="17.21383606513976" width="34.42767213027952" height="34.42767213027952" pearlRadius="2.7380424214283137" pearlCount="14" transform="translate(56.40497783981262,228.60623576449817)"><circle class="pool" r="17.21383606513976" cx="17.21383606513976" cy="17.21383606513976" style="stroke-width: 1; fill: rgb(127, 205, 187);"></circle><circle class="pearl" r="2.190433937142651" cx="21.294627242582543" cy="13.124359700019111"></circle><circle class="pearl" r="2.190433937142651" cx="13.14674132749793" cy="21.291076874364244"></circle><circle class="pearl" r="2.190433937142651" cx="13.386949277396557" cy="13.373178688670695"></circle><circle class="pearl" r="2.190433937142651" cx="21.064187910554526" cy="21.031820918897868"></circle><circle class="pearl" r="2.190433937142651" cx="5.453862093521145" cy="19.115063003912695"></circle><circle class="pearl" r="2.190433937142651" cx="26.790739197737608" cy="7.560745869789804"></circle><circle class="pearl" r="2.190433937142651" cx="15.077024215276161" cy="29.643809168855267"></circle><circle class="pearl" r="2.190433937142651" cx="11.419801093858432" cy="5.655138859004509"></circle><circle class="pearl" r="2.190433937142651" cx="28.805157883297486" cy="22.91577650480925"></circle><circle class="pearl" r="2.190433937142651" cx="7.630390733987786" cy="26.862543862393714"></circle><circle class="pearl" r="2.190433937142651" cx="19.36189090870721" cy="4.785273229400875"></circle><circle class="pearl" r="2.190433937142651" cx="23.382183011478034" cy="28.633820600295376"></circle><circle class="pearl" r="2.190433937142651" cx="5.759346596159613" cy="11.13614933052264"></circle><circle class="pearl" r="2.190433937142651" cx="29.62993921182345" cy="14.96893304843413"></circle></g><g class="bobaCup bright" cupRadius="16.138041882878507" width="32.276083765757015" height="32.276083765757015" pearlRadius="2.7380424214283132" pearlCount="13" transform="translate(50.831751978522036,16.73004719058253)"><circle class="pool" r="16.138041882878507" cx="16.138041882878507" cy="16.138041882878507" style="stroke-width: 1; fill: rgb(29, 145, 192);"></circle><circle class="pearl" r="2.1904339371426507" cx="20.426536354626144" cy="15.01809988386487"></circle><circle class="pearl" r="2.1904339371426507" cx="14.599291519188945" cy="20.270062371732617"></circle><circle class="pearl" r="2.1904339371426507" cx="12.886803753794894" cy="12.603313265664015"></circle><circle class="pearl" r="2.1904339371426507" cx="24.770338843639216" cy="25.122561409564195"></circle><circle class="pearl" r="2.1904339371426507" cx="4.836501558286625" cy="13.696386021793803"></circle><circle class="pearl" r="2.1904339371426507" cx="26.72013126400031" cy="10.809081776861376"></circle><circle class="pearl" r="2.1904339371426507" cx="10.023387729779113" cy="26.42209017587832"></circle><circle class="pearl" r="2.1904339371426507" cx="14.551915473384309" cy="4.728858548002658"></circle><circle class="pearl" r="2.1904339371426507" cx="27.454237851115064" cy="18.48194614204876"></circle><circle class="pearl" r="2.1904339371426507" cx="5.415040135400139" cy="21.045686549552546"></circle><circle class="pearl" r="2.1904339371426507" cx="22.267852901455427" cy="5.86020815874737"></circle><circle class="pearl" r="2.1904339371426507" cx="17.71383104180474" cy="27.54824279771061"></circle><circle class="pearl" r="2.1904339371426507" cx="7.557837020970612" cy="7.1206825706821055"></circle></g><g class="bobaCup bright" cupRadius="15.712095761322596" width="31.42419152264519" height="31.42419152264519" pearlRadius="2.738042421428314" pearlCount="12" transform="translate(74.81056294417074,222.45853308501182)"><circle class="pool" r="15.712095761322596" cx="15.712095761322596" cy="15.712095761322596" style="stroke-width: 1; fill: rgb(29, 145, 192);"></circle><circle class="pearl" r="2.1904339371426516" cx="16.92563015071899" cy="11.576849184915867"></circle><circle class="pearl" r="2.1904339371426516" cx="11.356257989043524" cy="17.234949789422952"></circle><circle class="pearl" r="2.1904339371426516" cx="14.56957376536393" cy="4.6923181458963175"></circle><circle class="pearl" r="2.1904339371426516" cx="18.43845587041421" cy="18.86407410336945"></circle><circle class="pearl" r="2.1904339371426516" cx="4.703931520019635" cy="14.420121915305153"></circle><circle class="pearl" r="2.1904339371426516" cx="26.46391839611969" cy="12.608624456507421"></circle><circle class="pearl" r="2.1904339371426516" cx="13.983271757084154" cy="26.678066189711696"></circle><circle class="pearl" r="2.1904339371426516" cx="7.2391936762429" cy="7.131043467703789"></circle><circle class="pearl" r="2.1904339371426516" cx="26.094809453569596" cy="20.279997638635106"></circle><circle class="pearl" r="2.1904339371426516" cx="6.81398896601309" cy="23.668172570715736"></circle><circle class="pearl" r="2.1904339371426516" cx="22.50629876535539" cy="6.195647121346196"></circle><circle class="pearl" r="2.1904339371426516" cx="21.733075351905804" cy="25.574048301980007"></circle></g><g class="bobaCup bright" cupRadius="15.451403761891807" width="30.902807523783615" height="30.902807523783615" pearlRadius="2.7380424214283137" pearlCount="11" transform="translate(65.89756206612311,6.0187171126251435)"><circle class="pool" r="15.451403761891807" cx="15.451403761891807" cy="15.451403761891807" style="stroke-width: 1; fill: rgb(29, 145, 192);"></circle><circle class="pearl" r="2.190433937142651" cx="19.362656221979314" cy="15.759785157695134"></circle><circle class="pearl" r="2.190433937142651" cx="11.894123821485543" cy="17.652529877839083"></circle><circle class="pearl" r="2.190433937142651" cx="14.11596357602764" cy="10.207650581536305"></circle><circle class="pearl" r="2.190433937142651" cx="22.028191514580467" cy="24.782516645544636"></circle><circle class="pearl" r="2.190433937142651" cx="4.683474605473968" cy="14.445900482991314"></circle><circle class="pearl" r="2.190433937142651" cx="25.54700438353922" cy="10.837098709396757"></circle><circle class="pearl" r="2.190433937142651" cx="14.419309503075263" cy="26.21757579968101"></circle><circle class="pearl" r="2.190433937142651" cx="7.21043739371366" cy="7.031841931155235"></circle><circle class="pearl" r="2.190433937142651" cx="25.90795640843739" cy="18.69425649461375"></circle><circle class="pearl" r="2.190433937142651" cx="7.140004345549473" cy="23.826290613275848"></circle><circle class="pearl" r="2.190433937142651" cx="20.16279778148425" cy="5.3865351027693205"></circle></g><g class="bobaCup bright" cupRadius="15.450276129056721" width="30.900552258113443" height="30.900552258113443" pearlRadius="2.738042421428314" pearlCount="11" transform="translate(160.93157053286822,126.73354693409378)"><circle class="pool" r="15.450276129056721" cx="15.450276129056721" cy="15.450276129056721" style="stroke-width: 1; fill: rgb(65, 182, 196);"></circle><circle class="pearl" r="2.1904339371426516" cx="19.361554563903045" cy="15.759104725398243"></circle><circle class="pearl" r="2.1904339371426516" cx="11.893915301585347" cy="17.651981640712513"></circle><circle class="pearl" r="2.1904339371426516" cx="14.114787738219661" cy="10.207674770297771"></circle><circle class="pearl" r="2.1904339371426516" cx="22.027279599209688" cy="24.780041368979713"></circle><circle class="pearl" r="2.1904339371426516" cx="4.683454894678693" cy="14.445111865323119"></circle><circle class="pearl" r="2.1904339371426516" cx="25.544579872219085" cy="10.83560256888444"></circle><circle class="pearl" r="2.1904339371426516" cx="14.418784688102297" cy="26.215358356942904"></circle><circle class="pearl" r="2.1904339371426516" cx="7.210341266500972" cy="7.031396994704201"></circle><circle class="pearl" r="2.1904339371426516" cx="25.905836839728085" cy="18.6923769928618"></circle><circle class="pearl" r="2.1904339371426516" cx="7.140014348111688" cy="23.82455123431525"></circle><circle class="pearl" r="2.1904339371426516" cx="20.160581069778303" cy="5.386242824490269"></circle></g><g class="bobaCup bright" cupRadius="15.35723552318914" width="30.71447104637828" height="30.71447104637828" pearlRadius="2.7380424214283137" pearlCount="11" transform="translate(244.88537695912535,212.88818882771548)"><circle class="pool" r="15.35723552318914" cx="15.35723552318914" cy="15.35723552318914" style="stroke-width: 1; fill: rgb(29, 145, 192);"></circle><circle class="pearl" r="2.190433937142651" cx="19.270797565937706" cy="15.707146788991675"></circle><circle class="pearl" r="2.190433937142651" cx="11.876351423188627" cy="17.605288742107103"></circle><circle class="pearl" r="2.190433937142651" cx="14.021555298026641" cy="10.208118647742996"></circle><circle class="pearl" r="2.190433937142651" cx="21.94527433213678" cy="24.578874298491154"></circle><circle class="pearl" r="2.190433937142651" cx="4.681870821892549" cy="14.379630449211534"></circle><circle class="pearl" r="2.190433937142651" cx="25.347427682683634" cy="10.721690300218393"></circle><circle class="pearl" r="2.190433937142651" cx="14.370556087817539" cy="26.032018700819357"></circle><circle class="pearl" r="2.190433937142651" cx="7.202151059919565" cy="6.99491605177489"></circle><circle class="pearl" r="2.190433937142651" cx="25.728831306324516" cy="18.547002665979505"></circle><circle class="pearl" r="2.190433937142651" cx="7.140025807563655" cy="23.680414845667702"></circle><circle class="pearl" r="2.190433937142651" cx="19.98676206113378" cy="5.365139113822703"></circle></g><g class="bobaCup bright" cupRadius="14.566316985688761" width="29.132633971377523" height="29.132633971377523" pearlRadius="2.738042421428314" pearlCount="10" transform="translate(283.7756230555384,25.07211766022043)"><circle class="pool" r="14.566316985688761" cx="14.566316985688761" cy="14.566316985688761" style="stroke-width: 1; fill: rgb(127, 205, 187);"></circle><circle class="pearl" r="2.1904339371426516" cx="17.308964806169225" cy="11.892721069401505"></circle><circle class="pearl" r="2.1904339371426516" cx="12.191395958474896" cy="16.887597153116957"></circle><circle class="pearl" r="2.1904339371426516" cx="14.487518217663085" cy="4.650936367255234"></circle><circle class="pearl" r="2.1904339371426516" cx="22.251943229774913" cy="22.28930539767966"></circle><circle class="pearl" r="2.1904339371426516" cx="4.651394749352173" cy="14.426450198425218"></circle><circle class="pearl" r="2.1904339371426516" cx="22.0571248091849" cy="6.7244268495945505"></circle><circle class="pearl" r="2.1904339371426516" cx="14.646324530996825" cy="24.48169101479994"></circle><circle class="pearl" r="2.1904339371426516" cx="6.880795299521143" cy="6.8432636307340164"></circle><circle class="pearl" r="2.1904339371426516" cx="24.481022396944145" cy="14.72718670219199"></circle><circle class="pearl" r="2.1904339371426516" cx="7.074693108572143" cy="22.407717764322417"></circle></g><g class="bobaCup bright" cupRadius="14.500112337486964" width="29.00022467497393" height="29.00022467497393" pearlRadius="2.7380424214283132" pearlCount="10" transform="translate(193.5735037595086,156.20276089044287)"><circle class="pool" r="14.500112337486964" cx="14.500112337486964" cy="14.500112337486964" style="stroke-width: 1; fill: rgb(29, 145, 192);"></circle><circle class="pearl" r="2.1904339371426507" cx="17.239009748381395" cy="11.844421251140645"></circle><circle class="pearl" r="2.1904339371426507" cx="12.165361373669628" cy="16.77173647152916"></circle><circle class="pearl" r="2.1904339371426507" cx="14.458878722489837" cy="4.650781856201111"></circle><circle class="pearl" r="2.1904339371426507" cx="22.132378839594487" cy="22.178288728936682"></circle><circle class="pearl" r="2.1904339371426507" cx="4.651176494418336" cy="14.385462409628913"></circle><circle class="pearl" r="2.1904339371426507" cx="21.930427862701954" cy="6.699182302515461"></circle><circle class="pearl" r="2.1904339371426507" cx="14.54265032452829" cy="24.349439050878154"></circle><circle class="pearl" r="2.1904339371426507" cx="6.867891714209718" cy="6.821907544637729"></circle><circle class="pearl" r="2.1904339371426507" cx="24.348808905024907" cy="14.641828165619486"></circle><circle class="pearl" r="2.1904339371426507" cx="7.06866858904202" cy="22.300369054825367"></circle></g><g class="bobaCup bright" cupRadius="14.27394398762975" width="28.5478879752595" height="28.5478879752595" pearlRadius="2.738042421428314" pearlCount="10" transform="translate(230.24348266370032,140.11074888905125)"><circle class="pool" r="14.27394398762975" cx="14.27394398762975" cy="14.27394398762975" style="stroke-width: 1; fill: rgb(65, 182, 196);"></circle><circle class="pearl" r="2.1904339371426516" cx="16.990839628763688" cy="11.677151959879229"></circle><circle class="pearl" r="2.1904339371426516" cx="12.084150230718304" cy="16.395126354297748"></circle><circle class="pearl" r="2.1904339371426516" cx="14.342944914625186" cy="4.650890006433784"></circle><circle class="pearl" r="2.1904339371426516" cx="21.730229330952312" cy="21.79487988347324"></circle><circle class="pearl" r="2.1904339371426516" cx="4.650729825618145" cy="14.260220587289053"></circle><circle class="pearl" r="2.1904339371426516" cx="21.500560375002674" cy="6.6152605468383925"></circle><circle class="pearl" r="2.1904339371426516" cx="14.246850640680675" cy="23.897139033749134"></circle><circle class="pearl" r="2.1904339371426516" cx="6.820215469009991" cy="6.751442165594648"></circle><circle class="pearl" r="2.1904339371426516" cx="23.89704154934859" cy="14.333248360812867"></circle><circle class="pearl" r="2.1904339371426516" cx="7.043637793351234" cy="21.930460469853656"></circle></g><g class="bobaCup bright" cupRadius="14.219368059704248" width="28.438736119408496" height="28.438736119408496" pearlRadius="2.7380424214283137" pearlCount="10" transform="translate(305.78063194029573,263.1142868133026)"><circle class="pool" r="14.219368059704248" cx="14.219368059704248" cy="14.219368059704248" style="stroke-width: 1; fill: rgb(127, 205, 187);"></circle><circle class="pearl" r="2.190433937142651" cx="16.9224583781175" cy="11.62637829726454"></circle><circle class="pearl" r="2.190433937142651" cx="12.071885949023383" cy="16.313525489962117"></circle><circle class="pearl" r="2.190433937142651" cx="14.289527336094253" cy="4.6508963148152045"></circle><circle class="pearl" r="2.190433937142651" cx="21.636159415610383" cy="21.700488631656373"></circle><circle class="pearl" r="2.190433937142651" cx="4.650748723596571" cy="14.246294731466671"></circle><circle class="pearl" r="2.190433937142651" cx="21.398906541558144" cy="6.596352851885367"></circle><circle class="pearl" r="2.190433937142651" cx="14.199427685589379" cy="23.787998909248582"></circle><circle class="pearl" r="2.190433937142651" cx="6.805638607646305" cy="6.736376126420495"></circle><circle class="pearl" r="2.190433937142651" cx="23.78798372987477" cy="14.24816563028197"></circle><circle class="pearl" r="2.190433937142651" cx="7.035238984392937" cy="21.83969684172313"></circle></g><g class="bobaCup bright" cupRadius="14.05104921707267" width="28.10209843414534" height="28.10209843414534" pearlRadius="2.7380424214283137" pearlCount="9" transform="translate(270.82595884838224,94.63569220444677)"><circle class="pool" r="14.05104921707267" cx="14.05104921707267" cy="14.05104921707267" style="stroke-width: 1; fill: rgb(127, 205, 187);"></circle><circle class="pearl" r="2.190433937142651" cx="19.949036939345127" cy="14.011246416238675"></circle><circle class="pearl" r="2.190433937142651" cx="12.302128022260016" cy="15.774983319058787"></circle><circle class="pearl" r="2.190433937142651" cx="14.040785467135045" cy="4.650726977208471"></circle><circle class="pearl" r="2.190433937142651" cx="14.074825575428907" cy="23.45135508908286"></circle><circle class="pearl" r="2.190433937142651" cx="4.650761073257927" cy="14.083660774573524"></circle><circle class="pearl" r="2.190433937142651" cx="21.271628030394254" cy="6.6479255202340095"></circle><circle class="pearl" r="2.190433937142651" cx="6.80676682150076" cy="21.439942123321057"></circle><circle class="pearl" r="2.190433937142651" cx="6.795789986336079" cy="6.6687679332449505"></circle><circle class="pearl" r="2.190433937142651" cx="21.29362167618039" cy="21.440970833158904"></circle></g><g class="bobaCup bright" cupRadius="13.810982968925924" width="27.621965937851847" height="27.621965937851847" pearlRadius="2.7380424214283137" pearlCount="9" transform="translate(239.2653335761684,135.2555427614783)"><circle class="pool" r="13.810982968925924" cx="13.810982968925924" cy="13.810982968925924" style="stroke-width: 1; fill: rgb(127, 205, 187);"></circle><circle class="pearl" r="2.190433937142651" cx="15.619212776246307" cy="12.03460351466968"></circle><circle class="pearl" r="2.190433937142651" cx="10.240339317907077" cy="17.36916018156172"></circle><circle class="pearl" r="2.190433937142651" cx="13.874128605239305" cy="4.6508675844157406"></circle><circle class="pearl" r="2.190433937142651" cx="20.877557214180122" cy="21.026462966503967"></circle><circle class="pearl" r="2.190433937142651" cx="4.6510100268469525" cy="13.721978194032532"></circle><circle class="pearl" r="2.190433937142651" cx="20.805087781160626" cy="6.5526445869654175"></circle><circle class="pearl" r="2.190433937142651" cx="13.857841025616397" cy="22.971163218783943"></circle><circle class="pearl" r="2.190433937142651" cx="6.8118149690489265" cy="6.555619607963916"></circle><circle class="pearl" r="2.190433937142651" cx="22.970773356716887" cy="13.924843498700177"></circle></g><g class="bobaCup bright" cupRadius="13.786234350493874" width="27.57246870098775" height="27.57246870098775" pearlRadius="2.738042421428314" pearlCount="9" transform="translate(201.63563865443413,140.4845004241688)"><circle class="pool" r="13.786234350493874" cx="13.786234350493874" cy="13.786234350493874" style="stroke-width: 1; fill: rgb(127, 205, 187);"></circle><circle class="pearl" r="2.1904339371426516" cx="15.577891366891604" cy="12.028032389152497"></circle><circle class="pearl" r="2.1904339371426516" cx="10.19903390844545" cy="17.360744070634325"></circle><circle class="pearl" r="2.1904339371426516" cx="13.84851581648524" cy="4.650863912411914"></circle><circle class="pearl" r="2.1904339371426516" cx="20.830655483192828" cy="20.986097118907143"></circle><circle class="pearl" r="2.1904339371426516" cx="4.650970326148462" cy="13.70369327489434"></circle><circle class="pearl" r="2.1904339371426516" cx="20.758647944467754" cy="6.543862681549616"></circle><circle class="pearl" r="2.1904339371426516" cx="13.82566545824913" cy="22.92168908227418"></circle><circle class="pearl" r="2.1904339371426516" cx="6.8088009445914714" cy="6.546807006724235"></circle><circle class="pearl" r="2.1904339371426516" cx="22.921195950054116" cy="13.909325317534272"></circle></g><g class="bobaCup bright" cupRadius="13.372705606055318" width="26.745411212110636" height="26.745411212110636" pearlRadius="2.7380424214283132" pearlCount="8" transform="translate(22.49691935071567,283.10401715527394)"><circle class="pool" r="13.372705606055318" cx="13.372705606055318" cy="13.372705606055318" style="stroke-width: 1; fill: rgb(65, 182, 196);"></circle><circle class="pearl" r="2.1904339371426507" cx="22.076655419998783" cy="14.066941267598668"></circle><circle class="pearl" r="2.1904339371426507" cx="12.667641066897286" cy="14.040680857356111"></circle><circle class="pearl" r="2.1904339371426507" cx="12.481929554962997" cy="4.6804241785145075"></circle><circle class="pearl" r="2.1904339371426507" cx="18.61726715209355" cy="21.023357480131917"></circle><circle class="pearl" r="2.1904339371426507" cx="4.987418041177226" cy="16.35459725722239"></circle><circle class="pearl" r="2.1904339371426507" cx="20.168569443111345" cy="6.506246456352735"></circle><circle class="pearl" r="2.1904339371426507" cx="10.678207753676986" cy="21.82041497645392"></circle><circle class="pearl" r="2.1904339371426507" cx="5.608009619358284" cy="8.404142339337817"></circle></g><g class="bobaCup bright" cupRadius="13.124288136354618" width="26.248576272709236" height="26.248576272709236" pearlRadius="2.7380424214283137" pearlCount="8" transform="translate(50.27149878757518,200.54133015702294)"><circle class="pool" r="13.124288136354618" cx="13.124288136354618" cy="13.124288136354618" style="stroke-width: 1; fill: rgb(127, 205, 187);"></circle><circle class="pearl" r="2.190433937142651" cx="13.987078738275159" cy="12.92369266525468"></circle><circle class="pearl" r="2.190433937142651" cx="7.9123008683048885" cy="20.518569175269125"></circle><circle class="pearl" r="2.190433937142651" cx="13.982197706486376" cy="4.678793198770448"></circle><circle class="pearl" r="2.190433937142651" cx="21.268146214322524" cy="16.04757879525626"></circle><circle class="pearl" r="2.190433937142651" cx="4.673510170346974" cy="13.89733763962766"></circle><circle class="pearl" r="2.190433937142651" cx="20.613111626808205" cy="8.136468518257358"></circle><circle class="pearl" r="2.190433937142651" cx="15.679711258322904" cy="21.346666777720262"></circle><circle class="pearl" r="2.190433937142651" cx="6.5852858637556135" cy="6.395714885573229"></circle></g><g class="bobaCup bright" cupRadius="13.092668762890716" width="26.18533752578143" height="26.18533752578143" pearlRadius="2.7380424214283137" pearlCount="8" transform="translate(100.52549601609691,251.30240609003025)"><circle class="pool" r="13.092668762890716" cx="13.092668762890716" cy="13.092668762890716" style="stroke-width: 1; fill: rgb(65, 182, 196);"></circle><circle class="pearl" r="2.190433937142651" cx="13.922570110193162" cy="12.935890625162918"></circle><circle class="pearl" r="2.190433937142651" cx="7.812695686631235" cy="20.422757679109704"></circle><circle class="pearl" r="2.190433937142651" cx="13.985220956530204" cy="4.68118215099439"></circle><circle class="pearl" r="2.190433937142651" cx="21.1899328934288" cy="16.077093938157653"></circle><circle class="pearl" r="2.190433937142651" cx="4.671638024028137" cy="13.832414360820541"></circle><circle class="pearl" r="2.190433937142651" cx="20.573340620054193" cy="8.168521262196856"></circle><circle class="pearl" r="2.190433937142651" cx="15.559027520698315" cy="21.300213295280283"></circle><circle class="pearl" r="2.190433937142651" cx="6.593612608671004" cy="6.377643250658439"></circle></g><g class="bobaCup bright" cupRadius="12.72891423450666" width="25.45782846901332" height="25.45782846901332" pearlRadius="2.738042421428314" pearlCount="8" transform="translate(67.05879738960606,127.94256931373404)"><circle class="pool" r="12.72891423450666" cx="12.72891423450666" cy="12.72891423450666" style="stroke-width: 1; fill: rgb(65, 182, 196);"></circle><circle class="pearl" r="2.1904339371426516" cx="13.28829433572079" cy="12.819911115360057"></circle><circle class="pearl" r="2.1904339371426516" cx="6.6977656249641875" cy="19.287584568436635"></circle><circle class="pearl" r="2.1904339371426516" cx="14.044610923929216" cy="4.7189028947018326"></circle><circle class="pearl" r="2.1904339371426516" cx="20.250296897576536" cy="16.45250064442193"></circle><circle class="pearl" r="2.1904339371426516" cx="4.655368014073092" cy="13.072752246589557"></circle><circle class="pearl" r="2.1904339371426516" cx="20.112112379363097" cy="8.580421259028629"></circle><circle class="pearl" r="2.1904339371426516" cx="14.153018802717783" cy="20.727190324783944"></circle><circle class="pearl" r="2.1904339371426516" cx="6.692716775965277" cy="6.172961870783444"></circle></g><g class="bobaCup bright" cupRadius="12.538790417324783" width="25.077580834649567" height="25.077580834649567" pearlRadius="2.7380424214283137" pearlCount="7" transform="translate(305.427620469121,219.73880506001737)"><circle class="pool" r="12.538790417324783" cx="12.538790417324783" cy="12.538790417324783" style="stroke-width: 1; fill: rgb(65, 182, 196);"></circle><circle class="pearl" r="2.190433937142651" cx="12.830754838000605" cy="12.58692590988477"></circle><circle class="pearl" r="2.190433937142651" cx="5.018498324863783" cy="15.553363552081692"></circle><circle class="pearl" r="2.190433937142651" cx="13.075530365512549" cy="4.662216437095591"></circle><circle class="pearl" r="2.190433937142651" cx="19.05642553334168" cy="18.23870594445918"></circle><circle class="pearl" r="2.190433937142651" cx="5.668762646602678" cy="7.5896933742389665"></circle><circle class="pearl" r="2.190433937142651" cx="19.859188322572923" cy="8.808706781664245"></circle><circle class="pearl" r="2.190433937142651" cx="11.349542360876807" cy="20.370332775971047"></circle></g><g class="bobaCup bright" cupRadius="12.289744381723967" width="24.579488763447934" height="24.579488763447934" pearlRadius="2.738042421428314" pearlCount="7" transform="translate(50.916946663978905,7.710255618276033)"><circle class="pool" r="12.289744381723967" cx="12.289744381723967" cy="12.289744381723967" style="stroke-width: 1; fill: rgb(127, 205, 187);"></circle><circle class="pearl" r="2.1904339371426516" cx="12.326779198047007" cy="12.304106072617428"></circle><circle class="pearl" r="2.1904339371426516" cx="5.009738441306245" cy="15.238560833176223"></circle><circle class="pearl" r="2.1904339371426516" cx="13.127333732987722" cy="4.679298781559131"></circle><circle class="pearl" r="2.1904339371426516" cx="18.765376028287342" cy="17.5091355493495"></circle><circle class="pearl" r="2.1904339371426516" cx="5.707610965457635" cy="7.303688970414574"></circle><circle class="pearl" r="2.1904339371426516" cx="19.502236140509236" cy="9.080079736955085"></circle><circle class="pearl" r="2.1904339371426516" cx="11.221152215501037" cy="19.882220398056266"></circle></g><g class="bobaCup bright" cupRadius="12.218095733675804" width="24.43619146735161" height="24.43619146735161" pearlRadius="2.7380424214283137" pearlCount="7" transform="translate(191.7314020569616,148.03620712477408)"><circle class="pool" r="12.218095733675804" cx="12.218095733675804" cy="12.218095733675804" style="stroke-width: 1; fill: rgb(65, 182, 196);"></circle><circle class="pearl" r="2.190433937142651" cx="12.242094164563879" cy="12.226974408648235"></circle><circle class="pearl" r="2.190433937142651" cx="5.047749719875343" cy="15.307462226069399"></circle><circle class="pearl" r="2.190433937142651" cx="12.999852977726722" cy="4.6757586831930364"></circle><circle class="pearl" r="2.190433937142651" cx="18.73918542827666" cy="17.165060395659484"></circle><circle class="pearl" r="2.190433937142651" cx="5.650509747742502" cy="7.377496419021383"></circle><circle class="pearl" r="2.190433937142651" cx="19.348071583837356" cy="8.978189473671538"></circle><circle class="pearl" r="2.190433937142651" cx="11.306106354795963" cy="19.751384107613855"></circle></g><g class="bobaCup bright" cupRadius="11.968426584425163" width="23.936853168850327" height="23.936853168850327" pearlRadius="2.738042421428314" pearlCount="7" transform="translate(39.82659823457685,286.5940899080338)"><circle class="pool" r="11.968426584425163" cx="11.968426584425163" cy="11.968426584425163" style="stroke-width: 1; fill: rgb(29, 145, 192);"></circle><circle class="pearl" r="2.1904339371426516" cx="11.973114541480495" cy="11.969086680386962"></circle><circle class="pearl" r="2.1904339371426516" cx="5.072376054267927" cy="15.11727568711618"></circle><circle class="pearl" r="2.1904339371426516" cx="12.76942374094539" cy="4.677557018815838"></circle><circle class="pearl" r="2.1904339371426516" cx="18.320675350842425" cy="16.6777622259225"></circle><circle class="pearl" r="2.1904339371426516" cx="5.616206121034956" cy="7.259024815802721"></circle><circle class="pearl" r="2.1904339371426516" cx="18.846620855654873" cy="8.75481550192591"></circle><circle class="pearl" r="2.1904339371426516" cx="11.10419514287982" cy="19.254886395508763"></circle></g><g class="bobaCup bright" cupRadius="11.958660528339308" width="23.917321056678617" height="23.917321056678617" pearlRadius="2.7380424214283132" pearlCount="7" transform="translate(97.53934748419267,164.26928618097946)"><circle class="pool" r="11.958660528339308" cx="11.958660528339308" cy="11.958660528339308" style="stroke-width: 1; fill: rgb(65, 182, 196);"></circle><circle class="pearl" r="2.1904339371426507" cx="11.963470339920956" cy="11.95946550178396"></circle><circle class="pearl" r="2.1904339371426507" cx="5.061051087071809" cy="15.064392998916812"></circle><circle class="pearl" r="2.1904339371426507" cx="12.80138756723621" cy="4.680453680412641"></circle><circle class="pearl" r="2.1904339371426507" cx="18.28440738605261" cy="16.704887037574263"></circle><circle class="pearl" r="2.1904339371426507" cx="5.632876296157035" cy="7.212520454965316"></circle><circle class="pearl" r="2.1904339371426507" cx="18.838163943026768" cy="8.786368740506521"></circle><circle class="pearl" r="2.1904339371426507" cx="11.05089860409373" cy="19.23209470903411"></circle></g><g class="bobaCup bright" cupRadius="11.772640982813883" width="23.545281965627765" height="23.545281965627765" pearlRadius="2.7380424214283137" pearlCount="6" transform="translate(206.2094949431629,152.12035589026283)"><circle class="pool" r="11.772640982813883" cx="11.772640982813883" cy="11.772640982813883" style="stroke-width: 1; fill: rgb(29, 145, 192);"></circle><circle class="pearl" r="2.190433937142651" cx="12.223196040764794" cy="12.036195474843824"></circle><circle class="pearl" r="2.190433937142651" cx="6.8250204041590115" cy="17.80443273527137"></circle><circle class="pearl" r="2.190433937142651" cx="9.758915684379533" cy="4.824226910159737"></circle><circle class="pearl" r="2.190433937142651" cx="17.355446873759863" cy="17.486634542184856"></circle><circle class="pearl" r="2.190433937142651" cx="4.7330242890534" cy="10.383026572061828"></circle><circle class="pearl" r="2.190433937142651" cx="17.430161955515587" cy="6.099240415455872"></circle></g><g class="bobaCup bright" cupRadius="11.741111776685251" width="23.482223553370503" height="23.482223553370503" pearlRadius="2.7380424214283137" pearlCount="6" transform="translate(229.34742547979693,94.81360915633869)"><circle class="pool" r="11.741111776685251" cx="11.741111776685251" cy="11.741111776685251" style="stroke-width: 1; fill: rgb(65, 182, 196);"></circle><circle class="pearl" r="2.190433937142651" cx="12.180676685974866" cy="12.014554332312013"></circle><circle class="pearl" r="2.190433937142651" cx="6.7234294901876535" cy="17.705310602674214"></circle><circle class="pearl" r="2.190433937142651" cx="9.751685157826726" cy="4.820495952199675"></circle><circle class="pearl" r="2.190433937142651" cx="17.295267628835376" cy="17.434713490933955"></circle><circle class="pearl" r="2.190433937142651" cx="4.739295664402766" cy="10.30165609397844"></circle><circle class="pearl" r="2.190433937142651" cx="17.374949932584013" cy="6.090690729703434"></circle></g><g class="bobaCup bright" cupRadius="11.582651998004279" width="23.165303996008557" height="23.165303996008557" pearlRadius="2.7380424214283137" pearlCount="6" transform="translate(221.20375597163311,253.3695749966862)"><circle class="pool" r="11.582651998004279" cx="11.582651998004279" cy="11.582651998004279" style="stroke-width: 1; fill: rgb(29, 145, 192);"></circle><circle class="pearl" r="2.190433937142651" cx="11.950493358236258" cy="11.916714771946685"></circle><circle class="pearl" r="2.190433937142651" cx="6.153101163773686" cy="17.16314595241677"></circle><circle class="pearl" r="2.190433937142651" cx="9.75336011964526" cy="4.796088899362852"></circle><circle class="pearl" r="2.190433937142651" cx="16.994273270343538" cy="17.1726407813803"></circle><circle class="pearl" r="2.190433937142651" cx="4.783882363736657" cy="9.831383745942922"></circle><circle class="pearl" r="2.190433937142651" cx="17.104511801183868" cy="6.051681280040633"></circle></g><g class="bobaCup bright" cupRadius="11.565222598697424" width="23.13044519739485" height="23.13044519739485" pearlRadius="2.7380424214283137" pearlCount="6" transform="translate(52.46109590655987,165.80010134448585)"><circle class="pool" r="11.565222598697424" cx="11.565222598697424" cy="11.565222598697424" style="stroke-width: 1; fill: rgb(65, 182, 196);"></circle><circle class="pearl" r="2.190433937142651" cx="11.936173117423438" cy="11.900836399253583"></circle><circle class="pearl" r="2.190433937142651" cx="6.1524736185313" cy="17.134896732026323"></circle><circle class="pearl" r="2.190433937142651" cx="9.734854178885495" cy="4.7964832652572476"></circle><circle class="pearl" r="2.190433937142651" cx="16.960321211102883" cy="17.144224914824118"></circle><circle class="pearl" r="2.190433937142651" cx="4.7832045737957785" cy="9.819713736341123"></circle><circle class="pearl" r="2.190433937142651" cx="17.071287205285476" cy="6.045516814414627"></circle></g><g class="bobaCup bright" cupRadius="11.116890586318469" width="22.233781172636938" height="22.233781172636938" pearlRadius="2.7380424214283137" pearlCount="6" transform="translate(64.14797365335986,164.0018003172722)"><circle class="pool" r="11.116890586318469" cx="11.116890586318469" cy="11.116890586318469" style="stroke-width: 1; fill: rgb(127, 205, 187);"></circle><circle class="pearl" r="2.190433937142651" cx="11.578412709390067" cy="11.485853067045515"></circle><circle class="pearl" r="2.190433937142651" cx="6.136479633303706" cy="16.40501855128413"></circle><circle class="pearl" r="2.190433937142651" cx="9.251184212991198" cy="4.808398695333674"></circle><circle class="pearl" r="2.190433937142651" cx="16.085979812623012" cy="16.41068386531075"></circle><circle class="pearl" r="2.190433937142651" cx="4.764805955201167" cy="9.528345493802783"></circle><circle class="pearl" r="2.190433937142651" cx="16.213699077232565" cy="5.887947853171912"></circle></g><g class="bobaCup bright" cupRadius="11.061266947721215" width="22.12253389544243" height="22.12253389544243" pearlRadius="2.7380424214283137" pearlCount="6" transform="translate(138.04259677057436,203.71491402457372)"><circle class="pool" r="11.061266947721215" cx="11.061266947721215" cy="11.061266947721215" style="stroke-width: 1; fill: rgb(65, 182, 196);"></circle><circle class="pearl" r="2.190433937142651" cx="11.535762800721972" cy="11.433286440403826"></circle><circle class="pearl" r="2.190433937142651" cx="6.134557975134641" cy="16.31403629440785"></circle><circle class="pearl" r="2.190433937142651" cx="9.189905709931887" cy="4.8101722725457225"></circle><circle class="pearl" r="2.190433937142651" cx="15.977301848497074" cy="16.31933917284194"></circle><circle class="pearl" r="2.190433937142651" cx="4.76236156709451" cy="9.493702017842043"></circle><circle class="pearl" r="2.190433937142651" cx="16.10679610585733" cy="5.868501871674468"></circle></g><g class="bobaCup bright" cupRadius="10.581274514363612" width="21.162549028727224" height="21.162549028727224" pearlRadius="2.7380424214283137" pearlCount="5" transform="translate(261.85997333178625,104.13672497025635)"><circle class="pool" r="10.581274514363612" cx="10.581274514363612" cy="10.581274514363612" style="stroke-width: 1; fill: rgb(29, 145, 192);"></circle><circle class="pearl" r="2.190433937142651" cx="16.150647975822185" cy="7.840290385484761"></circle><circle class="pearl" r="2.190433937142651" cx="7.624703835750763" cy="16.0903770801006"></circle><circle class="pearl" r="2.190433937142651" cx="9.804361584353249" cy="4.679283559014827"></circle><circle class="pearl" r="2.190433937142651" cx="15.298168746991362" cy="15.402313484376482"></circle><circle class="pearl" r="2.190433937142651" cx="4.698504716495792" cy="9.576836855629207"></circle></g><g class="bobaCup bright" cupRadius="10.571501821671472" width="21.143003643342944" height="21.143003643342944" pearlRadius="2.7380424214283132" pearlCount="5" transform="translate(243.00417690928177,162.27461037264698)"><circle class="pool" r="10.571501821671472" cx="10.571501821671472" cy="10.571501821671472" style="stroke-width: 1; fill: rgb(127, 205, 187);"></circle><circle class="pearl" r="2.1904339371426507" cx="16.13074532701177" cy="7.830474631360117"></circle><circle class="pearl" r="2.1904339371426507" cx="7.609814285960411" cy="16.06893397752454"></circle><circle class="pearl" r="2.1904339371426507" cx="9.796964006190388" cy="4.679135278359124"></circle><circle class="pearl" r="2.1904339371426507" cx="15.27992177262471" cy="15.38584237160018"></circle><circle class="pearl" r="2.1904339371426507" cx="4.698922198911714" cy="9.563162660091685"></circle></g><g class="bobaCup bright" cupRadius="10.507969295720025" width="21.01593859144005" height="21.01593859144005" pearlRadius="2.7380424214283137" pearlCount="5" transform="translate(69.38215593822362,193.1013630306281)"><circle class="pool" r="10.507969295720025" cx="10.507969295720025" cy="10.507969295720025" style="stroke-width: 1; fill: rgb(29, 145, 192);"></circle><circle class="pearl" r="2.190433937142651" cx="16.001566651963913" cy="7.767498790077969"></circle><circle class="pearl" r="2.190433937142651" cx="7.51170586640543" cy="15.92897998847285"></circle><circle class="pearl" r="2.190433937142651" cx="9.750606707789132" cy="4.6780522466078125"></circle><circle class="pearl" r="2.190433937142651" cx="15.161155234153728" cy="15.278778816237999"></circle><circle class="pearl" r="2.190433937142651" cx="4.7018595186494405" cy="9.472564924511458"></circle></g><g class="bobaCup bright" cupRadius="10.356396295318177" width="20.712792590636354" height="20.712792590636354" pearlRadius="2.738042421428314" pearlCount="5" transform="translate(226.4656717135746,125.07659289528263)"><circle class="pool" r="10.356396295318177" cx="10.356396295318177" cy="10.356396295318177" style="stroke-width: 1; fill: rgb(29, 145, 192);"></circle><circle class="pearl" r="2.1904339371426516" cx="15.695481959716123" cy="7.625341094917254"></circle><circle class="pearl" r="2.1904339371426516" cx="7.266087372085824" cy="15.590253734872096"></circle><circle class="pearl" r="2.1904339371426516" cx="9.655722316249708" cy="4.6744528690156795"></circle><circle class="pearl" r="2.1904339371426516" cx="14.876450234516536" cy="15.023615790997841"></circle><circle class="pearl" r="2.1904339371426516" cx="4.710955721572542" cy="9.241068907712647"></circle></g><g class="bobaCup bright" cupRadius="10.251540073685163" width="20.503080147370326" height="20.503080147370326" pearlRadius="2.7380424214283132" pearlCount="5" transform="translate(212.4813287084576,67.75728074606943)"><circle class="pool" r="10.251540073685163" cx="10.251540073685163" cy="10.251540073685163" style="stroke-width: 1; fill: rgb(29, 145, 192);"></circle><circle class="pearl" r="2.1904339371426507" cx="15.486633064841254" cy="7.537739868778423"></circle><circle class="pearl" r="2.1904339371426507" cx="7.082511021264542" cy="15.350243943527957"></circle><circle class="pearl" r="2.1904339371426507" cx="9.609396452438652" cy="4.670854530632213"></circle><circle class="pearl" r="2.1904339371426507" cx="14.67772571956775" cy="14.847597609821097"></circle><circle class="pearl" r="2.1904339371426507" cx="4.7199499506456535" cy="9.062183654445978"></circle></g><g class="bobaCup bright" cupRadius="10.105315630121067" width="20.210631260242135" height="20.210631260242135" pearlRadius="2.7380424214283137" pearlCount="5" transform="translate(231.82029150822356,185.50563391242522)"><circle class="pool" r="10.105315630121067" cx="10.105315630121067" cy="10.105315630121067" style="stroke-width: 1; fill: rgb(65, 182, 196);"></circle><circle class="pearl" r="2.190433937142651" cx="15.203265070568193" cy="7.444341151343318"></circle><circle class="pearl" r="2.190433937142651" cx="6.794601219559151" cy="15.002187600136214"></circle><circle class="pearl" r="2.190433937142651" cx="9.592420155022356" cy="4.663747631424064"></circle><circle class="pearl" r="2.190433937142651" cx="14.395975314505112" cy="14.603780532590385"></circle><circle class="pearl" r="2.190433937142651" cx="4.7397198297391245" cy="8.767123904469381"></circle></g><g class="bobaCup bright" cupRadius="10.098201710644757" width="20.196403421289514" height="20.196403421289514" pearlRadius="2.738042421428314" pearlCount="5" transform="translate(176.1805927523171,259.82559983664964)"><circle class="pool" r="10.098201710644757" cx="10.098201710644757" cy="10.098201710644757" style="stroke-width: 1; fill: rgb(29, 145, 192);"></circle><circle class="pearl" r="2.1904339371426516" cx="15.18984907983086" cy="7.441155808740741"></circle><circle class="pearl" r="2.1904339371426516" cx="6.779201802405614" cy="14.984664513497055"></circle><circle class="pearl" r="2.1904339371426516" cx="9.59374928516152" cy="4.663330978556273"></circle><circle class="pearl" r="2.1904339371426516" cx="14.382052999921715" cy="14.592001209927151"></circle><circle class="pearl" r="2.1904339371426516" cx="4.741028365868585" cy="8.750728532413385"></circle></g><g class="bobaCup bright" cupRadius="9.949424983421236" width="19.898849966842473" height="19.898849966842473" pearlRadius="2.7380424214283132" pearlCount="4" transform="translate(190.5382516240944,167.34464174438776)"><circle class="pool" r="9.949424983421236" cx="9.949424983421236" cy="9.949424983421236" style="stroke-width: 1; fill: rgb(127, 205, 187);"></circle><circle class="pearl" r="2.1904339371426507" cx="14.653069717105094" cy="6.560198297661639"></circle><circle class="pearl" r="2.1904339371426507" cx="5.8569759809837345" cy="13.110689001158583"></circle><circle class="pearl" r="2.1904339371426507" cx="6.779944783597076" cy="5.169058520782229"></circle><circle class="pearl" r="2.1904339371426507" cx="13.730100914492638" cy="14.501828778038739"></circle></g><g class="bobaCup bright" cupRadius="9.935684646826594" width="19.87136929365319" height="19.87136929365319" pearlRadius="2.738042421428314" pearlCount="4" transform="translate(174.39743239301626,114.25788897104678)"><circle class="pool" r="9.935684646826594" cx="9.935684646826594" cy="9.935684646826594" style="stroke-width: 1; fill: rgb(127, 205, 187);"></circle><circle class="pearl" r="2.1904339371426516" cx="14.619602911171182" cy="6.532407167701098"></circle><circle class="pearl" r="2.1904339371426516" cx="5.830862959290272" cy="13.121920677048882"></circle><circle class="pearl" r="2.1904339371426516" cx="6.73995723953279" cy="5.1786899938146576"></circle><circle class="pearl" r="2.1904339371426516" cx="13.710508630929402" cy="14.475637850935964"></circle></g><g class="bobaCup bright" cupRadius="9.626082195423663" width="19.252164390847327" height="19.252164390847327" pearlRadius="2.7380424214283137" pearlCount="4" transform="translate(85.07901814055292,172.55160598681505)"><circle class="pool" r="9.626082195423663" cx="9.626082195423663" cy="9.626082195423663" style="stroke-width: 1; fill: rgb(29, 145, 192);"></circle><circle class="pearl" r="2.190433937142651" cx="13.82667067579058" cy="5.842467592392657"></circle><circle class="pearl" r="2.190433937142651" cx="5.4254937150567475" cy="13.409696798454672"></circle><circle class="pearl" r="2.190433937142651" cx="5.842467592392657" cy="5.425493715056746"></circle><circle class="pearl" r="2.190433937142651" cx="13.409696798454672" cy="13.826670675790577"></circle></g><g class="bobaCup bright" cupRadius="9.463358297464554" width="18.926716594929108" height="18.926716594929108" pearlRadius="2.738042421428314" pearlCount="4" transform="translate(54.70146758704132,62.095300384680385)"><circle class="pool" r="9.463358297464554" cx="9.463358297464554" cy="9.463358297464554" style="stroke-width: 1; fill: rgb(65, 182, 196);"></circle><circle class="pearl" r="2.1904339371426516" cx="13.401366513916482" cy="5.509010837578261"></circle><circle class="pearl" r="2.1904339371426516" cx="5.525310263860181" cy="13.417687535393366"></circle><circle class="pearl" r="2.1904339371426516" cx="5.525367092409736" cy="5.509003052535114"></circle><circle class="pearl" r="2.1904339371426516" cx="13.401309683657832" cy="13.417731764815581"></circle></g><g class="bobaCup bright" cupRadius="9.308245692372992" width="18.616491384745984" height="18.616491384745984" pearlRadius="2.738042421428314" pearlCount="4" transform="translate(103.67593368682564,193.88416764643645)"><circle class="pool" r="9.308245692372992" cx="9.308245692372992" cy="9.308245692372992" style="stroke-width: 1; fill: rgb(29, 145, 192);"></circle><circle class="pearl" r="2.1904339371426516" cx="13.102538937597142" cy="5.459158532539712"></circle><circle class="pearl" r="2.1904339371426516" cx="5.513469513310611" cy="13.157117255343504"></circle><circle class="pearl" r="2.1904339371426516" cx="5.514160196556952" cy="5.459065796789147"></circle><circle class="pearl" r="2.1904339371426516" cx="13.101848000203699" cy="13.157641251183758"></circle></g><g class="bobaCup bright" cupRadius="9.199641509884293" width="18.399283019768585" height="18.399283019768585" pearlRadius="2.738042421428314" pearlCount="4" transform="translate(39.519997868555286,150.38777329092989)"><circle class="pool" r="9.199641509884293" cx="9.199641509884293" cy="9.199641509884293" style="stroke-width: 1; fill: rgb(29, 145, 192);"></circle><circle class="pearl" r="2.1904339371426516" cx="12.893580475005553" cy="5.424914077965754"></circle><circle class="pearl" r="2.1904339371426516" cx="5.504594019237967" cy="12.973882848138071"></circle><circle class="pearl" r="2.1904339371426516" cx="5.506181895214029" cy="5.424703934388676"></circle><circle class="pearl" r="2.1904339371426516" cx="12.891991248908479" cy="12.975065521607206"></circle></g><g class="bobaCup bright" cupRadius="9.093175888093203" width="18.186351776186406" height="18.186351776186406" pearlRadius="2.7380424214283132" pearlCount="4" transform="translate(220.3349198710046,211.71851718090923)"><circle class="pool" r="9.093175888093203" cx="9.093175888093203" cy="9.093175888093203" style="stroke-width: 1; fill: rgb(65, 182, 196);"></circle><circle class="pearl" r="2.1904339371426507" cx="12.688965456796527" cy="5.391884682445201"></circle><circle class="pearl" r="2.1904339371426507" cx="5.495389805163177" cy="12.793607252347869"></circle><circle class="pearl" r="2.1904339371426507" cx="5.4982543479897545" cy="5.391511023891067"></circle><circle class="pearl" r="2.1904339371426507" cx="12.68609649641547" cy="12.795701682153538"></circle></g><g class="bobaCup bright" cupRadius="8.671643960548247" width="17.343287921096493" height="17.343287921096493" pearlRadius="2.738042421428314" pearlCount="3" transform="translate(231.60969658549743,137.5917419178106)"><circle class="pool" r="8.671643960548247" cx="8.671643960548247" cy="8.671643960548247" style="stroke-width: 1; fill: rgb(65, 182, 196);"></circle><circle class="pearl" r="2.1904339371426516" cx="12.814167168312066" cy="10.155071511653876"></circle><circle class="pearl" r="2.1904339371426516" cx="4.878447215348438" cy="11.720817635466783"></circle><circle class="pearl" r="2.1904339371426516" cx="8.142465499337657" cy="3.666884583585214"></circle></g><g class="bobaCup bright" cupRadius="8.634440861156337" width="17.268881722312674" height="17.268881722312674" pearlRadius="2.738042421428314" pearlCount="3" transform="translate(117.60511498570973,157.9645426625283)"><circle class="pool" r="8.634440861156337" cx="8.634440861156337" cy="8.634440861156337" style="stroke-width: 1; fill: rgb(29, 145, 192);"></circle><circle class="pearl" r="2.1904339371426516" cx="12.790935949528173" cy="10.133111934390195"></circle><circle class="pearl" r="2.1904339371426516" cx="4.846418924314615" cy="11.673549289985193"></circle><circle class="pearl" r="2.1904339371426516" cx="8.087243365362458" cy="3.6680796706560224"></circle></g><g class="bobaCup bright" cupRadius="8.607237048041465" width="17.21447409608293" height="17.21447409608293" pearlRadius="2.7380424214283132" pearlCount="3" transform="translate(92.26170333985223,184.6060853074606)"><circle class="pool" r="8.607237048041465" cx="8.607237048041465" cy="8.607237048041465" style="stroke-width: 1; fill: rgb(127, 205, 187);"></circle><circle class="pearl" r="2.1904339371426507" cx="12.773924455869965" cy="10.116941865803696"></circle><circle class="pearl" r="2.1904339371426507" cx="4.823035252223347" cy="11.63897729762715"></circle><circle class="pearl" r="2.1904339371426507" cx="8.046851660139033" cy="3.6689849117507416"></circle></g><g class="bobaCup bright" cupRadius="8.51163738882573" width="17.02327477765146" height="17.02327477765146" pearlRadius="2.7380424214283132" pearlCount="3" transform="translate(164.28159567808441,41.082120918356836)"><circle class="pool" r="8.51163738882573" cx="8.51163738882573" cy="8.51163738882573" style="stroke-width: 1; fill: rgb(29, 145, 192);"></circle><circle class="pearl" r="2.1904339371426507" cx="12.713976692899674" cy="10.059360458115261"></circle><circle class="pearl" r="2.1904339371426507" cx="4.741099506263997" cy="11.51743290393949"></circle><circle class="pearl" r="2.1904339371426507" cx="7.90483389017433" cy="3.6723806084167867"></circle></g><g class="bobaCup bright" cupRadius="8.493576092882584" width="16.98715218576517" height="16.98715218576517" pearlRadius="2.738042421428314" pearlCount="3" transform="translate(297.7144678224789,282.9674069395728)"><circle class="pool" r="8.493576092882584" cx="8.493576092882584" cy="8.493576092882584" style="stroke-width: 1; fill: rgb(29, 145, 192);"></circle><circle class="pearl" r="2.1904339371426516" cx="12.702621438383954" cy="10.048349301829266"></circle><circle class="pearl" r="2.1904339371426516" cx="4.725660975801549" cy="11.494461515297317"></circle><circle class="pearl" r="2.1904339371426516" cx="7.877991239010217" cy="3.673060325104345"></circle></g><g class="bobaCup bright" cupRadius="8.482066397456476" width="16.964132794912953" height="16.964132794912953" pearlRadius="2.7380424214283137" pearlCount="3" transform="translate(192.2736954414559,38.78872937566192)"><circle class="pool" r="8.482066397456476" cx="8.482066397456476" cy="8.482066397456476" style="stroke-width: 1; fill: rgb(65, 182, 196);"></circle><circle class="pearl" r="2.190433937142651" cx="12.695380243382589" cy="10.041310359086026"></circle><circle class="pearl" r="2.190433937142651" cx="4.715829423479667" cy="11.479821506299537"></circle><circle class="pearl" r="2.190433937142651" cx="7.860883767722209" cy="3.6734999093092178"></circle></g><g class="bobaCup bright" cupRadius="8.105184612623008" width="16.210369225246016" height="16.210369225246016" pearlRadius="2.738042421428314" pearlCount="3" transform="translate(49.16589570045191,14.525203564646082)"><circle class="pool" r="8.105184612623008" cx="8.105184612623008" cy="8.105184612623008" style="stroke-width: 1; fill: rgb(65, 182, 196);"></circle><circle class="pearl" r="2.1904339371426516" cx="12.364984102753098" cy="9.870870859274254"></circle><circle class="pearl" r="2.1904339371426516" cx="4.344876272465339" cy="11.123870794592166"></circle><circle class="pearl" r="2.1904339371426516" cx="7.291657348818768" cy="3.691653939204898"></circle></g><g class="bobaCup bright" cupRadius="7.768934677643422" width="15.537869355286844" height="15.537869355286844" pearlRadius="2.7380424214283146" pearlCount="3" transform="translate(93.75372745476861,209.5726623597408)"><circle class="pool" r="7.768934677643422" cx="7.768934677643422" cy="7.768934677643422" style="stroke-width: 1; fill: rgb(127, 205, 187);"></circle><circle class="pearl" r="2.1904339371426516" cx="11.789687931757499" cy="8.995635375083108"></circle><circle class="pearl" r="2.1904339371426516" cx="4.487676054582898" cy="11.16020604393546"></circle><circle class="pearl" r="2.1904339371426516" cx="5.937178145927226" cy="3.869756315199857"></circle></g><g class="bobaCup bright" cupRadius="7.762585572732564" width="15.525171145465128" height="15.525171145465128" pearlRadius="2.7380424214283137" pearlCount="3" transform="translate(119.13646312149233,201.3589131126095)"><circle class="pool" r="7.762585572732564" cx="7.762585572732564" cy="7.762585572732564" style="stroke-width: 1; fill: rgb(65, 182, 196);"></circle><circle class="pearl" r="2.190433937142651" cx="11.779196389266474" cy="8.974907070838412"></circle><circle class="pearl" r="2.190433937142651" cx="4.488831482576317" cy="11.150347190432088"></circle><circle class="pearl" r="2.190433937142651" cx="5.91226032892121" cy="3.8744739267285198"></circle></g><g class="bobaCup bright" cupRadius="7.565560368110714" width="15.131120736221428" height="15.131120736221428" pearlRadius="2.7380424214283137" pearlCount="2" transform="translate(241.3599577257034,168.68035161044222)"><circle class="pool" r="7.565560368110714" cx="7.565560368110714" cy="7.565560368110714" style="stroke-width: 1; fill: rgb(29, 145, 192);"></circle><circle class="pearl" r="2.190433937142651" cx="11.277495738797727" cy="6.756125715362901"></circle><circle class="pearl" r="2.190433937142651" cx="4.362313147056542" cy="10.768807589164886"></circle></g><g class="bobaCup bright" cupRadius="7.3499161663463175" width="14.699832332692635" height="14.699832332692635" pearlRadius="2.7380424214283137" pearlCount="2" transform="translate(12.650083833653682,76.94772225889866)"><circle class="pool" r="7.3499161663463175" cx="7.3499161663463175" cy="7.3499161663463175" style="stroke-width: 1; fill: rgb(65, 182, 196);"></circle><circle class="pearl" r="2.190433937142651" cx="10.896449906100996" cy="5.85969477869776"></circle><circle class="pearl" r="2.190433937142651" cx="4.309203311425812" cy="10.390630226298539"></circle></g><g class="bobaCup bright" cupRadius="7.343530868850255" width="14.68706173770051" height="14.68706173770051" pearlRadius="2.7380424214283137" pearlCount="2" transform="translate(229.53902715805376,51.58892010312118)"><circle class="pool" r="7.343530868850255" cx="7.343530868850255" cy="7.343530868850255" style="stroke-width: 1; fill: rgb(127, 205, 187);"></circle><circle class="pearl" r="2.190433937142651" cx="10.877156991232486" cy="5.822817212301706"></circle><circle class="pearl" r="2.190433937142651" cx="4.307640608814164" cy="10.379422325661794"></circle></g><g class="bobaCup bright" cupRadius="7.256819718575951" width="14.513639437151902" height="14.513639437151902" pearlRadius="2.7380424214283137" pearlCount="2" transform="translate(26.905894151742192,223.1243292406516)"><circle class="pool" r="7.256819718575951" cx="7.256819718575951" cy="7.256819718575951" style="stroke-width: 1; fill: rgb(127, 205, 187);"></circle><circle class="pearl" r="2.190433937142651" cx="10.600354065903872" cy="5.322448143647261"></circle><circle class="pearl" r="2.190433937142651" cx="4.286478570653515" cy="10.227161804051509"></circle></g><g class="bobaCup bright" cupRadius="7.092002528121011" width="14.184005056242022" height="14.184005056242022" pearlRadius="2.7380424214283137" pearlCount="2" transform="translate(249.68698007156073,146.4052588430884)"><circle class="pool" r="7.092002528121011" cx="7.092002528121011" cy="7.092002528121011" style="stroke-width: 1; fill: rgb(65, 182, 196);"></circle><circle class="pearl" r="2.190433937142651" cx="9.994236815798114" cy="4.379946546191217"></circle><circle class="pearl" r="2.190433937142651" cx="4.246571658843045" cy="9.937433779473787"></circle></g><g class="bobaCup bright" cupRadius="6.941977895183719" width="13.883955790367438" height="13.883955790367438" pearlRadius="2.7380424214283137" pearlCount="2" transform="translate(72.17014283026651,183.62033670913883)"><circle class="pool" r="6.941977895183719" cx="6.941977895183719" cy="6.941977895183719" style="stroke-width: 1; fill: rgb(65, 182, 196);"></circle><circle class="pearl" r="2.190433937142651" cx="9.649030119309689" cy="4.2002895793473245"></circle><circle class="pearl" r="2.190433937142651" cx="4.234925671057749" cy="9.683666211020114"></circle></g><g class="bobaCup bright" cupRadius="6.489350004667815" width="12.97870000933563" height="12.97870000933563" pearlRadius="2.7380424214283132" pearlCount="2" transform="translate(226.67191008019205,284.8598127558869)"><circle class="pool" r="6.489350004667815" cx="6.489350004667815" cy="6.489350004667815" style="stroke-width: 1; fill: rgb(127, 205, 187);"></circle><circle class="pearl" r="2.1904339371426507" cx="8.764873544896979" cy="4.0627665846531045"></circle><circle class="pearl" r="2.1904339371426507" cx="4.213826464438651" cy="8.915933424682525"></circle></g><g class="bobaCup bright" cupRadius="6.397050251778413" width="12.794100503556827" height="12.794100503556827" pearlRadius="2.7380424214283132" pearlCount="2" transform="translate(70.51833908987265,204.46046866470283)"><circle class="pool" r="6.397050251778413" cx="6.397050251778413" cy="6.397050251778413" style="stroke-width: 1; fill: rgb(65, 182, 196);"></circle><circle class="pearl" r="2.1904339371426507" cx="8.58463875540442" cy="4.036391903492011"></circle><circle class="pearl" r="2.1904339371426507" cx="4.209461748152406" cy="8.757708600064813"></circle></g><g class="bobaCup bright" cupRadius="4.132695503337218" width="8.265391006674436" height="8.265391006674436" pearlRadius="2.7380424214283137" pearlCount="0" transform="translate(122.65669418289943,217.24805749037384)"><circle class="pool" r="4.132695503337218" cx="4.132695503337218" cy="4.132695503337218" style="stroke-width: 1; fill: rgb(127, 205, 187);"></circle></g><g class="bobaCup bright" cupRadius="3.485606061328364" width="6.971212122656728" height="6.971212122656728" pearlRadius="2.7380424214283137" pearlCount="0" transform="translate(79.34621684201224,188.71403044718127)"><circle class="pool" r="3.485606061328364" cx="3.485606061328364" cy="3.485606061328364" style="stroke-width: 1; fill: rgb(29, 145, 192);"></circle></g><g class="bobaCup bright" cupRadius="0" width="0" height="0" pearlRadius="NaN" pearlCount="0" transform="translate(195.1962949832469,48.84123653580997)"><circle class="pool" r="0" cx="0" cy="0" style="stroke-width: 1; fill: rgb(127, 205, 187);"></circle></g></g><g id="legendDividerGroup" transform="translate(410,0)" height="400"><rect class="legendDivider" height="400" width="90"></rect></g><g id="legend" transform="translate(410,15.503973307961502)" width="90" height="320"><rect class="legendBorder" transform="translate(0,0)" width="90" height="348.992053384077"></rect><text id="rTitle" text-anchor="middle" alignment-baseline="hanging" transform="translate(45,0)" x="0" y="0" style="fill: black; font-size: 0.8rem;">Population</text><text id="bobaValue" text-anchor="middle" alignment-baseline="hanging" transform="translate(45,15)" x="0" y="0" style="fill: black; font-size: 0.7rem;">(1 Pearl =   75)</text><g class="bright" cupRadius="3.485606061328364" width="6.971212122656728" height="6.971212122656728" pearlRadius="2.7380424214283137" pearlCount="0" transform="translate(41.51439393867164,40)"><circle class="pool" r="3.485606061328364" cx="3.485606061328364" cy="3.485606061328364" style="stroke-width: 1; fill: rgb(29, 145, 192);"></circle></g><text id="0" class="legendSampleValue" text-anchor="middle" transform="translate(45,8)" x="0" y="51.97121212265673" style="fill: black; font-size: 0.7rem;">  46</text><g class="bright" cupRadius="9.472040946481133" width="18.944081892962267" height="18.944081892962267" pearlRadius="2.7380424214283132" pearlCount="4" transform="translate(35.52795905351887,71.97121212265672)"><circle class="pool" r="9.472040946481133" cx="9.472040946481133" cy="9.472040946481133" style="stroke-width: 1; fill: rgb(29, 145, 192);"></circle><circle class="pearl" r="2.1904339371426507" cx="13.418106644653914" cy="5.511833609920516"></circle><circle class="pearl" r="2.1904339371426507" cx="5.5259455453562" cy="13.432234671233655"></circle><circle class="pearl" r="2.1904339371426507" cx="5.525987933888845" cy="5.511827796607272"></circle><circle class="pearl" r="2.1904339371426507" cx="13.418064255170716" cy="13.432267708421765"></circle></g><text id="1" class="legendSampleValue" text-anchor="middle" transform="translate(45,8)" x="0" y="95.915294015619" style="fill: black; font-size: 0.7rem;"> 340</text><g class="bright" cupRadius="12.934050787315684" width="25.868101574631368" height="25.868101574631368" pearlRadius="2.7380424214283137" pearlCount="8" transform="translate(32.065949212684316,115.91529401561901)"><circle class="pool" r="12.934050787315684" cx="12.934050787315684" cy="12.934050787315684" style="stroke-width: 1; fill: rgb(29, 145, 192);"></circle><circle class="pearl" r="2.190433937142651" cx="13.722270074793197" cy="12.971037200817753"></circle><circle class="pearl" r="2.190433937142651" cx="6.717882789530512" cy="19.625678513999553"></circle><circle class="pearl" r="2.190433937142651" cx="14.346932720041734" cy="4.72812459183239"></circle><circle class="pearl" r="2.190433937142651" cx="20.617815841021912" cy="16.826359688626713"></circle><circle class="pearl" r="2.190433937142651" cx="4.653060666681702" cy="13.179936172918337"></circle><circle class="pearl" r="2.190433937142651" cx="20.57575863835828" cy="8.910891839199282"></circle><circle class="pearl" r="2.190433937142651" cx="14.321829841111636" cy="21.14271086692492"></circle><circle class="pearl" r="2.190433937142651" cx="6.7465837413560665" cy="6.226740677142546"></circle></g><text id="2" class="legendSampleValue" text-anchor="middle" transform="translate(45,8)" x="0" y="146.78339559025036" style="fill: black; font-size: 0.7rem;"> 630</text><g class="bright" cupRadius="15.647996032908098" width="31.295992065816197" height="31.295992065816197" pearlRadius="2.7380424214283137" pearlCount="12" transform="translate(29.352003967091903,166.78339559025036)"><circle class="pool" r="15.647996032908098" cx="15.647996032908098" cy="15.647996032908098" style="stroke-width: 1; fill: rgb(29, 145, 192);"></circle><circle class="pearl" r="2.190433937142651" cx="17.587484577632896" cy="11.2402720273833"></circle><circle class="pearl" r="2.190433937142651" cx="11.584420730683327" cy="16.397985180548506"></circle><circle class="pearl" r="2.190433937142651" cx="14.453979996910231" cy="4.69634426432931"></circle><circle class="pearl" r="2.190433937142651" cx="18.471016138525837" cy="18.60505148649303"></circle><circle class="pearl" r="2.190433937142651" cx="4.695676299282567" cy="14.46274071621289"></circle><circle class="pearl" r="2.190433937142651" cx="26.570523033435077" cy="14.120364811767109"></circle><circle class="pearl" r="2.190433937142651" cx="12.427044557017066" cy="26.310184070189205"></circle><circle class="pearl" r="2.190433937142651" cx="7.197058117758878" cy="7.129002931952533"></circle><circle class="pearl" r="2.190433937142651" cx="25.396278939403743" cy="21.774038978253675"></circle><circle class="pearl" r="2.190433937142651" cx="6.027786259390462" cy="22.066738206870422"></circle><circle class="pearl" r="2.190433937142651" cx="23.9605474386153" cy="7.0412206673482824"></circle><circle class="pearl" r="2.190433937142651" cx="20.09396632741129" cy="26.00037674939794"></circle></g><text id="3" class="legendSampleValue" text-anchor="middle" transform="translate(45,8)" x="0" y="203.07938765606656" style="fill: black; font-size: 0.7rem;"> 920</text><g class="bright" cupRadius="17.956332864005216" width="35.91266572801043" height="35.91266572801043" pearlRadius="2.738042421428313" pearlCount="16" transform="translate(27.043667135994784,223.07938765606656)"><circle class="pool" r="17.956332864005216" cx="17.956332864005216" cy="17.956332864005216" style="stroke-width: 1; fill: rgb(29, 145, 192);"></circle><circle class="pearl" r="2.1904339371426502" cx="18.682291173191448" cy="18.74215825939139"></circle><circle class="pearl" r="2.1904339371426502" cx="13.521377522654085" cy="23.55023591911595"></circle><circle class="pearl" r="2.1904339371426502" cx="16.451867234463162" cy="11.302897490438648"></circle><circle class="pearl" r="2.1904339371426502" cx="20.661452100347077" cy="26.186957652664702"></circle><circle class="pearl" r="2.1904339371426502" cx="11.046724024222627" cy="16.66617984356541"></circle><circle class="pearl" r="2.1904339371426502" cx="23.358446106795505" cy="13.482097661475443"></circle><circle class="pearl" r="2.1904339371426502" cx="14.995624479635968" cy="31.016174160193906"></circle><circle class="pearl" r="2.1904339371426502" cx="11.402608593361537" cy="5.889442982226791"></circle><circle class="pearl" r="2.1904339371426502" cx="26.295699009822226" cy="20.72619988390784"></circle><circle class="pearl" r="2.1904339371426502" cx="5.026310719934637" cy="21.60972609021185"></circle><circle class="pearl" r="2.1904339371426502" cx="27.732663627690467" cy="7.545407885226112"></circle><circle class="pearl" r="2.1904339371426502" cx="27.99165437776043" cy="28.19594918960534"></circle><circle class="pearl" r="2.1904339371426502" cx="6.154331846853745" cy="10.763436728430408"></circle><circle class="pearl" r="2.1904339371426502" cx="30.981361004959904" cy="14.794418341811188"></circle><circle class="pearl" r="2.1904339371426502" cx="8.224522801062278" cy="28.39606233976863"></circle><circle class="pearl" r="2.1904339371426502" cx="20.694367679552137" cy="4.860702797552369"></circle></g><text id="4" class="legendSampleValue" text-anchor="middle" transform="translate(45,8)" x="0" y="263.992053384077" style="fill: black; font-size: 0.7rem;">1.2k</text><g class="bright" cupRadius="20" width="40" height="40" pearlRadius="2.7380424214283137" pearlCount="20" transform="translate(25,283.992053384077)"><circle class="pool" r="20" cx="20" cy="20" style="stroke-width: 1; fill: rgb(29, 145, 192);"></circle><circle class="pearl" r="2.190433937142651" cx="20.803317911356498" cy="19.852362298934615"></circle><circle class="pearl" r="2.190433937142651" cx="12.399118369231148" cy="22.318129073543428"></circle><circle class="pearl" r="2.190433937142651" cx="20.14107886386132" cy="11.690576671380018"></circle><circle class="pearl" r="2.190433937142651" cx="25.351645945468196" cy="26.426489948513225"></circle><circle class="pearl" r="2.190433937142651" cx="5.45555413244983" cy="14.383463400696877"></circle><circle class="pearl" r="2.190433937142651" cx="27.007002384921414" cy="14.812215198670392"></circle><circle class="pearl" r="2.190433937142651" cx="17.669394065840073" cy="27.98572181627974"></circle><circle class="pearl" r="2.190433937142651" cx="13.075316060454844" cy="14.529673081448232"></circle><circle class="pearl" r="2.190433937142651" cx="31.363412690087696" cy="21.539471699750266"></circle><circle class="pearl" r="2.190433937142651" cx="6.986823167406808" cy="29.380119115938808"></circle><circle class="pearl" r="2.190433937142651" cx="24.195863946736896" cy="5.095807587217031"></circle><circle class="pearl" r="2.190433937142651" cx="27.929986347293504" cy="33.70997709935047"></circle><circle class="pearl" r="2.190433937142651" cx="8.960309851298339" cy="7.973635910317352"></circle><circle class="pearl" r="2.190433937142651" cx="34.68553340637696" cy="14.890285786129768"></circle><circle class="pearl" r="2.190433937142651" cx="12.548559824642552" cy="33.90934248556552"></circle><circle class="pearl" r="2.190433937142651" cx="16.437930987710008" cy="4.970487855189916"></circle><circle class="pearl" r="2.190433937142651" cx="33.26719371328966" cy="28.885282914155283"></circle><circle class="pearl" r="2.190433937142651" cx="4.745924110358729" cy="21.949095191008542"></circle><circle class="pearl" r="2.190433937142651" cx="31.34694409707199" cy="8.181149473979769"></circle><circle class="pearl" r="2.190433937142651" cx="20.521343379892976" cy="35.34248064375117"></circle></g><text id="5" class="legendSampleValue" text-anchor="middle" transform="translate(45,8)" x="0" y="328.992053384077" style="fill: black; font-size: 0.7rem;">1.5k</text><text id="coloringDisclaimer" transform="translate(45,8)" text-anchor="middle" x="0" y="343.992053384077" style="font-size: 0.7rem; opacity: 0.6;">(note: coloring</text><text id="coloringDisclaimer" transform="translate(45,8)" text-anchor="middle" x="0" y="358.992053384077" style="font-size: 0.7rem; opacity: 0.6;">is random)</text></g></svg>