<?xml version="1.0" standalone="no"?>
<?xml-stylesheet xmlns="http://www.w3.org/2000/svg" type="text/css" href="style.css"?>
<svg id="syntheticVisB" class="default" xTitle="Percent Cat Owners" yTitle="Percent Dog Owners" rTitle="Population" chartTitle="Towns in Vizzyland" width="500" height="400" xmlns="http://www.w3.org/2000/svg"><text id="chartTitle" text-anchor="middle" transform="translate(250,20)" x="0" y="0" style="fill: black; font-size: 1.2rem;">Towns in Vizzyland</text><g id="yAxis" transform="translate(50,30)" fill="none" font-size="10" font-family="sans-serif" text-anchor="end"><path class="domain" stroke="currentColor" d="M-6,300H0V20H-6"></path><g class="tick" opacity="1" transform="translate(0,300)"><line stroke="currentColor" x2="-6"></line><text fill="currentColor" x="-9" dy="0.32em">0</text></g><g class="tick" opacity="1" transform="translate(0,272)"><line stroke="currentColor" x2="-6"></line><text fill="currentColor" x="-9" dy="0.32em">10</text></g><g class="tick" opacity="1" transform="translate(0,243.99999999999997)"><line stroke="currentColor" x2="-6"></line><text fill="currentColor" x="-9" dy="0.32em">20</text></g><g class="tick" opacity="1" transform="translate(0,216)"><line stroke="currentColor" x2="-6"></line><text fill="currentColor" x="-9" dy="0.32em">30</text></g><g class="tick" opacity="1" transform="translate(0,187.99999999999997)"><line stroke="currentColor" x2="-6"></line><text fill="currentColor" x="-9" dy="0.32em">40</text></g><g class="tick" opacity="1" transform="translate(0,159.99999999999997)"><line stroke="currentColor" x2="-6"></line><text fill="currentColor" x="-9" dy="0.32em">50</text></g><g class="tick" opacity="1" transform="translate(0,131.99999999999997)"><line stroke="currentColor" x2="-6"></line><text fill="currentColor" x="-9" dy="0.32em">60</text></g><g class="tick" opacity="1" transform="translate(0,103.99999999999999)"><line stroke="currentColor" x2="-6"></line><text fill="currentColor" x="-9" dy="0.32em">70</text></g><g class="tick" opacity="1" transform="translate(0,75.99999999999996)"><line stroke="currentColor" x2="-6"></line><text fill="currentColor" x="-9" dy="0.32em">80</text></g><g class="tick" opacity="1" transform="translate(0,47.999999999999964)"><line stroke="currentColor" x2="-6"></line><text fill="currentColor" x="-9" dy="0.32em">90</text></g></g><g id="xAxis" transform="translate(60,360)" fill="none" font-size="10" font-family="sans-serif" text-anchor="middle"><path class="domain" stroke="currentColor" d="M20,6V0H320V6"></path><g class="tick" opacity="1" transform="translate(20,0)"><line stroke="currentColor" y2="6"></line><text fill="currentColor" y="9" dy="0.71em">0</text></g><g class="tick" opacity="1" transform="translate(50,0)"><line stroke="currentColor" y2="6"></line><text fill="currentColor" y="9" dy="0.71em">10</text></g><g class="tick" opacity="1" transform="translate(80,0)"><line stroke="currentColor" y2="6"></line><text fill="currentColor" y="9" dy="0.71em">20</text></g><g class="tick" opacity="1" transform="translate(109.99999999999997,0)"><line stroke="currentColor" y2="6"></line><text fill="currentColor" y="9" dy="0.71em">30</text></g><g class="tick" opacity="1" transform="translate(140,0)"><line stroke="currentColor" y2="6"></line><text fill="currentColor" y="9" dy="0.71em">40</text></g><g class="tick" opacity="1" transform="translate(169.99999999999997,0)"><line stroke="currentColor" y2="6"></line><text fill="currentColor" y="9" dy="0.71em">50</text></g><g class="tick" opacity="1" transform="translate(199.99999999999994,0)"><line stroke="currentColor" y2="6"></line><text fill="currentColor" y="9" dy="0.71em">60</text></g><g class="tick" opacity="1" transform="translate(230,0)"><line stroke="currentColor" y2="6"></line><text fill="currentColor" y="9" dy="0.71em">70</text></g><g class="tick" opacity="1" transform="translate(260,0)"><line stroke="currentColor" y2="6"></line><text fill="currentColor" y="9" dy="0.71em">80</text></g><g class="tick" opacity="1" transform="translate(290,0)"><line stroke="currentColor" y2="6"></line><text fill="currentColor" y="9" dy="0.71em">90</text></g><g class="tick" opacity="1" transform="translate(319.99999999999994,0)"><line stroke="currentColor" y2="6"></line><text fill="currentColor" y="9" dy="0.71em">100</text></g></g><g id="labels"><text id="xTitle" text-anchor="middle" transform="translate(250,350)" x="0" y="40" style="fill: black; font-size: 0.8rem;">Percent Cat Owners</text><g id="group-yTitle" transform="translate(60,190)"><text id="yTitle" text-anchor="middle" transform="rotate(-90)" y="-45" style="fill: black; font-size: 0.8rem;">Percent Dog Owners</text></g></g><g id="quadrant_lines" transform="translate(60,30)"><line id="verticalQuadrantLine" x1="170" y1="10" x2="170" y2="310" class="quadrantLine"></line><line id="horizontalQuadrantLine" x1="10" y1="160" x2="330" y2="160" class="quadrantLine"></line></g><g id="chart" transform="translate(60,30)"><g class="bobaCup bright" cupRadius="20" width="40" height="40" pearlRadius="2.7380424214283137" pearlCount="20" transform="translate(130.8230129379002,6.462288819583641)"><circle class="pool" r="20" cx="20" cy="20" style="stroke-width: 1; fill: rgb(127, 205, 187);"></circle><circle class="pearl" r="2.190433937142651" cx="20.803317911356498" cy="19.852362298934615"></circle><circle class="pearl" r="2.190433937142651" cx="12.399118369231148" cy="22.318129073543428"></circle><circle class="pearl" r="2.190433937142651" cx="20.14107886386132" cy="11.690576671380018"></circle><circle class="pearl" r="2.190433937142651" cx="25.351645945468196" cy="26.426489948513225"></circle><circle class="pearl" r="2.190433937142651" cx="5.45555413244983" cy="14.383463400696877"></circle><circle class="pearl" r="2.190433937142651" cx="27.007002384921414" cy="14.812215198670392"></circle><circle class="pearl" r="2.190433937142651" cx="17.669394065840073" cy="27.98572181627974"></circle><circle class="pearl" r="2.190433937142651" cx="13.075316060454844" cy="14.529673081448232"></circle><circle class="pearl" r="2.190433937142651" cx="31.363412690087696" cy="21.539471699750266"></circle><circle class="pearl" r="2.190433937142651" cx="6.986823167406808" cy="29.380119115938808"></circle><circle class="pearl" r="2.190433937142651" cx="24.195863946736896" cy="5.095807587217031"></circle><circle class="pearl" r="2.190433937142651" cx="27.929986347293504" cy="33.70997709935047"></circle><circle class="pearl" r="2.190433937142651" cx="8.960309851298339" cy="7.973635910317352"></circle><circle class="pearl" r="2.190433937142651" cx="34.68553340637696" cy="14.890285786129768"></circle><circle class="pearl" r="2.190433937142651" cx="12.548559824642552" cy="33.90934248556552"></circle><circle class="pearl" r="2.190433937142651" cx="16.437930987710008" cy="4.970487855189916"></circle><circle class="pearl" r="2.190433937142651" cx="33.26719371328966" cy="28.885282914155283"></circle><circle class="pearl" r="2.190433937142651" cx="4.745924110358729" cy="21.949095191008542"></circle><circle class="pearl" r="2.190433937142651" cx="31.34694409707199" cy="8.181149473979769"></circle><circle class="pearl" r="2.190433937142651" cx="20.521343379892976" cy="35.34248064375117"></circle></g><g class="bobaCup bright" cupRadius="18.946073373680832" width="37.892146747361664" height="37.892146747361664" pearlRadius="2.7380424214283132" pearlCount="17" transform="translate(35.31775039060935,281.05392662631914)"><circle class="pool" r="18.946073373680832" cx="18.946073373680832" cy="18.946073373680832" style="stroke-width: 1; fill: rgb(127, 205, 187);"></circle><circle class="pearl" r="2.1904339371426507" cx="18.92033043502081" cy="18.90798119528091"></circle><circle class="pearl" r="2.1904339371426507" cx="13.98658287141466" cy="24.981761463770162"></circle><circle class="pearl" r="2.1904339371426507" cx="16.294048108931563" cy="11.560844560556555"></circle><circle class="pearl" r="2.1904339371426507" cx="21.54801919015078" cy="26.219114012942008"></circle><circle class="pearl" r="2.1904339371426507" cx="11.258328767704208" cy="17.789208558389728"></circle><circle class="pearl" r="2.1904339371426507" cx="23.82391615618372" cy="12.862824997251234"></circle><circle class="pearl" r="2.1904339371426507" cx="16.41544959267428" cy="32.64069525735214"></circle><circle class="pearl" r="2.1904339371426507" cx="10.516715472600652" cy="6.629191536822236"></circle><circle class="pearl" r="2.1904339371426507" cx="26.608913256069414" cy="20.105821064545246"></circle><circle class="pearl" r="2.1904339371426507" cx="5.042086028589337" cy="22.77705390201974"></circle><circle class="pearl" r="2.1904339371426507" cx="29.645639890860284" cy="7.961165095166884"></circle><circle class="pearl" r="2.1904339371426507" cx="27.37935384659734" cy="31.261005945756622"></circle><circle class="pearl" r="2.1904339371426507" cx="5.855294627398275" cy="12.298306533819332"></circle><circle class="pearl" r="2.1904339371426507" cx="32.84864038838393" cy="15.108220141765218"></circle><circle class="pearl" r="2.1904339371426507" cx="8.232893555377764" cy="29.921657273206318"></circle><circle class="pearl" r="2.1904339371426507" cx="22.137501294831065" cy="4.921452318812306"></circle><circle class="pearl" r="2.1904339371426507" cx="32.03994248605215" cy="25.58558682985111"></circle></g><g class="bobaCup bright" cupRadius="18.813283813755085" width="37.62656762751017" height="37.62656762751017" pearlRadius="2.738042421428314" pearlCount="17" transform="translate(73.33632051350546,232.69410919201204)"><circle class="pool" r="18.813283813755085" cx="18.813283813755085" cy="18.813283813755085" style="stroke-width: 1; fill: rgb(29, 145, 192);"></circle><circle class="pearl" r="2.1904339371426516" cx="18.78174942537537" cy="18.82217457826773"></circle><circle class="pearl" r="2.1904339371426516" cx="13.93961989341505" cy="24.866235218549097"></circle><circle class="pearl" r="2.1904339371426516" cx="16.055287739858716" cy="11.537204670008734"></circle><circle class="pearl" r="2.1904339371426516" cx="21.44068956864048" cy="26.11962851229757"></circle><circle class="pearl" r="2.1904339371426516" cx="11.232475120220146" cy="17.7365019306092"></circle><circle class="pearl" r="2.1904339371426516" cx="23.557499000764032" cy="12.742887230849618"></circle><circle class="pearl" r="2.1904339371426516" cx="16.213428921597526" cy="32.60437010621459"></circle><circle class="pearl" r="2.1904339371426516" cx="10.252234393894888" cy="6.711452589717741"></circle><circle class="pearl" r="2.1904339371426516" cx="26.3406689698167" cy="19.897391502047885"></circle><circle class="pearl" r="2.1904339371426516" cx="5.057566659493126" cy="22.704633231387994"></circle><circle class="pearl" r="2.1904339371426516" cx="29.37255885097675" cy="7.893478517410694"></circle><circle class="pearl" r="2.1904339371426516" cx="27.494202234203097" cy="30.85331560808292"></circle><circle class="pearl" r="2.1904339371426516" cx="5.783560372242409" cy="12.383551828421389"></circle><circle class="pearl" r="2.1904339371426516" cx="32.57474371954388" cy="14.949197882555774"></circle><circle class="pearl" r="2.1904339371426516" cx="8.258763227395596" cy="29.73631231843738"></circle><circle class="pearl" r="2.1904339371426516" cx="21.99217802987027" cy="4.92123811695668"></circle><circle class="pearl" r="2.1904339371426516" cx="31.8828419782675" cy="25.132403626421855"></circle></g><g class="bobaCup bright" cupRadius="18.2717203793406" width="36.5434407586812" height="36.5434407586812" pearlRadius="2.738042421428314" pearlCount="16" transform="translate(68.54660222590388,214.62387454036826)"><circle class="pool" r="18.2717203793406" cx="18.2717203793406" cy="18.2717203793406" style="stroke-width: 1; fill: rgb(127, 205, 187);"></circle><circle class="pearl" r="2.1904339371426516" cx="18.99262730599513" cy="19.0465009665883"></circle><circle class="pearl" r="2.1904339371426516" cx="13.74959104235662" cy="23.99535859441992"></circle><circle class="pearl" r="2.1904339371426516" cx="16.846674167435133" cy="11.468295057200567"></circle><circle class="pearl" r="2.1904339371426516" cx="21.00023287222112" cy="26.68726713772533"></circle><circle class="pearl" r="2.1904339371426516" cx="11.23300593506448" cy="16.930557356874612"></circle><circle class="pearl" r="2.1904339371426516" cx="23.97507249415732" cy="13.769720987656774"></circle><circle class="pearl" r="2.1904339371426516" cx="15.127593904327076" cy="31.620170307610067"></circle><circle class="pearl" r="2.1904339371426516" cx="11.628466312514032" cy="5.901193917468774"></circle><circle class="pearl" r="2.1904339371426516" cx="26.630355576567418" cy="21.139436540616998"></circle><circle class="pearl" r="2.1904339371426516" cx="5.005353278685707" cy="21.854127357221184"></circle><circle class="pearl" r="2.1904339371426516" cx="28.34882637002924" cy="7.680799980230393"></circle><circle class="pearl" r="2.1904339371426516" cx="28.584350383196945" cy="28.7042802159504"></circle><circle class="pearl" r="2.1904339371426516" cx="6.153038336451743" cy="11.016183702957376"></circle><circle class="pearl" r="2.1904339371426516" cx="31.652883581104483" cy="15.320985321035298"></circle><circle class="pearl" r="2.1904339371426516" cx="8.185312274795447" cy="28.856486547877065"></circle><circle class="pearl" r="2.1904339371426516" cx="21.160032166778386" cy="4.88045312350674"></circle></g><g class="bobaCup bright" cupRadius="17.065377109441663" width="34.130754218883325" height="34.130754218883325" pearlRadius="2.7380424214283132" pearlCount="14" transform="translate(281.1938111504357,208.0285674045835)"><circle class="pool" r="17.065377109441663" cx="17.065377109441663" cy="17.065377109441663" style="stroke-width: 1; fill: rgb(127, 205, 187);"></circle><circle class="pearl" r="2.1904339371426507" cx="21.14113270465169" cy="12.972532087465472"></circle><circle class="pearl" r="2.1904339371426507" cx="12.9888138373592" cy="21.159755627202117"></circle><circle class="pearl" r="2.1904339371426507" cx="13.313193707715328" cy="13.329426774066123"></circle><circle class="pearl" r="2.1904339371426507" cx="20.82137275860012" cy="20.797988788688208"></circle><circle class="pearl" r="2.1904339371426507" cx="4.797157733925345" cy="19.296178993754058"></circle><circle class="pearl" r="2.1904339371426507" cx="26.488991821476308" cy="7.488571330958158"></circle><circle class="pearl" r="2.1904339371426507" cx="15.090210830957627" cy="29.365341597296574"></circle><circle class="pearl" r="2.1904339371426507" cx="11.025125799044288" cy="5.755446842785859"></circle><circle class="pearl" r="2.1904339371426507" cx="28.49871495855663" cy="22.76889138896442"></circle><circle class="pearl" r="2.1904339371426507" cx="7.64011060826192" cy="26.641088686161556"></circle><circle class="pearl" r="2.1904339371426507" cx="18.957291902041614" cy="4.755918903104777"></circle><circle class="pearl" r="2.1904339371426507" cx="23.115845307613682" cy="28.371437092732688"></circle><circle class="pearl" r="2.1904339371426507" cx="5.6325424192392" cy="11.360444107125836"></circle><circle class="pearl" r="2.1904339371426507" cx="29.332614643328565" cy="14.827141302519777"></circle></g><g class="bobaCup bright" cupRadius="16.614034980213464" width="33.22806996042693" height="33.22806996042693" pearlRadius="2.7380424214283137" pearlCount="13" transform="translate(47.38051202559397,246.29820316204754)"><circle class="pool" r="16.614034980213464" cx="16.614034980213464" cy="16.614034980213464" style="stroke-width: 1; fill: rgb(65, 182, 196);"></circle><circle class="pearl" r="2.190433937142651" cx="20.920717041393683" cy="15.293893514920798"></circle><circle class="pearl" r="2.190433937142651" cx="14.95829934866178" cy="20.620358670205917"></circle><circle class="pearl" r="2.190433937142651" cx="13.302026921777633" cy="12.798713846679176"></circle><circle class="pearl" r="2.190433937142651" cx="25.710230833249913" cy="25.866022973809052"></circle><circle class="pearl" r="2.190433937142651" cx="4.786623886747687" cy="14.49336348545823"></circle><circle class="pearl" r="2.190433937142651" cx="27.594623909289094" cy="10.984804255330829"></circle><circle class="pearl" r="2.190433937142651" cx="10.826025984550737" cy="27.536529472777726"></circle><circle class="pearl" r="2.190433937142651" cx="14.679964942495552" cy="4.763681534429072"></circle><circle class="pearl" r="2.190433937142651" cx="28.434816017521253" cy="18.785602511489113"></circle><circle class="pearl" r="2.190433937142651" cx="5.595750969821744" cy="22.137473263483024"></circle><circle class="pearl" r="2.190433937142651" cx="22.491821968153122" cy="5.725202924022895"></circle><circle class="pearl" r="2.190433937142651" cx="18.632397683237155" cy="28.45429020420242"></circle><circle class="pearl" r="2.190433937142651" cx="7.507636972853398" cy="7.368727349028042"></circle></g><g class="bobaCup bright" cupRadius="16.584411784739604" width="33.16882356947921" height="33.16882356947921" pearlRadius="2.738042421428314" pearlCount="13" transform="translate(249.34614968571552,54.884071634167825)"><circle class="pool" r="16.584411784739604" cx="16.584411784739604" cy="16.584411784739604" style="stroke-width: 1; fill: rgb(127, 205, 187);"></circle><circle class="pearl" r="2.1904339371426516" cx="20.893081946875462" cy="15.240121421505217"></circle><circle class="pearl" r="2.1904339371426516" cx="14.950816230638216" cy="20.588297412685318"></circle><circle class="pearl" r="2.1904339371426516" cx="13.257700883406612" cy="12.774324332750496"></circle><circle class="pearl" r="2.1904339371426516" cx="25.638401942337357" cy="25.828578856992518"></circle><circle class="pearl" r="2.1904339371426516" cx="4.793372673829598" cy="14.413889861830015"></circle><circle class="pearl" r="2.1904339371426516" cx="27.558480346765837" cy="11.024861825768777"></circle><circle class="pearl" r="2.1904339371426516" cx="10.746856357205987" cy="27.456757224324395"></circle><circle class="pearl" r="2.1904339371426516" cx="14.717710444015236" cy="4.75611379388301"></circle><circle class="pearl" r="2.1904339371426516" cx="28.366814952273973" cy="18.81937735392227"></circle><circle class="pearl" r="2.1904339371426516" cx="5.571620799510516" cy="22.033910543331057"></circle><circle class="pearl" r="2.1904339371426516" cx="22.529203588745265" cy="5.752817207089393"></circle><circle class="pearl" r="2.1904339371426516" cx="18.542408089190435" cy="28.40211181759724"></circle><circle class="pearl" r="2.1904339371426516" cx="7.517292819926029" cy="7.348808359953875"></circle></g><g class="bobaCup bright" cupRadius="16.436007947966417" width="32.87201589593283" height="32.87201589593283" pearlRadius="2.7380424214283137" pearlCount="13" transform="translate(23.80677185641349,47.5896815314553)"><circle class="pool" r="16.436007947966417" cx="16.436007947966417" cy="16.436007947966417" style="stroke-width: 1; fill: rgb(127, 205, 187);"></circle><circle class="pearl" r="2.190433937142651" cx="20.709955993182295" cy="15.208817364436472"></circle><circle class="pearl" r="2.190433937142651" cx="14.789458269367113" cy="20.542859583546367"></circle><circle class="pearl" r="2.190433937142651" cx="13.111880547632076" cy="12.744714124845805"></circle><circle class="pearl" r="2.190433937142651" cx="25.341903754654684" cy="25.599312993075227"></circle><circle class="pearl" r="2.190433937142651" cx="4.805318969368077" cy="14.18701399380609"></circle><circle class="pearl" r="2.190433937142651" cx="27.291646638749068" cy="10.986687137844157"></circle><circle class="pearl" r="2.190433937142651" cx="10.522893732884494" cy="27.120780718710495"></circle><circle class="pearl" r="2.190433937142651" cx="14.684588929586917" cy="4.744305142203622"></circle><circle class="pearl" r="2.190433937142651" cx="28.058661478397564" cy="18.742426410687628"></circle><circle class="pearl" r="2.190433937142651" cx="5.521785438535213" cy="21.715669058176008"></circle><circle class="pearl" r="2.190433937142651" cx="22.467986604425462" cy="5.79759808294329"></circle><circle class="pearl" r="2.190433937142651" cx="18.279616329841126" cy="28.117567640037397"></circle><circle class="pearl" r="2.190433937142651" cx="7.521562086637719" cy="7.278218865247235"></circle></g><g class="bobaCup bright" cupRadius="15.848330256202818" width="31.696660512405636" height="31.696660512405636" pearlRadius="2.7380424214283137" pearlCount="12" transform="translate(222.50407263351585,137.88260732403285)"><circle class="pool" r="15.848330256202818" cx="15.848330256202818" cy="15.848330256202818" style="stroke-width: 1; fill: rgb(127, 205, 187);"></circle><circle class="pearl" r="2.190433937142651" cx="16.917382017308295" cy="11.681424810557742"></circle><circle class="pearl" r="2.190433937142651" cx="11.450551217905995" cy="17.492152978181974"></circle><circle class="pearl" r="2.190433937142651" cx="14.613840666426416" cy="4.698876037592894"></circle><circle class="pearl" r="2.190433937142651" cx="18.69525849476057" cy="18.979079592606116"></circle><circle class="pearl" r="2.190433937142651" cx="4.706603687283502" cy="14.518630551976678"></circle><circle class="pearl" r="2.190433937142651" cx="26.697939153020076" cy="12.545410954686698"></circle><circle class="pearl" r="2.190433937142651" cx="14.115713254149176" cy="26.95094350705311"></circle><circle class="pearl" r="2.190433937142651" cx="7.265864496277931" cy="7.175733576080326"></circle><circle class="pearl" r="2.190433937142651" cx="26.399748713875084" cy="20.327667267531147"></circle><circle class="pearl" r="2.190433937142651" cx="6.858754174345517" cy="23.917518978224418"></circle><circle class="pearl" r="2.190433937142651" cx="22.449736757779068" cy="6.091034741358122"></circle><circle class="pearl" r="2.190433937142651" cx="21.935851503682223" cy="25.83016172498928"></circle></g><g class="bobaCup bright" cupRadius="15.751391018669326" width="31.50278203733865" height="31.50278203733865" pearlRadius="2.738042421428314" pearlCount="12" transform="translate(39.23817368700627,73.83642995983433)"><circle class="pool" r="15.751391018669326" cx="15.751391018669326" cy="15.751391018669326" style="stroke-width: 1; fill: rgb(29, 145, 192);"></circle><circle class="pearl" r="2.1904339371426516" cx="16.840126331780777" cy="11.638671542018464"></circle><circle class="pearl" r="2.1904339371426516" cx="11.357537154702158" cy="17.396749707872445"></circle><circle class="pearl" r="2.1904339371426516" cx="14.591944608783553" cy="4.693454118329999"></circle><circle class="pearl" r="2.1904339371426516" cx="18.512146847539835" cy="18.916012436373787"></circle><circle class="pearl" r="2.1904339371426516" cx="4.705182600345747" cy="14.44270622249667"></circle><circle class="pearl" r="2.1904339371426516" cx="26.49496659196704" cy="12.416442230187327"></circle><circle class="pearl" r="2.1904339371426516" cx="14.186614225379794" cy="26.774141961774387"></circle><circle class="pearl" r="2.1904339371426516" cx="7.24937143651564" cy="7.142326087254899"></circle><circle class="pearl" r="2.1904339371426516" cx="26.234024386052777" cy="20.120353957708293"></circle><circle class="pearl" r="2.1904339371426516" cx="6.926972186908619" cy="23.907791295561932"></circle><circle class="pearl" r="2.1904339371426516" cx="22.303119756950007" cy="6.077967865588073"></circle><circle class="pearl" r="2.1904339371426516" cx="21.957739558783835" cy="25.577806900490017"></circle></g><g class="bobaCup bright" cupRadius="14.917220324929207" width="29.834440649858415" height="29.834440649858415" pearlRadius="2.738042421428314" pearlCount="11" transform="translate(187.50479259776452,221.79771698871627)"><circle class="pool" r="14.917220324929207" cx="14.917220324929207" cy="14.917220324929207" style="stroke-width: 1; fill: rgb(127, 205, 187);"></circle><circle class="pearl" r="2.1904339371426516" cx="18.853921898214146" cy="15.509235776602623"></circle><circle class="pearl" r="2.1904339371426516" cx="11.808767648426414" cy="17.442716592822055"></circle><circle class="pearl" r="2.1904339371426516" cx="13.570026801795064" cy="10.277566457703674"></circle><circle class="pearl" r="2.1904339371426516" cx="21.54627237378409" cy="23.62984739319813"></circle><circle class="pearl" r="2.1904339371426516" cx="4.674620400041343" cy="14.073189715813264"></circle><circle class="pearl" r="2.1904339371426516" cx="24.41451313769831" cy="10.18889035373835"></circle><circle class="pearl" r="2.1904339371426516" cx="14.12246781085853" cy="25.162531154585142"></circle><circle class="pearl" r="2.1904339371426516" cx="7.162194112072122" cy="6.824983510387055"></circle><circle class="pearl" r="2.1904339371426516" cx="24.892152729343184" cy="17.85212399077813"></circle><circle class="pearl" r="2.1904339371426516" cx="7.149204943840443" cy="23.001543199990785"></circle><circle class="pearl" r="2.1904339371426516" cx="19.115398363947925" cy="5.253658263092602"></circle></g><g class="bobaCup bright" cupRadius="14.88704449195115" width="29.7740889839023" height="29.7740889839023" pearlRadius="2.7380424214283137" pearlCount="11" transform="translate(107.79155426919137,252.0729666262318)"><circle class="pool" r="14.88704449195115" cx="14.88704449195115" cy="14.88704449195115" style="stroke-width: 1; fill: rgb(29, 145, 192);"></circle><circle class="pearl" r="2.190433937142651" cx="18.82650318935642" cy="15.497671781580307"></circle><circle class="pearl" r="2.190433937142651" cx="11.805997486730178" cy="17.437348879182764"></circle><circle class="pearl" r="2.190433937142651" cx="13.53650299451756" cy="10.288914255814722"></circle><circle class="pearl" r="2.190433937142651" cx="21.520417695649286" cy="23.563828668960173"></circle><circle class="pearl" r="2.190433937142651" cx="4.674119807069719" cy="14.052739745319723"></circle><circle class="pearl" r="2.190433937142651" cx="24.349225100790743" cy="10.148897282193738"></circle><circle class="pearl" r="2.190433937142651" cx="14.105205620523824" cy="25.10282124435939"></circle><circle class="pearl" r="2.190433937142651" cx="7.159409000826855" cy="6.813470355966137"></circle><circle class="pearl" r="2.190433937142651" cx="24.835629518315283" cy="17.799825325229452"></circle><circle class="pearl" r="2.190433937142651" cx="7.150795403443228" cy="22.95538348297367"></circle><circle class="pearl" r="2.190433937142651" cx="19.047416954310897" cy="5.243874105423101"></circle></g><g class="bobaCup bright" cupRadius="14.814274517287378" width="29.628549034574757" height="29.628549034574757" pearlRadius="2.738042421428314" pearlCount="10" transform="translate(171.47139780972006,27.61068829406903)"><circle class="pool" r="14.814274517287378" cx="14.814274517287378" cy="14.814274517287378" style="stroke-width: 1; fill: rgb(65, 182, 196);"></circle><circle class="pearl" r="2.1904339371426516" cx="17.764586325238028" cy="12.28045477653408"></circle><circle class="pearl" r="2.1904339371426516" cx="12.18267200514969" cy="17.190727447370733"></circle><circle class="pearl" r="2.1904339371426516" cx="14.92135324684209" cy="4.808453223123005"></circle><circle class="pearl" r="2.1904339371426516" cx="22.25387409823932" cy="22.97429238939622"></circle><circle class="pearl" r="2.1904339371426516" cx="4.658854055296345" cy="14.323521536677202"></circle><circle class="pearl" r="2.1904339371426516" cx="22.530519575830322" cy="6.81895916968522"></circle><circle class="pearl" r="2.1904339371426516" cx="14.523469821523701" cy="24.974971278118794"></circle><circle class="pearl" r="2.1904339371426516" cx="7.17377540176524" cy="6.773051372695061"></circle><circle class="pearl" r="2.1904339371426516" cx="24.9615819195164" cy="15.507829795150597"></circle><circle class="pearl" r="2.1904339371426516" cx="7.095070088126118" cy="22.80778366772481"></circle></g><g class="bobaCup bright" cupRadius="14.784187692924007" width="29.568375385848015" height="29.568375385848015" pearlRadius="2.7380424214283137" pearlCount="10" transform="translate(205.10143015873842,112.5202519432024)"><circle class="pool" r="14.784187692924007" cx="14.784187692924007" cy="14.784187692924007" style="stroke-width: 1; fill: rgb(127, 205, 187);"></circle><circle class="pearl" r="2.190433937142651" cx="17.68902366878523" cy="12.198938820387262"></circle><circle class="pearl" r="2.190433937142651" cx="12.173930390227339" cy="17.143926801948833"></circle><circle class="pearl" r="2.190433937142651" cx="14.918327521654895" cy="4.699646419288784"></circle><circle class="pearl" r="2.190433937142651" cx="22.244501464327943" cy="22.897316710904764"></circle><circle class="pearl" r="2.190433937142651" cx="4.659125552787389" cy="14.28581787292179"></circle><circle class="pearl" r="2.190433937142651" cx="22.470542680349116" cy="6.805890660727005"></circle><circle class="pearl" r="2.190433937142651" cx="14.517986701635898" cy="24.91525538331274"></circle><circle class="pearl" r="2.190433937142651" cx="7.1929931436010826" cy="6.748462598424698"></circle><circle class="pearl" r="2.190433937142651" cx="24.904482516902195" cy="15.408071841519877"></circle><circle class="pearl" r="2.190433937142651" cx="7.092505535364856" cy="22.759240928661637"></circle></g><g class="bobaCup bright" cupRadius="14.683514916952909" width="29.367029833905818" height="29.367029833905818" pearlRadius="2.7380424214283132" pearlCount="10" transform="translate(245.45484592034802,88.0516891925017)"><circle class="pool" r="14.683514916952909" cx="14.683514916952909" cy="14.683514916952909" style="stroke-width: 1; fill: rgb(127, 205, 187);"></circle><circle class="pearl" r="2.1904339371426507" cx="17.466486463586705" cy="12.00249443281521"></circle><circle class="pearl" r="2.1904339371426507" cx="12.216199094811197" cy="17.05960748978801"></circle><circle class="pearl" r="2.1904339371426507" cx="14.58347098263215" cy="4.6510640497235824"></circle><circle class="pearl" r="2.1904339371426507" cx="22.383297170805832" cy="22.535549926451942"></circle><circle class="pearl" r="2.1904339371426507" cx="4.652490807720739" cy="14.455687295085664"></circle><circle class="pearl" r="2.1904339371426507" cx="22.27884316534899" cy="6.767751002511626"></circle><circle class="pearl" r="2.1904339371426507" cx="14.715829005582545" cy="24.716271048399143"></circle><circle class="pearl" r="2.1904339371426507" cx="6.923548764778188" cy="6.868744347303193"></circle><circle class="pearl" r="2.1904339371426507" cx="24.713482557015833" cy="14.97148355410749"></circle><circle class="pearl" r="2.1904339371426507" cx="7.084167507696008" cy="22.596848727005895"></circle></g><g class="bobaCup bright" cupRadius="14.29712727298315" width="28.5942545459663" height="28.5942545459663" pearlRadius="2.738042421428314" pearlCount="10" transform="translate(196.6262636643642,34.659712892138856)"><circle class="pool" r="14.29712727298315" cx="14.29712727298315" cy="14.29712727298315" style="stroke-width: 1; fill: rgb(29, 145, 192);"></circle><circle class="pearl" r="2.1904339371426516" cx="17.019757383413662" cy="11.698602859756468"></circle><circle class="pearl" r="2.1904339371426516" cx="12.08949982281996" cy="16.429788146274475"></circle><circle class="pearl" r="2.1904339371426516" cx="14.365552594618608" cy="4.650886969557741"></circle><circle class="pearl" r="2.1904339371426516" cx="21.770253954554168" cy="21.834932497882978"></circle><circle class="pearl" r="2.1904339371426516" cx="4.650756296330561" cy="14.266377527647093"></circle><circle class="pearl" r="2.1904339371426516" cx="21.54374541609348" cy="6.623306950256977"></circle><circle class="pearl" r="2.1904339371426516" cx="14.267021258863808" cy="23.943499619660646"></circle><circle class="pearl" r="2.1904339371426516" cx="6.826338441249156" cy="6.75788895561336"></circle><circle class="pearl" r="2.1904339371426516" cx="23.943349609971307" cy="14.369208860885731"></circle><circle class="pearl" r="2.1904339371426516" cx="7.047187973690933" cy="21.968994211112282"></circle></g><g class="bobaCup bright" cupRadius="14.039205110149728" width="28.078410220299457" height="28.078410220299457" pearlRadius="2.7380424214283132" pearlCount="9" transform="translate(19.457287389599024,65.35344657038203)"><circle class="pool" r="14.039205110149728" cx="14.039205110149728" cy="14.039205110149728" style="stroke-width: 1; fill: rgb(29, 145, 192);"></circle><circle class="pearl" r="2.1904339371426507" cx="19.906424647264455" cy="13.948311197184598"></circle><circle class="pearl" r="2.1904339371426507" cx="12.303743698417591" cy="15.757222282965468"></circle><circle class="pearl" r="2.1904339371426507" cx="14.000301662442567" cy="4.650777130524117"></circle><circle class="pearl" r="2.1904339371426507" cx="14.120315646555337" cy="23.42745268451638"></circle><circle class="pearl" r="2.1904339371426507" cx="4.6509358601633055" cy="14.116472903311054"></circle><circle class="pearl" r="2.1904339371426507" cx="21.235508048449542" cy="6.635364715550053"></circle><circle class="pearl" r="2.1904339371426507" cx="6.815679391541914" cy="21.426752368549177"></circle><circle class="pearl" r="2.1904339371426507" cx="6.783597022847089" cy="6.670967010539296"></circle><circle class="pearl" r="2.1904339371426507" cx="21.2899533334674" cy="21.41037567277934"></circle></g><g class="bobaCup bright" cupRadius="14.03096773306914" width="28.06193546613828" height="28.06193546613828" pearlRadius="2.7380424214283137" pearlCount="9" transform="translate(43.263691503530474,244.45731582448258)"><circle class="pool" r="14.03096773306914" cx="14.03096773306914" cy="14.03096773306914" style="stroke-width: 1; fill: rgb(29, 145, 192);"></circle><circle class="pearl" r="2.190433937142651" cx="19.76124894110854" cy="13.73978998441098"></circle><circle class="pearl" r="2.190433937142651" cx="12.311566879329114" cy="15.749800535262592"></circle><circle class="pearl" r="2.190433937142651" cx="13.947256172978358" cy="4.650972950749459"></circle><circle class="pearl" r="2.190433937142651" cx="14.31531541964149" cy="23.40833068613981"></circle><circle class="pearl" r="2.190433937142651" cx="4.651724423690794" cy="14.198581785125125"></circle><circle class="pearl" r="2.190433937142651" cx="21.170722395161203" cy="6.603116588331014"></circle><circle class="pearl" r="2.190433937142651" cx="6.835037044660773" cy="21.425435953954143"></circle><circle class="pearl" r="2.190433937142651" cx="6.761075032456768" cy="6.6809944965174495"></circle><circle class="pearl" r="2.190433937142651" cx="21.444197581528602" cy="21.195400137777316"></circle></g><g class="bobaCup bright" cupRadius="13.982719520435579" width="27.965439040871157" height="27.965439040871157" pearlRadius="2.7380424214283132" pearlCount="9" transform="translate(158.9678924939415,173.72591374353053)"><circle class="pool" r="13.982719520435579" cx="13.982719520435579" cy="13.982719520435579" style="stroke-width: 1; fill: rgb(65, 182, 196);"></circle><circle class="pearl" r="2.1904339371426507" cx="15.898518302620417" cy="12.087890807910556"></circle><circle class="pearl" r="2.1904339371426507" cx="10.508825221169962" cy="17.445101911311703"></circle><circle class="pearl" r="2.1904339371426507" cx="14.05232627782517" cy="4.650896482804076"></circle><circle class="pearl" r="2.1904339371426507" cx="21.203188081058304" cy="21.306188496444683"></circle><circle class="pearl" r="2.1904339371426507" cx="4.651417263293214" cy="13.843405113320703"></circle><circle class="pearl" r="2.1904339371426507" cx="21.128557765856463" cy="6.6145642257229555"></circle><circle class="pearl" r="2.1904339371426507" cx="14.085348941803645" cy="23.314339170975984"></circle><circle class="pearl" r="2.1904339371426507" cx="6.83473748462417" cy="6.6158390776049645"></circle><circle class="pearl" r="2.1904339371426507" cx="23.314610987371854" cy="14.036862517690862"></circle></g><g class="bobaCup bright" cupRadius="13.901497918512284" width="27.802995837024568" height="27.802995837024568" pearlRadius="2.738042421428314" pearlCount="9" transform="translate(269.5457896648298,114.33238346800377)"><circle class="pool" r="13.901497918512284" cx="13.901497918512284" cy="13.901497918512284" style="stroke-width: 1; fill: rgb(127, 205, 187);"></circle><circle class="pearl" r="2.1904339371426516" cx="15.767643609307164" cy="12.0614264624326"></circle><circle class="pearl" r="2.1904339371426516" cx="10.385007500138176" cy="17.406273161620465"></circle><circle class="pearl" r="2.1904339371426516" cx="13.96788706232902" cy="4.650881756219457"></circle><circle class="pearl" r="2.1904339371426516" cx="21.049099262253417" cy="21.17400577087523"></circle><circle class="pearl" r="2.1904339371426516" cx="4.651194064877469" cy="13.787084465721668"></circle><circle class="pearl" r="2.1904339371426516" cx="20.975376909093974" cy="6.585104518379179"></circle><circle class="pearl" r="2.1904339371426516" cx="13.977052331968144" cy="23.152067288437525"></circle><circle class="pearl" r="2.1904339371426516" cx="6.823514735515342" cy="6.587531496297862"></circle><circle class="pearl" r="2.1904339371426516" cx="23.15203238540515" cy="13.983222227659935"></circle></g><g class="bobaCup bright" cupRadius="13.752247846932548" width="27.504495693865096" height="27.504495693865096" pearlRadius="2.7380424214283137" pearlCount="9" transform="translate(149.73027923954578,24.01646698022249)"><circle class="pool" r="13.752247846932548" cx="13.752247846932548" cy="13.752247846932548" style="stroke-width: 1; fill: rgb(29, 145, 192);"></circle><circle class="pearl" r="2.190433937142651" cx="15.520565530467954" cy="12.01960467286375"></circle><circle class="pearl" r="2.190433937142651" cx="10.140928710433672" cy="17.35054310549536"></circle><circle class="pearl" r="2.190433937142651" cx="13.813362786704177" cy="4.650859026527387"></circle><circle class="pearl" r="2.190433937142651" cx="20.766240533124964" cy="20.930650851583433"></circle><circle class="pearl" r="2.190433937142651" cx="4.650922540790782" cy="13.678207706717673"></circle><circle class="pearl" r="2.190433937142651" cx="20.694967763762058" cy="6.5318733587834235"></circle><circle class="pearl" r="2.190433937142651" cx="13.781781883937937" cy="22.853740751920412"></circle><circle class="pearl" r="2.190433937142651" cx="6.804809604741983" cy="6.534634093667931"></circle><circle class="pearl" r="2.190433937142651" cx="22.8530987943702" cy="13.888367372315532"></circle></g><g class="bobaCup bright" cupRadius="13.66739415979276" width="27.33478831958552" height="27.33478831958552" pearlRadius="2.7380424214283132" pearlCount="9" transform="translate(255.05247528654934,104.7778275455921)"><circle class="pool" r="13.66739415979276" cx="13.66739415979276" cy="13.66739415979276" style="stroke-width: 1; fill: rgb(29, 145, 192);"></circle><circle class="pearl" r="2.1904339371426507" cx="15.374141384053717" cy="12.00192867926957"></circle><circle class="pearl" r="2.1904339371426507" cx="9.987977114651388" cy="17.332751108851117"></circle><circle class="pearl" r="2.1904339371426507" cx="13.725722264439256" cy="4.650847692065846"></circle><circle class="pearl" r="2.1904339371426507" cx="20.605339753048135" cy="20.792178311549947"></circle><circle class="pearl" r="2.1904339371426507" cx="4.65083353414992" cy="13.612483619086971"></circle><circle class="pearl" r="2.1904339371426507" cx="20.536510254831665" cy="6.502326801525624"></circle><circle class="pearl" r="2.1904339371426507" cx="13.673768239047082" cy="22.6840636046708"></circle><circle class="pearl" r="2.1904339371426507" cx="6.795694642550644" cy="6.5038290533065135"></circle><circle class="pearl" r="2.1904339371426507" cx="22.682999402249745" cy="13.838067066561324"></circle></g><g class="bobaCup bright" cupRadius="13.54649128029012" width="27.09298256058024" height="27.09298256058024" pearlRadius="2.7380424214283137" pearlCount="9" transform="translate(76.60140465284812,277.3839923477508)"><circle class="pool" r="13.54649128029012" cx="13.54649128029012" cy="13.54649128029012" style="stroke-width: 1; fill: rgb(65, 182, 196);"></circle><circle class="pearl" r="2.190433937142651" cx="15.15555812679473" cy="11.986776627443373"></circle><circle class="pearl" r="2.190433937142651" cx="9.746114008562959" cy="17.330374137914742"></circle><circle class="pearl" r="2.190433937142651" cx="13.601265396593856" cy="4.650833966326628"></circle><circle class="pearl" r="2.190433937142651" cx="20.37564145412536" cy="20.59491904271758"></circle><circle class="pearl" r="2.190433937142651" cx="4.650765159494705" cy="13.512786206129842"></circle><circle class="pearl" r="2.190433937142651" cx="20.31232818936108" cy="6.461334613138458"></circle><circle class="pearl" r="2.190433937142651" cx="13.523619807292418" cy="22.44224002425488"></circle><circle class="pearl" r="2.190433937142651" cx="6.785314293972323" cy="6.45864935946314"></circle><circle class="pearl" r="2.190433937142651" cx="22.44037185767964" cy="13.772619002017706"></circle></g><g class="bobaCup bright" cupRadius="13.445851044999932" width="26.891702089999864" height="26.891702089999864" pearlRadius="2.7380424214283132" pearlCount="9" transform="translate(63.515468754038686,127.45825582956309)"><circle class="pool" r="13.445851044999932" cx="13.445851044999932" cy="13.445851044999932" style="stroke-width: 1; fill: rgb(29, 145, 192);"></circle><circle class="pearl" r="2.1904339371426507" cx="14.962108999519968" cy="11.985586982434196"></circle><circle class="pearl" r="2.1904339371426507" cx="9.516853013521828" cy="17.354656678214745"></circle><circle class="pearl" r="2.1904339371426507" cx="13.498167344140116" cy="4.65082500738395"></circle><circle class="pearl" r="2.1904339371426507" cx="20.1836225366194" cy="20.430992444854436"></circle><circle class="pearl" r="2.1904339371426507" cx="4.650742086838782" cy="13.42333148547419"></circle><circle class="pearl" r="2.1904339371426507" cx="20.127559035913468" cy="6.428425806548154"></circle><circle class="pearl" r="2.1904339371426507" cx="13.401481202570128" cy="22.240905653408323"></circle><circle class="pearl" r="2.1904339371426507" cx="6.779727147832454" cy="6.419515461013018"></circle><circle class="pearl" r="2.1904339371426507" cx="22.238070179515933" cy="13.72551324667261"></circle></g><g class="bobaCup bright" cupRadius="13.38268716982834" width="26.76537433965668" height="26.76537433965668" pearlRadius="2.7380424214283137" pearlCount="8" transform="translate(77.45861051603278,209.86629730025788)"><circle class="pool" r="13.38268716982834" cx="13.38268716982834" cy="13.38268716982834" style="stroke-width: 1; fill: rgb(65, 182, 196);"></circle><circle class="pearl" r="2.190433937142651" cx="22.09623689791326" cy="14.084487871937531"></circle><circle class="pearl" r="2.190433937142651" cx="12.669928529474856" cy="14.06104667858101"></circle><circle class="pearl" r="2.190433937142651" cx="12.494690488511782" cy="4.680216856049384"></circle><circle class="pearl" r="2.190433937142651" cx="18.618070209688174" cy="21.048094839856706"></circle><circle class="pearl" r="2.190433937142651" cx="4.986542521011389" cy="16.361874051423424"></circle><circle class="pearl" r="2.190433937142651" cx="20.188639153387815" cy="6.510592449522035"></circle><circle class="pearl" r="2.190433937142651" cx="10.677167032098982" cy="21.8383164723709"></circle><circle class="pearl" r="2.190433937142651" cx="5.6088031258088655" cy="8.410217963550854"></circle></g><g class="bobaCup bright" cupRadius="13.364811797061613" width="26.729623594123225" height="26.729623594123225" pearlRadius="2.738042421428314" pearlCount="8" transform="translate(80.20427202605697,150.05386872089966)"><circle class="pool" r="13.364811797061613" cx="13.364811797061613" cy="13.364811797061613" style="stroke-width: 1; fill: rgb(127, 205, 187);"></circle><circle class="pearl" r="2.1904339371426516" cx="22.061176905123258" cy="14.052872335822414"></circle><circle class="pearl" r="2.1904339371426516" cx="12.66584032112981" cy="14.024784419505513"></circle><circle class="pearl" r="2.1904339371426516" cx="12.47164056142073" cy="4.680601973131047"></circle><circle class="pearl" r="2.1904339371426516" cx="18.61698775640531" cy="21.00363054787159"></circle><circle class="pearl" r="2.1904339371426516" cx="4.988190182628784" cy="16.34918454729517"></circle><circle class="pearl" r="2.1904339371426516" cx="20.15265425863321" cy="6.502786045143159"></circle><circle class="pearl" r="2.1904339371426516" cx="10.679397915671323" cy="21.80632850887176"></circle><circle class="pearl" r="2.1904339371426516" cx="5.607250095803501" cy="8.399667340849799"></circle></g><g class="bobaCup bright" cupRadius="13.193579895614775" width="26.38715979122955" height="26.38715979122955" pearlRadius="2.7380424214283137" pearlCount="8" transform="translate(263.6294525080595,97.88113641982687)"><circle class="pool" r="13.193579895614775" cx="13.193579895614775" cy="13.193579895614775" style="stroke-width: 1; fill: rgb(127, 205, 187);"></circle><circle class="pearl" r="2.190433937142651" cx="14.14993299195774" cy="12.858415145396505"></circle><circle class="pearl" r="2.190433937142651" cx="8.098984929755002" cy="20.713134091811238"></circle><circle class="pearl" r="2.190433937142651" cx="13.992791390831982" cy="4.674951908279928"></circle><circle class="pearl" r="2.190433937142651" cx="21.431286862053565" cy="16.014735256513596"></circle><circle class="pearl" r="2.190433937142651" cx="4.676834891862578" cy="14.023236940861521"></circle><circle class="pearl" r="2.190433937142651" cx="20.712226708800618" cy="8.09681785989451"></circle><circle class="pearl" r="2.190433937142651" cx="15.910369646503167" cy="21.453689479509283"></circle><circle class="pearl" r="2.190433937142651" cx="6.571107281874957" cy="6.433194197256958"></circle></g><g class="bobaCup bright" cupRadius="13.144305345782328" width="26.288610691564656" height="26.288610691564656" pearlRadius="2.7380424214283137" pearlCount="8" transform="translate(57.58878425266548,225.6758864011719)"><circle class="pool" r="13.144305345782328" cx="13.144305345782328" cy="13.144305345782328" style="stroke-width: 1; fill: rgb(127, 205, 187);"></circle><circle class="pearl" r="2.190433937142651" cx="14.030447852744452" cy="12.912724441512955"></circle><circle class="pearl" r="2.190433937142651" cx="7.968682107451179" cy="20.576035805018552"></circle><circle class="pearl" r="2.190433937142651" cx="13.983981639014365" cy="4.677570484245178"></circle><circle class="pearl" r="2.190433937142651" cx="21.315921190377193" cy="16.035738159444726"></circle><circle class="pearl" r="2.190433937142651" cx="4.67452588315008" cy="13.934983632627235"></circle><circle class="pearl" r="2.190433937142651" cx="20.640883939650987" cy="8.122769578936293"></circle><circle class="pearl" r="2.190433937142651" cx="15.748920846196306" cy="21.37724390717473"></circle><circle class="pearl" r="2.190433937142651" cx="6.580865069075225" cy="6.406700569011239"></circle></g><g class="bobaCup bright" cupRadius="13.12886975571294" width="26.25773951142588" height="26.25773951142588" pearlRadius="2.7380424214283137" pearlCount="8" transform="translate(177.11304889455224,225.58188298328108)"><circle class="pool" r="13.12886975571294" cx="13.12886975571294" cy="13.12886975571294" style="stroke-width: 1; fill: rgb(65, 182, 196);"></circle><circle class="pearl" r="2.190433937142651" cx="13.997002997474173" cy="12.921171062866794"></circle><circle class="pearl" r="2.190433937142651" cx="7.925326982314703" cy="20.53179177112879"></circle><circle class="pearl" r="2.190433937142651" cx="13.982547407818297" cy="4.678506940418432"></circle><circle class="pearl" r="2.190433937142651" cx="21.279115207468582" cy="16.044761027308656"></circle><circle class="pearl" r="2.190433937142651" cx="4.673744588872498" cy="13.906017681762467"></circle><circle class="pearl" r="2.190433937142651" cx="20.61943228693138" cy="8.133231542070359"></circle><circle class="pearl" r="2.190433937142651" cx="15.695675800621748" cy="21.353655363311923"></circle><circle class="pearl" r="2.190433937142651" cx="6.584257382728435" cy="6.398236740415191"></circle></g><g class="bobaCup bright" cupRadius="12.862655923662432" width="25.725311847324864" height="25.725311847324864" pearlRadius="2.738042421428314" pearlCount="8" transform="translate(301.1076199217334,128.257781680544)"><circle class="pool" r="12.862655923662432" cx="12.862655923662432" cy="12.862655923662432" style="stroke-width: 1; fill: rgb(29, 145, 192);"></circle><circle class="pearl" r="2.1904339371426516" cx="13.561985460141035" cy="12.923361117193146"></circle><circle class="pearl" r="2.1904339371426516" cx="6.705950809868007" cy="19.50542195006945"></circle><circle class="pearl" r="2.1904339371426516" cx="14.218432634502282" cy="4.722375011788854"></circle><circle class="pearl" r="2.1904339371426516" cx="20.495031091996655" cy="16.680169667248755"></circle><circle class="pearl" r="2.1904339371426516" cx="4.6540611985123235" cy="13.155673287707714"></circle><circle class="pearl" r="2.1904339371426516" cx="20.408664035158164" cy="8.777602432120352"></circle><circle class="pearl" r="2.1904339371426516" cx="14.270159154174385" cy="20.997348295165782"></circle><circle class="pearl" r="2.1904339371426516" cx="6.703545795706933" cy="6.221201335610001"></circle></g><g class="bobaCup bright" cupRadius="12.707535538106889" width="25.415071076213778" height="25.415071076213778" pearlRadius="2.7380424214283132" pearlCount="8" transform="translate(43.82629035390625,68.62006456019967)"><circle class="pool" r="12.707535538106889" cx="12.707535538106889" cy="12.707535538106889" style="stroke-width: 1; fill: rgb(127, 205, 187);"></circle><circle class="pearl" r="2.1904339371426507" cx="13.244903774405783" cy="12.801434463442911"></circle><circle class="pearl" r="2.1904339371426507" cx="6.696555873170021" cy="19.252775105113724"></circle><circle class="pearl" r="2.1904339371426507" cx="14.01551920176549" cy="4.718217699187259"></circle><circle class="pearl" r="2.1904339371426507" cx="20.21189325371242" cy="16.41367459280573"></circle><circle class="pearl" r="2.1904339371426507" cx="4.655610649164756" cy="13.059941915585341"></circle><circle class="pearl" r="2.1904339371426507" cx="20.06375285272503" cy="8.546425320320255"></circle><circle class="pearl" r="2.1904339371426507" cx="14.135776152895488" cy="20.68383049272212"></circle><circle class="pearl" r="2.1904339371426507" cx="6.690942035693031" cy="6.165311787487869"></circle></g><g class="bobaCup bright" cupRadius="12.509484448790726" width="25.018968897581452" height="25.018968897581452" pearlRadius="2.7380424214283132" pearlCount="7" transform="translate(41.534989311881645,249.40383057169038)"><circle class="pool" r="12.509484448790726" cx="12.509484448790726" cy="12.509484448790726" style="stroke-width: 1; fill: rgb(127, 205, 187);"></circle><circle class="pearl" r="2.1904339371426507" cx="12.750553620187908" cy="12.554035091657099"></circle><circle class="pearl" r="2.1904339371426507" cx="5.007227851433298" cy="15.474662778185367"></circle><circle class="pearl" r="2.1904339371426507" cx="13.115715331293131" cy="4.665421352992859"></circle><circle class="pearl" r="2.1904339371426507" cx="19.01868822263364" cy="18.161318706386037"></circle><circle class="pearl" r="2.1904339371426507" cx="5.690837352204148" cy="7.515413412158402"></circle><circle class="pearl" r="2.1904339371426507" cx="19.832105706833605" cy="8.886471478981205"></circle><circle class="pearl" r="2.1904339371426507" cx="11.301783710852987" cy="20.309811782406015"></circle></g><g class="bobaCup bright" cupRadius="12.489927969445226" width="24.979855938890452" height="24.979855938890452" pearlRadius="2.738042421428314" pearlCount="7" transform="translate(35.75464969108153,247.0331127479777)"><circle class="pool" r="12.489927969445226" cx="12.489927969445226" cy="12.489927969445226" style="stroke-width: 1; fill: rgb(65, 182, 196);"></circle><circle class="pearl" r="2.1904339371426516" cx="12.694569463443482" cy="12.531414001537613"></circle><circle class="pearl" r="2.1904339371426516" cx="4.998429798120169" cy="15.416489118274054"></circle><circle class="pearl" r="2.1904339371426516" cx="13.148325030197512" cy="4.668088751096155"></circle><circle class="pearl" r="2.1904339371426516" cx="18.993315660288577" cy="18.10990219352578"></circle><circle class="pearl" r="2.1904339371426516" cx="5.7081622464913355" cy="7.460365656958233"></circle><circle class="pearl" r="2.1904339371426516" cx="19.815833447182825" cy="8.946107218736616"></circle><circle class="pearl" r="2.1904339371426516" cx="11.265070077198976" cy="20.268928141888832"></circle></g><g class="bobaCup bright" cupRadius="12.449875635182881" width="24.899751270365762" height="24.899751270365762" pearlRadius="2.7380424214283146" pearlCount="7" transform="translate(86.9607189868511,236.933733324965)"><circle class="pool" r="12.449875635182881" cx="12.449875635182881" cy="12.449875635182881" style="stroke-width: 1; fill: rgb(127, 205, 187);"></circle><circle class="pearl" r="2.1904339371426516" cx="12.573965970654417" cy="12.48298062894318"></circle><circle class="pearl" r="2.1904339371426516" cx="4.977147913799485" cy="15.282072732061573"></circle><circle class="pearl" r="2.1904339371426516" cx="13.230445007849765" cy="4.675216986886972"></circle><circle class="pearl" r="2.1904339371426516" cx="18.940303276188896" cy="18.006327797565078"></circle><circle class="pearl" r="2.1904339371426516" cx="5.750823577521936" cy="7.33304025737787"></circle><circle class="pearl" r="2.1904339371426516" cx="19.786641077417027" cy="9.088399962381347"></circle><circle class="pearl" r="2.1904339371426516" cx="11.1766768352024" cy="20.183754465105586"></circle></g><g class="bobaCup bright" cupRadius="12.439794709369746" width="24.879589418739492" height="24.879589418739492" pearlRadius="2.7380424214283132" pearlCount="7" transform="translate(273.51025833721036,82.23055570279881)"><circle class="pool" r="12.439794709369746" cx="12.439794709369746" cy="12.439794709369746" style="stroke-width: 1; fill: rgb(29, 145, 192);"></circle><circle class="pearl" r="2.1904339371426507" cx="12.542613898166959" cy="12.470270362941923"></circle><circle class="pearl" r="2.1904339371426507" cx="4.971335064196672" cy="15.245841552173665"></circle><circle class="pearl" r="2.1904339371426507" cx="13.253643146890688" cy="4.677373971483006"></circle><circle class="pearl" r="2.1904339371426507" cx="18.927077770800697" cy="17.979948885486017"></circle><circle class="pearl" r="2.1904339371426507" cx="5.762768077523957" cy="7.29872716351032"></circle><circle class="pearl" r="2.1904339371426507" cx="19.77981822666661" cy="9.127622478382849"></circle><circle class="pearl" r="2.1904339371426507" cx="11.152411084388604" cy="20.162071756131798"></circle></g><g class="bobaCup bright" cupRadius="12.325826018148048" width="24.651652036296095" height="24.651652036296095" pearlRadius="2.7380424214283137" pearlCount="7" transform="translate(65.13907729546625,241.3741927090837)"><circle class="pool" r="12.325826018148048" cx="12.325826018148048" cy="12.325826018148048" style="stroke-width: 1; fill: rgb(65, 182, 196);"></circle><circle class="pearl" r="2.190433937142651" cx="12.36723657865462" cy="12.342097997773399"></circle><circle class="pearl" r="2.190433937142651" cx="4.9953327263196705" cy="15.220033633534742"></circle><circle class="pearl" r="2.190433937142651" cx="13.180164047694348" cy="4.68036717418433"></circle><circle class="pearl" r="2.190433937142651" cx="18.784739505891384" cy="17.66454862390065"></circle><circle class="pearl" r="2.190433937142651" cx="5.7303022535653625" cy="7.2812333092531905"></circle><circle class="pearl" r="2.190433937142651" cx="19.577430548442912" cy="9.122611858872334"></circle><circle class="pearl" r="2.190433937142651" cx="11.194732898074925" cy="19.948921078250567"></circle></g><g class="bobaCup bright" cupRadius="12.317336004431887" width="24.634672008863774" height="24.634672008863774" pearlRadius="2.7380424214283132" pearlCount="7" transform="translate(289.10098770764404,282.3712919249491)"><circle class="pool" r="12.317336004431887" cx="12.317336004431887" cy="12.317336004431887" style="stroke-width: 1; fill: rgb(127, 205, 187);"></circle><circle class="pearl" r="2.1904339371426507" cx="12.357768114743303" cy="12.333152628990284"></circle><circle class="pearl" r="2.1904339371426507" cx="4.998842973234139" cy="15.22502037054859"></circle><circle class="pearl" r="2.1904339371426507" cx="13.167258375954969" cy="4.68008144133771"></circle><circle class="pearl" r="2.1904339371426507" cx="18.78056014900791" cy="17.62741510299441"></circle><circle class="pearl" r="2.1904339371426507" cx="5.724696294859414" cy="7.287071986782915"></circle><circle class="pearl" r="2.1904339371426507" cx="19.559603137904766" cy="9.112098650599343"></circle><circle class="pearl" r="2.1904339371426507" cx="11.201703895079644" cy="19.933321023905847"></circle></g><g class="bobaCup bright" cupRadius="12.094798391997145" width="24.18959678399429" height="24.18959678399429" pearlRadius="2.7380424214283137" pearlCount="7" transform="translate(215.50667077914625,176.7931978485595)"><circle class="pool" r="12.094798391997145" cx="12.094798391997145" cy="12.094798391997145" style="stroke-width: 1; fill: rgb(65, 182, 196);"></circle><circle class="pearl" r="2.190433937142651" cx="12.102346373213496" cy="12.096434658783132"></circle><circle class="pearl" r="2.190433937142651" cx="5.12816623840123" cy="15.459497794245753"></circle><circle class="pearl" r="2.190433937142651" cx="12.697834398940605" cy="4.665766005598762"></circle><circle class="pearl" r="2.190433937142651" cx="18.654562825450288" cy="16.634524652759932"></circle><circle class="pearl" r="2.190433937142651" cx="5.537749441551789" cy="7.548372221220612"></circle><circle class="pearl" r="2.190433937142651" cx="19.046936095322895" cy="8.680451259949956"></circle><circle class="pearl" r="2.190433937142651" cx="11.451638473591153" cy="19.521760929433253"></circle></g><g class="bobaCup bright" cupRadius="12.015103439359748" width="24.030206878719497" height="24.030206878719497" pearlRadius="2.7380424214283132" pearlCount="7" transform="translate(227.59959028140537,198.3052456993737)"><circle class="pool" r="12.015103439359748" cx="12.015103439359748" cy="12.015103439359748" style="stroke-width: 1; fill: rgb(127, 205, 187);"></circle><circle class="pearl" r="2.1904339371426507" cx="12.01917051017337" cy="12.015264773489738"></circle><circle class="pearl" r="2.1904339371426507" cx="5.117228411064075" cy="15.330610785152933"></circle><circle class="pearl" r="2.1904339371426507" cx="12.656442169459082" cy="4.667852035027617"></circle><circle class="pearl" r="2.1904339371426507" cx="18.477211501209172" cy="16.583220268991553"></circle><circle class="pearl" r="2.1904339371426507" cx="5.553098454244512" cy="7.446735863599835"></circle><circle class="pearl" r="2.1904339371426507" cx="18.896751200845838" cy="8.643585975931426"></circle><circle class="pearl" r="2.1904339371426507" cx="11.319204450207925" cy="19.35931394363654"></circle></g><g class="bobaCup bright" cupRadius="11.835301246955261" width="23.670602493910522" height="23.670602493910522" pearlRadius="2.7380424214283137" pearlCount="7" transform="translate(17.509507258515537,143.13521472346034)"><circle class="pool" r="11.835301246955261" cx="11.835301246955261" cy="11.835301246955261" style="stroke-width: 1; fill: rgb(127, 205, 187);"></circle><circle class="pearl" r="2.190433937142651" cx="11.860367598074863" cy="11.853181408855328"></circle><circle class="pearl" r="2.190433937142651" cx="4.8467078259209995" cy="13.98021698805106"></circle><circle class="pearl" r="2.190433937142651" cx="13.577209204482706" cy="4.779611178803762"></circle><circle class="pearl" r="2.190433937142651" cx="17.643751519926337" cy="17.374258303190583"></circle><circle class="pearl" r="2.190433937142651" cx="6.04139900511985" cy="6.268960043874315"></circle><circle class="pearl" r="2.190433937142651" cx="18.80321717942862" cy="9.581065311737929"></circle><circle class="pearl" r="2.190433937142651" cx="10.013277981925732" cy="18.87878969886405"></circle></g><g class="bobaCup bright" cupRadius="11.590017865268088" width="23.180035730536176" height="23.180035730536176" pearlRadius="2.738042421428314" pearlCount="6" transform="translate(31.412153822621093,31.195614338162535)"><circle class="pool" r="11.590017865268088" cx="11.590017865268088" cy="11.590017865268088" style="stroke-width: 1; fill: rgb(29, 145, 192);"></circle><circle class="pearl" r="2.1904339371426516" cx="11.95655303128479" cy="11.923420385194099"></circle><circle class="pearl" r="2.1904339371426516" cx="6.153366304704797" cy="17.175081559364852"></circle><circle class="pearl" r="2.1904339371426516" cx="9.761175420625818" cy="4.795923514257209"></circle><circle class="pearl" r="2.1904339371426516" cx="17.00862124240882" cy="17.184647317716458"></circle><circle class="pearl" r="2.1904339371426516" cx="4.784168119590186" cy="9.836321824632437"></circle><circle class="pearl" r="2.1904339371426516" cx="17.118550816783152" cy="6.054287465551967"></circle></g><g class="bobaCup bright" cupRadius="11.507063513828111" width="23.014127027656222" height="23.014127027656222" pearlRadius="2.7380424214283137" pearlCount="6" transform="translate(271.722630043641,174.66899325660523)"><circle class="pool" r="11.507063513828111" cx="11.507063513828111" cy="11.507063513828111" style="stroke-width: 1; fill: rgb(29, 145, 192);"></circle><circle class="pearl" r="2.190433937142651" cx="11.88858124945903" cy="11.84773455610839"></circle><circle class="pearl" r="2.190433937142651" cx="6.150378670697412" cy="17.040565253444246"></circle><circle class="pearl" r="2.190433937142651" cx="9.672965688275058" cy="4.797830938014403"></circle><circle class="pearl" r="2.190433937142651" cx="16.8470139977992" cy="17.049349631863706"></circle><circle class="pearl" r="2.190433937142651" cx="4.780925813955346" cy="9.78092732970998"></circle><circle class="pearl" r="2.190433937142651" cx="16.960370099427482" cy="6.024970845782269"></circle></g><g class="bobaCup bright" cupRadius="11.477533266128624" width="22.95506653225725" height="22.95506653225725" pearlRadius="2.738042421428314" pearlCount="6" transform="translate(53.30264451375829,257.80915230441275)"><circle class="pool" r="11.477533266128624" cx="11.477533266128624" cy="11.477533266128624" style="stroke-width: 1; fill: rgb(29, 145, 192);"></circle><circle class="pearl" r="2.1904339371426516" cx="11.864534049452383" cy="11.82069978324689"></circle><circle class="pearl" r="2.1904339371426516" cx="6.149314952219884" cy="16.99262822766977"></circle><circle class="pearl" r="2.1904339371426516" cx="9.6414577863654" cy="4.798534666353637"></circle><circle class="pearl" r="2.1904339371426516" cx="16.78947279396902" cy="17.001143840203095"></circle><circle class="pearl" r="2.1904339371426516" cx="4.779758266073465" cy="9.761328782404092"></circle><circle class="pearl" r="2.1904339371426516" cx="16.904019954007563" cy="6.014552321580847"></circle></g><g class="bobaCup bright" cupRadius="11.370813270948483" width="22.741626541896967" height="22.741626541896967" pearlRadius="2.738042421428314" pearlCount="6" transform="translate(86.33010860160162,269.1351467278083)"><circle class="pool" r="11.370813270948483" cx="11.370813270948483" cy="11.370813270948483" style="stroke-width: 1; fill: rgb(29, 145, 192);"></circle><circle class="pearl" r="2.1904339371426516" cx="11.778336546183487" cy="11.722561953436738"></circle><circle class="pearl" r="2.1904339371426516" cx="6.145476865807053" cy="16.819161974781967"></circle><circle class="pearl" r="2.1904339371426516" cx="9.527082048655114" cy="4.801195612419981"></circle><circle class="pearl" r="2.1904339371426516" cx="16.58146011820698" cy="16.826748930255885"></circle><circle class="pearl" r="2.1904339371426516" cx="4.775474849656808" cy="9.691083587259998"></circle><circle class="pearl" r="2.1904339371426516" cx="16.70017919987345" cy="5.9769731322849395"></circle></g><g class="bobaCup bright" cupRadius="11.300485961691713" width="22.600971923383426" height="22.600971923383426" pearlRadius="2.738042421428314" pearlCount="6" transform="translate(308.6995140383083,101.28032863160081)"><circle class="pool" r="11.300485961691713" cx="11.300485961691713" cy="11.300485961691713" style="stroke-width: 1; fill: rgb(65, 182, 196);"></circle><circle class="pearl" r="2.1904339371426516" cx="11.722186467088564" cy="11.657486150679055"></circle><circle class="pearl" r="2.1904339371426516" cx="6.142959172574484" cy="16.70465708313394"></circle><circle class="pearl" r="2.1904339371426516" cx="9.45123710598646" cy="4.803058597448567"></circle><circle class="pearl" r="2.1904339371426516" cx="16.444317897982277" cy="16.711669907289387"></circle><circle class="pearl" r="2.1904339371426516" cx="4.77259235050002" cy="9.645339889538706"></circle><circle class="pearl" r="2.1904339371426516" cx="16.565666698431517" cy="5.952266507165971"></circle></g><g class="bobaCup bright" cupRadius="10.905165716174336" width="21.810331432348672" height="21.810331432348672" pearlRadius="2.7380424214283137" pearlCount="5" transform="translate(191.93228255344064,38.856395141532765)"><circle class="pool" r="10.905165716174336" cx="10.905165716174336" cy="10.905165716174336" style="stroke-width: 1; fill: rgb(127, 205, 187);"></circle><circle class="pearl" r="2.190433937142651" cx="16.813042181348408" cy="8.177783857235475"></circle><circle class="pearl" r="2.190433937142651" cx="8.096025240543318" cy="16.791584846202934"></circle><circle class="pearl" r="2.190433937142651" cx="10.077740819782026" cy="4.682158796445147"></circle><circle class="pearl" r="2.190433937142651" cx="15.90079284186761" cy="15.948066625058846"></circle><circle class="pearl" r="2.190433937142651" cx="4.688166941032195" cy="10.00224947020713"></circle></g><g class="bobaCup bright" cupRadius="10.589050147446004" width="21.17810029489201" height="21.17810029489201" pearlRadius="2.7380424214283137" pearlCount="5" transform="translate(74.59326320342686,277.59856524447025)"><circle class="pool" r="10.589050147446004" cx="10.589050147446004" cy="10.589050147446004" style="stroke-width: 1; fill: rgb(127, 205, 187);"></circle><circle class="pearl" r="2.190433937142651" cx="16.166488896082694" cy="7.848122276609672"></circle><circle class="pearl" r="2.190433937142651" cx="7.636515055572239" cy="16.107423218762154"></circle><circle class="pearl" r="2.190433937142651" cx="9.810294176025465" cy="4.679398280306563"></circle><circle class="pearl" r="2.190433937142651" cx="15.312683167289311" cy="15.41541898970404"></circle><circle class="pearl" r="2.190433937142651" cx="4.6981785011750326" cy="9.587670838777242"></circle></g><g class="bobaCup bright" cupRadius="10.55281991174198" width="21.10563982348396" height="21.10563982348396" pearlRadius="2.7380424214283137" pearlCount="5" transform="translate(210.20049706990915,175.0717533766016)"><circle class="pool" r="10.55281991174198" cx="10.55281991174198" cy="10.55281991174198" style="stroke-width: 1; fill: rgb(29, 145, 192);"></circle><circle class="pearl" r="2.190433937142651" cx="16.092720772269715" cy="7.811800253961898"></circle><circle class="pearl" r="2.190433937142651" cx="7.581207318626394" cy="16.027881921170703"></circle><circle class="pearl" r="2.190433937142651" cx="9.783011272915553" cy="4.678838738324085"></circle><circle class="pearl" r="2.190433937142651" cx="15.245024703628253" cy="15.35435685101739"></circle><circle class="pearl" r="2.190433937142651" cx="4.6997444414724665" cy="9.53683714422446"></circle></g><g class="bobaCup bright" cupRadius="10.511380869132044" width="21.022761738264087" height="21.022761738264087" pearlRadius="2.7380424214283137" pearlCount="5" transform="translate(91.32222899578134,9.488619130867956)"><circle class="pool" r="10.511380869132044" cx="10.511380869132044" cy="10.511380869132044" style="stroke-width: 1; fill: rgb(65, 182, 196);"></circle><circle class="pearl" r="2.190433937142651" cx="16.008493069025345" cy="7.77084006615936"></circle><circle class="pearl" r="2.190433937142651" cx="7.517035726304651" cy="15.936521124232275"></circle><circle class="pearl" r="2.190433937142651" cx="9.753013843147786" cy="4.678115961986125"></circle><circle class="pearl" r="2.190433937142651" cx="15.167539618792016" cy="15.28452698780469"></circle><circle class="pearl" r="2.190433937142651" cx="4.701691125608923" cy="9.477510360219842"></circle></g><g class="bobaCup bright" cupRadius="10.101201975281217" width="20.202403950562434" height="20.202403950562434" pearlRadius="2.738042421428314" pearlCount="5" transform="translate(29.727431732972857,238.34727861871147)"><circle class="pool" r="10.101201975281217" cx="10.101201975281217" cy="10.101201975281217" style="stroke-width: 1; fill: rgb(127, 205, 187);"></circle><circle class="pearl" r="2.1904339371426516" cx="15.195501698107243" cy="7.442478781308459"></circle><circle class="pearl" r="2.1904339371426516" cx="6.785716455247517" cy="14.992063369395826"></circle><circle class="pearl" r="2.1904339371426516" cx="9.593157046652747" cy="4.6635075035427"></circle><circle class="pearl" r="2.1904339371426516" cx="14.387927876110577" cy="14.596967821572893"></circle><circle class="pearl" r="2.1904339371426516" cx="4.740471205068886" cy="8.757672974601023"></circle></g><g class="bobaCup bright" cupRadius="10.07399097851743" width="20.14798195703486" height="20.14798195703486" pearlRadius="2.738042421428314" pearlCount="5" transform="translate(77.22290793500116,245.3085774264956)"><circle class="pool" r="10.07399097851743" cx="10.07399097851743" cy="10.07399097851743" style="stroke-width: 1; fill: rgb(65, 182, 196);"></circle><circle class="pearl" r="2.1904339371426516" cx="15.144549389703887" cy="7.431647791918925"></circle><circle class="pearl" r="2.1904339371426516" cx="6.725500785231056" cy="14.924473339802592"></circle><circle class="pearl" r="2.1904339371426516" cx="9.600329270317506" cy="4.661864768612567"></circle><circle class="pearl" r="2.1904339371426516" cx="14.334463091636383" cy="14.551995569778985"></circle><circle class="pearl" r="2.1904339371426516" cx="4.745828288596666" cy="8.693002180237135"></circle></g><g class="bobaCup bright" cupRadius="10.052915637984686" width="20.105831275969372" height="20.105831275969372" pearlRadius="2.7380424214283137" pearlCount="5" transform="translate(220.77095511388382,196.8141040981376)"><circle class="pool" r="10.052915637984686" cx="10.052915637984686" cy="10.052915637984686" style="stroke-width: 1; fill: rgb(65, 182, 196);"></circle><circle class="pearl" r="2.190433937142651" cx="15.105620011144246" cy="7.425254015475252"></circle><circle class="pearl" r="2.190433937142651" cx="6.676963817279934" cy="14.871303356525654"></circle><circle class="pearl" r="2.190433937142651" cx="9.608936382932429" cy="4.66053201431526"></circle><circle class="pearl" r="2.190433937142651" cx="14.292743495307665" cy="14.517288270933935"></circle><circle class="pearl" r="2.190433937142651" cx="4.750500626504397" cy="8.64006320447859"></circle></g><g class="bobaCup bright" cupRadius="9.880361155135768" width="19.760722310271536" height="19.760722310271536" pearlRadius="2.7380424214283137" pearlCount="4" transform="translate(297.47212673966266,141.14904745775738)"><circle class="pool" r="9.880361155135768" cx="9.880361155135768" cy="9.880361155135768" style="stroke-width: 1; fill: rgb(65, 182, 196);"></circle><circle class="pearl" r="2.190433937142651" cx="14.484360050158294" cy="6.420353211361249"></circle><circle class="pearl" r="2.190433937142651" cx="5.728118359383833" cy="13.167724504824951"></circle><circle class="pearl" r="2.190433937142651" cx="6.580175742779076" cy="5.218173302847983"></circle><circle class="pearl" r="2.190433937142651" cx="13.632302666763385" cy="14.369904413338539"></circle></g><g class="bobaCup bright" cupRadius="9.44364894362611" width="18.88729788725222" height="18.88729788725222" pearlRadius="2.738042421428314" pearlCount="4" transform="translate(81.52378351116462,241.57268679094955)"><circle class="pool" r="9.44364894362611" cx="9.44364894362611" cy="9.44364894362611" style="stroke-width: 1; fill: rgb(127, 205, 187);"></circle><circle class="pearl" r="2.1904339371426516" cx="13.363371861373906" cy="5.502615796546566"></circle><circle class="pearl" r="2.1904339371426516" cx="5.523857651349809" cy="13.38465089661463"></circle><circle class="pearl" r="2.1904339371426516" cx="5.523955262568526" cy="5.502602458271676"></circle><circle class="pearl" r="2.1904339371426516" cx="13.363274245108766" cy="13.384726624435292"></circle></g><g class="bobaCup bright" cupRadius="9.171453381839932" width="18.342906763679864" height="18.342906763679864" pearlRadius="2.7380424214283137" pearlCount="4" transform="translate(76.1635230223826,222.85499481179286)"><circle class="pool" r="9.171453381839932" cx="9.171453381839932" cy="9.171453381839932" style="stroke-width: 1; fill: rgb(29, 145, 192);"></circle><circle class="pearl" r="2.190433937142651" cx="12.839383505003507" cy="5.4161165495470485"></circle><circle class="pearl" r="2.190433937142651" cx="5.502206945450201" cy="12.92621572664915"></circle><circle class="pearl" r="2.190433937142651" cx="5.5040932599324055" cy="5.4158678561773534"></circle><circle class="pearl" r="2.190433937142651" cx="12.837495282563264" cy="12.92761387539823"></circle></g><g class="bobaCup bright" cupRadius="8.848613428804569" width="17.697226857609138" height="17.697226857609138" pearlRadius="2.7380424214283137" pearlCount="3" transform="translate(28.095133534594694,168.7516005955519)"><circle class="pool" r="8.848613428804569" cx="8.848613428804569" cy="8.848613428804569" style="stroke-width: 1; fill: rgb(65, 182, 196);"></circle><circle class="pearl" r="2.190433937142651" cx="12.924166517359733" cy="10.257099501337796"></circle><circle class="pearl" r="2.190433937142651" cx="5.031599382618926" cy="11.94546975811604"></circle><circle class="pearl" r="2.190433937142651" cx="8.404858307919696" cy="3.6618573218915245"></circle></g><g class="bobaCup bright" cupRadius="8.75970486525697" width="17.51940973051394" height="17.51940973051394" pearlRadius="2.738042421428314" pearlCount="3" transform="translate(228.1146439797599,87.76214753998642)"><circle class="pool" r="8.75970486525697" cx="8.75970486525697" cy="8.75970486525697" style="stroke-width: 1; fill: rgb(65, 182, 196);"></circle><circle class="pearl" r="2.1904339371426516" cx="12.869006531054906" cy="10.206342394433673"></circle><circle class="pearl" r="2.1904339371426516" cx="4.954489950365702" cy="11.832648175262571"></circle><circle class="pearl" r="2.1904339371426516" cx="8.27309692236304" cy="3.6642493833100063"></circle></g><g class="bobaCup bright" cupRadius="8.747190301939531" width="17.494380603879062" height="17.494380603879062" pearlRadius="2.7380424214283137" pearlCount="3" transform="translate(235.99192522975056,117.44980762775289)"><circle class="pool" r="8.747190301939531" cx="8.747190301939531" cy="8.747190301939531" style="stroke-width: 1; fill: rgb(29, 145, 192);"></circle><circle class="pearl" r="2.190433937142651" cx="12.861225798362735" cy="10.199116762028549"></circle><circle class="pearl" r="2.190433937142651" cx="4.943663362919661" cy="11.816760585007424"></circle><circle class="pearl" r="2.190433937142651" cx="8.254539878529956" cy="3.664607527703927"></circle></g><g class="bobaCup bright" cupRadius="8.654975202024822" width="17.309950404049644" height="17.309950404049644" pearlRadius="2.738042421428313" pearlCount="3" transform="translate(288.25396008560904,100.25850480239538)"><circle class="pool" r="8.654975202024822" cx="8.654975202024822" cy="8.654975202024822" style="stroke-width: 1; fill: rgb(65, 182, 196);"></circle><circle class="pearl" r="2.1904339371426502" cx="12.803763186606183" cy="10.145254577848437"></circle><circle class="pearl" r="2.1904339371426502" cx="4.864089917801072" cy="11.699640806876975"></circle><circle class="pearl" r="2.1904339371426502" cx="8.117725745834056" cy="3.667413949896782"></circle></g><g class="bobaCup bright" cupRadius="7.96927104761463" width="15.93854209522926" height="15.93854209522926" pearlRadius="2.7380424214283137" pearlCount="3" transform="translate(45.09085872835307,269.33085637789225)"><circle class="pool" r="7.96927104761463" cx="7.96927104761463" cy="7.96927104761463" style="stroke-width: 1; fill: rgb(29, 145, 192);"></circle><circle class="pearl" r="2.190433937142651" cx="12.149235519559213" cy="9.449004526096964"></circle><circle class="pearl" r="2.190433937142651" cx="4.466441829291642" cy="11.476722760857381"></circle><circle class="pearl" r="2.190433937142651" cx="6.534182634356117" cy="3.781001848808332"></circle></g><g class="bobaCup bright" cupRadius="7.909978944779727" width="15.819957889559454" height="15.819957889559454" pearlRadius="2.7380424214283132" pearlCount="3" transform="translate(286.6442333664247,100.32791381377305)"><circle class="pool" r="7.909978944779727" cx="7.909978944779727" cy="7.909978944779727" style="stroke-width: 1; fill: rgb(127, 205, 187);"></circle><circle class="pearl" r="2.1904339371426507" cx="12.041027344419177" cy="9.32835732632542"></circle><circle class="pearl" r="2.1904339371426507" cx="4.4714764253800965" cy="11.38277081277024"></circle><circle class="pearl" r="2.1904339371426507" cx="6.370242341583557" cy="3.8020310178218875"></circle></g><g class="bobaCup bright" cupRadius="7.722497420717849" width="15.444994841435697" height="15.444994841435697" pearlRadius="2.7380424214283132" pearlCount="2" transform="translate(300.5741767389967,120.50667053274947)"><circle class="pool" r="7.722497420717849" cx="7.722497420717849" cy="7.722497420717849" style="stroke-width: 1; fill: rgb(65, 182, 196);"></circle><circle class="pearl" r="2.1904339371426507" cx="11.312365809679939" cy="7.023786284439513"></circle><circle class="pearl" r="2.1904339371426507" cx="4.401351657801859" cy="11.04364318363384"></circle></g><g class="bobaCup bright" cupRadius="7.70414225072381" width="15.40828450144762" height="15.40828450144762" pearlRadius="2.738042421428314" pearlCount="2" transform="translate(68.65642573814817,261.4515529490559)"><circle class="pool" r="7.70414225072381" cx="7.70414225072381" cy="7.70414225072381" style="stroke-width: 1; fill: rgb(127, 205, 187);"></circle><circle class="pearl" r="2.1904339371426516" cx="11.308265590153786" cy="6.992485932809843"></circle><circle class="pearl" r="2.1904339371426516" cx="4.396769809285567" cy="11.011514692162054"></circle></g><g class="bobaCup bright" cupRadius="7.5619420967445174" width="15.123884193489035" height="15.123884193489035" pearlRadius="2.7380424214283146" pearlCount="2" transform="translate(64.56816665974114,224.54296134435896)"><circle class="pool" r="7.5619420967445174" cx="7.5619420967445174" cy="7.5619420967445174" style="stroke-width: 1; fill: rgb(29, 145, 192);"></circle><circle class="pearl" r="2.1904339371426516" cx="11.276699880314586" cy="6.749958665133644"></circle><circle class="pearl" r="2.1904339371426516" cx="4.361416812745211" cy="10.762467380743825"></circle></g><g class="bobaCup bright" cupRadius="7.449024960682583" width="14.898049921365166" height="14.898049921365166" pearlRadius="2.738042421428314" pearlCount="2" transform="translate(275.54466973187067,114.18162832075393)"><circle class="pool" r="7.449024960682583" cx="7.449024960682583" cy="7.449024960682583" style="stroke-width: 1; fill: rgb(29, 145, 192);"></circle><circle class="pearl" r="2.1904339371426516" cx="11.177514484948258" cy="6.431581098229478"></circle><circle class="pearl" r="2.1904339371426516" cx="4.333532761207081" cy="10.564517899208102"></circle></g><g class="bobaCup bright" cupRadius="6.840910595235956" width="13.681821190471911" height="13.681821190471911" pearlRadius="2.738042421428314" pearlCount="2" transform="translate(305.34249566172514,132.16248189911886)"><circle class="pool" r="6.840910595235956" cx="6.840910595235956" cy="6.840910595235956" style="stroke-width: 1; fill: rgb(127, 205, 187);"></circle><circle class="pearl" r="2.1904339371426516" cx="9.45154610893255" cy="4.168451081972224"></circle><circle class="pearl" r="2.1904339371426516" cx="4.230275081539364" cy="9.51337010849969"></circle></g><g class="bobaCup bright" cupRadius="6.054666037638896" width="12.109332075277791" height="12.109332075277791" pearlRadius="2.7380424214283137" pearlCount="1" transform="translate(254.7690470365067,150.37533580168514)"><circle class="pool" r="6.054666037638896" cx="6.054666037638896" cy="6.054666037638896" style="stroke-width: 1; fill: rgb(29, 145, 192);"></circle><circle class="pearl" r="2.190433937142651" cx="8.186672446426124" cy="6.054666037638896"></circle></g><g class="bobaCup bright" cupRadius="6.044382983321093" width="12.088765966642185" height="12.088765966642185" pearlRadius="2.738042421428314" pearlCount="1" transform="translate(179.73276009644138,285.78388662642385)"><circle class="pool" r="6.044382983321093" cx="6.044382983321093" cy="6.044382983321093" style="stroke-width: 1; fill: rgb(29, 145, 192);"></circle><circle class="pearl" r="2.1904339371426516" cx="8.169779194436114" cy="6.044382983321093"></circle></g><g class="bobaCup bright" cupRadius="3.065290380591665" width="6.13058076118333" height="6.13058076118333" pearlRadius="2.7380424214283132" pearlCount="0" transform="translate(231.78391162142452,87.1378114765572)"><circle class="pool" r="3.065290380591665" cx="3.065290380591665" cy="3.065290380591665" style="stroke-width: 1; fill: rgb(29, 145, 192);"></circle></g><g class="bobaCup bright" cupRadius="0" width="0" height="0" pearlRadius="NaN" pearlCount="0" transform="translate(20,128.40952920557922)"><circle class="pool" r="0" cx="0" cy="0" style="stroke-width: 1; fill: rgb(29, 145, 192);"></circle></g></g><g id="legendDividerGroup" transform="translate(410,0)" height="400"><rect class="legendDivider" height="400" width="90"></rect></g><g id="legend" transform="translate(410,16.15588439288365)" width="90" height="320"><rect class="legendBorder" transform="translate(0,0)" width="90" height="347.6882312142327"></rect><text id="rTitle" text-anchor="middle" alignment-baseline="hanging" transform="translate(45,0)" x="0" y="0" style="fill: black; font-size: 0.8rem;">Population</text><text id="bobaValue" text-anchor="middle" alignment-baseline="hanging" transform="translate(45,15)" x="0" y="0" style="fill: black; font-size: 0.7rem;">(1 Pearl =   75)</text><g class="bright" cupRadius="3.065290380591665" width="6.13058076118333" height="6.13058076118333" pearlRadius="2.7380424214283132" pearlCount="0" transform="translate(41.93470961940834,40)"><circle class="pool" r="3.065290380591665" cx="3.065290380591665" cy="3.065290380591665" style="stroke-width: 1; fill: rgb(29, 145, 192);"></circle></g><text id="0" class="legendSampleValue" text-anchor="middle" transform="translate(45,8)" x="0" y="51.13058076118333" style="fill: black; font-size: 0.7rem;">  35</text><g class="bright" cupRadius="9.355041640413914" width="18.710083280827828" height="18.710083280827828" pearlRadius="2.7380424214283137" pearlCount="4" transform="translate(35.644958359586084,71.13058076118332)"><circle class="pool" r="9.355041640413914" cx="9.355041640413914" cy="9.355041640413914" style="stroke-width: 1; fill: rgb(29, 145, 192);"></circle><circle class="pearl" r="2.190433937142651" cx="13.192645713381115" cy="5.474082791397731"></circle><circle class="pearl" r="2.190433937142651" cx="5.517142117001807" cy="13.235867587817342"></circle><circle class="pearl" r="2.190433937142651" cx="5.517564393456819" cy="5.474025745396839"></circle><circle class="pearl" r="2.190433937142651" cx="13.192223342124375" cy="13.236190462098659"></circle></g><text id="1" class="legendSampleValue" text-anchor="middle" transform="translate(45,8)" x="0" y="94.84066404201116" style="fill: black; font-size: 0.7rem;"> 330</text><g class="bright" cupRadius="12.870027314283707" width="25.740054628567414" height="25.740054628567414" pearlRadius="2.7380424214283137" pearlCount="8" transform="translate(32.1299726857163,114.84066404201116)"><circle class="pool" r="12.870027314283707" cx="12.870027314283707" cy="12.870027314283707" style="stroke-width: 1; fill: rgb(29, 145, 192);"></circle><circle class="pearl" r="2.190433937142651" cx="13.577188891408676" cy="12.928523279249427"></circle><circle class="pearl" r="2.190433937142651" cx="6.706427758536405" cy="19.51742975268944"></circle><circle class="pearl" r="2.190433937142651" cx="14.227668269100754" cy="4.722531365632824"></circle><circle class="pearl" r="2.190433937142651" cx="20.508713605632106" cy="16.69207084126257"></circle><circle class="pearl" r="2.190433937142651" cx="4.653998443566067" cy="13.160360718937566"></circle><circle class="pearl" r="2.190433937142651" cx="20.42475989508438" cy="8.787815713217212"></circle><circle class="pearl" r="2.190433937142651" cx="14.277009408583432" cy="21.01219290945875"></circle><circle class="pearl" r="2.190433937142651" cx="6.704131285156489" cy="6.223878000934091"></circle></g><text id="2" class="legendSampleValue" text-anchor="middle" transform="translate(45,8)" x="0" y="145.58071867057856" style="fill: black; font-size: 0.7rem;"> 620</text><g class="bright" cupRadius="15.612764074530144" width="31.22552814906029" height="31.22552814906029" pearlRadius="2.7380424214283132" pearlCount="12" transform="translate(29.387235925469856,165.58071867057856)"><circle class="pool" r="15.612764074530144" cx="15.612764074530144" cy="15.612764074530144" style="stroke-width: 1; fill: rgb(29, 145, 192);"></circle><circle class="pearl" r="2.1904339371426507" cx="17.634662088650053" cy="11.199698587836162"></circle><circle class="pearl" r="2.1904339371426507" cx="11.58095056151114" cy="16.237558624229983"></circle><circle class="pearl" r="2.1904339371426507" cx="14.524798862941422" cy="4.688676429600652"></circle><circle class="pearl" r="2.1904339371426507" cx="18.440994886125093" cy="18.54328962057225"></circle><circle class="pearl" r="2.1904339371426507" cx="4.713454573333515" cy="14.214592357575464"></circle><circle class="pearl" r="2.1904339371426507" cx="26.52582129333364" cy="14.376988919876256"></circle><circle class="pearl" r="2.1904339371426507" cx="12.005667285016381" cy="26.152408017229757"></circle><circle class="pearl" r="2.1904339371426507" cx="7.241183360673552" cy="7.084904739019328"></circle><circle class="pearl" r="2.1904339371426507" cx="25.159681991908858" cy="22.10779201425238"></circle><circle class="pearl" r="2.1904339371426507" cx="5.903898013611255" cy="21.741434198146194"></circle><circle class="pearl" r="2.1904339371426507" cx="23.953177326202" cy="7.065157528532189"></circle><circle class="pearl" r="2.1904339371426507" cx="19.61263094095804" cy="26.053742774429267"></circle></g><text id="3" class="legendSampleValue" text-anchor="middle" transform="translate(45,8)" x="0" y="201.80624681963886" style="fill: black; font-size: 0.7rem;"> 910</text><g class="bright" cupRadius="17.940992197296936" width="35.88198439459387" height="35.88198439459387" pearlRadius="2.738042421428314" pearlCount="16" transform="translate(27.059007802703064,221.80624681963886)"><circle class="pool" r="17.940992197296936" cx="17.940992197296936" cy="17.940992197296936" style="stroke-width: 1; fill: rgb(29, 145, 192);"></circle><circle class="pearl" r="2.1904339371426516" cx="18.667632852262315" cy="18.72770840971529"></circle><circle class="pearl" r="2.1904339371426516" cx="13.510402820700852" cy="23.528366728336355"></circle><circle class="pearl" r="2.1904339371426516" cx="16.431983280622642" cy="11.29617298164895"></circle><circle class="pearl" r="2.1904339371426516" cx="20.645600151992735" cy="26.161911833035603"></circle><circle class="pearl" r="2.1904339371426516" cx="11.035456162993395" cy="16.652865457169387"></circle><circle class="pearl" r="2.1904339371426516" cx="23.32777632818317" cy="13.467987403859063"></circle><circle class="pearl" r="2.1904339371426516" cx="14.990168195295249" cy="30.98693076502744"></circle><circle class="pearl" r="2.1904339371426516" cx="11.395148652920176" cy="5.8874904119378435"></circle><circle class="pearl" r="2.1904339371426516" cx="26.28002831440818" cy="20.705487033437787"></circle><circle class="pearl" r="2.1904339371426516" cx="5.027608184230289" cy="21.599043294222522"></circle><circle class="pearl" r="2.1904339371426516" cx="27.70260361013469" cy="7.5388039583735935"></circle><circle class="pearl" r="2.1904339371426516" cx="27.963046017833452" cy="28.171049803135684"></circle><circle class="pearl" r="2.1904339371426516" cx="6.156002696023766" cy="10.747484840971719"></circle><circle class="pearl" r="2.1904339371426516" cx="30.948313367627573" cy="14.767245353283508"></circle><circle class="pearl" r="2.1904339371426516" cx="8.226861637730583" cy="28.373864975486594"></circle><circle class="pearl" r="2.1904339371426516" cx="20.671184664535478" cy="4.859675212872126"></circle></g><text id="4" class="legendSampleValue" text-anchor="middle" transform="translate(45,8)" x="0" y="262.6882312142327" style="fill: black; font-size: 0.7rem;">1.2k</text><g class="bright" cupRadius="20" width="40" height="40" pearlRadius="2.7380424214283137" pearlCount="20" transform="translate(25,282.6882312142327)"><circle class="pool" r="20" cx="20" cy="20" style="stroke-width: 1; fill: rgb(29, 145, 192);"></circle><circle class="pearl" r="2.190433937142651" cx="20.803317911356498" cy="19.852362298934615"></circle><circle class="pearl" r="2.190433937142651" cx="12.399118369231148" cy="22.318129073543428"></circle><circle class="pearl" r="2.190433937142651" cx="20.14107886386132" cy="11.690576671380018"></circle><circle class="pearl" r="2.190433937142651" cx="25.351645945468196" cy="26.426489948513225"></circle><circle class="pearl" r="2.190433937142651" cx="5.45555413244983" cy="14.383463400696877"></circle><circle class="pearl" r="2.190433937142651" cx="27.007002384921414" cy="14.812215198670392"></circle><circle class="pearl" r="2.190433937142651" cx="17.669394065840073" cy="27.98572181627974"></circle><circle class="pearl" r="2.190433937142651" cx="13.075316060454844" cy="14.529673081448232"></circle><circle class="pearl" r="2.190433937142651" cx="31.363412690087696" cy="21.539471699750266"></circle><circle class="pearl" r="2.190433937142651" cx="6.986823167406808" cy="29.380119115938808"></circle><circle class="pearl" r="2.190433937142651" cx="24.195863946736896" cy="5.095807587217031"></circle><circle class="pearl" r="2.190433937142651" cx="27.929986347293504" cy="33.70997709935047"></circle><circle class="pearl" r="2.190433937142651" cx="8.960309851298339" cy="7.973635910317352"></circle><circle class="pearl" r="2.190433937142651" cx="34.68553340637696" cy="14.890285786129768"></circle><circle class="pearl" r="2.190433937142651" cx="12.548559824642552" cy="33.90934248556552"></circle><circle class="pearl" r="2.190433937142651" cx="16.437930987710008" cy="4.970487855189916"></circle><circle class="pearl" r="2.190433937142651" cx="33.26719371328966" cy="28.885282914155283"></circle><circle class="pearl" r="2.190433937142651" cx="4.745924110358729" cy="21.949095191008542"></circle><circle class="pearl" r="2.190433937142651" cx="31.34694409707199" cy="8.181149473979769"></circle><circle class="pearl" r="2.190433937142651" cx="20.521343379892976" cy="35.34248064375117"></circle></g><text id="5" class="legendSampleValue" text-anchor="middle" transform="translate(45,8)" x="0" y="327.6882312142327" style="fill: black; font-size: 0.7rem;">1.5k</text><text id="coloringDisclaimer" transform="translate(45,8)" text-anchor="middle" x="0" y="342.6882312142327" style="font-size: 0.7rem; opacity: 0.6;">(note: coloring</text><text id="coloringDisclaimer" transform="translate(45,8)" text-anchor="middle" x="0" y="357.6882312142327" style="font-size: 0.7rem; opacity: 0.6;">is random)</text></g></svg>